<svg xmlns="http://www.w3.org/2000/svg" xml:space="preserve" fill-rule="evenodd" stroke-linejoin="round" stroke-miterlimit="2" clip-rule="evenodd" viewBox="-0.17 -0.23 1055.53 872.02" preserveAspectRatio="none"><g transform="matrix(9.24671 0 0 13.6712 -.002 0)"><path fill-rule="nonzero" d="M113.72 61.34c-.27.424-1.22.216-1.496.51-.07.076-.216 1.73-.59.69-.266.73-3.614.576-4.44.74.96.776-.63.296-1.02.16.204-.094.416-.196.62-.29-.614-.476-1.126-.18-1.82-.104-.9.094-1.76-.104-2.62-.03-.806.076-1.386.314-2.19.27-1.046-.06-2.24-.21-3.23-.524-1.484-.466-2.906-.594-4.484-.55-.834.024-1.406.44-2.186.59-1.06.21-2.34.076-3.406-.05-.844-.1-1.626-.344-2.47-.216-.746.116-1.04.51-1.924.19-.25-.09-.61-.46-.82-.5-.334-.064-1.156.174-1.504.234-.86.146-1.614.384-2.5.4-.916.016-1.734-.304-2.58-.336-.75-.03-1.556.31-2.33.314-1.99.01-3.924-.04-5.924.02-1.484.046-3.594-.33-4.994.046-.454.12-.446.35-.924.344-.07 0 .04-.284-.186-.35-.41-.12-.93-.04-1.344-.046-1.906-.016-3.924.234-5.774-.29-.796-.226-1.476-.67-2.354-.6-.24.02-.494.01-.72.1-.296.116-.19.476-.31.54-1.414.756-3.97.204-5.56.344-.97.086-1.966.32-2.94.326-.744 0-1.534-.44-2.14-.376-.506.054-.86.43-1.47.436-.7.006-1.076-.3-1.696-.436-.71-.156-1.64-.094-2.35.064-.914.204-1.88 1-2.86.744-.376-.1-.476-.34-.79-.47-.61-.256-1.016-.216-1.7-.256-.83-.046-1.54-.03-2.364.02-.906.054-1.36-.344-2.144-.396-.734-.046-.246.16-.77.274-.606.134-1.214.116-1.856.12-1.22.006-2.434-.02-3.656-.054-1.106-.03-2.23.33-3.324.16-.984-.156-1.38-.604-2.48-.61-1.044-.006-1.366.296-2.22.884-.044-.28-.096-.56-.14-.84-.81.74-1.456-.06-2.416.024-.7.06-1.08.634-1.924.424-.37-.09-1.214-.896-1.73-.77-.614.146-.61.906-1.216.646-.416-.716-.54-.406-1.26-.116-.256-.564-.854-1.204-.26-1.59-.786-.42-.536-3.196-.53-4.05.006-.69.19-1.354.166-2.05-.016-.366-.03-.77-.146-1.12-.13-.4.06-.966-.39-.314-.104-.41.01-.73.074-1.134.154.18.304.36.46.534-.03-1.196.01-2.436-.11-3.6-.13-1.25-.19-2.39.12-3.64.46-1.854.386-3.314-.01-5.14-.276-1.26.256-2.554.256-3.796 0-.594-.31-1.11-.26-1.7.056-.604.34-1.024.336-1.64-.01-1.01-.376-1.964-.33-2.99.02-.454.21-.864.244-1.29.046-.52-.214-1.12-.22-1.656-.04-2.376-.066-4.766-.026-7.144.01-.64-.256-1.226-.27-1.766 0-.1.244-.76.27-.914.114-.734 0-1.574 0-2.32 0-1.21.294-2.164.54-3.33.21-.99-.28-1.28-.53-2.064-.37-1.17.016-2.77-.11-4.01-.136-1.32.09-2.47.09-3.75a.8.8 0 0 1-.156.14c.27-.426 1.22-.214 1.496-.51.07-.074.216-1.73.59-.69.266-.73 3.616-.574 4.44-.74-.96-.776.63-.294 1.02-.16-.206.094-.416.194-.62.29.616.476 1.126.18 1.82.104.9-.094 1.76.104 2.62.03.804-.074 1.384-.316 2.19-.27 1.044.06 2.24.21 3.23.526 1.484.464 2.906.594 4.484.55.836-.024 1.406-.44 2.184-.59 1.06-.21 2.34-.074 3.406.05.844.1 1.626.344 2.47.216.746-.114 1.04-.51 1.926-.19.25.09.61.46.82.5.336.064 1.156-.176 1.506-.236.86-.146 1.616-.386 2.5-.4.914-.016 1.734.306 2.58.336.75.03 1.554-.31 2.33-.314 1.99-.01 3.924.04 5.924-.02 1.484-.046 3.594.33 4.994-.046.454-.12.446-.35.924-.344.07 0-.04.286.186.35.41.12.93.04 1.344.046 1.906.016 3.924-.234 5.774.29.796.226 1.476.67 2.354.6.24-.02.494-.01.72-.1.296-.114.19-.476.31-.54 1.416-.756 3.97-.204 5.56-.344.97-.084 1.966-.32 2.94-.326.746 0 1.534.44 2.14.376.504-.056.86-.43 1.47-.434.7-.006 1.076.3 1.694.434.71.156 1.64.094 2.35-.064.916-.204 1.88-1 2.86-.744.376.1.474.34.79.47.61.256 1.016.214 1.7.256.83.046 1.54.03 2.364-.02.906-.056 1.36.344 2.144.396.734.044.246-.16.77-.276.606-.136 1.216-.114 1.856-.12 1.22-.006 2.436.02 3.656.056 1.106.03 2.23-.33 3.326-.16.984.156 1.38.604 2.48.61 1.046.004 1.364-.294 2.22-.886l.14.84c.81-.74 1.454.06 2.416-.024.7-.06 1.08-.636 1.924-.426.37.09 1.216.896 1.73.77.614-.146.61-.906 1.216-.646.416.716.54.406 1.26.114.254.564.856 1.206.26 1.59.784.42.534 3.194.53 4.05-.004.69-.19 1.356-.166 2.05.016.366.03.77.144 1.12.13.4-.06.964.39.314.106.41-.01.73-.076 1.134-.156-.18-.306-.36-.46-.536.03 1.196-.01 2.436.11 3.6.13 1.26.19 2.37-.12 3.64-.24.976-.376 1.73-.356 2.726.02 1.06.284 1.96.364 2.98.094 1.25-.416 2.55-.246 3.766.084.61.31.89.174 1.524-.12.574-.26.676-.26 1.28.01 1.18.504 2.3.314 3.504-.16 1.016 0 1.896-.04 2.946-.046 1.19.05 2.35.056 3.546.004 1.216-.216 2.674.004 3.87.03.174.18.44.18.594.004.19-.1.436-.1.57 0 1.19-.06 2.436-.09 3.634-.03 1.116-.87 2.62-.584 3.674.08.29.33.47.416.696.19.494.166.954.166 1.494.02 2.14.056 4.57.174 6.564z"/></g></svg>
