<svg xmlns="http://www.w3.org/2000/svg" xml:space="preserve" fill-rule="evenodd" stroke-linejoin="round" stroke-miterlimit="2" clip-rule="evenodd" viewBox="-.02 -.02 294.27 300.07"><path fill-rule="nonzero" d="M12.656 204.273c-.234-1.94-.356-3.909-.77-5.813-.177-.816-.805-1.847-1.508-2.184-4.584-2.184-4.35-4.744-3.684-9.197.225-1.547-.572-3.244-.872-4.884-.037-.197.047-.572.178-.628.712-.319 1.519-.469 2.166-.88.506-.329.975-.929 1.144-1.492.075-.244-.581-.938-1.003-1.05-1.2-.328-1.106-2.625-2.934-1.875.009-.506.037-1.003.009-1.5-.028-.525-.122-1.04-.188-1.566-.056-.459-.337-1.05-.15-1.35.628-.975 1.472-1.819 2.138-2.766.225-.319.197-.834.28-1.256-.262.103-.515.244-.777.3-.244.056-.591.131-.76.01-.805-.535-1.508-1.267-2.371-1.679-1.706-.816-2.616-1.94-2.128-3.9.047-.169.056-.478.122-.497 2.569-.487.553-1.378.206-2.147-.703-1.575.525-4.03 2.1-4.35.29-.056.73-.44.73-.675-.008-1.753.667-3.506-1.171-5.09-.928-.788-1.22-2.72-1.191-4.117.038-1.997.778-3.966.966-5.972.197-2.156.112-4.33.14-6.497 0-.178-.14-.384-.093-.534.572-1.809.319-2.869-1.903-3.272-.638-.122-1.5-2.175-1.303-3.14.712-3.46 1.087-7.36 3-10.107 2.269-3.253 2.634-6.534 3.225-10.116.863-5.259 2.55-10.322 6.122-14.522.29-.337.619-.806.619-1.209-.075-3.628 2.063-6.29 3.703-9.244 1.903-3.422 3.122-7.228 5.128-10.575 1.913-3.188 4.425-6.019 6.722-8.972 2.728-3.497 5.428-7.03 8.278-10.425 2.344-2.794 4.416-6.29 7.444-7.95 5.569-3.047 8.419-8.69 13.322-12.197 2.034-1.453 4.453-2.372 6.703-3.497 3.122-1.556 6.309-3.009 9.384-4.659 2.775-1.48 5.559-1.884 8.588-.966.469.141 1.256-.169 1.678-.534 1.087-.947 2.137-1.969 3.047-3.084 2.68-3.3 6.075-5.212 10.219-6.272 2.953-.759 5.606-2.569 8.512-3.563 5.372-1.828 10.313-4.828 16.172-5.362 4.866-.44 9.647-1.706 14.513-2.222 2.747-.29 5.588.441 8.372.31 3.675-.17 7.33-.976 11.006-1.07 4.79-.13 9.59.122 14.38.281 6.31.206 12.189 2.26 18 4.462 3.404 1.284 6.714 2.803 10.05 4.266 4.276 1.866 7.5 5.034 10.839 8.212 2.353 2.241 5.672 3.47 8.55 5.166.384.234.984.506 1.04.834.31 1.903 1.36 2.531 3.17 2.12.047-.01.122-.048.13-.029 1.267 1.941 2.635.253 3.967.16.375-.029.825.233 1.153.477 2.016 1.453 3.825 3.094 4.762 5.503.075.197.3.328.469.488.225.206 1.528-.103.356.787-.084.066.13.844.375 1.003 1.03.62 2.128 1.116 3.206 1.65.038.02.094.01.14.02-.674 3.018 2.935 2.7 3.676 4.677.187.487 1.04.694 1.537 1.097a38 38 0 0 1 1.959 1.744c.225.206.338.637.58.703 4.989 1.406 7.5 5.878 10.998 9.075 2.062 1.884 3.422 4.528 5.194 6.741.356.441 1.247.403 1.8.741.975.6 1.93 1.237 2.784 1.987 3.038 2.72 2.99 6.366 2.972 10.041-.02 2.981 2.475 5.166 5.475 4.734.637-.094 1.116-1.359 1.63-2.109.367-.534.667-1.106 1.004-1.669-.038.713.047 1.444-.122 2.12-.31 1.19-.778 2.333-1.163 3.505-.103.3-.113.628-.16.947.404-.113.807-.225 1.22-.347.844-.244 1.678-.572 2.54-.675.217-.028.817.778.732 1.031-.853 2.625.563 4.613 1.95 6.441 4.772 6.291 7.94 13.125 8.344 21.16.084 1.593 1.425 3.093 1.93 4.715.479 1.547 2.307 3.084-.083 4.903-.656.506-.225 2.681-.01 4.041.292 1.866.892 3.684 1.295 5.531.328 1.491.619 3 .844 4.52.056.411-.328.89-.281 1.312.066.544.366 1.05.553 1.575.74 2.1 1.059 4.163-.17 6.253-.261.46-.027 1.2-.046 1.82-.075 3.158-.01 6.327-.328 9.468-.084.834-.703 1.5.188 2.203.103.084.13.478.094.497-2.306 1.097-.666 3-.91 4.51-.365 2.25-.205 4.65-.946 6.75-.778 2.23-2.391 4.161-3.488 6.3-.281.552-.103 1.424.056 2.1.178.74.966 1.5.834 2.118-.46 2.222-1.162 4.397-1.866 6.553-.131.384-.694.684-1.116.91-1.106.59-1.547 1.124-.45 2.258.403.422.216 1.444.206 2.194 0 .047-.825-.038-1.097.17-1.078.815-2.353 1.565-3.056 2.661-.478.75-.375 2.11-.084 3.056 1.172 3.77-.806 6.328-3.122 8.794-1.547 1.641-3.225 3.16-4.697 4.866-.478.553-.647 1.52-.638 2.297.009.534.572 1.05.88 1.584.507-.375.976-.825 1.529-1.097.825-.403 1.856-1.134 2.559-.928 1.669.497 1.49-.619 1.725-1.48.056-.207.159-.413.234-.62.14.094.347.16.394.281.075.188.13.478.047.628-.647 1.172-1.331 2.316-2.006 3.47-.037.065-.047.15-.066.224.122 0 .28.066.366 0 .553-.403 1.078-.853 1.64-1.247.348-.244.742-.413 1.117-.609.15.441.516.956.403 1.313-.788 2.456-1.36 5.063-2.634 7.256-1.238 2.138-2.906 4.706-4.978 5.466-2.006.731-2.981 2.156-4.425 3.234-2.438 1.828-3.6 4.322-4.556 7.284-.76 2.344-3.206 4.144-4.913 6.188-1.284 1.538-2.56 3.075-3.853 4.613-.91 1.078-1.828 2.147-2.728 3.225-1.181 1.397-2.334 2.803-3.544 4.181-.291.328-.741.516-1.097.787-.581.441-1.472.797-1.678 1.378-.9 2.606-2.972 4.125-4.931 5.784-2.316 1.96-4.575 4.003-6.881 5.981-.9.77-1.987 1.36-2.766 2.231-.797.891-1.125 2.27-2.025 2.991-.994.797-2.456.975-3.591 1.631-1.284.741-2.494 1.631-3.62 2.597-1.265 1.087-2.483 1.453-4.05.647-.3-.159-1.03.262-1.415.591-1.153.966-2.081 2.438-3.384 2.944-3.094 1.191-6.075 2.512-9.02 4.078-4.602 2.456-9.355 4.697-14.211 6.591-4.941 1.922-10.013 3.628-15.16 4.847-3.627.853-7.48.816-11.23 1.041-4.82.281-9.544.712-14.344 1.641-5.447 1.06-11.26.281-16.922.188-2.42-.038-4.856-.169-7.228-.58-2.241-.385-4.341.571-6.534.318-.113-.009-.244.17-.375.253.216.225.45.431.638.666.178.216.319.47.478.703-.253-.037-.516-.056-.76-.103-1.443-.272-3.196-.122-4.274-.9-3.787-2.709-8.306-2.794-12.506-4.013-2.034-.59-4.003-1.472-5.925-2.39-.31-.15-.112-1.21-.291-1.81-.084-.28-.497-.459-.77-.675-.158.366-.355.731-.45 1.116-.093.356-.074.741-.102 1.116-.253-.28-.506-.553-.75-.834l-2.475-2.953c-.32-.375-.591-.844-1.003-1.087-.703-.422-1.453-.88-2.241-1.022-2.016-.375-4.134-.356-6.075-.919-1.734-.506-3.31-1.566-4.941-2.419a630 630 0 0 1-8.606-4.603c-.272-.15-.413-.525-.62-.787.292.113.667.141.863.347 1.763 1.894 4.18 2.278 6.516 2.747.45.094 1.013-.43 1.528-.666-.263-.272-.487-.638-.806-.797-2.325-1.134-4.678-2.23-7.022-3.338-.206-.094-.525-.3-.62-.234-1.883 1.444-2.586-.806-3.871-1.19-.703-.207-1.472-.263-2.212-.31-1.191-.075-2.625.32-3.544-.206-2.138-1.209-4.556-2.325-5.128-5.194-.084-.44-.497-.928-.891-1.162-1.8-1.05-3.656-1.997-5.466-3.019a41 41 0 0 1-3.17-1.95c-.074-.047.245-.722.432-1.078.112-.216.319-.394.487-.59-.188-.104-.384-.3-.572-.292-2.822.131-2.87-2.625-4.181-4.04-.834-.91-1.481-1.998-2.166-3.039-.9-1.369-1.697-2.803-2.663-4.116-.46-.628-1.322-.956-1.781-1.584-.553-.75-2.625-1.48-.3-2.625.113-.056.15-.244.225-.366-.384-.075-.816-.075-1.153-.244-.572-.29-1.106-.675-1.612-1.069-.056-.047.094-.497.253-.656.263-.262.863-.43.872-.656.019-.412-.197-1.116-.488-1.219-1.003-.356-2.137-.366-3.112-.769-1.05-.43-1.988-1.134-2.944-1.762-1.003-.656-2.034-1.303-2.934-2.09-1.22-1.05-2.7-2.045-3.384-3.413-1.22-2.428-2.034-5.08-2.747-7.706-.197-.703.375-1.828.919-2.484 1.875-2.278 1.79-3.103-.141-5.316-1.266-1.453-2.044-3.319-3.244-4.838-.825-1.04-2.062-1.753-3-2.719-.478-.497-.788-1.2-1.022-1.866-.478-1.34-.844-2.719-1.266-4.078-.084-.272-.234-.525-.356-.778.169-.047.384-.178.497-.112.244.131.488.328.619.562.244.431.3 1.06.638 1.341.684.562 1.509.947 2.278 1.397l-.197-2.316c-.17.01-.3.02-.441.037z"/></svg>