<svg xmlns="http://www.w3.org/2000/svg" xml:space="preserve" fill-rule="evenodd" stroke-linejoin="round" stroke-miterlimit="2" clip-rule="evenodd" viewBox="0 0 300 300"><path fill-rule="nonzero" d="M152.422 299.877c-2.026 1.088-4.52-5.373-5.627-6.968-.525-.76-.619-1.753-1.012-2.588-.47-.994-1.238-2.232-1.8-3.376-.601-1.219-1.333-2.738-1.801-3.938-.413-1.06-.62-2.195-1.013-3.264-.45-1.219-1.257-2.654-1.688-4.05-.563-1.839-1.22-5.009-1.688-6.978-.385-1.613-.75-3.338-1.125-4.839-.347-1.397-1.032-2.729-1.126-4.163-.6-9.247-2.063-42.125-2.475-51.315-.057-1.275-.01-2.55 0-3.826.018-1.856.159-4.876.112-7.314-.056-3.17-.44-7.802-.45-11.703-.056-18.756.037-83.395.112-100.819.01-1.247.076-2.813.338-3.714.197-.665.619-1.36 1.238-1.688 1.106-.58 4.276-1.05 5.401-1.8.835-.563 2.13-2.063 1.35-2.7-1.125-.92-5.26-2.505-8.101-2.814-4.333-.469-15.21.956-17.893 0-1.885-.675 1.332-4.726 1.8-5.74.15-.318.676-.215 1.013-.337.47-.169 1.332-.469 1.8-.675.357-.16.657-.422 1.014-.563.469-.187 1.181-.45 1.8-.562 1.576-.282 5.13-.582 7.652-1.126 2.682-.58 6.977-1.369 8.44-2.363.994-.675.3-2.4.338-3.6.056-1.707-.3-4.446 0-6.64.356-2.57 1.594-5.814 2.138-8.777.731-3.958 1.95-11.047 2.25-14.967.216-2.85-.3-5.702-.45-8.552-.187-3.508-.75-9.94-.675-12.491.028-1.013.375-2.139 1.125-2.814C144.451 1.876 146.795 0 148.483 0s4.051 1.876 5.064 2.813c.732.675.629 1.895 1.013 2.814.825 1.95 3.939 5.645 3.939 8.89 0 3.563-3.545 9.02-3.939 12.49-.319 2.804 1.078 5.543 1.575 8.328.582 3.263 1.407 8.027 1.913 11.253.422 2.691.563 5.551 1.126 8.102.544 2.457.731 5.814 2.25 7.202s4.792.085 6.865 1.125c3.826 1.932 15.83 8.965 16.092 10.466s-10.878-1.407-14.517-1.463c-2.466-.038-6.245.75-7.314 1.125-.45.16.712.685.9 1.126.638 1.5 2.4 5.13 2.926 7.877.619 3.226.816 7.643.788 11.478-.113 16.692-.957 59.35-1.463 88.665-.507 29.07-.45 69.854-1.576 87.202-.384 5.87-3.226 11.816-5.176 16.88-1.8 4.66-4.502 12.416-6.527 13.504M93.118 279.968c-.019-1.163 1.125-3.15 1.575-4.501.394-1.191.77-2.626 1.126-3.601.281-.769.675-1.575 1.013-2.25.309-.62.768-1.313 1.012-1.801.178-.366.207-.807.45-1.125.244-.32.77-.441 1.013-.788.488-.694.77-2.776 1.913-3.376 1.35-.713 4.97-1.032 6.19-.9.675.075.618 1.238 1.125 1.688.769.675 2.7 1.219 3.488 2.363s1.238 3.226 1.238 4.501c0 1.125-.356 2.448-1.238 3.15-1.275 1.014-4.595 1.97-6.414 2.927-1.566.825-2.963 1.932-4.501 2.813-1.8 1.032-4.97 3.226-6.302 3.376-.994.112-1.67-1.482-1.688-2.476"/><path fill-rule="nonzero" d="M187.86 266.127c-.61.666-1.838 2.007-2.926 2.813-1.332.994-3.638 2.382-5.064 3.151-1.106.6-2.672 2.429-3.488 1.463-.826-.975-1.294-5.195-1.463-7.315-.14-1.8.281-4.35.45-5.401.056-.347.553-.544.563-.9.3-14.31.881-56.632 1.237-84.952.357-28.34-1.538-70.716.9-85.064.77-4.52 9.144-.975 13.73-1.013 6.564-.056 17.592.469 25.657.675 7.577.197 19.036-2.1 22.73.563 3.696 2.663-.252 10.287-.562 15.417-.394 6.526-1.406 17.442-1.8 23.744-.291 4.68-.432 9.677-.563 14.066-.122 4.089-.281 9.228-.225 12.266.038 1.997.319 4.895.563 5.964.075.328.675.206.9.45.244.263.394 1.51.563 1.126.243-.563.159-3.16.9-4.502.844-1.538 2.363-4.52 4.163-4.726s5.12 2.7 6.64 3.489c.816.422 1.8.881 2.475 1.237.535.282 1.06.591 1.576.9.881.526 2.72 1.501 3.713 2.251.844.638 3.31 2.148 2.251 2.25-3.638.357-19.655-1.012-24.082-.112-1.978.404-1.847 3.601-2.475 5.514-.713 2.176-1.294 5.59-1.8 7.54-.367 1.397-.854 2.766-1.239 4.164-1.031 3.788-3.826 14.197-4.951 18.567-.656 2.542-1.313 6.058-1.8 7.652-.216.704-.75 1.313-1.126 1.913-.356.572-.872 1.313-1.125 1.688"/><path fill-rule="nonzero" d="M223.307 212.693c1.838 0 .253-4.548 4.286-2.775 4.585 2.006 3.91 3.02 9.218 6.18 3.3 1.96 2.898 2.578 6.414 4.022.666.272 2.373.854 1.763 1.248-2.044 1.303-25.413.61-26.407-.582-.516-.619.806-1.594 1.575-1.81.404-.103.826.103 1.238.132.225.018.61.234.685.009.506-1.379-1.022-2.813-1.022-4.286M219.931 214.381c-.562.338-1.125 1.688-1.125 2.926s-.45 2.026-1.013 1.688c-.562-.45-1.35.788-1.8 2.7-.45 1.801-1.238 3.377-1.8 3.377s-1.014 1.013-1.014 2.25-.787 2.589-1.688 2.926c-.9.45-1.688 1.576-1.688 2.701 0 2.25-3.375 9.34-4.726 9.903-.563.225-.9.787-.9 1.238 0 1.35-10.128 16.542-10.128 15.304 0-.675-.563-.225-1.238.9-.675 1.013-1.688 1.575-2.363 1.238-.788-.45-.9-.225-.45.45.45.788.225 1.35-.338 1.35-.675 0-1.237.563-1.237 1.238M195.737 262.882c1.36-1.753 3.48-.225 4.398 1.191.122.188 1.641 3.714 2.026 4.154 1.097 1.238 1.66.835 2.016 2.42.375 1.66 1.05 1.51 1.866 3.113 1.491 2.889 1.153 3.189 2.748 4.201.844.535 1.697 2.373.281 2.907-2.635 1.004-4.895-.168-4.895-.43v-.02c0-1.031-11.431-5.542-11.788-5.936-.469-.515-.506-1.369-1.04-1.81-.498-.412-1.267-.3-1.839-.59-.816-.413-1.256-2.41-1.313-2.804M127.778 274.548c-.863 1.388-4.09-3.545-5.177-4.595-.516-.497-.91-1.116-1.35-1.688-.9-1.163-3.226-4.314-4.051-5.289-.225-.272-.629-.338-.9-.563-.938-.75-3.583-2.963-4.727-3.938-.731-.62-1.463-1.238-2.138-1.913-2.007-2.026-8.008-8.14-9.903-10.24-.619-.685-.984-1.576-1.463-2.364-.844-1.388-2.39-3.976-3.6-5.964-1.22-2.007-2.945-4.557-3.714-6.077-.478-.937-.582-2.269-.9-3.038-.235-.572-.62-1.088-1.013-1.575-.45-.563-1.257-1.107-1.688-1.8-.75-1.201-1.876-3.696-2.813-5.402-.9-1.632-2.045-3.583-2.814-4.84-.562-.918-1.35-1.715-1.8-2.7-.507-1.106-.825-2.907-1.238-3.939-.319-.797-.928-1.453-1.238-2.25-.563-1.463-1.65-4.745-2.138-6.527-.375-1.36-.731-3.32-.788-4.164-.018-.337.563-.581.45-.9-.862-2.382-4.407-10.259-5.626-13.391-.685-1.754-1.144-3.592-1.688-5.402-.563-1.875-1.238-4.126-1.688-5.851-.385-1.491-.703-2.992-1.013-4.501-.45-2.176-1.106-5.796-1.688-8.553-.563-2.672-1.603-5.27-1.8-7.99-.488-6.62-.938-21.343-1.126-31.733-.187-10.203-3.038-25.507 0-30.609 3.039-5.101 12.154-.169 18.23 0 8.253.225 23.913.9 31.284 1.35 4.333.263 12.078-2.897 12.941 1.35 2.25 11.104.244 43.504.563 65.26.319 21.943.881 51.942 1.35 66.384.216 6.76.92 13.503 1.463 20.255.544 6.752 1.5 14.723 1.8 20.256.235 4.304.863 11.553 0 12.941M47.768 214.484c-.666-.234.6-1.322 1.125-1.8.938-.863 2.992-2.27 4.501-3.376 1.538-1.125 3.301-2.344 4.727-3.376 1.284-.928 2.457-2.025 3.826-2.813 1.632-.938 4.276-3.095 5.964-2.813 1.688.28 3.188 3 4.164 4.5.872 1.342 1.237 3.283 1.688 4.502.347.938 1.5 1.941 1.012 2.813-.525.938-2.522 2.485-4.163 2.814-2.945.581-9.697.75-13.504.675-3.132-.066-7.971-.638-9.34-1.126M50.581 164.52c-2.175-.243-4.539-1.05-6.64-1.462-1.978-.385-4.163-.563-5.963-1.013-1.66-.413-4.483-1.125-4.84-1.688-.356-.563 1.773-1.172 2.702-1.688a52 52 0 0 1 3.376-1.688 83 83 0 0 1 3.938-1.688c1.229-.488 2.438-1.013 3.714-1.35 1.5-.394 3.75-.525 5.289-1.013 1.387-.44 3.376-3.264 3.938-1.913.807 1.932 1.82 11.253.9 13.504-.806 1.978-4.285.234-6.414 0M50.581 106.239c-1.444.3-3.15-1.06-4.726-1.576-1.65-.544-3.442-1.162-5.177-1.688-1.969-.6-4.95-1.387-6.639-1.913-1.181-.365-3.413-.787-3.488-1.237s2.006-1.013 3.038-1.463c1.463-.638 3.789-1.66 5.74-2.364 2.08-.75 4.425-1.753 6.75-2.138 2.702-.45 7.84-1.012 9.454-.562 1.05.29.337 2.175.225 3.263-.17 1.594-.375 4.689-1.238 6.302-.816 1.528-2.495 3.076-3.939 3.376M242.888 100.5c-.15-1.913-.075-5.57.675-7.315.656-1.519 2.42-2.813 3.826-3.15 1.407-.338 3.048.862 4.614 1.125 2.269.375 6.151.112 9.002 1.125 2.907 1.031 8.234 3.939 8.44 5.064s-4.773 1.266-7.202 1.688c-2.476.431-5.205.122-7.652.9-2.963.938-8.177 4.633-10.128 4.726-1.482.075-1.463-2.682-1.575-4.163"/></svg>