<svg xmlns="http://www.w3.org/2000/svg" xml:space="preserve" fill-rule="evenodd" stroke-linejoin="round" stroke-miterlimit="2" clip-rule="evenodd" viewBox="0 0 300 300"><path fill-rule="nonzero" d="M54.918 299.9c-3.13-1.106-1.181-2.728 15.587-38.533 3.028-6.477 3.047-6.27 7.49-11.782 7.376-9.138 11.078-23.788 12.756-24.416 1.022-.507.675-.807 9.204-10.92 3.393 8.304 3.328 8.267 3.468 8.323 2.494 1.116 5.512.61 7.996 1.725 8.848-9.71 8.52-9.889 18.783-17.968 10.423 6.551 11.885 5.352 14.05 11.097 2.503 6.637-25.935 21.024-14.462 26.817 6.964 3.515 14.378.871 9.448 6.936-8.08 9.935-14.903 4.94-50.08 27.744-1.753 1.134-2.278-.131-23.208 12.035-8.408 4.883-8.942 9.73-11.05 8.96z"/><path fill-rule="nonzero" d="M246.54 294.866c1.65-2.877-21.689-10.366-23.067-13.131-1.377-3.721-56.266-26.46-56.585-28.85-1.096-8.258 14.5-8.024 4.312-20.256-14.988-17.996-29.619-16.121-22.955-24.304 1.022-1.265-1.837.403-16.459-11.913-.759-.637-41.194-38.917-38.626-43.819 4.893-9.317 37.258-42.657 41.954-41.757 4.79.919 3.561 2.372 11.041 15.353-6.767 6.111-9.185 3.093-24.06 21.736-7.04 8.82-3.618 10.226 4.902 17.79 2.633 2.334 32.412 28.757 33.143 28.85 2.474 0-.31 3.806 22.214 21.484 18.84 14.79 19.355 1.059 22.87-.825 12.12 19.927 10.18 20.724 23.142 39.741 3.018 4.434 7.995 14.997 10.067 15.222.646 0-.506.938 3.693 7.236.787 1.181 7.854 11.773 7.582 16.047-.074 1.153-3.842 2.324-3.158 1.396z"/><path fill-rule="nonzero" d="M166.626 192.86c-.937-.778.103-2.812-.862-3.553-17.706-13.553-3.525-16.74 12.775-32.037 4.368-4.096 9.336-10.798-46.659-58.553-19.187-16.365-18.662-19.121-43.819-20.986l-10.798-.74-7.367-7.612c-2.587-2.587-3.796-1.125-34.37-30.078 3.102-.094 38.794-1.228 38.794-1.228 2.578-1.228.188-2.25 2.953-35.599 34.258 30.903 36.264 38.083 40.257 53.033 5.567 20.846 86.091 79.109 89.831 94.518 1.425 5.896-34.212 41.832-37.52 45.169l-3.187-2.334z"/><path fill-rule="nonzero" d="M165.52 99.073c-.928-2.812-14.688-8.06-7.367-15.11 15.184-14.612 20.789-15.634 23.198-28.353 2.596-13.722-3.028-17.865 9.823-23.695 3.224-1.462 3-1.78 30.687-31.915-.684 8.267-4.846 38.56 5.652 38.308 7.377-.178 42-4.668 36.34-1.716-4.884 2.55-36.396 30.013-37.071 30.678l-9.701 9.701-10.31.74c-33.846 2.307-37.867 29.273-41.242 21.362z"/></svg>