<svg xmlns="http://www.w3.org/2000/svg" xml:space="preserve" fill-rule="evenodd" stroke-linejoin="round" stroke-miterlimit="2" clip-rule="evenodd" viewBox="0 0 300 300"><path fill-rule="nonzero" d="M151.152 296.925c-4.51-5.438-20.42-11.4-30.225-11.4-7.294 0-10.341-1.988-10.341-7.022 0-1.856-.666-3.581-1.463-3.844-.665-.262-1.724-3.047-2.118-6.094-.666-5.165-.394-6.093 3.45-9.543 4.106-3.844 4.106-3.975 4.106-16.435 0-7.556.534-12.722 1.322-12.722.787 0 1.322.666 1.322 1.322 0 .797.928 1.322 1.987 1.322s1.988.928 1.988 1.988c0 1.059.665 1.987 1.462 1.987 1.857 0 5.166 3.319 5.166 5.166 0 .797.665 1.462 1.322 1.462.797 0 2.915 1.594 4.772 3.581 2.653 2.916 4.378 3.582 8.878 3.45 3.047-.13 5.7-.928 5.962-1.725.666-1.725 10.472-1.725 11.138 0 .262.797 2.522 1.725 5.034 2.12 3.844.534 5.306 0 9.019-3.32 2.39-2.25 4.903-4.106 5.7-4.106.665 0 1.19-.797 1.19-1.725s1.191-2.39 2.654-3.319 2.653-2.521 2.653-3.58 1.19-1.988 2.653-1.988c1.462 0 2.653-.666 2.653-1.322 0-.797 1.322-1.856 3.047-2.522 3.319-1.19 4.903.262 4.772 4.51 0 1.462-4.51 4.368-4.378 11.793.13 12.066 1.321 14.447 7.687 16.172 3.713.928 4.772 3.178 1.463 3.178-1.322 0-1.988 1.322-1.988 4.238 0 2.39-1.462 5.962-3.319 8.484-1.856 2.39-3.318 4.903-3.318 5.7 0 1.725-4.641 4.378-7.022 3.975-.797-.131-3.319.394-5.306 1.19-2.12.929-4.772 1.594-6.094 1.594s-3.178.797-4.106 1.857c-.797 1.059-2.25 1.725-3.179 1.321-.928-.403-2.522.263-3.45 1.463-.928 1.06-2.39 1.987-3.318 1.987s-1.988.929-2.522 1.988c-1.06 3.047-6.366 2.25-9.281-1.19z"/><path fill-rule="nonzero" d="M212.399 246.16c-2.513-.62-1.37-12.526-5.176-24.263-5.334-16.454-12.337-11.438-15.234-19.22-9.075-17.98-17.756 32.729-24.384 13.65-12.956-37.321-27.394-4.8-26.785-.402 3.6 26.072-18.346-16.538-26.25-13.922-17.728 5.869-15.009 61.884-23.98 34.453-9-27.497.187-48.91-4.107-49.575-24.544-3.778-34.388 43.416-37.51 47.325-3.684 4.612-17.953-14.119-14.578-17.494 11.082-13.828 6.853-16.387 18.947-29.569 16.716-18.215-31.678 6.891-31.81 6.891h-6.365v-5.306c0-8.522-22.303-26.916 18.422-30.638 17.025-1.556 8.775-9.103 4.238-25.865-19.847-3.403-33.685 3.44-25.707-12.17 9.366-18.327 3.722-20.127 5.363-20.577 7.087-1.95 14.194 7.687 21.281 5.737l6.619-20.418c-7.153-3.535-15.919-2.822-23.072-6.357-.497-.243 4.51-10.8 5.428-11.137 5.194-2.625 15.853-44.194 70.275 3.422 35.222 30.806 28.256 35.86 32.653 82.012-17.56 7.444-27.918 4.35-21.403 22.425 1.838 5.1 16.069 8.963 17.363 8.222 4.978-3.74-16.041-13.603-5.438-15.9 1.388-.3 26.438 5.963 20.016-35.128-.713-4.538-9.675-32.616-11.39-33.272-5.063-2.55 5.68-11.737-46.379-53.56-17.297-13.893-21.572-15.065-17.24-16.706 10.012-5.053 23.39 8.372 27.58 9.544 1.116.506 10.716 4.81 12.329 9.14 5.1 10.107 10.622 4.613 15.647 14.579.815 2.24 5.906 1.228 5.83-.263-.037-.675.048-.271-27.29-46.265 6.357-1.397 15.216-19.997 32.878 6.112 11.072 16.37 17.054 37.753 19.838 38.522 3.947 1.078 20.372-44.84 23.24-45.928 14.438-7.284 13.66-7.322 28.163-13.8l5.438 10.097c-21.329 36.328-45.038 65.681-20.485 46.397 48.619-38.185 56.194-26.222 55.135-21.6-1.313 5.737-95.185 40.312-75.554 122.887 4.172 17.55 14.897 3.938 19.097 10.088.085.122-5.297 14.278 3.45 9.806 16.782-8.578 8.616-16.894-9.947-21.206l-3.975-1.06-1.059-8.362c-4.434-62.09 33.122-67.669 36.703-74.766.216-.572 44.156-30.768 52.49-18.43 9.123 13.5 16.013 15.608 3.985 27.046-1.078 1.022-25.125 23.897-1.322 18.553 1.856-.412 23.513-14.869 22.528 14.86-.768 23.221-27.9 2.784-32.08 25.724-2.354 12.882 29.605 19.65 30.102 24.132.816 7.36-2.54 14.784-1.725 22.143-26.681-14.446-26.475-20.109-36.347-14.69-5.55 3.047 33.92 41.362 16.032 51.694-6.16 3.562-18.872-27.075-25.191-31.154-21.14-13.659-19.134 51.582-24.131 50.897-3.169 0-1.847 3.572-5.175 2.653zM107.277 131.746c.665-.994 4.959-.207 6.637-1.332 1.031-.693.966-.975 2.119-.665.394.103.722.572 1.125.497.169-.029-8.044-10.96-12.572-15.291-.534-.506-4.51-4.313-7.116-5.747-3.346-1.837-5.887-4.603-10.95-5.906-.88-.225-6.028-1.538-3.018 10.978 1.603 6.637 7.659 13.556 10.237 15.197.76.487 1.781.45 2.54.947.704.468 1.004 1.397 1.707 1.865 1.313.066 2.55.713 3.862.778 2.025.104 5.307-1.106 5.438-1.321zm98.765.271c0-2.568 7.453 1.97 13.81-8.268 9.684-15.59 5.728-19.153 4.5-20.27-2.232-2.005-2.354.235-8.11 2.43-2.043.777-2.212.496-3.581 2.118-1.275 1.51-3.338 1.65-5.297 3.16-4.303 3.309-9.74 9.29-10.753 11.118-1.669 2.99-1.266 9.366-.516 10.116 1.191 1.19 9.947.478 9.947-.394z"/></svg>