<svg xmlns="http://www.w3.org/2000/svg" xml:space="preserve" fill-rule="evenodd" stroke-linejoin="round" stroke-miterlimit="2" clip-rule="evenodd" viewBox="0 0 1024 1024"><path fill-rule="nonzero" d="M125.602 17.835C114.529 46.172 99.59 36.402 96.723 43.26c-2.413 5.777 12.197-3.36 19.437 18.846 20.645 63.322-47.738 110.804-65.43 104.18-14.23-5.328-4.885-34.482-16.164-31.806-5.907 1.402-11.076 5.447-17.086 6.309-2.83.406-5.603-1.375-8.142-2.689L1.53 154.481c0 12.89-3.841 14.911 6.137 23.213 10.943 9.105 12.421 37.511 8.463 40.571-12.58 9.727-22.678 11.248-10.914 21.842 6.607 5.95 15.008 9.75 21.368 15.964.584.571 6.255 17.536 11.986 20.62 31.28 16.832 46.689 7.587 46.689 41.79v15.876l-13.815 9.895c-14.42 10.322-48.32 18.775-52.54 12.68-11.08-16 31.071-25.562 15.75-30.961-14.995-5.284-17.288-3.767-24.942 10.093-1.619 2.934-11.79 21.351-7.342 41.243 3.332 14.898 43.573 26.452 51.809 31.707l10.783 6.875v17.723c0 23.911-14.315 41.67-26.891 44.872-13.112 3.34-22.85-10.82-21.317 2.8 3.32 29.51 47.1 43.493 55.978 57.856l5.77 9.334-6.138 4.538c-10.826 8.013-13.896 6.652-15.467 19.986-.715 6.073-4.813 40.86 3.869 76.338l5.88 24.02 27.704 2.934c11.892 1.26 23.868 1.69 35.734 3.172 9.822 1.226 9.56 2.168 15.854 10.114l7.821 9.873-11.925 16.134c-9.921 13.418-13.98 22.683-24.161 55.11l-12.235 38.978 13.172 20.647c42.051 65.914 37.713 63.038 67.792 44.96l20.757-12.476 11.363 6.353c4.04 2.258 10.478 3.483 11.323 8.033.499 2.685-10.164 37.447-16.296 47.63l-8.918 14.798 6.916 7.336c4.066 4.31 86.664 73.31 97.061 75.177 23.622 4.24 146.728-84.508 206.498-101.98 21.112-6.171 69.24-7.654 72.152-8.28 17.035-3.66 41.34-28.213 44.397-31.302l17.383-17.557 21.944 7.168c14.935 4.877 34.631 8.553 61.636 11.5l39.69 4.333 14.861-8.376c16.043-9.042 53.704-37.401 60.83-47.663 9.324-13.422 11.269-11.918 29.005-13.26 39.057-2.956 30.173-24.355 15.733-28.822-8.874-2.746-17.785-5.533-26.928-7.171-5.526-.991-41.566 29.355-44.703 24.251-2.444-3.977.212-25.641 3.755-33.757 2.675-6.129 7.546-11.133 10.221-17.262-2.229-3.699-3.033-8.14-5.263-11.838-3.004-4.984-14.617 3.54-15.666 4.308l-12.467 9.153-8.67 32.09c-11.268 41.714-17.568 43.29-60.78 45.817-12.803.75-11.761-2.682-22.242-10.172-10.79-7.71-37.696-14.145-44.339-14.17l-9.515-.038v-30.248l29.667-6.127 10.976-23.933c19.271-42.006 38.784-35.626 49.082-50.428 1.478-2.124-46.916-12.149-57.85 3.293-1.299 1.832-14.569 35.416-37.073 42.111-6.598 1.964-21.018-3.655-31.177 18.976-18.521 41.254-17.257 55.132-80.266 64.45-64.404 9.527-64.622 10.113-69.87 8.082-16.782-6.492 6.16-71.623 15.595-76.453 3.992-2.043 4.434-.647 53.518-16.66 51.366-16.76 53.58-10.62 63.75-17.909 4.565-3.272-11.71-6.524-13.226-16.15-7.177-45.603 8.608-42.283 32.622-81.687 15.009-24.63 39.467-45.491 47.754-71.46 4.13-12.942-4.074-14.314-4.63-16.269-8.502 8.842-15.299 19.223-23.801 28.065-15.426 16.04-27.867 11.488-30.278 10.606-7.563-2.766-8.973-6.701-13.696-.194-5.344 7.362-2.311 19.998-1.905 21.691l3.023 12.604-10.45 12.39c-11.62 13.78-22.299 47.92-22.38 48.09-6.234 13.14-10.095 8.518-23.925 3.56l-11.785-4.22-4.384-29.41c-.408-2.744-6.437-43.192-9.91-33.213-23.32 66.99 1.23 80.185-5.58 87.134-18.3 18.674-51.845 11.176-64.382 21.476-11.694 9.608-34.45 66.194-44.027 63.923-6.727-1.596-14.382-25.544-12.812-44.888l1.71-21.08 11.702-.045c12.778-.045 14.193-1.123 50.704-38.649l16.165-16.615-4.532-12.306c-.48-1.301-5.882-15.97-10.74-13.598-14.906 7.28-22.125 17.535-24.873 1.095-4.854-29.04 14.193-45.403 13.817-54.725-.09-2.24-23.545-100.969 47.962-78.585 35.95 11.254 11.764-23.546-16.878-29.064-19.751-3.806-38.695 13.942-41.288 16.372l-18.633 17.456-.238 27.966c-.52 61.114-23.496 49.085-26.314 45.925-27.878-31.254-.335-81.287-16.67-69.284-35.943 26.416-14.587 91.861-2.014 105.369l6.15 6.606-4.282 17.057c-.58 2.31-3.742 14.901-14.076 26.235-5.938 6.514-13.678 11.218-19.618 17.732l-11.186-19.826-9.435-20.489v-85.87l10.038-26.724c23.631-62.917 90.053-117.142 161.578-131.918 140.801-29.083 271.571 63.945 292.973 208.41l3.057 20.656 12.402 1.646c24.339 3.227 84.964-25.68 128.75-28.265l26.501-1.564 72.509-38.506.04-45.001c.055-55.765-1.591-62.571-20.078-83.056l-14.13-15.661-22.486 8.236c-6.422 2.352-12.896 4.615-19.516 6.338-2.385.622-2.053-.456-15.084-15.035l-7.053-7.897 11.636-15.303c28.339-37.283 28.315-37.078 28.402-37.615.67-4.158-22.216-39.67-52.851-70.773l-29.21-29.65-7.812 3.99c-4.298 2.195-17.427 10.906-29.184 19.358l-21.37 15.37-14.152-7.923c-24.827-13.897-11.716-21.057-4.845-48.62l7.846-31.456-5.861-4.421c-3.223-2.43-22.201-12.528-42.176-22.439l-36.32-18.02-22.214 5.178c-25.232 5.883-26.942 6.819-50.167 27.434L640.42 209.8l-29.943-10.11v-62.572l-9.441-3.114c-10.9-3.6-11.223-1.732-111.773 1.3l-2.426 31.247-1.392 30.209-9.264 2.474c-14.429 3.848-33.346-7.396-35.89-8.908-9.614-5.714-26.12-30.572-28.052-33.483l-3.749-5.642-23.964 8.11c-39.49 13.36-80.256 39.166-86.815 43.317-18.203 11.523-8.109 16.392-.025 36.476l9.03 22.457-30.946 30.945-11.51-8.265c-6.653-4.776-20.669-10.92-33.217-14.557l-21.713-6.296-16.26 14.279c-27.463 24.113-31.883 9.472-30.953 7.108.431-1.094 37.465-69.58 38.077-70.393 10.807-14.344 39.492-6.869 48.365-8.317 23.667-3.864 17.244-12.668 30.634-38.557l4.199-8.116-9.556-3.993c-12.02-5.02-11.222 1.045-19.82 10.868-6.015 6.872-24.858 7.858-27.116 7.977l-21.522 1.129-4.294-9.045c-5.575-11.751 3.889-28.662 24.929-44.55l13.771-10.398 25.781 5.953 11.422-11.212c3.383-3.32 6.378-7.11 8.732-11.223.75-1.312-23.544 5.516-20.19-3.065 7.896-20.205 61.575-36.324 57.629-47.252-9.303-25.767-119.761 37.843-151.172 79.032-4.658 6.11-9.13 12.413-12.823 19.148-8.278 15.1-5.73 16.267 2.078 31.733l7.466 14.793-15.208 21.859c-16.088 23.121-17.194 24.182-45.131 28.417-12.118 1.838-29.17 8.981-38.354-9.023l-5.335-10.456 14.736-16.628c60.28-68.025 60.366-67.816 109.882-144.33 1.49-2.304 52.696-14.967 55.826-42.008 1.512-13.076-37.702 11.895-41.2 11.265-5.421-.975-2.788-25.718-15.397-21.917-5.474 1.65-10.156 5.42-15.63 7.07-1.832 6.6-1.475 13.682-3.306 20.282-5.456 19.676-27.439 20.18-27.761 13.885-.114-2.242 4.141-39.651.967-43.48-8.065-9.726-16.549 11.973-17.187 13.606zM3.162 102.453c-.898 2.334-1.631 9.372-1.631 15.636l8.477 2.966c7.974-7.926 19.034-15.553 19.228-17.013.354-2.66-15.55-4.611-18.708-4.803-.642-.038-5.994-.366-7.367 3.214"/></svg>