<svg xmlns="http://www.w3.org/2000/svg" xml:space="preserve" fill-rule="evenodd" stroke-linejoin="round" stroke-miterlimit="2" clip-rule="evenodd" viewBox="0 0 300 300"><path fill-rule="nonzero" d="M116.801 299.806C101.59 288.739-28.33 263.509 24.104 87.83 54.01-12.363 236.712-42.608 275.03 81.495c52.028 168.51-65.597 202.098-68.609 208.056-2.2 5.883-87.693 11.718-89.647 10.207zm42.246-29.13c0-11.917 11.473 12.218 17.157 1.897 9.216-16.741-6.28-39.214 39.48-62.915 2.785-1.445 26.75-13.862 17.279-35.183-23.521-52.953-12.965-123.725-49.942-136.217C85.33 5.247 74.32 87.463 73.951 91.863c-3.21 38.742.614 39.394-13.87 75.918-1.153 2.889-12.89 32.491 3.776 38.723 39.083 19.357 39.744 17.884 42.255 20.689 19.178 21.396 10.548 61.555 23.21 47.288 4.513-5.09 6.062 4.315 8.951 2.899 3.24-1.587 4.958-5.477 8.197-7.063 2.766 1.832 2.53 6.61 5.297 8.441.736.491 7.318-2.634 7.318-8.073z"/><path fill-rule="nonzero" d="M134.836 238.269c-3.295-4.93-.49-5.25 3.277-15.127 1.435-3.758 3.248-19.97 12.993-18.29 3.73.642 3.852 2.908 6.93 5.94 2.342 2.303-.141 3.729 2.777 6.307 3.267 2.89 5.165 19.744.585 21.311-5.637 1.927-21.18 2.484-23.332 2.408-1.634-.056-2.493-1.331-3.239-2.53zM100.154 208.251c-5.91-1.482-19.29-7.12-20.934-7.818-1.246-.529-.727-.963-10.207-13.484 2.596-2.833 4.23-6.459 6.827-9.282 4.032-4.39 16.902-10.359 16.949-10.35 7.516 1.38 43.19 17.734 44.314 18.876.387.397 3.578 3.636.5 6.94-1.728 1.86-1.445 2.012-5.288 9.868-.887.727-2.275.633-3.163 1.36-.755.614-.68 2.011-1.53 2.474-.368.207-.698-1.077-5.155 1.312-7.507 4.013-20.594.576-22.322.123zM174.561 207.24c-10.5-.887-17.648-11.264-12.606-18.913 2.909-4.41 42.775-24.276 52.567-20.225 9.508 3.937 6.25 22.841-1.37 26.297-5.335 2.427-21.576 14.277-38.591 12.87zM103.308 149.103c-14.853-11.491-1.51-14.201 20.783-46.844 7.705-11.274-2.36-9.905-22.549-28.309-6.921-6.307-3.286-7.978 3.277-14.503 6.742-6.704 9.225-4.542 17.657 6.562 4.608 6.062 13.777 13.824 16.402 13.626 7.8-.595 23.446-29.29 29.46-29.99.69-.085 15.401 3.523 14.617 6.034-1.492 4.769-9.178 11.7-13.823 21.567-1.37 2.899-11.568 17.412-12.616 18.904 18.999 18.998 19.055 18.734 39.206 36.438-.35 1.19-4.334 14.9-4.334 14.9-3.608 6.95-43.483-41.093-52.548-32.68-.925.86.227 1.634-9.707 12.35-3.428 3.693-17.6 24.089-17.402 24.476 1.388 2.143-4.665.378-8.451-2.521z"/></svg>