<svg xmlns="http://www.w3.org/2000/svg" xml:space="preserve" fill-rule="evenodd" stroke-linejoin="round" stroke-miterlimit="2" clip-rule="evenodd" viewBox="0 0 300 300"><path fill-rule="nonzero" d="M262.465 299.962c-.17-.274-.5-1.19-.972-1.586-.973-.812-3.295-2.171-4.881-3.295a153 153 0 0 1-4.635-3.417c-1.284-.992-2.521-2.03-3.786-3.05s-2.587-1.954-3.786-3.049c-3.823-3.493-12.81-11.914-19.155-17.937-7.505-7.118-19.315-18.503-25.867-24.772-4.465-4.276-8.789-8.723-13.424-12.81-4.843-4.268-12.122-10.366-15.615-12.812-1.548-1.085-3.842-1.217-5.372-1.831-1.302-.52-2.615-1.057-3.785-1.831-1.709-1.143-6.57-3.663-6.467-5.004s4.71-2.049 7.08-3.05c2.587-1.094 6.467-2.501 8.421-3.54 1.247-.66 2.219-1.973 3.295-2.68.991-.652 2.436-1.02 3.172-1.587.576-.453.812-1.217 1.218-1.831q.609-.923 1.218-1.832c.755-1.114 2.152-3.285 3.295-4.88 1.16-1.624 2.785-3.597 3.662-4.881.605-.887 1.171-1.813 1.586-2.804.567-1.34 1.294-3.474 1.832-5.249.614-2.01 1.34-4.918 1.831-6.835.397-1.539 1.02-3.05 1.096-4.635.198-4.126.302-15.643.122-20.137-.094-2.313-.812-4.701-1.218-6.835-.377-2.001-.689-4.475-1.217-5.976-.397-1.142-1.341-2.03-1.955-3.049-.604-1-1.123-2.115-1.708-3.05-.557-.887-1.095-1.812-1.832-2.558-3.276-3.332-13.811-14.208-17.814-17.446-1.69-1.369-5.75.123-6.221-1.954s1.529-7.75 3.417-10.498c1.879-2.728 6.221-4.654 7.93-5.976.803-.623 1.728-1.444 2.322-1.954.416-.359.784-.755 1.218-1.095 1.02-.793 3.257-2.445 4.881-3.663s3.342-2.332 4.88-3.663c2.824-2.436 8.1-7.316 12.085-10.98 3.965-3.643 8.987-8.477 11.838-10.979 1.662-1.453 3.484-2.7 5.25-4.03 2.963-2.238 8.703-6.203 12.565-9.394 3.71-3.059 7.033-6.561 10.62-9.762 3.644-3.257 9.252-7.967 11.225-9.761.283-.255.35-.699.614-.972 1-1.02 4.276-3.966 5.371-5.127.5-.528.831-1.218 1.218-1.831.378-.604.585-1.34 1.095-1.832 1.379-1.321 4.862-4.069 7.203-6.098 2.304-2.002 5.57-5.485 6.835-6.099.765-.368.822 1.633.737 2.445s-.812 1.737-1.218 2.445c-.359.633-.803 1.228-1.218 1.832-.51.736-1.293 1.661-1.831 2.558-.614 1.02-1.218 2.36-1.832 3.54s-1.218 2.398-1.831 3.54c-.595 1.105-1.124 2.257-1.832 3.295-.727 1.077-1.973 2.38-2.558 3.172-.368.5-.595 1.096-.973 1.586a41 41 0 0 1-2.445 2.927c-1.038 1.123-2.992 2.851-3.785 3.786-.444.528-.595 1.255-.973 1.831-.708 1.076-2.266 3.05-3.295 4.635-1.057 1.624-2.039 3.408-3.049 5.127-1.935 3.294-6.92 11.999-8.544 14.642-.302.49-.878.755-1.217 1.218-.529.708-1.322 2.03-1.955 3.05-.623 1.01-1.34 2.152-1.831 3.048-.406.756-.727 1.549-1.095 2.323-.491 1.02-1.218 2.549-1.832 3.785-.604 1.228-1.02 2.568-1.831 3.663-1.199 1.624-4.031 5.39-5.372 6.099-.953.51-1.614-1.983-2.68-1.832-1.143.161-3.286 1.379-4.145 2.804-1.001 1.652-1.209 4.72-1.832 7.08-.632 2.38-1.51 5.561-1.954 7.204-.245.897-.33 2.483-.736 2.681-.406.208-1.445-.765-1.709-1.463-.463-1.237-.51-4.04-1.095-5.976-.652-2.134-1.586-6.203-2.804-6.835-1.218-.633-3.106 2.03-4.513 3.05-1.34.972-2.888 2.378-3.908 3.048-.67.444-1.53.539-2.2.973-.878.566-2.105 1.548-3.049 2.436-1.02.953-3.436 1.85-3.05 3.294.445 1.671 3.786 4.513 5.74 6.712 3.38 3.805 10.593 13.198 14.52 16.106 2.445 1.813 7.402 2.52 9.025 1.34s1.143-6.22.737-8.42c-.35-1.879-4.853-3.862-3.172-4.758 1.831-.973 9.44-.614 14.151-1.095 4.74-.491 10.96-1.303 14.274-1.832 1.898-.302 3.739-.906 5.617-1.34 2.257-.53 5.59-1.218 7.93-1.832a98 98 0 0 0 6.099-1.831c1.652-.548 3.229-1.294 4.88-1.832 1.889-.614 4.721-1.322 6.468-1.831a159 159 0 0 0 4.03-1.218c1.228-.387 2.446-1.218 3.664-1.218s3.332.812 3.663 1.218c.32.406-1.086.897-1.71 1.218-.858.443-2.331.859-3.417 1.463-1.652.916-4.314 2.71-6.466 4.031-2.143 1.322-4.947 2.993-6.467 3.908-.888.539-1.907.897-2.681 1.586-.935.831-2.115 2.606-2.927 3.418-.576.576-1.444 1.237-1.954 1.463-.34.151-.736-.217-1.095-.123-.633.16-1.822.652-2.681 1.096-1.284.67-3.456 1.869-5.004 2.926-1.5 1.03-2.841 2.341-4.267 3.418-1.397 1.057-2.842 2.039-4.267 3.049-1.444 1.02-3.333 2.237-4.39 3.05-.708.547-1.227 1.311-1.954 1.83-.86.614-2.238 1.341-3.172 1.832-.793.416-1.69.623-2.445 1.095-.86.529-1.709 1.501-2.681 2.077-1.095.652-2.71 1.03-3.909 1.832-1.34.896-3.257 1.954-4.144 3.54-1.076 1.935-2.285 5.617-2.323 8.053-.037 2.303 1.747 5.23 2.077 6.59.123.518-.103 1.056-.122 1.585-.02.567.085 1.227 0 1.832-.18 1.265-.85 4.474-1.095 5.74-.123.613-.567 1.246-.369 1.83.246.718 1.483 1.795 1.832 2.446.236.434.123 1.142.245 1.463.085.217.293.368.491.491.567.35 1.917 1.133 2.927 1.586 1.236.548 3.417 1.322 4.512 1.709.68.236 1.624.142 2.077.614.444.472.406 1.916.614 2.2.151.216.453-.284.614-.492.264-.32.481-1.425.972-1.463.49-.038 1.237.944 1.954 1.218 1.057.406 3.05.85 4.39 1.218 1.218.33 3.823.689 3.663.972s-3.7.51-4.635.736c-.369.095-1.35.567-.973.614 1.218.16 6.08.227 8.298.368 1.671.104 3.843-.283 5.004.491s1.322 3.229 1.954 4.145c.434.623 1.142 1.029 1.832 1.34.812.368 2.152.652 3.049.85.765.17 1.595.075 2.322.368 1.624.651 5.787 2.747 7.44 3.54.82.397 1.85.812 2.445 1.218.453.312.66.887 1.095 1.218.651.49 1.822 1.218 2.803 1.709 1.341.67 3.72 1.614 5.25 2.322 1.321.614 2.51 1.53 3.908 1.954 1.463.453 3.559.595 4.88.737 1.01.113 2.115-.284 3.05.122 1.18.51 2.672 2.134 4.031 2.927 1.303.755 4.598 1.218 4.144 1.831-.443.614-4.805 1.709-6.835 1.832-1.822.113-3.578-.765-5.371-1.095-2.436-.444-6.184-1.03-9.27-1.586-3.296-.586-8.507-1.483-10.499-1.955-.547-.132-.915-.708-1.463-.85-.991-.264-3.002-.556-4.513-.736-3.455-.406-10.818-1.16-16.228-1.708-7.175-.727-22.704-1.558-26.849-2.681-1.444-.387 2.077-2.54 1.954-4.032-.16-1.888-1.586-6.608-2.926-7.325-1.34-.708-3.824 2.03-5.126 3.049-1.067.83-2.068 2.341-2.682 3.05-.34.396-.632.82-.972 1.217-2.077 2.398-9.535 9.8-11.47 13.179-1.17 2.049-.406 5.598-.123 7.08.16.85 1.256 1.19 1.832 1.832a422 422 0 0 1 6.712 7.685c2.237 2.643 4.9 6.202 6.712 8.175 1.246 1.36 2.577 3.05 4.144 3.663 1.568.614 4.23 1.038 5.25 0s.5-4.333.849-6.221c.312-1.728 1.038-4.107 1.218-5.127.056-.32.019-.68-.123-.972-.283-.566-1.831-1.633-1.586-2.445.246-.812 2.03-2.851 3.05-2.445 1.019.406 2.36 3.257 3.049 4.88.651 1.54.585 3.503 1.095 4.881.453 1.228 1.378 2.238 1.954 3.418 1.284 2.643 4.616 9.979 5.74 12.442.35.765.623 1.558.972 2.323.463 1.02 1.256 2.511 1.832 3.786.613 1.34 1.369 3.011 1.831 4.267.397 1.076.482 2.256.973 3.294 1.406 2.946 5.777 11.187 7.439 14.397.85 1.633 1.746 3.229 2.558 4.881 1.237 2.52 3.455 7.61 4.88 10.252 1.058 1.964 2.455 3.739 3.664 5.618 1.218 1.897 2.785 4.522 3.663 5.74.434.604 1.387 1.123 1.586 1.585.17.388-.567.84-.368 1.218.226.425 1.51.85 1.708 1.34.208.492-.01 1.323-.49 1.587-.633.35-2.738.415-3.295.49-.02 0-.048-.018-.057-.037M32.323 298.13c.397-1.652 1.2-4.965 2.2-7.203.991-2.218 2.85-4.72 3.786-6.22.585-.945 1.359-1.795 1.831-2.805.49-1.038.755-2.275 1.095-3.417.406-1.36.614-3.276 1.34-4.758 1.143-2.313 4.277-7.26 5.495-9.148.52-.803 1.36-1.37 1.832-2.2.49-.85.708-1.963 1.095-2.926.49-1.218 1.217-3.154 1.831-4.39.52-1.067 1.237-2.02 1.832-3.05 1.18-2.03 4.229-7.316 5.249-9.147.33-.586.632-1.2.85-1.832.462-1.36 1.18-4.267 1.953-6.344.831-2.237 2.294-5.022 3.05-7.08.623-1.71.915-3.682 1.463-5.25.5-1.425 1.284-2.945 1.831-4.144.472-1.029.916-2.275 1.464-3.049.472-.66 1.5-2.322 1.831-1.586.614 1.36 1.086 6.533 1.832 9.761.755 3.257.651 9.602 2.68 9.762s7.704-7.165 9.517-8.79c.406-.367.953-.584 1.34-.972 1.624-1.623 6.75-7.165 8.421-8.789.444-.434 1.152-.528 1.586-.972.812-.83 2.436-2.71 3.295-4.031.784-1.209 2.407-2.596 1.832-3.909-.756-1.708-4.315-4.144-6.344-6.344-2.134-2.322-5.23-6.042-6.467-7.561-.387-.482-.576-1.105-.973-1.586-.896-1.077-2.586-3.645-4.39-4.881-1.869-1.284-5.39-2.644-6.834-2.804-.86-.094-1.492 1.038-1.832 1.831-.406.954-.755 2.69-.614 3.909s2.247 2.454 1.464 3.417c-1.02 1.237-4.777 3.399-7.562 4.031-4.145.935-12.849 1.02-17.324 1.586-3.2.406-7.731 1.445-9.516 1.832-.424.094-.811.368-1.217.49-.397.123-.803.227-1.218.246-4.437.18-20.826 1.2-25.376.85-1.171-.085-2.115-2.256-1.955-2.927.16-.67 2.011-.604 2.927-1.095.953-.51 1.812-1.388 2.804-1.954 2.237-1.284 8.138-4.626 10.62-5.74 1.331-.604 2.851-.632 4.268-.972 1.425-.35 2.964-.416 4.267-1.095 1.52-.793 3.257-2.766 4.88-3.663 1.51-.831 3.701-1.218 4.881-1.709.774-.321 1.435-.869 2.2-1.218 1.284-.595 4.03-1.737 5.494-2.322 1.086-.434 2.2-.85 3.295-1.218 1.086-.359 2.341-.69 3.295-.972.812-.246 1.737-.246 2.435-.737 1.162-.812 3.437-3.247 4.513-4.144.595-.491 1.293-.822 1.954-1.218.67-.406 1.369-.84 2.077-1.218 1.076-.566 3.493-1.992 4.39-2.2.444-.103.67.812.972.973.255.132.793.283.86 0 .386-1.624 1.236-7.892 1.463-9.762.056-.481.075-1.057-.123-1.463s-1.048-.481-1.095-.972c-.16-1.832.123-7.874.123-10.007 0-.935.547-2.153-.123-2.804-2.04-1.992-9.648-7.317-12.084-9.148-.84-.633-1.671-1.275-2.558-1.832-.973-.613-2.228-1.16-3.295-1.831-1.303-.812-3.03-2.03-4.513-3.05-1.473-1.01-3.512-2.274-4.39-3.049-.453-.396-.557-1.066-.85-1.586-.32-.566-.462-1.51-1.094-1.831-.775-.387-2.766-.227-3.54-.491-.492-.17-.718-.746-1.096-1.095a46 46 0 0 0-1.954-1.709c-.727-.595-1.586-1.284-2.436-1.831-.915-.595-2.048-1.105-3.049-1.709-1.02-.614-2.237-1.426-3.05-1.954-.613-.397-1.217-.831-1.83-1.218-.605-.378-1.247-.69-1.832-1.095-.755-.529-1.747-1.445-2.681-2.077-1.303-.878-3.399-2.153-5.126-3.172s-3.909-2.03-5.25-2.927c-1.028-.689-1.83-1.746-2.803-2.435-.954-.67-2.03-1.218-3.05-1.71-.99-.471-3.049-.81-3.049-1.217 0-.406 2.03-1.218 3.05-1.218s2.076.812 3.049 1.218c.944.387 1.84.888 2.804 1.218 1.5.51 4.144 1.246 6.221 1.831 2.152.614 4.805 1.284 6.712 1.832 1.596.462 3.134 1.123 4.758 1.463 5.06 1.058 19.278 3.663 25.622 4.88 4.154.803 9.856 1.87 12.443 2.437 1.038.226 2.435.236 3.049.972.613.727.897 2.294.613 3.417-.302 1.218-3.172 2.559-2.435 3.909.916 1.67 5.494 6.098 7.93 6.098 2.445 0 5.287-4.88 6.712-6.098.557-.482 1.275-.737 1.832-1.218.613-.529 1.217-1.303 1.831-1.954 1.916-2.04 7.543-8.176 9.639-10.253.868-.859 2.926-.981 2.926-2.2 0-1.812-1.85-6.759-2.926-8.666-.737-1.312-2.408-1.812-3.54-2.804-1.284-1.123-2.436-3.172-4.145-3.908s-4.71-1.492-6.098-.49c-1.379.99-1.265 5.37-2.2 6.466-.736.868-2.681.991-3.418.123-.774-.916-.85-4.541-1.217-5.617-.142-.406-.831-.444-.973-.85-.632-1.832-2.114-9.157-2.804-10.13-.689-.982-.179 3.616-1.34 4.267s-4.456.038-5.617-.368c-.774-.274-1-1.331-1.34-2.077-.407-.897-.671-2.568-1.096-3.295-.302-.528-1.142-.575-1.463-1.095-1.36-2.218-4.475-8.156-6.712-12.206-2.228-4.031-5.391-9.866-6.713-12.084-.292-.491-.878-.755-1.217-1.218-.53-.708-1.36-2.03-1.955-3.05-.576-.99-.953-2.095-1.586-3.049-.878-1.321-2.416-3.275-3.663-4.88-1.265-1.624-3.077-3.767-3.908-4.881-.425-.567-.68-1.256-1.095-1.832-1.482-2.058-6.24-8.118-7.807-10.498-.756-1.142-.973-2.567-1.586-3.785-.756-1.482-2.125-3.333-2.927-5.126-.897-1.992-2.993-6.41-2.445-6.835.547-.425 3.861 2.841 5.73 4.267 1.85 1.406 4.4 3.332 5.495 4.267.443.378.708.916 1.095 1.34 1.482 1.624 5.286 5.9 7.807 8.421 2.341 2.342 4.834 4.532 7.326 6.713 3.03 2.643 8.544 7.354 10.866 9.148.906.698 2.049 1.038 3.05 1.586a94 94 0 0 1 3.171 1.831c.708.425 1.52.736 2.077 1.34 1.077 1.18 2.7 4.022 4.39 5.731 2.38 2.398 7.487 6.552 9.884 8.666 1.51 1.332 3.003 2.691 4.513 4.032 1.746 1.548 3.956 3.54 5.976 5.249 2.643 2.237 7.543 6.24 9.884 8.175a724 724 0 0 0 4.145 3.417c2.822 2.323 9.657 7.912 12.81 10.498 2.03 1.671 4.164 3.56 6.099 5.004 1.765 1.322 4.38 2.728 5.494 3.663.586.49 1.039 1.444 1.218 1.954.123.35-.274.755-.123 1.095.227.51 1.464 1.388 1.464 1.954s-.86 1.124-1.464 1.464c-1.302.727-4.314 1.869-6.344 2.926-2.001 1.039-4.22 1.85-5.853 3.418-3.578 3.436-12.81 13.943-15.614 17.2-.567.661-.812 1.652-1.218 2.323-.359.594-.878 1.095-1.218 1.708-.491.878-1.426 2.257-1.709 3.54-.812 3.682-3.559 12.292-3.172 18.551.491 7.874 4.796 23.394 6.099 28.68.274 1.134 1.104 2.05 1.708 3.05.614 1.02 1.426 2.237 1.955 3.05.396.613.727 1.283 1.218 1.83 2.114 2.38 8.543 9.998 11.47 12.443 1.661 1.388 4.23 1.51 6.098 2.2 1.719.633 3.701 1.444 5.127 1.954 1.123.406 2.379.604 3.417 1.095 1.01.472 2.625 1.303 2.804 1.832.18.529-1.161.934-1.709 1.34-.519.378-1.076.708-1.586 1.095-.651.491-1.473 1.322-2.322 1.832-1.02.614-2.483 1.322-3.786 1.831-1.567.614-3.993 1.322-5.617 1.832-1.378.425-3.172.812-4.144 1.218-.642.264-1.2.736-1.71 1.218-2.237 2.133-9.581 9.355-11.715 11.593-.49.519-.576 1.34-1.095 1.831-5.711 5.447-24.423 22.733-33.193 30.87-6.457 5.995-15.964 14.643-19.4 17.938-.529.51-.812 1.217-1.218 1.831s-.651 1.369-1.218 1.832c-1.322 1.076-5.107 3.615-6.712 4.635-.925.585-2.115.83-2.927 1.463-.802.623-1.208 1.633-1.954 2.323-1.076 1-2.926 2.973-4.513 3.663-1.538.67-4.163.415-5.003.49a.1.1 0 0 1-.038-.018"/><path fill-rule="nonzero" d="M35.373 174.639c.528-.51 2.2-2.294 3.172-3.05.802-.623 1.756-1.029 2.68-1.463 1.115-.529 2.993-1.246 4.032-1.709.746-.34 1.831-.632 2.2-1.095.349-.443.056-1.303 0-1.708-.038-.274-.152-.567-.369-.737-.425-.33-1.397-.963-2.2-1.218-1.529-.49-4.635-1.142-6.957-1.708-2.417-.595-5.032-1.247-7.562-1.832-2.747-.632-5.947-1.284-8.912-1.954-2.974-.67-6.495-1.548-8.912-2.077-1.86-.406-3.89-.727-5.617-1.095-1.595-.34-6.146-.604-4.758-1.095 1.378-.491 8.704-1.227 13.056-1.832 4.58-.632 10.612-1.387 14.397-1.954 2.776-.415 5.759-.708 8.298-1.463 2.427-.718 6.005-2.077 6.958-3.05.718-.726-.49-2.086-1.218-2.803-1.038-1.02-3.351-2.219-5.003-3.295-1.624-1.067-3.88-2.341-4.88-3.172-.548-.453-1.55-1.284-1.096-1.832.566-.689 3.276-2.076 4.513-2.322 1-.198 2.039.35 2.926.85 2.058 1.16 7.1 4.777 9.393 6.098 1.379.793 2.899 1.303 4.39 1.832 1.728.613 4.098.925 5.976 1.831 2.483 1.2 6.552 2.832 8.912 5.372 2.38 2.558 4.598 7.703 5.372 10.007.406 1.218.038 2.889-.737 3.786-.774.896-2.596 1.076-3.908 1.586-1.36.528-3.474 1.236-4.267 1.586-.208.094-.283.377-.491.49-1.794.954-8.034 4.07-10.252 5.25-1.048.556-1.945 1.387-3.05 1.83-1.53.615-4.069 1.266-6.098 1.832-2.02.567-4.428 1.568-6.099 1.586-1.388.02-3.257-1.217-3.908-1.463-.01 0 .01 0 .019-.01M255.507 173.053c-1.038-.16-4.163-.605-6.221-.973-2.04-.358-4.39-.689-6.099-1.218-1.463-.453-2.737-1.359-4.144-1.954-1.747-.736-4.862-1.756-6.344-2.445-.925-.434-1.784-1.038-2.558-1.709-1.568-1.359-7.93-3.53-6.835-6.466 1.406-3.786 12.046-13.264 15.256-16.229 1.057-.981 2.652-1.151 4.03-1.586 1.426-.443 3.04-.632 4.513-1.095 1.69-.528 4.135-1.425 5.617-2.077 1.152-.5 2.342-1.34 3.295-1.831.793-.406 1.69-.623 2.445-1.095.774-.491 1.37-1.36 2.2-1.832.982-.547 3.313-2.03 3.663-1.463s-.614 3.474-1.586 4.88c-1.161 1.672-4.296 3.56-5.372 5.127-.83 1.208-2.086 3.181-1.095 4.267 1.199 1.322 5.362 2.946 8.298 3.663 4.031.972 10.838 1.605 15.86 2.2 4.749.557 12.179.67 14.274 1.34 1.01.321-.745 2.238-1.708 2.681-1.2.548-3.73.095-5.495.614-1.793.529-3.408 1.935-5.249 2.558-2.68.916-7.524 2.332-10.856 2.927-3.012.529-6.09.614-9.148.614-3.172 0-8.232-1.105-9.884-.614-1.133.33-.746 2.634 0 3.54 1.52 1.85 7.014 5.957 9.147 7.562 1.124.84 3.909 1.775 3.663 2.077-.245.302-3.52 0-5.126-.245-1.539-.236-3.757-1.02-4.512-1.218z"/></svg>