<svg xmlns="http://www.w3.org/2000/svg" xml:space="preserve" fill-rule="evenodd" stroke-linejoin="round" stroke-miterlimit="2" clip-rule="evenodd" viewBox="0 0 300 300"><path d="M7.23 293.659c-7.754-7.76-9.005-12.588-5.024-20.981 2.728-5.673 5.045-7.557 11.345-8.607 4.2-.844 8.194-2.1 8.822-2.944 1.836-1.836 3.096-.353 24.573-21.217l13.651-13.229-1.472-9.45c-.844-5.25-3.15-11.55-5.456-14.073-.398-.416-7.942-8.296-.844-7.144.53.086 3.25.528 5.25 4.2 1.728 3.301 6.556 2.947 7.412 1.597 1.014-1.6.868-3.752 1.845-5.375 1.865-3.1 32.192-31.36 35.051-34.024 44.792-41.614 41.824-44.331 86.733-85.898 5.878-5.25 16.172-15.123 23.1-21.63 12.063-11.703 13.126-10.26 25.408-21.628 6.897-6.132 60.458-38.265 60.33-30.375-.151 9.33-21.769 51.093-30.084 58.52-29.07 26.633-30.502 24.95-56.497 54.809-1.183 1.359-.865 2.024-2.522 1.472-1.472-.206-2.523.844-2.1 2.306.205 1.678-.423 2.306-1.473 1.678-1.05-.844-5.456 2.1-9.872 6.094-2.892 2.75-6.328 4.866-9.45 7.35-1.452 1.156-.6 1.857-15.751 17.008-39.902 39.058-48.725 48.096-63.003 64.259-1.304 1.448-15.378 17.089-13.023 20.579 5.891 8.732 14.584 14.895 3.994 13.65-1.99-.233-15.442-13.083-20.373-12.6-4.504.44-19.09 15.285-20.579 16.8-6.414 6.684-13.699 12.478-20.373 18.902-.827.796-2.1 1.58-2.1 2.728-1.471 8.971.96 10.148-5.515 16.382-.652.627-4.129 3.973-10.03 5.247-5.242.843-7.55.003-11.952-4.386zm141.778-144.25c26.916-26.917 54.51-53.15 81.482-80.01 7.192-7.163 14.836-13.987 21-22.052 4.977-6.51-5.15-.066-75.81 68.882-7.023 6.851-87.364 85.208-85.632 87.816 1.57 2.364 54.397-50.105 58.96-54.637M163.502 74.64c-3.702-1.164-3.345-51.079.628-62.581.81-2.347 3.564-3.68 4.374-6.026l24.4 4.131c-2.156 4.103-5.538 7.478-7.694 11.58-2.295 4.367-3.295 9.336-5.59 13.702-.783 1.49-2.966 2.033-3.517 3.623-3.002 8.666-4.316 17.838-6.96 26.62-.243.811-2.999 9.968-5.64 8.95M132.629 94.806c-.541-.295-22.111-19.598-27.302-22.051-1.376-.677-16.647-8.197-15.75-10.923.358-1.089 1.49-4.532 9.028-11.128l8.823-8.195 4.828 5.878c2.728 3.15 7.556 8.823 10.706 12.179 11.683 12.953 22.61 30.252 22.473 33.808-.038.99-4.514 5.156-12.806.422zM221.255 184.051c-8.4-7.978-17.85-17.429-21.207-21.207-5.31-6.09-7.681-8.661-.42-12.246 2.36-1.166 10.499 2.993 11.343 3.424 5.456 2.944 10.294 5.878 10.922 6.506 1.894 2.522 22.051 12.179 27.93 13.65 1.054.253 2.125.492 3.114.934 7.784 3.48-9.787 23.874-13.615 23.002-3.777-.86-16.713-12.829-18.057-14.073zM160.774 250.204c-1.472-4.828-1.05-7.978 1.256-8.822 1.63-.467 7.04-19.627 8.607-21.001 3.814-3.814 2.11-4.614 4.2-28.351 1.678-15.33 6.3-17.645 7.978-3.779 4.074 31.322 4.26 31.244 4.829 38.852 1.472 19.107-.422 21.845-13.23 19.951-4.956-.664-5.514-2.15-9.244 1.256-3.812 3.482-4.272 2.254-4.406 1.894zM227.34 125.042c-1.679-2.944 2.944-6.3 10.294-7.144 3.572-.628 9.657-2.306 13.65-4.2 27.81-12.288 28.975-10.029 38.907-11.523l1.97-4.755c1.245 2.601 3.54 4.604 4.785 7.205.977 2.046 1.435 4.322 1.797 6.56l1.256 8.607-13.229 2.306c-20.157 3.572-57.958 5.25-59.43 2.944M40.224 133.658C39.38 129.25 38.33 124 37.702 121.9c-.844-3.572 1.256-3.778 32.346-3.572 41.594.469 43.643 2.279 42.629 5.565-.951 3.08-14.9 3.205-22.894 6.191-2.66.85-25.605 4.338-32.13 7.773-7.722 4.065-14.06 3.681-14.279 3.572-2.148-1.073-3.05-7.108-3.15-7.772"/></svg>