<svg xmlns="http://www.w3.org/2000/svg" width="300" height="300" viewBox="0 0 300 300"><title>characteristics-wounds</title><path d="M101.288 297.338c-2.859-2.859-2.653-12.056.412-10.219 1.434.816 1.631.609.816-1.022-1.228-1.838-2.25-1.838-4.5 0s-2.859 1.631-3.066-1.434c-.206-2.25-.206-4.5 0-5.316 0-1.022-.609-1.631-1.838-1.631-1.022 0-2.044-3.675-2.044-8.175s1.022-8.175 2.044-8.175c2.859 0 2.653-7.556-.206-8.578-1.434-.412-.609-3.478 2.044-8.381 4.903-8.578 4.087-15.534-2.25-23.906-7.153-8.991-14.1-12.262-27.178-12.262-8.991 0-13.687-1.228-17.372-4.088-4.903-3.675-5.109-4.5-4.5-24.928.412-17.569 1.228-21.459 4.5-24.722 4.697-4.087 4.294-2.044 4.697-43.322.412-25.538 1.022-31.472 4.087-35.756 1.837-2.653 3.478-7.763 3.478-11.241 0-3.272 2.859-11.644 6.131-18.394 3.478-6.534 5.925-13.078 5.316-14.512-1.434-3.478 4.087-7.556 18.187-14.1 6.741-3.066 17.372-7.969 23.503-11.034 9.6-4.5 14.503-5.512 33.309-5.925 16.547-.609 23.7 0 28.603 2.25 3.675 1.837 9.403 3.881 12.666 4.697 3.478.816 8.381 3.066 11.034 5.316 2.653 2.044 5.719 3.675 6.947 3.675 1.838 0 7.359 5.513 15.534 15.328 4.903 5.925 8.381 21.656 8.381 37.594 0 9.403 1.631 20.634 3.881 28.406 3.066 10.012 3.478 14.1 1.838 17.775-2.25 5.109 2.456 20.841 10.425 33.919 2.653 4.5 4.294 10.425 4.294 16.547 0 5.719 1.228 10.828 3.066 12.666 4.088 4.088 4.088 15.534 0 15.534-1.838 0-3.675 1.228-4.294 2.859s-4.087 4.087-7.556 5.512c-3.675 1.434-7.556 3.675-8.991 4.903-1.434 1.022-3.675 3.066-5.316 4.294-1.434 1.228-7.359 3.478-13.284 4.903-5.925 1.631-10.622 3.478-10.622 4.294s-1.838 1.838-4.087 2.456c-2.653.609-4.5 3.478-5.513 7.763-1.022 5.719-1.434 6.131-2.859 2.859-1.228-3.272-1.631-3.272-1.631-.816-.206 1.838 1.631 7.359 3.881 12.262s4.087 11.034 4.087 13.688c0 2.456.816 4.5 1.838 4.5 2.456 0 .816 10.425-3.066 19.416-4.294 10.622-11.034 8.578-11.034-3.272 0-2.044-.816-3.881-2.044-3.881-1.022 0-2.044 2.456-2.044 5.719 0 7.969-2.044 10.219-10.622 10.828-7.969.816-14.306-2.653-10.013-5.109 2.456-1.631 3.066-11.241 1.022-16.35-1.838-4.903-4.903-3.881-4.903 1.631 0 2.859-.816 5.719-2.044 6.337-1.022.609-2.044 4.5-2.044 8.381 0 4.903.816 6.741 2.456 5.719 1.434-.816 1.631-.609.816 1.022-.816 1.228-2.456 1.631-3.675 1.022-1.228-.816-5.109-2.044-8.578-2.859-4.294-.816-6.338-2.456-6.534-5.109-.206-2.25-.413-7.556-.609-11.644-.206-5.512-1.228-7.762-3.272-7.762-3.675 0-4.294 12.262-1.022 18.591 1.837 3.272 1.434 3.881-2.859 3.881-2.859 0-5.719 1.022-6.338 2.044-2.25 3.478-6.338 2.25-8.784-2.456-2.044-4.294-2.25-4.088-2.25 2.859-.206 6.131-.816 7.359-4.294 7.153-2.25-.206-5.109-1.228-6.131-2.25zm5.109-19.613c-1.838-2.044-3.066-5.316-2.25-7.153.609-2.044.413-2.653-1.022-2.044-1.022.816-3.675.206-5.512-1.434-3.066-2.25-3.066-2.25-1.022.609 1.434 1.838 2.25 3.881 1.631 4.5-.609.816-.412 1.022.206.413.816-.413 3.066 1.434 5.316 4.087 2.25 2.859 4.5 5.109 5.109 5.109s-.413-1.837-2.456-4.087m12.666-1.847c-.206-3.066-.816-3.478-2.859-1.838s-2.653 1.434-2.653-.413c0-1.631-.609-2.044-1.434-1.228-1.022.816.206 2.859 2.25 4.5 5.109 3.675 5.109 3.675 4.697-1.022zm-16.96-27.994c.816-3.066.816-5.925.206-6.534-1.631-1.631-5.109 3.881-5.109 8.381 0 5.316 3.478 4.088 4.903-1.838zm49.856-17.775c4.697 0 8.578-.609 8.578-1.631 0-4.5-5.109-20.231-6.534-20.231-.816 0-1.631-2.456-1.631-5.513 0-7.969-2.653-11.241-8.381-10.425-4.294.609-4.903 1.631-4.903 8.991 0 5.925-1.838 11.241-5.512 16.959-6.947 10.622-5.719 15.534 3.272 13.284 3.478-.816 10.219-1.631 15.122-1.434zm67.838-24.928c0-1.631-.816-3.066-2.044-3.066-1.022 0-2.044 1.434-2.044 3.066s1.022 3.066 2.044 3.066c1.228 0 2.044-1.434 2.044-3.066m-99.713-15.731c.816-1.434 1.631-3.675 1.631-5.109 0-3.881-8.381-10.622-15.525-12.666-3.478-1.022-10.013-4.088-14.1-6.947-4.294-3.066-8.991-4.697-11.034-3.881-12.056 4.294-20.025 15.328-15.534 21.459 1.434 1.838 3.675 3.478 5.316 3.478 1.631.206 10.219 2.25 19.003 4.903 16.753 4.903 26.559 4.5 30.244-1.228zm85.21 2.25c4.903-1.022 9.403-1.631 9.806-1.022 1.838 1.631 14.916-13.491 14.916-16.959 0-5.719-6.131-12.469-11.241-12.469-7.153 0-23.494 4.697-23.494 6.534 0 .816-1.838 1.631-4.087 1.631-4.903 0-15.731 4.5-21.253 8.578-3.881 3.066-3.881 3.066 0 8.381 2.044 3.066 5.513 5.513 7.359 5.513s4.088.816 4.697 2.044c1.228 1.838 7.153 1.434 23.297-2.25zm-78.057-19.416c-.609-.609-2.456-.816-3.881-.206-1.631.609-1.022 1.228 1.228 1.228 2.25.206 3.478-.412 2.653-1.022m-75.609-11.437c-.609-1.631-1.228-1.022-1.228 1.228-.206 2.25.413 3.478 1.022 2.653.609-.609.816-2.456.206-3.881M72.675 48.666c0-1.022-.816-1.837-2.044-1.837-1.022 0-2.044 1.434-2.044 3.272 0 1.631 1.022 2.456 2.044 1.837 1.228-.609 2.044-2.044 2.044-3.272"/><path d="M124.781 298.359c-5.925-1.434-6.131-1.434-1.631-3.881 6.534-3.675 10.828-3.066 10.828 1.631 0 2.25-.609 3.881-1.434 3.881-1.022-.206-4.294-.816-7.762-1.631z"/></svg>