<svg xmlns="http://www.w3.org/2000/svg" xml:space="preserve" fill-rule="evenodd" stroke-linejoin="round" stroke-miterlimit="2" clip-rule="evenodd" viewBox="0 0 300 300"><path fill-rule="nonzero" d="M89.585 278.981c-4.13-6.398-4.75-10.114-4.337-25.809 0-10.114 1.241-21.471 2.681-25.188 2.267-6.398 2.06-7.64-4.13-16.108-7.64-10.529-16.315-14.245-36.13-15.28-19.577-.613-16.982-7.807-16.232-27.434 1.043-27.333 6.739-29.056 7.764-34.504 1.241-6.192-1.45-29.733-4.131-36.959-.664-2.117.933-4.389.828-6.605-.038-.802-1.242-1.261-1.242-2.065 0-.635.674-1.16 1.242-1.444 1.652-1.101 4.048-24.121 4.327-24.775 1.035-2.888 2.06-8.468 2.475-12.391.207-3.923 1.242-6.605 2.06-6.192.935.7 4.137-12.033 4.545-12.598 1.45-2.267 3.51-7.02 4.13-10.529 1.657-7.64 5.778-11.77 16.928-17.34 10.942-5.777 12.805-5.166 14.245 3.716.622 4.13 3.096 11.149 5.166 15.28.23.42 1.653 6.183 6.398 14.452 3.77 6.572 3.446 6.539 5.166 14.038 1.449 7.433 4.75 20.031 7.019 27.87 2.475 8.053 5.372 18.168 6.398 22.712.51 2.323 14.455 37.118 15.695 61.534.207 4.349.598 8.746.027 13.062-.387 2.92-5.272 3.752-3.536 9.03 3.488 10.603 3.018 11.134-3.095 20.644-.552.868-6.565 10.33-4.079 12.2 3.48 2.616 11.78-.298 12.744-.636 3.499-1.17 7.332-2.409 10.943-1.656 1.911.398 10.182 9.835 10.32 11.77 0 2.268 2.476 5.777 11.978 17.548 2.475 3.095 5.166 8.675 5.777 12.185.828 3.51 2.06 5.983 2.888 5.372 1.45-.828-.828 13.013-2.475 14.452-.206.415-4.337 1.035-8.882 1.45l-8.26.62.62-9.7c.414-5.57-.206-11.564-1.448-13.418-1.656-3.303-2.268-2.888-4.338 2.475-4.039 9.78-.717 10.459-4.232 20.261-1.372 3.824-2.69 1.832-9.185 1.832-5.444-.52-3.445-3.006-6.815-19.819-1.156-5.765-6.299-6.04-6.345-3.125-.212 13.295 1.032 13.015 5.642 25.645.254.695.5 2.256-8.796 2.878-8.676.413-9.296.207-10.736-6.398l-1.45-6.813-1.853 6.813c-2.475 9.493-10.114 9.089-16.315-1.035zm13.418-97.872c12.179-6.11 4.404-16.119-3.105-17.764-6.554-1.232-5.672-4.203-11.553-5.777-2.889-.621-7.847-3.095-10.53-5.372-6.604-5.166-9.286-4.96-16.107 1.242-12.599 11.564-12.392 19.825.206 22.506 36.752 8.468 34.484 8.055 41.09 5.166zm97.044 112.935c-.622-3.923-.828-8.054-.207-9.088.828-.828-.621-4.751-2.888-8.261l-8.054-19.617c-.979-1.782-2.903-10.841-7.02-15.073-3.9-4.01-3.697-4.042-5.372-9.296-3.439-10.292-4.796-9.732-7.226-21.885-9.249-46.256-5.16-46.99-14.452-74.33-14.447-42.507-16.823-60.086-17.549-65.458-.951-7.042-2.767-6.395-4.12-13.416-2.548-13.216.334-14.868-9.494-23.956-3.716-3.51-4.337-5.57-3.095-11.357 1.035-5.777 2.682-7.432 8.469-9.295 3.923-1.035 8.675-2.889 10.32-4.131 2.708-1.85 43.13-6.209 57.406 4.958 3.095 2.06 9.089 4.959 13.417 6.191 12.575 4.411 10.89 7.137 11.978 7.433 6.605 2.267 13.625 11.15 16.523 21.265 1.243 4.75 3.303 9.286 4.131 9.907.577.347 2.379 39.666 4.751 45.22 1.863 4.13 3.095 13.417 2.889 21.47 0 11.565.828 15.696 4.337 20.438l8.261 14.45c2.475 3.924 4.13 11.15 5.166 23.335 1.25 17.022 3.322 19.763-11.15 28.706-3.588 2.217-7.685 3.577-11.149 5.984-4.959 3.51-11.564 6.813-14.866 7.64-6.605 1.45-19.618 8.676-21.885 11.978-5.273 7.918 5.778 27.27 5.372 42.538-.555 20.846-12.336 24.519-14.452 13.624zm24.98-94.353c2.44-2.44 6.675-1.963 9.687-3.646 9.822-5.493 19.428-31.995-12.782-23.611-6.192 1.449-11.77 3.51-12.392 4.544-.621.828-4.13 2.267-7.847 2.889-7.103 1.385-18.73 9.562-18.997 12.805-.205 2.499 8.48 10.738 13.418 11.77 5.372 1.035 26.222-2.475 28.904-4.75z"/></svg>