<svg xmlns="http://www.w3.org/2000/svg" xml:space="preserve" fill-rule="evenodd" stroke-linejoin="round" stroke-miterlimit="2" clip-rule="evenodd" viewBox="0 0 300 300"><path fill-rule="nonzero" d="M180.62 122.47c-1.443-1.03-6.6-1.855-11.343-1.855-4.745 0-9.076-.62-9.695-1.65-.412-.825.412-13.2 2.063-27.217 1.444-14.232 2.681-33.198 2.681-42.265s.412-22.266 1.238-29.278c1.445-11.55 2.064-12.995 7.426-14.842 3.919-1.444 10.313-1.444 18.76 0 22.472 3.506 28.041 10.106 24.534 28.66-1.238 6.188-3.506 19.792-5.362 29.898-1.65 10.313-3.92 20.41-4.95 22.679s-2.475 8.663-3.094 14.231c-1.856 14.428-5.157 20.41-12.995 22.06-3.506.619-7.631.413-9.281-.412zM38.558 84.118C33.813 78.34 31.13 71.122 28.45 57.313c-1.444-7.22-3.506-12.995-4.33-12.995-1.032 0-1.857-1.65-1.857-3.712 0-4.125 8.044-12.787 11.757-12.787 1.237 0 2.68-1.031 3.094-2.063 1.03-3.3 24.534-12.17 31.96-12.376 3.506 0 7.219 1.031 8.044 2.27 1.237 2.269 5.362 27.216 8.456 50.513l1.031 8.663-10.52 1.444c-5.774.825-10.519 2.27-10.519 3.3 0 1.031-1.65 1.856-3.506 1.856-2.063 0-6.394 1.444-9.694 3.095-7.631 3.919-10.313 3.919-13.82-.413zm81.65 23.512c2.474-20.41-6.395-47.007-14.635-43.914-5.57 2.063-9.076-6.188-10.314-24.948-1.856-23.71-.619-28.042 8.87-34.023C110.728.825 114.853 0 129.075 0c11.139 0 17.523.825 18.554 2.475.825 1.444 1.856 16.492 2.269 33.61.619 30.104.413 31.342-3.713 32.373-3.92 1.031-4.537 1.856-4.125 6.394 0 .825 1.444 1.237 3.094.825 2.269-.413 2.887 3.3 2.887 20.204 0 11.344-.206 20.616-.412 20.823-.413 0-7.013.619-14.635 1.237l-14.23 1.03z"/><path fill-rule="nonzero" d="M81.655 263.709c-1.031-.825-1.65-5.981-1.65-11.55 0-5.363-.825-9.9-1.65-9.9s-2.681-4.126-4.125-9.076c-3.713-14.428-25.36-29.279-34.848-24.329-8.664 4.744-9.695.825-11.138-40.614-.825-21.854-2.475-40.83-3.712-43.295-2.269-4.125-1.856-12.376.825-16.698.62-1.03 4.125-3.3 7.837-4.95 8.045-3.713 41.036-13.603 45.152-13.603 1.65 0 6.806-2.681 11.138-5.775 4.538-3.3 9.281-5.57 10.52-5.157 4.95 1.65 9.9 15.873 9.9 27.63 0 11.962-6.188 28.66-10.726 28.66-1.444 0-3.3 1.236-4.125 2.886-2.063 3.506-18.553 11.55-23.71 11.55-3.505 0-9.28 7.632-7.219 9.695 2.063 1.856 24.33-3.506 27.423-6.6 4.537-4.538 26.598-4.126 35.673.619 4.95 2.475 9.076 7.425 13.81 16.491 6.394 11.963 7.012 14.223 7.012 31.548 0 10.313-.825 18.142-1.65 17.523-1.031-.62-2.887 1.856-4.125 5.569-2.063 5.98-23.092 26.804-28.248 28.248-1.031.412-5.57 2.887-10.106 5.569-8.25 5.362-19.792 8.25-22.267 5.569zm43.09 34.023c-9.901-1.65-19.998-11.137-20.617-19.585-.413-5.156.412-5.98 5.362-6.6 3.094-.413 5.569-1.444 5.569-2.475s2.063-2.475 4.744-3.3c2.475-.619 9.281-6.188 14.842-11.963 5.775-5.982 11.756-11.345 13.603-12.17 4.125-1.444 36.704 29.28 40.614 38.56 2.475 5.57 2.27 6.395-4.125 12.995l-6.6 6.806-22.885-.412c-12.375-.413-26.185-1.238-30.517-1.856z"/><path fill-rule="nonzero" d="M204.95 263.503c-4.331-.62-9.282-2.27-10.932-3.92s-4.538-2.887-6.6-2.887c-1.856 0-7.425-4.537-12.375-10.107-8.457-9.488-11.55-15.666-16.904-32.167-2.475-8.044-2.475-28.866.206-38.354 2.27-8.25 12.582-20.203 21.235-24.534 6.188-3.095 7.425-8.25 1.856-8.25-1.856 0-7.013 1.855-11.344 4.124-4.126 2.27-9.076 4.126-10.726 4.126-1.856 0-3.713 2.475-4.33 6.188-.826 3.506-1.857 6.188-2.27 6.188-.619 0-5.156-4.125-10.106-9.281-5.981-5.982-11.55-9.489-16.492-10.52-3.919-.825-7.838-2.68-8.456-4.125-.619-1.65-2.475-2.888-4.125-2.888s-2.681-1.444-2.27-3.506c.62-3.3 3.507-3.713 29.486-3.3 15.666.413 29.073 1.444 29.692 2.475.619.825 6.188 2.063 12.169 2.681 12.581 1.237 14.428 2.475 10.725 6.806-2.269 2.681-.825 3.094 12.582 3.094 12.375 0 15.872.825 19.584 4.331 3.92 3.713 5.156 3.92 8.87 1.445 2.475-1.445 4.33-3.3 4.33-4.126 0-1.03 1.65-1.65 3.92-1.65 4.744 0 6.6 8.663 6.6 28.867 0 16.285-1.444 23.504-6.806 31.96-2.062 3.506-3.713 7.837-3.713 9.9 0 1.857-.825 3.507-1.856 3.507s-2.27 1.856-2.888 4.125c-.62 2.269-2.682 4.125-4.538 4.125-2.063 0-6.806 1.856-10.519 4.331-5.981 3.713-7.013 5.362-7.013 12.375q0 8.045 4.331 12.376c3.506 3.506 3.92 4.744 1.65 6.188-1.65 1.03-3.3 1.65-3.92 1.444-.618-.206-4.743-.62-9.074-1.031zm35.879-129.894c0-3.094-.412-3.3-2.063-.619s-2.681 2.681-6.189.412c-2.269-1.444-5.156-2.063-6.188-1.444-1.238.825-2.062.412-2.062-.62 0-1.03-2.888-2.474-6.394-3.3-5.981-1.236-6.394-1.65-5.363-8.868.413-4.332 3.713-18.554 7.22-31.548 3.3-13.192 6.805-28.248 7.63-33.404 1.856-12.788 10.107-19.379 16.904-13.613 1.444 1.237 2.68 1.444 2.68.825 0-.825 2.682.412 5.982 2.681 3.3 2.475 6.806 4.331 8.044 4.331 1.031 0 5.156 3.095 9.282 7.014l7.425 7.013-3.92 7.837c-2.268 4.331-4.124 10.52-4.124 13.604s-.825 5.98-1.65 6.6c-1.031.619-4.539 7.425-7.632 15.047-3.3 7.631-7.219 15.254-8.869 16.904-1.444 1.444-3.3 5.362-3.92 8.662-1.237 6.394-6.805 8.25-6.805 2.475z"/></svg>