<svg xmlns="http://www.w3.org/2000/svg" width="300" height="300" viewBox="0 0 300 300"><title>characteristics-strength</title><path d="M180.619 122.475c-1.444-1.031-6.6-1.856-11.344-1.856s-9.075-.619-9.694-1.65c-.412-.825.412-13.2 2.063-27.216 1.444-14.231 2.681-33.197 2.681-42.263s.412-22.266 1.238-29.278c1.444-11.55 2.063-12.994 7.425-14.841 3.919-1.444 10.313-1.444 18.759 0 22.472 3.506 28.041 10.106 24.534 28.659-1.238 6.188-3.506 19.791-5.362 29.897-1.65 10.313-3.919 20.409-4.95 22.678s-2.475 8.663-3.094 14.231c-1.856 14.428-5.156 20.409-12.994 22.059-3.506.619-7.631.413-9.281-.412zM38.559 84.122c-4.744-5.775-7.425-12.994-10.106-26.803-1.444-7.219-3.506-12.994-4.331-12.994-1.031 0-1.856-1.65-1.856-3.712 0-4.125 8.044-12.787 11.756-12.787 1.237 0 2.681-1.031 3.094-2.063 1.031-3.3 24.534-12.169 31.959-12.375 3.506 0 7.219 1.031 8.044 2.269 1.237 2.269 5.362 27.216 8.456 50.512l1.031 8.663-10.519 1.444c-5.775.825-10.519 2.269-10.519 3.3s-1.65 1.856-3.506 1.856c-2.063 0-6.394 1.444-9.694 3.094-7.631 3.919-10.313 3.919-13.819-.413zm3.919-13.397c-1.237-3.712-5.775-4.331-5.775-.825 0 1.856 1.444 3.3 3.3 3.3s2.887-1.031 2.475-2.475m77.728 36.909c2.475-20.409-6.394-47.006-14.634-43.913-5.569 2.063-9.075-6.188-10.313-24.947-1.856-23.709-.619-28.041 8.869-34.022 6.6-3.919 10.725-4.744 24.947-4.744 11.138 0 17.522.825 18.553 2.475.825 1.444 1.856 16.491 2.269 33.609.619 30.103.413 31.341-3.713 32.372-3.919 1.031-4.537 1.856-4.125 6.394 0 .825 1.444 1.237 3.094.825 2.269-.413 2.887 3.3 2.887 20.203 0 11.344-.206 20.616-.412 20.822-.413 0-7.013.619-14.634 1.237l-14.231 1.031z"/><path d="M81.656 263.709c-1.031-.825-1.65-5.981-1.65-11.55 0-5.362-.825-9.9-1.65-9.9s-2.681-4.125-4.125-9.075c-3.713-14.428-25.359-29.278-34.847-24.328-8.663 4.744-9.694.825-11.137-40.613-.825-21.853-2.475-40.828-3.712-43.294-2.269-4.125-1.856-12.375.825-16.697.619-1.031 4.125-3.3 7.837-4.95 8.044-3.713 41.034-13.603 45.15-13.603 1.65 0 6.806-2.681 11.138-5.775 4.538-3.3 9.281-5.569 10.519-5.156 4.95 1.65 9.9 15.872 9.9 27.628 0 11.962-6.188 28.659-10.725 28.659-1.444 0-3.3 1.237-4.125 2.887-2.063 3.506-18.553 11.55-23.709 11.55-3.506 0-9.281 7.631-7.219 9.694 2.063 1.856 24.328-3.506 27.422-6.6 4.537-4.537 26.597-4.125 35.672.619 4.95 2.475 9.075 7.425 13.809 16.491 6.394 11.963 7.012 14.222 7.012 31.547 0 10.313-.825 18.141-1.65 17.522-1.031-.619-2.887 1.856-4.125 5.569-2.063 5.981-23.091 26.803-28.247 28.247-1.031.412-5.569 2.887-10.106 5.569-8.25 5.362-19.791 8.25-22.266 5.569zm59.578-76.49c-.619-2.063-1.031-.825-1.031 2.475 0 3.506.412 4.95 1.031 3.713.412-1.444.412-4.331 0-6.188m-16.49 110.512c-9.9-1.65-19.997-11.137-20.616-19.584-.413-5.156.412-5.981 5.362-6.6 3.094-.413 5.569-1.444 5.569-2.475s2.063-2.475 4.744-3.3c2.475-.619 9.281-6.188 14.841-11.963 5.775-5.981 11.756-11.344 13.603-12.169 4.125-1.444 36.703 29.278 40.613 38.559 2.475 5.569 2.269 6.394-4.125 12.994l-6.6 6.806-22.884-.412c-12.375-.413-26.184-1.238-30.516-1.856z"/><path d="M204.947 263.503c-4.331-.619-9.281-2.269-10.931-3.919s-4.538-2.888-6.6-2.888c-1.856 0-7.425-4.537-12.375-10.106-8.456-9.488-11.55-15.666-16.903-32.166-2.475-8.044-2.475-28.866.206-38.353 2.269-8.25 12.581-20.203 21.234-24.534 6.188-3.094 7.425-8.25 1.856-8.25-1.856 0-7.013 1.856-11.344 4.125-4.125 2.269-9.075 4.125-10.725 4.125-1.856 0-3.713 2.475-4.331 6.188-.825 3.506-1.856 6.188-2.269 6.188-.619 0-5.156-4.125-10.106-9.281-5.981-5.981-11.55-9.488-16.491-10.519-3.919-.825-7.838-2.681-8.456-4.125-.619-1.65-2.475-2.888-4.125-2.888s-2.681-1.444-2.269-3.506c.619-3.3 3.506-3.713 29.484-3.3 15.666.413 29.072 1.444 29.691 2.475.619.825 6.188 2.063 12.169 2.681 12.581 1.237 14.428 2.475 10.725 6.806-2.269 2.681-.825 3.094 12.581 3.094 12.375 0 15.872.825 19.584 4.331 3.919 3.712 5.156 3.919 8.869 1.444 2.475-1.444 4.331-3.3 4.331-4.125 0-1.031 1.65-1.65 3.919-1.65 4.744 0 6.6 8.662 6.6 28.866 0 16.284-1.444 23.503-6.806 31.959-2.062 3.506-3.713 7.837-3.713 9.9 0 1.856-.825 3.506-1.856 3.506s-2.269 1.856-2.888 4.125-2.681 4.125-4.537 4.125c-2.063 0-6.806 1.856-10.519 4.331-5.981 3.713-7.013 5.362-7.013 12.375q0 8.044 4.331 12.375c3.506 3.506 3.919 4.744 1.65 6.188-1.65 1.031-3.3 1.65-3.919 1.444s-4.744-.619-9.075-1.031zm35.878-129.89c0-3.094-.412-3.3-2.063-.619s-2.681 2.681-6.188.412c-2.269-1.444-5.156-2.063-6.188-1.444-1.238.825-2.062.412-2.062-.619s-2.888-2.475-6.394-3.3c-5.981-1.237-6.394-1.65-5.363-8.869.413-4.331 3.713-18.553 7.219-31.547 3.3-13.191 6.806-28.247 7.631-33.403 1.856-12.787 10.106-19.378 16.903-13.612 1.444 1.237 2.681 1.444 2.681.825 0-.825 2.681.412 5.981 2.681 3.3 2.475 6.806 4.331 8.044 4.331 1.031 0 5.156 3.094 9.281 7.013l7.425 7.013-3.919 7.837c-2.269 4.331-4.125 10.519-4.125 13.603s-.825 5.981-1.65 6.6c-1.031.619-4.538 7.425-7.631 15.047-3.3 7.631-7.219 15.253-8.869 16.903-1.444 1.444-3.3 5.362-3.919 8.662-1.238 6.394-6.806 8.25-6.806 2.475z"/></svg>