<svg xmlns="http://www.w3.org/2000/svg" xml:space="preserve" fill-rule="evenodd" stroke-linejoin="round" stroke-miterlimit="2" clip-rule="evenodd" viewBox="0 0 300 300"><path fill-rule="nonzero" d="M111.192 297.455c-.167 5.002-19.652-3.093-17.078-13.287 0-1.284-3.949-.71-3.949-9.975 0-7.483 7.606-14.99 1.87-17.042-1.459-.419-.62-3.538 2.079-8.525 4.987-8.726 4.157-15.802-2.289-24.318-13.581-17.072-37.818-10.812-45.318-16.632-4.987-3.739-5.197-4.578-4.577-25.358.419-17.872 1.249-21.829 4.577-25.148 4.778-4.158 4.368-2.08 4.778-44.069.42-25.978 1.04-32.015 4.158-36.372 3.473-5.017 3.069-16.313 9.774-30.146 6.637-12.468 4.79-15.98 5.666-17.56 2.296-4.144 16.676-10.818 18.242-11.546 6.858-3.118 17.672-8.106 23.909-11.224 9.765-4.577 14.753-5.607 33.883-6.027 16.832-.62 24.108 0 29.096 2.289 4.097 2.047 8.665 2.996 12.884 4.778 3.826 1.616 8.057 2.72 11.225 5.407 8.09 6.234 9.977 3.854 22.868 19.331 9.019 10.899 7.83 51.101 12.473 67.138 4.852 15.842.668 16.163 1.422 23.794 1.256 12.713 9.77 26.684 11.053 28.791 7.95 13.485.484 15.733 7.487 29.717.565 1.13 6.217 12.416 0 15.802-7.399 4.029-5.982 6.02-12.054 8.515-3.739 1.459-7.687 3.738-9.147 4.987-1.458 1.04-3.738 3.12-5.407 4.368-1.459 1.25-7.486 3.538-13.513 4.988-14.865 4.092-13.693 6.517-14.963 6.866-2.698.62-4.577 3.538-5.608 7.897-1.04 5.818-1.459 6.237-2.908 2.908-2.441-6.506 4.306 21.597 8.316 30.145.68 1.449 2.817 6.004-3.119 19.751-.845 2.091-1.963 4.177-3.597 5.733-8.598 8.193-7.15-22.497-11.136-11.345-1.756 4.915 2.54 14.174-11.455 15.168-8.106.83-14.552-2.699-10.185-5.197 2.498-1.66 3.118-11.435 1.04-16.632-.127-.336-1.825-4.864-3.196-3.143-.582.73-5.507 16.224-5.95 19.774-.922 7.382.155 8.18-.41 7.897-1.25-.83-5.198-2.08-8.727-2.909-10.759-2.044-6.747-6.224-7.266-17.041-.415-11.095-5.271-6.434-5.536-5.846-1.298 2.881-1.044 12.582 1.168 16.861 3.532 6.29-2.731 3.01-9.355 6.027-5.182 2.361-6.353 2.471-8.936-2.498-2.08-4.368-2.289-4.158-2.289 2.908m40.914-63.374c.71 0 8.766 0 8.726-1.659-.012-.474-1.912-13.438-6.647-20.58-3.528-5.32.724-17.013-10.185-16.212-8.942.656-.492 10.675-10.594 26.397-7.067 10.805-5.818 15.802 3.328 13.513 3.538-.83 10.395-1.66 15.383-1.459zm-32.425-41.36c7.32-12.864-21.422-20.213-28.476-25.148-4.368-3.119-9.146-4.778-11.225-3.948-12.263 4.368-20.37 15.593-15.801 21.83 1.458 1.869 3.738 3.537 5.407 3.537 1.66.21 10.395 2.289 19.33 4.988 17.043 4.987 27.018 4.577 30.766-1.25zm86.68 2.29c4.987-1.04 9.564-1.66 9.974-1.04.766.68 18.143-12.584 14.118-21.688-1.027-2.323-6.375-14.421-31.567-3.428-3.62 1.58-3.055 2.547-6.869 3.486-11.497 2.83-12.062 1.668-21.62 8.726-3.947 3.119-3.947 3.119 0 8.525 3.966 5.948 11.315 5.771 12.265 7.688 1.249 1.87 7.276 1.458 23.698-2.29z"/></svg>