<svg xmlns="http://www.w3.org/2000/svg" width="300" height="300" viewBox="0 0 300 300"><title>characteristics-range</title><path d="M177.075 224.391c-1.041-2.719-26.728-23.597-26.728-21.713 0 .834-1.041 0-2.297-1.875-1.041-2.091-3.131-3.759-4.172-3.759-1.256 0-1.463 1.256-.628 2.719 1.041 1.463 0 1.256-2.297-.628-3.553-2.925-3.553-3.131-.206-3.759 2.719-.628 3.131-1.462 1.041-3.759-3.338-4.172 2.297-5.85 13.153-4.172l8.353 1.463-1.256-7.931c-2.719-14.822-15.244-36.534-27.356-47.184-6.684-5.85-22.547-13.575-31.528-15.037-4.388-.834-9.394-2.719-11.063-3.966s-11.063-2.297-21.919-2.297c-18.581 0-19.416.206-30.694 7.931-6.469 4.172-12.741 7.725-13.781 7.725-1.256 0-2.719 1.463-3.553 3.131-.628 1.669-2.503 3.131-4.172 3.131s-3.966 1.669-5.222 3.553c-4.387 7.931-4.594 0-.422-11.484C17.344 112.905 33 96.208 46.565 89.946c4.172-2.091 8.147-4.594 8.766-5.428.628-1.041 3.966-2.503 7.303-3.337 3.553-.834 6.263-2.091 6.263-2.925 0-2.719-11.278-12.112-16.078-13.781-2.719-.628-4.8-2.297-4.8-3.337 0-2.503-36.956-2.503-38.625.206C7.519 64.475 0 63.847 0 60.51c0-5.222 13.987-15.244 27.562-19.631 14.194-4.594 42.806-6.469 40.294-2.719-.834 1.462 1.669 2.297 6.684 2.297 4.388 0 12.741 1.256 18.375 2.925 11.691 3.131 34.659 15.038 37.163 19.416.834 1.462 2.719 2.719 3.966 2.719 3.553 0 24.431 22.547 34.247 36.534 11.897 17.541 15.656 26.728 16.912 41.128.628 6.684 2.091 12.741 2.925 13.359 1.041.628 1.875 4.172 1.875 7.725 0 3.759.628 10.228 1.462 14.616 1.041 7.097 1.875 7.931 5.634 6.684 12.319-3.759 26.306-2.503 26.306 2.297 0 1.462-5.428 6.469-11.897 10.856-6.684 4.594-16.078 12.525-20.878 17.953-8.559 9.394-12.113 11.484-13.575 7.725zM60.563 104.962c0-2.297-.628-2.297-5.016-.628-4.8 1.875-4.172 4.8.834 3.553 2.297-.628 4.172-1.875 4.172-2.925z"/><path d="M136.772 261.975c.628-1.256-4.8-2.091-12.947-2.091-13.153-.206-31.528-3.553-41.128-7.519-3.131-1.462-3.759-1.041-2.503 1.256.834 1.669 0 1.041-1.669-1.041-1.875-2.297-3.337-3.338-3.337-2.297 0 .834-2.091 0-4.594-2.297-2.503-2.091-3.759-2.719-2.925-1.256 1.669 2.925-12.741-5.016-17.747-10.022-4.594-4.388-8.559-12.319-7.097-14.409.628-1.041-.206-2.503-1.462-2.925-2.091-.834-2.091-1.256 0-1.256 1.256-.206 2.503-1.669 2.503-3.338s2.719-5.85 6.056-9.188c9.816-10.022 31.95-18.788 59.719-23.381 8.559-1.463 15.656-3.553 15.656-4.388s1.463-1.669 3.337-1.669c6.684 0 1.256 5.222-6.469 6.262-4.388.628-8.353 2.297-8.981 3.759-.628 1.875.834 2.297 5.222 1.669 6.684-1.256-1.875 1.256-21.3 6.469-15.038 4.172-30.272 12.319-30.272 16.491 0 2.297 3.553 2.925 15.656 2.925 16.078 0 21.3 3.131 9.188 5.634-4.8.834-5.634 1.669-3.553 3.131 1.875 1.463 1.463 1.669-1.875 1.041-2.503-.628-8.981 0-14.409 1.041-8.559 1.875-9.394 2.503-5.85 4.388 2.091 1.256 4.387 2.719 5.016 3.553 2.719 3.553 16.912 8.766 28.809 10.444 7.312 1.041 14.409 2.719 15.872 3.966 1.256 1.041 13.575 2.719 26.934 3.553 23.803 1.463 24.637 1.256 29.653-3.338 2.925-2.719 5.222-6.056 5.222-7.725 0-3.338 3.553-3.553 7.303 0 11.063 9.816 14.194 10.228 37.584 5.428 19.209-4.172 42.806-14.194 50.109-21.506 3.131-3.131 3.131-3.338-.422-4.594-2.091-.628-5.85-2.091-8.559-3.131s-7.931-1.875-11.897-1.875c-11.278 0-8.559-3.553 4.8-6.262 17.541-3.338 17.541-3.553 15.037-8.147-1.041-2.297-4.594-6.056-7.725-8.353-3.337-2.297-7.097-5.428-8.766-6.684-1.462-1.463-7.303-2.925-12.947-3.553-5.634-.422-10.228-1.669-10.228-2.719s-4.387-1.875-9.816-2.091c-7.725-.206-8.766-.628-4.8-1.669 5.85-1.669 30.066 1.041 36.534 3.966 2.297 1.041 6.469 2.503 9.394 3.338s7.725 3.131 10.856 5.222c2.925 2.297 6.056 3.966 6.684 3.966 3.759 0 17.953 17.334 19.003 23.381s.206 8.147-8.147 16.912c-5.222 5.428-12.319 11.063-15.872 12.113-3.338 1.256-6.262 3.131-6.262 4.172s-1.256 1.875-2.925 1.875-5.634 1.041-8.981 2.503c-3.131 1.256-6.469 2.297-7.097 2.091-.628 0-5.85 1.256-11.278 2.925-5.634 1.462-16.491 2.925-24.431 2.925-9.188 0-13.988.834-13.153 2.091.834 1.462-10.444 2.091-32.362 2.091-20.25 0-33.197-.834-32.362-1.875z"/></svg>