<svg xmlns="http://www.w3.org/2000/svg" width="300" height="300" viewBox="0 0 300 300"><title>characteristics-toughness</title><path d="M41.784 226.884c1.444-.619 3.291-.412 3.909.206.825.619-.412 1.238-2.672 1.031-2.259 0-2.878-.619-1.237-1.238zm208.444-110.915c0-2.259.619-2.878 1.238-1.237.619 1.444.412 3.291-.206 3.909-.619.825-1.238-.413-1.031-2.672zm-94.866 178.2c-2.878-.825-12.759-1.031-21.816-.412-13.987.825-18.309.206-25.725-3.291-4.941-2.259-13.791-6.375-19.753-9.056-11.728-5.147-12.966-6.788-6.787-8.85 2.259-.619 4.116-2.259 4.116-3.291 0-1.238 1.031-1.444 2.053-.825 1.237.825 2.053-1.856 2.053-6.375 0-6.788.413-7.406 4.734-6.169 2.466.619 7.2 1.237 10.284 1.237 3.291 0 5.353.825 4.528 2.053-.619 1.238-.413 2.053.825 2.053 1.031 0 2.672-.825 3.291-2.053 1.856-3.084 8.85-2.466 10.697 1.031 1.444 2.259 6.787 3.084 23.869 3.497 16.05.413 22.022 1.238 22.022 3.084 0 3.084 9.056 5.766 12.347 3.703 1.238-.825 1.65-3.084 1.031-5.353-.825-2.466-.413-3.909 1.444-3.909 1.65 0 6.994-1.856 11.728-4.322 8.438-3.909 9.056-4.116 12.759-.619 2.053 1.856 3.909 5.766 3.909 8.438s1.444 5.353 3.084 5.972c1.65.825 3.084 2.672 3.084 4.528 0 1.65-.619 2.466-1.238 1.856-.825-.825-3.909.619-7.2 2.878-3.084 2.259-8.644 5.147-12.141 6.169-3.291 1.238-6.169 3.084-6.169 3.909 0 1.031-5.353 2.259-11.728 3.084-6.581.619-13.791 1.65-16.05 1.856-2.259.413-6.375 0-9.262-.825zM19.556 215.363c-2.878-5.766-5.766-11.109-6.375-11.728s-3.703-10.697-6.787-22.631c-5.963-24.075-7.2-43.209-2.466-43.209 1.444 0 3.909-1.444 5.559-3.291 2.053-2.672 2.053-4.116-1.031-9.263-3.497-5.962-3.497-6.787 0-20.784 1.856-8.231 4.734-17.081 6.169-19.959 1.65-2.878 2.878-6.375 2.878-7.819 0-5.962 5.353-3.497 7.2 3.291 2.053 6.788 2.878 7.406 11.109 8.438 9.262 1.031 13.378 5.147 7.612 7.406-1.856.619-3.291 2.466-3.291 3.909s-1.856 8.438-4.322 15.638c-3.909 11.728-4.116 16.256-3.084 41.775 1.031 20.166 2.259 29.634 4.322 32.719 1.65 2.466 3.084 6.581 3.084 9.262 0 2.466 1.444 5.147 3.084 5.766 4.734 1.856 3.909 11.728-1.237 14.813-2.878 1.856-3.909 2.053-2.878.413 1.237-1.856.413-1.856-2.672-.206-2.466 1.238-4.941 3.291-5.559 4.322-2.672 4.322-6.375 1.65-11.316-8.85zm22.641-5.56c0-1.031-1.031-2.053-2.259-2.053-1.031 0-1.444 1.031-.825 2.053.619 1.238 1.65 2.053 2.259 2.053.412 0 .825-.825.825-2.053M11.325 141.9c0-1.031-1.031-2.053-2.259-2.053-1.031 0-1.444 1.031-.825 2.053.619 1.237 1.65 2.053 2.259 2.053.412 0 .825-.825.825-2.053m264.413 143.625c-4.528-3.084-13.791-8.644-20.578-12.141-30.037-15.637-31.894-17.081-31.894-22.838 0-2.053 1.444-6.169 3.291-8.85 1.856-2.878 2.672-5.147 1.856-5.147-3.703 0 10.284-10.078 15.225-10.903 5.353-1.031 12.759 1.444 12.347 4.322-.619 2.672 6.994 18.928 8.85 18.928.825 0 1.65 1.65 1.65 3.703 0 1.856 3.291 6.994 7.2 11.109 6.788 6.994 10.697 14.4 12.347 22.631 1.238 5.766-1.444 5.559-10.284-.825zM36.431 75.638c-1.444-1.444-2.466-4.116-2.466-6.169 0-4.528-4.322-13.988-6.375-13.988-1.031 0-2.259-3.291-3.084-7.2-.619-3.909-2.053-7.819-3.084-8.438s-1.444-2.053-.825-3.084c.825-1.031.413-1.856-.619-1.856-1.238 0-3.084-2.466-4.322-5.559-1.237-3.291-4.528-9.881-7.406-14.813C.225.337.638.131 19.772 11.447c5.559 3.291 13.584 9.469 21.816 16.669 4.116 3.497 9.881 7.2 12.759 7.819 9.881 2.466 11.934 6.788 9.881 19.547-1.856 10.903-2.466 11.728-9.881 15.019-4.528 1.856-10.078 3.497-12.759 3.703-4.322 0-4.322.206-.412 1.856 2.878 1.237 3.084 1.856 1.031 1.856-1.856.206-4.322-.825-5.766-2.259zm24.281-26.335c0-1.031-.825-2.053-2.053-2.053-1.031 0-2.053 1.031-2.053 2.053 0 1.237 1.031 2.053 2.053 2.053 1.237 0 2.053-.825 2.053-2.053m180.666 19.96c-1.856-1.444-3.909-6.169-4.734-10.284s-2.466-7.613-3.909-7.613c-1.65 0-1.65-.412 0-1.65 1.444-.825 2.672-3.291 3.084-5.559.619-2.672 5.766-6.581 15.225-11.316 8.025-3.909 15.019-8.025 15.637-8.85 1.444-2.053 8.644-6.375 16.05-9.675 2.672-1.238 7.2-3.909 10.078-6.169s5.559-3.703 5.972-3.291c1.237 1.237-3.909 15.637-5.559 15.637-.825 0-2.466 3.291-4.116 7.2s-3.291 7.2-4.116 7.2c-2.259 0-16.462 20.372-16.462 23.663 0 4.322-5.147 9.469-8.644 8.85-1.444-.412-2.466.412-2.259 1.65.619 3.084-12.141 3.291-16.256.206zM264.216 231c-.206-1.031-.413-2.466-.619-3.703-.413-4.116-4.528-8.437-10.078-10.903-4.528-1.856-5.147-3.084-3.703-5.972 9.056-16.875 14.4-63.994 10.491-91.566-5.147-35.803-5.147-33.956.206-36.628 2.672-1.444 5.766-3.909 6.581-5.353 3.291-5.559 6.788-2.672 12.553 10.078 8.437 17.7 11.522 30.862 11.522 47.119 0 10.697-.825 14.4-3.084 15.225-3.497 1.444-4.322 9.056-1.031 9.056 3.703 0 7.2 10.078 4.528 12.759-1.444 1.444-2.466 5.972-2.466 10.284s-.825 7.819-1.856 7.819-2.878 4.734-4.322 10.491-3.909 10.903-5.353 11.522c-1.65.619-2.878 2.259-2.878 3.909s-1.031 2.878-2.053 2.878c-2.053 0-7.2 9.881-6.581 12.966.206.825 0 1.444-.619 1.444s-1.238-.619-1.238-1.444zm18.731-118.734c0-.413-.619-2.259-1.238-4.116-1.856-4.734-4.941-4.116-4.941.825 0 2.259 1.444 4.116 3.084 4.116s3.084-.413 3.084-.825z"/><path d="M122.653 251.784c-1.65-2.053-4.941-2.878-8.85-2.466-3.291.619-6.375.206-6.994-.825-.619-.825-3.703-1.65-7.2-1.65-3.291 0-5.962-.825-5.962-1.65s-3.291-2.878-7.2-4.322-7.2-3.291-7.2-4.322-1.65-2.259-3.909-3.084c-3.703-1.031-20.784-23.869-20.784-27.778 0-1.031-1.444-3.084-3.084-4.941-3.291-3.291-5.766-12.759-9.469-37.247-2.466-15.431-1.237-44.034 1.856-46.097 1.031-.619 2.466-5.559 3.291-11.109.825-5.353 2.259-9.675 3.291-9.675 1.237 0 3.291-3.291 4.941-7.2 3.909-9.263 32.719-37.247 43.416-42.384 4.528-2.053 11.728-3.909 15.844-3.909s12.966-1.444 19.547-3.084c17.494-4.528 22.631-4.116 24.075 2.053 1.444 5.963 3.703 6.375 8.025 2.053 4.941-4.734 19.547-2.466 36.628 5.962 33.338 16.256 46.097 37.247 47.531 77.991 0 3.084.825 5.559 1.65 5.559 3.084 0 4.322 15.019 2.053 25.519-1.238 6.169-4.116 14.606-6.169 18.928-2.259 4.322-4.116 9.675-4.116 11.728s-.825 3.291-1.856 2.466c-1.031-.619-2.466.825-3.291 3.084-.619 2.259-3.084 5.147-5.353 6.169-2.053 1.238-3.909 3.497-3.909 5.147s-1.238 3.703-2.672 4.528c-1.444.825-5.353 5.559-8.85 10.491-4.116 5.972-8.437 9.469-13.584 11.109-4.322 1.238-7.819 3.084-7.819 3.909s-2.878 2.053-6.375 2.878-9.263 4.116-13.172 7.406c-5.147 4.734-9.469 6.169-19.341 7.2-10.697 1.238-12.553 1.031-12.553-2.053 0-4.322-11.316-4.528-13.172-.206-1.444 3.909-5.559 3.909-9.262-.206zM1.041 297.459c0-1.65 1.444-3.497 3.291-4.116 1.856-.825 2.878-2.672 2.053-4.322-.619-1.65-.206-3.084.825-3.084 1.237 0 2.053-1.444 2.053-3.084 0-1.856 1.237-3.703 2.878-4.322s3.703-4.116 4.528-7.613c.619-3.703 3.084-8.85 5.147-11.522 2.259-2.672 3.909-5.972 3.909-7.2 0-1.444 2.878-5.559 6.375-9.056 3.909-3.909 6.169-8.025 5.559-10.078-.825-3.291.412-3.703 10.284-3.084 12.759.413 25.106 7.819 25.106 15.019 0 2.466-.825 3.497-2.259 2.672-1.65-.825-1.856 0-.825 3.084 1.444 4.941-1.237 8.231-9.675 11.934-3.291 1.444-5.766 3.291-5.766 4.322s-3.703 2.878-8.231 4.322c-4.528 1.238-8.231 3.291-8.231 4.322 0 .825-2.672 2.259-5.962 3.084-3.291.619-6.581 2.672-7.2 4.322s-2.259 2.878-3.703 2.878-6.375 3.291-10.697 7.2c-9.263 8.231-9.469 8.231-9.469 4.322zm51.44-61.115c0-1.031-1.444-1.856-3.084-1.856s-3.084 1.444-3.084 3.084c0 1.856 1.237 2.466 3.084 1.856 1.65-.825 3.084-2.053 3.084-3.084"/><path d="M212.981 47.447c0-1.031-2.878-2.466-6.375-3.291s-6.787-2.672-7.406-4.116c-.413-1.65-5.353-3.497-10.491-4.322-5.353-.825-12.759-3.084-16.463-5.147-7.2-4.116-13.791-4.941-15.637-2.053-.619 1.031-6.169 1.856-12.141 2.053-6.169 0-13.791 1.031-17.081 2.259s-6.169 2.259-6.581 2.053c-1.856-1.237-26.541 3.084-30.862 5.353-6.994 3.703-12.759 3.703-12.759.206 0-3.291-8.644-11.728-11.934-11.728-1.444 0-2.466-1.856-2.466-4.116 0-2.878 1.444-4.116 4.941-4.116 2.672 0 5.963-1.444 7.406-3.084 1.237-1.65 4.322-3.497 6.788-4.322s5.559-2.466 6.994-3.909c2.672-2.878 17.7-5.559 33.956-6.169 5.559-.206 10.491-1.031 11.316-1.65 2.053-2.053 43.416-1.65 44.653.412.619 1.031 8.644 2.466 17.7 3.291s15.844 2.259 15.225 3.291c-.619 1.031.825 1.856 3.084 1.856s4.528.825 5.353 2.053c.619 1.031 2.466 1.444 4.116.619 1.65-.619 3.084 0 3.084 1.237s2.259 3.291 5.147 4.322c4.941 1.856 7.613 10.284 3.084 10.284-3.291 0-11.728 9.675-13.172 15.225-.825 3.497-2.672 5.353-5.353 5.353-2.259 0-4.116-.825-4.116-1.856z"/></svg>