<svg xmlns="http://www.w3.org/2000/svg" xml:space="preserve" fill-rule="evenodd" stroke-linejoin="round" stroke-miterlimit="2" clip-rule="evenodd" viewBox="0 0 300 300"><path d="M264.168 230.964c-.206-1.032-.413-2.468-.62-3.705-.413-4.119-4.53-8.442-10.083-10.91-4.53-1.856-5.15-3.085-3.705-5.975 9.061-16.884 14.408-64.03 10.497-91.617-5.15-35.823-5.15-33.975.206-36.649 2.673-1.444 5.77-3.91 6.585-5.356 3.292-5.562 6.791-2.673 12.56 10.084 15.451 32.416 11.11 61.404 8.442 62.379-2.616 1.08-3.01 4.602-3.062 5.073-.488 4.354 10.358 6.697 6.561 16.754-4.674 12.38-1.996 24.225-18.938 46.93-4.498 6.027-4.337 5.949-6.585 12.973-1.349 4.214-1.856.168-1.858.019m18.741-118.8c0-.414-.619-2.261-1.238-4.12-.132-.335-1.387-3.536-3.169-3.217-1.618.29-2.576 4.668-.848 6.95 1.737 2.292 5.244.724 5.244.386zM155.253 294.168c-2.88-.825-12.766-1.031-21.828-.412-13.995.825-18.32.206-25.74-3.293-4.943-2.26-13.798-6.379-19.764-9.061-11.734-5.15-12.973-6.792-6.79-8.855.572-.157-.69-1.99 6.172-4.118.606-.188 1.352-.566 1.49-1.184 2.118-9.43.368-12.78 5.3-11.367 13.955 3.503 15.498 2.283 14.821 3.292-.147.295.464 7.25 4.118 0 1.857-3.086 8.855-2.468 10.703 1.031 1.445 2.26 6.791 3.086 23.883 3.5 12.548.322 13.526-2.381 23.5 5.256 3.81 2.916 13.982 3.735 11.92-3.822-.307-.916-.619-1.976-.285-2.88.403-1.088 1.377.94 13.464-5.356 8.443-3.91 9.061-4.118 12.766-.62 2.639 2.386 4.877 13.619 6.997 14.419 2.974 1.487 3.442 5.516 1.847 6.388-1.245.68-1.761-.857-7.204 2.88-3.086 2.26-8.649 5.149-12.148 6.172-2.28.857-3.904 3.024-6.172 3.91-3.767 1.473-7.724 2.567-11.735 3.087-6.585.619-13.799 1.65-16.059 1.857-2.26.413-6.378 0-9.267-.826zM19.37 215.318c-6.477-12.977-7.842-13.767-13.168-34.378-2.493-10.062-3.979-20.363-5.247-30.65-1.668-13.511 6.633-13.965 8.341-15.876 2.054-2.674 2.054-4.119-1.031-9.268-3.5-5.966-3.5-6.791 0-20.796 1.857-8.236 4.736-17.09 6.172-19.97 5.326-9.29 3.125-10.111 3.745-10.781.432-.466 4.633-.018 6.339 6.25 2.054 6.792 2.88 7.41 11.115 8.443 9.267 1.031 13.386 5.15 7.616 7.41-1.827.61-1.336 1.222-7.617 19.558-3.911 11.735-4.118 16.265-3.086 41.798 1.098 21.472.966 21.377 7.41 42.005 2.558 8.184 6.617 7.413 6.175 12.719-.06.715-.464 5.556-4.327 7.871-3.362 2.169-7.514 2.788-11.115 4.532-8.03 3.89-7.513-.76-11.322-8.855zM275.696 285.52c-4.53-3.086-13.798-8.65-20.59-12.149-2.59-1.348-28.636-14.908-31.152-19.05-2.896-4.773 1.949-11.805 2.534-12.655.237-.368 2.377-3.686 1.857-5.15-1.126-3.168 13.204-10.57 15.233-10.91 5.356-1.03 12.767 1.446 12.354 4.325-.137.593 2.87 12.466 8.855 18.939 2.53 2.736 1.508 7.086 8.855 14.82 6.792 6.998 10.703 14.408 12.354 22.644 1.239 5.769-1.445 5.562-10.29-.826zM36.255 75.515c-2.302-2.303-3.793-14.35-6.983-18.619-1.763-2.359-3.391-1.377-4.948-8.754-1.135-7.164-4.952-9.794-3.911-11.528 1.344-1.681-2.736-1.903-4.944-7.42-1.238-3.292-4.53-9.886-7.41-14.82C2.3 4.188 2.687 3.116 3.632 3.259c.351.053 14.62 4.447 37.783 24.707 4.119 3.5 9.887 7.204 12.766 7.823 9.887 2.468 11.941 6.792 9.887 19.558-1.857 10.91-2.467 11.735-9.887 15.028-4.53 1.857-10.083 3.499-12.766 3.705-4.324 0-3.705 2.889-5.15 1.454zM241.317 69.136c-2.24-1.742-4.657-12.923-8.648-17.907-.392-.49 1.766.051 3.086-7.213.62-2.673 5.77-6.585 15.234-11.322 10.212-4.975 22.239-14.318 31.704-18.536 3.576-1.657 6.69-4.17 10.084-6.172 1.96-1.155 3.705-3.167 5.975-3.293 3.52-.196-12.136 28.362-13.798 30.054-1.617 1.646-12.342 12.564-16.472 23.676-.345.929-3.62 9.745-8.648 8.855-1.834-.523-3.042 3.069-3.962 3.419-2.988 1.137-12.123.267-14.564-1.562z"/><path d="M122.526 251.76c-1.651-2.055-4.944-2.88-8.855-2.468-3.293.62-6.379.206-6.998-.825-.652-.869-1.615 2.539-13.17-3.302-18.018-9.11-16.684-11.138-18.319-11.735-2.777-.773-10.953-11.701-11.787-12.817-8.204-10.966-9.515-17-12.094-19.92-3.293-3.293-5.77-12.766-9.474-37.268-2.468-15.44-1.238-44.059 1.857-46.123.21-.127 2.233-13.526 11.529-28 13.469-20.968 39.776-40.647 43.44-42.407 4.957-2.248 10.513-2.857 15.853-3.911 6.475-1.28 13.154-1.49 19.558-3.086 17.504-4.53 22.644-4.119 24.089 2.054 1.444 5.966 3.705 6.379 8.03 2.054 4.943-4.737 19.557-2.467 36.648 5.965 33.356 16.266 46.122 37.268 47.557 78.035 0 1.897 7.364 14.161 3.705 31.096-1.238 6.172-4.118 14.614-6.172 18.938-6.71 12.838-5.013 14.972-5.975 14.202-1.032-.62-2.468.826-3.293 3.086-.62 2.26-3.086 5.15-5.356 6.172-1.846 1.114-2.699 3.368-3.912 5.15-5.43 7.983-6.02 7.261-11.528 15.028-4.118 5.975-8.442 9.474-13.592 11.115-2.802.802-5.192 2.653-7.823 3.91-10.04 4.802-10.934 3.033-19.558 10.29-5.15 4.737-9.474 6.173-19.352 7.205-7.28.842-9.145 4.397-12.56-2.054-3.172-5.994-12.288-2.284-13.18-.207-1.444 3.912-5.561 3.912-9.266-.206zM.846 297.46c0-1.651 1.444-3.499 3.292-4.118 1.857-.826 2.88-2.674 2.055-4.325-.255-.677-.569-1.535-.207-2.162.522-.903 2.002-.948 2.523-1.851.77-1.449-.958-2.272 3.443-6.483 3.289-3.146 3.465-3.101 4.53-7.617.62-3.705 3.086-8.855 5.15-11.528.995-1.176-1.065-2.304 10.29-16.265.581-.715 6.268-7.708 5.562-10.084-.825-3.293.412-3.705 10.29-3.086 15.579.504 25.803 11.465 25.12 15.028-.288 1.503-3.391 1.245-3.68 2.75l.594 3.009c2.398 8.204-11.477 12.517-13.8 14.258-2.326 1.743-1.196 3.56-9.885 6.331-7.177 1.962-8.555 5.995-14.201 7.41-5.376 1.012-8.744 6.382-8.747 6.384-.732.57-5.581 1.437-12.865 8.025C1.042 301.37.836 301.37.836 297.46z"/><path d="M212.904 47.308c0-2.392-4.271-2.16-6.378-3.293-2.49-1.338-6.297-1.52-7.41-4.118-.517-2.064-26.357-9.133-26.97-9.475-11.546-6.6-20.708-.234-27.793 0-22.744 0-21.953 5.175-23.675 4.315-2.882-1.921-3.215-1.115-42.635 7.527-2.515-2.546-3.232-6.522-5.746-9.067-2.51-2.541-6.333-3.448-8.98-5.843-.74-.669-.77-1.914-.693-2.908.313-4.053 10.582-5.19 12.354-7.204 4.94-6.589 7.917-2.33 13.79-8.235 3.14-3.383 45.108-7.682 45.297-7.824 3.754-3.754 70.605 2.205 77.622 6.998.882.602 9.138 6.242 12.56 4.53 2.481-.93 4.371 4.183 8.235 5.563 1.248.468 2.535 1.24 3.205 2.391 1.15 1.973.855 4.579 2.006 6.552-2.635 2.854-6.773 4.026-9.408 6.88-2.567 2.781-4.944 6.038-5.896 9.7-1.728 7.325-9.475 4.418-9.475 3.499z"/></svg>