<svg xmlns="http://www.w3.org/2000/svg" xml:space="preserve" fill-rule="evenodd" stroke-linejoin="round" stroke-miterlimit="2" clip-rule="evenodd" viewBox="0 0 300 300"><path fill-rule="nonzero" d="M41.514 299.215c-2.428-3.654 21.473-36.264 22.876-36.967 3.269-2.173 1.53-3.523 24.923-42.279 9.183-15.214 36.538-50.403 37.592-54.32 3.258-13.724-19.303 6.406-20.117 6.714-1.497.564-3.095-1.964-4.592-1.4l26.346-28.19c.459-.917.807-.368 7.765-10.206.983-1.39 1.54-3.32 3.06-4.089 1.064-.356 1.876-1.462 2.221-2.53 1.02-3.16.738-6.644 1.757-9.804 3.731-1.836 8.04-2.3 11.772-4.135 5.94-2.924 3.065-15.987-4.111-7.22-3.265 4.088-5.51 4.285-33.7 4.696-3.732.046-37.095.46-46.152 6.736-6.194 4.546-6.867-.208-5.485-1.702 6.052-6.54 21.95-11.207 22.036-11.378.618-1.844 6.736-5.511 21.443-12.668 16.994-8.126 15.725-10.049 32.896-18.18 15.522-7.56 25.532-13.07 33.495-18.18 11.845-7.764 25.12-14.913 29.62-15.933 2.335-.715 4.303-2.323 6.335-3.676 2.267-1.511 4.102-3.685 6.54-4.902 12.816-6.525 11.26-8.626 21.648-14.708 3.246-1.9.887-4.15 4.294-5.511 2.04-.618 5.315-2.863 7.354-5.109 11.266-11.265 6.284 3.252 5.923 3.678-2.863 3.265-6.334 17.561-7.354 30.435-.412 6.736-2.245 16.344-4.285 21.444-1.843 5.109-3.883 17.159-4.49 26.964-.334 4.881-.861 9.757-1.687 14.58-.354 2.061-12.292 9.614-3.011 12.59 3.47 1.02 4.089 3.265 4.49 12.864.206 6.334.206 13.482 0 15.727-2.04 35.74-3.265 63.518-3.06 73.126 0 11.222-1.511 11.554-2.244 11.03-2.094-1.49-.548-2.45-12.463-29.61-7.132-16.257-8.764-15.42-14.511-32.27-1.672-4.946-3.21-9.95-4.392-15.036-.33-1.424 11.67-19.242 4.598-16.417-9.05 3.616-7.311 5.713-15.316 16.953-4.937 5.92-7.993 13.188-12.256 19.61-1.077 1.625-2.603.34-15.521 18.797-17.638 26.802-19.073 25.755-20.423 28.19-1.418 2.413-3.895 4.05-5.511 6.334-1.135 1.603.603 1.852-.23 3.52-.738 1.473-1.055 1.094-14.274 14.847.063-1.34-4.43-2.796.413-8.785 1.43-1.637 22.062-37.583 25.326-40.642 8.588-8.291 4.204-10.198 3.47-9.805-13.744 7.365-39.624 39.143-42.681 42.897-.717.879-6.61 8.115-9.394 10.619-7.354 6.942-17.159 16.747-28.797 29.62-1.779 1.978-2.072 1.623-22.67 24.308-2.04 2.04-4.696 5.716-5.922 7.765-1.225 2.451-2.657 3.06-3.47 1.638z"/></svg>