<svg xmlns="http://www.w3.org/2000/svg" width="300" height="300" viewBox="0 0 300 300"><title>characteristics-attacks</title><path d="M163.5 75.094c-3.994-1.256-3.572-52.922.628-62.578 2.1-5.044 3.994-6.928 5.672-5.672 1.472.844 7.35 2.1 12.806 2.728l10.294 1.05-3.994 5.25c-2.306 2.944-5.25 9.244-6.928 14.072-1.472 4.828-3.356 8.4-4.406 7.978-.844-.628-2.1 2.522-2.944 7.144-2.522 15.122-8.4 31.078-11.128 30.028m-30.872 20.165c-2.306-1.256-7.978-6.094-12.6-10.706s-11.128-9.656-14.7-11.344c-14.072-6.928-15.75-7.978-15.75-10.922 0-1.678 3.994-6.722 9.028-11.128l8.822-8.194 4.828 5.878c2.728 3.15 7.556 8.822 10.706 12.178 11.55 12.806 23.522 30.872 22.472 33.806-1.256 3.572-6.928 3.778-12.806.422zM7.256 294.122c-7.772-7.772-9.028-12.6-5.044-21 2.728-5.672 5.044-7.556 11.344-8.606 4.2-.844 8.194-2.1 8.822-2.944.628-.628 3.15-2.728 5.878-4.622s11.128-9.244 18.694-16.594l13.65-13.228-1.472-9.45c-.844-5.25-3.15-11.55-5.456-14.072-4.828-5.044-5.044-7.144-.844-7.144 1.678 0 3.994 1.894 5.25 4.2 2.306 4.406 8.4 3.572 8.4-1.256 0-2.944 2.1-5.044 35.906-36.544 11.756-10.922 33.806-32.55 48.928-48.094s32.128-32.55 37.8-37.8c5.878-5.25 16.172-15.122 23.1-21.628 6.928-6.722 13.228-12.178 13.856-12.178s5.878-4.2 11.55-9.45c9.45-8.4 53.128-32.55 59.222-32.55 6.506 0-17.222 50.194-28.978 60.694-42.628 39.056-56.494 52.5-56.494 54.806 0 1.256-1.256 1.894-2.522 1.472-1.472-.206-2.522.844-2.1 2.306.206 1.678-.422 2.306-1.472 1.678-1.05-.844-5.456 2.1-9.872 6.094-4.2 3.994-8.606 7.35-9.45 7.35-1.05 0-1.894.844-1.894 1.678 0 1.05-6.3 7.772-13.856 15.328-39.9 39.056-48.722 48.094-63 64.256-13.228 14.7-15.328 18.056-13.022 20.578 9.45 10.294 10.294 13.65 3.994 13.65-2.1 0-5.456-2.306-7.35-5.25s-5.044-5.25-7.144-5.25-4.622-.844-5.878-2.1-8.4 4.406-20.578 16.8c-10.078 10.5-19.322 18.9-20.372 18.9s-2.1 1.256-2.1 2.728c-.206 1.256-.628 4.828-.844 7.35-.628 6.722-6.928 12.6-14.7 14.278-5.25.844-7.556 0-11.972-4.406zm63.422-86.1c0-1.678-.844-3.15-2.1-3.15-1.05 0-2.1 1.472-2.1 3.15s1.05 3.15 2.1 3.15c1.256 0 2.1-1.472 2.1-3.15m78.328-58.163c30.45-30.45 67.2-66.356 81.478-80.006s23.728-23.522 21-22.05c-9.656 5.25-23.944 18.272-75.806 68.878-85.05 82.95-90.094 88.2-84 88.2 1.05 0 26.878-24.778 57.328-55.022M221.25 184.5c-8.4-7.978-17.85-17.428-21.206-21.206-5.672-6.506-5.878-7.144-2.522-10.5 3.15-3.15 3.994-3.15 13.444 1.678 5.456 2.944 10.294 5.878 10.922 6.506 1.894 2.522 22.05 12.178 27.928 13.65 5.25 1.256 5.878 2.1 4.622 6.928-1.678 6.3-11.128 17.006-15.122 17.006-1.678 0-9.656-6.3-18.056-14.072zm-60.478 66.15c-1.472-4.828-1.05-7.978 1.256-8.822 1.472-.422 3.356-4.828 4.2-9.656.844-4.622 2.728-9.872 4.406-11.344 1.678-1.678 2.944-5.878 2.944-9.244s.628-11.972 1.256-19.106c1.678-15.328 6.3-17.644 7.978-3.778.628 4.828 1.678 12.178 2.306 16.172s1.894 14.278 2.522 22.678c1.472 19.106-.422 21.844-13.228 19.95-6.3-.844-9.244-.422-9.244 1.256 0 1.894-3.778 3.572-4.406 1.894zm66.562-125.156c-1.678-2.944 2.944-6.3 10.294-7.144 3.572-.628 9.656-2.306 13.65-4.2 18.056-7.978 31.922-12.6 35.7-11.55 2.944.844 4.2 0 4.2-2.306 0-6.928 6.094 2.306 7.556 11.344l1.256 8.606-13.228 2.306c-20.156 3.572-57.956 5.25-59.428 2.944m-187.106 8.615c-.844-4.406-1.894-9.656-2.522-11.756-.844-3.572 1.256-3.778 32.344-3.572 18.272.206 35.278.844 38.006 1.472 7.35 1.678 5.672 6.928-2.1 6.928-3.778 0-11.128 1.472-16.172 3.356-5.25 1.678-14.072 3.572-19.95 4.2s-11.344 2.1-12.178 3.572c-1.05 1.894-2.944 1.894-7.978 0-5.672-2.1-6.506-2.1-5.456.628.628 1.472.206 2.944-.844 2.944s-2.522-3.572-3.15-7.772"/></svg>