<svg xmlns="http://www.w3.org/2000/svg" xml:space="preserve" fill-rule="evenodd" stroke-linejoin="round" stroke-miterlimit="2" clip-rule="evenodd" viewBox="0 0 300 300"><path fill-rule="nonzero" d="M177.01 224.557c-1.295-3.382-24.479-20.09-26.712-21.7-.802-.578-1.746-1.054-2.296-1.875-1.04-2.09-4.17-6.885-6.259-9.18-3.336-4.17 2.296-5.847 13.146-4.17l8.348 1.462-1.255-7.927c-2.717-14.813-15.235-36.513-27.34-47.157-6.68-5.847-22.535-13.568-31.51-15.029-2.385-.452-12.278-6.506-32.964-6.26-16.431.197-17.208-1.298-30.677 7.927-4.424 2.853-9.313 4.928-13.773 7.721-1.338.838-2.846 1.718-3.551 3.13-.787 2.09-8.695 5.64-9.39 6.68-4.384 7.926-4.59 0-.42-11.478 5.012-13.567 20.66-30.255 34.217-36.514 1.802-.903 1.653-.865 22.32-11.683l-16.07-13.773a10 10 0 0 1-3.418-1.513c-15.88-11.04-50.663 4.73-49.371-2.45 3.546-19.706 72.708-29.637 67.818-22.337-.338.592.503 1.474 1.148 1.696 11.552 3.97 12.094.026 23.897 3.523 42.095 11.273 70.946 52.384 75.334 58.636 11.89 17.53 15.647 26.713 16.902 41.105.426 4.536 1.912 8.909 2.924 13.351 4.134 18.163 2.585 18.385 3.335 22.329 1.04 7.093 1.874 7.926 5.63 6.68 1.831-.559 15.725-4.798 23.915-.616 6.148 3.14-8.406 13.01-9.514 13.761-6.68 4.592-16.069 12.518-20.866 17.943-8.554 9.39-12.106 11.478-13.567 7.721z"/><path fill-rule="nonzero" d="M136.73 262.12c.628-1.255-4.797-2.09-12.94-2.09-13.145-.206-31.51-3.55-41.104-7.515-5.64-2.633-9.842-2.306-12.097-4.376-.403-.337-13.72-4.333-20.66-11.272-4.591-4.385-8.554-12.312-7.093-14.4 1.306-2.167.052-5.188 1.04-7.516 1.434-3.374 3.461-6.59 6.053-9.182 9.81-10.017 31.932-18.778 59.686-23.368 15.246-2.607 31.061-14.192 19.607-3.951-11.86 10.605-29.36 15.301-32.135 16.046-23.142 6.42-31.177 16.73-29.512 17.907 1.49 1.051 25.56 2.275 30.06 3.375.549.135 1.633 2.182-5.973 3.754-4.798.833-14.401 4.17-19.826 5.21-8.554 1.874-9.389 2.502-5.847 4.385 15.856 9.525 15.835 9.467 33.806 13.99 21.13 5.317 20.904 6.148 42.782 7.514 23.79 1.463 24.623 1.256 29.636-3.336 4.238-3.94 2.083-5.312 5.833-9.627 2.11-2.429 6.282 1.524 6.685 1.907 11.057 9.81 14.186 10.222 37.563 5.425 4.26-.926 33.124-7.194 50.081-21.494 2.54-2.142 2.776-3.461-.422-4.592-8.638-2.594-8.354-3.322-20.444-5.003-15.463-2.15 4.179-6.134 4.797-6.258 17.531-3.337 17.531-3.551 15.029-8.143-1.04-2.296-4.592-6.053-7.72-8.348-3.336-2.296-7.094-5.425-8.762-6.68-1.461-1.463-7.299-2.924-12.94-3.551-10.09-.756-9.602-4.393-20.032-4.808-7.721-.206-8.762-.627-4.798-1.668 7.532-2.149 43.203 3.47 56.752 12.52 3.404 2.673 7.669 4.106 11.085 6.764 3.553 2.766 13.934 16.748 14.588 20.567 1.728 10.091-1.12 9.534-8.142 16.902-5.22 5.425-12.313 11.057-15.864 12.107-3.429 1.29-5.866 4.483-9.181 6.043-2.81 1.322-6.13 1.258-8.976 2.502-3.13 1.255-6.466 2.295-7.093 2.09-.628 0-5.847 1.255-11.272 2.923-18.536 4.81-19.308-.412-37.563 5.013-12.67 3.766-65.733 1.52-64.688.216z"/></svg>