<svg xmlns="http://www.w3.org/2000/svg" width="300" height="300" viewBox="0 0 300 300"><title>characteristics-move</title><path d="M41.241 299.231c-.816-1.228 1.228-6.141 4.294-10.847s6.956-10.641 8.391-13.303 3.478-4.913 4.706-4.913c1.022 0 1.847-1.434 1.847-3.066 0-1.434 1.641-3.891 3.684-4.913 1.847-1.228 2.662-2.25 1.847-2.25-1.022 0 .619-2.869 3.478-6.347s5.325-7.162 5.325-8.184 3.272-6.553 7.162-12.281 7.162-11.662 7.162-13.303c0-2.662 24.15-36.019 27.019-37.247 1.022-.412 1.641-2.044 1.641-3.478 0-1.641 1.641-4.097 3.684-5.522s4.5-5.119 5.325-8.184c1.847-7.781-3.272-7.575-10.641 0-6.553 6.75-14.119 9.413-14.119 5.325 0-1.641.619-2.456 1.022-1.847 1.228 1.228 22.313-20.672 25.378-26.4 1.228-2.456 3.478-5.119 4.912-5.934 1.641-.816 2.869-2.869 2.869-4.294 0-1.641 1.434-3.272 3.066-4.097 1.847-.619 3.066-3.684 3.066-7.369 0-5.119.816-6.141 4.912-6.141 5.522 0 11.466-4.913 11.466-9.206 0-4.913-4.097-5.522-7.781-1.022-3.272 4.097-5.522 4.294-33.769 4.706-16.575.206-30.084 1.022-30.084 2.044 0 .816-2.456 1.434-5.728 1.434-3.066 0-7.781 1.434-10.434 3.272-3.066 2.25-5.325 2.663-6.75 1.228-2.25-2.25 13.509-12.694 19.444-12.694 1.641 0 3.478-.816 3.891-1.641.619-1.847 6.75-5.522 21.487-12.694 4.706-2.25 9.206-5.119 9.825-6.141.619-1.228 3.066-2.044 5.325-2.044 2.044 0 3.891-.816 3.891-1.641 0-1.022 6.141-4.706 13.922-8.391 15.553-7.575 25.584-13.097 33.563-18.216 11.869-7.781 25.172-14.944 29.681-15.966 2.662-.816 5.522-2.25 6.347-3.684.816-1.228 3.684-3.478 6.553-4.912 10.847-5.522 15.141-8.391 16.781-11.466 1.022-1.847 3.272-3.272 4.912-3.272s2.456-1.022 1.847-2.044c-.619-1.228.412-2.662 2.456-3.478 2.044-.619 5.325-2.869 7.369-5.119 2.044-2.044 4.5-3.684 5.522-3.684 2.456 0 2.663 4.706.413 7.369-2.869 3.272-6.347 17.597-7.369 30.497-.413 6.75-2.25 16.378-4.294 21.488-1.847 5.119-3.891 17.194-4.5 27.019-1.022 14.944-1.847 17.803-4.913 18.628-5.119 1.434-4.912 6.956.206 8.597 3.478 1.022 4.097 3.272 4.5 12.891.206 6.347.206 13.509 0 15.759-2.044 35.813-3.272 63.647-3.066 73.275 0 7.978-.619 11.662-2.25 11.053-1.228-.413-2.662-2.869-3.066-5.728-.619-4.5-.816-4.706-2.456-.816-1.228 3.066-1.641 1.847-1.641-4.706-.206-5.119-2.25-12.694-5.325-18.422-2.869-5.325-5.119-10.847-5.119-12.075 0-1.434-.816-2.662-1.641-2.662-1.022 0-4.5-7.978-7.781-17.597-5.325-15.759-5.522-17.803-2.662-19.856 5.119-3.684 6.956-11.662 2.869-11.662-3.272 0-13.097 9.619-13.303 12.891 0 .816-1.022 2.662-2.044 4.097-4.097 4.913-12.281 18.009-12.281 19.65 0 1.022-1.228 2.25-2.662 2.869s-7.162 7.781-12.891 15.966c-5.522 8.391-11.466 16.575-13.303 18.422s-5.119 6.141-7.162 9.825c-2.044 3.478-4.5 6.347-5.522 6.347-.816 0-1.022 1.022-.413 2.044.619 1.228.206 2.044-1.022 2.044s-1.641 1.022-1.022 2.044c.619 1.228.412 2.044-.816 2.044-1.022 0-2.663 1.847-3.272 4.097-.816 2.25-2.25 3.684-3.272 3.066-1.022-.816-1.847-.206-1.847.816 0 1.228-1.228 2.25-2.869 2.25-3.478 0-3.066-4.5.413-8.803 1.434-1.641 3.272-6.553 3.891-11.053 1.434-8.597 6.347-16.781 10.434-16.988 1.434 0 3.272-1.641 3.891-3.478.816-2.044 3.891-6.141 7.162-9.206 5.934-5.728 7.369-9.825 3.478-9.825-3.066 0-40.725 37.247-40.725 40.322 0 1.434-.816 2.662-2.044 2.662-1.022 0-2.044.816-2.044 2.044 0 1.022-3.272 4.913-7.369 8.597-7.369 6.956-17.194 16.781-28.856 29.681-3.684 4.097-6.75 8.391-6.75 9.825 0 1.641-2.662 3.891-6.141 5.522-3.272 1.434-6.141 3.066-6.141 3.891 0 .619-1.641 2.869-3.684 5.119-2.044 2.044-4.706 5.728-5.934 7.781-1.228 2.456-2.663 3.066-3.478 1.641zm22.922-26.194c-.816-.619-2.456 1.022-3.684 3.684-2.456 4.5-2.456 4.5 1.228 1.228 2.044-2.044 3.066-4.097 2.456-4.913zM248.775 16.181c0-1.228-.816-1.434-2.044-.816-1.022.609-2.044 2.25-2.044 3.272 0 1.228 1.022 1.434 2.044.816 1.228-.619 2.044-2.25 2.044-3.272"/></svg>