<svg xmlns="http://www.w3.org/2000/svg" width="300" height="300" viewBox="0 0 300 300"><title>characteristics-damage</title><path d="M89.756 277.988c-4.116-6.375-4.734-10.078-4.322-25.716 0-10.078 1.237-21.394 2.672-25.097 2.259-6.375 2.053-7.613-4.116-16.05-7.612-10.491-16.256-14.194-36-15.225-6.581-.206-12.966-1.444-14.4-2.878-3.497-3.497-1.847-45.262 1.847-49.378 1.65-1.847 3.497-6.169 4.116-9.459 1.237-6.169-1.444-29.625-4.116-36.825-1.031-3.291-1.031-3.497.825-1.031 1.856 2.672 2.259 2.672 2.259 0 0-1.847-1.031-4.322-2.259-5.55-1.65-1.65-1.65-2.672 0-3.497 1.238-.825 2.259-5.55 2.259-10.491s.825-11.316 2.053-14.194c1.031-2.878 2.053-8.438 2.466-12.347.206-3.909 1.237-6.581 2.053-6.169.825.619 1.65-1.031 1.65-3.703s1.237-6.581 2.878-8.85c1.444-2.259 3.497-6.994 4.116-10.491 1.65-7.612 5.756-11.728 16.866-17.278 10.903-5.756 12.759-5.147 14.194 3.703.619 4.116 3.084 11.109 5.147 15.225 2.259 4.116 4.116 9.056 4.116 10.697s1.031 3.291 2.259 3.703c1.237.413 3.497 6.788 5.147 13.987 1.444 7.406 4.734 19.959 6.994 27.769 2.466 8.025 5.353 18.103 6.375 22.631 2.259 10.284 10.697 36.619 12.141 38.062 1.847 1.847 2.672 6.994 3.497 23.25.619 12.966.206 16.05-2.259 17.072s-2.672 2.259-1.237 4.941c3.291 6.169 2.466 11.934-3.084 20.569-2.878 4.528-5.147 9.056-5.147 10.078 0 3.497 6.169 4.116 13.781 1.444 4.322-1.444 9.262-2.259 10.903-1.65 3.497 1.238 10.078 8.85 10.284 11.728 0 2.259 2.466 5.756 11.934 17.484 2.466 3.084 5.147 8.644 5.756 12.141.825 3.497 2.053 5.962 2.878 5.353 1.444-.825-.825 12.966-2.466 14.4-.206.413-4.322 1.031-8.85 1.444l-8.231.619.619-9.666c.412-5.55-.206-11.522-1.444-13.369-1.65-3.291-2.259-2.878-4.322 2.466-1.444 3.497-2.672 9.872-3.084 14.4s-1.65 8.231-2.878 8.025c-1.238-.206-4.528-.412-7.406-.412-4.322-.413-5.147-1.444-5.147-6.375 0-10.697-2.466-18.722-5.756-18.722-2.466 0-2.878 2.053-1.65 11.728.825 6.581 2.259 12.759 3.291 13.781 3.703 3.703 2.259 4.528-6.994 5.147-8.644.412-9.262.206-10.697-6.375l-1.444-6.788-1.847 6.788c-2.466 9.459-10.078 9.056-16.256-1.031zm3.085-42.797c1.444-5.756 1.237-5.963-2.053-2.672-2.053 2.053-2.878 4.734-2.053 6.994 1.65 4.322 2.259 3.497 4.116-4.322zm10.284-54.722c2.878-1.444 5.55-3.703 6.169-5.353 1.847-4.941-2.672-10.903-9.262-12.347-3.291-.619-5.962-1.856-5.962-2.672s-2.466-2.259-5.55-3.084c-2.878-.619-7.819-3.084-10.491-5.353-6.581-5.147-9.253-4.941-16.05 1.238-12.553 11.522-12.347 19.753.206 22.425 36.619 8.437 34.359 8.025 40.941 5.147zm11.522-20.372c0-1.031-1.031-2.053-2.259-2.053-1.031 0-1.444 1.031-.825 2.053.619 1.238 1.65 2.053 2.259 2.053.412 0 .825-.825.825-2.053m-76.125-8.222c0-1.031-.825-2.053-2.053-2.053-1.031 0-2.053 1.031-2.053 2.053 0 1.238 1.031 2.053 2.053 2.053 1.238 0 2.053-.825 2.053-2.053M54.984 37.491c0-2.878-.619-2.878-3.084-.825-1.65 1.444-3.084 2.878-3.084 3.291s1.444.825 3.084.825c1.65 0 3.084-1.444 3.084-3.291m144.835 255.506c-.619-3.909-.825-8.025-.206-9.056.825-.825-.619-4.734-2.878-8.231-2.053-3.703-3.909-7.819-3.909-9.262s-1.856-5.962-4.116-10.284c-2.259-4.116-4.116-9.056-4.116-10.697 0-1.856-1.238-3.703-2.878-4.322-1.444-.619-3.909-4.734-5.353-9.262-1.444-4.322-3.291-8.025-4.116-8.025s-2.259-6.169-3.084-13.781-2.259-16.05-3.497-19.134c-1.65-4.116-4.322-22.838-6.375-43.613-.206-2.053-.825-3.703-1.65-3.703s-2.053-3.497-2.878-7.612c-.825-4.322-2.672-10.078-4.116-12.966s-3.291-10.078-4.116-15.844c-.825-5.962-2.053-10.903-3.084-10.903-2.053 0-6.169-16.659-6.169-25.509 0-4.116-.825-7.406-2.053-7.406-1.031 0-2.053-2.672-2.053-5.962 0-8.438-4.116-18.928-9.459-23.869-3.703-3.497-4.322-5.55-3.084-11.316 1.031-5.756 2.672-7.406 8.438-9.262 3.909-1.031 8.644-2.878 10.284-4.116 3.909-2.672 45.263-3.497 45.263-.825 0 1.031 1.444 1.856 3.291 1.856s5.756 1.65 8.644 3.909c3.084 2.053 9.056 4.941 13.369 6.169 4.116 1.444 7.613 3.291 7.613 4.322s2.053 2.466 4.322 3.084c6.581 2.259 13.575 11.109 16.463 21.188 1.238 4.734 3.291 9.253 4.116 9.872 1.031.619 1.856 9.459 1.856 19.547 0 11.522 1.031 21.187 2.878 25.509 1.856 4.116 3.084 13.369 2.878 21.394 0 11.522.825 15.638 4.322 20.363 2.259 3.497 4.322 6.787 4.322 7.612s1.65 3.909 3.909 6.787c2.466 3.909 4.116 11.109 5.147 23.25 1.238 16.866 1.031 17.897-3.909 23.25-2.672 2.878-5.962 5.353-7.2 5.353s-6.375 2.672-11.109 5.962c-4.941 3.497-11.522 6.788-14.813 7.613-6.581 1.444-19.547 8.644-21.806 11.934-2.466 3.703-1.856 17.072 1.031 20.166 2.672 2.878 4.322 11.316 4.322 22.219 0 17.691-11.522 28.388-14.4 13.575zm24.89-94.013c1.031-1.031 3.291-1.856 4.941-1.856 5.756 0 14.606-10.697 14.606-17.484 0-9.056-7.613-11.728-22.631-7.819-6.169 1.444-11.728 3.497-12.347 4.528-.619.825-4.116 2.259-7.819 2.878-7.406 1.444-18.928 9.262-18.928 12.759 0 3.291 8.437 10.697 13.369 11.728 5.353 1.031 26.128-2.466 28.8-4.734zm18.928-3.084c-.619-.619-2.466-.825-3.909-.206-1.65.619-1.031 1.238 1.238 1.238 2.259.206 3.497-.412 2.672-1.031zm.619-91.35c0-1.031-.825-2.053-2.053-2.053-1.031 0-2.053 1.031-2.053 2.053 0 1.237 1.031 2.053 2.053 2.053 1.238 0 2.053-.825 2.053-2.053m-52.462-84.347c.619-1.031.206-2.053-.825-2.053-1.238 0-2.259 1.031-2.259 2.053 0 1.238.413 2.053.825 2.053.619 0 1.65-.825 2.259-2.053m-6.375-5.137c-.825-1.65-3.084-3.084-5.147-3.084-3.497 0-3.703.412-1.444 3.084 3.497 3.909 8.025 3.909 6.581 0z"/></svg>