<svg xmlns="http://www.w3.org/2000/svg" xml:space="preserve" fill-rule="evenodd" stroke-linejoin="round" stroke-miterlimit="2" clip-rule="evenodd" viewBox="0 0 300 300"><path fill-rule="nonzero" d="M173.322 100.578c-1.33-1.64-2.41-3.028-3.544-4.368-5.756-6.713-12.956-10.285-21.891-10.023-2.382.075-4.772.131-7.126.44-1.36.188-2.86.563-3.928 1.379-2.39 1.8-4.566 3.9-6.816 5.878-.197.188-.412.422-.497.685-.965 3.206-3.787 4.34-6.403 5.653-.44.225-1.088.16-1.632.075-3.815-.684-6.46 1.003-7.172 4.857-.825 4.434-2.072 8.803-1.528 13.435.14 1.162-.947 2.512-1.575 3.731-.356.694-.938 1.266-1.35 1.913-1.031 1.669-2.166 1.828-3.844.862-1.238-.712-2.625-1.35-4.013-1.556-3.234-.478-6.488-.863-9.75-.919-1.575-.028-3.179.722-4.716 1.247-2.832.966-5.625.975-8.504.085-1.66-.525-3.412-.807-5.147-1.004-3.019-.356-3.46-.778-3.44-3.797.046-15.366.506-30.723-.057-46.07-.31-8.664-.637-17.308-.553-25.961.047-4.079.197-8.166.216-12.245 0-1.247.412-1.772 1.668-1.716.666.029 1.332-.168 2.138-.28.647 2.362 3.253.618 2.016-1.473-1.06-1.81-.722-2.522 1.387-2.54 5.1-.02 10.191.196 15.292.084 2.522-.056 5.034-.713 7.556-1.003a46 46 0 0 1 4.566-.282c3.057-.028 4.604 1.435 4.913 4.52.028.224.019.45.028.684.169 2.606.778 3.46 3.347 3.544 4.688.14 9.385.047 14.082.028.628 0 1.247-.16 1.856-.16 11.101-.028 22.21-.159 33.302-.046 9.91.103 19.83.412 29.73.712 4.022.113 8.034.45 12.047.685 1.135.056 1.744.609 1.932 1.743.3 1.876.215 3.572-1.144 5.1-.385.423-.357 1.323-.3 1.988.028.47.365.938.656 1.36 5.785 8.7 9.947 18.263 14.757 27.489 1.134 2.184 2.69 4.153 4.106 6.197 1.388 1.997 2.907 3.91 4.22 5.953 1.05 1.632.693 2.625-1.004 3.797-1.106-1.434-2.184-2.887-3.347-4.275-.253-.31-.797-.384-1.2-.553-.112.506-.384 1.05-.281 1.528.103.525.478 1.003.797 1.49.862 1.295 1.022 2.448.056 3.91-.422.647-.187 1.913.084 2.804.338 1.134 1.116 2.194.113 3.319-.975 1.087-2.185 1.556-3.675 1.134-1.032-.3-2.1-.469-3.15-.74-2.157-.554-4.248-.75-6.516-.394-2.429.384-5.26.75-7.388-.132-2.513-1.05-4.435-.047-6.647.132a194 194 0 0 1-13.407.637c-1.716.019-3.441-.61-5.157-.937-1.556-.3-3.094-.47-4.163 1.415z"/><path fill-rule="nonzero" d="M146.921 93.847c8.672-.272 20.092 4.744 22.389 16.06.45 2.269.665 4.594.778 6.9.047.966-.169 2.166-.74 2.879-.995 1.265-1.06 2.494-.938 3.966.778 8.972 1.575 17.944 2.194 26.926.215 3.028-.31 6.122-.132 9.15.422 7.323.085 14.58-.834 21.855-.31 2.54.187 5.175.3 7.762.047 1.022.215 2.072.056 3.047-1.378 8.082-.253 16.173-.019 24.245.141 4.576.328 9.179.91 13.717.656 5.016 1.378 10.107 2.85 14.926 1.2 3.937 3.328 7.65 5.466 11.213 2.306 3.844 2.41 3.581-1.697 5.269-2.775 1.134-5.429 2.775-7.838 4.594-1.931 1.443-3.825 2.353-6.225 2.765-4.679.797-9.282 1.913-13.914 2.916-2.156.469-4.21.45-6.281-.534-2.822-1.35-5.841-1.032-8.86-.825a19 19 0 0 1-4.378-.188c-3-.469-5.991-1.05-8.973-1.697-.768-.169-1.715-.553-2.081-1.144-.216-.356.366-1.462.863-1.968 4.537-4.632 6.46-10.342 7.172-16.642.197-1.781.834-3.516 1.162-5.288.413-2.194.966-4.425 1.022-6.628.075-3.16-.384-6.338-.393-9.507-.02-2.878.337-5.738.412-8.616.028-1.2-.019-2.54-.506-3.581-.722-1.547-.863-2.991-.525-4.604.637-3.103 1.322-6.206 1.772-9.338.187-1.219-.216-2.522-.3-3.787-.188-2.635-.535-5.27-.45-7.904.084-3.122.412-6.15-.75-9.216-.45-1.2-.028-2.766.075-4.163.243-3.544.553-7.088.768-10.631.104-1.52.057-3.048.047-4.566-.047-6.282.385-12.601-.3-18.808-.581-5.297-1.237-10.613-1.697-15.91-.562-6.403.394-12.778 1.744-19.041 1.463-6.863 8.11-12.61 15.32-13.38.834-.083 1.687-.14 2.54-.215zM55.51 121.739c.103 7.116-.581 14.082-2.803 20.935-1.266 3.854-1.603 7.932-1.06 12.085.31 2.391.104 4.857 0 7.294-.159 3.544.113 7.004 1.163 10.417.366 1.172.413 2.437.694 3.637.553 2.363.89 4.82 1.8 7.041 3.075 7.482 6.375 14.87 9.563 22.295 2.888 6.713 8.138 11.391 13.876 15.488 5.531 3.938 11.306 7.538 17.072 11.138 3.957 2.466 7.004 5.71 9.254 9.732.366.656.628 1.5.562 2.24-.365 5.232-1.2 10.333-4.125 14.88-.722 1.115-1.247 1.434-2.381.562-.469-.365-1.275-.506-1.885-.44-1.471.187-2.493-.413-3.412-1.463-.553-.628-1.135-1.322-1.847-1.697-8.222-4.406-14.992-10.744-22.004-16.726-3.3-2.822-4.979-3.028-8.232-.16-4.847 4.276-9.47 8.758-13.388 13.961-2.166 2.878-4.82 5.4-7.341 7.988-1.463 1.49-2.447 1.19-3.582-.525-1.96-2.972-1.8-6.01-.356-9.038 1.688-3.516 3.6-6.929 5.325-10.435 2.691-5.485 5.513-10.913 7.866-16.538.863-2.072.6-4.632.797-6.976.028-.356-.16-.825-.394-1.106-4.04-4.622-5.569-10.463-7.64-15.985-3.132-8.372-4.566-17.148-5.176-26.064-.31-4.463-.665-8.925-.975-13.388-.103-1.519-.684-2.55-2.306-2.906-.685-.141-1.322-.61-1.903-1.05-.45-.329-.807-.797-1.144-1.247-2.963-3.985-6.872-5.729-11.85-5.588-4.295.112-8.598-.225-12.91-.328-1.388-.029-2.542-.422-3.385-1.575-.91-1.238-1.932-2.382-2.776-3.638-1.05-1.556-.768-2.297 1.079-2.794 1.584-.422 3.215-.638 4.819-1.022 3.684-.881 7.313-2.072 11.035-2.625 6.375-.919 12.797-1.472 19.22-2.128 1.246-.132 2.043-.535 2.25-1.829 1.724-10.688 6.46-20.335 10.425-30.254.44-1.088 1.06-2.128 1.688-3.132.28-.44.796-.722 1.2-1.078.309.44.806.835.89 1.322.797 4.266 1.688 8.532 2.213 12.835.337 2.597.084 5.232.084 7.838zM250.708 117.632c1.33 2.1 3.018 4.576 4.462 7.2.469.854.357 2.073.366 3.123.019 2.278.3 2.69 2.522 2.972 1.744.225 3.516.244 5.231.59 1.388.282 2.682.994 4.041 1.388.938.281 1.913.497 2.878.525 1.388.047 2.823-.31 4.163-.103 2.963.45 5.991.834 8.785 1.856 3.516 1.294 7.182 1.163 10.754 1.8.806.141 1.715.047 2.494-.196.946-.3 1.725-.422 2.428.468.74.947 1.603 1.829.919 3.179a.5.5 0 0 0-.057.159c-2.212 5.55-2.465 5.653-8.503 5.532-1.828-.047-3.675.412-5.513.59-.478.047-.975-.131-1.472-.131-1.36 0-2.803-.225-4.078.131-2.278.628-4.482 1.557-6.657 2.447-1.519.628-3.047 1.266-4.425 2.138-1.49.947-2.916 1.275-4.65.937-1.997-.384-4.041-.562-6.066-.768-2.166-.216-2.86.534-3.028 2.737-.31 3.994-.45 8.054-1.191 11.973-2.335 12.385-4.332 24.882-9.01 36.686-1.275 3.234-3.235 6.206-4.932 9.272-1.996 3.582-1.753 4.294 1.144 7.126 2.513 2.437 4.632 5.24 6.976 7.847 1.687 1.875 3.319 3.853 5.24 5.466 2.429 2.025 5.232 3.6 7.67 5.625 1.36 1.116 2.484 2.653 3.328 4.19.44.779.366 2.185-.075 2.973-.31.553-1.66.769-2.513.694a9.8 9.8 0 0 1-3.403-.966c-2.888-1.434-5.672-3.094-8.56-4.51-1.96-.965-4.078-1.575-6.038-2.55-2.437-1.228-4.828-2.212-7.64-2.55-1.491-.187-2.944-1.275-4.735-.947-.581.113-1.322-.272-1.903-.6-1.444-.797-2.597-.478-3.61.713-1.134 1.35-2.325 2.634-3.403 4.022-3.713 4.772-8.832 7.725-13.876 10.772-2.053 1.247-4.21 2.353-6.197 3.713-.628.422-.994 1.416-1.19 2.213-.254 1.03-.076 2.165-.329 3.187-.384 1.547-1.416 1.857-2.663.938-6.975-5.12-7.781-13.332-1.903-19.173 1.885-1.875 3.91-3.61 5.813-5.485 6.366-6.263 11.832-13.238 17.016-20.495 5.129-7.181 9.31-14.822 12.939-22.829 2.08-4.594 2.625-9.478 3.131-14.372 1.19-11.326 2.278-22.66 3.235-33.996.58-6.985 1.293-13.988-.366-20.973-.384-1.603-.084-3.375-.103-5.072-.019-1.022.562-1.303 1.444-1.06 2.597.694 5.175 1.529 7.79 2.1.863.17 1.876-.28 3.291-.524z"/></svg>