<svg xmlns="http://www.w3.org/2000/svg" xml:space="preserve" fill-rule="evenodd" stroke-linejoin="round" stroke-miterlimit="2" clip-rule="evenodd" viewBox="0 0 300 300"><path fill-rule="nonzero" d="M295.226 137.873c-.253 1.77-.89 7.115-1.528 10.641-1.904 10.527-7.07 41.053-9.9 52.52-1.418 5.747-4.007 15.207-7.078 16.285-3.071 1.08-7.669-7.6-11.349-9.812-3.22-1.937-7.668-2.492-10.73-3.463-2.541-.806-5.831-1.348-7.64-2.362-1.431-.802-3.327-2.086-3.217-3.722.414-6.129 4.697-21.915 5.7-33.048 1.093-12.116 1.663-27.687.854-39.648-.734-10.85-5.546-25.643-5.71-32.12-.07-2.743 2.475-5.17 4.725-6.74 3.029-2.113 9.67-2.84 13.444-5.935 3.774-3.096 7.544-10.472 9.198-12.638.162-.214.52-.535.721-.356 1.44 1.276 6.275 4.637 7.913 8.015 2.947 6.077 7.824 21.114 9.77 28.445 1.338 5.045 1.114 10.384 1.902 15.544.796 5.207 2.383 12.626 2.87 15.694.141.896.037 2.27.046 2.72 0 .006.01-.026.01-.02M144.51 300c-9.445-1.315-9.4-1.435-18.892-1.397-4.785.02-4.745-.032-9.44-1.21-5.513-1.396-10.838-3.628-16.398-4.659-4.013-.753-22.561-9.906-33.957-21.732 1.266-.637 2.184-1.275 3.197-1.594 7.463-2.296 14.382-5.559 20.476-10.547 3.412-2.784 7.556-2.625 11.297-.375.892.532 7.318 2.337 8.644 3.572 3.06 2.933 6.176 3.646 6.782 3.784.572.13 12.382 1.312 13.825 1.363 5.015.16 10.069.113 15.084-.047 8.513-.262 17.054-.28 25.501-1.162.913-.096 29.903-4.653 39.62-11.147 1.406-.947 2.494-.816 3.872.197 10.046 7.337 15 15.177 15.177 15.596.801 1.896-.15 1.748-1.798 2.93-.753.51-1.663 2.687-3.718 4.475-17.955 15.62-35.91 15.846-38.274 16.356-17.408 3.69-17.278 4.49-25.312 4.758-5.32.177-5.26.092-10.605.802-1.669.028-3.375.028-5.081.028zM4.818 158.733c.37-3.318 1.714-13.864 2.25-19.903.482-5.432.147-11.515.966-16.332.736-4.33 3.216-10.297 3.947-12.572.119-.37.244-.744.44-1.078 2.763-4.702 11.538-21.088 16.135-27.132 2.955-3.886 8.899-8.208 11.448-9.132 1.648-.597 2.828 2.162 3.843 3.59 2.395 3.37 7.77 13.897 10.526 16.629 1.422 1.41 5.3-.996 6.003-.24.702.755-1.117 3.212-1.79 4.772-1.62 3.75-6.613 11.39-7.923 17.728-2.036 9.852-3.767 29.223-4.294 41.383-.455 10.522 2.366 25.357 1.135 31.576-.665 3.36-6.188 3.325-8.522 5.737s-4.43 5.753-5.487 8.74c-1.027 2.9.4 8.399-.86 9.186s-5.52-2.697-6.704-4.463c-1.14-1.7.712-4.735-.403-6.131s-4.899-1.638-6.283-2.245c-.75-.33-1.52-.75-2.02-1.4-1.303-1.696-4.459-5.537-5.797-8.777-1.485-3.594-2.491-9.887-3.113-12.788-.326-1.52-.261-3.11-.619-4.622-.58-2.463-2.393-8.068-2.868-10.154-.175-.767.02-1.967.018-2.362 0-.01-.03 0-.028-.01M200.883 238.451c2.168-6.356 1.549-10.842 1.432-10.942-.788-.684-3.305-.42-3.513 1.21-.715 5.862-.276 7.924-.066 10.445.3 2.84-.703 4.556-3.562 5.26-5.016 1.209-10.07 2.54-15.17 3.13-10.331 1.21-20.663 2.429-30.92 4.163-.16.028-18.945 1.255-27.91-1.132-2.18-.58-23.282-6.199-25.591-11.88-.119-.292-.702-17.014-1.512-18.78-.544-1.222-5.988-13.472-7.53-14.939-2.4-2.28-8.759-3.34-9.561-3.473-2.822-.488-5.644-.938-8.391-1.64-.553-.15-1.003-1.295-1.21-2.063-.684-2.41-1.865-4.444-3.281-6.563-2.3-3.482-2.877-7.858-2.972-8.579-.72-5.447-.948-10.954-1.706-16.397-.46-3.347-.282-6.61-.132-9.956.179-4.247-.215-8.513-.328-12.76-.028-1.36-.103-2.756.085-4.078.872-6.02 1.593-12.048 2.822-18 2.673-12.82 6.773-17.838 7.819-19.117 5.297-6.507 12.412-10.857 18.525-16.35 3.41-3.083 3.046-3.414 3.835-7.904.584-3.329 2.598-3.426 3-4.866.61-1.931 1.734-3.497 3.572-4.21 2.719-1.068 5.54-1.855 8.344-2.737 12.117-3.895 11.66-5.604 23.935-6.703 4.48-.413 8.897-1.353 13.36-1.931.769-.1 1.552-.17 2.325-.103 3.656.28 7.312.506 10.95.918 5.85.638 11.71 1.294 17.532 2.147 10.332 1.502 10.874-.08 19.94 5.1 3.573 2.054 4.21 1.988 6.826-1.18 1.819-2.232 3.61-1.951 4.528.787.741 2.232 1.154 4.562 1.857 6.806.467 1.493.873 3.035 1.65 4.394 1.69 2.954 12.583 12.343 13.744 13.344 1.355 1.19 5.44.957 6.431 3.919 1.176 3.515 8.308 24.837 7.463 45.733-.225 5.643-.047 11.297-.488 16.903-.872 11.194-2.373 21.845-2.64 23.737-.18 1.279-.292 1.249-3.416 15.78-.283 1.273-.153 2.605-.31 3.9-.306 2.536-.098 2.875-2.39 3.966-6.74 3.178-12.375 7.622-15.872 14.381a52.2 52.2 0 0 0-5.522 18.507c-.193 1.74-2.844 5.613-5.522 2.231-.197-.356-.544-.553-.46-.487zm-49.764-1.078c2.076-.17 17.043-1.391 26.035.244.741.138 1.313.743 1.988 1.078 3.088 1.53 4.823 1.36 4.181-2.062-.293-1.565-3.407-12.092-2.25-16.37.379-1.409 3.597-13.391 7.05-16.82.464-.462 2.83-2.813 7.06-4.152 2.053-.638 4.163-1.116 6.244-1.669 2.26-.59 4.49-1.331 5.644-3.563 3.44-6.637 6.169-13.219 3.037-21.038-.686-1.72-5.287-13.265-4.668-22.678.13-2.249.663-4.46.853-6.704.21-2.481-.019-5 .347-7.462 1.078-7.473.178-14.776-1.922-21.92-2.579-8.784-5.279-17.532-8.166-26.213-.572-1.735-1.922-3.497-3.375-4.64-10.976-8.769-15.58-8.385-20.87-10.951-4.244-2.043-16.529-5.283-19.433-4.933-.597.072-26.412 9.979-30.752 10.277-1.904.112-3.3.937-4.576 2.315-3.013 3.17-4.064 1.727-7.162 4.857-1.92 1.94-3.61 2.454-3.685 2.54-3.525 4.248-6.478 8.823-6.656 14.56-.263 8.579-.478 17.166-.413 25.764.028 4.371-.004 4.339-1.34 8.456-.01.027-.004.001-1.444 17.185-.413 4.997-2.016 9.563-5.063 13.613-.525.693-5.424 7.158-4.284 9.984 2.128 5.232 4.931 10.098 8.578 14.476 5.33 6.382 13.094 3.297 15.01 4.21 1.424.678 9.78 4.66 14.4 13.462 3.591 6.9 5.194 14.054 3.825 21.826-1.343 7.514 3.267 4.413 10.857 5.119 4.003.356 7.969.872 10.969 1.21zM205.374 53.055c-1.43-.767-6.597-3.945-8.57-4.612-1.047-.355-2.183.855-3.262.61-1.35-.309-3.091-1.986-4.837-2.457-3.72-1.003-11.555-3.025-17.476-3.563-7.78-.706-19.566-2.064-29.204-.675-12.035 1.735-34.596 9.46-43.004 11.082-2.476.477-5.478.228-7.444-1.35-2.295-1.843-4.927-7.696-6.328-9.704-.599-.857-1.083-2.037-2.082-2.343-1.876-.577-6.149-.548-9.178-1.116-3.147-.59-9.243-.685-9.704-2.428-.46-1.744 4.793-5.499 6.938-8.035 2.006-2.37 3.368-5.434 5.935-7.181 2.733-1.861 7.216-2.43 10.463-3.985 3.151-1.509 5.724-4.178 9.019-5.344 7.487-2.648 27.586-8.697 35.907-10.547 4.564-1.015 9.345-.348 14.016-.553C151.91.62 160.648.04 164.629 0c1.951-.02 3.886.365 5.822.61 5.858.738 23.939 2.916 29.328 3.824 1.123.19 2.208 1.242 3.007 1.622.575.273 1.232.354 1.791.656 3.142 1.697 13.953 6.527 17.063 9.526 2.068 1.994 2.703 5.817 1.598 8.469-1.19 2.853-6.408 5.276-8.733 8.65-2.417 3.51-4.401 9.164-5.775 12.413-.973 2.301-1.908 5.866-2.465 7.078-.126.274-.733.163-.882.197-.004.001-.005.012-.01.01"/><path fill-rule="nonzero" d="M103.174 171.568c-.506-3.46.853-6.478 2.719-9.328 1.312-2.016 2.775-2.56 4.866-1.463 3.984 2.1 8.54 2.166 12.59 3.853 4.275 1.79 4.514 1.194 8.476 3.629 1.476.907 4.538.752 4.996.96.532.24 2.233 2.26 2.41 2.471 4.313 5.26 3.9 11.279-.88 16.285-2.971 3.092-4.84 1.91-6.442 2.231-5.887 1.294-10.969-.553-15.788-3.769-2.278-1.528-4.66-2.972-7.162-4.05-4.2-1.837-5.738-5.081-5.785-9.366v-1.462zM201.164 172.656c-.222.892-2.214 8.892-4.275 10.675-.302.261-1.817 1.572-4.612 1.934-3.134.402-13.3 3.332-15.599 2.951-.725-.12-5.67-.94-7.568-5.2-.332-.743-3.544-7.91-2.306-9.9 3.168-5.237 6.616-7.148 7.354-7.557.838-.464.859-.392 15.728-5.326.956-.312 2.671-.873 9.3 8.457.853 1.228 1.36 2.719 1.988 3.966zM143.74 208c0-9.383-.269-9.682 4.642-17.634 1.706-2.785 4.406-3.113 6.675-.807 3.347 3.413 5.672 7.35 6.113 12.198.3 3.168.571 6.328.787 9.506.142 2.476-1.155 5.365-3.76 3.59-6.508-4.51-6.48-4.96-7.47-4.646-1.08.343-2.54 7.176-5.824 2.697-.984-1.332-1.34-3.132-1.987-4.725.244-.047.544-.113.816-.179z"/></svg>