<svg width="300" height="300" xmlns="http://www.w3.org/2000/svg" viewBox="0 0 32 32"><path d="M15.674.001c-.257.467-.606.853-.677 1.284-.128.785-.534 1.379-.986 1.978-.258.343-.146.686.221.731.719.09 1.072.617.98 1.339a25 25 0 0 0-.192 2.451c-.014.456-.175.663-.629.692-.498.031-1 .072-1.487.171-.289.059-.607.179-.82.371-.509.463-.535 2.033-.014 2.682.202-.262.39-.503.574-.746.366-.479.69-.997 1.108-1.425.288-.295.902-.213 1.079.038.248.355.126 1.257-.202 1.459-.397.244-.798.484-1.254.761.196.097.351.16.493.243.577.341.767 1.228.293 1.521-.312.194-.36.431-.36.731-.003.755-.027 1.51.004 2.264.025.583.097 1.167.196 1.741.096.551.307 1.086.374 1.639.154 1.257-.035 2.53.322 3.79.513 1.808.004 3.739.589 5.564.183.57.052 1.235.113 1.85.03.295.173.577.266.865.074-.28.169-.557.216-.842.131-.809.242-1.622.363-2.434.074-.501.162-1-.068-1.517-.211.126-.366.216-.521.307-.386-.711-.265-1.011.415-1.283.141-.056.265-.302.289-.475.089-.649.015-1.344.217-1.95.422-1.263.336-2.558.428-3.844.012-.169-.012-.398.085-.494.371-.363.31-.815.345-1.257.098-1.205.171-2.415.337-3.612.134-.956.194-.958-.656-1.452-.349-.203-.356-.525-.259-.808.059-.169.318-.291.51-.388.15-.075.337-.076.615-.134-.173-.142-.241-.209-.319-.262-.333-.229-.696-.424-.995-.692a.64.64 0 0 1 .199-1.085c.299-.109.641-.091.954-.169 1.112-.274 1.85.505 1.869 1.549.003.166.089.332.135.497l.176.005c.067-.25.186-.498.19-.748.008-.534-.038-1.068-.07-1.603-.031-.554-.199-.669-.741-.694-.82-.04-1.639-.134-2.456-.209-.304-.027-.46-.191-.463-.509-.012-1.052-.05-2.105-.046-3.157.003-.707.181-.856.894-.924.157-.015.424-.071.439-.146.029-.156-.057-.347-.132-.505-.386-.805-1.268-1.292-1.411-2.273-.046-.297-.33-.565-.531-.89zM1.669 15.944c.128.091.19.173.259.181.716.085 1.396.217 2.083.512.821.352 1.138.602 1.332 1.497.161.744.443 1.461.679 2.189.025.076.109.131.158.201.424.594.838 1.198 1.276 1.782.317.42.686.802.995 1.228.228.314.69.574.48 1.048-.203.456-.532.853-.761 1.299-.085.165-.045.396-.068.669.374-.332.67-.564.929-.832.327-.34.58-.763.943-1.052.483-.386.508-.655.011-1.042a9 9 0 0 1-1.051-.952c-.284-.306-.499-.675-.761-1.004-.36-.452-.767-.866-.831-1.49-.02-.195-.157-.375-.235-.565-.27-.66-.693-1.304-.771-1.987-.116-1.018-.075-2.074.067-3.092.113-.813.488-1.573.914-2.31.464-.805 1.079-1.385 1.854-1.856.218-.132.476-.413.48-.632.005-.258-.225-.534-.392-.775-.101-.147-.285-.233-.413-.366-.554-.57-1.101-1.147-1.651-1.722q-.095.041-.188.08c.068.276.124.555.207.827.059.192.162.37.233.558.127.334.288.665.351 1.011.053.295.087.666-.045.907-.231.426-.565.808-.91 1.156-.834.838-1.193 1.897-1.506 2.992-.119.416-.322.808-.823.899-.875.16-1.749.317-2.622.482-.057.01-.105.072-.224.16zM25.307 7.01c-.323.188-.625.317-.868.514-.756.615-1.483 1.266-2.236 1.886-.379.312-.422.565-.049.841.884.655 1.637 1.389 1.913 2.519.218.894.718 1.767.727 2.652.014 1.433-.091 2.923-.491 4.286-.319 1.089-.64 2.258-1.385 3.2-.18.228-.358.461-.517.703-.154.232-.154.457.188.469.618.023.936.49 1.347.832.407.338.832.652 1.25.976l.166-.128c-.05-.158-.064-.344-.158-.471-.381-.518-.801-1.01-1.171-1.535-.104-.147-.183-.434-.111-.565.39-.69.895-1.303 1.116-2.1s.594-1.551.83-2.344c.115-.388.034-.828.105-1.233.041-.236.15-.58.323-.652a12.5 12.5 0 0 1 2.038-.666c.464-.106.962-.061 1.444-.096.151-.011.302-.059.562-.111-.166-.117-.216-.181-.273-.188-1.004-.119-2.013-.213-3.014-.355-.378-.053-.876-.104-1.081-.351-.306-.37-.403-.913-.585-1.382-.198-.509-.363-1.033-.596-1.524a5.7 5.7 0 0 0-.716-1.161c-.332-.403-.566-.846-.356-1.315.222-.499.6-.928.91-1.389.265-.397.752-.685.688-1.311z"/><path d="M15.674.001c.201.325.484.592.529.894.145.98 1.026 1.467 1.411 2.273.076.158.162.349.132.505-.014.075-.281.131-.439.146-.712.07-.89.218-.894.924-.005 1.052.034 2.105.046 3.157.004.318.158.482.463.509.819.075 1.636.169 2.456.209.542.026.709.141.741.694.03.535.078 1.07.07 1.603-.004.25-.123.498-.19.748l-.176-.005c-.048-.165-.132-.33-.135-.497-.018-1.044-.757-1.823-1.869-1.549-.314.078-.656.06-.954.169a.64.64 0 0 0-.199 1.085c.299.267.662.461.995.692.078.053.146.119.319.262-.278.056-.465.059-.615.134-.192.096-.452.217-.51.388-.097.282-.09.604.259.808.849.494.789.495.656 1.452-.166 1.197-.239 2.406-.337 3.612-.037.443.026.894-.345 1.257-.097.094-.071.325-.085.494-.094 1.285-.008 2.58-.428 3.844-.202.606-.128 1.3-.217 1.95-.023.173-.149.419-.289.475-.679.273-.801.572-.415 1.283l.521-.307c.232.517.143 1.018.068 1.517-.12.812-.231 1.624-.363 2.434-.046.285-.142.561-.216.842-.093-.288-.236-.572-.266-.865-.061-.617.07-1.281-.113-1.85-.585-1.827-.076-3.758-.589-5.564-.357-1.259-.168-2.532-.322-3.79-.068-.553-.278-1.087-.374-1.639a14 14 0 0 1-.196-1.741c-.033-.753-.007-1.509-.004-2.264.001-.3.048-.538.36-.731.473-.293.284-1.18-.293-1.521-.142-.083-.296-.147-.493-.243.457-.277.857-.517 1.254-.761.327-.202.452-1.104.202-1.459-.177-.252-.791-.334-1.079-.038-.418.428-.742.946-1.108 1.425l-.574.746c-.521-.651-.497-2.22.014-2.683.213-.194.531-.314.82-.371.488-.098.989-.139 1.487-.171.454-.029.615-.236.629-.692.025-.819.089-1.639.192-2.451.093-.72-.261-1.248-.98-1.339-.367-.046-.479-.389-.221-.731.452-.599.858-1.194.986-1.978.072-.435.422-.821.678-1.288zM1.669 15.944c.119-.087.166-.15.225-.161q1.31-.245 2.622-.482c.501-.091.704-.483.823-.899.312-1.096.671-2.154 1.506-2.992.345-.347.679-.73.91-1.156.132-.243.098-.613.045-.907-.063-.347-.225-.677-.351-1.011-.071-.188-.175-.367-.233-.558-.083-.272-.141-.551-.207-.827q.095-.041.188-.08c.55.574 1.097 1.152 1.651 1.722.128.132.312.218.413.366.166.242.397.517.392.775-.004.218-.262.499-.48.632-.775.471-1.389 1.051-1.854 1.856-.424.737-.801 1.497-.914 2.31-.142 1.017-.181 2.074-.067 3.092.078.682.501 1.326.771 1.987.078.19.214.371.235.565.064.625.471 1.04.831 1.49.262.327.478.697.761 1.004.321.345.679.662 1.051.952.498.388.472.656-.011 1.042-.363.289-.615.712-.943 1.052-.258.269-.555.501-.929.832.023-.273-.016-.502.068-.669.229-.446.558-.843.761-1.299.21-.472-.254-.734-.48-1.048-.308-.426-.679-.806-.995-1.228-.438-.584-.851-1.187-1.276-1.782-.049-.07-.134-.124-.158-.201-.236-.727-.519-1.445-.679-2.189-.194-.895-.51-1.143-1.332-1.497-.688-.295-1.367-.427-2.083-.512-.071-.007-.132-.087-.261-.18zM25.307 7.01c.063.626-.424.914-.69 1.311-.308.461-.688.89-.91 1.389-.209.471.026.914.356 1.315.287.348.523.752.716 1.161.233.491.398 1.015.596 1.524.183.471.278 1.014.585 1.382.206.248.703.297 1.081.351 1.002.142 2.01.236 3.014.355.056.007.106.071.273.188-.261.053-.411.1-.562.111-.482.034-.98-.012-1.444.096-.695.16-1.381.39-2.038.666-.172.072-.282.416-.323.652-.07.405.01.846-.105 1.233-.235.794-.609 1.547-.83 2.344-.221.795-.726 1.409-1.116 2.1-.074.13.005.418.111.565.37.525.791 1.017 1.171 1.535.093.127.108.312.158.471l-.166.128c-.418-.325-.843-.637-1.25-.976-.411-.343-.729-.809-1.347-.832-.343-.012-.343-.237-.188-.469.161-.243.337-.475.517-.703.745-.941 1.066-2.111 1.385-3.2.4-1.364.505-2.853.491-4.286-.008-.886-.509-1.759-.727-2.652-.276-1.13-1.029-1.864-1.913-2.519-.372-.276-.33-.528.049-.841.752-.619 1.479-1.27 2.236-1.886.247-.198.547-.326.871-.514z"/></svg>