<svg xmlns="http://www.w3.org/2000/svg" width="300" height="300" viewBox="0 0 300 300"><title>factions-order-cities-of-sigmar-hallowheart</title><path d="M131.409 299.166c-.356-.459-.825-1.528-1.041-2.372s-6.075-28.744-13.031-62.006c-8.475-40.556-12.703-61.425-12.825-63.375-.263-4.266-.6-4.134 10.491-4.256 4.819-.056 16.941.028 26.934.178 16.303.244 18.281.338 19.256.862 2.081 1.116 2.494 3.141 1.744 8.541-.572 4.106-23.737 108.881-24.9 112.641-1.763 5.653-4.397 10.622-5.644 10.622-.178 0-.619-.375-.984-.834zm10.275-79.425c2.503-.741 4.838-2.981 6.394-6.15 1.181-2.391 1.266-2.766 1.266-5.606 0-2.7-.103-3.216-.909-4.584-1.612-2.747-4.688-5.044-8.541-6.375-1.153-.403-3.919-.872-6.534-1.125-2.503-.244-4.903-.619-5.325-.853-1.763-.938-2.306-4.781-.975-6.787 1.125-1.688 2.962-2.466 5.803-2.456 2.672.009 4.566.787 5.953 2.438 1.153 1.369 2.053 1.772 3.966 1.791 2.156.019 4.106-1.078 5.4-3.028 2.512-3.787 1.509-5.241-5.325-7.762-3.666-1.35-6.928-1.8-12.188-1.659-5.334.141-6.591.6-9.375 3.384-3.384 3.384-4.837 8.025-4.116 13.116.469 3.328 1.144 4.566 3.075 5.634 1.388.769 1.884.825 8.559 1.012 6.731.188 7.162.244 8.588 1.031.825.459 1.959 1.481 2.512 2.278 1.913 2.728 1.463 7.547-.816 8.747-1.256.656-5.784.338-8.175-.581-1.247-.478-2.672-1.425-3.975-2.625-2.447-2.259-3.169-2.353-5.869-.731-2.419 1.453-3.131 2.738-2.569 4.613.928 3.103 3.816 5.55 7.453 6.337 2.831.609 13.622.572 15.731-.047zm5.466 64.434c-.431-.431-.619-.947-.506-1.434.094-.413 5.55-25.509 12.131-55.763s12.178-55.706 12.459-56.55c.272-.844.994-2.006 1.584-2.578s4.566-3.328 8.822-6.122c11.869-7.791 12.797-8.231 14.119-6.769.478.525.553.975.366 2.231-.3 2.006-22.688 74.559-24.394 79.041-1.125 2.972-17.625 39.094-20.278 44.4-1.284 2.559-2.512 4.219-3.15 4.219-.272 0-.797-.309-1.162-.675zm-27.938-4.069c-2.222-2.362-5.447-7.866-10.528-17.962-5.859-11.644-6.666-13.688-12.797-32.531-13.116-40.275-22.088-69.844-22.088-72.834s2.419-3.619 5.991-1.556c3.609 2.091 15.431 10.434 16.997 12 3.413 3.412 2.831 1.087 13.894 55.387 9.366 45.956 9.984 49.228 10.144 53.438.206 5.241-.009 5.766-1.613 4.059zm11.457-119.1c-10.453-.525-19.5-1.041-20.091-1.153-2.278-.422-2.709-2.766-1.163-6.262 1.378-3.113 2.334-6.741 2.728-10.369.281-2.662.525-3.478 1.472-5.044 1.744-2.887 2.569-4.903 3.047-7.434a13 13 0 0 1 1.631-4.266c1.725-2.822 2.597-4.987 3.131-7.772.328-1.706.769-2.841 1.444-3.703 1.434-1.838 9.478-16.322 9.881-17.803.478-1.744.853-2.119 2.147-2.119 1.313 0 2.784 1.116 3.619 2.747.319.619 5.353 13.463 11.194 28.547s10.866 27.797 11.175 28.266c.384.572.563 1.556.572 3.103.009 2.925-.544 3.534-3.553 3.975-3.028.441-5.691.366-27.225-.713zm36.825-2.493c-.459-.459-1.153-1.556-1.538-2.438-1.556-3.572-16.613-44.878-17.325-47.531-1.322-4.922-.919-10.106.675-8.775.3.244.544.816.544 1.256 0 1.584.909 3.084 2.306 3.797 1.912.975 4.116 2.878 14.737 12.703 13.181 12.206 14.278 13.172 18.609 16.5 4.003 3.075 5.128 4.35 5.784 6.544.825 2.747-1.05 5.681-5.044 7.884-3.281 1.809-5.944 3.769-9.291 6.825s-5.147 4.078-7.209 4.078c-1.069 0-1.631-.206-2.259-.834zm-70.688-.497c-1.509-.366-17.072-9.366-18.806-10.875-2.353-2.053-2.587-3.956-.844-6.778 1.05-1.706 5.184-5.456 7.05-6.403 3.534-1.791 9.609-6.947 13.153-11.175 4.519-5.381 8.128-8.85 10.303-9.881 2.428-1.162 2.634-1.378 3.15-3.3.487-1.828 2.625-4.172 5.231-5.737 1.941-1.172 4.706-2.081 5.456-1.8.713.272.834 2.213.291 4.566-.591 2.569-12.009 32.484-13.013 34.106-.356.581-1.022 1.294-1.463 1.584-.984.647-2.128 3.572-2.419 6.197-.244 2.203-2.231 6.384-3.938 8.269-1.163 1.284-2.428 1.669-4.144 1.247zm95.269-24.469c-2.053-1.097-5.878-4.35-20.681-17.578-10.528-9.403-15.834-14.391-17.353-16.284-3.384-4.228-4.359-7.594-3.825-13.181.394-4.172 1.359-7.434 3.497-11.775 2.991-6.094 6.075-9.244 9.787-9.984 1.416-.281 2.072-.638 2.831-1.5 1.256-1.434 2.025-4.012 2.025-6.834 0-3.009.544-7.5 1.162-9.619.778-2.681 2.991-5.719 5.541-7.603 2.503-1.856 7.819-4.669 12.309-6.525 4.613-1.903 6.169-2.766 7.941-4.425 2.287-2.147 3.328-4.378 3.338-7.153.009-6.028 1.566-9.675 4.697-10.997.637-.272 3.216-.694 5.728-.947 5.053-.506 6.009-.806 9.037-2.878 3.9-2.662 5.775-2.119 5.766 1.669-.019 3.872-1.884 6.253-6.844 8.719-3.909 1.941-4.8 2.897-5.756 6.178-.619 2.109-1.162 7.528-1.181 11.672-.009 3.253-.684 6.328-2.063 9.384-1.406 3.131-3.15 5.297-5.85 7.294-5.381 3.975-5.625 4.688-5.813 16.547-.159 10.069.113 12.722 1.631 15.844.956 1.969 1.181 2.184 3.197 3.141 1.341.637 2.513 1.481 3.084 2.231.881 1.163.919 1.378.9 4.941-.019 3.225-.15 4.059-.966 6.234-1.162 3.084-2.091 4.603-3.769 6.094-3.338 2.981-4.088 3.956-5.1 6.591-.553 1.453-1.2 3.787-1.416 5.184-.478 2.981-.281 9.834.375 13.2.384 1.978.375 2.334-.047 2.606-.666.422-.994.384-2.175-.244zm-117.019-2.55c.141-.975.263-5.803.263-10.744 0-8.794-.019-9-.75-9.928-.412-.525-1.153-1.631-1.641-2.466-1.734-2.963-3.178-4.913-5.644-7.669-2.109-2.353-2.663-3.225-3.516-5.578-2.625-7.256-2.203-15.45 1.059-20.466.684-1.059 1.856-2.175 3.262-3.094 3.619-2.4 5.372-4.612 5.391-6.806.019-1.762.684-3.909 1.528-4.922 1.894-2.25 2.756-5.953 3.178-13.706.328-6.084.581-7.303 1.744-8.681.431-.506 1.031-1.528 1.35-2.259s.863-2.016 1.219-2.85 1.294-2.325 2.091-3.309c1.275-1.584 1.959-2.044 6.019-3.994 4.753-2.287 6.834-3.713 11.128-7.584 5.212-4.706 10.2-7.547 17.513-9.994 5.062-1.688 9.844-3.909 11.447-5.297 1.884-1.641 2.55-1.884 3.862-1.453.628.206 1.238.666 1.341 1.003.234.731-.441 3.572-1.903 8.016-1.331 4.059-3.009 6.188-11.728 14.85-9.066 9.009-10.434 11.269-10.378 17.119.028 2.578-.075 3.009-1.181 5.212-.666 1.322-1.987 3.319-2.953 4.425-4.247 4.903-6.338 8.409-6.347 10.631 0 1.594 1.041 2.991 5.419 7.219 4.284 4.134 6.431 5.85 9.15 7.294 3.216 1.697 4.772 3.45 5.644 6.328 1.219 4.003.3 7.406-3.188 11.813-2.259 2.859-42.534 38.653-43.481 38.653-.084 0-.028-.797.113-1.762zm136.95-62.503c-1.275-1.003-1.584-2.559-1.584-7.838 0-5.091.216-5.906 1.997-7.397.553-.469 1.8-1.022 2.756-1.228 5.231-1.125 6.216-2.438 8.691-11.634.994-3.703 1.931-5.156 4.162-6.506 2.587-1.556 7.153-3.487 8.391-3.544.909-.038 1.069.094 1.35 1.134.412 1.519.122 4.341-.591 5.709-.309.6-1.041 1.275-1.65 1.528-2.063.862-2.034.703-2.259 11.569-.169 8.409-.291 10.219-.806 11.606-.722 1.969-2.503 3.844-4.556 4.8-1.894.881-6.834 2.1-8.963 2.212-1.453.075-1.631.009-1.734-.675-.131-.909-1.313-1.659-1.819-1.153-.188.188-.516.694-.731 1.125-.516 1.041-1.547 1.144-2.653.281zm-82.415-29.016c-.291-.516-.431-2.212-.431-5.297 0-4.275.056-4.65.928-6.422 1.116-2.269.909-2.166 10.706-5.344 4.584-1.481 7.491-2.606 7.875-3.028.487-.544 1.031-.675 2.7-.675 2.775 0 3.422.619 2.85 2.737-.628 2.334-2.278 5.297-3.938 7.078-2.147 2.287-4.622 3.694-9.412 5.316-5.147 1.744-6.684 2.606-8.475 4.725-1.575 1.866-2.156 2.053-2.794.928z"/></svg>