<svg xmlns="http://www.w3.org/2000/svg" width="300" height="300" viewBox="0 0 300 300"><title>factions-destruction-bladeborn-hedkrakkas-madmob</title><path d="M198.989 131.394c-16.398-6.056-31.856-5.029-44.145 7.958-5.488 5.816-9.882 5.334-14.408-.48-11.064-14.168-25.013-12.987-39.837-7.958l-1.18 1.114c-9.554 1.356-19.35 2.143-28.773 4.22-7.98 1.684-11.064 9.227-13.228 15.284s-3.98 12.812-12.506 12.026c-9.445-.437-16.989-8.221-16.989-17.732v-4.132c0-17.207 0-17.514-17.208-21.492-5.816-1.356-9.642-3.739-10.516-9.795-2.405-16.31 17.535-39.793 34.086-38.525 6.625 1.202 12.332 4.417 16.638 8.986l.022.022c4.307 4.22 1.356 9.468-2.624 13.928-1.596 1.815-2.536 7.062-1.443 7.958 2.711 2.23 7.958 4.854 10.057 3.739 3.914-1.553 8.44-2.47 13.185-2.47s9.248.896 13.447 2.536l-.263-.088c14.016 3.17 28.839 3.432 39.028-11.216 3.432-4.854 6.056-7.958 1.902-13.534a8.64 8.64 0 0 1-.984-3.98c0-.612.066-1.202.197-1.793v.066c3.892-26.98-12.9-45.128-27.002-64.566C95.396 9.722 94.5 7.687 93.8 5.567l-.066-.218c2.755.306 5.182.679 7.543 1.202l-.437-.088c17.797 4.263 32.73 14.562 42.811 28.598l.152.218c3.17 4.702 5.116 5.094 8.702 1.596s9.642-9.074 14.014-14.014c7.172-9.183 18.17-15.152 30.545-15.436h6.428c-1.049 2.296-1.444 5.248-3.127 6.756a87.1 87.1 0 0 0-17.711 25.013l-.24.525c-4.066 7.106-6.472 15.633-6.472 24.686 0 .525 0 1.049.022 1.574v-.088c.022.349.022.787.022 1.225 0 5.051-.94 9.882-2.645 14.344l.088-.285a10.7 10.7 0 0 0-1.049 4.636c0 3.105 1.29 5.859 3.346 7.871 3.914 4.307 6.713 11.938 10.998 12.812 4.438 1.049 9.533 1.684 14.736 1.684s10.298-.612 15.173-1.75l-.437.088c3.783-1.639 8.198-2.624 12.878-2.624 4.198 0 8.198.787 11.895 2.23l-.24-.088c1.75.874 4.788 0 6.932-1.137s7.958-2.077 3.432-7.412a42.2 42.2 0 0 1-4.985-7.696l-.109-.263c-.787-1.114-1.247-2.514-1.247-4.023 0-.306.022-.568.043-.874v.043c5.094-6.604 12.506-11.216 20.989-12.616l.197-.022c11.152.809 31.397 18.782 33.387 29.692 2.23 12.178-1.268 17.207-13.316 18.87-14.102 1.99-19.59 9.38-18.082 23.876.306 1.137.437 2.427.437 3.783 0 8.789-7.15 15.939-15.939 15.939-.853 0-1.705-.066-2.536-.197l.088.022c-4.788-.394-6.298-2.536-7.412-7.172-3.674-14.89-9.554-19.416-23.898-20.858-7.455-1.093-13.84-2.427-20.093-4.089l1.202.263-.831-.765z"/><path d="M200.126 132.51c5.641 15.742 11.326 35.727 15.83 56.148l.656 3.543c2.187 7.499 3.432 16.114 3.432 25.035s-1.247 17.536-3.607 25.691l.175-.656c-3.346 11.129-5.422 22.608-8.44 33.824-1.356 5.422-3.411 10.211-6.101 14.562l.131-.218c-1.356 2.23-5.248 2.864-7.958 4.22-1.268-1.902-2.23-4.154-2.755-6.559l-.022-.109v-19.918c-1.268-14.256-3.367-28.424-4.788-42.657-1.836-17.994-13.316-30.742-23.898-44.013-15.94-19.832-14.102-25.232 3.98-42.286 10.43-9.795 21.34-6.604 32.447-7.958l.919 1.356zM100.6 131.394c10.189.722 19.984-1.049 29.735 6.844 15.546 12.572 19.219 27.396 6.516 42.986-3.674 4.614-7.958 8.593-12.026 13.052-11.238 12.9-13.38 29.277-15.94 45.062s-2.798 29.845-4.307 44.734c-.788 3.717-1.815 6.975-3.17 10.058l.131-.328c-2.864-2.624-6.844-4.788-7.958-7.958-2.798-6.45-4.066-13.622-6.21-20.378-4.482-13.731-7.106-29.517-7.106-45.938 0-10.998 1.159-21.711 3.367-32.01l-.152.983c.7-13.075 3.564-25.297 8.243-36.558l-.263.743c-4.307-9.554 9.008-11.938 7.958-20.05l1.18-1.247zM199.405 104.632c-.765.131-1.639.197-2.536.197-8.44 0-15.458-6.122-16.814-14.168l-.022-.109c-2.078-6.604 2.078-19.59 9.554-21.646 20.706-5.663 35.071-19.416 49.085-34.152.809-.722 2.712-1.356 3.346-.94a4.27 4.27 0 0 1 1.53 3.28v.154c-.896 7.718-2.47 14.714-4.679 21.428l.218-.743c-4.941 12.332-10.276 22.805-16.441 32.732l.503-.896c-5.248 8.352-11.784 17.426-23.745 14.89v-.022zM94.937 104.392a13.9 13.9 0 0 1-7.455-2.645l.043.022C70.034 86.311 58.293 64.665 55.69 40.352l-.043-.437c0-2.078 1.684-4.22 2.536-6.275 1.771.984 3.301 2.143 4.614 3.498 9.489 13.38 22.586 23.679 37.847 29.561l.568.197c3.826 1.246 7.084 3.389 9.62 6.188l.022.022c3.674 4.373 12.288 6.756 7.172 15.939s-8.046 16.486-23.111 15.349h.022z"/></svg>