<svg xmlns="http://www.w3.org/2000/svg" width="300" height="300" viewBox="0 0 300 300"><title>factions-chaos-bladeborn-magores-fiends</title><path d="M184.174 204.397c0-13.172.627-26.345-.389-39.431 0-4.975-4.888-9.626-7.506-14.448-3.396 4.52-9.236 8.673-9.711 13.411-2.293 23.251-3.007 46.764-4.52 70.102a22 22 0 0 0-.064 1.773c0 6.207 2.445 11.81 6.402 15.984 7.874 9.084 7.095 13.237.844 22.409s-10.015 16.634-15.79 24.765c-.995.627-2.184 1.038-3.483 1.038a6.9 6.9 0 0 1-2.249-.389l.043.021c-7.181-12.22-14.211-24.527-20.764-37.159-.714-1.341 1.168-4.65 2.596-6.468 4.478-6.186 7.181-13.908 7.181-22.279a36 36 0 0 0-.195-3.742l.022.151c0-15.054.476-30.217 0-45.271-.649-10.468-2.358-20.245-4.975-29.632l.238.995a10.82 10.82 0 0 0-8.716-5.688h-.043c-3.655 1.017-6.532 3.634-7.874 7.03l-.022.087a43.4 43.4 0 0 0-.606 13.929l-.022-.195v68.846a20.4 20.4 0 0 1-1.731 5.645l.043-.13c-2.207-.93-5.212-1.341-6.489-3.006-7.267-9.626-13.734-17.585-10.339-32.813 4.261-19.402 1.168-40.47 1.125-60.8.022-.238.022-.519.022-.8 0-2.445-.821-4.672-2.184-6.489l.022.022a63 63 0 0 0-10.361-6.445l-.368-.173c-1.752 3.309-4.737 6.532-4.823 9.928-.541 15.054 0 30.217 0 45.271v15.768c0 5.278-2.509 5.602-6.315 2.855-1.016-.8-1.882-1.816-2.92-2.682-7.029-5.754-16.828-10.253-20.224-17.736s.627-17.195.389-26.02c-.476-14.254-1.968-28.552-2.358-42.826a8.76 8.76 0 0 1 4.434-6.598l.043-.022c4.629-1.709 10.296-3.287 16.136-4.434l.778-.13c9.647-2.66 17.606-8.76 22.56-16.871l.108-.173c2.379-3.698 1.514-8.543-3.936-8.457-11.463 0-23.685-3.85-33.872 5.278-3.872 3.483-7.268.541-7.895-4.327v-9.862c0-6.315-3.482-15.054-.476-18.384 5.992-6.879 10.814 3.071 16.568 4.975 20.051 6.381 47.391-.952 57.232-15.79 5.061-7.181 4.65-11.982-2.682-15.768-5.32-2.834-11.55-4.78-18.169-5.515l-.238-.021c-4.11-.259-8.933-.389-13.778-.389s-9.668.151-14.427.432l.649-.021a19 19 0 0 0-3.439-.304c-5.537 0-10.555 2.271-14.168 5.883-4.261 4.737-9.949 1.58-10.729-4.975-.173-2.077-.259-4.455-.259-6.9s.108-4.845.281-7.202l-.022.302c0-9.084 0-8.76 10.015-5.841 3.806.995 8.154 1.601 12.675 1.601h38.263c3.936 0 9.3 1.016 11.442-1.038 10.253-9.777 16.568-3.785 24.247 3.634 10.512 10.187 11.68 10.102 21.716-.541 7.116-7.873 13.432-11.442 23.685-5.061 3.439 1.86 7.506 2.964 11.852 2.964.454 0 .887-.022 1.32-.043h-.064c17.693 0 35.365 0 53.057-1.125 4.261 0 6.077 0 6.402 4.261.087 1.168.13 2.552.13 3.936s-.043 2.769-.13 4.131v-.195c0 5.148-1.038 10.253-1.579 15.379-3.829-2.077-8.284-4.002-12.934-5.515l-.562-.173c-19.813-4.954-39.473-6.921-59.048 2.207-7.895 3.634-8.371 9.084-3.332 15.768 6.445 10.079 17.585 16.655 30.238 16.655.454 0 .952 0 1.406-.022h-.064c12.934-.627 26.215 1.731 38.046-6.294 2.855-1.882 6.315-1.816 5.537 3.698-.714 4.521-1.255 9.971-1.493 15.486v.281c-.541 13.734 0 13.021-14.276 9.863-4.823-.974-10.382-1.536-16.092-1.536-3.287 0-6.489.195-9.647.541l.389-.043c-7.202.541-7.895 6.468-3.396 12.545 7.419 9.473 18.299 12.22 28.724 15.79 13.324 4.499 12.005 4.11 11.269 16.958-.238 4.261-.368 9.236-.368 14.254 0 12.113.8 24.03 2.358 35.732l-.151-1.384c1.255 9.3.389 14.989-8.457 18.775-3.547 2.12-6.64 4.325-9.473 6.77l.087-.087c-3.936 2.682-7.895 5.213-12.09 7.874-1.017-4.499-1.665-9.734-1.816-15.097v-.108c.8-12.199 2.855-24.442 3.482-36.749v-.021c0-5.386-1.146-10.491-3.244-15.097l.064.238a38.8 38.8 0 0 0-7.008-8.825l-.021-.022c-4.023 3.071-7.57 6.402-10.75 10.079l-.087.087c-1.665 2.271-.8 6.294-.8 9.625 0 15.768-.476 31.557 0 47.325.195 5.992 1.816 11.572 4.586 16.417l-.087-.151a8.63 8.63 0 0 1 2.077 5.645c0 2.596-1.125 4.931-2.941 6.489-6.164 6.468-12.09 13.086-18.169 19.705-1.038-9.3-2.293-18.537-3.006-27.859-.389-5.839 0-11.745 0-17.65l-.562-.368z"/></svg>