<svg xmlns="http://www.w3.org/2000/svg" xml:space="preserve" width="300" height="300" fill-rule="evenodd" stroke-linejoin="round" stroke-miterlimit="2" clip-rule="evenodd" viewBox="0 0 496 248"><path fill-rule="nonzero" d="M133.4 1.2c-.7.6-5 1.4-9.5 1.6a867 867 0 0 0-46.7 4.3 769 769 0 0 1-48.7 3.3c-26.7.8-31 1.8-27.4 6.3 3 3.6 20.8 12 25.6 12.2 2.3 0 6 1 8.1 2.3 2.2 1.3 6.7 2.3 10 2.3s7.8 1 10.3 2 8.1 2 12.5 2.1S81 39 87.6 40s18.5 1.7 26.4 1.3c9.9-.5 15.7 0 18.5 1.3 5.4 2.7 22.3 21.5 22.3 24.7 0 1.4 2.5 5 5.6 8s5.6 6.4 5.6 7.6c0 1.3 2.9 5.2 6.4 8.7l6.4 6.5-1 12.2c-1.3 19.8-3.4 23-15 22.5-5.5-.2-31 4.6-42.4 8C70 155.6 41.4 174.4 29 201c-7.7 16.5-6.8 19.8 3.5 11.7 3.3-2.6 6.7-4.8 7.5-4.8s3.5-1.4 5.8-3 7.2-3.9 10.9-4.8c3.6-1 7.5-2.9 8.5-4.2 1.1-1.3 4-2.4 6.3-2.4s5.7-1 7.4-2.3a12 12 0 0 1 5.5-2.4c1.4 0 5.3-1.5 8.8-3.1q12.3-5.8 40-8.2c8-.6 17-2 20-3 21.2-7 33.9 2.3 29.8 21.7-.8 3.6.1 5.8 4.4 10.8l5.4 6.4 6.5-2.2c7.9-2.6 11-1.6 13.4 4.3 9.6 24 11 26.6 13 24.6 2.7-2.7 3.9-2.2 5 2.2 1.2 4.8 5 5.3 6.2.8 1-4.1 3.8-4.1 5.1 0 1.2 3.7 4 4.3 4 .8 0-3.2 3-3 4.3.1.8 2 1.7 1.8 5.3-1.7l4.4-4.2 2 5.3c1.7 4.7 2 5 3.1 2.1.7-1.8 3.2-3.5 5.9-4 4.3-.7 5-2 10.5-18.4l5.8-17.6h7c12.5 0 22.3-9.4 19.2-18.4-3.7-10.4 10.9-16.8 28.3-12.3 5.8 1.5 14.2 2.7 18.5 2.7s10.1.7 12.8 1.5a226 226 0 0 0 25 6c3 .5 7 2 8.7 3.1s4.3 2.2 5.6 2.2 5.4 1.4 8.8 3.2 7.6 3.2 9 3.2 6.2 1.8 10.4 4 8.4 4 9.4 4 3.2 1.4 4.8 3.2 3.6 3.2 4.4 3.2 3.4 1.5 5.6 3.3q9 6.8 3.6-8.1c-3.2-8.8-12.6-24-14.8-24-.6 0-3.1-2.2-5.6-5a144 144 0 0 0-25.3-19c-.4 0-4.5-1.9-9-4.1a160 160 0 0 0-43.7-12.9 57 57 0 0 1-10.4-3.4 83 83 0 0 0-28-5.3c-11.4.4-13-1.7-14.1-18.8-1-14-.8-15.9 2.2-19.5 1.8-2.2 4.5-6 6-8.6s5.4-7.1 8.7-10.2c3.3-3.2 6-7 6-8.6s4.5-7.5 10-13.2l10-10.4 27.1-1.8c15-1 28.5-2.5 30.2-3.5s5.6-1.2 8.6-.8c3 .5 8.4-.1 12-1.4s9.1-2.3 12.3-2.3 7.6-1.1 9.8-2.4 5.8-2.3 7.9-2.3a73 73 0 0 0 25.8-12.2c3.7-4.5-.7-5.5-27.4-6.3-14.4-.5-36.4-2-48.7-3.3a2380 2380 0 0 0-66-6l-13-.9-4.5 5.9a216 216 0 0 1-11.3 13 202 202 0 0 0-18 21c-14.5 19.1-27 27.5-31 21-.9-1.4-14.2-4.4-25-5.6-5.7-.7-24.8 2.6-32.3 5.5-5.7 2.3-13.5-2.4-19.7-11.8a163 163 0 0 0-29.9-36.7L155 0h-10.2c-5.6 0-10.8.5-11.4 1.2m159 150.3c10 5.9 10.9 19 1.5 23.8-18.1 9.3-41-8.3-25.1-19.5 10.9-7.8 16.1-8.8 23.6-4.3m-76.5 2.9c4.7 2.2 9.5 4 10.6 4 7.2 0 8.3 7.8 2 14-9.3 9.4-27.7 8.8-30.4-1-4.8-17 2.5-24.1 17.8-17m37.3 23.7a68 68 0 0 1 7.2 22.9c0 3.2-.7 3.4-12.4 3.2l-12.4-.2.2-4.8c1-20.5 10.3-31.9 17.4-21.1"/></svg>