<svg width="300" height="300" xmlns="http://www.w3.org/2000/svg" viewBox="0 0 32 32"><path d="M13.59 31.967c-.238-.047-.453-.171-.511-.293-.083-.176-.092-.822-.02-1.436.083-.71.127-4.155.06-4.768-.067-.614-.131-.866-.617-2.437-.604-1.949-.805-2.478-1.338-3.525q-.484-.95-.87-1.282c-.427-.367-.407-.462.396-1.948.322-.595.539-1.159.635-1.651.032-.164.102-.67.156-1.124.11-.935.13-1.016.318-1.302.242-.367.644-.612 1.36-.828.539-.163.778-.2 1.748-.274 1.288-.098 1.638-.081 2.796.135 1.568.292 2.127.532 2.291.986.036.099.065.465.089 1.11.059 1.597.126 1.86.842 3.29.518 1.036.605 1.236.658 1.524.051.275-.011.514-.216.845-.093.15-.239.418-.324.596-.176.368-2.067 6.288-2.205 6.903-.084.375-.086.443-.086 2.636 0 2.183-.002 2.255-.077 2.382-.096.164-.263.227-.608.231-.348.004-.47-.062-.587-.317-.089-.195-.092-.234-.132-1.911a73 73 0 0 0-.081-2.289c-.052-.741-.321-2.715-.403-2.951a1.2 1.2 0 0 0-.205-.342c-.125-.141-.17-.164-.361-.19-.7-.095-1.285.212-1.572.825-.234.5-.233.484-.26 3.851l-.025 3.078-.092.186c-.149.302-.34.376-.761.293zm3.314-10.665a8 8 0 0 1 .052-1.352c.107-1.017.112-1.022.951-1.023.592-.001.849-.048 1.137-.209.221-.124.297-.207.327-.358.039-.196-.036-.211-.821-.165-1.123.066-1.345.117-1.441.33-.024.052-.071.094-.105.094-.113 0-.227.113-.327.325l-.099.209v1.176c0 1.454.054 1.342-.631 1.323-.438-.012-.482-.02-.63-.118-.122-.081-.169-.144-.204-.269-.078-.288-.11-.648-.111-1.265-.001-.495-.012-.61-.061-.651s-.071-.038-.125.016c-.057.057-.067.185-.078 1.055-.014 1.078.016 1.351.158 1.451.069.048.251.058 1.057.058h.974zm-1.915-2.323c.008-.024-.037-.064-.1-.09a.5.5 0 0 1-.292-.317c-.041-.121-.074-.138-.732-.378-.408-.149-1.297-.145-1.449.007-.102.102-.077.225.064.302.063.035.122.097.129.138.023.127.122.203.366.281.352.114.33.112 1.195.106.552-.004.809-.019.819-.048zM11.846 29.98c-.553-.094-1.475-.453-1.905-.741-.215-.145-.658-.554-1.476-1.364-1.644-1.63-1.947-1.989-2.478-2.946-.496-.893-.536-1.023-.935-3.039-.455-2.297-.454-2.287-.454-3.059 0-.747.016-.863.305-2.238.251-1.193.339-1.47.585-1.835.179-.267 1.894-2.734 2.224-3.199.256-.361.562-.697 1.029-1.129.83-.766 1.298-1.063 2.382-1.511.871-.36 1.261-.492 1.915-.649 1.141-.274 2.222-.38 3.187-.312.676.048.729.057 2.122.37 1.52.341 1.793.442 2.718 1.006.774.472 1.19.806 2.079 1.67 1.019.99 1.32 1.348 1.606 1.915.181.359 1.392 3.168 1.478 3.43.15.458.199.779.275 1.827.085 1.166.097 1.986.035 2.427-.047.34-.535 2.411-.657 2.786-.245.759-.97 2.204-1.36 2.712-.291.379-2.341 2.406-2.597 2.568-.649.411-1.372.624-1.863.551-.27-.04-.272-.056-.272-1.811 0-1.674.004-1.72.274-2.943.19-.861.343-1.42.512-1.878.149-.402 1.328-3.062 1.448-3.267.169-.289.462-.607.802-.872.593-.463.584-.616-.067-1.109-1.023-.773-1.208-1.02-1.481-1.973-.265-.922-.284-1.069-.311-2.366-.026-1.277-.039-1.353-.265-1.591-.141-.149-.171-.163-1.506-.707-1.59-.647-1.538-.636-2.889-.655-1.555-.023-1.66-.007-3.957.609-1.01.27-1.368.468-1.564.864-.07.14-.076.242-.081 1.268-.005 1.109-.027 1.356-.157 1.77-.073.232-.594 1.396-.727 1.625-.166.286-.462.609-.816.892-.389.311-.543.506-.572.727-.047.351.107.586.948 1.45.653.67 1.02 1.122 1.261 1.551.157.28.958 2.127 1.147 2.646.187.512.299.952.536 2.1.325 1.578.353 2.119.172 3.34-.086.583-.178.883-.314 1.029-.078.084-.135.094-.337.06zm15.949-10.464a.54.54 0 0 1-.333-.291q-.077-.152-.285-1.397c-.266-1.593-.395-2.119-.87-3.557-.666-2.012-.696-2.059-2.49-3.85-.733-.732-1.439-1.411-1.57-1.51-.871-.66-2.458-1.402-3.667-1.716-1.026-.266-1.179-.289-1.943-.287-.648.001-.761.013-1.751.183-1.573.27-1.856.356-3.463 1.045-1.629.699-2.03.911-2.749 1.454-.42.317-2.393 2.277-2.695 2.678-.38.504-.627 1.026-1.038 2.197-.749 2.131-.831 2.435-.904 3.342-.03.373-.06.524-.139.699-.197.438-.34.5-1.162.502-1.049.002-2.393-.266-2.393-.477 0-.101.462-.336 1.179-.601.515-.191.707-.307 1.046-.634.498-.481.499-.484 1.319-2.944.567-1.701.742-2.271.755-2.464.02-.286-.032-.534-.337-1.601-.3-1.049-.516-1.373-1.328-1.987-.588-.444-.654-.505-.614-.569.09-.146 1.47.108 2.075.382.461.209.862.533 1.052.85.139.232.397.454.574.494.34.076.669-.058 1.491-.607.276-.184.745-.48 1.041-.658.787-.471 1.226-.953 1.422-1.564.123-.383.383-.628.667-.628.063 0 .215.046.337.102.173.079.302.106.581.121.472.025.703-.025 1.514-.324 1.241-.458 1.591-.684 1.713-1.108.062-.214.062-.248.002-.554a5 5 0 0 0-.191-.657c-.322-.84-.347-1.322-.1-1.963C14.856.8 15.672-.108 15.984.012c.08.031.072.327-.014.553a3.4 3.4 0 0 1-.265.48c-.322.491-.352.828-.129 1.457.194.547.919 2.232 1.029 2.392.225.325.691.666 1.065.779.103.031.665.144 1.25.252 1.773.326 1.887.367 2.371.864.17.174.439.402.597.508.582.386 2.114 1.286 2.289 1.346.324.11.396.066 1.249-.772.877-.861 1.072-1.027 1.363-1.161.267-.122.754-.149.855-.048.09.09.048.196-.59 1.474-.767 1.536-.984 1.888-1.253 2.039-.065.036-.062.059.046.377.063.186.726 1.736 1.473 3.443l1.358 3.104.289.292c.364.369.62.496 1.27.63.77.159 1.323.289 1.383.327.255.159-.766.69-1.787.928-.671.157-1.845.295-2.038.241z"/></svg>