<svg xmlns="http://www.w3.org/2000/svg" viewBox="0 0 300 300"><path d="M109.383 9.514c-.716 1.726-2.346 3.825-3.622 4.662s-3.3 3.452-4.498 5.815c-1.198 2.361-3.762 6.977-5.7 10.26s-4.013 7.894-4.608 10.248c-.596 2.355-1.738 5.897-2.535 7.868-7.798 19.248-7.008 60.489 1.22 63.616 9.854 3.746 11.394 10.172 2.439 10.172-7.403 0-25.304-14.718-31.301-25.734-3.135-5.759-2.61-18.552 1.051-25.629 2.007-3.882 1.907-9.001-.189-9.806-2.292-.88-14.729 11.98-14.747 15.25-.008 1.3-.848 5.025-1.863 8.279-1.386 4.441-1.654 7.255-1.076 11.273a648 648 0 0 1 1.467 10.991c.391 3.172 1.733 7.206 3.07 9.224 4.6 6.946 5.118 8.961 2.932 11.385-3.171 3.518-17.996 1.054-21.891-3.639-.728-.879-1.876-1.597-2.552-1.597-5.426 0-19.054-18.745-20.973-28.847-2.3-12.107-3.288-12.739-5.236-3.36-4.139 19.937 9.041 56.332 23.768 65.629 2.155 1.362 3.921 2.868 3.921 3.349 0 .789 3.441 3.432 11.154 8.572 4.763 3.175 15.493 1.314 15.493-2.685 0-2.411 10.288-7.859 13.457-7.126 7.467 1.727 15.914 4.723 17.655 6.26 3.363 2.972 7.832 10.723 7.832 13.588 0 3.424 3.654 14.154 5.544 16.287 1.648 1.857 3.663 8.633 3.68 12.37.007 1.409.491 4.291 1.078 6.404l1.066 3.843h5.689c6.845 0 10.703 3.289 13.037 11.113.782 2.624 2.389 6.619 3.573 8.879 2.46 4.704 2.779 6.682 3.797 23.563.948 15.75 6.847 25.144 19.964 31.789 11.709 5.932 30.841-12.816 29.352-28.761-.802-8.582 1.529-23.958 4.316-28.465 1.189-1.925 2.167-4.6 2.17-5.941.021-9.326 5.359-14.721 11.448-11.57 4.777 2.469 6.354-.207 8.817-14.953.845-5.054 2.239-10.386 7.1-27.161 4.905-16.925 31.975-23.618 40.279-9.96 2.259 3.714 7.931 4.841 11.725 2.331 10.426-6.904 20.395-16.941 22.104-22.256.695-2.163 1.924-4.692 2.733-5.618s2.331-4.385 3.386-7.686c1.054-3.3 2.621-7.846 3.48-10.1 1.078-2.83 1.577-7.968 1.608-16.587.069-18.93-2.729-23.537-4.553-7.498-1.74 15.312-17.761 30.731-33.812 32.539-8.125.915-9.682-6.417-3.296-15.514 1.842-2.621 2.085-4.608 2.136-17.422.083-20.33-3.518-28.631-16.648-38.361l-3.206-2.377-1.242 2.726c-1.102 2.42-.981 2.924 1.078 4.478 3.28 2.474 6.626 15.309 5.77 22.141-2.406 19.245-16.902 37.407-29.856 37.407-10.594 0-10.259-10.494.408-12.776 4.332-.926 4.862-2.139 6.305-14.382.664-5.637 1.406-11.517 1.648-13.066s.02-3.929-.495-5.285c-.514-1.356-1.464-6.314-2.108-11.017-.643-4.703-2.034-10.627-3.093-13.164-1.056-2.536-2.366-7.15-2.911-10.248-1.597-9.089-11.972-29.092-16.055-30.953-1.269-.58-2.787-2.038-3.369-3.243-1.434-2.96-1.658 4.153-.248 7.862 1.171 3.081 4.658 29.61 4.539 34.53-.22 9.057-2.372 19.687-5.123 25.294-2.617 5.332-2.931 7.057-2.968 16.268-.047 11.961-1.746 15.912-10.908 25.365-8.34 8.607-8.979 10.024-7.344 16.328 3.754 14.47-1.897 21.816-13.882 18.043-3.867-1.219-5.46-1.26-8.82-.227-16.556 5.082-26.029-4.137-19.713-19.189 1.93-4.602 1.165-9.009-2-11.498-2.529-1.991-8.902-10.925-12.184-17.088-1.324-2.489-2.1-6.772-2.531-13.986-.551-9.232-.921-10.758-3.3-13.586-5.774-6.861-5.843-42.221-.117-59.452 2.371-7.141-.091-14.552-2.725-8.196l-.002.002.008.005zm79.445 180.224c1.673 5.277-7.719 14.407-14.825 14.407-2.047 0-2.246-.375-1.69-3.161 1.744-8.719 14.55-17.44 16.515-11.244v-.001zm-60.19 1.954c10.012 10.583 9.708 16.754-.489 9.888-4.975-3.349-8.337-8.503-6.98-10.697 1.073-1.737 5.514-1.257 7.468.81v-.001zm29.951 19.565c1.434 3.461-.286 10.71-2.379 10.029-1.905-.623-3.05-7.054-1.816-10.225 1.409-3.626 2.637-3.567 4.196.196zm.502 40.172c.277 8.863-.961 25.28-1.98 26.302-1.835 1.833-2.681-2.971-2.78-15.77-.061-7.845-.469-15.233-.909-16.425-.548-1.484-.272-2.694.878-3.843 2.979-2.98 4.489.09 4.791 9.736h.002zm10.063 6.698c-.843 9.309-2.501 11.963-4.384 7.013-1.689-4.444-1.28-16.113.662-18.887l1.692-2.416 1.417 2.704c1.089 2.078 1.23 4.761.614 11.585v.002zm-22.23-11.808c1.166 1.884 1.366 15.364.294 19.573-2.716 10.642-4.703-1.954-3.071-19.472.149-1.607 1.811-1.668 2.777-.1z"/></svg>