<svg xmlns="http://www.w3.org/2000/svg" viewBox="0 0 300 300"><path d="M31.706 215.559c2.044 1.481 3.769 3.431 5.906 4.097 2.569.806 3.844 2.016 4.181 4.584.103.731.703 1.472 1.256 2.034.281.3 1.144.469 1.425.253 2.091-1.528 4.519-2.841 6.056-4.828 3.928-5.109 8.175-9.881 13.059-14.081 2.897-2.484 5.888-4.819 8.034-8.081 1.416-2.147 3.066-4.125 4.716-6.103.919-1.087 2.119-1.931 3.066-3.009a8.4 8.4 0 0 0 1.556-2.597c.113-.3-.619-1.303-1.013-1.331-6.975-.384-13.247-2.822-19.303-6.141-2.044-1.116-4.566-1.359-6.675-2.344-2.063-.975-4.444-1.753-4.931-4.659-.141-.816-1.228-1.725-2.091-2.147-4.153-2.072-7.678-4.622-9.178-9.366-.591-1.866-1.866-3.516-2.841-5.269-2.644-4.762-5.353-9.478-7.847-14.316-.591-1.163-.506-2.672-.666-4.041-.441-3.731.337-7.416.478-11.109.188-4.941.084-9.881.075-14.822 0-.609-.047-1.369-.384-1.819-1.163-1.538-.441-2.784.384-4.069 2.513-3.956 5.025-7.903 7.537-11.859.169-.272.441-.506.478-.787.666-4.05 3.769-6.338 6.441-8.953 1.425-1.397 2.766-2.897 4.069-4.416 2.644-3.15 6.047-5.137 9.712-6.862 3.956-1.866 7.706-4.153 12.047-5.156 1.116-.253 2.184-.975 3.131-1.669 1.594-1.172 3.356-1.191 5.184-1.162 1.753.028 3.516.019 5.269.028 1.922.019 3.853-.225 5.587 1.041.563.412 1.444.581 2.156.525 3.563-.272 6.9.759 10.322 1.453 1.088.225 2.231.272 3.347.328 1.978.084 4.022-.253 5.794 1.041.244.169.638.328.891.253 3.075-.872 5.55.975 8.016 2.119 2.203 1.012 4.041 2.897 5.888 4.566a193 193 0 0 1 8.306 7.875c1.95 1.959 4.303 3.619 5.072 6.581.422 1.641 2.203 2.541 3.881 2.259 1.847-.309 2.934-1.538 3.047-3.319.272-4.013.328-8.016.506-12.028.084-2.006.328-4.013.328-6.019 0-1.284-.309-2.569-.469-3.759-1.641.197-3.019.366-4.406.553-.3.047-.675.103-.844.3-1.594 1.875-3.703 1.369-5.616 1.013-.863-.159-1.922-1.097-2.213-1.931-.272-.731.253-1.866.694-2.7.759-1.472 1.706-2.822 2.569-4.238.394-.637.816-1.256 1.191-1.903a705 705 0 0 0 3.938-7.303c.675-1.256 1.359-2.503 1.988-3.769 1.697-3.413 3.347-6.834 5.044-10.247 2.7-5.438 5.419-10.875 8.119-16.313 1.069-2.175 2.091-4.387 3.159-6.581.216-.441.562-1.003.956-1.116 1.819-.506 1.781-1.866 1.669-3.272-.188-2.316.647-4.106 2.4-5.634 1.012-.9 1.725-2.147 2.672-3.15.309-.328 1.097-.647 1.369-.478 2.1 1.313 4.181 2.484 4.828 5.362.694 3.103 1.931 6.084 1.622 9.366-.028.225.056.506.188.703 2.1 3.122 2.728 6.722 3.534 10.294.919 4.069 2.203 8.053 3.516 12 1.397 4.237 2.962 8.419 4.575 12.581.787 2.044 2.044 3.928 2.766 5.991.928 2.672 1.697 5.419 2.231 8.194.309 1.641.075 3.375.075 5.072 0 3.037-1.116 4.331-4.153 4.716-.553.075-1.125.056-1.697.056h-5.081c.216 4.819.412 9.534.591 14.25.047.928-.056 1.875-.056 2.813 0 .872-.075 1.781.131 2.597.338 1.359 1.584 1.791 2.569.787 1.481-1.5 3.047-2.653 5.156-3.188.759-.197 1.528-.947 1.987-1.641 2.906-4.331 7.416-6.441 11.934-8.372 5.944-2.559 12.384-2.925 18.694-3.956 7.903-1.303 15.347-.112 22.744 2.363.413.141.844.244 1.275.366 2.559.731 4.856 1.556 7.078 3.403 3.713 3.094 8.222 5.241 12.225 8.006 1.641 1.125 2.991 2.766 4.247 4.35 1.622 2.063 2.906 4.406 4.556 6.441 1.087 1.359 1.875 2.794 1.622 4.434-.413 2.616 1.059 4.134 2.906 5.184 2.203 1.247 2.784 3.047 3.122 5.353.731 4.959 1.753 9.881 2.644 14.822.103.553.3 1.125.225 1.669-.787 6.338-1.041 12.825-2.672 18.947-1.087 4.097-4.05 7.706-6.309 11.466-1.978 3.272-4.106 6.45-6.253 9.628-.666.956-1.472 1.95-2.428 2.569-8.541 5.522-17.184 10.875-27.038 13.809-.113.047-.244.075-.356.141-3.206 1.922-6.553 3.094-10.406 2.953-1.875-.075-2.569 1.959-1.256 3.412a40.5 40.5 0 0 0 10.875 8.541c2.372 1.284 4.519 3.441 6.084 5.691 2.297 3.3 5.081 5.606 8.878 6.778.188.056.413.028.553.131 2.991 2.297 4.931.131 6.994-1.622.647-.553 1.387-1.012 2.006-1.594.272-.253.441-.703.478-1.088.084-.619-.019-1.256.028-1.875.169-2.541 1.359-4.041 3.262-4.153 2.428-.141 4.022 1.275 4.847 3.534.984 2.681 2.419 5.194 3.6 7.819.666 1.472 1.247 2.981 1.809 4.491.9 2.456 1.697 4.969 2.7 7.397.366.872 1.069 1.734 1.847 2.287 3.572 2.531 5.109 6.366 6.834 10.134a207 207 0 0 0 4.603 9.534c.759 1.472 1.988 2.7 2.728 4.181.591 1.2.816 2.597 1.059 3.928.816 4.575 2.766 8.681 4.931 12.741.309.563.525 1.725.244 1.95-.534.441-1.706.806-2.156.506-2.1-1.369-4.434-1.734-6.834-1.988-.338-.028-.731-.3-.947-.581-1.622-2.259-3.9-2.653-6.469-2.503a6.7 6.7 0 0 1-2.756-.413c-3.684-1.369-7.5-1.781-11.391-1.875-4.903-.113-9.788-.225-14.672-.553-7.247-.469-14.503-1.012-21.713-1.753-1.444-.141-2.784-1.275-4.125-1.931.534-1.978.975-3.788 1.556-5.531.188-.534.778-.947 1.247-1.359 1.313-1.162 2.681-2.259 3.966-3.459 1.069-.984 1.341-2.184.188-3.272a42 42 0 0 0-3.994-3.3c-3.938-2.878-7.903-5.747-11.934-8.531-1.059-.731-2.344-1.116-3.459-1.781-.45-.272-.647-.9-1.041-1.303-.534-.525-1.2-1.388-1.706-1.313-.563.075-1.425 1.031-1.425 1.612-.075 6.975-2.391 13.425-4.434 19.941-.675 2.128-1.725 4.162-2.709 6.188-.188.394-.872.609-1.369.759-.956.3-1.978.413-2.906.75-3.9 1.444-4.444 2.4-4.659 6.506-.075 1.256-1.144 2.456-1.284 3.741-.216 1.988-1.359 3.3-2.503 4.716-2.072 2.588-5.1 3.619-7.978 4.688-2.156.806-4.275 1.303-5.522 3.506-.338.581-1.116 1.012-1.781 1.284-7.388 3.066-14.944 5.447-22.941 6.3-3.984.422-7.922 1.163-11.888 1.706a11.6 11.6 0 0 1-2.794.075c-1.753-.197-3.478-.759-5.213-.759-6.581 0-11.878-3.563-17.569-6.084-1.866-.834-3.984-1.125-5.831-1.959-2.156-.975-4.547-1.762-5.072-4.734-.141-.816-1.256-1.678-2.119-2.119-4.153-2.091-7.641-4.659-9.178-9.375-.647-1.978-1.95-3.769-3.075-5.559-3.15-4.969-6.253-9.966-7.987-15.656-.281-.919-.113-1.978-.216-2.962-.141-1.359-.225-2.738-.553-4.069-.112-.45-.863-1.031-1.341-1.041-.497-.019-1.069.506-1.481.928-.806.806-1.472 1.734-2.259 2.559-1.331 1.369-2.672 2.738-4.078 4.022-.478.441-1.191.891-1.791.919-3.413.103-5.025 1.538-4.941 4.931.047 1.453.581 2.897.806 4.35.197 1.247.112 2.559.422 3.759.225.844.778 1.706 1.397 2.344 1.331 1.341 1.922 2.813 1.2 4.584-.694 1.734-2.1 2.288-3.909 2.363-1.144.047-2.269.478-3.403.722-1.275.281-2.541.553-3.816.844-.834.197-1.65.45-2.475.647-1.444.356-2.906.647-4.331 1.059-1.481.413-2.991.806-4.416 1.397-2.063.863-4.013 2.034-6.113 2.813-1.312.478-2.813.666-4.219.666-6.084.019-12.188.019-18.253-.225-2.953-.113-5.55.525-8.006 2.072-1.359.844-2.616 1.228-4.35.469-1.528-.666-3.431-.469-5.166-.694-.694-.084-1.369-.253-2.044-.384.169-.891.169-1.875.581-2.625.553-1.012 1.622-1.762 2.147-2.794 4.097-8.034 8.203-16.05 12.113-24.187 3.328-6.938 6.591-13.922 9.516-21.056 1.116-2.738 2.962-4.903 4.247-7.425 1.172-2.297 1.622-4.969 2.363-7.481.272-1.031.506-2.062.731-2.953zm223.857-79.471c.216-17.737-13.781-32.728-31.416-33.206-14.063-.384-24.328 6.506-31.697 18.056-1.416 2.213-2.597 4.819-3.038 7.369-.562 3.356-.272 6.862-.394 10.303-.028.919-.028 1.931-.412 2.738-1.191 2.531-1.369 5.166-.366 7.65 1.228 3.047 2.625 6.113 4.463 8.822 2.119 3.122 4.472 6.244 8.616 7.059.441.084.844.506 1.2.834 1.191 1.097 2.241 2.391 3.562 3.319 2.184 1.556 4.444 3.019 7.369 2.841 1.5-.103 3.009.244 4.5.141 2.531-.169 5.409.366 7.331-1.641s4.275-2.7 6.722-3.431c14.372-4.247 23.175-16.903 23.569-30.862zm-141.704 91.743c.253 2.616.281 5.269.844 7.809.834 3.759 2.034 7.425 3.131 11.128.9 3.075 1.894 6.113 4.359 8.372 1.2 1.097 2.475 2.119 3.647 3.244 4.791 4.631 10.463 7.388 16.997 8.625 17.738 3.328 36.684-10.884 36.684-29.841 0-4.556-.056-9.159-2.428-13.331-1.041-1.847-2.184-3.731-2.813-5.728-1.725-5.634-5.138-9.816-10.209-12.675-1.172-.666-2.428-1.331-3.731-1.594-3.675-.778-7.416-.581-11.184-1.425-4.266-.947-9.206-1.538-13.528 1.097-.441.272-1.116.328-1.641.253-2.85-.384-5.128 1.041-7.641 2.062-5.906 2.391-8.484 7.397-11.1 12.591-1.556 3.066-1.059 6.225-1.416 9.403zm-55.153-98.812c-1.284 5.466 1.397 10.406 4.819 15.009 1.922 2.588 4.603 4.603 6.497 7.2 1.894 2.616 4.378 4.238 7.059 5.719 1.087.609 2.203 1.509 3.347 1.556 4.912.197 9.853.834 14.737-.553 1.894-.534 3.928-.563 5.888-.778 2.391-.253 5.1.534 7.05-1.313 3.563-3.403 7.144-6.834 10.247-10.631 1.837-2.241 3.206-4.988 2.784-8.334-.337-2.644.113-5.363.028-8.044-.141-4.153.084-8.372-2.419-12.131-1.125-1.697-1.706-3.731-2.737-5.503-1.556-2.709-3.019-5.522-4.987-7.922-3.6-4.388-8.034-7.791-13.753-8.981-18.487-3.844-35.709 10.022-38.531 28.434-.272 1.837-.028 3.759-.028 6.272z"/></svg>