<svg xmlns="http://www.w3.org/2000/svg" viewBox="0 0 300 300"><path d="M21.151 17.851c-7.087 4.523-14.747 9.327-17.019 10.671C.205 30.85.004 32.447.004 61.736c0 34.189.764 36.301 14.956 41.25 12.202 4.257 25.073 23.419 30.758 45.799l3.501 13.78-5.986 15.396c-3.293 8.466-8.667 20.208-11.935 26.092-3.275 5.884-6.536 11.9-7.25 13.375s-.245 5.595 1.045 9.16c3.155 8.731.089 19.725-7.544 27.04-3.225 3.091-5.866 6.912-5.866 8.493s-2.787 7.213-6.196 12.528c-9.669 15.069-9.986 14.991 59.57 15.035 32.155.022 96.105.301 142.106.623 95.699.667 98.96.079 86.605-15.624-2.113-2.683-4.4-7.862-5.085-11.514-.844-4.496-3.067-7.708-6.916-9.983-8.87-5.242-11.425-16.404-5.943-25.934 5.649-9.82 5.442-11.988-2.294-23.831-23.77-36.38-21.069-77.873 6.201-95.244 21.102-13.444 20.407-11.7 20.174-50.853-.312-52.87 14.728-47.78-140.982-47.727l-124.877.044-12.892 8.227zm157.781 7.739c-.009 1.338-7.014 10.01-15.559 19.277-19.903 21.567-22.314 36.008-2.786 16.71 16.695-16.504 27.444-24.634 34.985-26.476 4.23-1.027 10.505-3.005 13.937-4.387 12.332-4.962 7.013 7.508-7.51 17.609-9.04 6.289-16.239 15.492-13.922 17.805 1.182 1.182 4.473-.683 9.037-5.114 3.945-3.836 12.199-9.3 18.335-12.145a2502 2502 0 0 0 12.62-5.876c4.71-2.28.145 7.025-7.404 15.097-7.918 8.466-9.072 10.89-10.842 22.772-1.086 7.315-2.786 14.816-3.782 16.675-6.174 11.563 1.144 11.448 7.579-.114 8.75-15.714 10.51-5.248 3.353 19.944-1.539 5.423-4.755 17.204-7.143 26.18-4.224 15.87-4.654 16.558-15.667 25.109-12.72 9.88-11.71 6.103-12.549 47.069-.662 32.591-4.806 41.085-24.687 50.591l-12.018 5.745-9.836-4.056c-14.672-6.051-18.381-14.17-18.374-40.216.006-14.534-.846-21.681-3.096-26.027-2.239-4.327-2.731-8.44-1.783-14.763 1.474-9.828-.237-12.036-9.371-12.084-5.858-.031-20.754-13.389-20.754-18.61 0-1.484-2.25-7.618-4.997-13.631-4.405-9.633-4.842-12.465-3.688-23.883 1.767-17.483 10.635-30.91 10.635-16.114 0 18.511 9.09 9.546 10.037-9.899.804-16.521 8.639-28.762 18.412-28.762 5.202 0 8.152-2.749 15.554-14.495 5.774-9.16 6.521-9.624 18.644-11.669 4.561-.768 8.727-3.153 11.344-6.49 6.006-7.667 21.348-11.813 21.3-5.764zm-5.749 110.869c-13.963 14.175-11.121 18.135 7.813 10.881 13.375-5.122 17.134-9.414 12.395-14.148-5.075-5.075-13.304-3.747-20.208 3.27zm-72.07-.855c-6.402 5.182-3.708 10.525 7.847 15.571 20.046 8.754 27.156 2.836 12.444-10.354-10.635-9.529-13.92-10.372-20.291-5.215zm45.186 25.357c-6.87 4.352-5.195 15.857 2.309 15.857 8.467 0 10.932-4.083 6.841-11.335-3.153-5.589-5.577-6.789-9.145-4.523zm-8.709 44.849c-7.245 7.057-9.272 15.201-7.283 29.261 2.688 19.014 7.294 20.856 17.31 6.905 7.109-9.9 8.036-10.296 11.425-4.861 5.752 9.212 10.179 3.592 10.179-12.931 0-14.939-7.496-24.572-12.642-16.247-2.099 3.397-4.75 2.109-6.011-2.918-1.558-6.215-6.069-5.943-12.978.791"/></svg>