<svg width="300" height="300" xmlns="http://www.w3.org/2000/svg" xml:space="preserve" fill-rule="evenodd" stroke-linejoin="round" stroke-miterlimit="2" clip-rule="evenodd" viewBox="0 0 512 512"><path fill-rule="nonzero" d="M109.38 2.254C44.214 13.176 16.304 43.102 3.718 115.546c-4.924 28.341 6.85 65.58 27.824 88.005 11.91 12.733 56.38 45.615 69.663 51.51 8.412 3.733 8.156 5.444-2.277 15.118-32.573 30.195-39.061 42.806-49.027 95.31-5.837 30.758-2.168 43.997 20.536 74.139 30.753 40.822 65.948 66.08 96.396 69.172 5.424.55 14.3 1.719 19.727 2.596 23.66 3.828 71.22-11.108 88.007-27.635 34.717-34.184 44.443-70.313 36.527-135.693-1.516-12.518-2.464-23.084-2.108-23.475.357-.394 10.684 1.799 22.95 4.87 52.399 13.125 76.103 11.713 114.011-6.801 33.452-16.335 47.836-36.197 56.325-77.781 2.554-12.52 5.334-25.835 6.18-29.59 6.385-28.404-20.117-78.138-63.725-119.581-16.133-15.333-48.293-27.625-66.208-25.307l-28.832 3.722c-23.63 3.048-33.511 6.7-57.778 21.359-14.533 8.777-17.414 8.99-19.326 1.436-8.227-32.523-18.938-48.14-51.835-75.59-14.818-12.365-24.367-17.353-38.034-19.88-12.294-2.273-57.98-1.773-73.335.803zm74.531 126.767c24.987 7.589 32.892 25.533 22.005 49.95-6.958 15.607-15.74 20.361-40.598 21.988l-14.416.944-5.595-4.716c-17.454-14.719-17.493-43.57-.075-58.906 16.168-14.236 19.598-15.057 38.677-9.261zm74.08 25.373c5.484.944 21.873 5.812 36.42 10.821 14.544 5.01 27.509 9.107 28.81 9.108 5.923.002 7.867 4.37 18.796 42.3 7.132 24.751 10.457 38.565 9.365 38.912-9.096 2.894-57.948 10.021-65.125 9.506l-8.803-.637-17.481-17.349c-9.613-9.54-23.631-23.982-31.149-32.092l-13.67-14.743 4.892-9.939c4.234-8.598 5.11-12.474 6.491-28.75l1.598-18.813 9.941 4.98c5.468 2.74 14.432 5.751 19.918 6.693zm-42.597 70.978c7.093 7.974 18.94 21.09 26.33 29.146 20.245 22.073 19.782 18.035 6.868 60.254-13.837 45.234-10.62 41.781-30.942 33.207-9.168-3.869-22.62-9.325-29.894-12.126-16.117-6.208-20.12-8.727-22.284-14.033-1.757-4.3-8.87-72.435-9.444-90.432l-.335-10.46 19.608-4.932c27.565-6.933 25.068-7.517 40.096 9.376z"/></svg>