<svg xmlns="http://www.w3.org/2000/svg" width="300" height="300" viewBox="0 0 300 300"><title>factions-chaos-horns-of-hashut</title><path d="M142.2 281.878c-7.762-10.538-15.337-23.653-18.291-31.05-2.775-7.022-7.209-17.372-9.797-22.912s-7.022-15.891-9.975-23.1c-2.775-7.022-5.728-13.678-6.656-14.597-.741-1.106-1.481-3.328-1.481-4.988 0-1.847-3.694-7.387-8.128-12.75-4.434-5.175-9.422-13.303-11.269-18.112-3.694-10.537-4.434-12.009-13.678-31.969-5.175-10.903-9.609-17.559-14.409-21.441-3.881-3.141-8.869-7.209-11.269-9.244-3.328-2.588-4.434-6.094-5.916-18.3-.928-8.128-2.222-17.006-2.775-19.584C26.334 45.515 55.725 6.15 64.04 6.15c1.106 0 .366 3.328-1.659 7.388-5.728 11.269-7.95 29.016-4.987 37.697 3.516 9.797 8.681 13.116 31.228 19.031 19.031 4.987 20.325 5.175 66.347 4.8 26.428-.187 51.375-1.294 57.291-2.587 13.856-2.775 23.466-8.316 26.428-15.337 3.516-8.128 3.328-49.341-.188-53.588-4.987-6.094-.928-4.247 10.903 4.622 7.022 5.363 13.116 11.644 14.597 15.15 4.247 9.797 7.575 23.841 7.575 31.791 0 14.231-9.244 40.659-19.031 54.15-8.869 12.384-23.466 41.578-23.466 47.128 0 2.4-.741 4.988-1.659 6.103-2.775 2.953-11.269 27.534-11.269 32.522 0 5.541-4.069 15.337-19.406 48.6-3.328 7.209-7.209 15.703-8.316 19.031-1.294 3.328-4.069 7.575-6.281 9.244-2.034 1.847-5.175 5.363-6.656 8.128-4.622 7.95-15.15 19.959-17.559 19.959-1.294 0-8.316-8.128-15.712-18.112zm23.841-41.025c3.881-4.069 9.244-11.831 11.831-17.006 12.563-26.428 19.594-41.953 21.619-48.6 1.481-4.069 4.434-11.644 6.834-17.006 2.4-5.175 4.247-10.35 4.247-11.269s1.294-4.247 2.953-7.397c3.516-7.022 5.175-22.547 2.4-22.547-.928 0-1.481-.741-.741-1.659.553-1.106-.741-3.516-2.953-5.362-3.328-3.141-7.762-3.881-34.369-4.987-16.819-.741-36.956-.741-44.719 0-7.762.928-17.184 1.659-21.253 2.034-3.881.366-8.681 2.034-10.716 3.881-3.328 2.953-3.516 4.8-2.4 17.184.741 9.422 2.588 15.891 5.362 20.325 2.222 3.516 6.469 12.384 9.244 19.406 2.953 7.209 6.834 14.231 8.681 15.703 1.659 1.481 4.434 8.869 6.094 16.266 4.622 20.7 20.878 48.422 28.275 48.422 1.294 0 5.541-3.328 9.609-7.388z"/></svg>