<svg xmlns="http://www.w3.org/2000/svg" viewBox="0 0 300 300"><path d="M200.072 260.713V246.87c.544-8.467-.544-9.904-7.923-9.012h-1.894c-8.794 7.357-20.395 6.486-30.19 10.688-2.742 1.871-6.116 2.981-9.751 2.981a17.44 17.44 0 0 1-10.97-3.874l.043.021c-6.987-5.05-18.718-2.699-27.273-8.337-2.851-1.894-7.532-1.023-11.34-1.349 0 3.33 1.023 6.661 1.11 9.969v23.768c0 1.501-1.589 2.851-2.373 4.288-1.132-.718-2.786-1.175-3.178-2.133-3.417-7.923-10.295-17.5-6.029-25.423s0-11.95-4.44-15.824-9.12-7.117-13.712-10.688c-12.059-9.207-20.46-20.112-18.414-36.523 0-.523-.022-1.153-.022-1.785a135.5 135.5 0 0 1 3.352-29.929l-.173.914c3.81-10.927-1.894-22.724-6.573-33.346-2.96-7.226-4.658-15.606-4.658-24.4a66.7 66.7 0 0 1 2.96-19.655l-.13.457c4.07-14.496 10.121-27.164 17.957-38.548l-.261.435c5.398-8.141 12.45-14.757 20.721-19.48l.305-.152C106.632 7.417 130.356-.005 155.8-.005c2.525 0 5.006.066 7.509.218l-.348-.021c6.182.523 11.884 1.828 17.238 3.853l-.435-.152c14.714 4.745 27.425 10.447 39.332 17.37l-.957-.5c16.215 10.6 27.512 27.512 30.472 47.145l.043.391a39.8 39.8 0 0 0 2.155 7.662l-.109-.261c2.307 5.877 3.635 12.69 3.635 19.807a55.9 55.9 0 0 1-6.53 26.293l.152-.305c-2.089 4.07-3.962 8.837-5.332 13.821l-.131.523a15.4 15.4 0 0 0-.739 4.702c0 2.155.435 4.222 1.262 6.073l-.043-.109c7.944 11.318 5.943 23.768 5.463 36.109-.196 8.858-1.764 17.261-4.527 25.14l.152-.566a63 63 0 0 1-11.252 15.062c0 .391-1.349 0-1.807.544-7.553 4.331-13.996 9.599-19.437 15.78l-.066.087c-3.417 5.398-1.501 14.039-2.525 21.156-1.002 6.464-2.33 12.102-4.027 17.586l.239-.871c0 1.501-1.98 2.612-3.026 3.874a19.2 19.2 0 0 1-1.719-5.268l-.021-.131v-13.8l-.348-.5zm-79.293-78.575c0 2.525-.871 5.006-1.132 7.444 0 6.268-3.113 13.625-.632 18.457 6.116 10.579 12.755 19.741 20.221 28.144l-.152-.196s7.944-3.09 7.944-5.311c.675-4.679 1.044-10.078 1.044-15.563 0-2.742-.109-5.463-.305-8.162l.022.348c-1.044-20.678-4.832-24.247-25.14-25.118h-1.98c1.349-2.133 2.133-4.832 3.961-6.182 3.57-2.525 7.944-3.483 7.944-9.664s-4.201-7.923-7.944-11.797c-14.671-13.625-32.191-11.579-49.561-11.188-1.502 0-3.961 1.437-4.288 2.612v.284c0 1.828.718 3.483 1.916 4.702 7.923 8.401 16.869 16.324 24.725 25.118 4.005 4.484 9.817 7.291 16.281 7.291 2.634 0 5.181-.457 7.487-1.328l-.152.043-.261.066zm92.135-39.049c-14.517-2.786-26.011 4.832-36.567 14.105-2.372 1.959-3.896 4.897-3.896 8.205s1.501 6.247 3.874 8.184l.021.021a55.6 55.6 0 0 0 9.164 6.595l.261.152c2.742 1.153 5.92 1.828 9.294 1.828a24.4 24.4 0 0 0 15.824-5.811l-.043.021c5.245-7.379 10.534-15.867 15.236-24.704l.609-1.262c.805-1.349-1.676-6.029-3.744-6.987-1.589-.348-3.439-.523-5.311-.523a26.6 26.6 0 0 0-4.593.391l.175-.022-.305-.196zm-29.187 57.898c.109-1.546.196-3.33.196-5.136s-.066-3.613-.196-5.398l.021.239c-1.045-6.182-5.245-7.923-11.275-7.923s-12.841-.632-14.844 6.355c-2.612 9.185.871 19.023-3.656 28.601-1.98 3.962 1.676 10.927 3.483 15.824.414 1.262 5.006 2.612 5.55 2.067 5.072-5.702 9.294-12.45 14.757-17.674 4.004-3.286 6.53-8.25 6.53-13.8 0-1.11-.109-2.22-.305-3.265l.021.109h-.284z"/><path d="M135.298 252.093c1.916 1.437 5.332 2.612 5.55 4.201 1.676 13.386-1.349 27.251 4.288 40.31v.152a3.57 3.57 0 0 1-1.632 3.004h-.022c-.805 0-2.373-.718-3.243-1.501-10.143-8.706-15.846-32.323-10.382-43.01.718-1.11 3.243-1.807 5.463-3.156zm49.952-4.439c3.026 1.741 6.813 2.764 6.9 4.114.632 7.139 6.682 13.3 1.262 21.701-3.809 6.029-3.156 14.887-11.427 18.457-.632-6.334-1.501-12.668-1.741-19.023-.196-2.917-.305-6.334-.305-9.73s.109-6.834.327-10.208l-.021.457c.391-1.828 3.113-3.483 5.006-5.79v.021zm-67.17 1.435c.632.957 3.33 3.809 2.851 4.506-7.923 11.318 0 22.267.544 33.346a15.6 15.6 0 0 1-1.937 5.224l.043-.066c-1.589-1.045-3.896-1.828-4.593-3.33-3.265-6.268-6.53-13.821-9.229-21.592l-.348-1.219a12.7 12.7 0 0 1-.305-2.83c0-7.379 5.681-13.451 12.907-14.039h.066zm55.046 20.416c.131 1.132.218 2.46.218 3.765 0 8.467-3.09 16.215-8.162 22.18l.043-.043-3.026 4.593c-.632-1.741-1.98-3.57-1.807-5.224.544-7.923 1.676-15.28 2.372-22.985 0-3.004 1.349-6.813 0-9.098-3.874-6.725 1.132-7.923 5.332-9.012 1.023 0 3.744 3.962 4.506 6.573.435 1.98.653 4.288.653 6.616 0 .936-.043 1.85-.109 2.764v-.131h-.021z"/></svg>