<svg width="300" height="300" xmlns="http://www.w3.org/2000/svg" xml:space="preserve" fill-rule="evenodd" stroke-linejoin="round" stroke-miterlimit="2" clip-rule="evenodd" viewBox="0 0 23 20"><path fill-rule="nonzero" d="M3.064 2.801v.178h-.18C2.787 2.979.16 5.14.035 5.14c-.045 0-.045.132 0 .132.227 0 .09.186 2.12 1.9l.843-.308h.377v.155c0 .062-.315.62-.22.775.194.32 1.392 2.29 3.355 3.272l-.177.487v.31h.156c1.061 0 1.366 2.96 3.447 2.96h.332v.31l-.176.532v.221h.155c.16 0 .128.052.9 1.053 3.005-2.727 4.01-4.63 6.193-1.185.898 1.417 2.084 1.374 1.945 1.945-.372 1.528-.224 2.315 1.24 1.727 1.971-.792.975-1.699.975-2.277v-.465h.155l.31-.177h.156v-.53c0-.714-.135-.68-.787-.998l-1.009.475c-2.004-1.753-2.505-1.377-3.446-3.896-.197-.529-.586-.195-4.99-4.991-.277-.303-3.22-3.508-3.293-3.947l-.017-.077C8.53 2.297 7.298.848 6.66 0"/></svg>