<svg xmlns="http://www.w3.org/2000/svg" width="300" height="300" viewBox="0 0 300 300"><title>factions-order-cities-of-sigmar</title><path d="M107.1 208.622c-1.303 1.069-2.484 2.269-3.863 3.131-5.644 3.534-11.287 7.069-17.044 10.425-8.681 5.072-17.438 10.012-26.578 15.234-.816-1.922-2.016-4.059-2.634-6.356-.816-3.028-2.606-3.891-5.241-2.784-6.572 2.756-13.059 5.737-19.613 8.569a11.2 11.2 0 0 1-4.819.928c8.766-12.403 19.481-22.669 30.6-33.422 1.303 2.691 2.456 4.819 3.384 7.041 1.303 3.103 3.441 4.341 6.028 2.306 4.8-3.778 9.216-8.072 13.528-12.384.75-.759.591-2.85.263-4.172-.572-2.25-1.772-4.331-2.438-6.572-.928-3.122-1.781-6.291-2.316-9.497-.441-2.597-1.913-3.544-4.247-3.778-15.263-1.472-30.516-2.869-45.759-4.444-7.613-.797-15.197-1.856-22.762-2.972-1.266-.188-2.391-1.303-3.581-2.006l.197-1.05c5.531-.956 11.034-2.194 16.603-2.841 14.363-1.65 28.753-2.972 43.116-4.594 4.05-.459 8.006-1.678 12.047-2.203 3.159-.403 4.828-2.175 5.766-4.941.75-2.213 1.603-4.425 2.025-6.712.197-1.069-.188-2.606-.9-3.403-3.384-3.75-6.844-7.416-10.509-10.884-2.616-2.466-4.116-1.856-5.213 1.641-1.387 4.406-2.981 4.828-6.347 1.781-12.103-10.969-24.244-21.919-36.169-33.647 2.419.984 4.903 1.828 7.256 2.953 7.753 3.713 15.422 7.594 23.203 11.259 3.469 1.641 5.606.328 6.478-3.431.394-1.697 1.012-3.347 1.819-5.934 9.403 5.466 18.15 10.416 26.737 15.609 3.141 1.903 5.466 2.147 7.959-1.013 2.044-2.597 4.809-4.631 6.9-7.2.891-1.097 1.5-3.122 1.134-4.416a333 333 0 0 0-6.534-20.4c-.403-1.144-2.147-2.484-3.328-2.522-1.725-.066-3.619.684-5.184 1.575-3.834 2.156-4.884 1.641-6.056-2.737-2.728-10.237-5.653-20.428-8.456-30.656-.422-1.509-.544-3.112-.797-4.678l1.125-.675c2.466 3.309 4.997 6.563 7.378 9.928 2.25 3.197 4.294 6.553 6.534 9.759 2.344 3.356 5.334 1.275 7.584.178 3.159-1.537 4.594-1.012 5.916 2.184.984 2.334 2.878 4.275 4.256 6.469 3.909 6.244 7.631 12.609 11.691 18.741 3.216 4.847 4.191 4.969 9.666 3.066.816-.281 1.687-.356 2.55-.534 6.366-1.378 7.341-3.038 8.213-9.403 1.791-13.097 3.909-26.166 6.216-39.178 1.697-9.591 3.891-19.088 5.888-28.613.178-.825.459-1.631 1.537-2.588.825 3.441 1.762 6.863 2.456 10.331 2.494 12.562 4.913 25.144 7.359 37.716.9 4.613 1.659 9.244 2.662 13.838.919 4.209 1.641 8.559 3.328 12.459.947 2.184 3.422 4.444 5.7 5.175 7.903 2.55 7.913 2.269 11.972-5.194 4.575-8.4 9.253-16.744 13.95-25.069 1.162-2.063 2.559-1.294 3.862-.037 1.678 1.622 3.384 3.216 5.053 4.847 2.222 2.175 4.106 1.847 5.737-.722 4.762-7.472 9.469-14.972 14.325-22.378 1.387-2.119 3.234-3.937 4.875-5.887.394.244.806.478 1.2.722-5.541 17.241-11.072 34.472-16.941 52.725-1.866-2.006-3.159-3.206-4.238-4.584-2.381-3.047-5.316-3.009-6.937.497-2.184 4.688-4.209 9.469-5.784 14.372-.478 1.5.272 3.863 1.266 5.269 1.528 2.184 3.741 3.881 5.653 5.784 4.172 4.125 4.003 3.834 9.188.844 8.934-5.156 18.094-9.9 27.778-15.15 1.125 3.056 2.091 5.409 2.878 7.819 1.162 3.497 3.019 4.172 6.141 2.559 5.897-3.047 11.888-5.897 17.869-8.775 2.859-1.369 5.775-2.606 8.691-3.909-.703 3.75-22.209 25.088-33.572 33.356-.216-.075-.544-.094-.656-.253-4.144-6.066-4.088-5.991-10.341-1.762-2.644 1.781-5.569 3.15-8.353 4.734-4.275 2.438-5.034 4.359-3.525 9.066.675 2.109 1.453 4.181 2.25 6.253 1.481 3.816 4.912 4.697 8.391 5.166 14.325 1.913 28.697 3.45 42.984 5.634 8.137 1.238 16.125 3.45 24.459 5.887-2.194.675-4.331 1.631-6.563 1.997-7.434 1.228-14.897 2.241-22.341 3.384-10.341 1.575-20.738 2.944-31.013 4.884-4.5.844-9.253 2.138-13.05 4.556-4.463 2.85-5.053 8.503-6.141 13.406-.188.825 1.041 2.194 1.912 2.972 3.563 3.225 7.228 6.337 10.875 9.469 2.006 1.725 3.591 1.097 4.875-.938 1.097-1.734 2.138-3.497 3.544-5.794 11.531 9.422 22.65 18.516 33.769 27.6-.206.431-.422.844-.638 1.275-.994-.272-2.063-.384-2.962-.834-4.116-2.091-8.175-4.303-12.272-6.394-1.087-.553-2.344-.769-3.441-1.313-4.941-2.494-9.028-.947-10.941 4.181-2.241 6.047-3.291 6.141-9.122 2.803-6.525-3.713-13.519-6.609-20.016-10.341s-12.684-8.006-18.863-12.253c-.656-.45-.844-2.522-.403-3.431 1.959-4.078 4.594-7.856 6.272-12.037 1.716-4.247 2.691-8.822 3.834-13.284.544-2.128.703-4.359 1.041-6.544.131-.844.572-1.734.441-2.541-1.791-10.969-2.269-22.359-10.256-31.341-3.816-4.294-6.947-9.291-11.184-13.088-4.847-4.341-10.894-6.806-17.109-9.188-10.022-3.844-20.091-2.644-30.038-1.716-14.437 1.35-26.372 8.025-35.138 19.941-9.216 12.534-13.706 26.381-11.588 41.925 1.491 10.894 5.55 20.859 12.544 29.503.281.338.516.769 1.078 1.65zm108.572-39.019c2.494 1.35 3.928 2.672 5.409 2.728.9.028 2.775-2.081 2.606-2.878-.262-1.256-1.95-3.141-2.944-3.094-1.406.075-2.747 1.659-5.072 3.244zm-130.603-.909c.019-.469.037-.938.066-1.416-1.191-.722-2.419-2.062-3.572-1.997-1.172.075-2.269 1.528-3.394 2.372 1.097 1.078 2.053 2.738 3.319 3.019.994.225 2.372-1.256 3.581-1.969zm102.347-63.122c-1.35 1.809-2.972 3.263-2.709 3.778.647 1.275 2.025 2.456 3.375 2.934.478.178 2.484-1.819 2.419-2.728-.084-1.116-1.575-2.147-3.075-3.984zm-75.085 5.812c-.019.469-.056.928-.075 1.397 1.266.881 2.55 2.428 3.787 2.409 1.05-.019 2.063-1.884 3.103-2.934-1.003-.9-1.931-2.409-3.009-2.513-1.2-.131-2.541 1.031-3.806 1.641m101.007 90.253c-2.147-1.35-3.291-2.634-4.256-2.513-1.012.122-2.522 1.556-2.587 2.494-.066.956 1.406 2.869 2.147 2.831 1.219-.056 2.381-1.322 4.697-2.803zm-121.079 8.879c1.528-2.119 3.122-3.384 2.963-4.369-.178-1.144-1.913-2.053-2.963-3.066-.844 1.013-2.278 1.969-2.381 3.056-.103 1.05 1.144 2.231 2.381 4.387zm118.294-79.707c-1.462 1.875-2.934 2.944-2.916 3.984.019.947 1.566 2.391 2.634 2.597.741.15 2.541-1.388 2.578-2.231.066-1.125-1.134-2.316-2.297-4.35zm-116.7 3.46-1.444.028c-.656 1.097-1.959 2.325-1.781 3.262.197.994 1.725 2.156 2.841 2.372.628.113 2.231-1.547 2.231-2.409.009-1.078-1.181-2.175-1.847-3.253m60.928-32.41c-1.838-.984-2.944-2.053-3.75-1.866-.975.216-1.678 1.537-2.503 2.372.834.731 1.734 2.1 2.503 2.034 1.041-.094 2.006-1.284 3.75-2.541z"/><path d="M186.928 142.509c-.572 4.059-3.281 6.328-5.138 9.009-2.016 2.916-4.416 5.559-6.3 8.55-2.634 4.144-4.491 4.969-8.719 2.634a47.3 47.3 0 0 1-7.838-5.456c-4.594-3.956-9.656-6.272-15.834-5.953-4.041.206-8.109 3.347-9.197 7.303-1.734 6.319-.628 10.631 3.694 13.059 1.266.713 3.056.938 4.519.741 5.231-.675 10.2-.309 15.356 1.209 6.197 1.828 12.403 3.478 17.212 7.941 8.475 7.866 11.953 19.969 4.509 31.35-2.184 3.328-4.997 5.194-8.419 7.191-6.75 3.938-13.716 3.169-20.794 3.075-2.597-.028-5.194-.103-7.8 0-3.6.15-6.881 0-9.994-2.522-2.869-2.325-6.703-3.441-9.694-5.653-2.409-1.781-4.35-4.294-6.159-6.731-.516-.675-.272-2.775.384-3.328 3.656-3.056 7.566-5.803 11.325-8.747 1.781-1.406 2.794-1.819 4.191.722 4.453 8.1 15.666 13.537 24.788 12.403 6.675-.834 11.822-10.219 8.353-15.947-4.313-7.097-10.903-11.531-19.153-12.413-5.897-.628-12.15-1.397-17.344 3.253-.666.609-3.413-.056-4.369-.975-12.347-11.869-12.094-24.666-1.275-38.756 3.759-4.903 8.784-7.659 14.728-9.853 9.966-3.675 17.991-.019 26.156 4.509 6.234 3.45 13.05 3.45 19.847 3.628.703 0 1.425-.122 2.962-.244z"/></svg>