<svg xmlns="http://www.w3.org/2000/svg" width="300" height="300" viewBox="0 0 300 300"><title>factions-destruction-bladeborn-da-kunnin-krew</title><path d="M141.362 2.805C113.136 7.217 90.703 24.799 67.22 60.907c-6.458 9.927-13.77 18.607-15.675 18.607-2.456 0-17.167-4.079-30.135-8.352-4.576-1.507-8.393-2.67-8.481-2.582-1.117 1.117 7.194 10.501 29.476 33.285 9.376 9.589 17.051 17.651 17.051 17.919s-1.234 4.257-2.742 8.871c-5.433 16.614-5.372 17.221 2.014 19.894 18.783 6.797 32.003 17.481 41.255 33.342 1.588 2.721 4.427 7.588 6.311 10.813 7.095 12.156 9.593 13.14 12.852 5.058 2.337-5.797 5.436-10.526 13.965-21.306.887-1.12.438-1.616 6.136 6.782 10.588 15.613 12.813 15.851 20.14 2.146 7.083-13.241 9.482-12.321 22.162 8.487 7.745 12.707 7.923 12.602 20.764-11.914 11.419-21.802 12.296-22.662 30.022-29.45 17.344-6.642 17.823-7.365 15.107-22.861-2.346-13.366-1.608-14.967 15.362-33.353 23.25-25.189 27.224-30.192 25.424-31.991-1.429-1.427-5.175-.07-22.82 8.268-14.133 6.681-15.516 7.235-16.237 6.487-.875-.905-4.934-7.712-8.8-14.746-18.604-33.877-42.335-53.316-73.675-60.354-4.695-1.055-21.159-1.8-25.329-1.15h-.006zM93.885 107.508c17.133 5.855 26.419 13.38 29.072 23.563 2.496 9.575-2.939 12.884-13.152 8-14.902-7.124-29.865-18.022-31.279-22.786-3.067-10.32 2.14-13.295 15.361-8.78l-.001.001zm128.845-.775c5.719 4.232 2.426 11.495-9.241 20.391-3.619 2.756-22.487 16.283-23.897 17.129-.548.329-5.012-6.158-7.18-10.439-4.462-8.802-.298-15.451 13.482-21.514 12.956-5.705 23.654-7.923 26.835-5.569v.001zM.006 118.972c.006.53.291 3.081.639 5.666 1.068 7.946 2.647 21.24 5.339 44.91 4.67 41.053 7.419 57.901 11.159 68.311 2.803 7.807 3.788 12.526 4.249 20.392 1.395 23.648 7.793 25.001 15.404 3.255 11.406-32.584 27.164-24.926 39.598 19.248 5.419 19.25 12.456 22.521 13.436 6.244 1.835-30.525 24.682-34.661 33.158-6.006 4.432 14.993 9.35 16.402 10.202 2.926.448-7.031 2.548-12.116 7.322-17.739 5.931-6.976 6.083-9.157 2.332-33.413-4.051-26.215-7.836-33.926-11.135-22.689-1.624 5.532-4.334 9.961-9.353 15.287-3.347 3.551-5.907 7.288-8.193 11.948-5.132 10.477-8.948 7.421-13.873-11.091-5.483-20.614-16.767-47.477-19.945-47.477-1.188 0-4.021 9.193-6.327 20.529-5.225 25.687-10.233 33.821-16.521 26.841-9.271-10.294-29.59-48.049-45.976-85.437-3.248-7.41-6.606-14.996-7.455-16.859-2.363-5.15-4.086-7.211-4.066-4.847l.006-.001v-.001zm297.585 6.63c-.893 1.005-8.612 19.683-9.946 24.06-.623 2.045-5.752 13.22-9.552 20.807-3.756 7.502-4.955 9.751-12.054 22.605-1.949 3.53-5.947 11.13-8.886 16.895-6.061 11.886-6.9 13.233-9.943 15.969-4.68 4.208-8.521 2.746-8.55-3.252-.009-2.387-1.724-7.157-3.563-9.925-3.592-5.408-5.133-10.116-5.603-17.13-.663-9.872-2.108-12.905-5.595-11.75-6.663 2.2-17.414 26.351-23.319 52.39-3.695 16.287-8.089 13.896-19.876-10.811-11.177-23.427-13.387-25.527-16.29-15.498-.936 3.232-1.59 6.907-4.451 25.023-.744 4.706-1.927 11.344-2.636 14.756-2.33 11.25-2.184 11.988 3.011 15.613 4.983 3.475 6.889 6.855 8.844 15.675 3.138 14.162 9.384 12.186 10.452-3.307.413-5.97 1.336-8.362 4.248-10.993 3.087-2.793 9.403-5.439 12.967-5.439 7.857 0 17.019 15.882 17.019 29.505 0 12.973 7.107 2.463 15.878-23.469 6.581-19.465 9.274-22.901 19.693-25.141 9.454-2.032 12.425 2.693 18.523 29.456 3.503 15.374 9.345 8.338 12.854-15.484 1.317-8.951 3.586-19.414 5.61-25.871 7.214-23.041 13.525-66.762 13.576-94.102.02-10.527-.484-12.75-2.399-10.588l-.005.009zm-157.214 19.8c3.271 1.494 5.373 9.796 3.325 13.155-2.774 4.549-14.643 3.641-16.357-1.255-.82-2.341 6.9-11.111 10.594-12.037 1.356-.342 1.407-.338 2.44.137zm25.805.229c7.308 3.468 9.323 12.642 3.144 14.309-5.339 1.438-8.078-1.079-8.078-7.432 0-6.663 1.366-8.569 4.93-6.877h.005z"/></svg>