<svg xmlns="http://www.w3.org/2000/svg" viewBox="0 0 300 300"><path d="M42.673 264.338c-6.984-9.572-17.072-22.238-22.238-28.191C4.404 217.528.007 199.424.007 152.352c0-40.603 2.588-56.898 9.056-56.898 1.809 0 8.016-5.428 13.444-12.15l10.341-11.897 4.913 8.016c3.881 6.984 6.206 8.278 14.484 8.278 5.428 0 9.825.263 9.825.778 0 .263-1.809 10.341-3.881 22.5s-3.881 30.254-3.881 40.341v18.619l20.944 34.397c11.381 19.134 22.5 36.469 24.572 38.795 3.103 3.619 2.841 4.912-2.841 10.088-5.944 5.428-6.469 7.5-4.912 17.841 1.547 10.603 1.294 11.381-3.103 9.309-8.278-3.619-23.531-4.659-25.341-1.556-3.619 5.691-8.531 2.325-20.944-14.484zm19.398-36.722c0-4.134-1.547-8.016-3.103-8.794-5.175-1.809-12.413 3.103-12.413 8.278 0 6.206 2.325 8.016 9.572 8.016 4.913 0 5.944-1.294 5.944-7.5m-26.383-44.485c1.031-7.762-5.691-11.897-11.381-7.237-4.397 3.619-4.659 8.016-.516 12.159 4.913 4.912 11.119 2.325 11.897-4.913zm-5.69-63.104c-.778-2.325-3.619-3.881-5.944-3.366-5.691 1.031-7.762 9.825-2.841 12.675 4.659 2.841 11.119-3.881 8.794-9.309z"/><path d="M233.017 237.441c-9.572-3.366-19.65-4.659-31.032-4.397-9.309.516-24.309-1.031-33.356-3.103-13.191-3.103-18.103-3.103-27.15-.262-19.134 5.691-22.237 5.944-31.547 4.397-8.278-1.556-11.119-4.659-24.047-24.309-24.047-37.238-27.928-56.12-20.175-100.079 4.397-25.087 18.619-51.461 41.634-77.064 15.778-17.587 19.397-18.366 19.397-3.619 0 10.087 5.428 19.397 19.134 32.841l11.897 11.381 25.341.262c22.237 0 26.119.778 33.104 5.944 12.675 9.572 24.825 11.119 48.357 6.469 19.65-4.134 20.691-4.134 24.047.516 2.072 2.587 3.619 8.016 3.619 11.897 0 3.619 1.809 8.278 3.881 10.088 2.841 2.325 3.881 8.794 3.881 24.572 0 21.469-1.294 29.738-5.175 29.738-1.031 0-2.587-3.619-3.619-8.016-1.809-9.572-8.794-9.572-13.706.262-1.809 3.881-5.175 6.206-7.5 5.691-11.119-2.325-26.897 11.634-26.897 23.531 0 5.944 10.866 7.5 16.294 2.588 4.397-4.134 4.659-4.134 6.206 1.294 1.809 7.5 5.428 7.237 14.222-1.294 9.047-8.531 11.634-6.469 7.762 6.722-1.809 5.428-3.103 13.444-3.103 17.841 0 9.572-16.809 28.97-25.341 28.97-2.841 0-6.722.516-8.794 1.031-1.809.778-9.572-1.031-17.325-3.881zm-20.954-139.4c0-4.397-10.603-8.531-13.706-5.428-2.325 2.325-2.072 3.619.778 5.428 5.175 3.366 12.928 3.366 12.928 0"/></svg>