<svg xmlns="http://www.w3.org/2000/svg" viewBox="3.95 2.77 24.12 26.52"><title>image2vector-2</title><path d="M16.095 2.841q0 .071-.138.072c-.146 0-.196.068-.196.267 0 .084-.026.115-.096.115-.053 0-.095.032-.095.072s-.032.072-.072.072-.072.042-.072.095q0 .095-.095.095c-.077 0-.096.032-.096.167s.018.167.096.167c.083 0 .095.032.095.239 0 .18.018.239.072.239.04 0 .072.042.072.096q0 .096.095.096c.083 0 .096.032.096.239 0 .18.017.239.072.239.06 0 .072.109.072.692s-.011.692-.072.692c-.039 0-.072.032-.072.072s-.042.072-.096.072q-.096 0-.095.096c0 .077-.032.096-.167.096s-.167-.018-.167-.096c0-.089-.032-.096-.501-.096-.414 0-.502-.013-.502-.072 0-.054-.058-.072-.239-.072-.207 0-.239-.013-.239-.096 0-.084-.032-.096-.263-.096s-.263-.012-.263-.096q0-.096-.095-.096c-.053 0-.095-.032-.095-.072 0-.05-.05-.072-.167-.072-.135 0-.167-.018-.167-.096s-.032-.096-.167-.096c-.117 0-.167-.022-.167-.072 0-.039-.032-.072-.072-.072s-.072-.042-.072-.096c0-.053-.027-.096-.06-.096q-.06 0 .012-.047c.039-.025.049-.047.021-.047s-.079.026-.114.059c-.053.049-.059.044-.035-.024.022-.061.004-.084-.065-.084q-.093 0-.094-.096c0-.077-.032-.096-.167-.096-.159 0-.167-.008-.167-.167 0-.135-.018-.167-.095-.167-.053 0-.095-.032-.095-.072 0-.05-.05-.072-.167-.072s-.167.022-.167.072-.05.072-.167.072c-.135 0-.167.018-.167.096q0 .096.096.096c.053 0 .095.032.095.072s.032.072.072.072.072.042.072.096q0 .096.095.096c.077 0 .096.032.096.167 0 .117.022.167.072.167.039 0 .072.032.072.072s.042.072.095.072c.077 0 .095.032.095.167 0 .117.022.167.072.167.04 0 .072.042.072.096q0 .096.096.096c.096 0 .095.032.095.096 0 .053.032.096.072.096s.072.032.072.072.042.072.095.072q.096 0 .096.096c0 .053.032.096.072.096s.072.032.072.072c0 .05.05.072.167.072.135 0 .167.018.167.096q0 .096.095.096c.053 0 .096.032.096.072s.032.072.072.072.072.042.072.096c0 .07.032.096.118.096s.11.02.09.072c-.021.056.011.072.145.072.14 0 .172.018.172.096q0 .096.096.096c.053 0 .095.032.095.072 0 .05.05.072.167.072.135 0 .167.018.167.096 0 .086.032.095.334.095.265 0 .334.015.334.072 0 .058.077.072.406.072.374 0 .406.008.406.095q0 .096.095.096c.083 0 .096.032.096.239 0 .18.017.239.072.239.058 0 .072.08.072.43s-.013.43-.072.43c-.05 0-.072.05-.072.167 0 .135-.018.167-.096.167-.086 0-.095.032-.095.334 0 .265-.015.334-.072.334-.055 0-.072.061-.072.263 0 .231-.012.263-.095.263-.053 0-.096.032-.096.072s-.032.072-.072.072-.072.042-.072.096c0 .088-.032.095-.43.095s-.43-.007-.43-.095c0-.077-.032-.096-.167-.096-.117 0-.167-.022-.167-.072s-.05-.072-.167-.072c-.135 0-.167-.018-.167-.096 0-.084-.032-.095-.263-.095-.202 0-.263-.017-.263-.072s-.058-.072-.239-.072c-.207 0-.239-.013-.239-.095 0-.077-.032-.096-.167-.096-.117 0-.167-.022-.167-.072q0-.071-.14-.072c-.159 0-.239-.085-.14-.148.045-.029.018-.042-.089-.042-.106-.001-.155-.024-.155-.072 0-.05-.05-.072-.167-.072-.135 0-.167-.018-.167-.096 0-.053-.032-.095-.072-.095s-.072-.032-.072-.072c0-.05-.05-.072-.167-.072-.135 0-.167-.018-.167-.095 0-.084-.032-.096-.263-.096-.202 0-.263-.017-.263-.072 0-.04-.042-.072-.096-.072q-.095 0-.095-.096c0-.077-.032-.095-.167-.095-.117 0-.167-.022-.167-.072s-.05-.072-.167-.072c-.135 0-.167-.018-.167-.095s-.032-.096-.167-.096-.167-.018-.167-.095c0-.053-.032-.096-.072-.096s-.072-.032-.072-.072c0-.05-.05-.072-.167-.072-.092 0-.167-.023-.167-.05s-.02-.039-.044-.024-.072-.038-.107-.117c-.052-.117-.092-.144-.219-.144H8.17v.334c0 .303.009.334.096.334q.096 0 .095.096c0 .077.032.095.167.095.159 0 .167.008.167.167 0 .117.022.167.072.167.039 0 .072.032.072.072s.042.072.096.072q.095 0 .095.096c0 .077.032.095.167.095.117 0 .167.022.167.072 0 .039.032.072.072.072s.072.042.072.095q0 .096.095.096c.053 0 .095.032.095.072s.032.072.072.072.072.043.072.096q0 .095.096.095c.053 0 .095.032.095.072 0 .05.05.072.167.072.135 0 .167.018.167.096q0 .096.095.095c.053 0 .096.032.096.072 0 .05.05.072.167.072.135 0 .167.018.167.095s.032.096.167.096c.117 0 .167.022.167.072 0 .039.032.072.072.072s.072.042.072.096c0 .077.032.095.167.095.117 0 .167.022.167.072s.05.072.167.072c.135 0 .167.018.167.095q0 .096.095.096c.053 0 .096.032.096.072s.032.072.072.072.072.042.072.095c0 .084.032.095.263.095s.263.012.263.096c0 .053.032.095.072.095s.072.032.072.072c0 .05.05.072.167.072.135 0 .167.018.167.096 0 .087.032.095.358.095.287 0 .358.014.358.072 0 .05.05.072.167.072.135 0 .167.018.167.095 0 .053.032.096.072.096.059 0 .072.088.072.501s-.012.501-.072.501c-.054 0-.072.058-.072.239 0 .207-.013.239-.095.239q-.096 0-.096.095c0 .053-.032.096-.072.096-.05 0-.072.05-.072.167 0 .135-.018.167-.096.167q-.096 0-.095.096c0 .091-.032.095-.669.095s-.669-.005-.669-.095-.032-.096-.669-.096-.669-.005-.669-.095c0-.088-.032-.096-.43-.096-.35 0-.43-.013-.43-.072 0-.06-.098-.072-.597-.072-.565 0-.597-.005-.597-.096 0-.088-.032-.095-.406-.095-.329 0-.406-.014-.406-.072 0-.055-.061-.072-.263-.072-.231 0-.263-.012-.263-.095 0-.077-.032-.096-.167-.096-.117 0-.167-.022-.167-.072 0-.058-.08-.072-.43-.072-.398 0-.43-.007-.43-.095 0-.077-.032-.096-.167-.096-.117 0-.167-.022-.167-.072 0-.039-.032-.072-.072-.072s-.072-.042-.072-.096q0-.096-.096-.095c-.053 0-.096-.032-.096-.072 0-.054-.058-.072-.239-.072-.207 0-.239-.013-.239-.095q0-.096-.096-.096c-.096 0-.096.032-.096.096 0 .053-.032.095-.072.095-.05 0-.072.05-.072.167s.022.167.072.167c.039 0 .072.032.072.072 0 .05.05.072.167.072.135 0 .167.018.167.096q0 .095.096.095c.053 0 .096.032.096.072 0 .05.05.072.167.072.135 0 .167.018.167.096s.032.095.167.095c.117 0 .167.022.167.072s.05.072.167.072c.135 0 .167.018.167.095 0 .053.032.096.072.096s.072.032.072.072.042.072.096.072q.096 0 .096.096c0 .077.032.095.167.095s.167.018.167.096c0 .077.032.095.167.095.117 0 .167.022.167.072 0 .04.042.072.096.072q.095 0 .095.095c0 .077.032.096.167.096.117 0 .167.022.167.072 0 .058.077.072.406.072.374 0 .406.008.406.096 0 .077.032.096.167.096.117 0 .167.022.167.072 0 .055.061.072.263.072.231 0 .263.012.263.096s.032.096.263.096c.202 0 .263.017.263.072 0 .058.077.072.406.072.374 0 .406.007.406.096 0 .086.032.096.334.096.265 0 .334.015.334.072s.077.072.394.075c.217.002.368.014.337.027s-.044.057-.029.097c.023.06.041.053.096-.039.067-.112.067-.112.045-.006-.021.102-.008.107.278.107.36 0 .607.044.571.101-.014.023.018.042.072.042.087 0 .098.029.098.263 0 .231.012.263.095.263s.096.032.096.263-.012.263-.096.263c-.077 0-.095.032-.095.167s.018.167.095.167c.083 0 .096.032.096.239 0 .18.017.239.072.239.04 0 .072.042.072.096s-.032.096-.072.096c-.054 0-.072.058-.072.239v.239h-.167c-.135 0-.167.018-.167.096 0 .084-.032.096-.263.096-.202 0-.263.017-.263.072 0 .058-.08.072-.43.072-.398 0-.43.007-.43.096 0 .09-.033.096-.561.099-.309.002-.534.015-.502.028.175.07-.008.103-.609.109-.572.005-.669-.004-.669-.067 0-.061-.075-.073-.43-.073-.398 0-.43-.007-.43-.096s-.032-.096-.501-.096c-.414 0-.502-.013-.502-.072 0-.057-.069-.072-.334-.072-.303 0-.334-.009-.334-.096 0-.084-.032-.096-.263-.096-.202 0-.263-.017-.263-.072s-.058-.072-.239-.072c-.207 0-.239-.013-.239-.096 0-.084-.032-.096-.263-.096-.202 0-.263-.017-.263-.072s-.058-.072-.239-.072c-.207 0-.239-.013-.239-.096 0-.077-.032-.096-.167-.096-.117 0-.167-.022-.167-.072 0-.055-.061-.072-.263-.072-.244 0-.284-.022-.271-.147.002-.015-.114-.032-.257-.038-.234-.009-.26-.001-.26.087 0 .055-.031.098-.072.098s-.072.032-.072.072.032.072.072.072.072.042.072.096c0 .08.032.096.191.096.138 0 .191.02.191.072 0 .039.032.072.072.072s.072.043.072.096q0 .096.096.096c.053 0 .096.032.096.072 0 .05.05.072.167.072.135 0 .167.018.167.096s.032.096.167.096c.117 0 .167.022.167.072s.05.072.167.072c.135 0 .167.018.167.096s.032.096.167.096c.117 0 .167.022.167.072s.05.072.167.072c.135 0 .167.018.167.096 0 .088.032.096.433.096.332 0 .425.014.399.06-.027.048-.021.048.031 0 .086-.08.141-.075.141.012 0 .057.069.072.334.072.302 0 .334.009.334.096 0 .077.032.096.167.096.117 0 .167.022.167.072 0 .057.069.072.334.072.303 0 .334.009.334.096s.032.096.334.096.334.009.334.096c0 .094.032.096 2.293.096h2.293v.167c0 .117.022.167.072.167.059 0 .072.088.072.501 0 .47.006.502.095.502.077 0 .096.032.096.167 0 .117.022.167.072.167s.072.05.072.167c0 .135.018.167.095.167.091 0 .095.032.095.669 0 .563.011.669.072.669.05 0 .072.05.072.167 0 .135.018.167.096.167q.095 0 .095.096c0 .053.032.096.072.096.054 0 .072.058.072.239 0 .207.013.239.095.239.084 0 .096.032.096.263 0 .202.017.263.072.263.05 0 .072.05.072.167 0 .135.018.167.096.167.053 0 .096.032.096.072s.032.072.072.072.072.042.072.096q0 .096.096.096c.053 0 .096.032.096.072s.042.072.096.072q.096 0 .096.096c0 .053.032.096.072.096s.072.042.072.096q0 .096.096.096c.086 0 .096.032.096.334 0 .265.015.334.072.334.054 0 .072.058.072.239v.239h.167c.135 0 .167.018.167.096 0 .084.032.096.263.096.202 0 .263.017.263.072 0 .039.032.072.072.072s.072.042.072.096c0 .089.032.096.501.096h.502v-.334c0-.265-.015-.334-.072-.334-.055 0-.072-.061-.072-.263 0-.231-.012-.263-.096-.263-.083 0-.096-.032-.096-.239 0-.18-.017-.239-.072-.239-.052 0-.072-.053-.072-.191 0-.159-.016-.191-.096-.191-.053 0-.096-.032-.096-.072s-.032-.072-.072-.072c-.05 0-.072-.05-.072-.167 0-.135-.018-.167-.096-.167-.088 0-.096-.032-.096-.43 0-.35-.013-.43-.072-.43-.057 0-.072-.069-.072-.334 0-.302-.009-.334-.096-.334-.089 0-.096-.032-.096-.501 0-.414-.012-.502-.072-.502-.05 0-.072-.05-.072-.167 0-.135-.018-.167-.096-.167-.091 0-.096-.032-.096-.669s.005-.669.096-.669c.077 0 .096-.032.096-.167 0-.117.022-.167.072-.167.057 0 .072-.069.072-.334 0-.302.009-.334.096-.334q.096 0 .096-.096c0-.053.032-.096.072-.096s.072-.042.072-.096q0-.096.096-.096c.053 0 .096-.032.096-.072 0-.061 2.554-.127 2.949-.075.033.004.058-.031.056-.078-.002-.051-.014-.061-.028-.026-.013.033-.044.048-.069.032-.12-.074.055-.116.485-.116.443 0 .475.006.475.096 0 .084.032.096.263.096s.263-.012.263-.096c0-.086.032-.096.334-.096.265 0 .334-.015.334-.072 0-.054.058-.072.239-.072.207 0 .239-.013.239-.096 0-.077.032-.096.167-.096.117 0 .167-.022.167-.072s.05-.072.167-.072c.135 0 .167-.018.167-.096 0-.084.032-.096.263-.096.202 0 .263-.017.263-.072 0-.05.05-.072.167-.072.14 0 .168-.017.172-.108.004-.1.007-.101.036-.012.017.053.062.102.099.11.055.012.057.001.008-.058-.05-.061-.04-.077.064-.103.068-.017.124-.061.124-.098s.043-.066.096-.066q.096 0 .096-.096c0-.077.032-.096.167-.096.117 0 .167-.022.167-.072 0-.039.032-.072.072-.072s.072-.042.072-.096q0-.096.096-.096c.053 0 .096-.032.096-.072 0-.05.05-.072.167-.072.135 0 .167-.018.167-.096 0-.053.032-.096.072-.096s.072-.032.072-.072.042-.072.096-.072q.096 0 .096-.096c0-.053.028-.096.063-.096s.092-.074.128-.165.083-.154.104-.14.04-.03.04-.098c0-.077.027-.122.072-.122.05 0 .072-.05.072-.167 0-.135.018-.167.096-.167.053 0 .096-.032.096-.072s.032-.072.072-.072c.057 0 .072-.069.072-.334v-.334h-.167c-.159 0-.167.008-.167.167 0 .117-.022.167-.072.167a.07.07 0 0 0-.072.072c0 .05-.05.072-.167.072-.135 0-.167.018-.167.096q0 .096-.096.096c-.053 0-.096.032-.096.072s-.032.072-.072.072-.072.043-.072.096q0 .096-.096.096c-.053 0-.096.032-.096.072 0 .05-.05.072-.167.072-.135 0-.167.018-.167.096 0 .053-.032.096-.072.096s-.072.042-.072.096c0 .077-.032.096-.167.096-.117 0-.167.022-.167.072s-.05.072-.167.072c-.135 0-.167.018-.167.096 0 .08-.032.096-.191.096-.138 0-.191.02-.191.072 0 .05-.05.072-.167.072-.135 0-.167.018-.167.096 0 .086-.032.096-.334.096-.265 0-.334.015-.334.072 0 .06-.096.072-.573.072-.541 0-.573.005-.573.096 0 .088-.032.096-.43.096-.35 0-.43.013-.43.072 0 .062-.155.072-1.11.072-.717 0-1.136.019-1.182.052-.059.042-.056.046.019.022.076-.025.081-.018.03.043-.096.116-.431.098-.431-.023 0-.092-.032-.096-.86-.096-.732 0-.86-.011-.86-.072a.07.07 0 0 0-.072-.072c-.059 0-.072-.088-.072-.502s.012-.501.072-.501c.052 0 .072-.053.072-.191 0-.186.004-.191.167-.191.117 0 .167-.022.167-.072s.05-.072.167-.072c.135 0 .167-.018.167-.096 0-.09.032-.096.525-.096.435 0 .525-.012.525-.072 0-.057.069-.072.334-.072.302 0 .334-.009.334-.096 0-.077.032-.096.167-.096.117 0 .167-.022.167-.072s.05-.072.167-.072c.135 0 .167-.018.167-.096s.032-.096.167-.096c.117 0 .167-.022.167-.072s.05-.072.167-.072c.135 0 .167-.018.167-.096 0-.083.032-.096.239-.096.18 0 .239-.018.239-.072 0-.05.05-.072.167-.072.135 0 .167-.018.167-.096 0-.08.032-.096.191-.096.138 0 .191-.02.191-.072 0-.039.032-.072.072-.072s.072-.042.072-.095c0-.077.032-.096.167-.096.117 0 .167-.022.167-.072 0-.04.042-.072.096-.072q.096 0 .096-.096c0-.053.032-.095.072-.095s.072-.032.072-.072c0-.05.05-.072.167-.072.135 0 .167-.018.167-.095q0-.096.096-.096c.096 0 .096-.032.096-.095 0-.053.032-.096.072-.096s.072-.032.072-.072c0-.05.05-.072.167-.072.135 0 .167-.018.167-.096 0-.084.032-.095.263-.095.202 0 .263-.017.263-.072 0-.039.032-.072.072-.072.05 0 .072-.05.072-.167 0-.135.018-.167.096-.167q.096 0 .096-.095c0-.095.032-.096.096-.096.053 0 .096-.032.096-.072s.032-.072.072-.072c.055 0 .072-.061.072-.263 0-.231.012-.263.096-.263.077 0 .096-.032.096-.167 0-.117.022-.167.072-.167.039 0 .072-.032.072-.072s.042-.072.096-.072c.084 0 .096-.032.096-.263s-.012-.263-.096-.263q-.096 0-.096.096c0 .053-.032.095-.072.095-.054 0-.072.058-.072.239v.239h-.263c-.231 0-.263.012-.263.095q0 .096-.096.096c-.053 0-.096.032-.096.072s-.032.072-.072.072-.072.042-.072.096q0 .095-.096.095c-.053 0-.096.032-.096.072s-.032.072-.072.072-.072.042-.072.095q0 .096-.096.096c-.053 0-.096.032-.096.072 0 .054-.058.072-.239.072-.207 0-.239.013-.239.096q0 .095-.096.095c-.053 0-.096.032-.096.072 0 .05-.05.072-.167.072-.135 0-.167.018-.167.096 0 .083-.032.095-.239.095-.18 0-.239.018-.239.072s-.061.072-.263.072c-.231 0-.263.012-.263.095 0 .086-.032.096-.334.096-.265 0-.334.015-.334.072 0 .05-.05.072-.167.072-.135 0-.167.018-.167.096 0 .087-.251.139-.49.101-.02-.003-.033.01-.03.03.02.129-.021.155-.244.155-.18 0-.239.018-.239.072 0 .06-.109.072-.692.072-.661 0-.692.004-.692.095 0 .088-.032.096-.406.096-.329 0-.406.014-.406.072s-.069.072-.334.072-.334-.015-.334-.072c0-.04-.043-.072-.096-.072-.088 0-.096-.032-.096-.43s.007-.43.096-.43c.077 0 .096-.032.096-.167 0-.117.022-.167.072-.167.04 0 .072-.042.072-.095 0-.077.032-.096.167-.096.117 0 .167-.022.167-.072 0-.055.061-.072.263-.072.231 0 .263-.012.263-.095 0-.086.032-.096.334-.096.265 0 .334-.015.334-.072 0-.05.05-.072.167-.072.135 0 .167-.018.167-.096s.032-.095.167-.095c.117 0 .167-.022.167-.072 0-.055.061-.072.263-.072.231 0 .263-.012.263-.095 0-.077.032-.096.167-.096.117 0 .167-.022.167-.072 0-.039.032-.072.072-.072s.072-.043.072-.096c0-.077.032-.095.167-.095.117 0 .167-.022.167-.072 0-.04.042-.072.096-.072q.096 0 .096-.095c0-.053.032-.096.072-.096s.072-.032.072-.072.042-.072.096-.072q.096 0 .096-.095c0-.053.032-.096.072-.096s.072-.042.072-.095q0-.096.096-.095c.083 0 .096-.032.096-.239v-.239h-.263c-.202 0-.263.017-.263.072s-.058.072-.239.072c-.207 0-.239.013-.239.095 0 .077-.032.096-.167.096-.117 0-.167.022-.167.072s-.05.072-.167.072c-.135 0-.167.018-.167.095 0 .086-.032.095-.334.095s-.334.009-.334.096c0 .077-.032.095-.167.095-.117 0-.167.022-.167.072 0 .052-.053.072-.191.072-.159 0-.191.016-.191.096 0 .088-.032.095-.406.095s-.406-.008-.406-.095q0-.096-.096-.096c-.089 0-.096-.032-.096-.501s.006-.502.096-.502c.092 0 .096-.032.096-.764 0-.647.011-.764.072-.764.057 0 .072-.069.072-.334 0-.303.009-.334.096-.334.092 0 .096-.032.096-.764s-.004-.764-.096-.764c-.077 0-.096-.032-.096-.167s.018-.167.096-.167c.083 0 .096-.032.096-.239s-.013-.239-.096-.239c-.086 0-.096-.032-.096-.334 0-.265-.015-.334-.072-.334-.055 0-.072-.061-.072-.263 0-.231-.012-.263-.096-.263-.09 0-.096-.032-.096-.597 0-.499-.012-.597-.072-.597-.05 0-.072-.05-.072-.167 0-.135-.018-.167-.096-.167-.087 0-.124-.079-.099-.211.005-.024-.025-.016-.066.018-.066.055-.074.031-.074-.207s-.011-.268-.096-.268-.096-.032-.096-.334c0-.265-.015-.334-.072-.334-.04 0-.072-.042-.072-.096q0-.095-.096-.095c-.053 0-.096-.032-.096-.072 0-.059-.088-.072-.501-.072s-.502.013-.502.072z"/></svg>