<svg xmlns="http://www.w3.org/2000/svg" viewBox="7.43 4.72 17.08 22.6"><title>image2vector</title><path d="M15.846 4.8c0 .084-.029.088-.614.088-.516 0-.614.01-.614.066 0 .051-.056.066-.241.066-.212 0-.241.011-.241.088 0 .079-.029.088-.307.088s-.307.008-.307.088-.029.088-.307.088c-.244 0-.307.014-.307.066 0 .046-.046.066-.153.066-.124 0-.153.017-.153.088s-.029.088-.153.088c-.107 0-.153.02-.153.066s-.046.066-.153.066c-.124 0-.153.017-.153.088q0 .088-.088.088c-.049 0-.088.029-.088.066 0 .046-.046.066-.153.066-.124 0-.153.017-.153.088 0 .049-.029.088-.066.088s-.066.03-.066.066-.039.066-.088.066q-.088 0-.088.088c0 .049-.029.088-.066.088s-.066.03-.066.066c0 .04-.041.066-.106.066-.084 0-.101.018-.083.088q.025.09-.048.088c-.039 0-.071.03-.071.066s-.039.066-.088.066q-.088 0-.088.088c0 .088-.029.088-.088.088-.049 0-.088.029-.088.066s-.03.066-.066.066c-.046 0-.066.046-.066.153 0 .124-.017.153-.088.153q-.087 0-.088.088c0 .049-.029.088-.066.088s-.066.03-.066.066-.039.066-.088.066c-.08 0-.088.029-.088.329 0 .263-.013.329-.066.329-.046 0-.066.046-.066.153 0 .124-.017.153-.088.153-.076 0-.088.029-.088.219 0 .166-.016.219-.066.219s-.066.056-.066.241c0 .212-.011.241-.088.241-.083 0-.088.029-.088.548 0 .458-.011.548-.066.548s-.066.08-.066.46.011.46.066.46.066.088.066.526v.526h-.307c-.278 0-.307.008-.307.088 0 .071-.029.088-.153.088s-.153-.017-.153-.088c0-.049-.029-.088-.066-.088s-.066.039-.066.088c0 .073-.029.088-.175.088-.127 0-.175.018-.175.066 0 .036-.03.066-.066.066-.046 0-.066.046-.066.153 0 .124-.017.153-.088.153-.081 0-.088.029-.088.395s.006.394.088.394q.088 0 .088.088c0 .049.029.088.066.088s.066.03.066.066c0 .047.049.066.175.066.146 0 .175.015.175.088 0 .076.029.088.219.088.166 0 .219.016.219.066 0 .037.039.066.088.066.081 0 .088.029.088.395 0 .321.012.395.066.395.036 0 .066.03.066.066s-.03.066-.066.066c-.046 0-.066.046-.066.153v.153h-.241c-.185 0-.241-.015-.241-.066a.067.067 0 0 0-.066-.066c-.059 0-.085-.052-.071-.143.003-.018-.034-.033-.082-.033q-.087 0-.088.088c-.001.088-.029.088-.088.088-.049 0-.088.029-.088.066s-.03.066-.066.066c-.055 0-.066.1-.066.636s.01.636.066.636c.036 0 .066.03.066.066 0 .047.049.066.175.066s.175-.018.175-.066c0-.036.03-.066.066-.066s.066-.039.066-.088c0-.071.029-.088.153-.088s.153.017.153.088q0 .087.088.088c.083 0 .088.029.088.614 0 .516.01.614.066.614.036 0 .066.03.066.066s.038.066.085.066c.054 0 .09.036.1.099.008.054.039.094.069.088s.054.02.054.057c0 .04-.021.056-.051.037q-.048-.028-.019.019c.017.028.079.051.138.051.093 0 .107.02.107.153 0 .146.007.153.153.153.107 0 .153.02.153.066 0 .036.03.066.066.066s.066.039.066.088q0 .088.088.088c.079 0 .088.029.088.307s-.008.307-.088.307c-.071 0-.088.029-.088.153 0 .107-.02.153-.066.153-.036 0-.066.03-.066.066s-.039.066-.088.066c-.079 0-.088.029-.088.307 0 .244-.014.307-.066.307-.036 0-.066.039-.066.088q0 .087-.088.088c-.071 0-.088.029-.088.153 0 .126.016.153.09.153q.09 0 .083.077c-.02.2 0 .23.156.23h.153v.241c0 .212-.011.241-.088.241-.071 0-.088.029-.088.153 0 .107-.02.153-.066.153-.036 0-.066.03-.066.066s-.039.066-.088.066q-.087 0-.088.088c0 .049-.029.088-.066.088s-.066.03-.066.066-.039.066-.088.066q-.087 0-.088.088c0 .071-.029.088-.153.088-.107 0-.153.02-.153.066 0 .036-.03.066-.066.066-.046 0-.066.046-.066.153 0 .146.007.153.153.153.107 0 .153-.02.153-.066 0-.05.054-.066.219-.066.19 0 .219-.012.219-.088 0-.071.029-.088.153-.088.107 0 .153-.02.153-.066 0-.037.039-.066.088-.066q.087 0 .088-.088c0-.071.029-.088.153-.088.107 0 .153-.02.153-.066 0-.05.054-.066.219-.066.19 0 .219-.012.219-.088q0-.088.088-.088c.049 0 .088-.029.088-.066s.039-.066.088-.066q.088 0 .088-.088c0-.049.029-.088.066-.088a.066.066 0 1 0 0-.132c-.046 0-.066-.046-.066-.153 0-.124-.017-.153-.088-.153q-.088 0-.088-.088c0-.088-.029-.088-.088-.088-.071 0-.088-.029-.088-.153s.017-.153.088-.153q.088 0 .088-.088c0-.088.029-.088.088-.088.049 0 .088-.029.088-.066s.03-.066.066-.066.066-.039.066-.088q0-.087.088-.088c.049 0 .088-.029.088-.066s.03-.066.066-.066.066-.039.066-.088q0-.087.088-.088c.049 0 .088-.029.088-.066a.066.066 0 1 1 .132 0c0 .046.046.066.153.066.124 0 .153.017.153.088q0 .087.088.088c.049 0 .088.029.088.066s.03.066.066.066c.046 0 .066.046.066.153s-.02.153-.066.153c-.047 0-.066.049-.066.175 0 .146-.015.175-.088.175-.071 0-.088.029-.088.153 0 .107-.02.153-.066.153s-.066.046-.066.153c0 .124-.017.153-.088.153-.049 0-.088.029-.088.066s-.03.066-.066.066c-.05 0-.066.056-.066.241s.015.241.066.241c.036 0 .066.03.066.066s.039.066.088.066q.087 0 .088.088c0 .049.029.088.066.088s.066.03.066.066.039.066.088.066q.087 0 .088.088c0 .049.029.088.066.088s.066.03.066.066.039.066.088.066q.087 0 .088.088c0 .049.029.088.066.088a.066.066 0 1 1 0 .132c-.047 0-.066.049-.066.175 0 .146-.015.175-.088.175-.049 0-.088.029-.088.066s-.03.066-.066.066-.066.039-.066.088q0 .088-.088.088c-.071 0-.088.029-.088.153 0 .107-.02.153-.066.153s-.066.046-.066.153c0 .124-.017.153-.088.153s-.088.029-.088.153c0 .107-.02.153-.066.153-.036 0-.066.029-.066.066s-.039.066-.088.066c-.071 0-.088.029-.088.153s-.017.153-.086.153q-.085.001-.063.062c.014.037-.012.073-.067.091-.05.016-.091.057-.091.092s-.03.063-.066.063-.066.039-.066.088q0 .088-.088.088c-.049 0-.088.029-.088.066s-.039.066-.088.066c-.071 0-.088.029-.088.153 0 .15.004.153.175.153.127 0 .175-.018.175-.066 0-.036.03-.066.066-.066s.066-.039.066-.088c0-.071.029-.088.153-.088.107 0 .153-.02.153-.066 0-.037.039-.066.088-.066q.088 0 .088-.088c0-.049.029-.088.066-.088s.066-.03.066-.066.039-.066.088-.066q.087 0 .088-.088c0-.049.029-.088.066-.088s.066-.029.066-.066c0-.046.046-.066.153-.066.124 0 .153-.017.153-.088q0-.088.088-.088c.049 0 .088-.029.088-.066s.03-.066.066-.066.066-.039.066-.088c0-.071.029-.088.153-.088.107 0 .153-.02.153-.066 0-.036.039-.066.088-.066q.088 0 .088-.088c0-.049.029-.088.066-.088s.066-.03.066-.066.039-.066.088-.066q.087 0 .088-.088c0-.049.029-.088.066-.088s.066-.03.066-.066.039-.066.088-.066q.088 0 .088-.088c0-.088.029-.088.088-.088.049 0 .088-.029.088-.066s.03-.066.066-.066.066-.039.066-.088q0-.087.088-.088c.088-.001.088-.029.088-.088 0-.049.029-.088.066-.088.046 0 .066-.046.066-.153s-.02-.153-.066-.153c-.036 0-.066-.03-.066-.066s-.039-.066-.088-.066q-.088 0-.088-.088c0-.049-.029-.088-.066-.088s-.066-.03-.066-.066-.039-.066-.088-.066q-.087 0-.088-.088c-.001-.088-.029-.088-.088-.088-.049 0-.088-.029-.088-.066s-.03-.066-.066-.066-.066-.039-.066-.088q0-.088-.088-.088c-.071 0-.088-.029-.088-.153s.017-.153.088-.153c.049 0 .088-.029.088-.066s.03-.066.066-.066.066-.039.066-.088q0-.087.088-.088c.049 0 .088-.029.088-.066 0-.046.046-.066.153-.066s.153.02.153.066.046.066.153.066c.124 0 .153.017.153.088q0 .088.088.088c.049 0 .088.029.088.066a.066.066 0 1 0 .132 0c0-.046.046-.066.153-.066.124 0 .153-.017.153-.088 0-.077.029-.088.241-.088s.241.011.241.088c0 .083.029.088.614.088.516 0 .614.01.614.066 0 .036.039.066.088.066s.088-.029.088-.066c0-.05.054-.066.219-.066.19 0 .219-.012.219-.088 0-.071.029-.088.153-.088s.153.017.153.088.029.088.153.088.153-.017.153-.088.029-.088.153-.088c.107 0 .153-.02.153-.066s.046-.066.153-.066.153.02.153.066.046.066.153.066c.124 0 .153.017.153.088q0 .088.088.088c.049 0 .088.029.088.066s.039.066.088.066c.077 0 .088.029.088.241s-.011.241-.088.241c-.049 0-.088.029-.088.066 0 .046-.046.066-.153.066-.146 0-.153.007-.153.153 0 .124-.017.153-.088.153q-.088 0-.088.088c0 .071-.029.088-.153.088-.107 0-.153.02-.153.066 0 .036-.03.066-.066.066-.046 0-.066.046-.066.153s.02.153.066.153c.037 0 .066.039.066.088q0 .087.088.088c.088.001.088.029.088.088 0 .049.029.088.066.088s.066.03.066.066.039.066.088.066q.088 0 .088.088c0 .049.029.088.066.088s.066.03.066.066.039.066.088.066q.087 0 .088.088c.001.088.029.088.088.088.049 0 .088.029.088.066s.03.066.066.066.066.039.066.088q0 .088.088.088c.049 0 .088.029.088.066s.03.066.066.066.066.039.066.088c0 .071.029.088.153.088.107 0 .153.02.153.066 0 .037.039.066.088.066q.087 0 .088.088c0 .049.029.088.066.088s.066.03.066.066.039.066.088.066q.088 0 .088.088c0 .071.029.088.153.088.107 0 .153.02.153.066 0 .036.03.066.066.066s.066.039.066.088q0 .088.088.088c.049 0 .088.029.088.066s.03.066.066.066.066.039.066.088q0 .087.088.088c.049 0 .088.029.088.066 0 .05.054.066.219.066s.219-.016.219-.066a.067.067 0 0 0-.066-.066c-.046 0-.066-.046-.066-.153 0-.124-.017-.153-.088-.153q-.088 0-.088-.088c0-.049-.029-.088-.066-.088-.046 0-.066-.046-.066-.153 0-.124-.017-.153-.088-.153-.049 0-.088-.029-.088-.066s-.03-.066-.066-.066-.066-.039-.066-.088q0-.087-.088-.088c-.071 0-.088-.029-.088-.153 0-.107-.02-.153-.066-.153-.064 0-.085-.071-.067-.236.007-.064-.012-.077-.083-.059-.081.021-.091.005-.091-.147 0-.123-.018-.171-.066-.171-.036 0-.066-.03-.066-.066s-.039-.066-.088-.066c-.071 0-.088-.029-.088-.153 0-.107-.02-.153-.066-.153-.047 0-.066-.049-.066-.175 0-.146-.015-.175-.088-.175-.076 0-.088-.029-.088-.219s.012-.219.088-.219q.087 0 .088-.088c0-.049.029-.088.066-.088s.066-.03.066-.066.039-.066.088-.066q.087 0 .088-.088c0-.049.029-.088.066-.088s.066-.03.066-.066.039-.066.088-.066q.087 0 .088-.088c0-.049.029-.088.066-.088.046 0 .066-.046.066-.153s-.02-.153-.066-.153c-.05 0-.066-.054-.066-.219 0-.19-.012-.219-.088-.219-.071 0-.088-.029-.088-.153 0-.107-.02-.153-.066-.153-.037 0-.066-.039-.066-.088q0-.087-.088-.088c-.081 0-.088-.029-.088-.395v-.395h.153c.107 0 .153-.02.153-.066s.046-.066.153-.066.153.02.153.066c0 .037.039.066.088.066q.087 0 .088.088c0 .049.029.088.066.088.046 0 .066.046.066.153 0 .146.007.153.153.153.107 0 .153.02.153.066 0 .037.039.066.088.066q.087 0 .088.088c0 .049.029.088.066.088.051 0 .066.056.066.241s-.015.241-.066.241c-.036 0-.066.03-.066.066s-.039.066-.088.066q-.087 0-.088.088c0 .049-.029.088-.066.088a.066.066 0 1 0 0 .132c.036 0 .066.039.066.088q0 .088.088.088c.049 0 .088.029.088.066s.03.066.066.066.066.039.066.088c0 .073.029.088.175.088.127 0 .175.018.175.066 0 .036.03.066.066.066s.066.039.066.088c0 .071.029.088.153.088.107 0 .153.02.153.066s.046.066.153.066c.124 0 .153.017.153.088s.029.088.153.088c.107 0 .153.02.153.066 0 .037.039.066.088.066q.088 0 .088.088c0 .071.029.088.153.088h.153v-.241c0-.212-.011-.241-.088-.241-.049 0-.088-.029-.088-.066s-.03-.066-.066-.066-.066-.039-.066-.088q0-.087-.088-.088c-.049 0-.088-.029-.088-.066s-.03-.066-.066-.066-.066-.039-.066-.088q0-.088-.088-.088c-.071 0-.088-.029-.088-.153 0-.107-.02-.153-.066-.153s-.066-.046-.066-.153c0-.124-.017-.153-.088-.153-.049 0-.088-.029-.088-.066s.039-.066.088-.066c.071 0 .088-.029.088-.153 0-.107.02-.153.066-.153.037 0 .066-.039.066-.088q0-.087.088-.088c.071 0 .088-.029.088-.153s-.017-.153-.088-.153-.088-.029-.088-.153c0-.107-.02-.153-.066-.153-.05 0-.066-.056-.066-.241 0-.212-.011-.241-.088-.241s-.088-.029-.088-.219c0-.166-.016-.219-.066-.219-.037 0-.066-.039-.066-.088q0-.087-.088-.088c-.076 0-.088-.029-.088-.219s.012-.219.088-.219q.087 0 .088-.088c0-.049.029-.088.066-.088s.066-.03.066-.066.039-.066.088-.066q.087 0 .088-.088c0-.049.029-.088.066-.088s.066-.03.066-.066.039-.066.088-.066q.088 0 .088-.088c0-.049.029-.088.066-.088s.066-.039.066-.088q0-.087.088-.088c.071 0 .088-.029.088-.153 0-.107.02-.153.066-.153.05 0 .066-.054.066-.219s-.016-.219-.066-.219c-.052 0-.066-.063-.066-.307s.014-.307.066-.307c.037 0 .066-.039.066-.088 0-.077.029-.088.241-.088s.241.011.241.088c0 .079.029.088.307.088h.307V15.86h-.241c-.212 0-.241.011-.241.088 0 .049-.029.088-.066.088s-.066.03-.066.066c0 .046-.046.066-.153.066s-.153-.02-.153-.066c0-.037-.039-.066-.088-.066-.083 0-.088-.029-.088-.548s.005-.548.088-.548c.049 0 .088-.029.088-.066 0-.05.054-.066.219-.066.19 0 .219-.012.219-.088 0-.071.029-.088.153-.088.146 0 .153-.007.153-.153 0-.124.017-.153.088-.153s.088-.029.088-.153.017-.153.088-.153c.079 0 .088-.029.088-.307s-.008-.307-.088-.307c-.071 0-.088-.029-.088-.153s-.017-.153-.088-.153q-.088 0-.088-.088c0-.084-.029-.088-.614-.088h-.614v-1.227c0-1.062-.009-1.227-.066-1.227-.054 0-.066-.073-.066-.392 0-.353-.009-.394-.088-.419-.078-.025-.088-.066-.088-.376 0-.28-.013-.348-.066-.348-.046 0-.066-.046-.066-.153 0-.124-.017-.153-.088-.153s-.088-.029-.088-.153c0-.107-.02-.153-.066-.153-.047 0-.066-.049-.066-.175 0-.146-.015-.175-.088-.175-.049 0-.088-.029-.088-.066s-.03-.066-.066-.066-.066-.039-.066-.088q0-.087-.088-.088c-.071 0-.088-.029-.088-.153s-.017-.153-.088-.153-.088-.029-.088-.153c0-.107-.02-.153-.066-.153s-.066-.046-.066-.153c0-.124-.017-.153-.088-.153-.049 0-.088-.029-.088-.066s-.03-.066-.066-.066-.066-.039-.066-.088q0-.088-.088-.088c-.049 0-.088-.029-.088-.066s-.03-.066-.066-.066-.066-.039-.066-.088q0-.088-.088-.088c-.049 0-.088-.029-.088-.066s-.03-.066-.066-.066-.066-.039-.066-.088q0-.088-.088-.088c-.049 0-.088-.029-.088-.066 0-.046-.046-.066-.153-.066-.124 0-.153-.017-.153-.088 0-.049-.029-.088-.066-.088s-.066-.03-.066-.066c0-.05-.056-.066-.241-.066-.212 0-.241-.011-.241-.088 0-.071-.029-.088-.153-.088s-.153-.017-.153-.088c0-.081-.029-.088-.395-.088-.321 0-.395-.012-.395-.066 0-.052-.063-.066-.307-.066-.278 0-.307-.008-.307-.088 0-.085-.029-.088-.921-.088s-.921.003-.921.088zm3.42 2.41c0 .137.014.169.066.149q.067-.028.066.067c0 .053-.028.092-.066.092-.05 0-.066.054-.066.219 0 .19-.012.219-.088.219-.073 0-.088.029-.088.175 0 .127-.018.175-.066.175-.05 0-.066.054-.066.219 0 .19-.012.219-.088.219-.077 0-.088.029-.088.241s-.011.241-.088.241c-.049 0-.088.029-.088.066s.039.066.088.066c.079 0 .088.029.088.307s-.008.307-.088.307c-.071 0-.088.029-.088.153 0 .107-.02.153-.066.153-.036 0-.066.039-.066.088q0 .088-.088.088c-.077 0-.088.029-.088.241 0 .185-.015.241-.066.241s-.066.054-.066.219c0 .19-.012.219-.088.219q-.087 0-.088.088c0 .049-.029.088-.066.088s-.066.03-.066.066c0 .046-.046.066-.153.066h-.153v.241c0 .212-.011.241-.088.241s-.088.029-.088.219c0 .166-.016.219-.066.219-.037 0-.066.039-.066.088q0 .088-.088.088c-.049 0-.088.029-.088.066s-.03.066-.066.066-.066.039-.066.088c0 .071-.029.088-.153.088-.107 0-.153.02-.153.066s-.046.066-.153.066c-.124 0-.153.017-.153.088 0 .082-.029.088-.482.088s-.482-.005-.482-.088c0-.071-.029-.088-.153-.088-.107 0-.153-.02-.153-.066 0-.036-.03-.066-.066-.066s-.066-.039-.066-.088q0-.088-.088-.088c-.049 0-.088-.029-.088-.066s-.03-.066-.066-.066-.066-.039-.066-.088q0-.088-.088-.088c-.049 0-.088-.029-.088-.066s-.03-.066-.066-.066c-.046 0-.066-.046-.066-.153 0-.124-.017-.153-.088-.153-.081 0-.088-.029-.088-.395 0-.321-.012-.395-.066-.395-.036 0-.066-.03-.066-.066s-.039-.066-.088-.066c-.071 0-.088-.029-.088-.153 0-.107-.02-.153-.066-.153-.047 0-.066-.049-.066-.175 0-.146-.015-.175-.088-.175-.079 0-.088-.029-.088-.307s-.008-.307-.088-.307c-.049 0-.088-.029-.088-.066s-.03-.066-.066-.066c-.046 0-.066-.046-.066-.153 0-.124-.017-.153-.088-.153s-.088-.029-.088-.153c0-.107-.02-.153-.066-.153-.055 0-.066-.1-.066-.636s.01-.636.066-.636c.052 0 .066-.063.066-.307v-.307h.153c.146 0 .153.007.153.153 0 .124.017.153.088.153.077 0 .088.029.088.241s.011.241.088.241.088.029.088.241c0 .185.015.241.066.241.036 0 .066.03.066.066s.039.066.088.066q.087 0 .088.088c0 .049.029.088.066.088s.066.03.066.066.039.066.088.066c.071 0 .088.029.088.153 0 .107.02.153.066.153s.066.046.066.153c0 .124.017.153.088.153q.087 0 .088.088c0 .049.029.088.066.088s.066.03.066.066.039.066.088.066c.071 0 .088.029.088.153 0 .107.02.153.066.153.037 0 .066.039.066.088q0 .088.088.088c.049 0 .088.029.088.066s.03.066.066.066.066.039.066.088c0 .077.029.088.241.088s.241-.011.241-.088c0-.079.029-.088.307-.088.244 0 .307-.014.307-.066 0-.037.039-.066.088-.066q.087 0 .088-.088c0-.049.029-.088.066-.088s.066-.03.066-.066.039-.066.088-.066c.071 0 .088-.029.088-.153 0-.107.02-.153.066-.153.037 0 .066-.039.066-.088q0-.087.088-.088c.049 0 .088-.029.088-.066s.03-.066.066-.066.066-.039.066-.088q0-.087.088-.088c.049 0 .088-.029.088-.066s.03-.066.066-.066c.046 0 .066-.046.066-.153 0-.124.017-.153.088-.153.077 0 .088-.029.088-.241 0-.185.015-.241.066-.241.036 0 .066-.03.066-.066s.039-.066.088-.066q.087 0 .088-.088c0-.049.029-.088.066-.088.046 0 .066-.046.066-.153 0-.124.017-.153.088-.153s.088-.029.088-.153c0-.107.02-.153.066-.153.037 0 .066-.039.066-.088q0-.088.088-.088c.071 0 .088-.029.088-.153v-.153h.482v.174zm-5.568 7.19c0 .076.029.088.219.088.166 0 .219.016.219.066 0 .046.046.066.153.066.124 0 .153.017.153.088q0 .088.088.088c.049 0 .088.029.088.066s.03.066.066.066c.052 0 .066.063.066.307s-.014.307-.066.307-.066.063-.066.307c0 .278-.008.307-.088.307-.073 0-.088.029-.088.175 0 .127-.018.175-.066.175-.036 0-.066.03-.066.066s-.039.066-.088.066q-.088 0-.088.088c0 .071-.029.088-.153.088-.107 0-.153.02-.153.066s-.046.066-.153.066c-.124 0-.153.017-.153.088 0 .084-.029.088-.707.088-.658 0-.703-.005-.647-.074q.062-.075.005-.041c-.03.018-.055.012-.055-.014s-.03-.046-.066-.046-.066-.03-.066-.066c0-.046-.046-.066-.153-.066-.124 0-.153-.017-.153-.088q0-.087-.088-.088c-.049 0-.088-.029-.088-.066s-.03-.066-.066-.066-.066-.039-.066-.088q0-.087-.088-.088c-.071 0-.088-.029-.088-.153 0-.107-.02-.153-.066-.153-.051 0-.066-.056-.066-.241 0-.212-.011-.241-.088-.241-.079 0-.088-.029-.088-.307s.008-.307.088-.307c.071 0 .088-.029.088-.153 0-.107.02-.153.066-.153.036 0 .066-.03.066-.066s.039-.066.088-.066q.087 0 .088-.088c0-.085.029-.088 1.162-.088s1.162.002 1.162.088zm6.488 0c0 .049.029.088.066.088s.066.03.066.066.038.066.085.066c.054 0 .09.036.1.099.008.054.04.093.071.087s.053.013.049.044c-.03.227.007.384.091.384.077 0 .088.029.088.241s-.011.241-.088.241c-.071 0-.088.029-.088.153 0 .107-.02.153-.066.153s-.066.046-.066.153c0 .124-.017.153-.088.153q-.087 0-.088.088c0 .049-.029.088-.066.088s-.066.03-.066.066c0 .046-.046.066-.153.066-.124 0-.153.017-.153.088q0 .088-.088.088c-.049 0-.088.029-.088.066 0 .052-.063.066-.307.066-.279 0-.307.008-.307.089 0 .074-.025.087-.153.079-.11-.007-.15-.029-.142-.078.009-.055-.049-.07-.307-.081-.243-.01-.318-.028-.318-.077s-.059-.064-.241-.064c-.212 0-.241-.011-.241-.088 0-.049-.029-.088-.066-.088s-.066-.03-.066-.066-.039-.066-.088-.066c-.073 0-.088-.029-.088-.175 0-.127-.018-.175-.066-.175-.05 0-.066-.054-.066-.219 0-.19-.012-.219-.088-.219-.083 0-.088-.029-.088-.548s.005-.548.088-.548c.049 0 .088-.029.088-.066 0-.046.046-.066.153-.066.124 0 .153-.017.153-.088 0-.086.029-.088 1.315-.088s1.315.002 1.315.088zm-4.033 2.324q0 .088.088.088c.049 0 .088.029.088.066s.03.066.066.066c.05 0 .066.056.066.241 0 .212.011.241.088.241.079 0 .088.029.088.302 0 .228.016.308.066.327.045.017.066.088.066.224 0 .169.013.199.088.199.077 0 .088.029.088.241s-.011.241-.088.241q-.087 0-.088.088c0 .049-.029.088-.066.088s-.066.03-.066.066c0 .05-.056.066-.241.066s-.241-.015-.241-.066c0-.037-.039-.066-.088-.066-.081 0-.088-.029-.088-.395 0-.321-.012-.395-.066-.395-.037 0-.066-.039-.066-.088q0-.087-.088-.088c-.088-.001-.088.029-.088.088 0 .049-.029.088-.066.088-.054 0-.066.073-.066.395v.395h-.241c-.212 0-.241-.011-.241-.088 0-.049-.029-.088-.066-.088s-.066-.039-.066-.088q0-.087-.088-.088c-.079 0-.088-.029-.088-.307s.008-.307.088-.307c.071 0 .088-.029.088-.153 0-.107.02-.153.066-.153.05 0 .066-.054.066-.219 0-.19.012-.219.088-.219s.088-.029.088-.241c0-.185.015-.241.066-.241.046 0 .066-.046.066-.153v-.153h.395c.365 0 .395.006.395.088zm3.551 1.534c0 .071.029.088.153.088h.153v.307c0 .244-.014.307-.066.307-.037 0-.066.039-.066.088 0 .071-.029.088-.153.088-.107 0-.153.02-.153.066 0 .037-.039.066-.088.066q-.087 0-.088.088c0 .049-.029.088-.066.088s-.066.03-.066.066c0 .051-.056.066-.241.066s-.241-.015-.241-.066c0-.037-.039-.066-.088-.066-.08 0-.088-.029-.088-.329s.008-.329.088-.329c.071 0 .088-.029.088-.153 0-.146.007-.153.153-.153.107 0 .153-.02.153-.066s.046-.066.153-.066c.124 0 .153-.017.153-.088s.029-.088.153-.088.153.017.153.088zm-7.89.46c0 .046.046.066.153.066.124 0 .153.017.153.088s.029.088.153.088c.146 0 .153.007.153.153 0 .124.017.153.088.153q.087 0 .088.088c0 .049.029.088.066.088s.066.03.066.066.039.066.088.066c.071 0 .088.029.088.153 0 .107.02.153.066.153.037 0 .066.039.066.088s-.029.088-.066.088a.067.067 0 0 0-.066.066c0 .05-.056.066-.241.066s-.241-.015-.241-.066c0-.036-.03-.066-.066-.066s-.066-.039-.066-.088q0-.087-.088-.088c-.049 0-.088-.029-.088-.066s-.03-.066-.066-.066-.066-.039-.066-.088q0-.087-.088-.088c-.049 0-.088-.029-.088-.066s-.03-.066-.066-.066-.066-.039-.066-.088c0-.071-.029-.088-.153-.088-.107 0-.153-.02-.153-.066 0-.037-.039-.066-.088-.066-.077 0-.088-.029-.088-.241v-.241h.307c.243 0 .307.014.307.066z"/></svg>