<svg xmlns="http://www.w3.org/2000/svg" width="300" height="300" viewBox="0 0 300 300"><title>factions-order-bladeborn-the-starblood-stalkers</title><path d="M149.65 270.275h-31.58c-16.866 0-21.391-4.465-21.777-21.899-.446-19.219 0-38.378 0-57.537s-.507-20.64-20.884-20.701H36.402c-8.037 0-9.132 4.099-6.088 10.837 2.171 4.567 4.059 9.925 5.317 15.505l.102.527c1.867 8.565 3.086 18.509 3.41 28.697v.244c0 4.668-2.679 11.954-6.109 13.375-2.293.873-4.911 1.359-7.672 1.359-3.613 0-7.022-.873-10.046-2.374l.122.061c-2.964-1.624-3.348-9.498-3.267-14.47.163-8.422 1.055-16.52 2.679-24.374l-.142.832c1.786-8.686 7.793-17.961 5.946-25.369-1.563-6.231-12.704-9.498-18.124-15.444s-1.562-19.605 6.149-23.968c.69-.264 1.502-.405 2.334-.405s1.664.142 2.394.427l-.041-.02c1.178.487 2.132 1.259 2.902 2.193l.02.02c8.159 8.686 12.177-2.963 18.124-3.471s9.214 11.589 16.642 4.748c5.784-5.338 9.964-5.723 15.302 0 .893 1.055 4.16 0 6.312 0 0-2.171 0-5.053-1.178-6.454-5.582-5.946-10.249-14.47-20.965-7.427-2.091 1.42-6.15 0-9.213-.588s-7.427-2.76-10.086-2.091c-5.134 1.177-7.875 9.864-15.526 2.821S.844 113.01 3.36 101.502c.285-1.117.446-2.394.446-3.714s-.163-2.598-.466-3.816l.02.102c-5.662-21.675 8.321-33.609 22.284-45.279.832-.751 4.607.588 5.784 2.01 12.035 14.105 23.116 12.38 31.275-4.972a61 61 0 0 1 4.871-7.59l-.102.183c1.705 2.293 4.384 4.384 4.972 6.981 2.679 10.898 9.884 13.8 20.416 14.329s11.974-8.32 15.749-14.856c.893-1.542 1.339-3.328 2.171-4.972 1.786-3.43 3.734-6.819 5.582-10.249 1.522 3.734 3.105 6.88 4.911 9.864l-.183-.284c4.77 6.9 9.742 13.496 14.856 20.113a30 30 0 0 0 3.653 3.674l.041.041c18.347 17.9 18.509 20.945 2.171 39.799-12.035 13.8-12.035 13.882 1.928 27.175 1.177 1.177 2.232 2.598 3.349 3.938 10.249 11.791 10.249 11.791 0 24.049-2.213 2.679-5.195 4.77-7.427 7.429-7.427 10.452-6.9 14.836 3.186 23.664 14.187 12.826 14.105 16.256 0 34.583-2.07 3.348-3.957 7.205-5.48 11.264l-.162.466c4.404-2.801 8.239-5.723 11.811-8.971l-.061.061c6.007-6.677 15.444-13.882 15.749-21.148s-8.91-14.856-15.404-20.418c-6.475-5.561-4.099-10.391-1.339-15.871.974-1.664 2.111-3.084 3.349-4.384 15.444-19.97 15.83-20.336-1.116-38.297-7.427-7.427-7.956-12.928-.446-20.112 3.471-3.267 5.134-8.442 8.686-11.65 8.463-7.427 10.837-14.47.832-22.711-6.15-4.972-4.465-11.06 2.374-11.953 9.884-1.339 10.757-8.017 13.436-14.856 2.923-5.643 6.109-10.513 9.722-15.019l-.142.183c2.171 4.018 4.241 8.768 5.946 13.679l.223.71c1.096 8.179 8.037 14.429 16.419 14.47 10.472.751 18.367-1.117 19.321-13.8 0-2.212 3.267-4.221 4.992-6.312a66 66 0 0 1 4.16 5.358l.142.203c11.142 18.489 14.856 19.159 31.132 6.231a8.78 8.78 0 0 1 5.114-1.644c.832 0 1.603.122 2.374.325l-.061-.02c22.284 13.212 29.043 30.95 23.989 58.571-1.847 10.025-17.088 16.764-26.525 14.836-6.697-1.177-18.286 6.819-20.802 4.221-7.448-7.427-12.34-4.668-18.591-.832a13 13 0 0 0-3.918 3.734l-.02.041a69 69 0 0 0-3.389 7.427l-.183.507c3.43.366 8.037 2.374 9.964.832 5.358-4.14 9.214-7.854 14.187.446.669 1.177 7.002 1.117 8.239-.446 6.15-7.427 11.142-5.419 16.866 0 1.339 1.339 6.089 1.786 6.819.751 7.956-10.168 13.151-4.526 16.703 3.186 1.015 2.132 1.603 4.627 1.603 7.246 0 6.86-4.059 12.786-9.905 15.505l-.102.041c-9.275 3.795-17.535 6.15-6.819 17.82 2.598 2.801.893 9.559 1.116 14.47-.102 1.928-.183 4.16-.183 6.434 0 6.819.568 13.516 1.705 20.031l-.102-.71c1.562 5.946 3.633 11.487-2.517 14.024-2.334 1.015-5.053 1.624-7.915 1.624s-5.58-.588-8.037-1.664l.142.061c-3.816-2.152-8.341-10.025-7.063-13.05 6.312-14.856-1.928-32.229 9.071-46.314 3.552-4.607 0-9.275-6.92-9.132h-5.561l-47.917 1.339c-.893 15.729-2.009 31.559-2.598 47.368-.466 9.864 0 19.828 0 29.692.041.427.061.934.061 1.441 0 11.182-9.071 20.275-20.296 20.275q-.731 0-1.461-.061h.061c-11 1.42-22.812 1.116-34.562 1.116l.081-.041zM86.47 97.402h.142c3.694 0 7.286-.487 10.696-1.4l-.285.061c5.48-2.76 10.696-6.007 16.032-9.112-6.231-3.186-12.34-6.534-18.671-9.498-.791-.162-1.746-.244-2.72-.244s-1.888.102-2.821.244l.102-.02c-7.063 0-13.07 2.821-11.67 10.086 1.117 4.221 6.839 7.57 9.132 9.864l.061.02zm128.022.73c3.125-2.679 9.884-5.641 10.757-9.864 2.009-8.91-5.134-11.121-12.765-10.898-3.125 0-7.063-1.055-9.132.507-4.018 3.43-7.61 7.124-10.798 11.121l-.122.162c3.471 1.928 6.819 4.018 10.412 5.641 3.025 1.117 6.941 2.252 10.918 3.186l.751.142h-.02z"/></svg>