<svg xmlns="http://www.w3.org/2000/svg" viewBox="0 0 300 300"><path d="M148.397 0c6.75 6.028 8.213 9.609 5.559 13.678 6.169 6.291 1.181 14.241 2.822 21.281 6.178-3.534 12.047-6.956 18.009-10.2.6-.319 1.809.497 3.487 1.013-10.547 20.616-15.319 42.244-13.866 65.419 1.116-2.4 2.353-4.753 3.319-7.219 4.847-12.347 12.647-22.828 21.347-32.559 6.356-7.097 13.5-13.528 20.672-19.819 1.781-1.566 5.034-1.453 7.603-2.109-.816 2.381-1.041 5.222-2.512 7.069-9.216 11.456-16.097 24.188-22.163 37.5-2.156 4.744-6.141 8.681-8.109 13.472-5.775 13.997-9.394 28.284-7.903 43.884 1.434 14.953 3.703 29.559 9.309 43.491 3.713 9.225 9.188 17.325 17.184 23.494 11.025 8.494 30.638 3.994 38.897-8.813 5.344-8.259 4.931-17.456 4.416-26.597-.825-14.719-4.922-28.275-17.184-37.603-8.85-6.741-23.719-6.263-27.769 9.384-2.597 10.031-1.031 19.463 2.428 28.706 1.256 3.356 3.853 6.403 6.459 8.991 2.859 2.831 6.206 2.278 8.934-.741 4.566-5.025 5.287-14.634 1.809-20.541-1.791-3.047-3.863-1.537-6.113-.956-1.631.422-3.403.244-5.109.347.216-1.809-.084-3.9.741-5.353 1.931-3.366 4.256-6.291 8.934-6.497 5.597-.253 9.759 1.969 12.281 6.534 4.678 8.475 6.131 29.428-4.153 38.522-4.678 4.144-15.6 6.188-22.003 2.897-9.113-4.688-15.966-11.606-18.563-21.75-3.403-13.275-5.756-26.878 1.031-39.675 4.106-7.753 9.722-14.972 19.5-16.237 9.844-1.275 19.688-3.497 29.278 1.969 19.181 10.95 29.663 26.709 28.641 49.313-.356 7.762-.356 15.563-1.041 23.288-2.297 25.894-23.822 41.063-47.269 39.787-9.075-.487-16.631-5.278-24.187-9.787a25 25 0 0 0-2.691-1.416c-.225-.103-.6.131-1.669.403 2.634 6.094 4.65 12.384 7.903 17.963 6.459 11.1 13.612 21.788 20.391 32.709.797 1.294.928 3 1.359 4.509-1.884-.084-4.369.563-5.559-.394-6.975-5.634-14.569-10.884-20.203-17.709-8.137-9.844-14.963-20.784-21.966-31.509-2.353-3.6-3.506-7.969-5.869-12.037 0 5.859-.394 11.756.113 17.578s1.762 11.616 2.953 17.381c1.219 5.934 2.316 11.962 4.256 17.681 1.856 5.475 4.716 10.613 7.416 16.491-10.116 1.359-14.147-7.35-22.247-11.212 0 2.137.084 3.647-.009 5.147-.525 7.706-.534 15.525-1.903 23.072-.525 2.869-4.209 5.175-6.45 7.725-2.316-2.316-5.288-4.247-6.797-6.994-4.397-7.988-3.094-16.772-2.466-25.378.075-1.031.216-2.044.488-4.575-2.419 1.791-3.638 2.756-4.903 3.637-4.041 2.775-8.025 5.681-12.244 8.137-1.116.647-3.075-.131-4.641-.253.225-1.425.075-3.075.75-4.238a96 96 0 0 1 6.216-9.309c7.012-9.281 8.381-20.184 9.281-31.256.525-6.403 1.153-12.806 1.65-19.209.112-1.566-.131-3.141-.263-6.216-4.153 8.287-7.256 15.347-11.081 21.966-9.15 15.825-20.241 30.056-35.531 40.5-.975.656-2.578.422-3.891.581.169-1.453-.131-3.178.563-4.322 7.641-12.787 15.487-25.453 23.109-38.25 1.688-2.831 2.691-6.094 4.013-9.15-.319-.347-.638-.675-.938-1.012-1.509.75-3.066 1.425-4.509 2.278-15.384 9.009-31.641 9.319-47.456 2.578-12.459-5.297-21.712-15.037-23.541-29.166-1.631-12.637-2.794-25.537-2.175-38.241.919-19.031 18.009-39.609 36.722-43.613 11.859-2.541 23.644-1.472 33.75 8.597 12.675 12.628 13.313 26.288 9.291 42.291-1.809 7.181-5.119 13.022-8.653 19.172-6.647 11.578-29.634 13.641-37.434-.825-3.047-5.644-2.419-13.416-2.897-20.25-.187-2.756.938-5.672 1.725-8.438 2.166-7.612 11.681-12.094 18.966-9.009 3.534 1.5 4.763 4.172 4.181 9.666-4.509-2.644-8.709-3.675-12.038 1.753-2.822 4.594-1.331 17.166 2.784 20.672 4.284 3.638 8.888 3.441 12.506-.844 6.028-7.106 10.397-32.109 2.419-42.534-5.991-7.828-17.916-8.522-25.069-2.784-9.581 7.669-15.056 18.075-16.631 29.85-1.744 12.966-1.856 26.081 6.778 37.556 9.309 12.356 29.681 13.547 39.684 1.744 9.75-11.503 15.966-24.628 19.819-39.459 4.313-16.603 4.472-32.972 1.294-49.35-1.688-8.672-5.784-16.959-9.487-25.106-7.284-16.069-15.459-31.678-26.391-45.675-1.097-1.397-1.856-3.066-2.775-4.603.263-.422.544-.853.816-1.275 1.669.581 3.581.816 4.959 1.791 9.891 7.012 18.881 15.141 25.313 25.434 6.778 10.847 12.609 22.275 18.853 33.459.328.581.6 1.209 1.678 1.491.319-11.784.881-23.541-2.906-34.463-3.881-10.809-9.562-20.972-14.672-32.006 9.319-.975 14.109 7.669 22.116 11.203-.216-1.809-.384-2.85-.459-3.891-.825-11.859-2.241-23.859 8.597-32.634h1.031z"/></svg>