<svg width="300" height="300" xmlns="http://www.w3.org/2000/svg" xml:space="preserve" fill-rule="evenodd" stroke-linejoin="round" stroke-miterlimit="2" clip-rule="evenodd" viewBox="0 0 817 993"><path d="M358.496 415.056c14.983-5.9 43.167-21.833 49.9-33.8 6.403-11.38-2.423-27.028-9.5-38-9.233-14.317-26.71-36.91-45.9-47.9-26.483-15.167-80.267-28.783-113-43.1-28.629-12.521-57.334-25.567-83.4-42.8-27.1-17.917-61.4-46.033-79.2-64.7-12.598-13.211-22.003-29.925-27.6-47.3-6.383-19.817-8.667-55.367-10.7-71.6-1.071-8.548 1.167-27-1.5-25.8s-15.256 21.009-14.5 33c2.067 32.767.317 117.35 26.9 163.6s94.017 81.883 132.6 113.9c32.342 26.838 76.25 60.517 98.9 78.2 12.176 9.506 24.167 23.517 37 27.9 12.628 4.313 27.584 3.289 40-1.6M107.896 795.056c5.144-1.381 9.75-7.967 10.2-12.3s-4.257-9.627-7.5-13.7c-5.017-6.3-17.5-18.433-22.6-24.1-2.838-3.154-5.717-9.3-8-9.9s-3.724 4.27-5.7 6.3c-6.233 6.4-23.383 22.983-31.7 32.1-6.519 7.146-21.967 18.683-18.2 22.6s27.198 1.063 40.8.9c13.917-.167 33.883.467 42.7-1.9M53.296 661.856c7.333-6.367 30.3-27.583 35.8-34.9 1.888-2.511-2.428-5.88-2.8-9-.717-6.017-4.591-18.597-1.5-27.1 3.283-9.033 15.983-20.8 21.2-27.1 3.128-3.778 8.533-7.283 10.1-10.7 1.365-2.977-.716-6.525-.7-9.8.05-10-1.45-35.183 1-50.2 2.264-13.88 7.9-27.483 13.7-39.9 5.717-12.24 16.267-26.917 21.1-34.6 2.476-3.937 9.717-10.233 7.9-11.5s-12.466 2.983-18.8 3.9c-15.083 2.183-59.617 5.533-71.7 9.2-4.091 1.24-2.65 8.946-.8 12.8 2.583 5.383 14.45 14.733 16.3 19.5 1.264 3.257-2.411 6.996-5.2 9.1-5.5 4.15-17.787 12.147-27.8 15.8-10.6 3.867-27.833 5.85-35.8 7.4-3.975.773-10.633.433-12 1.9s1.751 5.258 3.8 6.9c5.8 4.65 22.667 15.083 31 21 6.496 4.612 22.153 7.184 19 14.5-3.85 8.933-32.6 30.667-42.1 39.1-4.692 4.165-13.917 9.017-14.9 11.5s5.837 2.873 9 3.4c7 1.167 25.367-.05 33 3.6 6.716 3.21 11.82 10.92 12.8 18.3 1.417 10.667-2.667 35.667-4.3 45.7-.831 5.102-5.95 12.633-5.5 14.5s5.975-1.368 8.2-3.3"/><path d="M340.096 251.456c4.283.217-6.874-6.362-9.3-10.3-10.617-17.233-45.35-69.417-54.4-93.1-5.83-15.257-3.573-33.085.1-49 4.25-18.417 20.65-49 25.4-61.5 1.64-4.316 4.883-12.567 3.1-13.5s-10.283 3.935-13.8 7.9c-17.55 19.783-73.9 85.433-91.5 110.8-8.31 11.978-13.117 31.75-14.1 41.4-.623 6.11 3.146 13.01 8.2 16.5 8.667 5.983 28.739 14.095 43.8 19.4 18.55 6.533 50.417 14.567 67.5 19.8 11.752 3.6 30.717 11.383 35 11.6M487.096 639.056c5.367-2.05 24.233-10.5 25.3-14s-15.4-6.133-18.9-7c-.895-.222-1.577 1.04-2.1 1.8-2.217 3.217-10.483 14.3-11.2 17.5-.518 2.312 4.687 2.545 6.9 1.7M265.096 990.455c3.585-.2 7.01-1.56 10.5-2.4 4.417-1.07 10.667-2.67 16-4s10.833-2.4 16-4c5.098-1.58 10.288-3.09 15-5.6 13.633-7.25 48.717-20.666 66.8-37.9 18.083-17.232 38.867-56.632 41.7-65.5 2.8-8.76-16.516 8.102-24.7 12.3-11.5 5.9-34.417 19.684-44.3 23.1-4.796 1.659-11.117-1.332-15-2.6-3.071-1.001-5.417-3.8-8.3-5-2.851-1.186-5.984-2.865-9-2.2-5.133 1.134-14.728 5.567-21.8 9-8.1 3.934-16.848 12.492-26.8 14.6-12.817 2.718-39.817 4.4-50.1 1.7-6.877-1.805-7.533-14.35-11.6-17.9-3.326-2.902-9.145-5.875-12.8-3.4-5.733 3.884-14.717 17.85-21.6 26.7-6.741 8.668-16.267 19.15-19.7 26.4-2.443 5.16-5.464 13.673-.9 17.1 8.367 6.28 34.333 17.33 51.1 20.6 16.199 3.16 39.5-.43 49.5-1"/><path d="M143.796 906.356c-3.546 3.786-8.983 8.917-11.3 10.7-.687.529-2.388.84-2.6 0-.367-1.45-.322-5.888.4-8.7 1.733-6.75 3.658-22.676 10-31.8 15.5-22.3 66.6-83.083 83-102 4.197-4.841 12-9.05 15.4-11.5 1.605-1.157 3.341-2.122 5-3.2 3.233-2.1 11.5-7.517 14.4-9.4.993-.645 1.961-1.333 3-1.9 5.767-3.15 21.583-12.083 31.6-17 9.312-4.571 22.367-9.85 28.5-12.5 2.745-1.186 5.521-2.296 8.3-3.4 3.567-1.417 9.4-3.75 13.1-5.1 3-1.095 6.167-2.017 9.1-3 2.838-.952 5.717-2 8.5-2.9 2.719-.88 5.8-1.9 8.2-2.5 2.036-.51 4.517-.767 6.2-1.1 1.309-.26 2.615-.54 3.9-.9 1.783-.5 4.512-1.473 6.8-2.1 3.1-.85 7.855-2.047 11.8-3 5.517-1.333 16.7-3.917 21.3-5 2.101-.495 4.2-1 6.3-1.5 6.65-1.583 26.917-6.333 33.6-8 2.2-.55 4.733-1.417 6.5-2 1.382-.456 2.724-1.025 4.1-1.5 4.3-1.483 16.667-5.567 21.7-7.4 2.891-1.053 5.917-2.483 8.5-3.6 2.342-1.013 4.833-2.083 7-3.1 2.024-.95 3.994-2.012 6-3 2.167-1.067 4.705-2.191 7-3.4 2.5-1.317 5.441-2.823 8-4.5 9.667-6.333 48.333-25.267 50-33.5s-27.083-11-40-15.9c-12.422-4.712-24.912-9.252-37.5-13.5-18.667-6.3-56.583-19.883-74.5-24.3-10.704-2.64-21.976-2.135-33-2.2-11.333-.067-25.75 1.067-35 1.8-6.867.544-14.583 1.85-20.5 2.6-5 .634-9.972 1.548-15 1.9-7.133.5-18.527 1.242-27.8 1.1-9.767-.15-21.265 1.864-30.8-2-16.45-6.667-51.567-24.183-67.9-38-13.757-11.637-25.083-33.217-30.1-44.9-3.314-7.72-3.593-17.607 0-25.2 5.6-11.833 20.85-33.817 33.6-45.8 12.197-11.464 32.817-25.1 42.9-26.1 8.862-.88 10.745 14.415 17.6 20.1 11.817 9.8 36.133 32.383 53.3 38.7 15.55 5.722 33.515 2.745 49.7-.8 16.283-3.567 34.35-10.933 48-20.6s27.65-28.65 33.9-37.4c3.008-4.211 3.6-10.15 3.6-15.1s-1.029-10.297-3.6-14.6c-6.533-10.933-27.617-39.667-35.6-51-4.028-5.718-18.954-19.155-12.3-17 7.617 2.467 40.8 18.767 58 31.8s31.85 29.429 45.2 46.4c14.933 18.983 26.996 46.948 44.4 67.5 18.617 21.983 42.4 46.25 67.3 64.4s54.229 30.637 82.1 44.5c28.85 14.35 70.733 32.05 91 41.6 10.371 4.887 25.517 10.767 30.6 15.7 3.325 3.227 2.368 9.979-.1 13.9-5.833 9.267-22.983 31.95-34.9 41.7-10.389 8.5-23.178 16.573-36.6 16.8-15.8.267-40.867-9.967-58.2-15.2-15.502-4.681-33.117-14.417-45.8-16.2-10.165-1.43-21.8 2.267-30.3 5.5-7.768 2.955-16.25 10.883-20.7 13.9-2.021 1.37-3.965 2.852-6 4.2-4.983 3.3-19.433 12.733-23.9 15.6-.929.596-1.923 1.086-2.9 1.6-3.133 1.65-10.523 5.686-15.9 8.3-10.283 5-35.5 17.15-45.8 21.7-5.169 2.283-11.833 4.167-16 5.6-2.99 1.029-6.583 2.2-9 3-1.831.606-3.629 1.33-5.5 1.8-2.917.733-7.992 1.773-12 2.6-5.333 1.1-14.25 2.85-20 4-4.833.967-9.671 1.912-14.5 2.9-7.333 1.5-20.567 3.967-29.5 6.1-8.11 1.937-19.5 5.367-24.1 6.7-1.195.346-2.299.973-3.5 1.3-1.65.45-4.295.819-6.4 1.4-3.017.833-8.45 2.5-11.7 3.6-2.639.893-6.1 2.333-7.8 3-.807.316-1.6.666-2.4 1-2.833 1.183-11.2 4.683-14.6 6.1-1.931.805-3.878 1.574-5.8 2.4-2.133.917-4.767 1.933-7 3.1-2.214 1.157-4.717 2.85-6.4 3.9-1.247.778-2.467 1.733-3.7 2.4-1.182.639-2.553.9-3.7 1.6-6.833 4.167-30.533 19.15-37.3 23.4-1.104.693-2.26 1.314-3.3 2.1-6.017 4.55-22.991 15.51-32.8 25.2-17.6 17.383-58.783 64.133-72.8 79.1m609.6-266c.908.993 1.707 3.072 3 2.7 2.317-.667 8-4.867 10.9-6.7 2.196-1.388 4.469-2.68 6.5-4.3 2.467-1.967 5.917-4.75 8.3-7.5 2.361-2.725 9.026-7.04 6-9-8.05-5.217-43.8-20.7-54.3-22.3-5.073-.773-9.433 7.717-8.7 12.7s8.521 11.634 13.1 17.2c4.717 5.733 12.167 13.883 15.2 17.2m-161.3-89.7c4.146 2.2 16.962 5.14 14 1.5-14.317-17.6-76.817-90-99.9-107.1-10.409-7.711-25.97 1.624-38.6 4.5-16.1 3.667-47.783 14.417-58 17.5-1.1.332-2.208.64-3.3 1-1.567.517-7.307.32-6.1 2.1 1.3 1.917 8.759 7.197 13.9 9.4 9.567 4.1 28.585 11.532 43.5 15.2 15.383 3.783 38.917 6.433 48.8 7.5 3.499.378 7.258-2.47 10.5-1.1 4.617 1.95 11.23 8.87 17.2 12.8 12.533 8.25 46 30.333 58 36.7"/><path d="M183.696 752.656c5.422-1.905 9.257-6.813 13.9-10.2 12.933-9.433 52.167-38.083 63.7-46.4 1.763-1.271 3.667-2.333 5.5-3.5s3.933-2.5 5.5-3.5c1.302-.831 2.558-1.737 3.9-2.5 1.7-.967 4.214-2.174 6.3-3.3 2.717-1.467 6.672-3.657 10-5.5 3.4-1.883 6.845-4.035 10.4-5.8 4.767-2.367 12.103-5.666 18.2-8.4 7.917-3.55 19.129-9.67 29.3-12.9 16.533-5.25 55.867-15 69.9-18.6 4.718-1.21 9.7-2.067 14.3-3 4.427-.898 8.935-1.436 13.3-2.6 4.5-1.2 12.733-.883 13.7-4.6s-1.53-16.62-7.9-17.7c-21.833-3.7-91.917-4-123.1-4.5-21.336-.342-43.3 6.682-64 1.5-23.9-5.983-60.683-25.183-79.4-37.4-13.592-8.872-26.25-28.617-32.9-35.9-2.356-2.58-6-10.133-7-7.8s.733 15.4 1 21.8c.231 5.532 3.054 11.637.6 16.6-4.45 9-21.867 29.583-27.3 37.4-2.07 2.977-5.423 5.876-5.3 9.5.133 3.933 4.612 9.2 6.1 14.1 2.05 6.75 7.2 19.333 6.2 26.4-.94 6.64-9.472 9.873-12.2 16-3.05 6.85-6.333 17.483-6.1 25.1.224 7.304 5.067 14.25 7.5 20.6 2.253 5.878 2.766 12.934 7.1 17.5 7.467 7.867 27.9 25.1 37.7 29.7 6.398 3.003 15.267-.05 21.1-2.1"/></svg>