<svg xmlns="http://www.w3.org/2000/svg" viewBox="0 0 300 300"><path d="M272.686 150.184a203 203 0 0 0 .043 30.044l-.042-.683c.192 1.71.321 3.718.321 5.748 0 14.317-5.491 27.394-14.488 37.181l.042-.042c-12.03 14.381-23.249 30.408-33.079 47.352l-.877 1.666c-4.295 7.222-11.538 12.287-20.065 13.548l-.15.021c-26.262 5.343-52.673 10.129-78.615 14.916a13 13 0 0 1-1.324.064c-2.136 0-4.124-.513-5.876-1.453l.064.042c-6.796-3.248-12.329-6.304-17.693-9.637l.791.449c-14.146-8.548-28.057-17.522-42.203-26.07-15.727-9.423-28.228-20.343-27.352-41.156-.833-6.859-2.522-13.099-4.957-18.933l.15.47c-.384-1.495-.62-4.167 0-4.552a6.33 6.33 0 0 1 3.462-1.004c.705 0 1.368.107 2.009.299l-.043-.021c5.491 2.543 10.235 5.599 14.467 9.252l-.086-.064a39.17 39.17 0 0 0 26.967 10.727 42 42 0 0 0 5.449-.363l-.213.021c1.474-.257 3.141-.384 4.871-.384s3.42.15 5.065.428l-.192-.021c15.728 3.376 24.938-6.454 31.989-17.436s10.535-21.988 19.488-30.942a5.58 5.58 0 0 0 1.56-3.846c0-3.098-2.5-5.577-5.577-5.577-.128 0-.278 0-.384.021h.021c-5.898-.384-11.796 0-17.693 0a23.1 23.1 0 0 1-6.56-2.414l.128.064a23.4 23.4 0 0 1 3.056-7.243l-.064.107c8.59-9.339 17.223-18.697 26.347-27.587 3.846-3.675 3.547-5.641 0-9.103-10.598-9.809-20.599-20.407-31.454-29.916-3.163-3.333-7.629-5.428-12.586-5.428-2.393 0-4.7.491-6.796 1.389l.107-.043c-12.693 4.402-28.805 8.804-45.259 12.244l-2.777.491a5.4 5.4 0 0 1-1.218.128c-1.474 0-2.8-.555-3.804-1.474-.384-.748-.599-1.624-.599-2.543s.236-1.795.599-2.585l-.021.043c10.684-19.083 21.689-37.929 32.31-57.012 2.372-4.082 4.167-7.842 9.893-7.222 17.223 1.881 32.544-6.602 49.041-8.932 21.305-2.543 40.386-6.454 58.87-11.774l-2.585.641c15.728-4.958 22.009-1.261 29.488 13.355 10.897 23.207 24.468 43.165 40.707 60.622l-.15-.15c17.522 17.351 17.929 36.134 17.436 57.012-.171 5.641 0 11.561 0 17.352l.042-.086zm-67.76-48.847c-2.03-.192-4.423-.278-6.795-.278s-4.765.107-7.116.299l.299-.021c-11.261 1.965-25.706 2.671-30.108 13.056-3.547 7.842 7.158 17.586 12.265 26.134.833 1.025 1.688 1.965 2.65 2.821l.021.021c2.436 3.141 4.723 3.227 7.863 0 11.475-13.056 23.1-25.835 34.488-38.891 0-.384-.962-3.141-1.56-3.227-4.253-.086-8.184.086-12.03.086h.021zm3.91 109.961-1.581-10.598c-3.782 3.462-7.863 6.667-11.261 10.45s-3.612 6.838-6.132 9.509c-2.522 2.671-2.051 4.871.405 7.842 2.223 3.376 5.984 5.577 10.279 5.577 1.816 0 3.568-.384 5.149-1.111l-.086.042c2.436-1.325 2.372-7.842 3.141-11.774.15-1.645.236-3.526.236-5.449 0-1.539-.064-3.055-.171-4.573l.021.213zm-55.024-14.786-2.115-11.239a715 715 0 0 1-9.36 11.688 50 50 0 0 0-5.855 7.629l-.128.213c-1.795 3.547-2.5 7.842 2.5 9.424s8.334 2.372 12.5 3.547c.791-3.591 1.71-7.137 2.372-10.77.171-1.966.257-4.253.257-6.539 0-1.368-.042-2.735-.107-4.103v.192zm20.664-8.932c-1.175 1.09-3.227 2.051-3.612 3.376-.213 1.175-.342 2.543-.342 3.932s.128 2.756.363 4.059l-.021-.15c.555 6.132 1.495 12.329 2.201 18.463 10.065-.47 8.504-11.945 14.937-15.705.705 0 0-5.171-1.261-6.347a95.5 95.5 0 0 0-11.646-7.287l-.534-.257-.086-.086z"/></svg>