<svg xmlns="http://www.w3.org/2000/svg" viewBox="0 0 32 32"><path d="M9.138 31.937a.3.3 0 0 1-.081-.18c0-.126.22-.786.433-1.296.429-1.03.469-1.876.099-2.119-.051-.034-.294-.117-.539-.185-.765-.212-1.093-.4-1.033-.593.043-.137.272-.471.502-.728.475-.534.869-1.141 1.606-2.478.897-1.627 1.095-2.069 1.095-2.447 0-.362-.099-.502-.945-1.337-.427-.422-.802-.82-.834-.885s-.07-.224-.084-.354c-.037-.325-.3-1.093-.523-1.524a2.3 2.3 0 0 0-.391-.563c-.237-.235-.305-.414-.304-.802.001-.361.101-.628.333-.881.225-.246.323-.449.413-.853.091-.406.094-1.117.007-1.273-.151-.27-.156-.301-.111-.685q.073-.627.288-.768c.053-.035.254-.1.446-.145.844-.198 1.028-.291 1.409-.711.266-.293.485-.727.63-1.246.156-.559.237-.677.57-.824.222-.098 1.03-.3 2.122-.531 1.414-.299 1.696-.347 2.064-.353.443-.006.545.04.954.437.473.459.943.663 1.622.705.278.017.46.006.708-.045.415-.085.594-.084.727.002.136.089.33.483.505 1.027.192.597.346.888.613 1.154.257.257.59.437 1.15.622.415.137.687.331.779.554.083.199.031.599-.104.797-.146.216-.173.372-.127.755.086.726.324 1.321.606 1.515.249.171.347.38.322.685-.028.323-.135.55-.472.998-.628.835-.779 1.301-.877 2.699-.059.844-.332 1.163-1.062 1.239a1.8 1.8 0 0 0-.482.108c-.196.1-.332.361-.308.592.023.218.314.815.761 1.56.195.324.607 1.023.917 1.553s.735 1.237.945 1.572.432.701.494.813l.113.203-.091.097c-.126.134-.556.325-.952.423-.39.096-.498.157-.567.321-.093.222.018.54.735 2.094.31.672.462 1.05.462 1.15 0 .126-.134.217-.273.187-.242-.053-1.144-.708-1.968-1.43-1.024-.896-2.47-2.501-2.883-3.2-.148-.25-.185-.457-.095-.532.062-.052.55-.174 1.125-.282.245-.046.516-.112.6-.145.289-.116.373-.335.256-.667s-1.107-1.921-1.424-2.285c-.259-.299-.352-.336-.842-.339-.387-.002-.429.005-.674.125-.144.07-.33.2-.413.289-.305.327-.387.396-.581.498-.163.085-.251.104-.494.104-.393 0-.656-.127-1.077-.521-.54-.505-.914-.595-1.415-.342-.429.217-1.037.974-1.61 2.006-.326.586-.407.881-.299 1.083.066.124.318.226.771.313.889.17 1.272.292 1.272.405 0 .157-.483.768-1.98 2.502-1.337 1.55-2.108 2.334-2.372 2.415-.06.018-.111.002-.167-.054zm8.002-10.383c.168-.023.415-.084.55-.135.257-.097 1.537-.873 1.986-1.204a4.3 4.3 0 0 0 1.222-1.469c.164-.327.655-1.871.701-2.205.086-.62-.063-1.309-.535-2.474-.382-.942-.47-1.115-.764-1.505-.452-.6-.651-.748-1.711-1.267-1.325-.65-1.315-.647-2.477-.647-1.083 0-1.137.011-2.132.398-.839.327-1.433.712-1.925 1.25-.216.236-.858 1.255-1.03 1.634-.168.371-.368.971-.419 1.256-.061.344-.07 1.226-.016 1.653.08.632.237 1.227.432 1.633.167.349.261.475.805 1.092.339.384.725.786.858.894s.314.256.401.329c.368.307 1.355.701 1.921.767.417.049 1.783.049 2.132 0zm-2.029-1.449c-.657-.066-1.023-.257-1.626-.85-.167-.164-.378-.57-.379-.727 0-.145.098-.262.265-.315.256-.082.6-.282.683-.398.15-.21.304-.155.755.268.743.697 1.767.924 2.261.502.187-.16.242-.315.242-.684 0-.343-.117-.588-.406-.852-.478-.436-1.071-.691-1.618-.695-.284-.002-.337.01-.55.127-.22.121-.256.128-.531.113-.343-.019-.555-.112-.741-.324-.586-.667-.579-1.866.016-2.74.395-.58.954-.991 1.57-1.153.315-.083 1.02-.085 1.368-.003.445.104 2.233.653 2.393.734.209.107.277.222.23.388-.089.311-.601 1.05-.91 1.315-.19.163-.355.199-.587.129-.2-.06-.843-.451-1.284-.781-.342-.256-.489-.296-.824-.227-.458.095-.681.28-.776.646-.062.237-.079.598-.037.757.033.124.187.158.841.187.606.027 1.218.13 1.572.265 1.541.588 2.207 1.753 1.731 3.027-.187.499-.427.722-1.074.999-.537.23-.865.293-1.62.309a11 11 0 0 1-.963-.015zm-12.56-2.873c-.94-.054-1.985-.191-1.985-.259 0-.05.511-.235 1.658-.599.682-.216 1.334-.441 1.449-.5.248-.125.569-.447.714-.713.057-.104.324-.95.595-1.88.626-2.149.754-2.467 1.508-3.744.529-.894.6-1.048.6-1.287 0-.268-.021-.306-1.057-1.904-.884-1.364-1.144-1.796-1.144-1.899 0-.033.026-.082.058-.108.086-.071.381.104 1.859 1.103C8.384 6.51 8.551 6.609 8.845 6.663c.197.036.281.03.573-.04.347-.083 4.557-1.548 4.935-1.717.404-.181.631-.431.799-.879.045-.121.222-.91.392-1.753.283-1.401.418-1.936.55-2.184l.048-.09.051.098c.062.119.151.465.586 2.294.199.837.378 1.499.437 1.622.114.234.445.615.608.699.06.031.276.092.481.137.595.129 1.287.382 2.8 1.022 1.369.579 2.094.865 2.195.865.154 0 1.852-1.098 2.463-1.594.433-.351.581-.432.72-.397.217.054.156.242-.319.985-.383.599-1.243 2.021-1.349 2.231-.239.474-.226.727.074 1.416.834 1.914 2.475 5.545 2.565 5.675.337.49.728.66 2.533 1.099 1.375.334 1.504.372 1.425.416-.034.019-.36.069-.724.112s-1.313.158-2.109.256c-1.999.246-2.25.239-2.476-.067-.143-.193-.192-.347-.636-1.954-.492-1.784-.581-2.035-1.084-3.048a13 13 0 0 0-1.306-2.162c-.526-.729-.681-.906-1.166-1.326-.716-.62-1.312-.954-2.367-1.323-1.01-.354-1.684-.463-3.167-.514-1.621-.056-2.152.012-3.511.449-.955.307-1.393.478-1.918.751-.878.454-1.428.954-2.27 2.062l-.776 1.019c-.264.345-.716 1.238-.89 1.758a18 18 0 0 0-.472 1.861c-.022.141-.093.645-.157 1.12s-.144.94-.176 1.033a.97.97 0 0 1-.472.552l-.2.105-1.238.005a40 40 0 0 1-1.749-.025zm25.372-5.592c-.297-.197-.417-.767-.237-1.12.109-.214.231-.265.63-.265.434 0 .527.028.659.201.094.123.11.185.124.485.029.61-.129.787-.704.788-.285 0-.359-.014-.472-.088zm-25.289-.699a1.2 1.2 0 0 1-.222-.278c-.147-.289-.075-.774.156-1.055.103-.124.133-.137.362-.15.203-.012.283.003.427.076.253.13.277.202.265.799l-.01.511-.194.096a1.3 1.3 0 0 1-.416.112c-.205.015-.233.006-.368-.112zm18.722-6.594c-.388-.183-.54-.742-.306-1.13.08-.133.509-.373.666-.373.12 0 .523.308.633.483.114.182.093.623-.04.809-.183.256-.641.358-.953.21zm-10.687-.349c-.269-.089-.354-.241-.354-.638 0-.533.192-.759.664-.782.303-.014.512.08.659.297.101.149.159.565.1.715-.053.134-.233.298-.409.371-.137.057-.529.078-.66.035z"/></svg>