<svg xmlns="http://www.w3.org/2000/svg" width="300" height="300" viewBox="0 0 300 300"><title>factions-chaos-beasts-of-chaos</title><path d="M284.359 5.224a1085 1085 0 0 1 3.761 8.205c.122.253.122.572.103.853-.253 5.504-.441 10.999-.778 16.513-.309 4.904-1.481 9.649-2.953 14.347-2.325 7.437-6.873 13.569-11.159 19.889-.947 1.387-1.294 3.17-2.204 4.595-.694 1.078-1.753 1.97-2.776 2.775-3.592 2.861-7.184 5.776-10.934 8.421-2.241 1.575-4.773 2.775-7.259 3.986-2.016.975-4.136 1.781-6.245 2.513-1.162.403-2.428.45-3.639.75-.722.178-1.416.45-2.081.75-.75.337-1.444.844-2.223 1.097-2.456.806-4.923 1.989-7.417 2.139-2.1.122-3.704.722-5.373 1.753a7.4 7.4 0 0 1-2.784 1.013c-.713.103-1.753 0-2.204-.45-1.359-1.359-2.167-1.388-3.704.037-2.297 2.139-3.611 4.492-3.104 7.539.291 1.706 1.125 3.367 1.876 4.97.787 1.706 1.856 3.301 2.636 5.017.591 1.294.938 2.711-.272 3.967-.131.15-.188.431-.178.656.066 3.892.216 7.782.216 11.674a99 99 0 0 1-.356 8.318c-.084.909-.75 1.753-1.106 2.634-.291.75-.759 1.537-.75 2.297.009 2.147-.713 3.929-2.156 5.495-.347.375-.506.938-.853 1.313-.45.478-.975.9-1.528 1.266-.281.188-.75.122-1.003.319-2.944 2.326-5.907 4.642-8.393 7.502a8.1 8.1 0 0 1-2.156 1.762c-1.697.966-2.887 2.204-3.114 4.248-.159 1.472-.469 2.925-.722 4.389-.356 2.109.197 3.432 1.697 4.014 1.444.544 2.644 0 3.807-1.734.15-.225.347-.431.563-.694.188.216.375.319.403.45 1.228 5.251 5.27 9.087 7.109 14.038 1.125 3.011 3.301 5.251 5.682 7.192 2.832 2.325 5.748 4.689 8.993 6.32 2.756 1.387 5.992 2.109 9.077 2.523 3.207.431 6.526.037 9.79.159 1.388.056 2.756.478 4.136.731.403.084.825.244 1.219.197 2.381-.291 4.764-.562 7.127-.966 4.389-.759 7.671-3.648 11.177-6.029 3.611-2.456 7.296-4.932 10.39-7.979 3.554-3.498 6.657-7.512 9.612-11.552.825-1.134.619-3.151.6-4.773-.009-1.012.197-1.547 1.003-2.204.844-.684 1.603-1.697 1.923-2.711.938-2.888 1.669-5.842 2.428-8.787.225-.853.281-1.753.431-2.616.319-1.895.713-3.798.947-5.711.216-1.697.403-3.423.384-5.129-.009-2.017 1.294-3.273 2.353-5.242 1.172 4.089 2.223 7.671 3.245 11.252.731 2.55 1.669 5.082 2.156 7.69.347 1.884.188 3.892.122 5.842-.084 2.728-.281 5.457-.431 8.177-.253 4.736-.272 9.49-.853 14.188-.45 3.592-1.659 7.089-2.476 10.624-.6 2.579-1.012 5.204-1.706 7.755-.469 1.753-.984 3.582-1.969 5.064-1.697 2.579-3.77 4.895-5.654 7.352-.431.544-.938 1.162-1.041 1.8-.712 4.267-3.386 7.192-6.404 9.968-6.432 5.936-14.113 9.743-22.028 13.157-4.079 1.753-8.365 2.456-12.855 1.884-1.153-.15-2.381.375-3.573.6-.75.131-1.481.356-2.232.431-1.537.122-3.084.291-4.623.178-1.5-.122-3.076-.338-4.436-.909-2.204-.947-4.332-1.828-6.732-2.364-2.428-.544-5.12-.975-7.315-2.784-2.072-1.725-4.501-3.084-6.92-4.314-3.489-1.753-6.498-4.014-9.18-6.827-1.688-1.762-3.554-3.639-5.739-4.576-2.044-.881-4.614-.919-6.912-.778s-3.236 2.261-2.523 4.501c.338 1.031.403 1.895-.384 2.953-.497.666-.159 2.007-.037 3.039.094.778.572 1.528.6 2.288.094 3.573-.291 7.192.281 10.671.347 2.1 1.013 4.211.722 6.282-.497 3.498-1.434 6.948-2.261 10.399-.084.356-.731.544-1.013.909-.506.628-1.097 1.256-1.378 1.988-1.256 3.367-1.256 7.071-3.517 10.249-1.912 2.7-2.832 6.095-4.211 9.18-.628 1.406-1.416 2.325-3.179 2.672-.919.178-1.566 1.941-2.269 3.02-.544.825-.881 1.856-1.575 2.504-.431.384-1.575.497-2.044.188s-.778-1.313-.722-1.969c.084-.975.431-1.988.9-2.861.759-1.406.534-2.597.216-4.117-.309-1.481.506-3.292 1.106-4.839.656-1.734 1.191-3.207-.272-4.904-.591-.684-.506-2.036-.525-3.084-.038-5.411-.028-10.812 0-16.232.009-1.406-.319-2.513-1.641-3.273-.497-.281-.947-.984-1.031-1.566-.356-2.569-.722-5.148-.825-7.736-.131-3.264-.159-6.536.009-9.799.178-3.432-1.219-6.526-1.753-9.799-.291-1.753-.544-3.498-.825-5.251-.094-.628-.216-1.256-.309-1.884-.178-.028-.356-.066-.534-.094-.291 1.059-.778 2.109-.844 3.179-.281 4.867-.45 9.734-.628 14.6-.028.853.038 1.538-1.106 1.856-.506.15-1.031 1.228-1.041 1.895-.103 3.329-.028 6.657-.038 9.987-.009 2.992-1.256 3.892-3.995 2.869-.919 5.157 1.097 10.624-1.228 15.304.309 2.269.919 4.314.778 6.311-.281 3.807.656 7.389 1.575 10.971.497 1.951 1.359 3.836 2.204 5.682.984 2.139.338 5.851-1.706 8.017-.469-.6-1.003-1.125-1.35-1.762-1.106-2.072-2.109-4.211-3.245-6.282-.563-1.012-1.191-2.064-1.989-2.869-2.523-2.541-3.432-5.926-4.811-9.049-1.688-3.854-3.236-7.755-4.745-11.674-.544-1.416-1.481-3.301-.966-4.361.872-1.819.431-3.545.628-5.279.066-.638-.412-1.341-.6-2.016-.15-.544-.291-1.125-.291-1.697-.028-8.017-.028-16.044-.037-24.062v-1.406c-3.892-.713-5.682-3.545-7.632-6.367-.45 1.35-1.153 1.781-2.803 1.472-1.2-.225-2.889.666-3.957 1.547-5.082 4.154-10.024 8.487-15.022 12.763-.272.225-.572.6-.853.591-3.142-.084-5.27 2.007-7.567 3.611-1.847 1.284-3.732 1.856-5.992 1.781-5.401-.216-10.146 2.1-14.835 4.332-2.55 1.219-4.867 2.381-7.67.694-.712-.431-1.828-.253-2.756-.178-1.378.131-2.728.469-4.089.656-1.406.188-2.822.412-4.239.431-3.779.037-7.567 0-10.877-2.297-.534-.375-1.322-.525-1.989-.506-3.948.094-6.779-1.988-9.387-4.595-1.725-1.706-3.132-3.779-5.879-4.211-1.031-.159-1.942-1.219-2.851-1.941-4.895-3.92-8.017-9.115-10.587-14.704-.909-1.979-2.045-3.714-3.62-5.345-2.729-2.823-3.798-6.62-4.651-10.437-.75-3.339-1.819-6.62-2.711-9.921a114 114 0 0 1-1.163-4.623c-.534-2.428-1.191-4.848-1.472-7.315-.309-2.804-.309-5.654-.366-8.477-.037-1.895.131-3.807.028-5.711-.084-1.509-.244-3.076-.713-4.501-1.172-3.582-.656-7.248-.356-10.784.506-6.067 1.603-12.097 2.419-18.155.188-1.416.469-2.607 2.006-3.236.712-.281 1.191-1.125 1.856-1.791.337.272.778.45.919.778 1.313 2.851 1.978 5.757.966 8.89-.356 1.106-.628 2.269-.75 3.423-.103 1.041.131 1.979 1.509 2.223.412.066.919.722 1.041 1.191.778 2.991 1.472 6.02 2.166 9.04.272 1.134.412 2.297.666 3.432.806 3.526 1.612 7.043 2.447 10.559.066.281.253.563.244.844-.122 3.432 1.659 6.339 2.551 9.49 1.219 4.295 3.62 7.887 6.376 11.271 1.322 1.631 3.019 2.964 4.426 4.548.684.778.909 2.007 1.659 2.672 1.163 1.041 2.606 1.753 3.892 2.672 1.734 1.247 3.386 2.607 5.148 3.807 2.925 2.007 5.832 3.901 9.715 3.667 4.023-.253 8.074-.056 12.116-.056.413 0 .966.15 1.219-.056 2.475-2.036 6.039-.816 8.571-3.179 1.875-1.753 4.557-2.607 6.807-3.967 1.247-.759 2.297-1.847 3.517-2.644 1.481-.966 3.151-1.659 4.576-2.7 2.175-1.603 4.201-3.423 6.311-5.12 1.191-.966 2.569-1.753 3.592-2.859 1.35-1.472 2.317-3.32 3.676-4.773 2.045-2.195 4.314-4.173 6.461-6.273.844-.825 1.594-1.734 2.363-2.607.037.244.084.478.122.722 1.725.338 3.451.75 5.204 1.003 2.645.375 3.826-2.241 2.945-4.182-.816-1.8-.787-3.461-.563-4.848-1.013-.713-1.763-1.228-2.523-1.753-1.951-1.322-3.929-2.607-5.842-3.957-.619-.431-1.013-1.153-1.613-1.603-.656-.497-1.434-.844-2.147-1.247-.197-.103-.534-.197-.572-.347-.806-3.151-3.807-4.436-5.654-6.714-.15-.178-.384-.338-.413-.534-.375-2.063-.881-4.117-1.031-6.189-.094-1.313-.347-2.381-1.2-3.386-1.979-2.336-2.073-4.689-.563-7.315a5.6 5.6 0 0 0 .694-2.475c.131-4.623.216-9.265.225-13.888 0-.731-.384-1.453-.563-2.195-.094-.403-.178-.844-.103-1.247.694-4.201-.525-8.384 0-12.575.159-1.256-.431-1.603-1.613-1.697-1.341-.103-2.663-.45-3.967-.778-1.284-.309-2.381-.478-2.551 1.322-.15 1.5-1.359 1.481-2.289 1.163-2.823-.975-5.589-2.139-8.384-3.226-.375-.15-.806-.347-1.172-.291-1.753.244-3.292-.009-4.529-1.434-.244-.272-.966-.413-1.256-.253-1.989 1.069-3.826.094-5.682-.347-1.923-.45-3.873-.937-5.72-1.641a508 508 0 0 1-14.113-5.711c-8.084-3.414-13.766-9.827-19.786-15.866-7.109-7.154-12.134-15.482-15.416-24.971-1.322-3.864-3.019-7.596-4.239-11.487-1.106-3.554-1.528-7.221.825-10.69 1.989 2.392 4.229 4.595 5.898 7.192 2.739 4.239 6.404 7.287 10.784 9.602 4.614 2.447 9.293 4.782 13.879 7.276 3.056 1.659 5.926 3.686 9.049 5.176 3.114 1.481 6.442 2.514 9.677 3.704a87 87 0 0 0 4.107 1.378c.272.084.656.131.881.009 3.611-2.109 6.807.159 10.137.966.281.066.619.225.872.15 3.573-1.247 7.004.506 10.549.45 2.775-.038 5.429-.15 7.943-1.378 1.228-.591 2.139-.225 2.457 1.078.244.947.244 1.97.366 3.039 0 0 .122.15.178.131 3.714-1.153 4.764 2.045 6.114 4.145 1.509 2.353 5.204 3.132 7.473.216.759-.966 2.081-1.5 2.831-2.456 1.612-2.081 3.901-1.566 5.992-2.1 1.8-.45 3.929-.722 5.307-2.664 1.256-1.781 3.526-2.317 5.551-3.02.825-.291 1.669-.591 2.457-.994 1.631-.825 3.179-1.791 4.839-2.542.778-.347 1.697-.347 2.569-.45 2.673-.309 5.345-.788 8.017-.825 2.259-.037 4.529.525 6.789.628 1.013.056 2.072-.319 3.104-.525 1.378-.272 2.756-.666 4.145-.825 1.228-.15 2.513.084 3.742-.084 3.554-.45 6.912.506 10.324 1.247 1.603.347 3.32.187 4.97.347 3.104.319 6.198.666 9.293 1.106.694.094 1.284.75 1.979.947 3.17.909 6.226 2.045 9.162 3.582.759.403 1.979.056 2.953-.131.694-.131 1.341-.544 2.448-1.041 0 1.35-.225 2.353.056 3.17.309.909.938 2.1 1.697 2.334s2.064-.291 2.739-.909c1.294-1.163 2.232-2.739 3.517-3.92.816-.75 1.969-1.172 3.039-1.603 6.057-2.392 12.379-.778 18.567-1.256 1.125-.094 2.223-.619 3.32-.937.909-.272 1.8-.572 2.711-.816 4.089-1.097 8.234-2.006 12.275-3.273 10.277-3.264 16.955-10.784 22.467-19.533 2.081-3.301 3.873-6.789 5.476-10.343.984-2.195 1.284-4.679 2.044-6.977.966-2.729 2.044-5.242 4.407-6.817zM105.967 135.193c-.131.056-.281.094-.431.15.759 2.636 1.444 5.298 2.297 7.904.572 1.734 3.489 4.061 4.829 3.704 1.566-.412 2.231.253 2.953 1.378s2.007 1.641 3.084 1.003c.938-.563 1.791-1.697 2.147-2.757.919-2.729.441-5.204-2.129-6.967-.291-.197-.347-.731-.572-1.069-1.097-1.613-1.706-3.582-4.136-4.061-.984-.197-1.687-1.613-2.645-2.317-.9-.637-1.923-1.416-2.945-1.472-1.35-.094-2.223 1.012-2.447 2.391-.122.684-.028 1.406-.028 2.109zm104.968-5.833c-.319.178-.816.544-1.359.694-3.104.816-5.317 2.775-7.548 5.017-2.261 2.259-4.229 4.97-7.389 6.273-1.594.637-1.856 2.231-.947 3.742 1.819 3.047 7.259 3.198 9.49.375 1.097-1.387 2.269-3.019 3.798-3.714 1.734-.806 2.795-1.8 3.039-3.545.412-2.953.638-5.907.938-8.834z"/></svg>