<svg xmlns="http://www.w3.org/2000/svg" viewBox="0 0 300 300"><path d="M148.436 7.029c-.752 3.075-3.719 12.721-6.589 21.435s-7.055 22.136-9.297 29.824c-5.189 17.801-7.776 21.74-15.337 23.343-3.368.715-10.05 2.963-14.854 4.999l-8.73 3.703-13.387-10.896C62.426 64.936 59.913 63.18 58.715 64.378c-1.1 1.1 7.336 29.124 10.606 35.234 1.719 3.212.381 5.416-9.805 16.149-14.543 15.32-12.322 14.55-28.269 9.805-37.912-11.279-36.22-12.105-21.641 10.551l11.009 17.113 1.031 70.426c.567 38.733 1.002 71.475.97 72.756-.143 5.503 28.208.702 59.572-10.085 26.931-9.262 38.997-10.043 53.642-3.472l11.323 5.082 12.279-6.046c15.715-7.738 25.017-7.021 59.486 4.58 24.609 8.28 52.196 13.853 57.848 11.685 2.722-1.044 3.024-8.537 3.024-74.215v-73.052l10.252-16.669c11.677-18.989 12.312-21.176 5.054-17.422-2.857 1.477-14.066 4.987-24.906 7.794l-19.707 5.107-6.59-7.281a1625 1625 0 0 0-11.271-12.32l-4.683-5.039 4.338-13.602c2.387-7.479 5.246-15.963 6.353-18.849 4.11-10.699 1.753-10.386-12.431 1.654-20.029 17.003-20.111 17.029-34.284 11.51-6.517-2.537-13.234-5.089-14.924-5.67-2.672-.918-18.105-44.676-25.441-72.148l-1.742-6.525-1.368 5.592zm-26.683 114.719c3.814 1.059 9.474 4.064 12.583 6.679l5.65 4.753v136.206l-6.058-1.586c-11.467-3.001-29.605-1.533-43.337 3.505-42.86 15.726-53.017 18.932-54.423 17.184-.825-1.026-1.078-33.657-.567-72.519l.933-70.654 14.91-4.06c8.203-2.234 22.46-7.264 31.688-11.181 15.064-6.395 24.406-9.551 29.825-10.076 1.026-.1 4.984.686 8.798 1.744zm78.055 1.592c5.544 1.945 16.129 6.145 23.523 9.335 7.395 3.187 19.013 6.962 25.815 8.389 6.803 1.424 13.095 3.318 13.984 4.208 1.167 1.166 2.597 111.785 1.811 139.96-.13 4.661-6.306 3.075-48.182-12.383-22.628-8.352-36.156-10.28-48.781-6.944-5.621 1.484-10.808 2.338-11.527 1.895-3.669-2.268-1.729-132.353 2.046-137.153 8.51-10.82 23.666-13.498 41.312-7.303z"/></svg>