<svg xmlns="http://www.w3.org/2000/svg" xml:space="preserve" fill-rule="evenodd" stroke-linejoin="round" stroke-miterlimit="2" clip-rule="evenodd" viewBox="0 0 300 300"><path fill-rule="nonzero" d="M3.021 37.504V20.069c0-1.024 1.477-2 2.358-3.05.881 1.025 2.453 2.097 2.524 3.24 1.144 12.053 7.146 22.508 15.959 29.536l.095.07c7.455 7.884 18.007 12.792 29.726 12.792 10.099 0 19.341-3.645 26.463-9.718l-.071.047c11.576-8.383 24.796-16.553 38.586-23.794l1.811-.858c3.834-2 14.72-9.48 14.482 5.479 0 2.881 0 7.407 2.62.428 6.288-18.364 21.866-12.195 32.965-9.48 13.958 4.67 26.034 10.6 37.158 17.817l-.643-.382c6.98 3.74 6.097 10.98 6.193 17.413 0 3.143.786 6.382 4.43 2.953 5.145-4.812 9.432-3.837 15.53-1.143 4.812 1.954 10.385 3.096 16.245 3.096 14.316 0 27.059-6.812 35.133-17.364l.071-.12 12.625-16.888c1.62 6.645 2.62 14.29 2.715 22.152v.07c-1.072 29.227-23.843 52.782-52.639 55.117l-.214.023c-17.769 1.453-31.631 16.221-31.631 34.206 0 1.713.12 3.358.381 4.977l-.023-.166c.262.977.381 2.143.381 3.311 0 7.694-6.145 13.935-13.815 14.101h-.023c-14.816 2.953-14.554 2.953-15.435 17.412-.786 12.124-2.358 24.2-3.405 36.323 0 2.787-.786 6.526.595 8.29 9.67 11.242 1.382 19.77-3.836 28.558-3.573 5.86-7.121 10.887-11.005 15.674l.166-.262c-3.836 4.62-8.694 8.694-12.553 13.052-.69-4.883-1.762-9.766-2.168-14.625a22.55 22.55 0 0 0-11.218-19.436l-.12-.071a25.06 25.06 0 0 1-8.67-9.196l-.071-.143c-2.787-5.478-.595-21.15-11.504-4.262 0 0-6.717-2.715-6.789-4.263-.048-1.645-.048-3.574-.048-5.526 0-7.907.357-15.744 1.001-23.461l-.071 1.024c0-5.67 2.454-11.244 2.597-16.888 0-11.338 0-11.338-12.457-11.671-14.482 0-19.889-3.573-17.435-17.435 4.025-21.939-12.457-32.394-21.795-46.924-1.382-2.168-6.455-2.5-9.861-3.049-21.986-3.525-40.087-17.388-49.424-36.37l-.19-.382C4.644 60.8 1.596 49.749.071 38.197L0 37.553l3.025-.048zm111.496 105.804c10.814-2.787 19.008-4.621 27.011-7.219a6.78 6.78 0 0 0 2.763-5.478c0-.286-.023-.572-.048-.858v.023c-1.382-3.835-3.405-8.695-6.646-10.362-5.336-1.834-11.481-2.883-17.864-2.883h-.333c-6.097-.429-15.601 9.766-13.862 16.102 1.31 4.358 6.288 7.574 8.98 10.623v.048zm74.72-5.048c6.288 2.453 12.386 1.31 12.291-6.002-.738-5.932-2.596-11.29-5.336-16.056l.12.215c-1.096-1.335-2.74-2.192-4.597-2.192-.166 0-.334 0-.476.023h.023c-8.408 3.691-15.506 7.55-22.27 11.885l.643-.38c-1.691 1.81-2.692 4.24-2.692 6.931a9.7 9.7 0 0 0 .286 2.381l-.023-.07c1.382 4.357 5.05 5.67 10.289 3.572 2-.452 4.311-.69 6.669-.69 1.857 0 3.668.165 5.455.428l-.381-.048zm-19.269 36.131c0-16.101-6.621-20.364-19.008-14.196l-1.834.976c-3.645 3.096-5.955 7.694-5.955 12.815 0 2.286.476 4.477 1.286 6.454l-.048-.12a70 70 0 0 0 12.72 10.362l.286.166 12.553-16.46z"/></svg>