<svg xmlns="http://www.w3.org/2000/svg" viewBox="0 0 300 300"><path d="M32.138 241.541c-8.841-14.488-15.968-28.002-15.968-29.968 0-2.21 3.681-4.177 10.564-5.404 12.035-1.966 35.859-16.698 40.037-24.565 2.95-5.161 2.95-5.161 6.387 1.227 4.664 9.084 15.968 14.488 26.279 12.775l8.101-1.723 1.966 16.212c.741 8.841 2.21 16.212 3.193 16.212.741 0 3.933-2.454 7.127-5.404l5.647-5.161v7.614c0 8.841 3.437 10.321 7.371 2.951 3.681-6.874 6.874-6.144 7.857 1.723.741 7.127 5.647 9.58 11.295 6.144 2.21-1.471 2.454-3.934.983-8.101-1.471-3.193-3.933-10.564-5.647-16.212-3.193-11.548-6.388-13.505-7.614-4.917-.983 8.101-7.857 6.63-9.58-1.966l-1.471-7.371-3.193 6.874c-3.193 6.63-3.681 6.63-6.63 2.698-1.724-2.454-3.193-6.388-3.193-8.841 0-6.144-8.354-9.58-19.405-7.857-8.598 1.471-10.068.739-13.758-4.917-3.681-5.404-3.933-7.614-1.471-12.034 2.21-3.934 2.21-8.598.741-15.968-1.471-5.647-1.966-12.531-1.227-14.985 1.966-7.371-4.177-9.084-9.084-2.698l-4.42 5.647-1.471-5.16c-.983-2.95-3.193-5.404-5.161-5.404-2.696 0-28.733-42.49-49.121-80.317-3.681-7.127-7.857-12.278-9.084-11.548-7.127 4.42 5.404-8.111 6.387-6.884 1.724 2.951 22.842 17.934 49.121 34.876 15.968 10.068 16.951 10.564 20.145 6.388 2.95-4.177 3.933-3.933 15.968 6.874 15.229 13.758 20.388 15.229 39.054 11.295 18.422-3.933 36.356 0 48.39 10.564 7.614 6.63 8.841 7.127 14.985 4.177 10.807-4.917 37.827-23.582 49.121-34.137 8.841-8.354 10.321-11.295 10.321-19.891 0-5.404.983-9.824 2.454-9.824 1.227 0 7.371 9.58 13.261 21.615 6.144 11.791 15.472 29.473 21.12 39.296 5.404 9.58 8.597 17.681 7.127 17.681s-8.354-3.933-14.741-8.598c-6.63-4.664-13.017-8.598-14.244-8.598-2.951 0-5.404 6.63-3.934 10.564.739 1.471 0 4.664-1.227 6.63-1.966 2.95-3.193 3.193-7.371.741-6.63-4.42-6.63-4.42-8.598 6.63-1.723 10.564-4.42 12.035-11.548 5.647-4.177-3.681-4.42-3.437-4.42 4.917 0 4.664-.739 10.321-1.471 12.531-1.227 3.437-2.21 3.193-7.614-.983-7.127-5.647-15.471-6.388-19.891-1.966-3.681 3.681-3.934 17.195 0 21.12 2.21 2.21 1.471 4.177-2.951 9.084-4.42 4.664-8.354 6.144-15.968 6.144-12.531 0-18.422 4.177-19.405 13.505-.983 8.598-5.161 10.807-7.127 3.437-.739-2.698-2.454-4.42-3.934-3.437-3.437 1.966-3.437 15.968-.244 15.968 1.471 0 3.681 2.698 4.917 6.144 3.193 8.354 8.354 8.101 6.388-.244-1.471-5.891-1.227-6.388 4.917-5.161 6.144.983 6.388.739 5.161-6.63-1.723-11.295.244-13.758 10.321-13.758 12.531 0 22.355-10.068 22.355-22.842 0-10.807 2.698-11.548 8.598-2.698 3.681 5.891 5.404 6.388 16.212 5.404l12.278-1.227-5.647 5.891c-4.177 4.42-4.917 6.874-2.951 9.824 5.647 9.084 10.321 9.58 23.329 2.454 14.002-7.614 16.951-7.127 12.034 2.21-4.917 9.084.983 19.649 10.564 18.666 4.42-.487 6.63.488 6.63 2.698 0 3.437-11.051 14.244-12.775 12.531-.488-.487-5.891 4.177-11.79 10.068-12.278 12.531-15.968 13.758-13.758 5.161 2.454-9.58-3.437-10.564-10.807-1.966-3.681 4.42-7.371 7.857-8.101 7.857-2.698 0-1.966-12.034.739-17.195 2.21-3.934 1.227-5.647-6.63-10.564-7.371-4.664-11.548-5.647-19.891-4.917-9.337 1.227-10.807 2.21-12.034 8.354-.739 4.177-7.127 13.017-14.488 20.388l-13.017 13.261-20.632 1.723c-24.312 1.966-26.036 1.471-43.23-17.439l-12.531-13.758-6.63 4.42c-3.437 2.698-8.101 5.647-10.311 7.127-16.698 10.068-22.355 14.741-22.355 18.666 0 10.068-4.664 5.404-19.649-19.405l-.028.038zm107.588-68.769c.741-4.664-.244-5.647-3.681-4.917-2.454.488-4.664 3.437-5.16 6.388-.741 4.664.244 5.647 3.681 4.917 2.454-.487 4.664-3.437 5.16-6.388m15.228-.497c0-5.647-7.127-8.598-8.841-3.681-.983 1.966-.983 5.404 0 7.371 1.724 4.917 8.841 1.966 8.841-3.681zm-31.936-7.856c0-3.437-14.488-14.244-19.161-14.244-4.42 0-3.437 2.698 3.681 10.321 6.874 7.127 15.472 9.338 15.472 3.934l.009-.009zm56.005-.985c12.531-8.598 2.21-23.086-10.564-14.741-6.63 4.42-7.857 11.051-3.193 15.715 3.934 3.934 7.127 3.681 13.758-.983v.009z"/></svg>