<svg xmlns="http://www.w3.org/2000/svg" viewBox="0 0 300 300"><path d="M148.206 100.383H42.177c-1.874.32-4 .457-6.171.457s-4.297-.183-6.376-.503l.229.022c-4.548-1.234-8.319-3.886-10.948-7.451l-.046-.046c-.183-.777-.274-1.669-.274-2.583 0-3.2 1.234-6.125 3.268-8.297a204.4 204.4 0 0 1 28.936-24.524l.663-.434c10.993-6.971 23.701-13.348 36.981-18.468l1.486-.503c9.143-2.926 16.753-8.548 22.078-15.93l.091-.137C119.773 9.026 133.556.409 149.349.022h.068C149.896 0 150.422 0 150.971 0a36.64 36.64 0 0 1 26.262 11.017c4.594 4.8 9.394 9.257 14.445 13.417l.298.229c5.44 4.639 11.657 8.571 18.444 11.474l.457.183c23.975 9.257 44.66 21.645 62.786 36.957l-.32-.274c1.075.914 1.897 2.08 2.994 2.926a14.26 14.26 0 0 1 5.074 10.948c0 2.057-.411 4-1.188 5.76l.046-.091c-1.989 5.988-7.405 7.337-13.508 7.246h-51.974l-66.579.594zm-5.211 199.35h-31.907c-3.451-.731-6.332-2.674-8.319-5.348l-.022-.046c-.571-.662 1.577-4.822 3.405-6.24 7.268-5.76 11.909-14.559 11.909-24.478 0-1.554-.114-3.086-.32-4.571l.022.183c-.846-26.97 0-53.917 0-80.796 0-11.817 0-11.977 11.085-12.229h37.324c12.342 0 13.508 2.331 11.496 15.908-.525 5.142-.846 11.085-.846 17.142 0 2.742.069 5.486.205 8.205l-.022-.366v47.678a34 34 0 0 0-.161 3.2 34.97 34.97 0 0 0 10.216 24.754c3.086 3.177 8.343 5.736 5.348 11.885s-8.319 1.234-11.565 2.559c-13.417 5.257-27.245 1.325-37.804 2.583l-.046-.022zm5.736-187.876h16.662c13.645 0 13.325 0 16.662 13.485 1.76 4.709 3.862 8.777 6.376 12.525l-.137-.229c4.069 8.319 0 17.897-8.319 16.136-23.153-5.074-46.901 4.731-69.734-3.656-6.674-2.491-8.319-6.491-3.656-11.313 4.8-3.817 7.84-9.622 7.84-16.159 0-.64-.022-1.257-.091-1.874v.091c-.914-7.679 3.656-9.233 10.171-9.074 7.679.252 15.908.091 24.251.091l-.022-.022z"/></svg>