<svg xmlns="http://www.w3.org/2000/svg" viewBox="0 0 300 300"><path d="M194.109 0c3.028 3.328 6.122 6.609 9.094 9.994 2.719 3.103 5.344 6.3 7.969 9.478.759.928 1.397 1.941 2.025 2.962.478.778.816 1.622 1.266 2.409 1.125 2.016 2.438 3.947 3.356 6.047 1.181 2.691 2.109 5.522 3.019 8.325.159.487-.262 1.2-.534 1.753s-.638 1.059-1.031 1.538c-2.981 3.525-6.066 6.975-8.934 10.575-2.063 2.597-3.778 5.456-5.822 8.081-1.753 2.259-3.769 4.322-5.616 6.497-2.803 3.3-5.559 6.619-8.278 9.872 3.563 3.919 8.325 4.097 12.656 5.222 3.206.825 6.469 1.397 9.741 1.987 1.275.234 2.616.159 3.919.206.844.028 1.697 0 2.906 0-.478 1.022-.684 1.875-1.2 2.475-1.997 2.325-4.125 4.537-6.159 6.825-.938 1.05-1.969 2.044-2.691 3.225-2.138 3.525-4.866 6.516-7.753 9.412-1.988 1.987-3.684 4.266-5.4 6.516-4.566 5.953-8.878 12.103-12.441 18.741-2.709 5.044-5.606 9.994-8.334 15.037-.759 1.397-1.153 2.991-1.847 4.444-1.003 2.138-2.119 4.2-3.234 6.422 14.194 3.553 28.556 1.744 42.581 2.063-1.387 2.934-2.897 6.037-4.294 9.197-1.294 2.897-2.194 6-3.75 8.728-1.228 2.147-3.028 4.013-4.838 5.738-1.631 1.566-2.841 3.328-4.05 5.194-2.269 3.478-4.688 6.909-7.313 10.134-6.769 8.325-13.8 16.425-20.494 24.806-5.063 6.319-10.716 12.019-16.631 17.503-5.466 5.063-10.866 10.209-16.303 15.3-1.838 1.716-3.741 3.375-5.616 5.044-8.784 7.856-17.747 15.506-27.375 22.359-3.806 2.719-7.275 5.906-11.044 8.672-2.297 1.688-4.856 3.047-7.331 4.491-1.547.9-3.178 1.669-5.194 2.737.131-1.144.037-2.025.366-2.709.975-2.109 1.931-4.247 3.206-6.178 3.703-5.578 7.388-11.166 11.372-16.538 6.45-8.691 13.284-17.081 19.659-25.809 5.7-7.809 10.716-16.059 15.216-24.656 3.928-7.481 8.522-14.606 12.656-21.994 2.381-4.256 4.491-8.662 6.553-13.078.478-1.003.281-2.325.422-3.647-.806-.038-1.35-.028-1.875-.122-2.166-.366-4.322-.778-6.488-1.172-1.481-.272-2.953-.6-4.416-.844-2.662-.431-5.381-.684-8.006-1.294-3.019-.703-5.953-1.716-9.122-2.662.938-.975 1.575-1.959 2.475-2.531 2.775-1.753 3.947-4.659 5.316-7.341 4.406-8.597 8.55-17.325 12.984-25.903 1.669-3.253 4.013-6.159 5.794-9.366 2.737-4.913 5.437-9.872 7.819-14.963 1.547-3.3 2.503-6.881 3.656-10.134-3.141-.853-6.047-1.903-9.056-2.391-3.112-.506-6.309-.459-9.469-.694-1.509-.112-3.009-.263-4.5-.394-3.197-.3-6.375-.628-9.891-.966.459-.825.844-1.791 1.453-2.569 3.6-4.519 7.247-8.963 10.134-14.034 3.703-6.497 7.453-13.031 11.775-19.116 4.247-5.972 9.169-11.447 13.912-17.053 2.813-3.3 5.316-6.769 7.481-10.556 1.059-1.847 2.681-3.384 3.844-5.194 1.791-2.784 3.506-5.616 5.072-8.541 3.075-5.728 6.244-11.353 10.266-16.491 1.35-1.716 2.269-3.769 3.291-5.709.881-1.688 1.622-3.441 2.438-5.166.206-.038.422-.122.637-.188z"/></svg>