<svg xmlns="http://www.w3.org/2000/svg" viewBox="4.52 1.4 22.95 29.17"><title>image2vector-3</title><path d="M16.583 1.958c0 .493-.004.521-.083.521-.081 0-.083.028-.083.958 0 .824-.009.958-.063.958-.05 0-.063.06-.063.292 0 .264-.008.292-.083.292-.067 0-.083.028-.083.146 0 .102-.019.146-.063.146s-.063.044-.063.146c0 .118-.016.146-.083.146q-.083 0-.083.083c0 .079-.028.083-.5.083-.417 0-.5.01-.5.063 0 .05-.06.063-.292.063s-.292-.013-.292-.063c0-.035-.037-.063-.083-.063-.069 0-.083-.028-.083-.167s-.014-.167-.083-.167c-.046 0-.083-.028-.083-.063s-.028-.063-.063-.063c-.044 0-.063-.044-.063-.146 0-.118-.016-.146-.083-.146q-.084 0-.083-.083c0-.067-.028-.083-.146-.083s-.146.016-.146.083c0 .046-.028.083-.063.083-.052 0-.063.086-.063.521 0 .493-.004.521-.083.521-.067 0-.083.028-.083.146 0 .102-.019.146-.063.146-.034 0-.063.028-.063.063s-.037.063-.083.063q-.084 0-.083.083c0 .075-.028.083-.292.083s-.292-.008-.292-.083c0-.067-.028-.083-.146-.083-.102 0-.146-.019-.146-.063a.063.063 0 0 0-.063-.063c-.044 0-.063-.044-.063-.146 0-.118-.016-.146-.083-.146s-.083-.028-.083-.146c0-.102-.019-.146-.063-.146-.048 0-.063-.053-.063-.229 0-.201-.01-.229-.083-.229-.068 0-.083-.028-.083-.146s-.016-.146-.083-.146c-.073 0-.083-.028-.083-.229 0-.176-.015-.229-.063-.229a.063.063 0 0 1-.063-.063c0-.044-.044-.063-.146-.063s-.146.019-.146.063c0 .035-.037.063-.083.063-.081 0-.083.028-.083 1.188 0 1.028-.008 1.187-.063 1.187-.047 0-.063.051-.063.208 0 .181-.011.208-.083.208q-.084 0-.083.083c0 .046-.028.083-.063.083s-.063.028-.063.063c0 .044-.044.063-.146.063-.118 0-.146.016-.146.083q0 .084-.083.083c-.067 0-.083.028-.083.146 0 .102-.019.146-.063.146s-.063.044-.063.146c0 .118-.016.146-.083.146-.076 0-.112.108-.088.26.003.017-.023.031-.058.031s-.063.037-.063.083c0 .073-.028.083-.229.083-.176 0-.229.014-.229.063 0 .035-.037.063-.083.063q-.083 0-.083.083c0 .046-.028.083-.063.083s-.063.028-.063.063-.037.063-.083.063q-.083 0-.083.083c0 .046-.028.083-.063.083s-.063.028-.063.063-.037.063-.083.063q-.083 0-.083.083c0 .046-.028.083-.063.083-.044 0-.063.044-.063.146 0 .118-.016.146-.083.146s-.083.028-.083.146c0 .102-.019.146-.063.146s-.063.044-.063.146c0 .118-.016.146-.083.146s-.083.028-.083.146c0 .102-.019.146-.063.146-.035 0-.063.037-.063.083q0 .083-.083.083c-.046 0-.083.028-.083.063s-.028.063-.063.063c-.044 0-.063.044-.063.146 0 .118-.016.146-.083.146-.079 0-.083.028-.083.521 0 .435-.01.521-.063.521-.05 0-.063.06-.063.292 0 .264-.008.292-.083.292-.078 0-.083.028-.083.438 0 .361-.011.438-.063.438-.048 0-.063.053-.063.229 0 .201-.01.229-.083.229-.072 0-.083.028-.083.208 0 .157-.015.208-.063.208-.044 0-.063.044-.063.146 0 .118-.016.146-.083.146s-.083.028-.083.146-.016.146-.083.146c-.073 0-.083.028-.083.229 0 .176-.014.229-.063.229-.05 0-.063.06-.063.292 0 .264-.008.292-.083.292q-.084 0-.083.083c0 .079-.028.083-.5.083h-.5v.208c0 .157.015.208.063.208.035 0 .063.037.063.083q0 .084.083.083c.046 0 .083.028.083.063s.028.063.063.063.063.037.063.083c0 .067.028.083.146.083.102 0 .146.019.146.063 0 .035.037.063.083.063q.083 0 .083.083c0 .046.028.083.063.083s.063.028.063.063.037.063.083.063q.084 0 .083.083c0 .046.028.083.063.083.053 0 .063.093.063.583 0 .556.004.583.083.583.073 0 .083.028.083.229s.01.229.083.229c.079 0 .083.028.083.583 0 .491.01.583.063.583.05 0 .063.065.063.333 0 .207.017.333.044.333.024 0 .035-.016.023-.035s.003-.035.032-.035.054.024.054.054-.012.046-.026.038-.054.001-.087.022c-.047.03-.04.038.033.039.085.001.094.021.094.209 0 .157.015.208.063.208.044 0 .063.044.063.146 0 .118.016.146.083.146.078 0 .083.028.083.438 0 .361.011.437.063.437.035 0 .063.037.063.083q0 .084.083.083c.046 0 .083.028.083.063s.028.063.063.063c.037 0 .063.038.063.096 0 .122.074.196.196.196.068 0 .096.024.096.083 0 .067.028.083.146.083s.146.016.146.083q0 .084.083.083c.046 0 .083.028.083.063s.028.063.063.063.063.037.063.083q0 .083.083.083c.046 0 .083.028.083.063s.028.063.063.063c.044 0 .063.044.063.146 0 .118.016.146.083.146q.083 0 .083.083c0 .046.028.083.063.083s.063.028.063.063.037.063.083.063q.083 0 .083.083c0 .083.028.083.083.083.046 0 .083.028.083.063s.028.063.063.063.063.037.063.083q0 .084.083.083c.046 0 .083.028.083.063s.028.063.063.063c.052 0 .063.076.063.438s-.011.437-.063.437c-.035 0-.063.037-.063.083q0 .083-.083.083c-.083 0-.083.028-.083.083 0 .067-.028.083-.146.083-.102 0-.146.019-.146.063s-.044.063-.146.063c-.118 0-.146.016-.146.083 0 .075-.028.083-.292.083-.231 0-.292.013-.292.063 0 .044-.044.063-.146.063-.118 0-.146.016-.146.083q0 .084-.083.083c-.067 0-.083.028-.083.146s.016.146.083.146c.046 0 .083.028.083.063s.028.063.063.063.063.037.063.083c0 .067.028.083.146.083.102 0 .146.019.146.063s.044.063.146.063c.118 0 .146.016.146.083q0 .083.083.083c.046 0 .083.028.083.063 0 .044.044.063.146.063.118 0 .146.016.146.083q0 .084.083.083c.046 0 .083.028.083.063 0 .044.044.063.146.063.118 0 .146.016.146.083s.028.083.146.083c.102 0 .146.019.146.063s.044.063.146.063c.118 0 .146.016.146.083 0 .046.028.083.063.083s.063.037.063.083c0 .067.028.083.146.083.102 0 .146.019.146.063s.044.063.146.063c.118 0 .146.016.146.083q0 .083.083.083c.046 0 .083.028.083.063 0 .044.044.063.146.063.118 0 .146.016.146.083s.028.083.146.083c.102 0 .146.019.146.063s.044.063.146.063.146-.019.146-.063c0-.05.06-.063.292-.063s.292.013.292.063c0 .044.044.063.146.063.118 0 .146.016.146.083 0 .073.028.083.229.083.176 0 .229.014.229.063 0 .054.134.063.958.063.931 0 .958.002.958.083s.028.083 1.038.083c1.024 0 1.038-.001 1.016-.085-.012-.047-.006-.082.014-.078.23.042 1.307-.012 1.307-.066 0-.052.086-.063.521-.063.493 0 .521-.005.521-.083s.028-.083.583-.083c.491 0 .583-.01.583-.063 0-.05.06-.063.292-.063.264 0 .292-.008.292-.083s.028-.083.292-.083c.232 0 .292-.013.292-.063 0-.048.053-.063.229-.063.201 0 .229-.01.229-.083 0-.072.028-.083.208-.083.157 0 .208-.015.208-.063 0-.044.044-.063.146-.063.118 0 .146-.016.146-.083 0-.073.028-.083.229-.083s.229-.01.229-.083c0-.067.028-.083.146-.083.102 0 .146-.019.146-.063s.044-.063.146-.063c.115 0 .146-.017.146-.079 0-.043.023-.078.052-.077q.241.01.24-.074c0-.034.028-.063.063-.063s.063-.037.063-.083q0-.083.083-.083c.046 0 .083-.028.083-.063s.037-.063.083-.063q.084 0 .083-.083c0-.046.028-.083.063-.083.044 0 .063-.044.063-.146s-.019-.146-.063-.146c-.034 0-.063-.028-.063-.063s-.037-.063-.083-.063q-.083 0-.083-.083c0-.062-.028-.083-.107-.083q-.11.001-.075-.052c.035-.053.009-.034-.039.005-.064.052-.07.043-.07-.094 0-.123-.015-.151-.083-.151s-.083-.028-.083-.146c0-.102-.019-.146-.063-.146s-.063-.044-.063-.146c0-.118-.016-.146-.083-.146-.078 0-.083-.028-.083-.438s.005-.438.083-.438c.067 0 .083-.028.083-.146 0-.102.019-.146.063-.146.035 0 .063-.037.063-.083q0-.084.083-.083c.067 0 .083-.028.083-.146 0-.102.019-.146.063-.146a.063.063 0 0 0 .063-.063c0-.045.046-.063.167-.063.139 0 .167-.014.167-.083 0-.046.028-.083.063-.083s.063-.028.063-.063.037-.063.083-.063q.084 0 .083-.083c0-.046.028-.083.063-.083.044 0 .063-.044.063-.146 0-.118.016-.146.083-.146.046 0 .083-.028.083-.063s.028-.063.063-.063.063-.037.063-.083q0-.084.083-.083c.083.001.083-.028.083-.083 0-.046.028-.083.063-.083.044 0 .063-.044.063-.146 0-.118.016-.146.083-.146.075 0 .083-.028.083-.292 0-.231.013-.292.063-.292.034 0 .063-.028.063-.063s.037-.063.083-.063q.084 0 .083-.083c0-.046.028-.083.063-.083.044 0 .063-.044.063-.146 0-.118.016-.146.083-.146.079 0 .083-.028.083-.521 0-.435.01-.521.063-.521.057 0 .084-.099.066-.24-.004-.029.032-.052.078-.052.07 0 .085-.027.085-.146 0-.118-.016-.146-.083-.146-.079 0-.083-.028-.083-.5s.005-.5.083-.5q.084 0 .083-.083c0-.046.028-.083.063-.083s.063-.028.063-.063.037-.063.083-.063q.083 0 .083-.083c0-.046.028-.083.063-.083s.063-.028.063-.063.037-.063.083-.063c.08 0 .083-.028.083-.664 0-.597.007-.666.073-.683.069-.018.069-.019 0-.024-.09-.006-.098-.13-.008-.13.036 0 .053.019.039.042s-.006.042.018.042q.044 0 .044-.771c0-.657.009-.771.063-.771s.063-.093.063-.583c0-.491-.01-.583-.063-.583-.05 0-.063-.06-.063-.292 0-.264-.008-.292-.083-.292q-.084 0-.083-.083c.001-.083-.028-.083-.083-.083-.046 0-.083-.028-.083-.063s-.028-.063-.063-.063-.063-.037-.063-.083q0-.083-.083-.083c-.079 0-.083-.028-.083-.521s.004-.521.083-.521c.046 0 .083-.028.083-.063s.028-.063.063-.063c.051 0 .063-.069.063-.375v-.375h-.287c-.217 0-.293-.015-.311-.063-.014-.037-.076-.063-.15-.063-.125 0-.126-.002-.126-.229 0-.201.01-.229.083-.229.067 0 .083-.028.083-.146 0-.102.019-.146.063-.146s.063-.044.063-.146c0-.118.016-.146.083-.146s.083-.028.083-.146c0-.102.019-.146.063-.146.035 0 .063-.037.063-.083q0-.083.083-.083c.067 0 .083-.028.083-.146 0-.102.019-.146.063-.146s.063-.044.063-.146c0-.118.016-.146.083-.146s.083-.028.083-.146.016-.146.083-.146c.075 0 .083-.028.083-.292v-.292h-.313c-.285 0-.312.007-.312.083 0 .068-.028.083-.146.083-.102 0-.146.019-.146.063 0 .034-.028.063-.063.063s-.063.037-.063.083q0 .083-.083.083c-.046 0-.083.028-.083.063 0 .044-.044.063-.146.063-.118 0-.146.016-.146.083 0 .046-.028.083-.063.083s-.063.028-.063.063c0 .051-.07.063-.375.063s-.375-.012-.375-.063a.063.063 0 0 0-.063-.063c-.051 0-.063-.069-.063-.375v-.375h-.229c-.201 0-.229.01-.229.083s-.028.083-.229.083-.229-.01-.229-.083c0-.046-.028-.083-.063-.083-.044 0-.063-.044-.063-.146s.019-.146.063-.146.063-.044.063-.146c0-.118.016-.146.083-.146.073 0 .083-.028.083-.229v-.229h-.163c-.142 0-.16.011-.141.083.021.079.001.083-.421.083h-.442v-.146c0-.118-.016-.146-.083-.146s-.083-.028-.083-.146c0-.102-.019-.146-.063-.146-.035 0-.063-.037-.063-.083q0-.083-.083-.083c-.046 0-.083-.028-.083-.063s-.028-.063-.063-.063-.063-.037-.063-.083q0-.084-.083-.083c-.046 0-.083-.028-.083-.063 0-.048-.053-.063-.229-.063-.201 0-.229-.01-.229-.083s-.028-.083-.208-.083c-.157 0-.208-.015-.208-.063 0-.044-.044-.063-.146-.063-.118 0-.146-.016-.146-.083s-.028-.083-.146-.083c-.102 0-.146-.019-.146-.063s-.044-.063-.146-.063c-.118 0-.146-.016-.146-.083 0-.073-.028-.083-.229-.083-.176 0-.229-.014-.229-.063 0-.05-.06-.063-.292-.063-.264 0-.292-.008-.292-.083 0-.077-.028-.083-.375-.083-.305 0-.375-.012-.375-.063 0-.044-.044-.063-.146-.063-.118 0-.146-.016-.146-.083 0-.046-.028-.083-.063-.083-.044 0-.063-.044-.063-.146 0-.118-.016-.146-.083-.146-.075 0-.083-.028-.083-.292 0-.231-.013-.292-.063-.292-.048 0-.063-.053-.063-.229 0-.201-.01-.229-.083-.229-.072 0-.083-.028-.083-.208 0-.157-.015-.208-.063-.208s-.063-.053-.063-.229c0-.201-.01-.229-.083-.229-.077 0-.083-.028-.083-.375 0-.305-.012-.375-.063-.375-.05 0-.063-.06-.063-.292 0-.264-.008-.292-.083-.292-.067 0-.083-.028-.083-.146 0-.102-.019-.146-.063-.146s-.063-.044-.063-.146v-.146h-.458v.521zm.459 4.563c0 .067.028.083.146.083.102 0 .146.019.146.063 0 .034.028.063.063.063.051 0 .063.069.063.375s-.012.375-.063.375c-.034 0-.063.028-.063.063s-.037.063-.083.063q-.084 0-.083.083c0 .077-.028.083-.375.083s-.375-.006-.375-.083c0-.046-.028-.083-.063-.083-.075 0-.085-.082-.01-.087.042-.003.042-.008 0-.024-.038-.015-.052-.163-.052-.538V6.44h.375c.347 0 .375.006.375.083zm-5.167 1.021c0 .044.044.063.146.063h.146v.229c0 .201.01.229.083.229.075 0 .083.028.083.292s-.008.292-.083.292q-.084 0-.083.083c0 .046-.028.083-.063.083s-.063.028-.063.063c0 .05-.06.063-.292.063s-.292-.013-.292-.063c0-.035-.037-.063-.083-.063q-.083 0-.083-.083c0-.083-.028-.083-.083-.083-.068 0-.083-.028-.083-.146 0-.102-.019-.146-.063-.146-.048 0-.063-.053-.063-.229s.015-.229.063-.229c.034 0 .063-.028.063-.063s.037-.063.083-.063q.084 0 .083-.083c-.001-.083.028-.083.083-.083.046 0 .083-.028.083-.063 0-.047.051-.063.208-.063s.208.015.208.063zm9.708.145c0 .067.028.083.146.083.139 0 .146.007.146.146 0 .118.016.146.083.146.075 0 .083.028.083.292s-.008.292-.083.292q-.084 0-.083.083c0 .068-.028.083-.146.083-.102 0-.146.019-.146.063 0 .048-.053.063-.229.063s-.229-.015-.229-.063c0-.044-.044-.063-.146-.063-.118 0-.146-.016-.146-.083 0-.046-.028-.083-.063-.083-.051 0-.063-.069-.063-.375s.012-.375.063-.375a.063.063 0 0 0 .063-.063c0-.044.044-.063.146-.063.118 0 .146-.016.146-.083 0-.073.028-.083.229-.083s.229.01.229.083m3.959 3.25q0 .084.083.083c.046 0 .083.028.083.063s.028.063.063.063c.051 0 .063.069.063.375v.375h-.146c-.102 0-.146.019-.146.063 0 .047-.051.063-.208.063s-.208-.015-.208-.063c0-.035-.037-.063-.083-.063q-.083 0-.083-.083c0-.046-.028-.083-.063-.083-.05 0-.063-.06-.063-.292s.013-.292.063-.292c.034 0 .063-.028.063-.063s.037-.063.083-.063q.084 0 .083-.083c0-.072.028-.083.208-.083s.208.011.208.083m-16.917.23c0 .118.016.146.083.146.072 0 .083.028.083.208s-.011.208-.083.208c-.067 0-.083.028-.083.146 0 .08-.014.144-.031.141-.196-.031-.385.012-.385.088q0 .084-.083.083c-.083-.001-.083-.028-.083-.083 0-.067-.028-.083-.146-.083-.139 0-.146-.007-.146-.146 0-.102-.019-.146-.063-.146s-.063-.044-.063-.146.019-.146.063-.146.063-.044.063-.146c0-.118.016-.146.083-.146.046 0 .083-.028.083-.063 0-.051.067-.063.354-.063h.354v.146zm11.792 1.312c0 .264-.008.292-.083.292-.046 0-.083.028-.083.063s-.028.063-.063.063-.063.037-.063.083c0 .067-.028.083-.146.083-.102 0-.146.019-.146.063 0 .048-.053.063-.229.063-.201 0-.229.01-.229.083 0 .068-.028.083-.146.083-.102 0-.146.019-.146.063 0 .035-.037.063-.083.063q-.084 0-.083.083c0 .067-.028.083-.146.083s-.146.016-.146.083c0 .046-.028.083-.063.083s-.063.028-.063.063-.037.063-.083.063c-.067 0-.083.028-.083.146 0 .102-.019.146-.063.146-.05 0-.063.06-.063.292s.013.292.063.292c.044 0 .063.044.063.146 0 .118.016.146.083.146q.084 0 .083.083c0 .046.028.083.063.083s.063.028.063.063c0 .05.063.063.312.063s.313-.013.313-.063.06-.063.292-.063c.264 0 .292-.008.292-.083 0-.068.028-.083.146-.083.102 0 .146-.019.146-.063 0-.034.028-.063.063-.063s.063-.037.063-.083q0-.083.083-.083c.046 0 .083-.028.083-.063s.028-.063.063-.063c.044 0 .063-.044.063-.146 0-.118.016-.146.083-.146q.084 0 .083-.083c0-.046.028-.083.063-.083s.063-.028.063-.063.037-.063.083-.063q.084 0 .083-.083c0-.046.028-.083.063-.083.044 0 .063-.044.063-.146 0-.118.016-.146.083-.146q.084 0 .083-.083c0-.046.028-.083.063-.083s.063-.028.063-.063c0-.044.044-.063.146-.063.118 0 .146-.016.146-.083q0-.084.083-.083c.046 0 .083-.028.083-.063 0-.044.044-.063.146-.063.118 0 .146-.016.146-.083q0-.084.083-.083c.046 0 .083-.028.083-.063s.028-.063.063-.063.063-.037.063-.083q0-.084.083-.083c.046 0 .083-.028.083-.063 0-.044.044-.063.146-.063.118 0 .146-.016.146-.083 0-.072.028-.083.208-.083h.208v.292c0 .232-.013.292-.063.292-.035 0-.063.037-.063.083q0 .083-.083.083c-.072 0-.083.028-.083.208 0 .157-.015.208-.063.208-.035 0-.063.037-.063.083s.028.083.063.083c.048 0 .063.053.063.229 0 .201.01.229.083.229.075 0 .083.028.083.292s-.008.292-.083.292c-.067 0-.083.028-.083.146 0 .102-.019.146-.063.146s-.063.044-.063.146c0 .139-.007.146-.146.146-.102 0-.146.019-.146.063 0 .035-.037.063-.083.063q-.084 0-.083.083c0 .068-.028.083-.146.083-.102 0-.146.019-.146.063 0 .034-.028.063-.063.063s-.063.037-.063.083q0 .084-.083.083c-.046 0-.083.028-.083.063 0 .053-.093.063-.583.063s-.583-.01-.583-.063c0-.05-.06-.063-.292-.063h-.292v.292c0 .232.013.292.063.292.035 0 .063.037.063.083 0 .067.028.083.146.083h.146v.354c0 .287-.012.354-.063.354-.038 0-.063.039-.063.1 0 .08-.017.096-.083.079-.072-.019-.083-.001-.083.129 0 .106-.018.151-.063.151s-.063.044-.063.146c0 .118-.016.146-.083.146-.046 0-.083.028-.083.063s-.028.063-.063.063c-.044 0-.063.044-.063.146v.146h-.458c-.38 0-.458-.011-.458-.063 0-.047-.051-.063-.208-.063s-.208.015-.208.063c0 .035-.037.063-.083.063q-.084 0-.083.083c0 .046-.028.083-.063.083s-.063.037-.063.083q0 .084-.083.083c-.046 0-.083.028-.083.063 0 .044-.045.063-.151.063-.13 0-.148.011-.129.083.016.062.001.083-.058.083-.044 0-.079.028-.079.063 0 .048-.053.063-.229.063h-.229v.146c0 .118.016.146.083.146q.084 0 .083.083c0 .046.028.083.063.083s.063.028.063.063.037.063.083.063q.084 0 .083.083c0 .046.028.083.063.083s.063.028.063.063c0 .048.053.063.229.063h.229V19.9c0-.157.015-.208.063-.208.035 0 .063-.037.063-.083q0-.084.083-.083c.046 0 .083-.028.083-.063 0-.051.07-.063.375-.063h.375v.146c0 .102.019.146.063.146.053 0 .063.093.063.583s-.01.583-.063.583c-.047 0-.063.051-.063.208 0 .181-.011.208-.083.208q-.084 0-.083.083c0 .075-.028.083-.292.083h-.292v-.229c0-.201-.01-.229-.083-.229-.067 0-.083-.028-.083-.146 0-.102-.019-.146-.063-.146-.034 0-.063-.028-.063-.063s-.037-.063-.083-.063-.083.028-.083.063-.028.063-.063.063-.063.037-.063.083q0 .084-.083.083c-.072 0-.083.028-.083.208 0 .157-.015.208-.063.208-.045 0-.063.046-.063.167v.167h-.229c-.201 0-.229-.01-.229-.083 0-.046-.028-.083-.063-.083s-.063-.037-.063-.083q0-.084-.083-.083c-.072 0-.083-.028-.083-.208 0-.157-.015-.208-.063-.208-.044 0-.063-.044-.063-.146 0-.118-.016-.146-.083-.146s-.083-.028-.083-.146.016-.146.083-.146.083-.028.083-.146c0-.102.019-.146.063-.146.05 0 .063-.06.063-.292v-.292h-1.042v.208c0 .181.011.208.083.208.067 0 .083.028.083.146 0 .102.019.146.063.146s.063.044.063.146c0 .118.016.146.083.146.073 0 .083.028.083.229s-.01.229-.083.229c-.067 0-.083.028-.083.146 0 .102-.019.146-.063.146-.048 0-.063.053-.063.229 0 .201-.01.229-.083.229-.046 0-.083.028-.083.063 0 .051-.067.063-.354.063h-.354v-.583c0-.556-.004-.583-.083-.583-.078 0-.083-.028-.083-.438s.005-.438.083-.438q.083 0 .083-.083c0-.046.028-.083.063-.083s.063-.028.063-.063.037-.063.083-.063c.068 0 .083-.028.083-.146s-.016-.146-.083-.146q-.083 0-.083-.083c0-.046-.028-.083-.063-.083s-.063-.028-.063-.063-.037-.063-.083-.063q-.083 0-.083-.083c0-.067-.028-.083-.146-.083s-.146-.016-.146-.083c0-.046-.028-.083-.063-.083s-.063-.028-.063-.063c0-.044-.044-.063-.146-.063-.118 0-.146-.016-.146-.083 0-.078-.028-.083-.458-.083-.38 0-.458-.011-.458-.063 0-.034-.028-.063-.063-.063s-.063-.037-.063-.083q0-.084-.083-.083c-.067 0-.083-.028-.083-.146 0-.139-.007-.146-.146-.146-.102 0-.146-.019-.146-.063s-.044-.063-.146-.063c-.118 0-.146-.016-.146-.083 0-.046-.028-.083-.063-.083-.05 0-.063-.06-.063-.292s.013-.292.063-.292c.044 0 .063-.044.063-.146 0-.118.016-.146.083-.146.046 0 .083-.028.083-.063 0-.048-.053-.063-.229-.063s-.229.015-.229.063c0 .052-.086.063-.521.063s-.521-.01-.521-.063c0-.044-.044-.063-.146-.063-.118 0-.146-.016-.146-.083 0-.046-.028-.083-.063-.083s-.063-.037-.063-.083q0-.084-.083-.083c-.071 0-.083-.028-.083-.185 0-.102-.019-.197-.041-.21s-.031.002-.016.039c.014.036.004.065-.021.065s-.044-.014-.041-.031c.052-.331-.016-1.427-.088-1.427-.071 0-.083-.028-.083-.19 0-.118-.016-.18-.042-.164-.023.014-.054-.031-.068-.102-.023-.113-.042-.128-.171-.128-.132 0-.14-.007-.089-.07q.059-.071.005-.039c-.029.017-.052.011-.052-.013s-.066-.044-.146-.044c-.139 0-.146-.007-.146-.146v-.146h.583c.556 0 .583.004.583.083 0 .072.028.083.208.083.157 0 .208.015.208.063 0 .035.037.063.083.063q.083 0 .083.083c0 .083.028.083.083.083q.084 0 .083.083c0 .046.028.083.063.083s.063.028.063.063.037.063.083.063q.084 0 .083.083c0 .046.028.083.063.083s.063.028.063.063.037.063.083.063q.084 0 .083.083c0 .046.028.083.063.083s.063.028.063.063.037.063.083.063c.068 0 .083.028.083.146 0 .102.019.146.063.146.035 0 .063.037.063.083q0 .083.083.083c.046 0 .083.028.083.063 0 .047.051.063.208.063.181 0 .208.011.208.083 0 .08.028.083.604.083s.604-.004.604-.083c0-.046.028-.083.063-.083s.063-.028.063-.063.037-.063.083-.063q.083 0 .083-.083c0-.046.028-.083.063-.083.052 0 .063-.076.063-.438s-.011-.438-.063-.438c-.034 0-.063-.028-.063-.063s-.037-.063-.083-.063q-.083 0-.083-.083c0-.046-.028-.083-.063-.083s-.063-.037-.063-.083q0-.083-.083-.083c-.046 0-.083-.028-.083-.063 0-.053-.093-.063-.583-.063-.556 0-.583-.004-.583-.083q0-.083-.083-.083c-.046 0-.083-.028-.083-.063s-.028-.063-.063-.063-.063-.037-.063-.083q0-.083-.083-.083c-.072 0-.083-.028-.083-.208v-.208h.146c.102 0 .146.019.146.063s.044.063.146.063c.118 0 .146.016.146.083 0 .075.028.083.292.083s.292-.008.292-.083c0-.073.028-.083.229-.083s.229.01.229.083q0 .083.083.083c.046 0 .083.028.083.063s.028.063.063.063.063.037.063.083q0 .083.083.083c.046 0 .083.028.083.063 0 .047.051.063.208.063.181 0 .208.011.208.083q0 .083.083.083c.046 0 .083.028.083.063s.028.063.063.063c.045 0 .063.046.063.167 0 .163.003.167.146.167.102 0 .146.019.146.063s.044.063.146.063.146-.019.146-.063.044-.063.146-.063c.118 0 .146-.016.146-.083 0-.077.028-.083.375-.083s.375.006.375.083.028.083.375.083.375-.006.375-.083c0-.068.028-.083.146-.083s.146-.016.146-.083c0-.046.028-.083.063-.083s.063-.028.063-.063.037-.063.083-.063q.084 0 .083-.083c0-.046.028-.083.063-.083s.063-.028.063-.063c0-.044.044-.063.146-.063.118 0 .146-.016.146-.083q0-.084.083-.083c.046 0 .083-.028.083-.063s.028-.063.063-.063.063-.037.063-.083c0-.069.028-.083.167-.083.12 0 .167-.017.167-.063 0-.044.044-.063.146-.063.118 0 .146-.016.146-.083 0-.072.028-.083.208-.083.157 0 .208-.015.208-.063s.053-.063.229-.063h.229v.292zm1.166 1.833q0 .084-.083.083c-.046 0-.083.028-.083.063s-.028.063-.063.063c-.048 0-.063.053-.063.229s.015.229.063.229c.034 0 .063.028.063.063 0 .048.053.063.229.063s.229-.014.229-.063c0-.035.037-.063.083-.063q.083 0 .083-.083c0-.046.028-.083.063-.083.044 0 .063-.044.063-.146s-.019-.146-.063-.146c-.034 0-.063-.028-.063-.063s-.037-.063-.083-.063q-.084 0-.083-.083c0-.067-.028-.083-.146-.083s-.146.016-.146.083m-5.875.146c0 .035-.037.063-.083.063-.067 0-.083.028-.083.146 0 .102-.019.146-.063.146-.035 0-.063.037-.063.083q0 .084-.083.083c-.072 0-.083.028-.083.208 0 .157-.015.208-.063.208-.044 0-.063.044-.063.146 0 .12-.015.146-.087.146-.083 0-.087.019-.078.365.015.591.03.552-.209.552-.181 0-.208-.011-.208-.083q0-.083-.083-.083c-.046 0-.083-.028-.083-.063 0-.052-.086-.063-.521-.063s-.521.01-.521.063a.063.063 0 0 1-.063.063c-.052 0-.063.076-.063.438v.438h.438c.361 0 .438-.011.438-.063 0-.035.037-.063.083-.063s.083.028.083.063c0 .044.044.063.146.063.118 0 .146.016.146.083 0 .046.028.083.063.083s.063.028.063.063.037.063.083.063c.067 0 .083.028.083.146 0 .102.019.146.063.146.035 0 .063.037.063.083q0 .084.083.083c.046 0 .083.028.083.063s.028.063.063.063.063.037.063.083c0 .067.028.083.146.083.102 0 .146.019.146.063 0 .053.118.063.813.063s.812-.009.812-.063c0-.044.044-.063.146-.063.118 0 .146-.016.146-.083q0-.084.083-.083c.046 0 .083-.028.083-.063s.028-.063.063-.063.063-.037.063-.083q0-.083.083-.083c.046 0 .083-.028.083-.063s.028-.063.063-.063.063-.037.063-.083q0-.084.083-.083c.046 0 .083-.028.083-.063 0-.044.044-.063.146-.063.118 0 .146-.016.146-.083s.028-.083.146-.083.146.016.146.083c0 .077.028.083.375.083s.375-.006.375-.083c0-.046.028-.083.063-.083s.063-.028.063-.063.037-.063.083-.063c.077 0 .083-.028.083-.375v-.375h-.292c-.232 0-.292-.013-.292-.063 0-.045-.046-.063-.167-.063s-.167.017-.167.063c0 .048-.053.063-.225.063-.205 0-.223.008-.203.083.02.078.001.083-.275.083h-.297v-.229c0-.176.015-.229.063-.229s.063-.053.063-.229-.015-.229-.063-.229-.063-.051-.063-.208c0-.181-.011-.208-.083-.208q-.084 0-.083-.083c0-.046-.028-.083-.063-.083-.044 0-.063-.044-.063-.146 0-.118-.016-.146-.083-.146-.046 0-.083-.028-.083-.063 0-.044-.044-.063-.146-.063-.118 0-.146-.016-.146-.083 0-.046-.028-.083-.063-.083s-.063-.028-.063-.063c0-.053-.102-.063-.667-.063s-.667.01-.667.063zm10.584.292c0 .034.028.063.063.063s.063.037.063.083c0 .067.028.083.146.083.139 0 .146.007.146.146 0 .118.016.146.083.146s.083.028.083.146-.016.146-.083.146-.083.028-.083.146c0 .102-.019.146-.063.146a.063.063 0 0 0-.063.063c0 .048-.053.063-.229.063s-.229-.015-.229-.063c0-.034-.028-.063-.063-.063S26 15.818 26 15.772q0-.083-.083-.083c-.067 0-.083-.028-.083-.146 0-.102-.019-.146-.063-.146-.047 0-.063-.051-.063-.208s.015-.208.063-.208c.035 0 .063-.037.063-.083q0-.083.083-.083c.046 0 .083-.028.083-.063 0-.044.044-.063.146-.063s.146.019.146.063zm-14.834.146q0 .084-.083.083c-.068 0-.083.028-.083.146s.016.146.083.146c.046 0 .083.028.083.063s.028.063.063.063c.034 0 .063-.032.063-.071 0-.055.011-.06.05-.021.027.028.07.05.094.049s.016-.019-.019-.041q-.063-.04-.01-.041c.032 0 .052-.058.052-.146 0-.118-.016-.146-.083-.146q-.083 0-.083-.083c0-.046-.028-.083-.063-.083s-.063.037-.063.083zM11 18.208c0 .62.009.729.063.729.048 0 .063.053.063.229 0 .201.01.229.083.229.072 0 .083.028.083.208s.011.208.083.208c.075 0 .083.028.083.292 0 .232.013.292.063.292.044 0 .063.044.063.146 0 .118.016.146.083.146q.084 0 .083.083c0 .046.028.083.063.083.044 0 .063.044.063.146 0 .118.016.146.083.146s.083.028.083.146c0 .102.019.146.063.146.035 0 .063.037.063.083q0 .084.083.083c.046 0 .083.028.083.063s.028.063.063.063c.054 0 .063.134.063.958s-.009.958-.063.958c-.044 0-.063.044-.063.146 0 .118-.016.146-.083.146q-.083 0-.083.083c0 .067-.028.083-.146.083-.102 0-.146.019-.146.063 0 .034-.028.063-.063.063s-.063.037-.063.083c0 .077-.028.083-.375.083S11 24.389 11 24.312q0-.083-.083-.083c-.046 0-.083-.028-.083-.063s-.028-.063-.063-.063-.063-.037-.063-.083q0-.084-.083-.083c-.083.001-.083-.028-.083-.083 0-.046-.028-.083-.063-.083-.044 0-.063-.044-.063-.146 0-.118-.016-.146-.083-.146s-.083-.028-.083-.146c0-.102-.019-.146-.063-.146-.047 0-.063-.051-.063-.208 0-.181-.011-.208-.083-.208-.068 0-.083-.028-.083-.146 0-.102-.019-.146-.063-.146-.052 0-.063-.076-.063-.438 0-.41-.005-.438-.083-.438-.08 0-.083-.028-.083-.75s.003-.75.083-.75.083-.028.083-.646c0-.546.01-.646.063-.646.048 0 .063-.053.063-.229 0-.201.01-.229.083-.229.067 0 .083-.028.083-.146 0-.102.019-.146.063-.146s.063-.044.063-.146c0-.118.016-.146.083-.146q.083 0 .083-.083c0-.046.028-.083.063-.083s.063-.028.063-.063c0-.048.053-.063.229-.063H11v.729zm11.167-.666c0 .035.037.063.083.063q.084 0 .083.083c0 .067.028.083.146.083.102 0 .146.019.146.063 0 .034.028.063.063.063.044 0 .063.044.063.146 0 .118.016.146.083.146q.083 0 .083.083c0 .046.028.083.063.083s.063.028.063.063.037.063.083.063q.084 0 .083.083c0 .046.028.083.063.083.044 0 .063.044.063.146 0 .118.016.146.083.146q.084 0 .083.083c0 .046.028.083.063.083s.063.028.063.063.037.063.083.063c.067 0 .083.028.083.146 0 .102.019.146.063.146.048 0 .063.053.063.229 0 .201.01.229.083.229.08 0 .083.028.083.813 0 .694.009.813.063.813.052 0 .063.083.063.5s-.01.5-.063.5c-.035 0-.063.037-.063.083q0 .084-.083.083c-.046 0-.083.028-.083.063s-.028.063-.063.063-.063.037-.063.083q0 .084-.083.083c-.046 0-.083.028-.083.063s-.028.063-.063.063c-.044 0-.063.044-.063.146 0 .118-.016.146-.083.146q-.083 0-.083.083c0 .046-.028.083-.063.083s-.063.028-.063.063c0 .044-.044.063-.146.063-.118 0-.146.016-.146.083 0 .073-.028.083-.229.083s-.229-.01-.229-.083c0-.067-.028-.083-.146-.083-.102 0-.146-.019-.146-.063a.063.063 0 0 0-.063-.063c-.048 0-.063-.053-.063-.229 0-.201-.01-.229-.083-.229-.046 0-.083-.028-.083-.063s-.037-.063-.083-.063c-.067 0-.083-.028-.083-.146 0-.102-.019-.146-.063-.146-.035 0-.063-.037-.063-.083q0-.084-.083-.083c-.067 0-.083-.028-.083-.146q0-.146-.059-.146c-.041 0-.063-.066-.073-.224-.018-.282-.003-.36.072-.36.033 0 .059-.028.059-.063s.037-.063.083-.063q.084 0 .083-.083c0-.046.028-.083.063-.083.048 0 .063-.053.063-.229 0-.201.01-.229.083-.229.072 0 .083-.028.083-.208s.011-.208.083-.208c.08 0 .083-.028.083-.667 0-.565.01-.667.063-.667.047 0 .063-.051.063-.208s-.015-.208-.063-.208c-.051 0-.063-.069-.063-.375 0-.347-.006-.375-.083-.375-.075 0-.083-.028-.083-.292v-.292h.146c.102 0 .146.019.146.063zm-9.125 1.02q0 .084.083.083c.083-.001.083.028.083.083 0 .046.028.083.063.083.044 0 .063.044.063.146 0 .118.016.146.083.146.072 0 .083.028.083.208 0 .157.015.208.063.208.044 0 .063.044.063.146s-.019.146-.063.146-.063.044-.063.146c0 .118-.016.146-.083.146-.073 0-.083.028-.083.229 0 .176-.015.229-.063.229-.052 0-.063.076-.063.438 0 .41-.005.438-.083.438q-.083 0-.083.083c0 .072-.028.083-.208.083s-.208-.011-.208-.083q0-.083-.083-.083c-.073 0-.083-.028-.083-.229 0-.176-.015-.229-.063-.229s-.063-.051-.063-.208c0-.181-.011-.208-.083-.208-.075 0-.083-.028-.083-.292 0-.232-.013-.292-.063-.292-.052 0-.063-.076-.063-.437s.011-.438.063-.438c.044 0 .063-.044.063-.146 0-.118.016-.146.083-.146q.083 0 .083-.083c0-.046.028-.083.063-.083s.063-.037.063-.083c0-.075.028-.083.292-.083s.292.008.292.083zm7.958.167c0 .046.028.083.063.083.044 0 .063.044.063.146 0 .118.016.146.083.146.081 0 .083.028.083 1.083s-.002 1.083-.083 1.083q-.084 0-.083.083-.001.084.089.083c.102 0 .096.335-.007.431q-.06.058-.019-.014c.027-.051.023-.053-.023-.01-.035.033-.183.052-.402.052h-.346v-.146c0-.118-.016-.146-.083-.146-.076 0-.083-.028-.083-.313 0-.25-.013-.312-.063-.312-.044 0-.063-.044-.063-.146 0-.118-.016-.146-.083-.146-.072 0-.083-.028-.083-.208 0-.157-.015-.208-.063-.208s-.063-.053-.063-.225c0-.161.018-.232.063-.249.047-.018.063-.093.063-.296 0-.244.009-.272.083-.272.067 0 .083-.028.083-.146 0-.102.019-.146.063-.146.034 0 .063-.028.063-.063s.037-.063.083-.063q.084 0 .083-.083c0-.075.028-.083.292-.083s.292.008.292.083zm-6.458 2.396c0 .102.019.146.063.146.045 0 .063.046.063.167 0 .139.014.167.083.167.067 0 .083.028.083.146 0 .102.019.146.063.146.053 0 .063.1.063.646s-.01.646-.063.646c-.035 0-.063.037-.063.083q0 .084-.083.083c-.068 0-.083.028-.083.146 0 .102-.019.146-.063.146-.034 0-.063.028-.063.063s-.037.063-.083.063q-.083 0-.083.083c0 .073-.028.083-.229.083s-.229-.01-.229-.083c0-.067-.028-.083-.146-.083-.139 0-.146-.007-.146-.146 0-.102-.019-.146-.063-.146-.034 0-.063-.028-.063-.063s-.037-.063-.083-.063c-.079 0-.083-.028-.083-.521s.004-.521.083-.521c.072 0 .083-.028.083-.208 0-.157.015-.208.063-.208.044 0 .063-.044.063-.146 0-.118.016-.146.083-.146q.083 0 .083-.083c0-.046.028-.083.063-.083.044 0 .063-.044.063-.146 0-.118.016-.146.083-.146q.083 0 .083-.083c0-.073.028-.083.229-.083h.229v.146zm3.5.833c0 .035.037.063.083.063.067 0 .083.028.083.146 0 .102.019.146.063.146.051 0 .063.069.063.375 0 .347.006.375.083.375s.083.028.083.354-.007.354-.083.354q-.084 0-.083.083c0 .067-.028.083-.146.083s-.146.016-.146.083-.028.083-.146.083-.146-.016-.146-.083-.028-.083-.146-.083c-.139 0-.146-.007-.146-.146 0-.102-.019-.146-.063-.146-.048 0-.063-.053-.063-.229 0-.201-.01-.229-.083-.229-.046 0-.083-.028-.083-.063s.037-.063.083-.063c.073 0 .083-.028.083-.229 0-.176.015-.229.063-.229.044 0 .063-.044.063-.146 0-.118.016-.146.083-.146s.083-.028.083-.146c0-.102.019-.146.063-.146a.063.063 0 0 0 .063-.063c0-.044.044-.063.146-.063s.146.019.146.063zm1.916 0c0 .035.037.063.083.063.077 0 .083.028.083.375 0 .306.012.375.063.375s.063.083.063.5-.01.5-.063.5c-.035 0-.063.037-.063.083 0 .067-.028.083-.146.083s-.146.016-.146.083-.028.083-.146.083-.146-.016-.146-.083-.028-.083-.146-.083c-.139 0-.146-.007-.146-.146 0-.118-.016-.146-.083-.146-.077 0-.083-.028-.083-.375s.006-.375.083-.375c.072 0 .083-.028.083-.208 0-.157.015-.208.063-.208s.063-.053.063-.229c0-.201.01-.229.083-.229.046 0 .083-.028.083-.063 0-.047.051-.063.208-.063s.208.015.208.063zm-3.541.146q0 .084.083.083c.08 0 .083.028.083.646s-.004.646-.083.646c-.067 0-.083.028-.083.146 0 .102-.019.146-.063.146-.035 0-.063.037-.063.083q0 .084-.083.083c-.083-.001-.083.028-.083.083 0 .072-.028.083-.208.083s-.208-.011-.208-.083c0-.067-.028-.083-.146-.083h-.146v-.521c0-.435.01-.521.063-.521.044 0 .063-.044.063-.146 0-.118.016-.146.083-.146q.084.001.083-.088c0-.066.018-.081.073-.062.069.024.069.023 0-.031-.089-.07-.093-.11-.01-.11.044 0 .063-.044.063-.146v-.146h.292c.264 0 .292.008.292.083zm-6.584 5.438c0 .034.028.063.063.063s.063.037.063.083q0 .084.083.083c.072 0 .083.028.083.208s-.011.208-.083.208q-.083 0-.083.083c0 .046-.028.083-.063.083s-.063.028-.063.063c0 .048-.053.063-.229.063s-.229-.015-.229-.063c0-.034-.028-.063-.063-.063s-.063-.037-.063-.083q0-.083-.083-.083c-.075 0-.083-.028-.083-.292s.008-.292.083-.292c.046 0 .083-.028.083-.063 0-.05.06-.063.292-.063s.292.013.292.063zm13.375.291c0 .034.028.063.063.063.048 0 .063.053.063.229s-.015.229-.063.229c-.034 0-.063.028-.063.063s-.037.063-.083.063q-.083 0-.083.083c0 .075-.028.083-.292.083s-.292-.008-.292-.083c0-.046-.028-.083-.063-.083-.05 0-.063-.06-.063-.292s.013-.292.063-.292a.063.063 0 0 0 .063-.063c0-.051.069-.063.375-.063s.375.012.375.063m-1.791.292c0 .035.037.063.083.063q.084 0 .083.083c0 .046.028.083.063.083.05 0 .063.06.063.292s-.013.292-.063.292a.063.063 0 0 0-.063.063c0 .051-.069.063-.375.063s-.375-.012-.375-.063c0-.034-.028-.063-.063-.063s-.063-.037-.063-.083q0-.084-.083-.083c-.067 0-.083-.028-.083-.146s.016-.146.083-.146.083-.028.083-.146c0-.139.007-.146.146-.146.102 0 .146-.019.146-.063 0-.047.051-.063.208-.063s.208.015.208.063zm-9.834.146q0 .084.083.083c.046 0 .083.028.083.063s.028.063.063.063.063.037.063.083q0 .084.083.083c.068 0 .083.028.083.146s-.016.146-.083.146-.083.028-.083.146c0 .102-.019.146-.063.146-.035 0-.063.037-.063.083 0 .076-.028.083-.312.083s-.313-.007-.313-.083c0-.046-.028-.083-.063-.083s-.063-.037-.063-.083q0-.083-.083-.083c-.075 0-.083-.028-.083-.292s.008-.292.083-.292c.046 0 .083-.028.083-.063 0-.044.044-.063.146-.063.118 0 .146-.016.146-.083s.028-.083.146-.083.146.016.146.083zm6.75.291c0 .067.028.083.146.083.139 0 .146.007.146.146 0 .118.016.146.083.146.046 0 .083.028.083.063s.028.063.063.063c.045 0 .063.046.063.167s-.017.167-.063.167c-.034 0-.063.028-.063.063s-.037.063-.083.063q-.083 0-.083.083c0 .046-.028.083-.063.083s-.063.028-.063.063c0 .044-.044.063-.146.063s-.146-.019-.146-.063-.044-.063-.146-.063c-.139 0-.146-.007-.146-.146 0-.118-.016-.146-.083-.146-.076 0-.083-.028-.083-.313s.007-.313.083-.313c.046 0 .083-.028.083-.063s.028-.063.063-.063.063-.037.063-.083c0-.067.028-.083.146-.083s.146.016.146.083m-3.666.292c0 .067.028.083.146.083.102 0 .146.019.146.063 0 .035.037.063.083.063.073 0 .083.028.083.229s-.01.229-.083.229q-.083 0-.083.083c0 .046-.028.083-.063.083s-.063.028-.063.063c0 .048-.053.063-.229.063s-.229-.015-.229-.063c0-.044-.044-.063-.146-.063h-.146v-.75h.146c.118 0 .146-.016.146-.083s.028-.083.146-.083.146.016.146.083"/></svg>