<svg xmlns="http://www.w3.org/2000/svg" width="300" height="300" viewBox="0 0 300 300"><title>factions-order-cities-of-sigmar-dispossessed-cropped</title><path d="m229.423 39.845-.076-.369-1.76.369-.666 4.487c-.731 9.935.222 17.88-1.023 25.752l.07 4.49-.884 4.926-.884 2.797 5.88.292 4.191-1.252-1.176-2.129-.07-3.159.217-2.353 5.441-5.522 6.395-3.013 1.397 2.65 3.681 3.75 2.129 2.135-.292 4.856-1.176 4.265 5.517 1.398 4.557-1.99-2.129-4.704c.141-4.786.07-7.359.07-10.005l-.07-1.03 1.172-2.727-.954-2.206.591-1.691V40.291c-1.322 1.1-2.428 2.059-3.528 2.943l-.591.807-1.837 1.176-5.371 5.372-4.265 3.973-5.658-4.64c-4.119-4.043-5.88-6.328-7.646-8.39l-.807-1.247zM57.12 86.71l-1.322-1.99-1.176-2.059c-.07-5.441-.07-10.227 0-15.083l.222-1.397 1.691-.146 2.428 1.176 3.084 1.1 3.966 1.99 5.517 3.089-.146 6.325-.591 4.195-.884 1.983.661.666 5.441.07 3.384-.217.07-.884-1.397-2.503c-.076-13.393-.076-25.677-.076-37.966l.441-3.681-8.161-1.913-.07.737.292 8.612.07 5.81-4.189-1.545c-4.191-1.99-6.763-3.384-9.407-4.564l-2.867-3.459 2.053-3.159.222-2.503H44.761l1.176 1.691 1.322 3.311c.07 12.433.07 23.614.07 34.801l.076 4.341-1.697 3.019h7.717zm126.652-28.62-.666-.737-.807-1.697-4.557-4.634-3.159-4.415 2.574-.814 1.472-.366 1.76-.96 3.089-.737 1.023-3.309-2.791-2.282-2.129-3.013-3.896-3.159-1.691-3.609-2.278.591-.884 1.621-2.203 3.019-1.837 3.966-1.697.884-4.557-3.309-.884-3.309-2.714-2.282-3.013-1.621c-5.81 5.886-10.809 10.888-15.808 15.744l-1.907.884a636 636 0 0 0-12.162 12.1l-.112.115-.292 1.247 2.937 3.236.954 1.913 4.043 4.119 2.428 2.943-1.767 2.428-3.674 2.278-2.278-.591-1.983 1.106-1.621.217.737 2.282c3.966 4.191 7.424 7.5 10.734 10.884l1.545.884 1.691-2.797 3.159-5.517.814-1.843 1.615.076 1.03.292.737.591 1.1 2.797 2.503.884.366 1.767 1.691.441 1.252.737 2.498-1.03 2.65-2.503 2.791-3.166 3.674-1.545.814-2.278 1.545-.737 3.159-2.943a3423 3423 0 0 1 14.702-15.008zm100.853-44.661v93.145c-.217 1.913-.515 3.75-.661 5.663l-.515 1.99-8.161-.076-4.997-.366-3.089-3.019-6.318-.807c-4.634-.292-6.693.515-8.972 0l-8.231-.814c-5.295-.366-6.471-.292-7.57-.366l-3.674.515-2.943 5.297-6.102-.441-6.248-1.545-2.797-5.67c-8.524-.217-14.848-.292-21.167-.292l-3.681 2.428.292 2.867-4.041 5.297-3.604 3.534-.222 2.353 2.282 2.059 2.937 5.447c-2.428 6.253-5.441 8.015-7.939 10.227l-2.72 3.089c-.737 6.992-1.176 11.918-1.176 16.921l-.292 9.197c1.837 8.759 1.247 13.097 1.247 17.366l-.146 90.203c0 7.434.076 14.861.076 22.368h-46.901c-.07-.666-.146-1.252-.07-1.843l.515-32.15c0-1.247-.441-2.574-.441-3.826l-.07-35.754v-81.374l-1.322-.222-2.278-5.371-5.587-2.353-1.03-3.166-.292-2.129 3.674-6.916 1.03-3.903 1.983-.591-.292-5.88c-4.627-3.089-7.132-5.148-9.776-6.916l-1.837-1.03c-6.325-.369-11.765-.441-17.127-.666l-6.253-.217-5.434 3.089-2.353 3.384-2.206 2.206h-6.248l-3.891-.369-1.472-1.983-2.353-3.166c-6.026.292-10.291.441-14.556.666l-1.397.292-4.557.441-4.487-.222-3.234.516-6.325.661-2.791 3.089h-7.57l-5.147-.441-.661-6.253V14.971l.07-1.1 4.78-.737 3.451.661 1.398 2.503 3.528 4.71c8.231-.441 13.452-.217 18.599-.292l3.598-.441 6.028.222 5.073-.96 2.498-3.457.807-2.797h8.09l4.85.591.807 3.089.96 5.222c9.703 0 16.54 0 23.446-.07l1.106-.146 3.598-3.756 3.604-3.013c5.588-3.459 10.145-6.77 15.071-8.975L143.045 1c3.82-1.1 7.79-1.176 11.689-.737l7.132 1.03 5.658.076c3.604 1.03 6.325 1.767 8.822 3.013l6.909 4.049 3.82 2.65 1.322 3.013 3.896.96 1.983 3.826 4.043 2.943c7.865.146 14.333 0 20.802-.146l1.247-.737.516-3.384.591-4.195 8.892-.146 4.78.591.807 3.089 2.059 2.503 2.352 1.398 4.926-.369 5.441.369c7.494.07 13.302.07 19.113 0l1.322-.222 2.568-3.089 2.574-3.896 5.88-.076z"/><path d="m168.998 58.456-6.687 7.434-2.059.441-.292 1.913-2.72 1.691-3.82 2.503-2.203-1.837 3.013-3.756c4.265-4.191 6.834-6.77 9.478-9.344l2.574-1.472 2.129 1.913zm-11.834-11.772-1.176 1.697-4.627 4.564-2.503 3.159-.807 1.176-2.059 1.322-1.983 1.252-2.278-.146-.661-2.428c4.774-4.634 8.378-8.39 12.198-11.99l1.983-.516 1.472.96zM54.693 56.473l.661-.737 2.867.591 5.295 2.574 4.922 2.873 1.767 1.767-.737.884-2.352-.737-7.424-3.311-4.341-3.089zm184.43 3.529-2.937 2.278-3.013 1.398v-5.297l.292-2.873h1.1l3.013 3.019zm12.935 3.825-2.428-2.943.666-3.236 1.983-1.398.737.737-.591 4.415z"/></svg>