<svg xmlns="http://www.w3.org/2000/svg" width="300" height="300" viewBox="0 0 300 300"><title>factions-chaos-slaanesh-sybarites</title><path d="M205.106 285.684c-1.491-3.891-2.503-6.544-3.516-9.178-.619-.178-1.238-.347-1.856-.516-1.922 7.856-3.6 15.919-13.791 18.647 0-3.403.309-6.741-.15-9.975-.188-1.359-1.997-2.494-3.066-3.722-.984 1.097-2.391 2.053-2.85 3.338-1.144 3.262-1.969 6.637-2.728 10.031-.975 4.294-3.075 6.188-7.875 5.578-4.987-.638-6.469-2.906-6.881-7.697-.216-2.381-3.187-4.538-4.912-6.778-1.162 2.166-2.653 4.209-3.366 6.516-.647 2.128-.45 4.509-.609 6.713-12.384.375-15.338.619-14.194-13.556.103-1.256-1.706-2.681-2.625-4.022-1.069.984-2.991 1.922-3.056 2.953-.216 3.872.188 7.772.366 11.672-8.1.769-9.722-1.181-13.284-17.719-4.153 5.391-7.537 9.788-11.813 15.347-5.409-10.116-7.688-18.881-6.703-28.369 1.35-12.956-5.794-23.4-11.494-33.6-4.209-7.537-13.191-10.762-22.744-8.147-5.372 1.472-7.988-.806-12.15-5.072-13.462-13.903-15.506-31.434-19.2-48.684-.375-1.772-1.275-3.497-2.241-5.072-3.291-5.334-2.653-10.041 1.706-14.512 7.359-7.566 9.956-15.647 4.041-25.688-1.941-3.291-1.931-8.081-1.791-12.169.234-7.659 1.622-15.281 1.819-22.95.619-25.219 14.475-44.063 29.588-62.316 9.281-11.213 22.913-15.3 35.831-19.097 21.825-6.413 43.987-8.859 67.359-7.078 20.766 1.584 37.706 9.881 54.178 19.819 12.094 7.303 22.322 17.644 25.725 32.991 2.503 11.278 6.984 22.097 10.106 33.262 6.206 22.266 3.609 44.709.909 67.162-1.444 12-2.981 24.094 3.553 35.409.647 1.125.178 3.797-.787 4.809-9.703 10.191-19.519 20.278-29.513 30.188-3.441 3.412-7.65 3.975-12.159 1.491-3.947-2.166-6.169-.534-8.081 3.412-5.194 10.697-4.838 22.116-4.988 33.459-.112 8.025-2.091 15.319-6.769 23.109zM116.503 50.803c12.244 3.225 23.831 6.019 35.194 9.506 2.034.619 3.15 4.163 4.697 6.366-2.766 1.013-5.597 2.981-8.287 2.803-4.847-.328-9.572-2.588-14.409-2.841-6.141-.328-13.556-1.444-18.234 1.397-5.991 3.628-12.262 7.566-16.509 14.625-12.122 20.156-.328 49.856 22.781 52.659 12.572 1.528 25.266.516 35.766-9.403 10.734-10.144 14.625-29.053 7.397-41.972-.797-1.425-.328-3.563-.441-5.372 2.091-.113 4.65-1.059 6.206-.197 5.991 3.291 7.716 9.244 8.588 15.581.75 5.428 1.659 10.838 2.644 17.128 8.194-13.875 5.409-34.978-5.503-45.337 5.522-5.634 10.116-12.694 19.969-9.553 1.669.534 3.722.159 5.541-.141 9.534-1.509 14.925-9.234 12.769-18.122-10.237 7.641-17.719 8.944-22.734 3.038-2.081-2.438-3.3-6.825-2.756-9.956.525-3 3.816-5.531 5.953-8.344-11.241.225-18.3 6.244-16.959 16.509.984 7.575.084 12.244-6.778 16.444-4.041 2.475-6.244 2.962-9.253-.506-1.022-1.181-2.344-2.391-3.778-2.916-13.725-5.006-27.609-4.406-41.869-1.397zM96.019 197.194c12-.103 23.438-1.566 33.262-9.656 4.397-3.609 4.781-7.322 2.194-11.437-1.509-2.391-4.059-4.622-6.656-5.756-12.891-5.653-25.828-11.325-39.056-16.097-4.556-1.641-10.106-1.275-15.113-.797-5.634.525-11.559 9.169-10.678 14.372 2.7 15.619 19.5 29.316 36.037 29.363zm130.443-43.378c-.159-.619-.328-1.247-.487-1.866-16.05 4.238-32.166 8.194-48.028 13.003-2.156.647-4.509 5.709-4.228 8.447 1.631 15.6 12.816 24.291 27.656 22.5 5.522-.675 10.866-2.616 16.378-3.347 10.837-1.453 17.212-8.672 22.584-17.044 7.003-10.903 1.594-21.15-11.091-21.525-.947-.038-1.884-.113-2.803-.159zm-69.525 80.568c1.406 1.847 2.869 5.203 5.409 6.666 2.606 1.491 6.412 1.828 9.422 1.256 1.313-.253 3.253-4.537 2.662-6.178-4.697-13.172-9.553-26.325-15.178-39.122-2.625-5.981-5.569-5.944-7.988.028-5.091 12.572-9.553 25.425-13.669 38.353-1.491 4.688 4.781 9.197 9.544 6.825 3.525-1.772 6.319-4.988 9.787-7.838z"/></svg>