<?xml version="1.0" encoding="UTF-8" standalone="no"?>
<!DOCTYPE svg PUBLIC "-//W3C//DTD SVG 1.1//EN" "http://www.w3.org/Graphics/SVG/1.1/DTD/svg11.dtd">
<svg width="100%" height="100%" viewBox="0 0 512 512" version="1.1" xmlns="http://www.w3.org/2000/svg" xmlns:xlink="http://www.w3.org/1999/xlink" xml:space="preserve" xmlns:serif="http://www.serif.com/" style="fill-rule:evenodd;clip-rule:evenodd;stroke-linejoin:round;stroke-miterlimit:2;">
    <g transform="matrix(1.23077,0,0,1.23077,-98.4621,-78.7676)">
        <path d="M168.871,65.83C115.925,74.704 93.248,99.019 83.022,157.88C79.021,180.907 88.588,211.164 105.629,229.384C115.306,239.729 151.438,266.446 162.23,271.236C169.065,274.269 168.857,275.659 160.38,283.519C133.915,308.052 128.643,318.299 120.546,360.959C115.803,385.949 118.784,396.706 137.231,421.196C162.218,454.364 190.814,474.886 215.553,477.398C219.96,477.845 227.172,478.795 231.581,479.508C250.805,482.618 289.447,470.482 303.087,457.054C331.294,429.28 339.197,399.925 332.765,346.804C331.533,336.633 330.763,328.048 331.052,327.73C331.342,327.41 339.733,329.192 349.699,331.687C392.273,342.351 411.533,341.204 442.333,326.161C469.513,312.889 481.2,296.751 488.097,262.964C490.172,252.792 492.431,241.973 493.118,238.922C498.306,215.844 476.773,175.435 441.342,141.763C428.234,129.305 402.104,119.318 387.548,121.201C384.157,121.639 373.616,123 364.122,124.225C344.922,126.702 336.894,129.669 317.177,141.579C305.369,148.711 303.028,148.884 301.475,142.746C294.79,116.321 286.088,103.632 259.359,81.329C247.319,71.283 239.561,67.23 228.456,65.176C218.467,63.33 181.348,63.736 168.872,65.829L168.871,65.83ZM229.428,168.828C249.73,174.994 256.153,189.574 247.307,209.413C241.654,222.093 234.518,225.956 214.321,227.278L202.608,228.045L198.062,224.213C183.881,212.254 183.849,188.813 198.001,176.352C211.138,164.785 213.925,164.118 229.426,168.827L229.428,168.828ZM289.618,189.444C294.074,190.211 307.39,194.166 319.209,198.236C331.026,202.306 341.56,205.635 342.617,205.636C347.43,205.638 349.009,209.187 357.889,240.005C363.684,260.115 366.385,271.339 365.498,271.621C358.108,273.972 318.415,279.763 312.584,279.344L305.432,278.827L291.228,264.731C283.418,256.979 272.028,245.245 265.92,238.656L254.813,226.677L258.788,218.602C262.228,211.616 262.939,208.467 264.062,195.242L265.36,179.957L273.437,184.003C277.88,186.229 285.163,188.676 289.62,189.441L289.618,189.444ZM255.008,247.113C260.771,253.592 270.397,264.249 276.401,270.794C292.85,288.729 292.474,285.448 281.981,319.751C270.739,356.503 273.353,353.698 256.841,346.731C249.392,343.588 238.462,339.155 232.552,336.879C219.457,331.835 216.205,329.788 214.446,325.477C213.019,321.983 207.239,266.624 206.773,252.001L206.501,243.502L222.432,239.495C244.829,233.862 242.8,233.388 255.01,247.113L255.008,247.113Z" style="fill-rule:nonzero;"/>
    </g>
</svg>
