<?xml version="1.0" encoding="UTF-8" standalone="no"?>
<!DOCTYPE svg PUBLIC "-//W3C//DTD SVG 1.1//EN" "http://www.w3.org/Graphics/SVG/1.1/DTD/svg11.dtd">
<svg width="100%" height="100%" viewBox="0 0 300 300" version="1.1" xmlns="http://www.w3.org/2000/svg" xmlns:xlink="http://www.w3.org/1999/xlink" xml:space="preserve" xmlns:serif="http://www.serif.com/" style="fill-rule:evenodd;clip-rule:evenodd;stroke-linejoin:round;stroke-miterlimit:2;">
    <path d="M46.881,4.737C72.335,5.585 72.335,5.585 80.516,29.213C85.977,45.073 85.977,45.073 102.251,45.073L197.39,45.073C213.25,45.073 213.25,45.073 217.863,30.17C225.804,5.455 225.804,5.455 252.368,5.521L266.249,5.521C270.839,5.521 272.036,7.196 269.729,11.7C266.292,17.966 262.767,25.536 259.721,33.39L259.264,34.76C256.327,42.68 259.264,45.855 267.184,44.746C274.211,43.266 282.805,42.069 291.507,41.396L292.225,41.353C300.145,41.353 301.907,44.378 298.012,50.774C292.921,59.172 286.917,67.026 282.152,75.641C278.584,82.537 273.363,82.625 267.315,81.58C262.441,80.231 256.633,79.121 250.65,78.512L250.193,78.469C249.802,78.443 249.411,78.428 249.019,78.426C241.426,78.426 234.965,83.3 232.572,90.065L232.529,90.196C216.212,124.179 199.221,157.988 180.445,190.643C168.936,210.506 179.401,223.842 189.017,238.658C189.017,239.049 190.279,239.049 190.757,239.529C204.638,254.258 204.463,254.106 190.757,268.682C183.708,276.602 177.508,284.542 170.372,292.461C166.412,296.66 162.452,296.507 160.626,289.524C158.8,282.541 158.015,275.513 156.34,268.53C155.296,264.484 153.925,260.959 152.162,257.63L152.271,257.891C151.466,256.303 149.334,255.367 147.767,254.171C146.669,255.536 145.734,257.026 144.983,258.609L144.917,258.761C142.546,266.201 140.718,273.729 138.194,281.104C134.3,292.417 131.841,293.136 124.074,284.672C116.307,276.208 109.019,266.615 101.078,257.912C96.4,252.842 97.423,249.123 101.708,244.445C107.734,237.635 113.281,230.347 118.917,223.212C128.598,210.941 124.856,198.04 118.917,186.14C105.037,156.813 89.894,128.074 75.862,99.008C69.836,86.412 64.353,77.926 46.839,81.799C17.273,88.282 8.157,67.701 0.607,47.642C-0.981,43.356 0.607,41.463 4.719,41.398C13.922,41.398 23.211,41.398 32.393,40.92C35.177,40.92 39.529,39.332 40.334,37.438C41.139,35.544 38.746,31.651 37.636,28.801C37.636,28.257 36.679,27.844 36.374,27.365L23.755,7.806L46.882,4.738L46.881,4.737ZM146.392,72.919L146.392,74.507L118.806,74.507C107.95,75.051 105.97,78.292 110.408,87.735C121.297,111.339 132.4,134.844 143.716,158.246C144.673,160.313 148.088,163.075 149.35,162.597C152.232,161.544 154.642,159.49 156.137,156.81L156.18,156.744C167.753,134.249 178.871,111.513 190.271,88.952C193.382,82.774 192.795,78.966 185.267,78.009L146.389,72.918L146.392,72.919Z" style="fill-rule:nonzero;"/>
</svg>
