<svg xmlns="http://www.w3.org/2000/svg" viewBox="0 0 300 300"><path d="M278.822.591c-2.784 2.878-5.737 5.616-8.334 8.653-8.288 9.647-16.425 19.425-24.647 29.128-3.525 4.153-7.153 8.212-10.678 12.366-.534.637-.994 1.434-1.181 2.241-.422 1.809.244 2.587 2.128 2.597 3.816.028 7.641-.047 11.447.009.956.009 1.894.431 2.841.666-.403.881-.6 1.969-1.247 2.606-3.45 3.441-6.862 6.938-10.566 10.106-8.653 7.406-17.475 14.644-26.222 21.947-.075.066-.169.131-.225.206-3.131 3.497-3.478 2.287-6.037.216-3.994-3.234-8.006-6.441-12.637-8.756-.647-.328-1.219-.844-2.072-1.434 3.347-2.869 6.516-5.541 9.647-8.25 1.341-1.172 2.644-2.391 3.872-3.675s.994-2.175-.684-2.569c-1.378-.328-2.803-.469-4.2-.628-1.003-.112-2.053-.009-3.047-.206-.506-.103-1.162-.544-1.341-.994-.131-.319.291-1.041.666-1.359 2.072-1.809 4.2-3.544 6.319-5.297 6.375-5.297 12.703-10.659 19.125-15.9 17.597-14.381 34.781-29.334 54.553-40.837.684-.403 1.303-.938 1.95-1.416.206.178.403.384.609.581zm-88.678 109.734c-.816.75-1.397 1.388-2.072 1.894a3956 3956 0 0 1-17.831 13.35c-.759.572-1.678 1.2-1.238 2.166.291.637 1.209 1.2 1.95 1.359 6.159 1.322 12.347 2.531 18.525 3.797.994.206 1.959.525 2.925.825 1.847.581 2.109 1.481.722 2.813-4.406 4.238-8.672 8.634-13.331 12.553-8.681 7.303-17.794 14.091-26.363 21.544-5.841 5.062-12.319 9.141-18.563 13.613-.366.272-.778.525-1.069.862-.684.816-.309 1.734.722 1.894.253.038.506.028.759.009 6.403-.384 12.797-.759 19.2-1.162 1.247-.075 2.784-.572 3.412.891s-.928 2.063-1.791 2.803c-17.794 15.3-35.663 30.516-53.363 45.919-4.725 4.097-9.009 8.691-13.406 13.153-.544.562-.778 1.603-.778 2.428 0 .281 1.078.741 1.716.844 4.163.713 8.325 1.35 12.497 2.016.778.131 1.556.253 2.325.384.047.178.103.366.15.544-26.1 14.719-52.191 29.419-78.291 44.138l-.225-.253c.103-.253.188-.525.328-.759 10.378-18.056 19.35-36.806 28.125-55.659 2.25-4.838 4.875-9.497 7.359-14.222.244-.469.647-.853 1.322-1.181.028.469.066.938.066 1.416.009 3.769-.009 7.537.047 11.306.009.703.356 1.397.544 2.1.75-.328 1.659-.497 2.213-1.031 7.041-6.694 13.978-13.519 21.084-20.137 2.747-2.559 5.859-4.725 8.813-7.078.431-.347.938-.666 1.237-1.106.253-.384.45-1.031.281-1.387-.169-.328-.862-.647-1.256-.581-5.906 1.003-11.597-1.059-17.428-1.209-2.803-.075-5.587-.131-8.391-.216-.638-.028-1.275-.141-2.372-.253 1.5-1.425 2.606-2.672 3.9-3.703 13.594-10.922 25.894-23.259 38.55-35.222 5.841-5.522 11.925-10.791 17.897-16.181.347-.309.778-.562.994-.938.319-.581.647-1.256.637-1.884 0-.225-1.003-.638-1.528-.609-3.9.244-7.791.647-11.691.844-3.759.188-7.528.216-11.278.206-.525 0-1.35-.544-1.491-1.003-.131-.403.422-1.134.816-1.575.431-.487 1.059-.787 1.575-1.2 13.369-10.491 26.709-21.009 40.097-31.472 3.488-2.728 7.106-5.287 10.659-7.922.206-.15.384-.328.581-.497 3.234-2.644 6.469-5.306 9.722-7.931 1.641-1.322 3.731-1.416 5.691-.169 1.847 1.181 3.553 2.559 5.372 3.769 2.878 1.894 5.822 3.722 8.719 5.578.647.403 1.303.9 2.203 1.556z"/><path d="M150.056 300c-.281-2.981-.469-5.962-.853-8.925-.544-4.378-1.35-8.747-1.819-13.134-.966-8.953-1.697-17.934-2.728-26.887-.806-6.909-1.931-13.791-2.916-20.691-.047-.356-.188-.75-.084-1.059 1.359-4.134-.328-8.287.084-12.422.103-1.041-.563-1.678-1.603-1.894-1.322-.272-2.625-.581-4.256-.956 2.709-2.288 5.119-4.453 7.706-6.431.628-.469 1.753-.394 2.644-.356 5.803.225 11.625.206 17.363-.75 2.784-.469 5.597-1.078 8.25-2.063 3.563-1.322 7.088-2.869 10.425-4.669 12.281-6.656 22.181-15.581 27.863-28.8 2.559-5.962 3.994-11.878 3.516-18.328-.469-6.234-.722-12.488-1.144-18.741-.075-1.162-.309-2.353-.741-3.422-2.25-5.653-4.153-11.522-7.013-16.856-5.325-9.947-13.894-16.575-23.963-21.366-1.378-.647-2.662-1.519-4.078-2.025-1.744-.637-3.581-1.106-5.4-1.463-5.841-1.134-11.737-2.428-17.709-1.95-12.853 1.022-25.172 3.806-35.287 12.581-3.722 3.225-7.003 6.825-9.394 11.156-2.737 4.922-5.128 10.097-8.297 14.728-4.209 6.159-4.547 13.078-4.725 19.988-.15 5.681.253 11.409.9 17.044.328 2.869 1.669 5.625 2.691 8.391.534 1.434.394 2.456-.816 3.488-1.744 1.472-3.347 3.094-5.409 5.025-1.659-5.025-3.234-9.769-4.791-14.513-.216-.675-.347-1.387-.572-2.053-.45-1.238-1.463-1.603-2.663-1.678-4.725-.291-9.469-.394-14.166-.891-10.875-1.172-21.731-2.419-32.569-3.872-5.334-.713-10.594-1.931-15.891-2.944-.384-.075-.741-.253-1.462-.506.628-.206.9-.291 1.2-.394 2.381-.816 4.725-1.791 7.144-2.419 9-2.316 18-4.706 27.075-6.694 6.441-1.416 13.041-2.137 19.528-3.356 3.234-.6 6.403-1.575 9.581-2.466.403-.113.891-.741.956-1.181 1.641-12.309 7.172-22.716 15.159-32.072 7.828-9.169 17.072-16.35 28.237-20.784 4.594-1.837 9.544-2.803 14.381-3.919 2.091-.487 3.3-1.387 3.881-3.478 2.606-9.291 5.306-18.563 7.978-27.844 3.694-12.797 7.369-25.584 11.072-38.381.178-.609.45-1.2.675-1.791h.403c.084.638.253 1.284.272 1.922.188 6.872.309 13.753.534 20.616.206 6.253.431 12.516.844 18.75.141 2.147 1.059 4.266 1.209 6.413.497 7.406.825 14.841 1.209 22.266.131 2.588.178 2.597 2.55 3.45 20.391 7.331 35.541 20.213 43.313 40.912.534 1.425 1.219 2.803 1.669 4.266.806 2.606 2.644 3.797 5.203 4.294 3.525.684 7.012 1.659 10.566 2.203 3.262.497 6.609.45 9.862.9 6.591.919 13.172 1.969 19.744 3.066 3.262.534 6.497 1.256 9.722 1.922.787.169 1.556.469 2.344.891-2.887.881-5.719 2.072-8.813 1.856-2.063-.15-3.947.15-5.719 1.2-.291.178-.684.394-.984.328-3.338-.666-6.094 1.125-9.037 2.109-1.538.525-2.981 1.284-4.706.844-.319-.084-.75.188-1.116.319-1.678.544-3.319 1.238-5.025 1.631a568 568 0 0 1-15.197 3.272c-2.747.544-3.872 2.138-4.313 4.875-.825 5.053-1.528 10.237-3.206 15.037-4.228 12.047-11.737 21.9-21.684 29.878-9.347 7.481-19.819 12.553-31.725 14.4-1.734.272-2.494 1.116-2.606 2.784a10 10 0 0 1-.366 2.1c-.347 1.134-.131 2.016.684 2.916.422.469.647 1.387.544 2.025-1.856 11.025-3.694 22.059-5.719 33.056-1.528 8.25-3.356 16.425-4.978 24.656-.984 5.044-1.781 10.125-2.672 15.178-.103.544-.225 1.078-.347 1.631-.178.028-.319.047-.459.066z"/></svg>