<svg xmlns="http://www.w3.org/2000/svg" width="300" height="300" viewBox="0 0 300 300"><title>factions-order-seraphon</title><path d="M22.172 177.412c.45.431.825.609.9.872 2.391 8.194 8.747 13.922 13.097 20.897.534.853 1.809 1.575 2.841 1.734 5.081.816 9.15-.3 11.691-5.522 2.156-4.434 5.025-8.531 7.603-12.75.9-1.462 1.866-2.878 3.066-4.734.937 1.125 1.603 1.809 2.147 2.578 4.125 6 8.269 11.981 12.328 18.019 2.653 3.956 6.6 5.634 11.025 5.55 1.828-.047 4.275-1.603 5.269-3.216 2.559-4.059 4.444-8.55 6.647-12.834 1.641-3.188 3.347-6.328 5.447-10.284 1.547 2.259 2.634 3.581 3.431 5.053 3.056 5.709 5.925 11.513 9.112 17.147.647 1.162 2.278 2.016 3.638 2.494 1.406.497 3.103.131 4.566.553 3.113.881 4.622-.666 5.4-3.3.525-1.781 1.031-3.647 1.041-5.484.141-12.656.159-25.313.188-37.978 0-.928-.338-1.866-.713-3.872-2.55 2.362-4.697 3.984-6.384 6-2.681 3.197-5.081 6.647-7.547 10.041-3.422 4.697-7.125 4.678-9.994-.319-3.056-5.344-5.85-10.837-8.747-16.275-1.669-3.112-3.797-3.778-6.225-1.359-6.159 6.094-12.141 12.356-18.047 18.694-2.072 2.231-3.009 2.362-4.678-.234a4026 4026 0 0 0-11.775-18.309c-2.278-3.516-6.3-3.694-8.719-.3-4.2 5.906-8.381 11.85-12.487 17.841-2.494 3.638-5.953 3.9-8.081.075-3.722-6.731-7.2-13.631-10.444-20.597-1.603-3.45-4.022-5.878-7.575-6.159-6.3-.497-7.847-5.372-8.381-9.722C.687 122.881.668 113.909.378 105.003c-.272-8.372-.45-16.744-.319-25.116.028-1.669 1.2-3.713 2.475-4.894 7.875-7.359 16.05-14.409 23.897-21.816 2.4-2.259 4.697-3.591 8.109-3.478 6.938.244 13.903.103 20.859.103 4.866 0 5.109-.337 6.441-5.156 2.756-9.975 1.913-19.875-.366-29.766-1.031-4.491.244-6.3 4.95-6.572 3.638-.216 7.284-.159 10.922-.113 4.969.075 9.919.206 14.888.403 3.909.159 6 3.769 4.838 7.491-1.331 4.284-2.625 8.644-3.234 13.078-1.594 11.475 8.353 19.697 17.306 20.175 2.081.112 4.303.422 6.253-.112 2.316-.619 4.856-1.603 6.544-3.216 4.753-4.5 7.463-9.994 6.6-16.875-.338-2.719.234-5.55-.131-8.259-.338-2.522-1.013-5.1-2.119-7.369-1.734-3.553-.338-7.181 3.647-7.228 8.241-.084 16.5.366 24.741.609 1.322.047 2.634.178 3.956.216 5.109.159 6.891 3.3 4.856 8.053-1.491 3.478-2.85 7.069-3.741 10.734-1.331 5.503-.609 10.931 1.753 16.116 1.678 3.694 4.388 6.188 8.419 6.666 3.806.45 7.706.694 11.531.497 3.619-.188 6.441-2.288 8.128-5.531 4.519-8.709 4.753-17.484.291-26.316a32 32 0 0 1-1.566-3.637c-1.172-3.319.656-6.141 4.247-6.281 8.372-.338 16.753-.684 25.125-.694 2.681 0 5.428.872 8.025 1.697 1.884.609 2.756 2.156 1.894 4.228-.178.403-.234.9-.497 1.219-6.703 8.447-3.084 18.253-3.459 27.487-.131 3.112 6.412 8.034 10.153 8.419 1.2.112 2.447.244 3.638.084 6.188-.825 10.866 1.641 14.588 6.384.534.694 1.097 1.416 1.809 1.922 3.928 2.766 5.344 6.6 5.606 11.278.216 3.966 3.103 6.253 7.734 6.75 8.4.881 16.791.722 24.881-1.959 2.878-.956 4.181.141 5.072 2.475.459 1.219.909 2.55.872 3.825-.244 8.156-.609 16.294-1.003 24.45-.056 1.088-.375 2.175-.694 3.234-.778 2.559-2.081 3.272-4.969 2.362-5.841-1.866-11.803-3.581-17.841-4.566-5.456-.9-8.934 3.581-12.872 6.431-.478.347-.581 1.434-.553 2.175.159 5.841.159 11.7.666 17.513.534 6.141 6.113 7.144 10.453 8.512 3.431 1.088 7.416.497 11.156.534 3.609.056 5.972-2.4 8.644-4.313.909-.647 2.625-1.013 3.544-.591.9.403 1.725 1.969 1.762 3.056.347 8.7.619 17.419.684 26.128.047 5.681-2.738 7.434-7.491 4.603-4.631-2.766-9.328-3.563-14.569-2.559-2.362.45-4.856.113-7.275.3-3.638.262-5.484 2.1-6.413 5.588-2.053 7.847-1.519 15.759-.591 23.653.459 3.928 5.869 8.381 11.034 9.178 5.85.9 11.644.591 17.325-1.275 4.462-1.481 7.462-.047 7.753 4.631.45 7.228.366 14.541-.141 21.778-.3 4.303-2.625 5.503-6.862 4.275-9.534-2.766-19.219-4.378-29.053-2.784-4.012.656-7.969 2.419-11.588 4.359-1.547.825-2.391 3.291-3.197 5.156-4.969 11.409-9.816 22.866-14.719 34.313-1.594 3.722-3.347 7.397-4.819 11.166-1.669 4.228-5.184 5.906-9.141 5.869-13.444-.131-26.878-.956-40.322-.928-6.169.019-9.009-2.531-11.222-8.072-2.916-7.228-7.097-13.931-10.65-20.897a66.5 66.5 0 0 1-3.3-7.528c-1.406-3.825-4.725-6.403-9.094-6.478-27.244-.478-54.469-.853-81.712-1.406-5.372-.113-10.716-1.031-16.087-1.284-5.606-.272-11.222-.075-16.828-.403-1.65-.103-3.741-.872-4.762-2.053-5.822-6.778-11.409-13.744-16.978-20.738-.769-.956-1.116-2.362-1.331-3.609-.263-1.509.056-3.131-.272-4.622-2.916-12.591 3.984-21.694 10.716-30.909 1.706-2.287 3.112-4.753 4.809-7.369zm166.631-95.784c-1.988 0-3.984-.178-5.953.028-6.291.637-12.141 2.522-16.566 7.256-7.05 7.556-6.216 17.203-6.591 26.494-.028.609.366 1.256.609 1.866 1.031 2.55 1.997 5.138 3.141 7.631.637 1.378 1.275 3.084 2.438 3.834 7.894 5.1 15.319 10.978 25.763 10.416 11.456-.619 21.084-6.563 24.797-17.391 1.228-3.609 1.144-7.781 1.144-11.691-.056-17.409-11.503-28.631-28.781-28.444zM36.356 110.522c11.109-6.478 21.262-12.384 31.416-18.291-.047-.45-.075-.9-.112-1.35-1.538-.525-3.038-1.434-4.594-1.509-6.347-.3-12.703-.45-19.059-.478-7.997-.047-8.672.609-8.559 8.475.056 4.172.563 8.344.909 13.153z"/><path d="M211.397 111.609c.656 14.887-12.994 22.622-26.681 19.941-6.759-1.331-11.85-5.203-16.322-10.013-1.406-1.509-2.288-3.806-2.662-5.878-1.144-6.403-.478-12.647 2.438-18.609 3.244-6.675 9.066-8.925 15.844-9.562 2.287-.216 4.622 0 6.937.019 9.591.047 17.325 6.188 19.378 15.628.609 2.766.722 5.644 1.069 8.475zm-22.678 11.382c9.178.525 11.4-6.722 12.328-13.659.694-5.241-6.806-11.138-15.703-10.612-6.534.394-11.728 5.259-11.662 11.803.056 6.722 6.956 12.441 15.037 12.469z"/></svg>