<svg xmlns="http://www.w3.org/2000/svg" viewBox="0 0 300 300"><path d="M206.906 283.762c-2.325-2.869-3.9-4.819-6.319-7.791-1.434 2.194-3.253 3.919-3.75 5.953-1.847 7.65-1.678 7.697-8.888 12.366-.262-2.559-.038-4.884-.816-6.825-.881-2.184-2.634-4.022-4.022-6-1.594 1.856-3.694 3.488-4.669 5.634-1.472 3.244-1.594 7.181-3.412 10.134-1.059 1.697-4.706 3.206-6.516 2.634-2.109-.647-3.769-3.488-5.044-5.709-.787-1.369.103-3.825-.797-4.978-1.238-1.566-3.441-3.084-5.297-3.178-1.228-.066-2.813 2.259-3.816 3.797-.544.844-.169 2.25-.281 3.394-.244 2.297.75 5.625-3.394 5.156-3.356-.384-7.866.863-8.447-4.622-.234-2.287.347-4.791-.403-6.834-.722-1.978-2.7-3.488-4.125-5.194-1.631 1.575-4.059 2.878-4.678 4.781-.891 2.756-.469 5.934-.619 9.216-5.081-.441-7.069-3.422-8.119-7.275-.45-1.65-.103-3.591-.787-5.091-.619-1.341-2.025-2.794-3.384-3.169-.825-.234-2.531 1.219-3.253 2.316-2.053 3.113-3.816 6.422-6.422 10.922-4.894-9.469-8.231-17.184-7.247-25.903.966-8.512-.244-16.387-5.081-23.597-.722-1.069-1.088-2.428-1.406-3.713-3.216-12.497-14.409-19.65-26.944-17.034-5.091 1.059-9.263 1.631-11.963-4.678-1.903-4.434-6.159-7.781-8.709-12.028-2.587-4.303-4.875-8.953-6.328-13.734-2.878-9.431-5.147-19.05-7.575-28.603-1.397-5.494-2.222-10.463 3.206-15.066 6.384-5.4 6.891-14.691 3.891-22.622-1.781-4.706-2.147-10.106-2.325-15.225-.178-4.941.375-9.966 1.172-14.859 1.95-12.028 1.809-25.181 6.928-35.737 7.716-15.891 16.444-32.456 32.466-42.019 8.878-5.288 19.059-8.813 29.063-11.672C131.277.496 154.199-1.332 177.655.918c13.631 1.303 25.547 6.15 37.041 12.647 7.547 4.266 15.206 8.737 21.628 14.447 5.728 5.091 10.594 11.569 14.391 18.253 3.206 5.634 4.725 12.366 6.253 18.788 3.206 13.584 7.275 27.159 8.466 40.95 1.163 13.603-.947 27.469-1.359 41.231-.347 11.513-.375 23.025-.487 34.537-.009 1.134-.066 2.597.553 3.375 5.25 6.516 1.069 11.644-2.766 16.256-7.95 9.534-16.012 19.106-27.609 24.534-1.734.816-4.228 1.266-5.934.675-8.128-2.813-10.669-2.025-12.834 6.581-1.922 7.688-2.794 15.656-3.834 23.541-.572 4.35-.234 8.841-.862 13.181-.609 4.097-1.959 8.119-3.412 13.847zm-97.969-152.737c7.8-4.716 7.8-4.716 10.519 3.628 3.787 11.616 18.047 22.2 30.159 22.35 16.078.206 31.613-10.284 36.966-25.181 1.05-2.934 1.322-6.159 1.922-9.216 7.791 1.228 12.731 4.744 11.522 8.634-1.397 4.519 1.228 5.203 4.097 5.634 5.306.778 10.669 1.406 16.022 1.547 10.313.272 10.791-.075 7.097-9.459-2.569-6.534-6.684-12.478-10.05-18.609-8.475 3.891-9.759 3.253-17.822-8.447 23.634-9.675 33.375-26.681 18.853-49.153-12.066-18.675-30.394-17.147-48.656-5.034 0-3.731-1.172-7.556.216-9.15 4.706-5.4 2.456-10.172.216-15.347-1.509-3.487-2.522-7.2-4.059-10.687-.591-1.369-1.884-3.169-3.047-3.319-1.134-.159-3.066 1.275-3.684 2.503-2.391 4.716-4.031 9.844-6.666 14.391-2.362 4.106-3.206 7.172.3 11.316 1.266 1.5-.45 5.503-.816 8.372-2.156-.853-4.959-1.116-6.384-2.634-8.963-9.628-27.956-13.416-39.872-7.725-7.116 3.394-11.438 9.291-14.719 16.116-3.938 8.194-3.75 17.147-.75 25.003 3.797 9.966 10.941 17.766 22.303 20.4 1.575.366 3.75 2.606 3.863 4.106.375 5.166-12.159 14.513-17.4 13.219-3.272-.797-5.606-.319-6.928 3.103-2.869 7.472-5.944 14.859-8.709 22.35-1.359 3.684-.413 6.309 4.209 5.306 5.25-1.134 10.519-2.278 15.581-3.994 4.612-1.575 8.259-4.341 5.709-10.041zm-8.353 68.531c9.806-.094 21.272-2.456 30.225-11.456 1.809-1.819 4.088-4.959 3.628-6.9-1.341-5.728-4.828-10.181-10.875-12.356-6.431-2.297-12.675-5.128-18.994-7.744-7.2-2.972-14.175-6.694-21.619-8.747-8.203-2.259-15.412-1.528-21.103 5.944-5.25 6.891-3.619 13.144 1.359 19.266.591.722.797 1.744 1.303 2.541 7.725 12.572 18.009 20.738 36.075 19.444zm126.31-47.578c-6.497.844-11.578.966-16.341 2.222-9.966 2.606-19.753 5.906-29.662 8.709-4.922 1.397-9.675 6.188-8.963 10.528 2.484 15.159 12.094 25.753 28.584 24.328 4.922-.422 9.694-2.897 14.588-3.131 12.872-.609 20.466-8.137 26.587-18.309 3.863-6.412 3.281-17.278-2.7-21.291-3.619-2.4-8.888-2.325-12.084-3.066zm-50.231 87.216c-.319-.375-.647-.741-.966-1.116-.141-1.134 0-2.4-.45-3.394-5.644-12.375-6.553-26.644-15.019-37.856-1.2-1.594-3.319-3.497-4.978-3.45-1.706.056-3.769 2.006-4.931 3.656-7.641 10.875-8.166 24.328-12.806 36.319-1.716 4.444-1.378 8.119 3.563 10.5 5.166 2.494 9.234.487 12.056-3.347 2.944-4.022 4.209-5.287 6.581.375 1.678 4.022 5.878 6.009 9.975 4.538 2.738-.994 4.688-4.097 6.975-6.225"/><path d="M208.266 70.425c-.141 8.85-9.431 16.969-19.612 17.147-6.084.103-13.256-7.575-13.153-14.109.169-11.006 7.753-19.819 17.212-19.434 8.513.347 16.697 8.156 15.553 16.397zm-70.303-2.709c0 8.269-5.634 12.938-15.816 13.125-6.9.141-14.391-7.688-14.409-15.075-.028-8.888 7.078-16.191 15.787-16.2 8.006 0 14.447 8.072 14.428 18.15zm16.603 40.528c8.672-1.116 12.647 3.966 13.294 13.266.647 9.281-6.366 16.434-15.066 16.537-7.453.094-14.494-7.387-14.653-15.609-.178-9.797 4.809-14.119 16.425-14.203z"/></svg>