<svg xmlns="http://www.w3.org/2000/svg" viewBox="0 0 300 300"><path d="M148.496 297.846c-32.537 7.526-62.497-5.959-91.199-20.392-11.114-7.175-20.021-16.867-26.021-28.31l-.206-.412c-5.568-9.114 1.279-19.031 7.547-26.187 14.372-17.279 32.805-30.723 53.858-38.95l.887-.309c20.413-6.99 41.713-9.402 62.044-15.506 23.423-6.99 47.279-13.321 67.24-29.259 7.01-4.598 11.588-12.412 11.588-21.3 0-.722-.021-1.423-.083-2.123v.103c-.391-10.433-7.568-19.072-17.237-21.691l-.165-.041c-25.836-7.897-52.703-15.052-79.611-12.352-21.155 2.164-42.682 5.402-61.054 18.145-12.186 8.434-12.722 15.877 0 22.579 9.939 5.527 21.485 9.67 33.754 11.774l.66.103c7.175.598 15.547.948 23.98.948 6.103 0 12.165-.185 18.186-.536l-.825.041c7.547 0 13.629-1.958 13.938-11.134.062-.454.083-.989.083-1.526 0-7.423-5.712-13.465-12.99-14.021h-.041a128.2 128.2 0 0 0-26.248 3.258l.866-.165a20.6 20.6 0 0 1-6.412-1.257l.144.041c.825-2.186 1.051-5.196 2.639-6.391 7.65-6.557 17.692-10.536 28.661-10.536 14.578 0 27.506 7.051 35.569 17.939l.083.124c8.207 11.114 2.248 32.64-10.392 41.073-12.557 8.207-27.919 13.072-44.434 13.072-5.65 0-11.155-.578-16.495-1.649l.516.103c-18.763-3.629-35.341-8.825-51.033-15.65l1.547.598c-14.907-5.299-27.011-15.423-34.682-28.434l-.165-.288c-4.515-8.269-5.402-15.032 1.814-21.073a142.5 142.5 0 0 1 32.269-23.011l.804-.371c24.929-10.083 21.918-8.577 17.774-35.135 0-1.113-1.649-2.164-1.649-3.237 0-3.526.475-7.072.681-10.598 1.876 2.33 3.608 4.805 5.568 6.99a205 205 0 0 0 16.723 17.898l.082.083a17.77 17.77 0 0 0 12.66 5.258c8.557 0 15.691-6 17.445-14.021l.02-.123c2.948-8.722 4.598-17.836 6.928-26.702 1.113-4.762 2.433-8.825 4.042-12.764l-.206.557c.516-1.361 2.474-2.104 3.836-3.073.886 1.279 1.649 2.742 2.289 4.289l.062.165c1.444 6.557 2.866 13.175 3.918 19.856 2.866 17.609 11.671 30.083 21.918 31.073s25.445-10.825 31.939-24.908v-1.794c1.649-1.649 3.382-3.155 5.113-4.661.537 1.917.866 4.145.866 6.413 0 .413 0 .784-.021 1.175v-.062c-1.423 8.929-3.299 16.743-5.733 24.289l.329-1.134c-3.382 9.341 0 13.259 8.66 16.413 16.104 4.969 29.754 13.835 40.372 25.506l.062.082c11.733 13.774 11.217 21.3 1.279 36.33-22.97 34.146-58.352 45.878-95.632 53.033-29.279 5.671-55.177 13.897-79.693 24.702l2.351-.949c-8.351 4.639-15.217 11.072-20.186 18.825l-.144.227c-1.732 3.176-2.742 6.969-2.742 10.99 0 9.217 5.34 17.176 13.072 20.991l.144.062c20.66 10.063 44.991 15.939 70.683 15.939 26.352 0 51.26-6.186 73.343-17.196l-.949.432c12.722-5.876 14.33-17.299 2.351-23.258-11.588-5.856-25.032-10.268-39.197-12.516l-.804-.103c-12.949-1.959-26.805-7.526-39.691 0-5.134 3.836-9.608 8.125-13.506 12.887l-.103.144c4.661 4.515 8.948 12.268 14.063 12.866 9.65-.124 18.928-1.547 27.691-4.103l-.742.185c.969-.083 2.123-.124 3.279-.124s2.289.041 3.423.124h-.165c-.783 2.433-1.752 4.556-2.989 6.516l.062-.124c-3.629 5.733-9.96 9.505-17.176 9.505-.681 0-1.382-.041-2.041-.103h.083c-2.804-.185-6.082-.309-9.382-.309s-6.578.124-9.814.329l.434-.021c-14.701-.268-27.176-9.444-32.29-22.33l-.082-.247c-2.392-9.176 6.557-26.846 17.692-32.414 25.3-12.475 51.342-17.299 78.765-6.309 7.547 3.155 17.237 3.382 24.702 7.526 12.887 6.186 24.021 13.403 34.063 21.857l-.247-.185c14.166 12.702 12.186 28.351-3.526 39.177-32.455 21.3-67.549 35.053-109.406 28.888l-.02-.103z"/></svg>