<svg width="300" height="300" xmlns="http://www.w3.org/2000/svg" viewBox="0 0 32 32"><path d="M15.399 27.875c-.39-2.342-.737-4.294-.737-4.316-.022 0-.39-.087-.803-.174-.737-.13-.781-.087-2.473 1.93-.933 1.15-1.713 2.082-1.757 2.082-.022 0 .369-1.171.911-2.581l.954-2.603-.586-.651c-.325-.369-.803-.672-1.041-.672-.26 0-1.475.39-2.711.868-1.258.477-2.299.824-2.321.802-.065-.043 3.622-3.123 4.078-3.427.13-.087.087-.434-.108-.889-.369-.868.13-.716-5.856-1.692-1.627-.282-2.95-.542-2.885-.586.043-.043 1.952-.39 4.251-.781l4.186-.694.26-.781.282-.781-2.147-1.692c-1.171-.933-2.104-1.735-2.06-1.778.022-.043 1.106.325 2.407.803 1.28.477 2.451.868 2.581.868.152 0 .586-.325.976-.737l.694-.716-.954-2.538c-.521-1.388-.911-2.516-.824-2.494.065 0 .607.607 1.171 1.345 2.169 2.798 2.191 2.798 2.993 2.581.716-.174.737-.239 1.084-1.909.195-.933.521-2.863.737-4.273.239-1.388.477-2.473.542-2.386.087.108.412 1.909.759 4.034.325 2.104.716 3.991.846 4.164.13.152.499.369.802.434.521.13.737-.043 2.277-1.93.954-1.15 1.735-1.995 1.778-1.887.043.13-.043.412-.152.651-.542.998-1.562 4.186-1.453 4.533.108.304-.152.477-1.215.846l-1.345.455-.868-.434c-1.388-.716-2.104-.846-2.95-.586-2.429.781-3.449 4.186-1.8 6.073.282.325.412.325 1.301.065 2.473-.737 5.14.976 4.164 2.689-.564 1.041-2.407.824-3.622-.412l-.672-.672-1.084.694c-.607.412-1.041.824-.954.954.629 1.15 2.624 2.082 4.359 2.082.564 0 1.562-.239 2.212-.499 1.583-.629 2.082-1.54 1.735-3.102-.412-1.778-1.627-2.689-3.622-2.689-1.648 0-1.995-.174-2.256-1.084-.282-.954.022-1.735.694-1.735.803 0 2.039.651 2.689 1.453l.672.759.629-.824c.369-.477 1.041-1.453 1.54-2.212.802-1.258.911-1.345 1.236-1.041.477.477.586.455 3.253-.542 2.386-.911 3.036-.998 1.952-.304-.325.217-1.301.976-2.169 1.692-1.388 1.15-1.562 1.366-1.453 1.865.239 1.019.065.976 5.617 1.865 3.839.629 3.861.607-.868 1.388-2.386.39-4.403.781-4.468.868-.087.065-.217.434-.282.781-.13.607-.022.737 1.909 2.277 1.128.889 2.06 1.692 2.06 1.778.022.13-2.538-.737-4.208-1.431l-.846-.369-1.518 1.518.933 2.516c.499 1.41.889 2.581.846 2.624-.043.022-.802-.846-1.692-1.974s-1.778-2.06-1.952-2.039c-.651.043-1.41.325-1.41.521-.043.672-1.301 8.047-1.41 8.177-.065.087-.455-1.757-.846-4.121z"/></svg>