<svg xmlns="http://www.w3.org/2000/svg" viewBox="0 0 300 300"><path d="M130.706 173.006c13.612-16.781 10.481-38.906-4.659-47.006-7.219-3.872-16.734-1.894-21.9 4.453-2.775 3.413-5.231 7.331-8.653 9.919-2.494 1.875-6.328 1.987-9.572 2.878-.272-.778-.553-1.547-.825-2.325 3.131-3.834 6.394-7.566 9.347-11.531 3.131-4.228 5.953-8.681 9.872-14.466-.647-.581-2.287-3.225-4.453-3.778-5.513-1.434-11.288-2.775-16.884-2.513-3.731.178-8.072 2.513-10.594 5.288-1.087 1.181 1.706 5.925 2.878 9.506-6.553 2.231-11.653-1.753-14.606-6.412-1.387-2.175 1.153-8.034 3.441-11.1 3.3-4.434 7.978-7.847 11.306-10.978 3.825 1.781 6.206 2.925 8.606 4.041.834-1.828 1.659-3.666 2.494-5.475-1.322-.328-2.653-.675-4.631-1.181 1.594-1.5 3-4.022 4.734-4.275 11.353-1.641 22.772-2.878 34.191-3.994 1.631-.159 4.659.675 4.866 1.566 2.775 11.812 14.231 15.188 21.666 22.331 15.947 15.319 22.725 33.844 18.966 55.238-1.294 7.387-7.406 13.941-11.287 20.888-.759 1.341-1.406 2.747-3.141 6.141 9.084 0 16.988.778 24.712-.159 15.112-1.828 29.044-7.847 40.313-17.831 6.581-5.841 11.119-14.231 15.731-21.966 1.519-2.541 1.472-7.172.141-9.872-1.078-2.194-5.128-2.925-7.866-4.313-.787 2.466-2.728 5.241-2.166 7.331 2.981 10.828-.478 20.813-10.2 25.819-1.519.778-5.025-.178-6.328-1.547-8.025-8.428-6.759-28.838 1.294-37.294 7.266-7.641 13.772-15.994 21.684-25.313 22.678-1.181 33.094 17.484 28.884 39.066-1.5 7.706-2.128 15.684-4.641 23.034-1.847 5.4-5.1 11.241-9.478 14.672-12.441 9.731-24.834 20.353-39 26.766-14.681 6.666-31.219 9.741-48 5.166-6.881-1.875-14.184-2.259-21.253-3.441-16.031-2.7-31.594-23.691-32.212-39.806-.534-13.781.553-26.691 11.981-36.497 6.778-5.813 13.472-4.078 15.188 4.688.787 4.013.112 8.306.094 12.459-.047 6.581-.028 13.181-.028 21.825z"/><path d="M65.709 163.837c7.087 8.531 14.841 14.888 26.334 15.037 6.881.075 10.828 2.606 11.953 10.472.666 4.594 4.978 8.794 8.1 12.834 1.688 2.194 4.313 3.666 6.506 5.447-.281.581-.581 1.153-.872 1.734-10.181 0-20.559 1.228-30.506-.319-12-1.875-23.053-7.041-33.319-14.213-16.481-11.494-26.091-32.559-21.084-52.106 2.419-9.412 8.7-17.034 17.053-22.331 1.5-.947 4.772-.253 6.628.778 5.672 3.075 11.334 6.3 16.388 10.266 2.541 2.006 4.434 5.494 5.428 8.7 3.141 10.134-3.225 22.191-12.637 23.7zm131.963-37.884c2.475-2.672 5.025-5.381 8.813-9.478-11.147-.713-20.7-1.322-30.825-1.978-1.875 3.834.647 7.931 9.441 13.341-3.534 7.931-3.272 8.381 7.5 12.759-.478.619-.788 1.313-1.322 1.688-9.806 6.9-10.078 6.581-15.619-3.206-3.872-6.834-8.541-13.247-13.266-19.547-4.434-5.934-9.675-11.278-13.959-17.306-.966-1.359-.225-5.7 1.125-6.619 8.934-6.047 18.741-8.841 29.691-6.188 5.578 1.341 11.287 2.1 16.725 3.094-.666 2.813-2.213 5.578-1.519 7.547.553 1.575 3.806 2.231 6.834 3.787-.178-3.787-.272-5.981-.366-8.212 8.775.206 17.166 6.234 17.541 11.878.478 6.366-10.931 18.647-20.794 18.431zm75.816-27.337c4.153 2.588 8.653 4.219 11.466 7.378 9.328 10.472 17.606 22.191 14.306 37.05-2.606 11.7-5.306 22.894-16.8 31.725-9.366 7.181-18.459 11.7-29.419 13.978-1.2.253-2.513.028-4.472.028.487-2.259.487-4.125 1.266-5.559 1.687-3.113 4.453-5.775 5.541-9.028 2.578-7.678 6.619-12.431 14.672-16.012 14.887-6.619 17.587-30 12.947-41.419-2.288-5.7-5.681-10.959-9.506-18.131z"/><path d="M24.262 104.569c-11.484 11.184-12.3 24.478-10.547 38.231.9 7.013 2.381 13.959 10.828 16.331 1.678.478 3.806 2.259 4.228 3.853 2.278 8.587 4.087 17.306 6.047 25.978-12.853 2.587-31.444-13.331-33.919-29.578-4.706-30.759 9.984-52.837 23.353-54.806z"/></svg>