<svg xmlns="http://www.w3.org/2000/svg" viewBox="0 0 300 300"><path d="M0 40.219c3.628 1.134 7.247 2.325 10.894 3.413 5.372 1.603 10.837 2.662 16.444 2.85 5.859.187 11.728.272 17.587.384 1.894.037 3.778 0 6.056 0-1.303-2.681-2.4-5.325-3.825-7.8-1.931-3.356-4.209-6.506-6.112-9.881-1.106-1.959-1.641-4.237-2.663-6.244-1.819-3.619-3.806-7.134-5.709-10.697-.291-.534-.525-1.106-.891-1.931 2.438 0 4.641-.113 6.834.028 4.659.272 9.328.984 13.988 1.013 7.875.028 15.759-.291 23.634-.591 1.772-.066 2.503.366 2.878 2.194 1.641 8.166 3.319 16.341 6.347 24.15 1.284 3.328 2.456 6.712 3.797 10.031.15.366 1.013.619 1.566.647 7.237.216 14.484.262 21.703.619 7.697.384 15.356.384 23.044-.412 4.416-.45 8.906-.234 13.359-.3 9.534-.122 19.088-.319 28.622-.319 7.069 0 14.137.178 21.206.366 3.347.094 6.675.441 10.003.684 1.162.084 1.809-.262 2.316-1.453.6-1.416 1.847-2.531 2.466-3.928.619-1.369.656-2.991 1.181-4.416 1.106-3.066 2.503-6.056 3.534-9.15 1.875-5.606 4.134-11.109 4.331-17.156.009-.347.647-.947 1.003-.956a1823 1823 0 0 1 21.581-.525c.713-.009 1.434.45 2.166.441 3.506-.037 7.003-.272 10.491-.262 4.209.009 8.409.169 12.6.366 1.303.066 1.341.956.525 2.203-2.409 3.656-5.025 7.238-6.928 11.156-1.753 3.619-2.587 7.659-4.012 11.438-1.462 3.891-3.15 7.688-4.847 11.822 2.147-.15 4.219-.206 6.262-.441 4.359-.525 8.709-1.069 13.069-1.716 5.859-.862 11.7-1.837 17.55-2.766 2.259-.356 4.509-.722 6.769-1.031.366-.056.984.112 1.134.366.169.291.009.862-.178 1.219-.291.544-.703 1.041-1.078 1.537-.797 1.041-1.106 2.053-.834 3.469.591 3.019-.806 5.531-2.494 7.922-.497.684-.881 1.434-1.313 2.166-.881 1.453-1.772 2.887-2.616 4.369-.825 1.425-1.641 2.85-2.4 4.312-2.559 5.025-4.997 10.106-7.641 15.084-1.275 2.4-4.772 3.384-8.016 2.503-5.587-1.509-11.25-2.784-17.025-2.737-5.466.037-10.922.778-16.369.862-2.325.028-2.859 1.313-3.619 2.944-1.509 3.244-3.244 6.384-4.744 9.647-1.162 2.531-1.997 5.203-3.122 7.753-.778 1.753-1.791 3.413-2.7 5.109-1.162 2.203-2.297 4.434-3.478 6.647-1.931 3.6-3.9 7.191-5.85 10.781-2.025 3.741-4.059 7.491-6.066 11.231-2.231 4.163-4.491 8.316-6.675 12.506-2.662 5.109-4.669 10.463-6.356 15.975-1.219 3.975-3.234 7.603-5.606 11.072-2.016 2.944-3.591 6.188-5.25 9.375-3.084 5.906-6.084 11.841-9.084 17.784-.853 1.669-1.791 3.356-2.278 5.147-.328 1.219-.262 2.784.234 3.928 3.778 8.822 7.791 17.522 14.822 24.384 1.838 1.791 3.375 3.919 5.287 5.606 1.866 1.631 3.984 2.972 6.113 4.275 1.425.881 1.547 1.387.291 2.503-1.688 1.509-3.919 2.822-4.772 4.744-1.453 3.244-4.313 4.988-6.45 7.481-2.644 3.094-5.644 5.962-7.791 9.375-1.078 1.725-2.231 3.3-3.572 4.781-.75.834-1.434 1.753-2.25 2.55-2.222 2.231-4.519 4.369-6.703 6.628-2.616 2.728-4.247 2.381-5.456-1.331-2.428-7.416-4.809-14.85-7.247-22.266-.188-.572-.591-1.078-.862-1.631-.478-.975-1.153-1.931-1.331-2.963-.319-1.931-.984-3.019-2.466-3.216s-3.15.834-3.825 2.297c-1.809 3.919-3.684 7.791-5.456 11.728-1.059 2.344-1.922 4.772-2.963 7.097-1.941 4.369-3.881 8.738-6.019 13.012-.412.825-1.688 1.209-2.297 1.631-1.744-1.659-3.375-3.122-4.894-4.669-1.481-1.509-2.859-3.094-4.275-4.669-4.003-4.434-8.016-8.878-11.972-13.341-.628-.713-1.284-1.566-1.509-2.438-.684-2.709-2.428-4.631-4.481-6.291-2.025-1.641-4.181-3.15-6.319-4.641-1.256-.881-1.753-2.1-1.697-3.525.056-1.313.881-1.997 2.166-2.287.45-.094.853-.534 1.209-.891 9.553-9.497 17.934-19.95 25.397-31.144 1.013-1.519 1.744-3.216 2.813-4.697 1.744-2.381 2.259-4.744 1.069-7.603-2.231-5.325-3.975-10.894-6.394-16.125-3.178-6.862-6.881-13.491-10.247-20.278a60 60 0 0 1-3.169-7.566c-1.481-4.387-4.388-7.95-6.534-11.916-3.947-7.284-7.369-14.869-11.072-22.303-1.463-2.934-3.122-5.766-4.613-8.681-4.537-8.784-9.028-17.587-13.537-26.391-.825-1.612-1.744-3.197-2.438-4.866-.75-1.772-2.1-2.259-3.825-2.231-2.85.056-5.728-.028-8.559.206-2.428.187-4.894.478-7.191 1.191-6.066 1.894-12.056 4.078-18.094 6.084-2.531.834-2.297.525-4.059-1.387-2.662-2.906-5.822-5.325-8.559-8.166-1.303-1.359-2.259-3.113-3.113-4.809-1.219-2.438-2.222-4.997-3.272-7.519-1.434-3.412-2.737-6.881-4.284-10.238-1.059-2.259-2.353-4.416-3.703-6.525-1.744-2.709-3.619-5.353-5.484-7.987-.497-.656-1.191-1.181-1.781-1.772v-2.053zm114.422 40.237c.497 1.566.975 2.559 1.125 3.619 1.134 7.453 4.303 14.194 7.716 20.737a156 156 0 0 0 9.909 16.397c3.834 5.578 7.059 11.587 10.369 17.513 2.194 3.928 4.153 7.997 6.084 12.066 1.641 3.45 3.094 7.003 4.631 10.509.206-.009.413-.028.619-.037 1.875-3.853 3.769-7.688 5.616-11.531 3.056-6.356 6-12.769 9.169-19.069 2.109-4.209 3.881-8.616 7.125-12.197 1.003-1.097 1.509-2.663 2.109-4.069 1.219-2.794 2.353-5.634 3.506-8.466.497-1.209.891-2.456 1.387-3.675.45-1.106.834-2.259 1.463-3.263 3.216-4.997 6-10.181 7.359-16.041.422-1.819.412-1.987-1.397-2.044-6.094-.206-12.197-.469-18.3-.563-7.303-.122-14.559-.713-21.909-.169-7.847.591-15.759.3-23.644.366-2.325.009-4.669-.066-7.013-.094-1.847-.009-3.703 0-5.906 0z"/></svg>