<svg xmlns="http://www.w3.org/2000/svg" width="300" height="300" viewBox="0 0 300 300"><title>factions-order-bladeborn-xandires-truthseekers</title><path d="M145.914 12.302c-1.059 4.121-1.472 11.082-1.921 32.374-.829 39.548-2.921 48.717-13.887 60.911-11.761 13.078-9.505 29.402 5.084 36.782 23.35 11.813 46.907-9.294 35.379-31.702-1.443-2.804-2.606-4.289-8.592-10.968-5.213-5.816-6.527-9.457-6.915-19.167-.866-21.563-5.204-59.283-7.909-68.793-.354-1.245-.827-1.03-1.238.564v-.002zM49.045 55.975c-12.786.663-15.03 1.208-15.028 3.64.009 5.198 5.927 23.573 8.51 26.428.937 1.035 2.632.807 6.125-.827 10.954-5.127 17.583 4.887 23.064 34.846 2.596 14.179 7.011 14.746 10.714 1.378 1.879-6.78 5.081-13.282 9.841-19.982 1.816-2.556 3.302-4.805 3.302-4.999s-1.938-4.397-4.304-9.343c-9.223-19.259-8.846-19.644 10.737-10.949 13.862 6.154 29.111 5.371 32.602-1.673.962-1.939.968-4.439.028-8.484-.401-1.719-.843-4.092-.981-5.27-.291-2.476-.476-2.585-5.426-3.271-11.892-1.642-59.132-2.531-79.187-1.494h.004zM160.657 59.2c.586 8.541 1.439 12.079 3.635 15.111 4.525 6.246 16.124 6.874 29.45 1.596 2.059-.814 5.854-2.33 8.435-3.364 10.484-4.208 10.836-3.561 4.871 8.921-6.411 13.419-6.58 16.226-1.443 24.227 2.929 4.562 4.562 8.214 6.891 15.373 2.775 8.546 3.983 10.473 6.098 9.732 2.442-.86 3.953-5.15 5.897-16.763 3.829-22.866 8.487-30.475 18.217-29.749 10.364.773 10.433.715 15.619-13.112 3.655-9.745 3.553-11.936-.628-13.607-4.162-1.661-6.04-1.731-52.852-1.895l-44.439-.158.252 3.686h-.006zm-42.053 32.907c-11.945 6.439-22.663 20.582-27.775 36.65l-2.33 7.32-6.88.837c-18.034 2.194-41.798 4.421-67.767 6.35-7.682.57-13.915 1.088-13.852 1.153.062.062 7.025.622 15.469 1.242 29.994 2.207 71.789 6.151 72.434 6.837.049.053 1.051 3.387 2.23 7.41 7.222 24.677 13.494 31.248 42.239 44.264l8.457 3.83.86 17.529c2.255 45.94 3.796 61.812 6.144 63.277 1.482.926 1.631.035 2.546-15.157.573-9.517 2.344-31.123 4.134-50.461.821-8.865 1.493-16.337 1.493-16.609s4.232-2.609 9.401-5.196c24.722-12.369 33.19-19.811 38.074-33.466 5.564-15.553 14.04-18.915 50.494-20.021 12.973-.393 19.869-.773 27.588-1.521 4.716-.457 18.277-2.17 18.435-2.33.059-.059-14.455-1.254-32.25-2.657-61.623-4.859-57.8-4.007-61.636-13.755-5.886-14.963-13.95-26.373-22.8-32.263-8.795-5.852-10.23-3.984-4.027 5.244 4.714 7.014 6.329 11.535 6.636 18.573.807 18.539-12.371 36.874-29.869 41.546-33.321 8.896-60.158-35.97-38.02-63.56 5.176-6.454 5.31-7.618.572-5.065v-.006l-.002.002zm90.994 85.471c-.355.207-2.412 3.032-4.57 6.274-4.731 7.112-8.797 11.821-13.453 15.584-7.222 5.834-7.209 5.779-4.57 20.837 3.702 21.135 2.958 21.091-19.602-1.179-4.897-4.833-6.098-5.845-6.264-5.277-.377 1.305-1.714 8.564-2.099 11.404-1.071 7.903-2.455 32.289-1.854 32.678.48.313 23.505 1.119 31.479 1.102 11.588-.025 12.836-.697 10.459-5.627-2.411-5.002-1.486-12.033 5.501-41.882 6.795-29.036 7.747-35.527 4.978-33.915h-.002l.001.002zm-125.139 3.205c-.705 2.814 1.09 12.333 8.668 45.942 3.87 17.16 4.309 22.791 2.06 26.408-2.353 3.785-1.738 3.96 15.398 4.379 12.927.316 18.196.708 21.116 1.571 4.034 1.193 4.221.3 4.221-20.159 0-27.468-.704-28.08-15.55-13.532-14.222 13.936-14.067 14.075-13.521-12.182.231-11.044.414-10.567-6.746-17.51-3.013-2.921-6.743-6.881-8.291-8.797-5.747-7.118-6.874-8.057-7.362-6.123h.004l.001.001z"/></svg>