<svg xmlns="http://www.w3.org/2000/svg" width="300" height="300" viewBox="0 0 300 300"><title>factions-chaos-khorne-daemons</title><path d="M297.572 13.519v13.959c-.319.637-.881 1.266-.891 1.913-.066 3.497-.066 7.003.037 10.5.038 1.003.553 2.006.853 3v8.456c-.713 1.125-1.622 2.175-2.091 3.384-.675 1.762-1.8 2.438-3.609 2.419a274 274 0 0 0-8.784.038c-1.331.028-3.066.797-3.909.206-2.147-1.5-4.322-.206-6.441-.478-2.419-.319-5.006 1.022-7.641.319-.319-.084-.759.009-1.059.197-1.959 1.078-3.816 1.444-5.559-.413-.234-.244-.759-.3-1.153-.291-3.028.028-6.047.112-9.075.15-3.122.037-6.234.037-9.356.066-3.066.028-5.241 1.444-7.022 3.947-1.856 2.616-4.003 5.025-6.178 7.388-5.878 6.459-11.85 12.825-17.747 19.275-1.941 2.119-3.769 4.341-5.813 6.675.675.263.975.347 1.228.478 2.738 1.528 5.372 1.556 8.166-.038.684-.403 2.672.009 2.962.591 1.078 2.147 2.859 2.85 4.913 3.019 7.847.675 15.722 1.256 23.578 1.8 1.2.084 2.419-.094 3.638-.244 1.734-.206 3.469-.581 5.203-.713 6.028-.469 12.169 1.519 18.141-.759.216-.084.478 0 .731-.009 4.294-.403 8.606-.787 12.9-1.181.122-.009.234-.066.356-.084 2.409-.244 4.856-.853 7.228-.638 1.584.15 3.647 1.088 4.416 2.325 1.022 1.641 1.144 3.919 1.331 5.962.122 1.35-.431 2.756-.441 4.144-.094 5.934-.141 11.85-.084 17.784.009.731.759 1.434 1.172 2.156v3.675c-3.816 5.738-7.65 11.466-11.409 17.25-.684 1.059-1.444 1.463-2.681 1.472-4.106.037-8.194.169-12.281.319-8.053.291-16.088.609-24.141.891-1.622.056-3.253.009-5.522.009 1.097 1.331 2.344 2.175 2.55 3.225.684 3.506 3.469 5.194 5.728 7.388 1.313 1.284 2.438 2.738 3.675 4.087.262.291.703.684 1.003.647 1.584-.206 1.931.797 2.297 1.978.216.713.656 1.434 1.172 1.997 1.519 1.725 3.525 2.859 5.259 4.284 2.466 2.025 4.35 4.772 6.488 7.209.647.731 1.238 1.519 1.969 2.156 1.491 1.322 3.15 2.466 4.566 3.853 1.538 1.519 2.831 3.291 4.322 4.875 4.322 4.556 8.709 9.047 13.031 13.603.431.441.797 1.153.797 1.744.084 9.047.094 18.075.141 27.122.028 5.241-.037 10.5.178 15.731.113 2.709.909 5.4 1.116 8.119.234 3.094.141 6.206.216 9.319.122 4.387.347 8.784.356 13.172 0 .881-.478 2.091-1.153 2.597-3.525 2.625-7.172 5.091-10.809 7.547-.45.3-1.153.328-1.734.3-4.2-.272-8.381-.769-12.581-.853-4.697-.094-9.413-.084-14.091.356-4.35.412-8.634 1.612-12.984 2.147-4.284.525-8.634.591-12.347 3.253-.347.244-.947.141-1.434.141-13.791-.038-27.572-.216-41.325 1.256-4.819.506-9.759.262-14.606-.056-5.728-.356-11.409-1.181-17.128-1.762-1.941-.197-3.9-.403-5.841-.384-6.966.009-13.931.113-20.897.197-10.378.122-20.775.291-31.153.384-2.625.028-5.269.122-7.875-.169-4.669-.525-9.281-1.641-13.941-1.903-5.85-.328-11.728-.141-17.587.009-4.875.122-9.731.675-14.587.759-8.119.15-16.247.009-24.347.15-3.3.056-6.816-.609-9.825 2.184-1.566-2.55-4.294-3.881-4.078-7.669.356-6.019-.094-12.084-.328-18.141-.056-1.359-.759-2.681-.872-4.05-.319-3.938-.441-7.903-.703-11.841-.15-2.372-.478-4.725-.591-7.088-.113-2.259.478-4.706-.225-6.741-1.256-3.619-.881-7.237-.938-10.875-.009-1.378.3-2.766.506-4.153.169-1.125.553-2.259.563-3.384.066-3.769.028-7.547.028-11.25 4.153-1.116 6.741-4.341 9.853-6.703 2.212-1.697 3.881-4.134 5.756-6.262 3.056-3.478 6.141-6.938 9.084-10.491 3.581-4.322 7.05-8.728 10.547-13.106 2.962-3.703 5.766-7.528 8.878-11.109 1.978-2.269 4.434-4.144 6.591-6.262 1.8-1.762 3.497-3.638 5.241-5.447-2.287.206-3.225-1.097-4.2-2.7-1.097-1.8-3.056-2.344-5.109-2.391-1.031-.028-2.081.037-3.112.037-9.544 0-19.078-.009-28.622-.028-3.3 0-6.609.009-9.909-.037-.853-.009-1.931.169-2.109-1.2-.216-1.744-.666-3.497-.703-5.241-.197-7.022-.319-14.053-.375-21.084-.056-8.231-.009-16.462-.009-25.022.375-.084 1.172-.413 1.978-.441 2.991-.094 5.972-.094 8.972-.113 3.591 0 7.181-.028 10.781.038 3.094.056 6.197.328 9.309.328 3.225 0 6.431-.234 9.647-.356 7.388-.291 14.766.713 22.162.028 2.588-.244 5.241.066 7.856.206 2.7.141 5.381.413 8.063.553.769.037 1.556-.197 2.325-.3.469-.066.938-.234 1.388-.206 1.566.113 3.15.441 4.706.384 2.888-.094 5.766-.384 8.644-.609.328-.028.656-.141 1.5-.328C91.008 82.649 79.608 69.524 68.18 56.371c-.525.328-.947.609-1.444.919-1.5-2.316-3.497-3.937-6.141-4.022-3.328-.084-6.703-.525-9.994.712-1.172.441-2.522.525-3.797.534-4.406.066-8.794.15-13.2.009-4.763-.141-9.638 1.059-14.288-1.003-.469-.206-1.087-.084-1.641-.084-2.878 0-5.756.056-8.616 0-2.55-.038-3.384-.891-3.403-3.328-.009-3.666.084-7.341.009-10.997-.234-9.206.581-18.45-.844-27.628-.272-1.725-.319-3.478-.441-4.969 2.906-1.65 5.728-1.847 8.634-1.641.591.037 1.228-.084 1.8-.234 2.7-.675 5.4-1.406 8.091-2.063.403-.094.853-.028 1.284-.038 4.828-.028 9.666.084 14.484-.094 3.741-.15 7.462-.919 11.194-.966 12.844-.141 25.688-.084 38.513-.028.647 0 1.472.497 1.913 1.022 1.444 1.706 2.597 3.675 4.144 5.287 3.469 3.647 7.078 7.181 10.697 10.678 1.172 1.125 2.503 2.531 3.947 2.794 1.678.319 2.878 1.416 3.141 2.391.684 2.625 2.822 3.844 4.406 5.616s3.975 2.813 4.828 5.316c.234.675 1.05 1.566 1.641 1.612 2.119.122 2.859 1.884 4.078 3.056.947.919 1.641 2.091 2.531 3.084 2.147 2.381 4.341 4.734 6.525 7.078 1.537 1.641 3.084 3.291 4.725 4.828.844.797 2.081 1.228 2.822 2.081 2.325 2.681 2.906 2.888 6.028 1.406.178 2.025.947 3.066 3.019 1.725.122-.084.356-.009.534 0 4.284.272 6.909-1.35 8.934-5.147 1.294-2.419 2.813-4.706 5.934-5.213.825-.141 1.641-.816 2.287-1.434 3.478-3.347 6.872-6.788 10.378-10.106 2.259-2.138 4.8-3.975 7.022-6.169 3.291-3.253 5.888-7.162 9.825-9.797 1.491-1.003 2.7-2.447 3.919-3.797 1.059-1.172 1.997-2.466 2.934-3.759 2.503-3.441 5.175-6.788 7.406-10.397 2.381-3.872 3.403-4.416 7.594-2.709.291.112.534.319.844.375 1.35.3 2.7.741 4.059.825 6.497.375 12.994-.094 19.528.825 7.059 1.003 14.325 1.509 21.431-.431.469-.122.975-.094 1.462-.094h23.897c1.322 2.259 2.766 4.8 4.266 7.312.759 1.303 1.613 2.531 2.438 3.788zM88.706 211.181c-1.097 1.378-2.063 2.625-3.056 3.844-1.097 1.331-1.463 2.822-.853 4.462.647 1.706 1.969 2.578 3.787 2.756 2.616.262 5.147.272 7.791-.356 2.053-.497 4.341.038 6.525.056 7.762.056 15.516.15 23.278.113 4.941-.028 9.966.197 14.813-.553 5.325-.816 10.547-1.144 15.787.028 7.313 1.622 14.719.919 22.078.938 2.653.009 5.316-.684 7.969-.741 8.794-.206 17.588-.262 26.391-.413 2.559-.037 4.491-1.2 5.419-3.647.919-2.438.262-4.547-1.612-6.328-.356-.347-.731-.881-.741-1.331-.038-2.972-1.444-5.053-3.872-6.666-1.762-1.172-3.741-2.269-5.006-3.881-2.822-3.563-5.409-7.322-7.8-11.194-3.169-5.119-6.844-9.722-11.438-13.641-4.547-3.881-8.869-8.025-13.247-12.103-1.819-1.697-3.769-3.328-5.166-5.344-3.141-4.5-5.756-9.356-9.666-13.313-3.253-3.272-6.356-4.416-10.059-1.959-1.819 1.209-3.356 2.353-3.9 4.566-.15.619-.553 1.237-.994 1.734-1.406 1.566-2.878 3.094-4.341 4.622-5.578 5.794-11.147 11.588-16.734 17.372-3.553 3.684-7.162 7.322-10.65 11.081-1.228 1.313-2.081 2.972-3.272 4.313-.881.994-2.138 1.65-3.047 2.616-2.503 2.672-4.884 5.447-7.378 8.137-1.144 1.238-2.503 2.269-3.638 3.525-1.669 1.847-3.178 3.825-4.8 5.7-1.556 1.791-3.197 3.525-4.978 5.475.966.066 1.594.113 2.409.141z"/></svg>