<?xml version="1.0" encoding="UTF-8" standalone="no"?>
<!DOCTYPE svg PUBLIC "-//W3C//DTD SVG 1.1//EN" "http://www.w3.org/Graphics/SVG/1.1/DTD/svg11.dtd">
<svg width="100%" height="100%" viewBox="0 0 300 300" version="1.1" xmlns="http://www.w3.org/2000/svg" xmlns:xlink="http://www.w3.org/1999/xlink" xml:space="preserve" xmlns:serif="http://www.serif.com/" style="fill-rule:evenodd;clip-rule:evenodd;stroke-linejoin:round;stroke-miterlimit:2;">
    <path d="M61.706,17.261C66.555,17.548 72.217,17.691 77.951,17.691C83.685,17.691 89.323,17.523 94.984,17.213L94.195,17.238C95.222,17.118 96.369,17.07 97.563,17.07C110.033,17.07 120.879,24.093 126.326,34.39L126.422,34.581C131.558,41.843 137.077,48.245 143.12,54.051L143.168,54.099C149.762,60.86 154.635,60.501 159.557,51.925C167.035,40.578 176.16,31.046 186.767,23.354L187.078,23.14C192.453,18.864 199.357,16.283 206.858,16.283C209.08,16.283 211.23,16.522 213.331,16.928L213.115,16.88C215.719,16.951 218.801,17 221.906,17C232.37,17 242.737,16.57 252.986,15.686L251.648,15.782C264.309,15.782 277.089,17.167 289.655,18.553C292.214,19.321 294.29,21.213 295.293,23.689L295.316,23.76C299.998,39.192 295.316,54.792 295.316,70.32C295.316,76.125 278.904,83.077 269.779,82.288C265.192,82.049 260.893,81.165 256.902,79.684L257.189,79.78C253.653,78.227 249.497,77.296 245.149,77.296C241.374,77.296 237.767,77.965 234.423,79.207L234.639,79.136C231.366,80.211 227.568,80.856 223.626,80.856C219.182,80.856 214.978,80.067 211.037,78.634L211.299,78.73C209.34,77.989 207.046,77.584 204.681,77.584C198.876,77.584 193.644,80.14 190.061,84.202L190.038,84.225C181.343,90.723 181.343,95.501 188.987,103.982C200.263,117.241 211.801,126.605 231.772,119.582C240.467,116.38 253.487,123.571 263.019,120.728C274.486,117.36 283.946,122.973 294.362,122.568C296.01,122.568 299.665,127.178 299.307,127.776C294.529,135.659 299.307,142.873 299.809,150.399C299.929,151.092 300,151.88 300,152.716C300,159.525 295.294,165.209 288.963,166.787L288.867,166.81C282.679,168.889 275.56,170.083 268.131,170.083C261.967,169.485 254.61,163.226 251.551,171.564C250.166,175.291 255.97,182.745 260.246,187.259C268.941,196.791 277.59,205.463 286.883,214.564C296.176,223.665 303.725,235.802 297.299,250.804L297.299,252.883C296.105,262.415 294.958,271.946 293.715,281.503L261.776,283.677C254.489,283.677 251.36,280.404 251.456,273.261L251.456,240.748C251.456,236.066 250.596,232.076 244.599,232.076C238.602,232.076 235.904,235.206 235.904,241.274L235.904,271.541C235.904,281.598 231.724,284.298 222.884,283.939C214.044,283.58 205.54,283.939 196.845,283.939C189.558,283.939 186.358,280.666 186.525,273.452C186.692,266.238 186.525,257.566 186.525,249.682C186.548,249.037 186.548,248.249 186.548,247.485C186.542,243.756 186.318,240.032 185.879,236.329L185.927,236.759C185.927,235.206 182.893,232.674 181.842,232.936C180.791,233.198 176.037,235.445 175.942,236.997C175.344,248.512 174.987,260.074 175.344,271.684C175.344,281.216 171.355,284.177 162.419,284.177C123.623,284.177 125.463,285.825 125.893,250.111L125.893,235.014C125.893,229.974 122.406,231.096 119.372,230.499C115.048,229.639 114.594,231.431 114.689,234.752L114.689,259.572C114.689,264.517 114.068,269.27 112.849,273.834L112.945,273.452C110.843,279.711 107.379,285.516 98.97,284.107C98.349,284.036 97.608,284.011 96.844,284.011C96.08,284.011 95.363,284.059 94.622,284.131L94.718,284.131C61.13,284.131 65.645,287.261 65.286,255.775L65.286,240.582C65.286,235.517 63.733,232.34 57.928,232.34C52.123,232.34 49.854,234.514 49.854,239.889L49.854,272.307C49.854,280.358 46.82,284.013 38.483,284.179C-3.61,284.609 0.547,285.23 0.285,249.491C0.189,248.559 0.165,247.484 0.165,246.361C0.157,237.985 3.073,229.863 8.407,223.404L8.359,223.475C17.461,212.797 23.456,199.538 36.477,191.989C39.707,189.298 42.295,185.918 44.05,182.098L44.121,181.93C46.032,178.705 47.417,175.264 49.066,171.873C45.579,170.727 41.422,169.842 37.169,169.293L36.835,169.27C30.074,169.27 23.123,170.751 16.434,170.13C7.739,169.437 2.124,165.877 3.247,155.486C3.749,150.875 0.906,146.05 0.906,141.272C0.906,125.315 2.746,123.068 18.25,122.017C26.945,121.515 36.381,122.017 45.508,122.017C47.18,122.185 49.092,122.28 51.051,122.28C57.381,122.28 63.474,121.324 69.207,119.581L68.777,119.701C74.773,116.93 76.851,116.333 82.657,120.394C84.804,121.971 87.399,122.824 90.063,122.83C94.817,122.83 98.974,120.178 101.1,116.309L101.123,116.238C104.946,110.6 112.255,107.566 117.273,102.549C119.782,100.853 121.406,98.034 121.406,94.832C121.411,91.161 119.228,87.82 115.863,86.351L115.792,86.328C106.547,79.974 95.152,76.223 82.825,76.223C78.238,76.223 73.771,76.748 69.471,77.752L69.853,77.681C64.215,79.473 57.717,80.476 50.98,80.476C44.243,80.476 37.769,79.449 31.63,77.562L32.108,77.682C29.194,77.013 25.826,76.607 22.41,76.607C21.311,76.607 20.213,76.655 19.137,76.727L19.28,76.727C2.438,75.676 0.526,73.956 0.001,57.998L0.001,38.505C0.001,21.161 6.69,15.857 23.795,17.172C36.624,18.128 49.834,18.653 62.496,19.346L61.707,17.267L61.706,17.261ZM132.895,173.353L132.895,172.302L181.343,172.9C183.66,172.684 185.787,172.327 187.864,171.777L187.577,171.848C186.431,169.794 185.355,168.05 184.161,166.378L184.281,166.546C176.565,157.276 168.658,148.175 160.941,139.001C153.224,129.827 150.095,129.803 141.662,139.001C136.454,144.806 130.625,150.109 125.25,156.321C119.875,162.533 116.555,166.904 111.633,172.28L132.894,173.355L132.895,173.353Z" style="fill-rule:nonzero;"/>
</svg>
