<svg xmlns="http://www.w3.org/2000/svg" viewBox="0 0 32 32"><path d="M16.653 31.877c-.208-.106-.263-.155-.339-.308-.143-.289-.181-.663-.125-1.231.114-1.148.035-1.161-.882-.148-.275.304-.612.664-.749.799-.213.211-.251.235-.261.166-.007-.044.105-.329.248-.633.219-.465.263-.594.279-.812.017-.244.013-.263-.079-.323-.087-.057-.115-.058-.258-.008-.296.102-.593.313-1.055.748q-.803.756-1.036.808c-.133.029-.318-.034-.318-.108 0-.076.23-.335.97-1.093.354-.363.738-.773.852-.912.604-.73.726-1.179.348-1.281-.315-.085-.981.091-1.769.466-.606.288-.779.408-1.158.796-.392.402-.588.482-1.261.511-.456.02-.66-.015-.66-.116 0-.136.431-.425 1.307-.876.669-.345 1.061-.638 1.376-1.03.22-.273.291-.442.202-.476-.07-.027-.794.147-1.625.39-.665.195-.989.25-.989.17 0-.07.233-.287.582-.541a7.4 7.4 0 0 1 2.481-1.194c.836-.227 1.088-.372 1.168-.668.039-.146.035-.164-.065-.268-.143-.15-.642-.402-1.392-.705a28 28 0 0 1-2.367-1.091c-1.301-.674-6.678-3.736-6.636-3.778.008-.008.145.038.305.103.393.157.64.199 1.328.226.581.023.959 0 1.062-.064.07-.043.003-.214-.531-1.341-.722-1.522-1.049-2.392-1.305-3.472-.142-.6-.212-1.164-.254-2.056-.041-.886-.134-1.51-.331-2.226-.294-1.067-.736-1.77-1.188-1.886-.264-.068-.437-.142-.454-.194-.01-.029.025-.021.088.021.235.154.692.025.924-.261.141-.174.174-.402.108-.739-.06-.304-.149-.48-.37-.729a1.5 1.5 0 0 1-.174-.217c0-.04.361.239.549.424.332.327.605.994.691 1.694.085.683.254 1.164.41 1.164.152 0 .47-.643.775-1.568.27-.821.502-1.385.837-2.04.349-.681.615-1.038.862-1.156.231-.11.28-.218.223-.486-.061-.283-.299-.709-.482-.863a15 15 0 0 0-.488-.378c-.196-.146-.334-.276-.341-.324s.052-.16.144-.276c.215-.271.736-.779.874-.851.111-.058.117-.056.203.052.049.061.162.339.251.616.187.583.26.741.424.929.304.346.729.19 1.547-.566 1.106-1.023 2.7-1.75 4.708-2.146C15.34.224 17.142.185 18.063.429c.278.074.423.158.367.213-.057.057-.425.093-1.346.129-1.412.056-1.94.133-3.017.444a9.9 9.9 0 0 0-3.327 1.749c-.46.374-1.839 1.778-2.139 2.178-1.877 2.505-2.614 6.329-1.834 9.511.15.613.32 1.097.659 1.88 1.18 2.73 2.683 4.239 5.216 5.24.619.245 1.125.364 1.354.321.303-.057.449-.32.45-.803 0-.216-.021-.299-.135-.524a3 3 0 0 0-.339-.505c-.351-.408-.53-.546-1.664-1.273-1.711-1.098-2.896-2.451-3.467-3.959a9.5 9.5 0 0 1-.409-1.66c-.069-.558-.028-2.002.076-2.647.11-.683.321-1.532.489-1.968.265-.687.736-1.488 1.252-2.128.274-.34.994-1.047 1.404-1.379 1.068-.864 2.372-1.503 3.589-1.761.967-.205 2.316-.112 2.607.179.203.203-.051.275-1.153.326-.416.019-.87.054-1.009.077-1.944.323-3.5 1.446-4.556 3.287-.356.62-.673 1.536-.841 2.429-.105.556-.143 1.791-.075 2.387a9.3 9.3 0 0 0 1.515 4.119c.329.489.747.818 1.551 1.221.671.336 1.037.416 1.129.245.11-.205-.042-.936-.469-2.263-.375-1.164-.466-1.553-.465-1.991 0-.64.098-.945 1.072-3.361.598-1.482.857-2.032 1.216-2.576.296-.45.389-.532.975-.865.276-.157.637-.386.802-.508s.375-.259.467-.304c.227-.11.851-.264 1.187-.294.151-.013.319-.047.373-.074s.238-.195.408-.373c.501-.522 1.061-1.277 1.506-2.031.216-.366.496-.696.725-.855.159-.11.186-.115.712-.136.301-.012.623-.046.715-.075.252-.079.528-.355.842-.839.343-.528.764-.982 1.036-1.118.242-.121.322-.124.38-.016.068.126.016.346-.221.945-.797 2.01-2.088 4.033-3.81 5.97-.65.732-1.002 1.295-1.045 1.677q-.068.596.389.24c.265-.206 3.87-3.813 4.49-4.491.566-.621.859-.982 1.169-1.443.182-.27.286-.381.509-.538.604-.425 1.704-.968 2.193-1.083.184-.043.214-.041.281.02.088.079.102.33.032.58-.085.309-.717 1.167-1.533 2.081-.576.645-1.067 1.105-1.589 1.49-.67.493-.82.626-.938.827-.097.165-.108.225-.13.723-.022.476-.04.586-.149.892-.266.747-.6 1.326-1.717 2.984-1.75 2.596-4.03 6.017-4.39 6.586-.392.62-.655 1.097-.623 1.128.099.099 2.558-.903 3.347-1.364.318-.186.729-.557 1.014-.915.105-.132.368-.535.585-.896.448-.746.714-1.118.842-1.177.147-.068.139.024-.049.573-.274.8-.445 1.111-.984 1.791-.958 1.208-2.435 2.433-3.614 2.998-.435.209-.517.265-.799.547-.327.328-.536.656-.656 1.026-.091.282-.07.736.042.885.299.4.686.375 1.956-.129 1.88-.745 3.382-1.639 4.419-2.63.866-.828 1.452-1.714 2.003-3.027.356-.849.763-1.683.783-1.602.018.074-.116.658-.319 1.389-.157.567-.22.973-.181 1.164.024.114.046.138.144.147.153.015.441-.176.579-.386.129-.195.176-.149.132.128-.07.441-.367.811-1.074 1.338-.864.644-2.586 2.48-3.052 3.254-.076.126-.137.243-.137.26s.042.051.092.074c.183.084.734-.149 1.61-.681.549-.333 1.127-.612 1.268-.612.156 0 .255.053.472.253.151.139.282.324.282.396 0 .042-.549.276-1.028.439-.256.087-1.792.552-3.414 1.034s-3.097.929-3.278.993c-.787.279-1.241.598-1.241.869 0 .076.025.198.055.271.131.312 1.026 1.027 2.149 1.716 1.261.773 2.356 1.54 2.451 1.717.033.062.025.084-.044.121-.118.063-.977.052-1.643-.021-.614-.067-1.6-.079-1.688-.02-.093.062.15.256.416.332.341.097.593.214.593.274 0 .088-.195.139-.466.12-.399-.028-.742-.222-1.202-.682a5 5 0 0 1-.562-.666c-.295-.456-.523-.737-.598-.737q-.204.001-.441.757c-.258.82-.374 1.621-.416 2.852-.018.544-.045 1.029-.06 1.077-.037.122-.151.112-.448-.039zM18.797.982c-.118-.083-.056-.155.163-.188.354-.053.645.069.469.197-.102.075-.521.069-.632-.009"/></svg>