<svg xmlns="http://www.w3.org/2000/svg" width="300" height="300" viewBox="0 0 300 300"><title>factions-chaos-bladeborn-grashraks-despoilers</title><path d="M3.025 37.502V20.067c0-1.024 1.477-2 2.358-3.049.881 1.024 2.453 2.096 2.524 3.239 1.144 12.053 7.146 22.508 15.959 29.536l.095.071c7.455 7.884 18.007 12.791 29.726 12.791 10.099 0 19.341-3.645 26.463-9.718l-.071.048c11.576-8.384 24.796-16.554 38.586-23.795l1.811-.858c3.834-2 14.72-9.479 14.482 5.479 0 2.882 0 7.407 2.62.429 6.288-18.364 21.866-12.196 32.965-9.48 13.958 4.669 26.034 10.6 37.158 17.816l-.643-.381c6.98 3.739 6.097 10.98 6.193 17.412 0 3.144.786 6.383 4.43 2.953 5.145-4.812 9.432-3.836 15.53-1.143 4.812 1.954 10.385 3.096 16.245 3.096 14.316 0 27.059-6.812 35.133-17.364l.071-.12 12.625-16.888c1.62 6.646 2.62 14.291 2.715 22.152v.071c-1.072 29.227-23.843 52.782-52.639 55.117l-.214.023c-17.769 1.453-31.631 16.221-31.631 34.205 0 1.714.12 3.359.381 4.978l-.023-.166c.262.976.381 2.143.381 3.311 0 7.693-6.145 13.935-13.815 14.101h-.023c-14.816 2.953-14.554 2.953-15.435 17.412-.786 12.124-2.358 24.2-3.405 36.323 0 2.787-.786 6.526.595 8.289 9.67 11.243 1.382 19.77-3.836 28.559-3.573 5.859-7.121 10.886-11.005 15.673l.166-.262c-3.836 4.621-8.694 8.694-12.553 13.052-.69-4.883-1.762-9.766-2.168-14.625a22.53 22.53 0 0 0-11.218-19.436l-.12-.071a25.06 25.06 0 0 1-8.67-9.195l-.071-.143c-2.787-5.479-.595-21.151-11.504-4.263 0 0-6.717-2.715-6.789-4.263-.048-1.644-.048-3.573-.048-5.525 0-7.908.357-15.744 1.001-23.462l-.071 1.024c0-5.67 2.454-11.243 2.597-16.888 0-11.338 0-11.338-12.457-11.671-14.482 0-19.889-3.573-17.435-17.435 4.025-21.938-12.457-32.394-21.795-46.923-1.382-2.168-6.455-2.501-9.861-3.049-21.986-3.525-40.087-17.388-49.424-36.371l-.19-.381C4.648 60.798 1.6 49.746.075 38.194l-.071-.643 3.025-.048zm111.496 105.804c10.814-2.787 19.008-4.621 27.011-7.218a6.77 6.77 0 0 0 2.763-5.479c0-.286-.023-.572-.048-.858v.023c-1.382-3.834-3.405-8.694-6.646-10.361-5.336-1.834-11.481-2.883-17.864-2.883h-.333c-6.097-.429-15.601 9.766-13.862 16.102 1.31 4.358 6.288 7.574 8.98 10.623v.048zm74.72-5.048c6.288 2.454 12.386 1.31 12.291-6.002-.738-5.931-2.596-11.29-5.336-16.055l.12.214c-1.096-1.334-2.74-2.191-4.597-2.191-.166 0-.334 0-.476.023h.023c-8.408 3.691-15.506 7.55-22.27 11.885l.643-.381c-1.691 1.811-2.692 4.24-2.692 6.932a9.7 9.7 0 0 0 .286 2.381l-.023-.071c1.382 4.358 5.05 5.67 10.289 3.573 2-.452 4.311-.691 6.669-.691 1.857 0 3.668.166 5.455.429l-.381-.048zm-19.269 36.132c0-16.102-6.621-20.365-19.008-14.196l-1.834.976c-3.645 3.096-5.955 7.693-5.955 12.814 0 2.286.476 4.478 1.286 6.455l-.048-.12a70 70 0 0 0 12.72 10.361l.286.166 12.553-16.459z"/></svg>