<svg xmlns="http://www.w3.org/2000/svg" width="300" height="300" viewBox="0 0 300 300"><title>factions-order-kharadron-overlords</title><path d="M128.363 130.65c4.819 5.194 9.45 10.472 14.4 15.431 4.359 4.341 5.372 5.747 11.822 1.509 6.272-4.116 12.666-7.613 16.012-14.803.384-.056.787-.103 1.181-.169 1.116 3.103 2.691 6.131 3.206 9.338.506 3.103 1.462 5.541 3.75 7.744 9.225 8.897 20.278 13.463 32.944 14.175 7.997.45 16.059 1.191 24.009.703 4.209-.272 8.531-2.4 12.309-4.566 5.616-3.225 7.434-10.547 4.463-16.313-2.175-4.219-6.375-5.147-10.669-5.522-1.819-.169-3.656-.028-6.272-.028.684 4.463 1.059 8.625 2.063 12.637.75 2.972-.328 4.284-2.944 4.669a29.3 29.3 0 0 1-6.281.225c-12.609-.881-24.506-4.697-36.094-9.356-4.256-1.716-8.175-4.688-9.413-9.816-.225-.909-.862-1.762-1.462-2.541-5.466-6.994-10.997-13.941-16.388-20.981-.75-.984-1.181-2.419-1.256-3.675-.253-4.809-.703-9.666-.253-14.428.225-2.372 1.716-5.138 3.487-6.787 11.175-10.491 24.216-12.713 38.813-8.475 8.344 2.428 13.941 8.016 17.822 15.15 1.584 2.906.9 7.069 1.153 10.688.047.684-.506 1.388-.638 2.119-1.359 6.994 1.041 9.919 8.175 10.266 12.937.609 24.591 4.688 32.681 15.103 2.972 3.834 4.331 9.459 4.95 14.456 1.256 9.741-2.044 18.619-9.431 25.013-4.003 3.45-9.506 6.666-14.559 7.069-10.988.9-22.125-.056-33.206-.328-1.969-.047-3.928-.506-5.897-.638-5.747-.422-7.734 1.406-6.778 7.031 1.809 10.716 3.703 21.412 6.009 32.025 3.075 14.1 7.069 28.022 9.713 42.197 1.491 8.063 1.106 16.462 1.434 24.712.028.731-.787 1.847-1.509 2.194-8.897 4.191-17.85 8.278-26.803 12.384-.403.178-.881.197-1.519.309 2.822-12.403 1.734-24.516-.047-36.619-.206-1.462-.253-3.206-1.088-4.256-2.756-3.478-1.209-6.309.628-9.431 5.747-9.806 7.537-20.709 5.269-31.481-2.213-10.472-6.806-20.325-14.822-28.144-6.178-6.028-11.7-12.759-18.075-18.553-2.953-2.7-7.219-3.984-10.969-5.747-.525-.234-1.622.403-2.297.881-3.6 2.616-7.191 5.222-10.688 7.987-8.447 6.684-14.888 15.253-20.597 24.131-6.356 9.881-8.85 20.934-5.494 32.803 1.059 3.759 1.078 7.791 1.866 11.634.384 1.894 1.078 4.031 2.344 5.372 3.328 3.525 3.966 6.966 1.987 11.503-1.359 3.084-1.491 6.712-2.194 10.106-2.147 10.266 1.716 20.006 2.541 30.441-4.369-1.481-8.672-2.756-12.834-4.369-5.175-1.988-10.191-4.406-15.403-6.309-3.881-1.416-4.491-4.087-3.778-7.584 2.1-10.144 4.509-20.25 6.272-30.459 2.25-13.134 3.928-26.353 5.981-39.516.881-5.597 2.072-11.147 3.206-16.697.45-2.175 1.294-4.256 1.744-6.431.938-4.547-1.556-7.509-6.178-7.416-4.434.094-8.981.938-13.294.225-10.922-1.809-21.872-3.759-32.541-6.656-10.912-2.953-15.966-11.775-18.637-22.069-1.988-7.622.328-14.925 2.372-22.162.328-1.162 2.297-1.763 3.075-2.925 6.741-10.134 17.072-11.672 28.012-11.859 2.062-.028 4.659.862 4.875-2.747.206-3.225-.534-5.681-4.106-6.356-1.434-.272-2.906-.281-5.016-.478.534-2.719.928-5.606 1.697-8.391 2.072-7.434 4.987-14.475 10.088-20.428 4.847-5.653 10.688-9.356 18.328-10.059 10.106-.928 20.175-2.072 30.094 1.087 1.734.553 3.384 1.369 5.297 2.166-1.013 2.147-1.697 4.144-2.803 5.869-1.566 2.428-1.181 4.106.928 6.103 3.206 3.047 6.3 6.272 8.972 9.778 4.744 6.197 3.356 17.653-2.85 24.487-3.731 4.116-7.491 8.25-11.681 11.85-4.031 3.459-4.612 7.894-5.147 12.609-.281 2.541-.778 5.119-1.659 7.491-2.016 5.466-7.209 7.116-11.972 7.397-12.638.787-25.472 2.166-37.678-3.6.656-5.934 1.312-11.878 1.969-17.803-7.763-1.153-13.547 1.959-15.713 8.044-1.884 5.278.731 12.703 6.338 15.516 8.325 4.181 16.941 7.988 26.587 7.734 7.641-.206 15.412.131 22.856-1.256 12.056-2.25 18-9.956 18.984-22.294.403-4.613.703-9.3 6.197-11.85zm-22.257-6.6c2.297-.534 4.641-.506 6.253-1.584 4.219-2.822 8.625-5.213 11.578-9.919 4.031-6.45 3.309-17.484-2.803-22.191-2.372-1.819-5.147-3.506-7.997-4.256-7.791-2.025-14.934.825-21.469 4.594-6.009 3.478-9.253 13.941-6.459 19.425 4.359 8.569 12.328 11.747 20.906 13.922zm107.006-17.831c0-11.203-7.987-19.922-18.816-19.322-12.047.656-20.381 5.025-20.175 18.713.15 10.284 9.563 18.609 21.487 18.263 11.578-.347 16.219-6.075 17.503-17.653z"/><path d="M133.809 124.369c1.059-1.237 1.716-2.138 2.503-2.878 8.475-7.866 7.472-18.009 6.384-27.966-.272-2.447-2.466-4.744-3.956-6.994-1.566-2.363-3.131-4.772-5.072-6.806-2.953-3.075-.253-5.681.637-8.091 2.119-5.653 1.003-9.487-4.95-11.25-5.297-1.556-10.866-3.094-16.294-3.047-10.088.075-20.306.45-30.206 2.25-11.456 2.091-18.816 10.509-24.112 20.372-4.341 8.091-7.725 16.622-7.041 26.888-3.891 0-7.584.328-11.147-.178-1.181-.169-2.906-2.447-2.944-3.788-.15-9.862-.019-19.753.197-29.653a22.7 22.7 0 0 1 1.228-6.862c.281-.834 1.913-1.659 2.953-1.697 4.688-.178 9.403-.206 14.091-.028 3.75.131 5.925-1.481 7.294-4.913 2.475-6.178 4.744-12.516 8.025-18.281 2.756-4.819 6.731-8.972 10.341-13.284 2.522-3.019 5.316-5.822 8.063-8.644.834-.863 1.894-1.519 2.944-2.344 1.941 2.719 3.581 5.325 5.569 7.641.966 1.116 2.503 2.091 3.956 2.419 2.972.675 4.997-1.481 3.938-4.341-1.266-3.431-3.131-6.637-4.912-10.266 16.65-7.8 34.959-10.191 53.559-12.628-.3 4.238-.581 7.997-.806 11.775-.159 2.747.553 5.016 3.778 5.316 2.803.272 5.072-2.147 5.278-5.419.15-2.466.122-4.969.656-7.359.225-.966 1.847-2.447 2.672-2.344 10.772 1.369 21.459 2.897 31.303 8.128 6.084 3.234 12.534 5.653 17.091 11.316 1.762 2.194 2.166 3.534-.206 5.391-2.213 1.734-4.191 3.787-6.488 5.906 2.091 2.362 3.759 4.266 5.672 6.413 2.672-2.287 5.072-4.359 7.547-6.478 5.316 2.072 8.016 6.488 10.059 11.278 2.419 5.672 4.509 11.494 6.6 17.278 1.134 3.15 3.122 4.369 6.459 4.238a168 168 0 0 1 15.206.047c1.209.056 3.384 1.406 3.384 2.175.206 13.894.15 27.797.15 41.709H229.49c0-2.944.019-6.234 0-9.534-.056-12.103-5.925-20.053-16.969-24.863-9.3-4.041-18.891-5.391-28.631-3.6-9.103 1.669-17.831 5.447-23.25 13.294-2.616 3.778-3.309 9.15-4.003 13.941-1.256 8.606-.197 16.753 6.938 23.044 2.466 2.166 2.4 4.669-.075 6.984-3.506 3.281-7.069 6.525-10.472 9.938-2.213 2.213-4.181 1.762-6.028-.178-4.434-4.622-8.747-9.309-13.172-14.044zM152.831 201.469c6.028 1.041 12.084 1.959 18.084 3.159 3.984.806 6.384 3.356 8.353 7.088 4.95 9.413 3.628 19.219 1.209 28.5-1.594 6.15-5.175 11.906-12.778 14.494-8.719 2.972-17.147 5.756-26.25 3.356-3.675-.966-7.519-2.672-10.322-5.137-7.059-6.206-12.178-13.744-13.697-23.409-1.819-11.569.422-16.819 11.119-24.103 5.138-3.487 11.166-2.072 16.725-3.056 2.4-.431 4.922-.075 7.397-.075.047-.281.103-.553.15-.825zm1.435 25.415c-.3-4.313-.347-8.166-.984-11.925-.197-1.134-2.044-1.997-3.131-2.981-.966 1.078-2.7 2.091-2.803 3.234-.684 8.353-1.088 16.725-1.481 25.097-.122 2.428 1.191 4.162 3.703 4.209s3.703-1.622 3.853-4.078c.281-4.688.581-9.356.853-13.566zm7.828 5.232c-.122 5.55.938 7.641 3.431 7.875 2.944.272 4.434-1.659 4.734-4.162.553-4.519.966-9.084.825-13.622-.047-1.406-2.025-3.703-3.3-3.806s-3.6 1.744-3.966 3.131c-1.041 3.891-1.341 7.997-1.716 10.584zm-24.675-5.503c-.103-2.344.15-4.406-.384-6.253-.497-1.697-1.809-3.178-2.756-4.744-1.556 1.537-4.144 2.906-4.444 4.659-.684 4.059-.6 8.353-.122 12.478.15 1.359 2.316 3.234 3.778 3.45 1.012.15 2.953-1.941 3.45-3.384.684-2.016.384-4.359.497-6.197zM73.941 187.819c6.028.3 11.775.572 17.981.862-5.831 31.397-8.241 63-16.463 94.744-4.594-2.625-8.906-4.997-13.116-7.538-2.728-1.659-5.297-3.6-7.988-5.316-3.15-2.016-3.928-4.031-2.241-7.416 9.806-19.678 15.15-40.856 20.653-61.969a42 42 0 0 0 1.134-6.553c.178-2.072.028-4.181.028-6.816zM248.137 269.981c-6.459 3.375-13.294 6.938-20.662 10.8-6.684-32.109-13.284-63.825-19.95-95.916 6.525.787 12.834 1.509 19.116 2.419.6.094 1.284 1.341 1.444 2.166 3.403 17.156 6.281 34.444 10.247 51.469 2.222 9.506 6.206 18.619 9.806 29.072zM274.988 245.494c-4.837 9.103-11.906 15.338-21.281 19.753-6.431-12.047-9.666-24.919-12.253-38.1-2.569-13.059-5.672-26.006-8.644-39.469 3.938 0 7.519-.159 11.044.122.834.075 2.016 1.556 2.241 2.569 1.387 6.253 2.55 12.563 3.778 18.863 2.4 12.478 8.981 22.575 17.981 31.228 1.997 1.941 4.584 3.272 7.134 5.025zM56.063 184.097c4.144.834 8.091 1.641 11.953 2.419 1.059 14.822-17.428 69.356-24.178 71.972-.347 1.566-.675 3.056-1.256 5.719-5.953-5.55-11.269-10.444-16.5-15.441-1.388-1.313-1.594-2.747.45-3.834 12.413-6.563 18.253-17.906 21.994-30.666 2.466-8.4 4.669-16.875 6.928-25.341.375-1.369.375-2.869.609-4.819zM174.291 195.816c-17.053-1.697-33.947-3.684-50.859 1.772 4.819-7.181 9.534-14.175 16.387-19.369 1.772-1.341 3.628-2.578 5.391-3.928 4.059-3.084 6.281-3.197 9.863.497 6.337 6.553 12.441 13.359 18.619 20.053.328.356.506.825.6.966z"/><path d="M91.425 104.55c.928-7.997 11.934-14.597 18.919-11.016 2.541 1.294 5.541 2.728 6.966 4.969 4.641 7.284-1.106 18.713-9.956 18.994-4.191.131-9.553-.525-12.431-4.866-1.613-2.391-2.372-5.372-3.506-8.091zM179.466 103.688c-1.359-7.341 8.681-13.612 15.553-13.641 7.256-.028 13.041 7.8 12.788 16.669-.159 5.681-7.341 10.641-15.225 10.491-7.594-.15-13.266-5.972-13.116-13.519m19.997 2.1c-.103-4.894-3.384-8.878-7.191-8.747-2.466.094-5.016 2.878-5.025 5.494 0 3.628 3.909 8.128 7.013 8.072 3.45-.075 5.269-1.763 5.203-4.819"/></svg>