<svg xmlns="http://www.w3.org/2000/svg" xml:space="preserve" fill-rule="evenodd" stroke-linejoin="round" stroke-miterlimit="2" clip-rule="evenodd" viewBox="0 0 300 300"><path fill-rule="nonzero" d="M120.227.832c-2.595 1.398-8.048 2.262-14.398 2.282-8.618.025-10.6.756-17 6.266-2.682 2.31-3.675 4.06-3.675 6.474 0 .996.191 1.252.823 1.102 3.156-.746 10.366-.933 14.545-.377 5.98.797 9.2.785 14.967-.05 7.283-1.054 8.752-.941 13.075 1.011l3.788 1.71 5.913-.282c10.915-.519 14.925-1.11 18.391-2.708 3.537-1.63 3.75-1.596 7.16 1.136 1.612 1.291 2.187 1.446 6.616 1.762 6.104.436 9.213 1.768 15.135 6.486 4.874 3.883 10.95 7.038 16.72 8.682 7.775 2.215 11.805 5.197 15.166 11.22 2.126 3.813 5.3 7.082 8.402 8.654 4.626 2.344 6.875 5.095 8.618 10.543 1.708 5.337 4.687 8.854 10.222 12.068 13.223 7.677 15.556 29.56 6.432 60.362-1.339 4.523-1.492 5.751-1.823 14.58-.35 9.37-.41 9.79-2.093 14.942-1.965 6.017-3.069 10.815-3.08 13.395-.006 1.22-.218 1.764-.688 1.764-1 0-2.143 1.881-2.143 3.531 0 2.603-1.87 5.507-4.439 6.892-2.553 1.377-3.708 3.166-5.264 8.151-.675 2.164-1.445 3.382-3.317 5.24-1.811 1.8-2.515 2.887-2.736 4.235-.926 5.648-1.256 6.207-4.684 7.941-1.384.7-3.36 2.148-4.391 3.218-3.257 3.377-12.794 15.078-12.794 15.696 0 .326-.324.593-.72.593-.927 0-5.997 2.553-8.562 4.312-2.758 1.893-3.1 2.74-3.409 8.47-.318 5.928-.593 6.376-4.853 7.916-5.983 2.164-9.454 5.005-12.036 9.848-1.798 3.372-2.446 3.787-5.927 3.787-1.643 0-2.536.177-2.355.47.16.26-.174.47-.745.47-.57 0-3.207 1.164-5.86 2.587-4.917 2.637-6.255 2.946-9.15 2.116-1.985-.57-13.212.516-20.695 2-6.953 1.38-19.21 1.678-24.553.597-10.533-2.129-15.7-5.125-31.125-18.043-4.494-3.763-7.525-5.962-8.466-6.143-1.566-.299-11.374-18.422-14.023-25.911-2.405-6.797.155-58.32 2.897-58.32.167 0 .77.963 1.343 2.14.571 1.177 1.222 2.028 1.445 1.89s.533.539.687 1.504c.326 2.036 2.313 7.274 3.372 8.89.4.611 2.467 2.241 4.592 3.622s5.219 3.604 6.875 4.94c3.389 2.733 4.343 3.091 7.208 2.707 1.106-.148 3.598-.46 5.537-.693s4.948-.698 6.683-1.032c3.137-.606 3.165-.602 5.072.72 9.74 6.75 19.258 23.94 19.277 34.82.013 6.387.44 7.02 4.453 6.592 4.58-.491 6.84 1.31 6.847 5.46.006 3.412 5.018 17.016 5.773 15.667.386-.689.505-.683 1.333.066 1.39 1.257 1.785.486 3.57-6.954 2.179-9.089 3.034-10.05 7.46-8.367 2.34.89 2.728.366 6.741-9.077 4.063-9.56 5.987-12.74 8.964-14.819 1.005-.702 2.03-1.704 2.274-2.224s.95-1.17 1.565-1.448c6.213-2.78 7.236-3.563 6.508-4.976-.467-.906-.458-.995.056-.509 4.752 4.491 9.256-8.08 5.771-16.108-1.862-4.29-1.928-5.863-.32-7.49 3.381-3.423 9.743-4.487 14.598-2.444 3.402 1.432 3.925 1.325 8.183-1.661 4.994-3.504 9.869-12.794 7.486-14.266-.291-.18-.256-.615.1-1.182.87-1.395-.145-7.029-3.599-19.926-4.961-18.527-4.758-17.167-4.616-31.105.067-6.725-.087-14.027-.346-16.227-.26-2.2-.786-7.7-1.17-12.227-.844-9.909-1.514-12.652-4.365-17.872-1.2-2.2-3.197-5.903-4.436-8.232-2.843-5.34-4.819-7.133-11.678-10.6-2.975-1.504-7.084-3.802-9.132-5.107-2.72-1.735-5.667-3.022-10.953-4.784-5.94-1.98-7.37-2.633-8.01-3.658a79 79 0 0 0-.904-1.425c-.068-.097-1.81.097-3.875.432-3.09.502-4.711.5-9.2-.018-8.896-1.025-14.855.326-34.589 7.845-10.216 3.891-14.266 6.25-17.5 10.19-1.094 1.332-4.442 4.961-7.443 8.066-6.567 6.797-10.008 11.084-13.947 17.371-3.513 5.61-3.451 5.253-1.069 6.207 2.303.921 2.134 1.147-1.526 2.053l-2.852.706-4.683 8.937c-9.096 17.359-19.248 39.804-28.659 63.358a42.3 42.3 0 0 0-2.542 9.407c-.396 2.66-1.338 7.081-2.098 9.825-4.754 17.177-5.914 38.668-3.26 60.389 1.035 8.483 15.582 32.562 21.44 35.495.743.372 1.773 1.076 2.29 1.567 1.597 1.513 17.848 10.577 18.272 10.192.22-.2 1.066-.174 1.879.06.813.23 2.07.422 2.793.422s2.17.437 3.214.968c1.366.697 2.064.83 2.494.475.443-.368.729-.202 1.117.649.569 1.249 7.723 5.687 11.684 7.249 6.448 2.542 13.072 2.702 22.02.535 4.064-.983 4.56-1 14.11-.471l9.897.548 9.843-3.33c8.562-2.896 10.28-3.33 13.202-3.33 4.4 0 7.15-.834 14.817-4.498 6.57-3.139 11.018-4.34 19.048-5.145 7.265-.727 12.8-3.357 19.283-9.163a217 217 0 0 1 6.45-5.514c1.942-1.579 3.893-3.733 5.072-5.6 1.283-2.032 2.416-3.247 3.428-3.677.83-.352 2.462-1.031 3.626-1.507 1.52-.621 4.305-3.002 9.877-8.448 6.963-6.804 12.1-10.924 14.617-11.722 2.485-.789 17.375-21.799 18.335-25.868.85-3.61 1.562-4.941 4.212-7.883 2.421-2.688 5.951-8.183 8.254-12.843 1.029-2.081 1.124-2.659.73-4.413-.551-2.447-.14-3.678 1.841-5.53 4.72-4.413 8.867-41.892 6.83-61.737-2.954-28.763-9.937-43.705-31.322-67.024-13.418-14.631-35.821-32.674-46.804-37.695a74 74 0 0 1-5.436-2.823c-8.183-4.788-15.902-3.564-14.551-4.238 0 0-5.172-2.197-10.087-2.99-4.914-.791-9.518-1.554-10.23-1.693-1.08-.211-1.859.221-16.445-.24-11.137-.354-20.149-.896-26.941-1.62-1.318-.14-2.434.098-3.728.796zm61.14 142.941c9.61 4.652 14.159 21.992 6.418 24.466-.961.307-2.383.937-3.159 1.399-8.08 4.81-21.892 5.77-28.448 1.978-8.964-5.185-8.278-9.985 2.137-14.95 6.364-3.035 13.073-8.132 13.638-10.364.48-1.899.895-2.22 3.735-2.91 2.875-.697 3.541-.653 5.678.382m-90.396 4.73c1.587.8 3.518 1.84 4.293 2.31 4.223 2.557 19.838 10.854 21.752 11.56 6.906 2.54 6.844 5.618-.247 12.542-7.792 7.608-15.48 8.074-31.145 1.885-2.974-1.173-6.083-2.323-6.906-2.553-3.002-.836-7.675-7.773-7.675-11.393 0-1.231 4.949-12.927 5.867-13.864 2.608-2.665 9.292-2.897 14.061-.488m45.704 33.628c3.082 1.462 5.636 6.02 6.358 11.35.356 2.636 1.007 4.67 2.33 7.282 1.66 3.28 3.596 9.153 3.16 9.588-1.654 1.654-13.022 5.835-15.867 5.835-8.94 0-13.53-6-10.583-13.83.927-2.466 1.174-3.988 1.171-7.229l-.005-4.103 4.235-4.056c3.452-3.305 6.397-5.506 7.462-5.576.091-.007.873.326 1.74.737z"/></svg>