<svg width="300" height="300" xmlns="http://www.w3.org/2000/svg" viewBox="0 0 32 32"><path d="M14.017 31.911c-.038-.049-.088-.163-.111-.253s-.648-3.066-1.39-6.614c-.904-4.326-1.355-6.552-1.368-6.76-.028-.455-.064-.441 1.119-.454.514-.006 1.807.003 2.873.019 1.739.026 1.95.036 2.054.092.222.119.266.335.186.911-.061.438-2.532 11.614-2.656 12.015-.188.603-.469 1.133-.602 1.133-.019 0-.066-.04-.105-.089m1.096-8.472c.267-.079.516-.318.682-.656.126-.255.135-.295.135-.598 0-.288-.011-.343-.097-.489-.172-.293-.5-.538-.911-.68a4 4 0 0 0-.697-.12c-.267-.026-.523-.066-.568-.091-.188-.1-.246-.51-.104-.724.12-.18.316-.263.619-.262.285.001.487.084.635.26.123.146.219.189.423.191a.68.68 0 0 0 .576-.323c.268-.404.161-.559-.568-.828-.391-.144-.739-.192-1.3-.177-.569.015-.703.064-1 .361-.361.361-.516.856-.439 1.399.05.355.122.487.328.601.148.082.201.088.913.108.718.02.764.026.916.11a1 1 0 0 1 .268.243c.204.291.156.805-.087.933-.134.07-.617.036-.872-.062a1.4 1.4 0 0 1-.424-.28c-.261-.241-.338-.251-.626-.078-.258.155-.334.292-.274.492.099.331.407.592.795.676.302.065 1.453.061 1.678-.005zm.583 6.873c-.046-.046-.066-.101-.054-.153l1.294-5.948c.702-3.227 1.299-5.942 1.329-6.032.029-.09.106-.214.169-.275s.487-.355.941-.653c1.266-.831 1.365-.878 1.506-.722.051.056.059.104.039.238-.032.214-2.42 7.953-2.602 8.431-.12.317-1.88 4.17-2.163 4.736-.137.273-.268.45-.336.45-.029 0-.085-.033-.124-.072zm-2.98-.434c-.237-.252-.581-.839-1.123-1.916-.625-1.242-.711-1.46-1.365-3.47-1.399-4.296-2.356-7.45-2.356-7.769s.258-.386.639-.166c.385.223 1.646 1.113 1.813 1.28.364.364.302.116 1.482 5.908.999 4.902 1.065 5.251 1.082 5.7.022.559-.001.615-.172.433m1.222-12.704a81 81 0 0 1-2.143-.123c-.243-.045-.289-.295-.124-.668.147-.332.249-.719.291-1.106.03-.284.056-.371.157-.538.186-.308.274-.523.325-.793.03-.159.093-.323.174-.455.184-.301.277-.532.334-.829.035-.182.082-.303.154-.395.153-.196 1.011-1.741 1.054-1.899.051-.186.091-.226.229-.226.14 0 .297.119.386.293.034.066.571 1.436 1.194 3.045s1.159 2.965 1.192 3.015c.041.061.06.166.061.331.001.312-.058.377-.379.424-.323.047-.607.039-2.904-.076zm3.928-.266a1 1 0 0 1-.164-.26c-.166-.381-1.772-4.787-1.848-5.07-.141-.525-.098-1.078.072-.936a.2.2 0 0 1 .058.134.46.46 0 0 0 .246.405c.204.104.439.307 1.572 1.355 1.406 1.302 1.523 1.405 1.985 1.76.427.328.547.464.617.698.088.293-.112.606-.538.841-.35.193-.634.402-.991.728s-.549.435-.769.435c-.114 0-.174-.022-.241-.089zm-7.54-.053c-.161-.039-1.821-.999-2.006-1.16-.251-.219-.276-.422-.09-.723.112-.182.553-.582.752-.683.377-.191 1.025-.741 1.403-1.192.482-.574.867-.944 1.099-1.054.259-.124.281-.147.336-.352.052-.195.28-.445.558-.612.207-.125.502-.222.582-.192.076.029.089.236.031.487-.063.274-1.281 3.465-1.388 3.638a.6.6 0 0 1-.156.169c-.105.069-.227.381-.258.661-.026.235-.238.681-.42.882a.41.41 0 0 1-.442.133zm10.162-2.61c-.219-.117-.627-.464-2.206-1.875-1.123-1.003-1.689-1.535-1.851-1.737-.361-.451-.465-.81-.408-1.406.042-.445.145-.793.373-1.256.319-.65.648-.986 1.044-1.065.151-.03.221-.068.302-.16.134-.153.216-.428.216-.729 0-.321.058-.8.124-1.026.083-.286.319-.61.591-.811.267-.198.834-.498 1.313-.696.492-.203.658-.295.847-.472.244-.229.355-.467.356-.763q0-.963.501-1.173c.068-.029.343-.074.611-.101.539-.054.641-.086.964-.307.416-.284.616-.226.615.178-.002.413-.201.667-.73.93-.417.207-.512.309-.614.659-.066.225-.124.803-.126 1.245a2.4 2.4 0 0 1-.22 1.001c-.15.334-.336.565-.624.778-.574.424-.6.5-.62 1.765-.017 1.074.012 1.357.174 1.69.102.21.126.233.341.335a.95.95 0 0 1 .329.238c.094.124.098.147.096.527-.002.344-.016.433-.103.665-.124.329-.223.491-.402.65-.356.318-.436.422-.544.703a3.3 3.3 0 0 0-.151.553c-.051.318-.03 1.049.04 1.408.041.211.04.249-.005.278-.071.045-.106.041-.232-.026zm-12.482-.272c.015-.104.028-.619.028-1.146 0-.938-.002-.96-.08-1.059a3 3 0 0 1-.175-.263 4.6 4.6 0 0 0-.602-.818c-.225-.251-.284-.344-.375-.595-.28-.774-.235-1.648.113-2.183.073-.113.198-.232.348-.33.386-.256.573-.492.575-.726.002-.188.073-.417.163-.525.202-.24.294-.635.339-1.462.035-.649.062-.779.186-.926.046-.054.11-.163.144-.241l.13-.304a2 2 0 0 1 .223-.353c.136-.169.209-.218.642-.426.507-.244.729-.396 1.187-.809.556-.502 1.088-.805 1.868-1.066.54-.18 1.05-.417 1.221-.565.201-.175.272-.201.412-.155.067.022.132.071.143.107.025.078-.047.381-.203.855-.142.433-.321.66-1.251 1.584-.967.961-1.113 1.202-1.107 1.826.003.275-.008.321-.126.556a2.7 2.7 0 0 1-.315.472c-.453.523-.676.897-.677 1.134 0 .17.111.319.578.77.457.441.686.624.976.778.343.181.509.368.602.675.13.427.032.79-.34 1.26-.241.305-4.537 4.123-4.638 4.123-.009 0-.003-.085.012-.188zm14.608-6.667c-.136-.107-.169-.273-.169-.836 0-.543.023-.63.213-.789a.8.8 0 0 1 .294-.131c.558-.12.663-.26.927-1.241.106-.395.206-.55.444-.694.276-.166.763-.372.895-.378.097-.004.114.01.144.121.044.162.013.463-.063.609a.4.4 0 0 1-.176.163c-.22.092-.217.075-.241 1.234-.018.897-.031 1.09-.086 1.238a.97.97 0 0 1-.486.512 3.8 3.8 0 0 1-.956.236c-.155.008-.174.001-.185-.072-.014-.097-.14-.177-.194-.123a.6.6 0 0 0-.078.12c-.055.111-.165.122-.283.03zm-8.791-3.095c-.031-.055-.046-.236-.046-.565 0-.456.006-.496.099-.685.119-.242.097-.231 1.142-.57.489-.158.799-.278.84-.323.052-.058.11-.072.288-.072.296 0 .365.066.304.292a2 2 0 0 1-.42.755c-.229.244-.493.394-1.004.567-.549.186-.713.278-.904.504-.168.199-.23.219-.298.099z"/></svg>