<svg xmlns="http://www.w3.org/2000/svg" xml:space="preserve" fill-rule="evenodd" stroke-linejoin="round" stroke-miterlimit="2" clip-rule="evenodd" viewBox="0 0 18 23"><path fill-rule="nonzero" d="M8.398.077C8.3.09 7.988.14 7.783.165 7.58.191 7.311.21 7.17.231c-.083.013-.163.041-.242.066-.08.026-.16.062-.241.088-.091.03-.205.06-.307.088l-.31.089c-.1.028-.204.062-.306.088s-.23.044-.307.066c-.053.015-.103.04-.153.066S5.2.84 5.15.87s-.102.062-.153.088c-.05.025-.102.044-.153.066-.05.022-.103.041-.153.066s-.113.06-.153.088c-.034.024-.06.062-.088.088a.6.6 0 0 1-.088.066c-.04.022-.104.041-.154.066s-.117.06-.153.089c-.029.023-.044.062-.066.088a.5.5 0 0 1-.066.066c-.026.022-.06.042-.088.066a1 1 0 0 0-.088.088c-.024.028-.044.062-.066.088a.4.4 0 0 1-.066.066c-.03.022-.075.04-.106.066a.5.5 0 0 0-.083.088c-.02.027-.028.062-.048.088s-.046.045-.072.066c-.027.022-.06.042-.088.066-.029.026-.059.06-.088.089s-.059.062-.088.088c-.028.024-.062.044-.088.066-.024.02-.05.039-.066.066-.022.036-.041.103-.066.153s-.06.113-.088.153c-.024.034-.062.06-.088.088-.024.028-.044.062-.066.088a.5.5 0 0 1-.066.066c-.026.022-.073.033-.088.066-.03.066-.062.22-.089.33-.025.109-.044.249-.066.33-.015.053-.04.102-.066.152s-.063.1-.088.153a3 3 0 0 0-.088.22q-.036.109-.066.219c-.022.077-.041.162-.066.241-.026.08-.07.158-.088.241-.03.132-.062.366-.088.549-.026.182-.044.38-.066.549-.02.154-.066.307-.066.46s.045.306.066.46c.022.165.055.352.066.527.01.175.05.439 0 .527s-.206-.015-.307 0c-.103.015-.203.068-.308.088-.153.029-.482.062-.613.088a.7.7 0 0 0-.176.066.2.2 0 0 0-.066.066c-.022.036-.04.103-.066.153s-.07.097-.088.153c-.029.091-.088.265-.088.396 0 .13.06.314.088.394.014.04.062.06.088.088.024.028.044.062.066.088.02.024.04.051.066.066.04.022.118.041.176.066s.115.061.175.088c.066.03.146.063.219.089.072.025.168.044.22.066.033.014.074.032.087.066.03.077.062.263.088.395.026.131.044.318.066.396.01.03.067.044.067.066s-.05.039-.067.066a.6.6 0 0 0-.066.153c-.01.05.04.127 0 .153s-.16.011-.24 0a1 1 0 0 1-.242-.066c-.03-.012-.05-.04-.066-.066-.023-.035-.046-.114-.071-.143-.02-.022-.054-.042-.082-.033s-.06.059-.088.088c-.03.029-.06.062-.089.088-.028.024-.062.044-.088.066-.024.02-.06.035-.066.066a4 4 0 0 0-.066.637c0 .212.044.52.066.636.006.031.04.051.066.066.04.022.117.066.176.066s.135-.044.175-.066c.027-.015.046-.042.066-.066.022-.026.037-.065.066-.088.036-.029.102-.088.153-.088s.113.06.153.088c.034.024.078.048.088.088.03.117.062.41.088.615.026.204.044.502.066.615.006.03.043.046.067.066.025.022.058.042.085.066.03.027.072.068.1.099.025.028.048.064.069.088.017.02.053.041.054.057 0 .016-.04.028-.051.037-.007.006-.027.014-.02.02.02.011.1.02.139.05.041.034.067.106.107.153.043.051.102.116.153.153.045.033.116.045.153.067.027.016.046.042.066.066.022.026.042.06.066.088.027.029.072.05.089.088a.9.9 0 0 1 .088.307c0 .102-.06.23-.088.307-.021.055-.062.103-.089.154-.025.05-.044.116-.066.153-.016.027-.042.046-.066.066-.026.022-.072.033-.088.066-.029.062-.062.205-.088.307s-.044.241-.066.308c-.012.035-.042.06-.066.088-.026.029-.064.054-.088.088-.03.04-.088.102-.088.153 0 .05.06.115.09.153.023.03.06.047.083.077.04.051.104.192.156.23.041.03.127-.04.153 0s.014.163 0 .242c-.015.08-.059.175-.088.24-.024.055-.062.103-.088.154-.025.05-.044.116-.066.153-.016.027-.042.046-.066.066-.026.022-.06.042-.088.066-.03.026-.062.06-.088.088-.024.028-.044.062-.066.089a.5.5 0 0 1-.066.066c-.026.022-.06.042-.088.066-.03.026-.054.064-.088.088a1 1 0 0 1-.154.088c-.05.025-.116.044-.153.066a.2.2 0 0 0-.066.066c-.022.036-.081.102-.066.153a.3.3 0 0 0 .153.153c.051.014.101-.047.153-.066.062-.022.148-.04.22-.066s.157-.059.219-.088c.053-.025.102-.062.153-.088.05-.025.113-.044.153-.066a.6.6 0 0 0 .088-.066c.03-.026.054-.064.088-.088a1.5 1.5 0 0 1 .306-.154c.063-.022.148-.041.22-.066.073-.027.168-.06.22-.089.035-.02.058-.062.087-.088q.044-.035.088-.066.045-.032.088-.066c.03-.026.062-.059.088-.088s.045-.062.067-.088c.02-.024.066-.044.066-.066s-.05-.04-.066-.066c-.022-.037-.041-.103-.067-.153a1 1 0 0 0-.088-.153c-.024-.034-.059-.06-.088-.089s-.064-.054-.088-.088c-.029-.04-.088-.102-.088-.153 0-.05.06-.113.088-.153.024-.034.06-.059.088-.088q.045-.047.088-.088c.028-.024.062-.044.088-.066a.5.5 0 0 0 .067-.066c.022-.026.042-.06.066-.088.026-.03.059-.062.088-.088.028-.024.062-.045.088-.067a.5.5 0 0 0 .066-.066c.022-.026.042-.06.066-.088.026-.029.059-.062.088-.088.028-.024.073-.055.088-.066.011-.01.044-.066.066-.066s.055.055.066.066c.025.011.103.041.153.066s.114.06.154.088c.034.024.059.062.088.088.028.024.062.044.088.066.024.02.05.04.066.067.022.036.066.102.066.153 0 .05-.045.1-.066.153-.022.055-.041.118-.066.175-.026.058-.06.12-.088.175-.028.052-.062.102-.088.153-.025.05-.044.102-.066.154-.023.05-.042.103-.067.153s-.059.116-.088.153c-.023.029-.062.044-.088.066-.024.02-.054.037-.066.066a.7.7 0 0 0-.066.241c0 .08.044.19.066.242.012.029.042.046.066.066.026.022.06.042.088.066.03.026.062.059.088.088.024.028.044.062.067.088q.03.036.066.066c.026.022.06.042.088.066.029.026.062.059.088.088.024.028.044.062.066.088q.03.036.066.066c.026.022.06.042.088.066.029.026.062.06.088.088.024.028.044.062.066.088.02.025.066.045.066.067s-.05.039-.066.066c-.022.04-.04.118-.066.175-.026.058-.059.135-.088.175-.022.03-.062.044-.088.066a.5.5 0 0 0-.066.066c-.022.026-.042.06-.066.088-.026.03-.064.054-.088.088a1 1 0 0 0-.088.153c-.025.05-.044.103-.066.154-.023.05-.042.103-.067.153s-.059.102-.088.153-.062.102-.088.153c-.025.05-.044.116-.066.153-.016.027-.042.046-.066.066-.026.022-.065.037-.088.066-.029.036-.059.103-.088.154-.03.05-.061.117-.086.153-.017.024-.044.04-.063.062-.022.025-.042.062-.067.09-.026.03-.065.067-.091.093q-.034.03-.066.063c-.022.025-.042.06-.067.088-.026.03-.059.062-.088.088q-.043.035-.088.066c-.029.022-.065.037-.088.066-.029.036-.103.102-.088.154.014.05.117.138.175.153s.135-.044.175-.066c.028-.015.047-.042.067-.066.022-.026.037-.066.066-.089.036-.029.102-.062.153-.088.05-.025.113-.044.153-.066a.6.6 0 0 0 .088-.066c.03-.026.062-.059.088-.088.024-.028.044-.062.066-.088a.5.5 0 0 1 .066-.066c.026-.022.06-.042.088-.066.03-.026.062-.06.088-.088.024-.028.044-.062.067-.088.02-.024.039-.05.066-.066.037-.022.103-.041.153-.066s.113-.06.153-.088c.034-.025.059-.063.088-.089.028-.024.062-.044.088-.066a.5.5 0 0 0 .066-.066c.022-.026.037-.065.066-.088.037-.029.102-.062.153-.088.05-.025.114-.044.154-.066a.6.6 0 0 0 .088-.066 2 2 0 0 0 .088-.088c.024-.028.044-.062.066-.088a.5.5 0 0 1 .066-.066c.026-.022.06-.042.088-.066a2 2 0 0 0 .088-.088c.024-.028.044-.063.066-.089a.5.5 0 0 1 .066-.066c.026-.022.06-.042.088-.066.03-.026.06-.059.088-.088.03-.029.06-.062.088-.088.029-.024.063-.044.089-.066a.5.5 0 0 0 .066-.066c.022-.026.042-.06.066-.088.026-.03.059-.06.088-.088.029-.03.062-.06.088-.088q.037-.041.066-.088c.022-.04.066-.103.066-.154 0-.05-.044-.117-.066-.153-.016-.027-.042-.046-.066-.066-.026-.022-.06-.042-.088-.066a1 1 0 0 1-.088-.088c-.024-.028-.044-.062-.066-.088a.5.5 0 0 0-.066-.066c-.026-.022-.06-.042-.089-.066-.029-.026-.059-.06-.088-.088q-.044-.047-.088-.088c-.028-.024-.062-.044-.088-.066a.5.5 0 0 1-.066-.067c-.022-.026-.042-.06-.066-.088-.026-.029-.064-.054-.088-.088-.03-.04-.088-.102-.088-.153 0-.05.059-.117.088-.153.023-.029.062-.044.088-.066a.5.5 0 0 0 .066-.066c.022-.026.042-.06.066-.088.026-.03.06-.062.088-.088q.041-.037.088-.066c.04-.022.102-.066.154-.066.05 0 .102.044.153.066.05.022.103.04.153.066s.113.059.153.088c.034.024.047.092.088.088.143-.015.6-.161.768-.176.085-.007.157.07.241.088.143.029.408.088.615.088.307 0 .999-.06 1.23-.088.057-.007.101-.088.152-.088s.102.059.153.088.103.088.154.088c.05 0 .102-.06.153-.088q.076-.047.153-.088c.05-.025.102-.044.153-.066s.102-.066.153-.066.102.044.153.066.104.04.154.066.113.059.153.088c.034.024.059.062.088.088q.043.035.088.066c.029.022.07.034.088.066a.6.6 0 0 1 .088.241c0 .08-.059.19-.088.241-.018.033-.056.049-.088.067-.04.022-.108.034-.153.066a1 1 0 0 0-.153.153c-.036.046-.06.113-.089.153a.4.4 0 0 1-.088.088 1 1 0 0 1-.153.088c-.05.025-.117.044-.153.066a.2.2 0 0 0-.066.066c-.022.036-.066.102-.066.153s.044.114.066.154q.029.047.066.088c.026.029.06.059.088.088.03.029.062.059.088.088.024.028.044.062.066.088q.03.036.066.066c.026.022.06.042.088.066.03.026.063.06.089.088.024.028.044.062.066.088q.03.036.066.066c.026.022.06.042.088.066.029.026.059.06.088.089s.059.062.088.088c.028.024.062.044.088.066q.036.03.066.066c.022.026.042.06.066.088.026.029.06.062.088.088.028.024.062.044.088.066q.036.03.066.066c.023.026.038.065.067.088.036.03.102.062.153.088.05.025.113.044.153.066q.047.028.088.066c.029.026.062.06.088.088.024.029.044.063.066.089q.03.036.066.066c.026.022.06.042.088.066.03.026.054.064.088.088.04.029.102.062.154.088.05.025.116.044.153.066.027.016.046.042.066.066.022.026.042.06.066.088.026.03.059.062.088.088.028.024.062.044.088.066q.036.03.066.066c.022.026.042.06.066.088.026.03.06.063.088.089.028.024.054.052.088.066.051.022.147.066.22.066a.5.5 0 0 0 .219-.066c.024-.02-.05-.04-.066-.066-.022-.037-.041-.104-.066-.154a1 1 0 0 0-.088-.153c-.024-.034-.062-.059-.089-.088a.6.6 0 0 1-.066-.088c-.022-.04-.04-.103-.066-.153s-.059-.117-.088-.153c-.023-.03-.062-.044-.088-.066a.5.5 0 0 1-.066-.066c-.022-.026-.042-.06-.066-.088-.026-.03-.064-.055-.088-.089a1 1 0 0 1-.088-.153q-.038-.074-.066-.153c-.022-.065-.042-.187-.067-.236-.015-.03-.061-.033-.083-.06a1 1 0 0 1-.091-.146c-.027-.053-.045-.133-.067-.172-.015-.027-.042-.046-.066-.066-.026-.022-.065-.037-.088-.066-.029-.037-.062-.102-.088-.153q-.036-.075-.066-.153c-.022-.055-.04-.118-.066-.175-.026-.058-.061-.115-.088-.175-.03-.066-.088-.147-.088-.22s.059-.168.088-.219c.021-.036.062-.059.088-.088.024-.028.044-.062.066-.088a.5.5 0 0 1 .066-.066c.026-.022.06-.042.088-.066.03-.026.062-.06.088-.088.024-.028.044-.062.066-.088a.5.5 0 0 1 .067-.066c.026-.022.06-.042.088-.066.029-.027.062-.06.088-.089a.6.6 0 0 0 .066-.088c.022-.04.066-.102.066-.153 0-.05-.047-.1-.066-.153-.022-.062-.041-.147-.066-.22a3 3 0 0 0-.088-.218c-.025-.054-.062-.103-.088-.154-.026-.05-.045-.113-.067-.153q-.029-.047-.066-.088c-.026-.029-.074-.049-.088-.088a2 2 0 0 1-.088-.395c-.015-.132-.026-.33 0-.396.018-.048.103.011.153 0s.102-.044.154-.066c.05-.022.102-.066.153-.066.05 0 .113.044.153.066q.047.029.088.066c.029.026.062.06.088.088q.037.041.066.088c.022.04.034.109.066.154a.8.8 0 0 0 .153.153c.045.032.113.044.153.066q.047.028.089.066c.029.026.062.059.088.088.024.028.052.054.066.088.022.055.066.161.066.241s-.044.19-.066.242c-.012.029-.042.046-.066.066-.026.022-.06.042-.088.066-.03.026-.062.059-.089.088-.024.028-.044.062-.066.088-.02.024-.066.044-.066.066s.046.042.066.066c.022.026.042.06.066.088.027.03.06.062.089.088.028.024.062.044.088.066q.036.03.066.066c.022.026.036.066.066.088.04.03.117.062.175.089.057.025.135.044.175.066.027.015.046.042.066.066.022.026.037.065.066.088.036.029.102.062.153.088.05.025.103.044.154.066.05.022.103.041.153.066s.102.059.153.088q.076.047.153.088c.05.025.113.044.153.066q.047.029.088.066c.03.026.054.064.088.088a.6.6 0 0 0 .154.088c.049.015.127.04.153 0s.014-.162 0-.24a1 1 0 0 0-.088-.242c-.018-.032-.062-.044-.088-.066a.5.5 0 0 1-.066-.066c-.022-.026-.043-.06-.067-.088a1 1 0 0 0-.088-.088c-.028-.024-.062-.044-.088-.066a.5.5 0 0 1-.066-.066c-.022-.027-.042-.06-.066-.089-.026-.029-.064-.054-.088-.088a1 1 0 0 1-.088-.153c-.025-.05-.044-.102-.066-.153s-.041-.103-.066-.153-.06-.117-.088-.153c-.023-.03-.088-.044-.088-.066s.065-.037.088-.066c.029-.037.062-.103.088-.154.025-.05.044-.113.066-.153a.6.6 0 0 1 .066-.088c.026-.029.064-.054.088-.088.03-.04.088-.102.088-.153s-.059-.102-.088-.153-.062-.102-.088-.153q-.038-.074-.066-.154c-.022-.066-.041-.162-.066-.24-.026-.08-.06-.165-.088-.242-.028-.073-.062-.146-.088-.22-.025-.071-.044-.168-.066-.219-.014-.034-.042-.06-.067-.088-.026-.029-.067-.052-.088-.088-.029-.05-.088-.146-.088-.219s.06-.168.088-.22c.021-.035.062-.058.088-.087s.045-.062.067-.088a.5.5 0 0 1 .066-.066c.026-.022.06-.043.088-.067.029-.026.062-.059.088-.088.024-.028.044-.062.066-.088a.5.5 0 0 1 .066-.066c.026-.022.06-.042.088-.066.03-.026.062-.059.088-.088q.034-.043.066-.088.031-.046.066-.088c.026-.03.064-.054.088-.088a1.5 1.5 0 0 0 .154-.306c.023-.063.067-.147.067-.22s-.047-.145-.066-.219c-.022-.088-.067-.205-.067-.307s.045-.242.067-.308a.16.16 0 0 1 .066-.088.6.6 0 0 1 .24-.088c.08 0 .161.062.242.088.091.03.205.073.307.088s.288.1.308 0c.05-.263.04-1.316 0-1.58-.012-.078-.162-.013-.242 0a1 1 0 0 0-.24.089c-.033.018-.045.062-.067.088-.02.024-.039.05-.066.066-.037.022-.102.066-.153.066s-.113-.044-.153-.066c-.032-.018-.078-.031-.088-.066a2.5 2.5 0 0 1-.088-.549c0-.183.059-.446.088-.548.01-.035.054-.052.088-.066.05-.022.147-.041.219-.066s.157-.06.22-.089a1 1 0 0 0 .152-.088c.051-.04.114-.102.154-.153.036-.046.059-.102.088-.153l.088-.153c.029-.051.067-.098.088-.153.029-.077.088-.205.088-.308 0-.102-.06-.23-.088-.307-.021-.055-.06-.102-.088-.153-.03-.051-.06-.113-.088-.153-.024-.034-.048-.078-.088-.088a5 5 0 0 0-.615-.088c-.204-.015-.523.183-.615 0-.102-.206.011-.82 0-1.229s-.044-.958-.066-1.228c-.01-.132-.04-.262-.066-.392a16 16 0 0 0-.088-.42c-.028-.126-.062-.255-.088-.376-.025-.115-.044-.265-.066-.349-.014-.054-.041-.103-.066-.153s-.06-.102-.088-.153q-.047-.077-.088-.153-.036-.075-.066-.153c-.022-.055-.041-.118-.067-.175-.026-.058-.059-.136-.088-.176-.022-.03-.062-.044-.088-.066a.5.5 0 0 1-.066-.066c-.022-.026-.042-.06-.066-.088-.026-.029-.064-.054-.088-.088-.029-.04-.059-.102-.088-.153q-.045-.076-.088-.153c-.03-.051-.062-.102-.088-.153-.025-.05-.044-.103-.066-.154-.022-.05-.041-.103-.066-.153s-.06-.117-.088-.153c-.023-.029-.062-.044-.089-.066a.5.5 0 0 1-.066-.066c-.022-.026-.042-.06-.066-.088a1 1 0 0 0-.088-.088c-.028-.024-.062-.044-.088-.066a.5.5 0 0 1-.066-.066c-.022-.026-.042-.06-.066-.088a1 1 0 0 0-.088-.089c-.028-.024-.062-.044-.088-.066a.5.5 0 0 1-.066-.066c-.022-.026-.042-.06-.066-.088a1 1 0 0 0-.088-.088.6.6 0 0 0-.088-.066c-.04-.022-.104-.041-.154-.066S12.576.91 12.54.881c-.029-.023-.044-.062-.066-.088-.02-.024-.037-.054-.066-.066-.051-.022-.162-.041-.241-.066a3 3 0 0 1-.241-.088c-.055-.024-.103-.06-.154-.088-.05-.03-.097-.07-.153-.089-.09-.029-.263-.062-.395-.088-.131-.026-.278-.044-.396-.066a5 5 0 0 1-.307-.066C10.42.15 10.32.103 10.214.088 10.009.06 9.599 0 9.292 0s-.773.075-.922.088c-.01.001.038-.012.028-.01M11.82 2.49c.01.025.044.113.066.149.017.027.067.04.067.067s-.051.057-.067.092c-.022.052-.04.147-.066.22a4 4 0 0 1-.088.218c-.027.06-.062.118-.088.176a2 2 0 0 0-.066.175c-.022.066-.04.147-.066.219s-.06.146-.088.22c-.029.076-.08.155-.088.24-.015.155.015.517 0 .681-.01.106-.06.23-.088.308-.021.055-.062.102-.088.153-.025.05-.044.113-.066.153a.6.6 0 0 1-.066.088c-.026.029-.068.051-.088.088-.03.055-.063.161-.089.241s-.044.164-.066.242q-.029.11-.066.219c-.026.073-.059.168-.088.219-.02.036-.062.059-.088.088-.024.028-.044.062-.066.088-.02.024-.039.05-.066.066-.037.022-.114.027-.153.066a1 1 0 0 0-.153.242c-.038.076-.06.164-.088.24-.028.074-.063.147-.089.22-.025.072-.044.168-.066.22-.014.033-.042.06-.066.087-.026.03-.059.062-.088.088-.028.024-.062.045-.088.067a.5.5 0 0 0-.066.066c-.022.026-.037.065-.066.088-.036.029-.102.062-.153.088-.05.025-.102.044-.153.066s-.103.04-.153.066c-.052.026-.097.072-.154.088-.106.029-.321.088-.482.088s-.377-.059-.483-.088c-.057-.016-.102-.062-.153-.088-.05-.025-.116-.044-.153-.066-.027-.016-.046-.042-.066-.066-.022-.026-.042-.06-.066-.088a1 1 0 0 0-.088-.088c-.028-.024-.062-.044-.088-.066a.5.5 0 0 1-.066-.067c-.022-.026-.042-.06-.066-.088a1 1 0 0 0-.089-.088c-.028-.024-.062-.044-.088-.066-.024-.02-.05-.039-.066-.066-.022-.037-.04-.103-.066-.153s-.07-.097-.088-.153c-.029-.091-.062-.263-.088-.396-.026-.13-.044-.318-.066-.395-.009-.03-.042-.046-.066-.066-.026-.022-.065-.037-.088-.066-.03-.037-.062-.102-.088-.153q-.036-.075-.066-.153c-.022-.056-.041-.119-.066-.176-.026-.058-.066-.114-.089-.175-.029-.08-.059-.205-.088-.307s-.059-.245-.088-.307c-.016-.034-.062-.045-.088-.067-.024-.02-.05-.039-.066-.066-.022-.037-.04-.103-.066-.153s-.059-.102-.088-.153q-.047-.077-.088-.153c-.025-.05-.057-.098-.066-.153a4.5 4.5 0 0 1-.066-.637c0-.212.044-.48.066-.637.015-.104.055-.205.066-.307.01-.102-.025-.256 0-.307.023-.046.107-.023.153 0a.6.6 0 0 1 .153.153q.053.07.088.153c.03.066.06.161.088.241q.045.12.088.242c.03.08.063.16.089.24s.044.191.066.242c.012.03.042.046.066.066.026.022.06.042.088.066.029.026.062.06.088.088.024.028.044.062.066.088q.03.036.066.066c.026.022.065.038.088.067.03.036.062.102.088.153.025.05.044.102.066.153.022.05.041.103.066.153s.06.113.088.153c.024.034.063.06.089.088.024.028.044.062.066.088q.03.036.066.066c.026.022.065.037.088.067.029.036.062.102.088.153.025.05.044.113.066.153q.029.047.066.088c.026.029.06.062.088.088.028.024.062.044.088.066q.036.03.066.066c.022.026.034.07.066.088a.6.6 0 0 0 .242.088c.08 0 .16-.062.24-.088.092-.029.206-.062.308-.088s.241-.044.307-.066c.036-.012.06-.042.089-.066.029-.026.062-.059.088-.088.024-.028.044-.062.066-.088a.5.5 0 0 1 .066-.066c.026-.022.065-.037.088-.066.029-.037.062-.102.088-.153.025-.05.044-.114.066-.154a.6.6 0 0 1 .066-.088 2 2 0 0 1 .088-.088c.028-.024.062-.044.088-.066a.5.5 0 0 0 .066-.066c.022-.026.042-.06.066-.088.026-.03.06-.062.089-.088.028-.024.062-.044.088-.066.024-.02.05-.04.066-.066.022-.037.04-.103.066-.153s.064-.1.088-.154a3 3 0 0 0 .088-.24c.025-.08.044-.191.066-.242.012-.03.042-.046.066-.066.026-.022.06-.042.088-.066.03-.026.062-.06.088-.088q.038-.041.066-.088c.022-.04.041-.104.066-.154s.06-.102.089-.153c.029-.05.062-.102.088-.153.025-.05.044-.113.066-.153q.029-.047.066-.088c.026-.03.064-.054.088-.088a.6.6 0 0 0 .088-.153c.014-.05-.05-.139 0-.154.08-.026.402-.029.482 0 .055.02.001.146 0 .175 0 0-.005 0-.004.002M6.248 9.687c.037.014.146.062.219.088.072.025.157.044.219.066a1.5 1.5 0 0 1 .306.154c.034.025.06.063.088.089.028.024.063.044.089.066.024.02.056.037.066.066.022.062.066.205.066.307s-.044.205-.066.307-.041.206-.066.308-.06.227-.089.307c-.022.061-.062.117-.088.175s-.044.135-.066.175c-.015.027-.042.046-.066.066-.026.022-.06.042-.088.067-.029.026-.054.064-.088.088-.04.029-.102.062-.153.088-.05.025-.102.044-.153.066s-.103.04-.153.066-.096.076-.154.088a4.6 4.6 0 0 1-.707.088 4 4 0 0 1-.648-.074c-.014-.002.013-.032.005-.041s-.038-.006-.055-.014a.4.4 0 0 1-.066-.046c-.022-.02-.04-.05-.066-.066-.037-.022-.103-.041-.153-.066a1 1 0 0 1-.154-.088c-.034-.024-.059-.062-.088-.088s-.062-.045-.088-.067a.5.5 0 0 1-.066-.066c-.022-.026-.042-.06-.066-.088-.026-.029-.064-.054-.088-.088a1 1 0 0 1-.088-.153q-.038-.074-.066-.153c-.022-.066-.041-.162-.066-.241-.026-.08-.062-.16-.088-.242-.03-.09-.088-.205-.088-.307s.059-.23.088-.307c.02-.055.062-.102.088-.153.025-.05.044-.117.066-.154.016-.027.042-.046.066-.066.026-.022.06-.042.088-.066.03-.026.047-.082.088-.088a11 11 0 0 1 1.163-.088c.388 0 .97.074 1.164.088q0-.002.002-.003m6.494 0c.011.015.044.062.066.088q.031.036.067.066c.025.022.058.042.085.066.03.028.072.068.1.1.025.028.05.065.07.087.016.016.043.023.05.044.023.07.06.28.09.384.025.082.089.161.089.241s-.059.175-.088.242c-.024.054-.062.102-.088.153-.025.05-.044.102-.066.153-.022.05-.041.103-.066.153s-.06.113-.088.153c-.024.034-.062.06-.088.088-.024.028-.045.062-.067.088-.02.024-.039.05-.066.066-.036.022-.103.041-.153.067s-.113.059-.153.088c-.034.024-.059.062-.088.088-.028.024-.053.054-.088.066-.066.022-.206.04-.307.066a4 4 0 0 0-.308.089c-.054.02-.104.079-.153.079s-.091-.06-.142-.078c-.075-.026-.204-.055-.307-.081l-.319-.077q-.121-.029-.241-.064c-.08-.025-.19-.06-.241-.088-.032-.018-.044-.062-.066-.088a.5.5 0 0 0-.066-.067c-.026-.022-.066-.036-.088-.066-.03-.04-.063-.117-.089-.175a2 2 0 0 1-.066-.175c-.022-.066-.04-.147-.066-.22-.026-.072-.07-.141-.088-.218-.029-.129-.088-.366-.088-.549s.06-.447.088-.549c.01-.035.056-.048.088-.066.04-.022.103-.04.153-.066.052-.026.096-.08.154-.088.245-.029.878-.088 1.316-.088s1.097.073 1.316.088zm-4.037 2.327c.014.014.06.062.088.088.028.024.062.044.088.066.024.02.054.037.066.066.022.05.041.162.066.241.027.08.063.16.089.241.029.09.063.2.088.303.026.105.044.235.066.327.018.076.04.154.066.224.025.068.06.132.088.2.029.073.088.16.088.24s-.06.187-.088.242c-.02.037-.062.059-.088.088-.024.028-.044.062-.066.088-.02.024-.037.054-.066.066a.7.7 0 0 1-.242.066c-.08 0-.186-.044-.24-.066-.035-.014-.076-.032-.089-.066-.029-.077-.062-.263-.088-.395-.026-.131-.044-.315-.066-.396-.01-.035-.042-.06-.066-.088-.026-.029-.06-.088-.088-.088-.03 0-.062.06-.088.088-.024.028-.056.053-.066.088a3 3 0 0 0-.066.396c-.011.13.04.33 0 .395-.04.066-.163.014-.242 0a1 1 0 0 1-.241-.088c-.032-.018-.044-.059-.066-.088q-.032-.046-.066-.088c-.026-.03-.071-.05-.088-.088a.9.9 0 0 1-.088-.308c0-.102.059-.23.088-.307.02-.055.062-.102.088-.153q.037-.075.066-.153c.022-.062.041-.147.066-.22s.06-.146.088-.219c.03-.077.062-.16.088-.24s.044-.176.066-.242c.018-.053.055-.102.066-.153.011-.05-.048-.135 0-.153.066-.026.265-.016.396 0 .132.015.33.074.395.088zm3.555 1.535c.026.014.102.073.153.088.05.014.13-.046.153 0 .026.051.011.206 0 .308a2 2 0 0 1-.066.307.2.2 0 0 1-.066.088c-.036.03-.102.062-.153.088-.05.025-.113.044-.153.066a.6.6 0 0 0-.088.066c-.03.026-.062.06-.088.088-.024.028-.044.062-.067.088-.02.024-.037.055-.066.067a.7.7 0 0 1-.24.066c-.08 0-.187-.044-.242-.066-.034-.014-.073-.034-.088-.067a1 1 0 0 1-.088-.329c0-.11.059-.25.088-.33a.6.6 0 0 1 .088-.152 1 1 0 0 1 .153-.154c.045-.032.102-.044.153-.066s.103-.04.153-.066.103-.059.154-.088c.05-.029.102-.088.153-.088.05 0 .127.074.153.088 0 .001.003-.003.004-.002m-7.898.46c.026.012.103.042.153.067s.102.059.153.088.107.052.153.088c.051.04.113.102.153.153.036.046.06.113.088.153.024.034.062.06.088.088.024.028.044.062.067.088q.03.036.066.067c.026.022.065.037.088.066.029.036.062.102.088.153.025.05.044.113.066.153.018.032.066.059.066.088s-.044.062-.066.088c-.02.024-.037.054-.066.066a.7.7 0 0 1-.241.066.7.7 0 0 1-.242-.066c-.029-.012-.046-.042-.066-.066-.022-.026-.042-.06-.066-.088a1 1 0 0 0-.088-.088c-.028-.024-.062-.044-.088-.066a.5.5 0 0 1-.066-.066c-.022-.026-.042-.06-.066-.088a1 1 0 0 0-.088-.088c-.028-.024-.062-.044-.088-.066a.5.5 0 0 1-.066-.067c-.022-.026-.038-.065-.067-.088-.036-.029-.102-.062-.153-.088-.05-.025-.113-.044-.153-.066-.032-.018-.07-.034-.088-.066a1 1 0 0 1-.088-.241c-.014-.08-.051-.201 0-.241s.205-.011.307 0 .257.055.308.066z"/></svg>