<svg xmlns="http://www.w3.org/2000/svg" width="300" height="300" viewBox="0 0 300 300"><title>factions-death-bladeborn-sons-of-velmorn</title><path d="M149.58 3.925c-1.352 2.691-6.226 10.729-10.83 17.865l-8.372 12.98 2.053 12.956c2.825 17.822 3.104 93.514.354 95.801-2.537 2.109-6.682-1.126-6.682-5.215 0-1.614-1.419-6.656-3.158-11.203s-4.249-12.609-5.59-17.921c-1.341-5.31-5.556-16.843-9.368-25.629-7.63-17.578-7.425-14.4-2.959-45.974 1.923-13.61.141-13.801-11.558-1.235-15.364 16.505-16.638 19.489-16.772 39.267l-.11 16.506 7.796 15.509c7.086 14.093 9.384 22.055 10.72 37.107.233 2.619-.554 4.065-2.408 4.436-1.512.305-2.749-.248-2.749-1.223 0-2.979-6.315-15.85-13.884-28.296-7.491-12.313-11.01-27.834-11.228-49.539-.073-7.082-2.813-18.234-5.025-20.446-1.361-1.361-8.878 9.341-10.07 14.336-.593 2.496-2.15 5.768-3.458 7.275-4.508 5.189-1.712 30.86 4.318 39.622 2.709 3.933 5.889 10.368 7.072 14.296s3.977 9.54 6.214 12.471c4.886 6.409 5.034 8.052.909 10.255-3.974 2.129-2.82 13.598 1.739 17.284 1.959 1.584 2.611 3.516 1.982 5.882-.804 3.047.216 4.059 7.5 7.453 10.861 5.053 13.935 5.082 13.935.121 0-4.791 2.747-6.668 5.214-3.559 3.571 4.508 21.58 6.307 25.574 2.556 4.282-4.022 14.549-3.698 16.603.521.737 1.509 1.944 3.986 2.691 5.503 2.35 4.785 25.977 4.013 26.671-.872.947-6.684 12.893-8.827 17.5-3.142 2.627 3.246 3.216 3.329 9.684 1.411 9.421-2.797 10.815-4.277 10.815-11.46 0-7.228 4.663-8.162 6.284-1.255 1.123 4.791 6.404 5.94 10.136 2.205 1.772-1.772 2.341-3.966 1.699-6.521-.534-2.12-.286-4.678.551-5.68 2.039-2.46 6.427-15.243 6.457-18.816.009-1.575 3.384-6.405 7.492-10.738 12.493-13.172 21.846-43.452 17.58-56.912-7.613-24.032-13.103-28.733-14.491-12.403-1.386 16.303-6.066 38.462-9.043 42.833-1.472 2.162-4.275 7.116-6.231 11.002-5.648 11.243-16.322 26.678-18.472 26.701-3.329.033-2.204-4.547 3.537-14.337 3.028-5.166 5.503-9.779 5.503-10.252 0-.478 1.683-4.219 3.741-8.317 5.413-10.775 7.425-28.984 5.072-45.938l-1.889-13.639-12.497-13.084c-17.109-17.909-17.491-17.359-13.341 19.137 3.456 30.362 1.846 51.157-4.751 61.433-7.208 11.228-12.478 22.286-12.482 26.197-.007 3.009-.848 3.536-5.653 3.536h-5.65l.778-22.396c.427-12.32 1.529-32.654 2.456-45.19 3.834-52.016 4.772-45.721-10.168-68.585-6.568-10.052-8.617-10.869-11.732-4.679l-.001-.001-.005-.001zm58.258 178.576c-2.162 1.693-6.404 3.475-9.431 3.962s-7.434 1.191-9.803 1.566c-2.916.459-5.244-.335-7.228-2.466-3.553-3.812-7.477-2.678-8.784 2.534-1.997 7.963-37.058 6.928-37.058-1.095 0-4.321-3.811-5.204-10.665-2.46-5.821 2.331-8.071 2.198-22.436-1.309-2.706-.661-4.699-.166-6.084 1.502-2.445 2.941-12.765 3.341-15.51.598-4.819-4.819-5.671 1.622-1.378 10.393 4.63 9.458 5.522 19.884 1.945 22.847-5.566 4.621-3.002 19.719 5.341 31.438 4.307 6.047 7.177 6.071 10.276.084 4.662-9.015 13.327-1.816 14.184 11.788 1.433 22.736 14.897 50.439 14.897 30.648 0-5.112 1.521-6.69 4.611-4.78 1.337.825 1.745 2.728 1.117 5.22-2.121 8.447 5.691 9.204 10.366 1.007 3.028-5.31 5.911-4.866 5.911.909 0 7.132 7.15 6.675 8.878-.568 1.395-5.841 1.922-6.486 4.527-5.486 1.5.575 1.983 2.129 1.396 4.473-1.085 4.321 1.361 6.226 5.296 4.119 2.766-1.479 4.734-8.934 7.529-28.474 2.174-15.216 12.443-25.406 17.672-17.537 3.503 5.278 6.824 3.962 13.982-5.541 9.118-12.103 11.766-23.558 6.877-29.768-3.833-4.87-3.643-7.208 1.673-20.617 5.392-13.614 1.239-20.283-8.091-12.984l-.007-.001-.005-.002zm-86.891 31.284c7.482 6.381 8.35 9.172 3.197 10.287-11.377 2.467-14.85 1.513-19.372-5.316-8.787-13.277 2.402-16.716 16.174-4.972zm69.838-3.892c4.597 10.086-7.486 18.502-21.121 14.709-11.653-3.241-11.168-5.834 2.364-12.636 13.584-6.827 16.447-7.146 18.757-2.073m-41.72 20.032c.628 1.015 1.676 4.376 2.33 7.466s1.656 7.116 2.221 8.941c1.426 4.579-3.778 6.609-6.824 2.658-1.553-2.017-2.399-2.266-2.924-.872-2.447 6.521-6.845 1.772-5.821-6.287 1.586-12.471 7.03-18.355 11.016-11.911l.001.002.001.001z"/></svg>