<svg xmlns="http://www.w3.org/2000/svg" viewBox="0 0 300 300"><path d="M220.632 28.211c-1.847 10.553-3.782 18.886-4.485 27.218 0 3.363 1.055 9.102 3.21 9.937a10.7 10.7 0 0 0 5.057 1.253c3.804 0 7.145-1.935 9.102-4.881l.022-.045c2.088-3.782 4.178-7.014 6.486-10.048l-.154.22c2.352-3.914 6.595-6.486 11.433-6.486 7.365 0 13.302 5.937 13.302 13.28 0 4.155-1.913 7.893-4.924 10.311l-.022.022c-1.187 1.516-3.363 2.55-4.089 4.331s-2.88 6.881-1.847 8.003c3.21 3.518 5.453 10.091 12.268 7.519 6.881-2.045 12.773-5.694 17.456-10.487 2.155-2 5.057-3.232 8.245-3.232.77 0 1.516.066 2.243.22l-.088-.022c4.727 1.275 6.09 6.09 6.156 11.19 0 12.093-1.759 14.334-14.181 16.423-8.971 1.451-17.633 4.09-26.515 6.002-3.21.748-7.167 1.363-11.169 1.714l-.352.022c-6.969.637-12.026.55-13.543-9.366s-10.575-14.489-18.82-18.183-13.852 3.056-12.818 12.422c1.604 14.159 12.818 24.03 15.544 38.101 1.144 5.76 14.115 9.059 20.512 6.552 8.025-3.056 15.236-6.881 22.843-10.246 2.023-1.011 4.419-1.957 6.881-2.726l.308-.088c9.541-2.814 16.489-.638 18.82 5.694.11.66.176 1.429.176 2.198 0 6.112-3.649 11.388-8.882 13.785l-.088.043c-8.003 3.914-16.907 6.09-24.69 10.399-3.804 2.133-8.333 3.408-13.192 3.408s-9.388-1.254-13.323-3.473l.132.066c-3.21-1.451-9.85-3.363-11.454 3.518a11.1 11.1 0 0 0-.791 4.111c0 4.155 2.265 7.784 5.606 9.717l.066.022c3.363 1.759 8.025 1.516 10.818 3.913 12.818 11.938 24.932 11.696 38.541.725 8.575-6.969 16.028-4.55 21.326 4.243 3.21 5.122 2.638 8.003-1.759 13.28-7.761 9.476-19.457 15.478-32.583 15.478-9.564 0-18.402-3.188-25.46-8.575l.11.066c-7.827-6.442-17.764-10.575-28.625-11.345h-.484c-5.343 0-9.696 4.354-9.696 9.696 4.815 18.028 8.003 37.288 28.295 46.521 3.759 1.693 6.42 4.155 10.663.879 1.913-1.034 4.221-1.627 6.662-1.627.308 0 .615 0 .946.022h-.043c10.663-.725 14.906 2.088 16.028 10.091 1.516 10.334-3.606 21.129-12.115 22.096a34.3 34.3 0 0 1-6.618.637 34.8 34.8 0 0 1-14.599-3.188l.198.088c-12.971-8.003-25.789-17.368-32.033-32.891-2.286-6.595-4.991-12.291-8.223-17.611l.241.396c-2.111-4.288-6.442-7.145-11.454-7.145a12.74 12.74 0 0 0-8.596 3.32c-1.604 1.187-2.814 2.88-4.331 4.155-8.003 6.64-8.003 6.64-16.028-2s-17.632-7.453-22.602 4.727c-7.189 16.116-16.973 29.835-28.956 41.245l-.043.043c-5.937 5.739-14.026 9.278-22.931 9.278-2.243 0-4.419-.22-6.53-.637l.22.043c-8.464-2-14.665-9.476-14.665-18.402 0-3.452.923-6.662 2.528-9.454l-.045.088a15.23 15.23 0 0 1 10.136-4.638h.045c.439-.022.923-.043 1.407-.043 4.288 0 8.333.946 12.004 2.595l-.198-.066a13.56 13.56 0 0 0 5.892 1.32c4.815 0 9.08-2.484 11.543-6.244l.043-.043c6.991-11.586 13.961-25.283 20.007-39.486l.836-2.198a9.3 9.3 0 0 0 .329-2.419c0-4.638-3.737-8.399-8.354-8.487a47.6 47.6 0 0 0-17.303 3.561l.329-.11c-10.246 4.045-18.819 8.266-27.064 13.082l.923-.484c-18.754 10.729-40.629-3.847-49.753-16.028a4.85 4.85 0 0 1-1.187-3.21v-.088c1.451-10.091 16.028-18.49 22.184-11.762 17.72 18.754 32.869 8.003 48.721-1.825 3.1-1.604 5.739-3.561 8.003-5.914 1.693-2.243 3.518-6.244 2.55-8.003s-4.969-3.452-8.025-5.057c-.264-.11-.615-.198-.968-.198s-.682.066-.989.198h.022c-19.237 9.85-35.572 1.363-51.776-8.003-3.056-1.737-5.672-3.539-8.113-5.541l.11.088c-3.012-1.825-4.991-5.057-4.991-8.795 0-1.891.505-3.671 1.407-5.188l-.022.043c1.957-3.539 5.672-5.892 9.938-5.892 1.407 0 2.77.264 4.002.725l-.088-.022c6.947 2.484 12.861 5.145 18.468 8.311l-.594-.308c3.892 2.396 8.487 4.793 13.235 6.904l.791.308a16.1 16.1 0 0 0 6.683 1.473c7.212 0 13.28-4.748 15.302-11.257l.022-.11c5.453-11.125 9.3-23.041 15.456-33.637 4.09-7.145-.55-9.3-4.09-12.575a8 8 0 0 0-6.2-2.946 8 8 0 0 0-6.2 2.946l-.022.022c-3.957 3.561-7.541 7.365-10.751 11.498l-.154.198C62.201 112.056 56.748 114.277 40.017 109c-8.399-3.694-18.161-5.958-28.472-6.156h-.088c-5.211 0-12.246-8.003-11.388-13.059.615-4.793 2.176-9.146 4.507-12.949l-.088.154c1.341-1.935 3.518-3.144 6.002-3.144s4.683 1.23 6.002 3.122l.022.022c5.012 5.87 11.895 9.981 19.744 11.411l.22.022c.637.131 1.385.22 2.133.22 2.176 0 4.221-.637 5.937-1.759l-.045.022a10.4 10.4 0 0 0 2.595-6.881q0-1.022-.198-1.979l.022.066c-1.847-5.189-4.55-9.629-8.047-13.389l.022.022c-5.365-5.694-2.638-9.278 1.692-13.192 9.059-8.003 18.028-7.057 24.053 3.759 4.485 8.003 11.631 12.73 16.995 10.553s7.3-8.003 4.002-18.974c-1.143-3.694-2.331-7.365-3.451-11.125-1.759-5.827.725-16.028 4.727-16.731 2.265-.396 4.836-.615 7.475-.615 1.583 0 3.122.088 4.639.241l-.198-.022c5.782 0 4.55 4.881 6.002 8.003 2.419 5.606 3.518 12.093 13.126 12.004 8.091.022 14.62 6.573 14.62 14.643 0 .352-.022.681-.043 1.011v-.045c0 .241-.022.484-.022.748 0 6.486 3.473 12.136 8.685 15.214l.088.045c3.056 2 6.75 3.188 10.795 3.188 9.893 0 18.095-7.277 19.501-16.775l.022-.11c.638-2.484 0-5.694.813-8.003 2.88-5.518 4.638-12.642 13.785-10.971 6.09 1.143 9.212-.638 9.937-8.003a13.36 13.36 0 0 1 13.368-12.752c2.507 0 4.881.703 6.881 1.891l-.066-.043c2.088 1.605 3.188 7.453 4.243 9.696l.066-.176zm-85.261 130.396c2.154 7.453-4.55 10.003-8.003 14.488-.88 1.187-1.847 3.935-1.516 4.155 4.199 2.77 9.059 5.43 14.138 7.739l.682.264c1.275.55 5.694-1.913 5.694-3.122.264-3.804.374-8.201.374-12.642s-.154-8.861-.417-13.257l.022.593c0-1.187-4.331-2-6.552-2.968-.725-2.55-1.802-4.793-3.188-6.793l.043.088c-1.055-1.055-3.782 0-5.694-.725s-4.331-1.693-6.485-2.484l4.881-2.88c9.3-5.365 9.3-5.365 1.363-13.28l-7.057-6.969a5.33 5.33 0 0 0-4.266-2.111 5.394 5.394 0 0 0-5.188 3.914v.043c-1.451 5.188-12.575 11.433 0 16.798.725 0 .813 4.727 0 4.881-12.663 5.188-4.485 13.059-1.913 19.127s6.728 7.057 13.543 1.363c3.21-1.604 6.42-4.089 9.541-6.244v.022zm40.784-39.376-1.363-1.451c1.055-1.605 3.452-3.847 2.968-4.815-3.188-8.003-10.795-10.553-17.94-13.433-.725 0-3.518 2.154-3.606 3.364v25.855c0 6.881 2.968 3.056 5.453 1.275a40 40 0 0 1 4.464-2.528l.264-.11c0 1.759 1.516 4.243.813 5.277-3.144 4.155 0 4.419 2.638 6.244 5.848 3.451 8.75 7.453-1.759 8.003-1.144 0-3.277 4.638-2.814 5.211 4.903 5.739 9.85 10.993 15.06 15.94l.088.088a6.1 6.1 0 0 0 3.539 1.121q.923 0 1.781-.264l-.043.022c4.815-1.516 10.575-17.94 7.123-21.524-2.243-2.309-6.661-3.144-2.155-6.332 7.212-5.188 1.604-10.091.968-15.434-1.693-11.433-10.025-5.277-15.456-6.485l-.022-.022zm-29.109-4.243v-5.937c0-11.278-.968-11.609-10.334-6.398-14.269 8.003-14.357 8.421-2.968 19.523a27.6 27.6 0 0 0 4.111 4.045l.066.043a51 51 0 0 0 6.2 3.056l.352.131c.989-1.935 1.802-4.177 2.352-6.507l.043-.198c.176-1.385.264-3.012.264-4.639 0-1.011-.043-2.023-.11-3.012v.131l.022-.241zm10.113 40.828a11.8 11.8 0 0 0-1.187 3.606v17.83c0 2.88 1.275 7.277 3.144 8.003.615.132 1.32.22 2.045.22 2.528 0 4.836-.946 6.595-2.462h-.022c3.056-2.727 9.607-5.453 6.09-10.642-4.617-5.761-9.541-10.861-14.929-15.478l-.154-.132a5.4 5.4 0 0 0-1.561-.946l-.043-.022.022.022z"/><path d="m176.155 119.231-3.606 2.243 2.243-3.694zm-36.869 35.374"/></svg>