<svg xmlns="http://www.w3.org/2000/svg" xml:space="preserve" fill-rule="evenodd" stroke-linejoin="round" stroke-miterlimit="2" clip-rule="evenodd" viewBox="0 0 300 300"><path fill-rule="nonzero" d="M111.988 209.077c-5.491 3.196-11.668 4.611-13.471 7.829-7.85 15.636-26.404 18.382-36.893 30.673 0 .537-2.488.386-3.131 0a4.08 4.08 0 0 1-1.03-2.681c0-.258.021-.537.086-.793v.021c6.156-15.401 15.657-28.313 27.669-38.373l.15-.129c11.754-8.923 11.754-9.395 4.697-21.836a67.8 67.8 0 0 1-5.791-13.255l-.15-.493c-3.281-10.103-6.027-11.111-13.621-3.067-3.067 3.196-3.904 4.376-6.177 0-3.754-7.057-8.537-7.829-13.492-1.243s-8.3 4.226-14.414.708c-7.378-3.518-16.86-7.315-26.555-10.638l-2.102-.622c-5.555-2.488-5.706-7.829 0-10.103 11.132-4.847 22.714-8.837 34.297-12.763a7.8 7.8 0 0 1 7.036 1.803c5.555 7.829 10.811 6.435 14.951-.472s4.397-2.831 7.271.472c5.812 6.564 6.97 6.177 10.511-1.159 2.123-4.611 3.754-9.545 6.112-14.092 6.885-13.298 6.262-14.542-6.112-24.646-10.574-9.159-18.79-20.72-23.872-33.847l-.193-.579a3.6 3.6 0 0 1-.064-.729c0-1.03.364-1.952 1.008-2.66a3.1 3.1 0 0 1 1.566-.429c.579 0 1.116.172 1.588.429h-.021c12.141 10.725 29.75 14.8 37.279 31.294 2.896 6.564 9.48 6.112 15.659 3.754s10.338-5.019 15.659-7.443c5.319-2.423 12.055-5.791 4.076-13.471-1.566-1.566-.793-5.791-.536-8.773s2.188-5.469 1.416-7.829c-7.829-18.468 4.934-33.311 8.537-49.763 0-1.651 2.488-4.376 3.067-4.161 2.188.622 5.019 1.802 5.812 3.604 5.084 11.818 9.716 23.487 14.327 35.842.386.793.6 1.716.6 2.702s-.236 1.909-.6 2.746l.021-.042c-5.319 6.499-9.953 12.526 0 19.175.708.472 0 5.234-1.566 6.649-6.52 6.435-3.754 9.845 3.304 12.291 3.067 1.03 6.264 1.651 9.223 2.831 4.526 2.552 9.738 4.611 15.251 5.941l.429.086c7.85.536 6.52-8.687 10.188-12.055 7.786-6.328 16.516-12.484 25.589-18.145l1.116-.643a32 32 0 0 1 3.196-1.888l9.953-4.461c-1.243 3.131-2.338 6.349-3.754 9.395-5.748 13.363-14.521 24.473-25.502 32.882l-.193.15c-3.689 1.909-6.135 5.662-6.135 10.038 0 2.531.837 4.869 2.252 6.757l-.021-.021c2.08 4.355 4.205 9.695 5.985 15.207l.279.966c2.746 6.177 5.706 12.591 13.234 4.076a4.96 4.96 0 0 1 3.346-1.716h.021c6.027 0 9.932 12.591 17.695 3.604s13.234-.943 19.583 0c7.679 1.93 14.327 4.332 20.655 7.336l-.687-.3c2.188.858 6.027 2.896 5.856 3.668a12.76 12.76 0 0 1-4.226 7.808l-.021.021c-3.754 1.93-8.429 3.947-13.255 5.706l-.943.3c-5.213 2.145-9.653 4.569-13.792 7.443l.258-.172c-5.169 3.99-8.623 4.848-12.076-1.867s-7.85-7.829-11.668-1.008c-4.226 7.829-7.057 3.904-11.347.537-8.623-6.821-10.811-5.856-13.706 5.105-.751 3.754-1.566 6.907-2.51 9.953l.172-.643a15.6 15.6 0 0 0-1.845 7.336 15.64 15.64 0 0 0 8.473 13.9l.086.042c9.137 6.22 16.022 15.143 19.561 25.632l.107.343c1.501 4.397 9.953 6.885 4.484 12.441-1.116 1.158-8.623-3.454-12.848-6.027-11.539-6.327-21.234-14.65-28.891-24.581l-.172-.214c-3.281-4.784-6.885-6.027-12.912-1.867-6.691 3.99-14.629 7.936-22.864 11.347l-1.266.45c-5.406 2.746-6.67 7.829-.472 9.63 9.845 3.196 5.791 6.564.793 9.48s-5.941 7.829-2.273 10.939c5.941 5.791 4.075 11.175 1.801 17.46-3.281 9.073-5.62 18.382-9.009 27.39-1.008 2.573-4.461 4.311-6.735 6.435-1.867-2.123-4.611-3.904-5.641-6.435-4.461-11.433-8.515-22.908-12.462-34.512a8.5 8.5 0 0 1-.258-2.038c0-1.609.472-3.11 1.309-4.332l-.021.021c5.813-6.349 5.405-10.961-2.038-15.659-4.697-2.896-7.271-6.499 1.159-8.452a12.8 12.8 0 0 0 6.262-3.904l.021-.021c.837-.858.708-4.376 0-4.697-8.837-3.454-17.009-6.97-25.696-10.961v.064zm13.192-25.975v3.904c-.708 6.499 4.376 6.241 8.473 7.829 6.435 3.046 5.856-2.896 7.85-5.234s.793-3.754 1.651-5.491c1.566-2.96 3.518-5.791 5.255-8.773a42 42 0 0 1 7.743 7.721l.064.107c1.501 2.659.858 6.414 1.867 9.395.793 1.759 2.338 3.067 4.182 3.604h.042c.258.021.558.021.858.021 7.249 0 13.17-5.877 13.17-13.148 0-1.008-.107-1.995-.321-2.917l.021.086c-1.867-7.829 0-9.845 7.207-7.121s9.717-3.904 11.754-8.923c2.038-5.019-2.488-6.027-6.027-7.185a20.8 20.8 0 0 1-5.598-1.759l.129.064c-3.839-2.423-5.319-5.706-1.158-9.159 1.867-1.222 4.075-2.467 6.349-3.604l.386-.172c3.518-2.123 7.85-3.067 5.169-9.545s-2.488-12.205-10.811-9.159c-6.027 2.252-8.473.536-9.158-5.319a41.6 41.6 0 0 0-1.867-11.647l.086.3c-1.158-2.981-3.99-5.062-7.315-5.062a7.83 7.83 0 0 0-6.993 4.311l-.021.043c-1.243 2.123-.943 5.169-2.123 7.357-1.888 3.668-4.484 6.949-6.735 10.488-2.123-3.668-4.397-7.186-6.349-10.961-.536-1.093 0-2.981-.536-3.754-1.951-2.338-4.484-6.156-6.435-6.027a15.66 15.66 0 0 0-9.695 5.212l-.021.021c-1.716 2.123-1.159 6.112-1.501 9.309-.493 5.791-2.659 7.829-8.837 5.856-10.424-3.904-9.073 5.169-11.433 10.639-3.196 7.829 4.526 5.856 7.057 8.452 1.093 1.159 3.989 0 5.555 1.33a36.4 36.4 0 0 1 5.534 4.976l.021.021a51 51 0 0 1-5.063 3.797l-.193.107c-1.845 1.03-4.139 2.08-6.499 3.046l-.472.15c-7.85 3.454-5.405 9.309-3.196 14.714s4.484 9.845 11.347 6.499c6.885-3.346 10.424-3.281 6.67 5.555l-.086.042z"/></svg>