<svg xmlns="http://www.w3.org/2000/svg" width="300" height="300" viewBox="0 0 300 300"><title>factions-death-flesh-eater-courts</title><path d="M299.991 167.897c-.403.703-.816 1.425-1.191 2.1-.206 0-.319.028-.403 0-.881-.253-1.753-.516-2.644-.769-.159.834-.459 1.678-.459 2.513 0 4.772.262 9.544.066 14.297-.366 8.597-3 16.744-5.362 24.947-2.775 9.675-5.887 19.2-10.153 28.331-1.341 2.841-2.906 5.437-5.184 7.603-3.337 3.169-6.684 6.356-10.041 9.516-.366.337-.788.619-1.181.928a21 21 0 0 0-.45-.234c1.256-4.509 2.184-9.15 3.891-13.481 1.688-4.322 2.278-8.7 2.203-13.209-.141-8.231-2.109-16.069-5.597-23.494-.722-1.547-1.725-3-2.859-4.275-.572-.638-1.744-1.097-2.606-1.05-1.65.075-3.291.534-4.912.919-1.922.45-3.863.862-5.728 1.481-1.388.459-2.841 1.031-3.994 1.912-1.95 1.481-3.722 3.206-5.512 4.903-.75.703-1.472 1.509-2.016 2.372-2.147 3.403-4.191 6.891-6.366 10.284-.619.956-1.538 1.706-2.316 2.541a23 23 0 0 1-.75-.206c-.103-.891-.469-1.875-.253-2.672.497-1.791 1.144-3.6 1.988-5.259 2.944-5.709 6-11.391 9.056-17.044.769-1.425.694-2.709-.056-4.153a98 98 0 0 1-3.3-7.116c-2.269-5.362-6.45-8.794-11.372-11.503-1.284-.703-2.644-1.256-3.947-1.95-3.994-2.138-7.866-1.725-11.625.572-1.781 1.088-3.553 1.388-5.494.356-1.097-.591-1.294-1.341-.966-2.447.234-.787.488-1.641.431-2.438-.234-3.759-.431-7.537-.947-11.259-.403-2.934-1.153-5.841-1.922-8.719a7.1 7.1 0 0 0-1.688-2.963c-2.672-2.803-3.516-6.188-3.6-9.909-.122-4.65-.422-9.3-.591-13.959-.066-1.941-.572-3.487-2.344-4.622-1.659-1.078-2.175-2.841-1.969-4.416 1.284-.328 2.306-.703 3.356-.825.666-.075 1.387.206 2.081.356 1.294.272 2.597.769 3.909.816 4.444.131 8.897.122 13.341.159.572 0 1.162-.066 1.725.056 3.009.6 4.519-.881 5.644-3.525 1.688-3.956 2.803-7.969 2.841-12.291.056-5.766.291-11.522.328-17.287.056-7.884-1.416-15.384-5.691-22.2-1.688-2.7-2.972-5.644-4.481-8.466-1.125-2.119-1.059-4.219-.009-6.319 1.453-2.925 3.647-5.1 6.6-6.469 1.659-.788 2.897-.328 3.469 1.406.3.928.328 1.95.403 2.934.253 3.516 1.847 5.428 5.184 6.356.928.262 1.838.769 2.634 1.322 5.569 3.816 10.941 7.941 16.697 11.438 8.606 5.231 16.041 11.803 22.594 19.312 3.797 4.35 6.844 9.384 9.984 14.259 2.316 3.6 4.228 7.472 6.394 11.175 3.356 5.756 5.128 12.131 7.284 18.347 3.975 11.456 6.666 23.203 7.556 35.325.038.562.197 1.125.3 1.678v4.022zm-23.757-58.106c-.169.075-.338.169-.525.253.188.656.338 1.322.534 1.978 1.575 5.034 3.45 9.994 4.641 15.113 1.903 8.109 2.344 16.547 5.606 24.347.075.188.038.422.038.628-.028 12.947-.066 25.884-.103 38.822v1.387c.45-.319.6-.628.656-.966.684-4.341 1.341-8.672 2.044-13.013.253-1.481 1.012-2.944.947-4.406-.403-7.884-.684-15.816-1.584-23.663-1.509-13.078-5.372-25.566-10.481-37.669-.422-1.013-1.181-1.875-1.772-2.803zm-31.04-16.81c.206 1.05.356 2.006.6 2.925.853 3.066 1.988 6.094 2.597 9.216 2.381 12.384 3.197 24.919 3.141 37.5-.028 4.809-.431 9.628-.572 14.438-.038 1.162.262 2.344.403 3.516 1.884-1.969 2.362-4.228 2.344-6.525-.009-8.428.103-16.866-.319-25.266-.431-8.728-1.481-17.428-2.175-26.138-.328-4.022-3.159-6.591-5.316-9.553-.075-.075-.3-.056-.703-.103zM38.972 260.044c-3.6-3.497-7.078-7.144-10.847-10.444-3.459-3.028-6.197-6.459-8.137-10.631-3.581-7.688-7.219-15.356-9.356-23.597a548 548 0 0 1-5.344-22.903c-.553-2.634-.562-5.409-.562-8.137 0-4.444.206-8.897.338-13.341.056-1.884-.272-2.166-2.081-1.641-1.978.572-3.103-.234-2.963-2.447.159-2.606.563-5.203.947-7.781 2.269-15.581 6.534-30.6 13.172-44.869 4.144-8.906 9.544-17.063 15.844-24.638 6.525-7.847 13.641-15.047 22.013-20.953 6.797-4.809 13.453-9.816 20.203-14.672 1.181-.853 2.494-1.537 3.797-2.184 1.162-.591 1.744-1.444 1.706-2.737-.009-.319-.037-.628-.009-.947.234-2.053.928-2.475 2.925-1.941 3.206.862 5.034 3.141 6.516 5.934 1.116 2.081 1.556 4.022.328 6.216-1.491 2.634-2.775 5.381-4.341 7.978-2.475 4.116-4.716 8.334-5.044 13.219-.459 6.731-.769 13.481-1.059 20.231-.094 2.081.169 4.181.188 6.272.037 4.838 1.969 9.056 4.219 13.172.263.469 1.05.956 1.575.928 3.337-.122 6.666-.422 10.012-.553 1.772-.066 3.591-.141 5.297.206 2.241.469 4.228.497 6.066-1.022.197-.169.45-.272.684-.394.094-.037.197-.037.403-.066.516 1.228.356 2.278-.731 3.141-.328.263-.666.497-1.013.75-2.1 1.556-2.053 1.847-.328 3.684.581.619 1.031 1.641.994 2.466-.234 5.859-.591 11.719-.984 17.569-.056.834-.356 1.884-.919 2.428-3.525 3.328-4.866 7.669-5.578 12.197-.637 4.078-.919 8.213-1.294 12.328a8 8 0 0 0 .159 2.494c.197.9.534 1.819-.422 2.4-.966.572-2.044 1.162-3.225.431-3.722-2.269-7.753-2.662-11.981-2.1-.356.056-.731.103-1.059.262-4.734 2.175-9.234 4.688-12.816 8.588-.563.619-1.078 1.313-1.425 2.053-1.613 3.403-3.234 6.797-4.65 10.284-.356.881-.206 2.231.225 3.094 2.569 5.203 5.4 10.303 7.931 15.516.984 2.044 1.547 4.313 2.1 6.525.188.731-.272 1.641-.45 2.466-.197.066-.384.131-.572.187-.591-.637-1.341-1.209-1.753-1.95-2.184-3.816-4.247-7.706-6.459-11.503-.431-.731-1.313-1.219-1.987-1.809-1.087-.947-2.381-1.744-3.253-2.859-1.669-2.166-3.722-3.403-6.384-3.928-2.512-.497-4.969-1.247-7.453-1.903-2.606-.684-5.034.197-6.225 2.625-4.997 10.088-7.978 20.653-6.291 31.997.788 5.259 2.925 10.125 6.6 14.156.197.225.506.534.469.759-.403 2.034 1.022 3.056 2.212 4.209.45.45.9.862 1.35 1.322 1.556 1.613 1.538 1.978-.206 3.3-.253.188-.487.394-.731.572-.094-.009-.197-.009-.3-.009zM24.309 111.825c-.825.759-1.603 1.153-1.884 1.781-1.359 2.991-2.869 5.934-3.844 9.056-3.253 10.416-6.084 20.963-7.884 31.734-.666 4.012-.919 8.128-.881 12.197.056 4.969.525 9.928.984 14.888.356 3.853.947 7.678 1.481 11.522.066.497.459.956.703 1.425.159-.066.319-.141.488-.206.028-.459.103-.928.066-1.387-.225-2.597-.722-5.203-.684-7.8.141-9.478.469-18.938.703-28.406.028-.769-.188-1.556-.122-2.334.075-.919.319-1.838.563-2.738.122-.431.553-.797.656-1.228.797-3.197 1.772-6.366 2.269-9.609 1.153-7.453 2.691-14.822 5.034-21.984.234-.722.656-1.387 1.031-2.053.769-1.359 1.706-2.662 1.313-4.847zm22.313 50.334c.197 0 .394.009.572.009.131-.684.356-1.359.356-2.053 0-4.753-.075-9.516-.075-14.269 0-10.481.497-20.925 2.306-31.266.9-5.184 2.278-10.303 3.45-15.431.122-.516.169-1.031.253-1.547q-.281-.143-.534-.272c-1.594 2.138-3.234 4.247-4.772 6.431-.328.469-.403 1.219-.366 1.819.262 3.694-.319 7.284-.919 10.903-.459 2.766-.328 5.634-.553 8.438-.431 5.316-1.022 10.612-1.35 15.938-.197 3.328-.159 6.684 0 10.013.141 3.169.553 6.328.919 9.487.066.628.469 1.209.722 1.809z"/><path d="M149.737 78.506c6.928-2.138 12.497 1.612 18.356 4.228 5.278 2.362 8.259 6.591 10.05 11.85 1.519 4.444 3.272 8.859 4.313 13.416a146 146 0 0 1 2.831 17.466c.459 4.491.197 9.066.159 13.613 0 .684-.356 1.491-.797 2.016-.984 1.125-1.444 2.147-.731 3.656a20.1 20.1 0 0 0 3.469 5.147c1.05 1.144 1.322 2.991 1.913 4.519.431 1.153.891 2.297 1.228 3.487.356 1.247.628 2.513.797 3.788.159 1.087.103 2.184.188 3.291.075 1.275.572 2.241 1.716 2.991 1.641 1.059 1.753 1.772 1.022 3.591-.787 1.95-1.847 3.591-3.919 4.472-.787.338-1.444 1.031-2.072 1.65-1.978 1.912-3.891 3.919-5.897 5.803-1.387 1.313-2.503 1.378-4.125.422-2.381-1.388-3.141-1.022-3.825 1.584-.816 3.075-1.341 6.356-2.794 9.122-1.209 2.278-.694 3.628.591 5.316.459.6 1.275 1.275.431 2.184-.891.966-2.766 1.444-3.563.628-1.416-1.444-2.869-1.819-4.809-1.219-2.203.684-3.853 1.922-4.781 3.994-1.884 4.209-3.516 8.503-3.788 13.172-.066 1.05-1.509 2.213-2.578 2.053-1.378-.206-1.622-1.294-1.35-2.381.928-3.6-.253-7.059-.628-10.575-.131-1.219-.881-1.988-2.241-1.922s-1.688.891-1.838 2.081c-.469 4.181-.834 8.344-.066 12.525.225 1.219-.253 2.081-1.406 2.466-1.284.403-1.791-.459-2.119-1.491-1.191-3.788-2.372-7.584-3.581-11.372-.666-2.1-1.875-3.825-3.563-5.259-.694-.591-1.247-.816-2.053-.234-1.809 1.313-3.666.928-5.475-.028-1.744-.919-2.334-2.447-2.138-4.35.075-.834.066-1.678.206-2.503.3-1.791-.009-3.459-1.087-4.913-.637-.862-.637-1.509.169-2.306 1.575-1.538 1.453-2.494-.272-3.825-3.253-2.512-5.559-2.184-8.081 1.162-1.603 2.119-4.781 2.175-6.591.206a36 36 0 0 0-3.619-3.431c-2.766-2.241-4.209-5.128-4.584-8.634a144 144 0 0 0-1.031-7.781c-.103-.628-.497-1.247-.891-1.781-1.359-1.856-1.378-3.188.122-4.941.403-.469.834-.966 1.35-1.313 2.203-1.472 3.394-3.591 4.35-5.991.628-1.556.459-2.925-.188-4.378-.206-.487-.356-1.209-.159-1.65 1.209-2.775 2.437-5.559 3.797-8.259.731-1.444.581-2.578.009-4.116-.984-2.672-1.481-5.531-1.987-8.344-.881-4.8.919-9.159 2.363-13.603.694-2.166.966-4.453 1.444-6.694.141-.656.197-1.35.469-1.95 1.519-3.45 3.056-6.881 4.669-10.284 1.678-3.534 4.144-6.272 7.612-8.297 5.241-3.028 10.697-5.513 16.416-7.406a6.4 6.4 0 0 1 1.678-.328c2.316-.141 4.622-.234 6.919-.356zm-24.974 98.944c5.1-.366 10.144-.816 14.034-4.819 1.406-1.453 1.819-2.203.769-3.928-.563-.947-1.425-1.969-2.381-2.362-5.034-2.016-10.059-4.088-15.591-4.547-2.1-.169-4.163-.881-6.197-1.491-1.059-.328-1.837-.262-2.447.666-.816 1.219-1.678 2.4-2.381 3.666-.234.422-.3 1.228-.056 1.603 1.716 2.606 3.338 5.334 5.381 7.669 2.269 2.578 5.362 3.759 8.869 3.553zm57.168-20.822c-.234-.075-.356-.159-.431-.141-6.759 1.716-13.894 2.138-20.203 5.503-.187.094-.403.234-.572.206-2.513-.487-3.928 1.341-5.578 2.644-.834.666-.9 1.256-.038 2.044a5.14 5.14 0 0 1 1.359 2.034c1.35 4.013 6.3 6.75 10.416 5.634 2.672-.722 5.4-1.35 7.978-2.316 1.556-.591 3.197-1.481 4.294-2.7 1.491-1.641 2.597-3.666 3.666-5.634.431-.816.572-1.95.422-2.869-.272-1.537-.881-3-1.313-4.406zm-24.403 35.213c-.816-1.05-1.781-2.034-2.447-3.197s-1.031-2.503-1.538-3.759a.7.7 0 0 0-.169-.262c-1.622-1.313-1.809-3.225-2.138-5.072-.253-1.387-.431-2.803-.797-4.153-.141-.534-.834-1.444-1.031-1.378-.722.225-1.613.638-1.913 1.247-.422.834-.459 1.922-.469 2.906-.028 1.941-.666 3.591-1.547 5.316-1.181 2.306-1.969 4.838-2.672 7.322-.469 1.641 0 2.1 1.669 2.241 1.341.103 2.559.188 3.759 1.097 1.247.956 8.063-.928 9.3-2.316z"/><path d="M162.797 245.784c-1.209-.562-1.875-.862-2.409-1.125 0-4.753.038-9.45-.028-14.128-.009-1.05-.431-2.109-.666-3.159-.056-.253-.206-.497-.206-.75.075-4.472-.028-8.963.366-13.416.159-1.884 1.191-3.778 2.119-5.503 1.322-2.438 2.625-2.672 5.897-1.537 1.988.694 3.159 2.531 2.859 4.678-.487 3.403-1.012 6.797-1.537 10.209-.009.056-.009.103-.028.159-2.1 8.137-4.209 16.247-6.366 24.572zM137.119 213.431l-.656 5.175c-1.022 7.912-.656 15.872-.947 23.812-.009.469.159 1.078-.075 1.378-.431.563-1.078 1.275-1.678 1.322-.534.037-1.481-.6-1.678-1.144-3.731-10.275-4.228-21.028-4.472-31.8-.037-1.781 1.678-3.459 3.844-4.031 1.922-.516 3.075-.066 4.163 1.856.694 1.209 1.125 2.559 1.491 3.431z"/></svg>