<svg xmlns="http://www.w3.org/2000/svg" xml:space="preserve" fill-rule="evenodd" stroke-linejoin="round" stroke-miterlimit="2" clip-rule="evenodd" viewBox="0 0 300 300"><path fill-rule="nonzero" d="M220.453 120.366v8.044c-.234.891-.572 1.763-.656 2.672-.441 4.238-.872 8.494-1.162 12.75-.131 1.931.216 3.909.066 5.841a591 591 0 0 1-1.678 17.222c-.525 4.753-.966 9.553-1.931 14.231-1.247 6.047-2.916 12-4.566 17.944-.384 1.369-1.191 2.841-2.241 3.75-1.519 1.331-2.269 2.859-2.569 4.744-.178 1.228-.338 2.447-.422 3.675-.244 3.169-.891 6.216-2.55 8.991q-1.79 2.963-3.562 5.934c-1.069 1.809-2.409 2.362-4.294 1.5-2.55-1.162-4.838-.553-6.984.919-1.5 1.022-2.925 2.119-4.341 3.234-.459.375-.9.862-1.172 1.397-.581 1.144-1.453 1.584-2.653 1.303-1.378-.319-1.603.272-1.444 1.481.206 1.519.45 3.084.319 4.594-.178 2.025-.656 4.022-1.088 6.009-.787 3.778-1.65 7.547-2.4 11.316-.141.712.066 1.481.103 2.231l.75.169c.384-.75.938-1.453 1.125-2.259.956-4.322 2.091-8.634 2.616-13.022.544-4.472 3.956-6.15 6.778-8.559 1.725 2.034 1.706 3.122.506 5.156-.928 1.575-1.922 3.262-2.269 5.016-.862 4.444-1.481 8.934-2.016 13.434-.675 5.569-1.997 10.856-5.709 15.234-1.997 2.363-4.125 4.603-6.216 6.9-.956 1.041-2.062 1.603-3.562 1.509-.713-.037-1.509.206-2.156.553-1.134.609-2.156 1.416-3.262 2.063-1.556.891-2.503 2.194-3.094 3.881-.816 2.278-1.659 4.547-2.709 6.731-1.481 3.084-4.434 3.891-7.387 2.128-1.856-1.106-3.647-2.334-5.4-3.6-1.069-.769-2.241-1.584-2.963-2.653-3.572-5.222-7.762-10.031-10.481-15.834-.516-1.097-1.537-1.95-2.137-3-.966-1.659-1.969-3.356-2.634-5.156-.928-2.541-1.556-5.184-2.306-7.791-.206-.731-.553-1.5-.506-2.222.112-1.453-.469-2.484-1.519-3.356-1.509-1.247-3.028-2.475-4.509-3.75-3.328-2.85-5.269-6.403-5.466-10.856-.141-3.291-1.369-6.197-3.309-8.831-.422-.572-1.003-1.294-.938-1.884.103-.994.675-1.922 1.031-2.887.675.338 1.416.572 1.987 1.022.834.675 1.509 1.556 2.362 2.231.675.525 1.444 1.003 2.259 1.238 1.341.384 2.156 1.134 2.409 2.503.619 3.234 1.275 6.459 1.828 9.694.3 1.744 1.106 2.672 2.897 2.859 0-.872.103-1.762-.028-2.616-.281-1.884-.694-3.741-1.031-5.625-.253-1.444.319-2.447 1.959-3.253 1.406 3.15 2.747 6.188 4.125 9.216.338.731.769 1.416 1.163 2.138q.239-.059.478-.103c.244-.656.506-1.303.722-1.969.834-2.578 1.434-5.269 2.541-7.734 1.369-3.028 1.163-5.109-1.369-7.284-2.222-1.922-4.509-3.778-6.628-5.813-1.575-1.509-3.366-2.428-5.372-3.206-3.638-1.416-7.528-2.606-10.659-4.8-3.084-2.156-6.328-3.769-9.619-5.437-.787-.403-1.575-1.538-1.65-2.4-.103-1.191.216-2.578.825-3.609 2.334-4.013 5.016-7.809 7.228-11.878 1.237-2.269 1.866-4.875 2.616-7.359.375-1.266-.178-2.278-1.716-2.85-1.106 3.572-2.747 6.741-5.991 9.009-.309-1.603-.619-3.206-.319-4.697 1.2-6.047 1.125-11.719-2.259-17.287-1.856-3.056-2.719-6.741-3.778-10.228-1.003-3.3-2.072-6.562-4.594-8.972-5.662-5.438-7.378-12.412-8.175-19.828-.759-7.041 1.509-13.444 4.266-19.697.975-2.222 2.428-4.322 3.994-6.188 2.381-2.841 4.922-5.578 7.669-8.072 3.263-2.963 2.709-5.662 1.003-8.522-.975-1.641-2.128-3.169-3.094-4.809-2.737-4.697-2.222-8.353 1.706-12.056 1.913-1.809 3.309-3.881 4.191-6.394.516-1.481 1.237-3 2.231-4.2 2.128-2.569 2.241-5.147.825-8.034-1.584-3.206-1.397-6.591-.628-9.975.216-.966.722-1.575 1.819-1.481 1.003.075 1.556.581 1.791 1.584.825 3.666 1.706 7.294 2.541 10.95.516 2.269.375 4.425-.591 6.628-.994 2.241-1.847 4.594-2.344 6.984-.731 3.534-1.509 6.928-4.219 9.591-.544.525-.834 1.819-.591 2.531.834 2.447 1.959 4.959 4.256 6.262 2.222 1.266 3.872 3.019 5.672 4.678 1.144 1.059 1.847.928 2.409-.506 1.509-3.816 4.022-6.797 7.322-9.178 3.394-2.447 3.919-4.809 1.959-8.522-1.331-2.503-2.709-4.978-3.872-7.556-2.222-4.922-2.138-9.563 1.922-13.678 1.547-1.575 2.297-3.516 2.644-5.775.478-3.131 1.444-6.197 2.194-9.3.347-1.397.797-2.775 1.041-4.191 1.275-7.725 2.484-15.459 3.741-23.184.141-.891.197-1.959 1.472-2.025 1.2-.066 1.997.553 2.203 1.716.375 2.156.928 4.331.938 6.497.037 6.591.469 13.237-1.266 19.688-1.191 4.434-1.331 8.822-.347 13.294.713 3.234.853 6.413-1.144 9.375-.338.506-.141 1.584.159 2.259.544 1.209 1.313 2.334 2.025 3.469 3.328 5.325 3.825 11.203 3.403 17.278-.066.834-.009 1.688-.009 2.531.169.094.338.178.506.272.609-.375 1.303-.647 1.791-1.134 2.447-2.409 4.219-2.381 6.469.141.413.469.769.994 1.275 1.341.656.45 1.416 1.041 2.137 1.059 3.684.009 6.328 1.847 8.55 4.566 2.606 3.197 4.434 6.694 4.434 10.931 0 1.584.75 2.269 2.428 2.541 1.369.216 2.719 1.106 3.881 1.959 1.088.797 1.922 1.931 3.066 3.131 0-1.275.141-2.297-.028-3.263-.45-2.531-.834-5.109-1.622-7.547-1.847-5.709-1.266-11.194 1.266-16.519.3-.628 1.069-1.331 1.725-1.453 2.194-.422 2.747-.713 3.066-2.953.347-2.381.525-4.809.675-7.219.103-1.744.572-3.263 2.1-4.238 1.125-.712 2.297-.412 2.616.816 1.162 4.397 3.15 8.691 1.781 13.434-.066.244-.038.516-.028.769.169 3.272.338 6.553.516 9.825.338 6.431.675 12.862.994 19.284.028.469-.009.928-.075 1.378-.244 2.025-.516 4.05-.769 6.075-.197 1.519-.253 3.084-.581 4.575-.478 2.203-1.191 4.369-1.725 6.572-.966 3.919-.478 7.519 2.409 10.584.928.994 1.434.994 2.1-.131 1.266-2.128 2.55-4.228 3.769-6.394.309-.553.591-1.275.525-1.894-.375-3.684-.553-7.425-1.369-11.025-.938-4.181-.731-8.081.675-12.122 1.059-3.019 1.641-6.216 2.203-9.375.525-2.981.694-6.019 1.134-9.009.319-2.128 1.294-4.256 1.191-6.328-.234-4.406-.938-8.803-1.556-13.191-.3-2.128-1.613-3.675-3.497-4.641-2.681-1.35-4.397-3.534-4.941-6.366-.628-3.272-1.059-6.609-1.134-9.938-.094-3.75 1.106-7.256 3.75-10.041 1.959-2.063 2.541-4.434 2.119-7.116-.347-2.175-.759-4.369-1.313-6.497-1.059-4.022-1.753-8.063-1.031-12.225.178-1.059.506-1.959 1.725-2.016 1.162-.047 1.744.656 1.997 1.753.572 2.344 1.106 4.716 1.809 7.031 1.781 5.972 3.647 11.916 5.456 17.869.694 2.297.619 4.547-.319 6.806-.347.825-.403 1.809-.441 2.719-.197 4.772.609 9.581-.478 14.325-.09.407-.07.831.056 1.228.713 2.194 1.509 4.359 2.203 6.553s1.95 4.425 1.856 6.6c-.216 5.166-.759 10.378-1.781 15.459-.919 4.631-.872 8.925 1.022 13.275 1.041 2.381 1.659 4.95 2.372 7.481.384 1.378.422 2.859.853 4.228.919 2.963 1.125 5.972.872 9.028-.413 5.156-.422 5.166 3.806 8.062.591.403 1.247.713 2.128 1.209.441-4.509.347-8.531-1.266-12.394-1.313-3.169-1.931-6.497-1.069-9.825.787-3.019 1.997-5.934 3.122-8.859.928-2.409 1.434-4.744 1.331-7.453-.178-4.753 1.509-6.188 5.672-4.678.197.066.384.141.591.169 1.2.131 1.716.731 1.584 1.959-.075.713 0 1.444.066 2.166.459 4.809.45 9.563-.984 14.25-.197.628-.206 1.313-.338 1.969-.759 3.872 1.069 7.172 2.166 10.622zM111.15 99.956c-.581.525-1.069.9-1.481 1.341-3.816 4.05-7.631 8.1-11.419 12.169-3.534 3.806-5.372 8.531-5.213 13.5.178 5.625 1.134 11.297 2.438 16.791 1.856 7.847 4.706 15.459 5.803 23.503.075.591.403 1.144.609 1.725.206-.028.413-.066.628-.094 0-2.438.113-4.884-.028-7.313-.159-2.513-.713-5.006-.816-7.519-.169-3.769-.713-7.35-3.056-10.491-1.341-1.781-1.397-3.825-.591-5.878.384-1.003.928-1.969 1.172-3.019.216-.919.347-1.959.113-2.85-.759-2.925-.047-5.297 2.616-6.881 1.922-1.144 4.031-1.959 6.188-2.981.253 2.634-.309 4.744-2.484 6.197-.966.647-1.2 1.275-.619 2.447.441.881.506 2.063.366 3.056-.244 1.613-.853 3.169-1.2 4.781-.178.834.141 1.725 1.106 1.641.581-.047 1.406-.684 1.584-1.238 1.303-3.891 2.428-7.838 3.684-11.747.797-2.475 2.138-4.641 3.928-6.572.628-.684 1.059-2.016.881-2.916-1.059-5.4-2.306-10.763-3.506-16.125-.159-.487-.441-.928-.713-1.538zm63.431 116.203c1.847 0 3.159-.694 4.875-2.175 2.409-2.091 4.706-4.388 7.397-6.047 4.509-2.784 6.844-7.144 9.206-11.522.206-.384-.216-1.603-.553-1.706-2.222-.609-4.538-1.575-6.741-1.378-4.65.412-9.281 1.313-13.153 4.341-1.041.825-2.297 1.397-3.338 2.222-.609.478-1.172 1.162-1.434 1.856-.966 2.606-2.438 4.856-4.369 6.844-.647.656-1.369 1.266-1.95 1.988-1.209 1.537-.919 2.409.956 3 2.55.797 5.109 1.556 7.669 2.325.544.159 1.125.206 1.434.253zm-41.419-1.968c.028.131.047.253.094.375 2.925-.759 5.85-1.5 8.766-2.269 1.912-.516 2.072-1.022.647-2.4-2.297-2.203-4.903-4.134-6.975-6.525-1.988-2.278-4.359-3.375-7.134-4.256-1.894-.609-3.619-1.819-5.353-2.897-1.397-.872-2.606-2.025-3.984-2.916-1.406-.919-2.034-.572-2.297 1.069-.253 1.678-.628 3.338-.787 5.025-.319 3.722.713 7.088 3.413 9.684 3.769 3.609 8.372 5.259 13.603 5.109zm25.575 13.584c.244-.075.478-.141.722-.216-1.125-2.859-2.222-5.737-3.431-8.559-.113-.272-1.341-.478-1.509-.253-1.228 1.481-2.813 2.925-3.309 4.669-1.059 3.581-1.575 7.331-2.175 11.034-.506 3.056 1.331 6.347 4.078 7.688 1.641.797 2.053.572 2.794-1.097.347-.787.919-1.753 1.622-2.034 2.588-1.069 3.413-2.55 2.672-5.259-.553-1.969-.984-3.975-1.453-5.953zm-9.206 60.919c.216-.853.403-1.313.469-1.809.403-2.916.797-5.813 1.162-8.728.141-1.125.516-2.372.178-3.356-1.106-3.234-.169-6.019 1.209-8.897.647-1.331.966-2.925 1.003-4.406.075-3.956-.056-7.931-.169-11.888-.009-.581-.338-1.434-.759-1.622-.459-.206-1.313.066-1.791.403-1.069.769-1.341 1.931-1.331 3.272.009 1.575.244 3.413-.478 4.65-1.509 2.578-2.128 5.184-1.912 8.081.422 5.494.863 10.988 1.275 16.491.047.712.216 1.575-.094 2.128-1.163 2.119.009 3.638 1.228 5.672zm19.247-39.141c-.178-.103-.375-.206-.553-.309-.938 1.097-1.969 2.138-2.794 3.328-.928 1.341-1.828 2.325-3.647 1.481-.75-.338-1.097.103-.9.994.516 2.447.994 4.903 1.406 7.359.375 2.231-.169 4.294-1.472 6.15-1.688 2.409-2.606 5.119-3.122 7.978-.197 1.069-.253 2.166-.384 3.253.169.094.338.197.506.281.731-.816 1.434-1.678 2.222-2.447.9-.891 1.762-1.988 2.859-2.503 2.428-1.144 3.534-2.925 3.722-5.541.347-4.716.769-9.422 1.247-14.147.216-1.959.609-3.909.919-5.878zm-31.65-6.225c-.216.591-.403.9-.441 1.228-.422 4.134-.881 8.259-1.191 12.403-.047.75.319 1.65.769 2.278 2.466 3.459 4.65 7.031 6.009 11.091.141.441.553.787.853 1.172.281-1.003.197-1.809.131-2.616-.366-3.947-.891-7.875-1.041-11.822-.141-3.609-.347-7.078-2.887-9.966-.563-.647-.834-1.519-1.275-2.278-.234-.441-.516-.834-.928-1.481zm.994-57.834c.197-.141.384-.281.563-.441-.178-.506-.253-1.069-.544-1.5a634 634 0 0 0-5.606-8.259c-1.931-2.841-3.881-5.662-5.803-8.513-.544-.816-1.022-1.678-1.519-2.531-.197.038-.375.075-.563.103-.272 1.678-.797 3.375-.731 5.044.066 1.65.722 3.272 1.191 4.903.131.441.422.872.759 1.191.937.863 1.95 1.659 2.944 2.466 3.122 2.531 6.225 5.025 9.319 7.547z"/><path fill-rule="nonzero" d="M156.403.009c1.819 1.313 2.241 3.403 2.363 5.334.319 5.391.422 10.8.412 16.191 0 1.659-.75 3.3-1.022 4.978-.253 1.556-.647 3.188-.441 4.716.928 7.219 2.325 14.353 5.888 20.822.544.975 1.125 2.1 2.016 2.691 5.766 3.825 4.95 15.263-.478 19.819-4.191 3.506-9 3.675-13.65.788-2.325-1.444-2.859-3.413-3.403-5.672-.525-2.241-.028-4.284 1.144-6.197 1.866-3.084 1.641-3.778-.553-6.703-2.737-3.675-5.231-7.519-7.706-11.372-1.228-1.913-1.556-4.134-1.369-6.394.441-5.091 2.203-9.563 5.972-13.2 1.809-1.753 3.506-3.647 5.006-5.672.787-1.059 1.238-2.466 1.472-3.788.834-4.547 1.453-9.141 2.297-13.706.169-.928.956-1.744 1.453-2.616.197-.009.403-.009.609-.009z"/></svg>