<svg xmlns="http://www.w3.org/2000/svg" width="300" height="300" viewBox="0 0 300 300"><title>factions-order-bladeborn-the-farstriders</title><path d="M100.505 125.966c-.2 1.507-.301 3.265-.301 5.024 0 12.675 5.592 24.079 14.416 31.848l.05.05c4.856 4.085 7.92 10.164 7.92 16.978a21.96 21.96 0 0 1-3.667 12.206l.05-.083c-4.806 7.82-4.052 22.889-20.629 17.598-1.239-.368-3.751 3.081-5.543 4.873s-4.186 4.253-6.145 6.145c.687-2.78 1.339-5.592 2.16-8.372a91 91 0 0 1 3.717-12.073l-.2.62c1.105-2.579 3.198-6.966 4.622-6.899 11.955.804 10.968-7.451 10.414-14.584-.687-8.925-8.439-13.546-15.707-8.305-11.822 8.606-25.25 6.513-38.077 8.606-.301 0-1.792-2.964-1.406-3.333a352 352 0 0 1 15.22-15.186c.871-.871 3.499-1.473 3.952-.988 11.269 12.693 13.496-2.645 16.761-6.697 4.505-5.525 0-13.245-10.348-16.812-7.535-2.277-16.945-4.42-26.556-5.978l-1.356-.184c-6.145-1.307-12.323-2.846-18.485-4.253 4.671-2.394 10.196-4.655 15.94-6.43l.754-.218c8.875-1.842 18-2.579 27.042-3.633s14.651-6.647 13.663-14.651c-1.105-9.41-6.162-12.307-16.075-12.307-5.893-1.172-11.085-3.6-15.472-6.998l.084.067c-2.16-1.339-3.131-4.672-4.638-7.083 2.109.838 4.638 1.54 7.216 1.992l.234.033c2.327 0 6.162 0 6.832-1.055 2.846-6.715 7.083-4.002 10.85-2.026s7.451 5.291 11.402 7.451c9.059 4.806 13.127 3.633 18.854-4.672 1.139-2.612 1.792-5.66 1.792-8.875a22.8 22.8 0 0 0-3.751-12.574l.05.084c-.721-.653-1.624-1.105-2.629-1.222h-.033c-3.566-.62-9.36 0-10.398-1.725-2.663-5.559-5.04-12.123-6.782-18.921l-.168-.77c0-.754.485-1.792.754-2.646.754.754 1.339 1.54 2.093 2.21 4.923 4.42 8.624 9.293 17.18 9.176 3.952 0 8.857 8.992 11.822 14.718s7.334 9.779 13.061 7.133c4.689-2.461 8.222-6.598 9.829-11.604l.033-.151c3.131-12.307 4.438-24.614 6.598-36.921.67-4.018 1.424-7.434 2.394-10.767l-.168.669a27 27 0 0 1 2.511-4.454l-.05.083c1.038 1.172 2.713 2.143 3.014 3.432 1.406 6.145 2.78 12.792 3.701 19.255.754 10.164 2.009 19.373 3.818 28.414l-.234-1.457c1.608 5.743 5.174 10.499 9.896 13.614l.101.05c5.426 2.947 10.23-1.172 12.877-7.267 1.339-3.131 6.162-5.174 6.664-8.138 1.239-8.489 6.53-9.091 13.061-8.606.234.034.503.05.77.05s.536-.016.787-.05h-.034l10.297-3.567c.988 4.873-6.664 19.691-10.951 19.39-12.323-.921-8.137 10.281-11.705 15.505-.921 1.339 1.658 6.648 3.952 8.188 5.057 3.432 10.097 7.267 17.246 2.16s15.589-13.596 25.2-2.528c.552.687 2.964.435 4.186 0 2.88-1.307 5.291-2.596 7.602-4.036l-.267.168c-2.026 2.645-3.499 6.145-6.162 7.752-5.491 3.315-9.729 9.293-18.485 6.513-2.579-.804-10.598 7.752-12.323 13.095-1.909 7.016 5.491 12.743 14.048 14.517 11.771 2.394 23.408 5.408 35.063 8.238a24.3 24.3 0 0 1 4.32 1.792l-.134-.067c-1.255.553-2.796 1.072-4.388 1.491l-.234.05c-9.863 2.093-19.707 3.818-29.436 6.145-5.224.737-9.913 2.579-13.982 5.307l.117-.084c-4.186 3.751-8.255 8.606-3.751 15.873 3.818 6.145 6.162 11.319 14.836 7.133a8.7 8.7 0 0 1 1.691-.168c2.127 0 4.069.77 5.592 2.026l-.016-.016a106 106 0 0 1 10.867 10.649l.101.117a94 94 0 0 1 5.442 6.648l.168.234c-1.942-1.072-4.404-2.244-6.915-3.315l-.536-.184c-1.859-.687-4.437-1.792-5.794-1.038-12.323 6.648-20.746-2.713-30.19-7.618-2.277-1.172-6.145-3.198-7.15-2.394-3.885 4.119-9.863 9.059-9.679 13.546s-1.909 16.543 11.57 14.584c2.394-.368 6.966 8.925 9.36 14.266 1.44 4.17 2.545 9.026 3.115 14.082l.034.319c-3.081-3.432-6.162-6.899-9.243-10.281a27.6 27.6 0 0 0-4.42-3.952l-.083-.05c-10.716 9.293-10.716-.804-13.362-7.016-2.077-3.834-4.253-7.15-6.697-10.23l.117.151a18.93 18.93 0 0 1-4.269-12.022c0-5.693 2.495-10.8 6.463-14.299l.016-.016c21.986-23.123 23.893-50.885 5.677-75.432-12.994-17.531-42.63-24.63-61.602-14.4-6.196 2.964-11.537 6.396-16.392 10.448l.134-.101c-14.534 13.663-15.036 15.756-15.036 38.947l-.117.067z"/><path d="M153.834 100.85h6.162l28.582 1.959c0 13.178.687 26.389.687 39.566 0 .687-3.432 2.16-5.107 1.959-23.592-3.131-24.63-1.909-25.2 22.471-.485 32.802-1.473 65.604-1.909 98.455.267 9.36 1.021 18.251 2.244 26.992l-.151-1.273c.435 4.002 2.528 8.372-4.136 8.925s-10.164-1.172-10.465-7.92c-.151-.921-.234-1.992-.234-3.081s.084-2.143.251-3.198l-.016.117c1.859-8.891 2.897-19.105 2.897-29.57 0-9.779-.921-19.339-2.695-28.6l.151.938c-.737-7.802-1.139-16.895-1.139-26.071 0-7.535.267-15.019.82-22.42l-.067.988c0-7.267 1.909-14.467 2.277-21.65.62-12.307-7.77-19.372-21.315-15.689-9.059 2.528-9.243-.368-8.992-7.133.435-11.152.687-22.337.988-33.555l36.083-3.198.285.988zM220.309 26.507l-.485 1.172-1.172-1.608.988-.687.669 1.121z"/></svg>