<svg xmlns="http://www.w3.org/2000/svg" width="300" height="300" viewBox="0 0 300 300"><title>factions-chaos-bladeborn-the-dread-pageant</title><path d="M57.878 199.74c1.721-26.738 4.103-53.333 21.314-75.991 1.98-2.664 1.274-7.357 1.886-11.106-2.83-.684-6.036-1.062-9.36-1.062-.755 0-1.485.023-2.216.07h.117c-5.211.99-9.855 2.735-14.075 5.163l.236-.117c-3.253 2.074-7.191 3.278-11.412 3.278a21.4 21.4 0 0 1-12.614-4.079l.07.047c-5.895-3.772-11.883-7.262-17.777-10.846 5.163-1.202 11.719-2.311 18.391-3.089l.872-.095h.424c15.514 0 28.6-10.516 32.467-24.804l.047-.236c1.226-3.56 1.957-7.663 1.957-11.906 0-12.779-6.413-24.026-16.222-30.745l-.142-.095-1.462-1.627C29.937 19.061 27.013 19.155 7.608 33.514a30 30 0 0 1-6.791 2.759l-.212.047c0-3.325-1.368-7.356 0-9.809C13.077 4.96 46.629-1.783 69.052 9.417 83.67 15.382 94.87 27.101 99.986 41.695l.117.377c2.027 5.848 3.206 12.567 3.206 19.57 0 7.898-1.485 15.443-4.196 22.376l.142-.424c-.848 2.146.684 5.305 1.109 7.946a28.8 28.8 0 0 0 7.379-3.206l-.117.07c16.882-14.948 37.702-25.888 60.666-31.123l.943-.189c34.235-5.895 69.036-6.673 101.645 9.478 2.476 1.274 3.679 4.951 5.47 7.521-3.23.848-7.357 3.42-9.478 2.216-23.366-12.473-45.765-6.814-69.72-.495-20.277 5.564-38.031 13.534-54.183 23.814l.802-.472a24.2 24.2 0 0 0-7.828 6.861l-.047.07c-1.815 2.735-3.584 7.451-2.405 9.478s6.484 6.814 9.596 6.484c6.626-.943 12.591-3.018 17.966-6.036l-.259.142c12.637-7.474 27.893-11.884 44.162-11.884s31.5 4.41 44.562 12.096l-.401-.236c22.942 11.365 40.059 31.618 46.92 56.115l.165.613c15.066 59.063-16.009 109.236-70.427 120.436-57.932 11.954-98.32-17.777-114.919-71.63-2.263-6.72-3.56-14.476-3.56-22.518a72.55 72.55 0 0 1 7.451-32.089l-.165.424c2.805-4.504 4.811-9.832 5.682-15.491l.023-.212c-.284-4.692-2.475-8.818-5.871-11.6l-.023-.023c-1.721-1.368-7.616 1.132-10.516 3.325-2.334 2.523-4.126 5.517-5.163 8.889l-.047.165c-15.75 35.721-23.271 72.125-11.295 111.123 2.027 7.805 3.82 17.401 4.975 27.185l.095 1.014c-7.357-7.38-13.887-15.632-19.334-24.545l-.33-.566c-9.337-18.32-14.76-39.964-14.76-62.883 0-1.462.023-2.9.07-4.338v.212h-.212zm213.9 0c1.109-36.262-35.344-66.49-68.47-66.773-30.792 0-66.655 36.663-66.82 67.504s37.136 69.579 68.447 67.881c33.622-1.721 68.706-31.807 66.725-68.494z"/><path d="M260.648 201.343v.636c0 30.393-24.662 55.055-55.102 55.055-.683 0-1.391-.023-2.074-.047h.095c-26.619.424-54.677-24.615-55.102-58.284 0-26.242 27.893-56.162 57.412-54.96s57.765 27.28 54.771 57.601z"/></svg>