<svg xmlns="http://www.w3.org/2000/svg" viewBox="0 0 300 300"><path d="M112.199 1.202c-1.478 1.549-1.821 2.522-2.687 7.606-.395 2.318-.926 4.812-1.182 5.543-1.398 4.012.992 12.585 3.933 14.107 1.496.773 2.696 2.758 2.747 4.54.095 3.359-2.001 5.007-14.875 11.7-5 2.599-8.62 4.728-11.954 7.029l-3.478 2.403c-12.384 8.56-15.527 9.912-20.646 8.881-3.989-.802-13.004-5.904-18.043-10.209-6.077-5.193-8.847-1.947-6.374 7.47 2.131 8.118 5.448 11.463 12.659 12.766 5.211.941 5.929 1.777 5.587 6.505-.221 3.047-2.353 7.465-6.297 13.044-1.356 1.918-3.59 6.953-4.3 9.69-.381 1.471-1.005 3.27-1.387 3.998s-1.036 2.497-1.455 3.931-1.08 3.587-1.468 4.782-1.376 4.325-2.194 6.956c-5.058 16.256-5.521 17.171-8.694 17.171-4.303 0-5.934-4.037-5.803-14.362.114-9.018-.198-10.023-2.784-8.967-1.358.555-1.642 1.084-4.937 9.201-.582 1.434-1.266 2.98-1.52 3.433-3.862 6.897-3.441 9.111 3.023 15.911 6.617 6.963 6.629 9.88.068 16.51-5.314 5.37-5.579 6.072-4.581 12.13 1.282 7.779 7.043 17.189 9.987 16.314 2.273-.676 2.375-1.125 1.992-8.873-.656-13.288 1.934-18.137 7.045-13.189 2.521 2.44 3.25 4.329 4.925 12.754.463 2.331 5.294 17.679 6.567 20.866 2.316 5.796 4.635 10.683 5.568 11.737 6.874 7.753 7.483 12.756 1.694 13.899-6.842 1.353-7.805 2.031-12.048 8.488-1.571 2.391-3.233 4.842-3.692 5.448-2.327 3.065-2.463 5.017-.427 6.107.699.374 8.337-2.605 10.15-3.96.239-.178 1.934-.733 3.768-1.231s5.181-1.782 7.438-2.851c7.528-3.565 9.313-3.174 21.397 4.683 1.674 1.088 5.097 3.129 7.607 4.536 4.753 2.662 9.592 5.748 11.085 7.068.478.422 2.556 1.814 4.616 3.091 7.445 4.616 10.846 7.094 11.098 8.086.456 1.798-.299 4.055-1.974 5.904-6.688 7.38-8.343 19.293-3.456 24.86 2.542 2.895 3.168 2.292 8.379-8.054 2.108-4.184 4.085-7.9 4.397-8.259s1.554-2.168 2.763-4.02c2.78-4.263 5.787-6.374 9.531-6.692 6.613-.562 6.083 2.565 6.197-36.497.101-34.353.177-32.901-1.75-33.572-1.223-.427-1.337-.356-2.541 1.587-1.774 2.857-7.201 12.647-7.851 14.16-.298.692-.939 1.769-1.426 2.391s-1.714 2.599-2.73 4.392c-9.551 16.879-12.832 18.558-20.815 10.65-1.246-1.235-3.853-3.524-5.795-5.086-7.142-5.749-17.179-16.757-22.314-24.473-2.018-3.032-5.238-8.364-5.238-8.672 0-.141-.526-1.084-1.169-2.095-1.175-1.849-4.432-9.281-5.665-12.924a47 47 0 0 0-1.461-3.695c-3.781-8.234-5.187-30.673-2.758-44.035.724-3.985 4.753-17.177 5.677-18.589.323-.493.858-1.799 1.19-2.903s1.019-2.589 1.526-3.301.921-1.46.921-1.663.685-1.332 1.522-2.509c.836-1.177 1.521-2.326 1.521-2.554 0-.597 2.392-4.538 4.141-6.823.823-1.075 2.294-3.088 3.269-4.472s2.656-3.536 3.735-4.782c15.567-17.976 18.868-20.004 24.003-14.754 3.935 4.025 12.864 16.171 14.932 20.313a682 682 0 0 0 2.532 4.999c1.499 2.924 1.879 7.787 1.031 13.183-.279 1.776-2.399 3.597-3.478 2.988-.613-.346-5.175-5.484-8.505-9.579-6.272-7.712-10.325-8.064-16.355-1.418-16.935 18.665-23.079 46.401-15.707 70.9 2.092 6.952 8.043 18.716 11.786 23.301 1.509 1.848 3.623 4.441 4.699 5.762 6.883 8.455 11.439 8.075 15.718-1.315.4-.877 1.096-1.793 1.548-2.034.45-.241 1.975-2.556 3.386-5.143 3.253-5.961 7.671-13.392 9.106-15.316.609-.816 1.107-1.716 1.107-2s.545-1.28 1.211-2.212c1.027-1.436 2.88-4.503 7.066-11.693.963-1.654 3.1-7.041 4.139-10.433 1.004-3.277 1.113-12.323.244-20.214-.593-5.389-.572-13.407.211-76.943.221-17.942-.1-18.963-6.781-21.517-4.243-1.621-4.739-2.293-11.834-16.032-1.126-2.181-2.055-4.165-2.065-4.408s-.475-1.124-1.034-1.957-1.344-2.485-1.744-3.671c-.633-1.879-2.986-5.015-3.763-5.015-.147 0-.781.538-1.408 1.195zm75.604.017c-1.216.155-2.858 2.676-2.892 4.439-.007.358-.326 1.239-.71 1.956s-1.022 2.184-1.417 3.26c-3.838 10.438-7.925 14.951-18.529 20.456-5.891 3.058-5.362.025-5.449 31.275-.107 38.679-.142 37.099.867 38.315l.852 1.026 1.361-1.431c1.427-1.5 7.803-11.222 7.803-11.898 0-.215.819-1.803 1.821-3.529s2.333-4.117 2.959-5.312c2.342-4.473 9.169-14.365 10.575-15.323 2.093-1.426 3.498-1.236 6.766.913 1.581 1.04 3.488 2.207 4.237 2.594 1.543.795 16.752 15.224 18.417 17.472 1.372 1.852 2.971 3.889 6.406 8.157 1.496 1.859 3.194 4.317 3.774 5.461s1.381 2.352 1.779 2.683 1.596 2.274 2.662 4.32 2.222 4.207 2.569 4.805c2.222 3.823 6.541 15.094 8.253 21.537 4.012 15.107 3.019 34.032-2.634 50.191-2.842 8.121-3.151 8.771-8.162 17.171-10.544 17.669-25.609 32.82-32.634 32.82-10.506 0-24.396-26.265-20.862-39.45.45-1.678 3.241-1.375 4.558.494 8.477 12.036 15.369 15.655 20.538 10.785 14.875-14.014 24.523-44.438 20.298-64.004-2.78-12.878-5.288-19.867-9.255-25.796-.443-.615-1.341-1.985-2.224-3.365l-.499-.835c-3.514-5.599-10.536-13.231-13.457-14.623-3.675-1.753-8.23 2.021-12.339 10.22-.56 1.117-1.364 2.421-1.788 2.899s-1.693 2.532-2.82 4.564c-3.08 5.557-4.686 8.21-6.688 11.048-.998 1.414-1.815 2.761-1.815 2.992s-.72 1.421-1.599 2.645c-1.952 2.717-8.783 16.376-10.136 20.266-1.487 4.28-1.685 12.746-1.54 66.076.148 54.115-.264 49.465 4.581 51.76 1.075.51 2.543 1.368 3.26 1.907s2.087 1.396 3.043 1.903c4.394 2.331 10.095 10.947 12.416 18.765 2.82 9.499 5.797 11.731 8.276 6.207 4.386-9.776 4.276-20.397-.255-24.681-2.996-2.833-3.42-3.689-2.856-5.762.56-2.058 3.391-5.176 5.057-5.569.699-.165 1.857-.833 2.575-1.485.717-.652 4.337-2.997 8.043-5.21 10.855-6.483 11.457-6.856 12.794-7.916.701-.556 3.828-2.521 6.948-4.367 10.51-6.218 14.702-5.975 24.163 1.404.837.652 2.563 1.711 3.835 2.353s3.246 1.835 4.383 2.654c5.98 4.296 8.3 3.869 8.3-1.525 0-8.684-5.563-16.224-13.29-18.01-9.05-2.092-9.682-4.264-3.934-13.516 1.654-2.592 3.533-5.863 5.282-9.212l.374-.786c4.594-8.967 10.38-25.612 11.535-33.184 2.296-15.038 12.862-11.467 11.522 3.894-.264 3.025-.199 3.49.659 4.694 3.352 4.708 11.881-8.092 11.245-16.876-.229-3.168-.829-3.928-4.543-5.757-8.489-4.179-8.434-13.697.108-18.842 4.583-2.761 5.96-6.338 4.289-11.145-3.524-10.149-7.697-15.627-11.008-14.457-1.293.457-1.499 3.072-.737 9.355 1.637 13.482-8.463 19.124-10.894 6.086-1.356-7.269-3.542-14.779-6.471-22.231l-3.5-8.912c-1.959-4.992-4.259-9.461-6.686-12.987-3.521-5.118-2.361-9.307 3.138-11.331 8.762-3.224 14.618-9.577 14.769-16.021.101-4.349-1.705-4.83-7.535-2.004-20.271 9.828-25.408 10.692-31.432 5.291-.923-.827-2.336-1.779-3.138-2.115-.804-.336-2.824-1.493-4.491-2.571s-3.873-2.356-4.903-2.84c-2.14-1.006-5.027-2.832-8.919-5.64-2.858-2.063-10.479-6.939-14.468-9.258-4.22-2.453-4.498-5.208-.925-9.154 5.05-5.576 6.443-9.393 5.973-16.357-.5-7.395-2.784-12.191-5.632-11.829z"/></svg>