<svg xmlns="http://www.w3.org/2000/svg" width="300" height="300" viewBox="0 0 300 300"><title>factions-death-askurgan-trueblades</title><path d="M144.084 286.444c-10.678-3.741-21.356-21.356-21.356-35.241.263-12.816 14.419-76.078 25.894-113.991 2.934-9.881 7.209-10.416 8.278-1.069.534 4.275 2.4 9.347 4.275 11.212 1.866 1.603 5.606 12.544 8.278 24.028 2.672 11.747 6.937 25.359 9.347 30.431s6.675 18.684 9.347 30.169c4.809 20.288 4.809 21.094-.272 33.366-7.744 18.15-25.631 26.962-43.781 21.094z"/><path d="M215.897 202.622c0-1.331 0-24.563.272-51.787.272-30.703-.534-50.456-2.4-51.525-1.331-.797-8.278 3.206-15.216 9.347-14.953 12.816-24.291 17.616-27.497 14.147-1.069-1.331-5.606-12.009-9.609-23.756-16.819-49.116-15.75-49.65-21.356 11.747-.534 6.403-1.603 12.009-2.4 12.816-1.866 1.866-38.175-15.216-41.916-19.491-1.603-2.137-4.809-3.741-6.675-3.741-2.934 0-3.741 5.334-3.741 23.494 0 21.356.797 25.097 9.609 43.247 5.072 10.95 11.475 22.153 13.612 24.825 6.403 6.675 2.4 8.541-17.353 8.278-14.953-.272-20.288-1.603-32.831-8.541-22.425-12.816-54.188-49.116-57.394-65.934-2.672-14.147.263-41.644 5.869-56.063 8.278-21.619 7.209-20.822 31.772-19.219l21.891 1.603L68.54 32.85l7.744-19.219 24.028.534c13.078 0 31.5.534 41.109.797s30.703-.534 47.25-1.331l29.634-1.866 11.475 17.081c13.612 20.025 14.419 20.822 24.825 18.956 6.403-1.069 11.213.797 21.356 7.744 20.025 13.35 24.291 20.822 24.028 40.575-.797 27.759-7.209 38.175-51.253 84.094-20.288 21.094-32.034 29.1-32.831 22.425zM66.131 158.578c-2.138-4.003-3.469-18.15-3.741-40.575 0-38.438-.534-39.506-19.753-42.975-9.347-1.603-9.609-1.603-17.081 14.147l-7.472 15.75 8.006 15.75c8.006 16.022 33.366 43.781 40.041 43.781 2.672 0 2.672-1.069 0-5.869zm191.672-21.356c2.4-4.809 5.869-11.747 7.744-15.487 2.137-3.741 4.809-12.009 6.403-18.684 2.4-11.475 2.4-12.009-6.675-20.559-5.344-4.809-11.747-8.812-14.147-8.812-9.609 0-11.213 6.141-10.416 39.778.797 31.772.797 32.306 6.938 32.306 4.275 0 7.209-2.672 10.144-8.541zM122.728 61.941c0-24.291-2.138-27.759-19.219-31.772-9.609-2.4-18.15 8.006-18.15 22.153 0 8.541 1.603 11.475 11.475 19.219 13.612 11.212 21.094 15.487 23.756 13.884 1.331-.797 2.138-11.475 2.138-23.494zm76.078 14.146c13.884-7.744 14.681-8.812 14.681-18.422 0-22.688-9.347-30.431-29.634-24.291-12.816 4.003-15.216 10.941-10.416 32.034 5.072 22.959 4.275 22.425 25.359 10.678z"/></svg>