<svg xmlns="http://www.w3.org/2000/svg" xml:space="preserve" fill-rule="evenodd" stroke-linejoin="round" stroke-miterlimit="2" clip-rule="evenodd" viewBox="0 0 300 300"><path fill-rule="nonzero" d="M88.354 145.375c-3.687-14.037 2.897-27.547 12.579-39.964 8.102-10.574 19.466-18.291 32.571-21.694l.405-.102c5.489-1.641 11.829-2.593 18.371-2.593 22.564 0 42.496 11.222 54.529 28.378l.142.223c8.142 10.168 13.065 23.234 13.065 37.412a60.1 60.1 0 0 1-7.15 28.5l.162-.304c-9.581 21.977-30.95 37.148-55.925 37.595h-.061c-27.872 1.56-47.48-11.222-62.773-33.239-6.948-9.966-6.198-20.762-5.914-34.192v-.02z"/><path fill-rule="nonzero" d="M50.943 100.549c0-44.319 15.374-70.672 40.146-92.569a41.8 41.8 0 0 1 10.736-6.32l.264-.102c2.391-.811 5.164-1.377 8.041-1.56h.102c-.506 2.734-.891 5.53-1.621 8.284-1.418 5.246-2.897 10.493-4.518 15.738-1.438 3.464-2.248 7.474-2.248 11.687 0 10.31 4.983 19.466 12.66 25.198l.081.061c1.924 1.479 4.355 2.208 6.279 3.606 6.806 5.186 6.279 7.029-2.147 11.809-26.474 15.151-43.61 36.42-43.915 68.463-.425 2.411-1.134 4.577-2.147 6.562l.061-.142-4.74-5.105c-10.594-11.606-17.075-27.143-17.075-44.157 0-.506 0-1.054.02-1.56v.081l.02.02zm196.823 101.704c5.105 23.273-6.866 41.869-17.602 59.835-9.298 15.516-24.691 26.211-38.728 37.595-.892.749-3.18 0-4.74-.445 0 0-.445-2.066 0-3.019 3.098-7.92 6.806-15.657 9.459-23.699 6.441-19.263 2.066-30.566-14.787-41.443-7.393-4.577-7.393-5.024 0-9.075 20.175-10.391 35.913-27.001 44.987-47.257l.244-.628c1.357-5.205 2.147-11.181 2.147-17.339v-.669c.79-2.066 1.802-3.848 3.059-5.428l-.041.041c1.479 1.054 3.484 1.762 4.234 3.18 8.65 14.989 16.266 30.363 11.768 48.39v-.041z"/></svg>