<svg xmlns="http://www.w3.org/2000/svg" viewBox="41.17 110.62 429.63 290.77"><path d="M249.532 111.657c0 .561-.46 1.021-1.021 1.021-.567 0-1.023.606-1.023 1.362q0 1.362-1.362 1.362c-.757 0-1.362.454-1.362 1.021 0 .561-.46 1.021-1.021 1.021-.567 0-1.023.606-1.023 1.362 0 .837-.458 1.368-1.19 1.377-.657.009-1.677 1.002-2.27 2.213-.63 1.28-1.695 2.289-2.553 2.415-.928.136-1.475.706-1.475 1.532 0 .722-.46 1.314-1.021 1.314-.563 0-1.021.46-1.021 1.021 0 .567-.606 1.021-1.363 1.021-1.102 0-1.362.454-1.362 2.383 0 1.665-.308 2.382-1.021 2.382s-1.021.719-1.021 2.383c0 1.929-.26 2.382-1.363 2.382-1.101 0-1.362.454-1.362 2.383 0 1.663-.308 2.382-1.021 2.382-.785 0-1.021.87-1.021 3.745 0 3.291-.166 3.745-1.363 3.745-1.101 0-1.362.453-1.362 2.382 0 1.665-.308 2.383-1.021 2.383-.859 0-1.021 1.512-1.021 9.532 0 9.077-.065 9.532-1.362 9.532-1.197 0-1.363.453-1.363 3.744 0 2.06-.292 3.745-.649 3.745s-.851 1.072-1.097 2.382c-.421 2.239-.608 2.383-3.095 2.383-1.9 0-2.648.289-2.648 1.021 0 .563-.46 1.021-1.021 1.021-.567 0-1.023.606-1.023 1.363 0 1.101-.453 1.362-2.382 1.362-1.665 0-2.383.308-2.383 1.021 0 .567-.605 1.021-1.362 1.021q-1.362 0-1.362 1.363c0 .756-.454 1.362-1.021 1.362-.563 0-1.023.46-1.023 1.021 0 .567-.605 1.021-1.362 1.021q-1.362 0-1.362 1.362c0 1.181-.453 1.363-3.405 1.363-2.571 0-3.404.25-3.404 1.021 0 .714-.719 1.021-2.383 1.021-1.929 0-2.382.26-2.382 1.362 0 1.181-.454 1.363-3.425 1.363-2.418 0-3.542.301-3.817 1.021-.274.715-1.391 1.021-3.724 1.021-2.878 0-3.331.185-3.331 1.362 0 1.197-.454 1.363-3.745 1.363s-3.745-.166-3.745-1.363c0-1.196-.453-1.362-3.744-1.362-2.875 0-3.745-.237-3.745-1.021 0-.563-.46-1.021-1.021-1.021-.567 0-1.023-.606-1.023-1.363q0-1.36-1.362-1.362c-.757 0-1.362-.453-1.362-1.021 0-.561-.46-1.021-1.021-1.021-.711 0-1.021-.715-1.021-2.345 0-1.977-.214-2.302-1.363-2.082-1.061.203-1.362-.104-1.362-1.401 0-1.025-.393-1.663-1.021-1.663a1.02 1.02 0 0 1-1.021-1.021c0-.785-.871-1.021-3.745-1.021h-3.745v2.382c0 1.929.259 2.383 1.362 2.383s1.363.453 1.363 2.382c0 1.665.308 2.383 1.021 2.383s1.021.719 1.021 2.382c0 1.929.259 2.383 1.362 2.383.757 0 1.363.453 1.363 1.021 0 .561.458 1.021 1.021 1.021.567 0 1.021.606 1.021 1.362q0 1.363 1.362 1.363c1.362 0 1.363.453 1.363 1.362 0 .757.453 1.362 1.021 1.362.561 0 1.021.46 1.021 1.021 0 .714.719 1.023 2.382 1.023 1.929 0 2.383.259 2.383 1.362s.453 1.362 2.382 1.362c1.665 0 2.383.309 2.383 1.021 0 .714.719 1.023 2.382 1.023 1.929 0 2.383.259 2.383 1.362 0 1.134.453 1.362 2.722 1.362 1.967 0 2.724.284 2.724 1.021 0 .714.719 1.021 2.382 1.021 1.929 0 2.383.26 2.383 1.363 0 .756.453 1.362 1.021 1.362.561 0 1.021.46 1.021 1.021 0 .567.606 1.021 1.362 1.021q1.362 0 1.363 1.363c0 .756.453 1.362 1.021 1.362.851 0 1.021 1.362 1.021 8.171 0 7.716.076 8.169 1.362 8.169 1.136 0 1.363.454 1.363 2.724 0 1.967.284 2.722 1.021 2.722.714 0 1.021.719 1.021 2.383 0 1.929.259 2.382 1.362 2.382.757 0 1.363.454 1.363 1.021 0 .563.458 1.022 1.021 1.022.567 0 1.021.604 1.021 1.361q0 1.361 1.362 1.361c.757 0 1.363.454 1.363 1.021 0 .563.458 1.022 1.021 1.022.567 0 1.021.604 1.021 1.361q0 1.361 1.362 1.361c.757 0 1.362.454 1.362 1.021 0 .563.46 1.022 1.023 1.022.875 0 1.021 2.08 1.021 14.637s-.146 14.639-1.021 14.639c-.773 0-1.023.833-1.023 3.404 0 2.444-.266 3.404-.941 3.404-.519 0-1.127.688-1.352 1.531-.493 1.836-.471 12.796.021 11.575.189-.468.854-.846 1.478-.841.896.008.941.134.212.596-.645.409-.696.726-.171 1.051 1.327.82.879 3.109-.608 3.109-1.18 0-1.362.454-1.362 3.404 0 2.572-.25 3.404-1.021 3.404-.785 0-1.021.87-1.021 3.745 0 3.291-.166 3.745-1.363 3.745-1.092 0-1.362.454-1.362 2.298 0 2.012-.256 2.348-2.056 2.708-1.608.322-2.147.861-2.468 2.469-.227 1.13-.833 2.057-1.348 2.057s-.935.613-.935 1.361q0 1.362-1.363 1.361c-1.102 0-1.362.454-1.362 2.384 0 1.663-.308 2.382-1.021 2.382-.563 0-1.021.46-1.021 1.021 0 .567-.606 1.022-1.363 1.022-.881 0-1.362.454-1.362 1.285 0 .93-.659 1.41-2.382 1.733-1.311.245-2.383.74-2.383 1.097 0 .364-2.69.651-6.127.651-4.994 0-6.127-.189-6.127-1.022 0-.561-.46-1.021-1.021-1.021-.567 0-1.023-.604-1.023-1.361q0-1.362-1.362-1.361c-.757 0-1.362-.454-1.362-1.022 0-.561-.46-1.021-1.021-1.021-.785 0-1.023-.87-1.023-3.745 0-3.291-.165-3.743-1.362-3.743-1.102 0-1.362-.454-1.362-2.384 0-1.663-.308-2.382-1.021-2.382s-1.021-.719-1.021-2.384c0-1.929-.26-2.382-1.363-2.382-1.196 0-1.362-.454-1.362-3.745 0-2.688-.259-3.745-.918-3.745-.68 0-1.024-1.721-1.322-6.637-.542-8.884.096-17.192 1.318-17.192.601 0 .923-.832.923-2.384 0-1.929.259-2.382 1.362-2.382.757 0 1.363-.454 1.363-1.022 0-.561.588-1.021 1.305-1.021 2.03 0 3.46-.733 3.46-1.774 0-.721 1.147-.949 4.766-.949 4.313 0 4.766.129 4.766 1.361 0 1.103.454 1.361 2.383 1.361 1.663 0 2.382.309 2.382 1.021 0 .714.719 1.022 2.383 1.022 1.929 0 2.382.259 2.382 1.361q0 1.361 1.362 1.361c1.362 0 1.363-.454 1.363-1.361 0-.757.453-1.361 1.021-1.361.772 0 1.021-.833 1.021-3.404s-.25-3.404-1.021-3.404c-.567 0-1.021-.604-1.021-1.361q0-1.362-1.363-1.361-1.36 0-1.362-1.361c0-.757-.453-1.363-1.021-1.363a1.024 1.024 0 0 1-1.021-1.021c0-.737-.757-1.021-2.724-1.021-2.286 0-2.722-.224-2.722-1.387 0-1.334-.367-1.384-9.532-1.297-8.888.084-9.532.178-9.532 1.387 0 1.103-.51 1.297-3.405 1.297-2.571 0-3.404.25-3.404 1.021 0 .567-.606 1.021-1.363 1.021q-1.36 0-1.362 1.363c0 .755-.453 1.361-1.021 1.361s-1.021.604-1.021 1.361q0 1.361-1.363 1.361c-1.101 0-1.362.454-1.362 2.384 0 1.663-.308 2.382-1.021 2.382-.563 0-1.021.46-1.021 1.021 0 .567-.606 1.022-1.362 1.022-1.101 0-1.362.454-1.362 2.382 0 1.575-.32 2.384-.942 2.384-1.552 0-1.762 2.32-1.772 19.574-.009 16.06.028 16.511 1.352 16.511 1.103 0 1.362.454 1.362 2.382s.26 2.384 1.362 2.384 1.362.454 1.362 2.382c0 1.665.308 2.384 1.021 2.384s1.021.719 1.021 2.382c0 1.665-.308 2.384-1.021 2.384-.567 0-1.021.604-1.021 1.361 0 1.197-.454 1.361-3.745 1.361s-3.745-.164-3.745-1.361c0-.87-.454-1.361-1.256-1.361-1.517 0-3.51-2.059-3.51-3.628 0-.685-.543-1.138-1.362-1.138-1.103 0-1.362-.454-1.362-2.384 0-1.663-.309-2.382-1.021-2.382-.563 0-1.022-.46-1.022-1.021 0-.567-.605-1.022-1.362-1.022-.859 0-1.362-.454-1.362-1.231 0-.676-.451-1.827-1-2.553s-1.009-1.858-1.021-2.512c-.013-.731-.549-1.192-1.383-1.192q-1.362 0-1.362-1.361c0-.757-.454-1.363-1.021-1.363-.713 0-1.022-.719-1.022-2.382 0-1.929-.259-2.384-1.362-2.384-.755 0-1.362-.454-1.362-1.021 0-.561-.46-1.021-1.021-1.021-.713 0-1.021-.719-1.021-2.384 0-1.929-.26-2.382-1.362-2.382s-1.362-.454-1.362-2.382c0-1.665-.308-2.384-1.021-2.384-.567 0-1.021-.604-1.021-1.361q0-1.361-1.362-1.361c-.755 0-1.362-.454-1.362-1.022 0-.561-.46-1.021-1.021-1.021-.713 0-1.021-.719-1.021-2.382 0-1.929-.26-2.384-1.362-2.384-1.231 0-1.362-.454-1.362-4.766 0-3.782-.21-4.766-1.021-4.766-.567 0-1.021-.604-1.021-1.361q0-1.362-1.362-1.361c-1.08 0-1.362-.457-1.371-2.213-.013-3.235-.699-5.277-1.772-5.277-.621 0-.941-.808-.941-2.382 0-1.312-.325-2.384-.722-2.384s-.532-.306-.301-.68c.233-.375.136-.68-.213-.68-.348 0-.829-1.226-1.07-2.723-.281-1.764-.793-2.724-1.448-2.724-.8 0-1.013-1-1.013-4.766 0-3.782-.212-4.766-1.022-4.766-1.654 0-1.511-32.772.153-34.715 1.538-1.798 13.124-2.105 13.124-.348 0 .714.719 1.021 2.383 1.021 1.929 0 2.382.26 2.382 1.363q0 1.36 1.362 1.362c.757 0 1.362.453 1.362 1.021 0 .563.459 1.021 1.021 1.021.567 0 1.021.606 1.021 1.363q0 1.36 1.362 1.362c.93 0 1.362.453 1.362 1.429 0 .786 1.073 2.502 2.382 3.812s2.382 2.812 2.382 3.337.46.954 1.022.954c.561 0 1.021.588 1.021 1.306 0 2.029.733 3.46 1.775 3.46.522 0 .948.613.948 1.361 0 .757.454 1.361 1.022 1.361.657 0 1.023.666 1.03 1.873.014 2.916.74 4.937 1.772 4.937.687 0 .941 1.009.941 3.743 0 2.875.238 3.745 1.022 3.745.561 0 1.021.46 1.021 1.021 0 .714.719 1.021 2.382 1.021 1.665 0 2.383-.308 2.383-1.021 0-.567.605-1.021 1.362-1.021 1.275 0 1.362-.454 1.362-7.149 0-6.507-.113-7.149-1.261-7.149-1.138 0-1.31-.853-1.743-8.63-.263-4.746-.767-9.168-1.121-9.827-.352-.659-.641-2.75-.641-4.647 0-2.928-.195-3.45-1.285-3.45-.93 0-1.41-.659-1.733-2.383-.246-1.31-.706-2.382-1.021-2.382-.317 0-.775-1.072-1.022-2.382-.267-1.427-.844-2.383-1.436-2.383-.678 0-.991-.751-.991-2.382 0-1.665-.309-2.383-1.021-2.383-.567 0-1.022-.605-1.022-1.362q0-1.362-1.362-1.362c-.859 0-1.362-.454-1.362-1.232 0-.677-.45-1.825-1-2.553-.549-.726-1.009-1.857-1.021-2.512-.013-.731-.549-1.192-1.383-1.192-1.103 0-1.362-.453-1.362-2.382 0-1.665-.308-2.383-1.021-2.383-.563 0-1.021-.46-1.021-1.021 0-.567-.606-1.021-1.362-1.021q-1.362 0-1.362-1.363c0-1.101-.454-1.362-2.382-1.362-1.665 0-2.383-.308-2.383-1.021s-.719-1.021-2.382-1.021c-1.929 0-2.383-.26-2.383-1.362s-.454-1.363-2.382-1.363c-1.665 0-2.383-.308-2.383-1.021 0-.567-.605-1.021-1.362-1.021q-1.362 0-1.362-1.362c0-1.102-.454-1.363-2.383-1.363-1.663 0-2.382-.308-2.382-1.021 0-.859-1.514-1.021-9.532-1.021h-9.532v3.405c0 2.95.181 3.404 1.361 3.404 1.102 0 1.361.454 1.361 2.383s-.259 2.382-1.361 2.382c-1.279 0-1.361.454-1.361 7.49 0 6.202-.176 7.488-1.021 7.488-.563 0-1.021.46-1.021 1.021 0 .567-.606 1.023-1.362 1.023-1.102 0-1.361.453-1.361 2.382 0 1.665-.307 2.383-1.021 2.383-.833 0-1.021 1.134-1.021 6.127 0 5.674-.101 6.127-1.362 6.127-1.102 0-1.361.453-1.361 2.382 0 1.643-.312 2.383-1 2.383-.705 0-.975.696-.913 2.347.048 1.291.423 2.286.831 2.213.465-.084.818 1.708.942 4.802.166 4.083.019 4.937-.85 4.937-.914 0-1.051 1.862-1.051 14.298 0 12.255.146 14.297 1.021 14.297.783 0 1.021.87 1.021 3.745 0 3.291.166 3.745 1.361 3.745 1.233 0 1.362.454 1.362 4.766 0 3.782.21 4.766 1.021 4.766.783 0 1.021.87 1.021 3.743 0 3.291.166 3.745 1.361 3.745 1.102 0 1.362.454 1.362 2.384 0 1.663.307 2.382 1.021 2.382s1.021.719 1.021 2.384c0 1.929.259 2.382 1.361 2.382s1.361.454 1.361 2.384c0 1.663.309 2.382 1.023 2.382.809 0 1.021.983 1.021 4.766 0 4.313.13 4.766 1.361 4.766 1.102 0 1.361.454 1.361 2.382 0 1.665.309 2.384 1.023 2.384.561 0 1.021.46 1.021 1.021 0 .567.605 1.021 1.361 1.021 1.051 0 1.361.454 1.361 1.995 0 1.096.46 2.454 1.022 3.014.561.563 1.021 1.349 1.021 1.752 0 .401.612.729 1.362.729 1.103 0 1.362.454 1.362 2.382 0 1.665.309 2.384 1.021 2.384.567 0 1.022.604 1.022 1.361 0 .749.612 1.975 1.362 2.724.749.748 1.362 1.822 1.362 2.382s.46 1.021 1.021 1.021c.563 0 1.022.46 1.022 1.021 0 .567.605 1.022 1.362 1.022q1.362 0 1.362 1.361c0 1.361.454 1.361 1.362 1.361.757 0 1.362.454 1.362 1.021 0 .563.459 1.022 1.021 1.022.584 0 1.021.613 1.021 1.428 0 1.856 11.08 12.868 12.946 12.868.899 0 1.352.457 1.352 1.363q0 1.36 1.362 1.361c1.362.001 1.362.454 1.362 1.361 0 1.103.454 1.361 2.383 1.361 1.663 0 2.382.309 2.382 1.022 0 .561.46 1.021 1.022 1.021.567 0 1.021.604 1.021 1.361 0 .834.461 1.37 1.192 1.384.654.012 1.786.471 2.513 1.021s1.876 1 2.553 1c.778 0 1.231.502 1.231 1.361 0 .757.454 1.361 1.022 1.361.561 0 1.021.46 1.021 1.022 0 .816 1.021 1.021 5.106 1.021 4.651 0 5.106.121 5.106 1.361 0 1.103.454 1.361 2.383 1.361 1.665 0 2.383.309 2.383 1.021 0 .772.832 1.022 3.404 1.022 2.446 0 3.405.265 3.405.941 0 1.356 2.203 1.764 9.532 1.764 7.22 0 9.532-.409 9.532-1.687 0-.476 1.072-1.067 2.382-1.313 1.311-.245 2.383-.74 2.383-1.097 0-.393 6.113-.654 15.488-.659 16.24-.009 18.553-.23 18.553-1.772 0-.623.808-.942 2.383-.942 1.663 0 2.382-.309 2.382-1.021 0-.563.46-1.022 1.023-1.022.566 0 1.021-.604 1.021-1.361 0-1.103.453-1.361 2.382-1.361 1.665 0 2.383-.309 2.383-1.021 0-.738.756-1.022 2.722-1.022 2.269 0 2.724-.226 2.724-1.361 0-.757.453-1.361 1.021-1.361.563 0 1.021-.46 1.021-1.021 0-.714.719-1.022 2.383-1.022 1.929 0 2.382-.259 2.382-1.361q0-1.361 1.362-1.361c1.362 0 1.363-.454 1.363-1.361 0-.757.453-1.363 1.021-1.363.561 0 1.021-.459 1.021-1.021 0-.567.606-1.021 1.362-1.021.924 0 1.363-.454 1.363-1.41 0-.776.458-1.87 1.021-2.433.561-.561 1.021-1.613 1.021-2.334 0-.86.47-1.314 1.362-1.314.757 0 1.363-.454 1.363-1.021 0-.561.458-1.021 1.021-1.021.567 0 1.021-.604 1.021-1.361q0-1.361 1.362-1.361c1.102 0 1.363-.454 1.363-2.384 0-1.663.308-2.382 1.021-2.382s1.021-.719 1.021-2.384c0-1.929.259-2.382 1.362-2.382q1.362 0 1.362-1.363c0-.749.282-1.361.627-1.361s.829-.918 1.076-2.042c.309-1.404.857-2.043 1.756-2.043.854 0 1.308-.471 1.308-1.361 0-1.197.454-1.361 3.745-1.361s3.745.164 3.745 1.361c0 .757.453 1.361 1.021 1.361.714 0 1.021.719 1.021 2.384 0 1.874.272 2.382 1.274 2.382 1.013 0 1.347.659 1.636 3.212.199 1.767.698 3.325 1.109 3.461.411.138.748 1.297.748 2.575 0 1.827.276 2.327 1.286 2.327.707 0 1.272.382 1.255.85-.099 2.644.291 3.914 1.204 3.914.567 0 1.021.606 1.021 1.363q0 1.361 1.361 1.361c1.103 0 1.363.454 1.363 2.384 0 1.663.308 2.382 1.021 2.382.561 0 1.021.46 1.021 1.021 0 .567.606 1.021 1.361 1.021q1.363 0 1.363 1.363c0 .755.454 1.361 1.021 1.361s1.021.604 1.021 1.361q0 1.362 1.361 1.361c.757 0 1.363.454 1.363 1.022 0 .561.459 1.021 1.021 1.021.567 0 1.021.604 1.021 1.361 0 1.103.454 1.361 2.384 1.361 1.663 0 2.382.309 2.382 1.022 0 .561.46 1.021 1.021 1.021.563 0 1.635.613 2.384 1.361s1.974 1.361 2.723 1.361c.757 0 1.361.454 1.361 1.022 0 .567.606 1.021 1.363 1.021q1.362 0 1.361 1.361c0 1.103.454 1.361 2.382 1.361 1.665 0 2.384.309 2.384 1.021 0 .871 1.849 1.022 12.555 1.022 7.538 0 12.721.268 12.971.673.239.387-.034.5-.64.268-.581-.224-1.057-.067-1.057.348 0 .488 1.918.753 5.447.753 3.993 0 5.401-.228 5.276-.851-.127-.639 2.076-.897 8.851-1.041 8.673-.183 9.021-.137 9.021 1.192 0 1.33.402 1.381 10.894 1.381 10.44 0 10.894-.057 10.894-1.361 0-.851.454-1.361 1.21-1.361.665 0 1.815-.421 2.553-.935s2.337-1.151 3.556-1.416c1.231-.268 2.213-.909 2.213-1.448 0-.719.962-.967 3.743-.967 2.875 0 3.745-.238 3.745-1.021 0-.714.719-1.022 2.382-1.022 1.93 0 2.384-.259 2.384-1.361 0-.749.447-1.361.993-1.361 1.913 0 5.782-2.385 5.799-3.574.009-.732.541-1.192 1.378-1.192.755 0 1.361-.454 1.361-1.021 0-.714.719-1.022 2.382-1.022 1.929 0 2.384-.259 2.384-1.361 0-.757.454-1.361 1.021-1.361s1.021-.606 1.021-1.361q0-1.363 1.361-1.363c.757 0 1.363-.454 1.363-1.021 0-.561.459-1.021 1.021-1.021.567 0 1.021-.606 1.021-1.361q0-1.363 1.361-1.363c.757 0 1.363-.454 1.363-1.021 0-.561.459-1.021 1.021-1.021.567 0 1.021-.606 1.021-1.361q0-1.363 1.361-1.363c.757 0 1.363-.454 1.363-1.021s.604-1.021 1.361-1.021q1.361 0 1.361-1.361c0-.757.454-1.361 1.021-1.361.563 0 1.022-.46 1.022-1.022 0-.567.604-1.021 1.361-1.021.924 0 1.361-.454 1.361-1.41 0-.776.46-1.87 1.021-2.433.563-.561 1.021-1.611 1.021-2.334 0-.86.471-1.313 1.363-1.313.755 0 1.361-.454 1.361-1.022 0-.561.46-1.021 1.021-1.021.714 0 1.021-.719 1.021-2.382 0-1.929.26-2.384 1.363-2.384.923 0 1.361-.454 1.361-1.41 0-.776.46-1.87 1.021-2.431.563-.563 1.021-1.613 1.021-2.335 0-.86.471-1.313 1.363-1.313q1.36 0 1.361-1.361c0-.757.454-1.363 1.021-1.363.563 0 1.021-.459 1.021-1.021 0-.567.606-1.021 1.363-1.021.834 0 1.369-.461 1.382-1.192.012-.656.471-1.786 1.022-2.512.55-.728.998-2.337.998-3.575 0-1.799.274-2.252 1.363-2.252 1.101 0 1.361-.454 1.361-2.382 0-1.665.308-2.384 1.021-2.384.784 0 1.021-.87 1.021-3.745 0-3.291.166-3.743 1.361-3.743 1.103 0 1.363-.454 1.363-2.384 0-1.663.308-2.382 1.021-2.382s1.021-.719 1.021-2.384c0-1.574.32-2.382.942-2.382 1.07 0 1.758-2.041 1.772-5.256.007-1.762.23-2.105 1.142-1.755.729.28.967.167.67-.315-.255-.413-.152-.942.228-1.178s.691-2.707.691-5.494c0-4.048.205-5.065 1.021-5.065.891 0 1.022-3.404 1.022-26.553s-.132-26.554-1.022-26.554c-.762 0-1.024-.817-1.03-3.234-.012-4.202-.602-6.297-1.772-6.297-.622 0-.941-.808-.941-2.383 0-1.929-.26-2.382-1.363-2.382-1.101 0-1.361-.454-1.361-2.383 0-1.663-.308-2.382-1.021-2.382-.567 0-1.021-.606-1.021-1.363q0-1.36-1.363-1.362c-1.274 0-1.361-.453-1.361-7.149 0-5.802.187-7.149.991-7.149 1.309 0 2.083-4.231 1.285-7.026-.793-2.778-7.042-3.825-7.042-1.181 0 1.301-.402 1.399-5.76 1.399-6.322 0-10.534 1.424-10.563 3.574-.013.905-.591 1.192-2.399 1.192-1.665 0-2.384.308-2.384 1.021s-.719 1.021-2.382 1.021c-1.929 0-2.384.26-2.384 1.363q0 1.36-1.361 1.362c-.757 0-1.361.453-1.361 1.021 0 .714-.719 1.021-2.384 1.021-1.929 0-2.382.26-2.382 1.362q0 1.363-1.363 1.363c-.755 0-1.361.453-1.361 1.021 0 .561-.46 1.021-1.021 1.021-.563 0-1.021.46-1.021 1.021 0 .563-.613 1.635-1.363 2.383s-1.361 1.974-1.361 2.722c0 .757-.454 1.363-1.021 1.363-.714 0-1.021.719-1.021 2.382 0 1.929-.26 2.383-1.361 2.383-.836 0-1.37.461-1.384 1.19-.012.655-.471 1.787-1.021 2.514s-1 1.875-1 2.553c0 .778-.502 1.232-1.361 1.232-1.103 0-1.363.453-1.363 2.383 0 1.663-.308 2.382-1.021 2.382-.772 0-1.021.832-1.021 3.405 0 2.95-.182 3.404-1.361 3.404-1.103 0-1.363.454-1.363 2.383 0 1.694-.303 2.382-1.051 2.382-.578 0-1.002.383-.94.851.489 3.77-.121 6.638-1.413 6.638-1.197 0-1.363.453-1.363 3.745 0 2.874-.236 3.744-1.021 3.744-.772 0-1.021.833-1.021 3.405 0 2.95-.182 3.404-1.361 3.404-1.197 0-1.363.454-1.363 3.743 0 2.875-.236 3.745-1.021 3.745-.811 0-1.021.984-1.021 4.766s.21 4.766 1.021 4.766c.563 0 1.021.46 1.021 1.021 0 .714.719 1.021 2.384 1.021 1.663 0 2.382-.308 2.382-1.021 0-.567.606-1.021 1.363-1.021 1.196 0 1.361-.454 1.361-3.745 0-2.874.238-3.743 1.021-3.743.707 0 1.021-.711 1.021-2.305 0-1.731.339-2.392 1.363-2.659 1.188-.31 1.361-.928 1.361-4.845 0-3.536.217-4.489 1.021-4.489.714 0 1.021-.719 1.021-2.383 0-1.929.26-2.382 1.363-2.382q1.36 0 1.361-1.363c0-.756.454-1.362 1.021-1.362.561 0 1.021-.46 1.021-1.021 0-.567.606-1.021 1.363-1.021 1.101 0 1.361-.454 1.361-2.383 0-1.663.308-2.382 1.021-2.382.567 0 1.021-.606 1.021-1.362q0-1.363 1.361-1.363c.757 0 1.363-.453 1.363-1.021 0-.714.719-1.021 2.382-1.021 1.929 0 2.384-.259 2.384-1.362 0-.757.454-1.363 1.021-1.363.561 0 1.021-.458 1.021-1.021 0-.817 1.021-1.021 5.106-1.021s5.106.203 5.106 1.021c0 .563.46 1.021 1.021 1.021.567 0 1.021.606 1.021 1.363q0 1.36 1.363 1.362c.755 0 1.361.453 1.361 1.021 0 .563.46 1.021 1.021 1.021.811 0 1.021.984 1.021 4.766 0 4.313.13 4.766 1.363 4.766 1.196 0 1.361.454 1.361 3.745 0 2.875.238 3.745 1.021 3.745.811 0 1.021.983 1.021 4.766s-.21 4.766-1.021 4.766-1.021.983-1.021 4.766c0 4.312-.13 4.764-1.361 4.764-1.233 0-1.363.454-1.363 4.766 0 3.783-.21 4.766-1.021 4.766-.714 0-1.021.719-1.021 2.384 0 1.929-.259 2.382-1.361 2.382-1.197 0-1.363.454-1.363 3.745 0 2.875-.236 3.745-1.021 3.745-.567 0-1.021.604-1.021 1.361q0 1.361-1.361 1.361c-1.18 0-1.361.454-1.361 3.404 0 2.572-.25 3.404-1.022 3.404-.712 0-1.021.719-1.021 2.382 0 1.929-.259 2.384-1.361 2.384-1.068 0-1.361.454-1.361 2.105 0 1.535-.37 2.204-1.363 2.462-.749.196-1.37.857-1.382 1.469s-.471 1.707-1.022 2.433c-.55.726-.998 1.875-.998 2.553 0 .778-.502 1.231-1.363 1.231-.755 0-1.361.454-1.361 1.021 0 .563-.46 1.021-1.021 1.021-.714 0-1.021.719-1.021 2.384 0 1.929-.26 2.382-1.363 2.382-1.101 0-1.361.454-1.361 2.384 0 1.663-.308 2.382-1.021 2.382-.567 0-1.021.606-1.021 1.363q0 1.36-1.361 1.361-1.363 0-1.363 1.361c0 .757-.454 1.361-1.021 1.361-.561 0-1.021.46-1.021 1.022 0 .567-.606 1.021-1.361 1.021-1.103 0-1.363.454-1.363 2.382 0 1.665-.308 2.384-1.021 2.384-.567 0-1.021.604-1.021 1.361q0 1.362-1.361 1.361c-.757 0-1.363.454-1.363 1.021 0 .563-.459 1.022-1.021 1.022-.567 0-1.021.604-1.021 1.361q0 1.361-1.361 1.361c-1.103 0-1.363.454-1.363 2.384v2.382h-5.787c-5.332 0-5.787-.106-5.787-1.361q0-1.362-1.361-1.361c-.757 0-1.361-.454-1.361-1.022 0-.561.546-1.021 1.217-1.021.854 0 1.262-.589 1.366-1.975.083-1.087.606-2.849 1.161-3.916.557-1.065 1.014-2.935 1.016-4.151.004-1.758.285-2.213 1.366-2.213 1.103 0 1.361-.454 1.361-2.384 0-1.31.306-2.382.68-2.382.389 0 .68-2.043.68-4.766 0-2.724-.291-4.766-.68-4.766-.375 0-.68-.613-.68-1.361s.325-1.363.721-1.363c.397 0 .544-.285.329-.634s-.101-.812.252-1.031c.921-.569.488-7.384-.491-7.709-.567-.189-.811-2.711-.811-8.384 0-7.659-.076-8.114-1.361-8.114-1.103 0-1.361-.454-1.361-2.382 0-1.665-.309-2.384-1.022-2.384-.567 0-1.021-.604-1.021-1.361q0-1.361-1.361-1.361c-1.361 0-1.361-.454-1.361-1.361q0-1.362-1.363-1.363c-.755 0-1.361-.454-1.361-1.021 0-.561-.46-1.021-1.021-1.021-.567 0-1.021-.606-1.021-1.361 0-1.31-.454-1.363-11.916-1.363s-11.914.053-11.914 1.363c0 1.101-.454 1.361-2.384 1.361-1.663 0-2.382.308-2.382 1.021 0 .569-.606 1.021-1.368 1.021-.753 0-1.894.613-2.535 1.363-.642.748-1.711 1.361-2.376 1.361-.757 0-1.212.51-1.212 1.361 0 .891-.454 1.361-1.313 1.361-2.002 0-3.452 1.882-3.452 4.474 0 1.622.312 2.335 1.021 2.335.567 0 1.021.604 1.021 1.361q0 1.361 1.361 1.361c1.361 0 1.361-.454 1.361-1.361q0-1.361 1.363-1.361c.755 0 1.361-.454 1.361-1.022 0-.657.666-1.024 1.873-1.03 2.916-.014 4.935-.74 4.935-1.772 0-.712 1.163-.942 4.766-.942 4.313 0 4.766.129 4.766 1.361 0 .924.454 1.361 1.411 1.361 1.805 0 3.355 1.55 3.355 3.356 0 .957.439 1.41 1.361 1.41.757 0 1.363.454 1.363 1.021 0 .563.459 1.022 1.021 1.022.697 0 1.024.703 1.03 2.213.014 3.234.7 5.276 1.772 5.276.766 0 .942 2.224.942 11.914 0 11.461-.053 11.916-1.363 11.916-1.101 0-1.361.454-1.361 2.382 0 1.665-.308 2.384-1.021 2.384-.567 0-1.021.604-1.021 1.361 0 .837-.46 1.368-1.192 1.378-1.189.017-3.574 3.885-3.574 5.799 0 .546-.613.993-1.361.993q-1.363 0-1.363 1.361c0 .757-.454 1.361-1.021 1.361-.561 0-1.021.46-1.021 1.021 0 .567-.606 1.022-1.361 1.022q-1.363 0-1.363 1.361c0 1.289-.454 1.361-8.51 1.361-8.058 0-8.511-.072-8.511-1.361 0-.757-.454-1.361-1.021-1.361-.714 0-1.021-.719-1.021-2.384 0-1.474-.519-2.901-1.363-3.745-.749-.749-1.361-1.822-1.361-2.382 0-.563-.46-1.021-1.021-1.021-.569 0-1.021-.606-1.021-1.369 0-.752-.613-1.892-1.363-2.534s-1.361-1.557-1.361-2.037c0-.478-.46-.87-1.021-.87-.567 0-1.021-.604-1.021-1.361q0-1.361-1.363-1.361c-1.099 0-1.361-.454-1.361-2.355 0-3.01-2.038-7.139-3.535-7.16-1.039-.016-1.173-1.413-1.363-14.089-.155-10.5-.425-14.143-1.06-14.354-1.381-.459-1.213-26.723.171-26.723.714 0 1.021-.719 1.021-2.382 0-1.929.26-2.384 1.361-2.384q1.363 0 1.363-1.361c0-.757.454-1.361 1.021-1.361.561 0 1.021-.46 1.021-1.022 0-.567.606-1.021 1.361-1.021q1.362 0 1.363-1.361c0-.757.454-1.361 1.021-1.361.561 0 1.021-.46 1.021-1.022 0-.567.606-1.021 1.361-1.021 1.079 0 1.366-.461 1.384-2.213.012-1.217.471-2.807 1.021-3.534.55-.728 1-2.489 1-3.916 0-2.139.238-2.593 1.361-2.593 1.197 0 1.363-.454 1.363-3.745s-.166-3.745-1.363-3.745c-1.255 0-1.361-.453-1.361-5.787s.106-5.787 1.361-5.787c.874 0 1.363-.453 1.363-1.267 0-1.021.694-1.35 3.57-1.69 1.963-.232 3.674-.734 3.801-1.115.126-.382 1.737-.694 3.578-.694 2.894 0 3.347-.184 3.347-1.362q0-1.362 1.363-1.362c.755 0 1.361-.454 1.361-1.023 0-.712.719-1.021 2.382-1.021 1.929 0 2.384-.259 2.384-1.362 0-.757.454-1.362 1.021-1.362.563 0 1.021-.46 1.021-1.023 0-.566.606-1.021 1.363-1.021.877 0 1.361-.453 1.361-1.276 0-.876.645-1.406 2.057-1.689 1.607-.322 2.147-.861 2.468-2.468.226-1.131.833-2.056 1.348-2.056s.935-.613.935-1.363q0-1.36 1.361-1.362c.757 0 1.363-.453 1.363-1.021 0-.561.459-1.021 1.021-1.021.784 0 1.021-.87 1.021-3.745 0-3.291.166-3.745 1.361-3.745 1.233 0 1.363-.453 1.363-4.766v-4.766h-2.384c-1.929 0-2.382.26-2.382 1.363q0 1.362-1.363 1.362c-1.101 0-1.361.453-1.361 2.382 0 1.665-.308 2.383-1.021 2.383s-1.021.719-1.021 2.382c0 1.929-.26 2.383-1.363 2.383-1.101 0-1.361.453-1.361 2.382 0 1.665-.308 2.383-1.021 2.383-.561 0-1.021.46-1.021 1.021 0 .569-.606 1.021-1.369 1.021-.752 0-1.892.613-2.534 1.362s-1.711 1.363-2.377 1.363-1.21.458-1.21 1.021c0 .859-1.512 1.021-9.532 1.021s-9.531-.161-9.531-1.021c0-.714-.719-1.021-2.384-1.021-1.63 0-2.382-.313-2.382-.991 0-.593-.957-1.169-2.384-1.438-1.365-.256-2.382-.851-2.382-1.393 0-.627-.804-.945-2.384-.945-1.929 0-2.382-.26-2.382-1.363q0-1.36-1.363-1.362c-.755 0-1.361-.453-1.361-1.021 0-.561-.46-1.021-1.021-1.021-.567 0-1.021-.606-1.021-1.362 0-1.102-.454-1.363-2.384-1.363-1.663 0-2.382-.308-2.382-1.021 0-.567-.606-1.021-1.361-1.021q-1.363 0-1.363-1.362c0-1.102-.454-1.363-2.382-1.363-2.269 0-2.384-.113-2.384-2.382 0-1.665-.308-2.383-1.021-2.383s-1.021-.719-1.021-2.382c0-1.929-.259-2.383-1.361-2.383-.749 0-1.363-.447-1.363-.992 0-1.913-2.384-5.782-3.574-5.799-1.079-.016-1.192-.947-1.192-9.889 0-9.417-.062-9.873-1.361-9.873-1.103 0-1.361-.453-1.361-2.382 0-1.665-.308-2.383-1.021-2.383s-1.021-.719-1.021-2.382c0-1.476-.519-2.901-1.363-3.745-.749-.749-1.361-1.821-1.361-2.382 0-.563-.46-1.023-1.021-1.023-.714 0-1.021-.719-1.021-2.382 0-1.929-.26-2.383-1.363-2.383-1.18 0-1.361-.453-1.361-3.404 0-2.573-.25-3.404-1.021-3.404-.567 0-1.021-.605-1.021-1.362q0-1.362-1.363-1.362-1.36 0-1.361-1.362c0-.749-.422-1.362-.938-1.362s-1.32-.46-1.784-1.021c-.466-.563-1.577-1.021-2.466-1.021-1.166 0-1.619-.382-1.619-1.362q0-1.362-1.363-1.362c-.966 0-1.361-.454-1.361-1.567 0-1.995-1.205-3.2-3.2-3.2-.938 0-1.567-.41-1.567-1.021 0-.832-1.134-1.021-6.127-1.021s-6.127.189-6.127 1.021zm-33.361 113.022c0 .567.606 1.021 1.363 1.021q1.36 0 1.362 1.363c0 .756.453 1.362 1.021 1.362.561 0 1.021.46 1.021 1.021 0 .567.606 1.021 1.362 1.021q1.362 0 1.363 1.363c0 .756.453 1.362 1.021 1.362.561 0 1.021.46 1.021 1.021 0 .567.606 1.021 1.362 1.021q1.363 0 1.363 1.363c0 .756.453 1.362 1.021 1.362.828 0 1.021 1.097 1.021 5.787s-.193 5.787-1.021 5.787c-.567 0-1.021.606-1.021 1.362 0 1.232-.454 1.363-4.766 1.363s-4.766-.13-4.766-1.363q0-1.36-1.362-1.362c-1.181 0-1.363-.453-1.363-3.404 0-2.573-.25-3.405-1.021-3.405-.567 0-1.021-.606-1.021-1.362q0-1.362-1.362-1.363c-.757 0-1.363-.453-1.363-1.021s-.605-1.021-1.362-1.021c-.999 0-1.362-.454-1.362-1.702 0-.952-.394-1.703-.895-1.703-.582 0-.948-1.069-1.053-3.063-.122-2.379.077-3.065.895-3.065.598 0 1.053-.588 1.053-1.362q0-1.362 1.362-1.363c.757 0 1.362-.453 1.362-1.021 0-.714.719-1.021 2.383-1.021 1.663 0 2.382.308 2.382 1.021zm81.702 0c0 .567.606 1.021 1.363 1.021q1.362 0 1.361 1.363c0 .756.454 1.362 1.021 1.362.563 0 1.021.46 1.021 1.021 0 .567.606 1.021 1.363 1.021 1.231 0 1.361.454 1.361 4.766s-.13 4.766-1.361 4.766c-1.103 0-1.363.454-1.363 2.383 0 1.663-.308 2.382-1.021 2.382-.567 0-1.021.606-1.021 1.363 0 1.101-.454 1.362-2.384 1.362-1.663 0-2.382.308-2.382 1.021 0 .567-.606 1.021-1.361 1.021q-1.362 0-1.363 1.362c0 1.102-.454 1.363-2.382 1.363s-2.382-.26-2.382-1.363q0-1.36-1.363-1.362c-.755 0-1.361-.453-1.361-1.021 0-.561-.46-1.021-1.021-1.021-.567 0-1.021-.606-1.021-1.362q0-1.362-1.363-1.363c-1.18 0-1.361-.453-1.361-3.404s.182-3.405 1.361-3.405q1.363 0 1.363-1.362c0-.757.454-1.363 1.021-1.363.714 0 1.021-.719 1.021-2.382 0-1.929.259-2.383 1.361-2.383s1.363-.453 1.363-2.382c0-1.665.308-2.383 1.021-2.383.561 0 1.021-.458 1.021-1.021 0-.783.87-1.021 3.745-1.021s3.743.238 3.743 1.021"/></svg>