<svg xmlns="http://www.w3.org/2000/svg" viewBox="0 0 300 300"><path d="M182.794 205.941c-3.581-2.456-6.928-4.716-10.219-7.05-1.191-.834-2.494-1.697-3.291-2.859-.928-1.341-2.081-3.169-1.781-4.509.206-.928 2.691-2.016 4.078-1.931 3.769.225 7.519.919 11.203 1.716 2.456.525 4.809 1.566 8.137 2.691-1.725-3.281-3.009-5.7-4.275-8.137-4.509-8.737-1.809-17.634 6.844-22.359 3.338-1.819 6.778-3.469 10.397-5.306-2.616-2.128-5.091-3.919-7.294-5.953-4.566-4.228-4.669-8.259-.572-12.909 4.35-4.941 9.825-7.312 16.509-7.116.544-3.047-.431-5.184-2.784-7.059-4.931-3.928-9.694-8.044-14.503-12.112-2.972-2.494-3.9-5.334-2.475-9.262 2.203-6.019 2.203-12.281 1.078-18.619-1.078-6.141-1.838-12.338-2.784-18.9-4.819 6.45-9.319 12.459-13.8 18.469-.403.544-.797 1.097-1.256 1.575-1.65 1.744-3.553 2.447-5.709 1.013-2.203-1.444-1.931-3.497-.703-5.316 3.347-4.969 3-10.406 2.391-16.388-1.097.572-1.969.928-2.766 1.434-5.128 3.244-10.097 6.759-15.394 9.722-6.637 3.713-13.509 7.031-20.344 10.369-6.75 3.291-13.584 6.441-20.409 9.581-3.863 1.772-5.7 1.341-7.462-2.334-4.688-9.666-13.106-14.428-22.669-17.775-4.181-1.472-8.428-2.822-13.219-4.416.975-.731 1.341-1.172 1.8-1.313 7.059-2.156 14.091-4.453 21.234-6.319 2.034-.525 4.397.159 6.6.309 1.875.122 3.834.619 5.625.281 1.2-.216 2.813-1.416 3.131-2.494.328-1.106-.281-3.188-1.2-3.834-2.325-1.631-4.969-3.619-7.612-3.816-10.425-.788-20.888-.956-31.331-1.341-1.416-.056-2.85-.009-4.856-.009 4.669-6.375 10.003-10.584 17.512-11.419 4.237-.469 8.503-.731 12.741-1.219 3.656-.422 5.147-2.428 4.378-6.047-.806-3.769-3.009-6.666-6.816-7.641-5.194-1.341-10.5-2.269-15.769-3.366-1.284-.272-2.569-.497-4.425-.863 4.631-4.566 9.722-6.928 15.431-7.894 10.341-1.744 19.791.947 28.716 6.047 2.147 1.228 4.228 2.588 6.469 3.619 2.663 1.2 5.316 1.219 7.181-1.538 1.913-2.822.45-5.063-1.781-6.638-5.944-4.228-12-8.278-18.066-12.328-1.537-1.041-3.244-1.837-4.875-2.737.084-.3.178-.581.253-.881 4.781.862 9.75 1.144 14.269 2.728 9.084 3.159 18.037 6.806 26.841 10.706 3.309 1.453 5.944 4.387 9.084 6.291 2.428 1.472 5.091 2.906 7.828 3.441 4.144.806 6.563-2.391 4.697-6.225-1.8-3.712-4.256-7.116-6.497-10.594-1.406-2.109-2.953-4.162-5.034-7.097 9.938 2.906 18.684 5.944 24.422 13.941 2.587 3.619 4.378 7.819 6.497 11.756.638 1.191.9 2.756 1.847 3.553 1.416 1.219 3.225 2.494 4.969 2.662 2.353.225 3.956-1.622 4.238-3.984.469-3.9.684-7.828.975-11.747.084-1.219.009-2.428.009-4.059 5.728 1.594 10.116 4.5 13.753 8.597 7.275 8.166 9.853 18.225 11.316 28.688.422 3 .431 6.047.497 9.084.056 2.616-.272 5.766 2.859 6.469 3.028.684 6.047-.469 7.922-3.309 1.65-2.494 3.15-5.091 4.762-7.753 3.506 3.197 3.647 7.219 4.181 11.053.975 7.003 1.8 14.044 2.709 21.047.159 1.219.422 2.447.825 3.6 1.622 4.575 5.428 5.625 9.122 2.606.581-.469 1.163-.947 1.959-1.575 1.341 9.394-.422 17.709-5.728 25.162-.928 1.313-2.484 2.241-3.9 3.122-2.25 1.406-3.956 3.6-2.672 5.775.834 1.416 3.713 1.875 5.766 2.269 1.35.253 2.859-.394 4.725-.703 0 1.003.225 2.016-.037 2.859-1.988 6.469-4.144 12.853-9.703 17.344-1.284 1.041-2.353 2.4-3.366 3.741-1.697 2.231-1.809 4.659 0 6.816 1.941 2.306 4.444 2.391 7.003.984 1.528-.834 3.009-1.772 4.978-2.944-2.156 8.231-5.006 15.159-13.256 18.375-2.4.928-4.509 2.634-7.059 4.172 3.656 3.225 6.666 1.144 10.425 1.003-1.631 2.494-3.009 5.241-4.969 7.453-4.819 5.428-11.297 8.4-17.775 11.316-5.063 2.269-5.625 3.928-2.231 8.25 1.575 1.997 1.191 3.169-.328 4.875-6.872 7.725-15.037 13.078-25.463 14.597-.45.066-.9.094-1.322.225-2.587.806-4.978 1.838-4.472 5.269.394 2.616 3.187 4.294 6.506 3.919 1.838-.206 3.656-.375 5.494-.581.094.272.178.544.272.797-3.197 1.753-6.375 3.563-9.609 5.25-5.372 2.813-10.894 5.344-16.134 8.381-6.75 3.919-8.006 8.044-4.913 15.253.919 2.128.3 3.338-1.322 4.594-11.194 8.653-23.109 15.928-36.844 19.847-11.531 3.281-22.987 6.834-34.65 9.572-6.619 1.556-13.538 1.913-20.353 2.363-2.55.159-5.166-.947-8.616-1.65 1.791-1.931 2.906-3.253 4.134-4.453 8.344-8.184 15.675-17.053 19.181-28.481.366-1.172.703-2.372.881-3.591.581-3.938-.394-5.119-4.322-5.175-2.334-.037-4.734-.272-7.003.122-5.616.975-9.15 5.494-9.122 11.203.028 5.859-1.341 7.641-7.144 9.291-2.466.703-4.95 1.35-7.462 1.941-.459.113-1.022-.225-1.65-.394.056-.591-.056-1.125.159-1.434 6.684-10.162 7.763-22.125 10.65-33.478 3.122-12.281 5.831-24.666 8.737-37.003.216-.928.516-1.847.919-3.291 1.688 2.541 3.094 4.669 4.509 6.787 2.859 4.266 4.322 4.547 8.494 1.659 5.484-3.797 11.072-7.341 17.897-8.128 1.388-.159 2.822-.028 4.884-.028-1.247 2.128-2.091 3.928-3.253 5.522-5.222 7.181-7.631 15.15-7.275 24.028.178 4.378.009 8.775-.178 13.163-.281 6.806 2.709 12.206 7.303 16.762 1.434 1.416 3.628 2.766 5.531 2.859 8.288.422 16.659.984 24.909.309 9.722-.797 17.494-8.953 19.172-18.525.647-3.703.956-7.369-1.012-10.828-.216-.375-.347-.881-.3-1.294.741-6.872-3.862-10.275-8.644-13.688-1.556-1.106-2.662-2.813-3.984-4.238 1.678-.956 3.253-2.447 5.053-2.766 6.141-1.134 12.328-2.241 18.553-2.662 5.737-.45 10.209-2.981 14.578-6.6z"/><path d="M206.625 127.866c-7.678.787-12.309 4.116-14.456 10.828-2.025 6.347-2.063 12 4.688 16.172-1.256 1.191-2.063 2.062-2.981 2.784-1.959 1.5-3.938 2.981-6.009 4.35-6.75 4.444-8.906 7.875-5.766 18.938.731 2.541 2.053 4.913 3.403 8.044-2.916-.497-5.278-1.247-7.641-1.228-4.181.028-8.55-.084-12.525.984-3.938 1.069-4.5 4.022-1.481 6.862 3.047 2.859 6.713 5.1 10.162 7.528 1.134.797 2.456 1.313 4.256 2.241-3.619 2.822-6.872 5.316-10.931 4.856-13.191-1.5-24.647 3.806-36.169 8.813-6.778 2.953-9.919 9.778-7.631 15.244.122.3.394.525.909 1.219 1.35-1.931 2.587-3.703 3.834-5.484 3.122-4.453 7.697-5.831 12.703-3.797 8.109 3.291 13.003 12.591 11.269 21.328-1.566 7.875-9.169 14.634-18.075 14.081-4.819-.3-9.666-.009-14.513-.038-8.194-.037-13.125-4.172-14.325-12.244-3.131-20.925 3.534-37.762 20.888-50.25 9.122-6.563 18.45-12.938 25.444-21.966 4.059-5.241 7.125-10.894 7.116-17.794 0-1.8-.066-3.928-2.297-3.581-1.35.216-3.525 2.25-3.441 3.338.581 7.416-3.506 12.281-8.353 16.866-3.188 3.009-6.319 6.084-9.6 8.981-7.481 6.563-12.919 6.956-20.738.806-3.075-2.419-5.147-2.484-8.428-.488-9.562 5.85-19.669 2.513-23.953-7.912-1.013-2.484-.853-5.7-.375-8.438.272-1.594 2.241-2.887 3.441-4.303.347.206.703.403 1.05.619v2.156c.037 6.188 2.325 8.091 8.588 7.669 7.219-.469 12.188-4.275 15.581-10.303a60.7 60.7 0 0 0 4.537-10.116c1.894-5.522 5.175-9.628 10.491-12.094 1.069-.497 2.053-1.2 3.197-1.894-3.919-2.906-10.95-3.131-14.944-.684-4.669 2.859-6.656 6.862-4.819 12.394-.244.206-.469.403-.713.619-3.291-2.447-6.591-4.884-9.966-7.387-5.269 4.416-3.159 10.547-3.75 16.959-2.016-2.297-3.769-3.938-5.1-5.887-2.456-3.581-5.559-5.213-9.994-5.887-4.912-.741-9.487-3.488-14.4-4.472-5.316-1.069-8.663-4.903-12.544-7.847-3.994-3.009-7.238-7.116-10.828-10.772.272-.347.525-.703.797-1.05 2.034.928 4.134 1.753 6.103 2.831 5.794 3.188 11.944 3.703 18.309 2.522 1.078-.206 2.053-1.125 2.981-1.847 1.837-1.434 3.403-3.403 5.438-4.35 10.65-4.912 19.144-12.497 26.85-21.103 1.472-1.65 2.756-3.216 5.4-1.969.787.366 2.147-.272 3.15-.675 7.791-3.159 15.497-6.563 23.372-9.506 11.972-4.491 22.95-10.744 33.928-18.769-.281 2.025-.328 3.497-.703 4.875-.769 2.7-1.744 5.334-2.588 7.988-1.106 3.525.188 5.466 3.891 5.522 4.669.066 8.522-1.913 11.447-5.494 2.128-2.606 4.041-5.4 6.103-8.072.806-1.041 1.772-1.959 3.291-3.619.731 1.969 1.556 3.281 1.659 4.641.759 9.675.9 19.266-3.338 28.434-1.697 3.684-.891 4.163 2.569 6.225 4.575 2.728 8.897 5.925 13.172 9.122 1.256.928 1.997 2.587 3.375 4.444zm-93.844 52.209c4.753 1.162 5.794.609 7.434-3.375.281-.684 1.144-1.313 1.894-1.622 4.444-1.931 4.472-1.941 2.813-6.722-.225-.675-.366-1.387-.609-2.306 1.472.244 2.55.431 3.647.591 5.222.769 8.691-2.147 8.231-7.388-.188-2.241-1.378-4.444-2.297-6.591-1.106-2.606-2.916-2.822-4.978-1.022-.825.731-1.697 1.509-2.213 2.456-4.641 8.559-9.216 17.175-13.922 25.978zm8.119-72.919c-6.412 1.987-9.825 4.669-10.65 8.194 5.672-.113 8.737-2.372 10.65-8.194"/></svg>