<svg xmlns="http://www.w3.org/2000/svg" viewBox="0 0 300 300"><path d="M184.5 275.128c.159 4.997.309 10.012 0 15-.188 3.038-1.5 6-1.5 9 0 2.916 5.719-2.184 7.5-4.5 6.581-8.559 9.056-15.403 7.5-25.5-.478-3.122-.253-7.434-3-9-2.334-1.341-5.953.797-7.5 3-2.362 3.375-2.7 7.884-3 12m-21 24c2.325-3.291 4.725-6.675 6-10.5.9-2.691-.394-12.375-1.5-14.859-1.031-2.316-2.213-7.247-4.5-6.141-3.431 1.659-3.572 6.806-4.5 10.5-1.753 6.994 2.531 15.084 4.5 21m-34.5-4.5 9 4.5v-18l-3-7.359-4.5-4.641-4.5 6v12zm-19.5 0 7.5 3v-19.5l-3-9-4.5-6-7.5 10.641 3 13.359zm37.5 3 4.5-6 1.5-6-1.5-6-4.5-1.5zM57 175.5c-.741 1.209-1.622 2.662-3 3-3.047.741-8.194-2.888-9.403 0-8.419 20.137 4.594 32.137 16.903 43.5 2.597 2.4 3.966 7.5 7.5 7.5 2.503 0-1.566-5.55 0-7.5 1.247-1.566 4.584 1.416 6 0 .966-.966-1.978-10.5 3-10.5 9.066 0 5.269 6.384 13.5 10.5 2.241 1.116 6.797-2.4 7.5 0 1.181 4.013-3.881 29.016 4.5 36 1.388 1.153 2.766-2.503 4.5-3 2.634-.75 10.472-.056 12 3 1.341 2.681-1.341 6.319 0 9 .675 1.341 3.441 1.059 4.5 0 .909-.909 4.556-14.231 10.5-12 9.6 3.6.178 11.213 9 16.5 1.819 1.087 2.381-4.5 4.5-4.5s2.681 5.587 4.5 4.5c2.709-1.631 1.247-6.366 3-9 .328-.488 10.434-8.166 12-7.5 5.756 2.466 2.738 16.5 9 16.5 4.406 0 4.294-15.047 7.5-16.5 17.728-8.063 9.197-14.053 13.5-33 .553-2.438 5.259 1.116 7.5 0s2.728-4.228 4.5-6c6.797-6.797 8.203-4.837 16.5 0 2.766 1.613 5.944 3.197 7.5 6 1.209 2.184-2.287 8.513 0 7.5 18.319-8.137 10.697-14.184 16.5-28.5.834-2.053 4.322-2.362 4.903-4.5 3.197-11.719 1.209-12.488-7.903-18-1.538-.938-4.013-1.266-4.5-3-2.156-7.772-1.369-16.106-3-24-4.8-23.194-16.688-44.325-34.5-60-6.459-5.681-13.359-11.044-21-15-7.022-3.628-17.597-1.303-22.5-7.5-2.662-3.366-11.925-68.362-13.5-66-13.003 19.5-5.372 47.016-13.5 69-1.387 3.75-8.203-1.266-12 0-13.322 4.444-37.472 22.631-45 31.5-7.106 8.372-13.425 17.962-16.5 28.5-4.078 13.997-4.294 28.922-4.5 43.5m82.5 45c-.244-3.488-.497-7.031 0-10.5.516-3.6.984-7.472 3-10.5 2.869-4.313 9.131-3.694 12 0 1.172 1.509 8.822 17.916 4.5 21-2.962 2.119-6.862-3-10.5-3-3.159 0-6.188 1.556-9 3m-36-30c-1.819-2.278-3.731-4.688-4.5-7.5-.787-2.897-1.05-6.188 0-9 .638-1.688 3-4.003 4.5-3 4.163 2.775 5.653 8.288 9 12 1.209 1.341 3.572 1.453 4.5 3 .769 1.284.591 3.122 0 4.5-.984 2.297-1.997 6-4.5 6-3.609 0-6.591-3.319-9-6m76.5 3c.122-2.062.262-4.35 1.5-6 .6-.797 2.072.375 3 0 3.984-1.594 7.013-5.428 9-9 1.313-2.353.309-7.5 3-7.5 2.916 0 3.581 4.734 4.5 7.5 1.753 5.25-.938 4.725-4.5 9-1.434 1.716-.9 5.241-3 6-4.228 1.538-9.056.741-13.5 0"/></svg>