<svg xmlns="http://www.w3.org/2000/svg" viewBox="0 0 32 32"><path d="M21.95 31.798c-.243-.36-3.123-5.357-3.192-5.538-.062-.162-.063-.186-.014-.289.07-.147.293-.273.606-.345.283-.064.374-.144.415-.361.054-.289-.03-.537-.495-1.454-.564-1.111-.579-1.213-.236-1.522.11-.099 1.821-1.176 2.102-1.323.284-.148.431-.121.544.101.124.245 1.246 4.335 1.265 4.611.013.186.003.247-.056.341-.094.149-.373.324-.767.482-.54.216-.691.464-.659 1.078.014.262.035.363.106.499.132.252.151.346.361 1.765.194 1.312.27 2.155.195 2.155-.021 0-.1-.09-.174-.201zm-11.962-.552a.24.24 0 0 1-.055-.149c0-.112-.016-.054.498-1.855.501-1.756.542-1.968.44-2.273-.103-.309-.494-.519-.969-.52-.246-.001-.439-.061-.55-.172-.137-.137-.156-.223-.113-.503.047-.307 1.33-4.546 1.444-4.769.125-.246.186-.288.352-.243.076.021.185.062.243.091.157.079 1.626 1.086 1.739 1.192.183.171.246.311.244.545-.003.327-.085.545-.432 1.153-.37.647-.626 1.156-.626 1.243 0 .168.436.455.846.557a.84.84 0 0 1 .327.183c.155.137.161.148.146.303a1.3 1.3 0 0 1-.103.352c-.108.235-2.953 4.65-3.098 4.808-.115.125-.244.148-.333.059zm4.938-9.57c-.13-.024-.175-.107-.174-.323.001-.293.078-.566.423-1.503.448-1.215.528-1.343.792-1.263.071.021.152.075.179.119s.188.441.356.883c.28.735.319.814.452.934.192.172.358.214.766.19.436-.025.664-.103 1.17-.402.536-.317.573-.344.614-.45.055-.146-.089-.391-.652-1.107-.686-.872-.974-1.102-1.603-1.284-.263-.076-.335-.081-1.325-.081-.984 0-1.062.005-1.292.077-.395.125-1.036.51-1.368.822a3 3 0 0 1-.309.271c-.054 0-.41-.195-.512-.281l-.115-.097.064-.121c.102-.193.361-.468.594-.631a8 8 0 0 1 1.53-.771c.555-.184.861-.237 1.373-.238.44 0 .478.006 1.222.199 1.098.285 1.151.315 1.901 1.047.689.673.875.876 1.007 1.101.051.086.18.292.288.457.442.678.396 1.08-.169 1.442-.274.176-1.521.79-1.875.922l-.244.092-1.501.006a43 43 0 0 1-1.589-.01zm7.429-1.155-.437-.916a10 10 0 0 0-.673-1.152c-.353-.529-.499-.712-.803-1.012-.205-.202-.433-.403-.508-.448s-.301-.183-.503-.308c-.557-.344-.929-.509-1.679-.741-1.006-.312-1.104-.33-1.812-.332-.515-.002-.668.011-.977.079-.502.111-1.343.394-1.726.58-.656.32-1.71 1.188-2.034 1.676-.077.115-.403.689-.725 1.274-.585 1.063-.795 1.395-.93 1.468-.058.031-.102.02-.235-.056-.105-.06-.952-.888-2.364-2.311-1.21-1.22-2.22-2.247-2.245-2.283-.044-.063-.028-.065.384-.065.236 0 1.434.063 2.661.139s2.296.129 2.374.117c.286-.044.37-.129.37-.379 0-.276-.099-.551-.91-2.53-.405-.989-.793-1.951-.861-2.138-.12-.33-.122-.342-.063-.432.054-.083.075-.09.205-.069.181.028.311.102 2.605 1.466 2.049 1.218 2.22 1.313 2.373 1.313.091 0 .108-.016.138-.131.044-.173.159-6.915.133-7.812-.023-.795-.089-1.151-.257-1.391-.104-.147-.17-.182-.619-.324-.335-.106-.342-.192-.046-.631.2-.296 2.058-2.501 2.428-2.881.352-.361.417-.371.713-.104.158.142 2.559 2.988 2.746 3.255.115.164.117.172.061.257-.078.119-.259.206-.654.317-.393.11-.473.157-.549.325-.053.117-.058.483-.058 4.335 0 4.137.001 4.209.07 4.347.065.13.08.139.213.137.111-.002.249-.062.611-.265a73 73 0 0 1 2.821-1.514c1.076-.555 1.369-.693 1.484-.695l.143-.003-.002.157c-.001.097-.057.298-.145.524-.165.423-1.258 3.654-1.409 4.168-.115.391-.122.465-.053.63.087.208.123.212 1.976.212 1.615 0 1.665-.002 1.903-.077.515-.163 1.627-.249 1.78-.137.063.046.063.05-.008.148-.04.055-.714.737-1.498 1.514s-1.808 1.794-2.275 2.261c-.467.466-.869.848-.893.848s-.131-.185-.239-.41zm.61-1.967c.077-.093.079-.27.004-.377-.05-.072-.078-.079-.23-.065-.125.012-.198.042-.262.106-.082.082-.086.098-.045.198.025.059.09.146.145.192.085.071.117.079.214.052a.4.4 0 0 0 .175-.106zM9.53 18.502c.076-.076.069-.246-.015-.329-.081-.081-.368-.098-.464-.026-.099.073-.114.251-.028.337.093.093.421.105.507.019zm2.958-3.11c.134-.121.043-.497-.149-.616-.146-.091-.38.115-.381.335 0 .128.087.294.165.315.139.036.304.021.364-.034zm7.44-.248c.088-.098.092-.496.006-.582-.083-.083-.279-.071-.345.023-.083.118-.073.462.015.551.086.086.25.091.323.009zm-3.654-.792c.162-.046.203-.342.069-.498-.076-.088-.105-.097-.283-.091q-.505.02-.312.399c.057.11.304.249.399.224l.126-.035z"/></svg>