<svg xmlns="http://www.w3.org/2000/svg" width="300" height="300" viewBox="0 0 300 300"><title>factions-chaos-the-unmade</title><path d="M152.063 300c-.253-.816-.722-1.613-.731-2.428-.084-4.603-.047-9.206-.047-13.8 0-.881.056-1.772.047-2.653-.019-2.756-.037-2.766-2.813-2.447-1.144.131-1.519-.731-1.678-1.491-.188-.928-.159-1.95.009-2.897.769-3.834 1.209-7.65.9-11.616-.675-8.653-.881-17.353-1.631-26.006-.384-4.5-1.509-8.944-2.316-13.5-.694.084-1.125.056-1.5.178-3.141 1.059-6.272.966-9.441.103-4.969-1.35-9.956-2.597-14.925-3.956-.909-.253-1.688-.966-2.578-1.313-.713-.281-1.65-.684-2.241-.441-3.131 1.256-6.178 2.7-9.272 4.059a1.42 1.42 0 0 1-.984.038c-1.2-.45-2.269-.338-3.206.581-1.219 1.2-2.447 2.381-3.675 3.563-.291.281-.609.628-.975.741-6.712 2.025-11.456 6.9-16.584 11.25-3.619 3.075-7.313 6.037-10.969 9.056-1.2 1.003-2.362 2.044-3.534 3.075-.103-.066-.206-.141-.319-.206.319-.497.544-1.059.928-1.481 6.731-7.144 13.528-14.222 20.203-21.412 2.025-2.175 3.731-4.631 5.606-6.947.637-.787 1.406-1.491 2.063-2.278.338-.403.694-.9.787-1.397.45-2.269 1.266-2.766 3.516-2.072.3.094.619.159.928.253.441-4.387-1.35-6.628-5.934-7.462-2.287-.422-3.037-1.584-2.841-3.862.056-.722-.328-1.678-.834-2.222-8.475-9.084-12.572-20.372-16.069-31.931-.534-1.772-.628-3.666-1.059-5.466-.15-.638-.619-1.266-1.097-1.753-.534-.562-1.266-.938-1.875-1.453-1.322-1.125-1.341-2.419.047-3.497.881-.694 1.397-1.491 1.172-2.625-.253-1.35-1.163-1.65-2.316-.909-.478.3-1.106.469-1.678.487-4.5.188-9.009.45-13.509.441-9.722-.038-19.397-.647-28.856-3.197-1.022-.281-2.063-.478-3.094-.713-.009-.244-.019-.488-.019-.741 1.753-.487 3.478-1.2 5.269-1.416 6.413-.816 12.863-1.247 19.237-2.259 5.447-.863 10.8-2.287 16.191-3.488 1.359-.3 2.672-.787 4.05-1.05.778-.141 1.65-.141 2.4.084 1.022.3 1.603.206 2.025-.881.966-2.503 2.044-4.95 3.487-7.575.928 1.828 1.978 3.609 2.747 5.494.319.778.103 1.819.037 2.719-.141 1.781-.337 3.563-.497 5.231.394.178.516.253.563.234 2.906-1.491 6.141-1.303 9.234-1.856 1.725-.319 3.403-.9 5.081-1.416 1.734-.544 2.737-1.838 3.384-3.469 2.016-5.091 4.191-10.116 5.981-15.281 1.106-3.197.956-6.469-1.603-9.178-2.466-2.606-4.922-5.213-7.388-7.819a9 9 0 0 0-.806-.778c-2.316-1.978-3.141-1.931-5.241.234-2.025 2.081-2.025 2.081-4.688.806-2.381-1.153-2.409-1.237-1.106-3.628.422-.778.872-1.556 1.116-2.4.188-.647.675-1.491-.544-1.95-.253-.094-.253-1.256-.141-1.875.084-.45.497-.881.872-1.219 1.875-1.697 1.987-2.456.544-4.575-.356-.534-.769-1.078-1.266-1.481-4.941-4.003-8.522-9.188-12.319-14.175-1.35-1.781-2.616-3.619-3.909-5.428-.225-.319-.394-.647-.581-.975.103-.094.197-.188.3-.281 1.387.966 2.85 1.828 4.144 2.897 5.456 4.556 10.866 9.188 16.284 13.8.384.328.722.722 1.05 1.116 1.941 2.306 4.95 2.072 6.525-.525.516-.853.759-1.969 2.091-1.922.103 0 .272-.112.328-.234 1.5-2.794 4.106-4.397 6.516-6.234 1.172-.9 2.184-2.016 3.281-3.009 1.781-1.631 3.478-3.366 5.381-4.828 1.106-.853 2.531-1.303 3.825-1.894.722-.328 1.537-.469 2.194-.853 6.712-3.928 14.006-6.384 21.478-8.362 1.997-.525 4.069-.825 6.084-1.341.441-.112.909-.637 1.106-1.078.328-.694.188-1.837.675-2.194 1.237-.909 2.737-1.341 4.453-.928 0 .666-.15 1.35.047 1.922.159.469.713 1.022 1.153 1.097.403.066 1.144-.347 1.341-.741 1.266-2.578 2.428-5.222 3.619-7.847.666-1.462.6-2.85-.347-4.209-1.5-2.137-2.025-4.341-1.256-7.059 1.594-5.578 3.056-11.222 4.097-16.922 1.153-6.3 1.753-12.703 2.606-19.05.066-.516.225-1.003.338-1.509.188-.019.375-.047.562-.066.244.825.591 1.65.722 2.503 1.059 6.712.497 13.453.187 20.175-.272 5.475-.741 10.941-1.012 16.434-.038.816.497 1.678.872 2.475.403.872 1.031 1.659 1.388 2.559.637 1.641 1.144 3.337 1.725 4.997.516 1.462.394 2.719-.103 4.341-1.059 3.366-1.341 6.966-1.978 10.678 1.547-.328 1.922-1.172 2.138-2.147.45-2.034.919-4.069 1.416-6.3 1.847.422 3.591.806 5.325 1.247.197.047.356.497.394.778.094.591.084 1.209.113 1.819.066 1.031.6 1.697 1.641 1.725 8.419.206 15.478 4.387 22.669 7.988 3.291 1.65 6.197 4.078 9.206 6.244 2.447 1.753 4.8 3.637 7.153 5.512.572.45.984 1.106 1.406 1.725.984 1.453 2.287 2.025 3.862 1.369a141 141 0 0 0 8.025-3.563c.619-.291.966-1.116 1.556-1.519 4.162-2.888 8.353-5.738 12.525-8.597.159-.112.394-.141.722.009-1.125.919-2.306 1.791-3.384 2.766-1.022.928-2.044 1.884-2.906 2.953-2.194 2.766-4.238 5.662-6.469 8.4-1.406 1.725-3 3.281-4.594 4.828-1.116 1.078-1.247 1.434-.253 2.672 2.072 2.625 4.144 5.269 6.291 7.828 3.272 3.872 5.372 8.231 6.75 13.144.966 3.45.853 6.994 1.594 10.416.403 1.875.787 3.713.881 5.691.094 1.819 1.491 3.591 2.456 5.316.187.338 1.003.422 1.547.441 8.906.441 17.831.787 26.738 1.294 3.187.188 6.366.638 9.516 1.153.9.15 1.697.919 2.578 1.434-.272.291-.347.422-.375.403-3.581-1.294-7.144-.375-10.734.009-4.528.478-9.075.722-13.622 1.069-.469.037-.938.009-1.387.131a902 902 0 0 0-11.981 3.15c-1.509.422-1.903 1.894-1.95 3.094-.15 3.516-1.584 6.328-3.975 8.794-.825.862-1.463 1.903-2.531 2.85v-16.003c-2.091.188-4.172.281-6.225.581-3.253.478-6.497 1.097-9.731 1.678-.497.094-1.097.188-1.434.497-1.941 1.791-4.509 2.091-6.825 2.981-2.194.834-3.731 2.222-4.866 4.313-2.962 5.447-5.578 11.025-7.294 16.988-1.2 4.162-1.247 8.184 1.125 12.084 1.978 3.253 3.656 6.684 5.55 9.994.666 1.162 1.594 2.166 2.4 3.244.441.591.881 1.106.375 1.988-.206.356.094 1.294.469 1.659.778.778 1.744 1.387 2.653 2.025.769.544 1.406.319 1.884-.441.619-.984 1.172-1.997 1.819-2.962 1.95-2.934 3.853-5.897 5.916-8.747 2.372-3.272 4.894-6.431 7.35-9.628.356-.478.741-.928 1.153-1.463 1.153.834.872 1.838.478 2.756a449 449 0 0 1-3.825 8.662c-.9 1.987-1.781 3.984-2.794 5.916-.694 1.341-.478 2.569.244 3.684.497.769.675 1.322.281 2.231-.581 1.313 0 1.772 1.463 1.678.834-.056 1.941.094 2.522.619 1.191 1.069 2.241 2.362 3.103 3.713 2.934 4.641 5.569 9.459 8.662 13.978 2.325 3.394 5.137 6.469 7.791 9.619 1.528 1.819 3.103 3.591 4.791 5.259 1.256 1.247 1.566 2.756 1.922 4.65-1.294-.778-2.466-1.294-3.394-2.081-4.884-4.162-9.675-8.409-14.55-12.591-1.725-1.481-3.581-2.813-5.325-4.266-1.678-1.387-3.356-2.775-4.931-4.275-1.491-1.416-3.375-1.388-5.175-1.734-.225-.047-.469-.009-.806-.009 0-1.434-.769-1.838-2.109-2.156-.769-.178-1.313-1.491-1.838-2.372-.234-.403-.15-.984-.178-1.153-.788-.581-1.294-1.116-1.903-1.359-.487-.197-1.144-.15-1.688-.047-2.738.516-4.828 2.222-6.975 3.816-3.338 2.475-7.2 3.806-11.137 4.922-1.697-4.387.206-7.125 4.884-9.787 1.397-.787 3.038-1.162 4.491-1.884 2.934-1.453 3.038-1.528 2.269-4.613-.356-1.416-1.05-2.944-2.044-3.975-1.659-1.706-3.675-3.075-5.569-4.556a50 50 0 0 0-2.794-2.072c-.6-.422-1.228-.853-1.903-1.069-1.875-.6-2.184-.45-3.141 1.153-.722-.281-1.406-.713-2.156-.816-3.272-.488-4.491.319-5.034 3.534-.591 3.422-.975 6.881-1.453 10.331-.019.197-.084.394-.113.6-.15.009-.291.038-.441.047-.3-1.641-.619-3.272-.9-4.903-.319-1.828-.525-3.666-.9-5.475-.206-1.05-.975-1.537-2.072-1.397-1.153.15-2.316.244-3.441.487-.422.094-.956.469-1.116.834-.975 2.241-1.791 4.547-2.803 6.778-.291.647-.928 1.444-1.547 1.603-1.978.516-3.103 1.903-3.881 3.544-1.706 3.563-1.884 7.444-2.091 11.287-.066 1.247.928 1.219 1.772 1.172 3.806-.234 7.603-.403 11.381-.778 1.341-.131 1.978.328 2.409 1.434-7.303 3.234-9.9 5.841-16.434 5.062-.384 4.697-.741 9.394-1.153 14.081-.187 2.166-.319 4.359-.731 6.487-.731 3.759-1.116 7.453-.375 11.306.384 1.997-.131 4.162-.159 6.253-.009.909.178 1.819.225 2.738.047 1.069.15 2.156.019 3.197-.647 5.287-1.031 10.641-2.616 15.778-.197.666-.272 1.369-.291 2.072-.009.234.272.478.628 1.069-.759 4.35-1.594 9.141-2.428 13.941-.394.037-.769.037-1.144.037zm50.531-193.425c-.131-.047-.253-.084-.394-.131-.3-1.416-.019-2.756.778-4.031 1.678-2.672 3.319-5.372 5.062-7.997.328-.487 1.069-1.003 1.603-.975 1.613.056 2.7-.675 3.403-1.978.328-.591.694-1.688.431-1.95-.544-.563-1.538-1.05-2.287-.984-1.069.094-1.791-.206-2.466-.919-1.847-1.931-3.581-3.919-6.028-5.259-2.034-1.125-3.619-3.103-5.691-4.106-1.275-.619-2.269-1.463-3.394-2.194-.928-.609-1.566-1.997-3.047-1.116-.066.037-.244-.084-.356-.141-1.462-.684-2.991-1.266-4.387-2.081-4.922-2.897-10.162-4.163-15.872-3.544-1.2.131-1.772.497-1.922 1.678-.253 2.025-.694 4.031-.853 6.075-.103 1.406-.253 3.037.328 4.219 2.953 5.991 6.562 11.559 11.737 15.947.281.234.581.572.909.609 1.294.159 1.875 1.05 2.419 2.072 1.678 3.113 3.975 5.672 6.825 7.8 2.072 1.547 3.928 3.394 5.85 5.128.338.3.713.759.731 1.153.131 1.819 1.491 2.7 2.644 3.759 1.303 1.2 2.578 2.419 3.919 3.572 3.881 3.375 2.672 3.384 7.622 1.688.047-.009.094-.038.131-.047 2.953-.881 4.978.3 5.859 3.244.244.806.872 1.641 1.556 2.119 1.678 1.163 3.609 1.978 5.222 3.197 2.644 1.978 5.381 2.306 8.494 1.397 2.269-.666 2.484-.722 2.7-3.206-1.397 0-2.269-.666-2.475-2.091-.206-1.481-.45-2.944-.638-4.406-.581-4.603-2.522-8.709-4.613-12.759-1.125-2.175-2.513-4.209-3.731-6.347-1.275-2.241-2.766-4.294-4.884-5.841-.862-.628-1.594-.759-2.512-.112-1.341.928-2.738 1.753-4.116 2.616-.347.225-.731.497-1.116.516-3.103.159-5.409 1.5-6.713 4.397-.131.394-.45.722-.713 1.078zm-64.669-13.884c.441-.113.9-.188 1.322-.347s.909-.328 1.163-.638c2.794-3.534 6.188-6.412 9.741-9.131 1.659-1.266 1.941-2.616 1.247-4.556-1.2-3.319-2.381-6.638-3.478-9.994-.356-1.106-.966-1.688-2.081-1.631-2.081.103-4.247-.047-6.225.487-8.569 2.316-16.772 5.456-24.478 10.069-5.175 3.103-10.013 6.544-14.662 10.331-.497.403-1.022 1.022-1.116 1.613-.15.881-.572 1.059-1.322 1.275-.975.291-2.184.637-2.737 1.369-1.406 1.884-2.531 3.975-3.731 6.009-.769 1.294-.469 1.791 1.069 1.987 1.106.141 2.222.272 3.3.478 5.334 1.05 10.659 2.231 16.144 2.063 5.091-.159 10.172-.591 14.888-.881.731-.675 1.266-1.537 1.791-1.537.816.009 1.753.45 2.381 1.003.713.619 1.303 1.5 1.659 2.381.694 1.744 2.072 2.184 4.031 2.381.356-4.237.722-8.466 1.078-12.75zm-31.997 96.15c2.016 1.059 2.409.862 2.822-1.097.112-.544.15-1.106.272-1.65.084-.347.15-.787.394-.984.975-.787.806-1.659.356-2.625-1.219-2.662-2.466-5.306-3.609-7.988-.834-1.941-2.091-3.478-3.816-4.688-3.45-2.428-7.022-4.725-10.284-7.397-4.125-3.403-8.991-5.559-13.462-8.363-.825-.516-1.903-.741-2.897-.834-1.266-.112-2.259 1.434-1.509 2.316 2.166 2.55 2.597 5.794 3.816 8.719a436 436 0 0 0 9.441 21.075c2.484 5.175 6.094 9.656 9.703 14.091 1.791 2.222 3.056 4.641 2.963 7.622-.009.478.431.975.862 1.856.45-.966.834-1.463.919-2.025.441-2.906 1.556-5.512 3.187-7.959.928-1.406 1.163-2.906.9-4.641-.272-1.697-.056-3.478-.056-5.428zm67.097-56.438c-2.063 1.772-4.144 3.544-6.206 5.334-.722.619-1.838 1.209-1.275 2.334.544 1.125 1.744.525 2.625.403 1.697-.206 3.347-.544 5.081.047.694.234 1.659-.009 2.419-.291 3.769-1.369 6.928-3.478 8.625-7.341.384-.881 1.022-1.659 1.556-2.466.825-1.238 1.697-2.447 2.522-3.675.966-1.434.834-1.744-.806-2.091-.403-.084-.825-.15-1.219-.253-1.528-.384-2.85-.206-4.191.778-.694.525-1.819.544-2.756.666-.666.084-1.359-.047-2.175-.084.328.881.591 1.603 1.003 2.691-.975 0-1.744-.019-2.513.009-.628.037-1.313 0-1.856.244-1.209.544-1.453 1.847-.834 3.684zm2.241 28.238c-.478-1.631-1.444-2.7-2.953-3.328-1.106-.45-2.409-.769-3.234-1.556-3.131-2.981-6.141-6.094-7.828-10.2-.188-.45-.872-1.069-1.256-1.022-.919.112-.872.975-.637 1.659.909 2.625 1.725 5.306 2.841 7.847 1.341 3.047 3.563 5.184 7.069 5.616.403.047.881.141 1.172.394 1.462 1.275 3.075.984 4.828.581zm-33.113-9.741c-.009-.178-.037-.356-.047-.534-2.119-1.013-4.209-2.063-6.347-3.009-.525-.234-1.209-.347-1.772-.234a336 336 0 0 0-10.444 2.325c-.356.084-.581.741-.862 1.144.441.225.862.516 1.322.638.281.066.619-.141.938-.188 1.978-.319 3.956-.375 5.447 1.256 1.237 1.35 2.644 1.509 4.294 1.059s3.347-.722 4.978-1.2c.881-.291 1.659-.834 2.484-1.256zm-23.597 32.194c-.15-.478-.234-1.106-.525-1.603-1.519-2.597-3.103-5.156-4.641-7.744-.628-1.05-1.5-1.078-2.119-.234-.478.666-.9 1.819-.637 2.475 1.256 3.281 2.7 6.488 4.2 9.675.178.375 1.163.731 1.537.572 1.256-.544 1.941-1.641 2.184-3.141zm84.872-31.885c-.15-.094-.291-.188-.441-.272-.253.094-.544.141-.741.291-1.791 1.397-3.609 2.766-5.325 4.266-.375.328-.45 1.069-.516 1.641-.094.909.037 1.838-.066 2.738-.272 2.259-.628 4.509-.909 6.769-.047.422.131.872.197 1.303.103-.009.197-.019.3-.038 2.503-5.559 4.997-11.128 7.5-16.697zm-39.15 22.257c-1.012-2.512-2.944-3.188-5.231-3.741-2.259-.563-4.162-.188-6.131 1.2.066.628.066 1.613.328 2.55.384 1.397 1.444 2.109 2.869 2.278s1.781-.881 2.166-1.903c.056-.159.178-.319.206-.375h5.794zm-26.55 40.837c.094-.113.188-.244.281-.356-.863-1.059-1.688-2.156-2.578-3.178-.938-1.069-2.128-1.453-3.525-.938-2.353.862-4.706 1.706-7.041 2.616-.422.159-.722.619-1.069.938.469.3.928.862 1.406.872 4.163.084 8.353.047 12.525.047zm37.847-48.478c-.675 0-1.144.009-1.613 0-.328-.009-.713.019-.938-.141-.741-.488-1.369-.319-1.819.328-1.106 1.594-2.194 3.197-3.178 4.875-.356.619-.347 1.444-.525 2.269 2.072-.45 7.078-4.988 8.072-7.331zm-.197-67.266c-.356-2.241-4.2-7.866-5.578-8.128.722 2.813 1.434 5.559 2.156 8.372 1.2-.094 2.259-.159 3.431-.244zm17.625 71.86c.141-.113.272-.234.403-.338.066-3.487 1.453-7.097-1.069-10.547-.206.478-.441.769-.441 1.059-.009 2.916-.019 5.841.084 8.747.019.356.675.713 1.022 1.078zm-29.597-69.272v-4.969c-.938.356-1.781.637-2.569.975-.731.319-1.734.441-1.566 1.603.159 1.172.816 1.95 2.025 2.147.684.131 1.388.15 2.119.234zm-59.934 116.334c.094.112.197.234.291.338.853-.319 1.734-.544 2.513-.975.337-.188.731-.909.609-1.144-.375-.731-.975-1.35-1.538-1.969-.019-.019-.572.281-.675.516-.431 1.059-.806 2.156-1.2 3.234m61.678-107.672c-1.069 1.463-2.916 2.372-3.141 4.509 2.672 0 3.834-1.613 3.141-4.509m-9.825-38.212c.591 2.081 1.069 3.731 1.566 5.475.984-.647 1.659-1.341 1.313-2.475-.384-1.294-1.097-2.362-2.887-3zm6.263 44.503c-3.853 1.828-4.097 2.109-3.188 3.637 1.772-.497 2.747-1.678 3.188-3.637m-37.21 29.991c.103.084.206.15.319.234 1.256-.422 2.522-.806 3.741-1.294.244-.103.469-.675.403-.975-.037-.197-.647-.487-.9-.403-.956.319-1.903.675-2.766 1.191-.394.225-.544.825-.806 1.256z"/></svg>