<svg xmlns="http://www.w3.org/2000/svg" viewBox="0 0 300 300"><path d="M217.985 81.58c0 .687 0 5.708-1.113 10.657-1.042 7.27.877 9.805 8.052 9.544 1.137 0 3.315-2.415 3.127-2.865-4.429-9.26-1.042-17.336 1.303-26.691.805-5.282 1.232-11.367 1.232-17.572 0-4.429-.237-8.81-.687-13.144l.048.545c0-2.96-.521-5.897-.782-8.668a29 29 0 0 1 10.373 2.06l-.213-.071c14.375 8.242 26.501 18.639 36.354 30.977l.19.26c8.668 12.812 18.827 24.796 22.309 40.404 1.16 4.027 1.823 8.644 1.823 13.429 0 .427 0 .877-.023 1.303v-.071c0 2.582-3.127 5.447-5.565 7.2-2.677 1.421-5.85 2.795-9.165 3.932l-.473.142c-7.034 3.552-8.052 7.105-3.742 13.002 1.87 2.273 3.837 4.287 6.015 6.11l.071.048c5.802 5.021 5.637 10.232-.592 13.879s-13.025 6.087-12.932 15.252c0 1.373-4.003 3.742-6.252 4.003-5.707.521-11.557 0-17.36 0-12.055.521-18.307 5.637-18.662 18.117 0 9.355-3.032 12.812-12.387 12.387-5.707 0-8.692 4.003-9.615 9.615-1.018 6.725-2.913 12.812-5.637 18.402l.166-.355a139.7 139.7 0 0 1-14.234 18.307l.095-.095c-6.513-6.489-1.303-14.66-2.889-21.836v-6.418c0-1.895-2.25-4.24-3.552-4.334s-6.607 0-7.555 1.989c-2.44 4.145-3.221 9.26-5.305 13.689-1.87 3.079-3.932 5.732-6.205 8.195l.023-.023c-1.232-2.487-2.273-5.377-2.985-8.407l-.048-.285c-.521-4.24 0-8.668 0-12.907-.687-8.668-3.813-11.107-12.244-11.534-4.689 0-8.692.427-8.692 6.679.071.64.095 1.373.095 2.132s-.047 1.492-.118 2.227v-.095c-.877 6.229-1.823 12.387-2.771 18.567-9.284-.687-8.692-9.544-12.149-15.015a11.57 11.57 0 0 0-4.547-4.382l-.071-.023a14.6 14.6 0 0 0-5.282-.995c-1.018 0-2.013.118-2.984.285l.095-.023c-1.232 0-2.7 3.647-2.44 5.305 1.563 8.668 3.647 17.88 5.447 26.786.047.782.071 1.729.071 2.652s-.023 1.847-.071 2.77v-.142c-2.25-1.137-5.447-1.563-6.489-3.292-7.532-11.202-14.637-24.015-20.629-37.491l-.64-1.634c-2.582-7.034-4.595-9.45-11.273-8.668-8.147.97-11.984-2.085-11.367-10.823 0-4.76 0-12.575-2.25-13.879-7.555-4.003-15.275-9.71-24.915-6.584-5.045 1.563-9.615 2.44-11.889-4.595-2.605-6.655-7.365-12.007-13.38-15.275l-.166-.071c-4.429-2.677-4.429-7.01-.52-10.823a54 54 0 0 0 5.992-6.158l.071-.095c6.939-8.668 4.69-16.815-6.939-17.336S-.585 123.954.363 116.067c.403-5.282 1.445-10.16 3.079-14.802l-.118.427c9.047-23.044 23.209-42.369 41.184-57.313l.237-.19a20.6 20.6 0 0 1 5.4-2.889l.142-.048c5.707-2.535 13.286-8.668 16.91-6.679 8.075 3.979-.52 10.917-.52 16.649 0 9.545-4.239 20.13 4.429 28.609 1.302 1.303.877 4.69.782 7.01-.616 2.89-.97 6.229-.97 9.639v.853c.877 2.345 2.818 4.097 5.234 4.69h.047c1.99 0 5.897-2.534 5.897-3.908-.213-7.65-.829-14.92-1.871-22.096l.118 1.018c-.782-3.007-1.35-6.49-1.563-10.089v-.142c.427-3.103 3.032-5.447 6.205-5.447 1.8 0 3.434.758 4.57 1.966 10.23 8.668 21.007 17.336 30.646 26.525 7.65 7.365 21.079 4.69 26.052 16.034 0 0 2.865.521 3.907 0 11.557-6.868 23.352-13.357 34.719-20.889 8.17-5.565 15.465-12.482 23.257-18.662 2.605-1.989 5.565-3.647 8.668-5.447.521 3.457 1.137 6.94 1.563 10.42-.521 1.752-.521 3.908-.521 10.325l.142-.047zM105.657 193.436c6.773-5.802 13.712-11.439 19.965-17.336 1.042-1.018 0-5.897-1.658-7.697-6.134-7.129-12.599-13.57-19.539-19.491l-.26-.213c-6.868-5.542-14.068-1.99-18.497 5.992-5.992 10.68.971 19.444 4.097 28.017 1.303 4.334 9.379 6.679 15.37 10.775l.521-.048zm90.706-1.209s1.989 0 2.77-.97a161 161 0 0 0 15.252-19.372l.355-.592c.782-2.06 1.232-4.477 1.232-6.987 0-7.01-3.505-13.192-8.88-16.91l-.071-.047c-7.65-4.145-11.794 1.823-16.317 6.347a83.5 83.5 0 0 0-13.239 13.76l-.142.213c-2.25 3.742-3.647 11.889-1.658 13.617 5.85 4.145 12.505 7.815 19.562 10.68l.663.237.473.023zm-27.236-29.13c-.237-6.37-5.47-11.462-11.889-11.462a12.4 12.4 0 0 0-2.96.379l.095-.023c-1.87.97-4.097 1.54-6.465 1.54-1.823 0-3.552-.332-5.163-.97l.095.023a7.8 7.8 0 0 0-3.529-.829c-4.358 0-7.91 3.529-7.91 7.887 0 .782.118 1.563.332 2.273l-.023-.048c3.505 9.142 7.673 17.052 12.599 24.37l-.26-.427c1.303 1.989 8.668 3.292 9.26 2.179 5.305-7.697 9.995-16.223 15.37-24.891h.45z"/></svg>