<svg xmlns="http://www.w3.org/2000/svg" viewBox="0 0 300 300"><path d="M246.684 263.241c-2.569-2.109-5.025-4.05-7.406-6.075-1.444-1.228-2.934-1.613-4.725-.891-.319.131-.769.122-1.116.009-3.647-1.087-6.863-.806-9.684 2.213-1.078 1.144-2.738 1.8-4.219 2.494-5.278 2.428-10.622 4.697-15.872 7.162-3.759 1.762-7.697 2.803-11.737 3.666-2.691.581-5.372.806-8.119.844-.947.009-2.231.441-2.719 1.134-1.209 1.697-2.944 1.762-4.659 2.166-2.034.487-4.069.947-6.047 1.612-1.734.581-2.531 1.969-2.691 3.806-.084.844-.488 1.697-.825 2.503-1.256 3.113-2.466 6.234-3.853 9.272-.731 1.613-1.8 3.066-2.681 4.631-.403.731-.684 1.538-.984 2.194-2.616-3.094-5.269-6.291-7.959-9.441-.778-.919-1.781-1.669-2.494-2.625-1.116-1.491-1.969-3.206-3.178-4.603-1.106-1.294-2.466-2.428-3.853-3.431-1.35-.984-2.869-1.359-4.669-1.144-3.178.366-6.197-.281-9.234-1.575-2.813-1.209-6.019-1.538-9.038-2.278-.731-.178-1.519-.3-2.138-.675-3.741-2.25-5.719-.497-7.753 2.531-.703 1.041-1.322 2.128-1.997 3.178s-1.35 2.1-2.166 3.356c-.469-.966-.891-1.819-1.322-2.653-2.138-4.266-4.2-8.587-6.488-12.787-.609-1.106-1.903-1.828-2.925-2.681-2.963-2.447-5.869-4.969-8.925-7.284-2.344-1.781-4.856-3.328-7.35-4.903-2.259-1.425-4.631-2.681-6.844-4.191-1.369-.928-2.531-2.184-3.797-3.281-1.912-1.669-3.797-3.366-5.766-4.969-1.256-1.013-2.616-1.875-3.928-2.803-.037-.028-.066-.066-.103-.084-2.306-.366-2.803-2.475-3.928-4.003-1.687-2.25-3.787-3.516-6.694-2.775-.487-.628-.891-1.35-1.472-1.875-1.209-1.087-2.634-1.209-4.144-.619-1.331.525-2.663 1.05-3.984 1.575-.206.084-.469.131-.591.3-1.819 2.194-4.575 2.006-6.947 2.784-.778.253-1.584.469-2.531.75.591-1.688 1.275-3.234 1.697-4.847 1.059-4.144 2.006-8.334 2.991-12.506.422-1.781.928-3.553 1.256-5.344.216-1.266.272-2.587.225-3.862-.103-3.113-2.381-4.697-5.409-4.003-.469.112-1.078-.347-1.659-.563 2.869-4.819 3.666-9.609 2.709-14.906-.628-3.45-.525-7.013-.741-10.537 0-.037.009-.094 0-.131-.684-3.516-1.331-7.041-2.109-10.537-.131-.628-.713-1.238-1.256-1.687-2.1-1.734-4.434-3.206-5.934-5.588-.244-.394-.712-.647-1.087-.966 1.538-.862 3-1.753 4.528-2.541 2.213-1.172 2.934-3.262 3.094-5.456.206-2.85-.056-5.719.038-8.588.066-1.969.366-3.919.609-5.869.488-3.9 1.322-7.781 1.425-11.7.131-4.809 2.194-8.991 3.45-13.434.9-3.234 1.584-6.516 2.4-9.778.131-.553.422-1.078.619-1.612.581-1.537 1.275-2.972 1.181-4.753-.066-1.209.497-2.475.862-3.703.394-1.322.891-2.616 1.331-3.919.619-1.8 1.116-3.581 3.094-4.566 1.819-.9 3.122-2.447 4.172-4.238 2.166-3.703 4.444-7.322 6.675-10.987.741-1.209.778-2.419.131-3.703-.178-.347-.206-.872-.094-1.266.366-1.331 2.803-2.803 4.2-2.841 1.847-.056 3.591-.394 4.875-2.044 1.472-1.912 3.15-3.666 4.669-5.531.581-.712.956-1.575 1.453-2.353.188-.3.375-.619.647-.806 1.35-.928 1.875-2.222 1.847-3.806-.037-4.472-.084-8.944-.103-13.425 0-.244.028-.488.028-.459 3.263 1.566 6.544 3.094 9.787 4.697 2.597 1.266 5.25 1.875 8.128 1.134 1.453-.375 2.588-1.144 3-2.587.319-1.078 1.106-1.294 1.978-1.547 1.922-.563 3.881-1.05 5.737-1.763 6.169-2.381 12.253-5.034 18.487-7.228 2.878-1.022 6.047-1.172 9.056-1.847 3.741-.844 7.444-1.819 11.166-2.747.178-.037.337-.188.497-.178 4.191.338 5.681-2.991 7.584-5.672 2.419-3.403 4.05-7.219 5.456-11.147.225-.675.609-1.266.994-2.044 2.756 3.666 5.494 7.059 7.341 11.081 1.116 2.419 2.503 4.744 3.919 7.012 1.35 2.166 4.172 2.597 6.384.994.741-.534 1.275-.469 2.044-.159 1.359.534 2.756 1.041 4.191 1.331 2.409.497 4.669 1.275 6.938 2.316 2.719 1.238 5.953 1.303 7.594-1.884.375-.731 1.266-1.181 2.1-1.922.3 2.681.947 4.941 2.625 6.816.956 1.05 2.006 1.819 3.431 1.828 2.653.037 5.119.9 7.462 1.997 2.803 1.303 7.228.9 9.422-1.294.928-.947 2.034-1.697 3.084-2.559-.187 2.559-.441 5.006-.516 7.462-.084 2.869 2.869 5.578 5.653 5.906 5.034.609 9.263-1.444 13.5-3.609.797-.403 1.566-.844 2.466-1.35 0 1.425-.122 2.775.028 4.078.178 1.538.684 3.019.862 4.547.272 2.381.3 4.791.581 7.172.131 1.144.609 2.259.966 3.375.338 1.012.797 1.997 1.088 3.019.703 2.438 2.1 3.581 4.594 3.422 1.978-.131 3.947-.441 6.028-.703.028.534.122 1.35.094 2.128-.131 3.928.984 7.528 2.653 11.062 1.912 4.041 4.5 7.603 7.078 11.203.366.497.806.966 1.275 1.369 1.781 1.519 1.781 3.806 2.616 5.737s1.641 3.9 2.784 5.644c3.459 5.194 5.522 10.931 6.703 16.978.891 4.566 1.941 9.056 3.216 13.519.741 2.587.825 5.362 1.256 8.034.394 2.503 1.012 4.978 1.238 7.5.319 3.553.431 7.134.525 10.706.084 3.356.272 6.731-.038 10.059-.3 3.272-1.116 6.488-1.791 9.722-.75 3.581-1.613 7.153-2.409 10.716-.113.469-.122.984-.122 1.472.009 2.138.084 4.219-.834 6.319-.656 1.491-.684 3.3-.844 4.969-.319 3.3-1.762 6.056-3.863 8.531a8 8 0 0 0-1.022 1.566c-1.8 3.591-3.422 7.284-5.409 10.753-2.541 4.453-5.372 8.747-8.128 13.088-.75 1.181-1.631 2.344-2.625 3.338-1.819 1.828-1.941 4.313-2.616 6.534-1.012 3.328-1.613 6.769-2.503 10.153-.581 2.213-1.397 4.331-1.997 6.544-.281 1.05-.216 2.194-.403 3.281-.188 1.106-.488 2.222-.75 3.431zm-21.562-86.297c.066-.122.131-.244.206-.366 2.597 0 5.184.094 7.781-.028 2.1-.113 4.35.188 6.084-1.538.244-.225.741-.225 1.134-.272 1.903-.216 3.806-.375 5.7-.647.553-.084 1.2-.3 1.575-.675 1.884-1.903 3.422-4.078 3.581-6.844.131-2.316-.122-4.669.038-6.984.159-2.194-.656-3.769-2.259-5.156-2.466-2.156-5.006-4.228-8.484-4.041-2.4.122-4.191-.459-5.363-2.803 1.294-1.116 2.662-2.231 3.975-3.45 2.569-2.4 5.128-4.838 7.65-7.294 2.287-2.25 3.703-4.238 1.294-7.341-.347-.441-.563-1.012-.806-1.547-1.294-2.784-2.569-5.587-3.853-8.372-.862-1.875-1.791-3.703-2.569-5.597-.947-2.259-1.613-4.641-2.691-6.844-.769-1.575-1.8-3.15-3.084-4.331-1.509-1.388-3.356-2.447-5.184-3.431-.872-.469-2.091-.675-3.056-.497-1.238.225-2.587.713-3.544 1.509-2.962 2.447-6.6 3.403-10.069 4.547-5.981 1.969-12.197 3.188-17.906 5.991-.75.375-1.669.422-2.747.675.131-.947.15-1.631.347-2.25 1.181-3.741 2.438-7.472 3.591-11.231.591-1.913.966-3.9 1.547-5.813.806-2.634 1.762-5.25 2.616-7.875.863-2.663 1.762-5.334 2.438-8.034.188-.75-.375-1.697-.619-2.531-.206-.703-.516-1.369-.628-2.091-.122-.703-.056-1.425-.122-2.138-.206-2.25-2.138-3.825-4.322-3.262a7.2 7.2 0 0 0-3.084 1.725c-1.669 1.659-3.122 3.553-4.688 5.334-1.481 1.687-2.991 3.356-4.481 5.034-.15.159-.178.422-.309.591-1.041 1.331-2.091 2.662-3.141 4.003-.338-.516-.394-.806-.394-1.116-.056-6.3-.131-12.619-.122-18.919 0-3-2.925-6.047-5.737-6.263-2.044-.159-4.134-.703-6.056-1.444-2.963-1.134-5.775-2.691-9.047-2.756-4.116-.084-8.241-.206-12.356-.187-2.287.009-4.697-.253-6.647 1.453-.216.188-.581.225-.891.253-2.616.206-3.975 2.006-4.837 4.116-.844 2.1-1.35 4.35-1.978 6.544-1.013 3.497-1.997 7.003-2.972 10.462-2.353-4.162-4.744-8.297-7.031-12.478-1.134-2.044-2.691-2.897-4.838-2.353-2.166.553-3.263 2.016-3.187 4.331.103 3.619.394 7.247.309 10.847-.084 4.069-.516 8.119-.741 12.188-.094 1.734.056 3.478-.844 5.091-.216.394-.178.956-.178 1.453-.009 3.525-.009 7.041-.009 10.566v1.725c-.122.037-.253.084-.375.122-.713-.712-1.472-1.397-2.128-2.166-1.753-2.034-3.375-4.172-5.213-6.122-2.353-2.503-4.838-4.913-7.35-7.256-1.884-1.763-3.825-3.516-5.906-5.025-1.903-1.369-4.003-2.494-6.075-3.591-2.325-1.237-4.697-.797-6.731.834-2.719 2.166-4.575 5.025-6.319 7.931-.778 1.294-.825 3.066-1.688 4.266-1.734 2.4-.919 4.819-.487 7.219.553 3.094 2.344 5.672 3.891 8.344 1.697 2.934 3.272 5.934 4.931 8.897.563 1.013 1.2 1.978 1.828 2.963.947 1.453 1.95 2.869 2.831 4.359.647 1.116 1.022 2.381 1.669 3.497 1.584 2.691 3.272 5.334 4.884 8.006.347.591.581 1.256.956 2.1a48 48 0 0 0-.75-.272c-4.097-1.387-8.147-2.972-12.309-4.097-5.344-1.444-10.8-2.522-16.209-3.713-1.172-.253-2.4-.525-3.572-.422-2.306.188-4.406 3.113-4.191 5.484.037.459-.056.947-.159 1.397-.187.769-.591 1.519-.628 2.287-.159 3.263-.122 6.544-.347 9.787-.15 2.194.581 3.787 2.325 5.072.891.656 1.612 1.547 2.353 2.372.216.244.459.703.366.947-.553 1.387-1.2 2.747-1.8 4.116-.403.919-1.2 1.856-1.144 2.756.206 3.806.403 7.659 1.087 11.4.431 2.381.825 4.716.9 7.153.094 2.662 1.912 5.897 4.941 5.653 1.397-.113 2.869-.394 4.162-.947 4.069-1.753 8.053-3.666 12.075-5.494.806-.366 1.659-.656 2.681-1.05-.347 1.509-.675 2.681-.891 3.862-.619 3.338-1.172 6.694-1.8 10.031-.469 2.541-1.228 5.053-1.453 7.603-.253 2.803.863 5.4 2.906 7.247 2.587 2.325 5.925 3.825 7.716 7.069.609 1.106 1.584 2.016 2.156 3.15.919 1.819 2.569 3.047 4.509 2.709 1.912-.338 3.713-1.106 4.931-2.738 2.006-2.691 3.891-5.466 5.906-8.147.862-1.144 1.922-2.128 3.084-3.375.084 1.584.056 2.803.216 3.984.638 4.547 1.266 9.103 2.044 13.641.431 2.494 1.209 4.856 3.947 5.953 1.35.534 2.559 1.444 3.834 2.184 2.278 1.331 6.431.525 8.156-1.444 1.781-2.034 2.878-4.378 3.853-6.853.684-1.753 1.603-3.403 2.466-5.213.609 1.566 1.106 2.897 1.659 4.219.563 1.359 1.2 2.691 1.753 4.05.187.469.337 1.022.309 1.519-.206 3.019 1.116 5.213 4.078 5.906 2.006.469 3.984 1.05 5.981 1.519 1.978.469 4.134.225 6.206.206 2.184-.028 4.378-.131 6.553-.281 2.784-.206 5.588-.431 8.363-.741 2.991-.338 4.847-1.884 5.072-5.072.056-.703.159-1.538.581-2.016 1.387-1.603 1.584-3.572 1.969-5.475.441-2.287.797-4.594 1.116-6.544 2.409 3.431 4.931 7.059 7.5 10.622.431.591 1.078 1.181 1.753 1.388 1.303.403 2.691.741 4.05.741 2.091 0 4.191-.534 6.244-.422 3.366.206 5.644-1.997 8.25-3.403.75-.403 1.256-1.631 1.472-2.569.244-1.059.159-2.231.009-3.338-.581-4.069-1.2-8.119-1.875-12.169-1.144-7.012-2.353-14.016-3.487-21.028-.253-1.612-.3-3.272-.431-4.903.628.516.928 1.088 1.387 1.509q5.499 5.034 11.025 10.013c1.997 1.791 4.041 3.525 6.009 5.344 1.481 1.359 2.831 2.869 4.331 4.191 2.738 2.381 6.975 1.687 9.516.009 2.719-1.781 3.703-4.688 4.472-7.697.741-2.906.459-5.644-1.369-8.016-2.381-3.066-4.912-6.019-7.416-8.991-1.35-1.613-2.756-3.15-4.144-4.716z"/></svg>