<svg xmlns="http://www.w3.org/2000/svg" viewBox="0 0 300 300"><path d="M152.381.619c10.059-2.428 19.997 2.822 30.309 6.366 6.094 2.081 11.016 5.709 14.963 10.706 1.416 1.8 2.766 3.769 3.609 5.878 1.781 4.509 4.5 8.391 7.097 12.422a35 35 0 0 1 3.881 8.306c1.753 5.634 3.384 11.362 4.584 17.147.984 4.8 1.828 9.75 1.744 14.634-.103 6.262-1.172 12.506-1.866 18.759-.356 3.122.131 5.85 1.613 8.822 1.444 2.888 1.997 6.497 1.959 9.778-.075 5.981 1.669 11.475 3.9 16.744 2.7 6.356.909 10.134-4.509 14.147-5.897 4.35-11.662 8.869-17.541 13.219-.9.675-2.128 1.181-3.244 1.238-3.038.169-6.094-.075-9.131.131-1.013.075-2.203.769-2.916 1.556-5.025 5.494-6.253 12.206-6.197 19.388.028 3.656-.375 7.322-.553 10.988-.047.741-.216 1.631.103 2.231 2.128 3.994-.497 6.094-3.169 8.147-3.028 2.316-6.197 4.444-9.131 6.834-2.241 1.838-4.144 4.116-6.366 5.962-1.941 1.631-4.097 3.028-6.262 4.341-1.472.9-2.859.956-4.472-.403-1.472-1.228-3.694-1.5-5.428-2.494-5.634-3.253-11.203-6.637-16.772-10.003-4.556-2.756-9.038-5.606-13.622-8.306-1.688-.984-1.397-2.288-1.256-3.797.553-5.794 1.2-11.588 1.472-17.4.159-3.384-.647-6.684-2.494-9.666-1.097-1.753-1.941-3.666-2.869-5.541-2.784-5.606-11.222-6.422-14.963-1.425-3.469 4.622-8.494 4.753-12.319.413-1.228-1.397-2.531-2.841-4.069-3.844-6.525-4.172-9.797-10.275-11.25-17.653-.769-3.9-1.669-7.763-2.709-11.588-.281-1.069-1.238-1.997-1.988-2.916-2.437-2.925-2.494-5.194.169-7.912 1.631-1.641 3.572-2.972 5.306-4.5 3.656-3.188 4.941-9.881 2.794-14.119-.244-.487-.375-1.153-.244-1.669 2.072-8.353 1.472-16.734.881-25.209-.553-8.091-1.369-16.444 2.1-24.169 2.044-4.556 4.444-9.066 7.425-13.031 4.481-5.963 9.534-11.531 14.522-17.1 4.913-5.494 11.606-7.847 18.469-9.666 7.753-2.044 15.506-4.209 23.381-5.625 4.378-.769 9.075-.131 15.075-.131zm20.944 139.453c1.528-.169 2.728-.197 3.881-.469 2.494-.572 4.978-1.238 7.453-1.941 3.394-.956 6.966-1.575 10.125-3.056 5.241-2.484 8.381-7.341 11.438-11.991.947-1.444.581-3.872.487-5.841-.075-1.425-.816-2.794-1.041-4.228-.356-2.241-1.303-3.281-3.525-3.188-2.297.113-4.641.253-6.881.759-3.797.844-7.491 2.044-11.278 2.972-3.028.741-6.253.928-9.103 2.053-2.531 1.003-4.678 3-7.013 4.509-.328.216-.769.431-1.116.375-1.509-.253-2.316.431-3 1.725-.497.956-1.313 1.8-2.128 2.559-2.241 2.1-2.766 7.537-.703 9.722 3.422 3.628 7.837 5.325 12.403 6.037zm-67.941 3.422c3.928-.488 8.681-.469 13.031-1.772 3.656-1.097 6.862-3.694 10.238-5.7 3.169-1.866 3.028-3.572.975-6.713-.872-1.341-2.438-2.494-3.938-3.084-4.678-1.838-9.431-3.572-14.278-4.969-9.197-2.672-18.497-4.406-28.097-1.959-2.494.628-4.097 3.956-2.681 6.056 1.913 2.831 3.741 5.738 5.925 8.353 4.725 5.625 10.491 9.469 18.825 9.778zm30.666 22.884c-.113 1.744.787 2.456 2.231 2.625 1.256.159 2.541.084 3.797.225.628.075 1.425.169 1.809.572 1.716 1.753 3.609 1.941 5.869 1.275 3.028-.9 6.112-1.641 9.178-2.4 1.341-.328 1.697-1.575.928-2.128-2.344-1.688-2.128-4.284-2.897-6.553a976 976 0 0 0-6.225-17.784c-.713-1.988-2.887-2.381-4.313-.684-1.472 1.753-2.897 3.656-3.816 5.709-1.387 3.122-2.325 6.469-3.422 9.722-1.069 3.159-2.1 6.291-3.141 9.422z"/><path d="M19.369 174.891c2.428-1.659 4.444-2.887 6.281-4.341.844-.675 1.669-1.688 1.931-2.7.384-1.575.844-3.525.225-4.838-.956-2.053-3.3-2.353-5.484-2.166-1.556.141-3.094.459-4.65.609s-2.859-.375-3.356-1.997c-1.416-4.481-3.084-8.925-4.078-13.5-1.284-5.822-2.466-11.738-2.859-17.653-.403-6.253.103-12.563.384-18.844.272-5.981.328-12.038 1.341-17.916.956-5.55 3.056-10.894 4.641-16.341.384-1.341.459-2.822 1.059-4.05 3.009-6.178 5.841-12.488 9.309-18.413 4.481-7.622 11.494-12.9 18.403-18.188.609-.469 1.584-.459 2.381-.656.047.853.413 1.866.084 2.541-1.941 3.881-3.872 7.781-6.113 11.494-4.772 7.894-7.491 16.547-8.841 25.528-1.228 8.278-1.809 16.669-2.203 25.05-.441 9.581 1.125 18.919 3.984 28.125 1.387 4.472 4.069 7.941 6.366 11.747.581.956.984 2.053 1.688 2.916 2.438 3.056 1.809 5.606-.741 8.306-2.325 2.466-2.231 4.584-.328 7.491 1.828 2.784 4.725 2.925 7.191.319.459-.488.816-1.041 1.416-1.828 1.172 1.716 2.316 3.244 3.253 4.884.216.375-.197 1.209-.497 1.744-.731 1.303-1.781 2.438-2.316 3.816-.928 2.409-.197 4.284 1.753 5.437s4.556.703 6.122-1.031c.347-.384.675-.769 1.228-1.388 1.453 1.425 2.916 2.7 4.181 4.144.956 1.088.469 1.912-.769 2.644-1.556.909-3.272 1.884-4.284 3.281-.741 1.031-.853 2.869-.544 4.181.375 1.575 1.903 2.259 3.581 2.072 3.253-.356 6.534-.675 7.612-4.697.075-.253 1.528-.497 2.053-.216.816.441 1.331 1.387 2.025 2.053 2.156 2.053 2.194 2.766.047 4.894-1.641 1.613-1.744 3.609-1.453 5.634.075.459 1.013 1.069 1.603 1.125 2.081.225 3.769-.609 5.072-2.316 1.716-2.231 3.094-2.325 5.222-.488 2.813 2.428 2.897 3 1.172 6.45-.431.872-.759 1.8-1.059 2.728-.628 1.941-.244 3.572 1.641 4.622 1.537.853 3.909.384 4.978-1.313.853-1.369 1.388-2.981 1.828-4.538.525-1.866 1.313-2.316 2.953-1.256 1.069.684 2.072 1.481 3.066 2.269.928.731 1.059 1.397.441 2.644-.9 1.809-1.481 3.9-1.716 5.906-.225 1.987 1.716 3.928 3.638 4.209 1.856.272 3.309-.844 4.069-3.113 1.472-4.444 1.472-4.425 5.297-1.669.713.516 1.481.975 2.428 1.575-.9 1.913-1.866 3.666-2.587 5.522-1.416 3.684 1.5 8.025 5.1 7.369 1.416-.253 2.841-1.509 3.797-2.7.947-1.153 1.284-2.794 1.987-4.472 1.828 2.016 3.638 3.872 5.241 5.878.3.375-.141 1.397-.347 2.1-.975 3.441-.384 4.584 3.141 4.894 3.066.272 6.122.609 9.066-1.341 1.716-1.144 4.069-1.659 6.178-1.8 5.569-.375 11.203-1.369 16.603 1.153.797.375 1.725.731 2.588.703 3.844-.159 6.637 2.184 9.553 4.05 1.744 1.125 2.653.544 3.525-.731 1.912-2.831.975-5.428-1.069-7.997 1.884-1.416 3.722-2.784 5.513-4.125 1.2 1.125 2.128 2.344 3.356 3.094 1.828 1.116 3.872 1.313 5.681-.159 1.659-1.359 1.969-3.028 1.153-5.044-.459-1.116-1.238-2.813-.769-3.469 1.303-1.828 3.169-3.244 5.278-5.269.825 3.197 1.416 5.962 4.509 6.506 1.041.187 2.344.103 3.225-.384 2.588-1.416 2.269-4.35-.956-9.122 2.681-1.284 5.325-2.559 7.978-3.825 3.516 3.666 5.822 4.5 7.819 2.831 1.959-1.631 1.828-4.725-.075-7.584.9-1.097 1.659-2.213 2.616-3.122 1.303-1.238 2.625-1.809 4.238-.159.844.872 2.128 1.425 3.309 1.809 5.409 1.8 8.194-.281 7.847-5.962-.075-1.144-.9-2.513-1.8-3.281-2.597-2.213-2.7-3.516-.056-5.606.3-.225.572-.487.844-.741 4.472-4.238 4.697-3.488 8.119.244.947 1.031 4.613 1.331 5.438.328.403-.488.516-1.631.225-2.213-1.275-2.672-2.344-5.513-5.4-6.909-.516-.225-.909-1.931-.581-2.569 1.041-2.072 2.381-3.984 3.713-5.897 1.125-1.631 2.766-1.444 3.75.319.328.581.525 1.275.947 1.753 3.094 3.572 6.581 3.084 8.241-1.341 1.359-3.609 2.831-7.322 1.809-11.306-.403-1.575-1.303-3.009-1.716-4.584-.225-.853-.225-2.081.225-2.737 4.228-6.094 6.666-12.834 7.678-20.156.328-2.372 1.087-4.669 1.472-7.041 2.316-14.147 4.153-28.294 2.259-42.684-1.228-9.366-3.356-18.403-8.147-26.663-.9-1.537-1.313-3.366-2.138-4.95-.816-1.537-1.744-3.084-2.887-4.378-1.828-2.072-2.231-5.006-.319-7.622 2.372 1.987 4.912 3.769 7.022 5.981 3.159 3.3 6.037 6.863 8.962 10.378 2.972 3.572 5.784 7.191 7.397 11.691 2.109 5.906 5.072 11.559 6.806 17.569 2.259 7.809 3.844 15.844 5.381 23.841.947 4.913 1.359 9.919 1.772 14.916.741 8.869-.656 17.541-3.328 25.922-2.484 7.809-5.634 15.412-8.419 22.912-.703.028-.872.103-.975.047-2.897-1.509-5.522-1.453-7.894 1.097-1.425 1.528-3.122 2.831-4.481 4.416-.6.703-.872 1.838-.956 2.813-.169 1.866.797 2.784 2.728 2.541.3-.047.6-.019.9-.019 1.688.047 3.6-.441 4.322 1.809.703 2.156-.028 4.116-1.884 5.606-.684.553-1.2 1.303-1.903 2.081-2.644-2.241-5.766-1.959-8.794-1.631-3.056.328-4.284 1.941-4.481 5.213-.131 2.044 1.725 4.566 3.844 5.25.684.216 1.369.413 2.484.741-2.156 2.709-4.069 5.109-6.037 7.584-3.028-4.912-5.7-6.206-10.247-4.622-1.369.488-2.944 1.725-3.45 3.009-.703 1.725.253 3.581 1.941 4.622 1.631 1.031 3.394 1.828 5.325 2.831-.384.431-.9 1.013-1.397 1.603-.872 1.031-1.941 1.959-2.569 3.112-1.575 2.916-2.4 3.066-4.537.497-.469-.572-.947-1.228-1.125-1.912-.413-1.509-1.509-1.744-2.766-1.716-3.216.075-5.606 3.638-4.5 6.656.909 2.456 2.4 4.313 5.1 4.912-.881 2.184-2.616 3.581-6.694 5.438-1.144-1.828-2.287-3.638-3.441-5.466-1.069-1.716-2.681-1.753-4.369-1.284-2.944.825-4.997 5.597-3.394 8.175.881 1.444 2.156 2.672 3.394 3.844.984.947 1.013 1.669.084 2.625-1.416 1.444-2.709 3-4.125 4.453-.947.956-1.856 1.003-2.372-.459-.572-1.612-.881-3.384-1.725-4.837-.816-1.397-2.438-3.666-3.216-3.487-1.941.469-4.097 1.753-5.269 3.356-2.287 3.122-1.912 4.116.881 6.919.525.525 1.116 1.059 1.472 1.688.741 1.341.881 2.7-.647 3.656-1.209.759-2.409 1.556-3.722 2.072-2.512.975-3.628.253-4.378-2.353-.403-1.359-.984-2.672-1.603-3.956-1.144-2.409-3.056-3.188-5.55-2.297-2.813 1.003-4.172 3.169-3.253 5.737.6 1.659 1.509 3.253 2.588 4.669 2.081 2.738 2.044 4.266-.581 6.497-1.753 1.481-3.666 2.569-6.113 2.4-1.556-.113-2.297-.741-2.287-2.372.019-2.025.084-4.078-.244-6.056-.581-3.45-2.184-3.994-4.8-1.744-1.584 1.369-3.094 2.841-4.566 4.322-.328.328-.487.9-.544 1.387-.412 4.069-.225 8.053 1.116 11.991 1.744 5.128-.853 9.506-6.15 10.734-4.35 1.003-7.434 4.725-7.819 9.806-.328 4.2-1.397 8.166-3.825 11.55-.9 1.256-2.897 2.212-4.481 2.381-3.938.412-7.941.347-11.906.356-2.241 0-3.169-2.044-3.122-3.525.131-4.313-1.997-7.65-3.872-11.175-.872-1.631-1.397-3.441-2.259-5.072-1.003-1.913-2.709-2.484-4.884-2.569-1.603-.056-4.05-.403-4.594-1.425-1.5-2.859-3.9-5.653-2.756-9.375.3-.975.497-2.016.487-3.028 0-3.366-.113-6.75-.197-10.125-.084-3.253-2.756-5.297-5.953-4.556-3.928.9-5.512 2.709-5.634 6.534-.056 1.641-1.237 2.269-2.409 1.913-2.241-.684-4.481-1.603-6.478-2.813-1.359-.825-.984-2.466.647-3.3 3.028-1.556 4.725-3.938 5.334-7.313.6-3.3-2.016-4.144-3.844-5.672-1.584-1.313-3.244-.909-4.528.188a35.8 35.8 0 0 0-5.109 5.278c-1.697 2.184-2.766 2.409-4.612.384a42 42 0 0 0-1.528-1.641c-2.1-2.109-1.688-3.966 1.125-5.128 3.253-1.331 4.125-2.559 4.125-5.822 0-3.469-2.466-5.512-5.606-4.022-2.325 1.097-4.528 2.972-6.122 5.006-1.509 1.959-2.916 1.472-4.481.825-2.287-.947-3.909-3.384-3.328-4.8.187-.441.853-.712 1.341-1.003 1.997-1.172 3.881-2.541 4.013-5.044.056-1.125-.319-2.738-1.097-3.384-4.172-3.366-8.934-2.597-10.978 2.428-.956 2.372-1.828 2.625-3.694.825-1.012-.984-1.959-2.072-2.841-3.188-1.041-1.341-.141-2.316.731-3.328 2.325-2.7 2.081-7.266-.441-9.319-2.466-1.997-6.938-1.059-8.363 1.772-1.341 2.653-1.997 2.831-4.369 1.012-.825-.647-1.528-1.425-2.316-2.128-1.387-1.256-1.416-2.409-.028-3.816 2.287-2.325 2.756-5.222 2.081-8.325-.497-2.287-2.587-2.841-4.322-2.953-1.181-.075-2.484 1.153-3.666 1.903-1.003.628-2.044 2.1-2.841 1.959-1.172-.225-2.531-1.341-3.113-2.438-2.822-5.334-2.737-5.381 2.344-8.466 2.156-1.313 2.728-3.028 1.556-4.622-1.256-1.716-4.209-2.025-5.841-.647-3.366 2.887-3.469 2.869-6.413-.347-1.584-1.697-3.216-3.3-4.678-4.809zm142.687 94.828c4.322.047 6.919-1.669 6.966-4.884.019-1.481-.928-3.244-1.959-4.425-1.181-1.387-2.541-.159-3.75.6-1.003.609-2.288.872-3.141 1.631-1.097.975-2.644 2.297-2.644 3.45 0 1.097 1.669 2.297 2.784 3.253.488.413 1.416.319 1.744.375m-32.306-6.694c.281 3.197 1.2 5.222 3.713 6.384 1.912.872 3.609.797 5.25-.497 1.781-1.416 1.772-3-.056-4.369-1.444-1.087-2.869-2.184-4.397-3.122-.825-.497-2.203-1.209-2.709-.881-.928.6-1.416 1.913-1.8 2.494zm20.016 7.838q-.38.127-.787.253c-.713 2.353-1.528 4.678-2.053 7.069-.141.609.487 1.969.947 2.053 1.369.253 2.841.188 4.209-.075.3-.056.6-1.472.469-2.184a31 31 0 0 0-1.284-4.997c-.281-.788-.984-1.425-1.5-2.128z"/></svg>