<svg xmlns="http://www.w3.org/2000/svg" width="300" height="300" viewBox="0 0 300 300"><title>factions-order-khainite-shadowstalkers</title><path d="M183.769 116.737c-7.463 8.006-15.047 15.928-22.378 24.075-6.619 7.35-13.378 14.634-19.331 22.519-8.766 11.616-16.969 23.653-25.172 35.672-2.119 3.103-2.981 4.716-6.619 1.097-15.928-15.834-22.734-34.369-20.738-57 1.2-13.509 5.4-25.706 10.622-37.8 1.2-2.766 3.394-5.175 5.409-7.509 1.884-2.166 3.328-1.106 4.772.956a1450 1450 0 0 0 16.556 23.156c2.494 3.413 5.306 6.572 7.734 10.022.722 1.013.637 2.597.919 3.919-1.247-.253-2.653-.234-3.666-.853-.731-.45-.956-1.753-1.397-2.672-.516.469-1.022.919-1.528 1.387.825 1.931 1.641 3.863 3.084 7.228-11.878-3.684-15.628-13.837-23.269-21.712-1.031 2.953-1.969 5.062-2.513 7.256-1.753 7.106-3.375 14.241-5.034 21.375-2.409 10.313.722 19.219 6.909 27.356.206.272.403.544.581.834 4.453 7.734 5.175 7.566 10.266-.384 3.225-5.025 7.097-9.647 10.809-14.334 5.869-7.378 12.094-14.475 17.709-22.022 10.528-14.175 20.738-28.575 31.078-42.891.581-.816 1.219-1.584 1.65-2.138 8.55 1.65 12.019 8.522 15.572 14.766 3.488 6.159 6.431 12.778 8.503 19.538 1.706 5.569 2.044 11.634 2.55 17.512.422 4.913.441 9.891.197 14.813-.403 7.969-.525 16.012-5.213 23.128-3.478 5.278-6.384 10.959-9.797 16.303-.759 1.172-2.559 1.678-3.872 2.494-.516-1.359-1.575-2.766-1.434-4.059.394-3.628-1.172-5.1-4.444-6.375-2.372-.928-4.528-3.15-6.075-5.306-6.019-8.353-11.137-17.475-21.459-21.863 1.912-5.156 3.534-9.787 5.4-14.325.375-.9 1.603-1.622 2.606-1.987.375-.141 1.659.872 1.744 1.481 1.266 8.916 7.566 13.322 14.569 17.709 3.909 2.447 6.628 6.797 10.388 10.828 2.362-10.388 6.853-20.353 5.512-31.716-1.266-11.353-2.813-22.444-11.231-30.45z"/><path d="M213.6 59.559c-.244-1.997-.441-3.666-.638-5.259 11.728-11.344 23.391-22.603 35.269-34.078 1.659 4.725-1.191 8.212-3.469 11.531-4.762 6.937-9.9 13.603-14.972 20.306-2.691 3.553-5.756 6.834-8.334 10.462-1.697 2.4-2.794 5.212-4.903 9.253 4.472.159 7.472.281 11.756.431-2.222 3.319-4.022 6.741-6.506 9.563-3.103 3.534-2.569 6.159-.403 10.238 4.959 9.375 10.134 18.759 11.972 29.522.806 4.734 2.016 9.656 4.284 13.8 1.406 2.569 4.162 5.738 8.391 4.716 1.003-.244 2.091-.3 3.009-.731 4.603-2.119 8.981-2.409 14.269-1.556 11.137 1.791 22.547 1.922 33.834 2.766.928.066 1.847.441 2.841 1.819-5.438.759-10.866 1.453-16.294 2.269-10.228 1.547-20.456 3.169-30.684 4.725-1.528.234-3.075.422-4.603.441-4.453.084-8.269.834-8.484 6.516-.028.581-1.294 1.022-1.744 1.697-.863 1.284-2.306 2.747-2.175 4.003.769 7.659-.009 14.766-5.306 20.888-.769.881-1.303 3.319-.806 3.759 4.088 3.638.525 7.059-.45 10.134-1.838 5.822-4.359 11.334-3.188 17.719.234 1.266-.769 3-1.641 4.2-2.719 3.778-1.931 6.797 1.35 9.778 2.138 1.941 4.247 6.366 5.803 6.113 8.409-1.341 8.381 5.916 11.419 10.031 8.025 10.875 16.078 21.759 24.112 32.634.272.375.403.853 1.209 2.559-2.063-.722-3.366-.787-4.05-1.481-7.397-7.462-16.641-12.75-22.744-21.956-3.759-5.653-10.959-9.009-16.491-13.547-1.341-1.097-2.963-2.691-3.122-4.191-.441-4.303-2.925-6.422-6.619-7.566-4.622-1.434-7.491-3.806-6.225-9.272 1.116-4.828-2.203-6.769-5.953-8.203-4.191-1.594-4.556-3-1.847-6.45 8.391-10.659 14.925-22.106 16.041-36.084.253-3.263 1.8-6.403 2.756-9.6.244-.816.731-1.641.684-2.447-.806-14.784 1.369-30.056-5.531-43.931-3.478-7.003-8.287-13.35-12.291-20.109-1.247-2.119-1.772-4.65-2.719-6.956-.356-.872-.881-2.213-1.547-2.363-4.716-1.069-3.234-3.656-2.044-6.581.638-1.556.609-3.478.525-5.222-.188-3.872 2.456-6.788 5.869-5.663 4.275 1.406 5.119-.881 5.222-4.144.113-3.234.666-5.784 5.175-4.472zm23.831 87.591c-3.281-2.081-5.419-4.5-7.378-4.359-1.688.131-3.169 3.169-4.734 4.922 1.997 1.725 3.806 4.2 6.113 4.828 1.125.319 3.216-2.766 6-5.391zM50.091 270.15c2.794-4.556 5.587-9.113 8.362-13.669 1.5-2.466 2.813-5.072 4.528-7.378 1.837-2.475 4.209-4.547 6.019-7.05a28.3 28.3 0 0 0 3.525-6.619c1.359-3.675 2.381-7.481 3.459-11.25.816-2.85 1.772-4.903 5.569-4.538 2.719.272 3.853-4.238 1.969-7.828-1.106-2.119-2.372-4.228-3.909-6.047-7.181-8.531-10.65-18.591-14.194-29.034-2.016-5.897-3.797-13.078-9.891-17.503-4.622-3.347-7.434-3.619-12.112.197-1.2.975-3.553.834-5.353.741-4.2-.206-8.4-.562-12.563-1.116-3.778-.516-7.491-1.547-11.287-2.044-3.225-.431-6.516-.347-9.778-.638-1.528-.141-3.009-.609-4.434-1.884 5.803-1.359 11.578-2.925 17.428-4.041 9.103-1.725 18.291-3 27.375-4.781 2.653-.525 4.294-.675 5.934 2.025.862 1.434 4.209 3.075 4.912 2.55 1.622-1.209 2.944-3.563 3.281-5.616 1.313-8.044 1.584-16.294 3.441-24.169 1.294-5.494 4.387-10.603 7.003-15.703 3.619-7.088 6.066-14.409 5.494-22.472-.206-2.963-1.106-5.156-4.875-5.353-1.416-.066-3.506-1.837-3.966-3.263-1.444-4.35-2.062-8.981-3.431-13.369-.431-1.387-2.128-2.503-3.441-3.469-5.663-4.087-9.169-9.412-10.584-16.031.394-.347.778-.712 1.172-1.059 3.581 2.981 7.238 5.869 10.725 8.934 6.647 5.831 13.322 11.625 19.687 17.747 1.191 1.153 1.341 3.778 1.294 5.709-.066 2.963.881 4.603 3.713 5.925 3.244 1.509 6.084 3.9 10.003 6.516-3.75 8.287-7.688 16.856-11.503 25.5-5.906 13.369-10.331 27.066-8.606 42.019.731 6.366.722 12.9 2.222 19.069.966 3.966 3.778 7.613 6.262 11.044 6.759 9.347 13.819 18.478 20.653 27.787.647.881 1.153 2.859.666 3.422-1.209 1.369-2.953 3-4.603 3.141-5.325.441-6.038 1.219-5.606 6.422.131 1.509-1.031 3.459-2.166 4.688-11.981 13.031-24.075 25.959-36.141 38.906-1.481 1.594-2.991 3.15-4.481 4.725-.581-.384-1.172-.769-1.753-1.144zm21.093-115.453c.356-.375.722-.731 1.078-1.106-1.781-1.697-3.563-3.412-5.344-5.109-1.884 2.034-4.922 3.909-5.259 6.178-.244 1.603 2.925 4.941 5.016 5.391 3.028.638 5.391-1.509 4.5-5.353zM163.8 181.978c1.744 3.928 3.178 7.622 1.369 12.347-1.144 2.991-.431 6.225 1.753 9.778 3.075 4.988 4.537 11.4 5.119 17.363.422 4.331-3.863 7.209-7.884 8.316-1.688.469-4.744-.928-5.944-2.456-2.156-2.738-3.956-5.409-1.753-9.975 2.222-4.641 1.753-10.556 2.588-15.891 1.003-6.497 2.128-12.975 3.216-19.463.525 0 1.031 0 1.547-.009z"/></svg>