<svg xmlns="http://www.w3.org/2000/svg" xml:space="preserve" fill-rule="evenodd" stroke-linejoin="round" stroke-miterlimit="2" clip-rule="evenodd" viewBox="0 0 300 300"><path fill-rule="nonzero" d="M287.138 1.447c-3.145 2.117-3.828 3.821-4.92 12.268-.993 7.686-2.54 11.202-7.546 17.164-3.297 3.928-14.053 5.93-38.99 7.261-43.638 2.328-43.498 2.302-50.842 9.86-2.064 2.125-5.2 4.606-6.97 5.513-1.795.921-3.98 2.78-4.949 4.21-3.997 5.91-15.758 15.698-19.475 16.21-5.815.8-9.674-.57-14.183-5.033-2.146-2.125-7.127-6.953-11.067-10.731s-8.026-7.998-9.076-9.377c-5.5-7.225-18.262-9.214-59.58-9.29-29.481-.053-30.428-.398-37.605-13.682-1.777-3.288-2.934-6.46-3.236-8.872-1.334-10.64-3.046-12.304-8.162-7.932C2.969 15.48-.321 27.692.025 48.024l.212 12.442 2.802 5.368c2.494 4.777 3.096 5.46 5.46 6.194 1.46.454 6.239 1.95 10.616 3.326l7.959 2.5 3.984-2.247c16.988-9.58 23.109-10.022 34.122-2.474 11.288 7.737 13.03 21.33 3.991 31.162-5.631 6.125-5.827 12.333-.66 20.921 3.536 5.876 3.659 5.942 17.43 9.321 6.976 1.711 15.42 4.193 18.768 5.513 3.683 1.454 7.567 2.483 9.838 2.607l3.754.203 1.366-2.729c4.294-8.588 1.46-13.57-8.137-14.31-7.886-.609-9.887-1.582-13.051-6.347-6.499-9.787-4.003-18.55 5.29-18.58.64-.003 2.267.744 3.614 1.658 1.348.914 4.35 2.373 6.672 3.242 5.23 1.956 21.428 17.526 23.932 23.002 2.943 6.44 1.603 19.692-2.104 20.815-1.16.352-9.57 1.765-10.562 1.775-1.93.02-1.878 2.964.105 5.957 1.15 1.735 2.09 3.539 2.09 4.009 0 .91 5.38 5.62 9.895 8.66 1.502 1.011 3.514 2.473 4.474 3.244 4.57 3.686 13.619.905 18.102-5.563 1.24-1.79 3.285-3.458 5.79-4.722 5.63-2.842 7.477-7.603 4.71-12.141-1.43-2.345-2.037-2.437-6.964-1.05-1.648.463-4.302-2.59-5.148-5.92-.794-3.13.092-6.88 2.867-12.13.931-1.761 2.135-4.275 2.675-5.59 2.468-5.994 17.27-19.946 26.11-24.61 12.96-6.839 20.38 6.117 9.914 17.306-4.023 4.3-4.383 4.467-12.95 5.974-15.065 2.65-15.728 15.66-.8 15.66 1.025 0 4.825-1.383 8.444-3.075 6.472-3.024 17.387-5.79 22.872-5.794 10.965-.01 17.295-17.353 10.588-29.006-6.969-12.107-4.102-24.757 7.377-32.552 11.618-7.889 19.5-8.047 30.438-.609 8.152 5.543 13.448 5.444 18.76-.351 1.214-1.327 4.352-3.718 6.97-5.313 6.25-3.807 6.91-5.09 8.302-16.154 1.968-15.643-.666-33.938-6.407-44.486-2.002-3.676-3.032-3.948-6.396-1.683M45.996 125.862c-1.1 1.1-1.372 2.4-2.407 11.539-1.9 16.788.109 26.743 6.54 32.39 2.75 2.414 4.137 2.492 17.387.99 4.867-.552 7.131.561 10.514 5.171 4.298 5.854.764 8.105-13.462 8.583-4.872.162-10.635.757-12.808 1.32-5.801 1.503-5.83 1.492-11.6-4.436-8.77-9.009-12.275-6.61-11.357 7.773 1.242 19.462 4.342 22.546 18.812 18.712 12.911-3.42 20.912-2.445 24.892 3.038 1.95 2.682 1.846 11.83-.182 16.2-4.25 9.162 7.698 14.795 15.48 7.298 3.634-3.5 6.172-7.843 6.597-11.292.584-4.723 2.335-10.235 4.475-14.083 1.046-1.88 2.437-5.416 3.092-7.855 1.726-6.438 2.736-8.069 5.968-9.638l2.886-1.402 3.88 1.716c2.811 1.243 4.405 2.496 5.786 4.55 1.049 1.558 4.138 5.34 6.867 8.405 7.633 8.573 10.054 16.949 6.76 23.385-1.94 3.788-3.52 12.892-4.552 26.215-.501 6.48-1.237 10.395-3.061 16.296-3.614 11.686-3.63 11.61 4.043 19.656 11.764 12.34 15.906 12.626 26.385 1.816 8.775-9.052 9.261-12.03 5.773-35.38-1.01-6.756-2.094-15.356-2.408-19.108-.365-4.354-1.096-8.03-2.019-10.156-2.754-6.345-.1-14.578 7.24-22.452 2.558-2.742 5.462-6.392 6.455-8.109 3.274-5.662 9.493-8.136 15.793-6.283 3.005.885 8.175 15.45 10.117 28.502 1.594 10.723 10.483 17.727 17.774 14.007 3.207-1.636 3.28-1.928 3.107-12.619-.26-16.208 10.496-23.065 26.244-16.73 12.215 4.915 18.576-.787 19.477-17.459.583-10.784-3.602-13.92-9.376-7.024-4.655 5.56-6.338 5.95-18.063 4.183-2.552-.385-4.342-.206-7.101.708-5.652 1.875-9.99 1.607-13.912-.855-4.134-2.595-4.322-3.16-2.486-7.429 2.73-6.343 9.003-8.676 19.93-7.409 11.208 1.3 15.284-2.491 18.666-17.36 2.489-10.942-1.856-28.222-6.38-25.368-1.218.769-1.161.67-4.195 7.097-5.343 11.317-9.24 14.075-19.535 13.823-5.848-.144-8.244.178-16.748 2.247-11.604 2.824-11.777 2.923-18.758 10.734-2.945 3.293-6.909 7.023-8.81 8.286-1.9 1.262-4.45 3.534-5.665 5.05-1.825 2.275-2.875 2.901-6.05 3.613-3.653.816-3.981 1.07-6.663 5.145-6.166 9.369-18.84 8.767-24.42-1.162-.952-1.693-2.606-3.352-4.108-4.118-1.382-.705-4.763-3.235-7.512-5.622-2.75-2.387-6.58-5.187-8.512-6.225-1.933-1.036-4.95-3.547-6.703-5.578-5.005-5.799-18.063-10.581-32.254-11.813-12.619-1.096-17.796-5.014-20.903-15.821-1.285-4.469-6.695-7.898-8.932-5.662zm128.421 85.184c-1.601 1.602-2.791 9.406-2.172 14.256.296 2.325.583 9.142.636 15.148.145 16.374.946 18.258 6.219 14.63 8.36-5.752 13.831-21.287 9.496-26.97-.935-1.228-2.138-4.1-2.67-6.383-1.857-7.959-8.275-13.916-11.51-10.681zm-60.211.038c-.375.134-1.465.414-2.421.623-2.167.473-4.433 4.335-5.49 9.36-.427 2.027-1.737 5.684-2.911 8.123-4.04 8.396-2.813 16.425 3.993 26.16 3.661 5.238 4.16 5.565 7.522 4.935 4.412-.828 4.597-1.64 5.217-22.98.699-24.012-.253-28.232-5.91-26.221"/></svg>