<svg xmlns="http://www.w3.org/2000/svg" width="300" height="300" viewBox="0 0 300 300"><title>factions-order-bladeborn-hexbanes-hunters</title><path d="M21.169.261c-1.373.795-.919 2.647 1.431 5.834 1.225 1.661 3.417 5.379 4.871 8.262s3.982 7.397 5.616 10.03c4.25 6.851 6.367 10.75 7.643 14.093 1.732 4.536 6.913 13.227 9.538 15.998 1.603 1.695 6.87 11.769 8.341 15.962 1.637 4.657 3.193 7.652 5.162 9.936 1.08 1.252 2.945 3.416 4.143 4.813 1.511 1.761 2.796 4.034 4.191 7.404 3.796 9.186 8.07 11.535 18.598 10.216 6.682-.838 7.596-1.184 10.139-3.827 7.959-8.28 8.837-18.728 2.065-24.518-.976-.834-3.346-2.852-5.259-4.482-5.776-4.915-16.605-15.991-18.725-19.148-2.821-4.202-6.756-8.865-8.502-10.077-.819-.568-2.325-1.785-3.346-2.706s-3.011-2.412-4.423-3.315c-1.411-.902-2.918-2.182-3.352-2.842-.757-1.158-5.51-5.041-10.371-8.476-1.288-.909-5.225-4.5-8.747-7.978C34.463 9.796 28.76 4.504 25.068 1.417 23.439.054 22.178-.32 21.17.265l-.001-.001V.259zm255.502 1.484c-1.199 1.275-2.421 4.918-1.924 5.723.437.71 2.64-.502 3.864-2.123 2.173-2.879.427-6.12-1.941-3.601zm-4.603 7.462c-1.112.57-2.651 1.634-3.42 2.36s-2.741 2.323-4.387 3.54c-1.649 1.219-3.676 2.993-4.512 3.943-.832.952-2.872 2.606-4.53 3.682-1.657 1.075-3.307 2.313-3.666 2.749-.361.437-1.488 1.219-2.507 1.737-8.203 4.168-20.079 15.255-24.56 22.928-.878 1.505-2.923 3.968-4.54 5.473-5.061 4.703-12.721 11.407-16.573 14.51-6.743 5.43-9.278 9.152-10.221 15.016-1.632 10.138 1.693 14.85 11.658 16.529 2.497.421 6.322 1.348 8.502 2.06 4.718 1.545 6.113 1.343 9.19-1.322 5.61-4.856 7.365-7.68 8.04-12.948.698-5.449 2.775-9.375 10.056-19.025 1.229-1.629 3.09-4.399 4.137-6.155s2.272-3.606 2.73-4.11c.457-.505 2.021-3.275 3.479-6.155 1.455-2.879 3.593-6.57 4.744-8.201 9.025-12.765 14.736-23.877 17.79-34.62.982-3.457 1.111-3.277-1.409-1.99h-.005zM115.932 93.183c-.503.555-1.011 2.509-1.427 5.482-.714 5.093-.961 5.735-3.316 8.647-2.811 3.478-4.473 3.939-13.634 3.785-9.853-.169-11.483.527-11.515 4.918-.015 1.965.12 2.167 3.804 5.699 2.1 2.014 4.755 5.099 5.902 6.853s3.34 4.729 4.879 6.613c1.54 1.882 3.403 4.24 4.14 5.243s3.72 3.976 6.625 6.613c11.953 10.825 14.391 16.829 9.068 22.341-.847.878-2.223 2.561-3.056 3.742-3.559 5.041-6.977 9.025-10.604 12.346-4.873 4.466-8.781 9.502-12.415 15.996-4.509 8.055-8.723 13.343-18.563 23.278-4.985 5.034-9.588 9.974-10.23 10.977s-1.948 2.651-2.902 3.66c-.954 1.011-2.402 2.885-3.219 4.166-4.579 7.175-10.492 14.155-13.639 16.095-11.454 7.061-13.096 9.354-10.438 14.564 1.514 2.97 9.729 8.829 14.839 10.588 2.099.721 4.59 3.121 7.523 7.245 7.657 10.765 12.052 10.637 15.977-.454 2.265-6.4 4.363-9.598 11.378-17.341 3.72-4.103 5.825-6.88 7.24-9.551 1.1-2.071 2.899-4.819 4.002-6.105 6.818-7.966 8.828-10.15 10.821-11.755 1.226-.988 2.796-2.507 3.489-3.379s2.407-2.528 3.812-3.684c1.403-1.155 2.552-2.243 2.552-2.416s1.282-1.766 2.85-3.538 4.08-4.812 5.585-6.757c1.505-1.943 3.84-4.791 5.19-6.323 2.952-3.352 6.893-8.868 6.893-9.645 0-1.75 5.723-8.88 8.638-10.757 4.836-3.115 11.368.732 16.886 9.948 1.74 2.909 5.107 7.414 7.971 10.668 1.011 1.151 3.124 4.126 4.69 6.612 3.158 5.004 6.094 8.314 13.562 15.287 8.353 7.799 12.314 12.645 17.579 21.511.864 1.454 2.084 3.509 2.708 4.563q5.942 10.02 12.905 14.788c1.186.814 2.34 1.942 2.564 2.507s.947 2.586 1.609 4.491c3.352 9.648 10.635 9.095 18.73-1.43 1.779-2.31 8.59-7.274 9.983-7.274.662 0 8.515-5.618 9.368-6.703 3.325-4.23 2.007-8.835-3.509-12.246-3.518-2.177-9.345-7.676-13.868-13.09-1.212-1.448-3.435-3.661-4.948-4.918-1.509-1.259-2.745-2.477-2.745-2.714s-1.076-1.277-2.393-2.314c-2.351-1.853-3.526-3.489-9.648-13.441-1.942-3.156-3.345-4.863-5.016-6.105-3.035-2.257-7.666-7.126-8.693-9.142-.448-.877-1.484-2.517-2.303-3.645-.821-1.127-2.677-4.31-4.126-7.066-3.097-5.896-4.359-7.429-14.895-18.08-12.945-13.085-16.187-18.052-14.906-22.842.638-2.387 4.133-7.058 6.584-8.802 1.941-1.376 6.667-5.549 12.63-11.146 2.003-1.882 4.17-4.343 4.814-5.473s1.625-2.564 2.177-3.192c.554-.626 1.724-2.269 2.604-3.647s2.599-3.455 3.823-4.611c2.673-2.528 4.137-5.299 4.808-9.115.785-4.461.564-4.526-10.801-3.157-9.652 1.163-15.574-1.717-16.862-8.195-.709-3.564-3.803-7.751-5.734-7.751-2.14 0-8.687 8.19-11.984 14.987-1.77 3.652-3.594 6.606-5.278 8.537a349 349 0 0 0-3.509 4.124c-8.202 9.827-17.543 6.091-26.745-10.697-9.473-17.286-14.604-22.439-18.288-18.368l.001-.002.001.002z"/></svg>