<?xml version="1.0" encoding="UTF-8" standalone="no"?>
<!DOCTYPE svg PUBLIC "-//W3C//DTD SVG 1.1//EN" "http://www.w3.org/Graphics/SVG/1.1/DTD/svg11.dtd">
<svg width="100%" height="100%" viewBox="0 0 1024 1024" version="1.1" xmlns="http://www.w3.org/2000/svg" xmlns:xlink="http://www.w3.org/1999/xlink" xml:space="preserve" xmlns:serif="http://www.serif.com/" style="fill-rule:evenodd;clip-rule:evenodd;stroke-linejoin:round;stroke-miterlimit:2;">
    <g transform="matrix(1.09102,0,0,1.09102,-46.6043,-46.604)">
        <path d="M349.263,131.316C331.076,136.394 304.534,158.389 284.626,184.878C275.867,196.537 251.445,218.867 224.267,240.073C220.642,242.904 214.086,246.421 209.7,247.894C205.314,249.369 200.222,251.55 198.384,252.742C184.691,261.628 169.244,264.841 134.735,265.975C105.705,266.927 100.24,267.519 93.756,270.411C73.065,279.632 74.481,306.708 97.434,340.721C100.143,344.731 103.038,349.806 103.871,351.998C105.578,356.484 110.311,364.374 122.003,382.217C126.406,388.933 133.175,399.815 137.046,406.393C140.92,412.974 145.207,419.679 146.571,421.295C147.935,422.911 150.855,427.367 153.058,431.197C155.261,435.027 162.088,445.786 168.229,455.11C174.37,464.434 184.57,480.074 190.896,489.868C197.222,499.664 205.693,512.342 209.72,518.045C235.573,554.657 240.839,564.714 241.965,579.596C247.284,649.923 133.983,675.579 73.328,617.78C62.079,607.062 57.656,604.176 52.484,604.176C32.637,604.176 44.655,650.922 73.928,687.587C97.445,717.043 171.566,764.353 206.509,772.21C212.65,773.591 221.804,776.145 226.852,777.886C279.825,796.173 300.594,787.303 320.931,737.71C347.525,672.863 354.098,596.011 338.025,537.882C330.575,510.947 336.497,503.893 353.251,519.739C355.883,522.227 360.609,525.337 363.753,526.649C371.864,530.031 391.927,549.391 389.666,551.652C388.471,552.847 386.185,552.911 382.352,551.851C361.475,546.087 358.791,558.714 367.671,620.924C368.922,629.697 370.66,647.64 371.531,660.799C372.405,673.958 374.166,690.825 375.444,698.283C384.333,750.082 378.59,800.866 361.278,823.567C354.537,832.4 334.855,846.257 326.135,848.304C321.749,849.333 313.804,851.528 308.477,853.183C302.048,855.178 294.012,856.188 284.553,856.191C227.006,856.202 275.922,893.459 336.067,895.429C412.944,897.945 479.521,863.281 498.737,810.731C513.897,769.273 503.01,696.686 481.632,696.686C480.658,696.686 475.906,700.427 471.072,705.002L462.28,713.315L454.288,704.205C449.891,699.193 445.311,695.092 444.11,695.092C439.436,695.092 433.746,699.002 429.85,704.891C427.611,708.273 425.09,711.043 424.246,711.043C420.031,711.043 413.832,689.485 411.405,666.381C408.538,639.106 406.709,622.372 405.912,616.14C405.372,611.892 405.547,610.813 406.438,612.913C407.174,614.645 409.407,616.45 411.4,616.92C414.029,617.54 415.963,620.224 418.432,626.664C423.939,641.04 431.577,651.573 438.044,653.707C444.985,655.998 444.802,656.178 454.144,637.582C462.427,621.094 464.295,620.095 477.293,625.187C481.225,626.731 482.687,626.244 490.654,620.732C509.035,608.019 508.514,608.237 514.929,610.484C518.117,611.599 523.239,614.837 526.308,617.676C537.419,627.954 538.185,628.192 548.74,624.628L558.132,621.454L562.128,625.976C564.325,628.461 568.424,635 571.233,640.507C578.647,655.038 585.986,656.237 592.926,644.052C607.092,619.196 610.972,611.392 612.549,604.612C615.466,592.054 615.607,591.794 617.577,595.305C620.538,600.58 619.868,644.711 616.644,656.812C615.125,662.516 612.878,674.872 611.649,684.272C608.024,712.042 600.355,718.612 591.663,701.394C587.744,693.632 586.15,691.902 582.907,691.902C580.726,691.902 578.405,691.728 577.746,691.515C577.087,691.302 574.669,694.614 572.369,698.871C565.644,711.321 560.851,712.569 553.208,703.866C529.005,676.3 505.695,760.173 522.028,816.066C528.396,837.864 554.771,857.659 607.653,880.327C632.025,890.771 694.445,894.941 724.69,888.142C750.202,882.405 751.376,863.145 726.497,858.479C708.952,855.191 675.879,834.054 666.249,819.971C654.809,803.245 643.308,763.567 645.004,746.683C645.546,741.281 646.711,724.774 647.591,709.996C649.489,678.077 651.947,655.366 658.608,608.199C665.496,559.413 665.618,551.557 659.59,545.267C653.568,538.982 647.992,538.766 646.492,544.763C644.97,550.859 636.66,564.032 633.148,565.911C630.389,567.386 628.479,571.836 625.967,582.645L624.855,587.43L623.311,583.442C619.29,573.056 626.599,547.962 634.768,544.11C649.856,536.998 653.622,534.599 655.88,530.669C657.28,528.228 661.536,524.279 665.339,521.894C673.528,516.752 690.594,499.68 690.594,496.628C690.594,495.452 692.335,493.349 694.46,491.957C696.588,490.562 698.791,487.966 699.353,486.19C699.918,484.413 701.049,482.958 701.869,482.958C704.252,482.958 703.582,492.074 701.006,494.65C699.716,495.94 697.599,501.555 696.304,507.125C695.009,512.693 692.145,525.146 689.936,534.796C687.727,544.446 684.365,558.883 682.464,566.878C678.266,584.536 678.695,653.695 683.098,668.777C684.377,673.163 686.283,682.359 687.335,689.214C689.646,704.304 704.645,749.268 712.62,765.02C725.449,790.35 767.087,792.533 822.498,770.779C830.208,767.752 837.447,765.275 838.579,765.275C841.817,765.275 882.419,743.789 891.012,737.53C924.483,713.147 945.545,692.94 960.093,671.246C972.037,653.441 983.848,619.142 980.798,611.12C978.703,605.616 966.037,610.306 952.178,621.724C927.145,642.344 902.164,649.597 859.793,648.545C839.583,648.044 833.902,647.38 829.36,644.994C780.973,619.554 772.286,574.728 805.207,520.339C813.733,506.256 847.575,457.221 850.824,454.246C853.218,452.054 858.996,444.516 863.659,437.498C868.322,430.48 876.892,418.638 882.701,411.18C892.334,398.813 910.452,372.335 927.449,345.785C961.086,293.236 954.038,268.985 904.505,266.849C837.43,263.954 821.781,258.577 792.676,228.422C786.972,222.516 777.375,212.95 771.345,207.166C765.315,201.382 755.267,191.287 749.015,184.731C714.758,148.808 703.769,138.793 692.901,133.607L682.078,128.443L659.618,129.315C614.042,131.089 595.57,141.361 562.127,183.533C544.15,206.2 530.161,213.65 510.04,211.267C497.554,209.786 489.479,203.795 460.241,174.306C422.353,136.094 412.344,130.695 377.173,129.511C363.162,129.041 355.682,129.525 349.259,131.318L349.263,131.316ZM400.044,343.929C402.972,345.387 412.915,355.386 422.141,366.145C431.365,376.904 440.165,386.596 441.692,387.678C453.171,395.817 470.021,421.393 471.953,433.608C478.866,477.335 392.599,466.019 367.848,419.951C344.11,375.767 364.992,326.456 400.043,343.929L400.044,343.929ZM644.791,343.148C675.636,356.074 676.502,411.086 646.291,438.392C629.496,453.571 599.799,464.455 582.708,461.69C542.615,455.209 558.627,390.107 609.557,352.535C625.707,340.622 633.686,338.496 644.791,343.148ZM306.751,414.964C313.332,424.32 313.34,424.351 313.921,441.348C314.854,468.595 310.697,467.832 297.309,438.296C296.313,436.101 293.839,430.719 291.81,426.333C281.908,404.939 293.495,396.122 306.751,414.965L306.751,414.964ZM734.371,409.939C740.277,418.371 738.492,423.939 716.704,465.012C709.647,478.317 702.651,473.549 706.274,457.903C714.797,421.078 718.06,412.383 724.583,409.134C731.286,405.797 731.479,405.813 734.371,409.939ZM517.288,479.048C526.384,481.337 537.174,507.815 532.14,515.497C523.791,528.243 488.028,521.198 488.028,506.808C488.028,495.498 504.712,474.762 511.703,477.383C512.882,477.823 515.395,478.573 517.288,479.049L517.288,479.048Z" style="fill-rule:nonzero;"/>
    </g>
</svg>
