<svg xmlns="http://www.w3.org/2000/svg" viewBox="0 0 300 300"><path d="M151.134 300c-1.875-.206-3.778-.375-5.644-.656-1.125-.169-2.409-.281-3.309-.872-2.456-1.641-5.063-3.253-7.031-5.391-2.044-2.213-3.619-4.95-5.016-7.65-1.219-2.353-.206-4.35 1.988-5.784 2.016-1.322 3.6-3.131 3.919-5.691.037-.394-.15-.947-.441-1.209-1.237-1.125-2.644-2.072-3.825-3.253-1.903-1.894-.928-6.019 1.444-7.228 1.116-.572 2.944-.75 2.653-2.766-.056-.375-.253-.741-.375-1.097 2.644-.366 2.709-.366 2.625-3.159-.141-5.072-.469-10.153-.525-15.216-.066-5.925.066-11.85.094-17.766.009-2.484-.066-4.978-.009-7.453.009-.525.319-1.2.722-1.556 1.875-1.669 2.213-3.366.928-5.503-.281-.459-.497-.975-.891-1.303-1.725-1.416-1.706-3.309-1.697-5.316.037-20.522.009-41.044.037-61.584 0-1.237.028-2.241-1.547-2.597-.516-.113-1.238-1.059-1.209-1.603.253-5.381-.581-10.8.666-16.153.309-1.294.947-1.931 1.988-2.362 1.088-.459 1.294-1.003.441-1.875a1.5 1.5 0 0 1-.375-.825c-.347-5.588-.75-11.166-.984-16.753-.169-4.078-.084-8.166-.122-12.234-.009-1.781-1.791-3.656-3.534-3.713-6.131-.225-12.263-.431-18.384-.656-.412-.009-.928.056-1.247-.15-2.184-1.378-4.613-.862-6.966-.928-2.7-.094-5.419-.206-8.109-.009-1.153.084-2.419.75-3.338 1.519-1.931 1.613-3.703 1.416-4.106-1.003-.497-2.991-.459-6.094-.572-9.131-.066-2.016.094-4.031-.037-6.047-.122-1.706-.769-3.403-.769-5.119 0-11.194.094-22.369.178-33.563.009-2.541.497-5.184 0-7.603-.947-4.434-.094-8.784-.253-13.153-.028-.891.094-1.809.291-2.681.572-2.681 3.225-3.684 5.503-2.156.459.309 1.116.291 1.603.581.891.525 1.706 1.209 2.587 1.781.694.459 1.434 1.172 2.166 1.2 1.978.066 3.966-.197 5.934-.291 2.269-.112 4.528-.234 6.797-.253 14.738-.122 29.466-.234 44.203-.291 2.419-.009 4.828.431 7.247.487 4.341.084 8.691.169 13.031.009 7.284-.253 14.559-.694 21.844-1.059.262-.009.666.009.75-.141 1.153-1.837 3.309-1.378 4.922-2.138 1.228-.581 3.281.497 3.853 1.988.403 1.059.666 2.212.722 3.319.281 4.866.084 9.778.722 14.588 1.866 13.987.394 28.022.844 42.009.178 5.503.038 11.025 0 16.528-.009 2.128-.544 2.353-2.569 2.794-1.734.375-2.934.122-4.294-1.013-.975-.825-2.353-.975-3.863-.637-2.353.497-4.828.516-7.256.553-3.6.056-7.219-.122-10.819-.037-4.228.094-8.456.347-12.666.581-1.584.084-3.619 2.7-3.619 4.688-.009 2.756.066 5.522.066 8.269 0 3.488 0 6.994-.094 10.481-.056 1.781-.441 3.544-.516 5.325-.037.984.291 2.006.403 2.653-.178 1.669-.347 3.084-.516 4.631 2.456.281 2.756 2.034 2.784 3.853.056 4.509.056 9 .028 13.5 0 .413-.225.891-.469 1.247-.656.984-1.388 1.922-2.156 2.991-.094-.038-.431-.15-.928-.338v1.519c-.009 20.428-.056 40.838-.009 61.266 0 1.669-.694 2.841-1.5 4.172-1.125 1.866-1.95 3.938-2.756 5.981-.469 1.181.553 1.753 1.322 2.438.441.394.891 1.059.9 1.603.112 5.034.094 10.069.178 15.103.056 3.862.253 7.716.291 11.578.056 5.231.009 10.472.009 15.919h4.341c.666 2.081 1.5 3.806 1.725 5.616.281 2.278.141 4.641-.028 6.938-.028.394-1.097.919-1.734 1.012-1.172.169-1.547.891-1.603 1.838-.056 1.041-.581 2.25.75 2.972.741.403 1.613.712 2.138 1.303.656.722 1.303 1.678 1.444 2.597.225 1.613.009 3.281.038 4.922.094 5.034-2.353 8.409-6.759 10.537-.469.234-1.088.347-1.406.713-1.809 2.109-4.256 2.869-6.825 3.375H151.1zm14.382-288.338c-.084-.056-.169-.112-.234-.169-.169.122-.375.206-.488.375-2.503 3.966-6.384 5.644-10.706 6.797-1.2.319-2.419 1.387-3.131 2.447-1.547 2.25-3.375 3.825-6.094 4.481-1.059.253-2.138.947-2.916 1.734-1.069 1.069-1.781 2.484-2.766 3.647-1.294 1.5-2.597 3.047-4.144 4.266-1.059.834-3.281.178-3.506-.769-.309-1.359.741-1.931 1.725-2.503 1.95-1.116 3.338-2.597 4.022-4.884.403-1.35 1.172-2.991 2.269-3.656 2.006-1.228 2.559-3.197 3.806-4.988-5.325 1.547-5.259 1.603-8.494 5.494-1.125 1.35-2.503 2.756-4.059 3.403-2.85 1.209-4.959 3.075-6.3 5.7-1.069 2.109-2.597 3.309-4.772 4.031-6.384 2.137-9.862 6.816-10.734 13.322-.834 6.272 1.35 11.569 6.412 15.375 5.175 3.891 11.016 4.894 16.903 1.978 2.991-1.472 5.981-2.222 9.188-2.653 1.491-.197 3.056-.628 4.313-1.406 1.875-1.153 3.628-1.294 5.578-.459 2.016.862 3.975.694 5.756-.544 2.278-1.584 4.462-3.281 6.797-5.006-1.613-.797-3.047-.919-4.509-.309-1.125.469-2.297.862-3.347 1.462-1.584.9-2.991.928-4.603-.028-1.031-.609-2.325-.947-3.516-1.013-1.069-.056-2.184.375-3.253.684-1.387.394-2.541.262-3.169-1.209-.525-1.237 0-2.991 1.416-3.431 1.387-.431 3.103-.741 4.434-.337 4.256 1.275 8.025 1.116 11.259-2.278 1.266-1.322 2.841-1.519 4.556-1.144 1.387.309 2.794.694 4.2.797 1.069.084 2.438.141 3.216-.422 2.109-1.5 3.975-3.337 6.244-5.325-2.559-.75-4.463-.403-6.356.084s-3.834 1.012-5.775.197c-3.187-1.35-6.075-.844-8.859 1.097-.722.497-1.631 1.087-2.419 1.041-.984-.056-2.1-.544-2.869-1.181-.891-.741-.375-1.781.197-2.587a17 17 0 0 1 1.631-1.95c2.072-2.156 4.809-2.653 7.594-2.709 4.491-.066 8.025-1.556 10.219-5.719 1.303-2.447 3.394-3.375 6.253-3 2.85.375 5.287-.712 7.256-2.841 1.866-2.016 3.825-3.966 5.662-6.019 1.547-1.734 2.934-3.6 4.397-5.409-3.281.347-6.009 1.5-7.969 3.994-3.028 3.834-6.844 5.325-11.634 4.022-2.616-.712-4.809.009-6.581 2.063-.488.553-1.097 1.031-1.491 1.641-1.519 2.353-3.741 3.159-6.394 3.141-2.381-.009-4.425.872-6.337 2.213-1.088.75-2.25 1.472-3.488 1.847-.984.309-2.241.347-3.197.009-1.875-.638-2.072-2.616-.394-3.647 1.003-.628 2.213-1.116 3.366-1.247 2.297-.281 3.975-1.388 4.781-3.431 1.247-3.197 3.431-5.372 6.45-6.9 1.041-.525 2.138-1.406 2.644-2.409.834-1.809 1.294-3.834 1.95-5.766z"/></svg>