<svg xmlns="http://www.w3.org/2000/svg" xml:space="preserve" fill-rule="evenodd" stroke-linejoin="round" stroke-miterlimit="2" clip-rule="evenodd" viewBox="0 0 300 300"><path fill-rule="nonzero" d="M259.546 152.82c-2.3 1.868-4.464 3.814-7.196 5.467s-7.866 7.196-10.225 6.036c-3.716-.885-6.45-4.15-6.45-8.063 0-1.613.472-3.146 1.279-4.424l-.02.04c.905-1.652 1.416-3.598 1.416-5.682 0-6.705-5.447-12.152-12.171-12.152h-.177c-2.674 0-5.329-1.003-8.063-1.494a69 69 0 0 1 3.461 6.705l.197.472c1.652 3.382 2.773 7.354 3.087 11.542v.118c0 3.087-3.087 6.036-4.739 9.064-1.436-2.025-2.379-5.191-4.325-5.899-4.07-1.514-9.124-2.97-14.334-4.09l-.806-.157c0 5.761-2.025 13.686.943 16.675 4.464 4.621 9.734 7.55 5.27 14.393-3.244 4.818-7.196 9.792-14.393 4.385-1.573-1.219-6.195 0-8.2 1.455-17.264 13.154-30.321 28.787-29.141 52.284.649 12.231-.571 23.891 6.115 35.964 7.767 14.374 0 23.813-16.635 24.539h-7.196c-23.479 0-25.857-5.309-23.025-28.787.905-7.255 1.436-15.652 1.436-24.166 0-12.663-1.14-25.051-3.362-37.065l.197 1.259c-3.441-19.211-11.66-21.591-30.084-13.686-1.829.885-3.991 1.396-6.273 1.396-.315 0-.649-.02-.983-.04h.04c-26.211-2.517-33.84 20.509-25.622 45.108.57 1.652 1.14 3.362 1.868 5.034 1.573 3.677 3.323 7.196 5.033 10.932a53.6 53.6 0 0 1-13.705-2.477l.374.118c-21.963-9.714-29.672-25.759-24.677-50.004.551-2.654.845-5.702.845-8.809 0-10.677-3.677-20.489-9.851-28.276l.079.098c-6.843-9.36-1.514-10.579 5.624-9.93 5.447 1.18 10.245 3.048 14.668 5.525l-.275-.138c11.877 5.093 17.716 1.436 18.149-11.425.806-23.813.845-23.655-22.829-20.725-5.545.728-11.306 1.082-7.196-8.357.846-3.165 1.357-6.804 1.357-10.56 0-1.907-.137-3.796-.393-5.624l.02.216c0-11.739 2.379-13.311 13.528-8.986s17.225 1.868 18.503-10.225c1.279-12.073.432-14.374-11.877-13.882-9.498.432-19.093-.571-28.807-1.003.432-9.064.925-18.189 1.219-27.253.354-11.149-2.439-23.163 6.272-32.366A77 77 0 0 1 34.032 3.375l.374-.216c2.105-1.297 5.682 0 8.573 0a40 40 0 0 1-1.062 7.963l.059-.275c-2.065 4.838-4.188 10.894-5.938 17.107l-.255 1.082a15 15 0 0 0-.766 4.739c0 8.377 6.824 15.18 15.199 15.18.728 0 1.436-.059 2.143-.157l-.079.02c.885-.079 1.927-.098 2.95-.098 10.009 0 19.132 3.893 25.857 10.264l-.02-.02c4.542 4.247 12.82 8.632 19.014 1.652 4.267-5.093 7.669-11.071 9.911-17.598l.118-.394c.728-1.946-3.165-6.115-5.624-8.554-4.778-4.995-7.747-11.798-7.747-19.25 0-1.946.197-3.834.571-5.662l-.04.177a25.5 25.5 0 0 1 2.282-6.175l-.059.138c2.282 1.023 4.228 2.065 6.076 3.264l-.157-.098c.865.649 1.003 2.143 1.651 3.165 7.984 12.585 8.063 12.506 15.613-.945 6.273-11.149 16.202-11.66 23.183-1.003a30.2 30.2 0 0 1 3.087 6.115l.079.216c2.733 7.689 6.567 7.196 11.385 1.868 3.736-4.247 7.629-8.357 11.445-12.525.059 1.553.079 3.362.079 5.191 0 5.014-.217 9.969-.629 14.885l.04-.649c-.728 3.696-2.183 6.961-4.227 9.792l.059-.079c-2.439 3.873-8.632 8.829-7.767 10.775 3.068 5.682 7.295 10.363 12.388 13.863l.138.098c.885.275 1.868.413 2.91.413 2.674 0 5.113-1.023 6.961-2.654h-.02c3.166-4.011 2.163-13.174 11.228-6.39.236.118.551.177.865.177s.609-.079.885-.177h-.02c5.958-15.179 12.309-2.439 18.563-.354 12.899 4.325 26.427-9.438 25.641-25.307.118-5.801.688-11.385 1.671-16.812l-.098.629c4.542 4.168 11.877 7.61 13.096 12.585 1.691 7.61 2.674 16.359 2.674 25.307 0 2.616-.079 5.191-.236 7.747l.02-.334c0 6.843-4.621 14.374 8.141 8.632 6.332-2.95 11.091-2.596 6.41 6.39 0 .491-.728 1.455-.491 1.652 13.253 15.102 10.009 36.691 21.08 52.658a11.3 11.3 0 0 1 2.439 6.076v.04c-.354 14.374-18.641 38.107-32.621 41.863-1.082.157-2.32.236-3.619.236s-2.517-.098-3.736-.236l.138.02c.491-2.085.943-4.247 1.514-6.272 1.023-3.304 2.163-6.607 3.244-9.851s.786-1.769.943-.55l.04.098zM61.399 125.645c0 13.174-.354 26.33 0 39.484 0 3.244 2.813 8.789 5.033 9.203 7.216 1.376 6.41-5.171 6.41-9.635v-52.461c0-3.716 1.12-7.158 3.067-10.029l-.04.059a13.08 13.08 0 0 0 4.484-9.891c0-4.522-2.262-8.495-5.742-10.854l-.039-.04a12.35 12.35 0 0 0-8.515-3.382c-.255 0-.472 0-.728.02h.039c-1.946.432-4.09 5.191-4.168 8.063 0 13.174.216 26.545.216 39.484l-.02-.02z"/></svg>