<svg xmlns="http://www.w3.org/2000/svg" width="300" height="300" viewBox="0 0 300 300"><title>factions-destruction-ironjawz</title><path d="M170.916 300c-.15-.216-.253-.525-.45-.628-.366-.178-.816-.15-1.172-.319-5.419-2.841-10.838-5.672-16.228-8.569-3.534-1.903-6.909-4.144-10.528-5.878-4.481-2.137-9.188-3.806-13.706-5.859-2.372-1.069-4.509-2.653-6.853-3.806-2.241-1.097-4.631-1.922-6.947-2.869-1.566-.647-3.131-1.284-4.706-1.95-3.075-1.303-5.859.366-6.197 3.703-.178 1.8-.347 3.619-.656 5.391-.347 1.978-1.406 2.531-3.263 1.725-8.953-3.909-17.822-7.969-26.25-13.331 1.256-1.959.291-3.694-.516-5.55-1.556-3.534-2.794-7.191-4.406-10.697a46 46 0 0 0-4.116-7.059c-.525-.75-1.875-1.172-2.897-1.256-2.156-.187-4.331-.028-6.506-.056-3.628-.056-5.184-1.453-5.184-5.128 0-5.963.281-11.934.347-17.897.15-11.662.262-23.306.291-34.959.019-6.675-.159-13.341-.291-20.025-.028-1.462-.131-2.944-.487-4.35-.234-.938-.759-2.053-1.509-2.578-1.153-.806-1.256-1.491-.647-2.606 3.234-5.831 6.309-11.747 9.713-17.484a706 706 0 0 1 14.091-22.866c2.006-3.131 4.528-5.934 6.872-8.859.731-.919 1.894-1.622 2.897-.881.675.497 1.2 1.791 1.097 2.634-.656 5.625-1.622 11.222-2.269 16.847-.516 4.528-1.828 8.803-3.497 13.003-1.894 4.791-2.137 9.619-.675 14.616 2.4 8.184 4.744 16.388 6.9 24.638 2.325 8.887 3.647 17.972 4.8 27.084.263 2.025 1.481 3.131 3.197 3.806 1.519.6 2.006-.647 2.325-1.688.787-2.503 1.453-5.053 2.166-7.584 1.275-4.556 2.494-9.141 3.863-13.669.825-2.728 1.659-3.469 3.094-3.075 1.622.441 2.428.881 2.213 3.928-.309 4.219.787 8.025 2.737 11.775 1.463 2.813 2.138 6.037 3.263 9.037.347.938.919 2.4 1.566 2.494 2.034.309 2.859-.806 3.234-2.972.487-2.7 1.144-5.362 1.856-7.997.281-1.041.919-1.987 1.219-2.597 2.391.497 4.528.806 6.572 1.425.825.253 1.697 1.022 2.128 1.8 2.259 4.162 4.378 8.409 6.534 12.609.216.412.291.984.619 1.247.731.591 1.566 1.406 2.363 1.425.703 0 1.688-.834 2.053-1.556 1.172-2.287 2.184-4.659 3.15-7.05.647-1.594 1.359-2.213 3.384-1.978 2.728.309 4.556 1.303 5.963 3.619.759 1.275 1.978 2.297 3.047 3.384 2.813 2.813 5.681 5.55 8.494 8.362 1.819 1.819 2.447 1.659 3.769-.544 3.3-5.475 4.584-11.466 4.819-17.756.075-1.828.731-3.309 2.475-4.116 1.931-.891 3.619-.487 4.716 1.275 1.116 1.762 1.828 3.806 3.984 4.734.356.15.356.966.656 1.378.656.891 1.406 1.716 2.128 2.559.759-.806 1.847-1.463 2.241-2.419 2.128-5.128 4.088-10.322 6.075-15.516 2.297-6.009 4.528-12.037 6.844-18.047 2.091-5.447 3.047-11.147 3.938-16.875.281-1.772 1.088-3.459 1.387-5.231.553-3.15 1.116-6.328 1.303-9.525.6-10.181 1.013-20.363 1.509-30.544.028-.591-.084-1.331.234-1.716.75-.891 1.613-2.006 2.606-2.241.759-.178 2.138.656 2.634 1.434 1.059 1.641 2.053 3 4.238 3.206.628.056 1.509 1.022 1.716 1.725 3.047 10.856 6.225 21.694 8.888 32.653 1.144 4.669 1.641 9.619 1.566 14.428-.075 5.287 1.462 10.153 2.503 15.159.938 4.472 2.109 8.887 2.738 13.388.441 3.159.394 6.441.113 9.637-.15 1.622-.938 3.441-1.988 4.716-6.047 7.313-12.497 14.297-18.366 21.741-5.138 6.516-10.191 13.2-14.344 20.363-3.094 5.334-5.156 11.409-6.797 17.4-3.591 13.097-8.719 25.425-16.303 36.703-.544.787-1.762 1.172-2.728 1.622-1.191.544-2.428.956-3.647 1.425-.309.028-.656.028-1.012.028zM3.234 72.206c.309-.544.703-1.069.909-1.659 2.475-7.237 6.853-13.303 11.869-18.891 6.356-7.088 12.9-14.034 19.481-20.934 3.731-3.928 7.837-3.647 11.194.497 1.388 1.725 2.634 1.584 3.337-.656 1.697-5.494 5.944-8.278 10.856-10.162 1.931-.75 4.247-.628 6.384-.684 3.544-.103 7.106-.028 10.791-.028-.028.15-.103.75-.337 1.275C71.23 35.467 66.59 50.598 62.502 65.898c-.994 3.75-2.944 5.025-6.806 4.744-8.259-.619-16.462-2.559-24.816-1.35-6.038.862-11.531 3.019-14.709 8.644-1.978 3.497-3.647 7.209-4.997 10.988-.656 1.828-.253 4.041-.309 6.094-.019.45.047.938-.019 1.388-.188 1.434.675 3.469-1.069 4.087-2.006.722-4.294.731-6.122-.938-.122-.112-.281-.187-.422-.281v-3.516c.178-.131.497-.281.487-.413a921 921 0 0 0-.216-10.294c0-.056-.178-.113-.263-.178V72.207z"/><path d="M113.569 179.484c-1.022-1.613-2.269-2.869-2.709-4.369-1.791-6.169-3.263-12.431-4.997-18.619-1.425-5.109-3.159-10.134-4.509-15.263-.656-2.503-.956-5.175-.966-7.762-.019-2.784-.628-5.184-2.025-7.65-2.663-4.659-.919-9.797 4.097-12.375 1.144-.591 1.8-1.191 1.922-2.372.384-4.191.834-8.381 1.059-12.581.178-3.431.759-6.722 2.184-9.872 1.022-2.269.656-2.691-1.641-3.544-6.853-2.531-14.016-3.666-21.15-4.969-.909-.159-1.875.019-2.784-.113-1.716-.253-3.534-.337-5.072-.994-3.103-1.331-3.544-2.728-2.662-5.972 1.584-5.878 3.206-11.728 4.659-17.634.891-3.619 1.247-7.397 2.297-10.969 1.041-3.516 2.813-6.806 3.984-10.284 1.509-4.472 2.766-9.019 4.069-13.566.422-1.463 1.378-2.128 2.784-2.597 5.034-1.688 10.228-2.419 15.516-2.691 3.384-.178 6.741-.778 10.106-1.088 5.419-.497 10.837-.919 16.256-1.387a32 32 0 0 0 2.963-.384c3.028-.525 3.487-.994 3.797-4.003.188-1.903 1.191-3.225 3.019-3.666 4.584-1.097 9.009-2.606 13.903-2.559 5.053.028 10.125-.994 15.188-1.491 2.859-.281 5.728-.338 8.588-.656 2.316-.263 4.013.553 5.241 2.447 3.675 5.644 2.531 4.266 9.056 4.95.647.075 1.284.103 1.931.075 2.231-.103 3.731.984 5.316 2.494 4.762 4.5 7.481 10.059 9.591 16.116 3.075 8.831 6.431 17.559 9.375 26.437.919 2.784.966 5.859 1.35 8.803.159 1.247-.422 2.137-1.613 2.625-1.716.684-2.287 2.053-2.194 3.797.113 2.4.262 4.819-1.284 6.928-.028.047-.075.103-.075.159.469 3.15-1.95 3.834-4.059 4.847-4.116 1.959-8.222 3.956-12.337 5.916-4.538 2.166-6.619 6.675-5.475 11.588a238 238 0 0 1 2.494 12.028c.188 1.088.056 2.344-.291 3.394-2.794 8.25-5.541 16.491-9.431 24.328-3.778 7.613-5.1 15.881-5.419 24.319-.206 5.344-.853 10.622-2.813 15.647-.412 1.022-.909 2.025-1.387 3.028-.656 1.359-1.894 1.622-3.253 1.594-1.322-.019-1.247-1.116-1.584-1.95-.656-1.622-1.406-3.206-2.194-4.772-.206-.413-.731-.938-1.069-.909-.384.028-.891.553-1.059.984-.647 1.688-1.097 3.459-1.791 5.138-1.303 3.197-2.625 6.375-4.097 9.478-.853 1.8-1.697 1.875-3.338.703-.572-.412-1.087-.909-1.688-1.256-1.247-.722-1.959-.281-2.081 1.172-.084 1.097-.056 2.259-.394 3.281-.216.684-.919 1.613-1.509 1.669-.703.084-1.744-.422-2.194-1.022-1.772-2.297-2.259-5.1-1.697-7.837 1.322-6.534.356-13.078.45-19.612.047-2.709-3.694-5.175-6.309-4.247-.759.262-1.519 1.453-1.716 2.325-1.228 5.775-2.241 11.588-3.469 17.344-.628 2.972-1.584 5.878-2.372 8.803-.319 1.172-.825 2.653-2.081 2.362-.853-.206-1.772-1.659-2.006-2.7-.825-3.825-1.2-7.744-2.063-11.569-.722-3.178-1.95-6.244-2.794-9.384-1.538-5.672-1.744-11.428-.863-17.241.131-.862.216-1.762.131-2.625-.047-.553-.413-1.491-.684-1.509-.591-.047-1.463.216-1.791.675-.994 1.434-2.025 2.916-2.634 4.537-2.109 5.644-4.059 11.334-6.019 17.034-.366 1.041-.731 2.166-.722 3.234.019 2.259-1.303 3.75-2.934 5.813zm70.818-112.218v.056c.356 0 .703-.019 1.059 0 3.3.084 4.734-1.594 4.069-4.838-.938-4.584-2.025-9.141-2.841-13.744-.722-3.966-1.275-4.069-4.603-1.594a4538 4538 0 0 0-20.634 15.525c-1.688 1.275-3.356 2.559-4.903 3.966-.422.384-.6 1.219-.6 1.828 0 .187.956.553 1.481.553 2.053 0 4.097-.028 6.141-.178 6.956-.525 13.903-1.069 20.841-1.594zm-84.018-17.972c.544 3.497 5.175 10.359 7.763 11.775.497.281 1.087.441 1.641.6 6.909 1.931 14.034 2.4 21.141 2.897.619.047 1.744-.731 1.894-1.322.675-2.634 1.088-5.344 1.669-8.419-2.316-.337-4.406-.825-6.516-.909-4.838-.188-9.694.131-14.428-1.378-3.225-1.022-6.516-1.847-9.788-2.691-1.022-.262-2.109-.347-3.366-.553zm41.043 56.175c0 .938-.131 1.903.056 2.794.084.394.853.919 1.284.891 1.387-.075 4.378-2.934 4.734-4.266.891-3.497 1.894-6.975 2.681-10.491.187-.863.112-2.091-.384-2.766a108 108 0 0 0-6.356-7.922c-.544-.619-1.772-.891-2.653-.834-.422.028-.919 1.172-1.116 1.875-.722 2.831-1.284 5.681-1.978 8.513-.422 1.716-.216 3.3 1.012 4.566 2.081 2.138 3.094 4.613 2.709 7.631zM217.125 11.578c1.097.084 1.847.019 2.503.216 1.059.319 2.034.881 3.094 1.228 2.419.816 4.894 1.481 7.294 2.363 5.906 2.166 12.028 3.778 17.316 7.453 1.688 1.172 3.928 1.538 5.709 2.625 6.909 4.162 13.753 8.437 20.578 12.712 2.231 1.388 4.425 2.869 6.488 4.5 4.434 3.487 9.188 6.638 11.925 11.897.806 1.537 2.522 2.578 3.666 3.966.572.684 1.144 1.697 1.069 2.503-.113 1.294-1.406 1.116-2.4 1.116-4.266-.019-8.625-.6-12.769.122-5.203.891-10.209 2.859-15.291 4.378-2.287.684-4.556 1.434-6.816 2.194-1.219.412-2.475.778-3.591 1.378-2.634 1.434-5.447 2.372-7.922 4.266-3.75 2.859-6.666 2.653-9.563.122-.778-.684-1.584-1.762-1.688-2.737-.487-4.866-.684-9.741-1.087-14.606-.113-1.509-.6-2.991-.778-4.5-.281-2.372-.525-4.744-.628-7.116-.159-3.572-.422-7.163-.206-10.706.216-3.6-1.584-6.038-4.303-7.397-4.162-2.091-6.563-5.503-8.747-9.291-1.219-2.063-2.391-4.144-3.853-6.675z"/></svg>