<svg xmlns="http://www.w3.org/2000/svg" width="300" height="300" viewBox="0 0 300 300"><title>factions-order-idoneth-deepkin</title><path d="M145.275 300c-.403-.891-1.059-1.762-1.144-2.7-1.012-11.053-2.428-22.078-2.297-33.206.103-8.231.309-16.472.234-24.694-.075-8.128-.45-16.247-.713-24.375-.009-.45-.131-1.078-.441-1.284-3.403-2.475-6.787-4.969-11.306-4.95-2.869.009-5.091 1.106-6.75 3.506-2.775 4.022-3.384 8.391-2.287 13.069 2.541 10.734 5.109 21.459 7.641 32.194.216.891.159 1.847.225 2.766l-.581.197c-.422-.422-.919-.788-1.247-1.266-2.137-3.159-4.303-6.319-6.319-9.563-.891-1.425-1.622-3-2.128-4.594-1.875-5.906-3.638-11.859-5.409-17.794-1.153-3.9-2.616-7.781-3.225-11.784-.534-3.516-.506-7.256.028-10.772 1.397-9.244 11.147-14.494 19.762-11.034 3.628 1.463 7.341 2.7 11.194 4.088v-1.678c0-10.041-.009-20.081.028-30.122 0-1.238-.234-1.744-1.603-1.856-20.006-1.753-38.466-8.006-55.116-19.303-9.919-6.722-18-15.197-23.578-25.875-.9-1.725-1.378-3.797-1.584-5.766-1.209-12.075 1.837-23.147 8.259-33.338 3.6-5.7 7.041-11.484 11.634-16.509 8.503-9.3 19.181-14.859 30.975-18.712 5.794-1.884 11.738-2.297 17.719-2.803 9.15-.787 18.253-.384 27.319.872.262.037.544.028.787.103 6.459 2.1 12.947 4.05 19.322 6.347 3.656 1.313 6.6 3.788 8.85 7.022 2.081 3.019 4.238 5.981 6.366 8.962 1.566 2.203 1.922 4.716 1.5 7.303-.994 6.112-3.759 11.241-8.709 15.047-.731.553-1.697.787-2.541 1.209-.872.441-1.716.928-2.578 1.406-.084.056-.122.234-.187.253-3.056.375-5.203 3.244-8.503 3.019-3.056-.197-6.178.066-9.15-.478-3.478-.638-6.825-1.941-10.228-2.963-.253-.075-.572-.103-.731-.281-.45-.478-.834-1.013-1.238-1.528.516-.375.984-.947 1.556-1.087 4.528-1.125 9.094-2.109 13.613-3.253 7.5-1.884 13.641-6 18.731-11.756 3.591-4.05 3.188-7.941-1.209-11.091-5.512-3.928-11.803-5.953-18.412-7.078a54.5 54.5 0 0 0-18.047-.122c-5.803.928-11.728 1.116-17.587 1.725-8.934.919-17.541 3.019-25.566 7.209-3.094 1.622-6.319 3.019-9.441 4.584-6.628 3.337-11.859 8.222-15.45 14.719-2.513 4.547-4.978 9.141-7.097 13.875-4.116 9.188-2.1 17.306 5.578 23.841 1.819 1.556 3.703 3.037 5.409 4.716 4.847 4.753 11.1 7.181 16.837 10.453s11.981 5.156 18.394 6.431c8.006 1.603 16.003 3.375 24.094 4.369 5.109.638 10.416.309 15.581-.122 24.469-2.034 45.994-11.503 65.334-26.325 5.662-4.331 10.069-9.881 14.334-15.525 1.088-1.434 2.166-2.906 3.375-4.237.741-.797 1.753-1.359 2.634-2.016.159.122.319.234.478.356-.188.9-.291 1.838-.553 2.719-1.603 5.484-4.744 10.209-8.006 14.766-3.975 5.541-7.969 11.091-13.322 15.516-5.981 4.941-11.672 10.2-17.569 15.234-2.128 1.819-4.547 3.113-7.528 2.925-.469-.028-1.219.759-1.444 1.331-.45 1.106-1.106 1.781-2.269 1.969-.262.037-.6.028-.759.187-3.975 3.816-9.122 5.25-14.175 6.534-6.253 1.594-12.694 2.475-19.069 3.534-1.566.262-2.128.759-2.1 2.419.188 9.394.253 18.797.356 28.2v2.063c2.072-1.238 3.984-2.241 5.747-3.469 4.078-2.813 8.128-2.681 12.216-.15 4.472 2.794 6.787 7.003 7.819 12.056.759 3.694.759 7.266-.197 10.997-.919 3.572-.966 7.341-1.528 11.006-1.762 11.578-5.409 22.566-10.547 33.056-.281.572-.488 1.209-.872 1.688-.319.403-.862.637-1.303.947-.169-.469-.506-.947-.478-1.397.066-1.209.188-2.447.45-3.628 2.644-12.169 4.425-24.45 4.781-36.9.084-2.559-.291-5.184-.806-7.706-.487-2.381-2.362-3.6-4.809-3.591-3.797.028-6.816 1.847-9.366 4.463-.422.441-.478 1.369-.506 2.072-.216 5.934-.197 11.897-.638 17.822-.347 4.706-1.153 9.375-1.95 14.025-1.519 8.803-2.128 17.681-2.522 26.588-.347 7.781-1.378 15.544-2.203 23.297-.131 1.209-.806 2.353-1.238 3.516-.356.056-.675.056-.994.056z"/><path d="M244.088 25.856c-.516.581-.966 1.266-1.556 1.753-5.259 4.387-10.584 8.7-15.806 13.125-2.063 1.744-3.928 3.722-5.897 5.578-.919.872-1.078 1.819-.609 3.019 4.331 11.278 3.384 22.116-1.566 33.15-4.144 9.244-10.528 16.884-16.031 25.153-4.359 6.534-10.416 11.569-17.522 14.925-2.456 1.153-4.659 2.522-6.975 3.863-5.7 3.291-12.122 4.453-18.581 5.672-8.541 1.603-16.566.478-24.769-1.856-9.666-2.747-18.9-6.412-27.506-11.484-7.003-4.116-11.063-10.547-12.3-18.637-.487-3.188.319-6.141 2.231-8.728 4.013-5.409 9.338-8.663 16.087-9.122 5.381-.375 10.8-1.209 16.191-.009.647.15 1.191.769 1.791 1.181-.553.572-1.013 1.444-1.678 1.65-3.6 1.078-7.341 1.753-10.875 2.991-3.572 1.266-7.041 2.878-10.416 4.631-1.5.787-2.747 2.166-3.919 3.45-2.287 2.513-2.072 5.109.806 6.984 2.925 1.903 5.981 3.666 9.169 5.063 8.438 3.694 17.334 6.028 26.269 8.063 7.162 1.631 14.4.825 21.516-.572 13.078-2.559 25.219-7.462 35.156-16.5 5.072-4.612 9.441-10.05 13.716-15.45 5.513-6.938 4.172-14.334.713-21.741-2.963-6.347-7.547-11.034-13.331-14.991-10.003-6.844-20.972-10.519-32.859-11.925-8.166-.956-16.322-2.072-24.516-2.719-3.769-.291-7.65.103-11.419.666-8.438 1.266-16.837 2.831-25.247 4.294-.891.159-1.781.375-2.606.703-8.925 3.675-17.784 7.528-25.903 12.844-6.891 4.519-12.019 10.772-17.025 17.119-.628.797-1.584 1.331-2.391 1.997-.169-.122-.356-.225-.534-.347.038-.694-.037-1.434.159-2.072.759-2.381 1.491-4.772 2.456-7.05.703-1.631 1.603-3.253 2.719-4.622 5.128-6.188 11.503-10.987 17.822-15.844.966-.741 1.903-1.538 2.906-2.222 1.209-.825 1.359-1.688.263-2.681-2.7-2.475-5.353-4.997-8.138-7.369-2.869-2.447-5.897-4.706-8.803-7.097-.478-.394-.703-1.088-1.05-1.65.572-.328 1.144-.928 1.725-.956 2.044-.066 4.153-.216 6.15.169 5.728 1.116 11.466 2.334 16.041 6.413.862.769 1.369 1.463 1.369 2.653-.009 2.175.609 2.859 2.747 2.681 1.659-.131 3.375-.45 4.913-1.059 4.678-1.856 9.281-3.919 13.922-5.888 2.072-.881 2.137-1.106.675-2.7-2.906-3.178-5.766-6.403-8.766-9.469-1.922-1.969-4.134-3.656-6.15-5.522-.956-.891-1.903-1.856-2.634-2.934-.863-1.303-.056-2.681 1.425-2.391 5.578 1.116 11.381 1.594 16.041 5.503 2.803 2.353 5.775 4.5 8.691 6.722.994.759 1.303 1.528.581 2.709-.741 1.237-.375 2.156.984 2.831 2.363 1.191 4.847 1.397 7.434.863 7.359-1.491 14.756-2.7 22.284-1.997 8.447.788 16.884 1.791 24.994 4.519 2.016.675 4.238.966 6.375 1.088 1.95.122 2.925-1.238 2.222-3.019-.609-1.556-.159-2.616.797-3.759 3.919-4.678 7.359-9.778 12.338-13.481.384-.281.741-.628 1.181-.769.984-.347 1.594.028 1.472 1.116-.066.628-.291 1.238-.506 1.837-2.334 6.478-4.688 12.966-7.022 19.444-.806 2.259-.703 2.578 1.406 3.609 5.541 2.681 10.528 6.159 15.066 10.303 1.378 1.266 2.906 1.819 4.809 1.519 1.922-.309 3.084-1.303 3.412-3.225.413-2.381 1.838-3.816 4.059-4.659 4.809-1.819 9.553-3.834 14.4-5.55 1.753-.628 3.731-.666 5.606-.825.544-.038 1.144.422 1.716.666a.9.9 0 0 1 .066.384z"/></svg>