<svg xmlns="http://www.w3.org/2000/svg" width="300" height="300" viewBox="0 0 300 300"><title>factions-order-cities-of-sigmar-the-living-city</title><path d="M156.122 298.847c-1.95-.994-2.466-1.453-3.178-2.888-1.341-2.709-1.697-6.216-1.172-11.541 1.069-10.762.328-10.884-8.269-1.387-2.578 2.85-5.738 6.225-7.022 7.491-1.997 1.978-2.353 2.203-2.447 1.556-.066-.413.984-3.084 2.325-5.934 2.053-4.359 2.466-5.569 2.616-7.613.159-2.288.122-2.466-.741-3.028-.816-.534-1.078-.544-2.419-.075-2.775.956-5.559 2.934-9.891 7.013-5.006 4.716-8.269 7.256-9.712 7.575-1.247.272-2.981-.319-2.981-1.013 0-.712 2.156-3.141 9.094-10.247 3.319-3.403 6.919-7.247 7.987-8.55 5.662-6.844 6.806-11.053 3.263-12.009-2.953-.797-9.197.853-16.584 4.369-5.681 2.7-7.303 3.825-10.856 7.462-3.675 3.769-5.513 4.519-11.822 4.791-4.275.188-6.188-.141-6.188-1.088 0-1.275 4.041-3.984 12.253-8.212 6.272-3.234 9.947-5.981 12.9-9.656 2.063-2.559 2.728-4.144 1.894-4.463-.656-.253-7.444 1.378-15.234 3.656-6.234 1.828-9.272 2.344-9.272 1.594 0-.656 2.184-2.691 5.456-5.072 7.237-5.269 14.728-8.878 23.259-11.194 7.837-2.128 10.2-3.487 10.95-6.262.366-1.369.328-1.537-.609-2.512-1.341-1.406-6.019-3.769-13.05-6.609q-11.137-4.502-22.191-10.228c-12.197-6.319-62.606-35.025-62.213-35.419.075-.075 1.359.356 2.859.966 3.684 1.472 6 1.866 12.45 2.119 5.447.216 8.991 0 9.956-.6.656-.403.028-2.006-4.978-12.572-6.769-14.269-9.834-22.425-12.234-32.55-1.331-5.625-1.987-10.913-2.381-19.275-.384-8.306-1.256-14.156-3.103-20.869-2.756-10.003-6.9-16.594-11.138-17.681-2.475-.637-4.097-1.331-4.256-1.819-.094-.272.234-.197.825.197 2.203 1.444 6.487.234 8.663-2.447 1.322-1.631 1.631-3.769 1.012-6.928-.563-2.85-1.397-4.5-3.469-6.834-.9-1.012-1.631-1.922-1.631-2.034 0-.375 3.384 2.241 5.147 3.975 3.112 3.066 5.672 9.319 6.478 15.881.797 6.403 2.381 10.912 3.844 10.912 1.425 0 4.406-6.028 7.266-14.7 2.531-7.697 4.706-12.984 7.847-19.125 3.272-6.384 5.766-9.731 8.081-10.837 2.166-1.031 2.625-2.044 2.091-4.556-.572-2.653-2.803-6.647-4.519-8.091-.816-.684-2.878-2.278-4.575-3.544-1.837-1.369-3.131-2.588-3.197-3.037s.487-1.5 1.35-2.588c2.016-2.541 6.9-7.303 8.194-7.978 1.041-.544 1.097-.525 1.903.488.459.572 1.519 3.178 2.353 5.775 1.753 5.466 2.438 6.947 3.975 8.709 2.85 3.244 6.834 1.781 14.503-5.306 10.369-9.591 25.313-16.406 44.138-20.119 14.091-2.784 30.984-3.15 39.619-.862 2.606.694 3.966 1.481 3.441 1.997-.534.534-3.984.872-12.619 1.209-13.237.525-18.188 1.247-28.284 4.162-10.706 3.094-22.322 9.197-31.191 16.397-4.313 3.506-17.241 16.669-20.053 20.419-17.597 23.484-24.506 59.334-17.194 89.166 1.406 5.747 3 10.284 6.178 17.625 11.063 25.594 25.153 39.741 48.9 49.125 5.803 2.297 10.547 3.412 12.694 3.009 2.841-.534 4.209-3 4.219-7.528 0-2.025-.197-2.803-1.266-4.912-.694-1.378-2.128-3.506-3.178-4.734-3.291-3.825-4.969-5.119-15.6-11.934-16.041-10.294-27.15-22.978-32.503-37.116-1.425-3.75-3.328-11.494-3.834-15.563-.647-5.231-.263-18.769.713-24.816 1.031-6.403 3.009-14.362 4.584-18.45 2.484-6.441 6.9-13.95 11.737-19.95 2.569-3.187 9.319-9.816 13.163-12.928 10.012-8.1 22.237-14.091 33.647-16.509 9.066-1.922 21.713-1.05 24.441 1.678 1.903 1.903-.478 2.578-10.809 3.056-3.9.178-8.156.506-9.459.722-18.225 3.028-32.812 13.556-42.713 30.816-3.337 5.813-6.309 14.4-7.884 22.772-.984 5.213-1.341 16.791-.703 22.378 1.594 13.809 6.497 27.141 14.203 38.616 3.084 4.584 7.003 7.669 14.541 11.447 6.291 3.15 9.722 3.9 10.584 2.297 1.031-1.922-.394-8.775-4.397-21.216-3.516-10.912-4.369-14.559-4.359-18.666 0-6 .919-8.859 10.05-31.509 5.606-13.894 8.034-19.05 11.4-24.15 2.775-4.219 3.647-4.987 9.141-8.109 2.588-1.472 5.972-3.619 7.519-4.763s3.516-2.428 4.378-2.85c2.128-1.031 7.978-2.475 11.128-2.756 1.416-.122 2.991-.441 3.497-.694s2.231-1.828 3.825-3.497c4.697-4.894 9.947-11.972 14.119-19.041 2.025-3.431 4.65-6.525 6.797-8.016 1.491-1.031 1.744-1.078 6.675-1.275 2.822-.112 5.841-.431 6.703-.703 2.362-.741 4.95-3.328 7.894-7.866 3.216-4.95 7.162-9.206 9.713-10.481 2.269-1.134 3.019-1.163 3.563-.15.638 1.181.15 3.244-2.072 8.859-7.472 18.844-19.575 37.809-35.719 55.969-6.094 6.862-9.394 12.141-9.797 15.722-.422 3.731.787 4.472 3.647 2.25 2.484-1.931 36.281-35.747 42.094-42.103 5.306-5.822 8.053-9.206 10.959-13.528 1.706-2.531 2.681-3.572 4.772-5.044 5.662-3.984 15.975-9.075 20.559-10.153 1.725-.403 2.006-.384 2.634.188.825.741.956 3.094.3 5.437-.797 2.897-6.722 10.941-14.372 19.509-5.4 6.047-10.003 10.359-14.897 13.969-6.281 4.622-7.688 5.869-8.794 7.753-.909 1.547-1.012 2.109-1.219 6.778-.206 4.463-.375 5.494-1.397 8.362-2.494 7.003-5.625 12.431-16.097 27.975-16.406 24.338-37.781 56.409-41.156 61.744-3.675 5.813-6.141 10.284-5.841 10.575.928.928 23.981-8.466 31.378-12.787 2.981-1.744 6.834-5.222 9.506-8.578.984-1.238 3.45-5.016 5.484-8.4 4.2-6.994 6.694-10.481 7.894-11.034 1.378-.638 1.303.225-.459 5.372-2.569 7.5-4.172 10.416-9.225 16.791-8.981 11.325-22.828 22.809-33.881 28.106-4.078 1.959-4.847 2.484-7.491 5.128-3.066 3.075-5.025 6.15-6.15 9.619-.853 2.644-.656 6.9.394 8.297 2.803 3.75 6.431 3.516 18.338-1.209 17.625-6.984 31.706-15.366 41.428-24.656 8.119-7.763 13.613-16.069 18.778-28.378 3.338-7.959 7.153-15.778 7.341-15.019.169.694-1.087 6.169-2.991 13.022-1.472 5.316-2.063 9.122-1.697 10.913.225 1.069.431 1.294 1.35 1.378 1.434.141 4.134-1.65 5.428-3.619 1.209-1.828 1.65-1.397 1.238 1.2-.656 4.134-3.441 7.603-10.069 12.544-8.1 6.037-24.244 23.25-28.613 30.506-.713 1.181-1.284 2.278-1.284 2.438s.394.478.862.694c1.716.787 6.881-1.397 15.094-6.384 5.147-3.122 10.566-5.737 11.887-5.737 1.463 0 2.391.497 4.425 2.372 1.416 1.303 2.644 3.037 2.644 3.713 0 .394-5.147 2.587-9.637 4.116-2.4.816-16.8 5.175-32.006 9.694s-29.034 8.709-30.731 9.309c-7.378 2.616-11.634 5.606-11.634 8.147 0 .713.234 1.856.516 2.541 1.228 2.925 9.619 9.628 20.147 16.088 11.822 7.247 22.088 14.438 22.978 16.097.309.581.234.787-.412 1.134-1.106.591-9.159.488-15.403-.197-5.756-.628-15-.741-15.825-.188-.872.581 1.406 2.4 3.9 3.113 3.197.909 5.559 2.006 5.559 2.569 0 .825-1.828 1.303-4.369 1.125-3.741-.262-6.956-2.081-11.269-6.394-1.931-1.931-4.303-4.734-5.269-6.244-2.766-4.275-4.903-6.909-5.606-6.909-1.266 0-2.662 2.381-4.134 7.097-2.419 7.688-3.506 15.197-3.9 26.737-.169 5.1-.422 9.647-.563 10.097-.347 1.144-1.416 1.05-4.2-.366zm20.1-289.641c-1.106-.778-.525-1.453 1.528-1.763 3.319-.497 6.047.647 4.397 1.847-.956.703-4.884.647-5.925-.084"/></svg>