<svg xmlns="http://www.w3.org/2000/svg" viewBox="0 0 300 300"><path d="M90.722 168.975c-1.087-2.475-2.897-4.809-5.306-5.738-3.216-1.238-8.916.3-13.359 0-7.425-.497-23.016-1.481-31.181-2.972-6.159-1.116-12.544-2.559-17.822-5.934-6.188-3.956-16.088-13.369-19.303-17.822-1.734-2.409-2.231-8.906 0-8.906s8.906 6.431 13.369 8.906c4.256 2.363 8.531 5.269 13.359 5.934 7.172.994 21.037.994 29.7 0 7.631-.872 17.072-3.469 22.275-5.934 3.787-1.809 7.425-5.691 8.906-8.906 1.453-3.15 1.378-7.219 0-10.397-1.734-3.994-7.106-8.906-10.397-13.547-4.209-5.944-11.381-15.684-14.85-22.088-2.756-5.091-3.956-11.878-5.944-16.331-1.622-3.647-5.625-6.413-5.934-10.397-.497-6.188.994-26.728 2.972-26.728s4.95 20.541 8.906 26.728c3.253 5.091 10.266 6.459 14.85 10.397 5.194 4.453 9.712 12.413 16.331 16.331 6.684 3.956 17.569 6.188 23.756 7.425 4.369.872 12 4.238 13.359 0 2.231-6.928 0-41.578 0-41.578s4.162-16.753 8.906-23.756c5.194-7.669 20.044-23.016 22.275-22.275s-7.791 17.4-8.906 26.728c-1.481 12.375-1.481 37.369 0 47.512.778 5.297 5.944 10.397 8.906 13.359 2.344 2.344 5.588 4.453 8.906 4.453 3.713 0 9.609-1.641 13.369-4.453 4.95-3.713 9.891-13.022 16.369-17.822 6.684-4.95 15.037-10.228 23.728-11.878 10.388-1.978 37.369-2.719 38.606 0s-22.275 8.944-31.181 16.331c-8.906 7.397-17.081 21.094-22.275 28.022-3.234 4.322-8.128 9.563-8.878 13.547-.684 3.703 2.944 7.922 4.425 10.397 1.078 1.8 2.4 4.003 4.453 4.453 6.684 1.481 25.734 2.719 35.634 4.453 8.044 1.406 16.594 2.025 23.756 5.934 8.166 4.453 25.247 18.309 25.247 20.784s-16.65-4.987-25.247-5.934c-8.906-.994-19.547-.994-28.209 0-8.109.928-17.822 3.713-23.756 5.934-4.369 1.641-9.9 4.209-11.878 7.425s-.741 8.166 0 11.878c.741 3.694 2.362 7.256 4.453 10.397 4.453 6.684 17.081 19.8 22.275 29.7 4.8 9.15 7.425 22.519 8.906 29.7.9 4.359.741 10.144 0 13.359-.553 2.409-3.084 7.997-4.453 5.944-1.481-2.231-1.5-13.397-4.453-19.303-3.216-6.431-9.188-13.491-14.85-19.303-6.956-7.144-19.988-19.116-26.916-23.569-4.2-2.7-10.734-3.159-14.662-3.159-3.15 0-6.684 1.172-8.906 3.159s-3.853 5.513-4.453 8.719c-.741 3.928.497 10.144 0 14.85-.478 4.537-1.941 8.916-2.972 13.359-1.481 6.431-2.719 17.569-5.944 25.247-3.188 7.594-9.647 16.331-13.359 20.784-2.287 2.738-8.166 7.425-8.906 5.934s4.106-9.694 4.453-14.85c.741-10.884 0-50.484 0-50.484s-2.719-10.922-4.453-14.85c-1.416-3.216-3.713-6.741-5.934-8.719-2.006-1.791-4.734-3.159-7.425-3.159-2.972 0-7.312 1.256-10.397 3.159-3.216 1.978-6.066 5.691-8.906 8.719-3.216 3.431-6.188 8.719-10.397 11.878-4.95 3.713-13.116 7.669-19.303 10.397-5.728 2.522-11.559 5.944-17.822 5.944-6.928 0-23.756-3.713-23.756-5.944s16.828-3.713 23.756-7.425c6.816-3.647 12.844-8.925 17.822-14.85 5.194-6.188 10.144-16.331 13.359-22.275 2.325-4.284 4.95-9.159 5.944-13.369.684-2.906.9-6.356.534-9.262 2.175 6.628 5.897 12.872 10.519 18.047 13.894 15.525 26.888 18.863 47.156 18.863 15.206 0 34.191-5.063 43.387-18.863 5.85-8.775 7.8-19.762 9.431-30.178 1.556-9.938 2.766-20.503 0-30.178-4.575-15.994-25.594-33.356-41.503-35.841-10.847-1.697-23.644-3.778-33.956 0-8.719 3.197-19.05 11.372-24.525 18.863-7.388 10.116-9.431 21.572-11.316 33.956-.863 6.947-1.763 14.194-.375 21.037zM103.5 147c1.5-9.853 3.122-18.956 9-27 4.359-5.962 12.572-12.459 19.5-15 8.203-3.009 18.375-1.35 27 0 12.647 1.978 29.363 15.778 33 28.5 2.194 7.688 1.238 16.097 0 24-1.294 8.278-2.85 17.025-7.5 24-7.313 10.978-22.406 15-34.5 15-16.116 0-26.447-2.653-37.5-15-4.181-4.669-7.416-10.434-9-16.5-1.519-5.803-.741-12.047 0-18"/></svg>