<svg xmlns="http://www.w3.org/2000/svg" width="300" height="300" viewBox="0 0 300 300"><title>factions-destruction-bladeborn-grinkraks-looncourt</title><path d="M239.897 13.362c-1.932.711-3.682 1.052-11.339 2.217-4.372.663-8.879 1.45-11.67 2.029-3.236.674-15.609 4.834-19.052 6.402-1.527.696-5.213 2.229-8.188 3.409-21.309 8.419-37.925 21.103-56.387 43.057-13.832 16.446-13.82 16.444-24.374 7.369-8.118-6.976-8.558-7.283-13.802-9.593a587 587 0 0 1-8.762-3.964c-12.24-5.715-24.449-5.968-44.037-.919-19.322 4.983-31.799 14.459-28.918 21.964l.561 1.468 4.761-.305c17.646-1.134 18.716-1.054 25.116 1.908 14.991 6.932 27.403 23.493 27.273 36.389-.061 6.202-1.472 8.861-6.725 12.669-7.913 5.741-7.465 11.225 1.095 13.304 5.248 1.276 25.256 19.05 31.088 27.623 3.341 4.904 3.754 9.259 1.194 12.618-2.582 3.383-5.802 1.952-10.784-4.785-9.925-13.429-18.921-16.379-24.48-8.017-3.702 5.572-6.537 7.561-12.028 8.442-14.729 2.372-34.812-7.365-42.679-20.691-5.072-8.589-7.758-8.323-7.757.777.001 10.223 4.062 21.339 12.376 33.861 1.6 2.412 3.656 5.796 4.571 7.52 1.846 3.486 5.866 5.971 13.77 8.5 4.536 1.451 8.024 3.151 14.043 6.829 6.567 4.011 7.119 4.273 11.597 5.471 7.371 1.976 15.465.865 25.055-3.441 24.127-10.832 29.176-13.302 33.128-16.223 4.535-3.357 6.507-3.667 10.481-1.658 4.744 2.399 7.945 7.567 7.945 12.834 0 4.066 2.183 8.426 10.092 20.139 13.963 20.681 25.535 30.382 43.246 36.265 6.279 2.088 10.896 4.129 13.883 6.142 9.061 6.116 27.33 5.919 47.602-.507 17.222-5.462 31.392-16.089 26.67-20.004-1.288-1.071-9.221-.403-14.452 1.212-9.975 3.083-15.746 1.529-24.279-6.539-16.936-16.029-19.05-24.503-10.549-42.3 5.059-10.596 4.823-15.553-.796-16.603-7.977-1.496-19.738 8.078-32.897 26.771-7.206 10.241-12.418 11.231-16.243 3.095-2.169-4.613-.941-8.223 4.62-13.589 3.429-3.307 3.479-3.395 4.114-7.214.653-3.921 1.405-5.419 4.475-8.889 3.109-3.517 2.476-5.227-5.78-15.589-11.243-14.116-12.295-16.747-6.69-16.747 6.074 0 16.157 6.484 23.972 15.417 7.086 8.099 10.642 8.78 13.341 2.558 2.525-5.815 2.004-7.876-2.62-10.338-5.041-2.688-6.605-4.43-6.605-7.361 0-7.58 10.998-8.855 12.848-1.486 1.209 4.805 3.557 5.523 8.305 2.534 9.598-6.041 13.631-5.888 20.829.793 5.018 4.656 5.662 4.778 8.668 1.62 3.497-3.679 1.228-11.312-7.001-23.523-3.166-4.698-6.179-7.255-11.655-9.887a3606 3606 0 0 0-8.106-3.893c-3.555-1.704-4.027-2.466-4.546-7.398-.333-3.13-.472-4.03-2.125-13.559-5.325-30.688 41.127-74.141 68.59-64.168 5.634 2.046 6.94 2.259 8.572 1.417 3.991-2.065.097-9.982-9.592-19.509-7.717-7.59-19.357-12.6-35.313-15.206-2.125-.348-4.835-.846-6.025-1.107-2.878-.63-5.135-.513-7.632.403zl.001.004zm-46.594 99.224c6.586 3.462 12.758 12.246 11.302 16.076-.456 1.191-3.341 3.891-4.164 3.891-2.534 0-9.653-4.507-12.995-8.225-7.141-7.945-2.939-16.37 5.857-11.741zm-98.217 6.928c1.955 1.145 1.383 5.419-1.07 7.945-5.074 5.231-10.526 4.405-10.526-1.598 0-6.158 6.164-9.533 11.596-6.347"/></svg>