<svg xmlns="http://www.w3.org/2000/svg" viewBox="0 0 300 300"><path d="M190.8 83.484c.534-.094.938-.291 1.116-.169 4.969 3.384 7.997.15 10.875-3.272 1.884-2.231 3.638-4.594 5.353-6.947 3.488-4.819 1.387-10.05.141-14.691-4.313-15.928-.769-30.291 7.331-43.987 3.197-5.4 8.766-7.912 14.044-10.509 6.056-3 12.684-4.041 19.444-3.9 1.35.028 2.691.412 4.05.628.028.319.075.656.103.975-.966.441-1.912.966-2.906 1.303-6.047 2.1-11.353 5.719-14.503 10.997-6.178 10.369-7.65 21.159.516 33.272 7.941 11.794 23.241 15.834 36.103 9.787 3.487-1.641 7.003-3.272 10.284-5.278 3.291-2.016 6.225-4.453 7.706-8.353.656-1.744 2.278-3.122 3.928-5.259 2.85 8.325 3.216 15.863.797 23.588-5.906 18.891-24.525 30.478-43.144 29.053-6.169-.478-12.15-.938-17.934-3.459-4.603-2.006-7.922.141-9.197 5.091-.244.947-1.256 1.866-2.128 2.466-5.644 3.844-11.653 7.266-14.278 14.194-.262.684-1.378 1.472-2.1 1.472-2.587.047-3.506 2.006-4.547 3.703-1.181 1.912-1.022 3.75 1.069 5.137 1.988 1.331 3.881 2.813 5.859 4.191.394.272.975.656 1.359.553 3.919-.994 3.797 2.278 4.669 4.387.9 2.184 1.65 4.453 2.475 6.666.262.684.656 1.313.891 2.006 4.088 12.131 8.259 24.169 7.706 37.331-.244 6.028 1.303 12.131.891 18.131-.891 13.05-2.887 25.959-7.387 38.353-.075.197-.103.431-.225.581-.966 1.059-1.959 2.1-2.934 3.15-.412-1.284-1.059-2.541-1.209-3.853-1.097-9.009-2.006-18.056-3.216-27.047-.225-1.744-1.594-3.319-2.184-5.053-.366-1.069-.534-2.353-.338-3.469 1.181-6.413 1.013-12.694-1.359-18.816-.675-1.744-1.331-3.844-2.681-4.894-4.069-3.197-3.15-6.956-1.969-10.941.075-.272.019-.6.019-1.069-.75-.291-1.528-.891-2.259-.844-3.656.262-4.791-2.297-6.225-4.941-3.3-6.084-8.494-9.412-15.563-9.441-2.813-.019-4.144 1.987-5.541 4.012-.731 1.069-1.641 2.175-2.709 2.85-2.063 1.303-2.428 2.878-1.144 4.941 2.016 3.262 3.844 6.637 5.737 9.975.197.366.216.994.488 1.134 6.591 3.272 3.487 9.834 4.838 14.813 1.453 5.353 1.772 11.034 2.306 16.603.825 8.503 1.453 16.978-1.556 25.369-.656 1.809.309 4.669 1.406 6.516 1.069 1.791.825 2.494-.366 3.947-1.313 1.594-2.803 3.609-2.925 5.541-.356 5.662-3.628 9.581-7.088 13.434-1.378 1.528-1.528 2.738-.309 4.378 1.406 1.866.656 4.762-1.481 4.772-6.178.028-8.334 5.297-12.037 8.503-3.366 2.925-6.759 5.831-10.022 8.869-.731.684-.844 1.987-1.472 2.85-.806 1.134-1.678 2.4-2.831 3.094-1.547.938-3.469 1.228-5.091 2.053-10.125 5.184-20.728 8.747-32.063 10.097-2.691.319-5.381 1.087-8.062 1.022-4.238-.094-8.475-.656-12.694-1.116-5.522-.6-11.063-1.35-16.266 1.434-2.016 1.069-3.075.844-3.309-1.688-.216-2.353-1.603-3.75-3.844-4.8-5.756-2.709-11.597-5.372-16.95-8.766-3.141-1.988-5.325-5.419-8.109-8.016-2.391-2.231-4.969-4.256-7.556-6.272-.488-.384-1.35-.431-2.034-.384-2.541.15-4.088-1.303-4.603-3.722-.581-2.681-1.641-5.25-2.522-7.866-.122-.384-.413-.825-.75-.975-5.813-2.813-7.434-8.916-9.497-13.941-3.337-8.137-5.672-16.856-7.116-25.547-1.838-11.072-.609-22.303 1.603-33.291 2.016-10.05 7.003-18.591 14.606-25.566 2.737-2.512 2.719-5.719 1.697-9.009-1.228-3.966-1.134-3.947 2.831-4.134 1.425-.066 3.047-.778 4.144-1.716 3.966-3.366 7.584-7.144 11.644-10.406 2.813-2.269 6.028-4.097 9.253-5.756 3.394-1.744 5.091-4.341 5.634-7.997.141-.966 1.022-1.809 1.575-2.709.778.6 1.744 1.041 2.325 1.791 2.644 3.394 3.347 3.394 7.434 2.138 4.594-1.425 9.15-3.684 14.241-1.359 1.134.525 3.019.225 4.209-.366 5.081-2.513 10.416-1.791 15.694-1.481 2.156.122 4.303.656 6.412 1.181 2.372.581 4.463 1.547 6.469-1.228 1.528-2.109 3.806-1.763 5.55.413.431.525 1.041.947 1.65 1.266 5.494 2.934 11.072 5.709 16.481 8.784 4.847 2.756 7.359 2.203 10.219-2.616.563-.947 1.547-1.987 2.541-2.269a8.14 8.14 0 0 0 5.541-10.359c-2.128-6.441-6.15-11.034-12.488-13.388-2.719-1.013-5.644-1.481-8.503-2.034-2.344-.459-4.284-.722-6.272-2.925-1.931-2.138-5.691-2.878-8.794-3.609-3.928-.947-8.081-1.013-12.009-1.969-2.138-.525-4.041-2.109-6.047-3.216-5.428-3-11.334-4.134-17.475-4.209-8.475-.103-16.95-.122-25.425-.188-.816 0-1.641-.141-3.469-.291 1.312-1.453 1.987-2.887 3.028-3.263 6.506-2.231 12.956-5.259 19.678-6.047 10.162-1.191 20.513-.9 30.778-.966 6.853-.028 13.725.394 20.578.684 1.866.075 3.844.094 5.588.656a848 848 0 0 1 24.216 8.353c2.512.9 4.894 2.203 7.237 3.534.684.394 1.481 1.528 1.387 2.222-.441 3.506 1.931 5.4 4.088 7.284 4.266 3.703 13.097 3.141 16.997-.9 1.762-1.838 2.756-3.9 2.053-6.534-.141-.825-.122-1.65-.197-2.475z"/></svg>