<svg xmlns="http://www.w3.org/2000/svg" viewBox="0 0 300 300"><path d="M299.809 84.196c.128 1.193.192 2.578.192 3.984 0 16.3-9.205 30.469-22.713 37.564l-.234.107c-5.667 3.346-8.607 11.868-11.804 18.537s-4.815 7.755-8.31 0c-3.558-7.052-7.052-12.934-10.867-18.601l.383.596a7.27 7.27 0 0 0-6.499-3.942c-2.407 0-4.495 1.151-5.838 2.919l-.021.021c-6.669 6.818-6.584 13.189 0 21.563s6.755 8.373-.789 16.896c-3.729 4.283-6.669 9.226-10.248 13.658s-8.224 10.099-15.533 8.992c-10.164-1.471-12.422 4.815-14.83 13.274-5.433 19.24 2.024 31.023 21.904 32.195h25.141a29.5 29.5 0 0 1-3.175 6.711l.086-.128c-2.961 3.409-6.584 6.2-9.482 9.695-3.92 5.327-10.12 8.757-17.174 8.757-1.065 0-2.109-.086-3.154-.234l.128.021a30 30 0 0 0-2.493-.086 34.23 34.23 0 0 0-21.946 7.904l.063-.042c-20.88 14.34-43.573 16.854-65.455 0a44.1 44.1 0 0 0-11.528-7.628l-.277-.107c-2.024-.341-4.346-.532-6.711-.532s-4.688.192-6.967.554l.255-.042c-12.721-.086-23.586-7.755-28.338-18.729l-.086-.213c-1.471-2.77-1.471-4.88 2.237-5.029 2.323-.149 5.05-.255 7.777-.255s5.433.107 8.118.299l-.341-.021c1.427.299 3.068.448 4.73.448a24.76 24.76 0 0 0 21.52-12.422l.064-.128c1.938-3.643 5.518-6.882 1.555-12.102-2.024-2.643-1.023-7.755-1.641-11.164-1.321-8.607-3.643-10.398-12.721-9.695-1.704 0-4.432 2.088-4.901 1.555a335 335 0 0 1-22.713-26.677l-.575-.81c-4.73-6.584.618-13.423 3.089-19.857a25 25 0 0 0 2.599-6.734l.042-.149c0-1.406-1.875-3.409-3.495-4.198a3.6 3.6 0 0 0-.703-.064 4.55 4.55 0 0 0-3.473 1.598c-2.961 4.901-5.221 10.164-7.777 15.128-.916 1.47-2.961 2.323-4.495 3.495-.916-1.641-1.854-3.175-2.727-4.815-1.065-1.812-2.174-4.027-3.154-6.307l-.17-.427c-4.495-11.421-4.495-11.421-15.533-6.584-10.015 4.346-18.409.938-18.729-9.844-.98-10.057-4.155-19.198-9.013-27.209l.171.277C1.184 91.95-.009 87.028-.009 81.808c0-4.773.98-9.289 2.791-13.38l-.086.213c6.925-19.773 23.31-31.023 37.883-43.977 1.555-1.321 4.815-.703 7.755-.938.021.405.042.873.042 1.342 0 2.258-.255 4.495-.766 6.605l.042-.192c-2.323 5.987-4.943 11.079-7.99 15.895l.234-.383c-6.755 10.398-3.58 19.474 3.175 28.083 3.026 4.325 7.969 7.117 13.594 7.117 4.539 0 8.651-1.833 11.654-4.794 7.223-6.755 13.679-13.573 24.844-11.719 1.938 0 4.495-2.174 6.37-3.729 9.63-8.14 19.177-16.279 28.573-24.567 14.829-13.189 26.633-13.721 42.166-1.704l33.26 25.526c1.789 1.534 3.792 3.005 5.88 4.411l.255.17c4.495 2.643 9.013-5.646 13.828 0 3.175 3.729 7.159 6.755 10.334 10.398 2.876 3.792 7.372 6.243 12.465 6.243 3.089 0 5.987-.916 8.438-2.471l-.063.042c4.88-4.539 8.161-10.717 8.992-17.621l.021-.149c2.174-11.782-4.198-22.096-8.31-32.727-.404-1.406-.661-3.047-.768-4.752v-.064c1.768 0 3.878-.469 5.284 0 15.362 8.438 27.742 20.646 36.094 35.391l.255.448c2.195 7.073 3.516 15.234 3.664 23.672v.064l-.107-.064zm-192.273 32.833c-7.755 0-16.3 11.549-13.125 17.152 4.943 7.671 10.505 14.34 16.726 20.284l.042.042c5.902 6.136 12.805 1.555 19.261 0 8.779-1.768 9.311-2.94 5.966-10.93-1.236-2.961-3.878-5.583-4.112-8.523-1.47-16.896-15.682-14.958-24.758-18.005v-.021zm68.971 37.756c1.3.299 2.791.49 4.325.49 6.286 0 11.825-3.047 15.298-7.734l.042-.064c4.346-7.755 9.545-14.893 6.37-26.058-2.088-7.755-6.286-6.221-9.247-5.966-15.533 1.236-23.992 12.188-29.36 25.675-4.027 10.164-1.471 13.423 12.592 13.658h-.021zm-43.744 40.802c0 1.151-1.321 2.557-1.023 3.579 2.855 11.143 6.029 20.539 9.844 29.638l-.511-1.385c1.236 2.791 7.287 4.112 11.336 4.581s7.755-2.961 9.162-7.755c1.406-4.794 2.876-8.289 3.878-12.486 1.151-5.348 1.768-10.717 2.727-16.065-3.792 3.409-7.755 6.584-11.336 10.313-1.427 2.024-3.729 3.323-6.349 3.323s-4.943-1.3-6.349-3.302l-.021-.021a119 119 0 0 0-7.671-7.671l-.086-.086c-1.044-.938-2.237-1.789-3.451-2.557l-.128-.063-.021-.042z"/></svg>