<?xml version="1.0" encoding="UTF-8" standalone="no"?>
<!DOCTYPE svg PUBLIC "-//W3C//DTD SVG 1.1//EN" "http://www.w3.org/Graphics/SVG/1.1/DTD/svg11.dtd">
<svg width="100%" height="100%" viewBox="0 0 496 248" version="1.1" xmlns="http://www.w3.org/2000/svg" xmlns:xlink="http://www.w3.org/1999/xlink" xml:space="preserve" xmlns:serif="http://www.serif.com/" style="fill-rule:evenodd;clip-rule:evenodd;stroke-linejoin:round;stroke-miterlimit:2;">
    <g transform="matrix(1,0,0,1,-8.37,-84.27)">
        <path d="M141.749,85.454C141.099,86.104 136.838,86.83 132.282,87.066C121.476,87.624 112.748,88.435 85.598,91.399C73.278,92.745 51.346,94.221 36.859,94.677C10.17,95.52 5.819,96.519 9.504,100.958C12.515,104.585 30.313,113.064 35.054,113.129C37.333,113.16 40.998,114.214 43.198,115.473C45.398,116.73 49.852,117.784 53.095,117.817C56.337,117.848 61.017,118.7 63.495,119.712C65.972,120.724 71.598,121.705 75.998,121.891C80.398,122.079 89.398,123.122 95.999,124.21C102.6,125.298 114.479,125.863 122.399,125.465C132.254,124.97 138.098,125.39 140.913,126.8C146.286,129.489 163.199,148.243 163.199,151.511C163.199,152.904 165.719,156.488 168.799,159.473C171.88,162.459 174.399,165.896 174.399,167.114C174.399,168.329 177.262,172.245 180.761,175.815L187.123,182.305L186.26,194.49C184.857,214.269 182.774,217.379 171.201,216.978C165.673,216.786 140.159,221.571 128.801,224.928C78.302,239.855 49.832,258.674 37.368,285.369C29.65,301.9 30.618,305.167 40.83,297.051C44.136,294.424 47.53,292.274 48.374,292.274C49.217,292.274 51.824,290.908 54.168,289.24C56.512,287.572 61.399,285.405 65.029,284.429C68.659,283.451 72.521,281.576 73.61,280.263C74.701,278.948 77.527,277.874 79.891,277.874C82.255,277.874 85.587,276.817 87.295,275.525C89.002,274.234 91.481,273.155 92.8,273.131C94.121,273.105 98.08,271.708 101.6,270.025C109.669,266.167 123.151,263.435 141.599,261.919C149.521,261.268 158.514,259.912 161.589,258.905C182.8,251.958 195.449,261.145 191.359,280.528C190.592,284.161 191.482,286.348 195.777,291.405L201.154,297.734L207.657,295.589C215.537,292.988 218.657,293.979 221.021,299.83C230.701,323.796 232.085,326.428 234.003,324.51C236.761,321.752 237.947,322.261 239.055,326.675C240.258,331.466 244.088,331.959 245.262,327.476C246.338,323.361 249.093,323.361 250.399,327.476C251.584,331.212 254.399,331.775 254.399,328.276C254.399,325.117 257.434,325.187 258.657,328.375C259.455,330.453 260.357,330.164 264.011,326.663L268.407,322.452L270.35,327.763C272.079,332.487 272.427,332.722 273.505,329.876C274.204,328.032 276.682,326.338 279.358,325.876C283.688,325.129 284.389,323.899 289.849,307.475L295.7,289.876L302.702,289.876C315.159,289.876 324.957,280.429 321.825,271.441C318.192,261.02 332.763,254.718 350.178,259.182C356.018,260.678 364.344,261.896 368.683,261.889C373.022,261.882 378.781,262.533 381.483,263.337C390.695,266.078 400.788,268.541 406.397,269.417C409.477,269.898 413.416,271.28 415.154,272.484C416.889,273.69 419.438,274.676 420.815,274.676C422.192,274.676 426.144,276.116 429.596,277.876C433.049,279.636 437.123,281.076 438.651,281.076C440.179,281.076 444.814,282.876 448.951,285.076C453.088,287.276 457.335,289.076 458.387,289.076C459.439,289.076 461.604,290.516 463.197,292.276C464.789,294.036 466.768,295.476 467.593,295.476C468.418,295.476 470.95,296.937 473.219,298.723C479.18,303.411 480.425,300.6 476.79,290.658C473.588,281.898 464.211,266.686 462.011,266.68C461.357,266.678 458.837,264.448 456.41,261.723C452.513,257.346 433.029,242.677 431.114,242.677C430.712,242.677 426.607,240.807 421.99,238.521C410.889,233.022 397.757,229.152 378.399,225.672C375.759,225.197 371.078,223.656 367.999,222.247C361.861,219.439 347.518,216.754 340.055,217.015C328.589,217.417 326.974,215.278 325.839,198.182C324.901,184.094 325.105,182.313 328.063,178.678C329.852,176.479 332.55,172.611 334.058,170.084C335.565,167.559 339.498,162.943 342.799,159.828C346.099,156.711 348.799,152.874 348.799,151.297C348.799,149.72 353.298,143.751 358.799,138.032L368.799,127.635L395.89,125.858C410.789,124.878 424.388,123.325 426.109,122.405C427.83,121.485 431.686,121.127 434.676,121.614C437.684,122.101 443.038,121.464 446.657,120.187C450.256,118.918 455.811,117.853 459,117.822C462.19,117.79 466.599,116.735 468.798,115.478C470.998,114.22 474.542,113.165 476.671,113.134C481.257,113.067 499.647,104.391 502.507,100.946C506.192,96.507 501.743,95.484 475.118,94.653C460.642,94.2 438.719,92.735 426.399,91.396C414.077,90.055 400.399,88.636 395.998,88.243C391.597,87.85 384.758,87.182 380.798,86.762C376.839,86.341 367.673,85.63 360.431,85.182L347.264,84.367L342.831,90.224C340.393,93.446 335.333,99.367 331.588,103.38C320.859,114.877 319.348,116.631 313.557,124.277C299.023,143.474 286.608,151.89 282.538,145.305C281.699,143.947 268.355,140.973 257.633,139.755C251.829,139.097 232.748,142.37 225.258,145.311C219.525,147.561 211.75,142.892 205.569,133.483C193.14,114.569 192.681,114.006 175.688,96.764L163.379,84.277L153.154,84.277C147.529,84.277 142.397,84.808 141.747,85.458L141.749,85.454ZM300.815,235.738C310.847,241.663 311.651,254.688 302.283,259.531C284.141,268.913 261.353,251.251 277.122,240.03C288.042,232.261 293.312,231.306 300.815,235.737L300.815,235.738ZM224.239,238.657C228.946,240.848 233.748,242.649 234.912,242.657C242.118,242.711 243.203,250.421 236.891,256.732C227.548,266.076 209.145,265.46 206.438,255.714C201.682,238.594 209.013,231.57 224.24,238.658L224.239,238.657ZM261.546,262.37C264.423,266.762 268.755,280.473 268.78,285.267C268.797,288.452 268.032,288.649 256.398,288.467L243.998,288.273L244.209,283.473C245.109,263.009 254.487,251.595 261.547,262.37L261.546,262.37Z" style="fill-rule:nonzero;"/>
    </g>
</svg>
