<svg xmlns="http://www.w3.org/2000/svg" viewBox="0 0 300 300"><path d="M154.008 2.49c-17.815 11.842-16.552 9.121-16.06 34.61.391 20.288.164 22.099-3.526 28.034-2.819 4.534-3.665 7.743-2.965 11.244 1.412 7.058.041 9.325-9.55 15.805-15.94 10.767-15.893 10.705-18.555 24.615-1.362 7.119-3.645 14.728-5.075 16.908-3.138 4.789-5.297 16.172-7.368 38.837-2.323 25.43-8.773 46.237-20.04 64.646-9.258 15.126-8.973 17.457 3.048 24.877 10.893 6.724 26.49 11.05 39.968 11.088 9.205.025 18.642 6.167 18.642 12.132 0 5.711 12.84 16.644 16.966 14.445 8.603-4.585 15.22-11.067 18.183-17.816 3.338-7.599 7.884-10.376 17.096-10.444 16.202-.12 49.892-14.181 50.895-21.243.521-3.669-7.384-19.588-13.045-26.268-6.736-7.95-13.131-35.394-14.774-63.399-2.291-39.07-8.427-52.341-33.195-71.798-14.952-11.746-15.019-11.863-11.09-19.461 2.519-4.871 2.467-5.585-.885-12.296-5.232-10.475-6.248-26.335-2.591-40.435 4.136-15.947 2.484-19.774-6.08-14.081zm-36.32 137.977c4.224 7.16 4.759 7.31 28.01 7.872 18.573.449 19.073.365 21.69-3.633 7.5-11.461 14.803-13.145 17.171-3.957.739 2.866 2.472 6.149 3.852 7.295 4.494 3.729 3.044 9.814-3.219 13.508-3.936 2.323-6.076 5.046-6.838 8.703-.973 4.671-4.626 11.403-20.357 37.512-4.608 7.647-4.681 10.468-.451 17.406 4.01 6.577 4.216 10.983.746 15.936-3.229 4.61-8.387 4.788-10.75.371-2.114-3.949-7.099-4.341-10.606-.834-7.804 7.804-13.981-6.109-7.169-16.148 5.854-8.627 6.684-12.41 3.872-17.65-1.351-2.517-5.01-9.456-8.133-15.42s-6.511-12.346-7.531-14.181-2.759-5.777-3.865-8.759c-1.105-2.982-3.184-5.422-4.62-5.422-8.495 0-12.067-9.578-6.844-18.352 6.75-11.341 10.269-12.334 15.041-4.245zm14.301 23.69c-2.296 2.297-1.016 8.311 3.04 14.28 2.294 3.376 4.171 6.812 4.171 7.637 0 1.627 5.467 7.02 7.116 7.02.558 0 4.536-5.25 8.842-11.667 9.633-14.358 8.747-16.885-5.738-16.366-5.162.185-10.942-.197-12.843-.849s-3.967-.677-4.588-.056z"/></svg>