<svg xmlns="http://www.w3.org/2000/svg" xml:space="preserve" fill-rule="evenodd" stroke-linejoin="round" stroke-miterlimit="2" clip-rule="evenodd" viewBox="0 0 300 300"><path fill-rule="nonzero" d="M217.025 5.413c-5.566.197-11.609.617-13.429.935-1.819.316-6.465.81-10.322 1.097-3.858.286-9.491.731-12.518.988-5.947.506-20.541 3.154-26.47 4.805-2.019.561-6.264 1.605-9.434 2.319-8.587 1.934-15.042 3.697-16.791 4.588-.855.434-4.504 1.8-8.107 3.032-12.52 4.282-27.772 11.259-37.114 16.98-2.395 1.466-4.99 3.017-5.766 3.447-5.369 2.972-14.824 8.917-16.351 10.281-1.008.902-2.821 2.139-4.026 2.75-1.206.611-2.342 1.352-2.526 1.65-.183.296-3.033 2.567-6.334 5.046s-6.421 5.042-6.935 5.694-2.101 2.19-3.53 3.416c-11.506 9.88-20.672 19.204-20.676 21.03-.006 2.143 6.33 5.089 12.839 5.969 1.441.195 3.989.695 5.661 1.112s5.683 1.223 8.911 1.792c3.229.569 7.403 1.485 9.277 2.037 4.611 1.355 14.586 3.926 19.394 4.998 2.161.481 4.756 1.31 5.766 1.84 1.008.53 2.778 1.136 3.931 1.343s3.394 1.015 4.98 1.792A97 97 0 0 0 93.483 117c1.73.678 4.001 1.763 5.046 2.413 1.046.648 2.758 1.537 3.805 1.975 10.408 4.349 22.689 18.595 29.981 34.783 1.201 2.666 2.411 5.142 2.688 5.504 2.219 2.885 7.737 21.805 9.114 31.25 4.054 27.792.987 40.355-8.441 34.585-1.008-.617-3.367-1.655-5.241-2.307-9.899-3.438-24.748-10.781-33.619-16.624-3.275-2.157-7.135-4.551-8.576-5.319-3.072-1.638-4.84-2.859-14.677-10.13-17.452-12.9-28.748-22.105-32.486-26.473-1.011-1.181-2.757-2.757-3.878-3.5-2.525-1.673-7.91-6.776-11.147-10.562-6.612-7.734-24.193-24.757-25.029-24.233-1.731 1.084-1.261 3.83 1.466 8.545 1.417 2.451 4.278 7.578 6.358 11.393s4.754 8.227 5.944 9.804c3.68 4.879 4.155 5.632 6.792 10.768 1.409 2.744 3.586 6.285 4.839 7.871s2.819 3.573 3.481 4.416 1.792 2.542 2.514 3.776c1.589 2.721 8.219 11.347 13.605 17.703a460 460 0 0 1 7.257 8.811c5.226 6.559 26.967 27.67 32.341 31.403 1.73 1.202 4.325 3.302 5.766 4.666 3.616 3.423 12.761 10.132 16.132 11.836.929.47 2.239 1.356 2.911 1.971s2.087 1.476 3.145 1.913c2.665 1.102 6.929 3.501 11.036 6.211 1.907 1.258 4.646 2.703 6.089 3.212 1.441.509 6.353 2.723 10.915 4.921 4.563 2.197 8.926 4.145 9.698 4.329s2.035.655 2.808 1.044c.774.389 5.256 1.905 9.959 3.367 4.704 1.463 9.967 3.214 11.696 3.891s4.325 1.39 5.766 1.582c1.442.193 3.967.798 5.612 1.346 13.828 4.605 16.323 1.596 9.588-11.567-.958-1.874-2.134-4.92-2.611-6.768-.478-1.849-1.42-4.798-2.094-6.552-3.195-8.317-7.804-26.708-8.616-34.378l-1.127-10.658c-.644-6.101-.305-22.059.627-29.44.846-6.706 5.745-21.063 9.299-27.256q1.722-3 3.391-6.029c.707-1.297 2.203-3.42 3.325-4.717s3.259-3.913 4.75-5.813c6.855-8.735 25.006-23.375 35.55-28.675 5.183-2.513 7.243-3.587 9.296-4.673l-3.007 1.451c1.938-1.011 4.322-1.777 6.106-1.961l2.927-.301 1.6 2.208c.944 1.303 1.702 3.102 1.852 4.392.348 3.008 1.207 9.805 2.265 17.909 1.045 8.016 1.188 32.985.227 39.836-.324 2.307-.953 7.72-1.4 12.031-.446 4.31-1.054 8.91-1.35 10.221s-.75 4.036-1.008 6.053c-.798 6.241-6.542 31.983-9.942 44.554a571 571 0 0 0-2.902 11.268c-.739 3.026-1.945 6.802-2.681 8.387-3.931 8.468.485 9.974 6.107 2.084 1.297-1.82 3.184-4.246 4.193-5.391s2.307-2.868 2.883-3.83c.577-.961 2.383-3.699 4.014-6.085 2.604-3.807 5.567-9.385 10.936-20.585 7.184-14.988 11.059-25.92 19.325-54.513 2.638-9.128 6.946-30.672 9.485-47.437 1.537-10.15 2.589-45.7 1.595-53.949-.332-2.76-.807-7.614-1.054-10.784-.708-9.094-3.143-18.548-7.998-31.065-3.645-9.396-6.047-9.573-12.258-.905-6.92 9.656-19.937 23.246-32.43 33.858-1.153.979-2.404 2.192-2.78 2.695-.729.976-13.63 10.286-15.828 11.421-.72.373-2.49 1.548-3.931 2.614-24.808 18.326-72.597 19.687-99.86 2.842-1.013-.625-3.136-1.792-4.717-2.59s-4.248-2.596-5.925-3.993-3.714-2.934-4.526-3.414c-4.528-2.674-3.652-9.822 1.531-12.503.868-.449 2.762-1.867 4.209-3.153s3.396-2.728 4.329-3.206c.935-.478 3.114-1.98 4.843-3.339 5.072-3.984 20.339-13.188 27.519-16.589 2.738-1.298 6.63-3.163 8.648-4.145 11.076-5.389 33.172-14.079 40.884-16.078 1.153-.299 3.394-.965 4.98-1.481 15.973-5.192 34.534-10.813 38.002-11.508 3.629-.728 11.359-4.187 11.099-4.968-.598-1.792-11.739-2.166-37.467-1.254zm-43.34 122.116c5.181 1.693 5.793 2.175 7.836 6.173 1.919 3.754-9.208 21.189-14.655 22.965-3.392 1.106-7.117-1.397-9.511-6.392-.691-1.442-1.956-3.683-2.81-4.98-1.88-2.854-5.238-9.801-5.238-10.837 0-6.514 13.718-10.412 24.379-6.929z"/></svg>