<?xml version="1.0" encoding="UTF-8" standalone="no"?>
<!DOCTYPE svg PUBLIC "-//W3C//DTD SVG 1.1//EN" "http://www.w3.org/Graphics/SVG/1.1/DTD/svg11.dtd">
<svg width="100%" height="100%" viewBox="0 0 300 300" version="1.1" xmlns="http://www.w3.org/2000/svg" xmlns:xlink="http://www.w3.org/1999/xlink" xml:space="preserve" xmlns:serif="http://www.serif.com/" style="fill-rule:evenodd;clip-rule:evenodd;stroke-linejoin:round;stroke-miterlimit:2;">
    <path d="M154.008,2.49C136.193,14.332 137.456,11.611 137.948,37.1C138.339,57.388 138.112,59.199 134.422,65.134C131.603,69.668 130.757,72.877 131.457,76.378C132.869,83.436 131.498,85.703 121.907,92.183C105.967,102.95 106.014,102.888 103.352,116.798C101.99,123.917 99.707,131.526 98.277,133.706C95.139,138.495 92.98,149.878 90.909,172.543C88.586,197.973 82.136,218.78 70.869,237.189C61.611,252.315 61.896,254.646 73.917,262.066C84.81,268.79 100.407,273.116 113.885,273.154C123.09,273.179 132.527,279.321 132.527,285.286C132.527,290.997 145.367,301.93 149.493,299.731C158.096,295.146 164.713,288.664 167.676,281.915C171.014,274.316 175.56,271.539 184.772,271.471C200.974,271.351 234.664,257.29 235.667,250.228C236.188,246.559 228.283,230.64 222.622,223.96C215.886,216.01 209.491,188.566 207.848,160.561C205.557,121.491 199.421,108.22 174.653,88.763C159.701,77.017 159.634,76.9 163.563,69.302C166.082,64.431 166.03,63.717 162.678,57.006C157.446,46.531 156.43,30.671 160.087,16.571C164.223,0.624 162.571,-3.203 154.007,2.49L154.008,2.49ZM117.688,140.467C121.912,147.627 122.447,147.777 145.698,148.339C164.271,148.788 164.771,148.704 167.388,144.706C174.888,133.245 182.191,131.561 184.559,140.749C185.298,143.615 187.031,146.898 188.411,148.044C192.905,151.773 191.455,157.858 185.192,161.552C181.256,163.875 179.116,166.598 178.354,170.255C177.381,174.926 173.728,181.658 157.997,207.767C153.389,215.414 153.316,218.235 157.546,225.173C161.556,231.75 161.762,236.156 158.292,241.109C155.063,245.719 149.905,245.897 147.542,241.48C145.428,237.531 140.443,237.139 136.936,240.646C129.132,248.45 122.955,234.537 129.767,224.498C135.621,215.871 136.451,212.088 133.639,206.848C132.288,204.331 128.629,197.392 125.506,191.428C122.383,185.464 118.995,179.082 117.975,177.247C116.955,175.412 115.216,171.47 114.11,168.488C113.005,165.506 110.926,163.066 109.49,163.066C100.995,163.066 97.423,153.488 102.646,144.714C109.396,133.373 112.915,132.38 117.687,140.469L117.688,140.467ZM131.989,164.157C129.693,166.454 130.973,172.468 135.029,178.437C137.323,181.813 139.2,185.249 139.2,186.074C139.2,187.701 144.667,193.094 146.316,193.094C146.874,193.094 150.852,187.844 155.158,181.427C164.791,167.069 163.905,164.542 149.42,165.061C144.258,165.246 138.478,164.864 136.577,164.212C134.676,163.56 132.61,163.535 131.989,164.156L131.989,164.157Z" style="fill-rule:nonzero;"/>
</svg>
