<svg xmlns="http://www.w3.org/2000/svg" xml:space="preserve" fill-rule="evenodd" stroke-linejoin="round" stroke-miterlimit="2" clip-rule="evenodd" viewBox="0 0 430 291"><path fill-rule="nonzero" d="M208.338 1.045c-18.463 19.145-20.942 20.588-25.872 36.076-2.89 9.08-3.601 8.72-4.766 18.039-2.474 19.8-4.382 19.558-10.212 22.803-.7.39-4.277 2.38-8.17 5.787-5.958 5.214-5.482 5.88-12.936 8.511-20.18 7.121-22.532 13.943-38.803 0-2.697-2.311-3.456-9.585-10.552-10.552-11.5-1.568 9.069 21.91 10.554 22.803 20.38 12.241 28.406 6.303 31.31 26.216 3.83 26.262 17.397 24.986 18.045 29.947.374 2.867 3.06 23.444-1.964 36.078-.363.912-5.184 13.036.147 12.263 4.54-.658-20.381 59.13-40.05 39.472-15.625-15.614-24.44-73.584 7.145-58.543 8.238 3.923 7.727 4.764 8.507 4.764.605 0 5.881-5.964 1.363-10.889-12.26-13.364-50.463-17.832-51.049 32.504-.274 23.502 11.713 28.58 5.437 32.165-9.472 5.41-8.225-1.669-15.998-10.891-13.244-15.715-10.724-17.447-23.828-33.354-3.532-4.29-1.39-9.489-7.148-17.017-9.171-11.994-15.021-62.928-7.377-65.096 12.856-3.645 24.101 13.229 25.415 15.2 8.122 12.188 8.02 12.066 12.933 26.073.812 2.315 9.233 2.97 8.508-7.148-.273-3.83-4.354-27.833-4.765-30.248-.324-1.907-15.532-31.258-21.783-36.121-1.232-.958-2.284 1.188-17.016-9.532-5.393-3.924-24.309-4.748-24.309-1.976 0 .672.236.572 3.206 7.762-3.714 17.221-3.61 17.39-4.763 18.378-4.14 3.552-8.998 25.664-8.569 27.362 2.76 10.917-5.203 21.916 2.444 45.816 4.732 14.792 3.617 15.053 10.889 28.931 4.446 8.486.615 10.348 8.17 18.719 4.468 4.951 4.01 13.205 18.382 25.525 10.351 8.875 8.489 10.487 19.06 19.4.957.806 4.493 1.897 5.787 3.403 1.5 1.746 5.938 6.913 25.526 13.272 23.327 7.573 27.33.131 30.633-.37 8.471-1.284 29.952 1.936 40.843-6.776.886-.709.92-.345 12.25-7.145 9.098-5.46 9.132-5.458 14.297-14.685.274-.489 5.42-4.11 7.49-8.46.786-1.648 11.959-25.111 18.042-13.955 13.001 23.846 8.015 28.735 35.74 45.605 9.866 6.003 9.856 6.04 21.401 6.807 4.32.287 8.669.18 12.97.673.597.068-2.262.41-1.697.616 4.196 1.531 18.42-1.2 19.57-1.14 6.683.357 13.225 2.31 19.912 2.573 9.595.378 17.553-5.504 20.422-6.52 2.494-.882 19.369-6.86 28.588-16.62 22.236-23.543 23.273-22.523 29.27-33.406 3.74-6.788 4.683-5.929 9.551-12.035.012-.015 14.737-36.366 15.405-37.129 3.208-3.664 8.64-68.95-5.898-85.568-7.231-8.267 4.103-22.519-3.528-23.799-2.565-.43-34.315 4.055-45.824 25.162-2.396 4.395-17.76 32.571-23.827 57.858-4.23 17.63 6.676 10.358 7.149 9.53 2.862-5.006 5.951-24.312 12.933-30.292 5.622-4.815 3.202-7.216 9.87-10.55 3.608-1.806 5.652-6.74 14.635-3.746 4.547 1.516 6.563 9.577 6.807 10.552 1.727 6.904 9.527 16.528-3.402 45.608-5.535 12.45-6.656 15.624-7.148 17.017-1.69 4.788-21.548 35.843-30.29 44.583-.44.439-4.22 4.218-4.766 6.127-2.493 8.72-5.5.94-14.293-1.362 1.173-2.725 6.877-14.41 7.485-15.657 2.285-4.68.887-10.98.68-11.912-.62-2.796 1.48-4.072-.68-20.478-5.656-42.959-60.689-15.72-51.054-4.71 2.471 2.823 2.086-2.34 12.252-5.184 18.408-5.15 35.979 32.846 6.127 58.96-4.755 4.16-18.257 2.518-19.401 0-4.697-10.33-5.182-9.877-11.914-19.06-8.907-12.15-9.387-63.493-4.765-69.435 7.215-9.279 9.155-7.967 12.934-19.19.312-.925.976-1.696 1.361-2.593 3.826-8.902-9.533-18.653 8.733-23.131 15.399-3.776 23.612-16.395 25.984-19.08 1.152-1.303 11.304-12.794 7.489-20.422-3.029-6.052-12.166 16.972-15.665 19.06-2.888 1.722-15.139 16.323-54.11-14.3-5.11-4.014-3.317-5.25-7.149-10.52-6.297-8.661-1.917-20.916-13.272-39.85-6.218-10.369-3.16-12.914-13.697-19.06-.735-.43-.382-.656-7.542-7.49-2.601-2.483-12.997-1.834-13.8-1.003m-33.355 113.002c1.516 1.138 13.065 12.77 13.277 13.278 1.489 3.57.984 11.533-1.02 12.934-3.004 2.097-6.791 1.015-7.361.852-5.58-1.596-4.34-7.415-6.936-10.383-.68-.778-8.67-6.066-7.08-11.51.583-1.997 5.112-8.175 9.12-5.17m81.687 0c2.509 1.735 3.52 3.484 3.745 3.746 1.732 2.021 7.112 3.291 0 16.336-1.316 2.413-5.16 3.028-7.147 4.766-2.819 2.466-3.316 3.86-6.126 1.362-9.375-8.335-8.252-10.312-4.765-14.298 1.41-1.612 5.573-11.16 6.806-11.912 3.009-1.832 6.933-.227 7.487 0"/></svg>