<svg xmlns="http://www.w3.org/2000/svg" width="300" height="300" viewBox="0 0 300 300"><title>factions-order-daughters-of-khaine</title><path d="M148.116 280.631H131.71c-.263-.084-.516-.188-.778-.234-6.15-.956-12.441-1.378-18.413-2.981-5.962-1.584-11.616-4.322-17.391-6.619-.834-.328-1.528-1.041-2.297-1.556-1.856-1.256-3.694-2.531-5.578-3.731-5.25-3.347-10.594-6.563-15.731-10.059-2.691-1.828-5.063-4.116-6.3-7.369-.591-1.519-.291-2.447.656-3.666 7.331-9.478 16.716-16.537 26.466-23.269 7.791-5.372 16.05-9.956 24.403-14.381 5.728-3.038 11.691-5.362 17.991-6.862 2.184-.516 3.609-1.791 3.966-4.05.263-1.612.506-3.253.534-4.884.262-12.075.591-24.141.647-36.216.028-8.259-.356-16.5-.534-24.759-.028-1.256-.497-1.884-1.8-2.025-1.575-.15-3.131-.469-4.688-.741-4.453-.797-8.822-1.791-13.134-3.291-8.803-3.066-17.897-5.334-25.153-11.7-2.306-2.025-3.066-1.997-5.4.009-5.128 4.425-10.106 9.038-15.216 13.481-1.697 1.472-2.709 3.225-3.188 5.391-1.313 5.85-3.253 11.522-3.675 17.597-.272 3.947-1.547 7.819-1.978 11.756-.75 6.722-.834 13.519-3.112 20.016a11.75 11.75 0 0 0-.6 4.659c.562 7.509 4.172 13.931 7.509 20.419.919 1.781.844 2.841-.694 4.144-.769.647-1.312 1.547-2.109 2.128-.469.338-1.313.563-1.828.384-.666-.234-1.256-.844-1.781-1.397-1.997-2.091-3.881-4.303-5.944-6.347-7.763-7.631-11.766-17.363-13.753-27.6-1.8-9.309-.928-18.863 1.528-28.256 2.709-10.331 4.744-20.85 6.984-31.294.684-3.216 1.912-6 4.575-8.063.6-.469 1.041-1.125 1.603-1.641 4.753-4.416 9.45-8.897 14.316-13.181 2.063-1.819 2.287-2.063 1.013-4.444-2.213-4.181-4.378-8.409-6.525-12.619-.469-.9-1.134-1.322-1.969-.741-3.309 2.306-6.975 4.303-9.731 7.162-5.166 5.334-9.778 11.194-14.644 16.819-2.353 2.719-4.172 5.691-5.166 9.197-.984 3.459-2.231 6.853-3.319 10.284-2.353 7.331-5.109 14.541-6.9 22.013-2.212 9.225-3.516 18.656-5.4 27.966-1.303 6.394-1.163 12.797-.628 19.237.534 6.413 2.784 12.319 5.072 18.234 1.65 4.266 3.366 8.513 5.034 12.778 1.069 2.719 2.203 5.438 3.113 8.213.206.6-.113 1.791-.591 2.147-3.6 2.662-2.559 3.431-5.841.272-.947-.9-2.034-1.669-2.934-2.625-.928-.984-2.025-1.978-2.503-3.197-1.341-3.403-3.769-5.944-6.084-8.653-4.603-5.372-8.794-11.091-10.5-18.112-.806-3.338-1.256-6.769-1.65-10.181-.666-5.737-1.969-11.569-1.547-17.241.769-10.031 2.531-19.997 4.097-29.963.75-4.838 1.903-9.628 3.037-14.391.872-3.694 1.997-7.331 3.009-10.987.338-1.256.591-2.569 1.05-3.769 2.897-7.453 6.272-14.672 10.612-21.394 3.9-6.047 7.35-12.403 12.675-17.456 3.675-3.497 7.078-7.303 10.509-11.063 8.859-9.722 19.003-17.869 30.084-24.891.919-.591 1.884-1.172 2.606-1.95 3.75-4.059 8.362-7.012 12.834-10.144 1.069-.75 2.175-1.575 3.394-1.941.834-.262 2.203-.122 2.784.413 2.916 2.662 2.925 4.116.975 7.603-2.897 5.138-5.606 10.35-7.35 16.05-1.341 4.378-1.753 8.859-2.409 13.341-.713 4.8.056 9.169 2.531 13.209 4.003 6.506 8.091 12.975 12.328 19.341 2.541 3.816 5.85 6.947 10.031 8.981 2.747 1.341 5.484 2.766 8.353 3.769 5.138 1.819 10.378 3.366 15.572 5.034.975.319 1.941.656 2.981 1.022.066-.366.141-.572.15-.778.216-5.194.356-10.378.666-15.553.094-1.584.544-3.216 1.106-4.716.684-1.8.572-2.231-1.425-2.325-5.841-.291-11.166-2.175-15.956-5.372-4.359-2.925-8.503-6.234-11.288-10.8-1.547-2.541-3.544-4.275-6.347-5.063-1.313-.366-1.706-1.097-1.631-2.391.291-4.266 1.406-8.288 3.487-12.019 4.116-7.378 9.225-14.044 14.616-20.531 4.406-5.278 9.422-9.581 15.806-12.197.591-.244 1.284-.216 1.931-.319-.169.722-.122 1.631-.534 2.147-1.697 2.063-3.394 4.181-5.362 5.972-4.266 3.881-7.106 8.681-9.459 13.838-.319.694-.337 1.528-.544 2.503.75-.122 1.228-.187 1.678-.272 2.456-.497 4.903-1.172 7.397-1.453 9.281-.994 18.581-1.969 27.956-1.322 3.038.206 5.963.506 8.662 2.063 1.125.647 2.447.928 3.694 1.378.122-.141.244-.272.366-.413-.187-.694-.319-1.434-.6-2.091-.684-1.547-1.631-3.009-2.128-4.594-1.678-5.391-4.809-9.75-8.991-13.434-.619-.544-1.172-1.134-1.753-1.725-.647-.656-1.172-1.397-.441-2.287.713-.863 1.5-.797 2.456-.263 5.063 2.784 9.188 6.628 12.778 11.091 1.613 1.997 3.075 4.116 4.716 6.094 5.934 7.125 9.103 15.459 10.866 24.431.394 2.034-.084 3.637-1.931 4.781-2.231 1.397-3.881 3.309-5.156 5.616-.628 1.134-1.406 2.203-2.213 3.244-5.259 6.834-12.834 9.703-20.737 11.916-1.453.413-1.941 1.05-1.875 2.334.262 5.784.562 11.578.816 17.362.056 1.163.656 1.791 1.762 1.631 2.306-.356 4.734-.497 6.863-1.341 5.213-2.091 10.266-4.556 15.394-6.853 9.394-4.2 16.744-10.744 22.444-19.247.816-1.228 1.697-2.419 2.503-3.647 3.469-5.372 6.15-10.959 6.684-17.522.741-9.103.188-17.963-3.047-26.616-.872-2.353-1.35-4.978-1.425-7.491-.084-3.197 2.775-5.841 5.606-5.288 3.094.591 6.15 1.425 8.691 3.553.806.684 1.997 1.144 3.047 1.228 2.747.216 5.137.956 6.806 3.309.3.422.806.713 1.219 1.078 3.6 3.187 7.256 6.3 10.744 9.6 3.094 2.916 5.822 6.216 8.991 9.038 6.066 5.381 11.766 11.1 16.706 17.541 2.484 3.253 4.753 6.675 6.956 10.134 2.025 3.159 4.116 6.328 5.662 9.731 1.8 3.947 2.869 8.231 4.566 12.244 5.784 13.734 8.409 28.097 8.616 42.928.094 6.891 0 13.781.066 20.672.028 1.941.338 3.881.534 5.841v10.5c-.291 2.484-.384 5.006-.9 7.453-.844 4.003-2.288 7.903-2.897 11.916-.956 6.328-4.078 11.634-7.462 16.762-4.978 7.519-11.663 13.406-18.759 18.863-2.475 1.903-5.213 2.419-8.184 2.006-3.319-.45-3.694-1.247-1.613-3.825 4.95-6.141 8.437-13.134 12.084-20.025.712-1.322 1.106-2.841 1.491-4.322 1.378-5.334 2.419-10.772 4.097-16.003 1.941-6.056 2.541-12.234 2.184-18.441-.506-8.888-1.65-17.728-2.512-26.588-.366-3.75-.328-7.575-1.106-11.241-1.959-9.169-4.031-18.347-6.544-27.384-1.613-5.756-3.694-11.466-6.375-16.8-1.491-2.953-4.5-5.25-7.125-7.491-2.203-1.884-4.894-3.197-7.284-4.894-3.253-2.306-6.375-4.781-9.628-7.097-1.669-1.191-2.484-.862-2.925 1.05-.928 4.153-1.856 8.316-2.597 12.506-.159.919.262 2.269.919 2.916 2.091 2.063 4.275 4.116 6.703 5.766 4.144 2.841 7.313 6.563 10.209 10.538.778 1.069 1.369 2.409 1.584 3.694a205 205 0 0 1 2.916 31.275c.15 9.066-.356 18.131-.563 27.187-.066 3.375-1.078 6.441-2.897 9.253-2.475 3.844-5.391 7.275-8.831 10.294-8.737 7.641-18.347 13.931-28.875 18.788-.647.3-1.641.028-2.391-.206-.534-.159-.947-.722-1.434-1.069-2.025-1.425-2.175-2.381-.478-4.181 2.869-3.075 5.878-6.028 8.662-9.188 2.784-3.131 5.437-6.384 8.016-9.694.694-.891 1.172-2.156 1.228-3.281.159-3.216.113-6.441.037-9.647-.206-9.994-.469-19.997-.666-29.991-.122-6.056-1.884-11.278-6.703-15.394-3.459-2.981-6.534-6.412-9.787-9.628-1.762-1.734-3.225-1.856-5.428-.394-2.362 1.575-4.622 3.319-7.078 4.744-11.006 6.384-22.734 10.509-35.503 11.494-2.419.187-2.475.441-2.541 3.019q-.76 29.672-1.547 59.344c-.122 4.481-.262 8.972-.441 13.434-.122 3.272-1.762 5.372-4.65 6.178-3.422.956-6.891 1.753-10.228 2.916a256 256 0 0 0-32.353 13.762c-9.488 4.838-18.103 10.772-25.622 18.319-1.256 1.256-1.35 2.006-.009 3.131 2.091 1.753 4.209 3.488 6.478 5.006 8.869 5.916 18.947 8.897 29.175 11.128 5.869 1.275 12.028 1.322 18.084 1.491 5.456.15 10.922-.216 16.387-.516 13.762-.778 26.428-5.166 38.1-12.3 3.938-2.409 7.359-5.644 10.941-8.597 1.369-1.125 1.106-2.063-.562-2.775a11 11 0 0 0-.928-.328c-4.959-1.472-9.956-2.897-14.887-4.444-8.063-2.512-16.172-3.009-24.384-.844-1.603.422-1.753.769-.816 2.081.188.272.422.506.572.797 1.172 2.147 1.069 4.444.009 6.45-.844 1.612-2.784 1.162-4.35 1.125-8.297-.272-16.613-.563-24.909-.844-3.609-.122-7.256-.628-10.8-.206-2.597.3-3.994-.394-5.184-2.475-.891-1.556-.844-2.531.656-3.6.975-.694 2.091-1.2 3.037-1.941 6.028-4.8 12.628-8.597 19.753-11.484 2.531-1.022 5.063-2.081 7.669-2.784a78.5 78.5 0 0 1 19.425-2.662c5.719-.066 11.456-.778 17.016 1.406 1.528.6 3.338.488 4.987.834 2.653.544 5.306 1.144 7.931 1.847 1.997.534 3.9 1.406 5.906 1.875 5.25 1.219 10.172 3.291 14.981 5.662 1.162.572 2.334.928 3.581.216 1.041-.6 2.034-.291 2.588.619.45.75.975 2.025.647 2.587-2.541 4.322-4.866 8.841-8.034 12.675-5.334 6.413-11.813 11.644-18.881 16.134-6.094 3.872-12.328 7.397-19.153 9.938-7.988 2.981-16.331 4.359-24.591 6.141-2.738.563-5.662.647-8.512.975zm-2.194-204.028c1.819-.206 4.153-.469 6.497-.713 8.588-.9 16.088-4.2 22.472-10.031 2.738-2.503 2.287-5.813-1.097-7.378-2.231-1.041-4.425-2.156-6.75-2.953-2.513-.844-5.109-1.734-7.725-1.941-5.606-.441-11.269-.262-16.866-.712-4.238-.337-8.203.422-12.084 1.856-3.825 1.425-7.612 2.944-11.4 4.472-1.069.441-2.006 1.172-1.453 2.513 1.453 3.525 3.225 6.891 6.656 8.887 6.544 3.825 13.716 5.559 21.75 6"/></svg>