<svg xmlns="http://www.w3.org/2000/svg" width="300" height="300" viewBox="0 0 300 300"><title>factions-chaos-tzeentch-arcanites</title><path d="M136.284 149.634c-1.828 2.831-4.481 1.772-6.919 1.069-2.128-.609-4.125-1.566-6.413-1.65-1.097-.028-2.166-.6-3.263-.853-3.938-.938-7.866-1.856-11.813-2.747-2.775-.619-5.531-1.369-8.353-1.688-1.744-.206-3.572.309-5.484.516.694 1.5.572 3.028 1.5 4.425.769 1.153.816 2.812 1.088 4.266.666 3.516 1.125 7.078 1.922 10.575 1.031 4.481 2.372 8.878 3.441 13.341.741 3.15.797 6.384-.619 9.375-.919 1.95-2.803 3.113-4.781 3.713-2.709.825-5.522 1.313-8.297 1.913-2.25.487-4.537.825-6.741 1.425-2.156.581-4.209 1.341-6.188 2.569-3.084 1.922-6.525 3.291-9.797 4.903-.037.009-.066.028-.112.038-2.447.984-2.569 1.425-1.041 3.6.844 1.191 1.612 2.438 2.466 3.628.375.544.797 1.088 1.303 1.491 2.831 2.353 5.653 4.725 8.569 6.984 2.175 1.688 4.463 3.234 6.703 4.847 2.044 1.472 4.172 2.869 6.103 4.462 1.247 1.031 2.222 2.372 3.347 3.6 1.284-.159 2.559.853 3 2.438.722 2.588 1.444 5.175 2.175 7.753.037.15.113.3.113.459q.054 2.011.094 4.022c-1.744 1.134-3.3 2.719-5.531 2.784-.703.009-1.463-.422-2.128-.769-1.031-.572-2.006-1.256-2.991-1.894-.487-.309-.956-.638-1.463-.938-.572-.338-1.106-.881-1.706-.947-2.325-.234-3.909-1.866-5.775-2.906-2.616-1.462-5.147-3.047-7.697-4.584-.938-.572-1.884-1.106-2.766-1.744-2.344-1.678-4.688-3.347-6.956-5.1-1.716-1.322-3.347-2.784-5.034-4.172-.891-.741-1.837-1.425-2.719-2.175-2.841-2.409-5.7-4.8-7.556-8.175-1.041-1.894-2.409-3.628-4.275-4.875-.45-.3-.797-.816-1.059-1.303-.909-1.716-1.95-3.394-2.587-5.213-.6-1.687-1.884-2.813-2.709-4.247-.984-1.688-1.856-3.6-1.706-5.737.038-.553-.066-1.256-.394-1.669-.984-1.219-.844-2.597-.919-3.994-.056-.891-.422-1.772-.666-2.653-.234-.844-.525-1.65-.722-2.503-.244-1.125-.178-2.381-.666-3.384-.797-1.641-.647-3.328-.863-5.006-.122-.947-.638-1.856-.966-2.775-.15-.422-.338-.863-.356-1.303-.066-7.256-.094-14.513-.094-21.759 0-.45.037-1.003.3-1.322 1.003-1.256.947-2.747 1.106-4.219.066-.666.366-1.303.6-1.931.094-.253.366-.459.394-.703.244-1.688 1.106-3.225 1.462-4.819.488-2.175 1.35-4.088 2.494-5.925.122-.187.281-.431.272-.637-.056-1.987 1.003-3.666 1.772-5.362.909-1.987 2.128-3.9 3.478-5.616a56.4 56.4 0 0 1 15.047-13.359c4.341-2.653 8.794-5.175 13.359-7.434 3.544-1.763 7.359-2.981 10.987-4.584 4.153-1.838 8.081-4.078 11.044-7.65 3.516-4.247 5.944-8.944 6.019-14.606.056-3.356 0-6.713.122-10.059.084-2.353.206-4.734.6-7.069.281-1.706.975-3.356 1.594-4.997.637-1.669 1.444-3.262 2.109-4.913.6-1.5 1.069-3.047 1.678-4.538.581-1.425 1.35-2.662 2.569-3.759 1.866-1.678 3.413-3.722 5.072-5.616.638-.731 1.275-1.472 1.856-2.25.422-.544.759-1.153 1.134-1.734.188-.281.356-.609.581-.844.3-.3.722-.497 1.003-.816 3.234-3.506 7.744-3.591 11.953-4.247 5.616-.881 11.297-.975 16.997-.966 3.572.009 7.162-.216 10.716-.544 1.838-.159 3.684-.609 5.456-1.181 3.028-.975 6.244-1.566 8.85-3.487 1.706-1.256 3.384-2.616 4.847-4.153 2.203-2.344 4.172-4.922 6.338-7.313.366-.394 1.247-.431 1.884-.403.178.009.45.825.459 1.275.066 1.322 0 2.653.028 3.975.028 2.194-1.247 3.9-2.138 5.728-1.088 2.259-2.597 4.209-4.303 6.066-1.688 1.837-2.906 4.144-4.641 5.953-1.463 1.528-3.347 2.644-5.063 3.909-.159.122-.45.113-.675.113-1.65.084-2.934.947-4.144 1.95-.666.544-1.219 1.284-1.959 1.641-3.488 1.678-5.803 4.509-7.837 7.65-.15.234-.394.459-.403.703-.15 2.887-1.912 5.362-1.856 8.325.066 4.087-.159 8.175-.375 12.263-.206 3.759.956 7.2 2.166 10.678 1.013 2.934 1.959 5.953 2.353 9.009.272 2.128-.3 4.416-.816 6.562-1.556 6.497-5.466 11.803-8.841 17.409-1.678 2.784-4.444 4.05-6.534 6.188-2.719 2.775-5.559 5.484-8.053 8.447-2.109 2.522-3.131 5.672-3.328 8.963-.206 3.3-.431 6.6.403 9.891.731 2.859 2.287 5.212 4.266 7.284 1.838 1.978 3.9 3.759 5.888 5.653z"/><path d="M75.881 205.388c1.463-1.978 3.881-2.691 6.338-3.413a281 281 0 0 0 8.672-2.719c3.666-1.191 7.313-2.447 10.959-3.666 1.313-.431 2.709-.722 3.938-1.313.703-.338 1.256-1.125 1.716-1.8a30 30 0 0 0 2.034-3.534c.703-1.425 1.444-2.869 1.838-4.387.187-.759-.403-1.688-.572-2.569-.094-.516-.028-1.041-.028-1.566-.009-.731.15-1.5-.056-2.175a365 365 0 0 0-3.506-11.156c-1.444-4.359-3.009-8.691-4.453-13.031-.178-.516-.244-1.397.037-1.669.553-.525 1.228-1.181 2.259-.703 1.519.703 3.169 1.134 4.613 1.959 3.628 2.081 7.566 2.897 11.653 3.366.797.094 1.584.581 2.297 1.003 1.341.769 2.559 1.791 3.966 2.409 1.134.497 2.466.703 3.713.741 1.744.056 3.347.309 4.856 1.313 1.894 1.247 4.097.328 4.978-1.922 1.247-3.225 2.447-6.487 3.722-9.694.394-1.003 1.041-1.912 1.472-2.906 1.397-3.206 2.756-6.431 4.116-9.647 1.228-2.934 2.438-5.897 3.684-8.841.638-1.5 1.313-2.991 2.081-4.425.206-.375.797-.741 1.219-.759.675-.009 1.341.178 1.566 1.088 1.519 5.822 3.844 11.344 6.169 16.875.281.675.403 1.425.638 2.128 1.134 3.394 2.297 6.778 3.412 10.181.544 1.65.825 3.422 1.566 4.997 1.341 2.803 3.3 5.063 6.384 6.159 1.2.431 2.381 1.041 3.394 1.809 1.228.947 2.353.6 3.628.244 1.894-.544 3.816-.975 5.756-1.397 5.681-1.228 11.625-1.463 16.922-4.275.403-.216.891-.525 1.303-.478a4.06 4.06 0 0 1 1.791.731c.188.131.113.844-.037 1.219-1.256 3.103-2.644 6.159-3.834 9.281-.694 1.8-1.069 3.713-1.678 5.55-.975 2.934-2.222 5.803-3 8.813-.769 3-.328 5.944 2.081 8.203.647.609 1.613.909 2.419 1.35 1.106.619 2.231 1.247 3.328 1.866 1.013.581 2.044 1.125 3 1.772 1.838 1.228 3.6 2.597 5.484 3.778 2.803 1.762 5.672 3.394 8.512 5.1.703.422 1.397.853 2.044 1.35 1.003.787.816 2.072-.244 2.784-1.959 1.322-3.881 2.738-5.822 4.097-.122.094-.216.244-.356.309-2.681 1.425-5.344 2.887-8.063 4.219-1.425.703-2.962 1.2-4.453 1.772-1.556.6-2.447 1.772-2.841 3.328s-.825 3.084-2.072 4.219a.84.84 0 0 0-.244.525c-.028 1.584-.741 2.897-1.491 4.219a2.93 2.93 0 0 0-.338 1.462c.037 1.584-.45 2.953-1.322 4.266-.216.328-.066 1.125.188 1.528.759 1.247 1.8 2.325 2.447 3.628 2.053 4.059 3.975 8.203 5.972 12.3 1.125 2.297 2.316 4.556 3.422 6.863.272.581.431 1.275.431 1.913 0 1.95-.722 2.494-2.597 2.053-4.097-.938-8.119-2.072-11.981-3.872-2.906-1.369-6.122-2.053-9.159-3.15-1.566-.572-3.084-1.303-4.575-2.072-1.838-.956-3.684-1.284-5.578-.281-1.303.694-2.559 1.472-3.834 2.231-.234.131-.431.403-.675.45-2.419.459-4.144 2.072-5.897 3.591-.497.431-.956 1.059-1.153 1.678-1.369 4.631-2.653 9.281-3.966 13.931a4 4 0 0 1-.272.647c-2.175 4.341-4.294 8.728-6.581 13.022-.722 1.341-1.856 2.475-2.897 3.609-.159.178-1.013.028-1.247-.244-1.041-1.228-2.316-2.438-2.888-3.881-.862-2.222-1.134-4.659-1.856-6.947-.45-1.425-1.219-2.747-1.856-4.116-.619-1.341-1.369-2.644-1.856-4.022-1.378-3.928-2.653-7.903-3.975-11.859-.113-.328-.328-.619-.431-.956-1.153-3.516-4.05-4.181-7.172-4.369-2.897-.178-5.681.544-8.503 1.087-1.556.3-3.206.122-4.763.45-4.031.853-8.016 2.053-12.075 2.719-3.225.525-6.009 2.1-9.028 3.075-1.219.394-2.475.637-3.722.938-.337.084-.694.094-1.041.084-.975-.028-1.959-.094-3.056-.15-.15-.675-.394-1.641-.572-2.616-.037-.216.15-.497.309-.703 2.531-3.15 4.444-6.675 6.216-10.284.309-.637 1.003-1.087 1.369-1.688 1.397-2.297 2.737-4.631 4.087-6.947.619-1.088 1.2-2.175 1.8-3.272.853-1.547 1.706-3.075 2.531-4.631.084-.159.028-.487-.094-.647-1.378-1.884-1.425-4.247-2.316-6.319-.703-1.65-1.228-3.366-1.838-5.044-.084-.216-.234-.45-.234-.666.009-2.784-1.931-4.303-3.806-5.822-4.388-3.572-9.009-6.778-13.978-9.497-1.097-.6-1.988-1.584-2.897-2.466-1.866-1.856-3.684-3.759-5.606-5.728zm79.36 30.693c3.956.272 7.359-.956 10.275-3.638.647-.6 1.397-1.106 2.166-1.528 4.603-2.494 7.209-6.291 7.772-11.503.084-.759.253-1.547.544-2.25 1.547-3.956 1.491-7.838-.272-11.709a6.2 6.2 0 0 1-.516-1.894c-.478-4.603-2.653-8.147-6.497-10.706a10.8 10.8 0 0 1-2.016-1.744c-2.869-3.15-6.413-4.706-10.678-4.734-1.734-.009-3.488.009-5.213-.15-5.006-.478-8.972 1.772-12.731 4.669-.637.488-1.322.947-2.053 1.303-5.222 2.531-7.959 6.675-8.241 12.469a11.5 11.5 0 0 1-.403 2.522c-.637 2.288-.909 4.556-.281 6.919.366 1.35.731 2.738.797 4.116.206 4.247 1.744 7.819 5.044 10.528 2.194 1.8 4.444 3.572 6.834 5.1 3.637 2.316 7.603 3.572 12.019 2.719 1.153-.244 2.316-.328 3.469-.478z"/><path d="M259.472 158.991c1.153.009 2.175.338 2.859 1.275 2.869 3.975 5.672 8.016 7.256 12.731.356 1.069.675 2.156 1.097 3.206.825 2.044 1.275 4.116 1.219 6.356-.084 3.384.066 6.778.113 10.162 0 .459.038.975-.131 1.378-1.341 3.141-1.313 6.497-1.791 9.788-.422 2.897-1.341 5.775-2.419 8.531-2.034 5.156-4.753 9.975-7.875 14.559-1.097 1.613-2.644 2.616-4.059 3.816-2.194 1.856-4.397 3.722-6.459 5.709-3.075 2.962-6.094 5.953-10.2 7.453a492 492 0 0 1-8.794 3.141c-1.547.525-3.141.863-4.659 1.444-1.153.45-2.175 1.181-3.3 1.706a22.1 22.1 0 0 1-7.866 2.034c-.703.038-1.097-.244-1.472-.862-1.528-2.541-2.287-5.344-2.991-8.184-.131-.525-.244-1.069-.45-1.566-.984-2.569-.328-4.331 1.556-6.225 2.044-2.053 4.547-3.019 7.106-4.031.844-.338 1.65-.938 2.278-1.594 1.922-2.034 3.713-4.181 5.644-6.197 1.041-1.097 2.175-2.128 3.412-3 2.194-1.566 3.272-3.909 4.603-6.094.216-.356.272-1.003.094-1.341-.759-1.369-.497-2.813-.422-4.238.056-.956-.272-1.444-1.106-1.912-3.169-1.762-6.309-3.544-9.375-5.456-2.541-1.566-4.941-3.394-7.481-4.969-2.738-1.678-5.559-3.225-8.381-4.753-1.228-.675-1.444-1.678-.356-2.559 1.059-.844 2.166-1.313 3.638-1.247 3.366.159 6.741.281 10.097-.581 1.397-.356 2.953-.178 4.425-.038 5.306.488 10.584 1.322 15.891 1.547 4.613.188 8.813-1.425 11.747-5.194 1.247-1.594 2.053-3.572 2.859-5.456 1.003-2.372 2.109-4.762 2.541-7.256.516-2.934 2.156-5.653 1.8-8.747-.122-1.097-.403-2.175-.619-3.347z"/></svg>