<svg xmlns="http://www.w3.org/2000/svg" width="300" height="300" viewBox="0 0 300 300"><title>factions-order-bladeborn-morgwaeths-bladecoven</title><path d="M178.866 223.088c1.986 8.857 4.945 19.841 6.769 31.049v.73c0 4.357-.77 8.552-2.169 12.444l.081-.244c0 .953-1.621 1.764-2.513 2.573L150.046 300c-11.43-10.924-23.164-21.605-34.15-32.893-2.432-2.573-4.721-9.586-3.465-10.924 10.336-10.539 5.391-23.286 6.121-35.002s0-22.111 0-33.096c0-6.343.466-12.241-8.857-12.687-2.067 0-4.499-5.593-5.675-8.999-.872-5.776-2.351-10.964-4.357-15.868l.162.446c-2.575-3.688-9.444-8.269-12.241-7.357-11.228 4.499-10.924-1.621-13.802-9.586-5.593-15.99-1.845-31.09.669-46.513 1.703-10.68 5.249-12.383 13.579-4.662a16.41 16.41 0 0 0 12.22 5.432c4.195 0 8.005-1.561 10.883-4.134l-.02.02c4.884-3.486 8.046-9.161 8.046-15.565 0-2.595-.506-5.067-1.459-7.316l.04.122c-2.473-5.715-6.587-10.316-11.755-13.356l-.142-.081c-7.377-4.134-4.884-4.662 0-9.161 9.586-8.694 17.187-19.679 26.489-28.82 13.133-13.113 20.064-12.991 32.63-1.621s22.132 22.111 33.055 33.4c.506.506-.953 4.418-2.128 4.782-8.188 2.432-14.754 7.357-14.754 15.848 0 .305-.02.669-.02 1.034a34.4 34.4 0 0 0 6.648 20.368l-.061-.102c3.02 2.939 7.154 4.721 11.714 4.721 3.79 0 7.276-1.236 10.093-3.343l-.041.04c13.659-7.357 14.754-7.357 17.632 7.357 1.276 5.554 2.027 11.958 2.027 18.524 0 10.782-1.986 21.077-5.614 30.582l.183-.587c-1.338 3.405-2.573 9.505-9.749 3.526s-15.565.811-17.126 7.357c-2.067 11.674-6.121 22.071-11.816 31.354l.223-.405c-6.343 9.749-4.357 24.786-6.424 40.17l.061.081zm-8.35-92.438c20.146 0 32.832-6.546 32.913-15.18 0-5.898-11.066-19.963-15.728-20.044-7.904 0-22.577 16.882-21.686 26.245.953 3.445 2.493 6.465 4.54 9.06l-.041-.061v-.02zm-50.08 0 14.775-5.534c-2.006-5.593-4.073-10.235-6.424-14.714l.284.628c-2.432-3.912-6.851-6.647-8.917-10.62-3.405-6.546-6.647-4.134-11.653-2.209-10.255 3.75-10.255 11.937-8.269 19.457 2.209 9.282 10.032 12.768 20.227 12.768l-.02.223zm4.784 85.526h.364v34.778c0 1.845 2.817 3.546 4.276 5.391a36 36 0 0 0 4.154-4.641l.061-.102c1.378-1.804 2.311-4.013 2.655-6.424v-.081a2617 2617 0 0 0-3.546-63.314c-.648-2.776-1.662-5.249-2.999-7.479l.061.122c-1.703 2.939-4.804 5.837-5.026 8.857-.364 10.761 0 21.666 0 32.893m22.132 6.79v38.467c.527 3.506 1.418 6.648 2.675 9.627l-.102-.264c1.845-2.715 5.31-5.452 5.391-8.269.364-27.482 0-54.904 0-82.426 0-2.209-2.736-4.357-4.215-6.485-1.256 2.351-3.526 4.784-3.608 7.357-.386 13.639-.162 27.786-.162 41.729l.02.264zm26.509-5.757v-38.568c0-1.764-2.432-3.404-3.77-5.006-1.338 1.682-3.689 3.404-3.75 5.087v73.731c0 1.682 2.432 3.323 3.75 5.006 1.338-1.682 3.689-3.404 3.77-5.168.142-11.937 0-23.672 0-35.305zm-5.635-58.977c-5.573-8.269-11.309-15.484-17.592-22.233l.102.102c-2.512-2.351-18.22 12.889-17.49 17.551 0 2.432 2.939 6.182 4.864 6.424 6.991.811 15.12 1.256 23.327 1.256h.649c1.398.284 2.817-1.175 6.141-3.02v-.081z"/></svg>