<svg xmlns="http://www.w3.org/2000/svg" viewBox="0 0 300 300"><path d="M156.516 296.541c-3.563-4.275-7.125-4.631-10.153-.891-2.672 3.206-11.222 3.562-16.031.534-2.85-1.781-4.275-1.781-7.125-.178-2.494 1.603-3.741 1.603-4.631.356-.713-1.247-6.234-4.275-12.291-7.125-10.688-4.809-11.222-5.344-12.469-12.647-.713-4.275-1.959-8.55-2.672-9.441-.891-1.069-1.781-5.878-2.138-10.688-.534-7.837-1.247-9.262-6.769-13.003-4.809-3.206-8.194-4.097-14.25-3.562-11.578.713-21.553-4.097-25.472-12.469-1.603-3.562-3.741-7.837-4.453-9.262-6.413-11.4-7.303-14.25-4.809-14.25 6.591 0 8.016-13.181 3.028-25.294-2.85-6.413-5.522-27.609-6.234-46.856-.356-8.906 4.631-48.994 6.947-57.366C50.532 27.365 123.75-10.398 176.128 2.605c35.981 9.084 76.069 41.325 87.647 70.903 4.809 12.291 7.837 51.309 5.344 68.944-.891 6.947-2.138 19.238-2.85 27.609-.534 8.372-2.138 16.744-3.384 18.703-3.563 5.166-3.028 12.113 1.425 17.812s4.453 5.522-9.619 23.512c-8.016 10.153-9.619 11.222-14.25 10.509-2.85-.356-9.975.891-15.675 2.85-13.894 4.631-17.813 9.797-17.813 24.047-.178 8.728-.891 11.222-5.166 16.209-7.303 8.55-17.1 13.359-21.731 10.866-3.028-1.603-4.453-1.247-7.659 1.781-4.987 4.809-11.934 4.809-15.853.178zm-10.163-57.188 4.453-7.125 1.425 5.878c.891 3.206 2.138 6.591 3.028 7.481.713.713 5.522-.891 10.509-3.563 8.372-4.809 9.084-5.7 9.084-11.756 0-3.741-.713-6.769-1.781-6.769-.891 0-1.781-1.247-1.781-2.85 0-1.425-.713-2.138-1.781-1.603-.891.534-1.781-.178-1.781-1.603s-2.316-6.591-5.344-11.222c-2.85-4.631-5.344-9.441-5.344-10.688 0-3.919-9.619-2.672-13.359 1.781-6.947 8.016-17.1 29.747-15.853 33.666 1.069 3.563 10.866 14.784 13.181 15.319.534.178 2.85-3.028 5.344-6.947zm-43.819-35.803c-.534-.713 1.959-1.781 5.522-2.494 3.384-.534 6.234-1.781 6.234-2.672s1.247-1.603 2.672-1.603 2.672-.712 2.672-1.603c0-1.069 1.959-3.919 4.453-6.591 3.206-3.563 4.453-6.769 4.453-12.113 0-13.003-1.069-14.25-13.003-17.634-6.056-1.603-14.784-4.988-19.594-7.481-12.291-6.591-19.95-5.878-29.569 2.494-7.125 6.056-7.838 7.481-8.55 16.388-1.603 21.019 14.25 35.625 38.119 34.734 3.919 0 6.947-.713 6.591-1.425m130.041-4.275c2.85-2.138 5.878-7.481 8.016-14.072 3.563-10.153 6.591-27.431 4.631-25.65-.534.534-4.809-2.85-9.797-7.659-11.578-11.044-18.703-11.578-32.597-2.316-22.444 14.784-23.513 15.853-24.047 22.622-1.781 20.841 36.159 39.9 53.803 27.075zm-74.278-57.366c5.7-5.7 12.469-14.25 15.319-19.059 2.672-4.987 8.016-14.072 11.934-20.484 3.919-6.591 8.55-17.634 10.688-25.828 1.959-7.837 4.453-15.675 5.344-17.278 3.741-6.591-1.781-2.85-10.153 6.591-17.278 20.128-33.666 49.172-40.256 71.259-1.425 4.987-3.206 10.331-3.919 12.112-2.137 5.166.356 3.563 11.044-7.303zm-45.966-13.003c12.825-6.591 24.759-23.334 40.256-55.941 3.741-7.838 8.194-16.209 9.975-18.703 3.919-5.878 17.812-32.063 16.744-32.063-.356 0-4.097 2.316-8.372 5.166-17.278 11.756-34.378 34.378-49.706 65.559-6.769 13.716-12.291 26.184-12.291 27.609s-1.247 4.097-2.672 6.056c-5.166 6.947-3.741 7.481 6.056 2.316zm-37.94-15.319c11.578-10.866 28.144-34.912 35.269-50.775 2.316-5.166 7.481-15.319 11.4-22.266 3.919-7.125 6.412-13.003 5.522-13.003-4.631 0-13.003 6.413-23.869 18.169-12.112 13.181-23.869 34.378-33.844 61.106-2.138 5.878-4.631 12.112-5.344 13.894-.712 1.603-1.069 3.028-.712 3.028s5.7-4.631 11.578-10.153"/></svg>