<svg xmlns="http://www.w3.org/2000/svg" viewBox="5.33 3.92 21.33 24.22"><title>image2vector-4</title><path d="M22.297 4c0 .046-.027.082-.062.082s-.061.028-.061.061c0 .034-.036.062-.082.062-.066 0-.082.027-.082.144s-.016.144-.082.144q-.082 0-.082.082c0 .046-.027.082-.061.082s-.062.028-.062.062c0 .05-.068.062-.369.062-.342 0-.369.006-.369.082 0 .046-.027.082-.061.082s-.062.028-.062.061c0 .034-.036.062-.082.062-.077 0-.082.027-.082.451 0 .374-.011.451-.062.451-.034 0-.061.028-.061.062s-.036.061-.082.061q-.082 0-.082.082c0 .046-.027.082-.062.082s-.062.028-.062.062c0 .043-.043.062-.144.062h-.144v.287c0 .228.013.287.062.287s.061.059.061.287-.013.287-.061.287c-.034 0-.062.036-.062.082q0 .082-.082.082c-.046 0-.082.027-.082.062s-.028.061-.062.061c-.047 0-.061.052-.061.226s.014.226.061.226c.043 0 .062.043.062.144 0 .116.016.144.082.144.076 0 .082.027.082.369 0 .301.011.369.062.369.043 0 .061.043.061.144 0 .116.016.144.082.144s.082.027.082.144c0 .1.019.144.062.144.051 0 .062.084.062.513s-.01.513-.062.513c-.043 0-.062.043-.062.144 0 .116-.016.144-.082.144-.046 0-.082.027-.082.062 0 .049-.059.062-.287.062s-.287-.013-.287-.062c0-.043-.043-.062-.144-.062-.116 0-.144-.016-.144-.082q0-.082-.082-.082c-.046 0-.082-.027-.082-.062 0-.047-.05-.062-.205-.062-.178 0-.205-.011-.205-.082 0-.066-.027-.082-.139-.082-.086 0-.148-.024-.163-.062-.014-.036-.075-.062-.148-.062-.097 0-.124-.018-.124-.082q0-.082-.082-.082c-.066 0-.082-.027-.082-.144 0-.1-.019-.144-.062-.144-.052 0-.062-.107-.062-.718 0-.691-.003-.718-.082-.718-.046 0-.082.027-.082.062s-.028.062-.061.062c-.034 0-.062.036-.062.082q0 .082-.082.082c-.046 0-.082.027-.082.062s-.028.062-.062.062-.061.036-.061.082q0 .082-.082.082c-.074 0-.082.027-.082.287 0 .228-.013.287-.061.287-.043 0-.062.043-.062.144v.144h-.738v-.144c0-.116-.016-.144-.082-.144s-.082-.027-.082-.144v-.144h-.41v.144c0 .137-.007.144-.144.144-.1 0-.144.019-.144.062 0 .034-.036.062-.082.062s-.082-.027-.082-.062c0-.043-.043-.062-.144-.062h-.144v-.226c0-.173-.014-.226-.062-.226a.06.06 0 0 1-.062-.062c0-.043-.043-.062-.144-.062s-.144.019-.144.062c0 .034-.036.062-.082.062q-.082 0-.082.082c0 .082-.027.082-.082.082-.066 0-.082.027-.082.144 0 .1-.019.144-.062.144s-.062.043-.062.144v.144h-.574c-.547 0-.574-.004-.574-.082 0-.066-.027-.082-.144-.082-.1 0-.144-.019-.144-.062 0-.034-.036-.062-.082-.062s-.082.027-.082.062-.037.062-.085.062c-.067 0-.08.019-.062.092.013.051.013.07 0 .043-.068-.146-.141.009-.141.3 0 .242-.012.303-.062.303-.034 0-.062.036-.062.082 0 .066-.027.082-.144.082-.1 0-.144.019-.144.062 0 .047-.052.062-.226.062s-.226-.014-.226-.062c0-.047-.052-.062-.226-.062s-.226.014-.226.062a.06.06 0 0 1-.062.062c-.049 0-.062.059-.062.287 0 .26-.008.287-.082.287q-.082 0-.082.082c0 .046-.027.082-.062.082s-.062.028-.062.062c0 .043-.043.062-.144.062-.116 0-.144.016-.144.082 0 .074-.027.082-.287.082s-.287-.008-.287-.082q0-.082-.082-.082c-.046 0-.082-.027-.082-.062 0-.047-.052-.062-.226-.062h-.226v.287c0 .26.008.287.082.287.066 0 .082.027.082.144s-.016.144-.082.144c-.046 0-.082.027-.082.062s-.028.062-.062.062-.062.036-.062.082q0 .082-.082.082c-.082 0-.082-.027-.082-.082 0-.066-.027-.082-.144-.082-.1 0-.144-.019-.144-.062 0-.034-.028-.062-.062-.062s-.062-.036-.062-.082q0-.082-.082-.082c-.046 0-.082-.027-.082-.062 0-.043-.043-.062-.144-.062s-.144.019-.144.062a.06.06 0 0 1-.062.062c-.043 0-.061.043-.061.144 0 .116-.016.144-.082.144q-.082 0-.082.082c0 .046-.027.082-.062.082s-.061.028-.061.062c0 .043-.043.062-.144.062s-.144-.019-.144-.062-.043-.062-.144-.062h-.144v-.226c0-.198-.01-.226-.082-.226-.046 0-.082-.027-.082-.062s-.028-.062-.062-.062-.062.028-.062.062c0 .044-.046.062-.164.062-.137 0-.164.014-.164.082 0 .071-.027.082-.205.082s-.205-.011-.205-.082c0-.06-.027-.082-.101-.082q-.101 0-.08-.055c.015-.039-.021-.056-.124-.06-.108-.004-.145.011-.145.06 0 .046.028.06.096.047.081-.016.093-.004.077.077-.013.068.001.096.048.096.048 0 .066.039.066.144 0 .116.016.144.082.144s.082.027.082.144c0 .1.019.144.061.144.034 0 .062.036.062.082 0 .066.027.082.144.082.1 0 .144.019.144.062 0 .034.036.062.082.062q.082 0 .082.082c0 .082.027.082.082.082.046 0 .082.027.082.062s.028.062.062.062c.056 0 .08.05.065.136-.003.019.013.022.037.007s.032-.044.019-.065-.006-.038.015-.038.05.028.063.062.052.062.087.062.063.028.063.062c0 .047.052.062.226.062.198 0 .226.01.226.082 0 .079.027.082.862.082s.862-.003.862-.082c0-.072.027-.082.226-.082.173 0 .226-.014.226-.062s.05-.062.205-.062c.178 0 .205-.011.205-.082 0-.066.027-.082.144-.082.1 0 .144-.019.144-.062s.043-.062.144-.062c.116 0 .144-.016.144-.082q0-.082.082-.082c.046 0 .082-.027.082-.062 0-.047.05-.062.205-.062.178 0 .205-.011.205-.082 0-.066.027-.082.144-.082s.144-.016.144-.082q0-.082.082-.082c.046 0 .082-.027.082-.062 0-.047.052-.062.226-.062.198 0 .226-.01.226-.082 0-.077.027-.082.431-.082.356 0 .431-.011.431-.062 0-.049.059-.062.287-.062.26 0 .287-.008.287-.082 0-.077.027-.082.431-.082.356 0 .431-.011.431-.062 0-.049.061-.062.304-.062.284 0 .302-.005.282-.082-.019-.071-.001-.082.127-.082.121 0 .148.015.148.082 0 .074.027.082.287.082.228 0 .287.013.287.062s.059.062.287.062c.26 0 .287.008.287.082 0 .066.027.082.144.082.1 0 .144.019.144.062 0 .044.046.062.164.062.137 0 .164.014.164.082 0 .071.027.082.205.082.155 0 .205.015.205.062 0 .034.036.062.082.062q.082 0 .082.082c0 .066.027.082.144.082s.144.016.144.082c0 .046.027.082.062.082.046 0 .062.05.062.205 0 .178.011.205.082.205q.082 0 .082.082c0 .082-.027.082-.082.082-.046 0-.082.027-.082.062s-.028.062-.062.062-.062.036-.062.082c0 .074-.027.082-.287.082s-.287-.008-.287-.082c0-.066-.027-.082-.144-.082-.1 0-.144-.019-.144-.062 0-.044-.046-.062-.164-.062-.137 0-.164-.014-.164-.082 0-.066-.027-.082-.144-.082-.1 0-.144-.019-.144-.062 0-.051-.082-.062-.492-.062-.465 0-.492-.005-.492-.082 0-.079-.027-.082-.8-.082s-.8.003-.8.082c0 .077-.027.082-.431.082-.356 0-.431.011-.431.062 0 .047-.052.062-.226.062-.198 0-.226.01-.226.082 0 .071-.027.082-.205.082-.155 0-.205.015-.205.062 0 .043-.043.062-.144.062-.116 0-.144.016-.144.082 0 .068-.027.082-.164.082-.119 0-.164.017-.164.062 0 .034-.028.062-.062.062s-.062.036-.062.082c0 .066-.027.082-.144.082-.1 0-.144.019-.144.062 0 .034-.036.062-.082.062q-.082 0-.082.082c0 .071-.027.082-.205.082-.155 0-.205.015-.205.062 0 .043-.043.062-.144.062-.116 0-.144.016-.144.082q0 .082-.082.082c-.066 0-.082.027-.082.144 0 .1-.019.144-.062.144-.034 0-.062.028-.062.062s-.036.062-.082.062c-.068 0-.082.027-.082.164 0 .119-.017.164-.062.164-.034 0-.062.028-.062.062s-.036.062-.082.062c-.066 0-.082.027-.082.144 0 .1-.019.144-.062.144-.034 0-.062.036-.062.082q0 .082-.082.082c-.066 0-.082.027-.082.144s-.016.144-.082.144-.082.027-.082.144c0 .1-.019.144-.062.144s-.062.043-.062.144c0 .116-.016.144-.082.144-.046 0-.082.027-.082.062s-.028.061-.062.061c-.049 0-.062.059-.062.287 0 .26-.008.287-.082.287-.072 0-.082.027-.082.226 0 .173-.014.226-.062.226s-.062.052-.062.226c0 .198-.01.226-.082.226-.079 0-.082.027-.082.779s.003.779.082.779c.077 0 .082.027.082.451 0 .374.011.451.062.451.044 0 .062.045.062.16 0 .127.015.158.072.154s.074.033.084.189c.009.137.03.195.072.195.044 0 .059.056.059.226 0 .198.01.226.082.226.066 0 .082.027.082.144 0 .1.019.144.062.144s.062.043.062.144c0 .116.016.144.082.144s.082.027.082.144.016.144.082.144.082.027.082.144c0 .1.019.144.062.144.034 0 .062.036.062.082q0 .082.082.082c.046 0 .082.027.082.062s.028.061.062.061.062.036.062.082q0 .082.082.082c.046 0 .082.027.082.062s.028.062.062.062.062.036.062.082q0 .082.082.082c.046 0 .082.027.082.061s.028.062.062.062.062.036.062.082q0 .082.082.082c.046 0 .082.027.082.062 0 .043.043.061.144.061.116 0 .144.016.144.082 0 .046.027.082.062.082s.062.028.062.062c0 .043.043.062.144.062.116 0 .144.016.144.082q0 .082.082.082c.046 0 .082.027.082.061 0 .047.052.062.226.062.198 0 .226.01.226.082 0 .066.027.082.144.082.1 0 .144.019.144.062 0 .046.05.061.205.061.178 0 .205.011.205.082 0 .081.027.082 1.744.082s1.744-.001 1.744-.082c0-.071.027-.082.205-.082.155 0 .205-.015.205-.061s.052-.062.226-.062c.198 0 .226-.01.226-.082s.027-.082.226-.082c.173 0 .226-.014.226-.062 0-.034.028-.061.061-.061s.062-.036.062-.082c0-.066.027-.082.144-.082.1 0 .144-.019.144-.062s.043-.062.144-.062c.116 0 .144-.016.144-.082q0-.082.082-.082c.046 0 .082-.027.082-.061 0-.043.043-.062.144-.062.116 0 .144-.016.144-.082 0-.046.027-.082.062-.082s.061-.028.061-.062.036-.061.082-.061q.082 0 .082-.082c0-.046.027-.082.062-.082s.062-.028.062-.062.036-.062.082-.062q.082 0 .082-.082c0-.046.027-.082.061-.082s.062-.028.062-.061c0-.034.036-.062.082-.062q.082 0 .082-.082c0-.082.027-.082.082-.082.046 0 .082-.027.082-.062s.028-.061.062-.061.061-.036.061-.082c0-.066.027-.082.144-.082s.144.016.144.082q0 .082.082.082c.071 0 .082.027.082.205s-.011.205-.082.205c-.077 0-.082.027-.082.431s.005.431.082.431c.074 0 .082.027.082.287 0 .228.013.287.062.287s.061.059.061.287c0 .26.008.287.082.287.068 0 .082.027.082.164 0 .119.017.164.062.164.034 0 .062.028.062.062s.036.061.082.061c.066 0 .082.027.082.144 0 .1.019.144.061.144s.062.043.062.144c0 .116.016.144.082.144q.082 0 .082.082c0 .046.027.082.062.082s.061.028.061.062.036.061.082.061q.082 0 .082.082c0 .066.027.082.144.082.1 0 .144.019.144.062 0 .034.028.062.061.062s.062.036.062.082c0 .066.027.082.144.082.1 0 .144.019.144.061 0 .044.046.062.164.062.137 0 .164.014.164.082 0 .071.027.082.205.082.155 0 .205.015.205.062 0 .053.116.061.8.061s.8-.009.8-.061c0-.043.043-.062.144-.062.116 0 .144-.016.144-.082q0-.082.082-.082c.046 0 .082-.027.082-.062s.028-.061.061-.061c.034 0 .062-.036.062-.082q0-.082.082-.082c.046 0 .082-.027.082-.062s.028-.062.062-.062.061-.036.061-.082q0-.082.082-.082c.046 0 .082-.027.082-.061s.028-.062.062-.062c.047 0 .062-.052.062-.226 0-.198.01-.226.082-.226.066 0 .082-.027.082-.144 0-.1.019-.144.061-.144.05 0 .062-.068.062-.369 0-.342.006-.369.082-.369.066 0 .082-.027.082-.144s-.016-.144-.082-.144c-.078 0-.082-.027-.082-.492 0-.41-.01-.492-.062-.492-.034 0-.061-.036-.061-.082q0-.082-.082-.082c-.046 0-.082-.027-.082-.062s-.028-.062-.062-.062-.062-.036-.062-.082q0-.082-.082-.082c-.046 0-.082-.027-.082-.061s-.028-.062-.061-.062c-.034 0-.062-.036-.062-.082q0-.082-.082-.082c-.046 0-.082-.027-.082-.062 0-.053-.116-.061-.8-.061s-.8.009-.8.061c0 .043-.043.062-.144.062-.116 0-.144.016-.144.082 0 .046-.027.082-.062.082-.043 0-.062.043-.062.144 0 .116-.016.144-.082.144-.046 0-.082.027-.082.062s-.028.062-.061.062c-.047 0-.062.052-.062.226 0 .124-.018.226-.041.226s-.041.028-.041.062.018.061.041.061.041.15.041.369c0 .301.011.369.062.369.034 0 .061.028.061.062s.036.061.082.061q.082 0 .082.082c0 .046.027.082.062.082s.062.028.062.062c0 .043.043.062.144.062.116 0 .144.016.144.082 0 .072.027.082.226.082s.226-.01.226-.082c0-.046.027-.082.062-.082.046 0 .062-.05.062-.205s-.015-.205-.062-.205c-.034 0-.062-.036-.062-.082 0-.066-.027-.082-.144-.082-.1 0-.144-.019-.144-.062 0-.034-.036-.061-.082-.061-.074 0-.082-.027-.082-.287s.008-.287.082-.287q.082 0 .082-.082c0-.046.027-.082.062-.082s.061-.028.061-.062c0-.05.068-.061.369-.061s.369.011.369.061c0 .034.028.062.062.062s.061.036.061.082q0 .082.082.082c.066 0 .082.027.082.144s.016.144.082.144c.078 0 .082.027.082.574s-.004.574-.082.574c-.066 0-.082.027-.082.144 0 .137-.007.144-.144.144-.116 0-.144.016-.144.082q0 .082-.082.082c-.046 0-.082.027-.082.062 0 .043-.043.062-.144.062-.116 0-.144.016-.144.082 0 .076-.027.082-.349.082s-.349-.006-.349-.082c0-.066-.027-.082-.144-.082-.1 0-.144-.019-.144-.062s-.043-.062-.144-.062c-.116 0-.144-.016-.144-.082 0-.051-.027-.082-.072-.082-.039 0-.093-.046-.119-.102s-.031-.102-.01-.102.037-.018.037-.04-.028-.029-.062-.016c-.045.017-.061-.005-.061-.083 0-.08-.021-.107-.082-.107-.046 0-.082-.027-.082-.062s-.036-.062-.082-.062c-.066 0-.082-.027-.082-.144 0-.1-.019-.144-.061-.144-.047 0-.062-.052-.062-.226 0-.198-.01-.226-.082-.226-.077 0-.082-.027-.082-.431s.005-.431.082-.431c.066 0 .082-.027.082-.144 0-.1.019-.144.062-.144s.061-.043.061-.144c0-.116.016-.144.082-.144.046 0 .082-.027.082-.062s.036-.061.082-.061q.082 0 .082-.082c0-.046.027-.082.061-.082.043 0 .062-.043.062-.144 0-.11.017-.144.072-.144.04 0 .095-.037.123-.082a.2.2 0 0 1 .153-.082c.064 0 .102-.023.102-.062 0-.052.091-.061.574-.061h.574v-.144c0-.116-.016-.144-.082-.144q-.082 0-.082-.082c0-.066-.027-.082-.144-.082h-.144v-.574h.144c.1 0 .144-.019.144-.061 0-.034.036-.062.082-.062s.082.027.082.062c0 .051.075.061.431.061s.431-.011.431-.061c0-.034.036-.062.082-.062.072 0 .082-.027.082-.226v-.226h-.308c-.246 0-.308-.012-.308-.062 0-.034-.028-.061-.061-.061s-.062-.036-.062-.082q0-.082-.082-.082c-.066 0-.082-.027-.082-.144s.016-.144.082-.144q.082 0 .082-.082c0-.046.027-.082.062-.082s.061-.028.061-.062c0-.051.078-.061.451-.061.424 0 .451-.005.451-.082 0-.046.027-.082.062-.082s.062-.028.062-.062.036-.062.082-.062q.082 0 .082-.082c0-.046.027-.082.061-.082s.062-.028.062-.061c0-.034-.028-.062-.062-.062s-.061-.036-.061-.082q0-.082-.082-.082c-.082 0-.082.027-.082.082 0 .071-.027.082-.205.082s-.205-.011-.205-.082c0-.066-.027-.082-.144-.082-.1 0-.144-.019-.144-.062 0-.034-.036-.061-.082-.061-.072 0-.082-.027-.082-.226s.01-.226.082-.226c.046 0 .082-.027.082-.061 0-.043.043-.062.144-.062.116 0 .144-.016.144-.082 0-.071.027-.082.205-.082.155 0 .205-.015.205-.062 0-.034.036-.061.082-.061.066 0 .082-.027.082-.144s-.016-.144-.082-.144q-.082 0-.082-.082c0-.076-.027-.082-.349-.082s-.349-.006-.349-.082q0-.082-.082-.082c-.046 0-.082-.027-.082-.062s-.036-.061-.082-.061q-.082 0-.082-.082c0-.046-.027-.082-.061-.082-.051 0-.062-.082-.062-.492s.01-.492.062-.492c.034 0 .061-.036.061-.082q0-.082.082-.082c.046 0 .082-.027.082-.062s.036-.061.082-.061q.082 0 .082-.082c0-.046.027-.082.061-.082.051 0 .081-.091.069-.209-.001-.013.022-.024.053-.024s.046.025.034.055 0 .055.024.055.045-.037.045-.082q0-.082-.082-.082c-.046 0-.082-.027-.082-.062 0-.047-.052-.062-.226-.062s-.226.014-.226.062c0 .043-.043.062-.144.062s-.144-.019-.144-.062-.043-.062-.144-.062c-.116 0-.144-.016-.144-.082 0-.046-.027-.082-.062-.082-.049 0-.062-.059-.062-.287s.013-.287.062-.287c.034 0 .062-.036.062-.082q0-.082.082-.082c.046 0 .082-.027.082-.062s.028-.062.061-.062c.034 0 .062-.036.062-.082q0-.082.082-.082c.046 0 .082-.027.082-.062s.028-.062.062-.062c.043 0 .061-.043.061-.144v-.144h-.205c-.155 0-.205.015-.205.062 0 .049-.059.062-.287.062s-.287-.013-.287-.062c0-.043-.043-.062-.144-.062-.116 0-.144-.016-.144-.082s-.027-.082-.144-.082c-.1 0-.144-.019-.144-.062s-.043-.062-.144-.062c-.116 0-.144-.016-.144-.082q0-.082-.082-.082c-.046 0-.082-.027-.082-.062s-.028-.062-.062-.062c-.043 0-.061-.043-.061-.144 0-.116-.016-.144-.082-.144q-.082 0-.082-.082c0-.082-.027-.082-.082-.082q-.082 0-.082-.082c0-.046-.027-.082-.061-.082-.043 0-.062-.043-.062-.144 0-.116-.016-.144-.082-.144s-.082-.027-.082-.144.016-.144.082-.144.082-.027.082-.144c0-.137.007-.144.144-.144.1 0 .144-.019.144-.062 0-.053.116-.062.8-.062.773 0 .8-.003.8-.082 0-.046.027-.082.062-.082s.062-.028.062-.062c0-.043.043-.062.144-.062.116 0 .144-.016.144-.082q0-.082.082-.082c.046 0 .082-.027.082-.062 0-.039.041-.063.113-.065.062-.002.09-.013.062-.024-.077-.031-.061-.137.02-.136.062.001.063.007.01.044-.055.039-.055.042 0 .027.034-.009.067-.057.075-.106.008-.056.042-.089.092-.089q.079 0 .079-.082c0-.046.027-.082.061-.082.043 0 .062-.043.062-.144v-.144h-.369c-.342 0-.369.006-.369.082s-.027.082-.431.082-.431-.005-.431-.082c0-.066-.027-.082-.144-.082-.1 0-.144-.019-.144-.062 0-.034-.028-.062-.062-.062s-.062-.036-.062-.082q0-.082-.082-.082c-.082 0-.082-.027-.082-.082 0-.046-.027-.082-.061-.082s-.062-.028-.062-.062-.036-.062-.082-.062c-.066 0-.082-.027-.082-.144 0-.1-.019-.144-.062-.144-.047 0-.061-.052-.061-.226 0-.198-.01-.226-.082-.226-.066 0-.082-.027-.082-.144s-.016-.144-.082-.144c-.079 0-.082-.027-.082-.8s.003-.8.082-.8c.066 0 .082-.027.082-.144s.016-.144.082-.144c.046 0 .082-.027.082-.062s.028-.062.061-.062c.044 0 .062-.044.062-.15v-.15l.092.078c.075.064.081.065.036.006q-.055-.071-.01-.072c.025 0 .046-.037.046-.082s.027-.082.062-.082a.06.06 0 0 0 .061-.062c0-.043.043-.061.144-.061.116 0 .144-.016.144-.082q0-.082.082-.082c.046 0 .082-.027.082-.062 0-.043.043-.062.144-.062.116 0 .144-.016.144-.082 0-.071.027-.082.205-.082.155 0 .205-.015.205-.061 0-.034.036-.062.082-.062q.082 0 .082-.082c0-.074.027-.082.287-.082s.287.008.287.082c0 .066.027.082.144.082.1 0 .144.019.144.062s.043.061.144.061c.116 0 .144.016.144.082s.027.082.144.082c.1 0 .144.019.144.062 0 .034.036.062.082.062.066 0 .082.027.082.144 0 .1.019.144.061.144.051 0 .062.084.062.513s-.01.513-.062.513c-.034 0-.061.028-.061.062s-.036.061-.082.061q-.082 0-.082.082c0 .066-.027.082-.144.082s-.144.016-.144.082c0 .078-.027.082-.574.082-.483 0-.574.01-.574.062 0 .034-.036.062-.082.062q-.082 0-.082.082c0 .082.027.082.082.082.046 0 .082.027.082.062 0 .046.05.062.205.062.178 0 .205.011.205.082 0 .078.027.082.513.082s.513-.004.513-.082c0-.066.027-.082.144-.082.1 0 .144-.019.144-.062s.043-.062.144-.062c.116 0 .144-.016.144-.082q0-.082.082-.082c.046 0 .082-.027.082-.062s.028-.062.061-.062c.034 0 .062-.036.062-.082q0-.082.082-.082c.066 0 .082-.027.082-.144 0-.1.019-.144.061-.144.034 0 .062-.036.062-.082q0-.082.082-.082c.079 0 .082-.027.082-.862s-.003-.862-.082-.862c-.046 0-.082-.027-.082-.062s-.028-.061-.062-.061c-.043 0-.061-.043-.061-.144 0-.116-.016-.144-.082-.144q-.082 0-.082-.082c0-.046-.027-.082-.062-.082s-.061-.036-.061-.082q0-.082-.082-.082c-.066 0-.082-.027-.082-.144 0-.137-.007-.144-.144-.144-.1 0-.144-.019-.144-.062 0-.046-.05-.062-.205-.062s-.205.015-.205.062c0 .043-.043.062-.144.062s-.144-.019-.144-.062-.043-.062-.144-.062c-.116 0-.144-.016-.144-.082q0-.082-.082-.082c-.046 0-.082-.027-.082-.061s-.036-.062-.082-.062q-.082 0-.082-.082c0-.074-.027-.082-.287-.082-.246 0-.287.01-.287.072 0 .039-.046.093-.103.119s-.092.031-.08.011-.006-.026-.041-.012-.064.041-.064.061-.092.037-.205.037c-.155 0-.205-.015-.205-.061 0-.034-.036-.062-.082-.062q-.082 0-.082-.082c0-.046-.027-.082-.062-.082s-.062-.028-.062-.062-.036-.061-.082-.061q-.082 0-.082-.082c0-.066-.027-.082-.144-.082s-.144.016-.144.082zM15.2 14.995c0 .072.027.082.226.082.173 0 .226.014.226.062s.05.062.205.062c.178 0 .205.011.205.082 0 .066.027.082.144.082.1 0 .144.019.144.062s.047.063.154.066c.085.003.172.007.195.01.052.007.074.088.024.088-.021 0-.053.016-.072.035s.003.031.048.026c.196-.021.267.001.267.083 0 .066.027.082.144.082.1 0 .144.019.144.062 0 .034.028.062.061.062s.062.036.062.082q0 .082.082.082c.046 0 .082.027.082.061s.028.062.062.062.061.036.061.082q0 .082.082.082c.046 0 .082.027.082.061s.028.062.062.062.062.036.062.082q0 .082.082.082c.046 0 .082.027.082.062s.028.061.061.061c.034 0 .062.036.062.082q0 .082.082.082c.046 0 .082.027.082.061s.028.062.062.062c.043 0 .061.043.061.144 0 .116.016.144.082.144s.082.027.082.144c0 .1.019.144.062.144s.062.043.062.144c0 .116.016.144.082.144.068 0 .082.027.082.164 0 .119.017.164.061.164.047 0 .062.05.062.205 0 .178.011.205.082.205.076 0 .082.027.082.369s.006.369.082.369c.078 0 .082.027.082.517 0 .438-.009.514-.06.494-.033-.013-.071-.005-.084.016s.014.039.06.039.084.018.084.041-.014.039-.031.036c-.117-.018-.133.017-.133.292 0 .26-.008.287-.082.287-.072 0-.082.027-.082.226 0 .173-.014.226-.062.226-.043 0-.061.043-.061.144 0 .116-.016.144-.082.144-.071 0-.082.027-.082.205 0 .155-.015.205-.062.205-.034 0-.062.036-.062.082q0 .082-.082.082c-.076 0-.112.113-.085.261.004.02-.022.025-.057.012q-.064-.026-.063.057 0 .08-.082.081c-.066 0-.082.027-.082.144 0 .1-.019.144-.062.144-.034 0-.061.036-.061.082 0 .066-.027.082-.144.082s-.144.016-.144.082q0 .082-.082.082c-.046 0-.082.027-.082.061s-.028.062-.061.062c-.034 0-.062.036-.062.082q0 .082-.082.082c-.046 0-.082.027-.082.062s-.028.061-.062.061-.061.036-.061.082c0 .066-.027.082-.144.082-.1 0-.144.019-.144.062 0 .044-.046.062-.164.062-.137 0-.164.014-.164.082 0 .066-.027.082-.144.082-.1 0-.144.019-.144.061 0 .034-.028.062-.062.062s-.062.036-.062.082c0 .077-.027.082-.431.082-.356 0-.431.011-.431.062 0 .053-.132.061-.944.061s-.944-.009-.944-.061c0-.05-.068-.062-.369-.062-.342 0-.369-.006-.369-.082 0-.066-.027-.082-.144-.082-.1 0-.144-.019-.144-.062s-.043-.061-.144-.061c-.116 0-.144-.016-.144-.082 0-.046-.027-.082-.062-.082s-.062-.028-.062-.062c0-.043-.043-.062-.144-.062-.116 0-.144-.016-.144-.082 0-.068-.027-.082-.164-.082-.119 0-.164-.017-.164-.061 0-.034-.028-.062-.062-.062s-.062-.036-.062-.082q0-.082-.082-.082c-.046 0-.082-.027-.082-.062s-.028-.061-.062-.061-.062-.036-.062-.082q0-.082-.082-.082c-.082 0-.082-.027-.082-.082 0-.046-.027-.082-.062-.082-.043 0-.062-.043-.062-.144 0-.116-.016-.144-.082-.144-.046 0-.082-.027-.082-.062s-.028-.061-.062-.061-.062-.036-.062-.082q0-.082-.082-.082c-.066 0-.082-.027-.082-.144 0-.1-.019-.144-.062-.144s-.062-.043-.062-.144c0-.116-.016-.144-.082-.144s-.082-.027-.082-.144c0-.1-.019-.144-.062-.144s-.062-.043-.062-.144c0-.116-.016-.144-.082-.144-.074 0-.082-.027-.082-.287 0-.228-.013-.287-.062-.287-.053 0-.062-.139-.062-1.005s.009-1.005.062-1.005c.049 0 .062-.059.062-.287 0-.26.008-.287.082-.287.068 0 .082-.027.082-.164 0-.119.017-.164.062-.164.043 0 .062-.043.062-.144 0-.116.016-.144.082-.144s.082-.027.082-.144c0-.1.019-.144.062-.144s.062-.043.062-.144c0-.116.016-.144.082-.144.046 0 .082-.027.082-.062s.028-.061.062-.061c.043 0 .062-.043.062-.144 0-.116.016-.144.082-.144q.082 0 .082-.082c0-.066.027-.082.144-.082.1 0 .144-.019.144-.062 0-.034.028-.061.062-.061s.062-.036.062-.082q0-.082.082-.082c.046 0 .082-.027.082-.062s.028-.061.062-.061.062-.036.062-.082q0-.082.082-.082c.046 0 .082-.027.082-.062 0-.043.043-.062.144-.062.116 0 .144-.016.144-.082s.027-.082.144-.082.144-.016.144-.082q0-.082.082-.082c.046 0 .082-.027.082-.062 0-.043.043-.062.144-.062.116 0 .144-.016.144-.082 0-.071.027-.082.205-.082.155 0 .205-.015.205-.062 0-.049.059-.062.287-.062.26 0 .287-.008.287-.082 0-.079.027-.082.8-.082s.8.003.8.082zm5.087.43c0 .034.028.062.062.062s.062.036.062.082q0 .082.082.082c.082 0 .082.027.082.082 0 .046.027.082.061.082s.062.028.062.062.036.062.082.062c.066 0 .082.027.082.144 0 .1.019.144.062.144.034 0 .061.036.061.082q0 .082.082.082c.066 0 .082.027.082.144 0 .1.019.144.062.144s.062.043.062.144c0 .116.016.144.082.144s.082.027.082.144c0 .1.019.144.061.144.047 0 .062.05.062.205 0 .177.011.205.081.205.076 0 .082.034.092.523.009.426.022.521.07.511.05-.011.05-.003 0 .059q-.056.07-.007.041c.04-.024.051.087.051.505 0 .449-.01.536-.061.536-.047 0-.062.052-.062.226 0 .198-.01.226-.082.226-.046 0-.082.027-.082.061s-.028.062-.062.062c-.043 0-.061.043-.061.144 0 .116-.016.144-.082.144q-.082 0-.082.082c0 .046-.027.082-.062.082s-.062.036-.062.082c0 .066-.027.082-.144.082-.14 0-.144-.004-.144-.164 0-.137-.014-.164-.082-.164-.046 0-.082-.027-.082-.061s.036-.062.082-.062c.076 0 .082-.027.082-.369s-.006-.369-.082-.369c-.079 0-.082-.027-.082-.636 0-.538-.009-.636-.062-.636-.049 0-.061-.062-.061-.308 0-.28-.007-.308-.082-.308-.071 0-.082-.027-.082-.205 0-.155-.015-.205-.062-.205-.043 0-.062-.043-.062-.144 0-.116-.016-.144-.082-.144s-.082-.027-.082-.144c0-.1-.019-.144-.061-.144-.034 0-.062-.036-.062-.082q0-.082-.082-.082c-.066 0-.082-.027-.082-.144 0-.1-.019-.144-.062-.144s-.061-.043-.061-.144c0-.116-.016-.144-.082-.144-.077 0-.082-.027-.082-.431v-.431h.369c.301 0 .369.011.369.062z"/></svg>