<svg xmlns="http://www.w3.org/2000/svg" width="300" height="300" viewBox="0 0 300 300"><title>factions-destruction-bladeborn-rippas-snarlfangs</title><path d="M126.832 25.189c0 8.316 1.336 12.738 0 15.179-8.937 12.991.99 21.836 6.818 31.003 3.087 4.905 9.858 11.839 13.521 11.102 7.601-1.498 3.755-10.342 3.662-15.755a37 37 0 0 1-.138-2.925c0-9.812 4.054-18.703 10.549-25.061 7.832-7.579 12.599-15.571 6.911-27.088-1.152-2.35 1.336-7.832 3.846-10.089.852-.277 1.82-.415 2.81-.415a9.3 9.3 0 0 1 6.219 2.372c4.514 6.911 15.271 7.164 16.699 16.676s-6.012 13.175-10.504 19.072c-6.749 7.601-10.871 17.667-10.871 28.7 0 6.911 1.613 13.429 4.492 19.211l-.115-.253c.577 1.243 1.083 2.603 1.589 3.846 1.589-1.106 3.662-1.912 4.514-3.34 2.027-3.57 4.077-7.855 5.828-12.277l.277-.737c2.65-7.877 9.306-13.751 17.436-15.294l.138-.023c12.715-1.889 22.964-10.711 26.857-22.436l.069-.253c3.179-8.316 6.334-4.561 9.513-.761s4.239 6.911 6.587 10.25c1.704 1.98 2.718 4.561 2.718 7.393 0 4.561-2.672 8.5-6.565 10.32l-.069.023c-8.338 4.837-14.096 12.669-25.015 13.152-7.946.484-14.211 6.864-14.511 14.788v4.192c-.83 5.091-4.077 13.751-2.419 14.764 7.417 4.654 9.168-4.998 14.096-7.693 7.854-4.17 15.179-9.168 25.015-4.998 3.294 1.727 7.233 2.741 11.402 2.741 9.421 0 17.62-5.205 21.882-12.875l.069-.138c3.593-5.482 6.496-.484 7.255 1.498 5.828 17.068 0 36.232-21.675 33.33-2.004 0-4.514.668-6.173 0-20.938-10.573-28.954 7.164-40.032 18.082-.668.668 0 2.51 0 3.755.461.046 1.037.069 1.589.069s1.106-.023 1.658-.069h-.069c1.451-.322 2.718-.829 3.915-1.451l-.091.046c15.778-8.316 29.276 0 41.115 8.314 5.759 3.662 8.338 4.998 13.521 1.589 2.326-2.164 5.091-3.893 8.177-4.952l.161-.046h.415c3.318 0 6.288 1.382 8.43 3.593a9.9 9.9 0 0 1 1.658 5.505c0 1.174-.207 2.35-.577 3.386l.023-.069c-2.672 5.183-5.597 9.674-8.96 13.82l.115-.138c-2.81 4.86-7.946 8.085-13.867 8.085a15.8 15.8 0 0 1-10.089-3.616l.023.023c-2.832-2.004-4.837-5.091-7.601-7.071-5.021-3.731-11.355-5.966-18.197-5.966a30.63 30.63 0 0 0-22.711 10.02l-.023.023a24.5 24.5 0 0 0-2.372 3.248l-.069.115c1.382.806 3.018 1.429 4.699 1.796l.115.023c12.415.415 19.349 8.314 25.521 17.667 7.762 11.425 15.018 23.264 30.773 24.991 1.152 0 3.409 5.252 2.832 6.012-4.1 5.573-9.006 10.32-14.557 14.12l-.207.138a21 21 0 0 1-7.255 1.29c-8.269 0-15.409-4.745-18.888-11.678l-.046-.115c-1.704-5.505-3.34-9.927-5.183-14.235l.369.921c-2.764-4.514-6.334-10.32-10.78-11.678-8.523-2.257-18.75-4.077-29.184-5.113l-.83-.069c-.091.461-.138 1.037-.138 1.589s.046 1.106.138 1.658v-.069s1.405 0 1.82.668c10.78 12.162 18.681 24.991 15.11 42.497-2.073 10.089 6.334 14.419 11.355 20.753 2.164 2.741 4.514 7.832 3.318 10.181-2.35 3.11-5.851 5.205-9.836 5.666h-.069c-18.75 2.65-26.351-4.423-26.696-23.841v-8.314c0-.322.023-.737.023-1.152 0-16.078-10.365-29.736-24.762-34.666l-.277-.069c-1.243-.484-5.92 3.755-5.666 4.423 6.749 16.677 1.014 30.911-6.841 44.916-2.164 2.626-3.455 6.035-3.455 9.743 0 4.261 1.727 8.154 4.561 10.941 6.012 6.012 0 8.845-3.755 10.25-10.434 3.502-16.676-3.593-22.757-10.48a21.06 21.06 0 0 1-4.17-12.622c0-3.846 1.037-7.44 2.81-10.549l-.046.115c1.014-1.727 3.087-2.925 4.077-4.745 3.34-5.759 9.674-12.162 8.338-17.391-2.764-10.618-6.749-19.948-11.863-28.493l.277.484s-5.182 1.106-5.251 1.911c-1.336 17.16-12.738 26.005-26.029 34.32-8.177 3.915-13.729 12.116-13.729 21.629 0 1.52.138 2.994.391 4.445l-.023-.161c.577 3.318-1.589 4.17-5.091 3.087-9.49-2.925-16.331-11.448-16.676-21.629v-.046c-1.336-8.314 0-16.654 10.573-19.487 2.419-.668 4.008-4.676 6.334-5.091 18.934-3.502 19.349-18.243 20.27-32.57a36.7 36.7 0 0 0-2.257-9.743l.093.253a51.4 51.4 0 0 0-6.381 6.265l-.069.069c-4.146 5.989-10.964 9.836-18.703 9.836a23 23 0 0 1-2.832-.184h.115c-13.336-.921-26.166 0-33.353 14.65a10.93 10.93 0 0 1-8.292 3.778c-.691 0-1.382-.069-2.027-.184h.069c-2.741-1.243-4.423-6.427-5.252-10.181-.277-1.889-.461-4.031-.461-6.219s.161-4.354.461-6.45l-.023.253v-.207c0-9.674 7.832-17.505 17.505-17.505.368 0 .691 0 1.059.023h-.046c.945-.138 2.027-.23 3.132-.23s2.188.091 3.248.23l-.115-.023c19.349 4.768 28.954-9.237 39.526-20.822 4.837-5.183 2.257-11.425-4.423-11.333-14.58 0-28.608 0-40.539-11.01-3.178-2.925-10.595-1.336-16.1-1.682s-9.674 0-14.511 0c-4.838 0-6.403-3.409-4.17-7.002 4.86-7.393 9.72-13.774 14.972-19.809l-.207.231c1.751-2.119 4.376-3.478 7.302-3.478 2.188 0 4.192.737 5.804 1.98l-.023-.023c5.205 3.063 9.652 6.081 13.866 9.375l-.277-.207c9.421 7.601 18.612 13.982 31.464 6.334 4.468-1.843 9.697-3.294 15.11-4.123l.368-.046c2.672-.829 8.338-1.152.668-4.33-4.239-1.751-7.601-5.759-11.839-7.832-9.812-4.721-17.183-13.175-20.43-23.471l-.069-.253c-2.672-10.181-11.563-17.644-22.296-18.173h-.069c-7.256-.484-8.316-4.17-3.502-9.513 4.423-5.182 10.987-8.453 18.288-8.453a23.97 23.97 0 0 1 19.187 9.536l.046.069c2.879 4.215 5.321 9.098 7.071 14.235l.138.415c5.666 16.654 21.1 17.575 34.436 21.675.921 0 3.915-4.077 4.86-6.68.484-1.336-1.152-3.915-2.51-5.229-11.102-10.826-17.505-21.928-10.181-38.42 4.077-9.168-1.682-18.749-8.338-26.143-4.676-5.091-.415-8.316 2.994-9.075a21.7 21.7 0 0 1 9.029-1.98 21.7 21.7 0 0 1 14.35 5.389l-.023-.023c2.579 2.741 4.515 6.127 5.644 9.812l.046.184-.046-.023z"/></svg>