<svg xmlns="http://www.w3.org/2000/svg" width="300" height="300" viewBox="0 0 300 300"><title>factions-order-cities-of-sigmar-hammerhal</title><path d="M127.406 299.691c-2.231-.441-4.247-1.603-4.791-2.747-.778-1.65-.863-7.706-.188-13.463.778-6.656 1.191-38.953.563-44.7-.628-5.756-1.228-8.119-5.784-22.847-5.662-18.272-7.547-23.231-12.544-33.047-3.028-5.944-5.737-9.937-8.156-12.019-4.003-3.441-3.816-4.331 3.713-18.262 3.019-5.578 5.053-10.866 5.953-15.478.3-1.537.956-6.281 1.463-10.537 1.031-8.766 1.219-9.525 2.981-12.206 2.269-3.441 6.038-5.737 12.75-7.763 5.053-1.528 7.294-1.875 16.387-2.569 12.075-.919 15.356-.759 26.213 1.266 14.7 2.737 19.941 4.988 21.478 9.244.338.928.609 4.359.834 10.406.553 14.972 1.181 17.438 7.894 30.844 4.856 9.713 5.672 11.588 6.169 14.288.478 2.578-.103 4.819-2.025 7.922-.872 1.406-2.241 3.919-3.038 5.588-1.65 3.45-19.378 58.95-20.672 64.716-.787 3.516-.806 4.153-.806 24.712 0 20.466-.019 21.141-.722 22.331-.9 1.538-2.466 2.128-5.7 2.166-3.262.038-4.406-.581-5.503-2.972-.834-1.828-.862-2.194-1.238-17.916-.206-8.831-.544-18.488-.759-21.459-.487-6.947-3.009-25.453-3.778-27.666-.319-.938-1.191-2.381-1.922-3.206-1.172-1.322-1.594-1.537-3.384-1.781-6.563-.891-12.047 1.988-14.737 7.734-2.194 4.688-2.184 4.538-2.438 36.103l-.234 28.856-.863 1.744c-1.397 2.831-3.188 3.525-7.134 2.747zm31.069-99.985c-.178-4.594-.075-7.331.488-12.675 1.003-9.534 1.05-9.581 8.916-9.591 5.55-.009 7.959-.45 10.659-1.959 2.072-1.162 2.784-1.941 3.066-3.356.366-1.838-.338-1.978-7.697-1.547-10.528.619-12.609 1.097-13.509 3.094-.225.487-.666.881-.984.881-1.059 0-2.128 1.059-3.066 3.047l-.928 1.959v11.025c0 13.631.506 12.581-5.916 12.403-4.106-.113-4.519-.188-5.906-1.106-1.144-.759-1.584-1.35-1.912-2.522-.731-2.7-1.031-6.075-1.041-11.859-.009-4.641-.113-5.719-.572-6.103s-.666-.356-1.172.15c-.534.534-.628 1.734-.731 9.891-.131 10.106.15 12.666 1.481 13.603.647.45 2.353.544 9.909.544h9.131zm-17.953-21.778c.075-.225-.347-.6-.937-.844-1.341-.553-2.259-1.556-2.738-2.972-.384-1.134-.694-1.294-6.862-3.544-3.825-1.397-12.159-1.359-13.584.066-.956.956-.722 2.109.6 2.831.591.328 1.144.909 1.209 1.294.216 1.191 1.144 1.903 3.431 2.634 3.3 1.069 3.094 1.05 11.203.994 5.175-.037 7.584-.178 7.678-.45zm-29.466 103.135c-5.184-.881-13.828-4.247-17.859-6.947-2.016-1.359-6.169-5.194-13.838-12.788-15.413-15.281-18.253-18.647-23.231-27.619-4.65-8.372-5.025-9.591-8.766-28.491-4.266-21.534-4.256-21.441-4.256-28.678 0-7.003.15-8.091 2.859-20.981 2.353-11.184 3.178-13.781 5.484-17.203 1.678-2.503 17.756-25.631 20.85-29.991 2.4-3.384 5.269-6.534 9.647-10.584 7.781-7.181 12.169-9.966 22.331-14.166 8.166-3.375 11.822-4.612 17.953-6.084 10.697-2.569 20.831-3.563 29.878-2.925 6.338.45 6.834.534 19.894 3.469 14.25 3.197 16.809 4.144 25.481 9.431 7.256 4.425 11.156 7.556 19.491 15.656 9.553 9.281 12.375 12.638 15.056 17.953 1.697 3.366 13.05 29.7 13.856 32.156 1.406 4.294 1.866 7.303 2.578 17.128.797 10.931.909 18.619.328 22.753-.441 3.188-5.016 22.603-6.159 26.119-2.297 7.116-9.094 20.662-12.75 25.425-2.728 3.553-21.947 22.556-24.347 24.075-6.084 3.853-12.862 5.85-17.466 5.166-2.531-.375-2.55-.525-2.55-16.978 0-15.694.037-16.125 2.569-27.591 1.781-8.072 3.216-13.313 4.8-17.606 1.397-3.769 12.45-28.706 13.575-30.628 1.584-2.709 4.331-5.691 7.519-8.175 5.559-4.341 5.475-5.775-.628-10.397-9.591-7.247-11.325-9.563-13.884-18.497-2.484-8.644-2.662-10.022-2.916-22.181-.244-11.972-.366-12.684-2.484-14.916-1.322-1.397-1.603-1.528-14.119-6.628-14.906-6.066-14.419-5.962-27.084-6.141-14.578-.216-15.563-.066-37.097 5.709-9.469 2.531-12.825 4.388-14.663 8.1-.656 1.313-.713 2.269-.759 11.888-.047 10.397-.253 12.712-1.472 16.594-.684 2.175-5.569 13.088-6.816 15.234-1.556 2.681-4.331 5.709-7.65 8.363-3.647 2.916-5.091 4.744-5.362 6.816-.441 3.291 1.003 5.494 8.888 13.594 6.122 6.281 9.563 10.519 11.822 14.541 1.472 2.625 8.981 19.941 10.753 24.806 1.753 4.8 2.803 8.925 5.025 19.688 3.047 14.794 3.309 19.866 1.612 31.313-.806 5.466-1.669 8.278-2.944 9.647-.731.788-1.266.881-3.159.563zm149.522-98.101c-1.331-.384-2.4-1.313-3.122-2.728-.478-.947-1.378-5.325-2.672-13.097-2.494-14.934-3.703-19.866-8.156-33.347-6.244-18.862-6.525-19.303-23.344-36.094-6.872-6.862-13.491-13.228-14.719-14.156-8.166-6.188-23.044-13.144-34.378-16.087-9.619-2.494-11.053-2.709-18.216-2.691-6.075.009-7.134.122-16.416 1.716-14.747 2.531-17.4 3.338-32.466 9.797-15.272 6.553-19.031 8.541-25.772 13.631-3.938 2.972-22.434 21.347-25.266 25.106-3.562 4.725-5.878 9.619-9.731 20.597-7.022 19.978-7.791 22.828-8.475 31.331-.281 3.497-.563 4.913-1.303 6.553-1.847 4.106-3.188 4.688-10.894 4.706-9.834.019-22.434-2.494-22.434-4.472 0-.947 4.331-3.15 11.053-5.634 4.828-1.791 6.628-2.878 9.806-5.944 4.669-4.509 4.678-4.538 12.366-27.6 5.316-15.947 6.956-21.291 7.078-23.1.188-2.681-.3-5.006-3.159-15.009-2.812-9.834-4.837-12.872-12.45-18.628-5.513-4.162-6.131-4.734-5.756-5.334.844-1.369 13.781 1.013 19.453 3.581 4.322 1.959 8.081 4.997 9.863 7.969 1.303 2.175 3.722 4.256 5.381 4.631 3.187.712 6.272-.544 13.978-5.691 2.587-1.725 6.984-4.5 9.759-6.169 7.378-4.416 11.494-8.934 13.331-14.662 1.153-3.591 3.591-5.888 6.253-5.888.591 0 2.016.431 3.159.956 1.622.741 2.831.994 5.447 1.134 4.425.234 6.591-.234 14.194-3.038 11.634-4.294 14.916-6.413 16.059-10.388.581-2.006.581-2.325.019-5.194-.328-1.678-1.134-4.453-1.791-6.159-3.019-7.875-3.253-12.394-.938-18.403C139.272 7.498 146.922-1.015 149.847.11c.75.291.675 3.066-.131 5.184-.366.947-1.481 2.972-2.484 4.5-3.019 4.603-3.3 7.762-1.209 13.659 1.819 5.128 8.616 20.925 9.647 22.425 2.109 3.047 6.478 6.244 9.984 7.303.966.291 6.234 1.35 11.719 2.362 16.622 3.056 17.691 3.441 22.228 8.1 1.594 1.631 4.116 3.769 5.597 4.763 5.456 3.619 19.819 12.056 21.459 12.619 3.038 1.031 3.713.619 11.709-7.237 8.222-8.072 10.05-9.628 12.778-10.884 2.503-1.144 7.069-1.397 8.016-.45.844.844.45 1.837-5.531 13.819-7.191 14.4-9.225 17.7-11.747 19.116-.609.338-.581.553.431 3.534.591 1.744 6.806 16.275 13.809 32.278l12.731 29.1 2.709 2.738c3.412 3.459 5.813 4.65 11.906 5.906 7.219 1.491 12.403 2.709 12.966 3.066 2.391 1.491-7.181 6.469-16.753 8.7-6.291 1.472-17.297 2.766-19.106 2.259z"/></svg>