<?xml version="1.0" encoding="UTF-8" standalone="no"?>
<!DOCTYPE svg PUBLIC "-//W3C//DTD SVG 1.1//EN" "http://www.w3.org/Graphics/SVG/1.1/DTD/svg11.dtd">
<svg width="100%" height="100%" viewBox="0 0 1024 1024" version="1.1" xmlns="http://www.w3.org/2000/svg" xmlns:xlink="http://www.w3.org/1999/xlink" xml:space="preserve" xmlns:serif="http://www.serif.com/" style="fill-rule:evenodd;clip-rule:evenodd;stroke-linejoin:round;stroke-miterlimit:2;">
    <path d="M543.19,16.208C535.751,53.398 522.564,65.203 488.461,65.203C464.666,65.203 445.801,70.94 407.057,89.954C336.28,124.692 320.076,147.508 376.226,133.367C506.325,100.609 629.034,312.465 536.121,409.43C483.159,464.704 409.995,464.832 383.704,409.703C378.44,398.662 371.332,389.627 367.911,389.627C364.49,389.627 361.566,383.43 361.414,375.854C361.262,368.278 357.712,354.052 353.522,344.239C345.438,325.297 356.073,279.543 377.473,241.187C384.796,228.065 385.102,224.388 378.869,224.506C363.151,224.804 312.805,267.526 301.076,290.517C294.506,303.394 284.799,317.526 279.503,321.921C274.207,326.316 269.874,338.879 269.874,349.838C269.874,376.403 256.348,387.674 235.739,378.284C209.079,366.138 208.192,372.387 230.222,417.172C262.189,482.157 235.05,533.154 183.251,505.434C176.45,501.794 169.275,500.426 167.305,502.396C161.584,508.118 191.283,536.661 216.314,549.498C233.552,558.338 239.268,565.068 239.268,576.529C239.268,584.924 242.712,597.454 246.92,604.376C253.65,615.446 252.444,618.678 236.925,631.187C218.745,645.84 225.777,658.376 252.638,659.207C272.571,659.823 303.734,696.548 315.783,733.626C331.472,781.902 339.45,783.894 348.851,741.888C357.068,705.165 376.856,683.443 402.09,683.443C426.078,683.443 434.68,719.617 419.811,757.949C413.618,773.915 427.047,792.376 455.245,806.655C469.439,813.843 491.167,829.691 503.523,841.871C515.882,854.052 531.36,868.479 537.921,873.93C546.484,881.046 551.091,895.427 554.247,924.886C559.646,975.312 553.35,984.389 505.561,995.083C466.203,1003.89 455.981,1013.99 486.418,1013.99C498.181,1013.99 515.234,1016.81 524.313,1020.26C548.858,1029.6 562.237,1022.45 585.774,987.423C597.45,970.049 613.785,946.476 622.076,935.037C644.171,904.545 639.924,854.436 614.543,846.151C599.025,841.087 578.659,807.238 574.123,778.974C572.02,765.866 564.68,749.161 557.814,741.851C542.238,725.272 541.751,700.821 556.73,687.267C594.041,653.498 653.653,672.6 645.093,715.58C637.862,751.883 680.542,710.621 701.303,661.236C712.196,635.326 717.576,633.111 749.126,641.551C790.386,652.586 848.098,613.361 808.903,600.923C779.306,591.528 785.849,535.109 820.516,500.79C852.108,469.511 872.669,401.074 843.1,425.612C802.345,459.437 765.137,358.795 793.103,290.375C807.4,255.397 804.964,251.965 774.784,264.573C729.716,283.403 665.464,211.984 680.182,159.418C689.254,127.013 684.878,118.331 664.218,127.744C643.524,137.173 569.816,67.854 569.816,38.961C569.816,2.366 549.445,-15.046 543.195,16.205L543.19,16.208Z" style="fill-rule:nonzero;"/>
</svg>
