<svg xmlns="http://www.w3.org/2000/svg" width="300" height="300" viewBox="0 0 300 300"><title>factions-order-cities-of-sigmar-darklings-covens-cropped</title><path d="m118.263 243.056-1.71-2.011-2.309-4.763 4.54-4.617c4.609-4.617 7.14-7.297 9.892-9.902l6.692-5.884c5.65-5.285 7.955-7.666 10.113-10.127l1.413-2.756-6.839-5.958c-7.59-6.4-12.646-10.721-17.779-14.963l-4.087-1.714-4.165 3.425c-4.613 4.914-7.662 8.339-10.785 11.768l-1.933 1.636-4.316 4.545c-3.765 3.768-7.695 7.702-11.623 11.637l-.422.423L81 217.442c-4.312 4.17-6.692 6.552-9.071 8.787l-4.685 4.097c-6.395 6.181-10.336 10.425-14.505 14.447l-3.267 2.158c-3.794 3.425-5.88 5.805-8.256 7.97l-6.323 5.583c-4.165 3.503-5.432 3.945-6.469 4.545l-6.098 4.244c-6.474 3.425-9.966 4.617-13.391 5.958l-3.492 1.267-1.789.97 3.945 1.263 4.462.824c4.609.666 8.033 1.339 11.451 1.636l8.33.369c8.033-.072 11.974-.219 15.839-.594l6.395-.594c7.214-2.086 11.305-3.647 15.398-5.364l8.402-3.872c6.249-3.2 8.033-4.842 10.117-5.958l16.139-11.019c2.601-2.086 5.056-4.394 7.736-6.478l4.312-3.127zm41.501-84.069.225-.151 2.601 1.339c3.868 3.206 6.546 5.661 9.372 7.97l4.462 3.425 2.674 1.642 4.091-.448 1.267-2.684 5.128-4.54c9.892-9.678 17.18-17.425 26.552-22.786l1.636-2.086-2.977-4.691-1.339-2.756 1.564-4.988-.146-3.872 4.312-3.945c6.843-1.789 10.857-1.192 14.876-1.042l.745.146 3.492 3.35c4.316 7.448 5.432 13.259 2.007 19.215l-.819 1.564 3.945-.745 3.195-2.83c3.794-2.902 5.655-6.109 7.068-9.459l2.899-8.339c.072-8.339-.146-11.842-1.042-15.411l-1.413-2.309-6.323 2.977-6.541-2.007-4.982-6.406 2.977-2.902 1.188-2.236 4.685-6.552c6.173-8.12 10.336-13.478 14.428-18.768l.745-.594 5.948-5.661c5.952-2.83 8.778-3.127 11.379-3.945l2.304-1.042 3.127-8.116-4.838-1.339-8.033-3.053 2.158-4.691.448-1.564.522-1.939 1.933-2.158 6.173-3.053c4.237-2.902 6.173-3.497 8.256-3.8l3.79-.297 4.685 1.339 1.636.375-.745-2.236-2.45-2.902c-4.019-3.35-7.068-5.583-11.305-4.691h-.673c-6.541-1.564-11.749 1.042-15.392 5.285l-13.906 11.169c-1.339.97-1.789 2.011-2.011 3.35l-.219 5.29-4.019-.079-5.207 4.471-.369 5.733c-2.601 3.872-4.613 7.072-7.14 9.902l-10.632 11.169c-2.752 2.981-5.358 6.109-8.256 9.011l-2.383 1.933-3.643.375c-6.692 2.83-12.27 2.752-17.624.444l-3.868-3.049.594-3.951c-11.008 1.939-22.835 11.696-22.835 26.137l1.339-.819 7.437-5.061c9.519-3.575 17.331 0 17.847 6.552l-.297 2.83-4.681 4.54c-4.763.745-6.917 1.042-9.001 1.417l-.745.225-12.937 13.478c-1.933 2.086-1.861 4.019.146 6.03l.594.594 1.564 5.139-3.049 4.394-5.056 4.466-1.933 5.733.819 2.606zM56.013 141.709l-2.23-6.552c.297-6.332 1.116-9.162 2.902-11.466l5.65-4.992c4.838-2.68 6.469-3.647 8.553-3.049l4.982 1.339c4.237 3.722 6.843 5.061 8.996 6.849l3.722 4.248-2.383 5.88-2.455 3.945-1.263 2.756 1.933 2.756 5.875 5.508c4.831 4.019 7.365 5.661 9.595 7.594l5.948 5.065c8.704 7.594 14.501 12.659 20.229 17.721l6.098 5.812c8.105 7.666 13.24 12.357 18.294 17.2l4.316 4.54c5.801 5.29 9.591 8.266 13.087 11.471l6.546 6.4c5.65 5.661 8.033 8.12 10.41 10.575l.522 1.192-1.933 4.54 1.861 4.691 4.462 2.902c4.831 3.951 8.256 7.375 12.124 10.204l15.095 9.678c5.207 2.902 10.632 5.661 16.215 7.819l15.095 4.17c3.643.745 7.365.896 11.082.97l8.627-.146c7.887-.375 11.456-.375 14.876-1.12l7.286-2.534 3.722-1.485-4.685-1.861-4.244-1.267-6.317-3.278c-5.207-3.127-7.59-4.914-10.045-6.628l-2.154-1.861c-3.945-3.35-6.917-5.733-9.669-8.266l-2.977-3.425-2.304-2.23-2.68-1.192-4.091-4.097c-3.94-3.872-6.245-6.181-8.553-8.339l-3.42-2.902c-5.578-5.29-9.372-9.308-13.385-12.956l-55.783-49.893c-1.857-1.71-3.717-2.606-6.245-2.527l-4.091-.151-5.432-4.097c-4.759-5.211-7.73-8.71-10.779-12.133l-2.752-2.83-3.127-8.12c3.945-5.135 3.868-6.921 2.086-8.787l-10.639-11.466c-1.632-1.861-3.79-2.752-6.02-3.35l-3.868-.297-5.504-2.902-1.339-4.914 1.116-3.872 3.571-1.789 5.578-1.267c6.692 1.564 10.936 3.945 14.203 7.819l1.339 1.417 1.042.522-.448-3.053c-.444-8.188-3.267-13.624-7.808-18.392l-1.116-1.489-7.808-4.466c-5.135-2.455-6.843-3.127-8.7-2.383l.219.673-2.23 9.455c-6.173.151-8.402.072-10.56-.225l-5.056-2.011-7.959-7.963-3.274-3.647-3.79-2.909c-4.613-4.54-7.959-7.891-11.082-11.316l-6.989-6.628c-1.933-6.03-2.83-7.223-3.647-8.266l-1.71-1.933-3.195-1.636-1.267-6.556c-7.14-5.733-11.008-10.35-15.023-14.745l-2.902-2.68-6.917-.819c-4.759.297-7.064.297-9.221.673l-7.658 3.346c-3.497 4.32-3.868 5.515-4.54 6.781l3.346-1.042 4.91-.522 4.685.297 6.026 2.977c5.056 3.053 8.105 4.32 8.105 8.642l-.072 4.316-3.722 4.394-5.65-1.339-.97-2.981-.444-.297-.225 1.042 1.636 6.853 2.601 5.958 6.173 2.23c5.358 1.042 7.887 2.309 9.892 4.097l4.462 5.065 2.902 2.902 4.087-.375c4.54 7.673 7.662 12.884 10.639 18.095l3.123 5.436-.297 6.03-5.056 2.981-6.173-.072-4.982 1.267c-1.339 5.508-1.417 8.933-1.417 12.357l.819 6.109c1.339 5.583 2.83 8.116 4.165 10.571l4.466 5.515z"/><path d="m56.013 141.709-5.801-4.32c-3.123-5.583-4.609-8.116-5.281-10.794l-1.559-5.884c.072-6.703.146-10.127.965-13.478l1.489-3.2h5.875l6.766-.599 2.977-4.17-1.71-7.146c-4.54-7.896-7.662-13.109-10.711-18.248l-2.383-2.824-3.717.594-4.316-5.587c-4.462-4.019-6.989-5.285-9.815-5.805l-5.207-1.116-4.609-3.127c-1.564-4.394-2.23-7.673-3.049-10.798v-1.042l.297-.594.594.74 2.304 3.429h5.504l2.383-5.884c0-6.703-3.049-7.97-5.88-9.606l-4.609-2.68-5.281-1.789-4.838-.079-4.609.97-.819-2.011 6.766-6.849c6.62-1.267 8.924-1.267 11.154-1.267l4.982.225 5.952 1.789c5.426 5.884 9.221 10.497 13.834 14.146l2.752 4.545 1.339 5.285 4.014 1.489 2.383 3.053c1.933 6.03 5.723 9.158 8.924 12.659l6.469 6.775c4.613 4.54 6.249 5.508 7.59 6.775l5.875 6.478c2.899 2.606 4.237 2.902 5.65 3.575l2.383 4.019 7.658.745c6.176-.151 9.595-5.285 8.481-9.381l-.151-.522 3.425-.522c5.128 2.455 8.627 4.54 12.196 6.552l1.263 1.267c5.135 5.364 7.959 10.872 8.33 17.501l.448 2.977-.151 1.636-1.559-1.267c-3.868-4.613-8.105-7-12.869-8.116l-4.165.225-4.535 1.267-3.274 2.011-1.042 4.466 3.425 5.436 6.323.745c4.087 1.116 6.173 2.007 7.881 3.794l10.632 11.471c1.789 1.933 1.861 3.647.375 5.583l-2.68 6.406 4.759 6.327c4.316 4.914 7.214 8.417 10.342 11.768l3.42 3.794 5.875 2.459c4.462-.225 6.323.745 8.184 2.383l55.778 49.888c4.091 3.647 7.881 7.673 11.827 11.394l3.346 2.902c3.94 3.726 6.245 5.958 8.553 8.192l3.123 3.425 3.794 2.684 1.929 1.042 3.2 3.868c4.388 4.097 7.365 6.478 10.263 8.865l2.086 1.933 6.02 4.244c5.207 3.132 7.959 4.617 10.639 6.035l1.782.522 5.578 2.086 2.309 1.188-7.293 2.981c-7.136 1.636-10.707 1.564-14.278 1.789l-8.627.448c-8.033-.151-11.827-.375-15.398-1.12l-15.095-4.17c-5.583-2.158-11.008-4.914-16.215-7.819l-15.095-9.678c-3.868-2.83-7.365-6.255-11.008-9.308l-2.455-1.489-4.91-3.872 1.636-4.691.072-3.8-5.128-5.358c-5.65-5.661-8.85-9.011-12.196-12.064l-7.214-6.181c-5.875-5.285-7.887-7.666-10.191-9.83l-15.246-14.297c-3.049-2.902-6.026-5.88-9.147-8.71l-17.252-15.192c-2.977-2.606-5.875-5.139-8.924-7.594l-4.838-3.575c-4.831-4.023-7.214-6.255-9.669-8.564l-1.933-2.158-.819-2.459 2.011-3.127 2.007-4.097.444-6.921c-4.535-3.647-7.136-4.914-9.221-6.781l-4.535-2.455-6.249-.369c-4.831 2.68-8.177 4.466-10.488 7.594l-2.527 5.139c-.297 6.327-.594 9.902 1.861 12.879z"/><path d="m159.764 158.987-.151-1.042-1.485-3.8 5.578-5.139 3.049-4.244 1.339-5.884-1.042-3.053-2.383-4.244c6.176-6.552 10.414-10.944 14.651-15.338l.673-.448 4.609-.745 6.843-1.933 2.977-4.545c-.673-8.116-8.481-11.763-13.985-9.678l-7.658 3.497-4.462 3.429c-.673-14 11.082-23.756 22.162-26.211v1.116l.813 5.436c7.887 3.425 13.391 3.425 18.816 1.188l2.23-1.188 4.165-.745c3.794-3.8 6.4-6.926 9.147-9.902l10.639-11.169c2.455-2.83 4.535-6.035 6.62-9.162l.594-1.789 2.158-7.218 3.42-2.011 3.717-2.68 1.116-4.842c6.098-4.466 11.082-7.52 15.101-12.285 3.643-4.32 8.85-6.926 15.023-5.364l.673.146 7.583 1.267c4.014 3.35 4.982 4.32 5.729 5.364l1.038 2.011.297 1.188-2.899-1.339-5.281-.448-5.875 1.12c-4.244 2.902-6.917 3.945-9.444 5.436l-1.714 1.413-1.188 2.011-.444 1.861-.673 1.267-.819 5.958 7.887 1.339 3.267 5.436-3.643 4.988-6.469 1.489c-5.952 2.83-9.815 4.17-11.676 8.116l-.673.599-12.567 16.38c-2.158 2.752-4.165 5.661-6.173 8.489l-1.042 1.861-.891 1.636-2.68 6.255 6.692 3.053c4.54 1.564 6.692-.151 9.075-.819l2.752-.151 1.564 8.939c-.079 8.339-1.267 12.582-2.977 16.678l-3.274 6.552-4.462 3.726-4.237 3.497-1.861-1.489c3.868-6.699 2.752-12.508-.448-18.091l-2.899-3.35-2.086-1.939-8.33-.819c-6.839 1.789-8.85 3.647-10.857 5.508l-.225 1.042.522 5.661-1.933 3.127 2.383 3.726 1.636 4.316c-10.711 6.181-17.997 13.853-25.587 21.297l-4.759 4.394-2.977 2.684-2.824 2.902-2.527.146-4.685-3.35c-4.982-4.091-7.658-6.552-10.488-8.861l-2.376-1.564-1.413-.594zm-41.501 84.069-4.237 2.977c-4.685 3.726-7.214 5.958-9.82 8.12l-16.289 11.242c-2.079 1.116-3.94 2.756-6.02 3.872l-8.256 4.17c-8.256 3.503-12.421 5.065-16.586 6.255l-6.245 1.192c-7.068.594-10.936.819-14.802.819l-8.33-.072c-7.583-.599-11.008-1.267-14.428-1.789l-2.455-.225-5.128-1.267-1.933-.891 3.492-1.345c5.056-2.007 8.553-3.2 11.827-4.914l6.245-4.019 5.432-3.127c4.165-3.503 7.365-6.255 10.488-9.083l4.462-4.545c3.794-3.425 5.65-4.244 6.989-5.583l12.275-12.289c2.23-2.158 4.681-4.091 6.913-6.255l4.763-4.617c4.312-4.17 6.395-5.88 8.251-7.74l6.917-6.853c5.207-5.211 6.843-7.072 8.631-8.861l2.007-1.636c4.014-4.32 6.989-7.819 10.191-11.169l3.123-2.909 5.207-1.564c6.541 5.436 11.598 9.756 16.658 14.076l5.056 4.244 4.462 4.763-6.098 6.703c-5.65 5.29-9.075 8.192-12.342 11.248l-5.358 5.285-8.475 8.489-.079 3.575 2.383 2.752z"/></svg>