<svg xmlns="http://www.w3.org/2000/svg" width="300" height="300" viewBox="0 0 300 300"><title>factions-destruction-bladeborn-blackpowders-buccaneers</title><path d="M192.802 24.063c-.94.179-3.582 1.252-5.876 2.381-15.798 7.792-55.409 8.599-69.25 1.414-9.957-5.17-24.906-3.39-41.668 4.957C60.191 40.695 52.732 49.499 55.18 57.4c1.659 5.354 1.4 9.262-.973 14.768-.68 1.575-2.116 4.891-3.193 7.364s-2.378 5.972-2.892 7.774c-2.709 9.486-14.293 21.48-27.875 28.864-7.487 4.07-9.2 7.362-11.34 21.811-1.699 11.477-3.059 15.661-6.751 20.821-4.198 5.862-1.987 14.021 4.273 15.775 7.658 2.142 36.001-15.861 38.098-24.204 1.178-4.677 2.532-5.283 12.904-5.742 10.341-.461 10.266-.271 2.193-5.7-12.27-8.256-12.53-8.873-7.862-18.541 8.152-16.883 9.566-17.673 22.48-12.57 10.739 4.243 10.679 4.466 2.612-9.352L71.94 90.05l5.354-5.248c10.548-10.336 12.595-10.518 22.229-1.999 10.612 9.388 12.78 8.479 7.541-3.175-5.479-12.186-1.597-21.402 9.609-22.8 6.838-.854 11.977 2.857 17.17 12.404l3.032 5.576.826-11.073c.454-6.091.837-11.372.852-11.735.032-.742 11.94-.945 18.541-.314 5.355.513 6.143 1.841 6.866 11.563.709 9.551 3.217 11.291 5.912 4.103 4.436-11.824 12.837-12.773 23.861-2.695 5.204 4.754 5.503 6.708 2.141 13.984-5.87 12.708-5.038 13.771 4.324 5.539 6.274-5.513 8.524-6.533 13.743-6.223 12.169.72 17.269 13.395 9.779 24.304-6.746 9.827-6.384 10.53 2.994 5.798 8.348-4.212 10.755-4.496 14.559-1.743 4.385 3.175 10.059 15.135 10.085 21.239.025 6.357-2.789 9.388-12.803 13.804-3.693 1.629-2.932 2.051 5.817 3.238 11.726 1.59 13.118 2.425 14.06 8.43 1.012 6.457 5.114 10.125 17.791 15.918 22.152 10.118 28.437 4.629 20.47-17.877-2.815-7.95-3.982-12.841-4.733-19.814-.971-9.059-2.889-11.34-15.071-17.974-15.355-8.361-30.323-34.861-30.274-53.599.012-4.471-.102-5.447-.904-7.718-5.715-16.175-34.586-31.396-52.917-27.9l.006.002.001-.001zm54.604 150.948c-5.82 7.798-7.044 8.327-12.953 5.607-6.422-2.958-6.877-.807-1.548 7.33 7.487 11.438.341 17.434-12.995 10.901-8.321-4.078-8.764-3.493-4.849 6.425 3.879 9.823-.041 18.939-8.155 18.974-4.604.02-7.357-3.298-12.968-15.619l-3.223-7.077-.229 7.466c-.43 13.973-4.07 21.308-10.575 21.308-5.692 0-8.326-4.418-11.636-19.495l-.325-1.486-1.096 3.192c-2.742 7.985-5.208 10.499-11.53 11.74-8.549 1.684-15.148-1.534-16.723-8.147-1.738-7.297-5.037-6.754-5.747.952-.788 8.543-3.032 11.735-7.918 11.265-6.134-.592-10.698-6.807-13.855-18.878-.955-3.649-1.842-6.977-1.966-7.393-.139-.458-.816 1.999-1.71 6.197-3.54 16.676-7.806 19.259-17.289 10.484-5.309-4.916-5.721-6.543-3.475-13.695 2.495-7.943 1.627-8.843-5.415-5.616-5.814 2.664-7.52 2.609-10.8-.355-3.405-3.076-3.461-5.848-.293-14.319 2.463-6.586 2.398-6.947-1.14-6.18-5.337 1.154-7.671.551-10.977-2.837-4.304-4.404-9.417-4.041-21.001 1.496-21.731 10.393-24.928 33.973-4.883 36.037 12.212 1.256 36.06 24.458 49.031 47.706 7.634 13.679 16.041 17.829 23.878 11.782 3.58-2.761 7.37-3.943 14.509-4.528 5.571-.456 10.794-1.794 16.216-4.16 8.528-3.721 11.854-3.918 23.289-1.391 23.432 5.179 34.867 8.591 38.21 11.407 7.42 6.245 17.054-.22 25.238-16.936 7.652-15.632 33.626-41.024 45.436-44.427 8.113-2.337 17.694-17.805 14.391-23.227-.799-1.313-3.689-3.611-7.998-6.361-2.705-1.729-23.116-12.004-23.77-11.966-.171.008-1.589 1.73-3.154 3.83l-.002-.002v-.002z"/></svg>