<svg xmlns="http://www.w3.org/2000/svg" width="300" height="300" viewBox="0 0 300 300"><title>factions-chaos-corvus-cabal</title><path d="M146.456 10.584c1.341.384 2.437 1.022 3.15 2.325.328.6 1.097 1.003 1.716 1.416 4.453 2.878 9.037 5.588 13.359 8.681 2.456 1.753 4.528 4.059 6.656 6.244.6.619.928 1.659 1.059 2.541.291 1.95.45 3.919.525 5.888.272 6.103.703 12.216.647 18.319-.047 5.128.975 9.919 2.953 14.587.366.844.431 1.819.656 2.737.103.459.178.928.366 1.35 1.791 4.153 3.619 8.269 5.372 12.431.375.881.591 1.894.609 2.841.047 1.584 1.013 2.447 2.531 1.95.703-.234 1.341-.684 2.034-.966 1.659-.684 2.766-.084 2.859 1.631.028.422-.356 1.144-.703 1.256-4.641 1.509-8.091 4.762-11.428 8.044-3.713 3.647-7.078 7.65-10.631 11.466-1.294 1.387-1.284 2.822-.403 4.378.309.525.75 1.059.797 1.622.047.591-.122 1.528-.516 1.763-1.097.638-1.603 1.537-1.884 2.672-.694 2.691-1.866 5.091-3.853 7.088-.928.928-1.716 1.959-3.3.938v2.869c1.162.122 2.306.272 3.459.338 1.997.122 3.188 1.453 4.378 2.813.169.188.216.703.075.881-2.325 2.859-2.447 6.441-3.253 9.797-1.238 5.091-1.791 10.275-1.331 15.516.047.544.591 1.294 1.069 1.481 1.762.666 2.222 1.528 1.388 3.338-1.153 2.513-2.625 4.913-3.516 7.528-1.584 4.594-2.991 9.262-4.153 13.988-.478 1.95-.075 4.116-.197 6.188-.384 6-.816 11.991-1.266 17.991-.375 4.913-.647 9.853-1.303 14.747-.975 7.209-2.316 14.362-3.412 21.553-.825 5.428-1.472 10.884-2.259 16.331-.919 6.375-1.847 12.731-2.869 19.078-.178 1.106-.891 2.128-1.359 3.197a10 10 0 0 0-.506-.131c-.384-3.281-.844-6.562-1.144-9.853-1.144-12.591-2.119-25.2-3.375-37.772-.938-9.441-2.269-18.844-3.3-28.275-.291-2.7-.094-5.456-.337-8.156-.956-10.716-2.325-21.394-2.859-32.128-.309-6.262-1.659-12.113-3.666-17.953-1.444-4.209-2.578-8.541-3.844-12.806-.056-.216-.056-.431.178-.966.6.403 1.247.741 1.772 1.219.666.6 1.078.591 1.744-.094.956-1.013 2.091-1.838 3.234-2.794-.319-.291-.684-.637-1.05-.975-1.209-1.106-1.65-2.456-.928-3.947.825-1.706.45-3.178-.469-4.641-.497-.797-.956-1.613-1.453-2.409-.844-1.35-1.125-1.378-2.447-.516-.778.506-1.622.928-2.484 1.313-1.209.553-1.856-.019-2.1-1.209-.328-1.622.037-3.141 1.013-4.397.769-.984 1.716-1.856 2.691-2.644s1.35-1.603.834-2.794a133 133 0 0 1-2.316-5.597c-.384-1.003-1.097-1.472-2.119-1.603-4.106-.506-6.712-2.859-8.138-6.656-.103-.281-.319-.694-.544-.731-1.35-.197-1.237-1.2-1.453-2.184-.244-1.078-.703-2.25-1.406-3.084-1.866-2.166-3.947-4.153-5.906-6.253-.497-.525-.816-1.237-1.144-1.903-.122-.234-.009-.591 0-.891.291.075.637.056.872.216a82 82 0 0 1 2.953 2.175c1.941 1.481 3.853 3 5.831 4.434.506.366 1.172.497 1.95.816.131-.966.234-1.725.375-2.728.553.225 1.106.337 1.491.637 1.95 1.472 3.966 2.878 5.766 4.528 2.944 2.7 5.728 5.569 8.55 8.391.591.6 1.078 1.294 1.556 1.997 1.453 2.184 2.625 2.531 5.006 1.434.984-.459 1.444-1.219 1.162-2.278-.975-3.637-2.044-7.247-4.266-10.359-.366-.516-1.05-.909-1.659-1.144-1.631-.6-2.316-1.359-2.297-3.113.037-2.991-1.331-5.119-3.844-6.572-1.144-.656-2.316-1.237-3.488-1.837-1.706-.872-2.147-.778-3.375.684-.638.75-1.2 1.584-1.941 2.203-.816.666-1.763 1.425-2.925.703-1.266-.787-2.606-1.809-2.344-3.413.666-3.9.356-7.987 2.138-11.709.619-1.303 1.388-2.325 2.747-2.831 1.997-.741 2.737-2.222 2.728-4.294-.037-5.55.056-11.1-.019-16.65-.037-1.856-.328-3.741-.75-5.55-.459-1.978-.169-3.741.431-5.634.647-2.072.778-4.303 1.172-6.469.094-.516.281-1.125.637-1.481a957 957 0 0 1 9.469-9.084c.15-.15.375-.234.825-.506.056 1.284.103 2.363.169 3.581.375-.122.731-.178 1.031-.328 4.856-2.456 9.075-5.512 10.631-11.147.263-.928.834-1.762 1.256-2.634.563-.019 1.125-.019 1.697-.019zm10.088 95.26c.15 2.184.272 3.694.375 5.194.009.141 0 .291.038.422.281.891.469 1.819.872 2.644.431.891 1.294.834 1.556-.019.262-.909.281-2.034-.028-2.916-.469-1.341-.459-3.928.45-4.941.272-.291.909-.6 1.191-.469 1.331.6 1.903-.188 2.456-1.144 1.491-2.588 3.412-4.781 5.719-6.722 2.409-2.006 4.641-4.256 6.9-6.441 2.091-2.025 1.716-6.384-.656-7.65-1.266-.684-2.578-1.35-3.938-1.819-.666-.234-1.575-.187-2.259.075-1.078.412-2.044 1.116-3.084 1.659-1.444.741-2.409 1.847-3.066 3.338-1.022 2.316-2.034 4.669-3.366 6.806-2.419 3.919-2.784 8.278-3.15 11.991zm-7.481 54.89c.103.009.225.038.328.047.234-.778.563-1.538.703-2.325.703-3.928 1.35-7.866 2.044-11.794.188-1.059.056-2.391 1.762-2.391.197 0 .478-.309.572-.544.422-.984.909-1.978 1.144-3.019.281-1.238-.328-2.231-1.453-2.775-2.231-1.078-5.034.572-5.072 3.009-.094 6.159-.141 12.309-.188 18.469 0 .45.094.881.15 1.313zm-7.154-5.597c.084-.009.178-.009.262-.028.122-.619.309-1.238.356-1.856.084-.984.216-1.753 1.453-1.988.984-.197 1.144-1.153.666-1.931-1.378-2.259-1.659-4.716-1.716-7.294-.037-1.847-1.341-3.094-3.094-3.244-1.153-.094-1.959.459-2.55 1.406-.525.844-.684 1.753.047 2.456 1.894 1.856 2.353 4.303 2.991 6.694.516 1.931 1.059 3.853 1.584 5.775zm8.691-22.903c-.178.834-.281 1.294-.375 1.753.506.094 1.022.178 1.931.337a334 334 0 0 1-1.556-2.091zm-15.731 4.444c-.769.834-1.238 1.35-1.706 1.866.131.15.244.319.375.469.525-.375 1.078-.731 1.556-1.163.094-.094-.094-.506-.225-1.172M299.991 101.794c-.544-.216-.834-.291-1.106-.422-4.313-2.119-8.587-4.219-13.219-5.747-5.719-1.884-11.091-4.809-16.612-7.294-.6-.272-1.144-.684-1.762-.881-10.781-3.534-20.719-9.056-31.134-13.434-5.175-2.175-10.613-3.741-15.806-5.888-4.762-1.978-9.384-4.294-14.006-6.6-2.259-1.125-4.547-1.856-7.041-1.416-2.081.375-3.525-.15-4.491-2.128-.319-.656-1.069-1.491-1.678-1.556-1.078-.094-1.631.909-1.95 1.913-.084.244-.309.431-.544.778-1.031-1.856-.975-3.562-.234-5.353.384-.928.703-1.931.872-2.916.938-5.831 2.775-11.372 5.269-17.025.525 2.222.975 4.153 1.472 6.075.244.966.694 1.762 1.987 1.556.309-1.378-.731-3.084.938-4.125 1.866-1.172 2.503 1.153 3.919 1.331.862-1.528.834-1.491 2.269-.422 2.259 1.697 4.5 3.394 6.834 4.987 3.487 2.372 6.328 5.278 8.231 9.084.413.816 1.247 1.528 2.053 2.006 8.297 4.875 16.716 9.562 24.938 14.569 6.056 3.684 11.859 7.781 17.803 11.653 2.006 1.303 4.088 2.456 6.572 2.728.862.094 1.669.572 2.484.938 2.4 1.069 4.847 2.044 7.144 3.3 1.35.741 2.484 1.903 3.666 2.906.459.384.797.928 1.266 1.303 2.137 1.697 4.275 3.375 6.469 5.006.506.375 1.162.553 1.753.825.328.15.778.234.975.497.863 1.125 1.65 2.306 2.672 3.741z"/><path d="M85.866 252.525c-.431-.544-.516-.609-.544-.694-.037-.131-.047-.281-.037-.412 4.434-30.591 9.216-61.163 9.638-92.175.009-.638.319-1.266.506-1.997.309.141.563.216.778.356 1.022.703 1.753.356 2.034-.713.778-2.944 1.716-5.869 2.119-8.85.413-3.094.647-6.253-.478-9.347-.319-.872-.141-1.931-.216-3.197 2.541.778 3.047-.984 3.731-2.559 2.128-4.959 4.219-9.938 6.412-14.869.834-1.856 1.903-3.609 2.869-5.409.141.056.272.122.412.178-.694 3.797-1.378 7.603-2.072 11.4-.131.694-.375 1.388-.338 2.081.047.872.319 1.744.506 2.719-.141.019-.563.084-.975.131-.263 1.762.084 2.316 1.659 2.7 1.95.478 2.006.563 1.744 2.588-.197 1.472.544 2.813 1.978 3.572 1.406.75 1.378 1.031.309 2.222-1.191 1.313-2.372 2.681-3.234 4.209-1.247 2.231-1.341 4.659-.281 7.069.862 1.959 1.05 3.975.478 6.056-4.519 16.716-9.028 33.441-13.538 50.156-1.884 6.975-3.703 13.969-5.662 20.925-2.006 7.088-4.134 14.128-6.281 21.188-.281.881-.928 1.669-1.509 2.691zm23.221-119.794c-.591 1.613-.281 1.997 1.481 1.809-.516-.637-.984-1.2-1.481-1.809M0 106.922c1.303-.609 2.541-1.078 3.656-1.753 1.219-.75 2.344-1.697 3.487-2.559.703-.544 1.341-1.191 2.1-1.631 4.181-2.503 8.409-4.969 12.619-7.444 3.469-2.034 6.891-4.163 10.444-6.047 1.931-1.013 4.087-1.556 6.122-2.391.647-.272 1.219-.741 1.791-1.172.928-.703 1.716-1.631 2.728-2.147 11.381-5.794 21.609-13.219 30.994-21.844.309-.281.609-.572.919-.872 1.378-1.331 2.213-1.997 3.778-.028.319.403 1.472.572 1.959.319 5.466-2.822 10.875-5.747 16.284-8.663.319-.178.638-.431.834-.741.422-.619.862-.647 1.537-.403.591.216 1.266.15 2.053.225.919 2.541 1.191 5.278-.337 8.034-1.256 2.269-1.05 4.734-.459 7.153.15.647.909 1.144 1.491 1.837-.169 1.097-1.031 1.763-2.081 2.231-1.331.591-2.719 1.059-4.022 1.678-2.025.966-3.994 1.997-6 3.009l-1.378.703c-1.566.825-3.112 1.65-4.678 2.466-.459.234-.919.478-1.406.637-3.178.984-6.384 1.894-9.544 2.925-7.913 2.588-15.919 4.875-23.719 7.856-4.069 1.556-8.297 2.644-12.45 3.984a41 41 0 0 0-4.069 1.575c-5.447 2.438-10.969 4.706-16.256 7.444-4.566 2.363-9.253 4.313-14.062 6.056-1.256.413-1.284.459-2.344-.431zM197.419 161.897c.45-.103.844-.216 1.003-.244.825.938 1.575 1.762 2.278 2.625.131.169.15.45.15.684.291 6.703 2.728 12.919 4.434 19.303 4.219 15.778 9.216 31.341 12.403 47.381.778 3.891 1.472 7.781 2.213 11.691-.131.037-.244.075-.375.103-.188-.412-.403-.816-.563-1.238-5.925-14.766-11.944-29.484-17.719-44.316-4.313-11.091-9.347-21.834-14.494-32.522-.609-1.256-1.022-2.316.216-3.553.356-.356.056-1.612-.262-2.306-2.138-4.594-4.444-9.113-6.553-13.725-1.284-2.813-2.316-5.738-3.431-8.634-.506-1.303-.319-2.344 1.162-2.953 1.256-.516 1.575-1.753 1.556-2.944-.028-2.25-.216-4.481-.356-6.722-.028-.366-.122-.712-.178-1.097.15-.037.244-.084.319-.056 3.253 1.313 3.713 1.125 5.034-2.128.638-1.566 1.238-3.15 1.866-4.716.178-.45.431-.863.816-1.603.638 8.681 3.394 16.519 4.988 24.6 1.341 6.853 3.113 13.631 4.716 20.419.094.412.216.825.366 1.209.084.244.262.459.422.713zM72.291 113.606c.272.881.422 1.359.563 1.837 2.447.478 2.841.188 2.822-2.175-.019-1.519.356-2.859 1.378-4.022 2.841-3.244 5.662-6.516 8.475-9.797 1.659-1.931 3.234-3.919 4.941-5.794 1.059-1.172 2.653-2.025 3.3-3.366.609-1.284.309-3 .403-4.528 1.856.272 3.469 2.034 3.731 4.069.141 1.116.244 2.25.291 3.375.084 2.372.863 4.472 2.203 6.431a24.4 24.4 0 0 1 2.231 4.059c.6 1.359.019 2.081-1.453 2.306-.497.075-1.059.328-1.406.684-.75.75-1.341 1.678-2.1 2.409-7.556 7.303-16.003 13.519-24.338 19.884-3.656 2.784-7.125 5.859-10.397 9.084-6.834 6.759-14.063 12.984-22.097 18.319-3.131 2.081-5.653 5.053-8.597 7.453-2.128 1.744-4.472 3.225-6.722 4.809-.197.141-.478.178-1.153.422.647-.938.984-1.584 1.453-2.119 4.284-4.866 8.503-9.797 12.909-14.541 3.966-4.266 8.194-8.278 12.216-12.488 3.487-3.666 6.938-7.387 10.209-11.25.656-.778.431-2.306.609-3.478.103-.666.197-1.341.309-2.006.638.234 1.266.459 1.894.731.337.15.647.384.966.591 1.472.938 1.856.787 2.006-.919.075-.834.009-1.697-.094-2.513-.234-1.847.263-3.281 1.866-4.378 1.209-.891 2.278-1.978 3.591-3.084zM251.137 172.153c-6.956-10.369-16.387-17.991-24.141-27.112-5.588-6.581-10.5-13.725-15.628-20.681-2.644-3.591-5.1-7.322-7.641-10.997-.234-.338-.497-.834-.834-.919-1.762-.431-1.959-1.856-2.447-3.281-.497-1.434-1.378-2.775-2.278-4.022-.328-.459-1.191-.647-1.838-.741-2.906-.431-3.872-2.794-2.053-5.222.609-.834 1.294-1.613 1.912-2.447.703-.938 1.359-1.903 2.072-2.859.666-.909.797-1.65-.188-2.55-1.209-1.106-.741-4.584.6-5.55.787-.563 3.047-.047 3.562.816.6 1.013 1.144 2.053 1.8 3.037.862 1.266 1.819 2.466 2.7 3.731.609.881 1.313 1.753 1.706 2.737.956 2.409 2.653 4.284 4.172 6.3.731.966 1.294 2.175 1.528 3.366.459 2.297 1.05 4.472 2.728 6.216.572.6 1.022 1.341 1.491 2.044 3.881 5.878 7.669 11.841 11.653 17.644 4.134 6.028 7.462 12.488 10.425 19.153 1.716 3.872 3.619 7.622 6.169 11.025 2.166 2.953 3.487 6.347 4.519 10.303zM194.166 81.928c1.416.591 1.65 1.566 1.397 2.644-.356 1.575-.834 3.113-1.313 4.856-1.116-.891-1.744-1.837-1.481-3 .328-1.528.909-2.991 1.397-4.5"/></svg>