<svg xmlns="http://www.w3.org/2000/svg" width="300" height="300" viewBox="0 0 300 300"><title>factions-destruction-kruleboyz</title><path d="M225.122 92.241c-1.462 1.641-3.619 3.037-5.728 3.647-3.722 1.087-7.641 1.5-11.156 2.119-2.25-.478-4.266-.478-5.288-2.663-.234-.516-1.191-.891-1.847-1.022-2.044-.375-3.103-1.875-2.316-3.788.713-1.744 1.669-3.169 3.478-4.266 5.831-3.45 11.634-6.956 14.906-13.341.891-1.772 2.869-2.222 4.603-1.331 2.016 1.087 3.994 2.391 5.662 3.956.787.713.816 2.287 1.022 3.516.141.891-.169 1.875-.038 2.794.581 4.022-.787 7.509-3.309 10.369zm0 112.471c-.713.75-.272 2.625-.375 3.994-.338 3.994-2.794 6.478-6.037 8.259-.853.478-2.391.544-3.103.066-2.559-1.706-5.119-3.206-5.766-6.853-1.434-8.053-3.75-15.9-7.781-23.063-1.191-2.081-3.206-3.722-4.912-5.494-.375-.338-1.434-.516-1.744-.234-.478.375-.75 1.228-.75 1.875 0 5.222.206 10.434.169 15.656-.038 4.847.066 9.591-2.119 14.297-1.847 3.956-2.184 8.559-3.375 12.825-.787 2.766-1.706 5.559-3 8.119-1.191 2.419-4.303 3.103-7.331 2.081-2.391-.816-3.244-2.419-3.169-5.494.103-3.375.478-6.619 1.978-9.722 1.369-2.831.309-5.803-.206-8.634-.75-4.228-1.744-8.428-2.597-12.656-.103-.413-.141-.853-.169-1.228-2.081-.441-2.831.853-2.869 2.391-.066 3.272-.272 6.375-2.419 9.141-.787 1.022-.684 2.691-1.266 3.956-.75 1.603-1.744 3.103-2.662 4.641-.338.619-1.022 1.228-1.022 1.847 0 3.581-2.044 6.178-3.75 9.037-.891 1.5-1.912 2.391-3.478 2.287-.919-.066-2.391-.647-2.662-1.331-1.978-5.184-3.956-10.369-5.494-15.656-1.369-4.669-2.316-9.487-4.706-13.847-.169-.309 0-.787 0-1.191-.234-.037-.441-.066-.684-.141-.516 2.081-1.125 4.125-1.5 6.206-1.125 6.412-1.847 12.928-3.412 19.237-.647 2.691-.103 5.119-.234 7.678-.206 3.544-1.941 5.625-4.809 5.559-3.272-.066-5.353-2.353-5.353-5.869 0-1.941.581-4.059-.037-5.728-1.538-4.162-3.75-8.016-5.456-12.113-1.088-2.597-1.772-5.391-2.691-8.053-.787-2.353-1.669-4.669-2.494-7.031-.272-.713-.441-1.462-.647-2.184-.272-.066-.544-.103-.816-.169-.994 2.934-2.044 5.869-2.869 8.869-.441 1.669-.441 3.45-.684 5.184-.066.544-.103 1.331-.478 1.603-1.941 1.566-1.538 3.75-1.847 5.803-.309 1.847-1.022 3.581-1.537 5.391-.037.141-.141.272-.234.375-2.288 2.456-5.222.478-7.809.994-.441.066-1.266-1.566-1.809-2.494-2.119-3.619-4.228-7.266-6.244-10.912-2.016-3.684-4.2-7.266-4.163-11.766 0-2.691-.337-5.456-1.059-8.053-.516-1.744-1.706-3.45-3.037-4.706-3.825-3.647-4.5-8.428-4.912-13.2-.206-2.353-1.059-3.75-3.347-4.772-.619 1.566-1.163 3.169-1.809 4.744-1.669 4.125-3.478 8.259-4.978 12.45-.619 1.772-.684 3.825-.787 5.728-.141 2.456-.103 4.875-.141 7.331 0 .309.103.619.037.891-.169.816-6.516 4.472-7.331 4.397-2.869-.206-3.347-2.081-4.059-4.5-1.022-3.272-2.456-6.656-1.706-9.863.712-3.141.516-6.956 3.825-9.244 1.462-.994 2.625-2.419 3.891-3.722 1.191-1.191.478-3.375-1.059-4.2-3.141-1.641-5.906-3.825-7.603-7.031-.994-1.875.141-6.375 1.847-7.603.478-.338 1.462-.684 1.772-.441 2.456 1.809 6.075.066 8.288 2.662.169.234 1.434-.038 1.744-.413 1.125-1.434 2.044-2.972 2.728-3.994-1.847-2.831-3.45-5.353-5.081-7.847-.684-.994-1.434-1.941-2.184-2.869-1.125-1.397-1.087-2.494.234-4.228-.103-.169-.206-.375-.337-.544-.956-1.603-1.191-3.169.516-4.434 1.5-1.087 2.869-.619 4.5 1.125 3.619 3.853 7.266 7.678 11.053 11.325.994.956 2.597 1.434 3.994 1.809 1.875.478 3.825.619 6.516 1.022-.684-1.912-1.022-3.516-1.772-4.875-1.463-2.662-2.081-5.662-3.272-8.325-1.331-2.934-.619-5.625-.713-8.391-.066-2.456 3.244-5.081 5.559-4.266 1.022.375 2.353 2.353 2.147 3.272-.713 3.141 1.163 5.25 2.316 7.575 2.597 5.147 5.081 10.406 8.184 15.216 2.147 3.347 5.25 6.075 7.95 9.037.169.169.647.038 1.566.038-1.434-3.75-2.934-7.228-4.022-10.819-.75-2.391-.956-4.978-1.434-7.472-.103-.619-.103-1.434-.516-1.809-3.272-3.037-1.294-6.825-1.369-10.266 0-.581 2.119-1.463 3.375-1.706.478-.066 1.809 1.331 1.772 2.016-.206 3.272.853 6.178 1.772 9.244 1.087 3.581 2.016 7.134 3.722 10.509 1.294 2.522 3.825 4.2 4.472 7.059.038.206.75.516.853.441.375-.375.891-.816.994-1.331.619-2.831 1.163-5.728 1.669-8.597.816-4.2 1.809-8.428 2.25-12.656.169-1.875.816-2.897 2.419-3.206.816-.141 2.288.169 2.625.787 1.537 2.494 3 5.081 3.994 7.809 1.228 3.412 1.913 7.059 2.972 10.537.206.75.919 1.397 1.537 1.913.206.141 1.369-.478 1.331-.647-.234-2.184 1.369-3.684 2.016-5.494 1.088-2.972 2.316-5.906 3.581-8.803.544-1.266 1.397-2.391 1.978-3.619.544-1.191.441-2.728 2.522-2.522.412.037.919-1.369 1.5-2.016.919-1.059 1.809-2.222 2.972-3 1.912-1.331 3.684-.713 4.059 1.566.853 4.847 2.222 9.825 1.875 14.634-.375 5.625 1.875 10.641 2.353 16.069.75-2.119 1.462-4.228 2.222-6.347.141-.338.234-.684.478-.956 5.184-5.597 7.678-12.862 11.841-19.069 1.669-2.419 2.972-5.119 4.744-7.434.619-.853 2.147-1.369 3.309-1.397 1.847-.103 2.625 1.369 1.566 2.934-1.978 2.934-1.875 6.375-2.728 9.591a54 54 0 0 1-1.294 4.538c-.816 2.494-1.809 4.95-2.522 7.472-1.022 3.722-1.875 7.509-2.794 11.259-.169.787-.272 1.566-.375 2.119 2.184-1.5 4.744-2.728 6.656-4.641 2.794-2.831 5.147-6.103 7.678-9.206.272-.338.375-.853.684-1.125 3.103-2.663 4.097-6.412 5.147-10.097.478-1.809 2.25-2.869 4.059-2.25 1.669.516 1.228 1.847.994 3.206-.544 3.544-2.119 6.478-4.397 9.281-3.581 4.434-6.853 9.141-10.237 13.744.066.169.169.338.272.544 1.191-.544 2.522-.853 3.516-1.641 1.847-1.397 3.75-1.941 6.075-1.566 3 .478 5.625-.169 7.781-2.662.853-.994 2.419-1.434 3.75-1.744.684-.169 2.016.206 2.222.684.234.619-.103 1.847-.647 2.353-1.566 1.566-3.412 2.869-5.081 4.331-1.059.919-2.044 1.978-3 3-2.016 2.147-3.956 4.331-5.934 6.516l-.544-.309c.234.581.441 1.162.544 1.462 3.75 0 7.266-.066 10.819.038.956 0 1.912.516 2.897.647.853.103 1.744.234 2.559.037 1.059-.234 2.016-.816 3.038-1.191 5.972-2.287 9.516 1.847 9.862 7.162.412 6.619.272 13.237.338 19.884 0 2.016-.066 3.919-1.772 5.597zM76.688 62.766c1.463-.234 3.103-.272 4.5.141.919.234 1.5 1.941 2.353 2.044 2.044.309 3.45 1.434 4.847 2.662 2.016 1.772 3.994 3.619 5.831 5.597 1.434 1.603 2.597 3.45 3.994 5.081 1.125 1.294 2.419 2.456 3.619 3.684 1.875 1.847 1.641 3.853-.853 4.847-2.222.891-4.641 1.369-7.2 2.081-3-.994-6.178-1.463-8.738-3-2.597-1.5-5.325-3.516-5.353-7.228 0-.441-.647-1.088-1.125-1.266-1.537-.516-2.119-1.566-2.25-3.103-.272-3.169-.684-6.309-.853-9.487-.037-.684.713-1.941 1.228-2.044zm48.206 37.49c1.875-.141 2.494.816 2.794 2.522.141.788 1.022 1.641 1.772 2.147 2.119 1.434 3.956 3 4.228 5.803-1.847.544-3 .309-3.853-1.641-.441-.994-2.016-1.5-3.103-2.119-.816-.441-1.744-.684-2.625-1.022-.441.816-.853 1.463-1.266 2.147-.169-.066-.375-.169-.581-.234-.066-1.566-.169-3.141-.206-4.706 0-1.809.994-2.728 2.831-2.897zm27.6 8.353c.919-1.463 1.669-3.075 2.25-4.706.713-1.913 2.184-2.794 3.919-3.413 1.397-.478 2.25.544 2.081 1.641-.272 1.847-1.022 3.619-1.744 5.353-.169.478-.816.816-1.294 1.125-1.5.956-3 1.978-4.603 2.728-.853.413-1.912.413-2.897.581-.103-.272-.206-.544-.272-.816.853-.816 1.941-1.5 2.559-2.494zm130.856 18.694c.037-4.397.684-8.934-.234-13.134-.713-3.206-3.169-6.141-5.325-8.869-3.103-3.919-5.869-8.016-6.994-12.928-.853-3.825-.919-7.781-1.294-11.662-.413-4.097-.619-8.325-3.45-11.869-1.913-2.419-3.272-5.25-4.772-7.95a13 13 0 0 1-1.125-2.766c-1.641-5.663-4.641-10.134-10.237-12.656-2.691-1.191-5.119-2.972-7.641-4.472-2.728-1.641-4.875-4.538-8.737-3.347-.516.169-1.434-.309-1.941-.75-1.875-1.744-2.184-7.331-.544-9.281-1.809-1.434-3.581-2.869-5.391-4.228-.581-.441-1.331-.619-1.847-1.087-2.559-2.287-6.581-2.897-7.847-6.722-.103-.272-.516-.516-.787-.647-2.147-1.059-3.684-3.206-6.309-3.45-.853-.066-1.603-.956-2.353-1.5-2.147-1.537-4.059-3.544-7.134-3.103-.516.066-1.125-.206-1.641-.441-2.522-1.125-6.075.206-7.2 2.831-.75 1.669-2.081 2.597-3.787 2.222-1.669-.375-2.184-1.875-1.809-3.478.309-1.397-.338-2.119-1.434-2.794-2.222-1.331-4.331-2.794-6.478-4.2-.234-.141-.544-.206-.816-.234-2.766-.234-5.597-.272-8.325-.712-1.913-.309-3.169.544-4.5 1.566-1.744 1.294-3.375 2.869-5.325 3.647-3.309 1.369-4.913 3.853-5.972 6.994a14.8 14.8 0 0 1-1.941 3.891c-.684.956-1.641 2.119-2.662 2.353-3.347.787-5.391-1.603-5.353-5.081.037-1.941.234-4.369-2.25-5.597-1.022-.478-1.809-1.463-2.728-2.184-.713-.544-1.434-1.088-2.222-1.463-1.744-.788-3.684-1.191-5.25-2.222-1.294-.816-2.044-.891-3.244 0-3.919 2.831-8.222 3.619-12.891 2.287-.441-.141-1.294-.206-1.369-.037-.816 2.044-2.897 1.566-4.369 2.316-1.566.787-2.934 2.016-4.5 2.691-1.331.581-2.831.787-4.303.853-.206.038-.516-1.537-.816-2.597-1.641.206-2.419 1.706-2.869 3.309-1.125 4.097-3.919 5.934-7.978 6.206-1.537.103-3.037.141-4.575.309-.919.066-1.913.141-2.766.516-5.428 2.419-10.031 6-14.494 9.825-.619.544-1.538.713-2.316 1.022-1.397.544-2.934.816-4.125 1.641-3.619 2.419-5.016 6.206-5.728 10.266-.787 4.331-4.772 8.597-9.037 9.759-1.603.441-3.375 1.162-4.5 2.287-2.456 2.419-2.934 6.375-6.309 8.156-.272.141-.413.619-.544.956-.619 1.5-1.087 3.103-1.837 4.575-1.434 2.794-3.103 5.494-4.538 8.288-1.228 2.419-2.316 4.95-3.309 7.472-.712 1.875-1.163 3.853-1.809 5.728-.647 1.847-1.641 3.619-2.044 5.494-.684 2.972.441 6.412-2.353 8.869-.206.169-.141.684-.141 1.059.103 5.391.066 10.781.337 16.172.413 7.641 1.434 15.253-.816 22.791-.141.412.037 1.125.309 1.369 2.869 2.353 3.619 5.597 3.722 9.037.103 2.625.647 5.428-1.294 7.603-1.978 2.184-2.456 4.744-2.559 7.472-.141 4.266 2.288 7.744 3.788 11.428 1.641 4.022 4.472 7.537 4.603 12.141.066 2.597.234 5.222.441 7.847.066.544.272 1.434.684 1.603 1.706.75 1.772 2.147 1.641 3.619-.441 4.5-.956 9.009-1.397 13.509-.206 2.25-.038 4.5 1.538 6.375 1.706 2.016 3.75 3.787 5.147 5.972 1.706 2.662 3.891 4.022 6.956 4.303.994.103 1.978.516 3.206.853-.478 2.016-1.087 3.75-1.228 5.531-.375 5.494 2.691 9.553 5.869 13.547.816 1.059 1.603 1.875 3.141 1.912.75.038 1.772.647 2.184 1.294 1.912 3.075 3.544 6.281 5.456 9.347.544.919 1.5 1.772 2.456 2.222.919.412 2.147.141 3.206.375 1.462.309 3.478.544 3.581 2.287.141 3.375 2.456 5.869 4.369 7.472 5.016 4.228 11.156 6.309 17.981 5.494 4.059-.478 6.619-1.059 6.787 3.825.103 2.934.103 5.119 4.125 5.766 3.75.619 7.369 1.266 11.119.853 1.434-.169 2.897-.441 4.331-.413 6.956.103 13.95.206 20.878.581 1.5.066 2.897 1.331 4.369 1.978 1.294.619 2.597 1.228 3.956 1.706.619.206 1.331.169 2.016.206 4.331.234 8.766 1.087 12.994.544 5.559-.75 10.472-3.619 15.178-6.788 4.097-2.766 8.081-5.972 13.613-5.662 1.5.103 3.103-.713 4.575-1.369 9.075-3.994 18.113-8.053 27.15-12.113 6.037-2.728 12.075-5.456 18.084-8.325 1.022-.478 1.941-1.463 2.597-2.419 1.772-2.728 3.413-5.559 4.978-8.428.516-.919.853-2.016 1.022-3.075.375-2.419.713-4.847.891-7.303.234-3.787 2.016-6.375 5.353-8.222 1.941-1.088 3.994-2.597 5.119-4.434 1.809-2.972 2.897-6.347 4.266-9.553.544-1.294 1.266-2.559 1.537-3.891.891-4.2 4.575-7.603 8.738-7.912 1.744-.169 2.897-1.162 2.972-2.869.141-3.994.169-7.978.038-11.944-.038-1.022-.713-2.119-1.369-2.972-.919-1.191-2.25-2.081-3.075-3.347-1.603-2.522-1.191-6.178 1.125-6.928 3.788-1.191 4.669-3.581 4.434-7.031 0-.413.375-.853.309-1.266-.103-.919-.272-1.847-.619-2.691-.853-2.119-2.419-4.125-2.597-6.281-.309-3.825.206-7.678.413-11.531.141-2.625 1.772-4.162 3.919-5.353.684-.375 1.5-.713 1.913-1.331 2.119-3.347 2.662-7.706.309-10.847-1.912-2.597-1.462-5.184.788-7.434.375-.337.853-.816.891-1.228z"/></svg>