<svg xmlns="http://www.w3.org/2000/svg" width="300" height="300" viewBox="0 0 300 300"><title>factions-order-cities-of-sigmar-the-phoenicium</title><path d="M152.081 299.137c-.225-.506-.862-1.144-1.416-1.425-.928-.478-.994-.637-.891-2.334.084-1.5.244-1.875.891-2.166.825-.366.938-.591 1.284-2.691.272-1.584 1.725-2.897 3.572-3.225 4.772-.844 6.009-1.716 6.384-4.528.15-1.125.403-1.538 1.153-1.894.525-.253.956-.6.956-.769 0-1.5 4.941-2.053 6.291-.703.609.609.703 1.162.703 4.528 0 3.619-.047 3.853-.787 4.238-.431.225-1.153.853-1.594 1.406-.656.816-1.087 1.003-2.25 1.003-.787 0-1.959-.188-2.597-.422-1.603-.581-1.875-.188-2.081 3.084-.234 3.731-.366 4.247-1.172 4.5-.375.122-.891.637-1.144 1.162-.431.909-.562.947-3.684 1.041-3.188.103-3.234.084-3.647-.816zm-12.028-9.693c-.6-.628-1.359-1.35-1.697-1.622-.844-.675-.656-5.316.253-6.225.872-.872 5.287-.853 6.609.028 2.213 1.472 2.606 5.662.609 6.694-.572.291-1.031.759-1.031 1.041 0 .684-1.106 1.228-2.513 1.228-.853 0-1.453-.3-2.241-1.134zm10.453-6.638c-.488-.544-.787-1.491-.938-3.028-.272-2.728-.881-3.525-2.7-3.525-1.069 0-1.463.197-2.063 1.05-.722 1.012-.844 1.05-3.45 1.05-1.631 0-2.869-.169-3.122-.422-.516-.516-.563-4.95-.056-5.897.197-.375.609-.675.9-.675s.713-.45.919-.994c.216-.563.787-1.153 1.341-1.359.769-.291 1.331-1.144 2.775-4.162.994-2.091 2.072-4.088 2.391-4.444.947-1.059 2.278-1.584 4.65-1.828l2.241-.234.947 1.369c.825 1.181.947 1.716.947 3.928s-.15 2.822-1.125 4.603c-1.369 2.484-1.191 2.784 1.894 3.141 3.234.384 3.422.731 3.422 6.291 0 5.878-.019 5.906-4.828 5.906-3.113 0-3.497-.075-4.144-.787zm-21.89-2.643c-.394-.441-.581-1.266-.581-2.634 0-1.659.15-2.147.853-2.859.919-.919 1.725-1.05 3.094-.534 1.031.394 1.641 1.959 1.641 4.256 0 1.978-.516 2.409-2.897 2.409-1.05 0-1.725-.206-2.119-.638zm43.181-1.266c-.234-.506-.422-1.444-.422-2.081 0-1.809-1.078-2.887-3.178-3.178-3.262-.45-5.822-3.938-6.178-8.438l-.178-2.175 1.547-1.547c1.753-1.753 3.009-2.156 5.559-1.809 1.359.188 1.838.431 2.194 1.097.244.478.834 1.05 1.303 1.284.797.394.862.656 1.05 3.909.113 1.913.384 3.834.619 4.256.244.45 1.003.928 1.8 1.144 1.762.478 2.456 1.481 2.456 3.562 0 3.084-1.088 4.228-4.416 4.669-1.631.216-1.753.178-2.156-.694zm-47.981-7.866c-2.578-.778-4.163-3.141-4.163-6.188 0-1.856.684-2.916 1.884-2.916.328 0 1.031-.459 1.547-1.022 1.2-1.303 2.728-1.575 6.15-1.106 2.259.309 3.103.628 5.072 1.903 2.597 1.678 3.3 2.794 3.113 4.969-.122 1.472-.628 1.866-3.347 2.578-.872.225-1.481.6-1.481.891 0 .272-.3.656-.675.862-.778.413-6.741.441-8.091.028zm55.397-4.312c-.741-.638-1.031-1.35-1.397-3.403-.497-2.766-.628-5.963-.291-7.191.291-1.097 1.594-1.528 4.566-1.528 3.459 0 5.006.816 6.234 3.281.675 1.35.872 2.297.872 4.116 0 3.844-.609 4.584-4.256 5.175-3.441.563-4.669.469-5.719-.441zm-46.266-10.538c-.3-.366-.384-2.316-.3-7.078l.122-6.572 5.85-22.894c3.216-12.591 6.084-23.409 6.375-24.047.797-1.753 2.184-2.166 7.331-2.166 5.006 0 6.262.356 7.603 2.147 1.191 1.594 1.566 3.047 1.781 6.834.159 2.869.666 4.781 4.772 17.991 4.013 12.928 4.819 15.169 6.403 17.916l1.809 3.141.131 5.175c.066 2.85.019 5.897-.112 6.769-.206 1.369-.394 1.659-1.35 2.044-1.753.712-7.463 1.341-10.894 1.2-2.597-.113-3.347-.272-4.284-.938-.628-.441-1.219-1.162-1.331-1.584-.188-.769.534-2.691 1.941-5.109.591-1.022.703-1.847.703-5.137 0-2.156-.169-4.697-.375-5.653s-1.537-4.106-2.953-7.003c-3.084-6.3-3.141-6.469-4.031-13.144-.6-4.481-.825-5.362-1.528-6.066-.656-.666-1.031-.778-1.922-.581-2.006.441-2.231 1.116-3.169 9.788-.563 5.222-.431 7.753.647 12.45 1.059 4.594 1.762 6.375 2.653 6.722.45.169.534.994.534 4.847 0 2.55-.159 5.194-.347 5.869-.197.703-1.059 1.931-2.006 2.869-1.303 1.284-2.119 1.753-3.75 2.175-2.803.722-9.712.75-10.313.038zm-20.372-3.956c-4.256-5.616-11.269-18.394-14.372-26.166-2.278-5.719-1.622-9.122 4.641-24.216 3.253-7.819 3.956-11.859 2.353-13.462-.694-.694-1.313-.853-4.106-1.069-11.569-.881-22.725-5.756-34.237-14.981-7.284-5.831-14.719-14.597-16.725-19.725-.516-1.322-.722-2.644-.722-4.65 0-3.506-.975-5.794-3.478-8.128-1.837-1.716-3.122-2.419-5.522-3.019-1.284-.319-1.603-.6-2.316-2.016-2.4-4.772-6.225-16.734-6.263-19.594-.009-.891.347-2.709.788-4.041.675-2.016.778-2.859.6-5.063-.394-4.988-2.559-11.878-4.322-13.725l-.891-.938.403-3.506c2.128-18.291 17.513-52.322 31.697-70.116 3.553-4.463 13.903-14.981 15.103-15.366 2.475-.778 5.831 5.456 16.078 29.869 3.834 9.131 8.147 19.35 9.591 22.716 4.247 9.919 4.866 12.853 3.375 15.938-.394.816-1.913 2.869-3.375 4.566-6.872 7.987-9.525 14.803-9.534 24.525-.019 16.266 9.797 31.369 26.203 40.313 5.184 2.822 9.253 3.928 12.544 3.403 3.694-.591 8.522-4.462 10.509-8.447 2.747-5.494-.028-11.644-6.741-14.944-3.178-1.556-6.356-2.1-12.169-2.072-5.147.028-6.403-.122-8.072-.966-.881-.441-.956-.647-.956-2.484.009-3.853 1.181-6.816 3.787-9.609 3.413-3.656 7.097-5.794 21.891-12.741 18.431-8.653 19.463-9.075 20.091-8.316.225.272.647 1.866.938 3.553.628 3.628 2.362 8.175 5.869 15.328 3.159 6.45 5.091 9.459 6.563 10.237 2.616 1.378 7.088 7.5 9.937 13.594 2.784 5.962 4.228 7.416 6.928 6.984 1.781-.291 3.759-1.809 7.884-6.056 7.2-7.406 10.2-12.094 11.316-17.663.881-4.378 1.087-12.225.394-15.122-1.275-5.381-5.869-13.275-10.331-17.737-2.269-2.269-2.925-2.737-4.191-2.934-.825-.131-1.903-.591-2.4-1.013-.872-.75-.891-.834-.487-2.597.816-3.534 6.919-18.253 15.881-38.288C219.526 3.868 221.673-.444 222.91.034c3.038 1.163 23.409 37.209 27.609 48.863 1.875 5.194 2.466 5.831 6.328 6.816 3.844.975 5.222 4.359 6.075 14.869.684 8.428 1.65 12.778 3.488 15.656 1.059 1.669 2.644 2.691 4.2 2.691.422 0 .881.347 1.106.844.694 1.519.066 3.141-2.137 5.578-2.381 2.625-2.653 3.581-2.597 8.972.066 5.7 1.772 11.438 3.797 12.759 1.087.713 1.387 1.65.863 2.672-1.416 2.728-8.841 10.8-17.297 18.806-4.809 4.547-13.556 15.947-16.847 21.966-2.813 5.138-8.803 10.359-15.984 13.931-3.862 1.922-6.759 2.784-10.734 3.197-5.203.534-8.156 2.222-9.9 5.653-3.366 6.637-.3 18.45 7.575 29.166.703.956 1.472 2.391 1.706 3.169.366 1.256.319 1.697-.431 3.872-1.575 4.537-11.053 20.869-15.366 26.475-2.156 2.813-3.394 3.834-4.228 3.516-.966-.366-3.553-4.866-6.122-10.65-7.931-17.822-15.188-42.131-13.669-45.806.478-1.162 1.125-1.472 5.4-2.569 6.553-1.688 9.956-4.134 9.956-7.162 0-2.006-1.659-3.103-6.197-4.116-3.412-.759-15.375-.816-32.766-.15-17.916.684-20.363 1.088-23.269 3.797-1.641 1.538-3.816 5.184-3.816 6.413 0 .966 1.284 2.316 2.747 2.906.75.3 2.756.797 4.462 1.106 3.638.656 4.753 1.031 6.45 2.156 1.884 1.247 2.138 2.091 1.566 5.091-.919 4.809-3.797 14.25-9.563 31.359-6.422 19.078-7.931 22.369-10.219 22.369-.806 0-1.294-.384-2.522-2.006zm92.137-85.688c1.134-.431 1.556-2.006 1.209-4.528-.281-2.081-3.956-10.05-5.306-11.503-1.313-1.416-2.606-1.913-3.741-1.453-1.416.591-1.838 1.931-1.688 5.428.103 2.531.234 3.094.825 3.497 1.397.966 1.575 1.256 1.575 2.559 0 1.781.9 4.706 1.659 5.372 1.05.928 3.834 1.256 5.475.628zM99.45 163.528c.497-.375 1.659-2.175 2.569-4.003 1.434-2.869 1.688-3.684 1.828-5.972.188-2.981-.169-4.013-1.566-4.538-1.247-.478-3.253.197-3.253 1.097 0 .412-.319.741-.825.872-.947.244-1.612 1.463-1.612 2.981 0 .825-.263 1.2-1.228 1.772-1.613.947-1.828 1.416-2.109 4.566-.225 2.438-.178 2.7.544 3.422.675.675 1.069.759 2.766.638 1.237-.094 2.325-.403 2.897-.825zm-13.922-6.056c.356-.309.881-1.153 1.163-1.856s1.05-1.697 1.706-2.203c.966-.731 1.191-1.153 1.191-2.147 0-.928.263-1.491 1.05-2.222.722-.675 1.153-1.5 1.359-2.634.206-1.106.609-1.894 1.219-2.391.497-.413 1.003-1.238 1.125-1.856.169-.9.037-1.284-.684-2.006s-1.237-.9-2.634-.9c-3.159 0-4.247.769-5.072 3.6-.534 1.828-1.387 2.925-2.916 3.703-.431.225-.881.787-1.003 1.266-.131.516-.469.863-.834.863-.347 0-.994.3-1.444.666-.759.619-.825.919-.825 4.003 0 2.625.122 3.459.572 3.909 1.228 1.228 4.706 1.341 6.019.197zm134.222.112c1.097-1.097 1.031-2.166-.328-5.597-1.462-3.684-2.203-4.8-3.703-5.578-.563-.291-1.022-.759-1.022-1.041s-.638-.909-1.406-1.397c-.975-.609-1.472-1.209-1.622-1.931-.3-1.528-1.959-2.775-3.666-2.775-2.841 0-3.638 1.088-2.887 3.956.647 2.475 1.65 4.209 3.459 6 1.022 1.013 1.744 2.25 2.597 4.463 1.509 3.919 2.128 4.416 5.503 4.434 1.828.009 2.662-.141 3.056-.534zm12.169-9.496c.3-.338.6-1.238.666-2.006.112-1.303.037-1.425-1.191-2.016-.722-.337-1.313-.862-1.313-1.153s-.553-.853-1.228-1.256c-.675-.394-1.228-.919-1.228-1.172s-.516-.844-1.134-1.322c-.731-.563-1.359-1.519-1.772-2.691-.497-1.425-.853-1.894-1.65-2.175s-1.059-.619-1.219-1.631c-.403-2.541-.534-2.822-1.481-3.272-.525-.253-1.003-.797-1.069-1.209-.159-1.134-1.172-1.35-1.931-.412-.853 1.05-.572 2.925 1.031 6.9 1.238 3.084 2.175 4.406 3.366 4.791.422.131 1.144 1.237 1.894 2.887 1.266 2.794 2.353 4.247 3.15 4.247.262 0 .572.272.694.609.422 1.181.909 1.481 2.372 1.481.966 0 1.669-.216 2.025-.609zm-159.647-1.219c.3-.431.544-1.134.544-1.584 0-.525.291-.909.816-1.116.816-.309 1.097-.778 2.794-4.641.637-1.463 1.106-2.053 1.734-2.213 2.119-.534 4.706-5.053 5.016-8.775.178-2.147.122-2.466-.563-3.075-1.294-1.162-4.219-.656-4.219.731 0 .272-.384.666-.844.872-.534.244-1.172 1.125-1.716 2.391-.675 1.566-1.106 2.091-1.941 2.381-.675.234-1.144.684-1.284 1.237a1.5 1.5 0 0 1-1.059 1.078c-.525.131-1.031.666-1.35 1.425-.281.666-.666 1.219-.853 1.219-.722 0-1.444 1.153-1.444 2.306 0 .919-.3 1.509-1.219 2.438s-1.219 1.519-1.219 2.419c0 2.663 1.153 3.581 4.612 3.647 1.322.028 1.744-.122 2.184-.741zm-10.988-13.65c.675-.394 3.272-2.709 5.766-5.128 3.019-2.934 5.072-4.631 6.113-5.072.862-.366 2.147-1.106 2.859-1.65 1.481-1.134 2.897-3.769 2.569-4.781-.337-1.059-2.25-1.538-4.5-1.116-3.281.609-4.959 1.603-10.247 6.084-1.312 1.116-3.375 2.494-4.584 3.056q-2.191 1.041-2.878 2.166c-1.341 2.203-.563 6.169 1.406 7.153.984.488 1.734.338 3.497-.703zm180.628.769c1.866-.647 1.894-2.672.084-6.713-1.088-2.419-1.997-3.197-4.744-4.069-2.316-.731-2.775-1.041-3.356-2.287-.366-.787-1.238-1.416-3.459-2.531-6.459-3.225-11.137-3.947-11.175-1.734 0 .15.525.591 1.172.975.769.45 1.256 1.05 1.387 1.706.169.844.525 1.125 2.222 1.763 2.7 1.003 3.6 1.622 3.6 2.494 0 .478.347.853 1.041 1.116.6.225 1.172.769 1.331 1.266.234.694.647.947 2.016 1.237 1.397.3 1.744.516 1.838 1.172.066.469.469.938.966 1.125.759.291 1.472 1.425 2.034 3.234.216.684 2.034 1.613 3.216 1.631.403.009 1.228-.159 1.838-.375zm7.575-15.01c1.256-1.181 1.181-2.859-.188-3.834-.572-.413-1.05-.956-1.05-1.219 0-.863-1.753-2.569-3.066-3-.713-.234-2.044-.797-2.944-1.247s-2.025-.825-2.484-.825c-1.181 0-7.922-2.034-8.953-2.7-1.134-.731-3.778-.797-4.209-.094-.178.291-.244.834-.131 1.219.469 1.678 1.491 2.466 5.063 3.937 2.588 1.059 3.938 1.828 4.688 2.672.647.741 1.509 1.275 2.269 1.425 2.166.413 2.362.534 2.578 1.603.15.741.544 1.209 1.35 1.584.628.291 1.538.759 2.016 1.05 1.275.759 3.994.45 5.081-.572zm-186.974-4.669c9.984-4.941 12.403-6.412 12.403-7.538 0-1.613-1.725-1.678-8.559-.328-8.653 1.706-12.112 3.225-15.572 6.825-2.063 2.156-2.156 2.325-1.978 3.656.478 3.563 1.706 3.328 13.706-2.616zm-7.875-12.375c.562-.609 1.228-1.116 1.472-1.116s4.706-.469 9.891-1.05c10.678-1.181 11.109-1.322 11.287-3.731.169-2.222 0-2.259-7.313-1.866-14.128.778-20.728 1.463-22.603 2.353-2.634 1.256-3.169 5.728-.769 6.45.478.141 2.25.216 3.938.169 2.953-.094 3.103-.131 4.087-1.209zm198.909.31c1.744-2.156-.403-5.184-3.731-5.241-.778-.009-4.941-.497-9.262-1.069-9.375-1.247-17.137-1.453-18.225-.469-.844.759-.806 1.687.094 2.531.544.506 1.453.741 3.403.909 5.869.487 14.878 2.241 17.869 3.487 1.762.731 2.606.834 6.075.75 2.766-.075 3.178-.169 3.759-.881zM79.125 86.756c2.784-1.406 2.278-3.178-1.313-4.631-1.303-.525-3.694-1.594-5.316-2.372-2.737-1.322-3.338-1.463-8.738-2.072-3.188-.366-8.409-.75-11.616-.853l-5.813-.197-.525.825c-.684 1.097-1.05 4.191-.628 5.316.188.487.703 1.097 1.144 1.341.769.422 25.772 3.309 29.475 3.394a6.76 6.76 0 0 0 3.319-.741zm159.394-1.106c7.613-.844 14.175-1.706 14.578-1.922.853-.459 1.275-2.25 1.003-4.256-.291-2.166-.666-2.409-3.703-2.409-6.206.009-10.547.656-20.119 3.019-10.463 2.578-11.306 2.981-10.884 5.091.347 1.734.787 2.016 3.141 2.016 1.181 0 8.372-.694 15.994-1.537zM82.959 74.784c.675-.816.525-2.091-.45-3.741-1.359-2.306-18.122-20.634-20.025-21.891-1.762-1.162-1.931-1.219-3.272-1.106-3.272.281-4.575 5.494-2.428 9.675 1.069 2.081 6.938 7.425 12.188 11.091 3.675 2.569 11.409 6.487 12.797 6.497.413 0 .938-.234 1.181-.525zm139.51-1.153c5.316-2.737 13.181-8.494 17.316-12.656 2.091-2.109 3.938-4.303 4.322-5.156.675-1.472.675-1.5 0-3.028-.909-2.062-3.403-4.744-4.416-4.744-1.322 0-4.247 2.606-12.816 11.4-8.644 8.869-9.881 10.528-9.881 13.237 0 3.178.862 3.328 5.475.947"/></svg>