<svg xmlns="http://www.w3.org/2000/svg" width="300" height="300" viewBox="0 0 300 300"><title>factions-order-hunters-of-huanchi</title><path d="M129.487 277.828c-9.431-12.019-17.203-23.569-17.203-25.697 0-7.069 9.197-6.6 22.631.947l13.2 7.303 13.903-8.484c11.55-7.069 14.616-8.016 18.619-5.897 2.831 1.416 4.716 4.247 4.247 6.131-.703 3.769-35.119 48.084-37.247 47.85-.703 0-8.953-9.9-18.15-22.163z"/><path d="M111.103 231.628c-19.331-11.784-36.534-22.631-38.184-24.047-1.416-1.65-3.534-8.953-4.247-16.266-1.65-13.434-1.65-13.669 4.247-13.669 7.781 0 9.666-5.653 7.781-25.453-.947-9.197-.469-19.331.947-24.047 2.597-8.25 2.353-8.25-12.731-22.397L53.597 91.602l2.597-17.681c1.416-9.666 2.831-25.697 2.831-35.362l.234-17.681 10.603-1.416c5.897-.947 20.034-4.95 31.584-8.953 40.069-14.147 48.319-14.147 93.581.703 17.203 5.653 27.112 7.547 33.469 6.834l8.953-1.181-.234 14.85c-.234 8.25.947 25.697 2.597 38.419l3.066 23.334-8.016 6.131c-4.481 3.3-11.784 9.666-16.266 13.903-6.834 6.6-7.781 8.719-6.131 15.319.703 4.003 2.831 16.734 4.481 28.05s4.003 21.919 5.419 23.569c1.181 1.65 2.119 7.781 2.119 13.669l-.234 10.603-23.569 16.031c-21.216 14.381-50.916 32.297-53.278 32.297-.469 0-16.734-9.666-36.3-21.45zm48.797-9.187c5.184-4.003 6.366-7.303 7.781-22.866 1.884-21.216 6.834-32.297 21.919-48.319l10.603-10.847-2.831-11.55c-3.534-13.669-6.131-17.203-13.434-17.203-6.131 0-7.547 3.534-8.484 21.216l-.703 10.603-6.834-9.9c-4.95-7.303-9.197-10.847-15.553-12.497-11.784-3.3-14.85-1.65-25.219 12.497l-8.953 12.253-.703-17.203c-.703-16.266-.947-16.969-6.6-16.969-4.481 0-6.6 1.884-9.431 8.25-5.897 14.147-4.481 21.684 5.897 31.116 5.184 4.481 10.134 11.316 10.847 14.85s3.3 8.25 5.897 10.603c3.066 2.831 4.716 8.953 5.897 22.631 1.416 16.031 2.597 19.331 7.547 23.334 7.547 5.897 14.85 5.897 22.397 0zm-.234-122.813c10.603-8.484 11.081-10.369 4.003-23.569-4.003-7.781-4.481-10.603-2.353-14.147 3.534-5.653 3.534-6.834-.469-6.834-6.834 0-8.016 12.966-2.353 24.047 3.769 7.069 3.534 7.303-3.3 14.147l-6.834 7.069-6.366-8.25c-5.184-6.834-5.897-9.197-4.003-13.2 4.716-8.719 2.597-23.813-3.534-23.813-4.003 0-4.003 1.181-.469 7.069 2.831 4.481 2.597 6.131-3.769 21.45-1.884 4.247 12.019 23.1 17.203 23.1 1.65.234 7.303-3.066 12.253-7.069zm-54.45-1.181c3.534-9.197 2.831-11.784-3.769-14.85-7.781-3.534-9.197-2.119-5.419 4.247 4.716 7.303.947 8.484-12.497 3.3-8.25-3.066-12.253-5.653-11.55-8.016.469-1.884 1.181-7.547 1.884-12.731 1.65-11.784-1.884-8.953-7.547 6.6-5.184 13.669-3.769 15.797 15.319 22.866 17.203 6.131 20.981 5.897 23.569-1.416zm119.503-4.95c11.784-5.653 12.253-6.131 10.847-13.2-1.884-9.431-7.303-22.866-9.431-22.866-.703 0-.703 5.897.234 12.966l1.416 13.2-10.847 4.716c-12.731 5.419-14.85 4.481-9.431-3.534 2.119-3.3 3.769-6.6 3.769-7.303 0-.947-13.434 4.95-16.031 7.069-.469.469.947 4.481 2.831 9.431 4.247 9.666 4.95 9.666 26.634-.469zM122.653 72.516c1.416-4.003-2.353-6.834-15.553-11.316-12.966-4.247-18.384-3.066-18.384 4.481 0 7.303 19.331 16.031 27.347 12.497 3.066-1.416 5.897-4.003 6.6-5.653zm81.797 1.181c12.497-5.419 13.903-8.484 7.303-14.616-4.003-3.534-5.184-3.3-18.853 3.066-8.016 3.769-14.616 7.547-14.616 8.484 0 2.353 7.781 7.781 11.316 8.016 1.65 0 8.484-2.353 14.85-4.95"/><path d="M140.569 216.544c-1.65-2.119-3.534-11.784-4.247-21.919-.703-14.85-2.119-19.331-6.366-24.047-4.716-4.95-5.419-7.547-4.247-16.969.703-6.366 2.119-11.316 3.066-11.316s3.534 4.247 5.653 9.431c3.066 8.016 4.716 9.431 10.603 9.431 10.603 0 14.147-2.119 18.384-11.55l3.769-8.484 2.119 10.603c1.65 8.719 1.181 12.019-2.597 18.853-2.597 4.95-5.184 15.797-6.131 26.634-1.416 14.147-2.831 18.853-6.131 20.512-5.897 3.3-10.603 2.831-13.903-1.181zM218.363 246.009c-26.166-4.247-33.713-6.366-31.819-9.431.469-.947 10.369-7.069 21.684-13.669 14.616-8.484 23.813-12.019 31.35-12.497 9.9-.703 10.603-.469 11.316 4.95.947 9.431-2.831 33.713-5.419 34.181-1.181.234-13.434-1.181-27.113-3.534zM52.884 246.956c-1.181-.947-1.884-9.431-1.884-19.097v-17.203h6.834c3.769 0 11.784 3.3 18.15 7.781 27.816 18.619 29.231 20.747 16.969 25.219-9.9 3.3-37.95 5.897-40.069 3.3M237.216 203.578c-4.95-1.181-5.897-3.066-6.6-11.081-.703-8.484.469-11.081 8.016-19.566 4.716-5.184 12.019-11.784 15.797-14.616l7.069-5.184 5.419 7.069c3.066 3.769 5.653 8.25 5.653 9.666 0 4.716-19.566 30.881-24.75 33.234-2.597 1.181-7.303 1.416-10.603.469zM39.919 191.325c-6.834-7.069-12.497-14.147-12.497-16.031 0-4.003 11.55-16.5 15.084-16.5 1.416 0 5.897 3.3 10.134 7.069 5.419 4.95 8.016 10.134 8.953 17.447 3.534 23.569-3.769 26.166-21.684 8.016zM60.188 164.212c-18.853-14.85-21.684-20.981-15.084-33.947 3.534-6.6 3.769-6.6 8.016-2.831 14.85 14.381 23.803 27.347 23.803 34.884 0 10.847-4.716 11.55-16.734 1.884zM225.431 157.847c0-12.497.234-12.966 13.669-24.75 12.966-11.081 14.147-11.55 18.853-8.25s4.716 3.769 1.181 13.903c-2.597 8.016-7.069 13.434-16.5 21.216-7.069 5.897-13.903 10.603-15.084 10.603s-2.119-5.653-2.119-12.731zM60.9 127.444c-6.6-6.834-9.9-12.019-9.9-16.5 0-7.781 1.181-8.016 11.081-.234 10.603 8.016 15.553 16.031 13.669 22.162-2.119 6.6-3.534 6.131-14.85-5.419zM221.184 134.747c-7.069-7.069-1.884-16.266 14.616-26.4 5.419-3.534 7.069-3.769 8.719-1.181 3.769 5.897 2.119 10.603-5.419 17.681-12.966 12.019-14.85 12.966-17.916 9.9"/></svg>