<svg xmlns="http://www.w3.org/2000/svg" viewBox="0 0 300 300"><path d="M232.095 227.007a97 97 0 0 1 5.321 7.328l.211.338c3.231 5.132 9.756 13.579 8.531 15.374-5.892 7.623-13.452 13.663-22.152 17.654l-.359.148c-7.307 2.746-13.155-4.921-16.83-12.059s-7.686-15.374-12.67-23.039c-1.14-1.838-4.603-2.302-7.054-3.463.338 2.47.95 4.709 1.774 6.821l-.063-.211c5.532 10.685 10.685 21.497 17.063 31.549s-1.458 12.966-7.138 15.901a13.8 13.8 0 0 1-6.63 1.689c-5.743 0-10.685-3.505-12.776-8.51l-.042-.084c-.592-2.851-1.267-5.258-2.133-7.623l.127.38c-1.541-3.146-3.612-6.061-5.448-9.06-.402 3.146-1.014 6.293-1.309 9.355s0 3.844 0 5.743c0 25.72 0 25.341-26.523 24.496-10.516 0-15.373-3.991-14.824-14.74s0-23.039 0-34.464l2.767-1.753-1.69-1.689-1.774 2.767c-1.098 7.349-2.597 13.811-4.561 20.04l.253-.95c-2.006 5.385-5.85 14.19-8.848 14.19-8.32-1.035-15.838-3.547-22.595-7.307l.316.169c-.782 0 0-5.617 1.014-7.665 2.681-5.701 6.525-10.812 8.912-16.514s4.773-13.979 7.054-20.948l-.697.782 4.371-8.447-.529.782 4.371-8.447-.612.782 4.519-4.519-.612.697c19.385-12.27 46.964-10.601 61.472 3.844l1.838 6.293c.782-.613 2.238-1.625 2.154-1.838-1.119-2.006-2.238-3.675-3.4-5.3l.105.148c1.014-4.139 1.922-8.363 2.978-12.523 2.534-9.819-1.625-14.275-11.361-14.36l.782.613c-10.305-12.227-8.447-12.523 5.385-19.343 20.357-10.136 33.809.529 48.274 10.748 7.222 5.068 14.211 10.516 20.97 16.281 5.132 4.287 13.452 8.975 13.768 13.979-.845 9.65-3.273 18.52-7.054 26.671l.211-.486c0 .782-5.385 1.077-7.686 0-5.829-3.231-11.214-7.138-16.83-10.812L213.22 207.22l-1.753-2.767-1.625 1.689 2.681 1.753 15.374 15.374 4.202 3.738zm-30.727-30.704 1.753 2.681 1.625-1.689-2.681-1.689-1.753-2.767-1.625 1.689zM169.08 242.74c-.613.993-1.689 2.006-1.689 2.978s1.014 2.07 1.625 3.146c.613-1.014 1.689-2.006 1.689-2.978s-1.014-2.07-1.625-3.146M132.21 88.816c1.393 3.231 1.837 7.665 4.223 9.503 9.165 6.926 13.452 12.226-1.225 17.273-1.838.612-2.238 5.132-3.294 7.665l.612-.697c-7.075 8.679-13.768 17.823-21.518 25.869a11.3 11.3 0 0 1-6.209 1.838 11.1 11.1 0 0 1-4.54-.95l.084.021c-5.026-3.57-9.461-7.37-13.494-11.551l-.021-.042-1.753-2.767-1.627 1.69 2.681 1.753c3.907 19.808-7.686 30.008-23.06 37.716a110 110 0 0 0-13.368 9.165l.232-.19c-3.759-4.603-7.011-9.819-9.587-15.437l-.19-.444c-10.39-35.562-13.536-79.063 24.517-110.02 4.519-3.759 8.363-8.215 14.148-2.07-5.111 2.767-5.111 5.532 0 8.278l1.859 6.356c.782-.613 2.217-1.627 2.154-1.837-1.119-2.006-2.238-3.675-3.4-5.3l.105.148v-6.969h19.195l-.782-.697 9.081 7.665 3.146-11.657-.612.782 4.519-4.519-.782.697c19.596-.697 19.829-.845 20.125-18.731V19.848c0-18.499 3.146-20.801 21.138-19.575 8.996.529 12.67 4.455 12.375 13.136v13.346c0 11.657-1.225 22.025 15.395 25.72 9.989 2.302 9.524 8.974 1.393 17.126A244 244 0 0 1 162.76 90l-.295.253a23 23 0 0 1-12.945 3.97c-.866 0-1.69-.042-2.534-.148h.105c-5.174-1.393-9.671-3.547-13.663-6.377l.127.084-11.53-11.509-7.686-3.844-1.753-2.767-1.627 1.689 2.681 1.753 7.686 3.844 7.686 7.665 3.189 4.202zm-56.953 22.342v-10.896l3.062-12.438-2.534-.465a356 356 0 0 0-1.309 10.516c-.021.253-.021.591-.021.929s.021.654.042.95v-.042c-6.061 3.991-5.998 7.665 0 12.059-.084 1.098-.148 2.344-.148 3.612s.063 2.534.169 3.758l-.021-.169a30.4 30.4 0 0 0 2.534 6.061l-.084-.169c.697-2.217 2.323-4.519 1.922-6.525-.866-2.767-2.091-5.153-3.654-7.286l.042.063zm54.862-.822c-5.829-4.815-12.333-9.545-19.111-13.874l-.803-.486c-3.421-1.204-7.349-1.901-11.446-1.922 1.225 4.371 1.309 9.819 4.076 12.818 3.865 3.779 8.637 6.652 13.979 8.215l.253.063c2.238.782 5.764-1.922 13.071-4.835l-.021.021z"/><path d="M109.91 230.07c-6.525 9.693-13.283 19.195-19.512 29.1s-10.516 11.657-20.906 5.385l-6.314-3.991c-13.536-9.207-13.811-12.438-2.535-24.791 2.449-2.767 4.603-5.829 6.926-8.827l3.844-3.759 11.53-11.509a9.5 9.5 0 0 0 1.964.211c5.385 0 9.777-4.35 9.777-9.756 0-.697-.084-1.372-.211-2.027l.021.063 2.767-1.774-1.69-1.689-1.753 2.746-26.882 26.862c-4.371 1.71-8.088 3.591-11.593 5.764l.295-.169c-9.777 7.138-10.685 6.969-15.838-4.455s-3.758-20.188 7.686-28.487c14.211-10.369 28.445-20.716 42.953-30.704 3.928-2.681 9.693-6.061 13.368-5.068 10.664 3.759 19.617 7.75 28.213 12.354l-1.098-.529-6.293 13.452.782-.613c-14.592 5.216-15.373 6.525-6.926 17.21 1.077 1.88 1.922 4.076 2.428 6.377l.021.148.612-.697-4.519 4.519.612-.782-4.371 8.447.529-.782-4.371 8.447.486-.676zm107.211-95.344c15.395-14.972 9.461-33.069 7.686-50.681-.338-2.618-.507-5.638-.507-8.7s.19-6.103.55-9.059l-.042.337c1.774-11.128 4.076-12.037 11.91-5.385 17.865 14.529 29.374 36.322 29.966 60.776v.105c-.359 19.28-3.421 37.716-8.827 55.137l.359-1.393c-1.838 7.665-7.307 10.136-14.36 5.532-2.681-1.689-4.308-5.385-7.075-6.356-20.738-7.138-25.954-21.265-19.28-41.073l-.38.761z"/><path d="M217.755 134.029a102.4 102.4 0 0 1-13.092 12.268l-.232.169c-3.379 2.217-10.305 4.519-12.291 2.83-7.496-6.757-14.275-14-20.399-21.793l-.295-.38c-2.681-3.294-3.146-9.988-6.145-11.214-13.768-5.448-8.531-11.298-1.458-17.739 13.832-12.586 27.748-25.024 41.432-37.716 8.067-7.665 11.002-4.223 11.235 4.984.529 23.039 7.307 46.078.613 69.074l.634-.486zm-13.028-32.943c-3.612-4.139-5.3-7.665-7.686-8.827-5.913-2.323-24.2 10.601-24.517 16.957 0 1.457 1.689 4.287 2.534 4.287.486.021 1.056.021 1.646.021 6.293 0 12.396-.803 18.224-2.259l-.507.105c3.547-1.309 6.145-6.145 10.305-10.284zm-72.834 22.426c4.055-1.711 8.87-3.231 13.832-4.266l.529-.105c4.519-.529 12.67-.697 13.515 1.393 6.567 13.325 14.719 24.729 24.39 34.654l-.021-.021c.529.529-2.07 4.688-3.991 6.061-6.843 5.216-14.148 9.756-21.054 14.888-2.576 2.196-5.892 3.526-9.566 3.526s-7.011-1.33-9.587-3.547l.021.021c-5.279-4.181-11.191-8.278-17.38-12.016l-.761-.423c-7.665-3.844-9.461-6.969-2.365-13.261s17.126-14.275 13.05-27.326l-.612.423zM98.317 58.196c-3.907-4.836-6.926-11.298-11.973-14.149-10.917-6.145-7.686-12.227-.612-17.041 7.623-4.9 16.746-10.009 26.143-14.613l1.669-.739c8.067-4.308 11.762 1.14 14.064 7.054 3.591 9.144-1.014 18.647-10.601 25.172-1.922 1.225-2.767 3.991-4.076 6.145l.782-.697-4.519 4.519.612-.782-12.226 3.991.739 1.14zm73.149-28.255c0-17.886 6.673-22.426 20.357-17.126 3.78 1.393 7.054 3.21 10.009 5.448l-.105-.063c6.314 5.068 17.76 11.91 16.915 15.373-1.774 7.665-10.305 13.431-16.133 19.956-.782.929-2.534 2.07-2.999 1.837-9.545-5.743-17.633-11.34-25.362-17.38l.55.423c-2.767-1.922-2.936-7.349-3.252-8.447zM124.46 188.554h50.808l-.782-.613c-.824 2.449-1.689 6.968-2.681 6.968-14.592.465-29.29.465-43.882 0-.993 0-1.837-4.519-2.681-6.969l-.782.613z"/></svg>