<svg width="300" height="300" xmlns="http://www.w3.org/2000/svg" xml:space="preserve" fill-rule="evenodd" stroke-linejoin="round" stroke-miterlimit="2" clip-rule="evenodd" viewBox="0 0 22 25"><path fill-rule="nonzero" d="M17.479.101c0 .39-1.235.848-1.357.893-.188.07-.398 1.57-.871 1.57h-.149v.298c0 1.013-.356.989-.085 1.953.185.66 1.129 3.324-.382 2.783-1.664-.597-1.574-.852-1.868-2.613l-.805 1.338v.15h-.764v-.15l-.17-.298v-.149h-.424v.15c0 .28-.102.148-.616.148h-.149v-.233c0-.71-.894-.04-.894.382v.15h-.593c-.588 0-1.067-.65-1.36.28-.404 1.286-1.26.1-1.425.611-.437 1.351-.875.764-1.657.764h-.234v.297c0 .757-.31.834-.893.36-.575-.465-.415.532-1.17.532h-.148v-.233c0-.88-.546-.1-1.377-.353-.56-.17 1.594 3.4 5.244 1.268 5.545-3.237 9.121.679 7.216.679-.265 0-1.611-.992-3.905-.68-10.517 1.43-5.008 17.578 4.502 11.538 1.31-.832 2.258-2.338 1.87-.829-1.06 4.11 7.077 6.923 5.836.467-.26-1.355-4.138-1.208-3.141 1.19.14.338 2.075 1.153.743-.296-.65-.707 1.442-1.636 1.442.298 0 1.348-1.865 1.89-2.422.64-.138-.309-.41-.144-.679-1.108-.247-.883.48-2.38 1.738-2.38h.594v-.148c0-.112-.262-.319-.319-.319h-.149v-.594h.15c1.379 0 1.379-.247 1.379-.36v-.235h-.319c-1.851 0 .994-1.278 1.04-1.422.013-.042-2.163-.395-.721-1.041 1.46-.654-.401-.575-.7-1.146-.594-1.133 1.605-2.047.295-1.91-2.15.223-.236-1.346-.236-1.509v-.149h-.212c-.25 0-2.488 0-2.633-1.68-.042-.495 3.312-.787 3.312-1.787V7.07h-.381c-1.131 0-1.599.507-2.379-1.361-.75-1.8.213-2.236.213-2.535v-.155l.095.08c.48.411.402-1.978 3.048-.599.174.091 1.72 1.251-1.485 1.955-1.49.327 2.377 1.034 2.76-.702.58-2.639-1.125-2.57-2.586-3.517-.034.018-.826.491-1.066.311-.661-.496-.765-.679-.765-.446zm-7.341 11.376c0 .193 1.15-.054 2.718 1.508.226.225 1.613 1.605 1.656 3.614.016.696-.742 2.7-.996 2.889-.135.1-1.641 2.73-5.543 1.969-2.177-.426-5.34-4.175-2.7-7.943 1.588-2.267 4.863-2.277 4.863-2.04zm5.262.445c0 .06.528.46.595.68.026.085.054.057.578.944l.158.656c.287 1.339.34 1.34.14 2.715-.332.373-.301.38-.608.788-.058-.06-.19.053-.249-.006-.067-.068.03-.216-.036-.285l-.154-.095c.032-.156.138-.29.17-.446.05-.243.044-.247-.085-.382-.112-.116.213-.193-.367-1.99-.103-.386-.079-.388-.296-.714-.129-.315-.203-.267-.314-.588-.157-.455-.297-.412-.297-.893v-.445h.382c.312 0 .382.01.382.064z"/></svg>