<svg xmlns="http://www.w3.org/2000/svg" xml:space="preserve" fill-rule="evenodd" stroke-linejoin="round" stroke-miterlimit="2" clip-rule="evenodd" viewBox="0 0 300 300"><path fill-rule="nonzero" d="M61.706 17.261c4.849.287 10.511.43 16.245.43s11.372-.168 17.033-.478l-.789.025c1.027-.12 2.174-.168 3.368-.168 12.47 0 23.316 7.023 28.763 17.32l.096.191c5.136 7.262 10.655 13.664 16.698 19.47l.048.048c6.594 6.761 11.467 6.402 16.389-2.174 7.478-11.347 16.603-20.879 27.21-28.571l.311-.214c5.375-4.276 12.279-6.857 19.78-6.857 2.222 0 4.372.239 6.473.645l-.216-.048c2.604.071 5.686.12 8.791.12 10.464 0 20.831-.43 31.08-1.314l-1.338.096c12.661 0 25.441 1.385 38.007 2.771a8.82 8.82 0 0 1 5.638 5.136l.023.071c4.682 15.432 0 31.032 0 46.56 0 5.805-16.412 12.757-25.537 11.968-4.587-.239-8.886-1.123-12.877-2.604l.287.096c-3.536-1.553-7.692-2.484-12.04-2.484-3.775 0-7.382.669-10.726 1.911l.216-.071c-3.273 1.075-7.071 1.72-11.013 1.72-4.444 0-8.648-.789-12.589-2.222l.262.096c-1.959-.741-4.253-1.146-6.618-1.146-5.805 0-11.037 2.556-14.62 6.618l-.023.023c-8.695 6.498-8.695 11.276-1.051 19.757 11.276 13.259 22.814 22.623 42.785 15.6 8.695-3.202 21.715 3.989 31.247 1.146 11.467-3.368 20.927 2.245 31.343 1.84 1.648 0 5.303 4.61 4.945 5.208-4.778 7.883 0 15.097.502 22.623.12.693.191 1.481.191 2.317 0 6.809-4.706 12.493-11.037 14.071l-.096.023c-6.188 2.079-13.307 3.273-20.736 3.273-6.164-.598-13.521-6.857-16.58 1.481-1.385 3.727 4.419 11.181 8.695 15.695 8.695 9.532 17.344 18.204 26.637 27.305s16.842 21.238 10.416 36.24v2.079c-1.194 9.532-2.341 19.063-3.584 28.62l-31.939 2.174c-7.287 0-10.416-3.273-10.32-10.416v-32.513c0-4.682-.86-8.672-6.857-8.672s-8.695 3.13-8.695 9.198v30.267c0 10.057-4.18 12.757-13.02 12.398s-17.344 0-26.039 0c-7.287 0-10.487-3.273-10.32-10.487s0-15.886 0-23.77c.023-.645.023-1.433.023-2.197a96 96 0 0 0-.669-11.156l.048.43c0-1.553-3.034-4.085-4.085-3.823s-5.805 2.509-5.9 4.061c-.598 11.515-.955 23.077-.598 34.687 0 9.532-3.989 12.493-12.925 12.493-38.796 0-36.956 1.648-36.526-34.066v-15.097c0-5.04-3.487-3.918-6.521-4.515-4.324-.86-4.778.932-4.683 4.253v24.82c0 4.945-.621 9.698-1.84 14.262l.096-.382c-2.102 6.259-5.566 12.064-13.975 10.655a20 20 0 0 0-2.126-.096c-.764 0-1.481.048-2.222.12h.096c-33.588 0-29.073 3.13-29.432-28.356v-15.193c0-5.065-1.553-8.242-7.358-8.242s-8.074 2.174-8.074 7.549v32.418c0 8.051-3.034 11.706-11.371 11.872-42.093.43-37.936 1.051-38.198-34.688-.096-.932-.12-2.007-.12-3.13a36 36 0 0 1 8.242-22.957l-.048.071c9.102-10.678 15.097-23.937 28.118-31.486a28.2 28.2 0 0 0 7.573-9.891l.071-.168c1.911-3.225 3.296-6.666 4.945-10.057-3.487-1.146-7.644-2.031-11.897-2.58l-.334-.023c-6.761 0-13.712 1.481-20.401.86-8.695-.693-14.31-4.253-13.187-14.644.502-4.611-2.341-9.436-2.341-14.214 0-15.957 1.84-18.204 17.344-19.255 8.695-.502 18.131 0 27.258 0 1.672.168 3.584.263 5.543.263 6.33 0 12.423-.956 18.156-2.699l-.43.12c5.996-2.771 8.074-3.368 13.88.693a12.56 12.56 0 0 0 7.406 2.436c4.754 0 8.911-2.652 11.037-6.521l.023-.071c3.823-5.638 11.132-8.672 16.15-13.689 2.509-1.696 4.133-4.515 4.133-7.717a9.26 9.26 0 0 0-5.543-8.481l-.071-.023c-9.245-6.354-20.64-10.105-32.967-10.105-4.587 0-9.054.525-13.354 1.529l.382-.071c-5.638 1.792-12.136 2.795-18.873 2.795a65.7 65.7 0 0 1-19.35-2.914l.478.12c-2.914-.669-6.282-1.075-9.698-1.075-1.099 0-2.197.048-3.273.12h.143C2.438 75.676.526 73.956.001 57.998V38.505c0-17.344 6.689-22.648 23.794-21.333 12.829.956 26.039 1.481 38.701 2.174l-.789-2.079zm71.189 156.092v-1.051l48.448.598c2.317-.216 4.444-.573 6.521-1.123l-.287.071c-1.146-2.054-2.222-3.798-3.416-5.47l.12.168c-7.716-9.27-15.623-18.371-23.34-27.545s-10.846-9.198-19.279 0c-5.208 5.805-11.037 11.108-16.412 17.32s-8.695 10.583-13.617 15.959l21.261 1.075z"/></svg>