<?xml version="1.0" encoding="UTF-8" standalone="no"?>
<!DOCTYPE svg PUBLIC "-//W3C//DTD SVG 1.1//EN" "http://www.w3.org/Graphics/SVG/1.1/DTD/svg11.dtd">
<svg width="100%" height="100%" viewBox="0 0 22 25" version="1.1" xmlns="http://www.w3.org/2000/svg" xmlns:xlink="http://www.w3.org/1999/xlink" xml:space="preserve" xmlns:serif="http://www.serif.com/" style="fill-rule:evenodd;clip-rule:evenodd;stroke-linejoin:round;stroke-miterlimit:2;">
    <g transform="matrix(1,0,0,1,-5.33,-3.92)">
        <path d="M22.297,4C22.297,4.377 21.103,4.819 20.985,4.863C20.803,4.93 20.6,6.381 20.143,6.381L19.999,6.381L19.999,6.668C19.999,7.648 19.655,7.624 19.917,8.556C20.096,9.194 21.008,11.769 19.548,11.246C17.939,10.669 18.026,10.423 17.742,8.72C17.68,8.824 16.963,10.014 16.963,10.014L16.963,10.158L16.225,10.158L16.225,10.014L16.061,9.726L16.061,9.582L15.651,9.582L15.651,9.726C15.651,9.998 15.552,9.87 15.055,9.87L14.911,9.87L14.911,9.644C14.911,8.959 14.047,9.606 14.047,10.014L14.047,10.158L13.473,10.158C12.905,10.158 12.442,9.53 12.159,10.429C11.768,11.672 10.941,10.526 10.781,11.02C10.358,12.326 9.935,11.758 9.179,11.758L8.953,11.758L8.953,12.045C8.953,12.777 8.653,12.851 8.089,12.394C7.534,11.944 7.688,12.908 6.959,12.908L6.815,12.908L6.815,12.682C6.815,11.832 6.287,12.585 5.484,12.341C4.943,12.176 7.025,15.627 10.554,13.567C15.914,10.438 19.372,14.223 17.53,14.223C17.274,14.223 15.972,13.264 13.755,13.565C3.587,14.948 8.913,30.556 18.107,24.718C19.374,23.914 20.29,22.458 19.914,23.917C18.89,27.889 26.757,30.608 25.557,24.368C25.305,23.058 21.556,23.2 22.52,25.518C22.656,25.845 24.526,26.633 23.239,25.232C22.611,24.549 24.633,23.651 24.633,25.52C24.633,26.823 22.83,27.346 22.291,26.138C22.158,25.84 21.895,25.999 21.635,25.068C21.396,24.214 22.098,22.768 23.315,22.768L23.889,22.768L23.889,22.624C23.889,22.516 23.636,22.316 23.581,22.316L23.437,22.316L23.437,21.742L23.581,21.742C24.915,21.742 24.915,21.503 24.915,21.393L24.915,21.167L24.607,21.167C22.817,21.167 25.568,19.931 25.612,19.792C25.625,19.752 23.521,19.41 24.915,18.786C26.327,18.154 24.527,18.23 24.238,17.678C23.664,16.583 25.79,15.7 24.523,15.832C22.445,16.048 24.295,14.531 24.295,14.374L24.295,14.23L24.09,14.23C23.848,14.23 21.685,14.23 21.545,12.606C21.504,12.128 24.747,11.845 24.747,10.879L24.747,10.735L24.378,10.735C23.285,10.735 22.833,11.225 22.079,9.419C21.353,7.679 22.284,7.258 22.284,6.969L22.284,6.819L22.376,6.897C22.841,7.294 22.765,4.985 25.323,6.318C25.491,6.406 26.985,7.527 23.887,8.207C22.446,8.523 26.185,9.207 26.555,7.529C27.117,4.978 25.468,5.044 24.056,4.129C24.023,4.147 23.257,4.604 23.025,4.43C22.386,3.951 22.285,3.774 22.285,3.999L22.297,4ZM15.2,14.995C15.2,15.182 16.311,14.943 17.828,16.453C18.046,16.67 19.387,18.004 19.429,19.946C19.444,20.619 18.711,22.556 18.466,22.738C18.335,22.835 16.879,25.377 13.107,24.641C11.002,24.23 7.944,20.606 10.496,16.964C12.032,14.773 15.198,14.763 15.198,14.992L15.2,14.995ZM20.287,15.425C20.287,15.483 20.798,15.87 20.862,16.083C20.887,16.165 20.915,16.138 21.421,16.995C21.472,17.206 21.523,17.418 21.574,17.629C21.851,18.923 21.902,18.925 21.71,20.253C21.388,20.614 21.418,20.62 21.121,21.015C21.065,20.957 20.937,21.066 20.881,21.009C20.816,20.943 20.91,20.8 20.846,20.734L20.697,20.642C20.728,20.491 20.83,20.362 20.861,20.211C20.909,19.976 20.904,19.972 20.779,19.842C20.671,19.729 20.985,19.655 20.424,17.918C20.325,17.545 20.348,17.543 20.138,17.228C20.014,16.924 19.942,16.97 19.835,16.66C19.683,16.22 19.548,16.261 19.548,15.797L19.548,15.366L19.917,15.366C20.218,15.366 20.286,15.377 20.286,15.428L20.287,15.425Z" style="fill-rule:nonzero;"/>
    </g>
</svg>
