<svg xmlns="http://www.w3.org/2000/svg" width="300" height="300" viewBox="0 0 300 300"><title>factions-destruction-bonesplitterz</title><path d="M62.925 299.981c-.919-.919-1.866-1.809-2.737-2.766-1.294-1.416-2.541-2.897-3.853-4.406 4.069-4.444 7.997-9.309 12.506-13.575 13.116-12.375 26.438-24.534 39.741-36.713 1.041-.947 2.456-1.688 3.806-2.034 9.141-2.278 17.737-5.991 26.25-9.938 2.953-1.378 5.991-2.587 9.375-2.034.263.038.553.028.778.131 4.772 2.203 10.031 1.903 15.028 3.019 3.262.731 6.553 1.388 9.806 2.203.919.225 1.875.75 2.531 1.416a21563 21563 0 0 1 50.316 51.347 13 13 0 0 1 2.109 2.897c.6 1.125.028 2.109-1.228 1.997-2.278-.206-4.659-.338-6.778-1.087-10.603-3.722-20.944-8.288-32.006-10.584-7.594-1.575-15.225-2.897-22.819-4.434-3.844-.778-7.603-2.072-11.475-2.597-5.166-.694-10.238-.581-15.497.919-12.731 3.619-25.65 6.609-38.916 7.706-1.978.159-3.984.328-5.925.712-1.247.234-2.531.694-3.609 1.359-7.491 4.631-14.897 9.347-22.369 14.006-1.491.928-3.131 1.65-4.706 2.466-.103-.009-.206-.009-.319-.009zM228.6 155.578c-.3-3.159-.591-6.122-.881-9.075-.9-9.338-1.875-18.675-2.719-28.012-1.313-14.681-3.919-29.138-7.603-43.416-1.209-4.669-1.275-9.628-1.819-14.466-.169-1.453 0-3-.422-4.369-.534-1.706-1.416-3.319-2.344-4.856-.694-1.153-1.809-2.044-2.569-3.159-4.247-6.225-8.362-12.553-12.703-18.713a532 532 0 0 0-12.834-17.475c-1.95-2.569-4.603-4.575-5.991-7.622-.75-1.641-.647-2.438.984-3.937 1.088-.994 1.978-.272 2.766.366 3.028 2.494 5.962 5.1 9.037 7.556 1.359 1.106 2.831 2.259 4.444 2.85 3.103 1.144 5.813 2.822 8.353 4.903 4.209 3.459 8.681 6.609 12.694 10.284 6.413 5.878 12.591 12.009 18.778 18.122 3.656 3.609 7.266 7.266 10.678 11.109 3.394 3.825 6.75 7.763 9.647 11.972 1.284 1.866 1.547 4.509 2.044 6.844 1.35 6.403 2.587 12.825 3.853 19.247.581 2.869.919 5.822 1.753 8.616 1.584 5.297 3.291 10.584 5.269 15.75 1.406 3.647 3.684 6.966 5.006 10.631 3.028 8.381 4.913 16.997 5.859 25.941 1.341 12.656.984 25.35 1.772 37.997.319 5.072.797 10.134 1.012 15.225.122 3.131-.159 6.272-.253 9.413-.038 1.284-.778 1.903-1.997 1.95-.844.037-1.688-.066-2.522.037-1.078.131-2.4.066-3.159.656-2.803 2.213-5.784 1.453-8.672.666-4.275-1.172-8.494-2.569-12.694-4.022-4.594-1.603-9.188-3.225-13.65-5.166-2.203-.975-4.078-2.691-6.113-4.069-1.688-1.125-3.347-2.334-5.1-3.347-2.822-1.613-5.719-3.066-8.578-4.603-1.472-.787-2.044-1.884-1.688-3.619 1.388-6.713 3.019-13.397 3.919-20.194.722-5.362.656-10.856.647-16.284 0-3.319.919-4.416 4.284-3.938.338.028.694.075 1.491.187zM24.347 242.841c.3-6.534.384-13.069.966-19.566.797-8.859 1.903-17.719 3.019-26.541.722-5.719 1.641-11.409 2.522-17.1 1.153-7.444 1.931-14.991 3.609-22.322 3.394-14.737 7.238-29.372 10.997-44.016 4.247-16.584 9.019-33 15.028-49.069 4.35-11.672 9.938-22.725 15.534-33.806a92 92 0 0 1 2.625-4.837c.881-1.519 1.744-1.706 3.422-.863 1.978.994 2.203 1.65 1.716 3.384-.3 1.059-.6 2.4-.234 3.356 2.109 5.691 1.537 11.541.928 17.278-1.744 16.847-1.753 33.713-.928 50.588.131 2.728-.647 5.194-2.231 7.369-1.294 1.781-1.603 3.656-1.153 5.794a368 368 0 0 1 2.456 12.787c.253 1.425.3 2.934.141 4.397-.619 5.794.422 11.513.787 17.259.169 2.559.272 5.128.422 7.688.394 6.862.816 13.706 1.162 20.559.525 10.2 1.669 20.381 1.322 30.628-.103 3.066-1.163 5.259-3.787 6.703-3.216 1.772-6.338 3.759-9.703 5.166-10.425 4.35-20.119 10.106-30.028 15.431-5.353 2.869-10.631 5.888-15.947 8.841-.684.384-1.378.722-2.072 1.088-.206-.075-.394-.131-.581-.197zM144.731 184.95c2.991.469 5.887.825 8.737 1.406 2.588.525 2.494.647 2.934 3.197.253 1.425.816 2.794 1.256 4.247 1.669-.422 1.622-1.753 1.734-2.888.356-3.75 3.188-5.597 6.806-4.35 1.509.516 2.522 1.519 2.831 3.094.253 1.256 1.031 1.706 2.175 2.1 7.425 2.531 14.813 5.138 22.228 7.734.384.131.75.338 1.097.825-1.256.141-2.531.225-3.759.459-3.394.628-6.806 1.209-10.153 2.072-1.669.431-2.934.253-4.153-.9-.862-.825-1.753-1.509-3.037-.6-.291.206-.984-.038-1.444-.206-4.959-1.978-9.909-3.984-14.859-5.981-.384-.159-.759-.291-1.378-.159 7.509 7.359 15.009 14.728 22.528 22.078-.038.103-.075.206-.122.319-1.116-.3-2.203-.647-3.328-.881-3.319-.694-6.666-1.284-9.966-2.044-1.425-.328-2.963-.75-4.144-1.556-2.822-1.912-5.419-4.144-8.194-6.113-.666-.469-1.716-.666-2.541-.581-1.341.141-1.884-.647-2.494-1.519-.591-.862-.731-1.734-.009-2.597.759-.928 1.584-1.819 2.259-2.822.272-.403.225-1.031.319-1.556-.188-.075-.366-.141-.534-.225-.338.394-.75.759-1.013 1.209-.919 1.547-2.231 2.297-4.05 2.147-.497-.038-1.125-.066-1.509.197-1.603 1.059-3.263.975-4.978.525-1.219-.319-2.409-.75-3.628-.984-1.997-.394-3.253-1.491-3.919-3.422-.563-1.622-.984-1.706-2.588-.881-2.231 1.153-4.416 2.428-6.712 3.422-4.406 1.912-8.878 3.675-13.322 5.503-1.547.647-3.131 1.209-4.612 1.969-2.625 1.35-5.353 1.744-8.231 1.219-1.913-.338-2.494-1.116-2.128-3.056 3.019-16.125 8.391-31.434 15.975-45.975 1.116-2.128 2.072-4.35 2.934-6.581 4.641-11.897 9.234-23.803 13.838-35.709.487-1.256 1.191-2.175 2.466-2.869 1.022-.563 1.706-1.8 2.494-2.766 1.05-1.322 2.128-1.688 3.384-1.013 1.294.713 1.181 1.8.825 3a8 8 0 0 0-.3 2.166c.075 10.894.075 21.806.3 32.7.131 6.487.6 12.984.994 19.472.122 1.95-.263 3.684-1.219 5.4-1.406 2.522-2.653 5.109-3.853 7.725-1.163 2.541-.994 2.822 1.378 4.238.759.459 1.444 1.05 2.175 1.903-2.588.816-4.978 1.65-5.756 4.416-.169.6-.028 1.294-.028 1.941.141.066.3.131.45.188.403-.403.909-.759 1.191-1.228 1.472-2.466 3.422-3.647 6.122-3 2.278.534 3.722-.206 4.978-1.941.581-.797 1.256-1.538 1.941-2.372-.328-.422-.787-.75-.844-1.144-.122-.75-.3-1.753.075-2.259 3.319-4.331 10.95-4.397 14.344-.206.234.291.459.591.6.919.459 1.087.094 1.537-1.097 1.406-2.559-.272-5.1-.553-7.659-.797-1.669-.159-2.897.534-3.787 1.997zm32.85 10.069c-.038-.206-.094-.422-.131-.628-.731-.122-1.481-.394-2.203-.328-3.328.319-6.647.684-9.966 1.144-.497.066-.9.75-1.35 1.144.497.394 1.059 1.172 1.472 1.097 3.544-.647 7.266-.122 10.688-1.538.525-.206.994-.591 1.491-.891zm-24.169 9.965c0 .206.009.422.009.628 4.809 1.284 9.609 2.569 14.428 3.872.075-.122.159-.253.253-.366-.862-.525-1.669-1.275-2.597-1.547-3.356-1.012-6.75-1.903-10.153-2.756-.6-.159-1.294.103-1.941.169z"/><path d="M163.716 160.65c.797-11.344-.581-22.622-.928-33.919-.075-2.559.094-5.128.094-7.688 0-1.734-.056-3.459-.197-5.175-.356-4.05-.844-8.063-1.603-12.094-.787-4.237-2.438-7.819-4.744-11.287-.497-.75-.853-2.259-.45-2.803.75-1.013 2.062-1.65 3.225-2.278.262-.141 1.022.272 1.313.647 1.931 2.466 3.778 4.997 5.653 7.5.469.628.787 1.425 1.378 1.884 2.822 2.147 4.669 5.091 6.544 7.969 4.069 6.225 8.475 12.272 11.934 18.816 2.85 5.362 4.509 11.344 6.741 17.044 2.081 5.353 4.266 10.678 6.309 16.05 2.466 6.45 4.912 12.9 7.247 19.397 1.491 4.181 2.831 8.419 4.069 12.675.6 2.1.816 4.313 1.228 6.478.225 1.153-.253 1.95-1.219 2.466-1.903.994-3.759 2.1-5.747 2.85-.928.356-2.259.3-3.169-.094-9.441-4.003-18.938-7.922-28.163-12.338-2.241-1.078-3.947-2.831-6.769-2.428-1.359.197-2.241-1.209-2.4-2.503-.403-3.422-.853-6.872-.9-10.303-.038-3.628.366-7.247.562-10.856zM262.022 288.909c-.947-.694-1.913-1.219-2.653-1.969-6.187-6.347-12.394-12.675-18.478-19.134-9.975-10.556-19.791-21.281-29.859-31.744-3.328-3.45-7.247-6.337-10.95-9.431-6.113-5.128-12.262-10.191-18.356-15.319-1.519-1.275-1.575-2.363-.262-2.916.366-.159.919-.131 1.284.038 7.969 3.609 15.891 7.331 23.194 12.197.956.647 1.65 1.716 2.344 2.691.928 1.284 1.753 2.428 3.619 2.634 1.378.141 2.784.947 4.003 1.716 8.887 5.691 18.244 10.491 27.834 14.841 3.581 1.622 6.778 4.116 10.125 6.253a166 166 0 0 1 5.1 3.384c3.45 2.372 6.9 4.762 10.331 7.162.797.553.975 1.191.553 2.166-.984 2.241-1.688 4.603-3.591 6.356-1.097 1.022-.6 2.231.225 3.234.787.956 1.538 1.866.694 3.216-.206.328-.028.919.009 1.388.038.422.225.853.159 1.247-.628 3.741-1.172 7.528-3.553 10.678-.366.469-1.022.759-1.781 1.294zM72.956 268.2c.066-.487.075-.975.188-1.444.656-2.803 1.359-5.597 2.006-8.409.169-.75.122-1.556.169-2.334-.188-.056-.356-.122-.534-.169-.3.422-.731.797-.862 1.275-1.153 4.078-2.203 8.166-3.384 12.234-.319 1.078-.731 2.241-1.472 3.028-2.109 2.259-4.397 4.35-6.638 6.478-.337.328-.844.516-1.387.825-.103-4.181 1.416-7.95 1.519-11.841a9 9 0 0 0-.694-.141c-.234.591-.591 1.153-.694 1.772-.591 3.412-1.172 6.816-1.669 10.237-.234 1.622-.797 2.991-2.044 4.106-1.538 1.378-2.972 2.85-4.472 4.284-.141-.066-.291-.141-.431-.206.197-1.678.431-3.356.6-5.034s.291-3.356.422-5.025c-.206-.056-.403-.103-.619-.159-.337.534-.853 1.031-.984 1.612-.516 2.278-1.153 4.594-1.294 6.909-.197 3.15-1.359 5.784-3.384 8.1-1.819 2.081-3.872 2.494-5.681 1.228-1.95-1.341-2.691-4.378-1.359-6.478.797-1.256 1.931-2.334 2.991-3.413 4.509-4.537 9.281-8.841 13.547-13.594 10.106-11.287 21.534-21.272 31.781-32.4 3.413-3.694 6.816-7.406 10.284-11.063 3.056-3.234 6.206-6.384 9.281-9.609.581-.6.994-1.341 1.491-2.016l-.3-.356c-2.503.656-5.091 1.116-7.491 2.034-2.363.891-4.547 2.259-7.247 3.628.6-2.784 1.8-5.034 3.084-7.209 1.416-2.409 6.638-4.631 11.775-5.156-.3 1.256-2.006 2.494-.103 3.872.881-1.172 1.622-2.4 2.606-3.384 1.163-1.172 2.4-2.522 3.881-3.066 4.959-1.819 9.797-3.741 13.584-7.837 2.803 3.056 6.244 4.303 10.387 4.613-2.822 2.503-5.625 5.025-8.578 7.641-1.275-3.187-1.519-6.506-3.3-9.234-.169.028-.337.056-.516.075.056.881 0 1.781.187 2.625.459 2.1 1.153 4.144 1.491 6.253.141.853-.066 2.081-.619 2.691-5.063 5.456-10.088 10.978-15.422 16.153-12.009 11.644-24.206 23.1-36.309 34.659-1.153 1.097-2.175 2.325-3.253 3.497-.206-.103-.366-.188-.534-.262zm42.61-55.809c-.422.797-.713 1.181-.825 1.603-.825 3.197.563 5.916 2.1 8.522.206.366 1.181.291 1.8.422.103-.553.403-1.153.272-1.641a128 128 0 0 0-2.147-6.675c-.234-.666-.666-1.256-1.191-2.231zm-23.925 36.703c.272 0 .553 0 .825.009 1.05-4.369 2.1-8.747 2.428-13.294-.563.356-.975.778-1.087 1.256a380 380 0 0 0-2.4 10.416c-.103.497.141 1.078.234 1.613m10.893-10.528c1.209-1.556 2.531-11.025 1.809-12.469-1.228 1.35-2.691 10.931-1.809 12.469m-18.853 10.293c-1.153 3.028-1.641 6.122-1.163 9.319 1.219-3.019 1.706-6.113 1.163-9.319"/><path d="M90.103 231.919c-2.7 2.372-5.259 4.8-7.997 6.984-6.647 5.325-12.834 11.147-18.319 17.634-4.931 5.831-10.631 10.828-16.153 16.059-4.678 4.434-9.244 8.991-13.791 13.556-.563.563-.778 1.491-1.116 2.269-.197.422-.206.994-.516 1.284-1.941 1.809-3.938 3.562-5.663 5.1.619-6.787-.122-14.241 2.372-21.356 1.022-2.916.966-5.728-.984-8.362-.863-1.153.497-3.019 2.269-3.497 1.088-.291 2.241-.666 3.122-1.322 10.266-7.659 21.281-14.137 32.391-20.466a173 173 0 0 1 18.713-9.244c2.297-.975 3.684-.666 5.681 1.359zM249.206 232.931c2.409-.3 4.809-.628 7.228-.9 4.013-.459 8.025-.825 12.028-1.359.9-.122 1.744-.816 2.606-1.228-.066-.225-.131-.45-.188-.684-.731-.066-1.491-.272-2.203-.197-7.069.862-14.137 1.809-21.216 2.625-1.247.141-2.634.038-3.816-.366-2.859-.994-5.653-2.231-8.456-3.394-.459-.188-.863-.487-1.275-1.116 3.431-.797 6.872-1.65 10.322-2.4 2.503-.553 5.044-.9 7.566-1.444 2.269-.487 4.5-.403 6.647.45 7.688 3.038 15.403 6.019 23.016 9.244 4.022 1.706 4.641 6.666 1.519 9.731-2.391 2.344-4.941 3.131-8.1 1.538-1.884-.956-3.919-1.622-6.206-2.541 3.938-1.772 8.447-.525 11.644-3.281-.038-.225-.075-.45-.131-.666-.656-.037-1.322-.206-1.95-.122-3.562.591-7.106 1.388-10.688 1.819-2.034.253-4.275.366-6.188-.234-3.844-1.191-7.509-2.897-11.25-4.406-.328-.131-.619-.366-.928-.562.028-.141.028-.319.028-.488zM37.969 240.891c-1.275 3.975-3.291 7.237-4.247 10.866.225.131.431.262.656.384.45-.469 1.041-.881 1.294-1.425 1.378-2.869 2.756-5.756 3.984-8.691.778-1.838 1.875-3.197 3.722-4.022 6.178-2.719 12.309-5.484 18.478-8.222 1.219-.534 2.456-1.05 4.134-1.772-.356.816-.487 1.219-.694 1.575-.891 1.603-1.809 3.188-2.7 4.772-.6 1.078-.825 2.072.778 2.728-.337.253-.525.403-.722.516-11.316 6.15-22.603 12.309-33.947 18.412-2.438 1.313-4.997 2.409-7.575 3.413-.797.319-1.978.197-2.794-.159-1.022-.45-1.912-1.275-2.738-2.072-1.341-1.294-.103-4.313 2.072-5.372a142 142 0 0 0 6.834-3.516c2.259-1.228 4.416-2.597 6.666-3.844 2.166-1.172 4.35-2.259 6.816-3.553zM199.622 211.331c3.722-.75 7.463-1.481 11.184-2.231.3-.066.656-.009.928-.131 3.891-1.669 7.463-.497 11.194.9 7.181 2.719 14.512 5.072 21.75 7.631 2.166.759 4.247 1.734 6.581 2.691-.366.225-.516.366-.666.394-6.375 1.406-12.75 2.831-19.144 4.134-.994.197-2.203-.056-3.159-.459-6.544-2.766-13.05-5.653-19.566-8.475-3.019-1.294-6.047-2.531-9.075-3.806-.009-.206-.028-.431-.038-.656zM224.353 273.459c.891.197 1.809.328 2.691.6 4.247 1.322 8.475 2.719 12.722 4.003 3.384 1.022 4.969 3.984 7.078 6.572-2.794-.6-5.569-1.219-8.578-1.875.45 1.678 1.519 2.306 2.691 2.728 1.912.694 3.909 1.209 5.813 1.931 1.847.713 3.694 1.472 5.428 2.428 1.931 1.078 3.225 2.756 3.778 4.978.338 1.378.131 2.503-1.013 3.356-1.172.891-2.494 1.575-3.909.694-2.391-1.491-4.931-2.869-6.975-4.762-6.544-6.028-13.397-11.747-18.806-18.919-.366-.488-.731-.947-1.097-1.425.056-.094.122-.197.188-.3zM81.572 220.547c4.641-1.969 9.272-3.938 14.1-5.981-1.219 2.887-2.297 5.587-3.516 8.213-.272.591-.984 1.181-1.613 1.378-8.944 2.803-16.969 7.594-25.266 11.775-.187.094-.384.159-.947.394.534-1.191.928-2.1 1.359-3 3.319-7.013 3.319-7.041 10.294-10.359 1.838-.881 3.741-1.622 5.597-2.428-.825 1.913-1.65 3.816-2.475 5.728.159.122.319.225.469.338.366-.272.825-.469 1.078-.825.563-.816.994-1.716 1.509-2.569.666-1.116.431-1.969-.591-2.662zM195.478 244.978c3.263 1.022 6.544 2.062 9.806 3.084 9.731 3.066 9.713 3.066 16.847 10.303 1.547 1.556 3.131 3.094 4.697 4.641.338.338.656.722 1.247 1.378-.694-.094-.994-.075-1.256-.169-5.166-1.688-10.388-3.253-15.459-5.166-2.138-.816-4.209-2.137-5.925-3.675-3.281-2.925-6.281-6.15-9.403-9.253-.272-.272-.469-.6-.713-.9.038-.075.094-.159.159-.234zM182.587 230.503c6.028 2.278 11.878 4.481 17.7 6.741.666.262 1.284.731 1.809 1.219 2.963 2.794 5.897 5.625 9.113 8.709-3.778-1.144-7.181-2.278-10.65-3.187-2.344-.6-4.8-.844-7.181-1.322-.619-.131-1.275-.45-1.734-.881-3.488-3.225-6.637-6.741-9.056-11.278zM182.653 204.197c2.362-.356 4.706-.759 7.078-1.059 3.103-.403 6.225-.75 9.347-1.088.403-.056.862-.103 1.228.009 3.694 1.256 7.378 2.541 11.541 3.984-.787.253-1.088.356-1.406.431-4.566 1.05-9.122 2.128-13.716 3.122-.928.197-2.044.356-2.888.028-3.459-1.313-6.862-2.822-10.266-4.275-.356-.159-.647-.487-.956-.731.009-.131.009-.272.028-.422zM166.406 216.694c10.847 1.838 20.072 6.338 27.291 14.775-.562-.169-1.116-.338-1.678-.497-4.172-1.181-8.353-2.306-12.506-3.553-1.181-.356-2.4-.891-3.319-1.678-3.225-2.756-6.347-5.653-9.497-8.494-.094-.103-.131-.272-.291-.553M212.072 261.197c1.978.628 3.759 1.181 5.55 1.744 3.15.994 6.291 1.941 9.412 3 1.172.394 2.428.863 3.347 1.65 2.334 2.006 4.5 4.2 7.003 6.572-.647-.103-.956-.131-1.247-.206-3.122-.891-6.216-1.866-9.347-2.672-1.144-.3-2.372-.206-3.553-.403-.825-.131-1.875-.197-2.4-.722-2.925-2.831-5.7-5.813-8.756-8.953z"/></svg>