<svg xmlns="http://www.w3.org/2000/svg" xml:space="preserve" fill-rule="evenodd" stroke-linejoin="round" stroke-miterlimit="2" clip-rule="evenodd" viewBox="0 0 496 248"><path fill-rule="nonzero" d="M133.379 1.184c-.65.65-4.911 1.376-9.467 1.612-10.806.558-19.534 1.369-46.684 4.333-12.32 1.346-34.252 2.822-48.739 3.278-26.689.843-31.04 1.842-27.355 6.281 3.011 3.627 20.809 12.106 25.55 12.171 2.279.031 5.944 1.085 8.144 2.344 2.2 1.257 6.654 2.311 9.897 2.344 3.242.031 7.922.883 10.4 1.895 2.477 1.012 8.103 1.993 12.503 2.179 4.4.188 13.4 1.231 20.001 2.319s18.48 1.653 26.4 1.255c9.855-.495 15.699-.075 18.514 1.335 5.373 2.689 22.286 21.443 22.286 24.711 0 1.393 2.52 4.977 5.6 7.962 3.081 2.986 5.6 6.423 5.6 7.641 0 1.215 2.863 5.131 6.362 8.701l6.362 6.49-.863 12.185c-1.403 19.779-3.486 22.889-15.059 22.488-5.528-.192-31.042 4.593-42.4 7.95-50.499 14.927-78.969 33.746-91.433 60.441-7.718 16.531-6.75 19.798 3.462 11.682 3.306-2.627 6.7-4.777 7.544-4.777s3.45-1.366 5.794-3.034 7.231-3.835 10.861-4.811c3.63-.978 7.492-2.853 8.581-4.166 1.091-1.315 3.917-2.389 6.281-2.389s5.696-1.057 7.404-2.349c1.707-1.291 4.186-2.37 5.505-2.394 1.321-.026 5.28-1.423 8.8-3.106 8.069-3.858 21.551-6.59 39.999-8.106 7.922-.651 16.915-2.007 19.99-3.014 21.211-6.947 33.86 2.24 29.77 21.623-.767 3.633.123 5.82 4.418 10.877l5.377 6.329 6.503-2.145c7.88-2.601 11-1.61 13.364 4.241 9.68 23.966 11.064 26.598 12.982 24.68 2.758-2.758 3.944-2.249 5.052 2.165 1.203 4.791 5.033 5.284 6.207.801 1.076-4.115 3.831-4.115 5.137 0 1.185 3.736 4 4.299 4 .8 0-3.159 3.035-3.089 4.258.099.798 2.078 1.7 1.789 5.354-1.712l4.396-4.211 1.943 5.311c1.729 4.724 2.077 4.959 3.155 2.113.699-1.844 3.177-3.538 5.853-4 4.33-.747 5.031-1.977 10.491-18.401l5.851-17.599h7.002c12.457 0 22.255-9.447 19.123-18.435-3.633-10.421 10.938-16.723 28.353-12.259 5.84 1.496 14.166 2.714 18.505 2.707s10.098.644 12.8 1.448c9.212 2.741 19.305 5.204 24.914 6.08 3.08.481 7.019 1.863 8.757 3.067 1.735 1.206 4.284 2.192 5.661 2.192s5.329 1.44 8.781 3.2 7.527 3.2 9.055 3.2 6.163 1.8 10.3 4 8.384 4 9.436 4 3.217 1.44 4.81 3.2 3.571 3.2 4.396 3.2 3.357 1.461 5.626 3.247c5.961 4.688 7.206 1.877 3.571-8.065-3.202-8.76-12.579-23.972-14.779-23.978-.654-.002-3.174-2.232-5.601-4.957-3.897-4.377-23.381-19.046-25.296-19.046-.402 0-4.507-1.87-9.124-4.156-11.101-5.499-24.233-9.369-43.591-12.849-2.64-.475-7.321-2.016-10.4-3.425-6.138-2.808-20.481-5.493-27.944-5.232-11.466.402-13.081-1.737-14.216-18.833-.938-14.088-.734-15.869 2.224-19.504 1.789-2.199 4.487-6.067 5.995-8.594 1.507-2.525 5.44-7.141 8.741-10.256 3.3-3.117 6-6.954 6-8.531s4.499-7.546 10-13.265l10-10.397 27.091-1.777c14.899-.98 28.498-2.533 30.219-3.453s5.577-1.278 8.567-.791c3.008.487 8.362-.15 11.981-1.427 3.599-1.269 9.154-2.334 12.343-2.365s7.599-1.087 9.798-2.344c2.2-1.258 5.744-2.313 7.873-2.344 4.586-.067 22.976-8.743 25.836-12.188 3.685-4.439-.764-5.462-27.389-6.293-14.476-.453-36.399-1.918-48.719-3.257-12.322-1.341-26-2.76-30.401-3.153s-11.24-1.061-15.2-1.481-13.125-1.132-20.367-1.58L338.894.097l-4.433 5.857c-2.438 3.222-7.498 9.143-11.243 13.156-10.729 11.497-12.24 13.251-18.031 20.897-14.534 19.197-26.949 27.613-31.019 21.028-.839-1.358-14.183-4.332-24.905-5.55-5.804-.658-24.885 2.615-32.375 5.556-5.733 2.25-13.508-2.419-19.689-11.828-12.429-18.914-12.888-19.477-29.881-36.719L155.009.007h-10.225c-5.625 0-10.757.531-11.407 1.181zm159.066 150.284c10.032 5.925 10.836 18.95 1.468 23.793-18.142 9.382-40.93-8.28-25.161-19.501 10.92-7.769 16.19-8.724 23.693-4.293zm-76.576 2.919c4.707 2.191 9.509 3.992 10.673 4 7.206.054 8.291 7.764 1.979 14.075-9.343 9.344-27.746 8.728-30.453-1.018-4.756-17.12 2.575-24.144 17.802-17.056zm37.307 23.713c2.877 4.392 7.209 18.103 7.234 22.897.017 3.185-.748 3.382-12.382 3.2l-12.4-.194.211-4.8c.9-20.464 10.278-31.878 17.338-21.103z"/></svg>