<svg xmlns="http://www.w3.org/2000/svg" viewBox="0 0 300 300"><path d="M160.481 300h-.572c-4.706-1.031-5.344-4.425-5.391-8.569-.037-3.188-.853-6.375-1.359-9.563-.441-2.831-2.278-4.866-4.538-4.519-2.559.394-2.719 2.625-3.075 4.772-.572 3.441-1.153 6.938-2.306 10.209-1.584 4.481-2.325 4.716-7.106 4.584-1.041-.028-2.1.038-3.141-.028-3.478-.197-5.897-2.269-6.263-5.747-.431-3.994-1.641-7.584-4.481-10.491-.684-.703-1.584-1.2-2.381-1.791-.544 1.031-1.434 2.006-1.556 3.084-.234 1.959.347 4.069-.113 5.953-.384 1.556-1.519 3.797-2.737 4.106-1.753.441-4.153.131-5.138-2.419-1.013-2.644-2.194-5.231-3.478-7.762-.647-1.275-1.481-2.897-2.634-3.338-.722-.281-2.109 1.444-3.337 2.006-1.434.666-2.981 1.284-4.509 1.35-.469.009-1.35-1.875-1.434-2.953-.291-3.497.431-7.247-.591-10.463-1.678-5.316-1.388-10.444-.666-15.741.628-4.594.469-9.047-2.128-13.2-.797-1.284-1.087-3.084-1.05-4.631.075-2.944-1.116-5.072-3.206-6.947-1.763-1.584-3.478-3.244-5.016-5.053-2.869-3.375-4.594-3.544-8.025-.488-1.706 1.519-3.244 3.234-5.063 4.584-3.347 2.466-6.581 4.162-11.363.525-2.128-1.622-3.825-3.787-5.747-5.672-3.112-3.038-6.506-5.831-9.337-9.103-5.475-6.309-7.088-14.119-7.659-22.191-.413-5.869-.675-11.766-1.238-17.625-.188-1.912-.666-4.069-1.753-5.587-3.684-5.119-3.637-11.888 1.087-16.191 4.988-4.537 6.291-10.369 7.106-16.537.112-.825-.009-1.706-.169-2.541-1.669-8.541-3.919-17.016-4.903-25.641-.881-7.791-.412-15.769 1.884-23.409 1.669-5.512 3.6-10.959 5.512-16.397 1.313-3.75 2.362-7.669 4.266-11.1 2.859-5.194 6.253-10.144 9.628-15.047 2.737-3.956 5.878-7.622 8.709-11.531 4.294-5.934 9.919-10.294 16.622-12.872 7.847-3.019 15.862-5.691 23.981-7.847s16.463-3.497 24.684-5.222c1.847-.394 3.628-1.069 5.475-1.434 3.122-.609 6.3-1.622 9.413-1.528 13.078.366 26.166.909 39.216 1.753 3.713.244 7.537 1.275 10.969 2.756 6.666 2.897 12.994 6.572 19.622 9.544 7.669 3.441 15.15 7.191 20.541 13.8 3.684 4.509 7.228 9.328 9.778 14.522 2.306 4.697 3.178 10.097 4.697 15.188.488 1.631.956 3.281 1.547 4.875 2.953 7.978 6.806 15.759 8.719 23.981 2.662 11.419 4.031 23.213 2.147 34.978-1.313 8.222.084 16.5-.834 24.675-1.2 10.734 2.006 20.672 4.716 30.741.272.994.675 2.062 1.331 2.803 2.906 3.244 3.197 6.9 2.081 10.894-.356 1.275-.384 2.634-.713 3.919-1.472 5.7-4.191 10.369-10.359 12.075-.994.281-2.119.572-2.859 1.228-4.734 4.191-9.375 8.494-14.053 12.75-1.753 1.594-3.441 3.281-5.344 4.669-2.578 1.884-6.028 1.35-9.206-1.153-4.219-3.309-7.772-2.109-9.534 2.897-1.809 5.175-4.266 10.134-5.953 15.328-2.1 6.459-4.913 12.769-4.744 19.819.094 4.266-.038 8.541-.244 12.816-.122 2.578-3.872 6.909-6.262 7.088-2.897.225-3.113-2.512-4.078-4.35-.131-.253-.225-.609-.431-.722-1.247-.6-2.513-1.444-3.816-1.547-.431-.038-1.228 1.847-1.472 2.944-.281 1.275-.272 2.663-.169 3.975.328 4.716-1.884 8.334-5.381 11.016-1.088.844-3.384.45-4.997.066-.441-.113-.638-2.231-.553-3.403.309-3.759 1.041-7.5 1.144-11.259.075-2.784-1.781-4.322-4.341-4.003-2.203.272-2.241 2.194-2.438 3.9-.159 1.313-.197 2.7-.647 3.919-1.688 4.5-3.281 9.084-5.466 13.331-.806 1.584-3.122 2.447-4.856 3.478-.75.45-1.781.488-2.681.712zM110.456 88.284c-.984 1.322-1.481 2.241-2.203 2.953-4.041 3.975-8.213 7.819-12.178 11.85-2.644 2.7-6.075 4.875-6.15 9.403-.131 7.978-.647 15.956-.703 23.934-.028 4.584 2.484 6.534 7.472 6.534 2.662 0 5.334-.244 7.969.037 7.05.759 14.053 2.306 21.103 2.512 12.131.356 24.3.009 36.45-.206 10.519-.197 21.019-.666 31.537-.928 3.984-.094 7.978.094 11.963.028 3.197-.047 4.35-1.275 4.481-4.472.122-2.662.253-5.306.309-7.969.122-5.869.291-11.728.197-17.597-.028-1.247-.947-2.663-1.809-3.675-4.913-5.756-9.928-11.447-14.925-17.137-1.425-1.622-2.906-3.178-4.988-5.438 2.034-.834 3.544-1.903 5.109-2.025 3.975-.309 7.969-.309 11.953-.206 2.503.066 3.919-1.087 4.031-3.384.225-4.8.347-9.647.113-14.447-.122-2.484-1.659-3.862-4.613-3.797-9.403.159-18.797.066-28.2-.112-1.078-.028-2.55-.919-3.075-1.837-.403-.712.066-2.362.703-3.15 2.081-2.578 4.378-4.987 6.675-7.369 2.662-2.756 5.691-4.434 9.806-4.256 5.109.244 10.256.066 15.356-.328 1.209-.094 3.216-1.65 3.309-2.7.441-4.425.394-8.897.366-13.359-.009-2.606-1.463-3.975-4.116-4.041-9.684-.291-19.369-.628-29.044-.881-.797-.028-1.791.234-2.362.75a285 285 0 0 0-9.6 8.812c-4.219 4.069-8.269 8.306-12.534 12.328-2.025 1.903-4.519 1.65-6.516-.131-2.1-1.875-4.35-3.6-6.375-5.559-4.322-4.191-9.047-8.137-12.647-12.891-2.269-2.991-4.659-3.984-7.856-3.881-8.344.281-16.678.806-25.013 1.116-2.766.094-4.819 1.2-5.053 3.956-.384 4.781-.638 9.619-.253 14.391.113 1.425 2.419 3.637 3.919 3.816 4.866.563 9.844.609 14.756.366 4.453-.225 8.147.469 10.922 4.397 1.387 1.969 3.337 3.591 5.175 5.194 2.222 1.941 2.259 3.441-.506 4.594-2.4 1.003-5.1 1.941-7.631 1.875-7.097-.159-14.203-.703-21.262-1.406-2.822-.281-4.341.825-4.753 3.197-.506 2.869-.469 5.822-.609 8.747-.281 5.784 4.219 11.578 10.612 10.997 2.259-.206 4.575-.122 6.825.084 1.2.131 2.344.787 3.9 1.341zM94.978 199.181c5.184-.328 9.169-.787 13.134-.759 4.237.028 7.725-1.762 11.119-3.863 2.559-1.584 5.109-3.244 7.406-5.194 5.662-4.791 5.494-10.838-.666-15.234-3.028-2.156-6.534-3.778-10.003-5.156-8.166-3.263-16.237-7.013-24.703-9.094-7.388-1.828-15.131-2.128-22.209-5.531-2.287-1.106-5.391.525-6.787 2.747-.853 1.359-1.753 2.719-2.822 3.9-2.541 2.766-3.028 5.906-1.584 9.216 2.916 6.675 6.338 13.031 11.4 18.441 4.791 5.137 10.181 9.047 17.269 10.013 3.178.441 6.422.403 8.447.516zm101.306-.515c1.603-.159 3.234-.169 4.791-.516 6.188-1.369 12.441-2.559 18.506-4.388 3.553-1.069 7.144-2.719 10.059-4.95 2.681-2.062 4.734-5.1 6.628-7.988 2.306-3.506 6.356-6.094 6.544-10.734.131-3.356-.131-6.778-.675-10.097-.825-5.025-2.438-6.009-7.453-5.156-6.45 1.088-12.909 2.119-19.313 3.356-7.528 1.462-15.037 3-22.5 4.734-2.344.544-4.481 2.466-6.778 2.606-5.034.309-9.338 1.659-13.228 4.997-2.466 2.119-2.981 4.5-.984 7.125 1.088 1.434 1.688 3.262 2.419 4.95.403.947.413 2.1.947 2.962 4.791 7.884 11.934 12.019 21.028 13.097zm-41.231 49.003c3.816-.928 8.419-1.716 12.769-3.225 3.469-1.2 3.994-3.459 1.969-6.375-2.203-3.178-3.787-6.516-4.556-10.303-.291-1.444-1.088-2.822-1.791-4.144-2.419-4.594-4.988-9.028-4.8-14.588.113-3.384-.6-6.806-.994-10.2-.206-1.847-.891-3.178-3.141-3.338-2.203-.169-3.75.356-4.275 2.662-.638 2.766-1.341 5.531-1.847 8.325-.825 4.509-2.512 8.541-4.781 12.609-3.197 5.737-5.438 12.056-7.65 18.281-1.003 2.831.469 5.344 3.534 5.625 4.153.394 7.369 2.794 11.128 3.881 1.172.319 2.4.412 4.434.769z"/><path d="M177.478 113.391c-2.644.431-4.556 1.003-6.469.994-6.459-.028-12.909-.356-19.369-.394-7.303-.047-14.606.084-21.9.122-1.237.009-2.503.131-3.684-.094-1.106-.225-3-.806-3.028-1.303-.075-1.584.066-3.619 1.003-4.744 3.263-3.9 6.872-7.472 10.369-11.175 4.013-4.237 7.978-8.522 12.094-12.638.609-.609 2.063-.806 2.991-.609 1.041.225 2.1.966 2.869 1.753 7.088 7.144 14.156 14.288 21.084 21.581 1.509 1.594 2.391 3.788 4.041 6.506z"/></svg>