<svg xmlns="http://www.w3.org/2000/svg" width="300" height="300" viewBox="0 0 300 300"><title>factions-chaos-slaves-to-darkness</title><path d="M151.322.075c.262.366.459.825.797 1.088.928.666 1.172 1.603 1.575 2.625 2.316 5.841 4.603 11.738 7.331 17.381 3.375 6.956 7.209 13.688 10.838 20.531.638 1.219 1.209 2.475 1.791 3.675-1.012 1.434-2.194.984-3.534.6-3.488-.994-6.253-3.234-9.206-5.119-.281-.187-.6-.319-1.228-.666.131 1.772 0 3.366.431 4.772 1.228 4.144 1.697 8.344 1.669 12.637-.009 1.922.103 1.913 1.997 1.987 1.266.047 2.569.225 3.787.572 4.303 1.2 8.634 2.316 12.825 3.834 1.809.656 3.216 2.344 4.941 3.291 3.638 1.987 7.387 3.759 11.044 5.681 1.791.938 3.6 1.912 5.213 3.103 1.847 1.359 3.488 3 5.363 4.631 3.666-4.416 9.281-6.862 11.662-12.609-1.519-.741-2.813-1.303-4.041-1.987-1.341-.731-1.556-1.959-.431-3.009.619-.581 1.416-1.022 2.222-1.322a343 343 0 0 1 10.613-3.609c1.453-.469 3.019-.6 4.434-1.172 2.269-.9 4.434-2.063 6.684-3.019 2.109-.9 4.238-1.8 6.431-2.475.778-.234 1.912-.066 2.578.394.394.272.366 1.491.188 2.184-.891 3.375-1.734 6.769-2.869 10.059-1.434 4.144-3.178 8.175-4.688 12.3-.787 2.156-1.341 4.397-2.006 6.6-.356 1.172-.731 2.334-1.087 3.487-3.122-.544-3.281-3.337-4.472-5.747-1.303 1.219-2.653 2.222-3.684 3.478-2.306 2.813-4.453 5.747-6.656 8.644-.572.75-.778 1.519-.159 2.391 1.256 1.809 2.419 3.703 3.722 5.466 4.041 5.447 6.666 11.653 9.206 17.869.778 1.913 1.013 4.059 1.434 6.103.572 2.784 1.059 5.569 1.594 8.372.028.103.075.206.066.3-.75 3.356 1.762 4.416 3.994 5.634.431.234.984.366 1.472.347 4.847-.309 9.694-.666 14.559-1.013-.478-2.784-1.2-5.559-3.253-7.856-.638-.713-1.059-1.8-1.181-2.766-.328-2.541 1.594-4.003 3.919-2.85 2.55 1.256 4.903 2.925 7.369 4.369 1.219.713 2.541 1.266 3.769 1.988 3.497 2.034 6.919 4.237 10.491 6.15 3.516 1.875 7.237 3.338 10.753 5.203 3.197 1.688 6.216 3.675 9.703 5.766-.422.206-.666.431-.966.497-2.597.544-3.731 3.084-5.822 4.238-1.931 1.069-4.116 1.791-6.253 2.419-6.45 1.875-12.45 4.631-18.244 8.053-3.328 1.959-7.153 3.056-10.716 4.613-.769.328-1.397 1.003-2.316 1.678-.628-.131-.656-.694-.366-1.594 1.088-3.45 2.081-6.919 3.122-10.444-3.862 0-7.744-.328-11.541.122-2.203.272-4.275 1.8-6.375 2.85-.3.15-.366.787-.506 1.219-1.144 3.938-2.306 7.866-3.394 11.813a25 25 0 0 0-.816 4.219c-.319 3.319-1.631 6.253-3.356 9.009-2.316 3.703-4.575 7.434-7.031 11.044-1.472 2.147-3.253 4.078-5.006 6.234 2.278 3.094 4.659 6.309 7.013 9.534.638.872 1.406.9 2.1.225 1.997-1.997 4.509-3.563 5.484-6.459.122-.384 1.088-.891 1.256-.769.506.356 1.059.966 1.162 1.537.3 1.538.262 3.159.544 4.697.478 2.625 1.012 5.241 1.697 7.819a209 209 0 0 0 3.103 10.453c1.322 4.041 2.813 8.025 4.134 12.066.75 2.297.038 3.197-2.334 2.738-1.566-.3-3-1.219-4.537-1.716-2.813-.9-5.681-1.613-8.466-2.569-1.866-.628-3.591-1.697-5.466-2.269-3.994-1.2-8.091-2.109-12.084-3.3-.797-.234-1.613-1.125-1.95-1.912-.169-.422.544-1.397 1.069-1.903 1.519-1.434 3.141-2.747 4.669-4.059-2.184-4.491-6.103-7.088-9.084-10.069-5.606 3.516-11.156 7.069-16.791 10.463-1.519.928-3.281 1.453-4.969 2.072-5.137 1.903-10.266 3.881-15.469 5.569-1.697.553-3.666.347-5.503.441-1.406.075-3.994 2.428-4.003 3.797-.038 4.931-.009 9.872 0 14.803 0 .384.15.778.244 1.247 4.134-2.081 7.95-4.5 12.122-6.15.122.188.234.366.356.544-.309.853-.591 1.725-.938 2.569-.581 1.434-1.369 2.803-1.762 4.266-1.031 3.947-3.056 7.387-5.203 10.762-.872 1.378-1.997 2.616-2.747 4.041-2.063 3.909-4.5 7.716-5.794 11.869-1.247 3.984-3.094 7.641-4.688 11.438a17 17 0 0 1-1.613 2.962c-.3.431-.938.938-1.378.891-.459-.038-1.05-.619-1.256-1.097-3-6.844-5.831-13.772-8.934-20.569-1.688-3.675-3.9-7.106-5.728-10.716-1.238-2.419-2.259-4.931-3.3-7.434-1.162-2.728-2.297-5.466-3.337-8.231-.169-.469-.075-1.341.263-1.603.403-.328 1.294-.506 1.753-.281 2.831 1.369 5.747 2.662 7.388 5.625.206.366.637.619 1.162 1.097.066-.666.122-1.097.131-1.538.028-1.8-.028-3.6.047-5.4.197-4.387.441-8.794.666-13.181.028-.553 0-1.125 0-1.716-2.859-.591-5.625-1.125-8.372-1.753-11.156-2.578-21.319-7.35-30.6-14.006-.966-.694-1.884-.966-2.963-.656-1.575.459-3.197.853-4.688 1.5-.769.328-1.303 1.172-1.931 1.8-2.119 2.156-4.219 4.341-6.366 6.459-.675.666-1.528 1.172-2.063 1.575 1.2 3.403 3.787 3.441 6.131 3.806 1.059.159 2.156.037 3.234.028 1.172-.009 1.284.656.928 1.528-.15.356-.441.713-.75.947-2.653 1.988-5.362 3.797-8.925 3.563-1.144-.075-2.316.159-3.469.309-3.094.394-6.197.825-9.3 1.247-.459.066-.937.047-1.369.197-1.791.581-3.572 1.162-5.325 1.809-1.472.544-2.981 1.059-4.313 1.847-1.406.834-2.812 1.266-4.387 1.031-.478-.075-1.022-.459-1.294-.862-.169-.272.038-.863.197-1.256.3-.75.787-1.444.984-2.222.591-2.278 1.087-4.575 1.594-6.881.666-3.028 1.284-6.094 1.969-9.122.619-2.738 1.369-5.437 1.922-8.175.694-3.394 1.2-6.816 1.875-10.209.122-.656.666-1.219 1.012-1.828.572.441 1.378.769 1.641 1.341.9 1.997 1.566 4.106 2.381 6.15.384.947.834 1.875 1.322 2.775.544 1.031 1.144 1.181 1.95.169.984-1.247 1.95-2.541 3.122-3.591 1.631-1.453 3.413-2.747 5.194-4.041.797-.591 1.209-1.228 1.237-2.297.037-1.725.272-3.469.506-5.175.188-1.341-.384-2.372-1.097-3.403-4.575-6.581-8.138-13.706-10.556-21.338-1.369-4.294-2.231-8.737-3.338-13.116-.122-.497-.169-1.097-.478-1.434-1.284-1.303-2.653-2.55-4.022-3.769-.197-.169-.581-.169-.872-.169-5.137-.009-10.284-.009-15.694-.009.581 1.406 1.247 2.625 1.575 3.919.366 1.472 1.537 2.466 2.006 3.759.675 1.847.966 3.862 1.266 5.822.075.469-.319 1.284-.712 1.491-.422.206-1.322.075-1.65-.262-3.019-3.094-6.844-4.8-10.734-6.422-1.837-.778-3.553-1.847-5.334-2.738-.769-.384-1.641-.553-2.391-.966-1.875-1.031-3.712-2.156-5.559-3.244-1.5-.872-2.972-1.8-4.528-2.578-2.55-1.266-5.119-2.513-7.753-3.591-2.062-.834-4.059-1.866-6.45-1.8-.816.028-1.669-.966-2.709-1.612.825-.628 1.359-1.247 2.034-1.519 2.512-1.003 4.547-2.672 6.731-4.2 4.238-2.972 8.597-5.803 13.463-7.753 3.047-1.219 6.066-2.503 9.009-3.938 2.672-1.294 5.231-2.85 7.856-4.256.534-.281 1.162-.619 1.716-.563 1.772.15 3.047-.694 4.228-1.809.656-.628 1.444-1.378 2.194-.497.347.403.206 1.566-.122 2.156-1.575 2.859-3.281 5.634-5.137 8.775 1.912 0 3.478.009 5.034 0a966 966 0 0 0 10.491-.075c2.587-.037 4.2-1.491 4.856-4.059 1.753-6.844 4.631-13.256 7.584-19.641 1.538-3.356 3.019-6.741 4.622-10.059.75-1.566 1.838-2.963 2.616-4.509.731-1.453 1.416-2.972 1.763-4.537.169-.75-.244-1.922-.816-2.494-.947-.947-2.269-1.528-3.366-2.344-1.847-1.369-3.647-2.813-5.466-4.228-.347-.272-.656-.591-.816-.731-1.997 1.866-3.478 3.947-3.525 7.087-1.631-1.8-2.55-3.253-2.859-5.334-.787-5.428-1.575-10.875-3.666-16.031-1.322-3.281-2.334-6.666-3.553-9.984-.366-.994-.816-2.044-1.481-2.859-1.097-1.341-1.678-2.822-1.697-4.5-.009-.469.328-1.097.703-1.378.319-.244 1.012-.281 1.406-.122a62 62 0 0 1 4.509 2.184c1.612.853 3.197 1.772 4.809 2.625 1.172.619 2.344 1.266 3.591 1.716 2.494.891 5.006 1.716 7.547 2.428 3.403.966 6.834 1.828 10.266 2.672 1.612.403 3.263.675 5.409 1.106l-8.606 5.681c3 2.831 5.513 5.644 8.466 7.866 1.791 1.341 4.153 2.072 6.647.853 3.366-1.641 6.9-2.906 10.228-4.594 2.1-1.05 3.994-2.512 5.906-3.881 3.056-2.203 6.291-4.041 9.9-5.231 3.45-1.144 6.806-2.597 10.266-3.722 1.678-.544 3.516-.619 5.278-.872.947-.131 1.378-.6 1.453-1.612.281-4.191.675-8.372.966-12.553.047-.666-.337-1.369-.619-2.428-1.753.319-3.469.628-5.194.938-.553.103-1.106.347-1.65.281-1.566-.15-2.813.3-4.116 1.209-.6.431-2.391.234-2.728-.272-.469-.703-1.481-1.65-.666-2.934 1.913-3.038 3.638-6.169 5.531-9.197 1.65-2.625 3.553-5.091 5.128-7.753 1.669-2.812 3.019-5.803 4.613-8.672 1.688-3.047 3.478-6.037 5.25-9.047.244-.422.741-.703 1.059-1.097.384-.469 1.059-1.05 1.003-1.481-.281-1.913 1.144-2.963 1.922-4.341.187.075.384.075.591.075zm2.859 77.334c-11.709-.009-20.934 1.828-28.294 4.706-12.862 5.044-23.438 13.2-31.331 24.375-5.119 7.266-9.928 14.981-10.912 24.253-.309 2.85-.694 5.681-.891 8.531-.263 3.872-.366 7.772-.553 11.653-.009.309-.169.6-.169.9-.028 3.009-.197 6.028.028 9.009.159 2.063.825 4.078 1.341 6.103.741 2.906 1.303 5.897 2.381 8.681 2.803 7.237 7.031 13.65 12.206 19.406 1.172 1.303 2.747 2.259 4.144 3.366.909.731 1.884 1.406 2.709 2.231 2.222 2.194 4.097 4.856 6.6 6.628 11.109 7.875 23.559 12.131 37.181 12.469 20.241.497 37.519-6.647 51.769-21 6.413-6.45 11.428-13.837 14.175-22.622.394-1.266.769-2.55 1.303-3.759 2.381-5.316 4.003-10.753 3.497-16.678-.15-1.734.066-3.497-.075-5.241-.262-3.141-.741-6.272-.966-9.422-.262-3.563-.272-7.134-.497-10.716-.103-1.519-.3-3.066-.769-4.5-2.381-7.331-5.916-14.091-10.603-20.203-14.016-18.272-32.625-27.544-52.294-28.172z"/><path d="M157.359 209.372c-.591-.938-.947-1.5-1.303-2.072-.581.384-1.144.778-2.063 1.378-2.944-.703-6.328-1.5-9.703-2.316-.244-.066-.506-.272-.731-.225-1.997.422-3.403-.534-4.631-1.931-.159-.187-.459-.281-.591-.478-1.209-1.688-4.153-1.453-4.303-4.584-.103-2.063-1.669-4.031-2.494-6.075-.638-1.566-1.134-3.197-1.734-4.772-1.528-4.031-5.156-6.853-10.087-5.756-1.847.403-3.844-.028-5.288-1.406-.628-.6-1.162-1.669-1.144-2.531.037-5.822-1.594-11.044-5.212-15.619-1.575-1.997-2.316-4.303-2.541-6.834-.197-2.259-.591-4.491-.778-6.731-.066-.713.131-1.537.469-2.184.778-1.481 1.922-2.803 2.494-4.341.497-1.341.478-2.906.553-4.378.075-1.434.066-2.888-.084-4.313-.3-2.813.787-5.203 1.931-7.631.544-1.163 1.106-2.344 1.369-3.591 1.003-4.866 3.413-9.122 5.634-13.463.591-1.144 1.631-2.119 2.625-3 3.497-3.066 6.919-6.253 11.381-7.987 5.906-2.306 11.925-4.144 18.234-4.847 1.2-.131 2.456.15 3.666.347 4.35.713 8.803 1.097 12.994 2.316 5.672 1.65 10.2 5.325 14.175 9.656 1.022 1.106 2.344 1.95 3.487 2.963.459.394.891.872 1.172 1.397 2.006 3.703 4.134 7.331 5.878 11.147.872 1.903 1.284 4.106 1.519 6.197.497 4.537.638 9.112 1.097 13.659.206 2.081.619 4.341 2.334 5.719 2.775 2.231 2.269 4.856 1.228 7.509-1.144 2.963-2.531 5.841-3.881 8.719-1.828 3.872-3.488 7.781-4.106 12.056-.084.553-.262 1.097-.422 1.641-.816 2.747-.816 2.691-3.684 2.372-2.184-.234-4.2.234-6.234 1.209-3.244 1.556-5.072 4.2-6.375 7.322-.478 1.162-.703 2.456-.825 3.713-.319 3.103-.506 6.216-.787 9.319a2 2 0 0 1-.497 1.087 228 228 0 0 1-4.997 5.447c-.666.703-1.369 1.228-1.95-.159-.122-.3-.638-.628-.938-.591-.309.038-.797.497-.797.778-.047 1.922-1.397 1.809-2.691 1.828-.553.066-1.106.047-1.369.047zm11.269-41.681.113-.572c1.537 0 3.066.075 4.613-.009 2.203-.122 4.228-.816 5.859-2.381.281-.272.741-.853.666-.966-.9-1.266.309-2.391.188-3.609-.122-1.294.244-2.634.113-3.938-.084-.816-.553-2.072-1.125-2.259-1.566-.497-3.394-1.012-4.903-.637-2.662.628-5.241 1.753-7.716 2.962-2.306 1.125-4.453 2.588-5.269 5.306-.478 1.603.009 3.628 1.228 4.097 2.034.788 4.153 1.359 6.234 2.006zm-46.444-5.522c.244.506.638 1.331 1.059 2.147.206.403.581.75.694 1.172.431 1.566 1.613 2.241 3.047 2.456 4.069.591 8.128 1.097 12.178-.281 2.194-.75 2.7-1.284 2.597-3.638-.075-1.5-.872-2.456-2.025-3.253-.544-.384-1.219-.703-1.556-1.219-1.556-2.428-4.191-3.206-6.572-4.341-.675-.328-1.612-.244-2.419-.206-1.059.066-2.119.262-3.178.403-1.463.197-2.709.731-3.056 2.353-.272 1.284-.459 2.597-.778 4.416zm30.404 22.79c.394.347.6.581.853.741 1.359.909 2.859 1.688 4.434.909s2.034-2.269 1.95-4.031c-.206-4.2-2.297-7.669-4.341-11.137-.262-.431-1.012-.713-1.566-.797-3.178-.534-5.053 1.481-6.759 3.666-2.428 3.131-2.906 6.816-2.859 10.631.028 1.725.769 2.419 2.494 2.316 2.147-.103 4.2-.459 5.794-2.297z"/></svg>