<?xml version="1.0" encoding="UTF-8" standalone="no"?>
<!DOCTYPE svg PUBLIC "-//W3C//DTD SVG 1.1//EN" "http://www.w3.org/Graphics/SVG/1.1/DTD/svg11.dtd">
<svg width="100%" height="100%" viewBox="0 0 300 300" version="1.1" xmlns="http://www.w3.org/2000/svg" xmlns:xlink="http://www.w3.org/1999/xlink" xml:space="preserve" xmlns:serif="http://www.serif.com/" style="fill-rule:evenodd;clip-rule:evenodd;stroke-linejoin:round;stroke-miterlimit:2;">
    <path d="M153.488,68.808L153.488,11.289C153.488,0.768 156.763,-1.026 165.827,4.716C178.323,12.926 190.503,21.137 202.169,30.177C205.96,32.981 209.415,36.503 206.61,42.359C194.833,66.991 193.464,94.292 184.312,119.62C181.306,129.805 172.041,137.141 161.049,137.141L160.847,137.141C157.858,136.541 155.329,134.547 154.05,131.78L154.028,131.712C153.444,129.177 153.108,126.26 153.108,123.255C153.108,121.954 153.176,120.676 153.31,119.396L153.288,119.553L153.288,68.518L153.49,68.81L153.488,68.808ZM1.57,234.321L1.57,219.941C1.57,219.784 1.548,219.559 1.548,219.335C1.548,211.573 6.708,205.023 13.774,202.891L13.909,202.869C39.348,193.649 64.922,185.191 90.496,176.577C93.546,175.613 97.742,174.131 99.873,175.343C105.84,179.224 111,183.352 115.779,187.95L115.734,187.928C116.227,188.421 115.174,191.697 114.007,192.864C110.266,196.641 106.263,200.149 102.028,203.363L101.758,203.565C84.815,215.891 67.758,228.057 50.588,240.064C37.83,248.925 24.914,257.556 11.846,265.952C10.68,266.693 6.485,265.302 6.261,264.225C3.861,254.445 2.066,244.574 0.002,234.703L1.572,234.321L1.57,234.321ZM243.154,296.282C237.074,293.747 231.848,290.607 227.159,286.816L227.294,286.906C213.318,272.033 200.15,256.509 186.758,241.142C182.742,236.544 178.548,231.855 175.249,226.919C173.365,224.384 170.627,220.93 171.054,218.282C172.87,210.789 174.935,204.441 177.402,198.339L177.043,199.303C183.391,201.344 188.82,203.722 194.002,206.549L193.509,206.279C222.628,224.921 251.095,244.011 280.304,262.923C283.467,264.516 286.204,266.491 288.514,268.846C289.68,270.416 289.501,275.262 288.514,275.755C273.955,282.731 258.835,289.305 243.176,296.282L243.154,296.282ZM65.886,298.502C49.913,293.656 34.861,289.641 20.301,284.369C12.898,281.744 12.494,274.903 18.82,270.079C27.03,263.573 36.317,257.583 45.224,251.348C66.693,236.227 88.162,221.019 109.81,206.055C113.152,204.171 117.101,202.353 121.184,200.873L121.723,200.716C124.437,207.378 127.555,213.862 129.955,220.681C130.448,222.565 128.161,225.773 126.5,227.838C108.872,249.727 91.104,271.502 73.198,293.164C71.035,295.182 68.641,296.937 66.065,298.391L65.863,298.481L65.885,298.503L65.886,298.502ZM300,235.891L296.298,263.753C285.284,264.673 280.505,254.533 272.766,249.866C249.66,235.8 227.765,219.94 205.398,204.752C202.594,202.868 198.803,201.791 197.188,199.256C194.138,194.972 184.783,193.176 190.122,185.055C196.628,175.094 203.381,172.402 212.084,175.454C238.173,184.405 264.152,193.782 290.488,201.992C297.42,204.124 298.72,207.264 298.72,213.254L298.72,235.755L299.999,235.89L300,235.891ZM146.916,69.885L146.916,125.295C146.916,138.351 146.916,137.364 134.309,134.896C126.637,133.819 120.49,128.256 118.628,120.965L118.606,120.83C110.949,94.97 103.68,68.997 96.801,42.919C96.746,42.435 96.716,41.948 96.712,41.461C96.708,37.964 98.165,34.62 100.728,32.241C113.56,22.461 126.795,13.016 140.457,4.378C146.537,0.52 146.783,6.599 146.873,10.458L146.873,69.862L146.918,69.884L146.916,69.885ZM146.825,161.099C146.825,171.284 135.137,183.689 126.747,183.196C116.113,181.491 108.06,172.383 108.06,161.413C108.06,160.246 108.15,159.102 108.33,157.981L108.308,158.116C110.013,148.65 117.999,141.493 127.758,141.09L127.803,141.09C137.831,142.862 145.525,150.916 146.782,160.966L146.804,161.079L146.826,161.101L146.825,161.099ZM192.074,162.647C192.096,163.006 192.119,163.454 192.119,163.881C192.119,173.953 184.11,182.187 174.083,182.523L174.061,182.523C163.159,180.661 154.791,171.867 153.58,160.942L153.58,160.829C154.14,152.619 166.076,140.526 173.478,140.864C183.932,141.267 192.209,149.837 192.209,160.336C192.209,161.166 192.164,161.974 192.052,162.758L192.074,162.645L192.074,162.647ZM151.671,216.06C137.852,216.06 132.67,210.81 132.916,197.889C132.889,197.478 132.874,197.067 132.871,196.655C132.871,186.493 141.127,178.26 151.312,178.26L151.604,178.26C162.731,179.023 171.436,188.198 171.436,199.415L171.436,199.797C170.606,209.017 162.934,216.174 153.579,216.174C152.929,216.174 152.278,216.129 151.627,216.062L151.672,216.062L151.671,216.06Z" style="fill-rule:nonzero;"/>
</svg>
