<svg width="300" height="300" xmlns="http://www.w3.org/2000/svg" xml:space="preserve" fill-rule="evenodd" stroke-linejoin="round" stroke-miterlimit="2" clip-rule="evenodd" viewBox="0 0 512 512"><path fill-rule="nonzero" d="M255.401 25.03c-1.406 1.561-3.366 3.636-4.36 4.609-2.448 2.404-15.963 12.382-16.772 12.382-.356 0-1.88 1.677-3.388 3.726-1.507 2.047-3.875 4.463-5.26 5.365-1.387.903-4.146 2.868-6.128 4.367a403 403 0 0 1-12.84 9.3c-1.609 1.118-3.885 3.352-5.059 4.968-1.175 1.614-3.508 3.934-5.188 5.157-1.681 1.22-4.475 3.245-6.211 4.498l-6.309 4.555a157 157 0 0 1-5.98 4.088c-1.555.996-3.934 3.405-5.286 5.358-1.353 1.953-3.732 4.362-5.287 5.358a157 157 0 0 0-5.98 4.086 267 267 0 0 1-6.344 4.42c-1.755 1.177-4.145 3.508-5.315 5.18-1.168 1.671-3.993 4.46-6.276 6.194l-4.15 3.156-49.91.247c-35.257.175-50.258-.043-51.102-.742-.922-.765-1.256-6.492-1.47-25.219-.285-24.812-.805-28.396-3.554-24.547-.677.948-1.89 2.096-2.693 2.555-.803.457-3.643 2.728-6.309 5.047a939 939 0 0 1-9.356 8.011c-2.48 2.086-5.211 4.883-6.072 6.214s-3.193 4.134-5.183 6.225L0 103.393v61.089l2.376 1.868c2.34 1.84 3.145 1.868 53.433 1.868 44.753 0 51.305.175 53.062 1.403l2.004 1.403v129.98l-2.244 2.94c-1.296 1.7-3.42 3.2-5.03 3.553-1.533.338-5.02 2.433-7.751 4.656s-6.248 4.544-7.815 5.156c-9.01 3.52-14.002 6.33-14.952 8.413-1.11 2.435-1.577 37.791-.515 38.854 1.288 1.286 8.566.326 12.294-1.621 2.16-1.128 5.64-2.569 7.733-3.2 2.091-.632 5.856-2.655 8.364-4.496 2.508-1.84 6.295-3.87 8.414-4.507 2.119-.638 5.449-2.014 7.396-3.06 1.949-1.043 4.132-1.898 4.85-1.898s2.955-.776 4.97-1.723c5.779-2.718 14.973-6.367 19.89-7.897 2.478-.77 6.483-2.975 8.9-4.899 2.419-1.926 6.07-3.917 8.116-4.427s4.53-1.395 5.521-1.967c1.689-.972 4.064-1.9 18.975-7.411 3.248-1.2 7.632-3.597 9.742-5.327s5.629-3.627 7.817-4.216c2.19-.591 5.41-1.812 7.16-2.716 9.262-4.786 16.382-6.76 17.728-4.918 1.357 1.857 1.515 118.526.162 119.879-.676.675-10.935-3.098-16.376-6.023-4.68-2.518-7.69-.459-4.48 3.06 1.027 1.127 2.352 3.566 2.946 5.422.593 1.854 1.557 3.68 2.14 4.055 1.766 1.135 8.38 10.332 10.542 14.656 1.115 2.23 3.014 5.274 4.219 6.76 9.226 11.393 11.986 15.241 11.986 16.703 0 .927 1.927 4.046 4.283 6.935 5.927 7.273 7.999 10.311 9.532 13.983 2.313 5.538 10.483 4.77 10.537-.99.01-.813 1.433-3.505 3.166-5.983 6.822-9.752 9.325-13.65 10.71-16.676.792-1.735 2.67-4.778 4.174-6.76 2.428-3.207 6.462-8.867 8.28-11.628.361-.546 1.268-2.412 2.015-4.146.75-1.736 2.793-4.98 4.544-7.212 1.752-2.23 4.655-7.02 6.45-10.646 3.978-8.03 3.355-9.644-2.608-6.753-2.115 1.025-5.062 2.14-6.55 2.478s-4.233 1.663-6.103 2.945c-2.876 1.975-3.738 2.18-5.603 1.33l-2.203-1.005-.256-60.202c-.141-33.287.095-60.706.532-61.33 1.288-1.845 7.044-1.285 11.574 1.128 2.327 1.24 4.775 2.254 5.435 2.254.661 0 2.81.842 4.775 1.872 1.964 1.03 5.58 2.49 8.034 3.244s6.195 2.79 8.31 4.523c2.117 1.733 6.288 3.91 9.271 4.839 2.983.928 6.343 2.27 7.464 2.98 1.122.711 3.46 1.579 5.195 1.93 1.737.35 4.373 1.367 5.86 2.26s4.462 2.09 6.609 2.661c2.149.572 5.98 2.535 8.514 4.364 4.238 3.06 7.503 4.48 20.031 8.723 2.48.839 6.541 2.502 9.028 3.698 2.486 1.195 5.129 2.173 5.873 2.173s2.844.8 4.667 1.776c1.823.978 5.197 2.251 7.497 2.83 2.563.645 5.923 2.54 8.684 4.897 2.636 2.25 5.864 4.1 7.784 4.459 1.804.339 4.39 1.187 5.745 1.89s3.5 1.274 4.763 1.274h2.298v-40.13l-2.259-2.435c-1.242-1.342-3.82-2.857-5.73-3.372-1.908-.515-5.36-2.378-7.669-4.142-2.31-1.763-5.714-3.838-7.567-4.608-1.852-.771-3.664-1.863-4.029-2.427-1.25-1.939-.823-134.692.437-135.507.621-.401 22.742-.932 49.16-1.179 41.38-.39 48.152-.638 48.888-1.803.494-.784.86-14.567.869-32.782l.012-31.43-3.67-3.67c-2.02-2.02-4.214-4.721-4.878-6.005-3.26-6.304-22.036-20.685-22.126-16.948-.015.63-.003 11.732.027 24.674.048 20.994-.11 23.665-1.465 24.789-2.012 1.67-93.363 1.291-96.438-.4-5.238-2.881-10.382-6.868-15.792-12.239-3.287-3.264-9.1-8.163-12.917-10.891-3.816-2.728-7.414-5.518-7.995-6.204-3.402-4.018-8.327-8.36-14.438-12.725-9.839-7.027-11.014-7.974-16.751-13.523-5.943-5.748-6.672-6.336-14.449-11.734-7.524-5.22-8.026-5.639-15.27-12.727-3.364-3.292-7.806-7.052-9.874-8.356-5.155-3.254-6.96-4.746-12.36-10.224-5.504-5.584-4.987-5.465-8.2-1.893zm10.322 61.296c1.628 1.412 3.35 2.568 3.825 2.568.474 0 2.099 1.724 3.608 3.83 2.606 3.639 11.478 11.246 17.734 15.204 1.588 1.006 3.137 2.608 3.44 3.56.468 1.478 8.394 8.668 14.403 13.073.991.726 3.587 2.751 5.765 4.5 2.178 1.747 4.658 3.551 5.511 4.007.85.456 2.058 2.059 2.681 3.566s1.398 2.738 1.719 2.738c.32 0 2.488 1.522 4.818 3.381 2.33 1.86 6.086 4.8 8.345 6.535s5.189 4.703 6.507 6.598c1.319 1.894 3.46 3.992 4.762 4.665 1.3.672 4.47 3.2 7.045 5.617l4.68 4.393-.09 53.589c-.086 51.114-.368 58.376-2.242 57.874-3.008-.804-12.247-4.244-15.303-5.7-2.015-.96-4.262-1.743-4.994-1.743s-2.934-.824-4.898-1.833c-1.964-1.007-5.667-2.447-8.23-3.197s-6.557-2.814-8.879-4.587c-2.32-1.772-6.637-3.953-9.59-4.85-2.955-.894-5.856-2.01-6.446-2.482-.591-.47-3.104-1.473-5.582-2.225-2.479-.754-6.535-2.205-9.015-3.226-2.478-1.02-5.52-2.067-6.759-2.326-1.24-.26-3.858-1.955-5.819-3.771-8.042-7.443-17.78-7.675-26.422-.633-2.117 1.725-6.318 4.103-9.338 5.287s-5.956 2.512-6.52 2.951c-.566.44-3.051 1.296-5.524 1.898-2.473.605-4.984 1.504-5.58 2-.597.495-3.566 1.651-6.598 2.57-3.031.917-7.212 3.053-9.292 4.749-2.08 1.694-6.216 3.923-9.19 4.954-11.749 4.07-16.375 5.811-19.89 7.483-2.015.96-4.17 1.744-4.789 1.744s-3.343 1.051-6.06 2.334c-8.135 3.85-7.572 7.845-7.572-53.508v-53.657l5.184-4.816c2.85-2.65 5.893-5.05 6.76-5.335.869-.286 1.578-.887 1.578-1.336s1.177-1.427 2.617-2.17c1.44-.746 3.461-2.72 4.495-4.391 1.726-2.794 11.841-11.745 17.348-15.354 1.275-.835 3.077-2.93 4.007-4.656s1.91-3.138 2.177-3.138c.269 0 2.34-1.521 4.605-3.38 2.265-1.86 5.47-4.394 7.121-5.634 6.819-5.113 10.483-8.406 12.615-11.334 2.01-2.762 5.312-5.68 13.923-12.312 1.46-1.124 3.692-3.171 4.958-4.547 12.906-14.035 15.785-15.26 22.39-9.53z"/></svg>