<svg xmlns="http://www.w3.org/2000/svg" width="300" height="300" viewBox="0 0 300 300"><title>factions-chaos-jade-obelisk</title><path d="M10.228 191.85c-.984-3.666-2.213-7.191-2.85-10.828-1.584-9.075-2.972-18.188-4.275-27.3-.281-1.997-.431-4.331.3-6.112 2.175-5.353 9.206-6.3 14.119-2.475 7.556 5.897 15.291 11.559 22.941 17.334 4.556 3.431 9.15 6.825 13.612 10.369 2.606 2.072 5.156 1.856 7.603.066 5.663-4.134 11.4-8.203 16.725-12.741 1.519-1.284 2.241-4.059 2.447-6.216.422-4.65.216-9.356.309-14.034.234-11.1 2.447-21.675 8.063-31.406.581-1.003.759-2.213 1.406-4.181-3.638.431-6.609.853-9.591 1.134-2.803.272-5.662.178-8.428.694-5.756 1.069-11.438 2.691-17.213 3.638-11.222 1.828-16.969 11.1-24.712 17.644-1.069.891-2.203 1.706-3.553 2.747-3.459-7.313-6.581-14.156-6.797-22.022-.15-5.606-.947-11.194-1.2-16.809-.544-11.428 3.366-21.563 9.394-31.013 3.506-5.494 6.628-11.381 10.997-16.088 4.716-5.1 10.556-9.178 16.134-13.425 6.853-5.231 13.697-10.556 21.009-15.094 4.978-3.084 10.603-5.353 16.2-7.153 7.369-2.362 14.953-4.097 22.528-5.719 4.491-.956 9.122-1.256 13.706-1.734 4.866-.469 9.731-1.125 14.616-1.125 5.006 0 10.003.637 14.991 1.163 2.287.244 4.547.862 7.884 1.528-3.938 2.906-6.788 5.1-9.703 7.162-3.019 2.137-4.35 5.325-3.159 8.906.975 2.934 3.638 3.056 6.262 3.188 2.803.159 5.569.647 8.353.788 5.194.244 6 4.556 7.331 8.072 2.213 5.878 1.406 12.113-.131 17.859-1.744 6.487-4.397 12.844-7.5 18.825-3.741 7.191-4.088 7.041 3.787 9.028 12.834 3.234 22.688 10.772 30.881 20.981 5.147 6.422 9.666 13.2 12.497 20.888 1.659 4.556 2.625 9.422 3.45 14.241.816 4.669 1.538 9.441 1.434 14.147-.3 13.322-3.506 26.025-10.969 37.153-3.647 5.447-8.738 9.947-13.828 15.628 7.8 14.25 15.938 29.325 24.281 44.269 4.669 8.344 9.637 16.491 14.578 24.675 1.256 2.072 1.125 3.647-.591 5.325-2.166 2.109-4.041 4.528-6.337 6.45-1.341 1.125-2.944 1.641-4.256-.891-2.606-5.053-5.559-9.975-8.662-14.747-2.1-3.216-5.044-5.906-7.069-9.169-4.219-6.816-8.137-13.819-12.047-20.822-1.734-3.094-3.019-6.45-4.65-9.6-.431-.834-1.434-1.397-2.962-1.688.675 3.862 1.256 7.744 2.053 11.588.703 3.394 1.613 6.75 2.484 10.097 1.322 5.044 2.7 10.088 4.069 15.113 1.069 3.891 2.025 7.819 3.272 11.644 1.013 3.094 2.409 6.075 3.609 9.103.356.881.759 1.8.853 2.719.581 5.531.028 6.197-5.569 7.369-1.744.366-3.45.919-5.147 1.434-1.659.516-3.309 1.078-5.25 1.716-7.031-25.491-13.95-50.625-20.888-75.741-.497 0-1.003-.028-1.5-.038-.516 1.678-1.416 3.356-1.472 5.053-.159 5.662-.356 11.353.094 16.997.469 6.028 1.678 12.009 2.531 18.009a955 955 0 0 1 1.706 12.619c.581 4.566 1.078 9.15 1.641 13.725.488 3.966 1.041 7.922 1.472 11.897.112.947-.131 1.931-.253 3.328h-17.559c-.094-1.556-.206-2.869-.253-4.181-.45-10.172-.647-20.353-1.416-30.487-.609-7.978-1.8-15.928-2.991-23.85-.675-4.491-1.772-8.925-2.841-13.359-.216-.919-1.134-1.678-1.734-2.513-.347.094-.703.206-1.059.3-1.556 7.706-3.422 15.375-4.594 23.137-1.322 8.775-1.95 17.644-3.056 26.456-.787 6.234-1.959 12.422-2.719 18.675-.281 2.381-1.566 2.934-3.459 2.728-4.463-.469-8.934-.919-13.322-1.809-1.106-.234-2.775-2.212-2.653-3.234.572-4.987 1.613-9.937 2.569-14.869.553-2.841 1.416-5.616 1.922-8.447 1.125-6.291 2.316-12.563 3.122-18.891 1.153-9.047 1.987-18.122 2.897-27.188.122-1.247-.122-2.531-.188-3.797-.431-.122-.862-.234-1.284-.356-4.472 9.656-9.291 19.163-13.322 29.006-2.597 6.319-3.984 13.116-6.028 19.669-1.406 4.5-2.784 9.028-4.556 13.397-1.181 2.925-4.003 2.316-6.056 1.322-3.881-1.838-7.641-4.003-11.25-6.328-4.922-3.159-4.219-4.566-.909-9.3 6.938-9.928 12.038-20.728 17.053-31.622 3.703-8.044 7.528-16.05 11.044-24.187.469-1.097-.497-2.841-.881-4.275-.084-.281-.459-.525-.741-.731-6.075-4.069-4.425-4.959-9.638.938-5.053 5.709-9.009 11.991-11.822 19.116-1.641 4.134-6.328 5.391-10.491 4.031-7.425-2.447-14.484-6.197-22.538-6.609-1.594-.084-3.15-.881-4.987-.947 6.703 12.478 16.856 21.281 29.475 28.734-5.259 4.125-10.388 8.25-15.694 12.141-.609.45-2.288-.309-3.356-.759-8.531-3.572-13.688-10.997-19.322-17.662-4.809-5.691-8.775-12.103-12.994-18.281-3.112-4.547-6.141-9.141-8.934-13.884-.609-1.041-.619-3.15.037-4.097 2.109-2.991 4.406-5.934 7.097-8.4 3.825-3.506 8.184-.834 12.038.131 7.706 1.95 15.234 4.594 22.819 7.041 5.325 1.716 10.613 3.553 15.891 5.391 1.838.638 2.878.3 3.647-1.706 2.681-6.937 5.588-13.781 8.325-20.691.431-1.078.516-2.316 1.003-4.688-4.331 1.191-7.856 2.053-11.306 3.15-5.034 1.594-9.947 3.609-15.038 4.959-4.913 1.294-8.897-.891-12.787-3.966-6.291-4.95-12.909-9.488-19.575-13.931-1.716-1.134-4.134-1.219-7.453-2.109.713 3.853.947 6.459 1.716 8.906 1.097 3.459-.038 5.784-3.637 6.797-2.869.816-5.681 1.8-9.263 2.944zm134.71 8.194c3.891-.731 7.819-1.313 11.672-2.203 10.997-2.531 19.753-8.991 28.444-15.816 11.231-8.813 15.291-21.122 17.006-34.294.638-4.856-1.397-10.144-2.597-15.131-2.578-10.772-7.622-20.269-17.063-26.438-5.691-3.722-12.45-5.784-18.338-9.272-6.197-3.694-12.816-3.516-19.116-2.297-8.259 1.594-16.387 4.303-24.3 7.237-6.178 2.297-11.381 6.141-14.531 12.497-2.7 5.438-5.072 10.847-5.906 16.903-.769 5.597-2.072 11.137-2.578 16.762-.244 2.691.825 5.494 1.256 8.25.581 3.816.975 7.678 1.744 11.456.366 1.8 1.097 3.722 2.213 5.137 3.694 4.641 7.397 9.291 11.531 13.509 8.306 8.503 18.197 13.659 30.544 13.688zM33.769 99.028c.3.797.891 2.381 1.491 3.947 1.106-1.041 2.259-2.044 3.309-3.122 4.547-4.678 9.853-8.522 16.144-9.816 7.95-1.65 16.172-1.95 24.244-3.056 5.466-.759 10.941-1.641 16.294-2.934 9.788-2.363 19.903-4.069 29.109-7.912 9.844-4.106 18.863-10.219 28.097-15.713 6.356-3.788 9.628-10.191 11.156-16.969 1.369-6.056 1.275-9.047-6.084-8.531-2.325.159-4.678.122-7.022.028-5.203-.206-9.141-2.475-9.994-6.384-.591-2.719-.244-5.634-.375-8.466-.122-2.363-1.2-4.838-3.553-4.678-5.044.338-10.059 1.313-15.019 2.363-5.353 1.134-10.669 2.541-15.938 4.059-5.316 1.538-10.753 2.878-15.741 5.175-11.888 5.466-22.444 13.097-31.734 22.219-6.122 6.019-11.625 12.759-16.716 19.716-6.272 8.559-5.991 19.134-7.678 30.075z"/><path d="M195.319 59.775c-1.256 5.138 2.756 6.459 5.016 7.425 15.6 6.656 24 19.744 31.734 33.722 4.181 7.575 6.797 15.675 8.503 23.972 1.294 6.3 1.162 12.881 1.772 19.331.253 2.775 1.059 5.512 1.078 8.278.009 2.316-.553 4.688-1.2 6.947-4.191 14.766-10.491 28.397-22.069 38.972-1.172 1.078-2.841 1.678-3.919 2.822-1.931 2.044-3.094.741-4.35-.666-.234-.253-.309-.666-.572-.891-5.194-4.688-3.488-8.925.497-13.416 3.403-3.825 6.609-7.894 9.366-12.206 2.044-3.187 4.059-6.797 4.641-10.453 1.134-7.191 1.462-14.531 1.8-21.834.731-15.572-4.313-29.841-12.75-42.319-6.544-9.684-15.403-17.906-27.281-21.563-2.231-.694-4.35-1.763-6.516-2.681-3.947-1.659-5.147-4.8-3.338-8.522 2.803-5.756 4.613-11.766 5.681-18.159 1.256-7.528 3.666-14.869 5.466-22.322.338-1.406.422-2.991.122-4.397-.975-4.622 1.762-7.453 4.8-9.938 2.166-1.772 4.669-3.216 7.209-4.378 1.322-.591 3.244-.731 4.594-.253 7.772 2.775 15.656 5.391 23.119 8.869 4.5 2.1 8.203 5.831 12.469 8.522 6.966 4.406 13.847 9.028 18.825 15.619 5.372 7.125 10.453 14.578 14.709 22.406 4.95 9.103 9.3 18.581 13.05 28.228 2.447 6.3 3.328 13.2 4.931 19.809 4.069 16.856 4.931 34.031 4.181 51.263-.281 6.516-1.687 12.984-2.597 19.472-.572 4.069-.581 8.344-1.875 12.159-2.231 6.544-5.016 12.928-8.016 19.162-7.125 14.831-19.2 25.612-30.731 36.816-2.447 2.381-4.791 4.866-7.191 7.313-2.972-4.931-5.588-9.694-8.616-14.156-1.875-2.756-1.172-4.688.947-6.534 2.569-2.213 5.316-4.228 7.884-6.431 5.85-5.016 8.897-11.859 11.916-18.703 3.647-8.259 7.641-16.388 10.95-24.788 2.241-5.681 4.153-11.625 5.175-17.634 1.153-6.694 1.716-13.603 1.463-20.363-.356-9.225-1.65-18.431-2.681-27.619-2.175-19.481-11.119-36.534-19.659-53.662-6.169-12.347-15.9-21.253-28.209-27.553-6.3-3.234-12.225-7.181-18.338-10.753-2.841-1.659-4.125-1.097-4.772 1.978-1.275 5.963-.038 8.287 4.978 11.981 9.966 7.359 20.053 14.616 29.466 22.631 7.209 6.15 12.319 14.166 15.675 23.175 2.869 7.706 6.328 15.234 8.569 23.119 1.837 6.459 2.353 13.303 3.281 19.997 1.012 7.341 2.194 14.7 2.606 22.078.244 4.406-.488 8.953-1.434 13.303-.919 4.247-2.344 8.466-4.125 12.422-3 6.675-5.747 13.659-9.881 19.622-6.075 8.738-13.209 16.734-20.016 24.956-2.475 2.991-3.731 2.653-5.531-.881-1.434-2.822-2.662-5.85-4.613-8.278-1.641-2.044-.731-3.234.356-4.613 3.581-4.613 7.528-8.981 10.819-13.791 3.506-5.137 6.787-10.491 9.45-16.088 2.475-5.194 4.303-10.753 5.869-16.294 1.069-3.797 1.519-7.866 1.678-11.831.272-6.15.694-12.384-.084-18.441-.956-7.575-2.297-15.281-4.912-22.406-2.869-7.837-7.153-15.225-11.222-22.584-4.153-7.481-10.575-13.088-17.372-17.981-5.194-3.731-11.137-6.431-16.791-9.534-1.106-.609-2.391-.919-3.919-1.491zM92.063 54.328c-3.066 0-6.15.094-9.225-.028-3.881-.159-5.962-2.944-4.397-6.328 4.303-9.244 10.997-15.591 21.534-17.344 6.234-1.041 12.347-2.878 18.581-3.947 1.181-.206 3.787 1.416 3.881 2.381.544 5.775.253 11.522-3.328 16.566-2.944 4.163-7.547 5.747-11.981 7.041-4.828 1.416-9.975 1.734-14.981 2.531-.037-.3-.066-.581-.113-.881zm22.078-15.994c-8.587-1.256-16.172.619-22.903 5.775-.666.497-1.463 1.744-1.256 2.241.347.816 1.519 1.856 2.259 1.8 4.594-.309 9.394-.206 13.697-1.594 3.553-1.153 7.847-2.85 8.203-8.222"/></svg>