<svg xmlns="http://www.w3.org/2000/svg" width="300" height="300" viewBox="0 0 300 300"><title>factions-order-cities-of-sigmar-tempests-eye</title><path d="M205.781 298.106c-2.278-3.375-29.278-50.222-29.925-51.919-.581-1.519-.591-1.744-.131-2.709.656-1.378 2.747-2.559 5.681-3.234 2.653-.6 3.506-1.35 3.891-3.384.506-2.709-.281-5.034-4.641-13.631-5.287-10.416-5.428-11.372-2.213-14.269 1.031-.928 17.072-11.025 19.706-12.403 2.662-1.387 4.041-1.134 5.1.947 1.162 2.297 11.681 40.641 11.859 43.228.122 1.744.028 2.316-.525 3.197-.881 1.397-3.497 3.037-7.191 4.519-5.063 2.025-6.478 4.35-6.178 10.106.131 2.456.328 3.403.994 4.678 1.238 2.362 1.416 3.244 3.384 16.547 1.819 12.3 2.531 20.203 1.828 20.203-.197 0-.938-.844-1.631-1.884zm-112.144-5.175c-.281-.281-.516-.909-.516-1.397 0-1.05-.15-.506 4.669-17.391 4.697-16.462 5.081-18.45 4.125-21.309-.966-2.897-4.631-4.866-9.084-4.875-2.306-.009-4.116-.572-5.156-1.613-1.284-1.284-1.463-2.091-1.059-4.716.441-2.878 12.469-42.619 13.538-44.709 1.172-2.306 1.744-2.7 3.3-2.278.713.197 1.734.581 2.278.853 1.472.741 15.244 10.181 16.303 11.175 1.716 1.603 2.306 2.916 2.287 5.109-.028 3.066-.797 5.109-4.05 10.809-3.469 6.066-5.869 10.837-5.869 11.653 0 1.575 4.087 4.266 7.931 5.222.975.244 2.109.881 3.066 1.716 1.453 1.284 1.509 1.388 1.369 2.841-.075.834-.516 2.316-.966 3.3-1.013 2.203-27.684 43.594-29.044 45.075-1.078 1.172-2.288 1.387-3.122.553zm46.294-89.719c-1.219-.225-1.641-1.003-1.631-3.028.009-2.747.731-5.306 3.966-14.091 4.2-11.391 4.95-12.591 7.425-11.841.666.197 1.425.703 1.678 1.116s1.762 4.134 3.338 8.278c2.625 6.891 2.991 7.631 4.238 8.756 1.8 1.613 3.356 2.006 7.181 1.781 4.088-.234 6.225-.966 10.969-3.769 5.025-2.972 5.372-3.225 5.756-4.219.516-1.369-.834-3.666-6.113-10.378-6.431-8.175-9.131-10.331-15.028-12.037-2.466-.713-3.141-.759-12.422-.759-9.225 0-9.956.047-12.112.722-3.703 1.172-9.713 4.781-12.825 7.706-1.481 1.397-2.784 2.541-2.897 2.541-.506 0-3.844-1.828-4.8-2.634l-1.078-.909.6-1.134c.956-1.809 3.384-4.388 5.569-5.916 3.187-2.241 10.65-6 14.344-7.228 5.203-1.725 8.072-2.222 12.872-2.231 4.125 0 4.481.056 11.456 1.866 10.294 2.672 10.791 2.953 17.822 9.816 6.459 6.309 8.203 8.213 9.441 10.322.478.806 1.688 2.738 2.7 4.284 4.144 6.356 3.713 10.125-1.584 13.519-2.569 1.65-14.259 7.406-17.578 8.644l-2.287.862-14.072.056c-7.744.028-14.447-.009-14.897-.094zm69.647-10.828c-1.012-2.119-2.85-5.981-4.097-8.588-1.481-3.103-3.666-6.844-6.309-10.8-3.309-4.959-4.678-6.675-7.528-9.488-1.922-1.894-4.059-3.778-4.762-4.2s-2.822-1.716-4.716-2.887c-5.222-3.225-8.709-4.772-15.741-6.947-9.431-2.925-10.35-3.094-16.987-3.113-4.828-.019-6.262.103-9.159.741-4.706 1.041-12.591 3.694-16.181 5.438-6.15 3-16.031 11.137-19.069 15.712-.722 1.078-3.778 6.459-6.797 11.944-5.484 9.966-7.453 13.078-8.719 13.762-.544.291-.956.188-2.203-.525-.984-.563-8.925-8.325-22.162-21.666-11.344-11.437-20.813-21.066-21.047-21.403-.413-.591-.262-.609 3.6-.609 2.212 0 13.444.591 24.947 1.303s21.525 1.209 22.256 1.097c2.681-.412 3.469-1.209 3.469-3.553 0-2.588-.928-5.166-8.531-23.719-3.797-9.272-7.434-18.291-8.072-20.044-1.125-3.094-1.144-3.206-.591-4.05.506-.778.703-.844 1.922-.647 1.697.263 2.916.956 24.422 13.744 19.209 11.419 20.813 12.309 22.247 12.309.853 0 1.013-.15 1.294-1.228.412-1.622 1.491-64.828 1.247-73.238-.216-7.453-.834-10.791-2.409-13.041-.975-1.378-1.594-1.706-5.803-3.037-3.141-.994-3.206-1.8-.431-5.916 1.875-2.775 19.294-23.447 22.762-27.009 3.3-3.384 3.909-3.478 6.684-.975 1.481 1.331 23.991 28.012 25.744 30.516 1.078 1.538 1.097 1.613.572 2.409-.731 1.116-2.428 1.931-6.131 2.972-3.684 1.031-4.434 1.472-5.147 3.047-.497 1.097-.544 4.528-.544 40.641 0 38.784.009 39.459.656 40.753.609 1.219.75 1.303 1.997 1.284 1.041-.019 2.334-.581 5.728-2.484 9.881-5.55 14.456-8.006 26.447-14.194 10.088-5.203 12.834-6.497 13.912-6.516l1.341-.028-.019 1.472c-.009.909-.534 2.794-1.359 4.913-1.547 3.966-11.794 34.256-13.209 39.075-1.078 3.666-1.144 4.359-.497 5.906.816 1.95 1.153 1.988 18.525 1.988 15.141 0 15.609-.019 17.841-.722 4.828-1.528 15.253-2.334 16.688-1.284.591.431.591.469-.075 1.387-.375.516-6.694 6.909-14.044 14.194s-16.95 16.819-21.328 21.197c-4.378 4.369-8.147 7.95-8.372 7.95s-1.228-1.734-2.241-3.844zm5.719-18.44c.722-.872.741-2.531.038-3.534-.469-.675-.731-.741-2.156-.609-1.172.113-1.856.394-2.456.994-.769.769-.806.919-.422 1.856.234.553.844 1.369 1.359 1.8.797.666 1.097.741 2.006.487.591-.169 1.322-.609 1.641-.994zm-125.953-.488c.713-.713.647-2.306-.141-3.084-.759-.759-3.45-.919-4.35-.244-.928.684-1.069 2.353-.263 3.159.872.872 3.947.984 4.753.178zm27.731-29.156c1.256-1.134.403-4.659-1.397-5.775-1.369-.853-3.563 1.078-3.572 3.141 0 1.2.816 2.756 1.547 2.953 1.303.338 2.85.197 3.413-.319zm69.75-2.325c.825-.919.862-4.65.056-5.456-.778-.778-2.616-.666-3.234.216-.778 1.106-.684 4.331.141 5.166.806.806 2.344.853 3.028.084zm-34.256-7.425c1.519-.431 1.903-3.206.647-4.669-.713-.825-.984-.909-2.653-.853-3.15.113-4.144 1.378-2.925 3.741.534 1.031 2.85 2.334 3.741 2.1.272-.075.797-.216 1.181-.328z"/></svg>