<svg xmlns="http://www.w3.org/2000/svg" width="300" height="300" viewBox="0 0 300 300"><title>factions-death-bladeborn-the-exiled-dead</title><path d="M174.695 1.527c-3.779 4.022-3.135 56.53.947 77.309 3.442 17.527.652 26.821-8.063 26.827-8.222.008-13.071-5.638-26.365-30.704-11.35-21.398-21.271-39.457-23.578-42.916-9.15-13.719-18.552-13.419-18.396.586.084 7.703 2.324 13.918 12.096 33.602 16.095 32.415 19.628 42.752 16.693 48.817-3.349 6.916-9.311 5.955-14.931-2.406-8.394-12.49-37.82-41.841-48.016-47.898-4.525-2.687-9.125-.361-9.125 4.615 0 3.854.513 4.849 7.669 14.841 13.986 19.528 43.171 64.046 48.534 74.034 6.5 12.102 6.579 14.336.819 23.234-2.414 3.725-5.384 8.595-6.598 10.816-4.636 8.481-14.215 10.334-36.414 7.041-14.971-2.221-17.064-1.856-22.304 3.877-10.042 10.987-8.391 16.447 4.897 16.194l7.866-.15 7.154 3.389c7.793 3.693 12.457 5.251 15.759 5.264 3.894.016 9.813 1.802 15.84 4.778 7.245 3.577 13.887 5.058 27.175 6.054l9.289.697.718 9.142c1.168 14.884.425 14.57 13.194 5.643 16.38-11.452 16.835-10.793 17.655 25.697.457 20.191.284 19.406 4.393 19.958 10.954 1.47 14.306-8.802 14.346-43.956.009-9.518.234-16.022.534-15.502 3.059 5.306 7.09 22.569 8.702 37.263 2.512 22.903 5.032 25.193 19.821 18.048 8.925-4.313 9.533-5.55 7.309-14.864-2.147-8.991-3.258-20.225-2.474-24.984.993-6.009 1.432-6.519 5.61-6.519 3.432 0 3.486-.029 6.564-3.322 3.555-3.803 5.964-5.026 9.901-5.026 6.19 0 6.377-1.746 1.015-9.402-12.63-18.025-10.697-50.514 7.298-122.662 7.475-29.968 9.098-43.8 8.438-71.844-.353-14.909-.707-16.281-4.283-16.58-6.19-.516-9.705 7.25-12.096 26.714-2.047 16.672-2.725 18.458-14.024 36.986-4.631 7.594-8.64 14.385-8.912 15.09-.709 1.853-2.391 3.165-4.951 3.861-7.809 2.122-12.414-5.671-14.73-24.935-1.051-8.74-2.885-17.527-5.094-24.423-2.222-6.936-2.999-10.921-3.607-18.503-.531-6.612-1.917-10.937-5.207-16.245-3.285-5.297-4.6-9.054-4.6-13.157 0-5.378-3.382-7.67-6.469-4.382l-.002.002z"/></svg>