<svg xmlns="http://www.w3.org/2000/svg" viewBox="0 0 300 300"><path d="M161.873 273.77c-7.652 5.545-15.786 8.91-24.586 3.179-3.383-2.237-8.115-5.878-8.189-8.873.24-5.029 2.569-9.483 6.137-12.552l.019-.019c13.144-9.742 45.881-6.211 58.543 4.529 6.765 5.675 7.32 17.173-3.79 25.972-9.15 8.484-21.369 13.772-34.808 13.993h-.055c-16.119-.684-32.423 1.904-47.378-8.263-11.239-7.69-21.462-22.922-16.045-31.296 6.506-8.059 14.234-14.807 22.958-20.075l.388-.221c4.363-2.81 9.39-5.12 14.752-6.655l.388-.111c6.432-2.162 9.761-6.765 7.58-12.792-2.107-5.01-5.767-9.04-10.37-11.572l-.13-.055c-5.195-2.107-11.202-3.512-17.487-3.9h-.166c-18.393-3.032-32.257-18.782-32.257-37.785 0-.98.036-1.941.111-2.902v.13c0-5.139 1.017-7.709 6.304-2.366a23.75 23.75 0 0 0 13.014 6.008l.13.019c16.1.666 29.318 12.145 32.59 27.359l.036.221c.684 2.644 6.784 6.765 7.782 5.897a32.7 32.7 0 0 0 7.486-9.224l.093-.185c.204-.48.314-1.035.314-1.627s-.13-1.146-.333-1.645l.019.036c-4.288-10.814-8.984-20.02-14.438-28.726l.425.739c-4.104-3.993-9.668-6.544-15.786-6.765h-.036c-22.737-.887-40.816-19.52-40.816-42.368 0-1.424.074-2.865.221-4.252l-.019.166c.611-2.81 1.498-5.305 2.644-7.616l-.093.204c1.904 1.479 3.993 2.846 5.823 4.455 4.325 3.993 8.115 10.888 12.921 11.682 16.248 2.773 24.586 12.976 31.406 26.379 1.683 3.308 5.952 5.343 9.076 7.986 2.218-3.383 4.085-7.283 5.398-11.425l.093-.333c.019-.295.019-.609.019-.925 0-11.423-6.618-21.314-16.23-26.046l-.166-.074c-10.703-5.212-23.292-6.765-29.984-19.188-6.101-11.092-10.555-21.776-4.732-34.345 2.644-5.675 3.457-5.416 7.173 0a186 186 0 0 0 15.805 15.491l.221.203a157.5 157.5 0 0 1 13.235 15.915l.295.444c1.072 1.553-.333 4.955.758 6.765a91 91 0 0 0 8.651 9.797l.019.019c2.846-3.308 8.059-6.765 8.189-9.797 0-8.115 1.017-19.41-3.66-23.864-19.78-19.077-7.098-37.248-1.22-55.845a62 62 0 0 1 5.971-11.868l-.148.259c1.515-2.256 3.032-4.233 4.714-6.063l-.036.037a32.4 32.4 0 0 1 3.716 5.25l.093.166c3.402 7.579 6.784 15.158 9.687 22.848 5.749 15.084 9.409 29.613-4.732 42.997-8.873 8.448-4.455 20.297-3.308 30.428.851 2.828 3.438 4.862 6.489 4.862 2.052 0 3.9-.906 5.139-2.366v-.019a21.86 21.86 0 0 0 4.862-9.946l.019-.148c1.7-9.613 7.93-17.505 16.323-21.48l.185-.074c5.657-3.291 10.26-7.856 13.439-13.346l.093-.185c3.734-6.432 4.603-1.553 5.823.609a22.4 22.4 0 0 1 3.55 12.145c0 3.642-.87 7.062-2.404 10.093l.055-.13c-4.991 11.905-14.455 21.093-26.213 25.658l-.333.111c-18.615 7.764-26.396 15.824-24.845 32.996.333 3.734 3.845 7.154 5.897 10.814 3.05-2.846 7.505-5.065 8.798-8.522 5.157-14.271 13.532-23.457 29.503-25.492 5.084-.609 9.335-7.505 14.012-11.351 1.757-1.479 3.734-2.773 5.602-4.123 1.405 2.107 2.551 4.566 3.327 7.191l.055.204c2.773 20.297-15.232 42.387-36.898 45.086-17.395 2.016-31.13 15.325-33.81 32.295l-.036.221a19 19 0 0 0-.259 3.198c0 2.977.609 5.804 1.719 8.374l-.055-.148c1.017 2.532 3.457 4.289 6.285 4.289s5.269-1.757 6.266-4.233l.019-.055c2.754-3.882 5.046-8.355 6.674-13.161l.111-.369c2.44-10.74 10.833-13.051 19.429-15.953 7.172-2.44 14.141-5.545 21.259-8.3l5.416-2.162c.295 1.386.537 3.105.666 4.843v.13c-.333 25.547-14.621 41.389-39.264 41.463a17 17 0 0 0-1.978-.111 19.74 19.74 0 0 0-18.744 13.477l-.036.148c-4.529 17.986-18.061 24.752-32.626 30.224-10.758 3.993-21.11 9.668-21.184 20.759s11.849 15.879 22.071 18.799c18.264 5.212 34.993-1.294 51.371-8.115 5.602-2.292 5.564-10.685.813-15.343-6.765-6.765-27.063-7.709-34.863-2.088-5.49 3.771-2.44 7.431.813 8.984 3.881 1.313 8.355 2.107 13.014 2.237h.055l.203.055z"/><path d="m155.559 214.144.544-.272h-.441z"/></svg>