<svg xmlns="http://www.w3.org/2000/svg" viewBox="0 0 300 300"><path d="M13.134 167.559c1.425 0 2.878.141 4.284-.028 4.097-.469 8.184-1.172 12.3-1.566 4.566-.431 9.141-.647 13.725-.9 3.581-.206 7.041-.844 10.528-1.781 3.994-1.069 8.222-1.322 12.347-1.828 1.837-.225 3.731-.075 5.559-.375 1.941-.328 2.381-1.228 2.409-3.178.037-2.775.216-5.531.366-8.306.15-2.878-.253-5.522-1.753-8.119-1.856-3.188-1.472-6.825-1.237-10.35.103-1.5.328-3 .553-4.5.178-1.106-.216-1.65-1.35-1.603-2.156.112-4.35.066-6.478.403-5.728.938-11.325-.244-16.978-.694-5.962-.478-11.953-.881-17.906.609-2.091.525-4.35.366-6.544.525-.047-.206-.084-.413-.141-.619 1.716-.553 3.394-1.313 5.147-1.631 7.153-1.247 14.297-2.484 21.488-3.441 3.581-.478 7.238-.366 10.875-.525 2.119-.084 4.228-.206 6.347-.263 1.134-.037 1.8-.572 1.95-1.688.244-1.744.694-3.328 2.119-4.538.253-.216.253-.956.112-1.387-.487-1.584-.994-3.169-1.678-4.678-.225-.506-.956-1.059-1.472-1.087-3.056-.178-4.031.581-5.372 3.319-.403.816-1.322 1.378-2.006 2.053-.619-.853-1.416-1.65-1.781-2.606-.253-.666-.037-1.603.187-2.362.994-3.384 1.997-6.769 3.178-10.078.403-1.106 1.2-2.259 2.147-2.963 2.053-1.566 2.85-3.863 3.947-5.991.169-.319-.15-.956-.375-1.359-.769-1.322-.572-2.559-.244-4.022 1.031-4.763 3.506-8.925 5.766-13.05 3.188-5.813 3.806-12.019 4.425-18.337.319-3.216.609-6.422.891-9.638.188-2.072 1.528-2.662 3.975-1.678-.759 1.894-.366 3.759-.122 5.728.769 6.347 2.438 12.563 2.606 19.003.075 2.766 1.247 5.475 1.781 8.25.263 1.378.478 2.878.206 4.2-.872 4.191.703 7.847 2.156 11.541 1.144 2.897 2.531 5.7 2.822 8.878.122 1.378 1.097 1.894 2.456 1.903.516 0 1.359.366 1.472.741.291.947-.478 1.2-1.313 1.378-1.472.319-2.972.647-4.359 1.181-.703.281-1.575.975-1.744 1.631-.938 3.863-1.781 7.753-2.419 11.663-.356 2.147.337 2.522 2.4 1.837.984-.328 2.053-.544 3.094-.572 3.788-.075 7.566-.009 11.353-.075 4.116-.075 7.116-2.053 9.253-5.512.628-1.022 1.397-1.978 2.184-2.888.731-.844 1.575-.703 1.912.375.441 1.387.816 2.813.994 4.237.356 2.803 1.031 3.572 3.825 3.516 5.85-.084 11.719-.037 17.541-.403 4.013-.253 4.134.253 3.188-3.919-.881-3.919.338-7.678.356-11.719-.328 0-.872.084-1.359-.028-.806-.187-1.716-.337-2.334-.816-.947-.722-1.866-1.641-1.575-3.056.291-1.434 1.566-1.547 2.672-1.856 1.209-.337 2.419-.647 3.684-.975-1.284-3.394-3.141-6.291-5.522-8.841-.338-.366-1.35-.45-1.856-.225-2.963 1.313-5.25 3.534-7.341 5.953-.244.281-.263.731-.366 1.106-.291 1.097-1.669 1.997-2.841 1.725-1.284-.291-1.209-1.341-1.022-2.306.169-.834.3-1.763.769-2.419 2.241-3.206 3.347-6.872 4.313-10.566.431-1.641 1.125-2.859 2.737-3.722 2.484-1.322 2.663-2.419 1.181-4.791-1.219-1.978-.938-4.022-.394-6.131a187 187 0 0 1 6.9-21.563c.628-1.641 1.181-3.263.394-5.109-.544-1.266 1.35-3.553 3.009-3.712 1.247-.113 1.537-.694 1.678-1.819.375-3.141.947-6.272 1.378-9.394.45-3.281.816-6.581 1.266-9.863.084-.694.244-1.416.525-2.044 1.097-2.409 1.303-4.922 1.134-7.528-.122-1.997.797-2.728 2.55-2.091.412.15.881.656 1.012 1.097.816 2.962 1.631 5.925 2.278 8.925.225 1.059.103 2.203.009 3.3-.028.338-.431.703-.759.938-.356.263-.947.281-1.181.591-.581.759-1.5 1.706-1.388 2.447.103.666 1.313 1.538 2.147 1.678 2.963.478 4.528 2.128 5.447 4.931.834 2.559 2.119 4.969 3.262 7.416.628 1.341.15 3.403-1.106 4.313-1.397.994-1.434 1.669-.188 2.888.216.216.431.469.694.581 2.738 1.097 3.769 3.469 4.538 6.056 1.313 4.388 2.728 8.756 3.947 13.163.806 2.897 1.378 5.878 1.969 8.831.141.656.188 1.537-.141 2.044-.919 1.425-.759 2.841-.469 4.359 1.181 6.253 2.7 12.394 5.916 18 .441.769.666 1.678.881 2.559.3 1.237-.281 1.8-1.528 1.781-2.241-.047-4.387-.572-5.991-2.156-3.216-3.178-6.281-6.516-9.422-9.788-.478-.487-.975-1.069-1.575-1.322-.984-.431-1.65-.337-1.997 1.088-.666 2.775-1.706 5.475-2.606 8.184-.666 1.997-.525 2.222 1.416 3.028.619.253 1.069.938 1.584 1.425-.441.413-.806 1.013-1.322 1.219-1.059.441-1.284 1.097-1.022 2.147.356 1.416.581 2.859.9 4.284.225.994.319 1.894-.319 2.878-.281.441-.047 1.538.338 2.016 1.134 1.416 1.631 2.878 1.088 4.631-.403 1.313.178 1.725 1.425 1.706 7.716-.169 15.422-.328 23.137-.431 1.613-.028 2.447-.731 2.934-2.231.703-2.119 1.106-4.416 3.038-6.244.338.647.684 1.172.909 1.744a138 138 0 0 1 1.866 4.941c.375 1.05 1.059 1.472 2.156 1.509 7.753.263 15.525.572 23.278.844 1.669.066 1.959-.206 1.997-1.856.028-.909-.122-1.837.028-2.728.694-4.134-.666-7.847-2.334-11.484-.216-.469-.9-.806-1.434-1.013-.441-.169-1.013-.075-1.5.009-1.856.328-3.131-.403-4.116-2.269.947-.3 1.894-.516 2.775-.891 1.641-.703 3.384-1.284 4.819-2.297 1.416-.994 1.059-2.184-.591-2.737a6.3 6.3 0 0 1-4.2-7.125 1626 1626 0 0 0 2.119-11.737c.319-1.791 1.322-2.841 3.038-3.366 2.334-.722 2.475-.881 2.344-3.319-.262-5.306-.216-10.603.647-15.844 1.087-6.6 2.447-13.153 3.759-19.716.122-.619.778-1.125 1.2-1.678.122.066.262.113.394.178.188 1.631.3 3.262.581 4.884.694 4.05 2.231 7.922 2.184 12.141-.028 1.725.403 3.516.956 5.184.609 1.837 1.397 3.684 2.456 5.297 2.203 3.394 3.75 6.984 4.322 11.006.15 1.031.834 2.006 1.303 2.972.431.909.909 1.791 1.538 3.009-.956-.084-1.387-.112-1.819-.169-2.381-.328-4.031 1.678-3.056 3.862.216.469 1.106.759 1.725.881 3.253.619 5.981 2.053 8.044 4.828-1.247 1.275-.816 2.559-.038 3.919a760 760 0 0 1 6.872 12.422c.319.581.469 1.378.375 2.016-.075.487-.572 1.134-1.022 1.313-.366.141-1.162-.169-1.416-.525-1.2-1.716-2.841-1.65-4.613-1.397-2.297.328-4.594.628-6.881.891-1.603.188-3.131.731-3.703 2.241-1.688 4.453-3.169 8.981-4.847 13.809 3.356.413 6.281 1.022 9.216 1.097 9.019.216 18.037.263 27.066.291 1.762.009 3.075.591 4.303 2.156-1.181.103-2.156.244-3.141.263-10.388.225-20.766.45-31.162.647-1.416.028-2.822-.122-4.238-.188-1.031-.047-1.453.394-1.303 1.463.572 4.163.581 8.306.122 12.506-.394 3.544-.075 7.162-.45 10.716-.356 3.384-.778 6.684.009 10.05.159.684-.356 1.509-.525 2.269-.15.609-.281 1.209-.403 1.819.609.122 1.238.431 1.828.366 10.884-1.125 21.778-.113 32.662-.178 6.441-.038 12.9.525 19.35.834 1.791.084 3.403.591 4.884 2.091h-1.669c-.047.544-.084.984-.122 1.453-5.231-.15-10.406-.366-15.563-.403-2.259-.028-4.519.319-6.788.488-6.581.506-13.153 1.012-19.734 1.5-4.866.366-9.731.703-14.606 1.05-1.528.103-2.231.722-2.259 2.231-.047 4.528 0 9.066-.075 13.594-.047 2.409-.356 4.819-.431 7.228-.037 1.341.159 2.691.253 4.031.084 1.584.3 3.188.225 4.781-.122 2.531 1.2 4.069 3.694 3.684 9.825-1.509 19.706-.872 29.569-.938 5.7-.037 11.4-.291 17.091-.291 2.4 0 4.8.394 7.191.722.656.084 1.247.609 2.119 1.059-.506.225-.619.328-.741.338-6.431.478-12.853 1.087-19.294 1.359-5.616.244-11.109.984-16.65 1.875-5.55.9-11.25.9-16.875 1.35-1.247.103-2.484.412-3.703.694s-1.838 1.097-1.641 2.334c1.313 7.894 1.584 15.844 1.322 23.822-.037.956.262 2.034.703 2.897 1.913 3.769 2.381 7.716 2.072 11.887-.338 4.481-.431 8.963-.666 13.444-.103 1.978-.394 3.919-1.744 5.522-1.134 1.341-1.584 1.387-3.038.413-.703-.478-1.453-.909-2.156-1.388-1.284-.881-2.456-1.031-3.872-.066-1.838 1.247-4.134.253-4.528-1.959-.253-1.416-.441-2.972-.084-4.341 1.209-4.753.647-9.525.525-14.297-.122-5.344-.356-10.678-.469-16.031-.141-6.15-.178-12.309-.328-18.45-.009-.666-.394-1.866-.722-1.903-1.125-.141-2.531-.244-3.384.328s-1.537.722-2.447.741c-1.941.066-3.881.281-5.822.262-1.856-.009-3.722-.225-5.578-.375-1.613-.122-3.216-.291-4.819-.412s-1.941.291-1.875 1.866c.009.516-.244 1.162-.581 1.566-.581.684-1.303 1.266-2.016 1.819-1.453 1.125-2.438.806-3.113-.947-.478-1.228-.844-2.494-1.491-3.619-.3-.525-1.097-.806-1.706-1.125-.244-.113-.609-.037-.9.009-3.441.572-6.722-.009-10.116-.844-4.744-1.162-9.619-.853-14.363.469-.338.084-.778.666-.769.994.141 2.85.356 5.7.581 8.541.084 1.144.262 2.297.394 3.441.253 2.194.403 4.397.759 6.572.281 1.716.047 3.253-.656 4.847-.431.956-.694 2.128-.581 3.169.572 5.559 1.313 11.1 1.913 16.659.15 1.388.731 1.856 2.109 1.959 2.803.188 5.616.431 8.372.919 1.631.291 2.887 1.35 3.403 3.534-2.878 0-5.578-.028-8.287.009-1.313.028-2.606.206-3.919.253-1.059.038-1.425.581-1.313 1.566.375 3.3.741 6.609 1.125 9.909.037.394.084.797.075 1.181-.075 2.091-.375 4.2-.244 6.281.375 5.306-.666 10.444-1.716 15.563-.684 3.291-2.85 4.819-5.597 4.594-3.431-.281-6.272-2.784-6.619-6-.113-1.031.009-2.109.15-3.15.262-1.969-.122-3.722-1.566-5.128-.834-.816-1.181-1.613-.647-2.822.262-.581.188-1.528-.113-2.109-.656-1.247-.656-2.334.037-3.553 1.238-2.147.291-4.275-2.128-4.613-1.706-.244-2.784-.919-3.3-2.597-.188-.591-.731-1.069-1.069-1.631-.816-1.341-.553-1.8.947-2.194.703-.188 1.603-.544 1.931-1.106.947-1.613.169-3.056-1.716-3.216-2.597-.216-5.222-.178-7.809-.488-.881-.103-1.959-.769-2.419-1.5-.516-.806.506-.956 1.134-1.05 3.591-.506 7.2-.956 10.772-1.528.525-.084 1.35-.703 1.387-1.144.413-4.556 1.2-9.141.113-13.697-.394-1.669-1.209-3.281-2.072-4.781-.769-1.341-.666-2.7.797-3.366 1.247-.572 1.247-1.228.891-2.381-.375-1.228-.581-2.588-.488-3.862.216-3.113.731-6.206.938-9.319.15-2.344.009-4.716-.009-7.078-.009-.975-.628-1.341-1.491-1.322-2.803.075-5.597-.375-8.4.516-1.172.375-2.663-.225-4.013-.338-3.553-.319-7.116-.759-10.669-.881-2.916-.103-4.537 1.931-4.284 4.894.037.403.206.816.122 1.2-.122.703-.366 1.397-.572 2.091-.731-.244-1.509-.366-2.166-.731-.553-.319-.938-.909-1.416-1.35-.516-.478-.994-1.059-1.612-1.35-1.284-.628-1.472-1.472-.975-2.728.628-1.547.403-1.969-1.237-1.978-4.069-.028-8.156.047-12.234.075-1.359.009-2.728.009-4.069-.009-1.237-.028-2.184.45-2.147 1.781.169 5.991.413 11.981.628 17.972.009.253.009.553.169.731 2.325 2.738 1.247 6.075 1.631 9.159.525 4.341.919 8.7 1.378 13.162.037 0-.291-.075-.487.047-.506.319-.956.722-1.425 1.087.469.281.919.553 1.387.816.075.047.253-.028.291.028.45.525 1.134 1.013 1.284 1.613.328 1.284 1.547 2.625.319 3.938-.291.3-1.453.281-1.819-.038-2.728-2.381-5.738-2.85-9.178-1.959-1.144.291-2.531.103-3.694-.253-1.95-.591-3.112-2.006-3.037-4.172.037-.956.122-1.903.188-2.859.178-2.597.45-5.213.516-7.809.075-3.478-.028-6.947-.009-10.425 0-1.547-.037-3.066.806-4.528.412-.722.394-1.762.366-2.662-.112-4.284-.319-8.559-.469-12.853-.066-1.781-.216-1.931-1.95-1.669-12.066 1.838-24.178 3.319-36.422 2.972-2.878-.075-5.747.066-8.625.206-2.203.113-4.059-.572-5.616-2.109-.225-.225-.394-.525-.581-.797.319-.178.628-.469.975-.488 3.216-.291 6.431-.544 9.647-.806 8.841-.759 17.672-1.584 26.522-2.259 4.481-.328 8.962-.366 13.453-.516 1.978-.066 2.119-.366 2.147-2.316.037-4.819-.028-9.619.516-14.438.609-5.4.628-10.875.853-16.303.075-1.819-.375-2.241-2.156-2.306-3.591-.122-7.134-.028-10.603 1.2-2.081.731-4.069.412-5.775-1.144a2.74 2.74 0 0 0-1.322-.647c-2.531-.431-5.072-.947-7.613-1.125-1.875-.122-3.834.047-5.691.412-2.156.413-4.275.816-6.394.038-4.153-1.528-8.428-1.181-12.703-1.125-2.409.038-4.819-.15-7.209-.403-.891-.084-1.753-.628-2.634-.975.037-.066.066-.216.084-.356zm172.238-12.993c.141-.028.281-.047.413-.075.15.328.356.656.431 1.013.319 1.322.684 2.644.844 3.984.15 1.162.722 1.566 1.8 1.528.759-.028 1.509.009 2.269.028 7.519.028 15.019.037 22.537.075.984 0 1.856.066 2.053-1.35.572-3.984 1.247-7.941 1.912-11.916.684-4.013 1.866-7.931 1.5-12.094-.3-3.506-.356-7.041-.506-10.566-.047-1.059-.066-2.119-.141-3.169-.066-.909-.506-1.453-1.509-1.537-2.269-.188-4.519-.394-6.656.703-.45.244-1.069.225-1.613.216-4.228-.066-8.447-.178-12.675-.216-2.072-.009-2.222.206-1.613 2.184.394 1.284.216 2.081-1.247 2.494-.703.206-1.266.947-1.856 1.472-.516.469-.938 1.088-1.5 1.491-1.238.853-1.978.478-2.072-1.022-.066-1.106.037-2.222-.038-3.328-.141-1.941-1.275-3.216-2.897-3.253-4.088-.075-8.175-.169-12.159.956-1.931.544-3.75.525-5.484-.694-.553-.394-1.303-.628-1.978-.656a175 175 0 0 0-7.997-.225c-1.097-.009-1.528.656-1.266 1.716.244.975.572 1.931.778 2.916.769 3.619.994 7.162-1.322 10.425-.581.816-.834 1.941-.975 2.963-.356 2.475-.431 4.978-.834 7.444-.647 3.834-.694 7.5 1.566 10.913.506.769.769 1.753.956 2.672.225 1.097.778 1.509 1.866 1.509 8.213.066 16.434.15 24.638.253 1.106.009 1.669-.413 1.828-1.528.253-1.781.609-3.544.919-5.325zm-33.881 27.637c.778 7.172 1.491 13.594 2.184 19.997.122 1.172.816 1.566 1.969 1.603 7.116.159 14.213.394 21.309.572 1.266.038 2.522.009 3.769-.122 2.447-.262 3.206-1.144 3.422-3.581.084-.938.225-1.912.581-2.775s.994-1.603 1.509-2.409c.881.684 1.8 1.322 2.625 2.072.262.244.262.759.45 1.097.525.947.938 2.016 1.678 2.766 2.297 2.316 5.213 2.841 8.362 2.606 4.481-.328 8.953-.591 13.434-.797 1.416-.066 1.931-.516 1.913-1.997-.075-6.244-.15-12.497-.009-18.741.084-4.022.553-8.044.834-12.066.122-1.706-.253-2.091-1.716-2.128a693 693 0 0 1-11.616-.431c-4.209-.188-8.437-.441-12.647-.666-1.322-.075-1.903.506-2.269 1.838-.328 1.181-1.05 2.381-1.903 3.291-.806.853-1.716.45-1.941-.722a12.7 12.7 0 0 1-.188-2.85c.038-1.097-.394-1.528-1.472-1.584-8.559-.45-17.1-.488-25.641.553-2.034.253-2.344.591-2.55 2.625-.178 1.8-.3 3.619-.647 5.4-.412 2.381-1.05 4.753-1.434 6.459zm-43.322-25.922c.844 1.434 1.688 2.813 2.447 4.228.45.844.994 1.275 2.006 1.266 9.019-.141 18.047-.253 27.066-.338 1.069-.009 1.575-.45 1.528-1.547-.122-3.328-.3-6.647-.3-9.975 0-3.919-.037-7.856.291-11.766.328-3.825.844-7.594-.028-11.409-.281-1.219-.103-2.606.141-3.872.319-1.688.103-2.147-1.613-2.119-2.625.028-5.25.037-7.856.178-1.247.066-2.625.122-3.666.694-1.744.947-3.469.816-5.269.656-1.013-.084-2.034-.291-3-.169-.628.075-1.425.525-1.744 1.05-.684 1.097-.994 2.419-1.65 3.544-.366.609-1.069 1.284-1.716 1.397-1.397.253-3.984-2.494-3.797-3.919.15-1.144-.337-1.613-1.378-1.669-.506-.028-1.013.037-1.5.075-2.916.216-5.878.909-8.709.553-4.434-.553-8.625.291-12.862 1.134-.694.141-1.631.919-1.781 1.547-.553 2.344-.806 4.716.216 7.116 1.237 2.887.947 5.813.103 8.85-.937 3.328-1.631 6.834-.759 10.294.544 2.184 1.303 4.266 1.275 6.581-.009 1.031.647 2.109 1.088 3.113.112.262.591.516.891.516 4.894-.047 9.778-.113 14.662-.216 3-.066 3.366-.375 3.713-3.328.122-1.313.666-2.184 2.222-2.456zm31.537 47.166c-.15-.759-.262-1.247-.328-1.744-.244-1.894-.722-3.797-.628-5.672.122-2.7.731-5.372 1.022-8.072.722-6.581 2.991-12.975 2.297-19.734-.122-1.2-.375-1.725-1.65-1.716-2.822.037-5.653-.15-8.466-.009-1.875.103-3.731.647-5.616.909-1.631.225-3.263.469-4.903.441-2.606-.047-5.222-.366-7.847-.469-1.669-.066-1.856.244-1.575 1.856.112.694.394 1.416.291 2.081-.113.722-.431 1.781-.938 1.978-.909.366-1.716-.3-2.072-1.275-.253-.703-.506-1.425-.694-2.156-.356-1.35-1.106-1.856-2.559-1.641-2.278.338-4.65.881-6.9.628-3.469-.394-6.825-.066-10.228.394-2.934.394-3.075.478-3.694 3.384a4.7 4.7 0 0 0-.122.9c-.206 3.975-.403 7.941-.591 11.934-.103 2.203-.366 4.444-.225 6.637.188 3.169.722 6.309 1.031 9.459.216 2.081.337 2.203 2.372 2.119 5.541-.253 11.081-.656 16.622-.628 2.663.009 4.059-.844 4.847-3.328.544-1.744 1.472-3.356 2.231-5.034.169 0 .319-.009.478-.009.403.703.919 1.388 1.181 2.147.394 1.134.553 2.344.881 3.516.694 2.484 1.5 3.103 4.097 3.103 5.494.009 10.997.009 16.491.009 1.65.009 3.319.009 5.184.009zm-3.393-121.5c1.753-.169 3.262-.253 4.753-.45.441-.066 1.172-.375 1.209-.666.188-1.284.478-2.691.169-3.9-.469-1.828-2.166-2.512-3.881-2.934-.881-.216-1.397.028-1.678.956-.525 1.725-1.144 3.431-1.753 5.128-.581 1.584-.3 1.941 1.181 1.866m-60.647-3.394c-1.678-.375-2.512.291-3.009 1.472-.328.778-.544 1.631-.806 2.438-.356 1.059.919 3.037 2.034 3.066.291 0 .806-.337.853-.591.356-2.119.628-4.247.938-6.384zm67.284 21.319c.206.047.403.084.609.141.591-.337 1.2-.666 1.791-1.013.009-.178.028-.356.047-.516-.778-.178-1.566-.356-2.344-.525a66 66 0 0 0-.103 1.913"/></svg>