<svg width="300" height="300" xmlns="http://www.w3.org/2000/svg" viewBox="0 0 32 32"><path d="M16.222 31.908a.37.37 0 0 0-.151-.152c-.099-.051-.106-.068-.095-.249.009-.16.026-.2.095-.231.088-.039.1-.063.137-.287.029-.169.184-.309.381-.344.509-.09.641-.183.681-.483.016-.12.043-.164.123-.202.056-.027.102-.064.102-.082 0-.16.527-.219.671-.075.065.065.075.124.075.483 0 .386-.005.411-.084.452a.7.7 0 0 0-.17.15c-.07.087-.116.107-.24.107a1 1 0 0 1-.277-.045c-.171-.062-.2-.02-.222.329-.025.398-.039.453-.125.48-.04.013-.095.068-.122.124-.046.097-.06.101-.393.111-.34.011-.345.009-.389-.087zm-1.283-1.034a3 3 0 0 0-.181-.173c-.09-.072-.07-.567.027-.664.093-.093.564-.091.705.003.236.157.278.604.065.714-.061.031-.11.081-.11.111 0 .073-.118.131-.268.131-.091 0-.155-.032-.239-.121zm1.115-.708c-.052-.058-.084-.159-.1-.323-.029-.291-.094-.376-.288-.376-.114 0-.156.021-.22.112-.077.108-.09.112-.368.112-.174 0-.306-.018-.333-.045-.055-.055-.06-.528-.006-.629.021-.04.065-.072.096-.072s.076-.048.098-.106a.27.27 0 0 1 .143-.145c.082-.031.142-.122.296-.444.106-.223.221-.436.255-.474.101-.113.243-.169.496-.195l.239-.025.101.146c.088.126.101.183.101.419s-.016.301-.12.491c-.146.265-.127.297.202.335.345.041.365.078.365.671 0 .627-.002.63-.515.63-.332 0-.373-.008-.442-.084zm-2.335-.282c-.042-.047-.062-.135-.062-.281 0-.177.016-.229.091-.305.098-.098.184-.112.33-.057.11.042.175.209.175.454 0 .211-.055.257-.309.257-.112 0-.184-.022-.226-.068zm4.606-.135a.6.6 0 0 1-.045-.222q-.002-.291-.339-.339c-.348-.048-.621-.42-.659-.9l-.019-.232.165-.165c.187-.187.321-.23.593-.193.145.02.196.046.234.117a.37.37 0 0 0 .139.137c.085.042.092.07.112.417.012.204.041.409.066.454.026.048.107.099.192.122.188.051.262.158.262.38 0 .329-.116.451-.471.498-.174.023-.187.019-.23-.074m-5.118-.839c-.275-.083-.444-.335-.444-.66 0-.198.073-.311.201-.311.035 0 .11-.049.165-.109.128-.139.291-.168.656-.118.241.033.331.067.541.203.277.179.352.298.332.53-.013.157-.067.199-.357.275-.093.024-.158.064-.158.095 0 .029-.032.07-.072.092-.083.044-.719.047-.863.003zm5.909-.46c-.079-.068-.11-.144-.149-.363-.053-.295-.067-.636-.031-.767.031-.117.17-.163.487-.163.369 0 .534.087.665.35a.84.84 0 0 1 .093.439c0 .41-.065.489-.454.552-.367.06-.498.05-.61-.047zm-4.935-1.124c-.032-.039-.041-.247-.032-.755l.013-.701.624-2.442c.343-1.343.649-2.497.68-2.565.085-.187.233-.231.782-.231.534 0 .668.038.811.229.127.17.167.325.19.729.017.306.071.51.509 1.919.428 1.379.514 1.618.683 1.911l.193.335.014.552c.007.304.002.629-.012.722-.022.146-.042.177-.144.218-.187.076-.796.143-1.162.128-.277-.012-.357-.029-.457-.1a.4.4 0 0 1-.142-.169c-.02-.082.057-.287.207-.545.063-.109.075-.197.075-.548 0-.23-.018-.501-.04-.603s-.164-.438-.315-.747c-.329-.672-.335-.69-.43-1.402-.064-.478-.088-.572-.163-.647-.07-.071-.11-.083-.205-.062-.214.047-.238.119-.338 1.044-.06.557-.046.827.069 1.328.113.49.188.68.283.717.048.018.057.106.057.517 0 .272-.017.554-.037.626-.021.075-.113.206-.214.306a.75.75 0 0 1-.4.232c-.299.077-1.036.08-1.1.004zm-2.173-.422c-.454-.599-1.202-1.962-1.533-2.791-.243-.61-.173-.973.495-2.583.347-.834.422-1.265.251-1.436-.074-.074-.14-.091-.438-.114-1.234-.094-2.424-.614-3.652-1.598-.777-.622-1.57-1.557-1.784-2.104a1.3 1.3 0 0 1-.077-.496c0-.374-.104-.618-.371-.867a1.15 1.15 0 0 0-.589-.322c-.137-.034-.171-.064-.247-.215-.256-.509-.664-1.785-.668-2.09a1.7 1.7 0 0 1 .084-.431 1.1 1.1 0 0 0 .064-.54c-.042-.532-.273-1.267-.461-1.464l-.095-.1.043-.374C3.257 7.428 4.898 3.798 6.411 1.9 6.79 1.424 7.894.302 8.022.261c.264-.083.622.582 1.715 3.186.409.974.869 2.064 1.023 2.423.453 1.058.519 1.371.36 1.7a3.3 3.3 0 0 1-.36.487c-.733.852-1.016 1.579-1.017 2.616-.002 1.735 1.045 3.346 2.795 4.3.553.301.987.419 1.338.363.394-.063.909-.476 1.121-.901.293-.586-.003-1.242-.719-1.594-.339-.166-.678-.224-1.298-.221-.549.003-.683-.013-.861-.103-.094-.047-.102-.069-.102-.265.001-.411.126-.727.404-1.025.364-.39.757-.618 2.335-1.359 1.966-.923 2.076-.968 2.143-.887.024.029.069.199.1.379.067.387.252.872.626 1.635.337.688.543 1.009.7 1.092.279.147.756.8 1.06 1.45.297.636.451.791.739.745.19-.031.401-.193.841-.646.768-.79 1.088-1.29 1.207-1.884.094-.467.116-1.304.042-1.613-.136-.574-.626-1.416-1.102-1.892-.242-.242-.312-.292-.447-.313a.6.6 0 0 1-.256-.108c-.093-.08-.095-.089-.052-.277.087-.377.738-1.947 1.694-4.084C23.416.413 23.645-.047 23.777.004c.324.124 2.497 3.969 2.945 5.212.2.554.263.622.675.727.41.104.557.465.648 1.586.073.899.176 1.363.372 1.67.113.178.282.287.448.287.045 0 .094.037.118.09.074.162.007.335-.228.595-.254.28-.283.382-.277.957.007.608.189 1.22.405 1.361.116.076.148.176.092.285-.151.291-.943 1.152-1.845 2.006-.513.485-1.446 1.701-1.797 2.343-.3.548-.939 1.105-1.705 1.486a3.05 3.05 0 0 1-1.145.341c-.555.057-.87.237-1.056.603-.359.708-.032 1.968.808 3.111a1.4 1.4 0 0 1 .182.338c.039.134.034.181-.046.413-.168.484-1.179 2.226-1.639 2.824-.23.3-.362.409-.451.375-.103-.039-.379-.519-.653-1.136-.846-1.901-1.62-4.494-1.458-4.886.051-.124.12-.157.576-.274.699-.18 1.062-.441 1.062-.764 0-.214-.177-.331-.661-.439-.364-.081-1.64-.087-3.495-.016-1.911.073-2.172.116-2.482.405-.175.164-.407.553-.407.684 0 .103.137.247.293.31.08.032.294.085.476.118.388.07.507.11.688.23.201.133.228.223.167.543-.098.513-.405 1.52-1.02 3.345-.685 2.035-.846 2.386-1.09 2.386-.086 0-.138-.041-.269-.214zm9.828-9.14c.121-.046.166-.214.129-.483-.03-.222-.422-1.072-.566-1.227-.14-.151-.278-.204-.399-.155-.151.063-.196.206-.18.579.011.27.025.33.088.373.149.103.168.134.168.273 0 .19.096.502.177.573.112.099.409.134.584.067zm-11.228-.321c.053-.04.177-.232.274-.427.153-.306.18-.393.195-.637.02-.318-.018-.428-.167-.484-.133-.051-.347.021-.347.117 0 .044-.034.079-.088.093-.101.026-.172.156-.172.318 0 .088-.028.128-.131.189-.172.101-.195.151-.225.487-.024.26-.019.288.058.365.072.072.114.081.295.068a.65.65 0 0 0 .309-.088zm-1.485-.646c.038-.033.094-.123.124-.198s.112-.181.182-.235c.103-.078.127-.123.127-.229 0-.099.028-.159.112-.237a.48.48 0 0 0 .145-.281q.033-.176.13-.255a.4.4 0 0 0 .12-.198c.018-.096.004-.137-.073-.214s-.132-.096-.281-.096c-.337 0-.453.082-.541.384-.057.195-.148.312-.311.395a.24.24 0 0 0-.107.135c-.014.055-.05.092-.089.092a.3.3 0 0 0-.154.071c-.081.066-.088.098-.088.427 0 .28.013.369.061.417.131.131.502.143.642.021zm14.317.012c.117-.117.11-.231-.035-.597-.156-.393-.235-.512-.395-.595-.06-.031-.109-.081-.109-.111s-.068-.097-.15-.149c-.104-.065-.157-.129-.173-.206-.032-.163-.209-.296-.391-.296-.303 0-.388.116-.308.422.069.264.176.449.369.64.109.108.186.24.277.476.161.418.227.471.587.473.195.001.284-.015.326-.057zm1.298-1.013a.45.45 0 0 0 .071-.214c.012-.139.004-.152-.127-.215-.077-.036-.14-.092-.14-.123s-.059-.091-.131-.134c-.072-.042-.131-.098-.131-.125s-.055-.09-.121-.141a.6.6 0 0 1-.189-.287c-.053-.152-.091-.202-.176-.232s-.113-.066-.13-.174c-.043-.271-.057-.301-.158-.349-.056-.027-.107-.085-.114-.129-.017-.121-.125-.144-.206-.044-.091.112-.061.312.11.736.132.329.232.47.359.511.045.014.122.132.202.308.135.298.251.453.336.453.028 0 .061.029.074.065.045.126.097.158.253.158.103 0 .178-.023.216-.065zm-17.029-.13a.35.35 0 0 0 .058-.169q.002-.085.087-.119c.087-.033.117-.083.298-.495.068-.156.118-.219.185-.236.226-.057.502-.539.535-.936.019-.229.013-.263-.06-.328-.138-.124-.45-.07-.45.078 0 .029-.041.071-.09.093-.057.026-.125.12-.183.255-.072.167-.118.223-.207.254-.072.025-.122.073-.137.132a.16.16 0 0 1-.113.115c-.056.014-.11.071-.144.152-.03.071-.071.13-.091.13-.077 0-.154.123-.154.246 0 .098-.032.161-.13.26s-.13.162-.13.258c0 .284.123.382.492.389.141.003.186-.013.233-.079zM6.537 14.21c.072-.042.349-.289.615-.547q.484-.47.652-.541c.092-.039.229-.118.305-.176.158-.121.309-.402.274-.51-.036-.113-.24-.164-.48-.119-.35.065-.529.171-1.093.649-.14.119-.36.266-.489.326q-.234.111-.307.231c-.143.235-.06.658.15.763.105.052.185.036.373-.075zm19.267.082c.199-.069.202-.285.009-.716-.116-.258-.213-.341-.506-.434-.247-.078-.296-.111-.358-.244-.039-.084-.132-.151-.369-.27-.689-.344-1.188-.421-1.192-.185 0 .016.056.063.125.104.082.048.134.112.148.182.018.09.056.12.237.188.288.107.384.173.384.266q0 .077.111.119a.25.25 0 0 1 .142.135c.025.074.069.101.215.132.149.032.186.055.196.125.007.05.05.1.103.12.081.031.157.152.217.345.023.073.217.172.343.174a.7.7 0 0 0 .196-.04zm.808-1.601c.134-.126.126-.305-.02-.409-.061-.044-.112-.102-.112-.13 0-.092-.187-.274-.327-.32-.076-.025-.218-.085-.314-.133s-.216-.088-.265-.088c-.126 0-.845-.217-.955-.288-.121-.078-.403-.085-.449-.01a.18.18 0 0 0-.014.13c.05.179.159.263.54.42.276.113.42.195.5.285a.47.47 0 0 0 .242.152c.231.044.252.057.275.171.016.079.058.129.144.169.067.031.164.081.215.112.136.081.426.048.542-.061zm-19.944-.498c1.065-.527 1.323-.684 1.323-.804 0-.172-.184-.179-.913-.035-.923.182-1.292.344-1.661.728-.22.23-.23.248-.211.39.051.38.182.355 1.462-.279m-.84-1.32c.06-.065.131-.119.157-.119s.502-.05 1.055-.112c1.139-.126 1.185-.141 1.204-.398.018-.237 0-.241-.78-.199-1.507.083-2.211.156-2.411.251-.281.134-.338.611-.082.688.051.015.24.023.42.018.315-.01.331-.014.436-.129zm21.217.033c.186-.23-.043-.553-.398-.559a19 19 0 0 1-.988-.114c-1-.133-1.828-.155-1.944-.05-.09.081-.086.18.01.27.058.054.155.079.363.097.626.052 1.587.239 1.906.372.188.078.278.089.648.08.295-.008.339-.018.401-.094zM8.44 9.254c.297-.15.243-.339-.14-.494-.139-.056-.394-.17-.567-.253-.292-.141-.356-.156-.932-.221-.34-.039-.897-.08-1.239-.091l-.62-.021-.056.088c-.073.117-.112.447-.067.567.02.052.075.117.122.143.082.045 2.749.353 3.144.362a.7.7 0 0 0 .354-.079zm17.002-.118c.812-.09 1.512-.182 1.555-.205.091-.049.136-.24.107-.454-.031-.231-.071-.257-.395-.257-.662.001-1.125.07-2.146.322-1.116.275-1.206.318-1.161.543.037.185.084.215.335.215.126 0 .893-.074 1.706-.164zM8.849 7.977c.072-.087.056-.223-.048-.399-.145-.246-1.933-2.201-2.136-2.335-.188-.124-.206-.13-.349-.118-.349.03-.488.586-.259 1.032.114.222.74.792 1.3 1.183.392.274 1.217.692 1.365.693.044 0 .1-.025.126-.056zm14.881-.123c.567-.292 1.406-.906 1.847-1.35.223-.225.42-.459.461-.55.072-.157.072-.16 0-.323-.097-.22-.363-.506-.471-.506-.141 0-.453.278-1.367 1.216-.922.946-1.054 1.123-1.054 1.412 0 .339.092.355.584.101"/></svg>