<svg xmlns="http://www.w3.org/2000/svg" xml:space="preserve" fill-rule="evenodd" stroke-linejoin="round" stroke-miterlimit="2" clip-rule="evenodd" viewBox="0 0 23 30"><path fill-rule="nonzero" d="M12.073.58c-.014.088-.063.345-.083.52-.028.247-.06.639-.083.957-.024.32-.042.75-.063.958-.01.099-.04.195-.063.292a3 3 0 0 1-.083.292c-.02.052-.06.096-.083.145-.024.047-.042.097-.063.146q-.03.076-.063.146a1 1 0 0 1-.083.146c-.023.032-.045.072-.083.083-.097.028-.333.06-.5.083s-.368.042-.5.063c-.097.016-.194.063-.291.063s-.23-.042-.292-.063a.17.17 0 0 1-.083-.063c-.028-.038-.055-.11-.083-.167-.028-.056-.055-.129-.083-.167-.02-.028-.059-.042-.083-.063-.022-.019-.048-.038-.063-.063-.02-.035-.039-.099-.063-.146a1 1 0 0 0-.083-.145.4.4 0 0 0-.083-.083c-.038-.028-.097-.083-.146-.083s-.11.055-.146.083c-.027.022-.056.049-.063.083-.02.1-.039.347-.063.52s-.055.41-.083.521c-.014.054-.059.097-.083.146-.024.047-.041.11-.062.146-.015.025-.041.044-.063.063-.024.02-.057.04-.083.063-.028.024-.047.067-.083.083a.9.9 0 0 1-.292.083c-.097 0-.22-.055-.292-.083-.052-.02-.097-.06-.146-.083-.047-.024-.11-.042-.146-.063a.2.2 0 0 1-.063-.063c-.02-.035-.039-.1-.063-.146-.024-.05-.055-.097-.083-.146s-.059-.097-.083-.146a1 1 0 0 1-.063-.146c-.02-.062-.039-.154-.063-.229a2 2 0 0 0-.083-.229c-.023-.05-.055-.097-.083-.146s-.06-.094-.083-.145a2 2 0 0 1-.083-.23c-.024-.074-.041-.18-.062-.228a.15.15 0 0 0-.063-.063c-.035-.021-.097-.063-.146-.063-.05 0-.108.042-.146.063-.03.017-.078.029-.083.063-.028.209-.06.791-.083 1.187-.024.395-.042.955-.063 1.186-.007.072-.04.14-.063.208-.024.07-.055.16-.083.208-.02.034-.06.055-.083.083-.023.026-.042.06-.063.083-.019.022-.038.048-.063.063-.035.021-.099.04-.146.063a1 1 0 0 0-.146.083.4.4 0 0 0-.083.083 1 1 0 0 0-.083.146c-.024.047-.042.097-.063.146q-.029.075-.063.146c-.024.049-.06.094-.083.146-.029.068-.064.212-.088.26-.01.02-.042.015-.058.03-.02.02-.033.066-.063.083-.049.028-.152.06-.228.083-.075.024-.177.042-.23.063-.031.013-.056.04-.082.063a1 1 0 0 0-.083.083c-.023.026-.042.06-.063.083a1 1 0 0 1-.063.063c-.024.021-.057.04-.083.063a1 1 0 0 0-.083.083c-.023.026-.042.059-.063.083a1 1 0 0 1-.063.063c-.024.021-.057.04-.083.063a.8.8 0 0 0-.146.166c-.02.038-.039.099-.063.146-.024.049-.055.097-.083.146s-.059.097-.083.146c-.024.047-.042.097-.063.146q-.029.074-.063.145c-.024.05-.055.097-.083.146-.028.05-.059.097-.083.146-.024.047-.042.108-.063.146a.812.812 0 0 1-.146.166c-.025.023-.058.042-.082.063-.022.02-.048.038-.063.063-.021.035-.04.099-.063.146-.024.049-.07.092-.083.146-.028.11-.06.347-.083.52s-.042.386-.063.521c-.015.098-.04.195-.063.292-.024.097-.061.193-.083.292a8 8 0 0 0-.083.438c-.024.145-.042.327-.063.437a2 2 0 0 1-.063.23c-.024.075-.055.155-.083.228-.027.07-.059.14-.083.208s-.042.149-.063.208q-.027.075-.063.146c-.024.049-.055.097-.083.146l-.083.146c-.028.049-.06.095-.083.146a2 2 0 0 0-.083.228 4 4 0 0 0-.063.23c-.02.086-.039.194-.063.291s-.055.23-.083.292c-.016.036-.045.072-.083.083a3.4 3.4 0 0 1-.5.083c-.165.014-.416-.035-.5 0-.063.027-.01.139 0 .208s.043.16.064.208c.014.032.04.057.063.083a1 1 0 0 0 .083.083c.026.023.059.042.083.063a1 1 0 0 1 .063.063c.02.024.036.06.063.082a1 1 0 0 0 .146.083c.047.024.108.042.146.063q.044.027.082.063a1 1 0 0 1 .083.083c.023.026.042.06.063.083a1 1 0 0 0 .063.063c.024.021.057.04.083.063a1 1 0 0 1 .083.083c.023.026.057.05.063.083.021.111.04.389.063.583.024.194.055.448.083.582.016.08.055.153.083.23.028.075.067.148.083.228.028.135.06.389.083.583s.042.43.063.583c.015.111.045.221.063.332s.033.283.044.333c.003.014.014-.024.023-.035s.018-.038.032-.035.049.04.054.054c.004.015-.012.031-.026.038-.02.01-.078.012-.087.022s.025.024.033.04c.02.04.068.138.094.208.026.068.042.149.063.208q.027.075.063.146c.024.049.068.092.083.146.028.097.059.292.083.437s.042.35.063.437c.008.034.04.057.063.083a1 1 0 0 0 .083.083c.026.023.059.042.083.063q.034.03.063.063c.02.026.038.067.063.096.043.049.146.149.195.196q.045.045.096.083c.04.028.097.055.146.083.05.028.108.055.146.083.032.023.055.059.083.083.026.023.06.042.083.063a1 1 0 0 1 .063.063c.021.024.04.057.063.083a1 1 0 0 0 .083.083c.026.023.059.041.083.062.022.02.048.038.063.063.02.035.039.1.063.146.024.05.055.108.083.146.023.032.059.055.083.083.023.026.042.06.063.083a1 1 0 0 0 .063.063c.024.021.057.04.083.063.028.024.055.055.083.083s.055.059.083.083c.026.023.059.042.083.063a1 1 0 0 1 .063.063c.02.024.04.057.063.083a1 1 0 0 0 .082.083c.026.023.06.042.083.063.022.019.056.034.063.063.021.083.063.292.063.438 0 .145-.042.35-.063.436-.008.034-.04.057-.063.083-.024.028-.055.055-.083.083-.027.028-.05.06-.082.083a1 1 0 0 1-.146.083c-.047.024-.097.042-.146.063-.05.021-.1.039-.146.063-.05.024-.094.063-.146.083a3 3 0 0 1-.292.083c-.097.024-.219.042-.292.063a1 1 0 0 0-.146.063 1 1 0 0 0-.146.083.4.4 0 0 0-.083.083c-.028.038-.083.097-.083.146s.055.11.083.146c.022.027.06.042.083.063a1 1 0 0 1 .063.063c.021.024.036.06.063.082a1 1 0 0 0 .146.083c.047.024.097.042.146.063q.074.03.146.063c.049.024.108.055.146.083.032.023.055.06.083.083a.5.5 0 0 0 .083.063c.038.021.099.04.146.063.049.024.108.055.146.083.032.023.055.06.083.083a.5.5 0 0 0 .083.063c.038.021.099.039.146.063.048.024.096.055.145.083.05.028.097.059.146.083.047.024.097.042.146.063q.076.029.146.063c.05.024.111.055.146.083.027.022.042.055.063.083s.036.06.063.083a1 1 0 0 0 .146.083c.047.024.097.042.146.063q.074.029.146.063c.049.024.108.055.146.083.032.023.055.059.083.083a.5.5 0 0 0 .083.062c.038.021.099.04.146.063.049.024.097.055.146.083s.096.06.145.083c.047.024.097.042.146.063.05.021.097.063.146.063.05 0 .095-.048.146-.063.073-.02.195-.063.292-.063s.219.042.292.063a1 1 0 0 1 .146.063c.049.024.095.06.146.083.063.028.153.06.229.083.075.024.15.055.229.063.197.021.638.04.957.063.319.024.639.056.958.083.332.028.695.083 1.037.083.34 0 .844-.058 1.015-.085.026-.004-.012-.075.014-.078.22-.024 1.002-.045 1.307-.066.174-.012.348-.039.52-.063.174-.024.347-.057.521-.083.184-.028.39-.059.583-.083.194-.024.437-.042.583-.063.099-.014.195-.039.292-.063s.194-.055.291-.083.195-.059.292-.083.205-.042.292-.063q.116-.028.229-.062c.076-.024.156-.055.229-.083.07-.027.139-.06.208-.083s.149-.042.208-.063q.075-.028.146-.063c.049-.024.094-.06.145-.083.063-.028.153-.055.23-.083.075-.028.166-.055.228-.083.051-.023.097-.06.146-.083.047-.024.097-.042.146-.063q.074-.03.146-.063c.049-.024.113-.053.146-.079.024-.019.024-.063.052-.077.049-.025.19-.05.24-.074.027-.012.044-.04.063-.063.02-.024.04-.057.063-.083a1 1 0 0 1 .083-.083q.04-.033.083-.063t.083-.063a.8.8 0 0 0 .145-.166c.021-.038.063-.097.063-.146s-.042-.11-.063-.145c-.014-.025-.04-.044-.062-.063-.024-.021-.057-.04-.083-.063-.028-.024-.054-.057-.083-.083-.032-.028-.077-.061-.107-.083-.024-.018-.056-.044-.075-.052-.012-.005-.03.013-.04.005a.5.5 0 0 1-.07-.094c-.025-.041-.054-.102-.082-.151-.027-.05-.06-.097-.083-.146-.024-.047-.042-.097-.063-.146q-.03-.075-.063-.146c-.024-.049-.068-.092-.083-.146a1.8 1.8 0 0 1-.083-.438c0-.145.055-.34.083-.437.015-.054.059-.097.083-.146.024-.047.042-.108.063-.146a.5.5 0 0 1 .063-.083c.024-.028.06-.051.083-.083.028-.038.059-.097.083-.146.024-.047.042-.11.063-.146a.2.2 0 0 1 .063-.063c.038-.02.112-.039.167-.063s.129-.055.167-.083c.028-.02.042-.059.062-.083a1 1 0 0 1 .063-.063c.024-.02.057-.04.083-.063a.8.8 0 0 0 .146-.166c.021-.038.04-.098.063-.145a1 1 0 0 1 .083-.146c.022-.027.06-.042.083-.063a1 1 0 0 0 .063-.063c.021-.024.04-.057.063-.083.024-.028.055-.055.083-.083s.06-.055.083-.083a.5.5 0 0 0 .063-.083c.021-.038.039-.1.063-.146.024-.049.063-.094.083-.146.028-.073.059-.195.083-.292s.042-.233.063-.292c.01-.028.04-.044.063-.063.024-.02.057-.04.083-.063a.8.8 0 0 0 .146-.165c.02-.038.039-.1.063-.146.024-.05.069-.092.083-.146.028-.111.059-.347.083-.521.024-.173.04-.394.063-.52.014-.083.042-.192.066-.24.014-.029.058-.029.078-.053.026-.033.084-.096.084-.145 0-.05-.068-.092-.082-.146a2.3 2.3 0 0 1-.083-.5c0-.167.055-.403.083-.5.01-.038.058-.055.082-.083.023-.026.042-.059.063-.083a1 1 0 0 1 .063-.063c.024-.02.057-.04.083-.063a1 1 0 0 0 .083-.083c.023-.026.042-.059.063-.083a1 1 0 0 1 .063-.063c.024-.02.075-.028.083-.062.028-.121.057-.442.083-.664.026-.225.061-.565.073-.683v-.024c0-.026-.013-.115-.008-.13s.03.028.04.042c.008.013.016.057.017.042.01-.122.026-.513.044-.77s.042-.545.063-.77c.018-.196.063-.39.063-.583 0-.194-.042-.437-.063-.583-.014-.1-.039-.195-.063-.292s-.055-.23-.083-.292c-.016-.036-.055-.055-.083-.083s-.055-.059-.083-.083c-.026-.023-.059-.042-.083-.063a1 1 0 0 1-.063-.063c-.02-.024-.04-.057-.063-.083-.024-.028-.073-.045-.083-.083a2.4 2.4 0 0 1-.083-.52c0-.174.055-.424.083-.521.01-.033.06-.042.083-.063.022-.019.055-.034.063-.063.021-.073.052-.25.063-.375.01-.125.048-.312 0-.374-.048-.063-.192.01-.287 0a2 2 0 0 1-.31-.063c-.052-.014-.113-.024-.15-.063a.5.5 0 0 1-.126-.23c-.007-.075.055-.166.083-.228.023-.051.059-.097.083-.146.024-.047.042-.097.063-.146q.028-.075.063-.146c.024-.049.055-.097.083-.146.027-.049.058-.097.082-.146.024-.047.042-.108.063-.146a.5.5 0 0 1 .063-.083c.024-.028.06-.05.083-.083.028-.038.06-.096.083-.145.024-.047.042-.097.063-.146q.03-.076.063-.146c.024-.05.055-.097.083-.146l.083-.146c.028-.05.063-.094.083-.146.028-.073.07-.195.083-.292.014-.096.052-.243 0-.292s-.21-.014-.313 0a1.7 1.7 0 0 0-.312.083c-.053.02-.097.06-.146.083-.046.024-.11.042-.145.063-.025.015-.044.041-.063.063-.021.024-.04.057-.063.083a.8.8 0 0 1-.166.146c-.038.021-.1.039-.146.063a1 1 0 0 0-.146.083c-.027.022-.042.059-.063.083-.02.022-.034.055-.063.063-.073.02-.25.063-.375.063s-.302-.042-.375-.063a.1.1 0 0 1-.063-.063 2.5 2.5 0 0 1-.063-.375c-.01-.125.038-.313 0-.375-.038-.063-.154-.014-.229 0s-.152.055-.228.083-.153.083-.23.083a.6.6 0 0 1-.228-.083c-.03-.017-.046-.053-.063-.083-.021-.038-.063-.097-.063-.146s.042-.097.063-.146q.029-.074.063-.145c.024-.05.06-.095.083-.146.028-.063.069-.153.083-.23.014-.074.027-.19 0-.228s-.112-.014-.163 0-.09.068-.141.083a2.7 2.7 0 0 1-.42.083c-.145.014-.369.024-.443 0-.046-.015.013-.1 0-.146-.014-.05-.055-.097-.083-.146s-.059-.097-.083-.146c-.024-.047-.042-.108-.063-.146a.812.812 0 0 0-.146-.166c-.025-.023-.058-.042-.082-.063a1 1 0 0 1-.063-.063c-.021-.024-.04-.057-.063-.083a1 1 0 0 0-.083-.083c-.026-.023-.051-.05-.083-.063-.052-.02-.154-.039-.23-.063-.075-.024-.155-.055-.228-.082-.07-.027-.139-.06-.208-.083s-.149-.042-.208-.063a1 1 0 0 1-.146-.063c-.049-.024-.097-.055-.146-.083s-.097-.06-.146-.083c-.047-.024-.097-.042-.145-.063q-.076-.03-.146-.063c-.05-.024-.095-.06-.146-.083a2 2 0 0 0-.23-.083 4 4 0 0 0-.228-.063c-.087-.021-.195-.04-.292-.063-.097-.024-.194-.059-.292-.083a7 7 0 0 0-.375-.083c-.124-.024-.287-.042-.374-.063-.052-.012-.1-.039-.146-.063a1 1 0 0 1-.146-.083.3.3 0 0 1-.063-.083c-.021-.038-.04-.099-.063-.146-.024-.049-.063-.094-.083-.146a3 3 0 0 1-.083-.291c-.024-.097-.042-.205-.063-.292a4 4 0 0 0-.063-.23c-.024-.075-.055-.155-.083-.228-.027-.07-.059-.139-.083-.208q-.034-.103-.063-.208c-.02-.073-.039-.154-.063-.229s-.06-.15-.083-.229c-.028-.1-.059-.25-.083-.374s-.042-.264-.063-.375a5 5 0 0 0-.146-.584c-.02-.052-.059-.097-.083-.146-.024-.047-.042-.097-.063-.146S12.543.24 12.533.19c-.01-.047.046-.13 0-.145-.076-.024-.381-.087-.457 0s0 .431 0 .52q0 .008-.003.014m.458 4.56c.024.013.097.059.146.083.047.024.111.042.146.063.025.015.055.034.063.063.021.073.063.25.063.374 0 .125-.042.302-.063.375-.008.03-.04.044-.063.063-.024.021-.057.04-.083.063-.028.024-.046.07-.083.083-.076.028-.25.083-.374.083-.125 0-.302-.055-.375-.083-.032-.012-.051-.055-.063-.083-.012-.027-.008-.069-.01-.087v-.024c-.01-.094-.043-.362-.052-.538-.008-.171-.062-.43 0-.516.063-.086.25-.014.375 0s.312.07.374.083c.001 0-.002-.002 0-.002M7.367 6.16c.025.011.097.053.146.063s.122-.038.146 0-.014.154 0 .229.058.152.083.229c.028.087.083.195.083.292a.9.9 0 0 1-.083.291c-.016.036-.06.055-.083.083-.023.026-.042.06-.063.083-.019.022-.035.053-.063.063a1 1 0 0 1-.292.063c-.097 0-.23-.042-.292-.063-.033-.01-.057-.04-.083-.063-.028-.024-.055-.055-.083-.083s-.06-.05-.083-.083a1 1 0 0 1-.083-.145 1 1 0 0 1-.062-.146c-.021-.063-.063-.153-.063-.23 0-.075.042-.18.063-.228.012-.027.04-.044.062-.063.024-.021.057-.04.083-.063.028-.024.055-.055.083-.083s.055-.059.083-.083c.026-.023.051-.049.083-.063.05-.02.14-.063.208-.063.07 0 .173.052.208.063zm9.703.145a1 1 0 0 1 .146.083 1 1 0 0 1 .146.146.6.6 0 0 1 .083.146c.028.073.083.195.083.292a.9.9 0 0 1-.083.291c-.016.036-.051.06-.083.083a1 1 0 0 1-.146.083 1 1 0 0 1-.146.063c-.063.021-.153.063-.229.063s-.166-.042-.229-.063a1 1 0 0 1-.146-.063 1 1 0 0 1-.146-.083.2.2 0 0 1-.063-.083 1.7 1.7 0 0 1-.062-.374c0-.125.041-.302.062-.375.008-.03.038-.048.063-.063.035-.021.1-.04.146-.063.05-.024.095-.06.146-.083.063-.028.153-.083.23-.083.075 0 .177.055.228.083m3.957 3.248c.018.02.055.06.083.083.026.023.059.042.083.063.022.02.055.034.063.063.02.073.052.25.063.375.01.125.024.313 0 .375-.018.045-.098-.01-.146 0-.049.01-.096.045-.146.063-.059.02-.139.063-.208.063s-.16-.042-.208-.063c-.032-.014-.057-.04-.083-.063a1 1 0 0 1-.083-.083c-.023-.026-.052-.05-.063-.083a1 1 0 0 1-.063-.292c0-.097.042-.233.063-.292.01-.028.041-.044.063-.063.024-.02.057-.04.083-.063.028-.024.05-.064.083-.083.048-.028.14-.083.208-.083a.5.5 0 0 1 .208.083m-16.908.23c.014.025.059.095.083.146.028.059.083.139.083.208s-.055.149-.083.208c-.024.05-.064.098-.083.146-.018.045.01.118-.031.14-.07.039-.307.06-.385.088-.037.013-.055.083-.083.083s-.05-.06-.083-.083c-.038-.027-.102-.047-.146-.082a.8.8 0 0 1-.146-.146c-.03-.043-.042-.097-.063-.146-.02-.05-.063-.097-.063-.146 0-.05.042-.097.063-.146q.03-.076.063-.146a1 1 0 0 1 .083-.146.2.2 0 0 1 .083-.063c.073-.02.236-.053.354-.063s.295-.024.354 0c.045.02 0 .121 0 .146zm11.786 1.311c-.014.048-.055.233-.083.292-.015.031-.06.042-.083.063a1 1 0 0 0-.063.063c-.021.024-.036.061-.063.083a1 1 0 0 1-.146.083 1 1 0 0 1-.146.063c-.063.02-.154.039-.229.063a2 2 0 0 0-.229.083c-.05.023-.097.059-.146.083-.047.024-.108.042-.146.063a.5.5 0 0 0-.083.063c-.028.024-.05.06-.083.083-.038.028-.097.055-.145.083-.05.028-.111.055-.146.083-.027.022-.042.059-.063.083a1 1 0 0 1-.063.062c-.024.021-.061.036-.083.063a1 1 0 0 0-.083.146 1 1 0 0 0-.063.146c-.021.073-.063.195-.063.292s.042.219.063.292a1 1 0 0 0 .063.146c.024.049.055.108.083.146.023.032.059.055.083.083.023.026.042.059.063.083.019.022.035.054.063.063.062.02.207.063.311.063s.212-.042.313-.063q.146-.03.292-.063c.097-.024.219-.055.292-.083.052-.02.097-.06.146-.083.047-.024.11-.042.146-.063.025-.015.044-.041.063-.063.02-.024.04-.057.063-.083a1 1 0 0 1 .083-.083c.026-.023.059-.042.083-.063.022-.019.048-.038.063-.063.02-.035.039-.099.063-.146.024-.049.055-.108.083-.146.023-.032.059-.055.083-.083.023-.026.041-.059.062-.083a1 1 0 0 1 .063-.063c.024-.02.057-.04.083-.063a.8.8 0 0 0 .146-.166c.021-.038.04-.098.063-.145.024-.05.055-.108.083-.146.023-.032.06-.055.083-.083.023-.026.042-.06.063-.083.02-.022.038-.048.063-.063.035-.021.1-.04.146-.063.049-.024.108-.055.146-.083.032-.023.055-.06.083-.083a.5.5 0 0 1 .083-.063c.038-.021.099-.04.146-.063.049-.024.108-.055.146-.083.032-.023.055-.059.083-.083.026-.023.059-.042.083-.063a1 1 0 0 0 .063-.063c.02-.024.04-.057.063-.083a.8.8 0 0 1 .166-.146c.037-.02.098-.039.145-.063.05-.024.095-.059.146-.083.06-.028.14-.069.208-.083s.173-.049.208 0c.035.05.01.195 0 .292a2 2 0 0 1-.063.292c-.01.033-.04.057-.063.083-.024.028-.064.049-.083.083-.028.048-.059.139-.083.208s-.042.159-.063.208c-.014.032-.063.055-.063.083s.05.05.063.083c.021.052.04.154.063.228.024.076.058.152.083.23.028.086.083.194.083.291s-.055.22-.083.292c-.02.052-.059.097-.083.146-.024.047-.042.097-.063.146s-.032.103-.063.146a.7.7 0 0 1-.146.146c-.043.03-.107.042-.145.063a.5.5 0 0 0-.083.063c-.028.024-.051.06-.083.083a1 1 0 0 1-.146.083c-.047.024-.111.042-.146.062-.025.015-.044.041-.063.063-.021.024-.04.057-.063.083a1 1 0 0 1-.083.083c-.026.023-.05.057-.083.063a4 4 0 0 1-.583.063c-.194 0-.437-.042-.582-.063-.1-.014-.195-.053-.292-.063s-.243-.049-.292 0c-.05.05-.01.195 0 .292s.042.23.063.292a.2.2 0 0 0 .063.083.5.5 0 0 0 .146.083c.047.013.127-.045.146 0 .024.059.01.236 0 .354a2.5 2.5 0 0 1-.063.354c-.011.038-.04.07-.063.1-.024.03-.06.048-.083.078a1 1 0 0 0-.083.13c-.024.046-.042.1-.063.15q-.03.076-.063.146a1 1 0 0 1-.083.146c-.022.027-.06.042-.083.063-.022.02-.048.038-.063.063a.5.5 0 0 0-.063.146c-.01.048.046.13 0 .146-.076.024-.306.01-.458 0a4 4 0 0 1-.458-.063c-.07-.013-.138-.063-.207-.063-.07 0-.16.042-.208.063-.032.014-.057.04-.083.063a1 1 0 0 0-.083.083q-.033.04-.063.083t-.063.083a1 1 0 0 1-.083.083c-.026.023-.052.047-.083.063-.04.02-.104.039-.151.063a.7.7 0 0 0-.129.083c-.025.022-.035.059-.058.083a.3.3 0 0 1-.079.062 1 1 0 0 1-.229.063c-.076.01-.19-.024-.229 0-.038.024-.013.1 0 .146a.5.5 0 0 0 .083.146c.023.032.06.055.083.083.023.026.042.06.063.083a1 1 0 0 0 .063.063c.024.021.057.04.083.063a1 1 0 0 1 .083.083c.023.026.042.059.063.083.02.022.036.051.063.063.049.021.153.052.229.063.076.01.19.035.229 0 .038-.035-.01-.139 0-.208a1 1 0 0 1 .063-.208c.014-.032.04-.057.063-.083a1 1 0 0 1 .083-.083c.026-.023.05-.054.083-.063a3 3 0 0 1 .374-.063c.125-.01.312-.024.375 0 .045.018-.01.098 0 .146.01.05.054.094.063.146.021.122.063.389.063.583s-.042.45-.063.583c-.01.071-.039.14-.063.207-.024.07-.055.16-.083.208a.2.2 0 0 1-.083.083 1.4 1.4 0 0 1-.291.083c-.096.014-.243.038-.292 0-.05-.038.014-.154 0-.229s-.055-.166-.083-.229c-.023-.05-.06-.096-.083-.145-.024-.047-.042-.111-.063-.146-.015-.025-.041-.044-.063-.063-.024-.021-.055-.063-.083-.063s-.06.042-.083.063a1 1 0 0 0-.063.063c-.021.024-.04.057-.063.083-.024.028-.064.049-.083.083-.028.047-.059.138-.083.207s-.042.145-.063.208c-.019.056-.052.111-.063.167-.01.055.038.14 0 .167-.038.028-.154.014-.229 0a1 1 0 0 1-.229-.083c-.03-.017-.042-.055-.063-.083q-.03-.043-.063-.083c-.024-.028-.064-.049-.083-.083-.028-.048-.059-.139-.083-.208-.023-.068-.041-.149-.062-.207a1 1 0 0 0-.063-.146c-.024-.05-.055-.097-.083-.146-.028-.05-.083-.097-.083-.146 0-.05.055-.097.083-.146.028-.05.059-.097.083-.146a1 1 0 0 0 .063-.146c.02-.073.053-.195.062-.292s.094-.266 0-.292c-.173-.049-.867-.035-1.041 0-.068.014-.014.14 0 .208.014.07.055.15.083.208.024.051.059.097.083.146.024.047.042.097.063.146q.029.075.063.146c.024.049.06.095.083.146.028.062.083.153.083.229s-.055.166-.083.229c-.023.05-.06.096-.083.145a1 1 0 0 0-.063.146c-.021.062-.04.154-.063.23-.024.075-.055.18-.083.228a.15.15 0 0 1-.083.063 2.4 2.4 0 0 1-.354.063c-.118.01-.295.097-.354 0s.014-.389 0-.583-.055-.412-.083-.582c-.024-.147-.083-.292-.083-.438s.055-.35.083-.438c.012-.037.06-.055.083-.083.023-.026.042-.059.063-.083a1 1 0 0 1 .063-.063c.024-.02.061-.036.083-.063.028-.035.083-.097.083-.146s-.055-.108-.083-.145c-.023-.032-.059-.055-.083-.083-.023-.026-.042-.06-.063-.083a1 1 0 0 0-.063-.063c-.024-.021-.057-.04-.083-.063-.028-.024-.05-.06-.083-.083-.037-.028-.096-.055-.145-.083-.05-.028-.111-.055-.146-.083-.027-.022-.042-.06-.063-.083-.02-.022-.038-.048-.063-.063-.035-.021-.1-.04-.146-.063-.05-.024-.092-.068-.146-.083-.101-.028-.305-.059-.458-.083-.152-.024-.37-.042-.458-.063-.029-.007-.044-.04-.063-.063-.02-.024-.04-.057-.063-.083-.024-.028-.06-.05-.083-.083-.028-.038-.048-.102-.083-.146a.8.8 0 0 0-.145-.146c-.043-.03-.097-.042-.146-.063q-.076-.029-.146-.063a1 1 0 0 1-.146-.083.2.2 0 0 1-.063-.082 1 1 0 0 1-.063-.292c0-.097.042-.22.063-.292a1 1 0 0 1 .063-.146 1 1 0 0 1 .083-.146c.022-.027.107-.042.083-.063a.55.55 0 0 0-.23-.063c-.075 0-.15.05-.228.063-.125.021-.347.063-.52.063-.175 0-.41-.042-.522-.063-.051-.01-.098-.039-.145-.063a1 1 0 0 1-.146-.083c-.027-.022-.042-.055-.063-.083q-.03-.043-.063-.083c-.024-.028-.062-.05-.083-.083a1 1 0 0 1-.083-.185c-.021-.066-.032-.18-.041-.21-.004-.012-.011.027-.016.04-.006.016-.011.058-.021.064s-.04-.014-.041-.03c-.022-.243-.06-1.157-.088-1.427-.007-.069-.062-.13-.083-.19-.02-.053-.024-.12-.042-.164a.3.3 0 0 0-.068-.101c-.04-.038-.128-.095-.17-.128-.03-.023-.076-.052-.09-.07-.008-.01.013-.03.005-.04-.008-.008-.035-.007-.052-.012-.033-.01-.103-.016-.146-.044a.5.5 0 0 1-.146-.146c-.022-.044-.047-.134 0-.146.097-.024.39-.014.583 0 .194.014.45.055.583.083.073.015.139.059.208.083s.159.042.207.063c.032.014.057.04.083.063.028.024.055.055.083.083l.083.083c.028.028.06.055.083.083.023.026.042.059.063.083a1 1 0 0 0 .063.062c.024.021.057.04.083.063a1 1 0 0 1 .083.083c.023.026.042.06.063.083a1 1 0 0 0 .063.063c.024.021.057.04.083.063a1 1 0 0 1 .083.083c.023.026.042.06.063.083a1 1 0 0 0 .063.063c.024.021.06.036.083.063a1 1 0 0 1 .083.146c.024.047.042.108.063.146q.027.045.063.083a1 1 0 0 0 .083.083c.026.023.05.049.083.063.049.02.14.039.208.063.069.024.135.068.207.083.135.028.403.083.604.083s.493-.055.604-.083c.034-.008.042-.06.063-.083a1 1 0 0 1 .063-.063c.024-.021.057-.04.083-.063a1 1 0 0 0 .083-.083c.023-.026.055-.05.063-.083a2.2 2.2 0 0 0 .063-.438c0-.146-.042-.354-.063-.438-.007-.029-.041-.044-.063-.063-.024-.02-.057-.04-.083-.062a1 1 0 0 1-.083-.083q-.033-.04-.063-.083t-.063-.083a1 1 0 0 0-.083-.083c-.026-.023-.05-.057-.083-.063-.111-.021-.389-.04-.583-.063-.194-.024-.472-.055-.582-.083-.038-.01-.055-.06-.083-.083-.026-.023-.06-.042-.083-.063a1 1 0 0 1-.063-.063c-.021-.024-.04-.057-.063-.083-.024-.028-.064-.049-.083-.083a.8.8 0 0 1-.083-.208c-.014-.068-.024-.173 0-.208s.098-.01.146 0c.049.011.097.042.146.063q.075.03.146.063c.049.024.094.063.145.083.073.028.195.083.292.083s.205-.055.292-.083c.077-.025.153-.083.23-.083.075 0 .176.055.228.083.035.018.055.06.083.083.026.023.059.042.083.063a1 1 0 0 1 .063.063c.02.024.04.057.063.083a1 1 0 0 0 .083.083c.026.023.05.049.083.063.049.02.14.039.208.063.069.024.16.055.207.083.034.019.055.059.083.083.026.023.06.042.083.063.022.019.05.037.063.063.021.038.031.117.063.167a.7.7 0 0 0 .146.167c.042.033.097.041.146.062.05.021.097.063.146.063.05 0 .097-.042.146-.063q.074-.028.146-.062c.049-.024.093-.066.146-.083.087-.028.25-.083.375-.083s.25.055.374.083c.125.028.25.083.375.083s.288-.055.375-.083c.053-.017.097-.055.146-.083s.111-.055.146-.083c.027-.022.042-.06.063-.083a1 1 0 0 1 .063-.063c.024-.021.057-.04.083-.063a1 1 0 0 0 .083-.083c.023-.026.042-.06.063-.083.019-.022.038-.048.063-.063.035-.021.099-.04.146-.063.049-.024.108-.055.146-.083.032-.023.055-.059.083-.083.026-.023.059-.042.083-.063a1 1 0 0 0 .062-.063c.021-.024.035-.063.063-.083.038-.028.111-.059.167-.083.055-.024.115-.042.167-.063q.076-.028.146-.063c.05-.024.095-.059.146-.083.06-.028.139-.059.208-.083q.103-.034.208-.063c.073-.02.153-.052.229-.063.076-.01.19-.049.229 0 .038.05 0 .244 0 .292 0 .002-.003-.006-.003-.004m1.165 1.832c-.018.02-.055.06-.083.083-.026.023-.059.042-.083.063-.022.02-.05.036-.063.063a.7.7 0 0 0-.063.229c0 .076.042.18.063.229a.13.13 0 0 0 .063.063.7.7 0 0 0 .229.063c.076 0 .177-.042.229-.063.032-.013.057-.04.083-.063a.8.8 0 0 0 .146-.166c.02-.038.063-.097.063-.146s-.042-.11-.063-.146c-.015-.025-.041-.044-.063-.063-.024-.02-.057-.04-.083-.063-.028-.024-.051-.06-.083-.083-.038-.028-.097-.083-.146-.083s-.114.055-.146.083m-5.872.146c-.014.01-.06.036-.083.063a1 1 0 0 0-.083.146c-.024.047-.042.108-.063.146a.5.5 0 0 1-.063.083c-.024.028-.064.049-.083.083-.028.049-.059.139-.083.208s-.042.149-.063.208q-.027.075-.063.146c-.025.049-.07.091-.087.145-.028.085-.04.246-.078.365-.047.153-.14.474-.208.552-.05.056-.16-.055-.208-.083-.034-.019-.055-.059-.083-.083-.026-.023-.05-.056-.083-.063a3 3 0 0 0-.52-.063c-.175 0-.425.042-.522.063a.09.09 0 0 0-.063.063 3 3 0 0 0-.063.438c-.01.146-.073.365 0 .438.073.072.292.01.438 0s.351-.042.438-.063c.034-.008.055-.063.083-.063s.053.046.083.063c.038.02.099.039.146.063.049.024.11.055.146.082.027.022.042.06.063.083a1 1 0 0 0 .063.063c.024.021.06.036.083.063a1 1 0 0 1 .083.146c.024.047.042.108.063.146q.027.045.062.083a1 1 0 0 0 .083.083c.026.023.06.042.083.063a1 1 0 0 1 .063.063c.021.024.036.061.063.083a1 1 0 0 0 .146.083c.047.024.093.056.146.063.16.02.542.063.813.063s.651-.042.811-.063c.053-.007.1-.04.146-.063.05-.024.108-.055.146-.083.032-.023.055-.059.083-.083.026-.023.06-.042.083-.063a1 1 0 0 0 .063-.063c.021-.024.04-.057.063-.083a1 1 0 0 1 .083-.083c.026-.023.059-.042.083-.063a1 1 0 0 0 .063-.063c.02-.024.04-.057.063-.083a.8.8 0 0 1 .166-.146c.038-.02.099-.039.146-.063.049-.024.097-.055.146-.083.049-.027.097-.082.146-.082s.093.065.146.082c.086.028.25.083.374.083.125 0 .302-.055.375-.083.032-.012.042-.058.063-.082a1 1 0 0 1 .063-.063c.024-.021.071-.031.083-.063a2 2 0 0 0 .083-.375c.014-.124.049-.312 0-.375-.049-.062-.195.01-.292 0a2 2 0 0 1-.292-.063c-.057-.016-.11-.063-.167-.063-.056 0-.11.045-.167.063-.065.021-.153.039-.224.063-.07.024-.134.059-.203.083-.08.028-.18.069-.275.083s-.248.038-.297 0c-.05-.038-.01-.153 0-.229s.042-.153.063-.229.063-.153.063-.229-.042-.156-.063-.229q-.03-.106-.063-.207c-.024-.07-.055-.16-.083-.208-.019-.034-.059-.055-.083-.083a.5.5 0 0 1-.063-.083c-.02-.038-.039-.1-.063-.146a1 1 0 0 0-.083-.146.3.3 0 0 0-.083-.063c-.038-.021-.099-.039-.146-.063a1 1 0 0 1-.146-.083c-.027-.022-.042-.059-.063-.083-.019-.022-.034-.058-.063-.063a5 5 0 0 0-.666-.063c-.222 0-.556.053-.667.063m10.579.292c.01.01.044.041.063.063.02.024.036.06.063.083.035.028.102.048.145.083a1 1 0 0 1 .146.146c.035.044.055.097.083.146s.083.097.083.146-.055.097-.083.146-.059.096-.083.145c-.024.047-.042.111-.063.146a.15.15 0 0 1-.063.063.7.7 0 0 1-.228.063.7.7 0 0 1-.23-.063c-.026-.012-.043-.04-.062-.063-.021-.024-.04-.057-.063-.083-.024-.028-.06-.05-.083-.083a1 1 0 0 1-.083-.145 1 1 0 0 1-.063-.146c-.021-.06-.063-.14-.063-.208 0-.07.042-.16.063-.208.014-.032.04-.057.063-.083a.8.8 0 0 1 .166-.146c.038-.021.097-.063.146-.063s.122.053.146.063zM6.95 13.51c-.014.014-.06.05-.083.083-.028.038-.083.097-.083.146s.055.11.083.146c.022.027.06.042.083.063.022.019.042.064.063.063s.044-.056.063-.071c.014-.011.032-.024.05-.021.024.005.081.048.094.049.012 0-.014-.027-.019-.041-.005-.013-.013-.027-.01-.041.007-.031.057-.097.052-.146-.005-.05-.055-.108-.083-.146-.023-.032-.059-.055-.083-.083-.023-.026-.042-.083-.063-.083s-.052.069-.063.083zm-.457 3.31c.01.122.042.569.063.729.01.078.038.154.062.228.024.076.055.156.083.23l.083.207c.028.07.06.137.083.208.028.083.06.195.083.292s.042.219.063.292a1 1 0 0 0 .063.146c.024.049.055.108.083.146.023.032.06.055.083.083a.5.5 0 0 1 .063.083c.021.038.04.098.063.145.024.05.055.097.083.146.028.05.059.097.083.146.024.047.042.108.063.146q.027.044.063.083a1 1 0 0 0 .083.083c.026.023.059.042.083.063.022.02.059.034.063.063.02.17.063.639.063.957 0 .32-.042.774-.063.958-.006.053-.04.099-.063.146a1 1 0 0 1-.083.146.4.4 0 0 1-.083.083 1 1 0 0 1-.146.083c-.047.024-.11.042-.146.063-.025.015-.044.04-.063.063-.02.024-.03.07-.063.083-.073.028-.25.083-.375.083s-.298-.055-.374-.083c-.037-.013-.055-.06-.083-.083-.026-.023-.06-.042-.083-.063a1 1 0 0 1-.063-.063c-.021-.024-.04-.057-.063-.083-.024-.028-.055-.055-.083-.083s-.06-.055-.083-.083a.5.5 0 0 1-.063-.083c-.021-.038-.04-.1-.063-.146-.024-.049-.055-.097-.083-.146s-.06-.097-.083-.146a1 1 0 0 1-.063-.146c-.021-.059-.039-.14-.063-.208a2 2 0 0 0-.083-.208c-.024-.05-.059-.097-.083-.145s-.052-.094-.063-.146c-.02-.097-.039-.293-.063-.438s-.062-.291-.083-.438c-.028-.198-.083-.5-.083-.75s.055-.516.083-.749c.026-.216.06-.43.083-.646.024-.215.042-.5.063-.645.011-.078.04-.154.063-.23.024-.075.055-.165.083-.228.023-.051.059-.097.083-.146.024-.047.042-.097.063-.146s.039-.099.063-.146c.024-.049.055-.108.083-.146.023-.032.059-.055.083-.083.023-.026.042-.059.063-.083.019-.022.036-.05.063-.063.049-.02.153-.052.229-.063.076-.01.206-.073.229 0 .038.122 0 .607 0 .729zm11.16-.666c.015.01.058.04.084.063.028.024.05.06.083.083.038.028.097.06.146.083.047.024.11.042.146.063a.2.2 0 0 1 .062.063c.021.035.04.1.063.146.024.05.055.108.083.146.023.032.06.055.083.083.023.026.042.059.063.083a1 1 0 0 0 .063.063c.024.02.057.04.083.063a.8.8 0 0 1 .146.166c.021.038.04.099.063.146.024.049.055.108.083.146.023.032.06.055.083.083.023.026.042.059.063.083a1 1 0 0 0 .063.062c.024.021.061.036.083.063a1 1 0 0 1 .083.146q.037.07.063.146c.02.062.039.154.063.23.024.075.07.148.083.228.028.174.059.542.083.813s.042.593.063.812c.016.167.063.333.063.5s-.042.403-.063.5c-.007.034-.04.056-.063.082a1 1 0 0 1-.083.083c-.026.023-.06.042-.083.063a1 1 0 0 0-.063.063c-.021.024-.04.057-.063.083a1 1 0 0 1-.083.083c-.026.023-.059.042-.083.063-.022.02-.048.038-.063.063-.021.035-.039.1-.063.146a1 1 0 0 1-.083.146c-.023.032-.059.055-.083.083-.023.026-.042.059-.063.083-.019.022-.038.048-.063.063-.035.02-.099.039-.146.063-.049.024-.095.06-.146.083-.063.028-.153.083-.229.083-.075 0-.166-.055-.228-.083-.051-.023-.097-.06-.146-.083-.047-.024-.111-.042-.146-.063a.15.15 0 0 1-.063-.063c-.021-.049-.04-.154-.063-.229-.024-.076-.055-.18-.083-.229-.017-.03-.055-.042-.083-.063s-.061-.036-.083-.063a1 1 0 0 1-.083-.146c-.024-.047-.042-.108-.063-.146a.5.5 0 0 0-.063-.083c-.024-.028-.06-.05-.083-.082a1 1 0 0 1-.083-.146c-.023-.047-.04-.097-.059-.146-.022-.062-.073-.145-.073-.224 0-.097.05-.29.072-.36.01-.027.037-.044.06-.063s.056-.04.082-.063a1 1 0 0 0 .083-.083c.023-.026.05-.05.063-.083.021-.052.039-.154.063-.229s.055-.156.083-.229l.083-.207c.028-.07.069-.135.083-.208.028-.146.059-.445.083-.667s.042-.52.063-.667c.01-.072.063-.138.063-.207 0-.07-.048-.137-.063-.208-.021-.097-.04-.251-.063-.375a7 7 0 0 0-.083-.375c-.024-.098-.07-.195-.083-.292-.014-.096-.024-.243 0-.292.022-.044.098-.01.146 0 .049.01.12.053.146.063zm-9.12 1.02.083.083c.028.028.06.055.083.083a.5.5 0 0 1 .063.083c.021.038.04.099.063.146.024.049.06.095.083.146.028.058.06.138.083.207s.042.15.063.208c.018.05.063.097.063.146 0 .05-.042.097-.063.146q-.029.076-.063.146c-.024.049-.06.095-.083.146a2 2 0 0 0-.083.229c-.024.075-.048.15-.063.229-.02.11-.039.293-.063.437-.024.146-.055.351-.083.438-.012.037-.049.064-.083.083-.047.028-.138.083-.207.083-.07 0-.16-.055-.208-.083a.2.2 0 0 1-.083-.083c-.028-.052-.06-.153-.083-.229-.024-.075-.042-.156-.063-.229q-.03-.106-.063-.207c-.024-.07-.06-.137-.083-.208a4.216 4.216 0 0 1-.146-.584c-.021-.122-.063-.29-.063-.437 0-.146.042-.34.063-.437.011-.052.039-.1.063-.146.024-.05.055-.108.083-.146.023-.032.059-.055.083-.083q.033-.04.063-.083c.02-.028.032-.068.063-.083a.8.8 0 0 1 .292-.083c.097 0 .244.069.291.083zm7.954.167c.01.014.046.053.063.083.021.038.04.099.063.146.024.049.076.09.083.146.028.204.083.721.083 1.082 0 .36-.055.888-.083 1.082-.006.04-.084.055-.083.083s.083.043.09.083c.013.086-.004.361-.008.43 0 .009-.012-.009-.019-.013s-.015-.011-.023-.01c-.07.007-.277.043-.402.052-.114.008-.287.024-.345 0-.045-.02.013-.099 0-.146-.014-.049-.064-.093-.083-.146a3 3 0 0 1-.083-.313c-.024-.103-.042-.236-.063-.312-.014-.05-.04-.098-.063-.145-.024-.05-.06-.095-.083-.146a2 2 0 0 1-.083-.208q-.034-.103-.063-.208c-.021-.072-.063-.147-.063-.225s.044-.166.063-.249c.02-.09.039-.2.063-.296.024-.092.055-.202.083-.272.02-.052.059-.096.083-.145.024-.047.042-.111.063-.146.015-.025.04-.044.063-.063.024-.021.057-.04.083-.063.028-.024.047-.067.083-.083a.9.9 0 0 1 .292-.083c.096 0 .243.069.291.083.001 0-.003 0-.002.002m-6.454 2.394c.01.024.043.097.063.146.02.052.039.112.063.167s.055.115.083.167c.026.05.059.097.083.146.024.047.055.094.063.146.02.132.062.43.062.646 0 .214-.041.524-.062.645-.006.034-.04.057-.063.083-.024.028-.06.051-.083.083a1 1 0 0 0-.083.146c-.024.047-.042.111-.063.146-.015.025-.041.044-.063.063-.024.02-.057.04-.083.063-.028.024-.048.065-.083.083-.052.028-.153.083-.23.083-.075 0-.165-.055-.228-.083a.7.7 0 0 1-.292-.23c-.03-.042-.042-.11-.063-.145-.015-.025-.04-.044-.063-.063-.024-.02-.074-.03-.083-.063a2.3 2.3 0 0 1-.083-.52c0-.175.055-.4.083-.521.017-.073.06-.14.083-.208s.042-.15.063-.208q.028-.075.063-.146c.024-.049.055-.108.083-.146.023-.032.06-.055.083-.083a.5.5 0 0 0 .063-.083c.021-.038.039-.099.063-.146.024-.049.055-.108.083-.146a.25.25 0 0 1 .083-.083 1 1 0 0 1 .229-.083c.075-.014.19-.024.229 0 .038.024 0 .122 0 .146zm3.498.833c.014.01.06.036.083.063a1 1 0 0 1 .083.146c.024.047.05.094.063.146.02.087.039.25.063.374.024.125.055.253.083.375.027.118.083.236.083.354s-.055.28-.083.354c-.014.037-.051.06-.083.083-.038.028-.097.055-.146.083l-.146.083c-.05.028-.097.083-.146.083s-.097-.055-.146-.083-.102-.048-.146-.083a.8.8 0 0 1-.146-.146c-.03-.043-.046-.096-.063-.146-.02-.063-.039-.154-.063-.229s-.055-.18-.083-.229c-.017-.03-.083-.042-.083-.063s.066-.033.083-.063c.028-.049.06-.153.083-.229.024-.075.042-.167.063-.228q.027-.076.063-.146c.024-.05.055-.097.083-.146.028-.05.06-.097.083-.146.024-.047.042-.111.063-.146a.2.2 0 0 1 .063-.063c.035-.021.097-.063.146-.063s.122.052.146.063zm1.915 0c.014.01.07.03.083.063.028.073.059.25.083.375q.036.187.063.374c.02.146.063.333.063.5s-.042.403-.063.5c-.007.034-.036.06-.063.083-.035.028-.097.055-.146.083l-.146.083c-.049.028-.097.083-.146.083s-.097-.055-.146-.083-.102-.048-.146-.083a1 1 0 0 1-.146-.146.5.5 0 0 1-.083-.146c-.028-.087-.083-.25-.083-.375s.055-.278.083-.375c.02-.072.06-.139.083-.208q.034-.101.063-.207c.021-.073.04-.154.063-.23.024-.075.055-.18.083-.228.017-.03.051-.05.083-.063.048-.021.139-.063.208-.063s.173.052.208.063zm-3.54.146c.015.014.075.045.084.083.028.122.083.43.083.645s-.055.514-.083.646c-.011.055-.06.097-.083.146-.024.047-.042.108-.063.146a.5.5 0 0 1-.063.083c-.024.028-.055.055-.083.083s-.05.064-.083.083c-.048.028-.139.083-.208.083s-.149-.055-.208-.083c-.05-.024-.097-.07-.146-.083-.047-.013-.133.047-.146 0-.024-.087-.01-.348 0-.52.011-.175.042-.41.063-.522.01-.052.04-.099.063-.146.024-.049.055-.106.083-.145.023-.033.057-.063.083-.088.023-.022.061-.047.073-.062.006-.008.001-.021 0-.031-.002-.024-.017-.074-.01-.11.01-.043.053-.097.063-.146s-.044-.124 0-.146c.049-.024.196-.014.292 0 .097.014.244.069.292.083zm-6.58 5.435c.011.01.044.04.063.063.021.024.04.057.063.083.024.028.064.049.083.083.028.048.083.139.083.207 0 .07-.055.16-.083.208-.019.034-.059.055-.083.083-.023.026-.042.06-.063.083-.019.022-.036.051-.063.063a.7.7 0 0 1-.229.063.7.7 0 0 1-.229-.063c-.027-.012-.044-.04-.063-.063-.02-.024-.04-.057-.063-.083-.024-.028-.067-.047-.083-.083a.9.9 0 0 1-.082-.291c0-.097.055-.233.082-.292.015-.031.05-.052.083-.063.063-.021.195-.063.292-.063s.243.052.292.063zm13.368.29a.2.2 0 0 1 .063.064.7.7 0 0 1 .063.228c0 .076-.042.18-.063.23-.012.026-.04.043-.063.062-.024.021-.057.04-.083.063-.028.024-.047.067-.083.083a.9.9 0 0 1-.292.083.8.8 0 0 1-.291-.083c-.031-.015-.052-.05-.063-.083a1 1 0 0 1-.063-.292c0-.097.042-.233.063-.291a.1.1 0 0 1 .063-.063c.073-.021.25-.063.374-.063.125 0 .292.042.375.063m-1.79.291c.014.01.057.04.083.063a1 1 0 0 1 .083.083c.023.026.052.05.063.083.021.062.063.195.063.292s-.042.233-.063.292a.1.1 0 0 1-.063.063c-.073.02-.25.063-.375.063s-.302-.042-.375-.063c-.029-.008-.044-.041-.063-.063-.02-.024-.04-.057-.062-.083-.024-.028-.06-.051-.083-.083-.028-.038-.083-.097-.083-.146s.055-.097.083-.146.048-.102.083-.146a.8.8 0 0 1 .145-.146c.043-.03.096-.045.146-.063.06-.02.14-.063.208-.063.07 0 .173.052.208.063zm-9.829.146c.014.014.055.06.083.083.026.023.06.042.083.063a1 1 0 0 1 .063.063c.021.024.04.057.063.083.024.028.06.051.083.083.028.038.083.097.083.146s-.055.097-.083.146-.059.097-.083.146c-.024.047-.042.108-.063.146-.017.03-.03.069-.063.083a.9.9 0 0 1-.312.083 1 1 0 0 1-.313-.083c-.032-.014-.042-.055-.062-.083q-.03-.043-.063-.083c-.024-.028-.067-.047-.083-.083a.9.9 0 0 1-.083-.292c0-.097.055-.233.083-.292.015-.03.053-.046.083-.063.038-.02.098-.039.145-.063.05-.024.097-.055.146-.083.05-.028.097-.083.146-.083.05 0 .122.07.146.083zm6.747.291a1 1 0 0 1 .146.083 1 1 0 0 1 .146.146c.035.044.055.111.083.146.022.027.059.042.083.063.021.019.048.037.062.063.021.038.063.11.063.167 0 .056-.042.129-.063.167-.014.026-.04.044-.062.063-.024.02-.057.04-.083.063a1 1 0 0 0-.083.083c-.023.026-.042.059-.063.083-.02.021-.038.047-.063.062-.035.021-.097.063-.146.063-.05 0-.097-.042-.146-.063-.05-.02-.103-.032-.146-.062a.8.8 0 0 1-.146-.146.5.5 0 0 1-.083-.146c-.028-.077-.083-.21-.083-.313s.055-.25.083-.313c.014-.032.059-.042.083-.063a1 1 0 0 0 .063-.063c.02-.024.036-.06.063-.083.035-.028.097-.083.146-.083s.114.055.146.083m-3.664.292c.032.02.097.059.146.083.047.024.108.042.145.063.03.017.066.033.083.063a.6.6 0 0 1 .083.229c0 .076-.055.177-.083.229-.018.035-.059.055-.083.083-.022.026-.041.059-.062.083-.02.021-.036.05-.063.062a.7.7 0 0 1-.23.063c-.075 0-.165-.042-.228-.063-.05-.017-.097-.052-.146-.062s-.137.047-.146 0a4 4 0 0 1 0-.75c.009-.048.099.013.146 0 .049-.014.097-.055.146-.083s.097-.083.146-.083.114.055.146.083"/></svg>