<svg xmlns="http://www.w3.org/2000/svg" xml:space="preserve" fill-rule="evenodd" stroke-linejoin="round" stroke-miterlimit="2" clip-rule="evenodd" viewBox="0 0 300 300"><path fill-rule="nonzero" d="M274.913 4.657c-11.432 9.046-27.034 26.373-31.806 35.316-7.129 13.361-10.139 12.743-22.305-4.567-7.375-10.491-15.391-18.816-22.42-23.272-9.404-5.964-9.485-4.575-.376 6.571 21.254 26.006 24.853 61.848 7.989 79.58-3.516 3.698-5.066 3.783-12.118.666-18.676-8.259-45.591-8.365-65.149-.25-21.831 9.059-27.332 2.279-27.291-33.613.028-23.018 1.241-28.211 9.909-42.403 6.994-11.452 6.837-11.057 3.506-8.878-4.125 2.702-16.168 16.957-24.049 28.467-11.925 17.409-17.804 16.678-28.553-3.561-8.476-15.962-25.077-28.184-38.399-28.273-6.359-.043-7.26 1.949-1.341 2.958 14.27 2.438 28.679 18.792 25.189 28.584-1.814 5.091-3.759 5.292-13.761 1.434-13.903-5.36-13.138-.974.984 5.672 30.966 14.57 50.913 40.062 36.761 46.983-6.012 2.94-20.822-.755-25.471-6.356-1.799-2.167-5.647-2.312-5.647-.212 0 4.53 16.99 15.008 31.702 19.547 8.822 2.723 13.228 5.203 17.898 10.085l3.287 3.436-4.124 4.223c-4.903 5.02-5.063 5.803-1.187 5.803 9.129 0 19.072 15.673 14.896 23.48-.628 1.172-1.614 7.113-2.195 13.201s-1.9 12.843-2.932 15.008l-1.876 3.934 6.659 10.41c6.097 9.533 7.243 10.704 13.591 13.897 9.151 4.602 11.051 6.473 12.908 12.735.857 2.889 2.391 6.861 3.409 8.828s2.092 7.177 2.386 11.58c1.155 17.232 1.018 16.852 8.474 23.084 8.556 7.148 8.147 7.868 9.766-17.309 1.659-25.768 2.304-29.996 4.654-30.449 2.665-.516 3.179 4.846 3.195 33.186l.012 25.057 4.509-4.403c8.821-8.614 12.959-16.586 15.425-29.722 3.169-16.869 9.684-26.712 21.979-33.212 6.773-3.58 7.884-5.803 10.52-21.016l2.072-11.972-2.804-4.112c-7.883-11.564-3.8-31.772 8.571-42.428 4.343-3.741 5.21-5.052 4.376-6.609-3.486-6.516 1.097-14.841 8.85-16.071 18.534-2.938 31.124-9.922 37.486-20.79l2.181-3.722-3.294 2.098c-1.812 1.154-4.3 2.977-5.527 4.054-11.204 9.81-29.571 6.754-29.571-4.92 0-11.259 19.696-35.271 28.927-35.271.614 0 3.974-1.068 7.464-2.372 6.988-2.616 6.609-3.555-1.913-4.786-7.124-1.027-9.929-3.913-9.929-10.219 0-8.061 3.884-14.43 18.833-30.888 3.907-4.302 2.782-3.834-4.324 1.792l-.002-.006-.001-.004zm-80.429 177.748c4.724 6.006.561 11.33-10.733 13.725-16.583 3.518-17.428-6.38-1.212-14.241 6.414-3.11 9.188-2.991 11.945.517zm-59.36 2.813c9.234 5.675 11.573 15.173 3.414 13.867-9.935-1.588-18.742-6.92-18.742-11.346 0-6.32 7.216-7.508 15.328-2.522zm59.684 43.895c-7.582 8.613-8.957 19.559-5.865 46.586 1.322 11.542 1.282 12.17-1.096 17.075-3.169 6.546-2.332 7.255 2.588 2.191 10.214-10.516 16.895-30.111 16.934-49.662.04-20.661-4.022-25.895-12.56-16.191zm-87.013 4.752c-8.053 17.203-2.677 49.192 10.594 63.046 3.373 3.519 6.63 4.219 5.23 1.121-1.842-4.069-1.867-23.407-.041-28.973 3.328-10.146 4.454-30.612 2.271-41.332-.462-2.271-1.157-2.511-7.259-2.511h-6.746z"/></svg>