<svg xmlns="http://www.w3.org/2000/svg" width="300" height="300" viewBox="0 0 8206.08 8718.77"><title>factions-destruction-bladeborn-thanateks-tithe</title><g transform="translate(-1210.83 -270.48)"><path d="M2710 8981 c-32 -6 -35 -9 -34 -41 1 -36 139 -385 224 -566 52 -111 120 -222 182 -295 l40 -48 -85 -243 c-142 -403 -308 -872 -447 -1263 -73 -203 -149 -419 -170 -480 -21 -60 -93 -265 -160 -455 -210 -595 -290 -831 -290 -857 0 -14 7 -53 16 -87 9 -33 47 -196 84 -361 64 -279 70 -301 97 -322 189 -152 1921 -1371 2163 -1523 l55 -35 925 0 925 0 85 55 c383 247 2065 1419 2146 1495 l43 40 51 245 c28 135 64 300 80 367 l29 122 -149 418 c-82 230 -198 555 -258 723 -61 168 -172 476 -247 685 -153 426 -415 1166 -478 1352 l-42 121 57 60 c107 112 192 267 321 587 105 260 111 279 88 299 -16 14 -271 16 -2617 15 -1429 -1 -2615 -4 -2634 -8z m4829 -473 c-25 -48 -101 -138 -170 -202 -55 -51 -100 -80 -194 -127 l-123 -60 38 -109 c22 -60 64 -175 94 -257 30 -81 113 -310 185 -508 169 -469 447 -1238 573 -1585 55 -151 124 -342 153 -425 29 -82 90 -249 134 -369 l82 -220 -31 -99 c-16 -55 -41 -157 -56 -226 -14 -69 -27 -136 -30 -148 -2 -12 -30 -42 -62 -66 -199 -153 -1914 -1340 -1961 -1358 -13 -6 -378 -8 -870 -7 l-847 3 -114 78 c-63 43 -155 107 -205 142 -87 62 -167 118 -385 266 -58 40 -130 91 -160 114 -30 22 -91 65 -135 95 -93 62 -591 412 -680 477 -251 184 -302 222 -316 239 -9 10 -26 68 -38 128 -12 59 -38 162 -57 228 -39 136 -39 143 -19 195 8 21 93 259 190 528 210 584 289 802 431 1195 58 162 139 387 179 500 40 113 135 376 210 585 192 534 217 606 213 609 -1 2 -39 19 -84 38 -44 19 -113 56 -153 83 -80 54 -203 179 -239 243 l-23 42 2241 0 2241 0 -12 -22z"/><path d="M3861 8162 c-24 -47 -140 -357 -328 -877 -79 -220 -184 -510 -233 -645 -288 -795 -540 -1505 -540 -1517 0 -2 1148 -3 2550 -3 1699 0 2550 3 2550 10 0 9 -294 822 -575 1590 -70 190 -141 386 -159 435 -191 524 -345 931 -378 1001 l-20 44 -1424 0 -1424 0 -19 -38z"/><path d="M2668 4878 c-9 -7 -36 -64 -62 -127 -41 -103 -44 -116 -32 -140 7 -14 21 -50 30 -78 l18 -53 908 0 c884 0 909 1 915 19 25 78 175 252 287 331 l67 47 -91 7 c-50 3 -526 6 -1058 6 -758 0 -970 -3 -982 -12z"/><path d="M5881 4881 l-65 -6 40 -29 c130 -97 220 -196 286 -313 l30 -53 923 0 922 0 27 74 c14 41 26 78 26 83 0 9 -91 221 -103 241 -7 9 -219 12 -1015 10 -554 -1 -1036 -4 -1071 -7z"/><path d="M5151 4755 c-35 -8 -107 -35 -160 -61 -82 -40 -109 -60 -187 -138 -75 -75 -98 -106 -132 -176 -61 -128 -75 -193 -70 -335 7 -195 62 -318 203 -460 138 -138 300 -205 499 -205 122 0 193 17 301 70 152 75 253 175 325 325 166 346 24 751 -327 929 -87 44 -184 66 -287 65 -55 0 -130 -7 -165 -14z m276 -229 c82 -22 140 -54 204 -114 105 -97 151 -202 152 -347 0 -215 -127 -396 -328 -465 -63 -22 -219 -28 -230 -10 -3 6 -22 10 -41 10 -75 0 -235 109 -295 202 -122 190 -96 429 64 592 66 67 141 112 222 132 68 17 189 17 252 0z"/><path d="M2700 4246 c0 -2 24 -21 53 -42 134 -97 681 -484 847 -599 554 -385 878 -609 905 -623 27 -15 104 -17 811 -17 l782 0 143 97 c459 308 1646 1133 1684 1169 19 19 6 19 -834 19 -774 0 -853 -1 -847 -16 3 -9 9 -59 12 -112 14 -226 -76 -486 -232 -669 -103 -120 -272 -231 -434 -285 -86 -29 -109 -32 -250 -36 -130 -3 -170 0 -249 17 -184 41 -335 126 -481 271 -102 102 -169 209 -216 347 -45 133 -58 224 -51 366 l6 117 -824 0 c-454 0 -825 -2 -825 -4z"/><path d="M1490 3925 c-10 -12 -5 -39 30 -148 52 -165 60 -238 32 -293 -11 -21 -86 -104 -167 -184 -80 -80 -153 -157 -161 -172 -31 -59 -5 -141 55 -173 69 -35 92 -21 288 179 181 184 190 188 280 135 74 -45 140 -107 148 -142 15 -59 -9 -100 -155 -257 -136 -146 -140 -151 -140 -194 0 -76 77 -139 148 -121 17 4 90 70 197 181 221 225 194 223 448 42 53 -39 104 -80 112 -91 26 -37 19 -99 -17 -148 -17 -24 -156 -168 -308 -320 -296 -294 -301 -301 -281 -376 16 -59 67 -103 309 -266 117 -80 149 -97 180 -97 66 0 112 52 112 127 0 33 -8 45 -67 102 -87 84 -103 108 -103 153 0 27 8 46 28 67 29 31 389 347 475 418 84 69 81 71 385 -133 145 -97 270 -187 278 -199 29 -45 33 -40 -368 -502 -215 -248 -195 -233 -332 -233 -62 0 -128 -5 -147 -12 -107 -36 -175 -131 -167 -232 10 -117 125 -272 327 -440 91 -75 370 -275 426 -305 71 -38 150 -21 175 39 19 47 2 74 -122 190 -120 113 -160 175 -173 269 -11 78 6 117 97 223 177 205 637 724 663 748 26 24 31 25 168 25 166 -1 235 -15 276 -56 17 -17 52 -84 87 -166 71 -170 107 -213 177 -213 58 0 108 40 133 106 20 51 17 110 -16 337 -23 153 -35 190 -80 247 -56 71 -124 87 -465 110 -163 10 -232 26 -289 65 -21 14 -53 32 -73 40 -20 8 -53 31 -74 49 -21 19 -53 42 -71 52 -29 14 -73 44 -193 131 -16 11 -57 38 -90 59 -67 42 -220 143 -305 202 -149 102 -228 158 -260 182 -19 15 -63 44 -98 64 -35 21 -99 64 -142 96 -92 69 -140 102 -275 195 -55 37 -118 82 -140 100 -22 18 -52 39 -66 46 -15 8 -70 49 -123 92 -52 42 -99 77 -103 77 -5 0 -38 26 -74 58 -74 65 -172 143 -234 187 -23 17 -59 45 -79 63 -41 36 -57 39 -76 17z"/><path d="M9090 3919 c-19 -12 -107 -79 -195 -149 -241 -191 -507 -391 -730 -547 -476 -334 -1462 -996 -1543 -1037 -56 -28 -66 -30 -420 -56 -202 -15 -287 -51 -331 -142 -34 -71 -82 -442 -67 -522 9 -47 58 -103 102 -115 78 -22 136 23 188 146 80 189 103 228 145 251 71 40 331 57 397 26 21 -10 90 -82 181 -188 82 -94 217 -250 302 -346 246 -279 267 -303 285 -332 28 -42 19 -146 -18 -223 -29 -58 -52 -84 -211 -229 -55 -50 -60 -58 -60 -96 0 -34 6 -47 30 -67 24 -22 36 -25 80 -21 43 4 69 15 156 72 184 121 371 267 480 377 87 87 114 121 148 189 34 68 41 92 41 139 -1 73 -26 127 -83 178 -54 47 -79 53 -227 53 -81 0 -113 4 -138 18 -17 9 -71 62 -119 118 -269 309 -382 442 -415 486 -42 55 -48 96 -20 121 10 9 132 95 272 192 279 192 295 199 356 153 70 -53 505 -441 520 -463 31 -47 12 -89 -77 -175 -69 -65 -81 -82 -86 -116 -10 -76 39 -134 112 -134 35 0 62 14 195 105 184 124 247 171 272 205 22 31 33 88 23 127 -4 18 -101 121 -284 303 -153 151 -292 297 -309 324 -62 95 -43 137 116 248 164 116 167 118 212 118 40 0 46 -5 213 -174 173 -175 200 -195 251 -182 66 16 119 102 97 157 -5 15 -70 90 -145 166 -107 112 -137 149 -146 182 -21 79 15 132 144 209 85 52 92 48 286 -143 91 -89 176 -168 189 -175 73 -38 173 58 156 149 -5 28 -41 70 -175 205 -194 198 -201 210 -176 318 8 35 31 114 51 177 29 94 33 117 23 128 -11 10 -20 9 -48 -8z"/></g></svg>
