<svg xmlns="http://www.w3.org/2000/svg" xml:space="preserve" fill-rule="evenodd" stroke-linejoin="round" stroke-miterlimit="2" clip-rule="evenodd" viewBox="0 0 300 300"><path fill-rule="nonzero" d="M46.881 4.737c25.454.848 25.454.848 33.635 24.476 5.461 15.86 5.461 15.86 21.735 15.86h95.139c15.86 0 15.86 0 20.473-14.903 7.941-24.715 7.941-24.715 34.505-24.649h13.881c4.59 0 5.787 1.675 3.48 6.179-3.437 6.266-6.962 13.836-10.008 21.69l-.457 1.37c-2.937 7.92 0 11.095 7.92 9.986 7.027-1.48 15.621-2.677 24.323-3.35l.718-.043c7.92 0 9.682 3.025 5.787 9.421-5.091 8.398-11.095 16.252-15.86 24.867-3.568 6.896-8.789 6.984-14.837 5.939-4.874-1.349-10.682-2.459-16.665-3.068l-.457-.043a19 19 0 0 0-1.174-.043c-7.593 0-14.054 4.874-16.447 11.639l-.043.131c-16.317 33.983-33.308 67.792-52.084 100.447-11.509 19.863-1.044 33.199 8.572 48.015 0 .391 1.262.391 1.74.871 13.881 14.729 13.706 14.577 0 29.153-7.049 7.92-13.249 15.86-20.385 23.779-3.96 4.199-7.92 4.046-9.746-2.937s-2.611-14.011-4.286-20.994c-1.044-4.046-2.415-7.571-4.178-10.9l.109.261c-.805-1.588-2.937-2.524-4.504-3.72a22.4 22.4 0 0 0-2.784 4.438l-.066.152c-2.371 7.44-4.199 14.968-6.723 22.343-3.894 11.313-6.353 12.032-14.12 3.568s-15.055-18.057-22.996-26.76c-4.678-5.07-3.655-8.789.63-13.467 6.026-6.81 11.573-14.098 17.209-21.233 9.681-12.271 5.939-25.172 0-37.072-13.88-29.327-29.023-58.066-43.055-87.132-6.026-12.596-11.509-21.082-29.023-17.209C17.273 88.282 8.157 67.701.607 47.642c-1.588-4.286 0-6.179 4.112-6.244 9.203 0 18.492 0 27.674-.478 2.784 0 7.136-1.588 7.941-3.482s-1.588-5.787-2.698-8.637c0-.544-.957-.957-1.262-1.436L23.755 7.806l23.127-3.068zm99.511 68.182v1.588h-27.586c-10.856.544-12.836 3.785-8.398 13.228a4291 4291 0 0 0 33.308 70.511c.957 2.067 4.372 4.829 5.634 4.351a12.8 12.8 0 0 0 6.787-5.787l.043-.066c11.573-22.495 22.691-45.231 34.091-67.792 3.111-6.178 2.524-9.986-5.004-10.943l-38.878-5.091z"/></svg>