<svg xmlns="http://www.w3.org/2000/svg" viewBox="0 0 300 300"><path d="M264.083 118.781c-2.939 19.184-5.993 37.488-8.447 55.746a43 43 0 0 0-.601 7.173c0 3.934.532 7.706 1.527 11.316l-.069-.301c1.111 2.916 1.736 6.248 1.736 9.789 0 7.151-2.661 13.676-7.08 18.628l.023-.023c-6.664 11.802-19.138 19.623-33.438 19.623-1.55 0-3.101-.093-4.604-.278l.185.023c-7.845-.764-12.565 4.791-13.398 14.393-.671 7.659.579 15.504 0 23.072-.579 4.212-3.981 11.2-6.572 11.454-15.736 1.434-29.088 13.908-46.027 9.765-13.908-3.355-28.162-5.461-42.139-9.511-3.286-.926-6.318-7.243-6.919-11.363-1.087-8.423 0-16.846 0-25.269 0-9.927-2.684-12.125-12.288-12.797h-8.446c-6.734 0-13.329 1.18-19.623-4.559-9.164-8.979-16.615-19.67-21.821-31.61l-.254-.648a5.5 5.5 0 0 1-.139-1.273c0-1.689.648-3.217 1.736-4.373 10.366-9.927 6.318-21.636 4.373-33.091-2.916-11.686-5.114-25.501-6.109-39.64l-.047-.786c0-24.737 2.684-49.336 18.813-70.046.463-.486.857-1.064 1.064-1.712l.023-.046c7.08-32.929 35.984-38.737 61.276-47.902C125.982 1.665 136.534 0 147.456 0c1.411 0 2.8.023 4.212.093h-.209c10.366.625 20.063 2.153 29.388 4.535l-1.087-.232c.671 0 1.689 3.957 1.18 4.373-4.791 3.888-9.164 7.474-7.429 14.903 0 .995-5.484 3.262-8.447 5.23a49 49 0 0 0-4.836 3.841l.047-.047c2.198.116 4.281.486 6.248 1.134l-.162-.047a5.97 5.97 0 0 1 1.781 3.587v.023c-1.597 1.111-3.703 1.782-5.392 2.776-3.448 2.198-6.826 4.535-10.182 6.896a153 153 0 0 1 4.466 5.715s-.857 1.018-1.342 1.527l-9.858 9.349c5.577 2.36 9.025-2.268 13.398-3.957 5.715-2.268 11.709-3.796 16.869-6.318 1.852-.857 2.776-3.703 4.212-5.646-14.487-6.989 0-8.423 2.106-12.704s1.921-7.914 3.795-11.548c1.852-3.633 7.429-7.336 6.734-9.164-2.36-5.646.764-7.151 3.981-5.368 8.909 3.703 16.568 7.961 23.65 12.982l-.37-.254c14.578 11.824 25.246 28.023 30.036 46.536l.139.602c2.36 9.095 9.511 16.245 9.789 26.427.833 8.839 2.222 16.869 4.188 24.668l-.254-1.087-.023-.047zm-94.575 54.797a98.4 98.4 0 0 0 2.407 18.766l-.139-.648c1.249 3.911 3.633 7.127 6.78 9.395l.047.047c5.554 2.129 11.987 3.379 18.697 3.379a53.3 53.3 0 0 0 22.655-5.021l-.323.139c5.368-2.892 8.932-8.447 8.932-14.856v-1.318c0-9.001-1.411-17.702-4.05-25.848l.162.601c-2.013-5.23-4.466-5.23-8.423-6.387-13.583-3.957-23.094 6.572-34.734 9.257-7.683 1.689-14.416 6.664-12.056 12.565l.047-.069zm-66.413 32.165c15.342 0 19.044-3.54 24.529-21.382 1.342-3.008 2.106-6.548 2.106-10.252 0-.278 0-.532-.023-.81v.047c-1.273-5.461-5.415-9.765-10.691-11.246l-.116-.023c-7.775-2.776-15.019-6.896-22.863-9.001-2.407-.833-5.16-1.318-8.053-1.318s-5.646.486-8.238 1.365l.185-.047c-11.455 5.715-14.162 28.532-5.993 38.552 7.429 7.821 17.564 13.051 28.902 14.139l.162.023zm62.109 30.985c-2.36-7.336-5.484-16.245-8.447-25.269-1.597-5.809-6.062-4.466-10.02-4.651s-5.323 2.268-6.318 6.248c-2.106 7.821-5.993 15.25-7.845 23.072a29 29 0 0 0 2.523 11.546l-.069-.185c3.611-.51 6.85-1.365 9.927-2.569l-.323.116c3.217-1.527 4.559-6.479 10.043-2.198s10.553 1.597 10.553-6.155l-.023.047z"/></svg>