<svg xmlns="http://www.w3.org/2000/svg" width="300" height="300" viewBox="0 0 300 300"><title>factions-chaos-cypher-lords</title><path d="M145.322 293.55c-1.622-1.828-2.203-3.834-1.781-6.347.525-3.084.15-6.169-.834-9.178-.309-.928-.122-2.025-.122-3.047-.009-1.397.037-2.813.009-4.209-.075-5.353-1.444-10.453-2.738-15.6-1.209-4.8-1.303-9.872-2.175-14.766-1.331-7.388-2.916-14.728-4.378-22.097a13.2 13.2 0 0 1-.272-2.494c-.009-1.416-.019-2.831.131-4.228.844-7.706-1.097-14.925-3.787-22.003-.684-1.8-1.388-3.591-2.034-5.4-.122-.338-.009-.769-.009-1.153.375.075.891 0 1.106.225 1.791 1.95 4.003 2.456 6.544 2.184.544-.056 1.163.309 1.678.6 1.631.928 3.337 1.294 5.25 1.294 4.041-.009 7.941-.45 11.709-2.063 1.753-.75 3.694-1.05 5.55-1.566 1.753-.478 3.497-1.013 5.25-1.472.338-.094.741.028 1.425.056-.309.703-.412 1.397-.816 1.781-1.472 1.378-2.25 3.131-3.225 4.847-3.028 5.306-4.144 11.25-6.178 16.884-.291.797.028 1.8-.056 2.709s-.262 1.828-.459 2.728c-.187.872-.562 1.725.422 2.409.15.103.131.591.084.872-1.162 7.041-2.438 14.063-3.497 21.112-.647 4.303-.769 8.7-1.491 12.994-.591 3.506-1.744 6.909-2.616 10.369-1.425 5.663-1.725 11.409-1.144 17.212.497 4.781-.45 9.469-.863 14.194-.094 1.069-.291 2.128-.431 3.197-.075-.047-.169-.047-.263-.047zM223.519 125.578c.047 1.556-.009 2.906 1.688 3.197a.15.15 0 0 1 .094.094c.431 1.031.872 2.034 2.072 2.484 1.05.384 2.034.928 3.178 1.472-.591 1.088.234 1.481 1.013 1.847 1.228.563 2.138 1.209 2.184 2.775.009.516.75 1.2 1.322 1.472 2.213 1.097 4.509 1.031 6.591-.272.684-.422 1.228-1.425 1.378-2.25.291-1.603.272-3.262.384-4.894 4.012.675 7.978 1.331 11.953 1.978.647.103 1.294.216 1.95.234 4.8.131 9.6.178 14.391.384 1.809.084 3.741.216 5.391.891 3.469 1.425 7.059 1.875 10.734 2.063.6.037 1.162.45 1.753.656.825.281 1.659.703 2.503.778 2.016.169 4.05.103 6.056.262.638.047 1.556.338 1.791.797.338.684-.975 1.931-1.931 2.016a8 8 0 0 1-1.416 0c-5.869-.563-11.625.375-17.381 1.397-5.775 1.022-11.7 1.575-17.325 3.141-8.634 2.4-17.4 3.863-26.231 5.175-1.472.225-2.897.778-4.35 1.125-.628.15-1.322.272-1.931.169-.478-.084-.909-.544-1.35-.825.291-.356.675-.684.881-1.088.309-.572.778-1.256.675-1.8a42 42 0 0 0-1.481-5.578c-.769-2.203-2.672-2.981-4.762-1.922-1.387.703-2.447.638-3.553-.45a79 79 0 0 0-4.322-3.984c-.506-.431-1.2-.731-1.856-.938-1.875-.6-3.797-1.059-5.644-1.725-1.088-.403-2.072-1.069-3.094-1.65-1.528-.872-3-1.875-4.584-2.625-2.634-1.237-5.297-2.447-8.034-3.441-5.297-1.903-10.603-3.787-15.994-5.409-1.978-.6-4.209-.319-6.272-.694-3.413-.628-6.825-1.341-10.153-2.269-1.331-.375-2.719-1.228-3.628-2.25-1.659-1.894-3.084-4.022-4.397-6.188-.525-.872-.591-2.063-.703-3.131-.038-.291.412-.787.75-.938 2.325-1.116 4.622-.825 6.947.188 1.097.478 2.316.975 3.488.975 7.106-.019 14.034 1.144 20.944 2.663 1.472.319 2.963.656 4.444.647 2.016-.009 3.741.647 5.494 1.481 5.306 2.503 10.716 4.828 15.956 7.472 2.4 1.209 4.528 2.981 6.684 4.612.469.356.75 1.256.731 1.903-.094 2.259.703 2.916 2.944 2.634 1.509-.187 2.709-.459 3.197-2.072.028-.216.375-.309.844-.609zM0 139.866c.459-.272.909-.731 1.397-.787 2.475-.291 4.95-.478 7.425-.731.366-.037.928-.037 1.059-.262.722-1.284 1.988-1.125 3.094-1.209 7.425-.553 14.513-2.325 21.45-5.034 3.591-1.397 7.575-1.744 11.362-2.672 2.916-.722 5.813-1.528 8.663-2.475 1.116-.366 2.091-1.191 3.309-1.903.047.075.337.459.384.544-.684 1.566-1.35 2.859-1.8 4.228-.375 1.153.366 1.612 1.444 1.584.469-.009.938-.009 1.397-.094 1.791-.356 3.591-.675 5.363-1.116.797-.197 1.603-.581 2.297-1.031 3.169-2.091 6.272-4.275 9.422-6.394.497-.328 1.059-.647 1.631-.778 3.731-.909 7.275-2.184 10.322-4.622.403-.319.891-.506 1.369-.731 2.034-.975 2.034-.966 3.403.741 1.116 1.397 2.719 1.481 3.816.056s2.522-2.278 4.2-2.644c8.672-1.922 17.334-3.834 26.025-5.634 2.091-.431 4.294-.422 6.441-.684.825-.094 1.65-.328 2.447-.6 2.934-.984 5.85-2.025 9.141-3.178-.338 1.031-.478 1.809-.834 2.475-1.509 2.766-3.037 5.522-4.65 8.222-.778 1.303-2.072 2.297-2.222 3.984-.019.281-.769.675-1.2.722-6.816.769-13.594 1.725-20.353 2.944-4.894.872-9.6 2.541-14.531 3.122s-9.412 2.438-13.819 4.613c-.956.469-2.034.694-3.075 1.003-5.672 1.669-10.463 4.856-14.85 8.709-1.603 1.397-3.628 2.447-4.284 4.734a.5.5 0 0 1-.169.225c-2.044 2.109-2.034 2.447 0 4.612.516.553 1.116 1.031 1.509 1.669.234.384.131.975.178 1.472-.469.047-1.097.309-1.378.094-1.331-.956-2.803-1.05-4.322-.881-2.916.309-5.269-.6-6.994-3.037-.741-1.059-1.8-1.537-3.075-1.294-4.903.956-9.263-.15-13.509-2.813-3.319-2.072-7.162-2.625-11.156-2.944-6.141-.478-12.422-.262-18.394-2.353-1.922-.675-3.778-.309-5.597.544-.628.291-1.397.244-2.109.366-.103-.234-.178-.497-.263-.741zM132.581 99.759c1.425-3.225 2.775-6.319 4.163-9.403 1.491-3.309 2.213-6.788 2.353-10.388.131-3.469.262-6.9 1.481-10.275.656-1.828.328-4.003.497-6.009.469-6.047 1.031-12.094 1.416-18.141.628-9.994 1.106-20.006 1.697-29.991.141-2.391.384-4.781.694-7.153.084-.684.544-1.322.834-1.987.141.009.281.019.413.038.131.506.319 1.003.366 1.509.844 9.6 1.669 19.219 2.503 28.819.019.281-.019.6.094.834 2.025 4.05 1.65 8.541 2.475 12.806 1.706 8.756 1.987 17.728 4.238 26.381a130 130 0 0 1 2.484 11.7c.431 2.672 1.828 5.175 2.775 7.763.319.872.769 1.725.909 2.634.178 1.106-.478 1.659-1.613 1.537-.272-.037-.562-.094-.816-.216-3.103-1.434-6.394-1.303-9.694-1.125-2.672.141-5.353.094-8.025.188-.684.019-1.519.009-2.025.375-1.481 1.106-3.037 1.125-4.697.731-.787-.197-1.566-.384-2.522-.609z"/><path d="M141.441 177.412c-.788 0-1.509-.225-1.922.038-1.631 1.022-3.187.572-4.716-.075-2.25-.956-4.416-2.109-6.675-3.028-2.438-.975-4.922-1.828-7.416-2.644-7.284-2.438-14.625-4.697-21.497-8.194-1.209-.609-2.484-1.106-3.741-1.65-2.297-.984-4.491-2.072-6.197-4.031-.816-.938-1.95-1.603-2.991-2.344-2.803-1.987-5.625-3.938-8.409-5.934-1.847-1.322-1.894-4.275.075-5.475a149 149 0 0 1 9.731-5.381c3.225-1.631 6.544-3.047 9.834-4.556.731-.328 1.463-.684 2.222-.872.478-.122 1.022.075 1.537.131-.056.563.056 1.247-.216 1.659-.637.928-1.509 1.669-2.203 2.569a496 496 0 0 0-5.709 7.509c-.694.928-.366 1.575.703 1.894.591.169 1.181.384 1.781.431 3.403.234 6.094 1.941 8.747 3.919 5.794 4.303 11.85 8.044 19.097 9.591 4.669 1.003 9.225 2.531 13.837 3.825 1.537.431 2.4 1.425 2.709 3.075.244 1.322.834 2.578 1.341 3.834.778 1.922.891 3.816.075 5.7zM88.847 177.431c-.122-1.444-.384-2.916-.291-4.35.084-1.106.553-2.222.984-3.272.431-1.031 1.087-.834 1.884-.234 1.791 1.331 3.563 2.738 5.522 3.797 2.869 1.538 5.297 3.544 7.5 5.906.694.741 1.688 1.294 2.634 1.688 1.481.6 2.625 1.481 3.178 2.991.459 1.256-.037 2.072-1.35 2.175-2.578.197-4.284 1.566-5.306 3.834-1.884 4.162-4.978 7.191-9.028 9.141a21.9 21.9 0 0 0-7.378 5.794c-3.928 4.716-8.306 8.981-13.022 12.9-3.403 2.822-6.281 6.047-8.344 10.013-.928 1.791-2.072 3.469-3.188 5.156-.234.356-.797.497-1.228.731-.178-.459-.469-.909-.506-1.378-.028-.384.216-.797.384-1.191.928-2.109 1.941-4.181 2.766-6.319.281-.741.103-1.669.141-2.503.028-.431-.056-.938.131-1.303 1.781-3.309 3.356-6.75 5.456-9.834 2.587-3.797 4.716-7.781 6.366-12.047.675-1.744 1.537-3.422 2.428-5.081 1.537-2.859 2.569-5.841 2.644-9.122.047-1.725 1.8-2.963 3.469-2.409 1.191.384 1.969.075 2.634-.938 1.566-2.409 1.659-2.616 1.519-4.116zM146.1 110.775c.637.938 1.275 1.631 1.65 2.456 2.213 4.781 4.491 9.516 6.506 14.381 1.106 2.672 2.072 5.484 2.456 8.334.328 2.353-.028 4.903-.544 7.256-1.144 5.203-2.081 10.481-5.297 15.019-1.575 2.213-2.578 4.753-3.084 7.509-.384 2.156-1.238 4.228-1.941 6.319-.131.403-.516.722-1.059 1.444-.6-1.697-1.228-3-1.509-4.369-.984-4.734-2.766-9.169-4.659-13.566-.459-1.087-.834-2.184-1.294-3.281-4.716-11.269-2.541-21.675 3.966-31.528 1.997-3.037 3.881-6.094 4.8-9.975zM190.688 134.634c.703.356 1.153.563 1.584.797 4.706 2.447 9.375 4.95 14.119 7.303 4.603 2.297 8.363 5.691 12.403 8.869-2.944 1.969-5.616 4.228-8.681 5.672-4.894 2.325-10.022 4.209-15.122 6.084-1.228.45-2.766.309-4.106.084-1.838-.309-3.412.234-5.072.797-2.916 1.013-5.859 1.931-8.803 2.859-.356.103-.741.084-1.116.103-1.978.122-2.316.469-1.988 2.447.188 1.153-.291 1.631-1.303 1.922-2.119.6-4.322 1.059-6.319 1.95-5.034 2.25-10.669 2.091-15.731 4.144-.234.094-.581.094-.825.028-1.275-.412-2.728-3.366-2.184-4.612a87 87 0 0 1 2.522-5.344c.731-1.434 2.081-2.203 3.563-2.55 5.747-1.387 11.522-2.672 17.259-4.031 3.553-.844 7.153-1.603 10.613-2.738 4.416-1.462 8.728-3.197 13.041-4.941 1.809-.731 3.506-1.791 5.259-2.681 1.144-.572 1.022-1.256.244-2.109-2.756-2.963-5.484-5.944-8.222-8.906-.638-.684-1.303-1.209-.834-2.409.272-.684-.141-1.622-.291-2.728zM179.634 180.375c1.303-.722 2.409-1.566 3.675-1.969 5.625-1.828 10.509-4.95 15.328-8.241 1.284-.872 2.494-1.838 3.787-2.709 1.706-1.144 2.775-.731 3.628 1.144 1.931 4.228 2.119 8.822 3.131 13.247 1.519 6.553 2.803 13.153 5.391 19.491 2.887 7.05 4.875 14.475 7.303 21.694.506 1.491 1.331 2.869 1.941 4.341.563 1.35 1.031 2.756 1.556 4.134-.15.094-.291.188-.45.281-.356-.356-.75-.656-1.031-1.05-2.578-3.703-5.034-7.5-7.706-11.128-5.522-7.5-11.119-14.925-16.753-22.322-.816-1.059-2.063-1.781-3.038-2.728-2.756-2.691-5.456-5.447-8.213-8.147-.553-.544-1.284-.909-1.931-1.35-.309-.216-.675-.356-.919-.609-2.456-2.644-2.447-2.644-5.7-4.088zM87.656 111.694c-.188-1.275-.319-2.222-.478-3.188-.459-2.775-.628-5.644-1.481-8.297-1.781-5.522-2.644-11.212-3.909-16.837a1812 1812 0 0 0-4.238-18.544c-.272-1.125-.731-2.222-1.153-3.309a122 122 0 0 0-2.034-4.791c-.516-1.144-.563-2.166.628-3.084.197.328.431.703.638 1.097 6.394 12.112 13.931 23.522 21.319 35.016 1.275 1.987 3.084 3.647 4.744 5.353 2.428 2.494 4.978 4.847 7.397 7.341 1.247 1.294 1.022 1.884-.741 2.409-.675.197-1.387.366-2.072.309-1.978-.178-3.403.694-4.706 2.072-1.125 1.191-2.391 2.25-3.6 3.356-1.106 1.003-2.475 1.144-3.45.131-2.081-2.175-3.872-.825-5.756.169-.281.15-.516.375-1.106.797zM231 67.397c-.459.844-.919 1.697-1.387 2.531-.553.984-1.2 1.922-1.669 2.944-.834 1.809-1.556 3.684-2.362 5.503-.778 1.753-1.481 3.563-2.456 5.213-3.534 5.991-7.191 11.906-9.928 18.337-.553 1.294-1.35 2.484-1.791 3.797-.516 1.575-.741 3.244-1.153 4.856-.178.684-.338 1.556-.825 1.903-.319.234-1.303-.141-1.809-.506-2.184-1.584-4.584-2.578-7.275-2.822-2.128-.197-3.778-1.013-4.65-3.084-.478-1.125-1.388-1.659-2.625-1.856a42 42 0 0 1-4.941-1.097c-.562-.169-1.012-.731-1.509-1.116.403-.413.731-.956 1.209-1.228 2.916-1.612 5.887-3.141 8.813-4.753 4.566-2.503 8.569-5.756 12.394-9.281 6.844-6.309 13.772-12.544 20.672-18.806.309-.281.675-.506 1.003-.75.094.075.188.141.291.216z"/></svg>