<svg xmlns="http://www.w3.org/2000/svg" xml:space="preserve" fill-rule="evenodd" stroke-linejoin="round" stroke-miterlimit="2" clip-rule="evenodd" viewBox="0 0 300 300"><path fill-rule="nonzero" d="M66.553 156.244c-.544-.403-.881-.675-1.237-.909-2.147-1.378-4.5-.591-5.363 1.781-.553 1.519-1.369 1.838-2.147.628-1.837-2.878-4.978-3.975-7.613-5.672-3.806-2.456-7.95-4.397-11.991-6.469-5.109-2.606-10.734-3.356-16.284-4.284-3.309-.544-6.666-.759-9.984-1.2-1.022-.131-2.025-.459-3-.816-1.894-.703-3.788-1.219-5.822-.637-.459.141-.994.037-1.969.037.628-.675.909-1.162 1.331-1.416 1.022-.591 2.053-1.237 3.169-1.594 4.106-1.294 8.184-2.672 12.375-3.637 3.534-.816 7.228-.947 10.791-1.659 6.338-1.256 12.788-2.109 18.497-5.634 2.541-1.566 5.541-2.381 8.259-3.684a21.2 21.2 0 0 0 4.163-2.597c1.819-1.444 3.459-3.084 5.466-4.912.478 1.641.975 3.037 1.256 4.472.347 1.716.487 3.478.759 5.203.272 1.706.975 2.456 2.55 1.997 4.472-1.303 8.897.3 13.35-.056.787-.056 1.556-.225 2.334-.356.656-.122 1.294-.319 1.941-.375a11.7 11.7 0 0 1 2.137.028c4.059.394 7.809-.056 10.388-3.806 1.219 1.819 1.659 3.628 1.603 5.644-.169 5.737-.375 11.522 1.191 17.109.759 2.7 1.8 5.409 3.206 7.828 2.766 4.744 5.85 9.309 8.85 13.913.45.684 1.106 1.294 1.781 1.781 1.847 1.331 3.806 2.503 5.634 3.853 7.022 5.203 14.944 8.1 23.531 9.328 4.866.684 9.684-.047 14.409-.994 16.866-3.384 29.222-12.684 36.609-28.341 2.784-5.897 3.319-12.188 3.581-18.563.15-3.581.581-7.153.9-10.959 2.981 2.944 6.563 2.513 10.116 2.241 1.519-.122 3.028-.263 4.547-.309.656-.028 1.397-.009 1.941.272 2.672 1.378 5.55.928 8.353 1.022 1.313.047 1.828-.9 1.8-2.184-.084-3.291-.028-6.572-.028-9.834 1.969 1.491 3.637 3.141 5.625 4.2 4.753 2.541 9.628 4.931 14.925 6.206 8.878 2.119 17.175 5.953 25.912 8.494 4.819 1.397 9.741 2.409 14.578 3.703 2.738.731 5.419 1.65 8.109 2.55.675.225 1.256.713 1.791 1.341-.684.056-1.378.178-2.063.15-3.806-.141-7.181 1.641-10.762 2.428-4.95 1.106-9.919 2.091-14.878 3.131-.459.094-.938.188-1.378.319-5.044 1.594-10.088 3.216-15.141 4.772-.975.3-2.025.394-3.047.45-.984.047-1.331-.591-1.153-1.509.15-.797.394-1.566.544-2.353.216-1.163-.366-1.744-1.434-1.256-3.309 1.519-6.572 3.141-9.863 4.734a.47.47 0 0 0-.225.178c-2.466 4.322-7.5 6.403-9.609 11.128-.506 1.153-2.241 1.753-3.459 2.644-.478-4.322-.9-8.466-1.387-12.619-.084-.75-.394-1.463-.581-2.194-.272-1.041-.984-1.434-2.016-1.378-2.091.103-4.172.15-6.253.319-.413.037-.928.412-1.172.787-.581.853-1.022 1.819-1.547 2.719-.722 1.256-.994 2.541-.431 3.938.178.431.225.909.394 1.65-1.397.188-2.719.441-4.059.534-1.603.103-3.225.047-4.828.15-.459.037-1.116.319-1.284.675-.131.281.197 1.059.544 1.266 2.091 1.331 2.634 2.991 1.378 5.175-.084.141-.009.366-.009.619.722.038 1.425.075 2.4.103-.881 1.078-1.641 2.006-2.381 2.953-1.041 1.331-.928 1.706.553 2.419.441.216.797.609 1.153.956 1.088 1.078 2.072 2.297 3.272 3.253 1.088.853 1.875 1.659 2.147 3.141.197 1.125.984 2.231 1.753 3.159 6.291 7.594 12.656 15.141 18.947 22.725.806.975 1.35 2.156 1.978 3.272.178.319.216.722.319 1.088-.094.075-.197.131-.3.197-.45-.309-.891-.628-1.341-.909-4.294-2.784-8.644-5.484-12.862-8.372-2.766-1.894-5.513-3.881-7.969-6.141-3.544-3.272-6.872-6.806-10.2-10.313-1.313-1.388-1.819-.169-2.55.609-.788-1.303-1.547-2.588-2.334-3.919-3.216 2.072-6.253 4.078-9.338 6.019-.572.356-1.294.441-1.941.666-1.341.45-2.7.834-3.994 1.387-2.053.891-2.719.75-3.816-1.153-.525-.9-1.059-1.641-2.297-1.566-.412.028-.853-.488-1.294-.759-1.931 1.509-1.912 3.075.272 7.509-1.613.366-3.141.731-4.697 1.041-.656.131-1.331.094-1.978.178-.891.122-1.978.038-2.578.525-.478.394-.187 1.594-.534 2.297-.938 1.969-.356 3.928-.122 5.869.3 2.466.084 4.706-1.716 6.619-.497.525-.638 1.359-1.041 1.997-.319.497-.9.853-1.162 1.378-.319.619-.431 1.341-.731 2.4 2.316-.553 4.2-1.087 6.131-1.462 1.416-.262 2.878-.3 4.322-.441.506-.047 1.031-.084 1.528-.197 1.912-.478 2.381-.253 3.122 1.266-1.491 2.194-2.934 4.162-4.191 6.244-.441.722-.45 1.716-.609 2.597-.281 1.575-.347 3.216-.816 4.725-1.556 4.875-3.366 9.656-4.884 14.541-2.203 7.097-4.209 14.25-6.347 21.366-.553 1.847-1.294 3.656-1.959 5.484-.394 1.087-1.153 1.378-2.25 1.087-1.791-.45-2.241-.272-2.691 1.509-.572 2.222-.984 4.5-1.313 6.759-.084.534.281 1.331.713 1.688.216.178 1.059-.3 1.556-.572.684-.366 1.331-.834 2.325-1.472-.15 2.184-.15 3.966-.431 5.709a515 515 0 0 1-2.513 14.653c-.169.881-.853 1.65-1.294 2.466-.197-.037-.394-.075-.591-.103-.197-.581-.497-1.162-.591-1.772q-1.54-9.252-3.009-18.516c-.15-.938-.281-1.894-.216-2.831.347-4.341-.713-8.597-.816-12.881-.084-3.431-1.237-6.347-2.541-9.337-.853-1.959-1.641-3.938-2.559-5.859-3.9-8.213-6.084-17.006-9.037-25.556-1.088-3.141-2.119-6.291-4.575-8.934 4.059-2.316 7.566.45 11.438.759-.094-1.031.084-2.138-.309-2.953-1.012-2.062-.806-4.144-.506-6.262.488-3.478.938-6.947 1.434-10.622-2.541-.506-5.034-1.012-7.509-1.491q-4.603-.91-9.216-1.781c-.637-.122-1.031-.319-1.191-1.106-.131-.675-.609-1.481-1.172-1.828-1.106-.675-.956-1.341-.394-2.222 1.266-1.922 2.297-3.928 2.1-6.647-.816.234-1.669.309-2.334.713-2.503 1.481-5.109 2.4-8.081 2.381-.656 0-1.434.459-1.959.938-2.016 1.866-3.919 3.881-5.953 5.719a9 9 0 0 1-2.859 1.716c-1.837.675-3.394 1.659-4.556 3.253-.307.418-.68.782-1.106 1.078-6.019 4.303-12.028 8.597-18.047 12.909-.356.253-.722.459-1.087.703-.131-.122-.253-.234-.375-.356.553-.881 1.031-1.819 1.688-2.625a300 300 0 0 1 5.456-6.572c2.137-2.503 4.041-5.138 5.287-8.213.675-1.669 1.894-2.813 3.591-3.431 2.419-.862 3.966-2.588 5.091-4.875 1.022-2.072 2.334-4.013 3.563-5.981.581-.938.722-1.744.347-2.897-.9-2.738-2.297-5.138-3.797-7.566-3.253-5.316-5.775-10.969-6.853-17.184-.394-2.222-.675-2.4-2.944-2.241-5.869.403-11.728.797-17.606 1.209-.525.037-1.059.084-1.547.234-.909.3-1.378.984-.891 1.875.947 1.875.169 3.516-.356 5.381zm-16.987-22.256c-.375 1.556.506 2.644 1.781 3.563.459.328.975.619 1.369 1.022 2.897 2.878 6.263 2.241 9.019-.15.75-.656 1.528-1.556 1.716-2.466.731-3.45-1.575-8.006-4.744-9.581-.609-.3-1.378-.487-2.025-.403-3.225.366-7.003 4.613-7.106 8.034zm176.615.346c.075 5.034 1.753 7.116 5.719 7.078 3.141-.028 6.019-3.45 5.953-7.116-.028-1.659-4.247-5.466-6.028-5.438-3.216.075-5.681 2.466-5.644 5.466z"/><path fill-rule="nonzero" d="M107.063 104.194c1.547 9.356 2.531 18.947 8.091 27.375-.759.141-1.378.084-1.697.366-.506.441-1.078 1.087-1.125 1.687-.028.328.994 1.088 1.491 1.059 1.913-.169 3.028.75 3.919 2.25.497.853 1.209 1.603 1.659 2.475.628 1.219 1.116 2.512 1.753 3.994 1.8-.478 3.141.909 4.434 2.428.394.459.844.909 1.341 1.266 7.725 5.541 15.928 10.069 25.388 11.925 3.787.75 7.359.253 11.147-.797 7.162-1.997 11.859-7.106 16.894-11.85 2.128-2.006 3.45-4.641 4.284-7.453 1.266-4.369 2.681-8.709 3.591-13.144 1.294-6.253.544-12.422-2.231-18.169-2.672-5.541-3.572-11.297-2.494-17.287.366-2.053 1.434-3.984 2.156-5.981.262-.722.497-1.472.572-2.325-2.316 1.387-5.034 2.325-6.3 4.791-1.35 2.625-2.316 5.456-3.272 8.269-1.331 3.881-.122 7.678.638 11.484 1.116 5.578.628 11.025-.591 16.594-1.594 7.228-5.644 12.487-11.128 16.987-.844.684-1.697 1.378-2.494 2.119-4.884 4.613-10.463 6.112-17.137 4.734-5.381-1.106-7.772-4.659-9.45-9.225-.178-.487-.15-1.041-.319-1.528-2.053-5.841-.947-11.569.609-17.269 1.022-3.75 3.056-6.938 5.719-9.703 6.178-6.431 12.469-12.769 19.5-18.281 5.737-4.5 10.584-9.919 15.394-15.347 3.891-4.388 5.081-9.938 6.394-15.441 1.041-4.35.141-8.587-.178-12.862-.216-2.813-.675-5.597-1.069-8.719 1.294 1.237 2.625 2.278 3.666 3.563 2.653 3.206 4.603 6.853 6.019 10.744 2.85 7.884 5.437 15.881 6.675 24.216.956 6.431 1.069 12.825-1.613 19.013-.581 1.331-.356 3.075-.272 4.613.262 5.259.9 10.509.881 15.769-.047 8.456-.928 16.847-3.3 25.022-1.912 6.609-4.819 12.909-9.563 17.756-7.294 7.453-15.441 13.847-26.522 15.066-7.875.863-15.769 1.613-23.428-.666-10.472-3.103-18.731-9.206-23.4-19.444-1.884-4.125-4.191-8.147-5.438-12.478-2.044-7.097-2.597-14.381-1.163-21.788.984-5.222 1.331-10.547 1.969-15.816z"/><path fill-rule="nonzero" d="M138.6 149.147c-1.697-.506-3.122-1.463-4.284-2.869-.403-.488-.844-.994-1.369-1.313-3.834-2.278-6.703-5.4-9.225-9.075-5.438-7.884-7.988-17.025-11.7-25.659-1.303-3.047-1.753-6.478-2.475-9.759-.15-.684.122-1.491.263-2.231.816-4.191 1.669-8.362 2.494-12.534a16.5 16.5 0 0 1 4.172-8.128c3.487-3.741 7.191-7.294 10.809-10.912.169-.169.45-.197 1.031-.45-.281.581-.375.844-.534 1.078-.347.506-.806.966-1.059 1.509-.666 1.462-.9 3.075.234 4.294 1.059 1.134 2.513.459 3.713-.047.9-.375 1.753-.947 2.503-1.603 5.803-5.044 11.625-10.059 17.306-15.216.956-.881 1.8-2.419 1.838-3.694.15-5.822.216-11.662-.094-17.475-.234-4.509-2.222-8.531-5.128-11.981-4.191-4.969-6.544-10.828-8.681-16.819-.788-2.194-.028-4.2.619-6.206.169-.009.328-.038.487-.047l1.378 5.306c2.363-.797 3.581.891 5.063 2.241 1.284 1.163 2.719 2.25 4.275 2.991 7.106 3.338 13.003 8.053 17.662 14.4 2.409 3.281 5.194 6.291 7.688 9.516 2.803 3.628 4.416 7.706 4.247 12.384-.028.797.131 1.603.253 2.4 1.547 9.684-1.65 17.981-7.406 25.538-3.478 4.566-7.856 8.222-12.113 11.981-.881.769-1.847 1.509-2.906 2.025-3.056 1.509-5.672 3.581-8.231 5.784-2.447 2.1-5.128 3.928-7.519 6.084-1.444 1.303-2.784 2.878-3.759 4.566-2.934 5.091-5.916 10.162-7.453 15.919-.525 1.969-.9 3.975-1.284 5.962-.412 2.156.263 4.144 1.256 6 1.922 3.591 3.919 7.153 5.822 10.744.394.731.544 1.594.853 2.362.188.459.478.9.75 1.331.263.403.572.787.863 1.172-.103.15-.234.3-.366.431z"/></svg>