<svg xmlns="http://www.w3.org/2000/svg" width="300" height="300" viewBox="0 0 300 300"><title>factions-chaos-tzeentch-daemons</title><path d="M185.766 0c1.678 2.119 1.903 8.25.619 10.912-2.887 5.963-6.909 11.137-11.288 16.012-1.987 2.212-4.284 4.388-7.556 4.781a2.1 2.1 0 0 0-.872.337c-4.978 3.506-10.491 6.431-13.556 12.066-.216.384-.478.759-.563 1.172-.872 4.247-2.287 8.372-2.063 12.825.169 3.112-.047 6.263-.225 9.384-.244 4.05.947 7.763 2.241 11.513 1.088 3.131 2.484 6.347 2.597 9.544.131 3.647-.338 7.641-1.762 10.969-2.297 5.428-5.597 10.444-8.447 15.647-1.313 2.409-3.3 4.087-5.381 5.831-3.722 3.131-7.172 6.609-10.462 10.219-2.859 3.141-4.219 7.116-4.313 11.372-.075 3.244-.197 6.572.441 9.713 1.228 6.066 5.625 10.022 10.247 13.688.384.309.787.581 1.181.862-2.175 2.972-5.147 4.275-8.569 5.175-2.597.675-4.922 2.344-7.369 3.534-.553.272-1.125.619-1.716.666-3.169.216-4.894 2.231-6.206 4.791-.169.338-.216.806-.478 1.013-3.75 2.859-4.894 8.053-9.244 10.378-.309.169-.553.525-.759.816-3.019 4.144-6.234 8.166-8.953 12.488-1.538 2.438-2.494 5.325-3.281 8.137-1.631 5.766-3.553 11.541-4.303 17.437-.666 5.259-.225 10.725.3 16.059.534 5.522 1.659 10.997 2.691 16.462.3 1.547 1.116 3.019 1.819 4.472 1.322 2.738 2.85 5.4 4.087 8.175a47 47 0 0 1 2.484 7.003c.581 2.241.75 4.584 1.087 6.834-3.891.975-6.825-.422-9.75-1.847-2.794-1.35-5.597-2.681-8.372-4.078-.647-.328-1.172-.9-1.744-1.35-.581-.469-1.116-1.172-1.763-1.322-2.175-.506-3.103-2.128-4.031-3.872-.422-.806-1.013-1.631-1.763-2.119-3.384-2.175-6.909-4.116-10.266-6.328-1.378-.919-2.737-2.119-3.647-3.478-1.884-2.831-4.734-4.556-7.144-6.778-.891-.816-1.547-1.884-2.297-2.85-.159-.197-.225-.469-.412-.637-5.044-4.369-7.078-10.828-10.941-16.041-3.619-4.903-5.934-10.772-8.897-16.181-.947-1.716-2.241-3.253-3.159-4.988-.553-1.069-.647-2.372-.984-3.562s-.694-2.353-1.041-3.525c-.056-.187-.225-.328-.253-.497-.591-3.113-1.181-6.244-1.772-9.375-.028-.131.047-.272 0-.366-1.744-3.666-.787-8.006-2.906-11.588-.225-.394-.216-.956-.216-1.453-.037-7.894-.075-15.788-.056-23.681 0-.647.328-1.294.563-1.912.188-.525.619-1.003.666-1.519.281-3.75 1.65-7.162 3-10.613 1.35-3.422 2.325-7.003 3.591-10.472 2.259-6.122 6.234-11.081 10.913-15.478 9.263-8.7 20.119-14.803 31.903-19.378 5.606-2.184 11.288-4.313 15.787-8.484 5.578-5.175 9.103-11.419 9.15-19.266.028-3.759.028-7.528.113-11.278.141-6.206 1.791-12.028 4.528-17.587 1.031-2.1 1.378-4.584 2.634-6.516 1.566-2.409 3.806-4.388 5.634-6.638 1.959-2.409 3.563-5.175 5.775-7.284 2.016-1.931 3.759-4.613 7.087-4.65.131 0 .253-.028.366-.056 3.591-.947 7.191-1.875 10.772-2.831 2.231-.591 4.472-1.116 6.656-1.847 1.397-.469 2.653-1.35 4.05-1.875 1.266-.478 2.606-.975 3.928-1.013 3.384-.131 6.769-.019 10.153.019.619 0 1.294.131 1.875-.037 3.356-.928 6.75-1.734 9.994-2.963 2.409-.9 4.697-2.231 6.862-3.638 2.606-1.688 4.894-3.928 7.584-5.456 1.762-.984 3.525-1.772 4.678-3.497.253-.075.497-.075.75-.075z"/><path d="M154.397 178.003c7.369.056 13.781 1.538 19.903 4.303.338.159.694.356 1.041.394 7.359.984 13.134 5.409 18.563 9.722 6.234 4.959 11.625 11.062 15.169 18.441 1.228 2.569 2.466 5.119 2.231 8.203-.131 1.716.787 3.497 1.041 5.287.272 1.884.394 3.816.412 5.737.047 8.147.159 16.284-.103 24.412-.075 2.297-1.294 4.566-2.025 6.834-.225.703-.891 1.369-.872 2.044.047 4.191-2.456 7.191-4.791 10.134-7.116 8.991-15.478 16.659-26.175 21.141-8.953 3.731-18.3 6.131-28.191 5.091-5.681-.591-11.334-1.406-16.622-3.647-1.378-.581-2.297-2.203-3.497-3.253a311 311 0 0 0-7.088-6.037c-.469-.384-1.125-.525-1.706-.759-1.884-.759-3.834-1.397-5.634-2.288-4.341-2.147-6.947-5.934-9.216-10.022-.553-.984-.984-2.025-1.603-2.963-2.691-4.087-4.556-8.559-6.159-13.153-.141-.412-.281-.862-.553-1.181-3.356-3.891-3.956-8.569-4.05-13.472-.056-3.188-.506-6.356-.619-9.544-.047-1.125.469-2.269.637-3.422 1.969-13.35 7.969-24.572 17.775-33.769 9.713-9.122 21.281-14.616 34.238-17.353.975-.216 1.941-.534 2.934-.619 1.856-.159 3.75-.197 4.978-.253zM273.694 188.081c4.05-.553 7.481 2.297 7.669 6.769.019.497.047 1.013.225 1.462 2.259 5.372 2.119 10.744.188 16.172-.328.9-.338 1.997-.197 2.962.563 3.816-.947 7.256-2.063 10.716-1.181 3.675-2.831 7.2-4.275 10.8-3.084 7.734-7.641 14.578-12.563 21.253-5.241 7.116-12 12.534-18.863 17.878-2.016 1.566-3.834 3.413-5.878 4.931-1.434 1.069-3.056 1.931-4.678 2.738-4.65 2.287-9.384 4.416-13.988 6.778-2.241 1.153-3.084-.591-4.059-1.734-.384-.45.075-1.716.309-2.569.562-1.969 1.238-3.9 1.828-5.859.694-2.241 1.238-4.528 2.025-6.741 1.069-2.991 2.597-5.831 3.394-8.897.675-2.55.581-5.316.862-7.978.131-1.228.384-2.438.553-3.647.188-1.228.497-2.466.497-3.703.047-9.637-.244-19.294.188-28.922.113-2.662 2.259-5.259 3.553-7.837.103-.197.9-.075 1.378-.028 4.734.356 9.469 1.013 14.213 1.003 3.525-.019 7.05-.919 10.575-1.425.188-.028.384-.056.553-.141 2.766-1.266 5.353-2.859 8.484-3.384 1.144-.197 2.409-1.622 2.991-2.794 1.969-3.919 4.331-7.678 4.931-12.225.216-1.828 1.322-3.563 2.147-5.569z"/></svg>