<svg xmlns="http://www.w3.org/2000/svg" viewBox="4.93 6.15 22.12 19.65"><title>image2vector-1</title><path d="M11.16 6.321c0 .125-.017.155-.088.155q-.088 0-.088.088c0 .049-.029.088-.066.088s-.066.03-.066.066-.039.066-.088.066q-.088 0-.088.088c0 .049-.03.088-.066.088s-.066.03-.066.066-.039.066-.088.066q-.088 0-.088.088c0 .049-.03.088-.066.088s-.066.03-.066.066c0 .046-.047.066-.155.066-.125 0-.155.017-.155.088q0 .088-.088.088c-.049 0-.088.03-.088.066s-.03.066-.066.066-.066.039-.066.088q0 .088-.088.088c-.049 0-.088.03-.088.066s-.03.066-.066.066-.066.039-.066.088q0 .088-.088.088c-.049 0-.088.029-.088.066s-.039.066-.088.066q-.088 0-.088.088c0 .072-.029.088-.155.088-.108 0-.155.02-.155.066s-.047.066-.155.066c-.125 0-.155.017-.155.088 0 .049-.029.088-.066.088s-.066.03-.066.066-.039.066-.088.066c-.074 0-.088.029-.088.177v.177h-.179c-.132 0-.171.015-.146.055q.034.057-.042-.005c-.068-.055-.075-.045-.075.099 0 .131-.016.16-.088.16-.049 0-.088.029-.088.066 0 .046-.047.066-.155.066-.125 0-.155.017-.155.088 0 .049-.03.088-.066.088s-.066.03-.066.066c0 .046-.047.066-.155.066-.125 0-.155.017-.155.088q0 .088-.088.088c-.049 0-.088.029-.088.066s-.03.066-.066.066-.066.039-.066.088q0 .088-.088.088c-.049 0-.088.029-.088.066s-.039.066-.088.066q-.088 0-.088.088c0 .049-.03.088-.066.088s-.066.03-.066.066c0 .046-.047.066-.155.066-.125 0-.155.017-.155.088q0 .088-.088.088c-.049 0-.088.03-.088.066 0 .046-.047.066-.155.066-.125 0-.155.017-.155.088 0 .049-.029.088-.066.088a.066.066 0 1 0 0 .132c.036 0 .066.039.066.088q0 .088.088.088c.088 0 .088.029.088.088 0 .049.03.088.066.088s.066.03.066.066.039.066.088.066q.088 0 .088.088c0 .077.029.088.221.088.167 0 .221.016.221.066 0 .037.039.066.088.066q.088 0 .088.088c0 .088.029.088.088.088.072 0 .088.029.088.155 0 .085.015.152.033.149.138-.022.276.014.276.072 0 .037.03.066.066.066.046 0 .066.047.066.155 0 .125.017.155.088.155q.088 0 .088.088c0 .072.029.088.155.088s.155-.017.155-.088c0-.072.029-.088.155-.088.108 0 .155-.02.155-.066 0-.054.071-.066.376-.066h.376v.155c0 .108-.02.155-.066.155-.05 0-.066.054-.066.221 0 .191-.012.221-.088.221q-.088 0-.088.088c0 .088.03.088.088.088.072 0 .088.029.088.155 0 .108.02.155.066.155.036 0 .066.03.066.066s.039.066.088.066q.088 0 .088.088c0 .049.03.088.066.088.046 0 .066.047.066.155 0 .125.017.155.088.155q.088 0 .088.088c0 .049.03.088.066.088s.066.03.066.066.039.066.088.066q.088 0 .088.088c0 .088.029.088.088.088.049 0 .088.03.088.066s.03.066.066.066c.046 0 .066.047.066.155 0 .125.017.155.088.155q.088 0 .088.088c0 .049.03.088.066.088s.066.03.066.066.039.066.088.066q.088 0 .088.088c0 .049.029.088.066.088s.066.03.066.066c0 .046.047.066.155.066.147 0 .155.007.155.155 0 .125.017.155.088.155q.088 0 .088.088c0 .049.029.088.066.088s.066-.039.066-.088c0-.078.029-.088.243-.088s.243.011.243.088c0 .049.029.088.066.088s.066.03.066.066.039.066.088.066c.074 0 .088.03.088.177s-.015.177-.088.177c-.08 0-.088.029-.088.309v.309h.155c.108 0 .155.02.155.066 0 .037.039.066.088.066q.088 0 .088.088c0 .088.03.088.088.088.049 0 .088.029.088.066s.03.066.066.066.066.039.066.088q0 .088.088.088c.049 0 .088.03.088.066s.03.066.066.066.066.039.066.088q0 .088.088.088c.072 0 .088.03.088.155 0 .108.02.155.066.155.036 0 .066.03.066.066s.039.066.088.066q.088 0 .088.088c0 .049.03.088.066.088s.066.03.066.066.039.066.088.066q.088 0 .088.088c0 .049.03.088.066.088.046 0 .066.047.066.155 0 .125.017.155.088.155q.088 0 .088.088c0 .049.029.088.066.088s.066.03.066.066.039.066.088.066q.088 0 .088.088c0 .049.029.088.066.088.046 0 .066.047.066.155 0 .147.007.155.155.155.108 0 .155.02.155.066s.047.066.155.066.155-.02.155-.066c0-.053.066-.066.332-.066h.332v.309c0 .28-.008.309-.088.309-.077 0-.088.029-.088.221v.221h.155c.125 0 .155.017.155.088q0 .088.088.088c.049 0 .088.03.088.066s.03.066.066.066.066.039.066.088q0 .088.088.088c.072 0 .088.03.088.155 0 .108.02.155.066.155.037 0 .066.039.066.088 0 .072.03.088.155.088s.155-.017.155-.088q0-.088.088-.088c.088 0 .088-.029.088-.088 0-.049.03-.088.066-.088s.066-.03.066-.066.039-.066.088-.066q.088 0 .088-.088c0-.049.03-.088.066-.088s.066-.03.066-.066.039-.066.088-.066q.088 0 .088-.088c0-.049.029-.088.066-.088s.066-.03.066-.066.039-.066.088-.066q.088 0 .088-.088c0-.088.029-.088.088-.088.049 0 .088-.029.088-.066s.03-.066.066-.066.066-.039.066-.088q0-.088.088-.088c.049 0 .088-.029.088-.066 0-.046.047-.066.155-.066.125 0 .155-.017.155-.088 0-.049.029-.088.066-.088s.066-.03.066-.066.039-.066.088-.066q.088 0 .088-.088c0-.049.029-.088.066-.088s.066-.03.066-.066.039-.066.088-.066c.072 0 .088-.029.088-.155 0-.147.007-.155.155-.155.125 0 .155-.017.155-.088s.029-.088.155-.088c.125 0 .155.017.155.088s.029.088.155.088c.125 0 .155-.017.155-.088s.03-.088.155-.088c.108 0 .155-.02.155-.066 0-.051.056-.066.243-.066s.243.015.243.066c0 .036.03.066.066.066s.066.039.066.088q0 .088.088.088c.049 0 .088.029.088.066s.03.066.066.066.066.039.066.088q0 .088.088.088c.049 0 .088.029.088.066s.03.066.066.066.066.039.066.088q0 .088.088.088c.049 0 .088.029.088.066s.03.066.066.066.066.039.066.088q0 .088.088.088c.049 0 .088.029.088.066s.03.066.066.066.066.039.066.088q0 .088.088.088c.049 0 .088.029.088.066s.03.066.066.066.066.039.066.088q0 .088.088.088c.072 0 .088.029.088.155 0 .108.02.155.066.155.036 0 .066.03.066.066s.039.066.088.066q.088 0 .088.088c0 .072.029.088.155.088.147 0 .155.007.155.155 0 .125.017.155.088.155q.088 0 .088.088c0 .077.029.088.221.088.167 0 .221.016.221.066 0 .037.039.066.088.066q.088 0 .088.088c0 .049.029.088.066.088s.066.03.066.066.039.066.088.066q.088 0 .088.088c0 .049.03.088.066.088.05 0 .066.054.066.221s-.016.221-.066.221c-.046 0-.066.047-.066.155 0 .125-.017.155-.088.155-.078 0-.088.029-.088.243s.011.243.088.243c.049 0 .088.029.088.066s.03.066.066.066c.046 0 .066.047.066.155 0 .147.007.155.155.155.125 0 .155.017.155.088q0 .088.088.088c.088 0 .088.029.088.088 0 .081.03.088.376.088s.376-.007.376-.088c0-.074.029-.088.177-.088s.177-.015.177-.088c0-.072.029-.088.155-.088.108 0 .155-.02.155-.066 0-.036.03-.066.066-.066s.066-.039.066-.088q0-.088.088-.088c.049 0 .088-.029.088-.066s.03-.066.066-.066.066-.039.066-.088q0-.088.088-.088c.081 0 .088-.03.088-.376s-.007-.376-.088-.376q-.088 0-.088-.088c0-.049-.03-.088-.066-.088-.055 0-.066-.081-.066-.464v-.464h.155c.125 0 .155-.017.155-.088s.029-.088.155-.088h.155v-.53c0-.519-.002-.53-.099-.535q-.11-.004-.022-.025c.083-.022.109-.146.031-.146-.026 0-.036.018-.022.04s-.025.017-.085-.011-.11-.076-.111-.106c0-.034-.061-.055-.155-.055-.125 0-.155-.017-.155-.088s-.029-.088-.155-.088c-.125 0-.155.017-.155.088s-.029.088-.155.088c-.108 0-.155.02-.155.066 0 .048-.049.066-.177.066-.147 0-.177.015-.177.088 0 .072-.03.088-.155.088s-.155-.017-.155-.088c0-.072-.03-.088-.155-.088-.108 0-.155-.02-.155-.066 0-.036-.03-.066-.066-.066s-.066-.039-.066-.088q0-.088-.088-.088c-.049 0-.088-.03-.088-.066s-.03-.066-.066-.066-.066-.039-.066-.088q0-.088-.088-.088c-.049 0-.088-.03-.088-.066s-.03-.066-.066-.066-.066-.039-.066-.088c0-.072-.029-.088-.155-.088-.108 0-.155-.02-.155-.066 0-.037-.039-.066-.088-.066q-.088 0-.088-.088c0-.049-.029-.088-.066-.088s-.066-.03-.066-.066-.039-.066-.088-.066q-.088 0-.088-.088c0-.049-.029-.088-.066-.088s-.066-.039-.066-.088q0-.088-.088-.088c-.049 0-.088-.03-.088-.066s-.039-.066-.088-.066q-.088 0-.088-.088c0-.049-.029-.088-.066-.088-.046 0-.066-.047-.066-.155 0-.125-.017-.155-.088-.155-.049 0-.088-.029-.088-.066 0-.046-.047-.066-.155-.066-.125 0-.155-.017-.155-.088 0-.049-.03-.088-.066-.088s-.066-.03-.066-.066-.039-.066-.088-.066c-.083 0-.088-.029-.088-.464 0-.383-.012-.464-.066-.464-.037 0-.066-.039-.066-.088q0-.088-.088-.088c-.049 0-.088-.03-.088-.066s-.03-.066-.066-.066c-.048 0-.066-.049-.066-.177 0-.173-.004-.177-.155-.177-.108 0-.155-.02-.155-.066 0-.051-.056-.066-.243-.066-.214 0-.243-.011-.243-.088 0-.049-.029-.088-.066-.088s-.066-.03-.066-.066-.039-.066-.088-.066q-.088 0-.088-.088c0-.049-.029-.088-.066-.088s-.066-.03-.066-.066-.039-.066-.088-.066q-.088 0-.088-.088c0-.088-.029-.088-.088-.088-.049 0-.088-.03-.088-.066s-.03-.066-.066-.066-.066-.039-.066-.088q0-.088-.088-.088c-.049 0-.088-.029-.088-.066s-.03-.066-.066-.066c-.046 0-.066-.047-.066-.155 0-.125-.017-.155-.088-.155q-.088 0-.088-.088c0-.049-.029-.088-.066-.088s-.066-.03-.066-.066-.039-.066-.088-.066q-.088 0-.088-.088c0-.049-.029-.088-.066-.088s-.066-.03-.066-.066-.039-.066-.088-.066q-.088 0-.088-.088c0-.049-.03-.088-.066-.088-.046 0-.066-.047-.066-.155 0-.147-.007-.155-.155-.155-.125 0-.155-.017-.155-.088q0-.088-.088-.088c-.072 0-.088-.029-.088-.155 0-.108-.02-.155-.066-.155-.036 0-.066-.03-.066-.066s-.039-.066-.088-.066q-.088 0-.088-.088c0-.049-.029-.088-.066-.088s-.066-.03-.066-.066-.039-.066-.088-.066q-.088 0-.088-.088c0-.088-.029-.088-.088-.088-.049 0-.088-.03-.088-.066s-.03-.066-.066-.066-.066-.039-.066-.088q0-.088-.088-.088c-.049 0-.088-.03-.088-.066s-.03-.066-.066-.066c-.046 0-.066-.047-.066-.155 0-.125-.017-.155-.088-.155q-.088 0-.088-.088c0-.072-.029-.088-.155-.088-.108 0-.155-.02-.155-.066a.066.066 0 0 0-.066-.066c-.046 0-.066-.047-.066-.155 0-.125-.017-.155-.088-.155q-.088 0-.088-.088c0-.049-.029-.088-.066-.088s-.066-.039-.066-.088q0-.088-.088-.088c-.049 0-.088-.029-.088-.066s-.03-.066-.066-.066c-.046 0-.066-.047-.066-.155 0-.125-.017-.155-.088-.155q-.088 0-.088-.088c0-.049-.029-.088-.066-.088s-.066-.03-.066-.066-.039-.066-.088-.066c-.072 0-.088-.029-.088-.155 0-.108-.02-.155-.066-.155-.037 0-.066-.039-.066-.088q0-.088-.088-.088c-.049 0-.088-.029-.088-.066s-.039-.066-.088-.066q-.088 0-.088-.088c0-.049-.029-.088-.066-.088s-.066-.03-.066-.066-.039-.066-.088-.066q-.088 0-.088-.088c0-.049-.03-.088-.066-.088-.046 0-.066-.047-.066-.155 0-.125-.017-.155-.088-.155-.049 0-.088-.03-.088-.066s-.03-.066-.066-.066-.066-.039-.066-.088q0-.088-.088-.088c-.07 0-.089-.03-.089-.144 0-.109-.011-.128-.044-.077-.024.036-.046.051-.049.033l-.017-.077a1 1 0 0 1-.017-.133q-.007-.087-.094-.088c-.049 0-.088-.03-.088-.066s-.03-.066-.066-.066-.066-.039-.066-.088q0-.088-.088-.088c-.072 0-.088-.03-.088-.155 0-.108-.02-.155-.066-.155-.037 0-.066-.03-.066-.066s-.039-.066-.088-.066q-.088 0-.088-.088c0-.049-.029-.088-.066-.088-.046 0-.066-.047-.066-.155 0-.125-.017-.155-.088-.155-.049 0-.088-.029-.088-.066s-.03-.066-.066-.066-.066-.039-.066-.088q0-.088-.088-.088c-.049 0-.088-.029-.088-.066s-.03-.066-.066-.066-.066-.039-.066-.088q0-.088-.088-.088c-.072 0-.088-.029-.088-.155s-.017-.155-.088-.155c-.072 0-.088-.029-.088-.155v-.155h-.442v.155z"/></svg>