<svg xmlns="http://www.w3.org/2000/svg" width="300" height="300" viewBox="0 0 300 300"><title>factions-order-cities-of-sigmar-castelite-hosts-cropped</title><path d="M171.522 83.357c-7.13 1.328-14.394 3.43-17.903 5.184-3.056 1.527-3.001 1.385-1.722 4.389 2.707 6.362 3.601 23.051 1.615 30.121-.476 1.694-.864 3.181-.864 3.308-.001.127 2.232.23 4.962.23s8.991.154 13.914.34c13.784.523 23.264-1.804 29.106-7.143 5.685-5.195 7.508-8.71 6.87-13.24-.197-1.391-.515-4.721-.708-7.395-.567-7.864-2.283-11.079-7.33-13.73-6.968-3.662-15.832-4.316-27.938-2.063zm74.997.811c-5.075 1.419-11.333 4.695-15.277 7.995-2.96 2.479-4.147 2.824-10.291 3.013-8.683.264-11.662 3.286-8.619 8.741 4.216 7.562-9.417 23.115-23.294 26.572-2.962.738-33.311.908-37.063.209-.947-.178-2.016-.252-2.374-.167-1.591.379-1.704-.407-.499-3.442 2.399-6.036 2.573-7.152 2.55-16.26-.03-11.641-1.507-18.472-4.935-22.833l-1.658-2.111-3.308.185c-1.821.101-5.651.401-8.512.664l-5.203.481.219 1.851c.158 1.322.989 3.19 2.908 6.528 3.645 6.338 3.665 6.433 3.497 16.808l-.141 8.742-1.459 4.457c-.802 2.452-1.531 4.532-1.62 4.621-1.078 1.078-5.536 1.222-37.851 1.228l-33.179.006v-1.569c0-.863.258-2.186.572-2.938 2.365-5.659 2.581-20.675.376-25.85a173 173 0 0 1-2.143-5.398c-1.883-4.983-1.282-4.721-10.819-4.721h-8.125l-.251 1.26c-.489 2.445.166 5.817 1.447 7.446 1.591 2.026 2.164 8.264 1.489 16.202-.968 11.366-3.659 17.514-7.67 17.514-1.032 0-1.981.283-2.613.777-.596.469-1.585.78-2.486.783-4.744.013-5.424.907-3.032 3.977l1.381 1.773-.797 1.306c-.615 1.015-.797 1.971-.798 4.269l-.001 2.96 1.902.226c1.047.124 3.017.064 4.379-.132 6.061-.877 7.225-.515 10.575 3.286 2.728 3.095 2.447 3.073 5.37.387 4.146-3.811 4.135-3.809 18.054-4.073 15.296-.289 15.704-.234 18.094 2.436l1.83 2.043 5.924.3 1.053-2.149c1.564-3.189 2.507-3.384 16.393-3.384 14.847 0 18.577.879 22.844 5.387 2.295 2.425 4.007 2.841 5.821 1.424 1.772-1.388 2.325-1.929 2.807-2.757.726-1.242 15.207-.692 21.907.83 2.737.623 2.786.657 4.551 3.128.981 1.373 1.853 2.497 1.939 2.497s2.026-.525 4.314-1.169c7.933-2.228 9.842-1.216 12.946 6.854a5361 5361 0 0 0 3.04 7.881c1.761 4.54 4.423 8.374 7.472 10.771 1.743 1.37 2.743 2.567 3.892 4.661 2.581 4.704 6.474 3.795 9.134-2.132 1.951-4.349 1.954-4.339-1.802-6.763-5.762-3.718-7.858-7.385-9.081-15.882l-.641-4.459 2.175-3.37c1.196-1.855 2.645-3.679 3.219-4.056 3.362-2.203 12.172.315 12.722 3.633.862 5.212-1.046 9.594-5.067 11.643-2.368 1.206-3.223 5.611-1.194 6.154 4.53 1.215 10.062-.853 15.375-5.749 1.768-1.628 3.344-2.956 3.502-2.952 7.565.159 17.989 12.284 30.937 35.994 8.799 16.107 13.463 20.116 20.387 17.508 6.011-2.265 7.962-4.875 13.7-18.356 7.452-17.5 8.868-14.468-21.025-45.001-8.97-9.164-16.473-17.09-16.675-17.615-.2-.526-.719-5.016-1.156-9.978-.887-10.1-1.179-11.025-4.281-13.604l-1.566-1.302-.253-4.476c-.218-3.848-.387-4.678-1.209-5.925-2.731-4.141 2.224-8.765 11.019-10.28 4.76-.819 4.549-.598 2.541-2.645-3.848-3.921-10.53-5.528-16.295-3.917zm-132.401 7.973c-1.821.171-9.175.504-16.346.739-18.047.59-34.024 1.26-34.202 1.432-.081.079.151 1.331.519 2.783 2.571 10.189 2.809 20.85.639 28.688l-.654 2.365 64.415.192.389-1.458c3.963-14.849 2.782-25.717-3.622-33.343-1.408-1.677-4.294-2.04-11.138-1.396zM5.868 94.113c-6.333 4.141-7.824 19.707-3.039 31.75 3.333 8.389 4.219 8.754 14.36 5.91 2.237-.626 5.475-1.313 7.2-1.526 1.722-.212 3.714-.542 4.423-.734.85-.229 2.308-.17 4.28.175 3.599.629 2.924 1.398 4.824-5.49l1.597-5.785-.006-17.663-1.679-2.781c-2.325-3.846-2.84-4.13-6.554-3.611-3.491.489-13.088.061-18.735-.836-4.797-.762-4.576-.783-6.669.588zm228.271 17.511c7.344 3.667 8.929 13.431 3.113 19.187-7.513 7.438-20.124 2.119-20.159-8.502-.03-8.67 9.328-14.537 17.044-10.683zm-8.429 2.039c-5.432 1.745-8 9.324-4.738 13.971 5.4 7.686 17.095 4.153 17.036-5.147-.04-6.291-6.272-10.759-12.3-8.824z"/></svg>