<svg xmlns="http://www.w3.org/2000/svg" width="300" height="300" viewBox="0 0 300 300"><title>factions-destruction-bladeborn-ironskulls-boyz</title><path d="M104.029 172.656c-2.111 0-4.968-.928-6.622 0-12.463 10.061-25.963-.6-38.753 2.111-.8 0-3.511-3.129-3.311-4.494 1.656-9.461-8.752-12.098-10.989-19.448 0-.873-6.04-1.129-8.551 0-5.422 2.311-7.623 0-7.023-4.712.8-6.622-3.312-10.989-6.295-16.211-3.711-6.622-7.896-4.185-12.263-2.311-2.183.928-4.968 4.366-5.694 3.912-4.112-2.565-.6-5.348 0-8.261s.6-5.295-.527-6.15c-7.732-6.022-2.638-9.806 1.784-14.1 5.549-5.295 10.789-11.044 16.501-16.211 2.256-2.038 5.621-4.712 8.223-4.439 10.061 1.055 16.575-5.367 22.852-10.788A187 187 0 0 0 71.537 51.34l.309-.418a145 145 0 0 1 5.549-6.022c.946-1.364 2.493-2.256 4.24-2.256s3.312.873 4.24 2.238l.019.019c3.766 4.567 6.641 9.734 10.989 14.027 11.88 13.354 24.07 25.598 36.898 37.152l.4.364c4.366 3.711 10.662 7.478 4.567 14.828-.455.6.674 3.111 1.583 4.221 9.405 10.662 18.612 21.451 28.418 31.712 5.768 5.95 7.478 5.695 13.846.455s14.3-11.716 21.213-17.866c4.912-4.748 8.933-10.406 11.735-16.738l.128-.327c2.583-5.367 11.334-7.604 16.902-11.844a19.56 19.56 0 0 0 5.186-7.932l.036-.145c6.95-18.139 15.829-35.678 15.555-55.782a2.6 2.6 0 0 1-.2-1.001 2.64 2.64 0 0 1 2.638-2.638c1.255 0 2.311.873 2.565 2.055v.018c10.88 10.589 23.07 20.323 26.508 36.278 1.201 5.222 1.509 10.717 3.184 15.756 1.018 5.986 4.494 10.989 9.315 14.046l.091.054c3.966 2.055 3.056 6.95-.982 9.261-1.583.6-3.656 1.237-5.749 1.765l-.418.091c-13.645 5.367-16.902 15.538-9.333 28.2 2.493 3.803 4.494 8.205 5.749 12.918l.073.309c1.656 8.479 0 9.734-9.734 8.224a23.3 23.3 0 0 0-4.93-.527 23.35 23.35 0 0 0-17.448 7.768l-.019.019c-5.039 5.822-8.078 4.366-12.79 0a46 46 0 0 0-12.207-7.241l-.328-.091c-8.351-4.039-9.661-3.312-11.863 5.822-1.729 7.15-1.656 7.077-6.622 3.166-2.529-1.91-4.112-7.277-8.752-2.038s-5.822 6.295 0 12.7c8.678 9.734 17.811 19.194 26.508 29.038a75.2 75.2 0 0 1 14.373 18.976l.2.4c1.528 5.186 4.966 9.369 9.516 11.863l.109.055c5.895 3.056 5.021 8.805 3.694 14.482-1.564 5.694-6.695 9.806-12.79 9.806h-.455c-5.295.527-12.262-2.311-12.318-7.951 0-7.423-4.567-9.915-8.879-14.027a83.2 83.2 0 0 1-11.317-15.282l-.2-.4c-8.624-13.009-18.267-24.288-29.092-34.295l-.128-.109c-3.312-3.166-5.621-2.529-6.95 1.91 0 1.055-1.255 1.855-1.656 2.838-1.784 3.02-5.003 5.021-8.715 5.021a9.8 9.8 0 0 1-3.803-.746l.073.019a6.6 6.6 0 0 0-1.219-.109 6.6 6.6 0 0 0-3.967 1.328l.019-.019c-4.348 3.438-8.261 6.895-11.917 10.57-8.606 8.733-17.429 17.357-25.18 26.473-4.84 5.895-13.263 8.479-14.446 18.339-.527 5.239-13.846 6.605-18.812 2.565s-7.096-13.246-2.456-16.883c7.35-5.694 10.534-14.7 19.886-19.267s15.374-13.901 22.852-21.177c5.094-5.021 10.261-9.989 15.101-15.282 1.583-1.784 3.766-5.549 3.056-6.605a11.3 11.3 0 0 1-1.874-6.24c0-4.639 2.766-8.643 6.75-10.389l.073-.036c6.223-3.967 3.438-5.295.527-8.805-6.622-7.951-12.645-16.211-18.94-24.361-14.719-2.456-22.378-14.7-33.113-23.088-4.913-3.967-10.261 0-13.263 3.238a15.2 15.2 0 0 0-4.166 10.461c0 .855.073 1.711.218 2.529l-.019-.091c4.221 8.314 8.878 15.483 14.173 22.088l-.2-.254c5.713 7.059 14.009 11.827 23.415 12.881l.164.019c2.711.6 4.185 1.729 2.183 4.112-2.638 4.403-7.369 7.332-12.809 7.332-.819 0-1.601-.073-2.384-.2l.091.019.019-.019zm143.439 75.831c-2.602 1.055-4.785 2.128-6.859 3.366l.218-.128c-1.055.728-2.311 2.911-1.929 3.639.837 2.002 2.347 3.548 4.257 4.403l.055.019c.218.036.455.036.71.036a5.94 5.94 0 0 0 4.584-2.147v-.019a18.4 18.4 0 0 0 1.784-7.314v-.036c-.128-.455-1.656-1.129-2.838-1.855l.019.036zM94.222 263.261a39 39 0 0 0 3.73-6.695l.091-.254c.4-2.183-5.822-7.806-7.168-6.605a5.94 5.94 0 0 0-1.656 4.112c0 .292.019.6.073.873v-.036c1.528 3.293 3.203 6.112 5.13 8.733l-.091-.145-.109.019z"/></svg>