<svg xmlns="http://www.w3.org/2000/svg" viewBox="0 0 300 300"><path d="m64.425 12.009 2.85 12.009-4.884 23.203L51.6 63.093 40.809 78.768v5.091c0 3.056-2.447 9.563-5.494 14.859l-5.7 9.562-3.056-1.219-3.056-1.022 1.219 10.584c.609 5.906 2.241 13.434 3.666 16.894l2.438 6.103.816-4.069a229 229 0 0 1 1.828-8.953l1.022-4.884 10.584 9.769-2.85-15.469 4.069-5.494c4.481-6.309 17.503-14.25 19.744-12.009.816.816.403 5.091-1.022 9.563l-2.447 8.138h-6.103l1.219 4.481c.816 2.644 2.644 5.906 4.069 7.528l2.85 2.85 5.906-13.022c3.253-7.125 8.344-16.078 11.4-19.941 2.85-3.863 5.288-7.734 5.288-8.756 0-.816-2.447-2.85-5.494-4.275l-5.288-2.85 10.988-7.331 7.331 1.828c4.069 1.022 7.734 2.85 8.138 4.275.403 1.219-3.862 7.528-9.769 14.044-5.7 6.309-12.412 15.872-14.653 20.963l-4.275 9.366-.816 16.894-1.022 16.894 3.666 14.653c1.828 8.137 4.884 17.297 6.516 20.756 1.828 3.253 5.494 9.159 8.138 12.825l5.091 6.713 4.069-4.069c2.034-2.447 4.678-3.862 5.494-3.253 1.022.403 2.85 3.666 4.275 7.125l2.447 6.103h7.331l9.366-10.988 9.563-11.194-1.425-5.091-1.219-5.287h3.253c1.828 0 3.253-.403 3.253-.816 0-.609-2.85-3.863-6.309-7.331l-6.516-6.309 1.828-1.828c1.022-.816 3.459-2.034 5.494-2.447l3.459-.609-10.172-14.25 1.219-4.678 1.219-4.481h3.253c1.828 0 5.287 2.034 7.941 4.481l4.678 4.275v-16.284l9.366-13.838 4.884-.609 4.884-.816 5.287 7.331V161.4l7.125-6.309c4.069-3.459 8.137-6.309 9.159-6.309.816 0 3.056.609 4.884 1.219l3.253 1.219v6.516c0 3.666-2.644 16.481-6.103 28.294-3.253 12.009-6.103 23.409-6.103 25.238v3.666l6.103-7.331c3.253-4.069 8.747-8.55 12.216-9.975l6.103-2.447 3.253 2.644 3.459 2.85-1.219 14.25c-.609 7.734-3.056 20.559-5.7 28.088-2.447 7.528-8.55 20.756-13.434 29.306-4.884 8.747-8.55 16.481-8.137 17.709.816 2.447 34.397-28.294 46.809-43.144 5.494-6.309 13.434-17.906 17.906-25.444 4.678-7.734 10.378-19.95 13.022-27.478 6.309-18.112 11.194-42.534 11.194-55.762 0-14.653-3.459-34.603-8.137-48.028-2.241-6.309-7.941-18.113-12.619-26.456-4.884-8.344-8.55-16.688-8.137-18.525l.609-3.459-16.284-15.675c-8.747-8.55-19.537-17.1-23.606-18.928-4.069-1.631-7.941-2.644-8.55-2.034-.609.403 1.425 4.481 4.275 8.747 2.85 4.069 5.287 9.769 5.287 12.216 0 2.644-1.828 6.516-3.862 8.55-2.241 2.241-7.528 4.884-11.803 6.103s-12.009 2.241-17.297 2.241h-9.563L150.294 59.03v10.172l3.863 2.241c2.241 1.022 4.481 2.034 5.091 2.034s.609-2.85 0-6.103l-1.219-6.103h3.253c1.828 0 3.862 1.425 4.481 3.056.816 1.828.609 8.344-.206 14.859l-1.425 11.597-7.734 7.331c-4.275 4.069-10.378 8.138-13.434 8.756l-5.906 1.631-3.666-4.884-3.863-4.678 1.425-12.216c.609-6.712 1.828-14.044 2.241-16.481l1.022-4.275-5.287-6.309-5.494-6.516h-13.434l-1.022 2.447c-.609 1.425-4.069 4.481-7.734 6.516l-6.919 4.069 5.494-6.516 5.494-6.712-1.219-9.563c-.609-5.288-1.425-9.769-1.631-10.172s-3.862 4.069-7.941 9.769c-4.069 5.494-8.138 10.172-9.159 10.172-1.219 0-.206-3.862 1.828-8.756l4.069-8.55V23.227c0-6.919-.816-13.022-1.828-13.631s-3.253 4.481-5.287 11.597c-1.828 6.919-4.884 14.859-6.516 17.709l-2.85 5.091 1.022-8.138c.609-4.481.206-11.803-.816-16.078-1.828-8.137-7.528-17.709-11.4-18.928L61.346.033l3.056 12.009zm-4.481 62.682c-.609 1.828-1.219 3.666-1.219 4.069s-1.828.816-4.069.816-4.069-.816-4.069-2.034c0-1.828 5.906-5.906 8.953-6.103.816 0 1.022 1.425.403 3.253z"/><path d="m38.166 159.975-2.438 17.1 2.644 3.253c1.425 1.631 3.666 3.056 5.287 3.056 1.425 0 3.863-2.034 5.091-4.481l2.447-4.275-3.666-16.078c-2.034-8.756-4.481-15.872-5.287-15.872s-2.644 7.734-4.069 17.297zm120.281 4.069v14.447l-7.331 15.056-7.125 15.262-25.444 24.422-25.238 24.422-3.056 7.528c-1.631 4.275-3.056 9.769-3.056 12.619 0 2.644 2.241 7.734 5.091 10.988l5.091 6.103 10.378 2.447 10.378 2.644 10.791-1.219c6.103-.609 14.25-2.644 18.525-4.678l7.528-3.666 5.906-9.159 6.103-9.366-1.631-35.006-4.069-6.516-4.275-6.516-7.125 9.366-7.331 9.159 2.85 7.734c1.425 4.069 2.644 9.562 2.85 12.216v4.884l-11.597 11.597-7.331 1.219-7.125 1.425-5.906-2.85-5.7-2.644-.609-5.494c-.403-3.056.816-7.941 2.447-11.194 1.828-3.056 12.619-15.675 24.216-28.088l21.169-22.388 3.459 2.85c1.828 1.631 3.862 2.241 4.678 1.631.609-.816.206-6.919-.816-13.631s-1.425-12.216-1.022-12.216c.609 0 2.85 1.631 5.091 3.459l4.069 3.666-1.425-8.137c-1.828-9.159-7.734-27.066-11.194-32.766l-2.034-3.863-.206 14.25zm-102.169 8.344c-.816 1.219-2.034 8.137-2.85 15.469l-1.219 13.228 3.459 1.219c1.828.816 4.275 1.022 5.288.206 2.447-1.425 2.034-14.447-1.022-24.216l-2.447-8.137-1.219 2.241z"/></svg>