<svg xmlns="http://www.w3.org/2000/svg" width="300" height="300" viewBox="0 0 300 300"><title>factions-chaos-untamed-beasts</title><path d="M0 108.919c.084-1.106.244-2.222.234-3.319-.037-4.828.675-9.422 3.019-13.772 1.519-2.813 2.391-5.962 3.656-8.916.3-.713.966-1.284 1.519-1.894.984-1.097 2.053-2.138 2.991-3.281 1.753-2.156 3.244-4.575 5.175-6.563 8.325-8.578 16.453-17.334 25.472-25.219 6.656-5.822 13.969-10.284 22.772-11.897 7.603-1.378 14.916-.731 22.163 2.372 11.288 4.847 20.916 12.009 29.953 20.1 3.066 2.756 6.206 5.381 9.947 7.181.656.319 1.556.469 2.231.291 6.188-1.622 12.516-2.175 18.834-2.381 3.159-.103 6.384.572 9.544 1.144 1.997.366 3.759.206 5.531-.759 9.675-5.259 19.153-10.856 28.2-17.156 7.8-5.428 16.144-9.909 24.684-13.969 2.616-1.247 5.747-1.434 8.644-2.081 7.913-1.744 14.025 2.156 19.791 6.656 8.569 6.666 14.813 15.394 21.328 23.962 7.294 9.591 13.847 19.584 18.947 30.478 4.641 9.909 8.916 20.006 13.237 30.066.872 2.034 1.247 4.284 1.762 6.45.572 2.447.009 4.819-.816 7.134-.516 1.416-.722 2.681.628 3.806.3.253.459.825.488 1.275.234 2.672-.066 5.203-1.866 7.388-.731.9-1.106 2.287-2.016 2.803-1.828 1.05-2.841 2.859-4.369 4.106-6.544 5.334-13.209 10.528-20.784 14.372-5.288 2.681-9.759 6.525-14.475 10.012-2.541 1.894-5.184 3.656-7.762 5.513-3.412 2.466-7.294 2.888-11.306 2.709-1.584-.066-3.15-.375-4.734-.459-2.859-.15-5.147-1.425-7.181-3.347-4.809-4.556-8.034-10.106-10.547-16.162-3.469-8.334-5.081-17.025-5.606-25.978-.3-5.128-.919-10.238-.994-15.356-.056-4.228.422-8.466.806-12.675.094-.966.844-1.856 1.2-2.813.469-1.219.713-2.522 1.284-3.675.581-1.181 1.2-2.634 2.231-3.234 5.7-3.281 11.625-6.141 18.112-7.537 1.041-.225 2.138-.15 3.206-.206 2.044-.094 4.097-.103 6.141-.291 2.709-.234 4.781.703 6.084 3.094 1.753 3.234 3.525 6.469 5.081 9.806 1.603 3.431.806 6.712-1.125 9.844-.825 1.341-1.481 2.794-2.184 4.2-1.35 2.709-2.634 5.438-4.087 8.1-.328.609-1.191.909-1.809 1.35-.15-.112-.3-.234-.469-.347.281-1.575.703-3.15.797-4.734.338-5.85 2.522-11.512 1.856-17.447-.094-.853-.469-1.847-1.05-2.428-2.25-2.269-4.631-4.35-8.1-4.481-1.284-.047-2.297.103-2.672 1.613-.094.366-.666.731-1.088.862-2.091.666-4.2 1.256-6.291 1.875-2.381.713-2.625.956-2.766 3.516-.394 7.781.872 15.347 3.281 22.725 1.969 6.066 3.966 12.131 6.113 18.141.919 2.578 2.194 5.034 3.375 7.519.534 1.144 1.481 1.444 2.7.966 2.203-.872 4.491-1.584 6.637-2.587 1.669-.778 3.187-1.894 4.734-2.916 1.125-.75 2.109-1.716 3.272-2.4 5.672-3.366 10.322-7.997 15.122-12.403.684-.638 1.172-1.706 1.369-2.653.488-2.269.825-4.575 1.097-6.891.094-.844-.056-1.8-.375-2.588a2705 2705 0 0 0-10.162-24.834c-3.338-8.053-8.438-15.019-13.781-21.816-.394-.506-.919-.966-1.491-1.237-3.769-1.772-7.575-3.328-11.906-3.131-3.113.15-6.244.019-9.581.019.056-.994.094-1.95.159-2.906.113-1.8-.319-2.156-1.969-1.622-1.969.637-3.947 1.247-4.481 3.703-.084.384-.731.666-1.172.937-4.247 2.616-8.522 5.184-12.769 7.809-2.531 1.566-4.472 3.722-6.384 6-3 3.563-6.3 6.862-9.525 10.237-1.678 1.763-1.725 1.969-.872 4.303.347.947.6 1.987.581 2.972-.066 5.512-.178 11.016-.413 16.519-.131 2.813.609 5.25 2.325 7.425 1.003 1.275 1.575 3.009 3.516 3.338.234.037.469.319.628.534.994 1.303.909 5.747-.234 6.9-2.756 2.794-4.734 6.094-6.769 9.394-1.097 1.781-2.634 3.366-4.191 4.8-2.138 1.988-2.466 3.038-1.097 5.588.178.328.366.656.525.994 1.275 2.522.422 4.097-2.381 4.294-1.725.113-3.103.9-4.331 2.044-1.331 1.238-1.762 1.219-3.009-.038-1.416-1.425-2.203-1.369-2.963.534a54 54 0 0 0-2.194 6.909c-.666 2.662-1.078 5.381-1.612 8.081-.422 2.156-.3 4.238.609 6.291.272.6.178 1.462-.019 2.109-.713 2.447-.506 3.3 1.444 4.866 1.528 1.228 1.659 1.697 1.059 3.478-.328.966-.75 1.941-.9 2.934-.178 1.2-.338 2.494-.103 3.666.619 3.084-.159 5.85-1.631 8.466-2.625 4.678-5.372 9.281-8.016 13.95-1.425 2.494-2.728 5.063-4.116 7.575-.15.272-.506.506-.816.6-.666.197-1.369.3-2.25.487.206-1.397.413-2.709.609-4.013 1.912-12.3 2.175-24.722 2.287-37.144.019-2.044-.338-4.088-.628-6.113-.197-1.378-1.809-2.128-3.328-1.509.225.675.338 1.425.684 2.044 1.706 3.113 1.8 6.375 1.134 9.778-.816 4.153-1.509 8.334-2.147 12.525-.347 2.241-.853 4.369-2.494 6.291-2.1-7.491-4.153-14.803-6.206-22.116a6 6 0 0 0-.394.038c-.094.281-.234.544-.253.825-.684 7.069-1.369 14.184.112 21.197 1.341 6.347 1.163 12.788 1.65 19.2.375 5.016.722 10.041 1.041 15.056.103 1.622-.047 3.272.084 4.903.244 3.159.506 6.328.966 9.45.206 1.434.056 2.559-.956 3.563h-.563c-.375-.581-.825-1.125-1.106-1.753-1.331-2.934-2.672-5.85-3.891-8.822-1.913-4.688-3.713-9.441-5.606-14.156-.394-.984-.938-1.913-1.397-2.869-.656-1.331-1.491-2.588-1.922-3.994-.778-2.484-1.369-5.044-1.95-7.584-.328-1.444-.516-2.916-.637-3.684 1.153-1.397 2.344-2.25 2.625-3.338.338-1.331-.469-2.588-1.875-3.244-.413-.188-.769-.544-1.05-.909-2.044-2.662-4.097-5.325-6.084-8.034-.731-1.003-.572-3.769.281-4.631.281-.281.863-.281 1.322-.375.431-.084 1.031.047 1.294-.188 1.566-1.434 2.822-2.972 2.859-5.344.084-6.394.384-12.778.506-19.172.037-1.659-.094-3.384-.506-4.988a606 606 0 0 0-5.006-18.628c-.384-1.331-1.247-2.588-2.128-3.684-1.181-1.491-2.541-2.85-3.909-4.191-1.294-1.256-2.681-2.419-4.031-3.628a4.8 4.8 0 0 1-.713-.797c-.637-.984-1.2-2.006-1.875-2.972-.713-1.031-1.528-1.987-2.466-3.197 1.003-.15 1.556-.234 2.1-.319 2.034-.291 3.347-2.175 2.897-4.181a138 138 0 0 0-.797-3.394c-.234-.956-.769-1.369-1.734-.9-.638.319-1.284.628-1.913.947-.141-.131-.281-.253-.422-.394 1.322-2.109 2.541-4.284 3.966-6.328 1.35-1.95 2.372-3.891 1.659-6.366-.178-.591 0-1.294.056-1.941.394-4.444 1.031-8.897 1.153-13.35.159-5.662-1.763-10.594-6.056-14.503A7088 7088 0 0 1 79.56 66.891c-.984-.9-1.997-1.219-3.291-1.172-3.084.112-6.159.253-9.234.15-2.484-.094-4.763.375-6.759 1.8-7.903 5.634-15.863 11.213-22.031 18.881-1.013 1.275-2.25 2.372-3.291 3.628a46 46 0 0 0-3.141 4.237c-.938 1.416-1.247 3.197-2.756 4.275-.3.225-.488.684-.619 1.078-.994 3.047-1.613 6.159-1.087 9.356 1.387 8.475 4.575 16.237 9.703 23.119 3.422 4.613 7.144 8.991 10.631 13.547 2.344 3.084 5.372 5.137 8.925 6.488 1.087.422 2.184.825 3.272 1.228 2.962 1.078 4.322.713 6.038-1.987 1.959-3.056 3.872-6.159 5.625-9.347 4.856-8.812 7.434-18.347 9.009-28.237.328-2.016-.131-3.516-1.369-5.006-3.328-4.022-7.688-6.253-12.638-7.528-2.953-.759-5.1.131-6.487 2.878-2.231 4.416-4.378 8.859-6.544 13.294-.844 1.716-.966 3.478-.244 5.287.244.609.525 1.247.506 1.875-.019.853-.319 1.697-.487 2.531-.159.009-.337.009-.506.019-2.231-3.328-4.622-6.562-6.637-10.012-3.197-5.475-1.819-12.713 3.15-16.688 5.7-4.556 11.634-8.709 18.441-11.531 2.128-.872 3.919-1.041 6.094-.347 3.994 1.275 7.856 2.7 10.959 5.634 3.609 3.422 6.769 7.228 9.319 11.494 1.087 1.819 2.419 3.291 4.191 4.397 1.95 1.219 2.128 1.763 1.631 4.059-1.566 7.341-3.478 14.625-4.556 22.041-1.528 10.575-6.525 19.434-12.469 27.938-.919 1.331-2.091 2.494-3.159 3.722-1.247 1.425-2.334 3.103-3.844 4.181-3.759 2.672-7.659 5.175-11.616 7.528-1.35.806-3.047 1.106-4.631 1.416-.572.103-1.612-.319-1.856-.797-.769-1.481-1.969-1.762-3.394-1.659-2.372.197-4.462-.563-6.563-1.603-3.497-1.716-6.291-4.331-9.131-6.891-6.731-6.056-13.444-12.159-18.066-20.137-5.728-9.881-11.55-19.716-17.212-29.634-1.387-2.306-2.278-4.988-3.384-7.528v-3.919zM155.831 153c.084.131.178.253.253.384 1.566-.872 3.234-1.584 4.659-2.653 1.894-1.416 3.731-2.091 6.094-1.219 2.044.759 4.153.572 6.084-.534 2.522-1.463 4.528-3.516 5.784-6.103 1.078-2.203 2.175-4.294 3.984-6 .919-.862.628-1.556-.534-2.016-3.797-1.537-7.425-.412-11.063.591-.291.084-.778.338-.778.516.019 1.894-1.219 2.381-2.728 2.662-.234.047-.441.328-.637.525-1.913 1.828-3.816 3.684-5.747 5.512-2.475 2.334-4.462 4.988-5.353 8.334zm-18.853-3.647c-.009-2.859-.722-4.416-2.681-5.7-3.037-1.997-6.141-3.9-9.225-5.822a2.6 2.6 0 0 0-.9-.338c-2.944-.478-5.878-.956-8.85-1.35-.797-.103-1.631.084-2.447.141.572.778.994 1.781 1.734 2.287 5.203 3.544 9.844 7.678 13.641 12.731.516.675 1.472 1.05 2.269 1.472s1.734.619 2.466 1.125c.863.6 1.519.572 2.203-.15 1.322-1.369 1.753-3.047 1.781-4.388zm23.756 65.916v3.047c.131.038.244.056.375.094.366-.656.731-1.303 1.144-2.034-.487-.366-.9-.656-1.519-1.106z"/></svg>