<svg xmlns="http://www.w3.org/2000/svg" viewBox="0 0 300 300"><path d="M147.803 281.535c14.307-1.829 28.614-3.441 42.855-5.597 4.856-.762 9.211-2.286 13.153-4.486l-.196.109c14.546-7.992 15.047-18.532 0-25.173-12.499-5.292-27.025-8.384-42.289-8.384a111.5 111.5 0 0 0-37.411 6.445l.784-.239c-2.852 1.328-4.9 3.984-5.336 7.121v.043c0 2.068 3.92 5.357 6.489 5.749 18.226 2.961 36.715 7.992 54.441-3.027 2.418-1.437 6.881 0 10.387.632a36.7 36.7 0 0 1-3.615 9.145l.109-.196a11.42 11.42 0 0 1-6.641 3.811l-.066.021c-26.066 5.118-52.284 8.623-76.5-6.229-12.129-7.426-11.759-17.399 1.438-23.975 10.039-6.032 21.798-10.344 34.363-12.151l.5-.066c30.225-2.243 61.082-3.854 87.954 14.699 5.183 2.984 9.581 6.707 13.196 11.106l.066.087c5.422 7.992 4.159 14.22-4.791 21.014-19.076 14.22-42.354 23.845-67.68 26.85l-.675.066c-26.632 3.768-52.372-3.027-78.198-8.449-2.875-.632-5.052-4.247-8.013-5.597-14.002-6.533-30.443-14.133-29.333-30.813 1.284-18.292 16.397-30.683 32.861-38.326 11.019-5.183 23.496-7.274 35.104-11.497 6.315-2.243 14.939-4.464 17.421-9.342 4.399-7.992-3.179-14.372-9.908-19.185-2.636-1.829-5.509-3.527-7.992-5.27-6.947-4.377-17.029-13.98-20.143-12.151-8.209 6.424-15.026 14.154-20.251 22.952l-.218.391c-.718 1.328-1.132 2.918-1.132 4.595s.414 3.266 1.154 4.638l-.022-.043c12.129 13.654 1.525 12.478-8.013 12.478-10.387 0-20.774.632-31.096 0-12.63-.893-13.283-1.829-5.27-12.151 10.082-13.022 21.493-25 31.968-37.608 3.986-4.791 7.121-10.387 10.649-15.57-7.6-4.791-16.876-14.939-22.385-13.262-15.983 4.965-12.956-4.552-12.543-12.456.763-7.904 1.916-14.982 3.506-21.907l-.196 1.132c6.533 3.681 13.283 7.034 19.512 11.106 8.776 5.684 17.269 16.594 25.652 15.962s14.851-12.304 21.971-19.403a212 212 0 0 0 19.533-20.796l.305-.37c2.025-2.634 3.223-5.988 3.223-9.647 0-1.438-.196-2.831-.545-4.138l.022.109a14.6 14.6 0 0 0-9.604-3.571c-1.307 0-2.548.175-3.768.479l.109-.022c-9.908 3.027-19.206 7.992-28.875 11.977-.718.152-1.546.24-2.418.24s-1.677-.087-2.461-.261l.087.022c.632-1.132 1.111-2.722 2.156-3.354 10.082-7.011 21.689-13.849 33.797-19.86l1.634-.741c8.013-3.266 14.242-6.075 11.106-14.851s-11.106-7.992-18.705-5.597c-31.968 8.95-63.956 18.466-86.429 45.926a30.9 30.9 0 0 1-7.795 4.965l-.196.087c-.718-2.548-1.307-5.618-1.634-8.754l-.021-.284c-.239-2.7-.348-5.815-.348-8.972s.13-6.293.391-9.386l-.021.414a11.05 11.05 0 0 1 4.225-7.97l.021-.022c18.074-9.038 36.779-16.68 54.527-26.35 55.093-29.964 107.291-21.014 158.466 9.974 9.908 5.988 20.709 10.452 30.943 15.962 2.373 1.699 4.399 3.768 5.923 6.141l.066.087c.632.893 0 2.548 0 3.92-.502 8.95-.957 17.878-1.525 26.829-6.075-5.597-11.912-11.585-18.227-16.855-20.687-17.639-46.753-29.55-75.389-33.079l-.697-.066c-5.379-.632-15.265-4.246-15.265 6.533 0 9.342 8.863 6.229 13.915 5.988.523-.022 1.132-.022 1.743-.022 16.092 0 30.486 7.208 40.178 18.553l.066.087c11.433 12.063 10.235 25.805-2.243 37.302a206 206 0 0 0-15.635 18.183l-.391.5c11.52 5.052 15.983-6.707 23.584-10.54s11.433-10.997 17.508-15.962c1.916-1.611 5.509-1.132 8.406-1.611 1.525 7.556 2.722 16.637 3.311 25.891l.043.632c0 2.004-6.229 4.247-9.668 6.227-8.013 4.464-15.983 8.558-23.278 13.501-1.045.718-.544 6.227.957 7.992 8.013 9.756 15.983 19.098 23.998 28.679 6.315 7.513 12.478 15.243 18.792 22.755 4.159 4.943 2.068 6.707-3.354 6.795h-41.985c-5.422 0-9.124-.632-5.27-7.992 1.982-3.07 3.158-6.816 3.158-10.845a21 21 0 0 0-.544-4.704l.021.152c-5.727-8.47-11.89-15.875-18.684-22.603l-.021-.021c-.391-.479-2.483 0-3.266.479-12.26 8.47-22.843 16.768-32.97 25.587l.414-.37c-3.441 3.179-2.809 10.867-3.745 16.55-.414 2.636.718 5.749 0 7.992s-4.072 6.881-6.816 7.426c-10.235 2.068-20.709 3.179-31.096 4.399-16.746 3.202-31.031 11.955-41.244 24.237l-.087.131c-8.013 8.449-5.422 17.334 6.489 23.954 15.135 9.19 33.427 14.59 52.982 14.59 2.352 0 4.661-.087 6.99-.239l-.305.021-.175-.021zm34.929-145.138-30.704-36.41h-1.916c-8.013 0-35.408 37.368-30.704 42.158a112.4 112.4 0 0 0 28.723 21.428l.609.305c7.034 3.266 32.774-16.376 33.971-27.459zm-6.925-78.503c-4.486 1.829-11.76 2.809-12.717 5.749a19 19 0 0 0-.109 2.025 19.83 19.83 0 0 0 4.225 12.238l-.043-.043c3.636 6.097 8.47 11.128 14.22 14.829l.175.109c2.591 1.177 5.618 1.85 8.797 1.85s6.206-.675 8.929-1.916l-.131.066c3.55-2.068 5.879-5.836 5.879-10.192 0-2.527-.806-4.877-2.156-6.795l.021.043c-6.163-10.061-13.022-18.596-27.09-17.966z"/></svg>