<svg xmlns="http://www.w3.org/2000/svg" width="300" height="300" viewBox="0 0 300 300"><title>factions-order-cities-of-sigmar-anvilgard</title><path d="M146.625 299.766c-3.553-.647-5.991-3.291-7.059-7.669-.384-1.575-.628-11.194-1.069-41.972-.506-35.428-.506-40.266-.028-42.872.825-4.462 1.894-6.909 3.881-8.953 3.591-3.684 8.156-4.847 11.859-3.019 2.466 1.209 5.55 4.153 6.328 6.009.984 2.372 1.162 10.894.356 17.156-.572 4.425-.619 8.447-.497 40.284l.131 35.362-1.003 2.034c-1.434 2.925-2.916 3.675-7.547 3.844-1.95.075-4.369-.019-5.362-.197zm-37.153-4.097c-2.25-.506-6.891-3.787-8.944-6.337-2.316-2.878-4.537-7.228-5.269-10.322-1.05-4.453-.366-9.038 4.05-27.253 2.597-10.716 4.153-18.159 5.531-26.531 1.003-6.103 1.575-13.406 1.041-13.406-1.125 0-9.666 5.822-17.916 12.216-8.531 6.619-12.872 11.822-12.009 14.4.534 1.612 1.959 2.428 4.2 2.409 2.916-.028 5.672-1.256 10.069-4.463 2.175-1.584 4.078-2.803 4.237-2.709.609.375.244 3.328-.647 5.241-2.541 5.456-7.997 11.184-12.806 13.444-4.163 1.959-12.563.188-16.791-3.525-2.672-2.344-3.422-9.675-1.547-15.206 2.025-6 6.122-12.403 11.906-18.591 1.931-2.062 2.466-2.859 2.128-3.122-1.762-1.397-5.344-2.166-12.319-2.653-6.769-.469-9.891-1.491-14.991-4.884-9.684-6.441-16.847-17.916-17.55-28.106-.197-2.775-.112-3.375.703-5.4 2.016-4.978 7.5-12.534 10.631-14.625 4.331-2.897 13.594-2.859 19.313.066 5.016 2.569 8.203 9.009 6.487 13.106-1.35 3.234-3.169 2.634-7.322-2.438-1.856-2.259-3.206-2.925-5.925-2.925-2.709 0-4.706.947-6.544 3.094-4.041 4.716-2.775 11.888 3.047 17.278 2.953 2.738 5.569 4.219 10.116 5.728 7.856 2.616 16.969 2.1 22.762-1.294 3.506-2.053 7.594-7.706 6.816-9.413-.197-.441-2.878-3.516-5.953-6.844-9.75-10.556-12.787-14.653-14.869-20.091-5.503-14.362-8.1-19.191-11.203-20.794-1.341-.694-4.106-.675-5.484.037-1.725.891-1.894 1.838-1.603 9 .309 7.688.15 8.325-1.866 7.481-2.409-1.003-6.844-4.369-8.297-6.3-1.716-2.269-3.206-6.244-3.216-8.578-.028-6.112 6.319-14.953 12.806-17.831 3.122-1.388 10.069-.038 15.769 3.056 3.234 1.763 7.228 5.775 10.331 10.388 2.634 3.919 6.666 11.784 8.737 17.044.638 1.612 2.128 4.837 3.319 7.181 2.391 4.688 5.269 8.137 7.894 9.441 3.497 1.744 8.991 1.669 12.122-.159 5.353-3.131 6.028-11.803 1.453-18.553-.863-1.266-2.128-3.103-2.831-4.069-.984-1.378-1.256-2.109-1.237-3.3.047-2.006.591-3 4.688-8.447 3.797-5.053 4.837-7.181 4.5-9.253-.3-1.847-2.034-4.575-5.466-8.616-6.075-7.144-6.262-8.119-2.531-13.331 7.819-10.913 20.719-18.431 35.944-20.934 5.297-.872 14.212-.769 19.219.216 9.544 1.884 16.275 5.653 23.278 13.022 3.178 3.347 4.547 5.888 4.547 8.438 0 2.438-.994 4.603-4.116 8.934-2.794 3.891-5.156 8.456-5.156 9.975 0 .581.506 1.594 1.256 2.484 2.381 2.85 3.534 11.222 3.487 25.322-.037 10.509.075 11.587 1.444 14.334 1.716 3.422 4.678 5.072 9.337 5.194 2.738.075 4.603-.741 7.697-3.356 4.725-3.994 10.744-12.6 15.225-21.759 3.366-6.872 5.494-9.694 10.041-13.322 1.65-1.313 4.491-3.113 6.3-4.003 11.625-5.681 21.384-2.25 24.188 8.512.909 3.506.731 6.225-.6 8.888-1.884 3.769-6.769 8.147-9.478 8.503-.844.113-.909.019-.806-1.162.056-.703.141-2.766.178-4.584.056-2.766-.066-3.609-.797-5.222-2.616-5.822-8.616-6.703-12.563-1.866-2.456 3.009-8.644 12.262-16.884 25.219-8.906 14.006-11.259 18.047-11.269 19.322-.009 1.2 1.875 3.131 4.284 4.406 6.891 3.647 17.888 5.85 27.506 5.503 7.444-.262 10.256-1.603 12.141-5.775 1.088-2.4 1.031-6.806-.112-9.591-1.913-4.641-4.584-6.713-9.384-7.266-3.066-.347-5.231-1.247-5.419-2.241-.487-2.522 8.325-8.709 14.081-9.891 1.978-.403 2.447-.384 3.928.178 3.553 1.359 8.259 7.116 10.622 12.975 1.069 2.662 1.134 3.094 1.144 7.772.009 3.6-.169 5.578-.628 7.256-2.831 10.237-10.088 19.003-19.472 23.522-4.697 2.259-7.856 2.925-15.553 3.262-9.478.422-9.563.581-3.825 7.416 7.369 8.794 9.956 15.206 9.525 23.634-.403 7.95-3.75 11.269-11.831 11.766-3.825.234-6.347-.347-9.628-2.194-4.519-2.55-8.737-7.763-8.437-10.406.113-1.003.188-1.041 1.95-.956 7.912.384 11.241.019 13.969-1.509.778-.441 1.472-1.078 1.538-1.434.15-.769-2.831-3.769-7.275-7.322-4.397-3.516-22.95-16.706-25.931-18.431-1.622-.938-1.894-.45-1.903 3.347-.009 4.669.562 6.853 3.281 12.619 2.981 6.309 4.809 11.409 6.262 17.438 4.153 17.297 4.256 34.828.253 44.466-2.194 5.287-4.734 7.012-10.734 7.275-4.519.197-8.025-.478-11.784-2.288-2.119-1.012-2.841-1.603-4.078-3.337-2.963-4.134-4.116-9.244-3.403-15.066.506-4.144 1.238-6.122 2.466-6.675.506-.225.994-.412 1.097-.412.384 0 1.978 4.106 2.719 7.003 1.275 4.988 2.963 7.631 5.222 8.166 1.434.337 3.825-.384 4.453-1.35 1.003-1.566 1.397-6.534 1.219-15.375-.197-9.591-.984-14.831-3.394-22.8-2.794-9.225-5.4-14.813-13.753-29.512-6.572-11.559-9.094-15.338-12.028-18.019-3.159-2.897-5.166-3.769-8.653-3.778-2.644-.009-3.159.113-5.222 1.238-6.862 3.722-14.756 16.219-21.45 33.938-2.522 6.666-4.003 11.756-7.013 24-3.591 14.634-4.153 17.222-4.463 20.606-.431 4.8 1.05 7.237 4.378 7.237 3.15 0 5.541-4.172 7.191-12.544.225-1.153.563-2.194.731-2.297.581-.366 1.8 1.369 2.541 3.628 1.116 3.384 1.922 9.056 1.978 13.959.047 3.975-.028 4.556-.806 6.019-1.922 3.6-6.628 7.088-11.231 8.325-2.081.562-4.763.581-7.078.066zm24.684-137.522c1.547-1.547.984-4.013-1.537-6.816-2.381-2.634-5.259-3.319-6.928-1.641-.956.956-.947 2.278.009 3.488.244.3.872 1.313 1.397 2.241 1.809 3.178 5.269 4.519 7.059 2.728m37.228-.431c1.284-1.238 1.922-3.375 1.697-5.728-.309-3.197-1.95-3.9-4.875-2.091-1.369.844-3.094 3.956-3.094 5.569 0 1.35.909 3.103 1.734 3.338 1.434.413 3.487-.075 4.537-1.087zM80.203 72.469c-.159-.253-.375-12.919-.478-28.153l-.188-27.694-2.119-3.056.197-5.222c.244-6.356.572-7.453 2.409-7.959.881-.244 21.291-.375 59.709-.375h58.369l-.103 17.944c-.103 17.841-.103 17.953-.891 18.741-.731.731-1.303.816-7.144 1.041-4.838.197-6.619.394-7.453.853-.6.328-1.931 1.022-2.953 1.528-3.131 1.556-4.2 3.197-5.259 8.025-.366 1.659-.844 3.366-1.069 3.788-1.022 1.903-3.863 3.403-6.469 3.412-1.716.009-3.844.712-3.844 1.275 0 .281.478.844 1.059 1.266 1.369.975 1.594 1.978 1.144 5.156-.441 3.141-1.406 5.147-3.019 6.291-1.144.816-1.575.862-9.628 1.088-4.631.131-8.475.253-8.541.272s-.6.572-1.191 1.219c-1.012 1.106-1.116 1.144-1.697.553-.525-.525-.656-1.706-.844-7.341-.328-9.956-.384-10.003-11.728-9.675-7.556.216-7.491.206-19.162 3.712-10.106 3.038-12.394 3.994-18.131 7.641-5.184 3.291-10.003 6.122-10.406 6.122-.141 0-.394-.206-.563-.459zm21.666-25.557c.656-.656.403-1.097-1.069-1.828-1.547-.769-2.831-3.581-4.434-9.712-1.303-4.969-1.35-5.381-1.519-13.069l-.178-7.941 1.903-1.903 42.788.103c33.141.075 43.022.206 43.819.553 1.575.703 2.091 2.409 2.091 6.956 0 6.225-.966 7.313-6.6 7.406-8.109.141-15.759 5.053-15.759 10.106 0 1.669.572 2.775 1.284 2.503.3-.112 1.359-1.331 2.362-2.709 2.091-2.878 5.203-5.184 8.381-6.225 1.144-.375 3.825-.853 5.962-1.05 7.069-.675 7.078-.694 7.097-11.287.009-6.628-.056-7.472-.647-8.062-.619-.619-3.075-.656-47.916-.75l-47.259-.094v17.063c0 16.116.037 17.138.703 18.441.384.759 1.087 1.575 1.556 1.809 1.237.619 6.722.403 7.425-.291zm7.847-2.84.731-1.003 25.669-.187c23.522-.169 25.716-.234 26.287-.806.516-.516.544-.722.15-1.191-.422-.506-3.516-.572-27.338-.572-23.934 0-26.925.066-27.441.572-.319.319-.572.722-.572.909s-.45.431-1.003.562c-3.337.75-3.759.928-3.759 1.603 0 .928.441 1.05 3.722 1.087 2.663.028 2.85-.028 3.544-.975z"/></svg>