<svg xmlns="http://www.w3.org/2000/svg" viewBox="0 0 32 32"><path d="M14.507 31.997c-.154-.032-.307-.067-.463-.095-.094-.017-.19-.015-.282-.031-.169-.029-.205-.098-.166-.274a6 6 0 0 0 .077-.426c.015-.11-.042-.194-.151-.205-.18-.018-.24-.117-.218-.296l-.158-.013c-.013.057-.029.105-.031.154-.001.108-.061.138-.159.151-.363.045-.423.018-.395-.346.025-.352.119-.701.188-1.048.035-.174.107-.345.123-.519.027-.313.239-.48.472-.611a.7.7 0 0 1 .461-.08c.399.087.794.105 1.195.039.292-.047.581-.11.874-.141.215-.022.434-.013.65-.001.047.003.109.068.134.12.117.239.121.494.094.754-.054.515-.106 1.032-.169 1.545-.011.089-.054.226-.114.247a.26.26 0 0 1-.324-.135q-.078-.154-.186-.004c-.029.04-.102.082-.147.074a3 3 0 0 1-.427-.114c-.085-.029-.116 0-.174.063-.197.211-.188.455-.173.713.013.187-.075.332-.258.409-.039.017-.07.049-.105.074q-.084-.004-.168-.003zM.873 16.822c.021-.05.052-.098.06-.151.018-.11.038-.215.179-.222.135-.007.232.056.255.19.027.156.117.169.269.127-.027-.212-.04-.427-.08-.637-.084-.443.103-.69.549-.681.579.013 1.159.038 1.738.063.225.01.283.11.193.321q-.103.237-.218.469a.42.42 0 0 0-.017.384c.043.099.032.223.082.318.04.077.126.155.207.18.145.042.233.12.279.257.123.36.017.599-.345.691-.583.148-1.161.303-1.721.528-.262.106-.431-.007-.511-.283-.05-.174-.113-.345-.17-.516-.183.02-.236.137-.24.258-.007.181-.095.227-.257.218-.173-.01-.188-.12-.19-.254a19 19 0 0 0-.024-.635c-.003-.053-.024-.105-.038-.158l-.001-.466zm2.568-1.239-.078-.001-.063.227.186-.004zM31.123 15.348c-.194.011-.389.017-.582.039-.043.006-.092.067-.114.113-.028.059-.024.131-.043.194-.039.127-.078.174-.255.147-.436-.071-.884-.074-1.326-.102-.06-.004-.121.011-.183.013-.258.001-.399-.145-.334-.394.08-.308.042-.607 0-.911-.029-.207.04-.318.223-.416.293-.156.592-.283.928-.299.057-.003.134.001.17.035.12.113.246.091.373.038.331-.137.544-.003.581.368.004.049.006.099.008.159q.072.005.134.007c.219.004.328.101.356.315l.068.494q-.005.1-.004.2M16.214 0c.66.694 1.42 1.252 2.027 1.975.367.437.833.79 1.237 1.199.772.782 1.533 1.576 2.298 2.365.101.105.205.205.302.314.176.198.186.346.022.553-.339.43-.515.911-.535 1.464a148 148 0 0 1-.159 3.578c-.057.952-.152 1.901-.237 2.852-.008.096-.067.187-.099.281-.024.071-.031.152-.067.216-.04.071-.094.154-.162.187-.536.261-1.079.508-1.616.765-.205.099-.403.214-.606.318-.181.095-.272.052-.268-.152.015-.886.018-1.774.067-2.659.038-.662.109-1.325.226-1.977.063-.353.028-.63-.187-.917-.36-.482-.694-.984-1.036-1.48-.255-.371-.505-.747-.759-1.119a.7.7 0 0 0-.141-.163c-.177-.141-.286-.121-.395.074q-1.052 1.884-2.097 3.772a.5.5 0 0 0-.057.222c-.042.814-.089 1.628-.114 2.441-.01.304.045.61.053.914.008.295.013.592-.114.871-.099.219-.235.276-.454.172-.126-.06-.244-.135-.373-.19-.42-.176-.842-.352-1.267-.514a1.1 1.1 0 0 0-.377-.053c-.225-.004-.353-.116-.368-.342l-.001-.067c-.02-1.305-.021-2.612-.067-3.915a27 27 0 0 0-.198-2.231c-.068-.575-.191-1.142-.282-1.714-.073-.452-.296-.838-.522-1.223-.152-.258-.149-.339.08-.526q1.308-1.07 2.621-2.134c1.015-.824 1.964-1.721 2.909-2.623.207-.202.468-.35.719-.533zm3.16 14.982c.227.003.2-.205.288-.325-.236-.039-.355.101-.288.325m2.129-8.599c.066-.085.123-.133.138-.19.008-.032-.052-.082-.081-.124-.047.053-.103.102-.137.163-.011.021.036.073.08.151m-5.937-1.006.176-.169c-.038-.034-.08-.098-.113-.094-.124.017-.133.11-.063.262z"/><path d="M8.183 17.666c-.031-.41-.061-.856-.099-1.3-.061-.734-.137-1.467-.188-2.201-.042-.59-.042-1.182-.089-1.771a56 56 0 0 0-.226-2.13c-.036-.3.011-.567.208-.798.484-.569.969-1.14 1.46-1.704.05-.059.179-.124.218-.099.067.04.117.147.128.232.202 1.682.161 3.377.264 5.063.017.283.081.564.092.847.017.445.007.892.008 1.339.001.223.008.311.278.389.678.198 1.341.447 2.014.667.677.222 1.357.434 2.071.663.017-.186.045-.366.049-.546.013-.72.008-1.441.025-2.159.015-.624.078-1.248.066-1.872-.007-.374.141-.664.311-.965q.77-1.361 1.538-2.722c.028-.049.059-.094.095-.152.223.101.399.244.514.459.283.532.581 1.055.842 1.598.151.314.265.652.348.99a1.5 1.5 0 0 1-.004.643c-.095.44-.142.878-.138 1.327q.012 1.063-.006 2.127c-.006.317-.057.632-.082.948-.017.215-.027.431-.04.674.088-.011.148-.007.2-.028 1.234-.487 2.464-.984 3.7-1.46.274-.105.364-.26.37-.544q.058-2.714.141-5.424c.021-.692.06-1.383.096-2.074.013-.233.116-.335.321-.307.068.01.152.066.19.126.434.697.906 1.365 1.452 1.978a.44.44 0 0 1 .124.349c-.036.422-.049.846-.108 1.265-.133.958-.043 1.918-.071 2.875-.024.826-.015 1.654-.08 2.476-.02.261-.084.581-.387.738-.306.159-.595.35-.907.494-.729.335-1.461.663-2.204.967-.685.281-1.387.519-2.077.787-.275.106-.532.258-.805.366q-.629.25-1.272.459a.56.56 0 0 1-.343-.025c-.772-.29-1.551-.567-2.306-.896-1.139-.495-2.327-.828-3.518-1.157-.413-.114-.839-.184-1.259-.268-.087-.018-.177-.01-.267-.02-.06-.006-.123-.011-.179-.032-.145-.053-.288-.117-.468-.193z"/><path d="M16.849 26.428h-.318q.034-.522.067-1.033a3 3 0 0 0 .007-.35c-.003-.04-.052-.113-.07-.11-.047.007-.11.039-.128.078a.6.6 0 0 0-.046.226c-.02.3-.025.603-.053.903a.46.46 0 0 1-.112.262c-.046.047-.16.067-.226.045-.047-.015-.088-.12-.091-.186-.008-.341 0-.681-.008-1.022-.001-.063-.04-.174-.075-.179-.121-.018-.159.08-.161.184q-.004.36-.004.72 0 .193-.004.385c-.003.116-.036.212-.176.219-.142.006-.289.013-.35-.155a.5.5 0 0 1-.027-.18c-.003-.318.001-.637-.003-.955-.003-.227-.066-.269-.269-.211l.027 1.288c.001.056.017.121-.007.165-.035.066-.098.116-.149.172-.045-.049-.116-.091-.128-.147-.087-.38-.158-.764-.241-1.145a.8.8 0 0 0-.113-.271c-.031-.046-.107-.061-.163-.091-.02.059-.06.12-.053.176.015.144.047.286.08.427q.128.553.26 1.105c.006.025.001.052.001.101a1.13 1.13 0 0 1-.429-.576c-.128-.396-.233-.8-.349-1.2a.32.32 0 0 1 .07-.325.43.43 0 0 0 .088-.438c-.119-.36-.227-.723-.362-1.078-.06-.158-.168-.297-.253-.445q-.089-.156-.181-.311c-.028-.047-.054-.099-.096-.133-.227-.188-.63-.179-.849.015-.155.137-.353.151-.501.011a30 30 0 0 1-.952-.941.4.4 0 0 1-.091-.268c.003-.329.013-.659.045-.987.032-.321.096-.638.144-.958.017-.116.02-.235.04-.349.039-.202.179-.283.37-.207.261.105.544.17.751.385-.008.021-.01.04-.02.05-.366.378-.385.893-.032 1.287a.66.66 0 0 0 .302.195c.43.116.861.23 1.3.307.334.06.676.073 1.015.089.304.015.537-.173.765-.338.061-.043.045-.195.064-.297.29-.018.56.063.831.177a.8.8 0 0 0 .42.031c.197-.034.385-.112.578-.168.202-.059.286-.02.371.169.126.275.324.357.614.258.046-.015.099-.035.145-.029.596.064 1.161-.112 1.736-.214.225-.04.451-.08.671-.137a.3.3 0 0 0 .172-.147c.131-.308.158-.637.148-.969-.001-.043-.007-.096-.034-.126-.114-.134-.05-.204.078-.264.251-.119.5-.243.751-.36.102-.046.172-.011.193.121-.163.042-.169.179-.169.315.001.639-.092 1.266-.212 1.893-.05.264-.173.426-.422.528-.131.054-.244.172-.345.281-.128.138-.237.296-.353.445-.194.248-.427.283-.683.096-.108-.08-.208-.168-.31-.255-.133-.113-.254-.098-.412-.025-.68.31-.899.918-1.058 1.572-.045.184-.084.369-.13.551-.029.114-.01.205.119.229.215.04.223.218.133.359a1.73 1.73 0 0 0-.285.893c-.007.225-.066.447-.106.67-.054.311-.302.461-.556.618.018-.101.038-.2.052-.302q.051-.362.099-.727c.038-.275.082-.55.11-.826.007-.067-.025-.177-.073-.201-.099-.05-.131.052-.145.128q-.102.592-.197 1.186c-.015.098-.022.197-.036.313zm-.194-3.414c.007-.169.021-.295.017-.42-.011-.339-.032-.678-.047-1.018-.008-.186-.191-.371-.406-.405-.209-.032-.402.075-.465.268-.034.106-.047.218-.078.324-.074.261-.145.525-.233.782-.031.088-.163.17-.151.237.015.081.135.142.207.215.158.156.215.159.385-.003.128-.123.267-.142.429-.078.099.038.201.057.343.098zm-2.362.219c-.022-.133-.025-.223-.054-.304-.014-.038-.085-.087-.117-.078-.038.011-.082.074-.085.117a.6.6 0 0 0 .032.229c.027.082-.032.235.124.219.045-.004.077-.137.101-.183zM6.073 27.283l-.53-.819c.035-.053.088-.163.168-.248q.783-.828 1.57-1.646a.528.528 0 0 1 .835.073c.098.156.147.342.221.514.017.039.036.08.064.11.07.08.151.149.215.233a.55.55 0 0 0 .501.229c.385-.015.639.429.445.764-.109.187-.184.412-.424.494-.042.014-.075.067-.101.109q-.4.665-.797 1.33c-.054.091-.103.186-.169.268-.095.12-.215.134-.335.038-.165-.133-.321-.276-.483-.413-.211-.176-.313-.154-.405.101-.047.13-.127.208-.261.226-.138.018-.243-.038-.334-.148a15 15 0 0 0-.602-.687c-.105-.113-.11-.239-.085-.373.006-.027.061-.053.099-.063.12-.032.24-.054.408-.091zM3.664 24.145a.8.8 0 0 0-.283-.508c-.117-.101-.123-.211-.074-.345a.78.78 0 0 1 .367-.441 7 7 0 0 0 1.552-1.154c.094-.089.187-.101.304-.054.29.114.424.332.385.643-.025.207.169.602.349.704a.2.2 0 0 0 .08.022c.431.027.61.352.779.674.081.155.024.345-.152.431-.528.258-.821.759-1.231 1.138-.215.198-.468.356-.709.525-.029.021-.095.008-.137-.007-.251-.087-.343-.317-.473-.518-.036-.056-.105-.092-.158-.137-.038.075-.092.145-.11.225-.025.108-.015.225-.039.332-.008.036-.067.077-.11.089-.057.015-.123-.001-.183.007-.119.018-.173-.031-.191-.147-.024-.151-.059-.285-.25-.324-.067-.014-.141-.126-.162-.205-.064-.244-.16-.462-.36-.625-.1-.082-.106-.165-.014-.268.187-.212.314-.246.574-.135.073.035.152.05.247.078zM10.273 30.057c-.068.155-.038.257.095.328.121.066.218.144.138.304-.105.211-.248.303-.42.235-.243-.096-.479-.212-.719-.318-.087-.038-.174-.07-.267-.108-.057-.264.054-.417.327-.408.174.007.2-.12.236-.232.038-.117-.064-.154-.147-.184-.198-.075-.398-.142-.596-.219-.226-.088-.297-.289-.172-.498.117-.195.244-.387.367-.579.011-.018.025-.049.04-.05.229-.034.251-.233.338-.392.126-.233.282-.449.424-.674.027-.042.059-.084.074-.13.061-.177.193-.281.355-.359.198-.096.267-.091.408.08.172.208.345.42.607.511.198.068.408.112.616.14a.63.63 0 0 1 .53.462c.067.264.043.514-.039.772-.126.398-.232.803-.341 1.205-.067.247-.151.48-.37.637-.235.168-.382.131-.596-.057-.149-.133-.348-.214-.529-.308-.113-.06-.235-.102-.36-.155zM24.26 28.57c-.44.233-.87.466-1.305.69-.133.068-.219-.007-.276-.131q-.218-.464-.611-.133c-.177.149-.282.113-.385-.108-.14-.296-.317-.576-.438-.878-.116-.289-.225-.593-.26-.899-.039-.346.423-.881.907-.737a.46.46 0 0 0 .452-.089c.06-.049.131-.084.201-.12a.46.46 0 0 0 .258-.308.8.8 0 0 1 .149-.278c.237-.321.613-.311.843.021.047.068.081.147.124.218q.38.648.766 1.293c.056.092.06.162-.034.223q-.396.26-.791.521c-.046.031-.126.08-.12.102.017.068.061.174.108.181.254.039.299.258.412.433zM26.289 26.63v-.504c-.126.057-.233.082-.306.147-.191.17-.369.357-.549.54-.089.091-.181.172-.321.121-.134-.049-.137-.174-.188-.285-.08-.173-.227-.315-.346-.472-.056-.074-.133-.141-.162-.223a2.1 2.1 0 0 0-.451-.734c-.172-.186-.166-.207-.003-.406.071-.087.149-.166.215-.257.123-.166.307-.219.482-.307a3.6 3.6 0 0 0 .805-.546c.102-.094.105-.308.127-.472.052-.38.074-.395.441-.281.526.163 1.03.36 1.425.769.087.089.114.169.075.282-.112.321-.23.639-.328.965a.5.5 0 0 0 .018.31c.07.154.075.282-.024.422-.177.25-.345.507-.521.758-.102.152-.174.181-.391.173zM20.163 27.433c.248.188.398.429.508.694q.217.518.419 1.038c.123.318.018.557-.299.691-.108.045-.222.073-.334.105-.253.073-.371.292-.29.544.05.158-.032.303-.211.352q-.355.096-.713.181c-.173.042-.363-.099-.382-.276-.028-.239-.091-.278-.318-.2q-.12.042-.236.084c-.321.108-.639-.063-.751-.384a4.6 4.6 0 0 1-.236-1.545c.003-.447.355-.664.755-.463.02.01.043.018.059.032.289.271.575.184.857-.008.335-.229.666-.466.997-.701.056-.045.11-.092.176-.144zM4.454 20.413c.188.042.371.068.544.123q.435.14.26.56c-.176.416-.543.623-.944.734-.366.102-.673.288-.971.501-.127.091-.25.18-.41.105s-.179-.227-.218-.385c-.056-.223-.165-.433-.255-.645-.01-.021-.061-.042-.085-.035-.031.008-.071.043-.075.071-.013.077-.007.155-.014.233-.007.092.042.211-.114.235-.208.032-.335-.021-.375-.184-.074-.297-.134-.597-.202-.896a.55.55 0 0 1 .08-.475c.074-.102.12-.094.211-.025.134.099.283.177.427.265l.063-.05c-.068-.183-.123-.373-.211-.544-.156-.308-.151-.395.142-.571.195-.116.406-.207.614-.3q.488-.216.983-.42a.67.67 0 0 1 .68.089c.162.114.201.226.149.419a66 66 0 0 0-.275 1.038c-.013.052-.001.108-.001.158zM29.183 21.436c.179.018.334.021.484.052.152.032.168.087.081.225q-.265.425-.535.849c-.088.138-.212.166-.356.085-.211-.12-.292-.091-.403.13a5 5 0 0 1-.248.436c-.108.165-.16.177-.322.073-.371-.243-.737-.498-1.11-.738a1.2 1.2 0 0 0-.335-.142c-.147-.04-.211-.102-.158-.261.024-.071.008-.154.015-.232.013-.133.021-.267.046-.395.04-.204.162-.339.355-.431a.8.8 0 0 0 .264-.237c.124-.17.236-.352.336-.537.052-.095.074-.208.103-.314.018-.064.02-.133.039-.197.112-.378.226-.434.607-.346.308.073.621.127.934.181.12.021.17.078.212.195.17.482.034.959.007 1.439-.004.059-.013.119-.017.168zM7.888 6.125c-.131.155-.258.315-.394.465-.569.63-1.152 1.246-1.707 1.887-.265.306-.48.656-.717.987-.276.385-.556.768-.821 1.161-.06.088-.081.212-.092.322s.018.222.022.334c.006.152-.133.327-.282.348-.043.006-.106-.011-.134-.04-.184-.204-.399-.2-.627-.102a1.05 1.05 0 0 1-.656.05c-.214-.046-.288-.117-.313-.331a1.5 1.5 0 0 1 .003-.317c.013-.138-.021-.244-.162-.292-.127-.043-.13-.134-.07-.225.08-.12.177-.227.261-.345q.187-.265.367-.533c.018-.028.029-.06.049-.088.176-.244.229-.24.363.024l.128.25c.096-.071.184-.124.26-.194a35 35 0 0 1 3.459-2.853 7 7 0 0 1 .625-.417c.123-.071.271-.099.408-.145a.4.4 0 0 0 .029.054zM24.431 5.17c.089.04.183.074.267.124.791.461 1.562.949 2.228 1.587.307.295.537.636.741 1.004q.186.336.402.655c.05.073.145.113.219.169l.063-.046c-.035-.099-.064-.201-.108-.296-.035-.08-.061-.148.047-.186a.02.02 0 0 0 .014-.008c.078-.095.148-.205.3-.159.162.049.247.174.322.318.186.355.375.708.575 1.054.074.127.067.197-.075.254s-.268.109-.43.038c-.064-.028-.173.045-.262.073.031.067.052.142.095.2.042.056.108.094.184.156l-1.355.92c-.116-.363-.235-.691-.327-1.026-.307-1.121-.976-2.045-1.622-2.98-.412-.596-.849-1.174-1.274-1.76-.013-.017-.02-.036-.029-.056l.025-.034zM28.793 16.122c.201.04.424.088.649.128q.23.043.463.064c.156.015.237.092.268.247q.058.3.148.59c.008.027.133.053.144.036.121-.166.247-.034.338.015.064.035.113.174.101.255-.04.247-.109.489-.176.73-.043.155-.138.195-.296.145-.295-.095-.342-.059-.381.253a2.3 2.3 0 0 1-.094.406c-.077.246-.257.339-.503.253a4 4 0 0 1-.487-.218 1 1 0 0 0-.775-.088c-.271.08-.463-.074-.456-.359q.009-.383.046-.765c.008-.082.061-.165.106-.239.06-.099.135-.19.198-.289.082-.128.068-.241-.034-.364a.31.31 0 0 1-.046-.253c.098-.32.43-.549.786-.55zM1.896 14.139c-.101.04-.149.073-.202.078-.078.008-.177.024-.232-.014-.045-.031-.067-.151-.043-.208.078-.187.045-.368.031-.558-.014-.187.015-.377.031-.565.008-.11.077-.195.181-.17.075.018.151.099.194.172.032.054.013.14.02.268.07-.059.128-.085.147-.127.059-.138.114-.279.148-.426.063-.275.26-.396.505-.409.419-.021.837.01 1.216.227.251.145.257.226.08.447-.243.302-.2.641-.103.984.052.186.103.374.127.564.027.218-.106.362-.328.371q-.743.032-1.485.059c-.18.006-.251-.073-.262-.269l-.022-.423zM29.999 12.468c.02.381-.052.519-.412.652-.328.12-.67.204-1.005.303-.117.035-.18-.02-.201-.134-.035-.191-.059-.387-.109-.574-.042-.159-.114-.311-.174-.466a4 4 0 0 0-.088-.215c-.031-.066-.053-.142-.102-.193-.091-.094-.106-.179.011-.244.408-.229.815-.459 1.235-.666.099-.049.247-.021.367.003.119.024.225.099.342.128a.45.45 0 0 1 .345.348c.052.188.105.376.149.565.022.096-.001.176-.12.198-.251.049-.251.05-.239.295z"/></svg>