<svg xmlns="http://www.w3.org/2000/svg" xml:space="preserve" fill-rule="evenodd" stroke-linejoin="round" stroke-miterlimit="2" clip-rule="evenodd" viewBox="0 0 5173 5950"><g fill-rule="nonzero"><path d="M2023 5899c-214-165-351-368-396-588-14-70-16-120-11-290 6-213 6-211 93-686 38-209 40-434 6-545-80-253-268-467-584-665-92-58-104-63-115-48-13 17-10 87 8 192 16 94 14 101-26 101-31 0-41-8-112-92-169-205-307-446-383-674-58-175-80-320-80-525v-169h39c39 0 40 1 57 53 43 131 159 321 285 466 151 173 400 358 652 486 174 88 356 160 369 147 15-15 25-117 17-174-5-29-11-81-15-115l-7-63h45c42 0 49 4 105 63 138 143 225 340 274 622 19 107 23 166 23 335 0 275-17 362-204 1050-101 369-125 559-91 700 22 92 88 251 136 329 30 49 45 84 45 107 0 32-2 34-32 33-24 0-52-15-98-50m970 12c0-16 15-54 34-86 45-74 102-210 126-301 53-205 33-349-124-905-138-486-172-679-163-934 14-395 107-677 296-902 52-62 54-63 102-63 49 0 49 0 49 33 0 17-7 65-15 105-15 72-14 113 7 180 9 30 13 33 36 27 60-15 237-91 362-156 424-220 734-520 886-857l43-97 94-6-6 158c-4 87-14 201-23 253-46 269-195 593-391 850-118 154-124 160-168 160h-38l7-47c3-27 9-97 13-157l6-108-24 12c-13 7-71 44-129 83-309 205-491 423-557 667-22 79-24 297-4 410 7 41 30 170 51 285 57 315 65 383 64 580-1 203-14 272-78 410-89 193-323 435-420 435-33 0-36-2-36-29m-613-3521c-170-43-313-146-369-267-28-60-30-68-26-180 3-106 6-124 32-176 54-111 166-198 321-248 63-21 90-23 260-24 183 0 193 1 272 28 147 51 249 134 302 246 23 50 26 68 26 171 0 111-1 118-33 183-56 113-140 185-295 250-69 29-78 31-242 34-143 2-182-1-248-17"/><path d="M1073 2228c-150-178-200-308-200-518 0-123 19-225 60-317 55-125 208-308 341-409l49-38-67-18c-104-28-309-97-393-133-41-17-83-29-94-27-17 4-18 11-12 71 3 37 13 89 21 117 8 27 15 66 15 87 0 35-1 37-33 37-52 0-162-83-318-239-151-152-226-256-314-436C66 279 15 129 6 53L0 0h40c30 0 83 21 204 79 718 346 1575 543 2364 542 781 0 1651-205 2347-552 97-48 127-59 168-59h50v38c0 51-58 220-120 350-88 185-185 319-342 475-77 75-144 137-150 137s-32 16-58 35c-34 25-58 35-85 35h-37l5-42c2-24 12-78 21-120 10-42 16-95 14-117l-3-40-50 18c-60 22-232 88-260 100-31 13-156 50-192 57-40 8-41 16-5 39 47 31 202 188 248 251 152 212 194 469 115 704-36 106-68 164-148 263-48 60-57 67-90 67h-35l6-62c26-266 16-346-61-501-77-152-228-290-428-387-245-120-596-200-876-200-456 0-922 127-1176 322-220 169-343 427-312 655 5 38 12 94 16 126l6 57h-34c-27 0-41-8-69-42"/></g></svg>