<svg xmlns="http://www.w3.org/2000/svg" xml:space="preserve" fill-rule="evenodd" stroke-linejoin="round" stroke-miterlimit="2" clip-rule="evenodd" viewBox="0 0 300 300"><path fill-rule="nonzero" d="M148.863 1.143c-1.916 2.44-6.754 30.24-13.345 35.597-1.648 1.34-15.133 5.247-18.735 7.386-2.612 1.55-2.747.683-5.615 1.397-3.512 2.521-13.916 11.264-18.435 10.554-1.213-.19-36.244-20.82-27.762-11.26 1.394 1.572 6.11 11.898 6.593 12.955 3.419 7.485 3.95 7.132 7.393 14.594-13.905 24.864-15.857 31.68-16.704 34.638-3.7 12.92-11.363 9.764-26.326 15.63-2.209.867-4.209 2.284-6.499 2.907-1.394.38-2.939-.338-4.333.042-1.668 2.931-5.702 3.37-2.416 4.245 6.146 1.638 5.96 1.75 11.438 4.827.156.043 23.24 4.333 23.274 9.914.294 49.388-.834 59.957-7.292 69.737-9.438 14.291-5.711 15.464-5.79 32.66-.083 17.987-.66 17.91.615 35.857.54 7.6-1.381 15.128-1.154 15.715l.472 1.217 3.244-.27c2.508-.208 4.965-1.16 7.478-1.035 1.09.054 1.794 1.542 2.886 1.55 1.988.013 1.716-1.548 7.08-1.006 4.657.472 4.503.012 21.35-2.005-.005-.402.966-35.809-2.585-37.058-1.699-.598-8.396-13.906-9.22-18.289-1.418-7.532 1.319-7.51.047-15.207-.078-.473-.307-40.066.204-45.382.022-.234-3.898-36.03 3.04-41.357 1.215-.934 2.663-1.79 4.192-1.886 2.278-.145 4.465 1.337 6.743 1.192-.268 7.171 2.317 7.177-1.058 28.336-.204 1.284-1.218 7.638-1.399 16.19-.227 10.791 9.391 17.767 10.283 19.786 1.525 3.453-1.641.228-5.336.743-.141 2.026-2.679 3.374-2.82 5.4-.035.494 6.042 12.218 7.388 29.61.018.22-.216 15.845.977 17.523 1.522 2.138 4.74 2.637 6.262 4.776 1.067.885 2.688-2.677 3.755-1.792 1.72 1.427.565 4.615 1.85 6.441.946 1.343 3.385-1.417 15.118 13.89.233.304 4.306 5.618 4.776.012.565-6.731 5.749-68.497 3.764-84.351-.91-7.273-3.181-5.976-10.41-7.544-9.352-2.03-8.56-3.633-12.048-5.112-1.575-.912-3.002 1.37-5.907-3.42-5.938-9.794 1.499-19.539 6.17-19.313 14.904.72 20.294 6.96 23.589 8.833 10.585 6.023 7.177 10.775 6.776 23.414-.048 1.5-.272 8.565.439 18.756l3.27 5.166 6.11 5.128c3.742-3.745 10.656-8.804 10.69-14.142.165-25.618-7.411-29.664 8.014-40.472 11.24-7.876 11.913-6.423 25.393-8.993 4.588 8.243 8.623 8.744 3.257 16.63-6.764 9.94-19.705 12.261-27.52 14.62-.717 13.601-.989 13.456-.563 27.212.751 24.25-.55 24.242-.163 26.31.815 4.348 1.432 35.943 5.166 39.982 1.711 1.85.596-1.962 21.826-22.71 2.946-2.88 4.112-1.378 7.52-5.666l1.51-1.9-.113-6.714c-.41-24.635 11.44-40.519 6.258-43.163-3.373-1.722-7.623 12.548-10.313 11.192-4.836-2.439 19.383-28.697 12.758-43.66-2.257-5.098-.147-33.078 1.84-34.857 7.42-6.641 9.669 3.805 9.852 4.657.31 1.439.194 1.433 1.403 58.355.149 7.04-.23 38.25-.45 39.712-1.725 11.512-9.148 21.449-9.307 24.133-.137 2.29-.998 16.79-.558 28.678.225 6.067 15.266 3.446 17.528 3.33 4.91-.254 5.302 1.294 6.35 1.55l5.305-2.463c1.442.275 2.534 1.62 3.977 1.894.664.126.597-.165 8.136-2.249-.017-1.02.532-25-.288-49.62-.433-13.007 1.23-12.98-.47-25.905-1.158-8.8-6.153-6.297-8.752-14.682-.855-2.758-3.183-6.1-3.246-6.148l-1.01-.751-.236-13.448c-.057-3.242-.63-36.103-.3-40.53l.389-5.231 1.423-1.189c3.184-2.656 16.498-6.112 23.026-8.595 5.781-2.2 9.915-5.297 9.99-5.337-3.063-.575-33.63-6.315-37.569-10.3-3.668-3.711-7.647-18.45-8.1-20.125-.822-3.045-1.933-2.041-3.152-3.328-.581-1.329-.222-2.947-.804-4.276-.352-.805-1.28-.16-5.729-9.38-4.171-8.644 7.85-14.366 14.427-37.757-29.027 14.657-30.234 23.09-39.876 14.054-8.995-8.428-31.77-11.476-34.676-11.866-5.855-8.741-4.121-9.366-7.092-19.302-4.938-16.516-4.217-21.576-7.128-17.876zm23.5 58.06c1.671 1.908 2.184.874 9.351 3.614 1.434.548 10.073 1.575 8.315 8.01-2.732 10-8.106 3.94-8.956 3.636-1.27-.454-2.784.071-4.015-.477-1.025-.457-1.355-1.932-2.386-2.375-2.18-.937-4.662-.93-6.93-1.627-9.14-2.81-9.069-4.944-9.04-5.803.257-7.817 10.659-8.403 13.661-4.975zm-33.502-.595c.625.912.255 7.736-2.25 9.35-.736.474-1.69.462-2.523.733-4.354 1.42-30.892 19.683-27.99 6.511 1.908-8.658 30.793-19.472 32.765-16.593zm72.203 28.193c.581.184.091.53 3.544 6.75 1.256 2.261.33 2.528 1.348 4.884.434 1.002 1.228.552 2.832 5.13.966 2.755 3.624 6.75 1.546 9.985-2.599 4.048-3.656 2.303-8.467 2.667-2.03-3.11-7.486-12.714-7.55-12.97-1.25-5.074-4.243-7.683-3.798-10.873.619-4.437 7.67-6.486 10.546-5.573zm-113.29 3.91c5.014 6.298-2.124 14.67-3.556 19.938-1.411 5.191-.597 6.113-5.377 8.482-.718.357-6.628 3.285-10.03-.043-.54-.529-.553-.693 1.08-9.393.96-5.117 2.857-4.258 4.245-8.266.796-2.301 6.004-10.905 6.488-11.128.52-.24 4.986-2.3 7.147.41zm103.528 127.143c.072.618-3.732 20.656-3.741 20.99-.068 2.404.374 4.818.158 7.213-.252 2.804-1.312 2.568-1.209 5.394.23 6.279.56 6.56-.124 6.722-.416.098-1.977-1.203-1.994-2.01-.013-.586.835-.98.805-1.566-.106-2.048-1.11-3.987-1.197-6.037-.4-9.468 2.052-16.02 2.544-17.333 1.16-3.101-1.142-3.236-.116-6.338.322-.973 1.424-1.512 1.888-2.426 1.92-3.78 2.482-8.872 2.985-4.604zm-94.329 23.449c.776 1.239-.925 1.923-.33 3.997.407 1.421.738 1.642.223 1.772-2.57.652-2.104-4.61-2.065-5.045.014-.16.156-1.761.932-1.774.576-.01 1.17.94 1.24 1.05m.555 8.968c1.487 1.485.239 6.833-1.953 5.45-1.63-1.027-.687-8.09 1.953-5.452z"/></svg>