<svg xmlns="http://www.w3.org/2000/svg" viewBox="0 0 300 300"><path d="M150.947 287.794c-2.475-14.137-6.188-24.037-9.019-24.037-1.059 0-.534-2.119 1.237-4.594 3.009-4.594 3.009-4.772-1.941-8.484-2.653-1.941-7.247-5.831-10.256-8.484-2.831-2.831-5.831-4.95-6.544-4.95-.881 0-4.416 1.941-7.959 4.416-3.534 2.297-6.366 3.356-6.366 2.297 0-3.713 4.069-15.553 5.306-15.553 1.416 0 2.297-3.891 5.653-22.631 1.772-10.603 1.594-11.316-2.831-18.028-4.247-6.366-5.306-7.069-12.019-7.069-13.256 0-29.7 11.137-29.7 20.325 0 1.594-.881 2.297-1.941 1.594-1.237-.703-1.594-4.416-1.237-9.722 1.237-12.197 8.484-21.741 21.216-28.284 5.831-2.831 10.781-6.366 11.494-7.959.534-1.416 2.297-2.119 3.891-1.594 4.247 1.238 9.9-3.178 8.484-6.712-.534-1.594-3.713-3.534-6.891-4.416-4.247-1.059-6.891-3.356-9.366-8.128-3.356-6.188-3.356-6.713-.356-8.306 4.069-2.297 3.891-9.9-.356-12.197-2.297-1.059-3.009-3.009-2.475-5.306.703-2.297-.881-5.653-4.772-9.9-5.484-6.366-10.078-15.909-9.188-19.087.356-.703-.178-2.297-1.237-3.534-1.941-2.297-4.247-18.563-3.891-28.462 0-3.891 1.594-12.375 3.534-18.919 3.713-12.909 3.356-17.147-2.119-24.928L77.764.014l6.891 3.534c12.909 6.544 13.969 9.019 13.434 29.7-.356 15.384 0 19.8 3.009 26.344 4.772 10.959 9.544 10.078 10.078-1.594.178-2.831 1.772-6.366 3.534-7.603 3.009-2.119 3.713-1.941 5.831 1.059 1.237 2.119 4.069 3.712 6.188 3.712 5.484 0 14.494-6.188 18.919-12.731l3.713-5.831 10.781 10.256c11.494 10.603 14.137 11.672 18.919 7.425 2.831-2.475 3.356-2.119 6.009 5.306 3.534 9.019 5.831 9.722 11.662 3.534 3.891-4.069 4.247-6.544 5.306-26.513.881-21.562 1.059-22.275 6.188-27.225 3.009-2.831 8.128-5.484 11.494-6.188l6.188-1.059-4.772 3.713c-7.069 5.128-7.959 13.078-3.178 28.463 5.484 18.206 6.891 28.462 4.95 38.887-2.475 13.256-9.019 24.928-18.206 32.531-10.078 8.128-14.494 15.731-11.316 19.444 1.059 1.416 3.534 2.475 5.306 2.475 1.941 0 3.356.356 3.356.881 0 2.475-5.306 13.256-6.544 13.434-.703.178-3.178.534-5.484.703-7.069.703-8.841 4.247-4.069 8.128 2.297 1.772 5.484 3.356 7.069 3.356 1.772 0 4.95 1.941 7.247 4.416s8.128 6.891 12.731 9.9c9.188 6.009 13.791 13.791 13.791 23.512v5.484l-4.594-5.831c-9.366-12.019-30.225-16.969-37.472-9.188-3.713 4.069-7.959 24.572-5.653 27.403 1.941 2.475 9.019 23.512 10.603 31.463l1.416 6.713-5.306-4.95-5.128-4.95-6.366 3.534c-8.841 4.95-14.316 12.375-11.841 16.444 1.416 2.297 1.416 4.069-.534 6.891-1.416 2.119-3.891 10.781-5.653 19.444l-3.178 15.553-2.119-12.197zm4.247-75.657c1.772-6.544 4.416-10.603 4.416-7.069 0 5.128 3.713 1.416 5.653-5.653 1.238-4.772 2.831-7.425 4.247-6.891 1.941.703 2.119-1.594 1.059-19.266-.534-6.366-3.534-6.366-5.128-.178l-1.059 4.95-1.772-4.95c-2.119-6.366-4.069-6.009-5.653 1.059l-1.416 5.653-1.059-6.891c-1.594-9.9-5.484-10.434-5.484-.703 0 5.484-.534 6.891-1.772 4.95-.881-1.416-1.772-4.416-1.772-6.544 0-2.475-1.059-4.069-2.653-4.069-1.941 0-2.653 1.941-2.831 6.713 0 6.009-.178 6.188-1.941 2.475-2.653-5.484-5.653-3.891-6.366 3.178-.534 4.247-1.059 5.306-2.119 3.534-2.831-4.594-3.891-.356-1.594 6.891 2.297 7.603 4.416 9.366 5.484 4.247.356-1.772 1.594 1.416 2.831 7.069 2.475 10.434 4.594 12.197 8.484 7.069 2.119-2.831 2.297-2.831 2.475 1.594 0 11.494 4.95 13.256 7.959 2.831zm-6.188-65.934c1.772-2.119 2.653-2.297 3.713-.703 1.594 2.831 6.891.703 6.891-2.831 0-4.416-5.128-13.256-7.781-13.256-3.178 0-7.425 5.306-8.841 11.137-1.772 7.781 1.594 10.959 6.009 5.653zm-18.74-17.85c4.95-1.941 3.178-6.891-3.356-10.078-8.306-3.891-10.959-3.713-12.553.881-2.119 6.544 7.781 12.375 15.909 9.187zm51.975-2.475c4.594-4.247 4.95-7.603 1.238-10.603-1.941-1.594-4.069-1.237-9.9 2.119-9.019 4.95-10.434 7.959-4.772 10.078 6.366 2.653 9.188 2.297 13.434-1.594"/></svg>