<svg xmlns="http://www.w3.org/2000/svg" width="300" height="300" viewBox="0 0 300 300"><title>factions-order-stormcast-eternals-thunderstrike-eternals</title><path d="M229.866 140.231c-2.109.113-4.059-1.35-4.134-2.878-.084-1.688 1.716-3.366 3.581-3.347 2.034.028 3.797 1.594 3.816 3.366.066 1.772-1.725 2.784-3.262 2.859zm-11.916-36.365c-.563.769-.553 2.081-1.922 2.166-.619.028-1.238.084-2.184.159 1.294-2.269 2.316-4.069 3.534-6.197.572.619 1.444 1.153 1.528 1.781.084.647-.497 1.481-.956 2.1zm-28.791-27.685c-1.65-.056-3.581-2.456-3.562-4.444.009-1.303 1.65-2.606 3.234-2.559 2.606.056 4.228 1.434 4.172 3.534-.047 1.641-2.138 3.534-3.844 3.478zm-43.94-11.465c-2.616-.084-4.162-1.631-4.041-4.05.112-2.269 2.081-3.938 4.566-3.881 2.016.056 3.488 1.716 3.422 3.909-.066 2.438-1.688 4.088-3.947 4.022M98.85 80.709c-2.222 0-3.891-1.584-3.881-3.684.009-2.166 1.603-3.703 3.844-3.694 2.344 0 3.956 1.669 3.909 4.05-.028 2.081-1.481 3.338-3.881 3.319zm-20.691 30.375c-1.763.356-3.225-.591-4.247-2.625-.684-1.397-1.078-2.784-.206-4.237 1.012-1.697 2.813-2.409 4.669-1.866 1.491.431 2.691 2.381 2.737 4.388.028 2.006-1.322 4.003-2.953 4.341zm-10.931 32.56c-1.547.019-2.953-1.322-2.972-2.869-.028-2.072 1.463-3.609 3.497-3.572 1.388.028 2.559 1.397 2.597 3.066.028 1.837-1.369 3.347-3.112 3.375zm174.338 8.325c15.412-5.353 30.703-10.669 45.984-15.975l-.009-.741c-.684-.262-1.359-.619-2.072-.797-2.944-.713-5.897-1.359-8.841-2.072-4.997-1.191-9.966-2.456-14.972-3.637-6.281-1.491-12.544-3.028-18.862-4.359-2.756-.572-4.247-2.147-5.128-4.65-.919-2.587-1.959-5.128-2.906-7.688-1.031-2.728-.534-4.228 1.912-5.888 1.238-.825 2.494-1.622 3.694-2.513a23790 23790 0 0 0 39.478-29.231c.394-.291.656-.759.966-1.144a13 13 0 0 1-.253-.497c-2.063.328-4.116.628-6.169.984-6.581 1.172-13.162 2.372-19.744 3.544-5.625 1.013-11.25 1.997-16.866 3.019-6.516 1.181-13.031 2.409-19.547 3.544-.459.075-1.228-.3-1.5-.703-2.662-3.881-5.203-7.819-7.875-11.681-.713-1.031-.741-1.847-.225-2.963 4.5-9.891 8.963-19.8 13.378-29.737.797-1.781 1.378-3.647 3.638-4.097.047-.009.047-.206.178-.825-1.078.253-1.997.356-2.831.684-.656.253-1.153.872-1.8 1.153-3.244 1.416-6.722 2.4-9.731 4.191-8.963 5.306-17.756 10.913-26.569 16.472-1.144.703-2.034.75-3.15.141-2.353-1.294-4.744-2.522-7.125-3.759-1.069-.544-2.109-1.256-3.244-1.528-1.5-.347-2.606-.984-3.319-2.381-.206-.413-.769-1.003-1.078-.947-1.462.253-1.687-.769-2.062-1.725-4.8-11.991-9.6-23.981-14.409-35.972-1.313-3.262-2.634-6.506-4.134-10.191-3.028 8.578-5.897 16.688-8.766 24.806-2.887 8.184-5.775 16.378-8.588 24.356-.703.056-1.387-.112-1.716.159-.853.731-1.528 1.697-2.353 2.475-.806.769-1.594 1.734-2.578 2.081-2.578.891-5.259 1.481-7.884 2.212-1.547.422-3.141.741-4.575 1.416-1.003.469-1.65.328-2.484-.206a4155 4155 0 0 0-20.503-12.9c-4.5-2.822-8.859-5.934-14.1-7.341-.666-.178-1.631-.3-2.072.028-.881.675-1.144 1.594-.563 2.859 4.406 9.75 8.728 19.537 13.041 29.325.553 1.237 1.041 2.531 1.294 3.853.113.591-.291 1.397-.694 1.931-1.734 2.278-3.609 4.453-5.334 6.741-1.153 1.547-2.559 2.944-4.472 2.766-3.066-.272-6.084-1.041-9.112-1.584-8.559-1.519-17.109-3.019-25.65-4.566-6.797-1.219-13.594-2.484-20.4-3.722-1.913-.347-3.834-.628-5.756-.938-.206.3-.413.619-.619.938.572.319 1.191.572 1.725.966 9.984 7.397 20.072 14.662 29.869 22.294 4.884 3.797 10.566 6.694 14.4 11.841.806 1.069 1.031 1.931.628 3.094-.262.75-.497 1.5-.731 2.259-.947 3.225-1.856 6.459-2.841 9.675-.422 1.378-1.903 2.269-2.944 2.081-.797-.141-1.669-.272-2.419-.066-4.388 1.237-8.756 2.559-13.106 3.9-3.431 1.05-6.853 2.147-10.275 3.234-3.637 1.162-7.275 2.287-10.894 3.506-.544.188-.956.759-1.641 1.322 6.919 2.588 13.434 5.016 19.95 7.472 6.909 2.588 13.781 5.222 20.709 7.753 1.359.497 1.734 1.228 1.519 2.541-.197 1.181-.188 2.4-.45 3.562-.366 1.584.366 1.856 1.716 1.847 6.647-.028 13.284-.056 19.931.009 1.528.019 1.941-.534 1.978-1.988.122-7.181.806-14.316 2.588-21.272 3.469-13.519 8.381-26.362 17.728-37.078 1.434-1.631 2.513-3.647 4.153-4.997 3.384-2.803 6.984-5.372 10.622-7.866 21.309-14.55 47.841-14.316 69.263 1.584 8.503 6.309 15.216 14.194 20.456 23.334 8.222 14.334 12.037 29.869 12.366 46.313.028 1.313.291 1.978 1.809 1.969 8.016-.066 16.031-.028 24.056-.056 1.856 0 1.969-.216 1.397-2.034-.816-2.597-1.603-5.194-2.466-7.969z"/><path d="M181.116 229.959c-.206-.028-.431-.15-.6-.281a1769 1769 0 0 1-9.263-7.481c-2.391-1.941-3.066-4.866-4.331-7.463-.9-1.875-2.109-3.609-3.159-5.409-.553-.956-1.294-1.894-1.556-2.934-1.087-4.322-3.094-6.262-7.472-6.994-.6-.094-1.181-.3-1.762-.441 1.087-6.487 4.322-7.2 11.569-6.431-.338-1.116-.741-2.147-.947-3.225-.188-.947-.319-2.053 1.041-2.325 1.228-.244 1.416.609 1.762 1.566.797 2.138 1.322 4.388 3.628 5.756 1.228.731 1.959 2.306 2.841 3.544.853 1.172 1.772 2.344 2.409 3.628.431.872.572 1.931.638 2.934.291 4.453.666 8.869 3.534 12.609.253.338.253.853.347 1.294.122.563.056 1.238.366 1.659 1.444 1.941 2.887 3.9 4.519 5.681 1.238 1.359 2.747 2.466 4.097 3.638-.113.553-.216 1.181-.338 1.809-2.259-.347-4.791-.731-7.331-1.125zm-20.072-13.706c-.666.328-1.697-.075-2.541-.253-.206-.028-.338-.413-.675-.844-.281.422-.459.881-.628.891-3.928.159-7.744 2.269-11.662 1.069-1.791-.544-3.497-1.144-5.372-1.125-.675.009-1.35-.066-2.006.028-1.509.197-1.997-.328-1.622-1.838.956-3.759 3.356-5.231 7.191-3.9 4.031 1.416 7.95 1.144 11.934.131 3.272-.825 5.841.525 6.637 3.731.15.6-.609 1.8-1.247 2.109zm-27.347-6.815c-2.222 2.203-2.991 5.1-4.059 7.828-1.566 4.003-4.641 6.534-8.006 8.85-.694.478-1.706.684-2.175 1.313-2.063 2.756-5.072 2.897-8.063 3.234-.769.084-1.528.347-2.081.487a63 63 0 0 0-.319-1.838c1.163-1.041 2.522-2.147 3.722-3.412.759-.778 1.294-1.781 1.913-2.691.15-.244.187-.637.384-.741 2.016-1.013 2.878-2.672 2.906-4.866.009-.3.234-.638.441-.9 2.559-3.281 2.925-7.2 3.272-11.119.178-1.959.066-3.891 1.856-5.372.806-.675.956-2.053 1.622-2.953 1.069-1.491 2.409-2.644 4.341-2.925.647-.094 1.284-.403 1.922-.619-.984-2.353.853-7.134 3.375-8.006.113 1.228.253 2.344.291 3.478.056 1.144.009 2.278.009 3.722 1.922.084 3.834.244 5.738.262 2.859.028 3.291.384 3.572 3.244.084.797.141 1.584.216 2.531-.6.141-1.238.422-1.903.441-4.228.113-6.375 3.759-7.191 6.694-.338 1.191-.947 2.484-1.8 3.347zm-24.535-54.985c.15-.159.356-.3.469-.497 1.828-3.506 5.138-3.291 8.344-3.3.122 0 .234-.009.338.028 4.125 1.894 8.269 3.75 12.347 5.719 2.606 1.256 5.128 2.7 7.903 4.181-2.006 2.203-4.603 3.103-7.219 3.366-5.559.544-11.156.713-16.744 1.003-.834.047-1.716-.066-2.541-.272-5.081-1.256-6.525-6.431-2.888-10.228zm18.91-37.753c2.681-10.406 9.422-16.191 20.447-16.322 12.216-.15 20.316 7.153 21.459 19.266.562 5.953-2.484 11.231-7.088 15.178-2.616 2.25-5.709 3.713-9.216 4.313-1.687.281-3.281 1.088-4.912 1.641-.9-.347-1.584-.684-2.325-.9-1.228-.356-2.494-.563-3.713-.956-3.581-1.125-6.994-2.663-9.553-5.503-3.009-3.347-4.875-7.35-5.494-11.812-.216-1.584-.009-3.319.403-4.894zm47.54 36.638c.656-.216 1.425-.338 1.894-.769 1.987-1.838 4.331-1.556 6.591-1.022 1.106.262 2.1 1.162 3.075 1.875.487.356.731 1.041 1.209 1.434 2.606 2.1 2.381 4.875 1.491 7.528-.75 2.184-3 2.672-5.062 2.953-1.453.206-2.972.15-4.453.084-4.613-.244-9.244-.347-13.828-.891-2.222-.262-4.359-1.387-6.853-2.25 4.856-4.753 10.275-7.078 15.947-8.953zm59.082 39.271c-.713-.966-1.519-1.875-2.128-2.897-1.453-2.419-3.544-3.619-6.347-3.778-.881-.047-1.847-.244-2.588-.694-1.847-1.144-3.759-1.228-5.569-.291-2.55 1.313-5.306 2.55-7.387 4.472-3.656 3.384-6.45 7.359-6.253 12.872.159 4.734-.534 9.506-.225 14.213.253 3.834 1.416 7.603 2.184 11.391.262 1.331.731 2.662.778 4.003.112 2.672-.075 5.353-.009 8.025.084 3.544-1.162 6.422-3.534 9.075-1.313 1.481-2.887 1.941-4.538 2.672-2.4 1.069-4.8.609-7.209.628-.244 0-.534-.216-.713-.412-.919-1.012-1.913-1.978-2.681-3.094-.478-.694-.834-1.65-.816-2.475.056-2.391.281-4.772.544-7.144.047-.431.469-1.097.825-1.181 1.659-.384 3.366-.563 5.053-.872.591-.094 1.228-.216 1.716-.534 1.425-.947 2.756-2.016 4.172-2.972 1.913-1.303 1.978-2.756.075-4.125-1.519-1.097-3.244-1.941-4.613-3.206s-3.234-2.766-3.469-4.378c-.656-4.613-1.069-9.375-.694-14.006.431-5.372.225-10.922 4.022-15.741 2.006-2.55 3.759-5.278 6.431-7.172 2.513-1.772 5.138-3.403 7.8-4.941 1.547-.9 2.241-2.316 2.616-3.834.141-.563-.778-1.378-1.162-2.109-.478-.909-1.144-1.8-1.313-2.766-.591-3.244-1.369-6.525-1.378-9.787-.047-7.134.094-14.25-1.387-21.263-.488-2.278-1.444-4.509-1.594-6.787-.3-4.538-1.716-8.569-4.191-12.338-.666-1.013-1.003-2.269-1.397-3.441-.431-1.237-.572-2.606-1.191-3.741-1.453-2.653-3.066-5.213-4.716-7.744-1.584-2.428-2.962-5.166-5.072-7.059-2.803-2.494-5.213-5.578-9.047-6.909-3.15-1.097-5.456-4.238-9.234-4.031-.272.009-.553-.384-.853-.525-2.456-1.05-4.819-2.55-7.388-3.019-3.375-.628-6.919-.759-10.341-.506-2.053.15-3.984.178-6.037.009-3.431-.272-6.919.15-10.359.422-.844.075-1.65.731-2.484 1.087-2.016.872-3.994 2.213-6.103 2.466-3.15.366-5.438 1.894-7.594 3.928-.281.272-.647.806-.872.75-1.959-.459-2.766 1.022-4.106 1.922-3.272 2.203-5.897 4.95-8.644 7.706-4.378 4.388-7.275 9.675-9.994 15.056-3.656 7.219-3.966 15.366-5.512 23.147-.759 3.797-.3 7.828-.534 11.747-.3 5.016-.628 10.05-1.163 15.037-.3 2.934-1.041 5.756-3.075 8.184-1.725 2.081-.759 4.256 1.8 4.819.328.066.628.244.919.412 2.259 1.313 4.659 2.428 6.731 3.994 4.2 3.169 7.612 7.134 9.45 12.122.909 2.484 1.378 5.222 1.547 7.875.216 3.403-.066 6.816-.122 10.228-.066 3.244.356 6.506-1.697 9.478-1.416 2.063-1.903 4.734-4.397 6.075-1.191.656-2.194 1.669-3.244 2.494 1.528 1.209 3.037 2.419 4.575 3.591.356.272.797.534 1.219.619 2.559.487 5.128.984 7.697 1.359 2.466.356 2.475.281 2.494 2.869.009.562-.019 1.144-.084 1.706-.544 4.397-1.209 8.784-5.494 11.334-1.275.759-2.7 1.5-4.134 1.687-2.925.366-5.878.206-8.166-2.034-1.688-1.65-3.637-3.225-3.853-5.813-.291-3.403-.619-6.816-.534-10.228.131-4.5.844-8.981.966-13.481.178-6.516.234-13.003 1.594-19.444.806-3.834-.094-7.566-2.175-11.025-2.316-3.862-5.569-6.628-9.591-8.494-2.55-1.181-5.166-1.922-7.8.019-.534.394-1.425.384-2.147.412-2.325.084-4.2 1.05-5.616 2.859-1.022 1.303-1.941 2.691-2.897 4.041-2.541 3.591-3.159 7.669-2.897 11.934.028.553.356 1.087.591 1.744 2.756-1.856 5.391-3.103 8.625-3.094 3.553 0 6.188 2.494 5.944 5.944-.216 2.897-.525 5.813-1.041 8.662-.778 4.313-1.762 8.597-2.7 12.881-.141.666-.609 1.238-.769 1.903-.703 2.859-1.697 5.7-1.912 8.597-.216 2.813.188 5.719.647 8.541.6 3.581 1.116 7.284 2.419 10.65 2.119 5.484 5.981 9.937 9.9 14.269.272.291.6.731.909.731 2.991.094 4.828 2.391 7.144 3.731 2.841 1.659 5.756 3.169 9.038 3.431 5.512.459 10.912-.422 15.881-2.953 3.553-1.809 6.919-3.975 10.341-6.038.619-.366 1.359-.891 1.575-1.509.628-1.716 1.416-3.169 3.291-3.759.225-.066.441-.412.506-.666.412-1.65 1.078-3.3 1.125-4.959.159-5.297.084-10.603.131-15.9.009-1.294-.028-2.606.263-3.844.094-.413 1.116-.797 1.734-.834.291-.019.9.778.919 1.238.272 4.434.544 8.85.619 13.284.056 2.822-.253 5.644-.384 8.456-.094 2.278-1.425 4.106-2.184 6.15-1.116 2.953-2.831 5.466-5.184 7.444-1.688 1.416-3.675 2.55-5.681 3.441-2.578 1.144-5.287 1.988-7.978 2.831-7.275 2.287-14.484 2.728-21.591-.806-1.5-.741-3.206-1.069-5.222-1.706.431.825.553 1.228.806 1.519 3.206 3.778 6.309 7.659 9.684 11.269 2.353 2.531 5.4 3.994 8.991 4.041 5.203.047 10.425.403 15.609.075 3.234-.206 6.469-1.153 9.188-3.309 2.259-1.8 4.678-3.413 7.106-5.016 3.15-2.081 5.4-4.884 6.778-8.381.366-.947.431-2.147 1.069-2.859 1.838-2.081 1.359-4.509 1.416-6.881l.028-1.556c.084-5.634.15-11.288.272-16.931.075-3.066.272-6.122.366-9.188.028-1.05.216-2.138 1.359-2.259.806-.075 1.669.478 2.306.684-.084 1.284-.197 2.109-.197 2.944.009 5.766.028 11.522.066 17.278 0 .441.122.9.216 1.331.319 1.416.694 2.803.947 4.228.506 2.794.741 5.663 1.491 8.381.694 2.531 1.875 4.941 2.925 7.359 1.397 3.262 2.241 6.909 5.916 8.616 1.856.853 3.591 2.353 5.513 2.644a107.5 107.5 0 0 0 14.316 1.153c2.738.047 5.737-.262 8.156-1.387 3.9-1.809 7.322-4.631 11.128-6.647 3.844-2.044 6.009-5.569 8.784-8.719-2.203-.056-4.322.197-6.45.272-3.347.131-6.703.356-10.031.15-2.756-.159-5.531-1.425-8.222-1.219-4.509.366-7.219-2.587-10.444-4.613-2.587-1.641-3.169-4.809-4.781-7.2-1.922-2.859-1.725-6.384-2.166-9.713-.656-4.978-1.088-9.919.216-14.681 1.838-1.022 2.409-.075 2.597 1.397.122.9.141 1.809.15 2.728.019 3.891.281 7.688 2.147 11.269 1.181 2.278 1.762 4.875 2.887 7.2 1.144 2.372 2.306 4.772 5.278 5.625 1.838.534 3.703 1.331 5.231 2.466 2.897 2.128 6.113 2.841 9.581 3.019 3.975.197 7.744-.703 11.606-1.547 4.659-1.012 8.231-3.516 11.475-6.525 3.675-3.375 6.169-7.688 7.275-12.6.759-3.384 1.35-6.863 1.509-10.331.225-4.603.178-9.206-1.313-13.753-1.425-4.313-2.372-8.794-3.403-13.228-.478-2.053-.75-4.172-.966-6.281-.253-2.494-.366-5.006-.459-7.519-.019-.422.328-.956.666-1.284 2.681-2.644 7.622-2.662 10.434-.066 1.013.919 2.006 1.847 3.272 3.009.366-1.219.872-2.166.938-3.15.3-4.388-.356-8.559-3.066-12.206z"/></svg>