<svg width="300" height="300" xmlns="http://www.w3.org/2000/svg" viewBox="0 0 32 32"><path d="M15.64 31.975c-.379-.069-.639-.351-.753-.818-.041-.168-.067-1.194-.114-4.477-.054-3.779-.054-4.295-.003-4.573.088-.476.202-.737.414-.955.383-.393.87-.517 1.265-.322.263.129.592.443.675.641.105.253.124 1.162.038 1.83-.061.472-.066.901-.053 4.297l.014 3.772-.107.217c-.153.312-.311.392-.805.41a3.5 3.5 0 0 1-.572-.021zm-3.963-.437c-.24-.054-.735-.404-.954-.676-.247-.307-.484-.771-.562-1.101-.112-.475-.039-.964.432-2.907.277-1.143.443-1.937.59-2.83.107-.651.168-1.43.111-1.43-.12 0-1.031.621-1.911 1.303-.91.706-1.373 1.261-1.281 1.536q.088.259.448.257c.311-.003.605-.134 1.074-.476.232-.169.435-.299.452-.289.065.04.026.355-.069.559-.271.582-.853 1.193-1.366 1.434-.444.209-1.34.02-1.791-.376-.285-.25-.365-1.032-.165-1.622.216-.64.653-1.323 1.27-1.983.206-.22.263-.305.227-.333-.188-.149-.57-.231-1.314-.283-.722-.05-1.055-.159-1.599-.521-1.033-.687-1.797-1.911-1.872-2.998-.021-.296-.012-.36.075-.576.215-.531.8-1.337 1.134-1.56.462-.309 1.45-.305 2.06.007.535.274.875.961.692 1.398-.144.345-.338.281-.781-.26-.198-.241-.342-.312-.632-.312-.289 0-.502.101-.698.33-.431.503-.296 1.268.325 1.843.315.292.594.45 1.079.611.838.279 1.81.224 2.428-.138.374-.219.81-.822.727-1.004-.021-.047-.307-.375-.635-.73-1.04-1.126-1.364-1.563-1.586-2.143-.587-1.532-.864-2.047-1.195-2.218-.143-.074-.438-.072-.585.004-.184.095-.202.196-.171.96.033.82.016.888-.199.798-.257-.107-.73-.466-.885-.672-.183-.242-.342-.666-.343-.915-.003-.652.674-1.595 1.366-1.902.333-.148 1.074-.004 1.682.326.345.188.771.616 1.102 1.108.281.418.711 1.257.932 1.818.068.172.227.516.354.766.255.5.562.868.842 1.007.373.186.959.178 1.293-.017.571-.334.643-1.259.155-1.979a22 22 0 0 0-.302-.434c-.105-.147-.134-.225-.132-.352.005-.214.063-.32.5-.901.405-.539.516-.766.48-.987-.032-.197-.217-.488-.583-.919-.648-.762-.668-.866-.27-1.422.834-1.164 2.21-1.966 3.834-2.233.565-.093 1.516-.082 2.05.023 1.018.201 1.736.603 2.483 1.389.339.357.485.628.485.9 0 .26-.106.491-.439.953-.298.415-.55.902-.55 1.064 0 .062.054.17.134.265.254.304.377 1.197.372 2.701-.004 1.121.008 1.236.154 1.529.183.365.499.541.996.554.292.008.491-.079.821-.358.504-.426 1.146-1.344 1.624-2.321.359-.733.586-1.034 1.071-1.421.176-.14.479-.332.672-.427 1.24-.606 2.281-.24 2.58.908.097.374.078.664-.064.948-.201.402-.722.869-1.011.907-.09.012-.097.002-.086-.124.006-.075.015-.295.019-.489.006-.295-.007-.385-.085-.557-.279-.621-.919-.715-1.34-.199-.262.321-.922 1.308-1.801 2.69-.95 1.494-1.201 1.925-1.202 2.061-.001.128.2.334.457.47.735.389 1.908.624 2.934.587.794-.028 1.094-.171 1.295-.616.116-.256.11-.726-.012-1.023-.204-.495-.489-.716-1.001-.775-.327-.037-.558-.133-.578-.239-.052-.269.888-.929 1.502-1.055.211-.043.261-.041.419.019.379.145.881.759 1.133 1.384.114.284.121.33.122.829.001.384-.018.595-.067.774a3.99 3.99 0 0 1-2.077 2.509c-.501.241-.838.312-1.659.348-1.011.045-1.02.062-.408.791.786.938 1.062 1.622 1.016 2.521-.043.848-.4 1.202-1.262 1.255a1.66 1.66 0 0 1-1.027-.234c-.482-.272-.932-.828-.9-1.11.012-.107.02-.111.208-.102.844.041 1.199.002 1.49-.161.083-.047.157-.115.164-.153.016-.082-.302-.402-.776-.781-.469-.375-2.448-1.782-2.766-1.966-.173-.1-.202-.048-.203.357-.001.498.06.731.35 1.346.318.673.513 1.217.668 1.86.443 1.845.454 3.715.027 4.743-.234.564-.505.748-1.145.776-.482.021-.856-.051-1.257-.244-.226-.108-.303-.171-.435-.356-.316-.441-.439-.986-.363-1.607.054-.442.132-.653.263-.712a.7.7 0 0 1 .117-.044c.041 0 .211.438.29.747.136.532.316.814.557.871.153.036.408-.041.475-.144.107-.167.149-.697.13-1.64-.021-1.023-.105-1.582-.362-2.432-.298-.984-.576-1.58-1.467-3.148-.701-1.233-.97-1.636-1.283-1.922-.337-.309-.551-.402-.923-.403-.282-.001-.337.012-.557.132-.732.397-1.574 1.73-2.288 3.62-.269.711-.427 1.254-.748 2.56-.383 1.561-.443 1.837-.476 2.198q-.067.77.467.772.504 0 .767-1.338c.024-.123.06-.234.078-.245.062-.039.192.146.271.387.119.361.205.966.211 1.489.005.424-.003.486-.086.642-.205.384-.707.756-1.198.888a1.7 1.7 0 0 1-.755.007zm2.633-14.669c.165-.165.105-.428-.164-.727-.254-.281-.561-.354-.739-.175-.102.102-.101.243.001.372.026.032.093.14.149.239.193.339.562.482.753.291m3.971-.046c.137-.132.205-.36.181-.611q-.05-.512-.52-.223c-.146.09-.33.422-.33.594 0 .144.097.331.185.356a.55.55 0 0 0 .484-.116M8.555 7.73c-.017-.027-.04-1.378-.051-3.003l-.02-2.954-.226-.326.021-.557c.026-.678.061-.795.257-.849.094-.026 2.271-.04 6.369-.04h6.226l-.011 1.914c-.011 1.903-.011 1.915-.095 1.999-.078.078-.139.087-.762.111-.516.021-.706.042-.795.091a11 11 0 0 1-.315.163c-.334.166-.448.341-.561.856-.039.177-.09.359-.114.404-.109.203-.412.363-.69.364-.183.001-.41.076-.41.136 0 .03.051.09.113.135.146.104.17.211.122.55-.047.335-.15.549-.322.671-.122.087-.168.092-1.027.116-.494.014-.904.027-.911.029s-.064.061-.127.13c-.108.118-.119.122-.181.059-.056-.056-.07-.182-.09-.783-.035-1.062-.041-1.067-1.251-1.032-.806.023-.799.022-2.044.396-1.078.324-1.322.426-1.934.815-.553.351-1.067.653-1.11.653-.015 0-.042-.022-.06-.049zm2.311-2.726c.07-.07.043-.117-.114-.195-.165-.082-.302-.382-.473-1.036-.139-.53-.144-.574-.162-1.394l-.019-.847.203-.203 4.564.011c3.535.008 4.589.022 4.674.059.168.075.223.257.223.742 0 .664-.103.78-.704.79-.865.015-1.681.539-1.681 1.078 0 .178.061.296.137.267.032-.012.145-.142.252-.289.223-.307.555-.553.894-.664.122-.04.408-.091.636-.112.754-.072.755-.074.757-1.204.001-.707-.006-.797-.069-.86-.066-.066-.328-.07-5.111-.08l-5.041-.01v1.82c0 1.719.004 1.828.075 1.967a.5.5 0 0 0 .166.193c.132.066.717.043.792-.031zm.837-.303.078-.107 2.738-.02c2.509-.018 2.743-.025 2.804-.086.055-.055.058-.077.016-.127-.045-.054-.375-.061-2.916-.061-2.553 0-2.872.007-2.927.061-.034.034-.061.077-.061.097s-.048.046-.107.06c-.356.08-.401.099-.401.171 0 .099.047.112.397.116.284.003.304-.003.378-.104z"/></svg>