<svg xmlns="http://www.w3.org/2000/svg" viewBox="0 0 512 512"><path d="M229.323 160.478v-21.047s-3.66-1.525-3.559-4.982 5.388-4.779 5.388-4.779v-4.576c0-2.237 1.22-2.745 6.405-2.745h37.721c4.169 0 4.271 7.422 4.271 7.422s5.287.101 4.88 5.287c-.406 5.185-3.152 4.779-3.152 4.779l.204 20.639s15.99-2.062 36.591-8.272c2.734-.824 6.901 1.519 9.772.544 2.632-.894 3.959-5.095 6.663-6.124 14.276-5.434 29.262-12.799 41.937-22.65 37.416-29.078 62.224-64.868 62.224-64.868s2.413 3.122 6.164 9.215c1.163 1.89.404 5.282 1.792 7.74.976 1.728 4.051 2.377 5.111 4.381 15.279 28.879 38.135 86.305 35.125 167.573-1.583 42.747-11.52 80.452-23.7 111.328-.683 1.731-3.057 2.383-3.752 4.071-.632 1.531.416 4.103-.224 5.598-21.637 50.524-47.969 80.316-47.969 80.316s-6.622-15.591-17.637-34.031c-.572-.957.237-3.125-.358-4.096-1.807-2.947-5.113-4.747-7.123-7.752-8.019-11.988-17.589-24.049-28.158-33.019-45.776-38.849-75.644-35.382-75.644-35.382l-.509 6.202s5.084 1.525 3.355 5.897-5.796 4.474-5.796 4.474 2.542 1.932-.204 5.287-5.084 1.627-5.084 1.627v94.353h-37.009v-93.844s-3.254.813-4.982-2.237-.101-5.389-.101-5.389-5.19-.813-6.204-4.575 4.069-6.101 4.069-6.101l-.305-6.609s-33.857-1.932-76.56 38.331-51.65 76.458-51.65 76.458-74.618-81.731-76.425-195.816c-.023-1.421 1.389-2.947 1.39-4.378 0-1.09-1.419-2.075-1.413-3.156q.015-2.252.049-4.478s4.922-4.363 5.227-11.074c.323-7.117-4.36-11.673-4.36-11.673 5.204-84.682 30.918-134.991 40.771-151.424 1.921-.291 3.471-.978 3.471-.978s1.373-.635 2.714-1.826c5.981 7.941 23.145 29.444 47.766 49.552 1.424 1.163 1.324 3.638 2.797 4.789 1.598 1.248 4.774 1.171 6.427 2.397 5.488 4.07 11.278 8.001 17.339 11.659 46.55 28.094 82.254 27.96 82.254 27.96z"/></svg>