<svg xmlns="http://www.w3.org/2000/svg" viewBox="0 0 300 300"><path d="M149.006 273.9c-4.181-.459-9.488.562-12.291-1.65-6.112-4.828-13.65-10.622-15.366-17.353-1.078-4.256 6.422-12.066 11.644-16.341 19.912-16.266 67.238-11.297 80.597 11.55 4.387 7.519 4.959 26.1-1.978 31.378-9.037 6.872-19.088 15.806-29.409 16.866-31.481 3.216-63.338 3.309-91.894-14.597-12.188-7.669-17.859-26.813-9.338-38.541 5.616-7.744 14.269-13.697 22.528-18.881 8.025-5.025 17.559-7.5 25.922-12.066 9.872-5.391 15.553-13.781 14.297-25.819-.281-2.719-.047-5.494-.047-8.241 0-22.575-1.537-25.172-22.866-37.697-4.031 14.522-8.194 28.809-11.934 43.209-3.544 13.622-11.859 16.528-27.131 9.206 7.238-17.475 15.441-34.622 21.375-52.528 4.613-13.912 8.7-14.297-9.291-22.5-2.053-.928-3.956-2.156-5.869-3.188.919-7.153 1.772-13.987 2.728-21.525 8.025 6.159 16.031 12.291 26.681 20.475 7.744-21.112 15.122-40.209 21.656-59.587 2.944-8.719-.928-12.684-9.553-9.394-13.594 5.184-26.587 11.981-38.587 17.522 6.412-12.778 18.094-24.816 34.566-28.219 14.241-2.944 19.294-8.522 15.394-23.962-20.475 5.1-40.959 9.928-55.894 27.731-3.984-14.784-4.462-15.6 15.188-26.925 10.472-6.038 22.763-9 34.462-12.619 2.672-.825 6.244 1.275 9.394 2.072 1.2.309 2.419 1.266 3.516 1.097 26.719-4.331 33.825-2.1 58.331 12.084 9.488 5.484 13.003 11.775 12.347 22.612-9.619-6.206-18.094-12.834-27.553-17.4-8.953-4.331-18.919-6.469-30.056-10.106v22.069c17.831-.778 31.941 5.869 44.831 18.084 12.263 11.625 12.806 29.559-4.725 41.231-3.178 2.109-6.769 3.75-10.369 5.062-7.594 2.747-8.128 6.9-3.112 12.45 4.078-2.241 8.231-4.313 12.159-6.741 3.872-2.391 7.519-5.138 11.363-7.8 1.153 3.853 2.287 7.031 3.028 10.313 1.697 7.603.713 13.8-8.391 15.759-10.547 2.278-10.697 7.359-6.178 16.65 8.878 18.216 16.031 37.284 23.944 56.119-10.856 5.484-17.55 3.516-22.584-8.025-3.394-7.8-6.694-15.656-10.219-23.4-3.356-7.388-6.956-14.672-11.063-23.297-5.644 3.778-11.963 7.209-17.175 11.906-2.203 1.978-2.7 6.6-2.85 10.078a1177 1177 0 0 0-.947 41.897c-.075 13.8-9.291 19.041-20.119 23.709-11.494 4.959-23.653 9.441-33.516 16.838-11.981 8.981-11.034 24.656 2.025 30.609 25.275 11.503 51.984 17.916 78.806 4.856 4.575-2.231 9.272-10.209 8.925-15.141-.413-5.625-5.278-12.778-10.266-15.881-13.528-8.409-28.003-6.309-41.85.572-9.956 4.959-10.219 12.825-.713 19.088 2.466 1.622 5.241 2.803 7.875 4.191-.122.713-.281 1.416-.431 2.138zm-.693-136.716c5.569-4.462 9.975-9.131 15.319-11.991 7.725-4.153 6.319-8.981 3.253-15.141-5.381-10.781-10.359-21.759-15.966-33.619-7.116 14.241-13.931 27.487-20.269 40.987-.844 1.8-.056 5.728 1.416 7.078 5.034 4.575 10.725 8.466 16.247 12.694zm13.809-92.043c-2.213 9.441 6.881 35.278 13.903 39.984 1.162.797 3.309 1.894 3.975 1.416 4.462-3.188 10.547-6 12.375-10.472 1.744-4.266.459-11.372-2.138-15.544-6.281-10.031-16.809-13.753-28.106-15.394z"/></svg>