<svg xmlns="http://www.w3.org/2000/svg" width="300" height="300" viewBox="0 0 300 300"><title>factions-destruction-gorger-mawpack</title><path d="M112.99 285.874c-3.375-3.9-4.153-7.275-2.597-14.802 2.081-11.943 19.743-45.71 22.339-43.113 2.334 2.859 7.528 25.189 7.528 33.504 0 8.831-12.983 29.605-18.439 29.605-2.334 0-6.234-2.334-8.831-5.194M162.075 276.79l-6.497-15.066 8.569-22.339c4.931-12.206 10.124-22.339 12.206-22.339 1.819 0 7.275 10.386 12.206 23.371 7.013 17.924 8.831 25.452 7.528 32.98-2.081 11.427-4.678 14.025-17.661 16.358l-9.609 1.819-6.75-14.802zM55.852 272.629c-2.597-3.9 1.041-30.908 5.194-38.699 3.375-6.75 32.98-31.171 37.657-31.171 3.9 0 3.113 35.323-1.041 44.932-7.275 17.924-35.838 34.799-41.81 24.936zM219.728 269.777c-2.081-3.375-5.719-10.65-8.053-16.358-2.597-5.719-6.234-12.468-8.314-14.802-3.113-3.375-3.638-9.872-2.859-29.089.262-13.508 1.556-25.452 2.597-26.23 2.334-2.597 11.943 8.569 30.908 36.101 15.843 22.593 15.843 23.118 14.539 36.88-1.819 17.924-2.859 19.218-14.802 19.218-7.791 0-11.166-1.303-14.025-5.719zM9.101 231.333c-5.456-25.189 11.427-48.045 45.195-60.512 10.124-3.9 21.299-7.013 24.158-7.013 4.931 0 5.194.262 1.303 4.678-2.081 2.334-10.913 14.802-19.48 27.271-14.539 21.814-37.395 43.376-45.973 43.376-1.819 0-4.153-3.638-5.194-7.791zM251.677 217.056c-3.638-2.081-8.053-7.013-9.609-10.911-4.153-11.427-8.314-24.674-8.314-27.271 0-3.375 17.924.516 29.352 6.497 9.872 4.931 9.872 5.194 9.094 19.743-.778 13.508-1.303 14.539-7.275 15.066-3.638.516-9.609-1.041-13.247-3.113zM7.02 154.724c-3.9-3.638-7.012-7.528-7.012-8.831 0-3.637 11.943-13.246 16.621-13.246 6.234 0 25.452 5.456 28.574 8.053 2.597 2.334-21.299 20.258-27.008 20.521-2.081 0-7.275-2.859-11.164-6.497zM235.056 153.683c-12.73-2.334-23.371-5.194-23.371-6.75 0-3.638 36.363-21.299 51.166-24.936 11.427-2.597 13.762-2.334 24.936 3.112 10.386 5.456 12.206 7.275 12.206 14.025 0 5.719-2.081 9.094-8.831 13.508-10.386 7.013-21.552 7.275-56.098 1.041zM37.15 113.682c-14.025-3.9-29.352-17.924-29.352-26.755 0-9.094 11.164-19.743 20.258-18.702 5.719.516 9.094 4.416 19.218 22.855 6.497 12.205 12.206 22.855 12.206 24.149.262 2.597-9.609 1.819-22.339-1.556zM205.704 103.557c4.678-6.234 14.539-17.399 21.814-24.674 11.691-12.468 14.025-13.761 24.149-13.761 14.539 0 19.996 3.375 23.633 14.286 2.597 7.791 2.334 10.388-1.041 15.581-4.678 7.275-5.456 7.528-40.002 14.286-38.96 7.528-39.213 7.528-28.564-5.719zM74.291 102.254c-5.194-5.456-13.508-17.663-18.439-27.271l-9.094-17.399 5.709-11.691c6.497-13.761 12.206-15.064 21.552-5.709 3.9 3.9 6.497 10.387 7.528 18.702 1.041 7.013 3.375 21.036 5.456 30.908 2.334 10.124 3.9 18.955 3.9 20.258 0 4.678-8.316 1.041-16.622-7.791zM150.384 65.9c-1.556-4.153-4.153-15.327-5.456-24.936-3.113-21.036-.516-29.352 9.872-31.949 5.972-1.556 8.314-.263 14.539 6.497 4.678 5.194 7.275 10.912 7.275 16.358 0 8.569-16.622 41.032-21.036 41.032-1.303 0-3.638-3.112-5.194-7.013zM104.421 53.432c-8.831-9.094-16.105-17.399-16.105-18.439 0-.778 2.334-4.931 5.456-9.094 6.75-9.609 20.774-10.65 26.755-1.819 4.416 6.234 5.972 46.226 2.081 46.226-1.303 0-9.346-7.528-18.177-16.883zM187.011 65.638c0-10.65 8.053-30.908 14.802-37.395 15.843-14.803 29.352-11.691 29.352 7.012 0 12.731-2.859 15.581-27.786 28.311-16.105 8.053-16.358 8.053-16.358 2.081z"/></svg>