<svg xmlns="http://www.w3.org/2000/svg" xml:space="preserve" fill-rule="evenodd" stroke-linejoin="round" stroke-miterlimit="2" clip-rule="evenodd" viewBox="0 0 300 300"><path fill-rule="nonzero" d="M153.488 68.808V11.289c0-10.521 3.275-12.315 12.339-6.573 12.496 8.21 24.676 16.421 36.342 25.461 3.791 2.804 7.246 6.326 4.441 12.182-11.777 24.632-13.146 51.933-22.298 77.261-3.006 10.185-12.271 17.521-23.263 17.521h-.202a9.57 9.57 0 0 1-6.797-5.361l-.022-.068c-.584-2.535-.92-5.452-.92-8.457 0-1.301.068-2.579.202-3.859l-.022.157V68.518l.202.292zM1.57 234.321v-14.38c0-.157-.022-.382-.022-.606 0-7.762 5.16-14.312 12.226-16.444l.135-.022c25.439-9.22 51.013-17.678 76.587-26.292 3.05-.964 7.246-2.446 9.377-1.234 5.967 3.881 11.127 8.009 15.906 12.607l-.045-.022c.493.493-.56 3.769-1.727 4.936a113 113 0 0 1-11.979 10.499l-.27.202a3364 3364 0 0 1-51.17 36.499 1295 1295 0 0 1-38.742 25.888c-1.166.741-5.361-.65-5.585-1.727-2.4-9.78-4.195-19.651-6.259-29.522l1.57-.382zm241.584 61.961c-6.08-2.535-11.306-5.675-15.995-9.466l.135.09c-13.976-14.873-27.144-30.397-40.536-45.764-4.016-4.598-8.21-9.287-11.509-14.223-1.884-2.535-4.622-5.989-4.195-8.637 1.816-7.493 3.881-13.841 6.348-19.943l-.359.964c6.348 2.041 11.777 4.419 16.959 7.246l-.493-.27c29.119 18.642 57.586 37.732 86.795 56.644q4.745 2.39 8.21 5.923c1.166 1.57.987 6.416 0 6.909-14.559 6.976-29.679 13.55-45.338 20.527zm-177.268 2.22c-15.973-4.846-31.025-8.861-45.585-14.133-7.403-2.625-7.807-9.466-1.481-14.29 8.21-6.506 17.497-12.496 26.404-18.731 21.469-15.121 42.938-30.329 64.586-45.293 3.342-1.884 7.291-3.702 11.374-5.182l.539-.157c2.714 6.662 5.832 13.146 8.232 19.965.493 1.884-1.794 5.092-3.455 7.157a6602 6602 0 0 1-53.302 65.326 37.4 37.4 0 0 1-7.133 5.227l-.202.09zM300 235.891l-3.702 27.862c-11.014.92-15.793-9.22-23.532-13.887-23.106-14.066-45.001-29.926-67.368-45.114-2.804-1.884-6.595-2.961-8.21-5.496-3.05-4.284-12.405-6.08-7.066-14.201 6.506-9.961 13.259-12.653 21.962-9.601 26.089 8.951 52.068 18.328 78.404 26.538 6.932 2.132 8.232 5.272 8.232 11.262v22.501l1.279.135zM146.916 69.885v55.41c0 13.056 0 12.069-12.607 9.601-7.672-1.077-13.819-6.64-15.681-13.931l-.022-.135a2701 2701 0 0 1-21.805-77.911 14 14 0 0 1-.089-1.458 12.57 12.57 0 0 1 4.016-9.22c12.832-9.78 26.067-19.225 39.729-27.863 6.08-3.858 6.326 2.221 6.416 6.08v59.404l.045.022zm-.091 91.214c0 10.185-11.688 22.59-20.078 22.097-10.634-1.705-18.687-10.813-18.687-21.783q0-1.75.27-3.432l-.022.135c1.705-9.466 9.691-16.623 19.45-17.026h.045c10.028 1.772 17.722 9.826 18.979 19.876l.022.113.022.022zm45.249 1.548c.022.359.045.807.045 1.234 0 10.072-8.009 18.306-18.036 18.642h-.022c-10.902-1.862-19.27-10.656-20.481-21.581v-.113c.56-8.21 12.496-20.303 19.898-19.965 10.454.403 18.731 8.973 18.731 19.472 0 .83-.045 1.638-.157 2.422l.022-.113zm-40.403 53.413c-13.819 0-19.001-5.25-18.755-18.171a21 21 0 0 1-.045-1.234c0-10.162 8.256-18.395 18.441-18.395h.292c11.127.763 19.832 9.938 19.832 21.155v.382c-.83 9.22-8.502 16.377-17.857 16.377-.65 0-1.301-.045-1.952-.112h.045z"/></svg>