<svg xmlns="http://www.w3.org/2000/svg" viewBox="0 0 300 300"><path d="M47.889 127.427h35.092c5.019 0 8.641-.749 6.415 7.913-5.687 22.504-4.877 22.14 17.06 17.849a192 192 0 0 1 28.312-1.558h-.182c-1.113 10.26-2.611 19.165-4.533 27.907l.324-1.72c-5.019 19.792-11.009 39.402-16.089 59.032l-.02 1.153c0 3.197.567 6.233 1.619 9.066l-.061-.182c2.813-1.417 5.242-3.056 7.407-4.978l-.04.04c16.837-19.185 33.756-38.451 50.087-58.061 13.944-16.696 27.037-34.241 41.122-50.836a18.4 18.4 0 0 1 12.527-5.525h.04c22.16-.506 44.299 0 66.459 0 7.832 0 7.366 2.206 6.192 9.734a111.65 111.65 0 0 1-16.23 44.745l.283-.466c-4.776 7.083-10.119 13.195-16.149 18.578l-.101.081c-2.064 2.064-6.213 2.064-9.471 2.955a67 67 0 0 0 3.521-6.921l.182-.466c1.922-5.019 3.845-10.119 5.403-15.259 2.894-9.592-.89-15.785-9.39-12.972-17.667 5.889-36.488 11.373-47.476 28.413-13.296 20.743-4.513 47.153 19.63 60.954 7.265 3.582 13.417 7.225 19.225 11.313l-.466-.324c2.813 2.206 3.541 7.366 5.242 10.847a37.9 37.9 0 0 1-10.625 2.651l-.142.02c-38.329-2.307-76.598-6.071-114.947-6.86a486 486 0 0 0-64.274 6.84l2.894-.405a38.4 38.4 0 0 1-11.191 0l.223.02c-2.428 0-6.354-2.206-6.577-3.845v-.182c0-2.854 1.255-5.423 3.238-7.204h.02c8.459-4.594 15.502-9.006 22.281-13.761l-.708.466c8.257-6.071 15.077-13.62 20.136-22.301l.202-.364c8.864-19.246 11.596-32.542-14.773-48.57a153 153 0 0 0-31.833-13.64l-1.113-.283c-3.683-1.255-8.783 1.761-13.215 2.874.729 4.493 1.801 8.5 3.238 12.325l-.142-.425c2.671 5.383 6.354 10.26 9.309 15.563.668 1.174 0 3.096 0 4.736-1.619 0-3.683 0-4.736-.445-7.387-6.192-17.141-11.373-21.269-19.327a315.5 315.5 0 0 1-18.214-46.384l-.627-2.388c-2.125-6.354.587-10.402 8.338-10.179 12.709.081 25.641-.142 38.552-.142z"/><path d="m103.805 130.017 11.313-47.375c3.683-15.785 7.366-31.651 11.09-47.456a120 120 0 0 1 5.484-12.183l-.304.668c2.004-5.161 6.274-5.97 9.289-2.955 18.173 18.153 38.026 13.296 58.506 5.464 2.55-.647 5.464-1.032 8.479-1.032h.02c-1.7 2.428-3.4 4.816-5.019 7.366-10.726 16.736-21.492 33.513-32.116 50.411a61 61 0 0 0-3.764 8.965l-.142.466c3.157.931 6.8 1.477 10.564 1.477h.081c15.502-2.287 31.024-5.1 46.445-7.366h5.606a15.4 15.4 0 0 1-1.518 5.423l.04-.101c-7.751 10.787-15.583 21.532-23.698 32.015-15.198 19.711-30.639 39.2-46.02 58.668-4.736 6.051-9.532 12.021-14.773 17.849a57 57 0 0 1-5.666 5.383l-.101.081c.324-3.177.83-6.071 1.579-8.864l-.081.384c5.909-18.294 12.183-36.447 17.95-54.742 3.177-9.957 1.174-12.932-9.006-11.434-11.9 1.7-23.576 5.1-35.375 7.366-8.054 1.417-9.006.89-8.783-8.479h-.081z"/></svg>