<svg xmlns="http://www.w3.org/2000/svg" viewBox="0 0 300 300"><path d="M194.837 191.789v36.509c0 4.488-1.289 9.666 5.532 11.31.823 0 1.555 4.555 1.066 6.667-3.422 14.044-7.089 27.976-10.755 41.953-.756 3.377-1.956 6.377-3.578 9.088l.089-.156c-2.6 4.155-8.133 3.645-8.933-.823-2.711-19.821-13.999-39.02-5.222-59.907.4-1.334.645-2.866.645-4.444 0-.511-.022-1.066-.067-1.577v.067-77.061c0-4.8-1.466-7.466-6.911-7.311h-30.442c-5.688 0-6.911 3.067-6.511 7.644 1.711 18.532-3.977 37.642 3.667 55.863.312.866.489 1.889.489 2.978s-.178 2.088-.511 3.022l.022-.067a28243 28243 0 0 0-16.266 56.907c0 .977-1.644 1.644-2.534 2.378a18.5 18.5 0 0 1-1.755-3.223l-.045-.111a3476 3476 0 0 1-12.132-51.797c-.377-1.2-.6-2.6-.6-4.066s.221-2.844.622-4.155l-.022.111c7.488-17.577 2.534-35.931 3.667-53.818.645-10.8 1.467-11.954-12.599-11.621H73.532c-4.31 0-11.711-2.755-12.043 3.245s-7.332 9.6-2.933 16.732c8.133 13.488 4.31 27.398-.4 41.375-3.667 11.133-6.266 22.688-9.444 33.997-.799 1.889-1.711 3.533-2.822 5.044l.045-.067a23.4 23.4 0 0 1-2.711-4.978l-.045-.156c-4.066-15.11-8.777-30.243-11.555-45.619-1.421-4.867-2.244-10.444-2.244-16.221 0-8.532 1.778-16.643 5-23.998l-.156.4c.911-1.711-1.377-6.177-3.422-8.133-9.844-9.6-10.399-14.733-2.023-27.243 0-.555 1.377-.955 1.377-1.377 0-17.709 5.621-35.864-3.333-52.93-5.355-10.155-5.222-13.177 3.022-23.732.934-1.488 1.778-3.221 2.511-5.044l.089-.245C38.4 25.089 38.711 24.844 48.711 23.2s11.866 0 11.733 8.133c0 11.621 0 11.8 9.599 12.11h24.421c.156.022.377.022.6.022 5.222 0 9.444-4.222 9.444-9.422 0-.311-.022-.578-.045-.866v.045V6.869c0-5.532.977-7.555 8.155-6.667 16.266 1.956 16.266 1.044 16.999 17.31 0 8.133.555 16.243.912 24.376l25.71 1.956c1.822.245 3.933.355 6.067.355s4.245-.134 6.311-.377l-.244.022c2.244-.799 3.955-2.534 4.689-4.733l.022-.045c.266-1.511.4-3.266.4-5.044s-.156-3.533-.4-5.222l.022.2c-1.044-16.266 3.823-12.688 13.6-13.177 6.599 0 7.555 3.667 7.644 8.933s-1.289 14.888 1.778 17.066c3.977 1.755 8.621 2.755 13.488 2.755 2.023 0 4-.156 5.933-.511l-.223.022c13.421-.489 26.843-1.622 40.198-2.511.645 0 1.155-.823 1.778-.955 1.245-.4 2.711-.6 4.178-.6 5.532 0 10.377 3.045 12.955 7.511l.045.067c.866 2.378 1.356 5.088 1.356 7.932 0 4.689-1.356 9.066-3.711 12.732l.067-.089a15.74 15.74 0 0 0-4.711 11.265v26.798c0 6.266-.823 11.8 5.866 17.466a16.14 16.14 0 0 1 3.732 10.355c0 4.421-1.778 8.421-4.644 11.354-3.067 2.155-5.044 5.688-5.044 9.666 0 .689.067 1.377.178 2.023v-.067a125 125 0 0 0-.089 5.177c0 10.11 1.066 19.977 3.089 29.487l-.156-.912c2.289 7.466-3.578 17.466-6.355 26.176-2.2 6.911-5.443 13.488-8.133 20.31-1.377 4.311-2.023 8.866-3.022 13.332-2.111-4.466-6-8.933-6-13.421 0-12.666-9.199-21.954-10.821-33.731-.645-5.111-.823-10.332-1.155-15.443 0-.555.977-1.155.977-1.711l.955-37.798c-12.599-.645-25.309-1.555-37.931-1.555-1.622 0-4.711 4.31-4.8 6.666.489 12.533.734 25.443.734 38.22l-.022-.045zm0-98.771v18.577c0 5.155 4.178 9.333 9.355 9.333.312 0 .622-.022.955-.045h28.198c1.644 0 4.577-1.555 4.711-2.6 2.111-12.066 3.533-26.31 3.977-40.775v-.444c-.888-6.732-6.578-11.889-13.488-11.889-.178 0-.356 0-.533.022h.022c-2.445-.223-5.289-.355-8.155-.355s-5.711.134-8.51.355l.356-.022c-15.066 2.021-17.088 4.622-17.176 19.821.178 2.688.178 5.355.178 7.955l.111.067zm-90.239 2.266v-8.133c0-15.688-5.443-21.287-20.999-22.199H71.556c-.266-.022-.6-.045-.934-.045-5.532 0-10.022 4.488-10.022 10 0 .533.045 1.066.134 1.577v-.067c.355 3.866.578 8.377.578 12.911 0 7.421-.555 14.755-1.666 21.865l.111-.8c-2.021 8.133 0 9.51 6.111 10.399 1.8.111 3.888.2 6 .2s4.222-.067 6.311-.2l-.267.022c26.598.4 27.265 2.289 26.598-25.532h.089zm69.062-2.422V76.619c0-2.534-.734-6-2.378-7.089-11.8-7.466-23.843-5.2-36.131-.645-9.533 3.489-3.667 11.222-5.2 16.932-.156.912-.245 1.934-.245 3.022s.089 2.111.267 3.111l-.022-.111c.489 9.199 1.044 18.443 1.622 27.642l29.864 1.377h2.023c.223.022.466.022.756.022a9.436 9.436 0 0 0 9.444-9.444c0-.178 0-.355-.022-.533v.022c.089-5.955-.089-12.043-.089-18.043l.111-.022z"/></svg>