<svg xmlns="http://www.w3.org/2000/svg" xml:space="preserve" fill-rule="evenodd" stroke-linejoin="round" stroke-miterlimit="2" clip-rule="evenodd" viewBox="0 0 300 300"><path fill-rule="nonzero" d="M155.238.086c21.152 2.979 38.834 15.581 48.691 33.155l.171.321c4.458 7.822 9.88 15.259 13.63 23.467 2.808 5.958 4.587 12.902 4.929 20.21v.129c.15 11.509 3.214 22.267 8.466 31.611l-.15-.343c9.472 16.738 1.564 46.956-15.195 56.493-21.625 12.751-28.889 33.261-31.311 55.936-1.5 12.216 0 24.732-.471 36.99s-2.529 24.346-4.393 36.455c0 2.121-3.193 5.614-4.608 5.487-2.958-.514-5.443-2.164-7.116-4.437l-.021-.042c-4.2-7.545-12.109-12.58-21.217-12.58-5.422 0-10.437 1.8-14.466 4.8l.064-.042c-2.036 1.65-1.8 5.872-3.214 8.616-.621 1.179-2.979 1.5-4.564 2.186-4.479-12.366-12.13-23.467-9.558-38.19 1.2-6.408 1.886-13.802 1.886-21.346 0-21.754-5.743-42.177-15.752-59.836l.321.6c-3.493-5.358-8.166-9.666-13.652-12.666l-.214-.107c-17.852-10.801-28.032-35.834-19.438-53.986 5.572-11.445 9.045-24.796 9.558-38.941v-.171c1.564-10.159 5.014-19.246 9.966-27.304l-.193.3c4.479-8.037 9.022-14.895 13.995-21.389l-.3.429C114.177 10.396 133.486.473 155.11.002h.086l.042.086zm28.569 160.284c8.38 1.029 12.923-4.158 17.617-10.009 7.845-10.008 1.714-19.867 0-29.661s-7.051-10.716-13.009-4.158a192 192 0 0 0-20.596 26.682l-.45.771c-5.316 8.272-2.893 12.752 6.666 15.645 2.658.45 5.743.707 8.872.707h.964l-.064.021zm-63.116 0c14.166 0 17.702-5.572 10.801-17.745-3.858-7.18-8.145-13.395-13.03-19.073l.129.15c-4.372-4.179-9.172-7.972-14.252-11.337l-.386-.236c-2.058 4.629-4.222 10.458-6.043 16.438l-.3 1.157c-.686 2.122-1.072 4.522-1.072 7.051 0 12.945 10.523 23.468 23.489 23.468.257 0 .471 0 .729-.021h-.043l-.021.15zm41.598 74.582c-3.3-.279-7.158-.429-11.037-.429s-7.737.171-11.53.471l.493-.042c-3.836.707-9.087 15.645-6.579 19.009 2.872 4.8 7.03 8.593 11.98 10.951l.171.064c1.522.558 3.3.879 5.143.879a15.67 15.67 0 0 0 13.438-7.608l.042-.064c.986-2.7 1.543-5.808 1.543-9.045 0-5.508-1.629-10.63-4.437-14.938l.064.107c-.793-.621-2.186-.793.707.471v.171z"/></svg>