<svg xmlns="http://www.w3.org/2000/svg" width="300" height="300" viewBox="0 0 300 300"><title>factions-destruction-bladeborn-hrothgorns-mantrappers</title><path d="M146.464 128.338c6.859 2.332 12.655 3.826 18.224 6.112 10.595 4.392 21.121 9.101 31.488 13.99s22.932 11.093 34.116 17.272c13.402 7.448 26.487 15.552 39.571 23.565 3.893 2.468 5.977 5.705 1.178 9.507-1.086.906-1.992 1.902-2.988 2.898-14.579 15.304-14.398 15.054-32.282 1.246-5.501-4.165-11.726-8.037-18.268-11.364l-.679-.294c-20.94-10.753-42.151-21.098-63.182-31.784a11.17 11.17 0 0 0-7.085-2.513c-2.128 0-4.12.588-5.818 1.63l.046-.022c-23.362 13.062-46.95 25.717-70.969 37.669-7.379 3.713-5.705 6.701-1.404 10.164 11.161 8.761 22.705 17.046 34.048 25.581 5.977 4.482 11.771 9.101 17.566 13.718 11.681 9.531 17.228 10.096 29.248 2.648 4.799-3.396 10.436-6.973 16.254-10.233l.974-.498c6.315-3.079 4.143-6.452.746-9.101a146 146 0 0 0-15.824-10.436l-.746-.408c-5.297-3.079-11.024-5.297-16.57-8.263-14.33-8.263-12.926-8.263-.996-19.695s21.37-4.143 29.565.408c18.223 10.187 34.952 22.999 52.338 34.68 1.652 1.154 3.146 2.74 4.89 3.736 3.146 1.902 8.285 2.898 9.281 5.546 2.648 6.203-2.648 10.277-6.882 13.492-20.872 15.8-42.649 30.38-62.616 47.154-3.034 3.237-7.335 5.252-12.089 5.252a16.44 16.44 0 0 1-11.681-4.821c-27.007-19.129-53.493-38.959-80.16-58.563a85.8 85.8 0 0 0-17.612-12.768l-.452-.226c-13.492-4.799-11.16-15.122-11.5-25.309s6.543-15.394 14.986-19.514c28.41-14.058 56.663-28.614 85.05-42.695 5.207-2.377 11.93-5.003 18.812-7.289l1.494-.408-.068-.068zM29.269 109.82c1.652-6.565 3.35-11.907 5.343-17.136l-.34 1.086c5.501-13.084 11.205-26.033 17.046-38.891a28.7 28.7 0 0 1 6.339-8.241l.022-.022c5.455-5.048 11.273-9.847 16.57-14.804 1.041 6.475 1.743 14.058 1.902 21.755v.18a100 100 0 0 0-.046 2.716c0 15.416 3.26 30.063 9.168 43.305l-.272-.679c1.268 3.146 2.014 6.813 2.014 10.639a29 29 0 0 1-4.821 16.028l.068-.114c-4.437 5.931-8.535 12.609-11.998 19.695l-.316.748c-3.305 9.327-9.281 8.693-19.061 3.645-15.892-7.923-19.129-22.162-21.619-39.865v-.046zM151.014 13.339c-6.225 11.251-3.395 24.833-4.075 37.239-.25 2.286-.386 4.913-.386 7.561a74.5 74.5 0 0 0 6.543 30.56l-.204-.452a13.57 13.57 0 0 1 2.58 7.969 13.69 13.69 0 0 1-7.855 12.405l-.09.046a89 89 0 0 0-7.109 6.361c-4.55 3.464-11.93 10.413-13.673 9.281-9.599-6.837-18.02-14.171-25.671-22.185l-.068-.068c-1.154-1.154 0-5.207.838-7.697 5.048-18.02 9.033-36.492 15.732-53.855C124.027 26.4 131 14.335 138.946 3.016l-.476.748c1.314-2.15 6.225-4.482 7.629-3.554s3.554 5.207 4.89 8.263c.158.816.25 1.744.25 2.694 0 .77-.068 1.516-.158 2.264v-.09h-.068zM201.111 103.709c-1.902 8.263-3.305 16.548-5.886 24.811-.702 3.305-3.599 5.75-7.041 5.75a7.14 7.14 0 0 1-5.841-2.988l-.022-.022c-10.595-12.745-18.63-26.147-13.085-44.189 2.174-8.603 4.211-19.378 5.592-30.357l.158-1.404c.928-6.633 2.4-12.564 4.414-18.268l-.204.634c2.06-5.207 6.293-14.307 8.285-13.99 8.873 1.313 4.731 9.847 4.55 14.986v1.539c0 18.02 2.762 35.405 7.877 51.75l-.316-1.222c.816 3.803 1.358 8.263 1.562 12.813l-.046.158zM246.499 124.625c-1.154 4.211-2.74 11.432-4.89 18.45-1.584 4.889-4.301 4.301-8.285.498-15.076-13.402-17.136-30.199-17.476-49.644.566-18.45 6.021-35.496 15.144-50.074l-.25.408c.838-1.652 3.079-2.467 4.731-3.712.906 2.242 1.992 4.301 2.74 6.543.09.612.136 1.336.136 2.06s-.046 1.448-.136 2.15v-.09c-.272 3.464-.43 7.515-.43 11.59 0 18.02 3.034 35.36 8.625 51.456l-.316-1.086c.362 2.286.544 4.935.544 7.629 0 1.336-.046 2.648-.158 3.961v-.18l.022.046z"/></svg>