<svg xmlns="http://www.w3.org/2000/svg" width="300" height="300" viewBox="0 0 300 300"><title>factions-order-order-of-azyr-cropped</title><path d="M201.859 2.033c-33.369 8.067-51.754 26.002-77.73 75.824-14.785 28.357-23.509 39.209-37.02 46.052-23.389 11.846-31.981 21.839-34.579 40.217-2.076 14.686-6.161 20.286-18.377 25.197-11.6 4.663-17.17 9.385-20.582 17.446-5.675 13.407-.866 17.197 9.625 7.586 4.456-4.083 11.902-7.968 20.544-10.721 15.958-5.083 17.65-6.395 30.632-23.734 14.213-18.985 18.736-22.638 38.738-31.283 9.836-4.252 21.885-10.284 26.775-13.405 18.212-11.622 22.077-4.766 12.942 22.954-3.174 9.631-5.771 18.519-5.771 19.751 0 16.509-11.8 29.769-28.572 32.105-11.36 1.583-24.749 10.159-28.543 18.284a2188 2188 0 0 0-7.287 15.845c-6.995 15.368-15.062 25.278-28.579 35.109-23.077 16.785-24.761 26.838-2.831 16.893 6.92-3.138 13.806-5.705 15.303-5.705 11.308 0 31.155-14.852 38.062-28.482 5.545-10.942 11.659-15.515 26.428-19.767 22.351-6.434 29.831-11.842 50.861-36.767 16.115-19.1 22.933-25.621 56.812-54.336 35.936-30.459 40.943-36.554 47.123-57.366 15.942-53.684-30.672-104.587-83.974-91.699z"/></svg>