<svg xmlns="http://www.w3.org/2000/svg" xml:space="preserve" fill-rule="evenodd" stroke-linejoin="round" stroke-miterlimit="2" clip-rule="evenodd" viewBox="0 0 25 27"><path fill-rule="nonzero" d="M12.092.194c0 .329-1.234.35-.595 1.594 1.856 3.613-2.357 2.07-3.435.936-.98-1.03-1.165-.47-1.346-.512 2.867 3.673 3.45 3.15 4.856 3.534.552.15.279 3.823-1.334 3.19C4.487 6.68 4.88 5.837 4.349 5.837h-.154v.333c0 1.398 6.378 4.085 6.378 4.883 0 4.523-12.711-2.188-8.906.402 4.074 2.773 6.05 2.499 7.107 2.798 1.476.418 1.317.865 1.317 2.588v.238h-.166c-.866 0-2.205 1.666-8.166-.478-4.323-1.556.647 2.2 6.377 2.2h2.285v.166c0 .95 1.268 4.323 1.406 4.69.178.474 1.268 1.137 1.268 2.098v.238h.166c.135 0 .947.526 1.333.526h.5v-.333c0-.556-2.457-5.103-1.243-7.377.615-1.152 2.45.416 7.141-1.458 1.636-.654 3.006-2.378 3.006-2.934v-.333h-.166c-.675 0 .05 2.052-7.973 2.729-1.65.14-2.514.475-2.167-1.197.048-.231 8.503-3.092 8.503-5.653 0-.093-.006-.237-.096-.262-.124-.034-.239.39-.239.428v.238h-.262c-.653 0 .053 1.987-7.643 2.861-.187.021-1.498-.93 1.333-1.929.903-.319 2.86-1.4 2.86-2.025v-.238h-.262c-.977 0-4.032 2.646-3.688.001.525-4.037.382-4.033 0-5.71C13.29-.643 12.099-.09 12.099.211z"/></svg>