<svg xmlns="http://www.w3.org/2000/svg" xml:space="preserve" fill-rule="evenodd" stroke-linejoin="round" stroke-miterlimit="2" clip-rule="evenodd" viewBox="0 0 1024 1024"><path fill-rule="nonzero" d="M334.449 96.664c-19.843 5.54-48.8 29.538-70.52 58.438-9.557 12.72-36.202 37.082-65.854 60.218-3.954 3.09-11.107 6.926-15.892 8.533-4.786 1.61-10.341 3.99-12.346 5.29-14.94 9.694-31.793 13.2-69.443 14.437-31.672 1.039-37.634 1.685-44.709 4.84-22.574 10.06-21.029 39.6 4.013 76.71 2.956 4.374 6.114 9.911 7.023 12.303 1.862 4.894 7.026 13.502 19.782 32.97 4.804 7.327 12.19 19.2 16.413 26.376 4.226 7.18 8.903 14.495 10.392 16.258s4.674 6.625 7.077 10.804c2.404 4.178 9.852 15.916 16.552 26.09a6152 6152 0 0 1 24.73 37.92c6.902 10.688 16.144 24.52 20.537 30.742 28.207 39.945 33.952 50.917 35.18 67.154 5.803 76.728-117.81 104.72-183.986 41.66-12.273-11.694-17.098-14.843-22.741-14.843-21.654 0-8.542 51 23.396 91.003C59.71 735.704 140.578 787.32 178.7 795.893c6.7 1.506 16.687 4.293 22.195 6.192 57.794 19.952 80.454 10.274 102.642-43.833 29.014-70.749 36.186-154.596 18.65-218.016-8.128-29.387-1.667-37.083 16.612-19.794 2.871 2.714 8.027 6.107 11.457 7.539 8.85 3.69 30.739 24.812 28.272 27.278-1.304 1.304-3.798 1.374-7.98.217-22.777-6.288-25.705 7.488-16.017 75.36 1.365 9.572 3.261 29.148 4.211 43.505.954 14.357 2.875 32.759 4.27 40.896 9.698 56.513 3.432 111.92-15.456 136.687-7.354 9.637-28.828 24.755-38.341 26.989-4.786 1.122-13.454 3.517-19.266 5.323-7.014 2.176-15.781 3.278-26.101 3.282-62.785.012-9.417 40.66 56.203 42.809 83.874 2.745 156.51-35.074 177.476-92.407 16.54-45.232 4.662-124.426-18.662-124.426-1.063 0-6.247 4.082-11.521 9.073l-9.593 9.07-8.719-9.94c-4.797-5.467-9.794-9.942-11.104-9.942-5.1 0-11.308 4.266-15.558 10.691-2.443 3.69-5.194 6.712-6.114 6.712-4.6 0-11.362-23.52-14.01-48.727-3.128-29.758-5.124-48.015-5.993-54.814-.59-4.635-.398-5.812.574-3.52.803 1.889 3.239 3.858 5.413 4.371 2.869.676 4.979 3.605 7.672 10.631 6.009 15.684 14.342 27.176 21.397 29.504 7.573 2.5 7.374 2.696 17.566-17.592 9.037-17.989 11.075-19.079 25.256-13.523 4.29 1.684 5.885 1.153 14.577-4.861 20.054-13.87 19.486-13.632 26.485-11.18 3.478 1.216 9.066 4.748 12.414 7.846 12.123 11.213 12.958 11.473 24.474 7.585l10.247-3.463 4.36 4.933c2.397 2.712 6.869 9.846 9.933 15.854 8.09 15.854 16.096 17.162 23.668 3.868 15.455-27.119 19.688-35.633 21.409-43.03 3.182-13.701 3.336-13.985 5.486-10.154 3.23 5.755 2.5 53.903-1.018 67.105-1.658 6.223-4.11 19.704-5.45 29.96-3.955 30.297-12.322 37.465-21.805 18.68-4.276-8.469-6.015-10.356-9.553-10.356-2.38 0-4.912-.19-5.63-.422-.72-.233-3.358 3.38-5.867 8.025-7.337 13.583-12.567 14.945-20.905 5.45-26.406-30.075-51.838 61.432-34.018 122.412 6.947 23.782 35.723 45.38 93.418 70.11 26.59 11.395 94.692 15.945 127.69 8.527 27.834-6.26 29.115-27.273 1.971-32.363-19.141-3.588-55.225-26.648-65.731-42.013-12.482-18.249-25.03-61.538-23.179-79.959.591-5.894 1.862-23.903 2.822-40.026 2.071-34.824 4.753-59.603 12.02-111.063 7.515-53.226 7.648-61.797 1.072-68.66-6.57-6.857-12.654-7.093-14.29-.55-1.661 6.651-10.728 21.023-14.56 23.073-3.01 1.61-5.093 6.465-7.834 18.257l-1.213 5.22-1.685-4.35c-4.387-11.331 3.588-38.71 12.5-42.912 16.462-7.76 20.57-10.377 23.034-14.665 1.527-2.663 6.17-6.971 10.32-9.573 8.934-5.61 27.554-24.236 27.554-27.566 0-1.283 1.899-3.577 4.217-5.096 2.322-1.522 4.726-4.354 5.339-6.292.616-1.939 1.85-3.526 2.745-3.526 2.6 0 1.869 9.946-.942 12.756-1.407 1.407-3.717 7.534-5.13 13.61s-4.537 19.662-6.947 30.19a5224 5224 0 0 1-8.152 35.002c-4.58 19.265-4.112 94.72.691 111.174 1.396 4.785 3.475 14.818 4.623 22.297 2.521 16.464 18.885 65.52 27.586 82.706 13.997 27.636 59.425 30.017 119.88 6.283 8.411-3.302 16.31-6.005 17.544-6.005 3.533 0 47.83-23.441 57.206-30.27 36.517-26.602 59.496-48.649 75.368-72.317 13.032-19.426 25.918-56.847 22.59-65.599-2.286-6.005-16.105-.888-31.225 11.57-27.312 22.496-54.566 30.41-100.794 29.262-22.05-.547-28.248-1.271-33.203-3.875-52.791-27.755-62.269-76.661-26.351-136 9.302-15.366 46.224-68.864 49.769-72.11 2.612-2.391 8.916-10.615 14.003-18.272s14.437-20.577 20.775-28.713c10.51-13.493 30.277-42.381 48.821-71.348 36.699-57.332 29.01-83.79-25.032-86.12-73.18-3.159-90.254-9.025-122.008-41.925-6.223-6.444-16.694-16.88-23.272-23.19-6.58-6.311-17.542-17.325-24.363-24.478-37.375-39.192-49.364-50.12-61.221-55.777l-11.809-5.634-24.504.951c-49.724 1.936-69.878 13.143-106.365 59.153-19.613 24.73-34.875 32.858-56.827 30.259-13.623-1.616-22.433-8.153-54.332-40.326-41.337-41.69-52.257-47.58-90.629-48.872-15.286-.513-23.447.015-30.455 1.972zm55.403 231.965c3.194 1.591 14.042 12.5 24.108 24.239 10.064 11.738 19.665 22.312 21.33 23.492 12.524 8.88 30.908 36.784 33.016 50.111 7.542 47.707-86.577 35.361-113.58-14.9-25.9-48.206-3.117-102.005 35.125-82.942m267.024-.852c33.652 14.103 34.597 74.122 1.636 103.913-18.324 16.561-50.724 28.436-69.37 25.419-43.742-7.07-26.273-78.098 29.293-119.09 17.62-12.998 26.325-15.317 38.44-10.242M288.067 406.13c7.18 10.208 7.189 10.241 7.823 28.785 1.018 29.728-3.518 28.895-18.124-3.33a2631 2631 0 0 0-6-13.051c-10.803-23.341 1.839-32.961 16.301-12.403zm466.542-5.482c6.444 9.2 4.496 15.274-19.275 60.085-7.7 14.516-15.332 9.314-11.38-7.756 9.3-40.176 12.86-49.663 19.976-53.208 7.313-3.64 7.524-3.623 10.68.879m-236.842 75.399c9.924 2.497 21.696 31.385 16.204 39.767-9.109 13.906-48.127 6.22-48.127-9.48 0-12.34 18.203-34.963 25.83-32.104 1.286.48 4.028 1.299 6.093 1.818z"/></svg>