<svg xmlns="http://www.w3.org/2000/svg" viewBox="0 0 300 300"><path d="M260.899 68.425c-3.116-9.914-6.715-19.766-9.304-29.89a36 36 0 0 1-.105-2.694c0-2.968.379-5.852 1.073-8.609l-.063.252c2.884 1.979 7.093 3.284 8.378 5.957 4.568 9.304 8.084 19.155 12.145 28.753a40 40 0 0 0 2.441 4.736l-.105-.169c1.747-1.663 5.115-3.368 5.031-5.031.021-.526.021-1.158.021-1.811 0-5.83-.8-11.493-2.252-16.861l.105.442c-3.431-11.304-8.084-22.186-11.682-33.49a23 23 0 0 1-.063-1.768c0-2.673.442-5.242 1.263-7.641l-.042.169c2.926.968 5.452 2.295 7.704 4.021l-.063-.042a41.8 41.8 0 0 1 8.378 12.02l.105.253c12.377 29.575 25.891 59.864 4.125 90.449-8.904 12.441-19.365 23.029-31.301 31.764l-.379.253c-17.556 12.441-37.257 21.744-55.57 33.089-23.743 14.818-40.226 53.381-34.521 80.556 1.536 4.232 3.81 7.83 6.736 10.861 10.693 14.251 10.693 15.261-3.199 24.859-.526 0-1.221.379-1.747.695-6.335 3.516-13.914 11.051-18.776 9.682-9.557-3.894-17.66-9.557-24.227-16.65l-.042-.042a12.9 12.9 0 0 1-1.895-6.736c0-2.147.526-4.189 1.473-5.999l-.042.063c13.597-11.977 8.082-27.449 7.641-41.109-1.494-10.988-5.452-20.838-11.283-29.279l.148.231c-13.724-22.881-37.405-34.016-60.223-45.762-11.913-5.851-22.186-12.441-31.616-19.997l.338.253C.73 109.492-4.848 77.538 4.918 42.68c4.547-13.114 9.703-24.333 15.807-34.942l-.526 1.01c1.052-2.147 5.031-2.821 7.641-4.126 0 2.757 1.768 5.789 1.01 8.082-3.452 12.925-7.556 23.996-12.525 34.584l.526-1.263c-1.579 3.389-2.484 7.346-2.484 11.535 0 5.01 1.325 9.704 3.641 13.787l-.084-.148c.695 1.832 3.052 3.053 4.736 4.505 1.242-1.684 2.379-3.642 3.347-5.684l.084-.21c3.894-10.987 7.641-22.186 11.619-33.089.926-2.273 4.82-3.41 7.641-5.115.105 1.41.148 3.032.148 4.693s-.063 3.284-.169 4.925l.021-.231c-2.295 15.261-9.62 28.837-4.652 45.762 5.494 18.608 21.155 25.47 34.521 35.237 1.747 1.305 7.641-.695 9.914-2.884 10.188-10.714 20.102-21.85 29.784-33.405 2.505-2.379 4.084-5.726 4.084-9.43a12.93 12.93 0 0 0-6.988-11.493l-.084-.042c-11.809-9.43-19.555-23.47-20.544-39.362v-.169c-.127-1.01-.19-2.21-.19-3.41 0-2.525.294-4.989.843-7.346l-.042.231c.905-2.105 2.126-3.873 3.6-5.43a52 52 0 0 1 2.61 3.957l.127.231c5.179 9.914 9.62 20.375 15.724 29.659 14.123 21.66 36.184 25.385 58.013 12.819 15.261-8.946 26.944-19.24 27.785-38.141 0-2.884 4.125-5.557 6.335-8.314 1.137 2.673 2.062 5.43 3.431 8.019 6.02 11.661 0 21.428-5.262 31.027-2.863 4.104-6.083 7.662-9.703 10.778l-.084.063c-6.104 6.63-16.713 13.198-16.944 20.081s10.84 12.798 17.029 19.219a64 64 0 0 0 5.347 5.367l.063.063c8.63 7.093 14.04 20.439 29.848 12.735s30.543-17.618 29.932-38.878v-7.641l1.052-1.874zm-70.158 58.959c-.716-2.21-1.663-4.125-2.884-5.872l.063.084c-9.851-8.925-19.534-18.145-30.101-26.249-2.673-2.041-6.062-3.263-9.746-3.263-4.714 0-8.967 2.02-11.913 5.241l-.021.021c-8.777 7.641-17.029 16.397-25.807 24.248-6.42 5.705-5.347 10.44.695 15.26 8.167 6.799 16.018 13.893 24.438 20.375s16.882 9.766 26.017-.758a268 268 0 0 1 22.839-19.934l.589-.442c2.21-2.527 4.167-5.367 5.684-8.462l.105-.232.042-.021z"/></svg>