<svg xmlns="http://www.w3.org/2000/svg" viewBox="0 0 300 300"><path d="M117.313 287.739c-38.114-34.673-38.855-35.658-41.809-46.478-1.472-5.654-2.213-11.064-1.472-11.804.487-.741 5.166 2.709 10.079 7.623 4.669 4.923 10.576 8.851 12.789 8.851 3.197 0 2.213-1.969-3.684-7.867-9.836-10.576-14.261-21.396-16.474-42.053-1.472-14.504-2.456-16.971-7.379-18.94-7.379-2.709-9.348-12.048-6.151-30.744 4.182-24.594 3.197-38.114-2.953-44.762-7.136-7.623-3.939-9.836 6.639-4.923 10.332 4.923 17.215 15.743 20.899 32.217 1.472 6.639 4.425 16.727 6.882 22.137 4.923 11.317 5.654 26.31 1.228 27.791-1.472.488-5.654-1.969-9.095-5.897-5.897-6.151-6.639-6.395-10.332-2.709-4.182 4.182-2.953 9.348 2.456 9.348 1.725 0 5.167 4.425 7.623 10.079 2.709 5.411 9.348 17.215 15.246 26.066s10.576 17.459 10.576 18.94c0 2.456 13.774 16.23 15.987 16.23.488 0 1.228-2.456 1.969-5.411.741-5.411.984-5.411 3.684 1.228 2.709 6.395 3.684 6.639 18.94 6.639 14.759 0 16.23-.487 18.94-6.151 3.441-7.623 6.882-7.867 6.882-.741 0 5.167.244 5.167 7.379-1.725 3.939-3.939 7.867-8.851 8.607-11.317.741-2.213 6.395-12.789 12.292-23.366 6.151-10.576 11.064-21.152 11.064-23.61s2.709-6.151 6.151-8.364c4.669-2.953 5.654-4.923 3.684-7.136-3.197-3.684-12.292-1.969-14.018 2.709-.741 1.969-3.441 3.441-6.151 3.441-4.425 0-25.082 14.504-23.366 16.474.487.487 5.654-.984 11.561-2.953 13.032-4.669 12.292-4.669 12.292 1.472 0 2.709-5.897 11.317-13.032 18.94-7.379 7.623-14.018 15.987-14.759 18.443-.984 2.213-3.939 4.182-6.639 4.182s-4.923 1.472-4.923 3.441c0 1.725-1.472 4.669-3.441 6.151-2.953 2.456-4.182 1.969-6.395-1.969-3.441-6.639-9.095-6.639-11.064-.244-2.213 6.882-7.867 6.151-9.592-1.228-1.228-4.425-3.197-6.151-7.623-6.151-3.684 0-6.151-1.472-6.151-3.441s-6.151-9.836-13.53-17.459c-18.94-19.924-21.396-30.247-5.411-23.61 4.425 1.969 12.048 3.939 17.215 4.425 8.851 1.228 9.095 1.228 9.095-7.136 0-6.395-2.213-10.576-9.836-17.955-11.317-10.82-12.545-19.184-5.411-33.202 5.897-12.048 11.064-11.064 13.276 2.456 1.472 7.867 4.425 13.276 11.064 20.168 5.167 4.923 10.576 9.095 12.048 9.348 3.197 0 14.018-11.561 17.955-18.94 1.472-2.953 2.709-8.851 2.709-13.032 0-9.095 6.639-12.789 11.317-6.395 1.725 2.456 3.939 10.332 4.923 17.702 1.472 12.789 1.228 13.276-7.623 21.64-7.623 7.136-8.851 9.836-8.12 17.215.984 11.804 5.167 11.317 5.411-.244.244-7.623 1.725-10.079 8.607-14.759 9.836-6.639 12.545-7.136 12.545-1.969 0 1.969 1.228 3.684 2.709 3.684 1.725 0 1.969-1.725.984-4.182-.741-2.456.741-11.561 3.441-20.412s6.395-21.152 7.867-27.791c3.197-12.789 15.743-26.31 24.35-26.31 6.151 0 6.151 2.953 0 8.607-5.654 5.167-6.639 23.122-2.213 46.478 2.953 16.727 1.228 27.547-4.923 29.263-4.669 1.228-7.623 11.064-7.623 26.066 0 14.018-4.182 25.082-12.789 33.942-6.151 6.395-6.882 8.12-3.441 8.12 4.182 0 16.23-11.064 16.23-15.002 0-1.228 1.725-2.213 3.684-2.213 4.923 0 4.669 2.213-1.228 17.955-4.425 11.561-7.623 15.49-23.61 27.547-10.079 7.867-19.427 16.23-20.899 18.687-4.182 8.12-8.364 5.411-8.364-5.654 0-13.032-4.923-14.759-14.261-5.411l-6.395 6.395-7.867-6.395c-4.182-3.441-8.607-6.395-9.592-6.395-4.182 0-7.379 9.348-5.897 16.971.984 4.182 1.228 7.623.741 7.623s-7.136-5.654-14.504-12.292zm27.05-92.223c1.725-1.969 4.923-3.684 7.379-3.684s4.923 1.725 5.897 3.684c1.472 3.939 8.851 5.167 8.851 1.472s-10.332-10.079-15.743-10.079c-4.923 0-13.774 6.639-13.774 10.332 0 3.197 3.939 2.213 7.379-1.725z"/><path d="M111.162 184.199c-5.411-4.669-8.607-9.836-8.607-13.53 0-7.136 3.197-7.379 12.545-.741 8.607 6.151 12.545 12.789 10.576 17.955-2.213 5.654-4.669 4.923-14.504-3.684zm32.217-31.964c-6.151-7.136-6.395-8.851-6.151-37.383 0-31.719 4.923-52.14 12.048-52.14s15.002 26.807 16.474 55.085c1.472 25.822 1.228 26.31-5.411 34.186-3.684 4.182-7.379 7.867-8.607 7.867s-4.923-3.441-8.364-7.623zm-44.022-8.861c-1.969-5.167-4.182-13.774-5.167-19.184-2.709-14.759-12.048-27.294-25.822-34.186-13.774-7.136-18.687-16.23-16.474-30.247.741-5.167 2.212-17.702 2.953-27.791 1.228-15.489.984-19.184-2.456-21.884C48.705 6.885 46.98.003 49.682.003c.984 0 4.669 1.725 8.607 3.684 10.079 5.167 18.94 17.702 22.38 31.972 1.472 6.882 3.939 15.489 5.411 19.184 3.197 8.851 21.152 21.152 34.186 23.365l10.332 1.725v19.671l-.244 19.427-6.882.244c-9.348 0-16.727 10.079-16.474 23.121.244 12.545-2.709 13.032-7.623.984zm96.65.253c0-5.411-2.213-13.276-5.167-17.955-4.182-7.136-5.897-7.867-12.292-6.639-6.882 1.228-7.136.984-7.136-8.12 0-5.167-.741-14.504-1.472-20.899l-1.725-11.317h8.607c16.23 0 38.855-19.427 38.855-33.689 0-16.474 13.032-36.642 27.05-42.55 10.079-4.181 11.561-1.969 4.669 7.136-5.654 7.623-5.654 9.836-.741 51.156 1.969 15.49-2.213 23.61-14.504 28.775-9.095 3.684-20.899 16.474-22.624 24.35-.488 2.953-2.213 11.804-3.684 19.427s-4.425 15.246-6.395 16.727c-2.953 2.709-3.441 1.472-3.441-6.395z"/></svg>