<svg xmlns="http://www.w3.org/2000/svg" width="300" height="300" viewBox="0 0 300 300"><title>factions-order-cities-of-sigmar-greywater-fastness</title><path d="M85.669 299.409c-.413-.413-.759-1.172-.759-1.688 0-1.181 2.063-7.369 4.059-12.15 4.022-9.656 4.397-17.588.928-19.866-.478-.319-2.756-1.097-5.053-1.734-7.172-1.987-10.247-3.75-9.684-5.559.403-1.284 2.55-4.416 4.706-6.825 4.453-5.006 8.147-10.697 15.056-23.231 8.409-15.253 10.266-19.397 10.266-22.941 0-3.394-.928-4.706-8.859-12.534-4.003-3.956-7.519-7.688-7.819-8.297s-.656-2.1-.787-3.319c-.347-3.047-2.813-10.247-4.903-14.287-1.106-2.147-2.437-4.059-3.666-5.278-2.222-2.203-2.859-3.881-2.85-7.519.009-3.384.947-5.887 3.122-8.259 2.109-2.306 3.028-4.209 3.872-7.997.853-3.806.881-10.472.066-11.934-1.416-2.531-1.463-2.822-1.041-6.422q.688-5.879 2.7-7.2c.497-.328 2.381-.938 4.181-1.359 7.912-1.856 9.638-2.728 13.209-6.666 2.494-2.747 4.547-6.816 5.906-11.681 1.463-5.241 2.222-6.347 5.344-7.725 2.081-.919 9.656-2.813 19.894-4.978 13.256-2.803 15.9-3.253 19.35-3.309 4.153-.056 5.109.375 8.944 4.097 4.434 4.303 8.841 6.216 15.206 6.609 2.606.159 4.313.056 6.637-.422 3.891-.797 5.569-.788 6.816.019 1.275.834 3.094 4.528 4.734 9.628 1.8 5.597 3.244 8.325 5.747 10.819 2.409 2.409 5.531 4.097 10.781 5.831 3.891 1.284 6.441 3.103 7.303 5.194.778 1.866.291 5.616-.975 7.472-1.369 2.025-1.622 3.487-1.191 7.078.806 6.806 3.037 12.384 5.681 14.203 2.334 1.603 3.253 3.562 3.019 6.422-.262 3.028-1.266 5.156-4.425 9.356-5.887 7.828-7.303 12.197-8.222 25.303-.553 7.912-3.113 10.903-9.956 11.616-1.744.178-3.769.638-4.519 1.013-1.838.938-3.113 3.384-2.888 5.55.216 2.044 2.944 7.641 7.134 14.625 1.828 3.037 5.691 9.591 8.597 14.559s6.891 11.597 8.859 14.738c1.969 3.141 4.05 6.572 4.631 7.622l1.059 1.903-.853.909c-1.181 1.256-5.213 3.047-8.925 3.966-3.656.9-4.669 1.472-5.316 3.009-.872 2.081.169 5.063 6.891 19.631 2.906 6.3 4.331 9.844 4.331 10.781 0 1.181-1.256 2.034-2.559 1.753-2.269-.497-10.725-6.637-18.45-13.406-9.6-8.4-23.156-23.447-27.028-30-1.387-2.344-1.734-4.284-.891-4.988.581-.488 5.156-1.631 10.547-2.644 2.297-.431 4.837-1.05 5.625-1.359 2.709-1.087 3.497-3.141 2.4-6.253s-10.378-18.009-13.35-21.422c-2.428-2.803-3.3-3.15-7.894-3.178-3.628-.019-4.022.047-6.319 1.172-1.35.656-3.094 1.875-3.872 2.709-2.859 3.066-3.628 3.713-5.447 4.669-1.528.797-2.353.975-4.631.975-3.684 0-6.15-1.191-10.097-4.884-5.063-4.734-8.569-5.578-13.266-3.206-4.022 2.034-9.722 9.131-15.094 18.806-3.056 5.494-3.816 8.259-2.803 10.153.619 1.162 2.981 2.119 7.228 2.934 8.334 1.594 11.925 2.738 11.925 3.797 0 1.472-4.528 7.2-18.563 23.456-12.534 14.531-19.763 21.881-22.237 22.641-.563.169-1.041.019-1.566-.506zm75.019-97.34c1.575-.216 3.891-.787 5.156-1.266 2.409-.909 14.409-8.184 18.619-11.287 4.509-3.328 8.841-8.522 11.456-13.772 1.538-3.066 6.141-17.541 6.572-20.672.806-5.813-.591-12.272-5.016-23.194-3.581-8.831-4.406-10.453-7.162-14.109-4.238-5.625-6.103-7.013-16.041-11.878-12.422-6.094-12.328-6.066-23.222-6.066-10.153 0-10.659.103-19.987 3.731-7.866 3.066-13.434 6.675-18.047 11.719-2.025 2.213-8.044 11.766-9.656 15.319-1.575 3.478-3.45 9.103-3.928 11.775-.572 3.225-.656 11.494-.15 15.497.75 5.925 2.222 11.503 4.05 15.309 1.566 3.272 2.447 4.453 7.547 10.237 3.178 3.6 6.797 7.369 8.044 8.381s2.944 2.4 3.759 3.084c3.45 2.878 12.703 6.572 18.009 7.191 3.909.459 16.716.459 19.988 0zm-19.022-13.585c-6.159-.619-9.591-2.409-15.244-7.969-1.566-1.538-3.544-5.344-3.553-6.816 0-1.359.919-2.456 2.484-2.953 2.4-.769 5.625-2.644 6.403-3.731 1.406-1.969 2.85-1.453 7.078 2.513 6.966 6.534 16.566 8.662 21.197 4.706 1.753-1.5 2.269-2.953 2.269-6.412 0-3.216-1.097-5.513-3.806-7.988-4.481-4.088-10.041-6.478-15.169-6.516-2.662-.019-3.159.094-5.156 1.191-2.063 1.134-2.4 1.2-4.978 1.059-3.216-.178-5.203-1.05-6.947-3.037-5.494-6.253-5.428-17.494.15-25.688 3.703-5.438 8.944-9.291 14.719-10.809 2.953-.778 9.563-.797 12.825-.028 4.172.975 20.934 6.122 22.434 6.881 1.959 1.003 2.597 2.081 2.156 3.638-.834 2.916-5.634 9.844-8.531 12.328-1.781 1.528-3.328 1.866-5.503 1.209-1.875-.563-7.903-4.228-12.037-7.322-3.206-2.4-4.584-2.775-7.725-2.128-4.294.891-6.384 2.625-7.275 6.056-.581 2.222-.741 5.606-.347 7.097.309 1.162 1.753 1.481 7.884 1.753 5.681.253 11.419 1.219 14.738 2.484 14.447 5.512 20.691 16.434 16.228 28.378-1.753 4.678-4.003 6.769-10.069 9.366-5.034 2.156-8.109 2.747-15.188 2.897-3.45.075-7.509.009-9.028-.141zM23.916 161.55c-8.813-.506-18.609-1.791-18.609-2.428 0-.469 4.791-2.203 15.544-5.616 6.394-2.025 12.506-4.134 13.584-4.688 2.325-1.172 5.334-4.191 6.694-6.684.534-.975 3.038-8.906 5.578-17.625 5.869-20.147 7.069-23.128 14.137-35.1 4.959-8.381 5.625-9.825 5.625-12.066 0-2.513-.197-2.869-9.909-17.85-8.288-12.787-10.725-16.837-10.725-17.803 0-.309.244-.769.544-1.012.806-.666 3.572.975 17.428 10.341C78.601 61.031 80.166 61.96 82.923 62.466c1.847.337 2.634.281 5.372-.375 3.253-.778 42.722-14.513 46.266-16.097 3.787-1.697 5.916-4.041 7.491-8.241.422-1.134 2.081-8.531 3.675-16.434 2.653-13.134 3.919-18.15 5.156-20.475l.45-.844.478.919c.581 1.116 1.416 4.359 5.494 21.506 1.866 7.847 3.544 14.053 4.097 15.206 1.069 2.194 4.172 5.766 5.7 6.553.563.291 2.588.862 4.509 1.284 5.578 1.209 12.066 3.581 26.25 9.581 12.834 5.428 19.631 8.109 20.578 8.109 1.444 0 17.363-10.294 23.091-14.944 4.059-3.291 5.447-4.05 6.75-3.722 2.034.506 1.463 2.269-2.991 9.234-3.591 5.616-11.653 18.947-12.647 20.916-2.241 4.444-2.119 6.816.694 13.275 7.819 17.944 23.203 51.984 24.047 53.203 3.159 4.594 6.825 6.188 23.747 10.303 12.891 3.131 14.1 3.488 13.359 3.9-.319.178-3.375.647-6.787 1.05s-12.309 1.481-19.772 2.4c-18.741 2.306-21.094 2.241-23.213-.628-1.341-1.809-1.8-3.253-5.963-18.319-4.613-16.725-5.447-19.078-10.162-28.575-4.078-8.222-6.769-12.684-12.244-20.269-4.931-6.834-6.384-8.494-10.931-12.431-6.713-5.813-12.3-8.944-22.191-12.403-9.469-3.319-15.787-4.341-29.691-4.819-15.197-.525-20.175.112-32.916 4.209-8.953 2.878-13.059 4.481-17.981 7.041-8.231 4.256-13.388 8.944-21.281 19.331-2.831 3.722-6.103 8.016-7.275 9.553-2.475 3.234-6.713 11.606-8.344 16.481-1.331 3.975-3.881 14.034-4.425 17.447-.206 1.322-.872 6.047-1.472 10.5s-1.35 8.813-1.65 9.684c-.816 2.316-2.316 4.069-4.425 5.175l-1.875.984-11.606.047c-6.384.028-13.762-.084-16.397-.234zm237.862-52.425c-2.784-1.847-3.909-7.191-2.222-10.5 1.022-2.006 2.166-2.484 5.906-2.484 4.069 0 4.941.263 6.178 1.884.881 1.153 1.031 1.734 1.162 4.547.272 5.719-1.209 7.378-6.6 7.388-2.672 0-3.366-.131-4.425-.825zm-237.084-6.553c-.75-.666-1.688-1.837-2.081-2.606-1.378-2.709-.703-7.256 1.462-9.891.966-1.163 1.247-1.284 3.394-1.406 1.903-.113 2.653.028 4.003.713 2.372 1.219 2.597 1.894 2.484 7.491l-.094 4.791-1.819.9c-1.05.516-2.709.966-3.9 1.05-1.922.141-2.184.056-3.45-1.05zm175.519-61.819c-3.638-1.716-5.062-6.956-2.869-10.594.75-1.247 4.772-3.497 6.244-3.497 1.125 0 4.903 2.887 5.934 4.528 1.069 1.706.872 5.841-.375 7.584-1.716 2.4-6.009 3.356-8.934 1.969zm-100.191-3.272c-2.522-.834-3.319-2.259-3.319-5.981 0-4.997 1.8-7.116 6.225-7.331 2.841-.131 4.8.75 6.178 2.784.947 1.397 1.491 5.297.938 6.703-.497 1.256-2.184 2.794-3.834 3.478-1.284.534-4.959.731-6.188.328z"/></svg>