<?xml version="1.0" encoding="UTF-8" standalone="no"?>
<!DOCTYPE svg PUBLIC "-//W3C//DTD SVG 1.1//EN" "http://www.w3.org/Graphics/SVG/1.1/DTD/svg11.dtd">
<svg width="100%" height="100%" viewBox="0 0 300 300" version="1.1" xmlns="http://www.w3.org/2000/svg" xmlns:xlink="http://www.w3.org/1999/xlink" xml:space="preserve" xmlns:serif="http://www.serif.com/" style="fill-rule:evenodd;clip-rule:evenodd;stroke-linejoin:round;stroke-miterlimit:2;">
    <path d="M274.913,4.657C263.481,13.703 247.879,31.03 243.107,39.973C235.978,53.334 232.968,52.716 220.802,35.406C213.427,24.915 205.411,16.59 198.382,12.134C188.978,6.17 188.897,7.559 198.006,18.705C219.26,44.711 222.859,80.553 205.995,98.285C202.479,101.983 200.929,102.068 193.877,98.951C175.201,90.692 148.286,90.586 128.728,98.701C106.897,107.76 101.396,100.98 101.437,65.088C101.465,42.07 102.678,36.877 111.346,22.685C118.34,11.233 118.183,11.628 114.852,13.807C110.727,16.509 98.684,30.764 90.803,42.274C78.878,59.683 72.999,58.952 62.25,38.713C53.774,22.751 37.173,10.529 23.851,10.44C17.492,10.397 16.591,12.389 22.51,13.398C36.78,15.836 51.189,32.19 47.699,41.982C45.885,47.073 43.94,47.274 33.938,43.416C20.035,38.056 20.8,42.442 34.922,49.088C65.888,63.658 85.835,89.15 71.683,96.071C65.671,99.011 50.861,95.316 46.212,89.715C44.413,87.548 40.565,87.403 40.565,89.503C40.565,94.033 57.555,104.511 72.267,109.05C81.089,111.773 85.495,114.253 90.165,119.135L93.452,122.571L89.328,126.794C84.425,131.814 84.265,132.597 88.141,132.597C97.27,132.597 107.213,148.27 103.037,156.077C102.409,157.249 101.423,163.19 100.842,169.278C100.261,175.366 98.942,182.121 97.91,184.286L96.034,188.22L102.693,198.63C108.79,208.163 109.936,209.334 116.284,212.527C125.435,217.129 127.335,219 129.192,225.262C130.049,228.151 131.583,232.123 132.601,234.09C133.619,236.057 134.693,241.267 134.987,245.67C136.142,262.902 136.005,262.522 143.461,268.754C152.017,275.902 151.608,276.622 153.227,251.445C154.886,225.677 155.531,221.449 157.881,220.996C160.546,220.48 161.06,225.842 161.076,254.182L161.088,279.239L165.597,274.836C174.418,266.222 178.556,258.25 181.022,245.114C184.191,228.245 190.706,218.402 203.001,211.902C209.774,208.322 210.885,206.099 213.521,190.886L215.593,178.914L212.789,174.802C204.906,163.238 208.989,143.03 221.36,132.374C225.703,128.633 226.57,127.322 225.736,125.765C222.25,119.249 226.833,110.924 234.586,109.694C253.12,106.756 265.71,99.772 272.072,88.904L274.253,85.182L270.959,87.28C269.147,88.434 266.659,90.257 265.432,91.334C254.228,101.144 235.861,98.088 235.861,86.414C235.861,75.155 255.557,51.143 264.788,51.143C265.402,51.143 268.762,50.075 272.252,48.771C279.24,46.155 278.861,45.216 270.339,43.985C263.215,42.958 260.41,40.072 260.41,33.766C260.41,25.705 264.294,19.336 279.243,2.878C283.15,-1.424 282.025,-0.956 274.919,4.67L274.917,4.664L274.916,4.66L274.913,4.657ZM194.484,182.405C199.208,188.411 195.045,193.735 183.751,196.13C167.168,199.648 166.323,189.75 182.539,181.889C188.953,178.779 191.727,178.898 194.484,182.406L194.484,182.405ZM135.124,185.218C144.358,190.893 146.697,200.391 138.538,199.085C128.603,197.497 119.796,192.165 119.796,187.739C119.796,181.419 127.012,180.231 135.124,185.217L135.124,185.218ZM194.808,229.113C187.226,237.726 185.851,248.672 188.943,275.699C190.265,287.241 190.225,287.869 187.847,292.774C184.678,299.32 185.515,300.029 190.435,294.965C200.649,284.449 207.33,264.854 207.369,245.303C207.409,224.642 203.347,219.408 194.809,229.112L194.808,229.113ZM107.795,233.865C99.742,251.068 105.118,283.057 118.389,296.911C121.762,300.43 125.019,301.13 123.619,298.032C121.777,293.963 121.752,274.625 123.578,269.059C126.906,258.913 128.032,238.447 125.849,227.727C125.387,225.456 124.692,225.216 118.59,225.216L111.844,225.216L107.795,233.865Z" style="fill-rule:nonzero;"/>
</svg>
