<svg xmlns="http://www.w3.org/2000/svg" width="300" height="300" viewBox="0 0 512 512"><path d="M238.5 68.4c-8 8.7-24.5 24-36.5 34.1a374 374 0 0 0-66.7 68.2 396 396 0 0 1-64.4 67 386 386 0 0 0-21.8 20c-.2 1.8 33 37.1 37.7 39.9 2.6 1.6 29.3 27.5 59.3 57.6l54.5 54.6-10.6-16c-5.8-8.8-15.3-24-21.2-33.7a1721 1721 0 0 0-53.6-81.6l-13.7-20 12.4-12.8c6.9-7 18-17 24.6-22S159 206 169 195.9c16.4-16.7 56.5-49.6 60.5-49.6 2.4 0 3.8 30.5 4 85.2 0 53.6 1.5 77.5 6.7 111.3 1.9 12 6 42.1 9 67s6 46.6 6.6 48.3c.6 1.8 3.7-17 6.8-41.7s7.1-55.2 9-67.8c5.5-35.7 6.9-57.5 7.7-124.9.4-34.4 1.2-66.3 2-70.8l1.2-8.1 21 15.9c11.5 8.7 31.7 26 44.9 38.5s32.5 30.6 43 40.2c10.5 9.5 19.2 18 19.2 18.7.1 1.8-19.9 31.8-25.8 38.7-2.5 2.9-12.7 18.4-22.8 34.4S337 371 328.4 384s-15 23.9-14.5 24.3 23.9-22.6 52.2-51c28.3-28.6 61.6-62 74.1-74.2s22.7-23.4 22.7-24.5-12.8-13.6-28.4-27.5a420 420 0 0 1-57.5-61.2c-27-33.1-31.3-37.7-59.8-61.7a616 616 0 0 1-44.4-40.9C256 49.1 256.7 49 238.5 68.4"/></svg>