<svg xmlns="http://www.w3.org/2000/svg" viewBox="0 0 300 300"><path d="M123.984 293.616c-5.006-3.647-12.525-10.247-16.847-14.803-4.322-4.781-8.653-8.428-9.563-8.428-2.963 0-2.053 6.375 1.594 14.344 3.188 6.375 2.053 5.691-7.284-4.556-6.375-6.834-17.756-24.366-26.869-41.447-15.253-28.463-21.628-35.747-21.628-24.816 0 10.472-5.006-.225-9.563-20.034-3.647-16.847-4.322-25.734-3.413-52.369l.909-31.875 10.247-21.628c12.975-26.869 25.734-43.716 39.844-52.603 35.297-22.547 51.234-29.372 79.472-33.703 17.081-2.503 19.359-2.503 28.922 1.819 5.691 2.503 11.381 6.834 12.75 9.338 3.188 5.916 3.188 5.916-9.787 0-12.066-5.241-20.034-3.872-28.463 4.556-2.728 2.728-7.519 4.781-10.706 4.781-6.834 0-17.081 10.022-24.366 23.681-5.691 10.931-6.834 41.672-1.819 47.822 5.006 5.916 8.428 4.322 11.156-5.006 4.556-14.569 17.766-29.372 33.703-37.116 13.209-6.6 15.712-7.059 32.109-6.15 26.869 1.369 38.934 7.519 51.009 26.184 13.434 20.719 16.397 33.244 13.659 58.744-1.369 11.381-2.278 24.141-2.053 28.688s-1.369 10.931-3.412 14.119c-3.188 5.006-5.006 5.691-11.381 4.556-6.15-.909-8.878 0-12.3 3.647-5.916 6.15-10.247 21.178-8.653 28.237 1.819 7.284-2.503 23.222-9.338 34.613l-5.466 9.113 1.369-15.253c1.594-16.162 1.134-17.081-6.15-13.209-3.872 2.278-4.322 1.594-4.322-4.556 0-7.969-3.188-8.878-7.059-1.819l-2.503 4.781-3.872-5.006c-5.241-6.834-7.059-4.097-7.059 10.472 0 6.6-.909 12.066-2.053 12.066-3.647 0-7.519-22.087-5.916-33.469 1.369-9.788.684-12.066-5.466-20.719-6.834-9.113-14.119-12.3-17.306-7.284-2.503 4.097-5.466 2.503-11.616-6.6-5.006-7.744-5.466-9.787-3.187-14.119 3.412-5.916 3.412-22.312.225-25.5-4.322-4.322-14.569-2.278-19.809 3.872-10.247 11.841-9.112 41.897 2.728 74.006 2.963 7.969 5.006 15.028 4.556 15.488s-4.781-6.15-9.338-14.569c-13.894-25.275-19.359-28.922-19.359-12.75 0 12.75 6.6 34.613 15.253 51.459 4.556 8.428 7.519 16.162 6.6 16.847-.684.909-5.006-2.053-9.563-6.375l-8.194-7.744 3.647 8.878c2.053 5.006 7.519 13.434 12.3 19.125 10.472 12.3 15.028 18.675 13.659 18.675-.684 0-5.241-2.962-10.022-6.375zm84.028-130.932c-1.594-10.472-5.006-10.022-8.878 1.134-2.728 7.969-2.503 8.428 2.053 9.113 7.284 1.369 8.428-.684 6.834-10.247zm33.01-13.434c3.188-3.188 3.647-12.3.909-14.119-1.134-.684-6.15 0-11.381 1.369-6.834 1.594-9.563 3.647-9.563 6.6 0 7.519 14.344 11.841 20.034 6.15zm-54.647-2.278c7.059-7.059-2.053-15.487-16.847-15.487-5.916 0-7.284 5.925-3.188 13.894 2.728 5.006 15.488 6.15 20.034 1.594z"/></svg>