<?xml version="1.0" encoding="UTF-8" standalone="no"?>
<!DOCTYPE svg PUBLIC "-//W3C//DTD SVG 1.1//EN" "http://www.w3.org/Graphics/SVG/1.1/DTD/svg11.dtd">
<svg width="100%" height="100%" viewBox="0 0 300 300" version="1.1" xmlns="http://www.w3.org/2000/svg" xmlns:xlink="http://www.w3.org/1999/xlink" xml:space="preserve" xmlns:serif="http://www.serif.com/" style="fill-rule:evenodd;clip-rule:evenodd;stroke-linejoin:round;stroke-miterlimit:2;">
    <path d="M57.878,199.74C59.599,173.002 61.981,146.407 79.192,123.749C81.172,121.085 80.466,116.392 81.078,112.643C78.248,111.959 75.042,111.581 71.718,111.581C70.963,111.581 70.233,111.604 69.502,111.651L69.619,111.651C64.408,112.641 59.764,114.386 55.544,116.814L55.78,116.697C52.527,118.771 48.589,119.975 44.368,119.975C39.838,119.985 35.42,118.556 31.754,115.896L31.824,115.943C25.929,112.171 19.941,108.681 14.047,105.097C19.21,103.895 25.766,102.786 32.438,102.008L33.31,101.913L33.734,101.913C49.248,101.913 62.334,91.397 66.201,77.109L66.248,76.873C67.474,73.313 68.205,69.21 68.205,64.967C68.205,52.188 61.792,40.941 51.983,34.222L51.841,34.127L50.379,32.5C29.937,19.061 27.013,19.155 7.608,33.514C5.466,34.708 3.185,35.634 0.817,36.273L0.605,36.32C0.605,32.995 -0.763,28.964 0.605,26.511C13.077,4.96 46.629,-1.783 69.052,9.417C83.67,15.382 94.87,27.101 99.986,41.695L100.103,42.072C102.13,47.92 103.309,54.639 103.309,61.642C103.309,69.54 101.824,77.085 99.113,84.018L99.255,83.594C98.407,85.74 99.939,88.899 100.364,91.54C102.962,90.822 105.445,89.743 107.743,88.334L107.626,88.404C124.508,73.456 145.328,62.516 168.292,57.281L169.235,57.092C203.47,51.197 238.271,50.419 270.88,66.57C273.356,67.844 274.559,71.521 276.35,74.091C273.12,74.939 268.993,77.511 266.872,76.307C243.506,63.834 221.107,69.493 197.152,75.812C176.875,81.376 159.121,89.346 142.969,99.626L143.771,99.154C140.695,100.846 138.024,103.187 135.943,106.015L135.896,106.085C134.081,108.82 132.312,113.536 133.491,115.563C134.67,117.59 139.975,122.377 143.087,122.047C149.713,121.104 155.678,119.029 161.053,116.011L160.794,116.153C173.431,108.679 188.687,104.269 204.956,104.269C221.225,104.269 236.456,108.679 249.518,116.365L249.117,116.129C272.059,127.494 289.176,147.747 296.037,172.244L296.202,172.857C311.268,231.92 280.193,282.093 225.775,293.293C167.843,305.247 127.455,275.516 110.856,221.663C108.593,214.943 107.296,207.187 107.296,199.145C107.286,188.019 109.836,177.039 114.747,167.056L114.582,167.48C117.387,162.976 119.393,157.648 120.264,151.989L120.287,151.777C120.003,147.085 117.812,142.959 114.416,140.177L114.393,140.154C112.672,138.786 106.777,141.286 103.877,143.479C101.543,146.002 99.751,148.996 98.714,152.368L98.667,152.533C82.917,188.254 75.396,224.658 87.372,263.656C89.399,271.461 91.192,281.057 92.347,290.841L92.442,291.855C85.085,284.475 78.555,276.223 73.108,267.31L72.778,266.744C63.441,248.424 58.018,226.78 58.018,203.861C58.018,202.399 58.041,200.961 58.088,199.523L58.088,199.735L57.876,199.735L57.878,199.74ZM271.778,199.74C272.887,163.478 236.434,133.25 203.308,132.967C172.516,132.967 136.653,169.63 136.488,200.471C136.323,231.312 173.624,270.05 204.935,268.352C238.557,266.631 273.641,236.545 271.66,199.858L271.778,199.74Z" style="fill-rule:nonzero;"/>
    <path d="M260.648,201.343L260.648,201.979C260.648,232.372 235.986,257.034 205.546,257.034C204.863,257.034 204.155,257.011 203.472,256.987L203.567,256.987C176.948,257.411 148.89,232.372 148.465,198.703C148.465,172.461 176.358,142.541 205.877,143.743C235.396,144.945 263.642,171.023 260.648,201.344L260.648,201.343Z" style="fill-rule:nonzero;"/>
</svg>
