<svg xmlns="http://www.w3.org/2000/svg" width="300" height="300" viewBox="0 0 512 512"><path d="M87.5 1.6c-9.8 2-13.1 4.8-20.2 17.6a125 125 0 0 1-12 17.8c-7.5 8.5-8.9 11.6-8.9 20.5 0 9.1-5.4 17.3-26 38.8-16.1 17-17 23.1-6.3 44.3 6.8 13.3 9.5 15.2 9.4 6.5q-.2-14.4 9.3-14.8c7.8-.2 7.7-.1 5.2-6.4a41 41 0 0 1-1.9-16.3l.5-10.5 5-.4c4.3-.4 5.4-1.6 9.4-9.5 5.4-10.6 5.9-10.7 17.8-3 12.7 8.2 13.1 9.3 7.8 21.8-6.3 14.7-12 22.5-18.9 26l-6.6 3.4c-.4.2 1.2 2.3 3.4 4.6 5.3 5.6 5.2 5.8-3 14.2-7.7 7.7-6.7 11 2.2 7.5a39 39 0 0 1 8.6-2c4.2-.4 5-1.5 9.1-11.8 8.7-21.5 15-30.3 22-30.3 7.7 0 12-2.7 14.4-8.7 1.2-3.1 3.3-7.7 4.7-10.2l6.2-11.8c16.8-32 50.7 2.9 63.2 64.8 6.8 33.2-.6 70.6-19.3 98.8-10 15-47.7 52.8-78.3 78.3-47.4 39.6-56.5 53.1-60.8 89.9-7.2 60.6 59.2 107.5 121.8 86 13.6-4.7 18-5 21-1.6 10.4 12.7 57.9 4.6 71-12 5.5-7-7-7.5-28.9-1.2-10.7 3.2-28.5 4-31 1.3-.6-.5 1.4-4 4.3-7.8 20.5-26.8 14.9-73-10.3-84.4-36-16.3-63.9 34.6-39.2 71.3 5.4 8 2.3 9.7-15.5 8.5-41-2.7-69.1-25.8-64.5-53.1 3-18.2 4.5-19.2 21.2-14.1 7.3 2.2 7.3.9.4-8.3-7.8-10.3-7.7-11.6.9-19.1 8.2-7.3 10.9-7.5 23.1-2.2 11.4 4.9 12 4.4 8.4-7.2l-2.8-9.2 6-5.1c8.5-7.4 9.9-7.5 19.8-1.5 10.2 6.2 11.3 5.3 7.3-6.7-3-9.2-2-11.7 9.5-21.8 9.5-8.3 7.7-8 18.7-3 11.2 5 11.8 4.3 7.6-7.7-6.6-18.5 7.8-35.8 24.7-29.5 12.2 4.5 13.5 3.6 9.9-7.1-4.2-12.2-3.9-18.6 1.3-25.7 8.1-11 9.5-11.8 21.4-10.6 13.2 1.3 13.2-.8-.3-14.5-13.7-14-6.6-30 13.2-30 16 0 13.3-5.8-7.3-16-10.4-5-11.2-6.6-11.5-21.3-.2-12 2.5-15.4 17.4-22.7 13.5-6.7 13.5-6.6-8.5-14-19.9-6.6-19.4-6-24-26.4l-2.9-13.2 4.3-6.4A91 91 0 0 1 220.5 72a31 31 0 0 0 6.1-7.2c0-2.4-13-1.2-21.1 1.9-9.4 3.6-11.5 3-20.3-4.7-8.3-7.2-7.5-17.4 2.5-33.7 5.2-8.5 4.9-9.3-3.5-7.9-4.8.8-8.8 3.3-17.1 11-21 18.8-28.6 17.6-35.4-6-4.5-15.6-5.1-16.2-11.7-11.7-6.1 4.2-6.9 6.4-7 19.2 0 19.6-18.5 21.7-25.6 3-4-10.9-2.2-19.3 6-27 10.3-9.6 9.7-10.4-6-7.3M417 7.2c9 8.1 11 14.3 8 25.7-6.2 22.7-24.8 21.4-26.7-1.9-1-11.8-1.5-13.2-5.6-16.7-7.3-6.2-8.8-4.9-12.7 11.4-5.7 23.5-14.7 24.5-36.5 4.4-7.6-7-10.7-9-16.3-9.8-9-1.3-9-1.3-3 8.4 11 17.9 10.7 27.5-1.2 36l-7 5.3-9.8-3.3c-5.7-1.9-12.5-3-16.2-2.7l-6.4.4L293.8 75c12.4 13 12.8 14.5 8.6 32-4.3 17.9-3.8 17.4-24.7 24.2-20.8 6.7-20.7 6.6-8.1 12.6 16.2 7.8 19.5 12.3 18.6 25-1 14.5-1.5 15-11.8 19.7-9 4-19.5 12-19.5 14.6 0 .8 5.4 1.4 12 1.4 12.8 0 15.6 1.3 18.4 8.6 3.2 8.5 1.7 13.5-7 23.4-11 12.7-10.9 14 1.6 12.6 20-2.2 30.6 14 23.2 35.2-4.2 11.8-3.4 12.5 8.5 8.2 11.3-4 12.9-3.6 21 6 6.8 8 8.2 14.5 5 23-4.8 12.6-3.8 13.3 10.1 7 7.4-3.2 9.3-2.5 19.6 7.4 8 7.8 8.7 10.8 4.9 21.6-3.2 9-1.2 9.8 8.9 3.5 9.7-6.1 10.5-6 20.4 2.4l5.1 4.3-2.4 7.2c-4.7 13.7-4.2 14.2 8.1 9 12-5 14.3-4.9 23 2.4 8.9 7.5 9 8.7 1.3 18.4-7.2 9-7.6 11-2 9.4 8-2.1 17.9-3.4 18.8-2.4 4.3 4.6 5.6 29.7 1.9 37.5-5.6 11.8-32.8 28.2-51.3 30.8-26.3 3.7-32.3 1.4-25.3-9.5 22-34.7-1.8-80.5-36.8-70.7-28.5 8-35.8 62.8-11.7 88.2 7.6 8-9.3 9.9-31.4 3.5-21.7-6.2-31.8-5.2-25.7 2.6 12.7 16.1 63.7 23.3 71.8 10.2 1.5-2.4 6.7-1.8 19.5 2.3 58.8 18.7 120-17.5 121.9-72.2 1.4-40.2-9.8-60.7-52.4-96.1-99.6-83-121.7-126-102.5-199.8 9-34.3 25.4-57 44.8-61.7 6.3-1.5 10.4 3 20 22.3 9.4 18.6 11.3 20.6 19.6 20.6 6.3 0 15.7 11.6 20.7 25.4 5 14 6.5 16.2 11.5 16.7a37 37 0 0 1 8.6 2c8.3 3.3 9.2.3 2-6.4-8-7.2-8.5-10.4-3-15.5l4-3.7-7.3-3.7q-11.3-5.7-21.3-31.1c-3-7.8-.8-11.1 12.4-18.7 10.1-5.8 10.6-5.7 15.4 4.3 3.3 6.7 5.1 8.9 8 9.3 8 1 10.5 14 5.3 26.5-3.4 8.2-3 9 3.8 7.8q10.6-1.6 10.6 15c0 8 2.4 6.6 8.2-4.8 12-24.1 11.5-29-5.7-47.1-22-23.1-24.2-26.6-25.3-38.3-.9-9.4-1.6-11-7.7-18.3a135 135 0 0 1-12.4-18C437.9 7 434 3.8 423.9 1.7c-15.1-3-15.8-2.5-6.8 5.5M60.3 49.1c2.5 5.5-.2 15-4.5 15.7-3 .4-3.3-.2-3.3-5.6C52.5 48 57 42 60.3 49.1m399.1 8.3c.7 7 .5 7.7-2.4 7.7-4 0-6.3-4.2-6.3-11 0-12.3 7.5-9.5 8.7 3.3M18.9 113.8a6 6 0 0 1-.4 8.7c-2.7 2.3-6-3-4.6-7.5q1.3-5 5-1.2m478.8 6.2c-1.7 4.7-4.4 4.9-5.5.4-1.4-5.4 2.1-9.8 4.8-6.1a6 6 0 0 1 .7 5.7M166.2 423.5c15.1 9 9.4 45.3-7.9 49.6-5.3 1.3-12-4.5-17.1-14.7-11.2-22.5 5.8-46.3 25-35m201 1.9c15.6 15.6 1.2 54.8-17.1 46.1-12-5.6-18-30.8-10.3-42.7 5.8-9 20-10.7 27.3-3.4"/></svg>