<svg xmlns="http://www.w3.org/2000/svg" width="300" height="300" viewBox="0 0 300 300"><title>factions-chaos-claws-of-karanak</title><path d="M193.772 287.287c-11.522-12.675-12.216-13.828-8.522-17.747 2.072-2.072 3.684-6.45 3.684-9.675-.234-7.837-8.063-24.197-14.747-30.412-5.531-5.297-5.756-5.531-2.306-15.666 5.991-17.053-.234-48.853-11.756-59.681-16.359-15.206-30.647 13.369-21.891 43.088 2.072 6.45 2.072 10.603.459 13.594-3.919 7.378-8.297 41.016-6.225 48.394 2.531 8.756 2.306 9.675-5.531 23.962l-6.684 11.981-16.594-32.719 4.837-9.675c3.919-7.838 4.612-12.441 3.919-28.116-.459-11.522-2.306-21.891-4.838-26.963-4.144-8.297-4.144-8.756.459-16.134 6.909-11.288 6.45-26.034-.919-33.188-7.603-7.603-17.972-7.603-25.809.234-5.072 5.297-5.756 7.144-4.378 16.819l1.378 10.828-19.125 6.225c-20.738 6.684-25.809 7.603-23.503 3.919.919-1.378 2.766-10.369 4.144-20.278 2.766-17.053 3-17.747 11.062-21.656 6.225-2.766 10.144-7.144 14.522-16.134 6.684-13.369 7.378-19.819 3.225-31.341-2.531-6.684-2.306-8.063 1.153-9.909 7.378-4.378 11.522-15.666 9.909-28.341-.694-6.45-2.072-13.828-2.766-16.594-.919-3.919.234-5.531 5.991-7.837 3.919-1.613 13.134-9.675 20.737-18.206L117.251.853l6.45 6.225c7.603 7.144 16.594 11.063 26.269 11.063 8.297 0 28.575-9.909 30.413-14.981 2.306-5.991 5.072-4.144 16.134 11.522 6.684 9.216 14.053 16.594 18.9 18.9 8.756 4.144 9.216 6.45 5.756 19.584-3.225 11.522.694 26.728 8.522 33.412 5.531 4.378 5.991 5.756 3.459 11.063-3.684 8.063-3.459 15.666.919 26.034 4.613 11.288 14.288 21.197 20.972 21.197 4.838 0 5.297.919 5.297 11.522 0 6.225 1.153 16.134 2.766 21.891 1.613 5.531 2.072 10.828 1.378 11.522-.694.919-4.838-.234-8.991-2.306-4.144-2.306-11.756-5.297-16.819-6.684-9.45-2.766-9.45-2.766-10.134-14.522-.694-10.134-1.847-12.9-7.603-17.972-8.063-6.684-11.288-7.144-20.278-2.306-10.134 5.072-12.441 14.747-8.297 32.953 2.072 8.297 5.531 18.431 8.062 22.35 3.459 5.531 4.613 11.522 4.613 22.809 0 19.819 3.919 35.259 9.909 39.403l4.837 3.459-5.072 16.134c-3 8.756-5.991 16.359-6.909 16.819s-7.144-5.072-14.053-12.675zm11.053-14.971c-3.459-4.144-7.837-.234-5.756 5.072 1.153 3.225 2.072 3.459 4.838 1.153s3-3.684.919-6.225zm-82.725-6.685c0-3.225-4.838-4.378-7.603-1.613-2.072 2.072 3 7.837 5.531 6.225 1.153-.694 2.072-2.766 2.072-4.612m72.356-46.781c1.613-2.531-.694-9.45-3.225-9.45s-4.838 6.909-3.225 9.45c.694 1.153 2.072 2.072 3.225 2.072s2.531-.919 3.225-2.072m-70.05-23.278c0-2.531-1.378-4.613-3.225-4.613-4.144 0-6.684 3.684-4.838 6.909 2.531 4.144 8.063 2.531 8.063-2.306zm-64.519-32.259c0-3-1.612-4.613-4.612-4.613s-4.612 1.612-4.612 4.613c0 3 1.612 4.612 4.612 4.612s4.612-1.612 4.612-4.612m190.8.693c-1.153-5.991-8.756-6.684-8.756-.919 0 3.459 1.378 4.837 4.837 4.837 3.225 0 4.378-1.153 3.919-3.919zM140.766 95.334l2.766-6.909 3.684 8.522c4.378 10.369 5.531 10.603 8.991 2.766 3.459-6.909 6.225-5.756 8.063 3.684 1.153 4.837 2.531 6.45 5.072 5.531 2.531-1.153 3.459-5.072 3.459-16.359 0-18.206 2.766-18.206 12.675 0 3.684 7.144 8.063 13.134 9.45 13.134 1.613 0 5.072-1.847 7.837-4.144 4.838-3.919 5.072-4.838 2.306-17.278-1.378-7.378-2.306-17.053-2.072-21.891.694-9.675-.694-13.134-7.144-16.594-3.684-2.072-5.072-1.153-8.063 4.612-5.072 9.675-8.522 8.756-6.909-1.612 1.153-7.603.919-8.297-1.612-4.837-1.613 2.072-4.838 6.909-6.909 10.828-4.838 8.756-8.756 9.216-8.991.919-.234-3.684-.919-8.991-1.847-12.216l-1.847-5.756-3 6.45c-2.072 4.144-4.378 5.991-6.45 5.072-5.531-2.072-9.675 3.459-9.675 12.9 0 5.072-.919 8.991-1.847 8.991-3 0-8.991-7.378-12.216-14.981l-3-6.909-1.153 9.216-1.378 9.216-6.684-9.675c-7.838-11.756-12.216-12.675-13.828-2.306-.694 3.919-1.847 11.062-2.531 15.441-4.378 28.116-4.378 26.962 2.072 31.106 7.838 5.072 11.288 3.684 17.747-8.297 7.603-13.594 10.369-13.594 11.981.234.694 6.45 2.072 12.9 3 14.287 1.847 2.766 2.306 1.847 8.063-13.134z"/></svg>