<svg xmlns="http://www.w3.org/2000/svg" width="300" height="300" viewBox="0 0 300 300"><title>factions-order-stormcast-eternals-questor-soulsworn</title><path d="M66.966 280.434c-11.859-5.006-37.406-28.716-45.572-42.15C6.638 213.253 1.903 197.446.319 167.156c-2.109-46.369 6.319-71.653 32.934-98.794C56.437 44.653 81.722 31.481 119.4 23.578s40.041-7.903 66.384-1.313c28.191 7.378 50.841 18.441 68.494 33.459 18.966 16.331 27.928 31.088 37.931 61.116 16.069 49.528 7.116 97.997-25.294 136.2-10.012 11.859-25.556 22.125-28.716 19.228-.525-.787 2.897-9.216 7.903-18.703 10.8-21.863 13.697-41.362 9.488-67.706-5.794-37.931-22.397-61.378-55.584-79.294-16.594-8.953-17.916-9.216-46.106-9.216-27.666 0-30.028.525-46.631 8.691-31.35 15.281-51.638 43.997-57.431 80.878-4.744 30.3.262 52.688 18.178 78.769 11.063 16.069 10.8 19.763-1.05 14.756z"/><path d="M118.331 274.903c-16.069-7.378-25.294-16.594-35.034-35.297-25.294-49.528 9.216-112.753 63.488-116.437 25.556-1.847 43.472 5.531 61.378 25.031 18.178 19.763 21.6 28.716 21.863 55.847.262 20.025-.525 23.709-7.116 34.772-8.953 15.544-19.491 23.972-41.362 33.722-21.6 9.75-45.309 10.537-63.225 2.372z"/></svg>