<svg xmlns="http://www.w3.org/2000/svg" xml:space="preserve" fill-rule="evenodd" stroke-linejoin="round" stroke-miterlimit="2" clip-rule="evenodd" viewBox="0 0 300 300"><path fill-rule="nonzero" d="M81.291 299.981c-1.894-2.166-1.331-4.575-.403-6.816 1.706-4.134 3.731-8.128 5.447-12.263 3.309-7.95 6.647-15.891 9.647-23.962 1.116-3 1.556-6.272 3.15-9.131.572-1.041 1.237-2.034 1.753-3.094.572-1.153 1.013-2.372 1.584-3.703.272.131.759.384 1.247.619.984.478 1.819 1.303 3.15.938.487-.131 1.181.478 1.95.834 1.106-4.744 2.194-9.45 3.375-14.513-1.097.619-2.034.966-2.728 1.594-1.2 1.097-2.578 1.538-4.078 1.144-2.259-.581-3.863.234-4.884 2.147-1.809 3.384-3.741 6.741-5.203 10.294-2.119 5.156-5.625 9.366-8.888 13.734-.206.272-.525.478-.938.844-.056-.431-.159-.666-.094-.844 2.184-8.081 4.341-16.181 7.912-23.794 1.116-2.391 2.559-4.528 4.481-6.384 1.003-.966 1.763-2.241 2.447-3.478 2.775-5.147 5.588-10.294 8.184-15.534 1.669-3.356 2.578-7.134 4.519-10.303 4.913-8.034 6.853-17.325 11.306-25.509 2.1-3.853 4.369-7.594 6.553-11.381 1.922-3.338 3.825-6.694 5.747-10.031.206-.356.497-.666.844-1.116.938.984 1.809 1.903 2.766 2.916 1.631-1.988 2.325-4.106 2.381-6.45.075-2.653.844-3.853 3.356-4.847.834-.338 1.706-.609 2.541-.966 1.434-.619 1.481-.928.356-1.941-.253-.225-.497-.441-.741-.666-.787-.778-1.116-1.706-.619-2.728.741-1.509.666-3.037.656-4.678-.009-1.575.497-3.338 1.322-4.678 1.988-3.216 4.491-6.038 8.053-7.678.262-.122.487-.3.731-.45.122-.075.225-.169-.084-.337.056-.919-.131-1.931.206-2.737 4.397-10.641 8.897-21.234 13.313-31.866.825-1.969 1.322-4.059 2.109-6.038 1.134-2.813 2.1-5.747 3.647-8.325 3.516-5.878 5.156-12.459 7.828-18.656 1.762-4.078 1.988-7.734.169-11.953-2.325-5.381-.431-9.853 4.575-13.003 2.625-1.641 5.269-3.253 7.819-5.006 1.416-.966 2.784-1.012 4.322-.516 5.409 1.763 8.569 6.975 7.828 12.919-.094.797-.3 1.669-.084 2.391.169.544.891.975 1.453 1.331.084.056.741-.563.928-.956.694-1.453 1.284-2.944 1.903-4.397 3.919.609 7.416 5.231 6.778 8.972-.225 1.378.188 2.287 1.491 2.644 1.875.516 3.778 1.134 5.7 1.247 4.303.281 7.097 5.728 5.953 8.972-.797 2.25-.956 4.847-3.272 6.291-1.219.75-2.475 1.406-3.703 2.119-3.9 2.259-7.509 4.847-10.378 8.409-.909 1.116-2.287 1.847-3.384 2.822-1.575 1.434-3.262 2.775-4.603 4.425-7.547 9.262-13.8 19.397-19.669 29.756-1.8 3.169-3.3 6.525-4.706 9.9-1.631 3.909-4.238 7.116-6.994 10.191-.825.919-2.728 1.406-4.031 1.247-2.681-.337-5.1-.047-7.444 1.219-.122.075-.262.103-.403.159-3.422 1.172-3.403 1.069-1.631 4.397.666 1.266 1.247 2.606 2.147 3.694 1.331 1.622 2.897 3.047 4.5 4.697-1.538 1.875-3.291 4.05-5.1 6.197-.909 1.069-1.538 2.119-1.069 3.619.131.413-.234 1.05-.497 1.509-.563.984-1.284 1.894-1.772 2.916-5.016 10.369-10.144 20.672-16.191 30.478-1.622 2.634-3.094 5.362-4.5 8.119-.741 1.434-1.144 3.019-1.791 4.491-.975 2.203-1.744 4.575-3.094 6.516-3.778 5.419-6.731 11.269-9.516 17.222-.544 1.172-.759 2.55-.938 3.853-.337 2.503-.572 5.016-.797 7.528-.187 2.119-1.219 3.75-2.953 4.8-2.719 1.641-4.453 4.05-6.084 6.684-.694 1.116-1.922 1.903-2.784 2.944-.656.778-1.116 1.716-1.669 2.587-.45.713-.928 1.416-1.331 2.147-1.003 1.772-2.063 3.516-2.934 5.353-2.231 4.734-4.359 9.506-6.544 14.259a10.4 10.4 0 0 1-.984 1.725c-4.828 6.844-9.675 13.669-14.503 20.503-.384.534-.572 1.2-.966 1.744-.694.928-1.463 1.8-2.194 2.691-.319-.028-.609-.028-.891-.028z"/><path fill-rule="nonzero" d="M153.356 0c1.416 2.634.872 5.587 1.397 8.363.497 2.606 1.172 5.184 1.706 7.781a698 698 0 0 1 2.316 11.466c1.331 7.022 3.572 13.716 7.181 19.894.834 1.434.928 2.475-.141 4.097-.919 1.397-.741 3.534-.891 5.363-.028.253.787.712 1.284.862 2.419.694 4.866 1.331 7.303 1.922 1.988.478 2.588 2.072 3.15 3.722.084.234-.056.694-.262.844-1.838 1.444-2.512 3.525-3.3 5.578-.338.881-.741 1.744-1.172 2.719-.497-.206-.909-.356-1.434-.572-.056.891-.122 1.669-.178 2.559-.366-.103-.75-.094-.872-.262-1.059-1.509-2.85-1.612-4.35-2.231-.581-.234-1.547-.309-1.978.028-1.088.834-2.063 1.022-3.478-.075-.412 2.325-.834 4.341-1.134 6.384-.881 5.991-2.025 11.916-4.294 17.578-.084.216-.188.431-.281.647-1.088-.413-1.181-.234-2.213 3.534-.253-.394-.694-.759-.731-1.172-.084-1.041.028-2.1.047-3.15.094-4.556.366-9.075-1.153-13.538-.872-2.55-1.2-5.288-1.641-7.959-.253-1.566-1.088-2.081-2.55-2.344-3.028-.544-5.953-.234-8.916.422-3.947.881-7.969 1.444-11.869 2.475-5.991 1.612-11.203 4.922-16.369 8.241-.909.581-1.022 1.172-.647 2.231.713 1.987 1.491 3.881 3.037 5.409.834.825 1.013 1.903.6 2.916-2.081 0-4.097-.009-6.112 0-2.363.028-3.966-1.059-4.828-3.394-3.506 4.584-6.581 9.197-8.447 14.513-.6 1.706-1.237 3.394-1.819 5.109-.497 1.453-1.275 2.634-2.391 3.778-1.706 1.753-2.259 4.228-2.25 6.609.028 4.219-.281 8.484.928 12.628.216.713.159 1.509.281 2.259.178 1.013.881 1.313 1.613.609 1.753-1.716 4.059-1.941 6.206-1.997 5.128-.131 10.237-.094 15.263 1.556 2.513.825 5.353.75 8.053.881 6.234.3 12.478.441 18.703.731.891.037 1.763.516 2.644.778.028.187.037.366.056.563-.731.309-1.434.844-2.184.909-6.506.516-13.012.891-19.509 1.406-2.259.178-4.537.525-6.769.956-4.528.872-9.019 1.922-13.556 2.719-.928.169-2.053-.263-2.981-.666-3.066-1.313-3.422-1.116-5.597 1.266-1.8 1.969-2.559 4.041-2.372 6.694.225 3.122-.263 6.347.309 9.403 1.191 6.244 3.75 11.709 9.291 15.647 3.778 2.681 6.909 6.244 10.388 9.328 1.116 1.003 2.456 1.762 4.097 2.916-.844 2.362-1.584 5.4-3.019 8.063-1.134 2.1-2.119 4.106-2.419 6.469-.028.141-.037.281-.056.431-.478 2.672-1.575 3.394-4.266 2.775-.075-.338-.103-.703-.216-1.059-.253-.806-.347-2.128-.863-2.325-1.528-.572-3.037.3-3.966 1.641-1.753 2.55-3.563 5.063-5.362 7.575-.45.628-.891 1.116-1.884.6-.403-.216-1.313.159-1.809.516-.778.563-1.397 1.322-2.081 2.016-.131-.075-.253-.159-.384-.225.103-.347.187-.713.347-1.05 1.041-2.25 1.987-4.538 3.159-6.722 1.059-1.978 1.284-4.003.619-6.066-.928-2.906-.487-5.531 1.2-8.006.263-.394.441-.844.628-1.275.487-1.106.159-1.931-1.041-2.147-1.8-.319-2.756-1.462-3.525-3-.45-.909-1.106-1.819-1.903-2.428-3.422-2.653-5.85-6.028-7.256-10.069-1.763-5.063-3.272-10.219-4.912-15.338-.703-2.213-1.369-4.444-2.119-6.637-.216-.619-.534-1.284-1.003-1.706-1.247-1.134-2.25-2.334-2.522-4.078-.056-.384-.647-.825-1.087-.984-1.237-.478-2.522-.806-3.722-1.191-.45.938-.862 1.791-1.462 3.037-.741-.975-1.153-1.641-1.678-2.194-.366-.384-.919-.6-1.378-.891-.262.478-.656.928-.75 1.434-.187 1.041-.225 2.1-.384 3.647-3.816-2.887-8.128-1.762-11.962-3.047-4.144-1.397-8.353-2.644-12.619-3.6-4.209-.938-8.522-1.444-12.787-2.081-3.375-.516-6.769-.966-10.191-1.753.206-.103.403-.281.619-.319 4.209-.797 8.438-1.444 12.609-2.381 5.006-1.144 9.938-2.541 14.906-3.834 1.978-.516 3.919-1.134 5.925-1.509 1.622-.309 2.934-1.022 4.078-2.166 1.041-1.041 2.147-2.016 3.244-3.037 1.312.731 1.697 1.941 1.987 3.197.844 3.534.825 3.459 4.172 2.391 1.528-.478 3.159-.694 4.763-.787 1.191-.075 2.081-.431 2.887-1.275.919-.984 1.763-2.194 3.441-1.669.178.056.487-.094.647-.234 1.612-1.641 4.631-4.144 3.769-4.397.131-.534.253-1.313.516-2.053 1.659-4.659 3.309-9.319 5.016-13.969.403-1.097.469-1.894-.666-2.681-1.275-.891-1.378-2.756-.431-4.266 1.416-2.25 2.916-4.472 4.313-6.731 1.172-1.903 2.166-3.909 3.356-5.803.881-1.397 1.931-2.709 2.963-4.003 1.059-1.322.956-1.491-.141-2.7a46 46 0 0 1-4.013-5.147c-1.434-2.137-2.494-4.537-4.059-6.544-1.594-2.034-3.516-3.862-5.494-5.55-1.791-1.538-2.053-2.231-.609-4.266-1.181-1.397-2.916-2.559-2.906-4.959 3.778 1.847 7.425 3.563 11.006 5.409 3.816 1.95 7.556 4.041 11.344 6.038 2.316 1.228 4.35 2.737 5.503 5.306.347-.131.666-.216.928-.366 9.9-5.709 20.653-9.469 31.322-13.359 3.262-1.191 6.778-1.678 10.153-2.587 1.903-.516 1.856-.581 1.284-2.391-.216-.675-.319-1.378-.431-2.081-.188-1.191-.497-2.391 1.491-2.297.441.028 1.069-.75 1.359-1.284 4.162-7.931 6.891-16.397 8.784-25.116.469-2.147.187-4.453.281-6.694.225-4.753.469-9.506.713-14.259.009-.272.159-.534.234-.806.216-.047.403-.047.6-.047zM73.65 127.397c-1.706-.084-3.122-.347-4.191 1.069-.619.806-1.416 1.509-2.241 2.147-1.697 1.303-2.081 2.241-1.612 4.322.188.834.45 1.659.516 2.503.347 4.753 5.972 7.8 10.125 5.409.544-.309 1.05-.872 1.331-1.434a45 45 0 0 0 1.884-4.313c1.087-2.944-.253-5.353-1.763-7.744-1.059-1.659-2.409-2.381-4.05-1.969zm162.994-44.175c.984.225 1.725.394 2.85.656-.881 1.547-1.894 3.113-2.691 4.763-1.106 2.316-1.997 4.716-3.066 7.05-.966 2.109-.862 4.144-.188 6.347 1.35 4.5 2.541 9.066 3.638 13.659.281 1.181.216 2.578-.122 3.75-.666 2.362.141 4.528.497 6.759.038.206.619.525.881.478 3.206-.694 5.822.909 8.541 2.128a9 9 0 0 1 1.491.844c.694.497 1.266.497 2.053.037 1.378-.825 2.859-.619 4.191.253 3.178 2.081 6.553 3.666 10.331 4.303 1.116.188 2.259.309 3.384.516 1.322.234 2.728.094 3.881 1.116.384.347 1.172.3 1.772.347 5.934.356 11.878.694 18 1.05v1.903c-.009 1.331-.759 1.922-2.016 1.809-1.556-.131-3.122-.488-4.688-.497-2.578-.028-5.147.103-7.706.281-.666.047-1.35.431-1.931.806-3.066 2.016-6.422 3.197-9.928 4.237-3.441 1.022-6.769 2.494-10.088 3.9-1.688.713-3.262 1.716-4.884 2.597-.703.384-1.359.919-2.109 1.181-1.106.394-1.847-.141-1.744-1.303.094-1.134-.347-1.397-1.303-1.153-2.081.497-4.172.975-6.234 1.575-.45.131-.919.647-1.144 1.097-.281.581-.413 1.275-.497 1.931-.469 3.909-2.278 7.2-4.444 10.387-3.328 4.875-6.544 9.834-9.778 14.766-.909 1.378-.797 1.95.628 2.728 1.172.628 1.434 1.613 1.528 2.831.094 1.144.3 2.372.806 3.375.806 1.613 1.838 3.122 2.906 4.566 2.278 3.047 4.631 6.037 7.003 9.019 1.088 1.35 2.297 2.597 3.534 3.994-.384-.122-.787-.188-1.144-.356-1.659-.834-3.244-1.847-4.959-2.541-5.306-2.166-10.613-4.35-16.012-6.244-1.922-.675-4.125-.797-6.188-.731-1.331.047-2.719.787-3.909 1.5-1.172.703-2.194 1.688-3.159 2.672-5.662 5.756-12.591 9.441-19.959 12.459-1.059.431-2.147.797-3.159 1.322-2.916 1.509-6.037 2.231-9.281 2.588-2.447.262-4.875.713-7.303 1.088a4.8 4.8 0 0 0-.966.262c-1.847.675-2.072 1.238-1.022 2.944.844 1.378 1.744 2.738 2.719 4.012.6.778.572 1.331.056 2.147-2.419 3.816-4.997 7.603-5.897 12.131-.956 4.753-1.753 9.544-2.475 14.344-.441 2.953-.534 5.972-.938 8.934-.384 2.766-1.041 5.503-1.462 8.269-.338 2.119-.647 4.256-.703 6.384-.047 1.772-.516 2.953-2.859 3.122-.216-.938-.656-2.034-.703-3.15-.225-5.663-.253-11.334-.516-17.006-.431-9.469-.975-18.938-1.481-28.406-.084-1.462-.497-2.672-2.109-3.216-.469-.159-.909-.825-1.059-1.35-.431-1.462-.216-2.887.45-4.294 1.303-2.719.628-3.947-2.316-4.566-2.372-.497-4.744-1.041-7.125-1.462-.544-.094-1.191.122-1.763.309-.487.169-.891.628-1.378.713-.6.103-1.238-.038-1.875-.075.103-.497.122-1.059.338-1.509 1.406-2.859 2.831-5.7 4.303-8.503.178-.356.759-.834 1.012-.759 1.575.431 1.997-.741 2.541-1.706.225-.403.338-.909.384-1.369.141-1.303.75-1.838 2.109-1.613.488.084 1.144-.075 1.537-.366 2.053-1.481 4.106-2.944 5.991-4.613.741-.656 1.406-1.791 1.463-2.756.319-4.866.872-9.666 2.597-14.278.319-.844.122-1.884.216-2.822.206-1.809.45-3.609.975-5.4 2.241 10.125 2.738 20.419 4.003 30.581 5.728-.863 10.959-2.944 16.312-4.744 9.019-3.047 17.072-7.903 25.078-12.881 1.012-.628 1.275-1.416.919-2.541-.544-1.772-1.088-3.553-1.491-5.363-.159-.675.056-1.444.103-2.156.759.075 1.584-.028 2.278.234 1.322.516 2.597 1.181 3.834 1.884 1.181.666 1.978.441 2.822-.609 3.169-3.928 5.456-8.353 7.603-12.881 1.331-2.831 2.7-5.672 4.144-8.447 1.547-2.953 2.119-5.981 1.153-9.234-.122-.403-.178-.834-.262-1.247-.516-2.466-.516-2.456-3-2.906-5.241-.956-10.463-2.081-15.731-2.85-4.894-.703-9.853-.975-14.775-1.491-4.631-.487-9.272-1.041-13.903-1.556-3.216-.356-4.791-2.906-6.609-5.063-.609-.713-.169-1.331.787-1.444 5.053-.6 10.088-.544 15.028.834 3.15.881 6.328 1.013 9.459.309 2.278-.497 4.434-.094 6.656.084 2.166.178 4.35.159 6.525.281q2.204.142 4.387.478c3.431.516 6.591-.609 9.778-1.575 2.916-.872 2.888-.872 2.7-3.9-.497-8.428-2.55-16.537-4.913-24.581-.647-2.203-1.838-4.106-3.572-5.588-2.072-1.744-4.238-3.375-6.431-4.959-1.116-.806-1.659-1.856-1.2-3.066.525-1.397 1.359-2.691 2.128-3.984.703-1.153 1.594-2.128 1.547-3.722-.028-.713.909-1.594 1.612-2.128.206-.169 1.2.45 1.659.891 1.284 1.247 2.784 1.894 4.538 2.213.975.178 1.969.647 2.803 1.2 1.022.675 1.894 1.594 2.831 2.391 2.775 2.344 4.491 2.494 7.622.563 1.856-1.172 3.656-2.325 5.194-3.3zm5.184 49.415c-.047-.131-.094-.272-.141-.403-1.5.572-3.422.759-4.434 1.809-2.606 2.691-1.641 6.038-.619 9.131.253.778 1.416 1.35 2.259 1.8 5.259 2.831 9.459 1.003 11.053-4.762.075-.272.103-.563.188-.834.488-1.772-.075-3.206-1.462-4.303-2.016-1.584-4.238-2.559-6.853-2.428z"/></svg>