<svg xmlns="http://www.w3.org/2000/svg" viewBox="0 0 300 300"><path d="M213.35 17.176c-13.663 9.438-24.917 17.237-25.009 17.33s5.006 7.431 11.328 16.307 11.414 16.267 11.318 16.422-7.059 6.26-15.472 13.563-16.473 14.321-17.911 15.596l-2.615 2.319-12.594-22.204c-6.928-12.212-12.718-22.08-12.869-21.928s-5.8 10.013-12.555 21.914-12.43 21.688-12.611 21.749c-.314.104-35.156-29.911-35.825-30.863-.216-.307 3.378-5.644 11.147-16.555l11.467-16.102-.817-.66C108.667 32.715 61.461.303 61.34.425c-.069.07 1.728 3.099 3.993 6.732 10.455 16.767 19.016 31.398 19.499 33.325.207.825-16.96 20.909-27.089 31.692l-1.1 1.172 18.442 18.642c22.009 22.249 20.318 19.852 20.495 29.036.222 11.533-1.436 18.771-5.577 24.34l-1.817 2.445-9.39 4.141c-20.667 9.115-41.676 18.653-41.618 18.893.034.14 8.698 5.075 19.254 10.968l19.194 10.714 1.737 4.552c9.835 25.764 28.344 46.439 47.45 53.006 3.732 1.283 3.238.629 6.78 8.969 2.515 5.92 14.371 32.989 17.25 39.384.439.975.848 1.719.909 1.651.178-.198 12.026-27.126 16.917-38.45l4.51-10.441 2.954-.981c19.545-6.492 37.227-26.07 47.745-52.868l1.92-4.891 38.862-21.649-2.694-1.232c-1.481-.678-12.481-5.592-24.444-10.92-25.53-11.371-26.177-11.737-27.939-15.83-3.628-8.424-5.091-22.039-3.144-29.258l.594-2.202 18.744-18.768c11.787-11.803 18.667-18.952 18.538-19.264-.113-.272-6.287-7.359-13.721-15.747s-13.733-15.515-13.995-15.839c-.857-1.052 12.073-23.752 23.216-40.758.355-.542.586-.983.512-.979s-11.313 7.73-24.977 17.169zm-59.184 82.538c5.989 3.1 7.347 11.086 2.692 15.832-6.212 6.334-17.026 2.036-16.992-6.752.028-7.515 7.795-12.447 14.3-9.08m3.85 32.225c29.967 5.666 44.705 40.423 28.08 66.22-16.217 25.165-53.193 26.428-71.066 2.427-23.717-31.847 3.948-76.028 42.986-68.647m-18.87 30.929c-5.789 11.578-10.453 21.236-10.362 21.464.153.39 13.273 14.671 18.544 20.185l2.412 2.523 1.847-1.99 10.572-11.4 8.726-9.41-21.213-42.42-10.525 21.048zm-49.37 1.737c6.571 3.576 6.985 12.761.764 16.946-6.836 4.598-16.094-.879-15.35-9.081.654-7.219 8.25-11.313 14.586-7.864zm127.783-.745c5.526 1.883 8.236 8.539 5.639 13.847-3.548 7.254-14.061 7.357-17.7.175-4.055-8.001 3.603-16.905 12.061-14.023zm-63.727 65.099c3.409 1.461 5.739 5.088 5.761 8.967.052 9.123-10.883 13.495-17.107 6.841-7.384-7.893 1.367-20.085 11.346-15.807z"/></svg>