<svg xmlns="http://www.w3.org/2000/svg" xml:space="preserve" fill-rule="evenodd" stroke-linejoin="round" stroke-miterlimit="2" clip-rule="evenodd" viewBox="0 0 300 300"><path fill-rule="nonzero" d="M28.884 82.538v-1.256c1.256-1.594 2.428-3.253 3.788-4.753 8.184-9.084 10.472-20.653 13.5-31.922.553-2.053.937-4.228 1.969-6.047 1.603-2.831 4.753-2.466 6.225.441 1.922 3.816 2.288 7.847 2.053 12.038-.291 5.119-.234 10.209 1.603 15.131.834 2.25 1.819 4.294 3.694 5.878 1.434 1.2 2.85 2.456 4.162 3.797 1.894 1.922 1.997 4.397.3 6.347-1.556 1.791-3.656 2.794-5.878 2.091-1.969-.609-3.684-.141-5.494.188-1.641.3-1.941.891-1.191 2.391 1.228 2.419 2.4 4.866 3.797 7.191.591.975 1.528 1.922 2.55 2.4 1.369.656 2.953.956 4.481 1.172.609.094 1.472-.263 1.959-.694 2.316-2.072 3.919-4.528 4.191-7.781.141-1.631.703-3.234 1.097-4.856.328-1.303.853-2.569 1.003-3.9.234-2.156.862-4.059 2.438-5.616 1.003-.994 1.922-2.072 2.991-2.972 1.397-1.191 1.856-2.597 1.866-4.397.066-6.516.338-13.041.394-19.556 0-.741-.722-1.622-1.331-2.222-.441-.431-1.237-.497-1.884-.722-3.994-1.359-8.016-2.663-11.981-4.087-.609-.225-1.406-.909-1.5-1.5-.441-2.569 1.603-4.791 4.181-4.959 1.266-.075 2.691-.141 3.75-.759 6.159-3.553 9.469-9.422 12-15.741 1.659-4.153 2.831-8.503 4.191-12.769.609-1.922 1.725-3.366 3.431-4.481 1.153-.741 1.697-.637 2.194.638 1.406 3.656 1.575 7.416 1.088 11.25-.356 2.672-1.003 5.344-.188 8.072.431 1.434.666 2.934 1.022 4.397.675 2.784 1.106 5.719 4.397 6.863.497.169 1.041.666 1.228 1.153.909 2.316 2.784 3.487 4.856 4.594 2.991 1.603 3.084 4.847.309 6.759-.591.403-1.266.722-1.941.975-3.159 1.191-6.412 1.8-9.806 1.528-.891-.066-1.772 0-2.663.009-1.134.009-1.594.553-1.388 1.697.525 2.822.956 5.653 1.519 8.456.525 2.653 2.091 3.469 4.434 2.137 1.8-1.022 3.422-2.362 5.034-3.684 3.019-2.466 6.178-3.984 10.153-2.325 1.753.722 2.503.225 2.916-1.641 1.041-4.894 2.053-9.787 3.066-14.7.206-1.003-.094-1.659-1.228-1.688-3.563-.094-6.497-1.734-9.3-3.722-1.641-1.163-1.537-3.197.263-4.125 1.341-.694 2.719-1.359 4.153-1.819 4.978-1.594 7.753-5.288 9.853-9.778 2.306-4.95 4.753-9.844 7.125-14.766.488-1.003 1.331-1.059 2.269-.797.956.262 1.8.637 1.697 1.884-.122 1.397-.206 2.803-.375 4.2-.675 5.484-.591 10.819 1.369 16.172 1.294 3.534 3.263 6.094 6.497 7.781.966.497 1.519 1.219 1.256 2.25-.394 1.594-.797 3.234-1.491 4.716-1.041 2.222-1.997 2.55-4.434 1.997-1.022-.225-2.034-.459-3.066-.628-1.894-.328-2.484.075-2.859 1.922-.291 1.434-.6 2.859-.872 4.294-.666 3.45-1.238 6.853.441 10.247.909 1.856 3.694 3.019 5.025 1.622 3.722-3.9 8.091-7.209 9.309-13.134 1.425-6.994 5.991-11.138 13.313-11.906 2.794-.291 5.578-.797 8.372-.891 2.269-.066 4.556.338 6.844.544 2.025.178 4.031.431 6.056.525 1.228.056 2.456-.169 3.684-.234.872-.056 1.762-.159 2.625-.038 3.497.488 6.975 1.331 10.5 1.528 6.028.337 11.681 2.297 17.297 4.087 5.925 1.894 11.55 4.781 17.259 7.35 1.791.806 3.431 1.941 5.091 3.019.394.244.544.825.891 1.191.609.694 1.191 1.462 1.931 1.997 1.003.703 2.287 1.059 3.225 1.837 2.203 1.828 4.294 3.816 6.412 5.756 4.181 3.816 6.759 8.709 9.056 13.744.488 1.059.159 2.503.141 3.769-.009.853-.328 1.763-.131 2.55.741 2.869 1.622 5.709 2.484 8.55.328 1.088.394 2.053-.666 2.784-1.041.731-2.091 1.106-3.319.356a283 283 0 0 0-7.641-4.566c-6.291-3.656-12.975-6.291-20.25-6.891-4.762-.394-9.6-.328-14.372-.103-8.213.375-16.219 2.25-24.056 4.547-4.913 1.434-9.384 4.022-13.341 7.359-2.4 2.006-4.762 4.069-7.153 6.094-2.897 2.456-5.297 5.316-7.144 8.644q-5.655 10.275-11.344 20.531c-.431.769-.872 1.537-1.294 2.325-.609 1.153-.394 2.072.394 3.15.759 1.041 1.369 2.353 1.594 3.619.488 2.859.009 5.588-1.734 8.053-.422.6-.656 1.659-.403 2.297.141.394 1.331.441 2.063.572 1.837.328 3.919.169 5.466 1.003 4.05 2.156 8.119 4.162 11.447 7.678 6.862 7.256 12.178 15.328 15.291 24.834.422 1.266.731 2.625.759 3.956.056 1.959-1.266 3.122-2.953 3.834-1.584.675-2.784.075-4.116-.956-1.688-1.322-3.6-2.466-5.597-3.262-2.259-.9-4.697-1.331-7.078-1.931-5.691-1.425-11.006-.966-15.9 2.691-3.497 2.616-6.656 5.531-9.375 8.944-1.397 1.753-1.331 2.334-.056 4.134 1.791 2.503 3.591 4.997 5.259 7.584 1.594 2.484 2.756 2.934 5.719 2.634 2.034-.206 4.434-.975 5.784 1.622.075.159.328.262.506.338 1.125.534 1.472 1.491 1.238 2.616-.328 1.566-.675 3.15-1.219 4.659-.638 1.838-.375 2.325 1.622 2.391 1.2.037 2.419-.009 3.591.206 1.266.244 2.691.469 3.666 1.219 5.128 3.834 10.172 7.809 15.178 11.803 1.491 1.172 2.559 1.331 4.059.187.422-.309.797-.675 1.162-1.041 3.591-3.656 7.809-6.422 12.413-8.616.497-.234 1.134-.459 1.622-.338 2.756.675 5.728.572 8.213 2.297.487.338 1.191.563 1.772.534.638-.028 1.322-.3 1.894-.628.872-.488 1.603-1.359 2.531-1.631 2.634-.787 5.344-1.388 8.025-1.997 2.625-.6 5.428-.703 7.875-1.725 9.684-4.031 17.597-10.453 23.325-19.247 6.028-9.234 11.175-18.947 14.409-29.559.159-.506.422-.994.628-1.491.159 0 .3-.009.459-.009.506 1.275 1.172 2.531 1.472 3.862.628 2.738.938 5.559 1.603 8.287 1.106 4.594 1.219 9.188.272 13.809-.862 4.247-1.753 8.475-2.728 12.675a287 287 0 0 1-2.85 11.184c-.994 3.619-2.138 7.191-3.15 10.809-.637 2.287-.806 4.781-1.8 6.891-4.894 10.406-10.5 20.419-17.916 29.278-6.591 7.884-14.231 14.606-23.475 19.191-7.181 3.563-14.766 6.197-22.537 8.353-10.519 2.925-21.122 5.297-31.987 6.525-2.634.3-5.287.525-7.922.787h-11.597c-2.588-.591-5.184-1.162-7.772-1.762-4.153-.966-8.344-1.819-12.441-2.962-4.716-1.331-9.478-2.616-13.969-4.5-6.253-2.625-12.347-5.691-18.403-8.775-5.316-2.7-10.369-5.859-14.578-10.172-3.169-3.253-6.422-6.431-9.422-9.834-2.25-2.531-4.416-5.194-6.15-8.081-6.356-10.537-11.231-21.75-14.709-33.562-.169-.591-.366-1.275-.797-1.659-2.569-2.259-3.45-5.287-3.891-8.484-.666-4.856-1.191-9.741-1.866-14.597-.506-3.619-2.091-6.581-5.353-8.578-2.569-1.584-3.338-4.491-1.903-7.153 3.225-5.991 4.622-12.572 6.413-19.05.159-.544.169-1.134.225-1.706.525-6.431.075-12.713-2.925-18.6-1.097-2.156-.909-4.294.178-6.459.469-.938.722-2.072.769-3.131.094-1.988.169-2.259 2.184-2.456 3.834-.366 7.088-1.987 10.012-4.397.563-.469 1.163-.891 1.734-1.341 3.056-2.391 5.025-5.513 6.084-9.216.328-1.163-.038-1.922-1.153-2.569-2.063-1.219-4.059-2.559-6.009-3.956-.534-.394-1.228-1.153-1.172-1.688.234-2.737-1.219-4.781-2.494-6.919-1.528-2.559-2.925-5.184-3.169-8.241-.225-2.691-1.5-3.966-4.2-4.059-1.069-.028-2.334-.037-3.216.469-2.831 1.688-4.547-.066-6.263-1.8-.637-.591-.956-1.463-1.397-2.203zm102.535 126.468c-.141.056-.291.122-.441.169-.488-.628-1.088-1.2-1.434-1.903-1.603-3.103-3-6.309-4.753-9.319-.797-1.388-2.072-2.597-3.384-3.581-2.288-1.697-4.753-3.15-7.144-4.697-1.397-.9-2.728-1.941-4.219-2.672-3.366-1.641-6.816-3.131-10.237-4.688-2.672-1.219-5.494-1.603-8.391-1.397-1.556.122-3 1.275-3.037 2.466-.056 1.631 1.322 1.772 2.419 2.194.197.075.403.094.6.159 3.666 1.088 6.806 3.038 9.581 5.681 5.597 5.316 9.834 11.606 13.369 18.394a78 78 0 0 1 2.925 6.225c.891 2.156-.272 3.525-2.559 3.094a6 6 0 0 1-1.903-.694c-3.516-2.053-7.284-2.756-11.278-2.297-.609.066-1.519.272-1.706.675-.206.459.141 1.266.422 1.838.234.497.703.9 1.087 1.331 2.119 2.391 4.228 4.762 6.328 7.153.788.891 1.294 1.894.534 2.962-.909 1.294-1.059 3.328-3.487 3.216-3.469-.169-6.975-.056-10.444-.028-1.397.009-2.438.563-2.653 2.1-.206 1.434.638 2.091 1.791 2.756 1.734 1.003 3.394 2.194 4.978 3.431 1.941 1.528 2.259 3.384.975 5.616-1.2 2.119-.834 4.35.122 6.478.534 1.191 2.888 2.156 3.881 1.688.853-.403 1.294-2.297.628-3.581-.994-1.894-.525-3.469.553-5.119 1.097-1.697 2.053-3.497 3.066-5.231.469-.806.937-1.622 1.491-2.372 2.691-3.703 5.531-7.313 8.081-11.109 2.522-3.787 5.728-6.919 9.122-9.834 1.519-1.294 3.628-1.941 5.531-2.728 2.625-1.097 5.391-1.894 7.959-3.103 2.391-1.134 2.831-3.328 1.453-5.625-1.453-2.4-2.85-4.856-4.463-7.153a24 24 0 0 0-3.994-4.35c-.666-.572-1.894-.487-2.869-.694-.103.825-.422 1.688-.3 2.466.534 3.394 1.228 6.778 1.819 10.153.103.609.009 1.275.009 1.931zm-25.622-84.544c-.094.169-.188.338-.272.506 1.575 1.491 1.884 3.338 1.763 5.344-.009.3.028.637.159.909 1.359 3.094 2.625 6.253 4.181 9.244.487.928 1.697 1.641 2.737 2.063 1.734.694 3.628.938 5.381 1.575 1.706.628 3.263.731 4.978-.028 1.556-.675 1.828-1.069.994-2.531a358 358 0 0 0-4.847-8.222c-2.269-3.769-5.625-6.309-9.675-7.838-1.669-.656-3.581-.703-5.391-1.031zm36.6 46.632c-1.828.544-4.05.862-5.925 1.838-2.766 1.434-5.325 3.281-7.884 5.053-2.034 1.406-2.269 2.831-.956 4.95.497.787 1.069 1.603 1.819 2.119 3.122 2.194 3.525 1.828 5.531-.309 3.084-3.291 6.328-6.347 10.369-8.456.862-.459 1.631-1.125 2.353-1.8.9-.862.787-1.772-.375-2.194-1.434-.525-2.991-.741-4.922-1.191z"/></svg>