<svg xmlns="http://www.w3.org/2000/svg" viewBox="0 0 300 300"><path d="M155.058 198.663v62.257c0 9.103 2.164 18.1 3.022 27.22.518 5.706 0 11.804-7.618 11.858s-8.406-6.027-7.691-11.75c7.029-52.152 1.574-104.501 2.951-156.707-.161-12.019-1.413-23.644-3.667-34.929l.214 1.216c-.411-4.131-3.881-7.369-8.101-7.369-1.574 0-3.04.448-4.274 1.216l.036-.018c-6.581 3.541-12.43 20.282-8.28 26.845 7.207 11.411 4.453 20.604-3.165 30.314-3.273 5.15-6.581 11.214-9.497 17.491l-.411.983a15.2 15.2 0 0 0-2.701 8.657c0 3.523 1.198 6.761 3.183 9.335l-.036-.035c1.037 2.111 1.645 4.596 1.645 7.207s-.608 5.115-1.699 7.315l.036-.107c-6.581 11.536-14.97 22.177-22.857 32.801a17.7 17.7 0 0 1-4.864 3.362l-.125.054c0-2.093-.912-4.453 0-6.17 4.005-8.728 8.46-17.188 12.68-25.843 3.738-7.672 5.973-14.827-3.667-20.675a10.35 10.35 0 0 1-2.2-6.403c0-1.216.214-2.36.591-3.452l-.018.071c3.827-8.996 8.245-16.758 13.396-23.912l-.251.357c6.17-8.263 7.35-16.007 0-23.089s-5.187-13.45-1.431-20.531c6.581-12.268 13.127-24.592 19.709-36.611 3.738-6.564 2.558-8.996-4.668-8.996h-1.252c-7.494 0-19.1 2.611-21.533-.93-3.863-5.705-1.914-15.543-2.092-23.679V6.56c0-2.307 2.951-6.564 4.453-6.564 34.804.465 69.589 1.699 104.412 1.914 8.674 0 12.287 1.18 11.696 10.891-.912 14.701 0 29.456 0 44.211 0 4.185-.518 7.941-6.581 4.596a17.9 17.9 0 0 0-8.066-1.251h.054c-18.725-.34-18.725 0-10.373 16.526 5.776 11.482 11.696 22.893 17.277 34.446a11.9 11.9 0 0 1 1.305 5.401c0 4.399-2.414 8.245-5.992 10.302l-.054.036c-8.943 6.564-6.957 13.11-1.18 20.388 4.15 5.366 7.28 11.607 10.964 17.438s8.996 12.591 0 20.604c-3.219 2.754-2.558 12-1.055 17.58 3.613 10.785 7.243 19.637 11.393 28.205l-.626-1.431c.554 1.628.966 3.541 1.18 5.527l.018.125c-1.877-1.127-3.488-2.396-4.918-3.864-7.744-10.767-15.686-21.373-22.518-32.801a14.4 14.4 0 0 1-1.877-7.136c0-2.164.465-4.221 1.305-6.063l-.035.089c6.581-8.263 4.453-14.29-1.109-21.712-3.308-5.365-6.778-11.822-9.872-18.475l-.5-1.198c-7.834-13.7-7.941-13.629 2.558-27.363.662-.769 2.433-1.771 2.36-1.914-5.33-9.371-10.839-18.619-16.294-27.954-4.15 4.399-9.854 7.083-10.034 14.827-.591 25.522-2.039 50.972-3.094 76.421-.394 7.083-.143 13.664-.143 20.21l-.018.089z"/></svg>