<svg xmlns="http://www.w3.org/2000/svg" xml:space="preserve" fill-rule="evenodd" stroke-linejoin="round" stroke-miterlimit="2" clip-rule="evenodd" viewBox="0 0 300 300"><path fill-rule="nonzero" d="M157.506 295.351c-.831 5.794-8.662 5.154-9.494 3.49-.621-1.654-3.929-10.976-8.48-25.25-3.107-9.924-7.448-23.988-9.723-31.225l-4.14-13.233 5.373-5.583c8.27-8.69 7.027-16.13-4.14-23.166l-7.027-4.34-15.507 4.76c-8.48 2.487-15.929 4.14-16.34 3.72s1.654-8.07 4.551-16.96c4.14-13.032 4.761-16.962 2.897-21.092-3.107-6.616-11.167-8.48-21.301-5.172-6.827 2.275-9.724 2.275-15.929.21-15.507-5.373-25.23-9.513-25.23-10.957 0-1.032-3.72-1.654-8.48-1.654-7.449 0-20.48-5.172-20.48-8.27 0-2.065 19.647-10.134 29.992-12.41 5.794-1.242 13.443-3.719 17.162-5.373 10.756-4.962 21.09-6.205 21.09-2.485 0 9.924 15.719 9.302 23.367-.832l4.14-5.373-5.583-14.064c-3.108-7.649-4.762-14.686-3.93-15.508 1.033-1.032 5.373-.411 9.924 1.243 11.167 3.93 18.615 3.72 25.441-.411 12-7.448 13.854-14.274 5.794-22.334l-5.172-5.172 5.373-12.821c2.897-7.238 6.826-17.162 8.891-22.334s4.963-12.41 6.617-15.929c1.654-4.34 4.14-6.826 6.616-6.826 2.275 0 9.101 26.675 17.17 43.224 6.206 12.821 6.827 15.508 4.341 16.961-1.864 1.033-4.76 4.14-6.616 7.027-3.308 4.962-3.107 5.584 1.865 13.443 6.415 9.924 10.344 10.344 31.024 3.107 15.929-5.584 21.923-5.172 21.512 1.654-.21 4.14-4.14.621-9.312 11.788-6.415 13.443-6.827 15.929-4.962 22.956 2.065 7.448 2.897 8.069 9.302 8.069 5.374 0 7.65-1.243 9.724-4.962l2.686-5.172 17.583 6.205c9.723 3.308 22.754 8.069 28.95 10.344 6.195 2.276 14.274 4.962 17.582 5.995 3.518.832-1.033 3.518-1.864 5.172-.622 1.654-2.897 3.108-5.173 3.108-2.275 0-4.55.831-5.172 1.864-.622 1.032-5.584 2.486-10.957 3.308s-14.274 3.72-19.647 6.415c-11.378 5.794-16.54 6.205-20.27 1.865-1.443-1.865-5.994-3.108-10.545-3.108-7.237 0-8.48.832-11.578 7.238-3.308 7.027-3.308 7.859 1.033 20.058 2.686 7.238 6.616 14.886 8.69 17.162 4.963 5.172 5.374 10.545 1.033 12.2-2.486.831-6.415-3.72-11.176-7.65-5.995-4.961-25.231-11.998-29.371-10.755-2.065.832-6.415 4.55-9.303 8.48l-5.583 7.238 13.653 16.96-3.72 14.686c-2.065 8.07-6.415 20.68-9.723 27.717-3.518 7.237-6.826 17.372-7.448 22.754m6.435-117.903c10.545-3.107 19.437-12.2 21.511-21.923l1.444-7.649s1.654-11.377 1.033-11.377c-.622 0-2.687-3.719-4.34-8.07-9.925-25.23-52.528-26.062-62.873-1.242-4.55 11.167-3.719 28.128 1.865 36.398 9.924 14.886 23.166 19.236 41.36 13.853z"/><path fill-rule="nonzero" d="M181.112 291.403c-.277-.21-1.358-.622-1.654-1.243-.516-1.1-1.903-3.576-1.444-5.373 1.176-4.59 6.788-17.755 8.48-22.134.536-1.386 1.148-2.743 1.655-4.14 1.31-3.585 1.845-13.04 6.205-17.371 5.554-5.517 20.65-13.099 27.095-15.718 3.575-1.453 9.34 2.486 11.578 0 2.237-2.476 1.243-9.924 1.864-14.886.622-5-1.453-11.263 1.865-15.097 3.585-4.14 12.983-6.73 19.647-9.723 7.304-3.27 19.198-7.926 24.198-9.924 1.903-.765 4.14-2.62 5.794-2.065 1.654.554 4.102 3.556 4.13 5.382.039 1.827-2.658 3.7-3.93 5.584-2.064 3.069-5.975 8.356-8.48 12.82-2.514 4.485-5.344 10.585-6.616 14.065-.793 2.16-.66 4.55-1.032 6.826-.45 2.754-1.721 7.17-1.654 9.724.057 1.979 1.377 3.786 2.065 5.583.67 1.73 2.065 3.451 2.065 5.172s-1.377 4.417-2.065 5.173c-.488.535-2.065-1.138-2.065-.622 0 .517 2.141 2.304 2.065 3.72-.105 1.96-.115 6.874-2.687 8.069-4.751 2.208-17.649 3.996-25.852 5.172-7.735 1.11-16.884-.411-23.367 1.864-6.128 2.152-10.507 7.65-15.507 11.789-5.411 4.484-13.443 11.894-16.96 15.096-1.445 1.32-3.242 3.758-4.14 4.14-.69.287-1.033-1.549-1.244-1.864 0-.01 0-.02-.01-.02M115.965 284.576c-1.865-2.275-12.2-9.513-18.405-14.685l-11.167-9.303h-16.96c-9.102 0-20.27-.621-24.61-1.243l-7.649-1.443v-10.756c0-28.95-1.864-35.155-15.717-54.391-9.925-14.064-12.41-18.615-10.345-20.48 1.864-2.065 4.14-1.864 10.545 1.444 4.551 2.065 16.34 7.649 26.264 12.2 19.437 8.891 21.923 11.998 19.647 25.642-1.654 10.756 1.864 13.652 18.204 14.274l14.274.621 5.584 10.546c2.896 5.794 7.027 15.096 9.302 20.68 2.065 5.583 9.102 19.848 9.102 21.923s5.574 9.819 3.509 11.052c-4.34 2.897-8.892-2.782-11.578-6.1z"/></svg>