<!-- Generated by IcoMoon.io -->
<svg version="1.1" xmlns="http://www.w3.org/2000/svg" width="300" height="300" viewBox="0 0 300 300">
<title>fighters-berserker</title>
<path d="M96.619 291.094c-0.469-0.253-0.975-0.441-1.378-0.769-1.575-1.284-3.328-1.762-5.344-1.453-2.147 0.319-3.347-1.294-4.706-2.503-0.216-0.197-0.122-0.9-0.028-1.341 0.759-3.309 0.656-6.637-0.769-9.666-2.484-5.306-3.047-11.044-4.434-16.613-1.219-4.837-3.253-9.591-6.516-13.603-0.366-0.45-0.769-0.9-1.266-1.209-2.372-1.5-4.631-3.066-6.3-5.438-0.45-0.656-1.631-0.928-2.531-1.106-1.5-0.291-3.075-0.234-4.566-0.544-1.050-0.216-2.138-0.638-3.009-1.238-1.322-0.891-2.428-0.9-3.553 0.197-0.075 0.084-0.141 0.159-0.234 0.216-1.575 0.994-3.15 1.978-4.706 2.953-2.466-1.209-5.081-2.175-6.647-4.659-0.366-0.581-0.703-1.181-0.994-1.8-0.816-1.734-1.697-3.375-3.459-4.388-0.441-0.253-0.816-0.703-1.078-1.153-3.197-5.503-5.831-11.175-4.622-17.831 0.15-0.769 0.281-1.659 0.741-2.222 3.994-4.781 5.681-10.387 6.45-16.453 0.684-5.4 2.194-10.753 2.316-16.144 0.141-6.609 1.669-12.984 2.4-19.481 0.066-0.638 0.141-1.266 0.141-1.894-0.019-7.837-0.159-15.656 0.019-23.494 0.066-3.019 0.844-6.028 1.275-9.038 0.234-1.725 0.581-3.441 0.609-5.156 0.103-4.838 0.787-9.591 2.194-14.213 0.872-2.878 2.278-5.447 4.303-7.688 3.244-3.544 6.188-7.462 9.788-10.594 6.769-5.869 14.597-10.059 23.166-12.825 2.325-0.759 4.472-2.081 6.722-3.094 1.959-0.891 3.938-1.725 5.925-2.559 0.787-0.337 1.631-0.497 2.372-0.891 4.969-2.663 10.388-3.881 15.834-4.913 1.209-0.225 2.569-0.159 3.759 0.131 4.5 1.144 9.037 2.212 13.434 3.703 6.047 2.053 11.738 4.837 17.316 8.091 5.981 3.497 10.819 8.25 16.153 12.422 1.884 1.472 3.234 3.731 4.556 5.794 1.556 2.456 2.728 5.138 4.256 7.612 3.891 6.3 6.844 12.984 8.831 20.119 0.15 0.497 0.178 1.134 0.497 1.5 3.169 3.6 3.141 8.222 3.891 12.534 2.156 12.309 1.387 24.563-1.088 36.741-0.066 0.309-0.122 0.628-0.159 0.938-0.441 2.878-0.422 2.887 2.503 2.962 0.422 1.631 0.787 3.328 1.313 4.969 2.719 8.391 3.975 17.072 5.419 25.734 0.262 1.631 0.994 3.225 1.744 4.706 1.378 2.672 1.762 5.334 0.844 8.25-0.956 3.066-2.213 5.887-4.444 8.297-2.672 2.859-5.213 5.841-7.706 8.878-0.741 0.9-1.294 2.081-1.575 3.197-0.497 2.006-1.641 3.122-3.647 3.441-4.041 0.656-7.912 0.816-11.578-1.744-2.194-1.547-4.688-0.872-6.881 0.478-3.3 2.025-5.578 4.969-7.453 8.278-1.238 2.194-2.034 4.434-2.006 7.041 0.066 5.269-0.741 10.406-2.691 15.384-0.497 1.294-0.337 2.897-0.309 4.369 0.019 0.994-0.234 1.5-1.284 1.509-1.556 0.019-2.278 1.003-2.559 2.353-0.253 1.247-0.366 2.512-0.544 3.778-0.309 2.297-1.556 4.022-3.281 5.437-2.166 1.762-5.747 0.656-7.059-2.091-0.366-0.769-0.844-1.5-1.219-2.156-2.241 2.138-4.387 4.022-6.328 6.084-1.003 1.059-1.95 1.181-3.084 0.553-2.325-1.275-3.881-3.028-3.938-5.878-0.047-2.587-0.122-5.184-0.366-7.772-0.084-0.788-0.553-1.772-1.163-2.213-1.322-0.947-2.325-0.319-2.325 1.313 0 1.275 0.178 2.541 0.122 3.797-0.047 0.872-0.103 1.922-0.572 2.559-1.594 2.091-2.053 4.491-2.372 6.956-0.291 2.241-0.797 2.409-3.075 2.194-2.138-0.197-3.431-1.472-4.753-2.859-0.816-0.844-1.537-1.772-2.456-2.475-0.45-0.347-1.35-0.497-1.828-0.262-0.497 0.234-0.834 0.994-1.003 1.603-0.131 0.469 0.047 1.050 0.15 1.556 0.553 2.906 0.281 3.469-2.297 4.734-0.581-0.019-1.219-0.019-1.856-0.019zM175.106 213.844c1.612-1.209 2.062-2.372 1.641-3.863-0.234-0.806-0.347-1.659-0.553-2.475-1.294-4.941-2.616-9.872-3.938-14.803-0.9-3.338-6.281-6.909-9.544-6.366-6.872 1.144-12.431 4.819-17.644 9.141-0.919 0.759-1.594 1.847-2.222 2.878-2.306 3.797-4.462 7.669-6.834 11.419-0.666 1.050-1.772 1.988-2.887 2.513-1.294 0.628-1.763 1.369-1.528 2.719 0.309 1.706 1.003 2.409 2.597 2.381 3.778-0.047 7.462-0.441 10.997-1.987 3.891-1.688 7.941-2.878 12.216-3.122 0.412-0.028 0.872-0.103 1.191-0.347 3.038-2.147 6.516-3.197 9.994-4.284 3.197-0.994 3.366-0.947 4.678 2.241 0.544 1.313 1.162 2.559 1.828 3.984zM56.662 201.581c0.188 1.659-0.216 3.619 1.472 4.5 1.669 0.872 2.953 3.234 5.438 1.875 0.169-0.094 0.553 0.253 0.862 0.309 0.919 0.188 1.828 0.478 2.747 0.478 3.281-0.019 6.581-0.403 9.825-0.131 2.428 0.197 4.856 0.966 7.144 1.847 3.15 1.209 6.141 2.803 9.244 4.144 0.684 0.291 1.584 0.319 2.325 0.197 2.719-0.441 3.169-1.575 1.406-3.666-3.084-3.647-5.775-7.631-9.591-10.697-3.197-2.559-6.075-5.541-9.169-8.269-0.609-0.534-1.481-0.816-2.269-1.088-3.038-1.059-6.113-1.997-9.112-3.141-2.362-0.9-2.569-0.872-3.966 1.238-1.106 1.669-2.344 3.234-3.497 4.875-0.741 1.050-1.641 2.053-2.081 3.225-0.478 1.341-0.544 2.859-0.797 4.313zM108.647 251.1c2.269-1.313 4.472-2.541 6.619-3.862 0.938-0.581 1.706-0.572 2.616-0.019 1.744 1.088 3.591 2.034 5.325 3.141 0.872 0.553 1.603 1.341 2.428 1.978 0.384 0.291 0.928 0.741 1.256 0.656 0.366-0.103 0.825-0.769 0.816-1.181-0.066-1.547-0.159-3.141-0.534-4.631-0.384-1.528-1.444-2.925-1.603-4.444-0.497-4.809-2.137-9.122-4.369-13.35-1.134-2.138-1.397-4.734-2.053-7.116-0.6-2.119-2.137-2.878-4.134-2.081-2.456 0.984-4.622 5.494-4.116 8.081 0.384 1.95 0.862 4.050 0.497 5.925-0.806 4.444-2.006 8.841-3.244 13.191-0.375 1.322-0.422 2.344 0.487 3.731zM106.144 279.047c0.637 1.087 1.181 2.119 1.856 3.066 0.253 0.356 0.787 0.506 1.181 0.759 0.216-0.441 0.703-0.947 0.609-1.322-0.234-1.059-0.609-2.109-1.134-3.066-0.263-0.497-0.956-0.741-1.444-1.106-0.291 0.497-0.6 0.975-1.059 1.659zM92.541 282.609c-0.534-0.553-1.050-1.087-1.575-1.641-0.534 0.834-1.247 1.613-1.528 2.512-0.234 0.769 0.122 1.631 1.247 1.556 1.388-0.066 1.416-1.153 1.856-2.428zM141.488 280.425c0.703-0.788 1.322-1.5 2.006-2.25-0.703-0.638-0.797-2.147-2.213-1.294-1.003 0.581-0.919 2.175 0.216 3.544z"></path>
<path d="M0 129.731c1.378-1.106 2.719-1.453 4.472-0.497 3.066 1.669 6.038-0.178 6.647-3.862 0.6-3.619 0.084-7.162-0.478-10.725-0.956-6.159-1.931-12.338-2.644-18.525-0.638-5.578 0.084-11.072 1.556-16.491 1.209-4.434 2.194-8.897 4.284-13.078 2.409-4.828 5.194-9.272 9.281-12.9 3.994-3.534 7.669-7.453 11.719-10.931 1.931-1.659 4.388-2.7 6.638-3.984 4.678-2.691 9.337-5.4 14.044-8.006 5.025-2.794 10.209-5.334 15.131-8.306 2.859-1.734 5.344-4.087 7.997-6.188 1.406-1.116 2.728-2.325 4.153-3.412 0.759-0.572 1.537-0.6 2.091 0.45 0.769 1.416 1.453 1.537 2.672 0.45 1.425-1.266 2.756-2.634 4.153-3.919 1.669-1.519 3.112-1.106 3.619 1.153 0.516 2.297-0.103 4.416-1.659 6.188-0.628 0.703-1.397 1.294-2.147 1.875-3.178 2.372-6.459 4.622-9.544 7.106-2.325 1.894-4.425 4.078-6.591 6.159-1.134 1.106-2.428 2.138-3.3 3.413-2.616 3.806-5.438 7.538-4.050 12.741 0.684 2.578 0.788 5.306 1.163 8.166 1.556-0.675 3.234-1.397 5.081-2.212 0 0.45 0.103 0.759-0.019 0.919-1.612 2.25-3.272 4.444-6.263 4.969-0.412 0.066-0.816 0.234-1.209 0.403-11.822 5.156-20.147 13.716-25.228 25.556-2.887 6.694-5.4 13.5-7.781 20.409-2.916 8.428-3.619 17.006-3.863 25.744-0.084 2.859-0.384 5.709-0.366 8.559 0.047 5.072 0.197 10.144 0.469 15.206 0.234 4.762 0.703 9.534-1.078 14.119-0.45 1.181-0.984 2.344-1.631 3.431-0.759 1.266-1.509 1.247-2.503 0.206-1.341-1.425-2.775-2.747-4.097-4.181-0.759-0.806-1.5-1.659-2.063-2.588-2.569-4.331-4.866-8.794-6.009-13.753-0.084-0.412-0.188-0.844-0.384-1.2-3.666-6.478-7.359-12.956-11.053-19.425-0.394-0.703-0.844-1.369-1.256-2.025 0-0.319 0-0.638 0-0.956z"></path>
<path d="M93.206 49.903c1.284-1.688 2.438-2.616 4.125-2.991 0.703-0.141 1.453-1.031 1.716-1.744 0.122-0.337-0.9-1.116-1.481-1.603-0.478-0.384-1.059-0.628-1.922-1.106 0.806-0.712 1.341-1.387 2.034-1.734 2.747-1.369 5.512-2.7 8.334-3.909 7.097-3.009 14.1-6.319 21.394-8.803 9.103-3.084 18.403-5.822 28.031-6.656 5.138-0.441 10.369-0.141 15.516 0.234 5.109 0.366 10.181 1.266 15.272 1.931 4.097 0.544 7.959-0.347 11.813-1.669 7.322-2.531 14.644-5.156 22.116-7.219 6.553-1.8 13.275-1.997 19.828 0.6 1.256 0.506 2.662 0.684 4.013 0.9 2.616 0.394 4.134 2.006 4.978 4.331 0.675 1.875-0.534 3.459-2.475 3.084-4.734-0.928-9.394-0.309-14.044 0.291-1.706 0.206-3.338 0.966-5.006 1.444-1.509 0.422-3.047 0.797-4.556 1.209-2.222 0.628-4.472 1.163-6.637 1.931-1.425 0.516-2.719 1.406-4.106 2.081-6.103 2.953-8.109 8.4-8.438 14.569-0.216 3.722 2.156 6.291 5.259 8.109 2.953 1.725 6.234 2.353 9.591 2.466 3.328 0.103 6.694 0.188 9.994-0.141 2.644-0.272 5.231-1.219 7.847-1.819 7.566-1.725 15.131-3.544 22.744-5.072 4.866-0.975 9.863-2.053 14.803-1.087 4.706 0.919 9.3 2.428 13.931 3.675 0.197 0.047 0.441 0.103 0.572 0.253 2.494 2.747 5.972 3.487 9.281 4.538 2.662 0.844 4.706 2.353 5.812 4.987 0.684 1.641 0.084 2.953-1.669 3.122-2.306 0.234-4.65 0.384-6.966 0.309-6.478-0.234-12.956-0.103-19.247 1.519-2.597 0.684-5.053 2.109-7.416 3.431-2.381 1.322-4.528 3.094-7.434 3.216-0.525 0.028-1.116 0.394-1.528 0.769-4.434 4.013-8.934 7.95-13.2 12.122-2.306 2.241-3.722 5.044-4.978 8.119-2.597 6.347-3.3 13.191-5.813 19.556-2.409 6.075-6.478 10.838-10.922 15.403-2.644 2.728-5.662 5.316-7.491 8.55-2.147 3.778-3.938 8.119-1.397 12.628 1.144 2.025 2.372 3.994 3.628 5.944 0.338 0.516 0.862 1.050 1.406 1.247 3.75 1.35 7.434 2.447 11.447 0.45 1.922-0.956 4.266-1.209 6.45-1.425 3.666-0.347 7.378-0.675 11.034-0.506 2.569 0.122 4.734 1.538 6.225 3.909 0.675 1.069 1.959 1.762 2.747 2.775 0.516 0.675 1.153 1.959 0.863 2.428-0.516 0.816-1.631 1.397-2.616 1.725-0.862 0.291-1.987-0.15-2.803 0.178-1.988 0.797-3.966 1.406-6.131 1.5-0.572 0.028-1.219 0.441-1.669 0.862-6.666 6.159-14.231 11.362-19.969 18.534-4.706 5.869-7.828 12.675-11.419 19.2-0.816 1.5-1.397 1.669-2.513 0.413-0.45-0.497-0.816-1.106-1.078-1.744-1.856-4.659-3.778-9.3-5.475-14.006-2.119-5.813-3.881-11.737-6.113-17.494-2.091-5.362-2.503-10.697-1.425-16.331 0.628-3.281 0.506-6.713 0.703-10.069 0.103-1.537 0.047-3.066 0.187-4.594 0.713-7.594-1.144-14.803-3.206-21.994-1.472-5.119-2.691-10.322-4.209-15.441-0.872-2.925-2.119-5.728-3.169-8.616-0.272-0.731-0.534-1.537-0.478-2.297 0.15-2.025-0.581-3.694-1.716-5.306-1.191-1.744-2.147-3.647-3.431-5.288-1.313-1.687-2.672-3.478-4.416-4.65-2.119-1.434-3.788-3.113-4.791-5.344-2.269-5.044-6.056-8.55-10.716-11.334-4.781-2.859-9.337-6.028-13.088-10.228-1.444-1.612-3.412-2.147-5.522-2.466-5.372-0.816-10.725-1.847-16.088-2.709-1.322-0.216-2.691-0.169-4.022-0.187-2.475-0.028-5.006 0.281-7.425-0.075-3.938-0.572-7.697 0.234-11.503 0.872-3.328 0.553-6.609 1.294-9.919 1.95-0.581 0.131-1.134 0.188-2.081 0.337zM201.816 124.284c-0.131-0.713-0.253-1.706-0.544-2.644-0.103-0.338-0.684-0.516-1.050-0.769-0.234 0.347-0.666 0.703-0.656 1.050 0.047 1.237 0.188 2.503 0.394 3.731 0.056 0.337 0.497 0.581 0.759 0.872 0.319-0.291 0.703-0.544 0.919-0.9 0.15-0.281 0.094-0.703 0.178-1.341zM196.491 32.241c-0.9-0.609-1.341-1.144-1.856-1.219-1.106-0.159-2.222 0.891-1.959 1.922 0.178 0.684 0.956 1.238 1.453 1.838 0.675-0.741 1.369-1.481 2.353-2.541z"></path>
</svg>
