<!-- Generated by IcoMoon.io -->
<svg version="1.1" xmlns="http://www.w3.org/2000/svg" width="300" height="300" viewBox="0 0 300 300">
<title>fighters-trapper</title>
<path d="M170.053 13.125c1.238 0.713 1.472 1.969 1.613 3.197 1.041 9.291 1.509 18.591 0.412 27.928-0.225 1.875-0.328 3.769-0.366 5.644-0.112 4.416-0.469 8.794-1.481 13.125-0.3 1.275-0.234 2.644-0.234 3.975-0.009 1.125 0.628 1.641 1.716 1.237 0.891-0.338 1.481-0.131 2.241 0.441 0.769 0.6 1.762 0.994 2.719 1.247 2.953 0.816 5.756 1.875 8.156 3.862 0.544 0.45 1.294 0.713 1.997 0.872 5.25 1.2 10.481 2.4 15.769 3.497 2.775 0.572 3.619-0.309 3.328-3.178-0.356-3.487-0.947-6.9-2.269-10.181-1.078-2.681-1.941-5.447-2.953-8.156-0.338-0.937-0.9-1.8-1.322-2.691-0.169-0.347-0.234-0.731-0.347-1.116 3.816-0.534 4.519-0.112 5.484 2.194 0.225 0.506 1.013 0.806 1.584 1.116 0.703 0.375 1.669 0.497 2.156 1.041 1.978 2.212 3.919 4.509 5.681 6.9 1.809 2.438 3.244 5.166 5.156 7.491 1.303 1.603 2.981 3.066 4.791 4.022 4.856 2.606 9.337 5.691 13.425 9.394 2.681 2.438 5.559 4.678 8.363 7.003 1.537 1.294 2.775 2.794 3.309 4.809 0.338 1.303 0.253 2.381-0.806 3.384-1.247 1.172-0.975 2.184 0.619 2.831 0.638 0.253 1.313 0.638 1.959 0.609 0.741-0.028 1.697-0.206 2.156-0.703 0.759-0.806 1.538-1.275 2.616-1.275 1.003 0 2.016-0.047 3.019 0.066 1.416 0.169 2.166 1.181 2.887 2.316 0.469 0.731 1.153 1.463 1.922 1.781 2.419 1.013 4.912 1.847 6.609 4.041 0.197 0.234 0.478 0.431 0.769 0.591 4.697 2.775 9.366 5.634 14.128 8.316 1.922 1.078 3.684 2.109 4.762 4.172 0.975 1.847 2.813 2.55 4.847 2.766 2.316 0.234 2.7 0.534 2.719 2.897 0.009 1.125-0.375 2.269-0.591 3.403-0.956-0.356-1.997-0.572-2.869-1.078-2.344-1.341-4.856-1.772-7.528-1.997-5.259-0.431-10.519-1.125-15.769-1.688-2.55-0.263-5.119-0.469-7.697-0.694-0.178-0.009-0.375-0.009-0.534-0.094-4.959-2.409-10.725-1.716-15.703-4.069-0.412-0.197-0.975-0.131-1.472-0.112-1.584 0.028-3.188 0.253-4.753 0.075-5.259-0.553-10.481-1.341-15.75-1.847-4.313-0.412-8.475-1.237-12.356-3.15-3.291-1.622-6.666-2.006-10.322-1.772-2.138 0.131-4.387-0.413-6.469-1.059-2.156-0.656-2.438-3.441-1.050-5.184 1.359-1.706 2.419-3.666 3.45-5.606 0.534-1.003-0.094-1.884-1.313-2.034-1.612-0.197-3.244-0.806-4.875 0.075-0.291 0.15-0.891-0.113-1.266-0.319-2.7-1.472-5.588-2.363-8.606-2.841-0.225-0.037-0.45-0.103-0.647-0.197-3.019-1.444-6.028-2.916-9.037-4.35-0.628-0.291-1.294-0.506-1.959-0.638-3.347-0.713-4.247-0.366-5.541 2.766-2.409 5.794-5.662 10.978-9.984 15.572-2.672 2.841-5.034 5.972-7.528 8.981-0.759 0.928-0.563 2.616 0.628 3.741 2.7 2.578 5.466 5.053 8.203 7.584 1.313 1.209 2.578 2.475 3.928 3.647 1.041 0.9 2.109 1.781 3.253 2.512 3.056 1.959 3.216 4.369 0.375 6.609-0.15 0.113-0.291 0.216-0.441 0.338-2.241 1.706-2.803 3.066-1.509 4.35 2.503 2.475 4.594 3.759 6.966 1.528 0.262-0.253 0.506-0.534 0.778-0.778 1.359-1.228 2.906-1.331 4.181-0.028 2.803 2.859 5.662 5.681 8.175 8.775 2.203 2.709 4.556 5.213 7.5 7.050 4.481 2.784 8.034 6.394 10.547 11.053 0.9 1.678 2.372 3.084 4.35 2.934 1.819-0.141 2.813-1.969 3.188-3.469 0.909-3.6 3.319-6.328 4.941-9.488 0.478-0.956 1.172-1.406 2.287-1.369 0.834 0.038 1.275 0.3 1.453 1.116 0.431 1.959 1.537 3.075 3.656 3.319 1.734 0.206 2.4 1.809 2.522 3.244 0.572 6.216 3.141 11.737 5.456 17.4 2.681 6.525 4.791 13.303 7.406 19.856 2.578 6.488 5.391 12.872 8.278 19.219 1.041 2.278 2.672 4.275 3.919 6.478 1.013 1.781 1.913 3.638 2.775 5.494 0.234 0.516 0.234 1.172 0.206 1.762-0.113 2.231-2.016 3.403-4.050 2.513-0.497-0.225-1.041-0.469-1.416-0.834-3.394-3.281-7.631-5.269-11.672-7.528-0.309-0.169-0.778-0.412-1.013-0.291-1.341 0.656-2.381-0.075-3.516-0.572-2.747-1.181-5.494-2.334-8.241-3.506-0.075-0.037-0.169-0.056-0.253-0.103-3.188-1.566-6.431-3.066-9.572-4.716-3.647-1.912-7.575-2.775-11.616-3.281s-8.034-0.891-12.094-0.066c-1.209 0.244-2.578-0.366-3.881-0.469-2.362-0.197-4.734-0.338-7.106-0.459-1.875-0.075-3.75-0.103-5.625-0.066-1.181 0.028-2.372 0.272-3.572 0.291-1.566 0.009-2.062-0.628-1.762-2.175 0.441-2.241 1.884-3.6 3.787-4.791 3.928-2.466 7.809-5.025 11.531-7.781 2.344-1.725 2.972-4.331 2.466-7.181-0.366-2.025 0.131-2.578 2.222-2.503 0.816 0.028 1.631 0 2.522 0 0-1.819 0.066-3.478-0.028-5.109-0.075-1.303-0.9-2.025-2.203-2.278-1.969-0.394-3.628 0.066-5.044 1.509-1.519 1.538-2.316 1.303-3.975 0.009-2.588-2.044-4.247-4.622-5.438-7.622-0.347-0.863-1.059-1.622-1.734-2.287-2.447-2.438-5.156-4.509-8.166-6.272-2.991-1.744-5.691-4.022-8.437-6.178-2.063-1.612-3.938-3.469-6.019-5.072-1.669-1.294-3.431-2.484-5.287-3.469-1.847-0.975-3.272-2.278-4.613-3.853-3.169-3.75-6.469-7.388-9.778-11.016-1.237-1.359-2.044-1.106-2.55 0.703-0.478 1.697-1.613 2.588-3.281 2.972-4.838 1.106-9.103 3.384-12.919 6.516-1.275 1.041-1.613 1.097-2.381-0.338-0.45-0.834-0.816-1.744-1.134-2.644-0.431-1.2-1.247-1.631-2.456-1.519-2.419 0.234-3.956 2.241-3.647 4.772 0.103 0.816 0.366 1.641 0.263 2.447-0.206 1.912-1.903 3.534-3.853 3.769-1.697 0.197-3.188 0.666-4.416 1.997-0.478 0.534-1.341 0.741-2.044 1.059-2.672 1.2-5.353 2.4-8.034 3.609-1.069 0.478-2.138 1.031-3.225 1.444-0.994 0.366-1.434 1.069-1.294 2.006 0.366 2.578 0.675 5.184 1.275 7.716 0.834 3.375 1.903 6.713 2.925 10.050 0.778 2.541 1.613 5.072 2.522 7.566 0.206 0.591 0.741 1.303 1.256 1.444 0.356 0.103 1.106-0.572 1.434-1.059 0.694-1.031 1.256-2.128 1.8-3.244 2.1-4.284 4.134-8.597 6.291-12.862 0.234-0.469 1.106-0.919 1.631-0.872 0.534 0.047 1.266 0.619 1.472 1.144 0.872 2.175 0.572 4.406 0.028 6.637-0.675 2.803-1.463 5.606-1.837 8.456-0.234 1.875 0.169 3.834 0.272 5.747 0.291 5.044 0.347 10.116 0.9 15.131 0.862 7.95 2.063 15.844 3.122 23.766 0.047 0.366 0.112 0.722 0.131 1.097 0.366 5.25 0.703 10.519 1.116 15.769 0.216 2.747 0.412 5.512 0.909 8.222 0.253 1.397 1.041 2.728 1.744 3.984 1.2 2.109 2.625 4.106 3.788 6.234 1.237 2.241 0.3 4.134-2.081 4.941-0.975 0.338-1.809 1.134-2.709 1.725-0.094 0-0.178 0-0.272 0-2.081-1.078-2.569-3.113-3.028-5.156-1.697-7.491-4.978-14.175-10.078-19.941-0.338-0.366-0.731-0.712-1.144-0.956-4.069-2.4-7.369-5.616-10.219-9.337-2.7-3.534-5.259-7.2-8.175-10.547-2.344-2.7-5.081-5.044-7.697-7.481-1.819-1.697-3.919-3.103-5.55-4.941-3.572-4.013-6.966-8.194-10.359-12.375-1.116-1.378-2.006-2.944-3.084-4.538 2.166-0.675 3.816 0.141 5.4 1.041 2.287 1.303 4.65 2.231 7.331 2.034 1.65-0.113 3.291-0.356 4.931-0.6 2.569-0.394 3.225-1.809 1.781-3.938-1.772-2.634-2.841-5.522-3.553-8.597-0.347-1.491-1.003-2.934-1.575-4.378-0.609-1.528-1.556-2.962-1.884-4.537-0.816-3.872-2.288-7.453-4.172-10.875-0.356-0.656-1.275-1.303-2.006-1.397-3.516-0.403-7.041-0.759-10.575-0.844-4.959-0.131-9.947-0.009-14.906 0-1.519 0-3.103-0.244-4.538 0.075-3.816 0.844-7.509 0.272-11.222-0.441-2.841-0.534-5.794-0.975-6.844-4.35 0-0.178 0-0.366 0-0.553 0.169-0.066 0.337-0.169 0.506-0.206 3.047-0.619 6.206-0.9 8.906-2.738 0.272-0.178 0.713-0.178 1.069-0.169 2.156 0.056 3.581-1.041 4.847-2.7 0.956-1.247 2.147-2.4 3.422-3.319 1.369-0.994 2.044-2.1 2.016-3.797-0.047-2.166 0.028-4.322 0.113-6.487 0.047-1.219 0.572-2.184 1.716-2.794 2.213-1.172 2.203-1.2 0.291-2.869-0.206-0.178-0.431-0.366-0.591-0.572-0.553-0.703-0.975-1.369-0.516-2.381 0.309-0.675 0.431-1.528 0.347-2.269-0.113-0.938-0.591-1.828-0.816-2.766-0.309-1.247-0.919-1.838-2.278-1.369-1.078 0.375-1.5-0.328-1.744-1.219-0.234-0.862 0.094-1.303 0.966-1.425 1.144-0.141 1.256-0.938 0.731-1.678-0.497-0.694-1.266-1.172-2.081-1.894 0.769-0.178 1.462-0.478 2.166-0.497 6.356-0.131 12.553-1.144 18.647-2.869 0.366-0.103 0.797-0.066 1.181-0.047 1.116 0.037 2.222 0.159 3.328 0.094 1.275-0.084 2.541-0.516 3.806-0.469 2.822 0.141 5.428-0.478 8.053-1.491 3.75-1.444 7.575-2.728 11.409-3.956 6.047-1.941 11.897-4.2 17.363-7.566 5.466-3.375 10.125-7.753 15.206-11.588 0.225-0.159 0.403-0.375 0.6-0.572 1.8-1.772 3.647-3.506 5.4-5.316 2.044-2.091 4.078-4.219 6.019-6.412 1.266-1.425 2.363-3.028 3.553-4.519 1.341-1.678 2.888-3.234 4.031-5.025 1.603-2.513 2.766-5.288 4.359-7.809 3.45-5.409 6.591-10.912 7.725-17.334 0.15-0.834 0.591-1.331 1.584-1.397 0.553-0.037 1.275-0.497 1.575-0.975 1.659-2.691 3.431-5.344 4.734-8.194 1.172-2.578 1.669-5.438 2.681-8.091 1.031-2.672 1.575-5.381 1.463-8.212-0.159-3.956-0.413-7.894-0.6-11.841-0.094-1.941 0.234-2.344 2.241-2.916 0.938 1.641 2.213 3.197 2.747 4.978 1.059 3.544 1.762 7.191 2.503 10.828 0.244 1.2 0.6 2.231 1.744 2.775 1.453 0.703 2.906 1.425 4.416 1.913 0.928 0.3 2.016 0.412 2.972 0.262 3.122-0.506 5.222-2.438 6.403-5.288 1.847-4.481 2.475-9.244 2.962-14.016 0.178-1.837 0.234-3.675 1.744-5.025 0.366 0.066 0.741 0.066 1.106 0.066zM160.988 74.803c-0.028 0-0.047 0-0.066 0 0-1.106 0.075-2.212-0.028-3.3-0.15-1.584-0.862-2.916-2.25-3.769-2.963-1.763-6.056-2.869-9.6-1.884-1.641 0.45-3.375 0.638-4.941 1.228-7.575 2.897-10.2 12.037-5.175 18.347 3.309 4.153 8.034 5.241 13.097 5.241 1.556 0 3.056-0.309 4.209-1.434 2.503-2.4 4.181-5.231 4.378-8.784 0.113-1.884 0.234-3.769 0.366-5.644zM46.941 152.175c-0.253 3.947 1.959 6.713 5.316 7.922 0.694 0.262 1.359 0.572 1.978 0.956 1.378 0.862 2.85 1.003 4.388 0.638 3.047-0.731 5.503-2.503 7.772-4.556 0.534-0.478 0.938-1.331 1.031-2.044 0.563-5.475 0.328-10.753-3.769-15.103-1.659-1.772-2.587-1.697-3.384 0.553-0.366 1.003-0.937 1.275-2.006 1.078-1.097-0.206-2.316-0.356-3.384-0.094-4.256 1.097-8.034 6.291-7.931 10.65zM118.556 108.263c-1.678 0.234-3.244 0.413-4.781 0.656-1.941 0.3-3.591 1.106-4.791 2.709-2.241 2.972-1.313 9.619 1.669 11.869 0.291 0.225 0.628 0.403 0.966 0.534 1.509 0.563 2.981 1.247 4.547 1.603 0.994 0.216 2.222 0.169 3.15-0.225 2.944-1.266 5.822-2.737 8.709-4.144 2.147-1.031 2.278-1.425 1.537-3.628-0.347-1.041-1.116-2.25-0.853-3.131 0.469-1.547-0.262-2.644-0.731-3.834-0.741-1.931-2.775-2.306-4.416-3.028-0.516-0.225-1.416 0.534-2.175 0.741-0.469 0.141-0.975 0.169-1.472 0.131-0.506-0.038-0.994-0.178-1.369-0.263zM171.534 71.203c-0.188 1.912 0.272 2.691 1.931 3.441 1.884 0.844 3.769 1.706 5.691 2.475 0.412 0.169 0.966-0.009 1.462-0.037-0.178-0.563-0.206-1.434-0.6-1.631-2.747-1.472-5.559-2.803-8.494-4.247zM136.847 56.709c-2.044-0.028-3.15 0.9-2.841 2.316 0.094 0.431 0.45 1.012 0.778 1.097 0.309 0.066 0.928-0.366 1.097-0.741 0.431-0.834 0.656-1.762 0.966-2.681zM211.134 83.231c-0.028-0.206-0.066-0.403-0.103-0.609-0.628-0.253-1.238-0.544-1.875-0.713-0.075-0.028-0.544 0.703-0.469 0.966 0.141 0.459 0.6 1.2 0.872 1.181 0.534-0.047 1.050-0.534 1.566-0.825z"></path>
</svg>
