<!-- Generated by IcoMoon.io -->
<svg version="1.1" xmlns="http://www.w3.org/2000/svg" width="300" height="300" viewBox="0 0 300 300">
<title>fighters-agile</title>
<path d="M285.422 3.103c-1.406 1.237-2.681 2.653-4.238 3.684-2.194 1.463-4.097 3.019-5.625 5.269-3.975 5.878-8.297 11.503-12.366 17.325-1.547 2.212-2.775 4.65-4.153 6.984-0.225 0.375-0.459 0.769-0.722 1.116-5.503 7.519-11.025 15.038-16.547 22.538-0.291 0.403-0.6 1.003-0.984 1.087-2.128 0.431-2.531 2.166-3.319 3.778-0.9 1.819-1.931 3.75-3.403 5.072-2.616 2.344-4.013 5.391-5.737 8.297-1.941 3.281-4.003 6.506-6.103 9.694-0.891 1.35-2.934 1.584-3.919 0.337-1.003-1.275-1.781-2.803-2.306-4.331-0.262-0.769-0.009-1.987 0.469-2.653 1.378-1.819 1.969-3.853 2.072-6.047 0.197-5.1 0.412-10.209 0.431-15.328 0-1.866-0.431-3.75-0.9-5.559-0.459-1.734-1.519-2.222-3.019-1.322-2.831 1.725-5.559 3.609-8.269 5.513-3.891 2.747-7.669 5.672-11.606 8.381-5.213 3.6-10.528 7.013-13.931 12.628-1.219 2.016-3.6 1.987-4.903-0.009-2.916-4.444-6.319-8.616-7.847-13.837-0.234-0.816-0.487-1.931-0.141-2.569 0.572-1.041 3.197-1.406 4.228-1.069 0.553 0.197 1.275 0.225 1.838 0.037 2.194-0.694 4.294-1.781 6.534-2.212 4.097-0.787 7.847-2.137 11.269-4.641 4.472-3.281 9.159-6.263 13.697-9.459 1.819-1.275 2.044-2.419 1.003-4.444-1.219-2.362-2.531-4.697-3.872-6.984-0.347-0.581-0.928-1.088-1.5-1.491-1.041-0.722-2.241-1.247-3.253-2.025-1.416-1.087-2.766-1.266-4.491-0.666-3.666 1.266-9.797-2.212-10.716-5.887-0.056-0.206-0.038-0.431-0.084-0.834 0.928-0.122 1.847-0.375 2.766-0.366 3.206 0.038 6.431 0.169 9.647 0.263 0.441 0.009 0.9 0.056 1.331-0.009 3.956-0.638 7.903-1.294 11.869-1.959 5.888-0.984 11.784-1.997 17.681-2.944 3.234-0.525 6.478-0.947 9.713-1.416 0.281-0.038 0.553-0.094 0.806-0.197 6.319-2.156 12.628-4.359 18.956-6.459 5.362-1.781 10.809-3.347 16.153-5.184 3.169-1.088 6.45-2.016 9.056-4.378 1.594-1.462 2.747-1.041 4.434 1.247 0.028 0.375 0.028 0.712 0.028 1.041z"></path>
<path d="M66.572 87.628c-1.819-2.672-1.678-2.428-4.059-0.769-10.725 7.519-15.356 19.003-20.1 30.431-0.122 0.309-0.253 0.638-0.262 0.956-0.262 8.213-1.153 16.491 1.275 24.506 1.359 4.491 3.394 8.794 5.241 13.134 0.309 0.722 1.125 1.378 1.875 1.734 1.584 0.778 2.081 1.706 1.734 3.403-0.816 3.9-1.556 7.809-2.334 11.709-0.122 0.6-0.15 1.266-0.459 1.762-1.406 2.269-1.378 4.734-1.266 7.256 0.056 1.209 0.056 2.475-0.262 3.609-0.487 1.753-1.725 2.278-3.366 1.528-5.297-2.447-10.556-4.922-15.019-8.794-2.531-2.194-4.519-4.706-5.653-7.875-0.9-2.503-1.866-4.988-2.916-7.434-2.4-5.625-3.516-11.606-4.978-17.494-0.441-1.791-1.219-3.497-1.809-5.25-0.141-0.403-0.169-0.863-0.169-1.294 0.056-2.531 0.141-5.053 0.206-7.584 0-0.169-0.056-0.337-0.028-0.497 0.581-3.581 0.891-7.256 1.847-10.744 1.181-4.378 2.719-8.672 4.416-12.881 2.213-5.484 4.584-10.931 7.172-16.256 1.678-3.487 3.956-6.666 5.784-10.097 2.944-5.569 7.781-9.253 12.741-12.703 4.406-3.075 9.169-5.616 13.781-8.363 1.528-0.9 3.056-1.791 4.631-2.625 0.684-0.366 1.416-0.656 2.156-0.844 3.262-0.834 6.544-1.622 9.834-2.428 0.056-0.009 0.112-0.028 0.15-0.056 5.325-3.806 11.897-3.15 17.794-4.894 1.491-0.441 3.169-0.178 4.753-0.403 1.566-0.225 3.197-0.431 4.65-1.012 1.434-0.581 2.709-0.872 4.144-0.197 0.347 0.169 0.75 0.337 1.116 0.309 3.028-0.234 5.381 0.919 7.256 3.262 0.366 0.441 0.984 0.712 1.528 0.975 3.572 1.781 7.172 3.497 10.744 5.306 1.088 0.544 1.969 0.459 3.141 0.066 1.35-0.459 2.888-0.431 4.35-0.431 0.684 0 1.406 0.366 2.016 0.741 5.756 3.422 10.688 7.641 15.056 12.853 3.291 3.919 4.931 8.419 7.059 12.778 2.831 5.831 5.709 11.653 8.091 17.691 1.116 2.822 1.331 6.056 1.547 9.141 0.375 5.381 0.684 10.772 0.572 16.144-0.094 5.138-0.469 10.313-2.766 15.094-0.141 0.291-0.309 0.609-0.338 0.928-0.628 7.228-4.013 13.313-8.072 19.059-2.906 4.116-5.728 8.325-9.572 11.709-1.472 1.294-2.419 3.178-3.769 4.65-3.881 4.238-7.5 8.784-13.144 10.959-1.003 0.384-1.706 1.519-2.616 2.213-1.162 0.891-2.306 1.903-3.628 2.484-2.887 1.266-5.906 2.194-8.812 3.403-2.456 1.013-4.116 0.722-5.447-1.613-0.628-1.097-1.013-2.512-0.984-3.778 0.066-4.041-0.666-7.922-1.519-11.85-0.656-3-0.713-6.159-0.844-9.253-0.028-0.628 0.713-1.472 1.322-1.866 0.366-0.225 1.237 0.122 1.753 0.431 0.497 0.291 0.834 0.872 1.247 1.303 1.275 1.331 2.334 1.181 3.019-0.544 0.628-1.584 1.162-3.084 3.056-3.656 0.6-0.178 0.984-1.013 1.5-1.528 4.875-4.781 9.778-9.534 14.663-14.325 3.084-3.028 4.434-6.956 5.972-10.894 1.866-4.753 1.444-9.863 2.963-14.616 0.094-0.319 0.206-0.656 0.178-0.975-0.384-5.109-0.609-10.238-1.275-15.309-0.262-2.053-1.294-4.116-2.372-5.916-2.166-3.609-4.613-7.041-6.956-10.547-0.206-0.319-0.459-0.637-0.741-0.9-1.566-1.463-3.141-2.916-4.734-4.35-6.516-5.888-14.016-9.647-22.866-10.519-1.65-0.169-3.309-0.403-4.959-0.553-1.809-0.169-3.459-0.178-5.269 0.722-1.753 0.872-3.984 0.741-5.991 1.163-4.125 0.872-8.25 1.753-12.328 2.794-3.094 0.787-5.513 2.775-7.716 5.044-0.919 0.891-1.894 1.706-2.906 2.644zM67.181 62.325c0.684-0.722 1.359-1.444 2.044-2.184-0.394-0.225-0.872-0.712-1.172-0.628-1.116 0.347-1.641 1.181-0.872 2.803zM66.759 82.153c0.122 0.112 0.262 0.206 0.394 0.319 0.778-0.638 1.594-1.247 2.316-1.941 0.178-0.178 0.094-0.628 0.122-0.956-0.337 0.028-0.816-0.084-0.975 0.094-0.666 0.778-1.247 1.65-1.866 2.484z"></path>
<path d="M134.559 272.297c0.094-1.219 0.234-2.428 0.263-3.656 0.037-1.556-0.844-2.503-2.269-2.512-1.303-0.009-2.025 0.872-1.969 2.503 0.028 0.666 0.347 1.35 0.253 1.969-0.15 0.947-0.384 1.941-0.9 2.719-0.684 1.003-1.566 1.125-2.644 0.169-2.428-2.184-5.006-4.238-7.5-6.347-2.569-2.156-5.475-3.028-8.841-2.503-2.128 0.338-3.928-1.116-4.65-3.422-3.197-10.088-6.375-20.175-9.619-30.244-0.206-0.638-0.666-1.322-1.209-1.697-2.363-1.641-4.809-3.169-7.228-4.734-0.497-0.338-1.172-0.544-1.491-1.003-3.516-4.903-7.228-9.694-10.378-14.85-1.734-2.85-3.469-5.794-4.922-8.794-2.297-4.753-4.388-9.675-4.809-15.103-0.319-4.088-1.172-8.156-1.247-12.244-0.112-5.241 0.15-10.491 0.572-15.731 0.225-2.794 1.116-5.541 1.706-8.306 0.816-3.825 2.1-7.462 4.125-10.838 2.053-3.431 3.891-6.975 5.991-10.397 0.769-1.247 1.903-2.306 2.991-3.319 1.669-1.556 3.6-2.85 5.109-4.519 4.875-5.391 11.466-8.531 16.959-13.116 2.541-2.128 5.484-3.797 8.091-5.859 0.956-0.769 1.725-2.016 2.137-3.197 0.891-2.559 3.741-3.891 6.131-2.597 1.556 0.844 3.122 1.697 4.603 2.681 2.297 1.547 4.069 3.525 5.081 6.206 0.816 2.184 1.959 4.228 2.906 6.347 0.947 2.1 0.487 3.825-1.444 5.044-3.047 1.922-6.141 3.75-9.216 5.625-0.413 0.263-0.806 0.6-1.181 0.919-3.234 2.878-6.487 5.756-9.684 8.672-0.769 0.694-1.266 1.669-1.987 2.419-0.684 0.694-1.406 1.547-2.25 1.809-1.237 0.375-1.941 1.041-2.616 2.072-1.875 2.887-3.825 5.737-5.859 8.494-3.197 4.303-5.194 9.028-5.381 14.438-0.197 5.766-0.497 11.531-0.459 17.297 0.009 1.922 0.891 3.862 1.5 5.756 0.806 2.475 1.734 4.903 2.597 7.35 0.656 1.819 1.237 3.684 1.959 5.475 0.872 2.213 1.725 4.462 2.85 6.544 1.013 1.875 2.166 3.75 3.609 5.306 2.447 2.644 5.166 5.044 7.781 7.547 1.463 1.388 2.213 1.491 3.797 0.347 1.837-1.303 3.469-2.794 5.887-3.262 1.322-0.262 2.344-1.791 3.656-2.513 3.15-1.734 6.375-3.375 9.591-4.988 1.612-0.806 3.028-0.581 4.144 0.956 1.753 2.447 3.919 4.031 6.956 4.35 0.319 0.028 0.638 0.206 0.919 0.375 3.469 2.072 7.256 3.309 11.184 4.181 0.431 0.094 0.862 0.225 1.294 0.347 1.809 0.516 2.672 1.5 2.616 2.963-0.066 1.5-1.387 3.253-2.878 3.487-2.072 0.338-3.347 1.678-4.462 3.225-1.153 1.584-0.366 3.178 1.622 3.431 1.847 0.234 3.197-0.628 4.35-1.959 0.9-1.041 1.781-2.137 2.775-3.103 1.35-1.294 2.934-1.622 4.762-1.069 5.541 1.706 10.931 3.741 15.994 6.666 3 1.734 6.347 2.887 9.487 4.416 2.184 1.069 4.247 2.334 6.375 3.497 0.234 0.141 0.469 0.403 0.713 0.413 2.475 0.122 3.684 2.072 5.128 3.609 0.384 0.412 0.694 1.359 0.487 1.809-0.338 0.694-1.116 1.622-1.734 1.65-1.781 0.084-3.15 0.638-4.491 1.819-0.553 0.488-1.819 0.525-2.616 0.291-2.672-0.759-5.156-0.309-7.838 0.169-4.838 0.862-8.475 4.031-12.834 5.728-1.116 0.431-1.416 1.378-1.059 2.475 0.628 1.931 0.291 3.609-1.144 5.053-0.15 0.15-0.319 0.338-0.375 0.544-1.434 4.35-5.081 6.712-8.381 9.394-2.372 1.931-2.803 4.209-1.247 6.881 0.956 1.622 2.072 3.178 2.887 4.866 1.041 2.128 1.781 4.387 2.794 6.534 0.759 1.622 1.697 3.169 2.681 4.669 0.694 1.059 1.622 1.959 2.4 2.972 0.666 0.872 1.528 1.791 0.609 2.962-0.975 1.238-2.072 2.587-3.863 1.997-3.084-1.012-6.366-1.641-8.822-4.041-0.787-0.778-1.678-1.462-2.484-2.213-2.428-2.241-5.184-3.9-8.119-5.428-4.931-2.588-10.238-4.669-14.063-9.028-0.291-0.337-0.666-0.581-1.041-0.816-3.338-2.137-3.347-2.166-3.141-6.019zM187.153 235.256c-0.225 0.15-0.441 0.291-0.666 0.441 0.15 0.6 0.178 1.303 0.516 1.781 0.459 0.656 1.116 1.238 1.791 1.669 0.459 0.291 1.116 0.291 1.678 0.413-0.066-0.694 0.122-1.622-0.253-2.016-0.872-0.919-2.025-1.556-3.075-2.297z"></path>
</svg>
