<svg xmlns="http://www.w3.org/2000/svg" viewBox="0 0 300 300"><path d="M174.694 20.625h1.903c.497.103 1.003.272 1.509.319 2.362.253 4.734.431 7.097.712 1.969.225 2.306.778 2.184 2.7-.084 1.238.038 2.503.188 3.759.159 1.406.581 2.794.656 4.209.403 7.003.741 13.997 1.05 21.009.159 3.637 1.341 4.622 4.978 4.228a79 79 0 0 1 7.425-.45c3.262-.066 6.553.169 9.806.019 7.762-.384 15.506-.938 23.259-1.406 1.153-.066 2.306-.019 2.7 1.359.413 1.491-.478 3.262-1.8 3.759-1.875.712-3.778 1.331-5.625 2.119-.609.272-1.041.9-1.575 1.359.497.412.938.956 1.509 1.209 2.513 1.087 5.156 1.922 7.566 3.188 2.559 1.341 5.156 1.987 8.034 1.903 4.134-.122 8.231.131 12.206 1.444 1.05.338 2.091.544 1.903 2.006s-.9 2.203-2.428 2.391c-1.716.206-3.412.628-5.072 1.134-1.734.525-2.053 2.203-.609 3.347 1.097.872 2.353 1.65 3.656 2.138 2.869 1.069 5.775 2.053 8.719 2.803 1.406.375 3.084.497 4.472.103 2.578-.75 4.8-.216 6.966 1.041 1.875 1.088 2.053 1.669 1.406 3.769-.703 2.241-.234 2.766 2.137 2.953 2.728.206 5.447.553 8.166.9.441.056 1.087.459 1.153.816.591 2.606 1.35 5.213 1.509 7.866.188 3.019.103 3.206 3.131 3.328 3.066.122 5.325 2.616 5.1 5.681-.141 2.137-.169 4.294-.525 6.394-.319 1.903-.019 3.647.581 5.4 1.256 3.759 1.528 7.622 1.341 11.531a380 380 0 0 1-.525 8.644c-.272 3.506-.394 7.031-1.022 10.481-.459 2.55-1.8 4.931-2.475 7.462-2.119 7.931-6.253 14.578-11.981 20.456-6.581 6.75-14.391 11.438-23.222 14.316-7.059 2.306-14.353 3.891-21.572 5.691-7.256 1.819-14.644 1.866-22.05 1.509-1.387-.066-2.119-.713-2.353-2.072-.309-1.847.459-3.047 2.494-3.544 6.375-1.584 12.506-3.788 18.478-6.506 5.091-2.306 10.35-4.247 15.422-6.591 9.9-4.603 18.028-11.137 21.544-21.891 1.406-4.256 2.194-8.775 2.7-13.247.384-3.413.422-7.05-.356-10.378-1.388-5.841-2.372-11.944-6.347-16.837-1.087-1.341-2.156-2.691-3.394-3.863-2.269-2.138-5.372-2.306-8.184-3.188-6.188-1.941-12.413-1.463-18.609.056-1.266.319-2.072 1.2-1.978 2.513.216 3.028.375 6.094.872 9.094.525 3.216 1.706 6.328 2.091 9.544.609 5.072 2.906 9.291 5.85 13.266 1.659 2.259 4.05 3.853 6.628 4.322 3.169.591 6.272 1.219 9.338 2.269 4.303 1.481 6.141 5.363 3.966 9.309-3.881 7.031-10.744 10.669-17.175 14.766-.037.028-.094.038-.15.056-2.006.628-3.3.206-4.491-1.528-2.616-3.806-6.122-6.506-10.388-8.241a335 335 0 0 0-7.378-2.869c-6.441-2.438-12.713-5.137-18.15-9.497-1.762-1.406-3.713-2.597-5.662-3.741-5.222-3.075-9.506-7.181-13.275-11.841-1.031-1.275-1.659-2.916-2.259-4.481-.384-.984-.834-1.509-1.913-1.444-.684.037-1.378-.028-2.062.066-1.575.216-1.978.947-1.359 2.391 2.203 5.128 5.353 9.581 9.778 13.022 4.05 3.131 8.203 6.141 12.319 9.169 2.147 1.566 2.119 2.709-.056 4.181-.675.45-1.322 1.088-1.697 1.8-1.031 1.95-.544 4.753.938 6.394a44 44 0 0 1 1.659 1.903c1.781 2.147 1.641 4.556-.338 6.469-2.803 2.7-5.522 5.503-8.419 8.1-5.063 4.556-9 10.059-13.153 15.366-.394.516-.806 1.209-.806 1.819-.019 2.475-1.406 3.9-3.328 5.184-.947.628-1.762 1.631-2.306 2.653-.778 1.491-.272 2.175 1.406 2.203 5.972.103 11.953.253 17.925.234 6.234 0 12.459-.103 18.694-.234 5.916-.122 11.831-.356 17.747-.497 1.172-.028 1.866-.356 1.894-1.716.056-2.391-.019-2.531-2.494-2.55-.375 0-.75 0-1.116-.084-1.191-.272-1.809-.975-1.8-2.241.019-1.2.291-2.213 1.697-2.466 2.334-.422 4.659-.938 7.022-1.2.984-.103 2.194.094 3 .619 2.231 1.481 4.125 1.153 6.056-.478 2.222-1.866 4.762-3.019 7.641-3.6 2.784-.572 5.541-1.341 8.231-2.241 3.253-1.069 6.45-2.325 9.647-3.562 2.353-.9 2.522-.853 3.384 1.556.272.741.45 1.528.769 2.241.778 1.697.403 2.953-1.134 4.078-1.65 1.209-3.319 2.494-4.697 4.012a15.1 15.1 0 0 0-2.728 4.35c-.75 1.838-.159 2.531 1.8 2.662.844.056 1.688.038 2.541.028 6.188-.084 12.356-.197 18.544-.272 1.828-.019 3.647.084 5.475.188.375.028 1.003.309 1.031.525.15 1.275.525 2.7.103 3.806-.516 1.378-1.556 2.681-2.672 3.684-3.75 3.384-7.397 6.966-11.522 9.863-12.713 8.972-25.584 17.766-39.694 24.497-4.509 2.147-9.188 3.966-13.884 5.653-3.656 1.322-7.547 2.016-11.222 3.328-13.509 4.791-27.487 7.406-41.681 9.037-2.353.272-4.762.084-7.125.272-4.416.338-8.813.816-13.219 1.191-1.997.169-3.984.225-5.981.319h-8.878c-.412-.084-.806-.197-1.237-.253-4.406-.591-8.803-1.134-13.191-1.762-11.475-1.65-22.556-4.837-33.675-8.072-15.937-4.622-31.003-11.016-44.803-20.269-4.697-3.15-9.159-6.609-13.809-9.797-6.3-4.322-11.625-9.75-17.241-14.869-.15-.131-.253-.319-.412-.525 4.378-1.65 8.803-2.447 13.387-1.978 1.716.169 2.803-.459 3.619-1.791-.609-1.444-1.762-1.941-3.187-1.959-1.266-.028-2.55.019-3.797-.169-.909-.131-1.772-.591-2.953-1.012.797-.731 1.2-1.256 1.716-1.584 2.7-1.659 5.344-3.45 8.184-4.809 1.659-.806 3.666-1.191 5.494-1.2 1.134 0 2.812.778 3.3 1.697 1.341 2.503 3 2.794 5.325 1.734.337-.141.731-.141 1.087-.197 1.378-.234 2.334-.975 2.7-2.344.553-2.091 1.163-4.153 1.538-6.262.356-1.978.966-3.731 2.391-5.213 5.953-6.216 11.419-12.741 15.966-20.137 5.344-8.691 11.578-16.809 17.212-25.322 1.913-2.906 3.225-6.234 4.678-9.431.609-1.341-.019-2.297-1.509-2.494-1.509-.197-3.056-.187-4.584-.169-3.103.019-4.125-.872-4.622-3.938-.581-3.534.544-6.647 2.147-9.684 1.2-2.259.881-3.787-.75-5.775-.553-.666-.9-1.659-.966-2.531-.159-2.091-.797-2.569-2.775-1.697-.581.253-1.097.628-1.641.956-6.084 3.703-12.103 7.509-18.272 11.1-3.778 2.194-7.734 4.116-11.597 6.113-1.031.544-1.491 1.331-1.697 2.475-.103.6-.666 1.463-1.153 1.566-.591.122-1.612-.253-1.959-.75-.844-1.256-1.65-2.625-2.053-4.059-1.134-4.116-3.291-7.734-5.269-11.447-1.294-2.428-2.484-2.784-5.091-1.744-3.431 1.378-6.262 3.684-8.372 6.731-.947 1.359-2.091 2.006-3.619 1.491-1.875-.619-3.694-1.444-5.981-2.372 2.616-1.378 2.728-3.469 2.428-5.794 2.728.797 4.913.263 6.375-2.053 1.134-1.791 2.428-3.047 4.762-3.131 1.547-.056 1.941-1.153 1.228-2.475-1.266-2.344-3.581-3.638-6.009-3.244-4.116.675-5.559 1.425-5.662 4.65-.028.881-.553 1.069-1.294.769-.441-.169-.863-.413-1.294-.581-2.034-.778-3.45.028-3.806 2.147-.084.459.019 1.069-.253 1.378-.375.441-1.153 1.088-1.491.947-1.341-.544-2.897-1.069-3.75-2.109-1.275-1.556-2.175-3.469-3.009-5.334-1.031-2.325-.666-4.547.797-6.722 1.809-2.719 3.356-5.606 5.072-8.372.909-1.481 1.781-3.028 2.944-4.284 3.019-3.244 5.625-6.562 7.556-10.706 2.372-5.044 4.969-9.966 6.816-15.253.197-.572.553-1.087.834-1.594 1.809.375 1.341 1.725 1.594 2.794.188.788.478 1.884 1.069 2.194 1.022.572 1.678-.384 2.184-1.256.581-1.003 1.528-1.172 2.456-.694.581.291 1.041.881 1.453 1.406 3.544 4.603 7.069 9.206 10.556 13.847.694.938 1.453 1.847 2.7 1.594 2.119-.431 4.2-1.069 6.478-1.659-.553-.806-.844-1.237-1.162-1.659-3.778-5.081-7.584-10.134-11.353-15.225-2.212-2.972-2.25-6.609-.169-9.656 1.641-2.4 3.328-4.753 4.959-7.144.553-.806 1.162-1.425 2.203-1.022 1.219.478.712 1.425.572 2.297-.431 2.578-.881 5.184-1.237 7.781-.056.384.216.947.525 1.191.225.169.947.084 1.125-.131 1.237-1.603 2.728-1.134 4.322-.741 2.766.684 3.863.216 5.541-2.119 2.091-2.916 4.125-5.859 6.3-8.728.731-.956 1.781-1.659 2.7-2.475.225.103.45.225.684.328-.187 1.172-.272 2.372-.572 3.516-.647 2.531-1.509 5.025-2.072 7.575-.384 1.734 1.003 2.794 2.606 2.025 1.022-.478 1.913-1.303 2.7-2.119 2.981-3.122 5.934-6.3 8.859-9.497 1.069-1.172 2.241-1.444 3.966-.712-.403.984-.797 1.922-1.163 2.869-.778 1.987-1.697 3.947-2.231 6.009-.159.628.553 2.006 1.172 2.241 2.259.9 4.622 1.294 7.134.816 1.406-.272 2.916-.122 4.359-.084 1.472.056 2.916.3 4.388.291 2.475-.019 4.941-.225 7.406-.253 1.472-.019 3.019.487 4.406.197 2.541-.525 4.444.731 6.544 1.509-4.153 11.728-19.491 31.209-28.763 38.653-2.137 1.716-4.05 3.684-6.169 5.456-3.478 2.906-7.031 5.719-10.556 8.569-.928.75-1.781.619-2.709-.122-.553-.441-1.284-.909-1.941-.919a61 61 0 0 0-6.938.291c-.553.056-1.087.778-1.547 1.266-.609.628-1.125 1.341-1.678 2.025-.328-.872-.675-1.744-1.003-2.606-.056-.131 0-.319.019-.478.281-4.622.553-9.244.844-13.866.094-1.584-.272-1.922-1.809-1.556-1.284.3-2.559.647-3.834.984-1.069.272-1.537.938-1.491 2.091.131 2.794.131 5.587.281 8.391.272 5.456.272 5.438-4.538 8.034-1.303.713-2.419.581-3.422-.478-1.491-1.566-3.066-3.075-4.444-4.734-1.294-1.566-2.916-2.194-4.866-2.147-1.594.056-2.016.731-1.069 1.969 2.447 3.159 4.988 6.244 7.538 9.328.881 1.069 2.062 1.556 3.516 1.463 1.387-.084 2.447.525 2.981 1.866.862 2.156 1.106 2.297 3.216 1.219 5.728-2.944 11.409-5.944 17.1-8.925.75-.394 1.547-.75 2.316-1.125-.272.675-.684 1.05-1.153 1.359-1.641 1.069-3.328 2.053-4.931 3.159-.769.525-1.537 1.153-2.062 1.913-.816 1.191-.291 3.028.881 3.075 1.641.066 3.581.291 4.903-.431 4.481-2.447 9.084-4.875 13.031-8.081 14.597-11.803 27.122-25.5 36.516-41.841 1.406-2.447 2.578-5.044 3.872-7.566.234-.459.506-.947.881-1.294 1.491-1.359 1.641-2.803.3-4.266-.891-.975-1.725-2.091-2.813-2.756-1.359-.816-1.463-1.894-1.444-3.216.094-5.644.15-11.278.234-16.922.028-1.481-.478-2.438-1.894-3.112-.984-.478-1.781-1.397-2.719-2.175.881-1.069 1.678-1.913 2.363-2.831 2.1-2.85 4.781-4.303 8.438-4.012 1.041.094 1.847.337 2.063 1.303.413 1.884.9 3.806.872 5.709-.056 3.309-.834 6.628-.647 9.909.225 3.928 1.266 7.866 5.119 9.956 4.303 2.306 8.944 3.684 13.828 4.294 7.453.937 14.569-.581 21.394-3.225 6.628-2.569 11.991-6.694 13.884-14.053.084-.309.159-.637.328-.881 2.419-3.572.469-10.612-3.459-13.238-2.831-1.969-2.662-4.078.338-5.962zm-50.878 132.309c.337-2.372.797-4.5.909-6.628.066-1.134-.056-2.55-.694-3.403-1.875-2.541-4.041-4.856-6.084-7.256a1.7 1.7 0 0 0-.469-.422c-1.125-.694-2.353-.872-3.394-.028-1.134.919-.338 1.922.263 2.784 1.341 1.903 2.728 3.759 4.106 5.606a7.13 7.13 0 0 1 .478 7.847c-2.156 3.731-4.125 7.547-6.084 11.381-1.219 2.381-2.063 4.959-3.384 7.284-3.441 6.066-7.359 11.803-12 17.016-.553.619-1.256 1.088-1.875 1.659-1.359 1.228-3 2.259-3.984 3.722-1.913 2.822-3.478 5.859-5.091 8.869-.9 1.669-1.763 2.091-3.403 1.069-.581-.375-.966-1.05-1.481-1.547-.422-.413-.9-.984-1.388-1.041-.928-.084-1.913.056-2.831.253-1.237.262-2.156 1.069-2.287 2.325-.478 4.331-2.709 8.053-4.237 12.009-.469 1.191-1.744 2.203-2.878 2.934-.909.581-1.256 1.256-.891 2.006.225.45 1.134.778 1.763.797 1.256.019 2.513-.309 3.769-.319 9.084-.103 18.169-.122 27.253-.253 13.153-.188 26.306-.422 39.459-.628.778-.019 1.706.169 1.706-1.041 0-1.125-.591-1.791-1.734-1.819-.844-.019-1.772.272-2.512-.019-.853-.319-1.631-1.012-2.297-1.688-.197-.197-.094-1.134.141-1.266 1.678-.966 3.328-2.259 5.156-2.578 4.172-.75 8.353-1.744 12.694-1.462 1.678.103 3.262-.75 4.106-2.278 1.828-3.319 4.613-4.622 8.269-4.322 1.238.103 1.912-.516 2.381-1.631.778-1.903 1.594-3.788 2.522-5.606 3.544-6.984 7.05-14.016 10.809-20.906 1.809-3.319 2.456-6.694 2.447-10.425-.019-2.972-.844-5.044-3.338-6.778-3.197-2.231-4.734-5.541-4.219-9.459.356-2.7 1.059-5.363 1.594-8.053.084-.366.094-.769.131-1.069-1.425.253-2.7.6-3.994.666-3.3.141-6.647-.15-9.909.262-5.606.713-11.016 2.363-16.275 4.434-1.763.694-3.516 1.406-5.222 2.222-5.728 2.7-11.372 5.587-18.028 6.778zm-2.175-81.159c-.169.056-.338.122-.516.169-.084.872-.169 1.734-.225 2.597-.103 1.444-.122 2.925-.3 4.369-.225 1.819-.769 3.619-.863 5.438-.187 3.619-.225 7.266-.216 10.884.019 1.941.197 3.872.384 5.813.272 2.681.825 5.325.844 7.997.131 9.272 2.297 18.263 3.544 27.384.169 1.237.872 2.006 2.166 2.119 1.266.122 2.156-.366 2.559-1.613.066-.197.15-.394.234-.581 1.481-3.281 4.472-4.088 7.378-1.978.806.591 1.613 1.2 2.428 1.781 1.997 1.425 4.219 2.091 6.666 2.194 3.984.169 7.744-.591 11.456-1.978 1.866-.694 3.816-1.228 5.775-1.528 3.966-.619 7.95-1.022 11.934-1.528 2.306-.291 2.7-.684 2.194-2.944s-1.284-4.434-1.941-6.656c-1.387-4.641-3.019-9.272-2.269-14.222.684-4.688 1.341-9.394 2.353-14.016.881-4.041 2.287-7.988 3.338-12 .291-1.097.581-2.475.15-3.394-1.116-2.344-2.616-4.491-3.947-6.675-4.2 1.922-4.491 2.494-4.894 6.656-.581 5.906-.516 11.906-2.719 17.569-.384.975-.478 2.044-.731 3.075-1.744 7.266-2.878 14.662-5.794 21.628-.441 1.087-.938 1.425-2.034.713.253-.684.488-1.378.731-2.044 3.094-8.316 4.847-17.006 6.544-25.659.919-4.791 1.191-9.703 1.706-14.559.066-.619-.169-1.275-.272-1.913-.656.122-1.35.122-1.931.356-3.319 1.359-6.534 2.981-9.919 4.144-8.072 2.756-15.9 1.913-23.372-2.194-1.388-.769-2.287-.459-2.428 1.153-.234 2.475-.169 4.978-.3 7.472-.375 6.553-.263 13.05 1.594 19.397 1.237 4.247 2.522 8.456 3.75 12.703.103.356-.084.806-.159 1.209-.469-.169-.984-.272-1.35-.563-.253-.197-.291-.666-.412-1.022-.947-2.897-2.156-5.747-2.775-8.709-1.734-8.278-3.356-16.594-4.725-24.938-.553-3.375-1.153-6.881.122-10.313.131-.375-.047-.984-.291-1.341-1.106-1.547-2.306-3.009-3.478-4.481zm-70.425 23.85c2.916.066 4.969-1.791 4.997-4.491.019-2.578-1.406-3.984-4.163-4.059-3.056-.084-5.372 1.913-5.419 4.734-.066 2.363 1.612 3.759 4.584 3.825zm-24.197-3.141c2.869.019 5.559-2.859 5.456-5.269-.038-1.003-.019-2.006-.197-2.981-.103-.6-.422-1.5-.863-1.631-.572-.188-1.584.028-1.969.459-1.903 2.175-3.694 4.453-5.419 6.778-.225.3-.038 1.359.272 1.547.975.553 2.1.872 2.719 1.106zm158.072-29.718c-.253-.609-.516-1.256-.778-1.884-.675.403-1.575.637-1.978 1.219-1.706 2.4-3.281 4.884-4.838 7.378-.319.497-.544 1.191-.497 1.763.037.544.366 1.341.778 1.509s1.294-.15 1.612-.544c1.678-2.156 3.3-4.35 4.819-6.628.478-.741.553-1.744.881-2.803zm-4.041 65.268c1.266-3.619.394-6.891-.225-10.144-.084-.394-1.2-.684-1.875-.816-.159-.028-.731.806-.675 1.191.478 3.253.769 6.572 2.775 9.778z"/><path d="M122.372 156.75c1.678.816 3.197 1.425 4.575 2.297.703.441 1.266 1.256 1.659 2.016 1.875 3.544 2.616 7.416 3.15 11.344.272 2.091.713 4.153 1.106 6.216.384 1.978-.122 2.634-2.1 2.7-2.306.084-3.656 1.753-3.291 4.022.169 1.05.731 1.744 1.828 1.866 2.1.253 4.238.834 6.291.619 2.231-.225 4.453-1.088 6.047-2.925.862-1.003 1.612-2.109 2.541-3.019.384-.366 1.172-.6 1.697-.488.319.084.609.9.675 1.406.225 1.847-.412 3.403-1.762 4.688-1.097 1.05-1.613 2.325-1.341 3.862.291 1.622 1.425 2.447 3.084 2.203 1.575-.234 2.897-.909 3.797-2.297.806-1.228 1.706-2.4 2.559-3.619 1.491 1.238 1.913 2.766 1.134 4.547-1.8 4.144-4.669 7.275-8.738 9.422-4.387 2.306-9.056 2.466-13.734 1.988-1.838-.188-3.581-1.444-5.306-2.306-1.388-.694-2.644-1.341-4.322-.731-1.425.497-2.878-.9-2.541-2.278.984-3.891.591-7.763-.337-11.559-.647-2.7-1.763-5.259-2.663-7.884-.188-.544-.516-1.088-.525-1.631-.019-1.153-.609-1.734-1.622-2.044-1.153-.356-1.547-1.087-.938-2.156 3.019-5.437 6.056-10.847 9.094-16.275z"/></svg>