<svg xmlns="http://www.w3.org/2000/svg" xml:space="preserve" fill-rule="evenodd" stroke-linejoin="round" stroke-miterlimit="2" clip-rule="evenodd" viewBox="0 0 300 300"><path fill-rule="nonzero" d="M155.822 0c1.388.797 1.631 2.128 1.828 3.572.431 3.281.909 6.572 1.472 9.844.178 1.003.797 1.941 1.078 2.944.412 1.434.694 2.916 1.078 4.35.281.994.441 2.138 1.041 2.906 1.106 1.397 1.575 2.906 1.556 4.603-.009 1.538.694 2.719 1.397 4.031.909 1.678 1.284 3.637 1.959 5.447a33 33 0 0 0 1.509 3.375c1.331 2.597 3.15 5.034 4.012 7.781 3.009 9.497 7.613 18.112 13.463 26.109.197.291.403.581.591.872.047.075.028.188.084.675-3.9.319-7.791.769-11.691.928-3.928.159-7.866.037-11.841.037 0 2.025 1.106 2.578 2.475 2.859 2.991.619 6.075.966 8.972 1.903 4.2 1.35 8.503 2.672 12.319 4.809 4.519 2.541 8.7 5.747 12.759 9.009 3.084 2.475 5.737 5.475 8.578 8.241.216.216.441.431.591.675 2.466 4.369 6.244 7.744 9 11.944 3.272 5.006 5.869 10.144 7.266 15.928.713 2.991.778 2.981 3.741 2.063 3.197-.984 3.431-1.237 3.516-4.641.113-4.884.113-9.769.281-14.644.028-.872.581-1.725.891-2.578.891.469 1.884.806 2.672 1.425 2.016 1.547 3.741 3.609 5.944 4.772 7.284 3.825 14.7 7.397 22.134 10.931 2.137 1.022 4.491 1.659 6.787 2.306 2.016.563 3.909 1.209 5.372 2.831.45.506 1.097.919 1.725 1.181 2.906 1.2 5.869 2.306 8.784 3.487 4.003 1.622 8.006 3.263 11.981 4.931 1.144.478.956 1.359.103 1.8-2.794 1.434-5.653 2.747-8.522 4.031-1.359.6-3.009.769-4.162 1.622-3.741 2.747-7.95 4.481-12.169 6.253-2.869 1.209-5.7 2.419-7.978 4.744-1.031 1.059-2.756 1.397-4.069 2.231-3.741 2.353-7.416 4.781-11.128 7.181-.338.216-.666.487-1.031.619-5.1 1.697-9.188 5.137-13.669 7.903-.525.328-1.153.487-1.734.713-.15-.6-.441-1.219-.441-1.828.047-5.269.122-10.547.244-15.816.047-2.231-.141-2.503-2.381-2.672-1.209-.084-2.419-.122-3.628-.188-1.172-.066-1.884.431-1.8 1.659.516 7.022-1.838 13.519-3.9 19.997-1.2 3.778-2.831 7.463-5.784 10.509-3.281 3.384-6.075 7.237-9.075 10.894-.412.506-.853 1.022-1.134 1.594-2.1 4.35-5.597 7.416-9.309 10.322-1.884 1.481-3.609 3.197-5.409 4.791-.563.506-1.097 1.059-1.734 1.444-4.716 2.841-9.45 5.672-14.194 8.456-.591.338-1.294.591-1.959.666-.984.103-1.294.6-1.294 1.481-.009.909.244 1.65 1.284 1.697 4.35.159 8.709.713 13.05-.441 2.972-.797 5.916-.141 9.3.844-.853.741-1.369 1.144-1.847 1.594-.966.909-1.913 1.828-2.878 2.728-.356.328-.684.806-1.097.909-1.575.375-2.466 1.462-3.244 2.747-1.988 3.272-3.834 6.628-6 9.769-4.219 6.112-8.616 12.103-12.9 18.169-1.247 1.762-2.119 3.825-3.562 5.363-3.262 3.459-4.781 7.856-6.9 11.934-1.359 2.616-2.728 5.231-4.078 7.866-.516 1.003-.947 2.062-1.613 3.497-.525-1.031-1.041-1.753-1.294-2.559-1.134-3.628-2.437-7.106-4.997-10.041-.637-.741-.891-1.903-1.134-2.906-.262-1.069-.797-1.622-1.912-1.772-2.034-.281-2.569-1.322-1.613-3.159 1.153-2.231 2.128-4.472 1.294-7.05a11 11 0 0 0-.375-.984c-.066-.122-.159-.244-.328-.469-.591 1.134-1.106 2.128-1.791 3.431-.628-.684-1.238-1.134-1.575-1.725-2.306-4.013-4.519-8.063-6.844-12.066-.675-1.172-1.547-2.231-2.391-3.281-2.616-3.262-5.372-6.403-7.866-9.741-2.175-2.916-4.481-5.634-7.5-7.725-.394-.281-.666-.731-1.275-1.444 1.069-.3 1.866-.703 2.681-.731 5.991-.197 11.972-.319 17.963-.469.6-.009 1.209-.066 1.809-.103.947-.047 1.753-.328 1.678-1.472-.075-1.041-.694-1.509-1.762-1.688a173 173 0 0 1-9.741-1.828c-1.059-.225-2.091-.759-3.019-1.313-3.553-2.1-7.181-4.087-10.547-6.459-8.709-6.131-16.753-13.041-23.597-21.234-3.591-4.294-6.281-9.197-7.462-14.662-1.041-4.828-1.509-9.816-2.016-14.747-.403-3.9-.487-7.828-.656-11.737-.047-1.181-.478-1.622-1.688-1.444-.797.122-1.612.028-2.419.038-1.772.009-2.269.45-2.25 2.213 0 2.419.037 4.828.084 7.237.066 2.944.112 5.878.225 8.822.047 1.181-.656 1.725-1.837 1.153-1.078-.516-2.119-1.153-3.159-1.762a2737 2737 0 0 1-9.966-5.906c-.084-.047-.159-.122-.253-.15-4.406-1.172-7.763-4.35-11.813-6.178-1.059-.478-2.278-.694-3.45-.834-5.925-.703-11.222-2.916-15.984-6.506-.778-.591-1.688-1.041-2.597-1.406-2.709-1.078-5.4-2.203-8.184-3.084-2.278-.713-4.678-1.003-6.975-1.678-2.391-.694-4.716-1.575-7.069-2.419-.281-.103-.441-.488-.909-1.041 2.137-.6 4.031-1.425 5.963-1.622 2.653-.281 5.138-.891 7.491-2.119 3.6-1.866 7.162-3.675 11.034-5.072 5.963-2.137 11.55-5.287 17.325-7.95 7.059-3.263 14.156-6.459 21.234-9.731 2.681-1.247 5.325-2.578 7.969-3.928 1.434-.731 2.1-.366 2.034 1.247-.075 1.763-.178 3.525-.403 5.269-.478 3.741-.225 7.425.525 11.1.216 1.031.553 1.847 1.753 1.912 1.284.066 2.597.037 3.206-1.387.319-.731.525-1.519.703-2.306 1.481-7.05 4.931-13.097 9.122-18.853 1.763-2.419 3.637-4.631 6-6.497 1.237-.966 2.138-2.391 3.056-3.703 4.809-6.872 11.372-11.728 18.413-16.031 2.784-1.697 5.672-3.244 8.503-4.884 3.487-2.016 7.275-3.15 11.175-3.938 1.5-.3 2.784-.909 3.113-3.009-.994-.15-1.997-.506-2.972-.413-5.709.487-11.409 1.097-17.128 1.65-.675.066-1.369.009-2.466.009.516-.966.816-1.678 1.219-2.316 3.075-4.781 6.225-9.497 9.197-14.334 1.237-1.997 2.119-4.219 3.075-6.366.712-1.584 1.359-1.791 3.056-1.538 1.322.197 2.831.178 4.05-.291 2.869-1.097 3.169-3.741.844-5.784-3.703-3.244-3.759-3.816-.966-7.819 2.175-3.113 4.012-6.384 4.641-10.209.047-.338.159-.769.394-.956 2.456-2.034 2.681-5.212 4.041-7.8 1.397-2.653 2.803-5.306 4.378-7.866 1.116-1.8 1.397-3.684 1.556-5.728.225-2.916.891-5.728 3.122-7.894.525-.038 1.031-.038 1.538-.038zm1.978 90.131c-10.331.872-20.766 3.019-29.494 10.209-1.078.891-2.278 1.678-3.488 2.391-3.019 1.8-5.072 4.303-6.225 7.65-.966 2.794-2.306 5.4-3.947 7.912-2.756 4.191-3.872 8.906-3.263 13.959.337 2.747.984 5.503.853 8.222-.281 5.578-.928 11.128-1.519 16.678-.15 1.434-.591 2.859-1.059 4.228-1.5 4.434-3.113 8.813-4.594 13.237-.253.769-.403 1.762-.122 2.466 1.406 3.713 2.953 7.359 4.472 11.034.356.844.872 1.275 1.884.872.506-.197 1.247-.216 1.725.028 4.753 2.344 9.938 3.666 14.203 7.162 5.353 4.387 8.756 9.553 9.047 16.622.122 3.262.591 6.506.919 9.769.084.816.375 1.678 1.397 1.144 2.203-1.116 4.228-.928 6.281.356.45.281 1.059.3 1.584.478 1.237.441 1.987 0 2.822-.994 1.256-1.509 2.503-3.319 5.025-2.606.319.084.731-.244 1.116-.356.3-.084.759-.281.909-.15 1.078.928 2.175 1.847 3.094 2.916.506.581.638 1.463 1.022 2.175.478.891 1.209 1.078 1.988.403 2.072-1.847 3.628-4.031 4.031-6.872.291-2.025.638-4.05.919-6.094.797-5.803 2.897-10.978 7.209-15.047 1.031-.966 2.231-1.997 3.534-2.419a248 248 0 0 1 14.222-3.975c2.869-.713 5.006-2.269 6.028-4.969 1.406-3.741 1.922-7.584.441-11.494-1.2-3.15-2.1-6.422-3.469-9.478-3.338-7.416-3.384-15.112-2.4-22.95.478-3.816.713-7.603-.075-11.4-1.594-7.659-4.35-14.934-7.5-22.059-.581-1.313-1.462-2.569-2.456-3.591-3.469-3.572-6.984-7.106-10.622-10.509-3.909-3.628-8.709-4.931-14.475-4.95zm36.281 114.853c-2.391-1.172-4.434-.928-5.944.488-.834.778-1.725 1.509-2.597 2.269-1.734 1.509-3.338 3.056-2.831 5.728.084.487-.394 1.069-.544 1.622-.15.562-.216 1.172-.3 1.753.487-.122 1.041-.141 1.472-.394 4.069-2.306 6.881-5.925 9.853-9.384.441-.544.563-1.35.881-2.072z"/><path fill-rule="nonzero" d="M107.334 77.081c-.891.563-1.763 1.2-2.709 1.688-1.716.891-3.572 1.509-4.641 3.375-.394.675-1.313 1.069-2.016 1.538-7.716 5.137-15.3 10.378-20.259 18.534-1.612 2.644-3.15 2.681-5.306.413-1.406-1.472-1.941-3.309-1.95-5.25-.028-8.972-1.547-17.756-3.272-26.512-.412-2.119-.694-4.266-.984-6.403-.244-1.753.984-2.709 2.616-2.053 1.069.431 2.053 1.097 3.15 1.444 1.753.553 3.563.947 5.353 1.388.628.15 1.35.084 1.913.356 4.378 2.091 9.497 2.034 13.566 5.297 2.128 1.697 5.25 2.156 7.912 3.159 2.194.834 4.378 1.65 6.553 2.466.028.187.047.375.075.563zM200.747 77.428c.853-1.884 2.344-2.756 4.153-3.084a1396 1396 0 0 1 18.703-3.244c4.35-.722 8.737-1.313 13.097-1.941 1.912-.281 3.834-.487 5.766-.769.891-.141 1.762-.394 2.644-.553.994-.178 1.369.291 1.003 1.2-.703 1.753-1.256 3.469-.656 5.4.103.319-.562.947-.956 1.331-.741.731-1.697 1.294-2.287 2.128-2.203 3.084-3.956 6.394-5.109 10.031-.881 2.766-2.194 5.409-3.009 8.194-.731 2.475-1.041 5.081-1.537 7.641-.066.337-.047.703-.103 1.059-.291 2.025-.806 2.25-2.503 1.097-.084-.047-.159-.122-.253-.178-4.069-2.288-7.05-5.541-9.037-9.788-1.753-3.722-4.303-6.75-7.8-9.141-4.191-2.831-8.044-6.178-12.122-9.375zM91.097 227.981c-2.944.122-5.766.741-8.409 2.128-.666.356-1.35.741-2.063.909-4.969 1.097-9.966 2.062-14.925 3.225-2.578.6-5.1 1.463-7.612 2.278-1.041.338-2.016.928-3.075 1.247-.694.197-1.725.403-2.166.047-.984-.769-1.8-1.913-1.116-3.3 1.003-2.062 1.987-4.191 3.272-6.094a46.7 46.7 0 0 0 4.959-9.413c2.991-7.716 6.347-15.291 9.544-22.912.441-1.041 1.2-1.181 1.828-.394.806.994 1.678 2.1 1.978 3.3.928 3.75 2.569 7.031 5.194 9.881 1.219 1.322 2.194 2.878 3.234 4.35 1.275 1.791 2.766 3.262 4.753 4.294.853.441 1.584 1.397 2.063 2.278 1.219 2.25 2.719 4.2 4.791 5.728.469.338.675 1.003 1.003 1.519-.591.319-1.144.713-1.772.919-.441.141-.984.009-1.481.009zM249.45 229.678c-2.278.262-3.938.694-5.447-.638-.881-.778-1.434.159-1.866.806-.525.797-1.022.778-1.875.403-4.922-2.166-9.928-3.928-15.366-1.791-2.344.928-4.678 1.003-7.209.563-1.922-.338-3.994.197-5.991.197-.694 0-1.762-.281-1.997-.769-.3-.619-.216-1.734.178-2.316.731-1.106 1.791-2.016 2.747-2.953 1.959-1.941 4.181-3.666 5.878-5.803 6.131-7.716 12.084-15.553 18.122-23.334.45-.591 1.097-1.041 1.725-1.631 2.916 12.797 6.028 25.219 11.109 37.266zM132.891 190.856c-2.053.487-3.787-.122-5.578-1.35-1.5-1.022-3.375-1.509-5.081-2.203-.553-.225-1.153-.356-1.725-.525-5.672-1.762-6.516-2.606-8.344-8.278-.487-1.509-.3-2.897.919-4.003 3.319-3.028 7.031-5.325 11.625-5.803.45-.047.994.141 1.397.375 4.294 2.456 9.159 3.862 12.966 7.209.591.525 1.537.703 2.353.909 4.041 1.031 5.597 5.269 3.113 8.616-2.316 3.122-5.353 4.959-9.328 5.044-.759.009-1.509 0-2.316 0zM191.166 176.841c-.009 3.516-2.981 8.016-5.831 9.216-3.338 1.406-6.619 2.934-10.003 4.153-3.225 1.153-6.281.375-9.047-1.575-.197-.141-.366-.403-.581-.469-2.822-.759-3.338-3.272-4.125-5.512-.197-.591.009-1.547.394-2.091 1.153-1.65 2.709-2.784 4.791-3.113.919-.15 1.828-.516 2.691-.891 4.856-2.138 9.713-4.313 14.55-6.497 1.275-.581 2.353-.244 3.338.591 2.072 1.753 3.553 3.825 3.825 6.178zM160.472 200.625c.684 3.056-1.762 4.566-3.244 6.478-.197.262-1.031.216-1.509.084-1.463-.375-2.859-.956-4.331-1.275-1.097-.244-2.269-.3-3.394-.225-2.119.141-2.953-.581-2.728-2.672.366-3.338.656-6.694 1.247-10.003.431-2.381 1.913-4.275 4.238-5.081 2.353-.816 4.744-.3 6.347 1.584 1.144 1.359 1.978 3.131 2.466 4.856.591 2.016.638 4.162.919 6.244z"/></svg>