<svg xmlns="http://www.w3.org/2000/svg" xml:space="preserve" fill-rule="evenodd" stroke-linejoin="round" stroke-miterlimit="2" clip-rule="evenodd" viewBox="0 0 300 300"><path fill-rule="nonzero" d="M96.619 291.094c-.469-.253-.975-.441-1.378-.769-1.575-1.284-3.328-1.762-5.344-1.453-2.147.319-3.347-1.294-4.706-2.503-.216-.197-.122-.9-.028-1.341.759-3.309.656-6.637-.769-9.666-2.484-5.306-3.047-11.044-4.434-16.613-1.219-4.837-3.253-9.591-6.516-13.603-.366-.45-.769-.9-1.266-1.209-2.372-1.5-4.631-3.066-6.3-5.438-.45-.656-1.631-.928-2.531-1.106-1.5-.291-3.075-.234-4.566-.544-1.05-.216-2.138-.638-3.009-1.238-1.322-.891-2.428-.9-3.553.197-.075.084-.141.159-.234.216-1.575.994-3.15 1.978-4.706 2.953-2.466-1.209-5.081-2.175-6.647-4.659a17 17 0 0 1-.994-1.8c-.816-1.734-1.697-3.375-3.459-4.388-.441-.253-.816-.703-1.078-1.153-3.197-5.503-5.831-11.175-4.622-17.831.15-.769.281-1.659.741-2.222 3.994-4.781 5.681-10.387 6.45-16.453.684-5.4 2.194-10.753 2.316-16.144.141-6.609 1.669-12.984 2.4-19.481.066-.638.141-1.266.141-1.894-.019-7.837-.159-15.656.019-23.494.066-3.019.844-6.028 1.275-9.038.234-1.725.581-3.441.609-5.156.103-4.838.787-9.591 2.194-14.213.872-2.878 2.278-5.447 4.303-7.688 3.244-3.544 6.188-7.462 9.788-10.594C67.484 76.9 75.312 72.71 83.881 69.944c2.325-.759 4.472-2.081 6.722-3.094 1.959-.891 3.938-1.725 5.925-2.559.787-.337 1.631-.497 2.372-.891 4.969-2.663 10.388-3.881 15.834-4.913 1.209-.225 2.569-.159 3.759.131 4.5 1.144 9.037 2.212 13.434 3.703 6.047 2.053 11.738 4.837 17.316 8.091 5.981 3.497 10.819 8.25 16.153 12.422 1.884 1.472 3.234 3.731 4.556 5.794 1.556 2.456 2.728 5.138 4.256 7.612 3.891 6.3 6.844 12.984 8.831 20.119.15.497.178 1.134.497 1.5 3.169 3.6 3.141 8.222 3.891 12.534 2.156 12.309 1.387 24.563-1.088 36.741-.066.309-.122.628-.159.938-.441 2.878-.422 2.887 2.503 2.962.422 1.631.787 3.328 1.313 4.969 2.719 8.391 3.975 17.072 5.419 25.734.262 1.631.994 3.225 1.744 4.706 1.378 2.672 1.762 5.334.844 8.25-.956 3.066-2.213 5.887-4.444 8.297-2.672 2.859-5.213 5.841-7.706 8.878-.741.9-1.294 2.081-1.575 3.197-.497 2.006-1.641 3.122-3.647 3.441-4.041.656-7.912.816-11.578-1.744-2.194-1.547-4.688-.872-6.881.478-3.3 2.025-5.578 4.969-7.453 8.278-1.238 2.194-2.034 4.434-2.006 7.041.066 5.269-.741 10.406-2.691 15.384-.497 1.294-.337 2.897-.309 4.369.019.994-.234 1.5-1.284 1.509-1.556.019-2.278 1.003-2.559 2.353-.253 1.247-.366 2.512-.544 3.778-.309 2.297-1.556 4.022-3.281 5.437-2.166 1.762-5.747.656-7.059-2.091-.366-.769-.844-1.5-1.219-2.156-2.241 2.138-4.387 4.022-6.328 6.084-1.003 1.059-1.95 1.181-3.084.553-2.325-1.275-3.881-3.028-3.938-5.878-.047-2.587-.122-5.184-.366-7.772-.084-.788-.553-1.772-1.163-2.213-1.322-.947-2.325-.319-2.325 1.313 0 1.275.178 2.541.122 3.797-.047.872-.103 1.922-.572 2.559-1.594 2.091-2.053 4.491-2.372 6.956-.291 2.241-.797 2.409-3.075 2.194-2.138-.197-3.431-1.472-4.753-2.859-.816-.844-1.537-1.772-2.456-2.475-.45-.347-1.35-.497-1.828-.262-.497.234-.834.994-1.003 1.603-.131.469.047 1.05.15 1.556.553 2.906.281 3.469-2.297 4.734-.581-.019-1.219-.019-1.856-.019zm78.487-77.25c1.612-1.209 2.062-2.372 1.641-3.863-.234-.806-.347-1.659-.553-2.475a2640 2640 0 0 0-3.938-14.803c-.9-3.338-6.281-6.909-9.544-6.366-6.872 1.144-12.431 4.819-17.644 9.141-.919.759-1.594 1.847-2.222 2.878-2.306 3.797-4.462 7.669-6.834 11.419-.666 1.05-1.772 1.988-2.887 2.513-1.294.628-1.763 1.369-1.528 2.719.309 1.706 1.003 2.409 2.597 2.381 3.778-.047 7.462-.441 10.997-1.987 3.891-1.688 7.941-2.878 12.216-3.122.412-.028.872-.103 1.191-.347 3.038-2.147 6.516-3.197 9.994-4.284 3.197-.994 3.366-.947 4.678 2.241.544 1.313 1.162 2.559 1.828 3.984zM56.662 201.581c.188 1.659-.216 3.619 1.472 4.5 1.669.872 2.953 3.234 5.438 1.875.169-.094.553.253.862.309.919.188 1.828.478 2.747.478 3.281-.019 6.581-.403 9.825-.131 2.428.197 4.856.966 7.144 1.847 3.15 1.209 6.141 2.803 9.244 4.144.684.291 1.584.319 2.325.197 2.719-.441 3.169-1.575 1.406-3.666-3.084-3.647-5.775-7.631-9.591-10.697-3.197-2.559-6.075-5.541-9.169-8.269-.609-.534-1.481-.816-2.269-1.088-3.038-1.059-6.113-1.997-9.112-3.141-2.362-.9-2.569-.872-3.966 1.238-1.106 1.669-2.344 3.234-3.497 4.875-.741 1.05-1.641 2.053-2.081 3.225-.478 1.341-.544 2.859-.797 4.313zm51.985 49.519c2.269-1.313 4.472-2.541 6.619-3.862.938-.581 1.706-.572 2.616-.019 1.744 1.088 3.591 2.034 5.325 3.141.872.553 1.603 1.341 2.428 1.978.384.291.928.741 1.256.656.366-.103.825-.769.816-1.181-.066-1.547-.159-3.141-.534-4.631-.384-1.528-1.444-2.925-1.603-4.444-.497-4.809-2.137-9.122-4.369-13.35-1.134-2.138-1.397-4.734-2.053-7.116-.6-2.119-2.137-2.878-4.134-2.081-2.456.984-4.622 5.494-4.116 8.081.384 1.95.862 4.05.497 5.925-.806 4.444-2.006 8.841-3.244 13.191-.375 1.322-.422 2.344.487 3.731z"/><path fill-rule="nonzero" d="M0 129.731c1.378-1.106 2.719-1.453 4.472-.497 3.066 1.669 6.038-.178 6.647-3.862.6-3.619.084-7.162-.478-10.725-.956-6.159-1.931-12.338-2.644-18.525-.638-5.578.084-11.072 1.556-16.491 1.209-4.434 2.194-8.897 4.284-13.078 2.409-4.828 5.194-9.272 9.281-12.9 3.994-3.534 7.669-7.453 11.719-10.931 1.931-1.659 4.388-2.7 6.638-3.984 4.678-2.691 9.337-5.4 14.044-8.006 5.025-2.794 10.209-5.334 15.131-8.306 2.859-1.734 5.344-4.087 7.997-6.188 1.406-1.116 2.728-2.325 4.153-3.412.759-.572 1.537-.6 2.091.45.769 1.416 1.453 1.537 2.672.45 1.425-1.266 2.756-2.634 4.153-3.919 1.669-1.519 3.112-1.106 3.619 1.153.516 2.297-.103 4.416-1.659 6.188-.628.703-1.397 1.294-2.147 1.875-3.178 2.372-6.459 4.622-9.544 7.106-2.325 1.894-4.425 4.078-6.591 6.159-1.134 1.106-2.428 2.138-3.3 3.413-2.616 3.806-5.438 7.538-4.05 12.741.684 2.578.788 5.306 1.163 8.166 1.556-.675 3.234-1.397 5.081-2.212 0 .45.103.759-.019.919-1.612 2.25-3.272 4.444-6.263 4.969-.412.066-.816.234-1.209.403-11.822 5.156-20.147 13.716-25.228 25.556-2.887 6.694-5.4 13.5-7.781 20.409-2.916 8.428-3.619 17.006-3.863 25.744-.084 2.859-.384 5.709-.366 8.559.047 5.072.197 10.144.469 15.206.234 4.762.703 9.534-1.078 14.119a22 22 0 0 1-1.631 3.431c-.759 1.266-1.509 1.247-2.503.206-1.341-1.425-2.775-2.747-4.097-4.181-.759-.806-1.5-1.659-2.063-2.588-2.569-4.331-4.866-8.794-6.009-13.753-.084-.412-.188-.844-.384-1.2A5784 5784 0 0 0 1.21 132.77c-.394-.703-.844-1.369-1.256-2.025v-.956zM93.206 49.903c1.284-1.688 2.438-2.616 4.125-2.991.703-.141 1.453-1.031 1.716-1.744.122-.337-.9-1.116-1.481-1.603-.478-.384-1.059-.628-1.922-1.106.806-.712 1.341-1.387 2.034-1.734 2.747-1.369 5.512-2.7 8.334-3.909 7.097-3.009 14.1-6.319 21.394-8.803 9.103-3.084 18.403-5.822 28.031-6.656 5.138-.441 10.369-.141 15.516.234 5.109.366 10.181 1.266 15.272 1.931 4.097.544 7.959-.347 11.813-1.669 7.322-2.531 14.644-5.156 22.116-7.219 6.553-1.8 13.275-1.997 19.828.6 1.256.506 2.662.684 4.013.9 2.616.394 4.134 2.006 4.978 4.331.675 1.875-.534 3.459-2.475 3.084-4.734-.928-9.394-.309-14.044.291-1.706.206-3.338.966-5.006 1.444-1.509.422-3.047.797-4.556 1.209-2.222.628-4.472 1.163-6.637 1.931-1.425.516-2.719 1.406-4.106 2.081-6.103 2.953-8.109 8.4-8.438 14.569-.216 3.722 2.156 6.291 5.259 8.109 2.953 1.725 6.234 2.353 9.591 2.466 3.328.103 6.694.188 9.994-.141 2.644-.272 5.231-1.219 7.847-1.819 7.566-1.725 15.131-3.544 22.744-5.072 4.866-.975 9.863-2.053 14.803-1.087 4.706.919 9.3 2.428 13.931 3.675.197.047.441.103.572.253 2.494 2.747 5.972 3.487 9.281 4.538 2.662.844 4.706 2.353 5.812 4.987.684 1.641.084 2.953-1.669 3.122-2.306.234-4.65.384-6.966.309-6.478-.234-12.956-.103-19.247 1.519-2.597.684-5.053 2.109-7.416 3.431-2.381 1.322-4.528 3.094-7.434 3.216-.525.028-1.116.394-1.528.769-4.434 4.013-8.934 7.95-13.2 12.122-2.306 2.241-3.722 5.044-4.978 8.119-2.597 6.347-3.3 13.191-5.813 19.556-2.409 6.075-6.478 10.838-10.922 15.403-2.644 2.728-5.662 5.316-7.491 8.55-2.147 3.778-3.938 8.119-1.397 12.628 1.144 2.025 2.372 3.994 3.628 5.944.338.516.862 1.05 1.406 1.247 3.75 1.35 7.434 2.447 11.447.45 1.922-.956 4.266-1.209 6.45-1.425 3.666-.347 7.378-.675 11.034-.506 2.569.122 4.734 1.538 6.225 3.909.675 1.069 1.959 1.762 2.747 2.775.516.675 1.153 1.959.863 2.428-.516.816-1.631 1.397-2.616 1.725-.862.291-1.987-.15-2.803.178-1.988.797-3.966 1.406-6.131 1.5-.572.028-1.219.441-1.669.862-6.666 6.159-14.231 11.362-19.969 18.534-4.706 5.869-7.828 12.675-11.419 19.2-.816 1.5-1.397 1.669-2.513.413a6 6 0 0 1-1.078-1.744c-1.856-4.659-3.778-9.3-5.475-14.006-2.119-5.813-3.881-11.737-6.113-17.494-2.091-5.362-2.503-10.697-1.425-16.331.628-3.281.506-6.713.703-10.069.103-1.537.047-3.066.187-4.594.713-7.594-1.144-14.803-3.206-21.994-1.472-5.119-2.691-10.322-4.209-15.441-.872-2.925-2.119-5.728-3.169-8.616-.272-.731-.534-1.537-.478-2.297.15-2.025-.581-3.694-1.716-5.306-1.191-1.744-2.147-3.647-3.431-5.288-1.313-1.687-2.672-3.478-4.416-4.65-2.119-1.434-3.788-3.113-4.791-5.344-2.269-5.044-6.056-8.55-10.716-11.334-4.781-2.859-9.337-6.028-13.088-10.228-1.444-1.612-3.412-2.147-5.522-2.466-5.372-.816-10.725-1.847-16.088-2.709-1.322-.216-2.691-.169-4.022-.187-2.475-.028-5.006.281-7.425-.075-3.938-.572-7.697.234-11.503.872-3.328.553-6.609 1.294-9.919 1.95-.581.131-1.134.188-2.081.337z"/></svg>