<svg xmlns="http://www.w3.org/2000/svg" xml:space="preserve" fill-rule="evenodd" stroke-linejoin="round" stroke-miterlimit="2" clip-rule="evenodd" viewBox="0 0 300 300"><path fill-rule="nonzero" d="m0 151.4 12-4.2q5.8-2.1 11.2-4.7l2.6-1.7c1.8-.9 3.3-1.7 4.6-3.4 1.1-1.5 3.5-2 5.3-3l5.7-2.4 3.5-1.7 6.6-3.5q1.5-1 2.8-2.4L57 122q.6 1.7 1.3 2.8l2 2.7q.8.6 1 1.2c.7 3.3 3.4 4 6 4.6 3.7.6 7-.9 9.7-3.1 1-.8 1.7-2.3 1.7-3.5.3-4-.6-7.9-4.8-9.5-2.4-1-4.5-2.5-7.4-2-1.4.3-2-.7-1.8-2.1q-.2-1 0-1.8a5 5 0 0 1 1.5-1.8c.8-.7 2-1 2.6-1.6 6.8-7.2 14.4-13.4 21.8-19.8 2.8-2.5 5-5.7 7.8-8.4q2.6-2.5 5.6-4.8 2.6-2.2 5.6-3.9c.9-.5 2.3-.3 3.4-.2.3 0 .6 1.2.7 1.8l.9 6.2q.1 1.2.7 2.3c1.9 3 8 4.6 11 3 3-1.4 4.1-4.4 3-7.7a9 9 0 0 0-4.7-5.5L119 68q-3-1.7-1.2-4.7l2.2-3 3-5.4q.1-.5.5-1c1.6-1 2.2-3 3-4.6q4.2-7.5 8.1-15.1 2.3-4.9 4.2-9.9l2.3-5 5.4-10.5q.9-2.5 1.5-5.4l1-2.7q.4-.6 1-.6.6.2.9.8.9 3 2.1 6 1.7 4 4 7.7l10.3 14a6 6 0 0 1 1.3 4.4q-.6 3.7 2.6 5.8c2 1.2 2.6 3.3 3.2 5.3.4 1.3.9 2.4 2.4 2.7.4 0 .8.7 1.1 1.1q2 2.6 3.7 5.4 1 2 1.8 4.3.6 2.4 1.5 4.6 1.4 2.7 3 5.3 1.3 2.2-1.2 3l-3.7.9a10 10 0 0 0-5.7 3.5c-.6.6-.8 1.8-.7 2.6.6 5.9 7.6 9.4 13.1 6.7 1.5-.7 2.7-1.6 3-3.5.4-2.5 1.4-5 2.2-7.3.5-1.6 2.9-2.2 4-1.2l12 11.4a32 32 0 0 1 4 5.2c2 3 4.8 5 7.7 7q9 6 14 15.5c.6 1 .4 2.6.3 3.9 0 .2-.9.6-1.4.6l-2.5-.2c-5 0-7.8 4.6-5.6 9 1.6 3.2 4.6 4.5 7.7 5.5q.6.1 1.1-.2 3.9-1.2 5.7-4.8 1-2 3.1-2h2.3q2.4 0 2.8 2.2.4 3.2 3.5 4 3.4 1.1 6.6 2.5 2 .8 3.7 1.8l2.3 1.3 9.8 4q.3 0 .4.2c4.5 4.1 10.6 5 16 7.5 2.3 1.1 4.7 2 6.6 4q2.5 2.6-.6 4.5l-26 14.8c-2.3 1.3-4.5 2-7 .8q-1-.5-2.2-.7-1.5-.7-2.5.6c-.2.4-1 .6-1.6.5q-2.2-.2-1.6 1.7 1.1 4.7-2.7 7.8-2.6 2.4-5 5-1.6 1.6-2.5-.6-1-2.4-1.7-5c-.6-2.5-3.4-5-5.9-4.9q-2.3 0-4.4.6a6.7 6.7 0 0 0-2.2 10.8 8 8 0 0 0 8 2.9c1.9-.4 3.1.2 4.4 1.4l-8 11.1q-.7.7-1.6 1.2-2.3 1.8-4.4 3.8L212.3 227q-3.6 4.4-7.4 8.4-2.3 2-5 3.4l-1.7 1.2q-1.5 1.2-2-.6-1.5-3.9-2.5-7.9-1.1-4.2-5.3-4.7-4.5-.4-6.7 3.3a15 15 0 0 0-1.7 4.3q-.7 4.7 3.8 6a8 8 0 0 1 4 2.4q1 1 .2 2.2c-3.6 4-6 8.9-8.8 13.5q-7.2 12-15.2 23.5l-.3.5-10.4 17.5h-.3l-1.6-1.5c-3.3-3.8-5.5-8.4-8-12.6l-7-11.4-5.1-7.6-.4-1.1q-.3-3.3-2.9-5.6l-6-5.9q-3-3.7.9-6.7l4.7-3.6c3.2-2.6 3.7-6 2.6-9.5-.9-2.7-2.3-5.4-5.3-6.3a9 9 0 0 0-6.6.8q-3.3 1.5-3.7 5l-.4 1.8c-.8 3.8-.8 3.8-4.7 4.4h-.7q-1 0-2-.6-3.7-3-7.4-6.4L83 217a30 30 0 0 1-6-7.4q-1.2-2-2.8-3.8l-7.1-8.1q-2.2-3-3.9-6.3-.7-1.5 1-2l2-.9q-.9-1-1.3-2-.2-1 .1-2.2.3-.5 1.2-.6l6.9-.7c4.2-.8 7-7 4.8-10.8a8 8 0 0 0-7.7-3.6q-6.6 1.3-7.3 8a22 22 0 0 1-2.3 6.7c-.9 1.7-1.3 1.7-3 .6q-11.5-7.7-24.5-12.6l-1.2-.7-8.2-5-9-5c-1.1-.6-2.2-1.4-3.4-1.6-4.8-1-8-4.3-11.4-7.3zm167.1 82.8.4-.5 2.2-11q.2-1.4-.4-2.7-.9-1.9.3-3.6a28 28 0 0 1 17.6-12.2l5.7-1q6.7-1.7 6-8.3a17 17 0 0 1 2-10.4q.7-1.5-.2-2.8l-1.4-3.1q-1.4-3.6-2.3-7.2-.8-2.7-.8-5.5.3-14 .8-27.9a32 32 0 0 0-3-14.7c-2.1-4.8-4.9-9.4-7.4-14a9 9 0 0 0-2-2.5 40 40 0 0 0-15.3-8.8q-8-2.2-16-4-1.3-.5-2.7-.4-5.5.5-10.6 2-11.5 3.8-22 10.2a15 15 0 0 0-6.3 7.3l-2.2 5.2q-5.5 12.9-4.3 27c0 1.1.5 2.4.3 3.5q-1 3.8 0 7.5 1.7 5.5-.7 10.5-1.4 3 .7 5.7 1.2 1.5.3 3-2.4 4-5.3 7.7c-1.5 2-1.7 4.5-.2 6.5l10.1 13.4c.9 1.1 1.6 1.5 3 .7a6 6 0 0 1 6.6 0l3.6 1.8c6 3 10.8 6.7 12 14.2.9 4.8 3.5 9.3 4 14.3 0 .4.7.9 1 1.3q.8-.5 1.2-1.2.6-1.4 2-.8l3.4 1.1c1.9.6 2 .4 2.3-1.5q.3-2.3 1.3-4.1 1.1-1.6 2.4.1l2.6 3.7c.8 1.2 3.2 1 4-.1q1.7-2.5 4.3-.7z"/><path fill-rule="nonzero" d="M140.4 197c-1-1.4-1.9-1.2-3-.6l-4.3 2q-1.1.5-2.2.3c-3.2-.6-6.6-.6-9.6-2.1l-9.6-4.6c-2.6-1.1-3-3.4-3.6-5.6q-.1-.7.4-1.2c2.8-2.9 5.8-5.5 9.9-6 2.2-.3 4.4.2 6.6.5 5.9.6 11.2 2.9 16.4 5.3 3.3 1.5 4 4.4 2.1 7.5zm34.5-.9c-1.5-.2-2.4-.2-3 1.2 0 .3-1 .5-1.4.4q-4.1-1.9-8.2-4.1-2-1.2-2.5-3.7c-.3-2.3.7-3.5 2.4-4.8 3.8-3 8.1-4.5 12.7-5.6 2.7-.7 5.2-2 7.8-3q4.5-1.9 8.8.3c3.3 1.8 3.9 5.7 1.3 8.5a49 49 0 0 1-15.7 10.4q-1.3.4-2.2.4m-15 10.9v2c0 3.2 0 3.3-3 4.8-.4.3-1.5.1-1.8-.3-1-1-1.9-1-3-1.1q-3.2 0-6.1-.7-2.7-.8-2.5-4l.6-7q0-2.5 1.8-4.2 2.6-2.2 4.8-4.4 1.3-1.2 2.5-.1 6.3 4.9 6.6 12.7zm-3.6 1.3c-.2-.4-.4.8 0 0"/></svg>