<!-- Generated by IcoMoon.io -->
<svg version="1.1" xmlns="http://www.w3.org/2000/svg" width="300" height="300" viewBox="0 0 300 300">
<title>fighters-scout</title>
<path d="M298.153 9.516c-4.003 6.581-8.175 13.059-11.944 19.781-5.1 9.056-10.65 17.859-14.447 27.6-1.603 4.078-3.131 8.297-5.484 11.934-1.828 2.813-3.272 5.737-4.613 8.756-5.072 11.503-10.050 23.072-15.103 34.594-1.716 3.919-3.609 7.753-5.269 11.7-0.816 1.941-1.341 4.041-1.809 6.103-0.366 1.65-1.069 2.175-2.7 1.584-3.15-1.153-4.734-4.538-3.731-7.678 0.956-2.981 1.575-5.962 0.75-9.141-0.366-1.397-0.066-2.963-0.094-4.453-0.112-5.081-0.197-10.181-0.366-15.262-0.169-5.044-0.394-10.078-0.6-15.113-0.084-1.884-0.187-3.75-0.347-5.625-0.169-1.744-0.909-2.147-2.484-1.341-0.553 0.281-1.059 0.722-1.472 1.209-3.862 4.388-7.613 8.878-11.606 13.163-2.428 2.606-5.316 4.791-7.837 7.312-3.966 3.984-8.166 7.753-11.306 12.516-0.862 1.303-2.334 2.194-3.431 3.347-2.053 2.156-4.191 4.275-6.047 6.609-3.806 4.8-7.556 9.675-11.175 14.625-7.509 10.294-16.247 19.631-23.222 30.347-5.766 8.841-11.606 17.597-16.472 26.972-0.872 1.678-2.063 3.178-3.131 4.753-0.169-0.038-0.347-0.084-0.525-0.131-0.169-0.628-0.45-1.247-0.525-1.884-0.122-1.162 0.028-2.372-0.178-3.525-0.384-2.241-0.844-4.491-1.463-6.675-0.45-1.575-1.322-3.037-1.744-4.641-0.506-1.838-1.838-2.119-3.403-2.391-1.528-0.272-2.428 0.188-3.319 1.528-5.747 8.803-11.569 17.541-17.428 26.269-0.984 1.463-2.241 2.728-3.478 4.013-2.513 2.606-4.453 5.569-6.366 8.634-1.828 2.925-4.369 5.381-6.638 8.016-0.6 0.713-1.434 0.703-1.922-0.056-0.553-0.872-1.275-1.931-1.181-2.841 0.244-2.466 0.347-5.044 2.053-7.144 0.3-0.366 0.366-1.003 0.347-1.5-0.038-0.628-0.225-1.266-0.45-1.856-1.266-3.319-1.491-3.272-5.016-3.488-2.756-0.159-5.494-0.862-8.231-1.294-1.472-0.244-2.953-0.619-4.425-0.703-5.888-0.309-11.794-0.591-17.691-0.778-6.694-0.216-9.853 0.366-20.334 3.459-0.506-1.856-0.15-3.6 0.647-5.259 0.563-1.2 1.106-2.494 1.941-3.497 0.788-0.956 1.837-1.781 2.934-2.362 1.997-1.041 4.106-1.828 6.141-2.738 7.144-3.197 14.306-6.347 21.431-9.591 8.475-3.881 16.219-8.775 23.269-15.019 3.938-3.488 7.734-7.256 12-10.35 4.866-3.525 8.972-7.781 13.425-11.728 3.825-3.394 7.266-7.116 10.866-10.697 1.022-1.022 2.222-1.866 3.441-2.644 2.953-1.875 5.034-4.416 6.356-7.659 0.431-1.041 1.284-1.931 1.734-2.981 0.469-1.097 0.684-2.306 1.041-3.581 0.169 0.028 0.469 0.066 0.75 0.15 1.434 0.422 2.419-0.009 3.234-1.322 1.941-3.066 4.013-6.066 6.094-9.178 1.688 0.909 2.644 2.213 2.981 3.909 0.197 0.984 0.281 2.025 0.225 3.028-0.169 3.497 0.731 4.303 4.228 3.656 0.216-0.037 0.45-0.103 0.628-0.037 2.362 0.834 3.375-0.731 4.172-2.447 2.063-4.397 5.119-7.941 8.841-11.091 2.963-2.522 5.437-5.625 8.203-8.4 7.734-7.753 15.591-15.384 23.222-23.213 4.303-4.416 8.306-9.094 12.356-13.744 0.619-0.712 1.153-2.166 0.834-2.813-0.366-0.703-1.781-1.191-2.738-1.181-6.159 0.112-12.337 0.253-18.497 0.647-4.866 0.309-9.628 0.534-14.297-1.247-1.162-0.441-2.531-0.506-3.797-0.534-2.897-0.066-5.803 0-8.7-0.009-0.553 0-1.097-0.084-1.959-0.141 0.422-0.403 0.553-0.591 0.722-0.656 0.787-0.375 1.884-0.469 1.688-1.772s-0.956-2.166-2.175-2.531c-0.534-0.169-1.209-0.244-1.734-0.084-1.688 0.506-2.091-0.366-2.119-1.772 0-0.375 0-0.75 0-1.359 0.787 0 1.603-0.169 2.325 0.028 3.15 0.872 6.216 0.403 9.159-0.741 8.475-3.3 17.391-5.063 26.109-7.472 1.275-0.347 2.681-0.281 3.966-0.647 2.419-0.675 4.875-1.294 7.144-2.325 5.737-2.597 11.569-4.791 17.766-6.066 2.241-0.45 4.444-1.238 6.581-2.091 13.031-5.325 26.662-8.803 40.069-12.938 6.159-1.912 12.188-4.134 17.953-7.012 1.659-0.834 3.262-1.753 4.884-2.644 0.113 0 0.216 0 0.319 0 0.75 0.966 1.5 1.941 2.259 2.897-0.056 0.656-0.056 1.294-0.056 1.941z"></path>
<path d="M73.744 163.762c-3.094 1.303-6.375 2.625-9.6 4.050-3.966 1.753-7.884 3.609-11.85 5.391-1.163 0.525-2.344 1.069-3.572 1.397-1.294 0.347-2.062 0.938-2.259 2.334-0.216 1.612-1.191 2.7-2.672 3.366-3.544 1.575-7.275 2.672-10.509 4.95-1.669 1.181-3.534 1.856-5.662 0.469-1.359-0.872-2.578-0.141-3.075 1.472-1.059 3.431-1.5 6.891-0.394 10.434 0.647 2.034 1.106 4.134 1.772 6.169 0.338 1.041 1.069 1.969 1.406 3.019 0.45 1.406 1.003 2.869 1.003 4.303 0 2.578 0.881 4.453 2.878 6.113 1.162 0.984 1.884 2.55 2.616 3.947 0.591 1.125 0.863 2.428 1.378 3.6 0.966 2.109 2.344 2.859 4.65 2.578 2.925-0.366 5.878-0.6 8.766-1.219 1.556-0.338 3.112-1.116 4.416-2.053 1.763-1.256 3.375-2.606 5.625-2.925 0.619-0.084 1.237-0.628 1.716-1.088 1.753-1.631 3.572-2.991 6.178-3.084 0.816-0.028 1.716-0.984 2.391-1.678 1.219-1.275 4.106-2.25 5.709-1.678 0.319 0.122 0.722 0.591 0.722 0.881-0.009 0.984 0.056 2.109-0.375 2.953-1.219 2.447-2.587 4.809-4.022 7.134-1.772 2.859-3.019 5.887-3.694 9.188-0.244 1.181-0.787 2.306-1.247 3.431-1.575 3.741-3.291 7.434-4.734 11.231-1.003 2.653 0.337 4.95 3.019 6.009 1.181 0.45 2.269 1.153 3.384 1.772 0.881 0.497 1.716 1.087 2.625 1.556 3.066 1.556 6.056 3.262 9.225 4.538 2.513 1.003 5.231 1.5 7.866 2.128 2.063 0.506 4.2 0.741 6.244 1.303 2.109 0.581 2.419 0.525 3.009-1.519 0.047-0.197 0.084-0.422 0.159-0.619 0.703-2.306 0.787-2.344 3.178-1.734 2.138 0.553 2.269 0.422 2.672-1.809 0.141-0.759 0.478-1.528 0.834-2.222 1.622-3.066 3.431-6.047 4.922-9.15 1.603-3.328 3.009-6.75 4.341-10.191 0.563-1.472 0.787-3.094 1.041-4.669 0.394-2.588 0.563-5.203 0.984-7.781 0.787-5.034 1.603-10.050 2.559-15.047 0.366-1.987 1.237-3.862 1.706-5.831 0.347-1.472 0.431-3.009 0.619-4.5 0.337-2.803 0.319-5.709 1.959-8.166 0.3-0.45 0.844-0.731 1.294-1.087 0.319 0.45 0.862 0.881 0.938 1.378 0.45 2.841 1.406 5.794 1.050 8.559-1.022 7.762 0.337 15.394 0.572 23.1 0.253 8.447 2.878 16.425 4.528 24.6 0.244 1.181 0.103 2.447 0.347 3.628 0.394 1.912 0.928 3.797 1.406 5.681 0.216 0.863 0.403 1.744 0.703 2.578 0.403 1.125 0.6 2.606 1.425 3.262 1.866 1.491 4.013 2.625 6.141 3.75 0.506 0.272 1.5 0.187 1.988-0.141 2.897-1.978 6.281-1.997 9.506-2.728 4.331-0.984 8.709-1.838 12.919-3.216 7.922-2.616 11.1-12.037 7.762-18.853-1.809-3.684-3.647-7.575-4.256-11.559-0.9-5.991-3.178-11.269-6.159-16.294 1.491-1.875 2.644-2.016 4.247-0.553 2.934 2.672 5.841 5.372 7.603 9.056 0.45 0.938 1.209 1.772 1.941 2.55 4.191 4.556 9.262 8.044 14.269 11.597 2.231 1.584 4.613 0.872 5.944-1.472 1.678-2.925 3.45-5.803 5.241-8.662 2.081-3.319 4.5-6.422 6.272-9.881 2.119-4.172 4.078-8.503 5.428-12.956 0.928-3.066 0.703-6.478 0.928-9.731 0.066-1.069-0.422-1.941-1.584-2.091-8.1-1.116-15.488-4.547-23.184-6.909-5.813-1.781-11.888-2.681-17.85-3.984-2.672-0.581-5.325-1.238-8.016-1.734-1.041-0.197-2.203-0.338-3.197-0.084-2.344 0.628-4.266-0.244-6.412-1.341 1.059-0.6 1.922-1.275 2.897-1.631 4.875-1.781 9.609-3.834 15.056-3.778 3.262 0.028 6.562-0.9 9.797-1.612 10.941-2.4 21.853-4.913 32.784-7.378 1.050-0.244 2.091-0.478 3.15-0.703 0.994-0.197 1.519-0.731 1.425-1.781-0.309-3.262-0.591-6.516-0.966-9.759-0.066-0.525-0.422-1.219-0.844-1.462-1.322-0.722-1.453-1.838-1.434-3.141 0-3.066-0.984-5.766-3.234-7.969-0.769-0.741-1.359-1.659-2.016-2.503-0.984-1.275-2.222-1.603-3.713-1.069-4.819 1.772-9.609 3.581-14.466 5.269-2.156 0.759-4.369 1.35-6.609 1.894-0.422 0.103-1.181-0.309-1.453-0.713-0.253-0.384-0.291-1.191-0.037-1.575 0.787-1.275 1.631-2.531 2.672-3.609 4.116-4.294 8.353-8.475 12.45-12.778 1.716-1.809 3.234-3.825 4.838-5.756 0.309-0.366 0.553-0.816 0.909-1.116 2.025-1.575 3.169-3.741 4.134-6.038 0.309-0.741 0.628-1.491 1.088-2.147 1.125-1.584 3.066-1.856 4.228-0.337 1.462 1.894 2.672 3.994 3.778 6.112 0.703 1.359 1.5 2.297 2.934 2.981 1.303 0.619 2.559 1.622 3.431 2.766 7.528 9.722 10.969 21.009 12.019 33.056 0.422 4.884 0.656 9.853 0.216 14.709-0.403 4.575 0.347 8.944 0.684 13.425 0.478 6.244 0.431 12.431-1.144 18.647-2.672 10.594-5.588 21.113-9.797 31.219-0.731 1.772-1.612 3.525-2.738 5.072-4.031 5.484-8.175 10.884-12.309 16.312-2.062 2.709-4.537 4.95-7.397 6.853-1.322 0.872-2.203 2.372-3.262 3.609-0.281 0.319-0.431 0.759-0.731 1.041-4.875 4.012-9.562 8.194-15.731 10.378-3.638 1.284-6.844 3.712-10.303 5.569-3.169 1.688-6.394 3.262-9.572 4.922-0.619 0.319-1.406 0.553-1.772 1.069-1.181 1.744-3.038 2.194-4.819 2.925-1.678 0.675-3.262 1.622-4.819 2.55-3.497 2.062-7.134 3.469-11.316 2.644-0.309-0.066-0.656-0.084-0.966-0.028-5.1 0.834-10.153-0.619-15.234-0.319-0.741 0.038-1.491-0.131-2.231-0.281-1.219-0.225-1.95-0.984-2.316-2.184-0.197-0.581-0.497-1.238-0.956-1.556-0.403-0.281-1.144-0.272-1.641-0.113-0.244 0.084-0.431 0.834-0.366 1.238 0.188 1.247-0.347 1.65-1.519 1.622-1.781-0.038-3.544 0.009-4.988-1.322-0.319-0.309-1.003-0.338-1.519-0.319-8.944 0.375-17.438-1.837-25.875-4.444-0.703-0.216-1.519-0.45-2.194-0.281-1.781 0.469-3.216-0.178-4.725-0.966-3.441-1.828-6.928-3.553-10.416-5.316-0.619-0.319-1.303-0.562-1.856-0.966-5.522-4.050-11.747-7.134-16.641-12.084-1.219-1.247-2.756-2.231-4.228-3.178-3.178-2.063-5.578-4.828-7.575-7.988-0.272-0.431-0.591-0.956-1.022-1.153-2.081-0.966-2.991-2.681-3.319-4.8-0.225-1.5-0.816-2.147-2.484-2.709-1.434-0.487-2.559-2.55-3.319-4.162-0.731-1.547-0.816-3.403-1.144-5.128-0.084-0.441 0.037-0.909 0.422-1.519 0.375 0.45 0.788 0.881 1.125 1.378 0.881 1.359 2.034 1.341 2.812-0.112 1.003-1.941 1.125-3.966-0.122-5.822-2.044-3.019-3.441-6.291-4.453-9.75-0.337-1.144-1.125-1.744-2.25-2.278-1.247-0.591-2.391-1.613-3.3-2.672-1.003-1.153-2.063-1.716-3.6-1.706-1.322 0.009-2.653-0.272-3.984-0.403-0.431-0.037-0.928-0.216-1.266-0.056-1.659 0.806-2.569-0.094-3.216-1.378-0.806-1.622-1.678-3.262-2.175-4.978-2.063-7.219-3.731-14.522-4.144-22.059-0.056-0.881-0.525-1.744-0.619-2.644-0.15-1.35-0.216-2.728-0.169-4.088 0.056-1.275 0.366-2.531 0.478-3.806 0.684-8.062 1.294-16.125 2.053-24.188 0.244-2.606 0.563-5.269 1.378-7.734 1.209-3.628 2.925-7.116 4.369-10.678 0.309-0.759 0.291-1.659 0.553-2.447 0.45-1.406 0.881-2.831 1.5-4.172 0.956-2.091 2.203-4.050 3.047-6.178 2.981-7.462 7.181-14.269 12.666-20.006 10.097-10.584 20.419-21.019 33.216-28.528 1.519-0.9 2.981-1.912 4.387-2.991 5.034-3.862 10.875-6.328 16.847-7.706 4.341-1.003 8.541-2.681 13.069-3.094 2.897-0.272 5.794-1.031 8.616-1.856 3.797-1.116 7.688-1.322 11.597-1.547 3.047-0.169 6.094-0.581 9.131-0.862 3.797-0.347 7.491-0.084 10.969 1.744 0.834 0.422 1.838 0.581 2.784 0.741 9.769 1.65 18.469 5.794 26.494 11.447 0.422 0.309 0.787 0.722 1.153 1.116 1.284 1.369 2.831 1.959 4.734 1.997 1.547 0.028 3.094 0.291 4.594 0.647 1.603 0.366 1.866 1.341 0.525 2.297-0.928 0.656-2.222 1.116-3.347 1.116-2.034-0.009-3.825 0.188-5.128 2.016-0.309 0.441-0.956 0.675-1.472 0.928-2.606 1.209-4.65 3.019-6.216 5.428-0.431 0.675-1.266 1.059-1.838 1.659-0.984 1.003-2.109 1.959-2.841 3.15-1.341 2.194-2.456 2.428-4.706 1.191-3.216-1.753-5.456-4.453-7.688-7.2-1.491-1.838-2.991-1.781-4.444 0.112-0.253 0.338-0.506 0.713-0.628 1.116-1.866 6.009-4.191 11.859-5.766 18-2.175 8.541-5.1 16.959-11.278 23.7-0.3 0.319-0.563 0.647-0.862 0.966-0.113 0.113-0.244 0.197-0.525 0.431-0.244-0.816-0.45-1.556-0.675-2.297-0.759-2.616-1.622-5.222-2.278-7.856-1.463-5.85-3.15-11.681-2.306-17.859 0.103-0.834 0-1.716-0.066-2.559-0.281-3.684-0.619-7.369-0.872-11.053-0.113-1.856-0.366-2.053-2.194-2.119-7.922-0.3-15.366 2.194-22.894 4.050-3.834 0.956-7.603 2.241-11.4 3.366-1.641 0.487-2.278 1.603-1.837 3.187 1.275 4.697 2.419 9.441 3.975 14.044 1.856 5.475 4.106 10.809 6.178 16.219 0.169 0.45 0.478 0.938 0.431 1.369-0.141 0.956-0.197 2.128-0.787 2.747-0.394 0.422-1.669 0.169-2.484-0.028-0.769-0.178-1.463-0.656-2.166-1.069-5.512-3.122-10.997-6.234-16.472-9.394-0.825-0.469-1.528-1.144-2.297-1.716-1.022-0.759-2.081-1.463-3.047-2.297-0.928-0.787-1.856-1.622-2.559-2.588-1.659-2.269-3.544-2.625-5.522-0.656-2.053 2.034-3.891 4.294-5.831 6.45-0.684 0.759-1.237 1.772-2.081 2.213-2.559 1.369-3.75 3.656-4.763 6.188-0.366 0.937-0.9 1.837-1.434 2.691-2.709 4.284-4.875 8.719-5.325 13.894-0.281 3.188-0.956 6.356-1.575 9.497-0.431 2.147-1.247 4.172-0.769 6.469 0.253 1.191 0.769 1.678 1.913 1.678 1.35 0 2.7 0.159 4.022-0.009 1.041-0.15 2.119-0.563 3.038-1.097 0.844-0.506 1.462-0.703 2.475-0.291 1.106 0.422 2.4 0.469 3.628 0.497 6.281 0.113 12.563 0.094 18.834 0.291 2.025 0.066 4.022 0.656 6.019 1.022 0.216 0.038 0.422 0.113 0.6 0.216 2.269 0.975 4.481 2.053 6.891 3.216zM99.375 272.616c0.337-0.028 0.984 0.113 1.144-0.103 0.469-0.628 1.069-1.434 1.022-2.137-0.112-1.275-1.022-0.834-1.772-0.431-0.506 0.272-1.097 0.45-1.584 0.75-0.403 0.272-0.703 0.684-1.069 1.041 0.45 0.272 0.9 0.581 1.388 0.787 0.225 0.103 0.525 0.066 0.881 0.084zM34.988 248.128c-0.094-0.956-0.084-1.8-0.281-2.578-0.094-0.366-0.619-0.6-0.938-0.909-0.272 0.366-0.703 0.713-0.759 1.097-0.188 1.322 0.506 2.053 1.987 2.391zM218.353 194.531c1.322-1.434 1.425-2.297 0.422-3.881-0.675 1.303-1.369 2.475-0.422 3.881z"></path>
</svg>
