<svg xmlns="http://www.w3.org/2000/svg" viewBox="0 0 300 300"><path d="M250.059 55.594c-.984 4.856-2.269 9.075-3.881 13.125l.178-.506a8.4 8.4 0 0 0-1.153 4.256 8.4 8.4 0 0 0 2.794 6.263l.009.009c5.897 7.247 10.669 15.684 13.894 24.872l.188.591c3.262 7.688 5.738 16.622 6.984 25.941l.056.534a7.92 7.92 0 0 0 4.988 7.181l.056.019c8.653 3.047 16.238 8.709 25.509 10.294.525.225.984.525 1.369.891a5.9 5.9 0 0 1-1.275.947l-.028.019c-6.244 2.297-12.872 3.769-18.094 8.334-9.75 0-12.844 5.906-13.256 14.784-.619 5.091-1.819 9.731-3.563 14.1l.131-.375c-1.406 5.091-3.113 9.469-5.203 13.641l.197-.431c-3.262 7.059-7.05 13.153-11.503 18.703l.131-.169c-6.047 6.853-5.222 13.275-2.841 20.578.75 2.391 1.725 4.697 2.334 7.134s-.787 3.431-2.784 2.784c-4.256-1.2-8.522-2.438-12.703-3.881-1.181-.553-2.578-.872-4.031-.872a9.74 9.74 0 0 0-6.281 2.287l.019-.009c-6.141 5.016-13.153 9.347-20.7 12.694l-.591.234c-4.078 1.678-8.1 3.431-12.225 5.006s-8.034 2.372-11.775 4.116a9.06 9.06 0 0 0-4.688 4.069l-.028.047c-3.431 6.309-5.353 13.209-8.447 19.622a2.55 2.55 0 0 1-1.809 1.2h-.009c-.581 0-1.134-.891-1.612-1.472a1 1 0 0 1-.094-.412c0-.15.038-.291.094-.422v.009c2.569-11.7-1.2-23.353-.272-35.119-.019-.15-.019-.319-.019-.497a5.527 5.527 0 0 1 5.081-5.503h.019c7.519-1.922 14.934-4.153 22.378-6.244.891-.3 1.659-.638 2.381-1.041l-.084.038c14.972-7.444 27.563-17.55 37.612-29.813l.15-.197c3.431-4.359 6.319-8.888 9.338-13.444 3.197-5.044 5.756-10.884 7.331-17.109l.094-.422a8.9 8.9 0 0 1 .638-2.456l-.019.056c4.903-7.547 4.838-15.984 4.566-24.497v-4.284c0-21.066.384-21.197-7.069-40.134-3.478-8.55-7.753-15.937-12.872-22.631l.178.234c-6.056-8.287-13.162-15.347-21.244-21.141l-.281-.197c-5.119-3.431-10.294-6.853-15.684-10.284a6.3 6.3 0 0 0-2.691-.591c-.262 0-.516.019-.769.047h.028a14.3 14.3 0 0 1-6.281-2.025l.066.038c-4.481-1.922-9.769-3.591-15.253-4.716l-.544-.094c-5.006-1.134-6.628-2.334-6.863-7.416V6.749c0-.656.619-1.275 1.003-1.912a4.4 4.4 0 0 1 1.406.891 31 31 0 0 1 2.916 4.725l.084.178c1.988 4.556 4.013 9.159 5.662 13.894 1.106 3.553 4.069 6.216 7.734 6.844l.066.009c8.175 1.659 15.422 4.238 22.153 7.669l-.487-.225c8.756 4.022 16.284 8.606 23.222 13.931l-.281-.206a12.5 12.5 0 0 0 7.988 2.85 12.6 12.6 0 0 0 4.594-.862l-.084.028c4.519-.975 8.278-2.034 11.944-3.309l-.722.216c2.709-1.003 2.541.412 2.578 4.116zM137.334 17.316c-.544 2.878-1.406 6.684-1.959 10.566-.037.431-.056.947-.056 1.463 0 1.238.122 2.447.356 3.619l-.019-.122c.469 2.016.872 4.538 1.144 7.116l.028.3c.178 7.688 0 7.238-7.519 8.953-16.791 3.806-32.681 9.6-45.122 22.359a81 81 0 0 1-8.259 6.684l-.253.169c-7.313 5.756-11.128 14.128-15.788 21.741-4.153 6.862-8.653 13.725-8.794 22.2-6.047 12.994-3.441 26.859-3.056 40.238.928 10.519 3.816 20.175 8.306 28.875l-.197-.441c6.225 13.781 14.972 25.416 25.734 34.781l.112.103a102 102 0 0 0 21.478 15l.563.262c2.025.891 4.622 1.838 7.266 2.644l.525.141c6.244 2.634 13.678 4.997 21.366 6.694l.881.169c2.231.412 2.953 1.472 2.775 3.431-.75 8.4 1.275 16.875-1.275 25.313-.928 3.15.853 7.069 1.238 10.631.084.637.131 1.378.131 2.128s-.047 1.491-.131 2.212l.009-.094a1.59 1.59 0 0 1-1.191.984h-.009c-.722 0-2.025-.516-2.063-.891-.684-8.606-6.178-15.366-9.028-23.119-.441-1.162-1.819-2.784-2.841-2.813-8.306-.516-14.691-6.853-23.034-7.162-8.269-5.662-18.197-8.709-25.238-16.219-1.275-1.556-3.197-2.55-5.344-2.55-.825 0-1.603.15-2.325.403l.047-.019c-5.081 1.406-10.125 2.813-15.169 4.322-2.4.722-3.131-.516-3.019-2.503a22 22 0 0 1 .825-4.238l-.037.15c1.275-4.8 2.709-9.572 3.816-14.409a5.65 5.65 0 0 0-1.388-3.431l.009.009c-8.1-11.306-14.616-24.431-18.844-38.541l-.244-.938c-1.209-3.844-2.259-8.475-2.934-13.237l-.056-.488c-.75-6.178-2.775-9.6-8.719-10.566-7.284-1.134-12.844-5.287-18.844-8.784-1.584-.891-1.106-1.059 0-2.063 5.522-4.697 12.497-6.066 19.022-8.334 4.922-1.256 8.541-5.616 8.616-10.828v-.009c.881-8.334 2.822-15.984 5.7-23.156l-.206.581c4.359-11.906 10.566-22.162 18.356-30.966l-.094.103a5.656 5.656 0 0 0 1.182-6.891l.019.028c-1.612-3.272-2.719-7.069-3.113-11.081l-.009-.141c-1.369-8.878-1.753-8.841 7.247-6.038 4.228 1.341 8.616 4.322 12.563 3.769s7.65-4.359 11.194-7.069c8.1-6.206 17.719-9.441 26.644-13.997 3.028-1.078 6.581-1.913 10.256-2.381l.253-.028a7.75 7.75 0 0 0 6.272-5.428l.019-.056c2.4-6.853 6.862-12.834 8.203-20.1 0-.45.581-.853.853-1.303.684.516 1.856.928 1.95 1.509.45 2.953.722 6.309 1.237 10.734z"/></svg>