<svg xmlns="http://www.w3.org/2000/svg" xml:space="preserve" fill-rule="evenodd" stroke-linejoin="round" stroke-miterlimit="2" clip-rule="evenodd" viewBox="0 0 300 300"><path fill-rule="nonzero" d="M298.153 9.516c-4.003 6.581-8.175 13.059-11.944 19.781-5.1 9.056-10.65 17.859-14.447 27.6-1.603 4.078-3.131 8.297-5.484 11.934-1.828 2.813-3.272 5.737-4.613 8.756-5.072 11.503-10.05 23.072-15.103 34.594-1.716 3.919-3.609 7.753-5.269 11.7-.816 1.941-1.341 4.041-1.809 6.103-.366 1.65-1.069 2.175-2.7 1.584-3.15-1.153-4.734-4.538-3.731-7.678.956-2.981 1.575-5.962.75-9.141-.366-1.397-.066-2.963-.094-4.453-.112-5.081-.197-10.181-.366-15.262-.169-5.044-.394-10.078-.6-15.113a139 139 0 0 0-.347-5.625c-.169-1.744-.909-2.147-2.484-1.341-.553.281-1.059.722-1.472 1.209-3.862 4.388-7.613 8.878-11.606 13.163-2.428 2.606-5.316 4.791-7.837 7.312-3.966 3.984-8.166 7.753-11.306 12.516-.862 1.303-2.334 2.194-3.431 3.347-2.053 2.156-4.191 4.275-6.047 6.609-3.806 4.8-7.556 9.675-11.175 14.625-7.509 10.294-16.247 19.631-23.222 30.347-5.766 8.841-11.606 17.597-16.472 26.972-.872 1.678-2.063 3.178-3.131 4.753a15 15 0 0 1-.525-.131c-.169-.628-.45-1.247-.525-1.884-.122-1.162.028-2.372-.178-3.525-.384-2.241-.844-4.491-1.463-6.675-.45-1.575-1.322-3.037-1.744-4.641-.506-1.838-1.838-2.119-3.403-2.391-1.528-.272-2.428.188-3.319 1.528-5.747 8.803-11.569 17.541-17.428 26.269-.984 1.463-2.241 2.728-3.478 4.013-2.513 2.606-4.453 5.569-6.366 8.634-1.828 2.925-4.369 5.381-6.638 8.016-.6.713-1.434.703-1.922-.056-.553-.872-1.275-1.931-1.181-2.841.244-2.466.347-5.044 2.053-7.144.3-.366.366-1.003.347-1.5-.038-.628-.225-1.266-.45-1.856-1.266-3.319-1.491-3.272-5.016-3.488-2.756-.159-5.494-.862-8.231-1.294-1.472-.244-2.953-.619-4.425-.703-5.888-.309-11.794-.591-17.691-.778-6.694-.216-9.853.366-20.334 3.459-.506-1.856-.15-3.6.647-5.259.563-1.2 1.106-2.494 1.941-3.497.788-.956 1.837-1.781 2.934-2.362 1.997-1.041 4.106-1.828 6.141-2.738 7.144-3.197 14.306-6.347 21.431-9.591 8.475-3.881 16.219-8.775 23.269-15.019 3.938-3.488 7.734-7.256 12-10.35 4.866-3.525 8.972-7.781 13.425-11.728 3.825-3.394 7.266-7.116 10.866-10.697 1.022-1.022 2.222-1.866 3.441-2.644 2.953-1.875 5.034-4.416 6.356-7.659.431-1.041 1.284-1.931 1.734-2.981.469-1.097.684-2.306 1.041-3.581.169.028.469.066.75.15 1.434.422 2.419-.009 3.234-1.322 1.941-3.066 4.013-6.066 6.094-9.178 1.688.909 2.644 2.213 2.981 3.909.197.984.281 2.025.225 3.028-.169 3.497.731 4.303 4.228 3.656.216-.037.45-.103.628-.037 2.362.834 3.375-.731 4.172-2.447 2.063-4.397 5.119-7.941 8.841-11.091 2.963-2.522 5.437-5.625 8.203-8.4 7.734-7.753 15.591-15.384 23.222-23.213 4.303-4.416 8.306-9.094 12.356-13.744.619-.712 1.153-2.166.834-2.813-.366-.703-1.781-1.191-2.738-1.181-6.159.112-12.337.253-18.497.647-4.866.309-9.628.534-14.297-1.247-1.162-.441-2.531-.506-3.797-.534-2.897-.066-5.803 0-8.7-.009-.553 0-1.097-.084-1.959-.141.422-.403.553-.591.722-.656.787-.375 1.884-.469 1.688-1.772s-.956-2.166-2.175-2.531c-.534-.169-1.209-.244-1.734-.084-1.688.506-2.091-.366-2.119-1.772v-1.359c.787 0 1.603-.169 2.325.028 3.15.872 6.216.403 9.159-.741 8.475-3.3 17.391-5.063 26.109-7.472 1.275-.347 2.681-.281 3.966-.647 2.419-.675 4.875-1.294 7.144-2.325 5.737-2.597 11.569-4.791 17.766-6.066 2.241-.45 4.444-1.238 6.581-2.091 13.031-5.325 26.662-8.803 40.069-12.938 6.159-1.912 12.188-4.134 17.953-7.012 1.659-.834 3.262-1.753 4.884-2.644h.319c.75.966 1.5 1.941 2.259 2.897-.056.656-.056 1.294-.056 1.941z"/><path fill-rule="nonzero" d="M73.744 163.762c-3.094 1.303-6.375 2.625-9.6 4.05-3.966 1.753-7.884 3.609-11.85 5.391-1.163.525-2.344 1.069-3.572 1.397-1.294.347-2.062.938-2.259 2.334-.216 1.612-1.191 2.7-2.672 3.366-3.544 1.575-7.275 2.672-10.509 4.95-1.669 1.181-3.534 1.856-5.662.469-1.359-.872-2.578-.141-3.075 1.472-1.059 3.431-1.5 6.891-.394 10.434.647 2.034 1.106 4.134 1.772 6.169.338 1.041 1.069 1.969 1.406 3.019.45 1.406 1.003 2.869 1.003 4.303 0 2.578.881 4.453 2.878 6.113 1.162.984 1.884 2.55 2.616 3.947.591 1.125.863 2.428 1.378 3.6.966 2.109 2.344 2.859 4.65 2.578 2.925-.366 5.878-.6 8.766-1.219 1.556-.338 3.112-1.116 4.416-2.053 1.763-1.256 3.375-2.606 5.625-2.925.619-.084 1.237-.628 1.716-1.088 1.753-1.631 3.572-2.991 6.178-3.084.816-.028 1.716-.984 2.391-1.678 1.219-1.275 4.106-2.25 5.709-1.678.319.122.722.591.722.881-.009.984.056 2.109-.375 2.953-1.219 2.447-2.587 4.809-4.022 7.134-1.772 2.859-3.019 5.887-3.694 9.188-.244 1.181-.787 2.306-1.247 3.431-1.575 3.741-3.291 7.434-4.734 11.231-1.003 2.653.337 4.95 3.019 6.009 1.181.45 2.269 1.153 3.384 1.772.881.497 1.716 1.087 2.625 1.556 3.066 1.556 6.056 3.262 9.225 4.538 2.513 1.003 5.231 1.5 7.866 2.128 2.063.506 4.2.741 6.244 1.303 2.109.581 2.419.525 3.009-1.519.047-.197.084-.422.159-.619.703-2.306.787-2.344 3.178-1.734 2.138.553 2.269.422 2.672-1.809.141-.759.478-1.528.834-2.222 1.622-3.066 3.431-6.047 4.922-9.15 1.603-3.328 3.009-6.75 4.341-10.191.563-1.472.787-3.094 1.041-4.669.394-2.588.563-5.203.984-7.781.787-5.034 1.603-10.05 2.559-15.047.366-1.987 1.237-3.862 1.706-5.831.347-1.472.431-3.009.619-4.5.337-2.803.319-5.709 1.959-8.166.3-.45.844-.731 1.294-1.087.319.45.862.881.938 1.378.45 2.841 1.406 5.794 1.05 8.559-1.022 7.762.337 15.394.572 23.1.253 8.447 2.878 16.425 4.528 24.6.244 1.181.103 2.447.347 3.628.394 1.912.928 3.797 1.406 5.681.216.863.403 1.744.703 2.578.403 1.125.6 2.606 1.425 3.262 1.866 1.491 4.013 2.625 6.141 3.75.506.272 1.5.187 1.988-.141 2.897-1.978 6.281-1.997 9.506-2.728 4.331-.984 8.709-1.838 12.919-3.216 7.922-2.616 11.1-12.037 7.762-18.853-1.809-3.684-3.647-7.575-4.256-11.559-.9-5.991-3.178-11.269-6.159-16.294 1.491-1.875 2.644-2.016 4.247-.553 2.934 2.672 5.841 5.372 7.603 9.056.45.938 1.209 1.772 1.941 2.55 4.191 4.556 9.262 8.044 14.269 11.597 2.231 1.584 4.613.872 5.944-1.472 1.678-2.925 3.45-5.803 5.241-8.662 2.081-3.319 4.5-6.422 6.272-9.881 2.119-4.172 4.078-8.503 5.428-12.956.928-3.066.703-6.478.928-9.731.066-1.069-.422-1.941-1.584-2.091-8.1-1.116-15.488-4.547-23.184-6.909-5.813-1.781-11.888-2.681-17.85-3.984-2.672-.581-5.325-1.238-8.016-1.734-1.041-.197-2.203-.338-3.197-.084-2.344.628-4.266-.244-6.412-1.341 1.059-.6 1.922-1.275 2.897-1.631 4.875-1.781 9.609-3.834 15.056-3.778 3.262.028 6.562-.9 9.797-1.612 10.941-2.4 21.853-4.913 32.784-7.378 1.05-.244 2.091-.478 3.15-.703.994-.197 1.519-.731 1.425-1.781-.309-3.262-.591-6.516-.966-9.759-.066-.525-.422-1.219-.844-1.462-1.322-.722-1.453-1.838-1.434-3.141 0-3.066-.984-5.766-3.234-7.969-.769-.741-1.359-1.659-2.016-2.503-.984-1.275-2.222-1.603-3.713-1.069-4.819 1.772-9.609 3.581-14.466 5.269-2.156.759-4.369 1.35-6.609 1.894-.422.103-1.181-.309-1.453-.713-.253-.384-.291-1.191-.037-1.575.787-1.275 1.631-2.531 2.672-3.609 4.116-4.294 8.353-8.475 12.45-12.778 1.716-1.809 3.234-3.825 4.838-5.756.309-.366.553-.816.909-1.116 2.025-1.575 3.169-3.741 4.134-6.038.309-.741.628-1.491 1.088-2.147 1.125-1.584 3.066-1.856 4.228-.337 1.462 1.894 2.672 3.994 3.778 6.112.703 1.359 1.5 2.297 2.934 2.981 1.303.619 2.559 1.622 3.431 2.766 7.528 9.722 10.969 21.009 12.019 33.056.422 4.884.656 9.853.216 14.709-.403 4.575.347 8.944.684 13.425.478 6.244.431 12.431-1.144 18.647-2.672 10.594-5.588 21.113-9.797 31.219-.731 1.772-1.612 3.525-2.738 5.072-4.031 5.484-8.175 10.884-12.309 16.312-2.062 2.709-4.537 4.95-7.397 6.853-1.322.872-2.203 2.372-3.262 3.609-.281.319-.431.759-.731 1.041-4.875 4.012-9.562 8.194-15.731 10.378-3.638 1.284-6.844 3.712-10.303 5.569-3.169 1.688-6.394 3.262-9.572 4.922-.619.319-1.406.553-1.772 1.069-1.181 1.744-3.038 2.194-4.819 2.925-1.678.675-3.262 1.622-4.819 2.55-3.497 2.062-7.134 3.469-11.316 2.644a2.6 2.6 0 0 0-.966-.028c-5.1.834-10.153-.619-15.234-.319-.741.038-1.491-.131-2.231-.281-1.219-.225-1.95-.984-2.316-2.184-.197-.581-.497-1.238-.956-1.556-.403-.281-1.144-.272-1.641-.113-.244.084-.431.834-.366 1.238.188 1.247-.347 1.65-1.519 1.622-1.781-.038-3.544.009-4.988-1.322-.319-.309-1.003-.338-1.519-.319-8.944.375-17.438-1.837-25.875-4.444-.703-.216-1.519-.45-2.194-.281-1.781.469-3.216-.178-4.725-.966-3.441-1.828-6.928-3.553-10.416-5.316-.619-.319-1.303-.562-1.856-.966-5.522-4.05-11.747-7.134-16.641-12.084-1.219-1.247-2.756-2.231-4.228-3.178-3.178-2.063-5.578-4.828-7.575-7.988-.272-.431-.591-.956-1.022-1.153-2.081-.966-2.991-2.681-3.319-4.8-.225-1.5-.816-2.147-2.484-2.709-1.434-.487-2.559-2.55-3.319-4.162-.731-1.547-.816-3.403-1.144-5.128-.084-.441.037-.909.422-1.519.375.45.788.881 1.125 1.378.881 1.359 2.034 1.341 2.812-.112 1.003-1.941 1.125-3.966-.122-5.822-2.044-3.019-3.441-6.291-4.453-9.75-.337-1.144-1.125-1.744-2.25-2.278-1.247-.591-2.391-1.613-3.3-2.672-1.003-1.153-2.063-1.716-3.6-1.706-1.322.009-2.653-.272-3.984-.403-.431-.037-.928-.216-1.266-.056-1.659.806-2.569-.094-3.216-1.378-.806-1.622-1.678-3.262-2.175-4.978-2.063-7.219-3.731-14.522-4.144-22.059-.056-.881-.525-1.744-.619-2.644a28 28 0 0 1-.169-4.088c.056-1.275.366-2.531.478-3.806.684-8.062 1.294-16.125 2.053-24.188.244-2.606.563-5.269 1.378-7.734 1.209-3.628 2.925-7.116 4.369-10.678.309-.759.291-1.659.553-2.447.45-1.406.881-2.831 1.5-4.172.956-2.091 2.203-4.05 3.047-6.178 2.981-7.462 7.181-14.269 12.666-20.006C36.121 90.828 46.443 80.393 59.24 72.884a45 45 0 0 0 4.387-2.991c5.034-3.862 10.875-6.328 16.847-7.706 4.341-1.003 8.541-2.681 13.069-3.094 2.897-.272 5.794-1.031 8.616-1.856 3.797-1.116 7.688-1.322 11.597-1.547 3.047-.169 6.094-.581 9.131-.862 3.797-.347 7.491-.084 10.969 1.744.834.422 1.838.581 2.784.741 9.769 1.65 18.469 5.794 26.494 11.447.422.309.787.722 1.153 1.116 1.284 1.369 2.831 1.959 4.734 1.997 1.547.028 3.094.291 4.594.647 1.603.366 1.866 1.341.525 2.297-.928.656-2.222 1.116-3.347 1.116-2.034-.009-3.825.188-5.128 2.016-.309.441-.956.675-1.472.928-2.606 1.209-4.65 3.019-6.216 5.428-.431.675-1.266 1.059-1.838 1.659-.984 1.003-2.109 1.959-2.841 3.15-1.341 2.194-2.456 2.428-4.706 1.191-3.216-1.753-5.456-4.453-7.688-7.2-1.491-1.838-2.991-1.781-4.444.112-.253.338-.506.713-.628 1.116-1.866 6.009-4.191 11.859-5.766 18-2.175 8.541-5.1 16.959-11.278 23.7-.3.319-.563.647-.862.966-.113.113-.244.197-.525.431-.244-.816-.45-1.556-.675-2.297-.759-2.616-1.622-5.222-2.278-7.856-1.463-5.85-3.15-11.681-2.306-17.859.103-.834 0-1.716-.066-2.559-.281-3.684-.619-7.369-.872-11.053-.113-1.856-.366-2.053-2.194-2.119-7.922-.3-15.366 2.194-22.894 4.05-3.834.956-7.603 2.241-11.4 3.366-1.641.487-2.278 1.603-1.837 3.187 1.275 4.697 2.419 9.441 3.975 14.044 1.856 5.475 4.106 10.809 6.178 16.219.169.45.478.938.431 1.369-.141.956-.197 2.128-.787 2.747-.394.422-1.669.169-2.484-.028-.769-.178-1.463-.656-2.166-1.069a2335 2335 0 0 1-16.472-9.394c-.825-.469-1.528-1.144-2.297-1.716-1.022-.759-2.081-1.463-3.047-2.297-.928-.787-1.856-1.622-2.559-2.588-1.659-2.269-3.544-2.625-5.522-.656-2.053 2.034-3.891 4.294-5.831 6.45-.684.759-1.237 1.772-2.081 2.213-2.559 1.369-3.75 3.656-4.763 6.188-.366.937-.9 1.837-1.434 2.691-2.709 4.284-4.875 8.719-5.325 13.894-.281 3.188-.956 6.356-1.575 9.497-.431 2.147-1.247 4.172-.769 6.469.253 1.191.769 1.678 1.913 1.678 1.35 0 2.7.159 4.022-.009 1.041-.15 2.119-.563 3.038-1.097.844-.506 1.462-.703 2.475-.291 1.106.422 2.4.469 3.628.497 6.281.113 12.563.094 18.834.291 2.025.066 4.022.656 6.019 1.022.216.038.422.113.6.216 2.269.975 4.481 2.053 6.891 3.216z"/></svg>