<!-- Generated by IcoMoon.io -->
<svg version="1.1" xmlns="http://www.w3.org/2000/svg" width="300" height="300" viewBox="0 0 300 300">
<title>fighters-ferocious</title>
<path d="M179.475 241.097c-5.616-1.219-7.341-0.056-7.5 4.941-0.112 4.659-2.887 7.716-5.944 10.659-1.162 1.163-2.447 2.166-4.172 3.722-0.281-1.387-0.834-2.447-0.666-3.328 1.059-4.659-0.384-9.103-1.106-13.547-0.384-2.447-1.941-3.778-4.331-3.938-2.222-0.225-3.609 1.059-4.331 3.113-0.338 1.003-0.891 1.941-1.275 2.662-0.947-1.669-1.884-3.216-2.728-4.659-0.947 1.725-1.781 2.944-2.222 4.275-0.384 1.275-0.497 2.662-0.553 4.050-0.113 2.278 0 4.603-0.225 6.881-0.056 0.666-0.666 1.669-1.275 1.884s-1.556-0.225-2.166-0.666c-3.384-2.166-4.341-5.437-4.556-9.328-0.225-4.219-2.447-7.716-5.287-11.213-2.278 2.719-2.55 5.944-3 8.991-0.281 1.941-1.162 3.216-3.056 3.216-0.778 0-2.231-1.003-2.278-1.613-0.281-5.166-2.728-9.544-5.063-13.931-2.053-3.938-3.384-7.941-4.050-12.375-1.444-9.103-9.45-8.662-14.672-5.109-1.219 0.834-2.391 1.725-3.722 2.662-1.059-1.219-2.606-2.944-4.106-4.772-3.563-4.219-7.116-8.437-10.556-12.769-0.384-0.497-0.281-1.613-0.225-2.391 0.225-1.941 1.059-3.938 0.891-5.831-0.609-5.719-1.612-11.438-2.447-17.156-0.112-0.722-0.112-1.5 0.113-2.109 1.387-3.778 1.941-7.547 1.997-11.606 0-3.778 1.059-7.547 1.556-11.325 0.666-4.884 0.722-9.881-3.216-13.378-2.391-2.109-5.784-3.056-8.672-4.659-5.391-3.056-11.334-1.781-17.063-2.278-6.891-0.609-13.566-1.781-19.612-5.662-5.391-3.441-9.834-7.716-13.884-12.488-0.834-0.947-1.444-2.166-1.997-3.272-3.122-6.103-6.891-11.991-9.169-18.431-2.166-6.159-3.384-12.769-3.994-19.322s-0.281-13.266 0.113-19.875c1.059-18.759 9.113-34.528 21.563-48.3 1.003-1.106 2.334-1.884 3.562-2.831 0.281 0.169 0.609 0.281 0.891 0.441-0.338 1.5-0.497 3.056-0.891 4.556-1.828 7.106-4.106 14.156-5.447 21.375-1.219 6.666-1.941 13.547 0.609 20.156 2.494 6.497 4.716 13.097 7.837 19.322 2.494 5.053 5.944 9.656 9.281 14.269 2.391 3.328 5.841 5.222 9.947 5.887 1.003 0.169 2.222 0.113 2.944 0.666 5.053 3.891 11.447 3.113 17.063 4.941 5.063 1.669 10.172 0.891 15.338 0.497 8.119-0.609 14.513-4.828 21.112-8.775 3.441-2.109 6.947-4.331 10.669-5.775 3.272-1.275 6.947-1.5 10.444-2.222 5.053-1.050 10.116-1.941 15.122-3.328 6.947-1.941 13.444-0.056 19.725 2.166 10.116 3.609 20.119 7.772 29.841 12.328 3.384 1.612 5.953 4.997 8.616 7.884 2.55 2.775 5.287 4.941 9.169 5.662 2.494 0.441 4.837 1.828 7.284 2.166 6.047 0.834 12-0.553 17.447-3.056 5.503-2.494 10.669-5.775 15.787-9.047 1.613-1.003 2.447-3.169 3.722-4.659 2.887-3.441 6.103-6.609 8.728-10.219 5.278-7.275 7.95-15.6 9.45-24.422 2.278-13.322 0.337-26.091-3.9-38.747-0.441-1.331-0.056-2.944-0.056-4.444 1.5-0.338 2.728-0.609 4.219-0.947 8.063 11.494 15.675 23.316 16.172 38.194 0.113 3.834 0.834 7.659 1.219 11.55 0.056 0.553 0.056 1.106-0.056 1.612-3.112 13.434-6.009 26.981-9.45 40.359-2.166 8.55-5.784 16.65-10.387 24.263-2.662 4.388-6.506 7.162-10.997 9.328-2.887 1.387-5.559 3.272-8.503 4.556-3.328 1.5-6.881 2.494-10.331 3.834-2.494 1.003-5.175 1.781-7.228 3.384-2.719 2.053-5.287 4.556-7.397 7.275-2.662 3.553-4.894 7.444-7.116 11.269-0.778 1.387-1.162 3.169-1.162 4.716 0 4.275 0.497 8.606 0.338 12.881-0.112 2.775-0.553 5.719-1.612 8.325-1.828 4.556-2.55 9.159-2.606 13.988 0 2.278-0.384 4.556-0.666 6.825-0.056 0.497-0.384 1.059-0.778 1.331-3.272 2.662-6.562 5.325-10.003 7.828-0.666 0.497-1.997 0.497-2.888 0.338-6.337-1.162-12.609-1.941-17.447 3.497-1.275 1.444-2.231 3.441-2.55 5.278-0.947 4.556-1.444 9.103-2.109 13.819zM130.519 185.972c-3-3.441-6.009-6.666-8.728-10.106-2.887-3.609-6.112-4.659-10.116-2.887-4.566 2.053-5.672 4.050-4.566 9.159 0.384 1.828-0.056 4.331 2.494 5.109 3.778 1.106 7.612 2.278 11.447 3.113 4.116 0.947 7.781-1.059 9.45-4.387zM153.581 196.8c-1.5 0.778-2.831 1.444-4.106 2.166-0.947 0.553-1.997 1.003-2.662 1.772-1.219 1.388-2.166 3-3.281 4.444-2.222 2.887-2.775 6.103-2.278 9.6 0.337 2.222 2.606 3.666 4.509 2.55 1.388-0.834 2.55-2.278 3.441-3.666 0.947-1.5 1.444-3.216 2.166-4.884 1.162 2.662 1.613 5.222 2.494 7.603 0.384 1.059 1.556 2.166 2.606 2.494 0.891 0.281 2.662-0.281 3.122-1.003 1.162-1.884 2.053-3.994 0.834-6.441-1.828-3.609-3.384-7.331-5.053-10.941-0.553-1.275-1.162-2.494-1.791-3.722zM168.253 188.531c0.891 2.278 3.113 3.834 6.225 4.659 4.162 1.059 8.006-0.384 11.831-1.331 6.337-1.556 6.619-8.991 3.384-12.047-3.056-2.887-7.838-2.775-10.894 0-3.169 2.944-6.675 5.55-10.556 8.719z"></path>
<path d="M125.184 253.087c-0.834 4.219 1.331 7.331 2.888 10.547 0.169 0.281 0.609 0.609 0.891 0.609 4.894-0.337 8.222 4.050 13.059 4.219 3.337 0.113 4.837-0.113 6.112-3.272 1.387-3.441 2.278-7.163 3.328-10.716 0.338-1.059 0.497-2.109 1.5-3.609 0.891 1.106 2.222 2.109 2.494 3.384 1.059 4.388 1.725 8.831 2.494 13.209 0.169 0.947 0 1.997 0 3.497 4.050-1.772 7.716-3.216 11.166-5.053 1.106-0.609 1.772-2.109 2.55-3.216 1.669-2.391 3.112-4.941 4.997-7.106 3-3.497 5.006-7.884 9.225-10.378 0.834-0.497 1.162-2.109 1.556-3.216 0.891-2.55 1.556-5.222 2.494-7.716 0.225-0.609 1.388-0.891 2.222-1.162 1.613-0.553 3.272-0.947 4.894-1.5 3.384-1.162 6.778-2.334 10.116-3.609 2.606-1.059 5.334-2.053 7.716-3.553 7.341-4.5 13.838-10.162 18.506-17.325 3.441-5.325 4.331-11.822 5.053-18.15 0.225-1.884 0.722-3.722 1.162-6.159 1.162 0.834 2.053 1.106 2.391 1.725 1.613 3.056 4.003 5.775 3.619 9.6-0.553 5.437-0.947 10.884-1.612 16.322-0.169 1.219-0.891 2.447-1.5 3.553-2.662 4.884-4.997 10.106-8.334 14.541-3.113 4.162-7.397 7.444-11.109 11.1-1.387 1.387-2.662 2.944-4.059 4.387-2.278 2.391-4.5 4.828-6.947 7.050-2.334 2.109-4.838 4.162-7.556 5.831-2.55 1.556-5.391 2.662-8.166 3.834-6.225 2.606-9.891 10.163-7.95 16.603 0.834 2.887 0.056 5.109-2.278 6.994-4.556 3.778-8.944 7.716-13.5 11.438-2.662 2.222-5.672 3.384-9.394 3.169-5.494-0.338-11.109-0.056-16.622 0-0.834 0-1.725-0.056-2.447 0.225-5.287 1.941-9.778 0.384-14.231-2.606-1.612-1.106-3.891-1.163-5.606-2.166-2.887-1.669-5.55-3.834-8.447-5.55-1.106-0.666-2.606-0.834-3.9-1.106-4.659-1.003-8.062-2.719-8.278-7.716-0.281-6.938-3.609-12.769-6.112-18.984-1.106-2.719-3.169-3.609-5.391-4.659-7.397-3.553-14.897-6.994-20.888-12.825-2.053-1.997-3.9-4.219-5.391-6.666-5.334-8.934-10.837-17.878-12.497-28.369-0.722-4.716-1.331-9.497-1.5-14.269-0.337-6.994-0.281-14.044-0.337-21.037 0-1.275-0.056-2.662 0.384-3.834 2.166-5.437 4.5-10.828 6.947-16.547 2.278 1.725 2.663 3.328 2.55 5.831-0.337 5.887-0.056 11.822 0.337 17.709 0.441 7.331 2.278 14.437 6.225 20.709 3.056 4.884 6.506 9.656 10.331 13.931 4.781 5.222 10.059 9.994 15.281 14.766 2.887 2.662 6.225 4.162 10.388 2.775 1.884-0.609 3.497 0.056 4.5 2.053 1.5 2.944 3.328 5.662 4.838 8.55 2.053 3.994 3.384 8.269 3.056 12.881-0.056 1.003-0.225 2.109 0.056 3.056s1.003 1.828 1.5 2.719c0.609-0.666 1.397-1.275 1.828-1.997 1.331-1.884 2.887-2.888 5.334-2.719z"></path>
</svg>
