<!-- Generated by IcoMoon.io -->
<svg version="1.1" xmlns="http://www.w3.org/2000/svg" width="300" height="300" viewBox="0 0 300 300">
<title>fighters-terrifying</title>
<path d="M50.597 117.366c-0.234 0.056-0.112 0 0 0 6.3 0.938 11.841 0.291 16.697-4.781 4.781-5.016 10.387-9.216 15.581-13.941 2.972-2.681 5.194-2.859 7.819 0.178 1.753 2.044 3.094 4.378 5.428 6.591 0.112-1.688 0.469-3.384 0.234-4.959-0.872-4.781-6.478-9.038-11.025-7.697-2.737 0.816-5.137 3.206-7.462 5.138-5.484 4.613-10.744 9.45-16.172 14.119-3.038 2.625-6.825 1.519-10.322 1.575-1.809 0.056-3.619-0.469-5.363-0.872-3.206-0.816-4.434-3.497-3.262-6.591 1.050-2.859 1.753-5.888 2.803-8.747 0.994-2.569 2.859-4.959 3.263-7.584 0.759-5.428 0.816-10.969 1.106-16.453 0.056-0.638-0.112-1.341 0.056-1.987 2.803-10.913 6.3-21.581 13.247-30.684 2.513-3.263 5.775-5.953 8.878-8.747 3.206-2.972 6.825-5.597 9.872-8.747 4.2-4.256 9.394-6.712 14.766-8.812 10.322-3.966 19.547-10.791 30.816-12.253 8.231-1.050 16.575-2.156 24.862-2.044 6.656 0.113 13.313 2.156 19.959 3.263 1.341 0.234 2.738 0.113 4.022 0.469 6.066 1.753 12.431 2.916 17.569 7.003 0.581 0.469 1.284 0.872 2.044 1.050 8.409 1.988 15.525 6.356 21.947 11.963 4.669 4.087 9.684 7.931 13.547 12.656 3.441 4.256 6.244 9.394 7.931 14.578 3.262 10.153 5.541 20.653 8.344 31.031 0.759 2.859 1.575 5.775 2.625 8.512 0.469 1.163 1.631 2.156 2.569 3.094 4.256 4.144 3.15 12.656-2.044 15.169-0.872 0.413-2.1 0.291-3.619 0.525-1.284 5.016-6.3 3.675-10.153 4.256-4.434 0.703-8.522-0.234-12.084-3.909-4.959-5.138-10.688-9.563-16.050-14.231-1.922-1.631-3.853-3.094-6.647-2.972-6.3 0.113-10.8 6.478-8.644 13.416 1.050-1.519 1.809-2.737 2.681-3.909 0.816-1.162 1.631-2.391 2.625-3.441 2.278-2.447 4.2-2.625 6.713-0.469 6.122 5.362 12.319 10.612 18.206 16.219 4.378 4.2 9.506 3.853 14.709 3.037 2.972-0.469 5.831-1.753 9.103-2.803-1.162 2.447-2.512 4.837-3.441 7.35-1.519 4.378-3.497 8.747-4.022 13.237-1.284 11.259-1.809 22.575-2.738 33.834-0.638 7.697-1.575 15.337-2.334 23.044-0.291 2.972-0.638 5.953-0.703 8.925-0.234 8.4-3.094 16.275-4.547 24.441-0.581 3.328-0.178 6.769-0.581 10.153-0.525 3.787-1.341 7.528-2.334 11.259-0.581 2.334-1.866 4.491-2.569 6.769-1.397 4.612-4.903 7.237-8.578 9.797-7.462 5.194-14.944 10.266-21.187 17.034-2.681 2.916-6.009 5.194-9.047 7.762-1.922 1.631-3.853 3.206-5.662 4.959-2.972 2.859-7.35 1.866-10.622 3.909-1.284 0.816-2.803 1.284-4.256 1.753-1.397 0.469-2.859 1.228-4.256 1.228-11.091 0.056-22.238 0.056-33.328-0.113-1.866-0.056-3.966-0.938-5.484-2.044-2.625-1.922-4.838-4.491-7.406-6.534-6.009-4.725-12.141-9.272-18.263-13.828-5.306-3.966-10.5-8.222-16.106-11.728-4.903-3.094-6.422-8.4-9.225-12.778-1.922-2.972-1.866-7.406-2.1-11.259-0.703-11.841-2.859-23.391-5.953-34.884-1.050-3.909-1.228-8.053-2.278-11.897-1.987-7.003-2.569-14.063-2.391-21.234 0.112-6.478 0.112-12.947-0.291-19.425-0.347-5.953-0.816-11.963-1.987-17.85-1.519-6.412-3.675-12.656-5.438-19.078zM201.516 148.575c-0.178 0.112-0.412 0.178-0.581 0.291 0-1.463 0.178-2.916-0.056-4.313-0.112-0.703-0.872-1.631-1.575-1.866-0.525-0.178-1.341 0.703-2.044 0.938-1.050 0.347-2.513 1.162-3.15 0.759-0.759-0.469-1.228-2.156-0.994-3.094 0.816-3.037 0.816-5.831-1.462-8.691-0.469 1.753-0.638 3.328-1.341 4.669-1.228 2.278-2.512 4.669-4.313 6.478-0.759 0.759-2.859 0.113-4.613 0.113 0.291-1.397 0.525-2.278 0.638-3.094 0.347-3.853 0.703-7.697 0.872-11.55 0-0.581-0.872-1.228-1.341-1.809-0.413 0.581-1.050 1.163-1.106 1.753-0.413 2.972-0.759 5.953-1.050 8.925-0.347 3.441-2.569 5.719-5.306 7.172-1.341 0.703-3.384 0.112-5.194 0.112 0-5.831 0.056-11.55-0.056-17.269 0-0.938-0.816-1.866-1.228-2.803-0.469 0.938-1.228 1.866-1.284 2.859-0.113 3.384 0.291 6.825-0.113 10.209-0.291 2.278-0.994 5.428-2.569 6.3-2.513 1.463-5.888 1.575-8.981 1.922-2.1 0.291-4.547-1.688-4.378-3.384 0.469-4.491 1.162-8.925 1.688-13.359 0.112-0.937 0.347-2.1-0.056-2.803-0.413-0.759-1.519-1.397-2.391-1.519-0.413-0.056-1.463 1.284-1.397 1.987 0.178 5.138 0.581 10.322 0.703 15.459 0 0.703-0.872 2.1-1.341 2.1-3.909 0.178-7.988 1.753-11.794-1.050-0.994-5.25-1.284-10.734 0.637-16.219 0.291-0.872-0.234-2.044-0.412-3.037-0.413 0-0.759 0-1.163 0-1.987 5.541-1.922 11.438-2.044 17.269-2.334 0.234-4.378 0.412-6.3 0.581-3.731-4.547-4.613-9.863-4.613-15.516-0.581 0.525-1.106 1.106-1.050 1.631 0.234 4.669 0.637 9.338 0.872 14.053 0.056 0.703-0.234 1.922-0.581 1.988-1.163 0.234-4.838-3.094-5.194-4.378-0.759-2.681-1.575-5.362-2.334-8.053-0.291 0-0.525 0.056-0.816 0.056 0 2.156 0 4.313 0 6.478-0.056 2.044 0.291 4.256-0.291 6.188-0.469 1.575-6.591 1.866-7.641 0.347-1.106-1.631-1.809-3.619-2.737-5.428-0.178 0-0.291 0-0.469-0.056 0 1.688 0 3.384 0 5.138-0.703-0.872-0.872-1.922-1.284-2.803s-1.050-2.156-1.753-2.334c-0.938-0.178-2.569 0.291-2.972 1.050-2.1 3.384-4.491 6.825-3.563 11.259-1.463-0.525-2.513-0.581-2.213 1.463 0.113 0.703 0.056 1.519-0.112 2.213-1.463 6.534-3.038 13.069-4.378 19.659-0.525 2.391-1.341 5.072-0.816 7.294 2.044 8.634 4.313 17.203 7.003 25.603 1.341 4.2 3.563 8.222 5.888 12.019 1.341 2.1 3.731 3.497 5.662 5.25 0.291-0.178 0.581-0.347 0.938-0.525-0.872-2.916-0.938-5.484 1.284-7.931 1.809-2.044 2.916-4.781 4.313-7.237 0.347 0.056 0.703 0.056 1.050 0.113 0.291 1.106 0.816 2.213 0.938 3.328 0.703 5.719 1.284 11.494 2.044 17.203 0.234 1.753 1.162 3.384 3.263 2.738 1.753-0.525 2.569-1.753 2.156-4.022-0.938-4.725-1.341-9.563-1.922-14.353-0.234-2.1 1.228-3.15 2.916-3.328 2.859-0.291 5.775-0.056 9.272-0.056 0.347 4.669 0.638 9.919 1.228 15.169 0.234 2.1 1.050 4.2 1.631 6.3 0.469-0.056 0.938-0.113 1.341-0.113 0.291-1.341 0.816-2.681 0.759-4.022-0.234-5.306-0.703-10.613-0.937-15.928-0.113-3.206 1.519-4.781 4.669-4.781 1.866 0 3.731-0.113 5.541 0.113 0.872 0.113 2.1 0.703 2.391 1.397 0.994 2.859 2.156 5.831 2.391 8.869 0.234 3.497-0.581 7.059-0.637 10.613 0 1.106 0.994 2.213 1.519 3.328 0.816-0.638 2.156-1.162 2.334-1.922 0.469-1.988 0.525-4.144 0.581-6.244 0.113-4.256 0.056-8.513 0.113-12.778 0.056-3.328 1.050-4.256 4.256-4.2 2.334 0.056 4.669 0.056 7.003 0.056 2.569 0 4.378 0.234 5.016 3.675 0.347 2.044-0.347 2.859-0.816 4.378-1.575 5.016-2.512 10.209-3.731 15.338 1.519 0.525 2.803 0.994 4.547 1.575 0.816-5.484 1.575-10.678 2.391-15.863 0.291-1.987 0.703-3.966 1.341-5.887 0.234-0.638 1.162-1.341 1.866-1.463 3.909-0.581 7.594 2.681 7.528 6.591 0 0.994-0.113 1.922-0.113 2.916 0 4.088 0 8.166 0 13.069 0.994-1.809 1.987-2.972 2.213-4.256 0.638-3.497 0.938-7.059 1.462-10.613 0.178-1.341 0.525-2.681 0.816-4.088 0.412 0 0.816 0 1.228 0 1.050 3.787 3.328 7.116 3.384 11.316 0 1.162 0.938 2.625 1.922 3.328 0.525 0.347 2.681-0.469 2.972-1.228 2.044-4.903 4.022-9.797 5.484-14.878 1.519-5.306 2.278-10.912 3.675-16.275 0.816-3.094 2.625-5.953 3.384-9.103 1.519-6.244 2.625-12.544 3.853-18.9 0.113-0.469-0.234-1.106-0.469-1.575-0.759-1.575-1.753-3.094-2.213-4.781-1.284-4.144-2.391-8.344-3.563-12.488-1.050 2.278-1.462 4.613-2.334 6.713-0.291 0.759-1.753 1.575-2.569 1.519-0.638-0.056-1.228-1.397-1.463-1.809 1.753-1.050 3.563-1.519 4.088-2.625 0.234-0.759-1.228-2.334-1.866-3.563zM143.222 40.828c-3.787 2.681-7.172 4.612-8.878 8.925-2.803 7.003-5.072 14.063-6.188 21.525-0.347 2.447 0.872 4.547 3.328 4.837 1.688 0.178 3.441 0.056 5.138 0.291 3.497 0.525 5.662-2.044 8.053-3.731 0.637-0.469 0.816-1.922 0.816-2.916 0.113-3.094-0.113-6.244 0.056-9.338 0.234-2.916 0.816-5.775 1.284-8.634 0.291 0.056 0.525 0.056 0.816 0.112 0.638 6.356 1.397 12.712 1.922 19.134 0.347 3.909 1.922 5.25 5.719 4.725 1.519-0.234 3.094 0.056 4.613 0.234 2.625 0.347 4.144-0.703 4.959-3.206 1.284-4.144 0.234-8.053-1.228-11.784-1.462-3.675-3.384-7.172-5.138-10.791-1.050-2.156-1.922-4.434-3.094-6.534-0.469-0.816-1.575-1.341-2.044-1.688-0.413 1.575-0.759 2.803-1.106 4.022-1.463-0.703-2.972-1.462-4.434-2.156-2.972-0.469-3.037 1.753-2.625 4.2-3.787-1.228-4.491-3.263-1.987-7.238zM183.075 40.369c-0.113 3.563 0.412 6.825 2.803 9.563 0.994 1.162 2.044 2.278 2.916 3.563 3.562 5.306 8.344 8.288 14.887 8.747 7.463 0.525 11.906-4.144 16.172-8.981 1.519-1.687 1.631-3.966 0.234-6.244-1.341-2.1-2.044-4.669-3.562-6.591-1.397-1.809-3.262-3.731-5.306-4.378-4.959-1.575-10.153-2.278-15.178-3.563-1.809-0.469-3.562-1.397-5.306-2.212-3.441-1.688-5.541-0.816-6.478 2.972-0.581 2.391-0.759 4.781-1.162 7.116zM87.713 66.263c3.787-0.581 6.769-0.638 9.459-1.519 2.334-0.759 4.434-2.334 6.478-3.731 3.853-2.681 6.769-6.244 8.288-10.734 1.341-4.022 0.525-7.641-1.575-11.372-1.284-2.278-2.569-2.859-4.838-2.334-4.838 1.106-9.216 3.731-14.419 3.853-2.625 0.056-5.306 1.341-7.828 2.447-3.619 1.575-5.888 4.612-7.697 7.988-2.681 5.016-0.234 11.662 4.434 13.181 2.738 0.872 5.541 1.575 7.697 2.213z"></path>
</svg>
