<!-- Generated by IcoMoon.io -->
<svg version="1.1" xmlns="http://www.w3.org/2000/svg" width="300" height="300" viewBox="0 0 300 300">
<title>fighters-icon-bearer</title>
<path d="M176.381 0c8.775 1.528 16.059 6.413 23.625 10.594 2.597 1.434 4.772 3.637 7.209 5.381 0.797 0.563 1.838 0.788 2.728 1.238 0.684 0.337 1.537 0.647 1.912 1.219 3.984 6.253 8.588 12.084 12.113 18.675 2.719 5.081 4.172 10.481 5.775 15.891 0.103 0.356 0.225 0.731 0.431 1.022 2.297 3.056 3.563 6.581 4.744 10.163 0.431 1.331 1.003 2.625 1.566 3.891 0.553 1.247 0.197 1.894-1.162 2.222-3.244 0.769-6.366 0.037-9.469-0.741-5.719-1.425-10.162 0.637-13.65 5.034-0.75 0.938-0.891 2.353-1.425 3.497-5.1 10.875 3.544 20.587 12.713 22.097 3.441 0.563 6.797 0.609 10.162-0.478 1.931-0.638 3.384-1.706 4.453-3.431 0.319-0.506 1.069-1.219 1.472-1.125 1.162 0.272 2.681 0.291 3.103 1.791 0.234 0.834 0.356 1.772 0.197 2.625-0.572 3.188-1.266 6.337-1.931 9.497-0.084 0.413-0.188 0.825-0.309 1.237-1.884 5.981-3.787 11.972-5.606 17.981-0.309 1.013-0.431 2.119-0.412 3.159 0.047 1.997-1.144 3.431-2.138 4.941-0.169 0.244-1.050 0.225-1.462 0.019-0.609-0.291-1.116-0.844-1.65-1.303-1.303-1.116-2.653-1.978-4.519-1.95-0.787 0.009-1.669-0.544-2.344-1.050-1.191-0.919-2.372-1.266-3.797-0.703-0.919 0.356-1.856 0.656-2.784 0.975-2.719 0.928-4.331 2.906-4.209 5.7 0.178 4.022 0.741 8.034 1.238 12.028 0.15 1.191 0.234 2.344-0.703 3.141-1.856 1.584-2.681 3.806-3.928 5.784-0.609 0.966-1.416 1.941-2.362 2.512-2.278 1.388-4.688 2.578-7.078 3.778-0.478 0.244-1.369 0.422-1.659 0.169-0.384-0.338-0.403-1.125-0.553-1.725-0.244-0.966-0.403-1.95-0.741-2.869-0.319-0.872-0.731-1.753-1.284-2.484-1.069-1.397-2.231-2.738-3.469-3.984-0.244-0.244-1.116-0.178-1.491 0.056-0.328 0.216-0.609 0.938-0.497 1.303 0.103 0.319 0.787 0.638 1.219 0.638 1.397 0.009 1.744 0.609 1.35 1.884-0.122 0.384-0.019 0.834-0.019 1.256 0.009 0.469 0.225 1.031 0.019 1.387-1.284 2.372-0.281 4.753-0.197 7.134 0.056 1.716-0.225 3.459-0.45 5.175-0.356 2.597-0.713 5.194-1.238 7.772-0.244 1.219-0.891 2.362-1.313 3.553-0.45 1.294-1.416 1.772-2.681 1.913-1.884 0.216-3.019-0.506-3.038-2.4-0.009-1.997 0.328-3.994 0.638-5.981 0.459-3.009 1.097-6.009 1.509-9.028 0.084-0.6-0.497-1.284-0.769-1.912-0.694 0.328-1.463 0.553-2.034 1.012-0.356 0.281-0.356 0.956-0.609 1.388-0.844 1.444-1.613 2.953-2.644 4.256-1.031 1.313-1.678 1.219-3.253 0.178-1.209-0.797-1.059-1.725-0.638-2.925 1.388-3.928 2.822-7.847 3.853-11.878 0.384-1.519 0.056-3.431-0.516-4.95-1.059-2.756-2.222-5.578-3.947-7.912-1.791-2.409-4.153-4.481-7.294-5.259-0.619-0.15-1.284-0.403-1.791-0.787-3.375-2.578-7.134-2.531-11.034-1.772-0.694 0.131-1.397 0.422-2.072 0.356-3.366-0.319-5.878 1.256-8.147 3.459-1.012 0.975-2.081 1.912-2.991 2.991-0.609 0.731-1.266 1.631-1.387 2.541-0.619 4.425-1.256 8.841-1.519 13.284-0.188 3.272 0.572 6.459 2.85 9.066 0.338 0.384 0.741 0.825 0.834 1.284 0.131 0.638 0.122 1.378-0.122 1.959-0.084 0.216-1.022 0.244-1.509 0.103-1.331-0.403-2.606-0.938-4.012-1.472 0 0.553-0.009 0.928 0 1.294 0.075 1.791-0.431 2.269-2.034 1.603-1.509-0.619-3.019-1.35-4.294-2.353-1.903-1.481-2.803-3.469-2.644-6.047 0.15-2.447 0.609-4.959-0.544-7.359-1.144-2.362-4.359-3.366-6.384-1.697-2.344 1.931-4.706 2.897-7.547 1.247-0.188 1.209-0.309 2.344-0.544 3.441-0.216 0.956-0.862 1.172-1.706 0.713-0.45-0.244-0.881-0.525-1.266-0.863-2.119-1.772-4.247-3.553-6.319-5.381-0.544-0.478-0.956-1.153-1.341-1.791-0.591-0.984-0.684-1.819 0.722-2.278 0.403-0.131 0.731-0.675 0.966-1.097 1.031-1.884 2.025-3.787 3.019-5.691 0.975-1.866 2.156-3.656 2.859-5.625 1.387-3.891-1.378-7.753-5.447-8.109-5.081-0.459-9.394 1.238-13.266 4.359-1.116 0.909-3.647 0.731-4.866-0.356-2.213-1.95-4.519-3.825-6.581-5.916-3.009-3.056-4.706-6.919-5.691-11.016-0.919-3.834-1.537-7.734-2.231-11.616-0.272-1.528 0.516-2.306 2.091-2.222 2.166 0.103 4.313 0.178 6.478 0.319 5.353 0.337 9.197-2.175 11.691-6.628 3.291-5.869 4.2-12.084 1.959-18.619-1.8-5.241-8.653-9.075-13.959-7.631-2.259 0.609-4.481 1.378-6.628 2.278-2.494 1.050-3.966 0.281-4.106-2.419-0.094-1.763-0.291-3.544-0.131-5.278 0.15-1.612 0.563-3.244 1.144-4.762 1.959-5.175 3.928-10.35 6.113-15.431 2.353-5.419 5.494-10.369 9.712-14.578 1.256-1.256 2.494-2.578 3.553-4.012 4.116-5.578 9.469-9.6 15.487-12.863 5.531-3.009 11.016-6.075 16.537-9.122 0.45-0.244 0.919-0.497 1.416-0.637 2.925-0.844 5.531-2.316 7.941-4.153 0.928-0.703 1.997-0.909 2.897-0.272 1.313 0.938 2.541 2.072 3.647 3.253 0.816 0.881-0.141 1.35-0.778 1.669-2.269 1.125-3.75 2.944-4.706 5.222-1.491 3.553-1.256 7.106 0.403 10.5 0.525 1.078 1.537 1.997 2.494 2.813 1.631 1.397 3.366 2.7 5.119 3.947 3.384 2.438 7.247 3.609 11.363 3.666 4.472 0.056 8.906-0.356 13.050-2.316 1.819-0.872 3.347-1.988 4.613-3.591 3.825-4.866 5.625-10.247 4.5-16.453-0.356-1.941-1.219-3.506-2.747-4.763-1.556-1.284-3.038-2.653-4.753-4.172 1.303-0.647 1.997-0.975 2.691-1.294 2.728 0 5.456 0 8.184 0zM183.562 158.728c0.834-0.328 1.725-0.45 2.222-0.956 0.469-0.469 0.825-1.462 0.647-2.034-0.169-0.506-1.116-0.956-1.762-1.022-0.319-0.037-0.928 0.797-1.059 1.331-0.188 0.778-0.047 1.65-0.047 2.681zM80.719 68.841c-0.422 0.047-0.891-0.047-1.144 0.141-0.384 0.309-0.637 0.816-0.937 1.219 0.384 0.225 0.778 0.609 1.191 0.647 0.638 0.047 1.313-0.084 1.931-0.272 0.281-0.084 0.684-0.497 0.666-0.741-0.009-0.291-0.356-0.656-0.647-0.825-0.319-0.169-0.731-0.131-1.059-0.178zM90.056 130.481c0.778 0.778 0.937 0.75 2.203-0.309-0.919-1.144-1.069-1.116-2.203 0.309z"></path>
<path d="M114.009 300c-3.084-1.894-3.806-4.238-2.859-7.819 1.931-7.303 3.75-14.644 5.494-21.994 0.844-3.553 1.491-7.162 2.025-10.781 0.234-1.65-0.056-3.375-0.103-5.053-0.009-0.563-0.037-1.125-0.037-1.697 0.009-1.669 0.75-3.047 1.809-3.384 1.209-0.384 3 0.366 3.881 1.716s1.631 2.738 2.513 4.069c1.388 2.081 2.681 2.109 4.2 0.131 1.95-2.513 3.225-5.353 4.219-8.372 0.647-1.95 1.838-3.759 2.963-5.513 0.75-1.162 2.081-1.022 3.197-0.553s0.75 1.519 0.572 2.353c-0.459 2.306-0.984 4.584-1.509 6.872-0.647 2.831-2.438 4.931-4.528 6.816-0.319 0.281-0.75 0.497-0.938 0.844-0.309 0.591-0.459 1.247-0.684 1.884 0.619 0.216 1.284 0.675 1.866 0.591 1.153-0.15 2.25-0.656 3.384-0.928 1.509-0.366 3.009-0.684 4.537-0.956 0.928-0.169 1.988-0.038 2.222 0.984s-0.075 2.063-1.106 2.775c-1.697 1.172-3.366 2.4-4.941 3.731-1.003 0.834-1.884 1.837-2.719 2.85-3.047 3.637-6.066 7.303-9.075 10.969-0.656 0.797-1.284 1.622-1.838 2.484-3.506 5.456-6.975 10.922-10.491 16.369-0.403 0.609-1.013 1.078-1.528 1.613-0.178 0.009-0.366 0.009-0.553 0.009zM118.162 281.719c-0.984 1.209-1.172 2.625-1.116 4.088 0.009 0.375 0.272 0.731 0.422 1.106 0.412-0.178 0.919-0.262 1.209-0.553 0.778-0.769 0.431-3.759-0.516-4.641z"></path>
<path d="M158.719 143.213c2.419 0.797 5.147 1.266 7.088 3.225 2.85 2.878 4.941 6.244 5.813 10.294 1.397 6.525-1.866 12.15-8.287 13.922-1.162 0.319-1.397 0.872-1.331 1.884 0.103 1.416-0.131 2.625-1.341 3.647-0.563 0.469-0.825 1.463-0.956 2.259-0.431 2.738-0.544 5.541-1.153 8.231-0.872 3.787-2.072 7.5-3.188 11.231-0.103 0.338-0.638 0.713-1.012 0.778-2.597 0.403-4.809-1.481-4.753-4.125 0.019-1.256 0.338-2.503 0.591-3.75 0.891-4.359 1.791-8.737 2.728-13.088 0.197-0.956 0.469-1.913 0.834-2.822 0.834-2.119 0.431-3.319-1.519-4.472-4.444-2.644-7.266-6.656-8.775-11.466-1.697-5.428 1.659-11.381 7.153-13.322 1.988-0.703 3.994-1.35 6.009-1.987 0.638-0.188 1.294-0.272 2.091-0.422z"></path>
<path d="M67.013 190.153c0.459-2.991 1.312-5.981 3.206-8.597 0.384-0.525 0.769-1.069 1.162-1.584 0.891-1.153 0.956-2.306 0.375-3.684-0.797-1.894-1.472-3.853-2.034-5.831-0.216-0.75-0.15-1.669 0.047-2.447 0.975-3.947 2.991-7.359 5.587-10.463 1.528-1.838 3.009-3.731 4.519-5.588 0.15-0.188 0.281-0.375 0.459-0.525 0.891-0.778 1.8-1.65 3.112-1.097 0.863 0.366 1.2 2.119 0.609 3.478-0.638 1.463-1.463 2.831-2.175 4.256-1.397 2.766-2.897 5.475-4.106 8.325-0.619 1.472-0.797 3.15-0.975 4.762-0.122 1.031 0.516 1.387 1.566 1.022 0.778-0.281 1.603-0.516 2.419-0.572 0.928-0.075 1.256 0.525 0.966 1.387-0.15 0.431-0.403 0.844-0.637 1.247-1.8 3.141-3.6 6.272-5.4 9.403-1.725 3.009-2.597 6.197-2.325 9.703 0.094 1.2-0.037 2.447-0.281 3.638-0.291 1.397-1.341 1.791-2.559 1.078-0.403-0.234-0.862-0.516-1.069-0.891-1.172-2.175-2.344-4.341-2.466-7.022z"></path>
<path d="M185.616 204.159c0.384-0.787 0.956-1.538 1.125-2.372 0.469-2.25 0.619-4.575 1.2-6.788 1.303-5.034 2.813-10.022 4.191-15.028 0.281-1.031 0.891-1.472 1.866-1.603 1.912-0.262 3.225 1.303 2.409 3.094-0.544 1.2-0.6 2.297-0.272 3.525 0.169 0.591 0.019 1.303-0.141 1.913-0.713 2.625-1.566 5.213-2.222 7.856-0.459 1.847-0.694 3.75-1.022 5.634-0.619 3.6-1.95 6.675-5.766 7.969-1.744 0.591-2.859 1.8-3.291 3.563-0.778 3.094-1.481 6.197-2.213 9.3-0.188 0.778-0.291 1.575-0.553 2.316-0.516 1.509-1.762 1.912-3.141 1.069-1.65-1.022-1.903-2.588-1.613-4.313 0.647-3.797 1.434-7.566 1.988-11.372 0.328-2.269 0.309-4.584 0.459-6.881 0.037-0.459 0.094-0.938 0.244-1.378 0.459-1.331 1.744-2.138 3.066-1.978 1.472 0.188 1.772 1.313 2.062 2.503 0.234 0.966 0.553 1.894 0.834 2.85 0.262 0.028 0.516 0.075 0.778 0.103z"></path>
<path d="M105.366 229.022c-0.272 0.506-0.459 1.069-0.825 1.491-1.434 1.659-2.681 1.847-3.966 0.684-1.941-1.753-2.175-3.666-0.75-5.278 1.209-1.359 2.409-2.738 3.469-4.219 3.853-5.334 5.681-11.287 5.034-17.897-0.094-0.928 0.103-1.669 0.966-2.156 1.341-0.75 2.184-0.497 2.813 0.928 1.472 3.347 1.144 6.797 0.459 10.247-0.263 1.331-0.609 2.644-0.844 3.984-0.234 1.397-0.525 2.719-1.603 3.806-1.209 1.247-1.013 2.4 0.384 3.422 1.753 1.284 2.353 2.85 1.8 4.913-1.331 4.987-2.991 9.834-6.891 13.491-0.769 0.713-1.716 1.209-2.578 1.838-0.563 0.403-1.144 0.797-1.669 1.256-1.219 1.059-2.297 0.45-3.3-0.309-1.069-0.787-1.866-1.856-1.444-3.234 0.169-0.544 0.928-1.106 1.528-1.256 3.056-0.769 4.931-2.766 6.188-5.503 0.619-1.359 1.313-2.7 1.894-4.088 0.187-0.459 0.094-1.050 0.141-1.575-0.263-0.188-0.525-0.366-0.797-0.544z"></path>
<path d="M84.094 163.416c0.075-0.431 0.084-1.266 0.356-1.997 1.556-4.087 1.8-8.419 2.484-12.666 0.169-1.022 0.572-2.081 1.116-2.963 1.256-2.034 2.597-4.022 4.059-5.916 2.034-2.634 4.659-4.481 8.006-5.1 0.553-0.103 1.116-0.15 1.678-0.141 1.444 0.047 2.494 0.769 3.131 2.044 0.638 1.294 0.338 2.531-0.609 3.506-0.872 0.909-1.866 1.706-2.869 2.484-1.191 0.928-2.119 1.941-2.166 3.591-0.009 0.563-0.403 1.144-0.694 1.659-2.269 3.938-4.631 7.828-6.825 11.822-0.778 1.416-1.144 3.047-1.716 4.566-0.45 1.172-0.844 2.391-1.444 3.478s-1.8 1.191-2.747 0.291c-1.237-1.144-1.763-2.606-1.753-4.641z"></path>
<path d="M229.931 150.881c-0.338 1.35-0.619 2.775-1.069 4.144-0.469 1.463-1.106 2.869-1.631 4.313-0.478 1.294-3.347 3.384-4.753 3.375-0.309 0-0.75-0.094-0.891-0.309-1.284-1.866-3.272-3.084-3.056-6.075 0.412-5.644-1.397-11.016-3.619-16.181-1.050-2.447-0.675-3.703 1.819-4.762 1.294-0.544 2.644-0.984 4.022-1.247 0.591-0.122 1.425 0.15 1.903 0.553 2.916 2.372 5.025 5.288 5.775 9.066 0.459 2.325 0.975 4.659 1.509 7.125z"></path>
<path d="M124.922 161.372c-1.097 5.691-0.413 11.55-2.513 17.091-1.669 4.406-2.737 9.047-4.153 13.556-0.544 1.753-1.191 1.959-2.85 1.294-2.325-0.956-3.6-4.584-2.719-6.928 1.444-3.797 2.766-7.659 3.966-11.531 0.563-1.809 0.656-3.759 1.069-5.634 0.694-3.103 1.463-6.197 2.259-9.281 0.272-1.022 1.866-1.603 3.394-1.294 1.613 0.319 1.425 1.631 1.537 2.728z"></path>
<path d="M105.178 210.769c-2.531-1.35-3.244-3.759-3.844-6.244-0.131-0.544-0.094-1.144-0.281-1.659-0.937-2.578-0.694-5.119-0.047-7.716 0.356-1.397 0.328-2.906 0.703-4.294 0.506-1.884 1.097-3.778 1.903-5.55 0.778-1.697 1.866-3.244 2.831-4.856 0.141-0.244 0.291-0.478 0.478-0.694 0.834-1.003 2.634-1.481 3.572-0.966 0.919 0.506 1.425 2.325 0.881 3.563-0.525 1.2-1.153 2.362-1.809 3.497-2.597 4.434-3.506 9.394-4.191 14.362-0.291 2.119 0.375 4.359 0.6 6.563 0.141 1.35 0.431 2.728-0.816 3.994z"></path>
<path d="M138.066 207.628c0.647-3.994 1.125-7.866 1.931-11.662 0.684-3.197 2.466-5.869 4.959-7.997 0.553-0.469 1.397-0.797 2.128-0.825 1.716-0.056 2.513 1.078 1.894 2.691-0.984 2.578-2.128 5.1-3.103 7.688-0.328 0.844-0.384 1.8-0.544 2.719-0.431 2.466-0.872 4.95-1.303 7.416-0.122 0.684-0.309 1.359-0.366 2.063-0.084 0.928 0.141 1.95-0.169 2.784-0.291 0.778-0.984 1.669-1.716 1.95-0.975 0.366-1.575-0.591-1.894-1.472-0.647-1.809-1.237-3.619-1.819-5.362z"></path>
<path d="M232.369 162.769c-0.741 2.953-1.284 5.578-2.081 8.128-1.097 3.478-2.372 6.9-3.609 10.35-0.909 2.531-3.131 3.553-5.372 4.387-1.519 0.563-4.069-1.931-3.666-3.516 0.122-0.459 0.638-0.938 1.097-1.162 1.472-0.713 2.409-1.753 2.55-3.431 0.028-0.272 0.15-0.544 0.262-0.797 1.2-2.831 2.316-5.719 3.647-8.503 1.003-2.109 2.156-4.153 3.459-6.075 0.375-0.553 1.556-0.881 2.278-0.787 0.591 0.094 1.050 1.003 1.444 1.425z"></path>
<path d="M141.366 229.397c0.338-1.65 0.647-4.059 1.35-6.338 1.313-4.303 2.859-8.541 4.331-12.797 0.384-1.116 0.75-2.231 2.391-2.016 1.95 0.272 2.447 0.891 2.316 2.897-0.356 5.634-1.519 11.044-4.022 16.144-0.384 0.778-0.459 1.716-0.675 2.578-0.094 0.366-0.122 0.741-0.234 1.097-0.478 1.603-1.8 2.559-3.206 2.391-1.444-0.188-2.269-1.359-2.25-3.947z"></path>
<path d="M217.069 176.831c-0.188 1.481-0.638 2.991-0.525 4.444 0.178 2.353-0.356 4.472-1.106 6.656-1.247 3.591-2.184 7.266-3.272 10.912-0.169 0.544-0.319 1.097-0.572 1.575-1.078 2.072-2.466 2.184-3.853 0.309-1.144-1.556-1.856-3.009-1.313-5.241 0.769-3.178 1.762-6.197 3.197-9.113 1.416-2.859 2.691-5.775 4.116-8.634 0.384-0.769 0.966-1.519 1.65-2.025 0.834-0.6 1.838 0.094 1.697 1.116z"></path>
<path d="M81.506 198.262c-1.078 4.209-2.203 8.888-3.516 13.509-0.45 1.584-1.856 2.541-3.366 3.206-1.050 0.469-1.903 0.197-2.634-0.647-1.556-1.838-1.378-2.484-0.375-4.706 1.463-3.234 2.559-6.619 3.741-9.975 0.863-2.447 1.425-4.941 0.525-7.547-0.197-0.572-0.047-1.838 0.178-1.894 0.769-0.188 1.753-0.234 2.409 0.122 0.769 0.413 1.575 1.2 1.838 1.997 0.544 1.744 0.75 3.572 1.2 5.925z"></path>
<path d="M207.469 221.681c-0.834-0.469-1.509-0.731-2.006-1.172-0.919-0.834-0.787-1.894 0.366-2.344 2.541-0.975 3.647-2.878 4.059-5.447 0.15-0.956 0.525-1.903 1.003-2.756 1.856-3.366 2.25-7.125 3.056-10.772 0.244-1.125 0.619-2.259 1.106-3.3 0.497-1.097 1.509-1.378 2.625-1.069 0.891 0.244 1.866 1.913 1.697 2.775-0.787 4.041-1.519 8.1-2.409 12.122-0.778 3.516-2.55 6.581-5.025 9.141-1.191 1.238-2.953 1.903-4.453 2.822z"></path>
<path d="M163.791 190.688c-0.225 3.244-0.169 6.534-0.769 9.713-0.656 3.525-1.894 6.938-2.953 10.388-0.384 1.247-0.881 2.484-1.509 3.619-0.291 0.544-1.022 1.191-1.556 1.172-0.506-0.009-1.209-0.703-1.462-1.266-0.684-1.584-1.078-3.225-0.572-5.034 1.2-4.341 2.297-8.7 3.366-13.069 0.178-0.731 0.169-1.575 0-2.316-0.422-1.941 0.234-3.609 1.434-4.941 0.506-0.553 1.809-0.656 2.672-0.516 1.097 0.178 1.35 1.2 1.341 2.25z"></path>
<path d="M214.294 157.162c1.612 0.038 2.766 2.325 1.809 3.731-3.037 4.453-2.541 9.797-3.872 14.672-0.431 1.622-0.591 3.319-0.872 4.987-0.197 1.191-0.956 1.519-1.941 1.069-0.787-0.356-1.884-0.834-2.091-1.491-0.563-1.772-1.219-3.75-0.956-5.503 0.619-4.022 1.819-7.941 2.719-11.925 0.572-2.578 2.362-4.078 4.425-5.372 0.272-0.169 0.647-0.141 0.778-0.169z"></path>
<path d="M188.297 220.453c-0.553 2.916-1.106 5.494-1.528 8.081s-0.816 5.184-1.078 7.8c-0.328 3.197-4.031 6.834-7.209 6.816-0.694 0-1.481-0.338-2.063-0.75-1.191-0.844-1.013-1.978 0.375-2.353 2.306-0.619 3.403-2.213 3.797-4.397 1.022-5.588 1.988-11.175 3.056-16.744 0.141-0.731 0.694-1.894 1.153-1.941 0.713-0.075 1.725 0.459 2.25 1.050 0.656 0.713 0.928 1.772 1.247 2.447z"></path>
<path d="M114.384 208.078c0.122-0.225 0.356-0.713 0.619-1.191 0.647-1.097 1.388-2.119 1.941-3.253 1.266-2.606 2.597-5.194 3.591-7.913 0.722-1.95 0.909-4.106 1.369-6.159 0.15-0.684 0.319-1.378 0.572-2.025 0.516-1.256 1.8-1.444 2.494-0.319 0.816 1.313 1.463 2.728 2.138 4.116 0.094 0.178 0.084 0.45 0.037 0.656-0.337 1.603-0.694 3.188-1.069 4.772-0.122 0.506-0.234 1.022-0.459 1.472-1.425 2.803-2.644 5.737-4.425 8.306-1.153 1.659-3.047 2.85-4.762 4.031-0.975 0.675-2.063-0.525-2.044-2.494z"></path>
<path d="M56.25 201.759c0.131-4.997 1.566-8.775 3.872-12.225 0.459-0.684 1.106-1.331 1.819-1.706 0.675-0.338 1.528-0.291 2.316-0.422 0.131 0.862 0.675 1.978 0.319 2.512-1.941 2.925-1.613 6.3-2.175 9.497-0.619 3.525-0.966 7.069-0.084 10.603 0.075 0.272 0.056 0.563 0.047 0.844-0.075 1.706-0.881 2.156-2.353 1.294-1.538-0.891-2.672-2.175-2.962-3.928-0.412-2.4-0.6-4.838-0.797-6.478z"></path>
<path d="M96.956 166.388c-0.197 0.675-0.431 1.566-0.741 2.447-0.375 1.059-0.741 2.128-1.219 3.131-0.45 0.909-0.909 1.866-1.603 2.588-2.222 2.297-4.472 4.575-6.872 6.675-1.613 1.416-3.469 2.55-5.241 3.778-0.769 0.525-1.388 0.272-1.894-0.497-1.397-2.138-0.984-3.431 1.434-4.538 0.713-0.328 1.472-0.703 2.016-1.256 2.297-2.344 4.575-4.716 6.759-7.162 1.678-1.894 2.072-4.378 2.634-6.75 0.291-1.238 0.45-2.456 2.156-2.372 1.509 0.075 1.847 1.256 2.297 2.316 0.169 0.422 0.15 0.919 0.281 1.65z"></path>
<path d="M87.225 233.1c0.375-3.516 1.2-6.656 3.637-9.141 1.509-1.538 2.944-3.178 4.613-4.519 0.975-0.778 2.325-1.153 3.563-1.509 0.45-0.131 1.303 0.197 1.528 0.572 0.225 0.384 0.075 1.2-0.216 1.65-0.75 1.238-1.678 2.372-2.503 3.572-1.116 1.622-2.259 3.234-3.319 4.894-1.303 2.025-1.809 4.247-1.894 6.666-0.047 1.378-0.703 2.775-1.256 4.087-0.45 1.069-1.284 0.872-1.847 0.075-1.397-1.95-2.166-4.153-2.306-6.366z"></path>
<path d="M175.209 216.131c-2.362 0.656-2.362 2.456-2.541 4.359-0.572 6.131-1.294 12.225-2.034 18.328-0.197 1.669-1.162 2.016-2.578 1.050-1.444-0.975-2.128-2.344-1.959-4.088 0.506-5.091 1.003-10.181 1.528-15.272 0.309-2.944 2.653-5.119 5.578-5.147 0.638-0.009 1.266 0.262 1.903 0.412 0.037 0.122 0.075 0.234 0.103 0.366z"></path>
<path d="M151.884 224.081c1.566-0.038 2.738 1.2 2.55 2.391-0.769 4.744-0.713 9.666-3.244 14.025-0.834 1.444-1.191 3.159-1.903 4.688-0.525 1.125-1.256 2.184-1.997 3.197-0.544 0.731-1.313 1.125-2.203 0.459-0.872-0.675-1.444-1.425-0.909-2.644 0.956-2.138 1.997-4.256 2.681-6.488 0.956-3.178 1.603-6.441 2.4-9.656 0.366-1.463 0.684-2.944 1.247-4.313 0.291-0.75 1.050-1.284 1.378-1.659z"></path>
<path d="M139.725 222.497c-0.262 0.713-0.45 1.434-0.769 2.091-1.172 2.4-2.4 4.791-3.619 7.162-1.284 2.484-1.866 5.081-1.603 7.894 0.131 1.35 0.075 2.728 0.019 4.078-0.047 1.509-1.416 2.4-2.597 1.519-0.938-0.703-1.838-1.838-2.138-2.944-0.834-2.944-0.469-5.887 0.956-8.616 1.659-3.159 3.394-6.281 5.147-9.384 0.956-1.669 2.316-2.184 4.594-1.8z"></path>
<path d="M200.531 219.947c-4.444-1.209-6.122-4.116-4.987-8.475 0.787-2.991 1.462-6.009 2.297-8.981 0.356-1.256 0.928-2.447 1.491-3.638 0.525-1.106 1.762-1.566 2.822-1.106 1.191 0.516 1.078 1.463 0.816 2.494-0.75 2.813-1.416 5.644-2.184 8.447-0.816 2.944-0.862 5.831 0.169 8.709 0.328 0.919 0.478 1.819-0.413 2.55z"></path>
<path d="M173.569 195.422c0.056-3.984 0.713-7.819 2.456-11.456 0.825-1.706 2.316-2.063 3.975-1.631 1.425 0.366 2.081 1.631 1.238 2.822-2.222 3.113-1.903 6.787-2.597 10.228-0.366 1.838-0.684 3.694-1.256 5.456-0.478 1.481-1.256 1.556-2.372 0.422-1.425-1.444-1.416-3.291-1.434-5.137 0-0.234 0-0.469 0-0.703z"></path>
</svg>
