<svg xmlns="http://www.w3.org/2000/svg" xml:space="preserve" fill-rule="evenodd" stroke-linejoin="round" stroke-miterlimit="2" clip-rule="evenodd" viewBox="0 0 300 300"><path fill-rule="nonzero" d="M299.988 215.589c-1.538 2.465-1.992 2.501-4.67 1.158-5.624-2.798-10.322-6.616-14.268-11.563-2.567-3.215-5.884-5.819-8.59-8.923-3.14-3.595-5.976-7.459-8.969-11.184a590 590 0 0 0-7.791-9.451c-.992-1.158-1.612-1.13-2.419.231-2.575 4.365-5.087 8.766-7.616 13.167-.481.824-.834 1.704-1.38 2.464-1.01 1.39-2.252 1.538-3.605.454-.454-.38-.945-.769-1.269-1.26-2.39-3.604-4.864-7.162-7.107-10.85-1.76-2.89-3.308-5.902-4.818-8.931-.936-1.853-1.658-3.827-2.446-5.754-.445-1.112-.12-2.057.991-2.446 2.317-.862 3.401-2.669 4.365-4.782 3.446-7.524 6.838-15.056 8.59-23.164.62-2.89.573-5.93.842-9.024 2.484.769 3.79 2.696 4.856 4.975 2.066 4.4 4.085 8.857 6.393 13.139 1.26 2.344 3.086 4.373 4.661 6.541.231.316.538.602.87.807 1.539.972 2.762.51 3.086-1.28.334-1.833 1.03-3.381 2.455-4.632.417-.362.602-1.01.834-1.548.52-1.15 1.326-1.89 2.641-1.807 1.27.093 2.094.992 2.215 2.122.676 7.014 4.373 12.75 7.895 18.512 4.011 6.589 6.69 13.769 9.83 20.746 4.596 10.21 9.359 20.338 14.056 30.503.102.222.25.426.38.62v1.186zM144.374 293.623c-2.566-1.473-2.956-2.27-2.613-5.18.87-7.412 1.677-14.833 2.613-22.255.825-6.514 1.798-13.009 2.641-19.523.324-2.492.481-5.012.705-7.524.12-1.547-.899-2.353-2.187-2.242-4.568.436-9.118-1.13-13.686.074-1.612.436-3.122-.148-4.085-1.538-1.01-1.436-.667-2.956.13-4.373 2.602-4.651 5.27-9.257 7.875-13.908 1.186-2.122 2.501-4.225 3.354-6.476 1.474-3.855 4.392-5.625 8.173-5.977 2.39-.222 4.568-.843 6.68-1.918 1.575-.797 3.058-.908 4.716-.102 1.584.77 3.253.76 4.911 0 .555-.25 1.251-.259 1.89-.296.704-.038 1.436.157 2.084 0 3.14-.778 5.856.481 8.626 1.603.602.231 1.195.49 1.807.695 2.232.74 3.289 2.288 3.16 4.623-.112 1.741-.899 2.418-2.604 2.242-.195-.027-.39-.065-.584-.101-3.854-.89-4.15-.742-5.92 2.9-.798 1.658-1.549 3.335-2.318 5.003-1.88 4.012-1.825 8.19-1.12 12.425.194 1.233.87 1.835 2.056 1.474a51 51 0 0 0 5.013-1.844c2.53-1.093 4.54-.232 5.06 2.446.129.658-.102 1.612-.538 2.122-2.29 2.603-4.003 5.522-5.43 8.7-.824 1.834-2.419 3.344-3.697 4.957-.64.807-1.548 1.455-2.02 2.345-2.882 5.281-5.7 10.6-8.488 15.936a1317 1317 0 0 0-8.849 17.243c-.777 1.548-1.408 3.188-2.047 4.818-.64 1.631-1.548 2.984-3.225 3.67-.705.008-1.39.008-2.095.008z"/><path fill-rule="nonzero" d="M110.37 162.173c.908-1.148 1.77-.991 2.632-.214.908.835 1.9 1.26 3.113.76.316-2.204-1.148-4.53-3.168-5.077-2.057-.547-4.058-1.288-6.3-.64-.538.167-1.456-.51-2.02-.991-.696-.612-1.15-1.52-1.835-2.15-.62-.574-1.446-.936-2.187-1.38-.167-.102-.399-.102-.547-.223-3.428-2.64-7.042-5.16-7.709-9.941-.083-.64-.102-1.343-.38-1.9-1.445-2.734-1.092-5.466-.351-8.283.453-1.733.778-3.503 1.056-5.263.38-2.344.89-4.633 2.391-6.523 2.743-3.4 4.29-7.217 4.56-11.61.12-2.121.861-4.206.99-6.328.185-2.816.102-5.652.075-8.505-.075-8.024-.167-16.03-.297-24.054-.028-1.343-.167-2.677-.278-4.021-.546-6.366.992-12.258 4.142-17.735 1.9-3.308 3.892-6.56 5.884-9.822.38-.611.89-1.222 1.473-1.63a2792 2792 0 0 1 15.632-11.017c.324-.223.667-.464 1.029-.612 6.05-2.317 10.961-6.449 16.205-10.053 3.354-2.307 6.337-5.106 10.193-6.718 2.723-1.148 5.466-1.955 8.384-1.89 11.583.25 22.108 3.345 30.641 11.647a121 121 0 0 0 4.92 4.587c1.343 1.167 2.882 2.13 4.179 3.344 1.77 1.659 3.604 3.336 5.05 5.263 2.825 3.79 5.28 7.876 8.153 11.61 3.002 3.91 4.123 8.357 4.335 13.073.168 3.66-.11 7.347-.184 11.045-.028 1.148-.038 2.289-.056 3.437-.037 4.337.111 8.673-.13 13-.36 6.541.446 12.98 1.799 19.28.843 3.957 2.761 7.802 4.67 11.425 2.613 4.938 3.27 10.303 4.28 15.602.102.547-.093 1.186-.25 1.76-2.631 9.025-6.727 17.438-10.535 25.98-.51 1.159-1.51 1.936-2.706 1.78-3.761-.52-7.283.703-10.905 1.185-1.723.232-3.475.445-5.207.399-2.085-.028-3.141 1.093-4.022 2.742a32 32 0 0 1-2.52 3.947c-.945 1.27-.824 4.012.62 5.208 1.483 1.223 1.447 2.529 1.196 4.253-.862 5.948-3.188 11.489-4.753 17.224-.778 2.836-2.353 5.096-4.782 6.838-.927.667-1.64.64-2.39-.027-1.502-1.288-2.345-2.919-2.391-4.948-.038-1.446-.102-2.89-.26-4.308-.185-1.575-1.194-1.992-2.5-1.01-1.112.834-2.169 1.76-3.188 2.706-1.668 1.538-3.456 1.9-5.466.76-1.288-.741-2.29-.648-3.114.76-.667 1.112-1.862 1.075-2.956.824-1.12-.25-1.621-1.112-1.677-2.215-.167-2.77-.51-5.522.538-8.274.602-1.575-1.39-5.847-2.845-6.764-.963-.612-1.825-.315-2.288.574-2.057 3.818-3.355 7.774-2.02 12.148.713 2.334-.214 3.585-2.631 3.585-.399 0-.807.01-1.195-.055-2.956-.519-5.782-.334-8.59.908-1.677.742-2.511.25-3.428-1.353-1.252-2.214-2.455-4.438-3.707-6.652-.287-.51-.601-1.075-1.046-1.436-.38-.297-1.01-.538-1.446-.445-.297.065-.584.741-.64 1.186-.194 2.048-.036 4.012.825 5.977.676 1.519.862 3.252 1.26 4.892.222.927.584 1.825.64 2.751.036.64-.168 1.436-.557 1.919-.834 1.028-1.9 1.88-2.808 2.863-1.538 1.696-3.077 1.806-4.781.259-1.862-1.669-2.734-3.892-2.798-6.254-.149-5.18-1.872-10.063-2.567-15.122-.824-5.995-3.465-10.942-7.171-15.5-1.696-2.15-3.429-4.346-5.235-6.616zm93.063-45.845c-3.595 1.269-7.838 2.289-11.535 4.79-1.03.705-2.307 1.01-3.475 1.51-.676.288-1.557.399-1.955.909-2.317 2.928-5.328 4.855-8.682 6.365-.417.195-1.01 1.01-.898 1.288.945 2.381 1.436 5.013 3.503 6.81 3.094 2.706 6.56 4.281 10.766 3.957.705-.055 1.409.112 2.095 0 2.02-.333 4.178-.417 6.004-1.233 3.289-1.5 6.43-3.363 9.543-5.244 2.696-1.64 4.428-4.085 5.392-7.097.38-1.186.259-2.215-.51-3.225-1.538-2.029-2.984-4.114-4.513-6.133-1.287-1.667-3.002-2.567-5.726-2.705zm-73.263 24.414c0-.036-.009-.093-.009-.13 2.372-.222 4.79-.277 7.116-.74 2.196-.436 4.3-1.316 6.43-2.02.093-.028.157-.13.223-.186 1.353-1.252 2.733-2.465 4.085-3.725.936-.862.76-1.622-.259-2.29-1.167-.76-2.289-1.575-3.475-2.316-3.67-2.279-7.384-4.503-11.035-6.8-2.057-1.288-4.189-2.53-6.07-4.059-2.575-2.122-6.819-2.205-9.163.195-2.372 2.427-4.003 5.346-4.892 8.607-.167.649.093 1.612.481 2.187 1.26 1.779 2.696 3.447 4.058 5.16 3.15 3.976 7.969 4.596 12.342 6.097.065.037.102.028.157.028zm40.778 23.247c-.287-1.185-.482-2.056-.713-2.918-.232-.908-.612-1.798-.695-2.724-.362-3.956-.741-7.922-.945-11.878-.222-4.244-1.724-7.33-6.402-7.904-.232-.028-.483-.26-.695-.222-.482.074-1.26.11-1.39.417-.574 1.222-1.148 2.529-1.353 3.845-.481 3.03-.713 6.106-1.093 9.145-.167 1.37-.722 2.734-.676 4.105.102 2.279-.25 4.428-1.01 6.55-.51 1.436.324 2.28 1.77 1.798.602-.195 1.03-.843 1.557-1.269.927-.732 1.834-1.455 2.808-2.113.23-.157.861-.12 1.056.074 2.057 2.057 4.827 2.187 7.81 3.086z"/><path fill-rule="nonzero" d="M56.65 154.316c1.028-.76 1.833-1.12 2.306-1.742 4.178-5.578 8.385-11.118 12.35-16.853 1.835-2.641 3.726-5.106 6.162-7.237 1.658-1.455 2.984-3.289 4.429-4.975.537-.62 1.01-1.288 1.667-2.15.213.602.417.899.417 1.195.028 3.122.055 6.254.009 9.386 0 .417-.315.825-.5 1.224-.214.445-.574.862-.676 1.315-.778 3.725-1.557 7.45-2.215 11.184-.102.574.231 1.353.612 1.872 2.279 3.14 4.595 6.263 6.967 9.33 1.798 2.307 4.28 3.243 7.144 3.049 1.186-.093 2.215.101 2.965 1.029.991 1.185 1.992 2.38 2.826 3.67.296.453.26 1.306.065 1.852-.223.62-.733 1.186-1.251 1.64-3.169 2.882-6.505 5.587-9.553 8.58-7.227 7.17-16.002 12.304-24.082 18.363-.713.52-1.584.825-2.353 1.27-1.501.861-3.048 1.639-4.439 2.659-1.473 1.056-2.372 1.325-3.475-.065-1.102-1.39-1.936-3.095-2.585-4.78-.991-2.595-1.779-5.272-2.53-7.94-.509-1.808-.842-3.67-1.213-5.523-.417-2.177-.87-2.575-2.882-1.723-2.78 1.195-5.559 2.446-8.126 4.021a185 185 0 0 0-12.063 8.052c-2.836 2.067-5.615 4.308-8.107 6.783-4.216 4.206-8.404 8.357-13.694 11.22-.649.352-1.159.992-1.807 1.316-.834.417-1.742.667-2.63.982l-.418-.417c.222-.76.25-1.668.705-2.27 6.402-8.71 12.74-17.466 19.355-25.99 3.725-4.8 7.607-9.47 11.415-14.195 3.169-3.938 5.892-8.117 8.802-12.175 1.64-2.307 3.753-4.272 5.346-6.588 1.547-2.243 2.761-4.717 4.049-7.125 1.186-2.169 2.696-3.012 5.106-2.863 1.093.074 1.13.843 1.158 1.575.083 3.187.083 6.384.185 9.57.065 1.01.315 2.021.537 3.448zM85.4 67.165c1.037.445 1.611 1.473 2.066 2.761 1.158 3.27 1.12 6.616 1.279 9.998.194 4.206.972 8.385 1.26 12.61.25 3.604.176 7.255.213 10.877 0 .288-.222.64-.444.825-.102.074-.584-.13-.733-.316-2.946-4.456-8.117-4.678-12.453-6.319-3.447-1.288-7.264-1.64-10.923-2.353-.778-.148-1.622-.25-2.381-.102-2.743.538-5.365-.065-7.97-.76-2.547-.686-5.012-1.64-7.579-2.251-1.5-.362-3.122-.417-4.67-.362-3.474.13-6.976.222-10.423.648-6.375.778-12.722 1.891-18.735 4.28-1.547.621-2.066-.194-2.613-1.408.398-.315.779-.611 1.167-.908 9.683-7.44 20.542-12.684 31.92-16.965.89-.333 1.603-1.093 2.437-1.603 1.01-.602 2.03-1.195 3.114-1.669 1.436-.64 2.964-1.046 4.364-1.741 1.64-.807 3.215-1.798 4.8-2.734 1.158-.686 2.047-.315 2.306.862s.14 2.418.176 3.632c.028 1.057.028 2.112.036 3.15 1.01-.25 2.067-.389 3.03-.768 5.588-2.224 11.175-4.485 16.706-6.838 1.353-.556 2.548-1.576 4.058-2.548zM229.32 60.966c.575.936 1.13 1.807 1.659 2.705 2.64 4.568 9.265 4.81 12.128.324.602-.936.76-2.251.825-3.41.074-1.306.722-1.547 1.732-1.306a5.1 5.1 0 0 1 1.89.824c2.001 1.474 4.234 1.964 6.68 2.169 2.742.222 5.494.843 8.172 1.556 2.734.714 5.402 1.733 8.07 2.705.964.343 1.808 1.02 2.762 1.353 1.64.557 3.28 1.149 4.985 1.418 3.429.537 6.496 1.806 9.285 3.854 1.723 1.279 3.446 2.511 5.16 3.8.483.351.871.806 1.669 1.547-1.074.417-1.89.972-2.706 1.01-2.984.148-5.977.13-8.97.13-.778 0-1.639 0-2.371-.26-3.354-1.233-6.792-.668-10.22-.585-3.077.074-6.144.102-9.228.223-1.03.036-2.085.148-3.058.436-2.669.796-5.337 1.603-7.931 2.613-2.391.936-4.763 1.982-6.996 3.252-2.825 1.594-5.457 3.503-8.219 5.18-1.946 1.167-3.474 2.632-4.28 4.79-.25.676-.741 1.27-1.186 1.993-1.667-1.186-2.112-2.826-2.158-4.596-.066-2.501 0-4.985-.038-7.477-.13-6.718-.25-13.445-.454-20.162-.101-3.03-.213-3.03 2.798-4.115zM114.04 195.122c.537 2.613-.658 4.595-2.215 6.448-.25.297-.547.621-.898.742-4.846 1.668-9.006 4.614-13.334 7.236a177 177 0 0 0-7.403 4.753c-4.53 3.076-8.95 6.273-13.519 9.284-2.15 1.408-4.576 2.381-6.781 3.725-1.862 1.12-3.614 2.419-5.337 3.725-.695.519-1.26.908-2.131.436-.843-.454-.927-1.084-.557-1.88.037-.094.121-.196.102-.279-.76-3.715 1.862-5.874 3.882-8.274 7.682-9.154 15.39-18.28 23.072-27.435 1.12-1.343 2.548-2.446 3.076-4.299.185-.648 1.288-1.269 2.067-1.455 2.594-.62 4.623-2.084 6.792-3.539 1.806-1.223 4.216-1.575 6.393-2.187.25-.065.964.584 1.029.973.352 2.353 1.668 4.206 2.9 6.16.936 1.456 1.723 3.012 2.51 4.56.196.362.232.862.353 1.307zM241.495 233.823c-4.373-4.4-8.894-8.672-13.11-13.231-5.495-5.94-11.073-11.759-17.568-16.604-1.427-1.057-3.058-1.872-4.67-2.595-3.122-1.39-4.337-3.475-3.835-6.884.101-.64.167-1.307.074-1.927-.686-4.3 1.111-8.126 2.306-12.036.733-2.41 5.282-3.567 7.283-2.03 1.603 1.233 3.317 1.67 5.31 1.41 2.63-.335 4.345 1.223 4.252 3.891-.074 1.993.482 3.66 1.576 5.328.898 1.353 1.417 2.956 2.205 4.392 3.64 6.68 7.32 13.334 10.961 20.014.62 1.13 1.288 2.279 1.668 3.492 1.085 3.503 2.956 6.616 4.92 9.664 2.233 3.438 2.02 4.365-1.37 7.125z"/></svg>