<svg xmlns="http://www.w3.org/2000/svg" viewBox="0 0 300 300"><path d="M50.597 117.366c-.234.056-.112 0 0 0 6.3.938 11.841.291 16.697-4.781 4.781-5.016 10.387-9.216 15.581-13.941 2.972-2.681 5.194-2.859 7.819.178 1.753 2.044 3.094 4.378 5.428 6.591.112-1.688.469-3.384.234-4.959-.872-4.781-6.478-9.038-11.025-7.697-2.737.816-5.137 3.206-7.462 5.138-5.484 4.613-10.744 9.45-16.172 14.119-3.038 2.625-6.825 1.519-10.322 1.575-1.809.056-3.619-.469-5.363-.872-3.206-.816-4.434-3.497-3.262-6.591 1.05-2.859 1.753-5.888 2.803-8.747.994-2.569 2.859-4.959 3.263-7.584.759-5.428.816-10.969 1.106-16.453.056-.638-.112-1.341.056-1.987 2.803-10.913 6.3-21.581 13.247-30.684 2.513-3.263 5.775-5.953 8.878-8.747 3.206-2.972 6.825-5.597 9.872-8.747 4.2-4.256 9.394-6.712 14.766-8.812 10.322-3.966 19.547-10.791 30.816-12.253 8.231-1.05 16.575-2.156 24.862-2.044 6.656.113 13.313 2.156 19.959 3.263 1.341.234 2.738.113 4.022.469 6.066 1.753 12.431 2.916 17.569 7.003.581.469 1.284.872 2.044 1.05 8.409 1.988 15.525 6.356 21.947 11.963 4.669 4.087 9.684 7.931 13.547 12.656 3.441 4.256 6.244 9.394 7.931 14.578 3.262 10.153 5.541 20.653 8.344 31.031.759 2.859 1.575 5.775 2.625 8.512.469 1.163 1.631 2.156 2.569 3.094 4.256 4.144 3.15 12.656-2.044 15.169-.872.413-2.1.291-3.619.525-1.284 5.016-6.3 3.675-10.153 4.256-4.434.703-8.522-.234-12.084-3.909-4.959-5.138-10.688-9.563-16.05-14.231-1.922-1.631-3.853-3.094-6.647-2.972-6.3.113-10.8 6.478-8.644 13.416 1.05-1.519 1.809-2.737 2.681-3.909.816-1.162 1.631-2.391 2.625-3.441 2.278-2.447 4.2-2.625 6.713-.469 6.122 5.362 12.319 10.612 18.206 16.219 4.378 4.2 9.506 3.853 14.709 3.037 2.972-.469 5.831-1.753 9.103-2.803-1.162 2.447-2.512 4.837-3.441 7.35-1.519 4.378-3.497 8.747-4.022 13.237-1.284 11.259-1.809 22.575-2.738 33.834-.638 7.697-1.575 15.337-2.334 23.044-.291 2.972-.638 5.953-.703 8.925-.234 8.4-3.094 16.275-4.547 24.441-.581 3.328-.178 6.769-.581 10.153-.525 3.787-1.341 7.528-2.334 11.259-.581 2.334-1.866 4.491-2.569 6.769-1.397 4.612-4.903 7.237-8.578 9.797-7.462 5.194-14.944 10.266-21.187 17.034-2.681 2.916-6.009 5.194-9.047 7.762-1.922 1.631-3.853 3.206-5.662 4.959-2.972 2.859-7.35 1.866-10.622 3.909-1.284.816-2.803 1.284-4.256 1.753-1.397.469-2.859 1.228-4.256 1.228-11.091.056-22.238.056-33.328-.113-1.866-.056-3.966-.938-5.484-2.044-2.625-1.922-4.838-4.491-7.406-6.534-6.009-4.725-12.141-9.272-18.263-13.828-5.306-3.966-10.5-8.222-16.106-11.728-4.903-3.094-6.422-8.4-9.225-12.778-1.922-2.972-1.866-7.406-2.1-11.259-.703-11.841-2.859-23.391-5.953-34.884-1.05-3.909-1.228-8.053-2.278-11.897-1.987-7.003-2.569-14.063-2.391-21.234.112-6.478.112-12.947-.291-19.425-.347-5.953-.816-11.963-1.987-17.85-1.519-6.412-3.675-12.656-5.438-19.078zm150.919 31.209c-.178.112-.412.178-.581.291 0-1.463.178-2.916-.056-4.313-.112-.703-.872-1.631-1.575-1.866-.525-.178-1.341.703-2.044.938-1.05.347-2.513 1.162-3.15.759-.759-.469-1.228-2.156-.994-3.094.816-3.037.816-5.831-1.462-8.691-.469 1.753-.638 3.328-1.341 4.669-1.228 2.278-2.512 4.669-4.313 6.478-.759.759-2.859.113-4.613.113.291-1.397.525-2.278.638-3.094.347-3.853.703-7.697.872-11.55 0-.581-.872-1.228-1.341-1.809-.413.581-1.05 1.163-1.106 1.753a222 222 0 0 0-1.05 8.925c-.347 3.441-2.569 5.719-5.306 7.172-1.341.703-3.384.112-5.194.112 0-5.831.056-11.55-.056-17.269 0-.938-.816-1.866-1.228-2.803-.469.938-1.228 1.866-1.284 2.859-.113 3.384.291 6.825-.113 10.209-.291 2.278-.994 5.428-2.569 6.3-2.513 1.463-5.888 1.575-8.981 1.922-2.1.291-4.547-1.688-4.378-3.384.469-4.491 1.162-8.925 1.688-13.359.112-.937.347-2.1-.056-2.803-.413-.759-1.519-1.397-2.391-1.519-.413-.056-1.463 1.284-1.397 1.987.178 5.138.581 10.322.703 15.459 0 .703-.872 2.1-1.341 2.1-3.909.178-7.988 1.753-11.794-1.05-.994-5.25-1.284-10.734.637-16.219.291-.872-.234-2.044-.412-3.037h-1.163c-1.987 5.541-1.922 11.438-2.044 17.269-2.334.234-4.378.412-6.3.581-3.731-4.547-4.613-9.863-4.613-15.516-.581.525-1.106 1.106-1.05 1.631.234 4.669.637 9.338.872 14.053.056.703-.234 1.922-.581 1.988-1.163.234-4.838-3.094-5.194-4.378-.759-2.681-1.575-5.362-2.334-8.053-.291 0-.525.056-.816.056v6.478c-.056 2.044.291 4.256-.291 6.188-.469 1.575-6.591 1.866-7.641.347-1.106-1.631-1.809-3.619-2.737-5.428-.178 0-.291 0-.469-.056v5.138c-.703-.872-.872-1.922-1.284-2.803s-1.05-2.156-1.753-2.334c-.938-.178-2.569.291-2.972 1.05-2.1 3.384-4.491 6.825-3.563 11.259-1.463-.525-2.513-.581-2.213 1.463.113.703.056 1.519-.112 2.213-1.463 6.534-3.038 13.069-4.378 19.659-.525 2.391-1.341 5.072-.816 7.294 2.044 8.634 4.313 17.203 7.003 25.603 1.341 4.2 3.563 8.222 5.888 12.019 1.341 2.1 3.731 3.497 5.662 5.25.291-.178.581-.347.938-.525-.872-2.916-.938-5.484 1.284-7.931 1.809-2.044 2.916-4.781 4.313-7.237.347.056.703.056 1.05.113.291 1.106.816 2.213.938 3.328.703 5.719 1.284 11.494 2.044 17.203.234 1.753 1.162 3.384 3.263 2.738 1.753-.525 2.569-1.753 2.156-4.022-.938-4.725-1.341-9.563-1.922-14.353-.234-2.1 1.228-3.15 2.916-3.328 2.859-.291 5.775-.056 9.272-.056.347 4.669.638 9.919 1.228 15.169.234 2.1 1.05 4.2 1.631 6.3.469-.056.938-.113 1.341-.113.291-1.341.816-2.681.759-4.022-.234-5.306-.703-10.613-.937-15.928-.113-3.206 1.519-4.781 4.669-4.781 1.866 0 3.731-.113 5.541.113.872.113 2.1.703 2.391 1.397.994 2.859 2.156 5.831 2.391 8.869.234 3.497-.581 7.059-.637 10.613 0 1.106.994 2.213 1.519 3.328.816-.638 2.156-1.162 2.334-1.922.469-1.988.525-4.144.581-6.244.113-4.256.056-8.513.113-12.778.056-3.328 1.05-4.256 4.256-4.2 2.334.056 4.669.056 7.003.056 2.569 0 4.378.234 5.016 3.675.347 2.044-.347 2.859-.816 4.378-1.575 5.016-2.512 10.209-3.731 15.338 1.519.525 2.803.994 4.547 1.575.816-5.484 1.575-10.678 2.391-15.863.291-1.987.703-3.966 1.341-5.887.234-.638 1.162-1.341 1.866-1.463 3.909-.581 7.594 2.681 7.528 6.591 0 .994-.113 1.922-.113 2.916v13.069c.994-1.809 1.987-2.972 2.213-4.256.638-3.497.938-7.059 1.462-10.613.178-1.341.525-2.681.816-4.088h1.228c1.05 3.787 3.328 7.116 3.384 11.316 0 1.162.938 2.625 1.922 3.328.525.347 2.681-.469 2.972-1.228 2.044-4.903 4.022-9.797 5.484-14.878 1.519-5.306 2.278-10.912 3.675-16.275.816-3.094 2.625-5.953 3.384-9.103 1.519-6.244 2.625-12.544 3.853-18.9.113-.469-.234-1.106-.469-1.575-.759-1.575-1.753-3.094-2.213-4.781-1.284-4.144-2.391-8.344-3.563-12.488-1.05 2.278-1.462 4.613-2.334 6.713-.291.759-1.753 1.575-2.569 1.519-.638-.056-1.228-1.397-1.463-1.809 1.753-1.05 3.563-1.519 4.088-2.625.234-.759-1.228-2.334-1.866-3.563zM143.222 40.828c-3.787 2.681-7.172 4.612-8.878 8.925-2.803 7.003-5.072 14.063-6.188 21.525-.347 2.447.872 4.547 3.328 4.837 1.688.178 3.441.056 5.138.291 3.497.525 5.662-2.044 8.053-3.731.637-.469.816-1.922.816-2.916.113-3.094-.113-6.244.056-9.338.234-2.916.816-5.775 1.284-8.634.291.056.525.056.816.112.638 6.356 1.397 12.712 1.922 19.134.347 3.909 1.922 5.25 5.719 4.725 1.519-.234 3.094.056 4.613.234 2.625.347 4.144-.703 4.959-3.206 1.284-4.144.234-8.053-1.228-11.784-1.462-3.675-3.384-7.172-5.138-10.791-1.05-2.156-1.922-4.434-3.094-6.534-.469-.816-1.575-1.341-2.044-1.688a188 188 0 0 1-1.106 4.022c-1.463-.703-2.972-1.462-4.434-2.156-2.972-.469-3.037 1.753-2.625 4.2-3.787-1.228-4.491-3.263-1.987-7.238zm39.853-.459c-.113 3.563.412 6.825 2.803 9.563.994 1.162 2.044 2.278 2.916 3.563 3.562 5.306 8.344 8.288 14.887 8.747 7.463.525 11.906-4.144 16.172-8.981 1.519-1.687 1.631-3.966.234-6.244-1.341-2.1-2.044-4.669-3.562-6.591-1.397-1.809-3.262-3.731-5.306-4.378-4.959-1.575-10.153-2.278-15.178-3.563-1.809-.469-3.562-1.397-5.306-2.212-3.441-1.688-5.541-.816-6.478 2.972-.581 2.391-.759 4.781-1.162 7.116zM87.713 66.263c3.787-.581 6.769-.638 9.459-1.519 2.334-.759 4.434-2.334 6.478-3.731 3.853-2.681 6.769-6.244 8.288-10.734 1.341-4.022.525-7.641-1.575-11.372-1.284-2.278-2.569-2.859-4.838-2.334-4.838 1.106-9.216 3.731-14.419 3.853-2.625.056-5.306 1.341-7.828 2.447-3.619 1.575-5.888 4.612-7.697 7.988-2.681 5.016-.234 11.662 4.434 13.181 2.738.872 5.541 1.575 7.697 2.213z"/></svg>