<svg xmlns="http://www.w3.org/2000/svg" viewBox="0 0 300 300"><path d="M150.966 0c.394.759 1.05 1.491 1.144 2.278a4436 4436 0 0 1 3.694 33.347c.122 1.144.703 1.509 1.753 1.65 9.881 1.359 19.05 4.753 27.703 9.628 5.391 3.037 10.294 6.731 14.831 10.941 1.594 1.491 2.034 1.669 3.825.478 4.838-3.187 9.684-6.375 14.372-9.797 7.734-5.634 16.303-9.9 24.375-14.953.412-.263.984-.291 1.903-.553-.591.806-.891 1.256-1.238 1.678-4.659 5.7-9.384 11.363-13.988 17.109-3.694 4.603-7.228 9.328-10.847 13.978-1.509 1.95-3.028 3.909-4.584 5.822-.844 1.05-.834 2.006-.253 3.188 2.447 4.912 4.866 9.844 7.144 14.822 2.091 4.528 2.813 9.431 3.553 14.325.084.591.206 1.2.216 1.8.037 1.2.647 1.866 1.791 2.081 3.028.553 6.047 1.097 9.084 1.65 7.041 1.313 14.072 2.644 21.112 3.919 1.791.319 3.628.291 5.391.656 1.828.375 3.619 1.059 5.409 1.603v.431c-2.231.516-4.434 1.125-6.675 1.547-4.613.872-9.272 1.491-13.856 2.475-6.197 1.341-12.356 2.953-18.534 4.397-2.184.516-3.309 1.603-3.778 4.013-1.472 7.603-3.197 15.178-6.788 22.172-2.484 4.828-5.409 9.328-9.075 13.341-1.913 2.091-1.922 2.297-.488 4.716 5.831 9.947 11.691 19.903 17.522 29.869.281.478.544.956.956 1.725-.684 0-1.238.159-1.641-.028-1.453-.684-2.972-1.313-4.238-2.259-7.959-5.963-15.844-12.019-23.756-18.028-2.766-2.091-2.972-2.053-6.047-.328-4.753 2.662-9.356 5.662-14.344 7.762-7.575 3.216-15.656 4.631-23.888 4.941-3.141.122-6.253.291-9.384.375-1.35.037-1.828.591-1.838 1.941s.45 1.941 1.819 1.978c2.616.075 4.875 1.125 6.928 2.681 3.291 2.484 6.216 5.278 8.297 8.897 1.603 2.813 2.756 5.662 2.456 9.019-.206 2.334.253 2.625 2.559 2.634 2.681.009 5.353.113 8.034-.028.834-.037 1.894-.525 2.391-1.172 3.291-4.228 7.519-6.431 12.863-7.097 9.769-1.238 18.806 1.022 27.544 5.081 2.934 1.359 4.912 3.628 5.344 7.031.066.506.656 1.144 1.144 1.35 3.666 1.434 7.331 2.859 11.072 4.088 1.05.338 2.456.291 3.487-.122 3.638-1.462 7.209-1.35 10.519.516 4.734 2.681 9.497 5.409 13.837 8.644 4.144 3.084 6.637 7.416 6.384 12.9-.047 1.162-.075 2.316.009 3.478.516 6.291-3.056 10.528-7.322 14.362-1.903 1.716-4.35 2.053-6.844 1.903-1.772-.113-3.516-.45-5.278-.469-.797 0-1.838.319-2.334.881-2.484 2.85-4.772 5.859-7.228 8.747-1.087 1.284-1.472 2.644-1.472 4.284 0 1.95-.066 3.947-.45 5.85-1.059 5.119-4.847 8.559-10.05 9.019-8.606.741-17.231 1.341-25.847-.028-1.65-.262-3.309-.328-4.969-.525-2.897-.338-5.316-1.678-7.162-3.844-.806-.947-1.341-2.241-1.688-3.469-.553-1.912-1.509-2.925-3.459-2.962-2.569-.066-5.156-.038-7.734-.066-1.613-.009-2.456 1.097-3.384 2.222-1.903 2.316-3.909 4.584-5.934 6.806-.909.994-2.119 1.341-3.525 1.397-3 .122-5.756-.262-8.4-1.894-4.753-2.934-9.816-5.409-14.391-8.606-3.525-2.456-6.572-5.625-9.647-8.644-1.847-1.819-2.053-4.172-1.125-6.619.844-2.269.769-2.344-1.547-3.262-1.069-.431-2.137-.891-3.178-1.434-1.209-.628-1.931-.441-2.363.956-.3.994-.816 1.95-1.35 2.85-1.931 3.206-4.594 4.969-8.531 5.016-8.184.084-16.359.431-24.553.609-2.634.047-4.913-.956-6.881-2.709-1.566-1.397-1.903-1.359-3.703-.281-2.194 1.322-4.406 2.662-6.694 3.834-4.622 2.372-9.281 4.65-13.95 6.938-5.269 2.569-10.884.506-13.547-4.744-1.987-3.9.188-10.153 5.044-10.603.816-.075 1.65-.722 2.344-1.275 3.825-3.038 8.025-5.419 12.712-6.863.844-.262 1.791-.45 2.644-.356.647.075 1.65.609 1.744 1.069.141.731-.159 1.753-.656 2.334-.731.853-1.791 1.472-2.747 2.128-2.316 1.575-4.659 3.131-6.928 5.072.366 0 .778.113 1.097-.009 1.622-.666 3.291-1.303 4.837-2.119 3.159-1.678 6.262-3.487 9.394-5.194.975-.525 1.416-1.219 1.284-2.306-.141-1.144-.225-2.306-.403-3.45-.919-5.859 2.119-10.162 7.959-11.288 4.903-.928 9.769-2.025 14.691-2.822 5.616-.909 11.288-1.641 16.941-2.269 3.544-.394 9.844 3.544 11.063 6.863.412 1.134.375 2.484.319 3.722-.075 1.566.563 2.278 2.016 2.888 3.563 1.491 7.003 3.262 10.547 4.828.487.216 1.359.084 1.828-.225 1.978-1.313 3.816-2.813 5.775-4.134 1.913-1.303 3.844-1.05 5.616.291 1.688 1.275 3.3 2.672 5.025 3.9 2.588 1.828 5.334 3.431 7.856 5.344 3.853 2.916 7.669 5.897 11.334 9.056 1.416 1.219 2.681 2.166 4.622 2.016 1.453-.113 2.934-.038 4.397-.028.872 0 1.322-.394 1.341-1.256.084-3.216 1.819-5.409 4.35-7.209 3.45-2.447 7.2-3.741 11.466-3.722 5.859.038 11.728.066 17.588-.084 4.284-.103 7.631 1.509 10.331 4.716 1.547 1.837 1.838 1.828 3.497.028 2.259-2.447 4.5-4.913 6.797-7.322.928-.984.994-1.725.141-2.85-3.159-4.125-6.197-8.325-9.272-12.506-1.219-1.678-1.397-3.534-.797-5.456.338-1.088.066-2.044-.891-2.456a126 126 0 0 0-8.569-3.3c-.403-.141-1.172.3-1.584.684-2.709 2.522-5.944 3.516-9.591 3.403-5.287-.159-10.622-.103-15.872-.647-3.478-.356-6.938-1.359-10.256-2.494-1.678-.572-3.178-1.931-4.519-3.178s-2.7-2.072-4.594-2.278c-4.059-.45-8.1-1.106-12.122-1.791-1.416-.244-2.409.188-3.384 1.144-2.822 2.803-5.972 5.109-9.712 6.553-3.253 1.256-6.534 1.603-9.956.881-5.447-1.162-10.584-2.991-14.878-6.694-2.841-2.447-4.809-5.409-5.447-9.169-.066-.394-.103-.844-.319-1.162-1.575-2.409-.731-4.65.178-7.031 2.156-5.644 5.859-9.937 11.025-13.031.263-.15.506-.366.778-.45 3.628-1.256 4.069-4.35 4.397-7.528.113-1.069-.563-1.359-1.416-1.603-3.384-.984-6.778-2.006-10.153-2.991-7.144-2.053-13.416-5.766-19.313-10.162-1.603-1.2-3.019-1.378-4.716-.394A5942 5942 0 0 1 74.24 190.72a1058 1058 0 0 1-11.325 6.375c-.516.291-1.144.394-1.725.581a7 7 0 0 1-.216-.338c.319-.431.619-.872.947-1.284 7.594-9.684 15.197-19.369 22.781-29.072 1.622-2.081 1.622-2.672-.009-4.781-7.284-9.319-11.841-19.866-14.213-31.378-.694-3.394-.984-6.881-1.35-10.341-.159-1.509-.844-2.353-2.306-2.775-10.144-2.878-20.269-5.85-30.712-7.416-2.784-.413-5.653-.366-8.25-1.678v-.609c1.35-.375 2.681-.994 4.059-1.106 4.809-.431 9.647-.731 14.484-1.022 3.984-.244 7.978-.291 11.944-.628 2.813-.244 5.578-.919 8.391-1.209 2.588-.263 3.122-.553 3.544-3.141 1.65-10.031 5.344-19.284 10.847-27.797 1.247-1.941 1.2-3.469-.084-5.362-5.616-8.241-11.119-16.575-16.641-24.891-.375-.581-.609-1.247-.909-1.875.15-.122.3-.262.441-.394 2.044 1.256 4.106 2.456 6.084 3.806 6.609 4.509 12.534 10.022 19.856 13.491 1.163.553 2.081.947 3.084-.159 6.103-6.656 13.837-10.856 21.947-14.475 7.397-3.3 15.131-5.297 23.147-6.216 1.8-.216 2.766-1.106 3.216-2.85 1.463-5.7 3-11.381 4.556-17.053 1.584-5.728 3.225-11.419 4.838-17.137h.3zM138.9 171.834c.216.009.431.028.647.038.525.872 1.209 1.688 1.547 2.625a120 120 0 0 1 2.513 7.594c.281.956.741 1.322 1.697 1.256 3.731-.216 7.481-.188 11.175-.656 12.253-1.537 23.222-6.216 32.944-13.828 1.069-.844 1.5-1.866 1.209-3.169-.159-.778-.412-1.547-.591-2.344-.431-1.875.488-3.009 2.4-2.775.853.103 1.725.516 2.494.975 1.219.741 2.166.572 3-.572 1.856-2.522 3.75-5.006 5.597-7.528 6.891-9.394 10.537-19.969 11.681-31.491.112-1.162-.216-1.903-1.238-2.475-1.144-.647-2.269-1.35-3.3-2.147-1.144-.872-1.125-1.613.113-2.344.984-.581 2.119-.947 3.197-1.341 1.031-.375 1.603-.984 1.434-2.147-.572-3.834-.919-7.716-1.725-11.494-1.762-8.325-5.306-15.919-10.05-22.969-.703-1.059-1.425-1.472-2.606-.684-.703.469-1.5.834-2.316 1.125-.619.225-1.313.253-1.978.375-.103-.666-.356-1.35-.262-1.987a40 40 0 0 1 .947-4.575c.328-1.237-.028-2.147-.928-2.962-1.462-1.322-2.859-2.709-4.331-4.013-11.063-9.694-23.925-15.15-38.559-16.528-1.491-.141-2.531.244-3.234 1.603a39 39 0 0 1-2.231 3.769c-.872 1.341-1.913 1.322-2.606-.075a22 22 0 0 1-1.491-4.069c-.253-.956-.656-1.416-1.659-1.313-1.144.112-2.306.206-3.459.356-15.656 1.95-28.931 8.709-40.097 19.753-1.013 1.013-1.2 1.978-.581 3.244.769 1.584 1.584 3.178 2.081 4.838.206.694-.216 1.744-.684 2.381-.216.291-1.313.178-1.875-.066-1.013-.431-1.931-1.088-2.897-1.641-1.913-1.087-2.897-.844-3.966 1.069-1.791 3.15-3.563 6.319-5.25 9.534-3.113 5.916-4.734 12.281-5.672 18.863-.216 1.537.281 2.419 1.866 2.644.891.122 1.8.291 2.644.581.628.206 1.181.628 1.791.956-.337.619-.544 1.453-1.069 1.8-1.181.806-2.484 1.575-3.844 1.969-1.5.431-2.072 1.134-2.034 2.644.366 15.787 5.625 29.738 15.534 42.019.919 1.144 1.828 1.387 3.131.759 2.447-1.2 4.903-2.372 7.388-3.469 1.256-.553 2.766-1.688 3.872-.319.984 1.238-.413 2.409-1.106 3.45-1.716 2.55-3.459 5.053-5.278 7.688 9.225 7.819 19.575 12.984 31.622 15.328.975-2.475 1.894-4.856 2.887-7.209.45-1.059 1.031-2.053 1.547-3.075zm-26.241 81.9c-1.134-2.147-2.709-2.166-4.359-1.903-7.012 1.125-14.025 2.241-21.037 3.394-1.181.188-2.456.328-3.497.872-.722.375-1.097 1.397-1.641 2.147.628.291 1.219.703 1.875.844 2.091.431 3.253 1.931 2.869 4.031-.206 1.134-.525 2.241-.891 3.338-.516 1.584-.122 2.222 1.547 2.128 4.969-.262 9.928-.572 14.878-.891 1.8-.113 3.628-.291 5.419-.553 1.069-.15 2.213-.609 2.213-1.875 0-1.434-1.275-1.087-2.194-1.162-1.5-.113-2.006-.619-1.866-2.109.159-1.706.487-3.394.647-5.091.15-1.584 1.022-2.072 2.503-2.194 1.172-.103 2.306-.619 3.525-.975zm82.238 34.978c1.069.262 1.678.488 2.297.553 1.716.188 3.45.159 5.119.488 7.078 1.387 14.203.525 21.3.375.834-.009 2.044-.028 1.866-1.387-.178-1.247-1.209-1.125-2.147-.975-2.85.441-6.281-1.762-7.087-4.547-.741-2.569.112-4.706 2.419-6.009 1.022-.581 1.106-1.238.122-1.903-.506-.338-1.181-.478-1.819-.572-6.066-.872-12.169-.244-18.253-.291-.609 0-1.209.225-2.203.431.778.844 1.266 1.472 1.847 1.978 1.762 1.547 2.559 3.488 1.706 5.691-.516 1.35-1.547 2.531-2.494 3.684-.647.778-1.509 1.416-2.672 2.484zm11.4-57.618c-.262-.656-.413-1.134-.628-1.575-1.35-2.775-.984-4.378 1.378-6.337.338-.291.797-.872.703-1.134-.122-.366-.703-.722-1.144-.816-1.969-.431-3.956-.778-5.934-1.134-4.969-.891-9.9-1.791-15-.741-2.119.441-2.297.516-1.5 2.588a396 396 0 0 1 2.362 6.356c.469 1.284 1.247 2.119 2.672 2.353 5.166.872 10.359 1.238 15.6.834.441-.038.872-.216 1.509-.375zm-60.188 35.362a257 257 0 0 1-.319 4.106c-.216 2.719-1.378 3.994-4.069 4.434-.356.066-.769-.028-1.031.141-.581.356-1.537.834-1.537 1.256 0 .703.441 1.706 1.022 2.081 3.122 2.016 6.375 3.862 9.534 5.813 2.578 1.575 5.128 3.216 7.688 4.828.741.478 1.491.741 2.119-.122.609-.816.262-1.509-.394-2.128a5 5 0 0 1-.328-.319c-1.172-1.219-1.462-5.044-.412-6.356.253-.319.731-.488 1.144-.609 1.678-.413 2.053-1.509.769-2.719-1.059-.994-2.316-1.753-3.506-2.625l-6.553-4.838c-1.247-.891-2.513-1.791-4.144-2.953zm106.997-7.79c1.256-.394 2.353-.684 3.441-1.069 1.566-.572 2.128-1.538 1.425-3.066-1.05-2.269-2.241-4.491-3.6-6.591a35 35 0 0 0-4.078-5.222 37.7 37.7 0 0 0-5.194-4.509c-1.275-.919-2.1-.45-3.019.806a58 58 0 0 1-3.994 4.875c-.666.741-.647 1.256-.047 1.931 1.922 2.128 3.825 4.284 5.784 6.375.338.366 1.031.769 1.416.656 2.419-.722 4.256.928 6.347 1.462.572.15.994 1.256 1.275 2.006.244.694.159 1.472.244 2.344zm-115.518-30.628c.047-.122.084-.262.141-.394.253 0 .506.009.759 0 1.725-.066 3.375-1.031 3.637-2.634.113-.666-.806-1.622-1.434-2.278-1.05-1.097-1.275-2.222-.291-3.356.909-1.05 2.072-1.875 3.019-2.888.431-.45 1.031-1.341.853-1.659-.516-.975-1.313-1.819-2.147-2.559-.141-.122-1.097.478-1.509.909-.816.881-1.472 1.931-2.306 2.803-1.35 1.453-3.15 1.641-4.912 1.144-1.547-.431-1.838-1.866-1.903-3.291a1 1 0 0 0-.037-.3c-.244-1.238-1.05-1.603-1.847-.656-1.181 1.416-2.419 2.916-3.141 4.575-1.209 2.738.291 6.178 3.619 7.941 2.306 1.219 4.978 1.791 7.481 2.644z"/></svg>