<!-- Generated by IcoMoon.io -->
<svg version="1.1" xmlns="http://www.w3.org/2000/svg" width="300" height="300" viewBox="0 0 300 300">
<title>fighters-monster</title>
<path d="M0 192.356c0-5.531 0-11.063 0-16.584 0.113-0.656 0.216-1.284 0.319-1.931 0.872-5.775 1.519-11.606 2.672-17.334 1.566-7.791 3.572-15.487 4.134-23.456 0.488-6.722 2.016-13.191 4.641-19.416 1.266-2.991 3.347-4.819 6.216-6.028 2.194-0.928 2.672-0.563 2.738 1.837 0.056 1.913 0.131 3.844 0.45 5.709 1.003 5.606 4.941 9.788 7.453 14.653 0.403 0.769 1.275 1.406 2.072 1.828 5.616 2.934 11.419 5.325 17.812 5.888 0.872 0.084 1.753-0.113 2.625-0.141 1.041-0.047 2.1-0.188 3.103-0.019 1.697 0.319 3.263 0.234 4.791-0.666 0.741-0.441 1.603-0.872 2.447-0.984 4.341-0.525 7.584-2.747 10.444-5.953 1.509-1.697 3.712-2.766 5.541-4.191 4.987-3.863 8.606-8.569 8.747-15.216 0.047-1.828 0.028-3.684-0.272-5.456-0.188-1.163-0.722-2.513-1.566-3.281-1.059-0.956-2.569-1.453-3.947-2.016-0.319-0.141-0.928 0.159-1.284 0.422-1.434 0.984-2.822 2.072-4.275 3.047-2.063 1.378-4.237 2.616-6.253 4.050-2.128 1.519-3.525 3.6-4.191 6.178-0.9 3.487-2.775 4.838-6.328 4.237-4.987-0.825-9.516-2.944-14.184-5.428 1.669-1.134 3.112-2.147 4.566-3.103 2.016-1.359 2.128-1.931 0.825-4.031-0.534-0.853-1.012-1.744-1.669-2.878 1.387 0 2.381 0.122 3.337-0.028 1.875-0.291 3.844-0.469 5.569-1.172 2.522-1.022 3.178-3.947 1.744-6.225-0.262-0.422-0.487-0.872-0.628-1.341-0.459-1.519 0.422-2.475 1.894-1.884 2.7 1.106 5.241 0.169 7.791-0.403 2.006-0.45 3.234-2.278 3.338-4.266 0.112-2.297-0.741-3.713-2.934-4.641-1.219-0.506-2.466-0.975-3.741-1.369-1.716-0.525-2.156-0.187-2.325 1.603-0.347 3.45-2.784 5.128-6.178 4.284-1.172-0.291-2.391-0.45-3.6-0.553-0.9-0.075-1.641 0.403-1.341 1.378 0.534 1.828 1.134 3.647 1.978 5.353 0.534 1.078 0.609 1.922 0.103 2.944-0.525 1.031-1.303 1.481-2.419 1.275-2.916-0.506-5.859-1.003-8.775-1.603-1.931-0.403-2.391-0.075-2.175 1.931 0.234 2.25 1.059 4.237 2.438 6.066 1.219 1.613 0.947 3.178-0.928 3.891-1.35 0.506-3.075 0.741-4.444 0.394-4.509-1.172-7.95-4.078-10.706-7.706-3.178-4.153-4.116-8.269-0.581-13.050 2.156-2.916 3.441-6.225 4.697-9.619 1.359-3.647 2.831-7.416 5.053-10.547 6.394-9.009 13.097-17.822 19.856-26.569 4.922-6.356 10.519-12.019 17.859-15.788 6.525-3.328 12.825-7.097 19.275-10.594 2.034-1.088 4.163-2.119 6.366-2.756 2.119-0.609 4.388-0.684 7.003-1.031-0.394 0.741-0.487 0.984-0.637 1.172-1.669 2.128-3.338 4.266-5.034 6.384-1.106 1.378-1.537 2.916-1.35 4.641 0.187 1.509 0.487 3.094 2.091 3.684 1.725 0.656 3.45 0.291 4.706-1.144 1.163-1.322 2.194-2.756 3.225-4.191 0.553-0.788 1.088-1.219 2.175-1.144 0.825 0.075 1.781-0.15 2.522-0.553 4.659-2.513 9.225-5.213 13.912-7.678 4.537-2.391 9.075-4.875 14.278-5.569 2.916-0.394 5.813-0.75 8.728-1.022 0.694-0.075 1.425 0.206 2.147 0.319-0.741 0.881-1.547 1.341-2.306 1.838-0.75 0.469-1.537 0.9-2.175 1.491-1.191 1.106-1.453 3.197-0.563 4.416 1.022 1.425 2.241 0.638 3.412 0.188 4.772-1.781 9.797-2.916 14.794-2.278 6.459 0.825 12.881 2.269 19.209 3.919 3.497 0.909 6.741 2.747 10.078 4.219 0.947 0.422 1.809 0.994 2.756 1.509-0.272 0.881-0.469 1.641-0.75 2.353-1.041 2.653-0.384 4.734 1.781 6.619 4.472 3.872 8.859 7.856 13.181 11.887 1.088 1.003 1.8 2.391 3 4.031-2.119 0.45-3.656 0.816-5.194 1.116-3.731 0.741-4.941 3.366-3.178 6.759 0.741 1.406 1.491 2.888 1.744 4.425 0.403 2.325 1.284 4.341 2.728 6.122 2.306 2.887 4.772 5.672 7.069 8.569 2.241 2.831 4.913 4.163 8.513 2.831 0.244-0.103 0.534-0.103 0.816-0.112 4.828-0.272 7.584-3.328 9.394-7.35 1.809-4.003 3.347-8.138 4.931-12.244 1.022-2.653 3-3.684 5.7-3.628 4.969 0.131 9.216 2.016 12.45 5.728 5.7 6.534 11.372 13.116 16.772 19.903 7.922 9.956 13.5 21.272 17.466 33.253 2.672 8.072 5.325 16.237 6.45 24.759 0.047 0.338 0.131 0.666 0.244 0.975 2.006 4.8 2.419 9.825 2.334 14.944-0.028 1.537 0.169 3.066 0.262 4.603 0 2.325 0 4.641 0 6.966-0.103 0.591-0.234 1.172-0.3 1.772-0.534 5.278-0.853 10.594-1.669 15.816-0.928 5.925-2.456 11.756-3.441 17.681-1.387 8.334-4.331 16.069-8.306 23.456-0.403 0.731-1.144 1.275-1.725 1.903-0.366-1.078-0.441-1.894-0.347-2.7 0.15-1.313 0.525-2.597 0.591-3.919 0.244-4.575 0.394-9.15 0.609-13.725 0.056-1.275 0.3-2.531 0.291-3.787-0.028-1.547-0.666-2.85-2.306-3.234-1.688-0.394-2.766 0.591-3.469 1.959-0.525 1.022-0.9 2.147-1.219 3.253-2.016 6.984-4.772 13.641-8.259 19.997-0.234 0.441-0.534 0.844-1.087 1.669-0.15-0.947-0.234-1.359-0.272-1.772-0.206-2.25-0.291-4.519-0.637-6.759-0.319-2.062-1.425-2.7-3.469-2.222-1.481 0.347-2.456 1.294-2.672 2.822-1.003 7.472-6.891 11.897-10.838 17.972-0.534-1.866-0.844-3.366-1.397-4.791-0.534-1.359-1.397-2.616-3.084-2.653-1.613-0.047-2.381 1.106-3.103 2.372-2.316 4.097-4.566 8.203-7.050 12.178-1.125 1.8-2.503 3.6-4.162 4.875-3.741 2.934-7.537 5.831-11.634 8.231-5.972 3.516-10.059 8.569-13.153 14.541-2.222 4.256-0.019 8.981 4.65 10.116 1.697 0.422 3.497 0.45 5.259 0.684 0.469 0.075 0.947 0.234 1.641 0.403-1.622 0.956-2.972 1.688-4.266 2.512-5.859 3.731-12.244 6.094-18.975 7.603-3.45 0.769-6.891 1.509-10.322 2.269-5.381 1.2-10.734 2.559-16.144 3.6-2.972 0.563-6.037 0.431-9.019-0.534 0.206-0.563 0.366-1.003 0.694-1.894-4.5 0.403-8.663 0.759-12.806 1.144-3.684 0.347-7.369 0.928-11.044 1.059-4.303 0.15-8.606-0.216-12.909-0.131-7.003 0.15-13.913 0.628-20.916-0.984-6.356-1.453-13.022-1.575-19.566-2.1-6.197-0.497-11.85-2.334-17.006-5.831-1.594-1.078-3.366-1.894-5.034-2.878-0.469-0.272-0.872-0.666-1.369-1.059 1.378-0.609 2.653-0.928 3.638-1.641 2.419-1.744 4.744-3.609 7.031-5.541 2.934-2.494 2.494-6.009-0.928-7.819-2.297-1.219-4.566-2.484-6.947-3.525-8.803-3.844-15.591-9.741-19.481-18.703-0.075-0.15-0.15-0.291-0.234-0.45-2.194-3.731-3.666-3.919-6.619-0.825-2.681-3.497-4.556-7.416-6.122-11.484-0.844-2.222-1.575-4.481-2.353-6.722-0.637-1.838-2.072-2.784-3.769-2.513-1.538 0.244-2.222 1.266-2.278 3.338-0.019 0.938-0.019 1.875-0.019 2.822 0 0.609 0 1.219 0 1.828-0.188 0.047-0.403 0.075-0.591 0.113-0.244-0.497-0.525-0.984-0.75-1.491-2.831-6.722-5.616-13.453-8.503-20.119-0.431-1.003-1.2-2.034-2.1-2.625-2.062-1.359-3.787-0.525-4.237 1.894-0.169 0.909-0.216 1.884-0.103 2.794 0.375 2.963 0.881 5.906 1.247 8.859 0.141 1.116 0.028 2.269 0.028 3.403-0.206 0.047-0.431 0.084-0.638 0.103-0.909-1.162-2.147-2.175-2.681-3.497-1.247-3.056-2.353-6.197-3.141-9.403-1.519-5.944-2.738-12.056-4.059-18.122zM145.050 92.578c-0.553-0.028-0.984-0.066-1.425-0.084-2.363-0.084-2.438-0.084-2.813 2.297-0.319 2.016-0.469 4.059-0.637 6.094-0.131 1.594-1.313 1.725-2.475 1.875-1.191 0.15-1.537-0.628-1.641-1.603-0.15-1.641-0.497-3.309-0.366-4.931 0.3-3.994 0.338-4.022-3.581-3.422-1.294 0.197-1.959 0.722-2.1 2.063-0.234 2.034-0.609 4.031-1.003 6.047-0.422 2.091-1.584 2.803-4.181 2.878-1.978 0.056-1.753-1.425-1.987-2.616-0.028-0.169-0.047-0.366-0.141-0.469-0.384-0.431-0.797-1.116-1.228-1.144-0.422-0.028-1.022 0.563-1.284 1.041-0.431 0.759-0.684 1.631-0.975 2.456-2.419 7.097-4.762 14.222-7.294 21.272-1.584 4.416-2.325 3.919 2.625 5.503 3.281 1.041 4.003 2.325 3.684 5.775-0.403 4.453-0.816 8.925-0.769 13.369 0.103 6.647-0.122 13.256-0.872 19.856-0.234 2.034-1.078 2.616-3.113 2.391-1.247-0.131-2.531-0.103-3.769 0.084-5.85 0.9-11.662 1.988-17.644 1.162-1.725-0.234-3.516-0.103-5.278-0.019-1.453 0.056-1.941 0.872-1.753 2.353 0.45 3.731 0.9 7.463 1.134 11.213 0.169 2.747 0.131 5.513-0.066 8.269-0.103 1.434 0.159 2.391 1.406 3.197 1.809 1.162 3.722 2.278 5.231 3.778 3.741 3.684 6.141 8.025 5.588 13.575-0.15 1.519 0.084 3.075 0.159 4.613 0.272 6.066 0.666 12.131 0.787 18.197 0.066 3-1.547 4.397-4.584 4.491-1.275 0.047-2.541-0.084-3.806-0.131-4.284-0.15-8.588-0.3-12.881-0.45-1.059-0.047-1.641 0.403-1.725 1.519-0.188 1.978-0.403 3.966-0.741 5.916-0.244 1.434 0.234 1.95 1.659 2.166 1.828 0.291 3.75 0.628 5.381 1.434 5.672 2.803 8.953 13.397 6.647 17.953-0.984 1.95-0.638 3.891 0.713 5.597 0.909 1.162 1.2 2.409 0.872 3.881-0.45 1.978-0.797 3.966-1.2 5.944 0.3 0.113 0.45 0.188 0.628 0.206 9.141 1.453 18.347 2.063 27.6 2.147 4.125 0.047 4.425-0.178 3.806-4.313-0.741-4.837 0.084-9.45 1.566-14.016 0.178-0.553 0.563-1.059 0.947-1.538 1.978-2.494 4.472-1.866 6.975-1.087 1.781 0.534 3.028 2.044 3.047 3.9 0.028 3.094-0.075 6.197-0.084 9.291-0.019 2.147 0.131 4.284-0.028 6.412-0.103 1.491 0.244 2.241 1.809 2.231 3.928-0.019 7.875 0.066 11.775-0.262 4.125-0.347 8.184-1.369 12.328-1.641 10.866-0.703 21.412-3.206 31.997-5.456 3.919-0.825 6.609-3.319 8.091-7.331-1.978-0.534-2.128-2.044-1.8-3.581 0.928-4.209 0.178-8.344-0.366-12.506-0.15-1.172-0.722-1.772-1.838-1.988-1.688-0.319-3.347-0.731-5.016-1.059-2.597-0.506-4.059-2.363-4.247-4.697s-1.284-5.184 1.669-6.891c0.216-0.131 0.169-0.638 0.366-0.881 0.816-1.059 1.547-2.231 2.578-3.028 0.872-0.684 2.091-1.003 3.197-1.322 1.838-0.506 2.419-1.697 2.231-3.497-0.131-1.256-0.291-2.559-0.169-3.806 0.422-4.238 0.909-8.447 1.481-12.656 0.15-1.134-0.056-1.669-1.228-1.772-1.369-0.112-2.738-0.366-4.125-0.45-3.666-0.234-4.209-0.722-5.147-4.341-2.091-8.006-4.219-16.003-6.384-23.991-0.206-0.769-0.609-1.462-1.106-2.587-0.656 0.909-1.134 1.425-1.434 2.034-0.844 1.744-1.584 3.525-2.391 5.278-3.638 7.734-7.313 15.469-10.903 23.231-0.694 1.491-1.912 1.987-3.178 1.772-0.656-0.131-1.275-1.322-1.622-2.156-1.594-3.919-0.872-7.931-0.403-11.925 0.206-1.688 0.422-3.403 0.366-5.091-0.084-3.047-0.403-6.066-0.534-9.094-0.244-5.409-0.375-10.828-0.656-16.237-0.291-5.794-0.741-11.578-1.059-17.372-0.366-6.834-0.047-13.697-2.034-20.391-0.769-2.587 1.388-4.959 4.153-4.819 1.453 0.066 1.781-0.487 1.481-1.744-0.722-2.934-1.341-5.878-2.175-8.766-2.475-8.766-5.034-17.503-7.528-26.25-0.244-0.9-0.487-1.519-1.613-1.406-1.162 0.103-1.266 0.853-1.266 1.753 0.019 2.653 0.075 5.306-0.028 7.969-0.019 0.534-0.506 1.322-0.984 1.547-1.969 0.909-3.075 0.131-3.309-2.362-0.244-2.644-1.322-5.306 0.028-7.95 0.103-0.187-0.019-0.45-0.047-0.853zM66.206 53.259c-0.084-0.403-0.103-1.256-0.422-2.006-0.262-0.591-0.806-1.397-1.322-1.462-0.45-0.075-1.219 0.628-1.538 1.162-1.022 1.753-1.95 3.581-2.813 5.428-0.384 0.825-0.497 1.781-0.741 2.672 1.050 0.216 2.091 0.553 3.159 0.609 0.506 0.028 1.144-0.366 1.566-0.759 1.453-1.406 2.119-3.178 2.1-5.644z"></path>
<path d="M132.797 228.159c0 1.144 0.056 2.306-0.019 3.459-0.103 1.575-1.003 2.128-2.447 1.594-2.1-0.787-3.103-2.653-2.597-4.856 0.338-1.434 0.713-2.878 1.059-4.313 0.263-1.087 1.003-1.978 2.044-1.641 0.759 0.234 1.594 1.2 1.781 2.006 0.3 1.191 0.084 2.494 0.084 3.778 0.028-0.019 0.056-0.019 0.084-0.019z"></path>
<path d="M131.916 143.438c0.497-1.491 1.059-3.262 1.725-4.987 0.337-0.872 0.984-0.984 1.875-0.525 2.025 1.003 2.119 2.859 2.1 4.669-0.019 1.247-0.469 2.466-0.741 3.713-0.291 1.369-1.331 2.063-2.522 1.875-0.684-0.103-1.397-1.059-1.8-1.8-0.403-0.759-0.403-1.697-0.656-2.963z"></path>
<path d="M135.9 194.316c-0.188 0.45-0.272 1.369-0.787 1.875-1.425 1.425-2.466 1.088-3.553-0.609-1.491-2.381-0.741-4.791-0.216-7.134 0.131-0.609 1.322-1.378 2.006-1.35 0.637 0.028 1.584 0.928 1.753 1.613 0.45 1.688 0.534 3.469 0.806 5.597z"></path>
</svg>
