<svg xmlns="http://www.w3.org/2000/svg" xml:space="preserve" fill-rule="evenodd" stroke-linejoin="round" stroke-miterlimit="2" clip-rule="evenodd" viewBox="0 0 300 300"><path fill-rule="nonzero" d="M176.381 0c8.775 1.528 16.059 6.413 23.625 10.594 2.597 1.434 4.772 3.637 7.209 5.381.797.563 1.838.788 2.728 1.238.684.337 1.537.647 1.912 1.219 3.984 6.253 8.588 12.084 12.113 18.675 2.719 5.081 4.172 10.481 5.775 15.891.103.356.225.731.431 1.022 2.297 3.056 3.563 6.581 4.744 10.163.431 1.331 1.003 2.625 1.566 3.891.553 1.247.197 1.894-1.162 2.222-3.244.769-6.366.037-9.469-.741-5.719-1.425-10.162.637-13.65 5.034-.75.938-.891 2.353-1.425 3.497-5.1 10.875 3.544 20.587 12.713 22.097 3.441.563 6.797.609 10.162-.478 1.931-.638 3.384-1.706 4.453-3.431.319-.506 1.069-1.219 1.472-1.125 1.162.272 2.681.291 3.103 1.791.234.834.356 1.772.197 2.625-.572 3.188-1.266 6.337-1.931 9.497a15 15 0 0 1-.309 1.237c-1.884 5.981-3.787 11.972-5.606 17.981-.309 1.013-.431 2.119-.412 3.159.047 1.997-1.144 3.431-2.138 4.941-.169.244-1.05.225-1.462.019-.609-.291-1.116-.844-1.65-1.303-1.303-1.116-2.653-1.978-4.519-1.95-.787.009-1.669-.544-2.344-1.05-1.191-.919-2.372-1.266-3.797-.703-.919.356-1.856.656-2.784.975-2.719.928-4.331 2.906-4.209 5.7.178 4.022.741 8.034 1.238 12.028.15 1.191.234 2.344-.703 3.141-1.856 1.584-2.681 3.806-3.928 5.784-.609.966-1.416 1.941-2.362 2.512-2.278 1.388-4.688 2.578-7.078 3.778-.478.244-1.369.422-1.659.169-.384-.338-.403-1.125-.553-1.725-.244-.966-.403-1.95-.741-2.869-.319-.872-.731-1.753-1.284-2.484a41 41 0 0 0-3.469-3.984c-.244-.244-1.116-.178-1.491.056-.328.216-.609.938-.497 1.303.103.319.787.638 1.219.638 1.397.009 1.744.609 1.35 1.884-.122.384-.019.834-.019 1.256.009.469.225 1.031.019 1.387-1.284 2.372-.281 4.753-.197 7.134.056 1.716-.225 3.459-.45 5.175-.356 2.597-.713 5.194-1.238 7.772-.244 1.219-.891 2.362-1.313 3.553-.45 1.294-1.416 1.772-2.681 1.913-1.884.216-3.019-.506-3.038-2.4-.009-1.997.328-3.994.638-5.981.459-3.009 1.097-6.009 1.509-9.028.084-.6-.497-1.284-.769-1.912-.694.328-1.463.553-2.034 1.012-.356.281-.356.956-.609 1.388-.844 1.444-1.613 2.953-2.644 4.256-1.031 1.313-1.678 1.219-3.253.178-1.209-.797-1.059-1.725-.638-2.925 1.388-3.928 2.822-7.847 3.853-11.878.384-1.519.056-3.431-.516-4.95-1.059-2.756-2.222-5.578-3.947-7.912-1.791-2.409-4.153-4.481-7.294-5.259-.619-.15-1.284-.403-1.791-.787-3.375-2.578-7.134-2.531-11.034-1.772-.694.131-1.397.422-2.072.356-3.366-.319-5.878 1.256-8.147 3.459-1.012.975-2.081 1.912-2.991 2.991-.609.731-1.266 1.631-1.387 2.541-.619 4.425-1.256 8.841-1.519 13.284-.188 3.272.572 6.459 2.85 9.066.338.384.741.825.834 1.284.131.638.122 1.378-.122 1.959-.084.216-1.022.244-1.509.103-1.331-.403-2.606-.938-4.012-1.472 0 .553-.009.928 0 1.294.075 1.791-.431 2.269-2.034 1.603-1.509-.619-3.019-1.35-4.294-2.353-1.903-1.481-2.803-3.469-2.644-6.047.15-2.447.609-4.959-.544-7.359-1.144-2.362-4.359-3.366-6.384-1.697-2.344 1.931-4.706 2.897-7.547 1.247-.188 1.209-.309 2.344-.544 3.441-.216.956-.862 1.172-1.706.713a7 7 0 0 1-1.266-.863c-2.119-1.772-4.247-3.553-6.319-5.381-.544-.478-.956-1.153-1.341-1.791-.591-.984-.684-1.819.722-2.278.403-.131.731-.675.966-1.097a329 329 0 0 0 3.019-5.691c.975-1.866 2.156-3.656 2.859-5.625 1.387-3.891-1.378-7.753-5.447-8.109-5.081-.459-9.394 1.238-13.266 4.359-1.116.909-3.647.731-4.866-.356-2.213-1.95-4.519-3.825-6.581-5.916-3.009-3.056-4.706-6.919-5.691-11.016-.919-3.834-1.537-7.734-2.231-11.616-.272-1.528.516-2.306 2.091-2.222 2.166.103 4.313.178 6.478.319 5.353.337 9.197-2.175 11.691-6.628 3.291-5.869 4.2-12.084 1.959-18.619-1.8-5.241-8.653-9.075-13.959-7.631a53 53 0 0 0-6.628 2.278c-2.494 1.05-3.966.281-4.106-2.419-.094-1.763-.291-3.544-.131-5.278.15-1.612.563-3.244 1.144-4.762 1.959-5.175 3.928-10.35 6.113-15.431 2.353-5.419 5.494-10.369 9.712-14.578 1.256-1.256 2.494-2.578 3.553-4.012 4.116-5.578 9.469-9.6 15.487-12.863 5.531-3.009 11.016-6.075 16.537-9.122.45-.244.919-.497 1.416-.637 2.925-.844 5.531-2.316 7.941-4.153.928-.703 1.997-.909 2.897-.272 1.313.938 2.541 2.072 3.647 3.253.816.881-.141 1.35-.778 1.669-2.269 1.125-3.75 2.944-4.706 5.222-1.491 3.553-1.256 7.106.403 10.5.525 1.078 1.537 1.997 2.494 2.813 1.631 1.397 3.366 2.7 5.119 3.947 3.384 2.438 7.247 3.609 11.363 3.666 4.472.056 8.906-.356 13.05-2.316 1.819-.872 3.347-1.988 4.613-3.591 3.825-4.866 5.625-10.247 4.5-16.453-.356-1.941-1.219-3.506-2.747-4.763-1.556-1.284-3.038-2.653-4.753-4.172A91 91 0 0 1 168.19.003h8.184zm7.181 158.728c.834-.328 1.725-.45 2.222-.956.469-.469.825-1.462.647-2.034-.169-.506-1.116-.956-1.762-1.022-.319-.037-.928.797-1.059 1.331-.188.778-.047 1.65-.047 2.681zM114.009 300c-3.084-1.894-3.806-4.238-2.859-7.819a889 889 0 0 0 5.494-21.994c.844-3.553 1.491-7.162 2.025-10.781.234-1.65-.056-3.375-.103-5.053-.009-.563-.037-1.125-.037-1.697.009-1.669.75-3.047 1.809-3.384 1.209-.384 3 .366 3.881 1.716s1.631 2.738 2.513 4.069c1.388 2.081 2.681 2.109 4.2.131 1.95-2.513 3.225-5.353 4.219-8.372.647-1.95 1.838-3.759 2.963-5.513.75-1.162 2.081-1.022 3.197-.553s.75 1.519.572 2.353c-.459 2.306-.984 4.584-1.509 6.872-.647 2.831-2.438 4.931-4.528 6.816-.319.281-.75.497-.938.844-.309.591-.459 1.247-.684 1.884.619.216 1.284.675 1.866.591 1.153-.15 2.25-.656 3.384-.928a75 75 0 0 1 4.537-.956c.928-.169 1.988-.038 2.222.984s-.075 2.063-1.106 2.775c-1.697 1.172-3.366 2.4-4.941 3.731-1.003.834-1.884 1.837-2.719 2.85a1414 1414 0 0 0-9.075 10.969 26 26 0 0 0-1.838 2.484c-3.506 5.456-6.975 10.922-10.491 16.369-.403.609-1.013 1.078-1.528 1.613-.178.009-.366.009-.553.009z"/><path fill-rule="nonzero" d="M158.719 143.213c2.419.797 5.147 1.266 7.088 3.225 2.85 2.878 4.941 6.244 5.813 10.294 1.397 6.525-1.866 12.15-8.287 13.922-1.162.319-1.397.872-1.331 1.884.103 1.416-.131 2.625-1.341 3.647-.563.469-.825 1.463-.956 2.259-.431 2.738-.544 5.541-1.153 8.231-.872 3.787-2.072 7.5-3.188 11.231-.103.338-.638.713-1.012.778-2.597.403-4.809-1.481-4.753-4.125.019-1.256.338-2.503.591-3.75.891-4.359 1.791-8.737 2.728-13.088a16.6 16.6 0 0 1 .834-2.822c.834-2.119.431-3.319-1.519-4.472-4.444-2.644-7.266-6.656-8.775-11.466-1.697-5.428 1.659-11.381 7.153-13.322 1.988-.703 3.994-1.35 6.009-1.987.638-.188 1.294-.272 2.091-.422zM67.013 190.153c.459-2.991 1.312-5.981 3.206-8.597.384-.525.769-1.069 1.162-1.584.891-1.153.956-2.306.375-3.684a51 51 0 0 1-2.034-5.831c-.216-.75-.15-1.669.047-2.447.975-3.947 2.991-7.359 5.587-10.463 1.528-1.838 3.009-3.731 4.519-5.588.15-.188.281-.375.459-.525.891-.778 1.8-1.65 3.112-1.097.863.366 1.2 2.119.609 3.478-.638 1.463-1.463 2.831-2.175 4.256-1.397 2.766-2.897 5.475-4.106 8.325-.619 1.472-.797 3.15-.975 4.762-.122 1.031.516 1.387 1.566 1.022.778-.281 1.603-.516 2.419-.572.928-.075 1.256.525.966 1.387-.15.431-.403.844-.637 1.247-1.8 3.141-3.6 6.272-5.4 9.403-1.725 3.009-2.597 6.197-2.325 9.703.094 1.2-.037 2.447-.281 3.638-.291 1.397-1.341 1.791-2.559 1.078-.403-.234-.862-.516-1.069-.891-1.172-2.175-2.344-4.341-2.466-7.022zM185.616 204.159c.384-.787.956-1.538 1.125-2.372.469-2.25.619-4.575 1.2-6.788 1.303-5.034 2.813-10.022 4.191-15.028.281-1.031.891-1.472 1.866-1.603 1.912-.262 3.225 1.303 2.409 3.094-.544 1.2-.6 2.297-.272 3.525.169.591.019 1.303-.141 1.913-.713 2.625-1.566 5.213-2.222 7.856-.459 1.847-.694 3.75-1.022 5.634-.619 3.6-1.95 6.675-5.766 7.969-1.744.591-2.859 1.8-3.291 3.563-.778 3.094-1.481 6.197-2.213 9.3-.188.778-.291 1.575-.553 2.316-.516 1.509-1.762 1.912-3.141 1.069-1.65-1.022-1.903-2.588-1.613-4.313.647-3.797 1.434-7.566 1.988-11.372.328-2.269.309-4.584.459-6.881.037-.459.094-.938.244-1.378.459-1.331 1.744-2.138 3.066-1.978 1.472.188 1.772 1.313 2.062 2.503.234.966.553 1.894.834 2.85.262.028.516.075.778.103zM105.366 229.022c-.272.506-.459 1.069-.825 1.491-1.434 1.659-2.681 1.847-3.966.684-1.941-1.753-2.175-3.666-.75-5.278 1.209-1.359 2.409-2.738 3.469-4.219 3.853-5.334 5.681-11.287 5.034-17.897-.094-.928.103-1.669.966-2.156 1.341-.75 2.184-.497 2.813.928 1.472 3.347 1.144 6.797.459 10.247-.263 1.331-.609 2.644-.844 3.984-.234 1.397-.525 2.719-1.603 3.806-1.209 1.247-1.013 2.4.384 3.422 1.753 1.284 2.353 2.85 1.8 4.913-1.331 4.987-2.991 9.834-6.891 13.491-.769.713-1.716 1.209-2.578 1.838-.563.403-1.144.797-1.669 1.256-1.219 1.059-2.297.45-3.3-.309-1.069-.787-1.866-1.856-1.444-3.234.169-.544.928-1.106 1.528-1.256 3.056-.769 4.931-2.766 6.188-5.503.619-1.359 1.313-2.7 1.894-4.088.187-.459.094-1.05.141-1.575a23 23 0 0 0-.797-.544zM84.094 163.416c.075-.431.084-1.266.356-1.997 1.556-4.087 1.8-8.419 2.484-12.666a8.4 8.4 0 0 1 1.116-2.963c1.256-2.034 2.597-4.022 4.059-5.916 2.034-2.634 4.659-4.481 8.006-5.1a8.4 8.4 0 0 1 1.678-.141c1.444.047 2.494.769 3.131 2.044.638 1.294.338 2.531-.609 3.506-.872.909-1.866 1.706-2.869 2.484-1.191.928-2.119 1.941-2.166 3.591-.009.563-.403 1.144-.694 1.659-2.269 3.938-4.631 7.828-6.825 11.822-.778 1.416-1.144 3.047-1.716 4.566-.45 1.172-.844 2.391-1.444 3.478s-1.8 1.191-2.747.291c-1.237-1.144-1.763-2.606-1.753-4.641zM229.931 150.881c-.338 1.35-.619 2.775-1.069 4.144-.469 1.463-1.106 2.869-1.631 4.313-.478 1.294-3.347 3.384-4.753 3.375-.309 0-.75-.094-.891-.309-1.284-1.866-3.272-3.084-3.056-6.075.412-5.644-1.397-11.016-3.619-16.181-1.05-2.447-.675-3.703 1.819-4.762 1.294-.544 2.644-.984 4.022-1.247.591-.122 1.425.15 1.903.553 2.916 2.372 5.025 5.288 5.775 9.066.459 2.325.975 4.659 1.509 7.125zM124.922 161.372c-1.097 5.691-.413 11.55-2.513 17.091-1.669 4.406-2.737 9.047-4.153 13.556-.544 1.753-1.191 1.959-2.85 1.294-2.325-.956-3.6-4.584-2.719-6.928a194 194 0 0 0 3.966-11.531c.563-1.809.656-3.759 1.069-5.634a294 294 0 0 1 2.259-9.281c.272-1.022 1.866-1.603 3.394-1.294 1.613.319 1.425 1.631 1.537 2.728z"/><path fill-rule="nonzero" d="M105.178 210.769c-2.531-1.35-3.244-3.759-3.844-6.244-.131-.544-.094-1.144-.281-1.659-.937-2.578-.694-5.119-.047-7.716.356-1.397.328-2.906.703-4.294.506-1.884 1.097-3.778 1.903-5.55.778-1.697 1.866-3.244 2.831-4.856.141-.244.291-.478.478-.694.834-1.003 2.634-1.481 3.572-.966.919.506 1.425 2.325.881 3.563-.525 1.2-1.153 2.362-1.809 3.497-2.597 4.434-3.506 9.394-4.191 14.362-.291 2.119.375 4.359.6 6.563.141 1.35.431 2.728-.816 3.994zM138.066 207.628c.647-3.994 1.125-7.866 1.931-11.662.684-3.197 2.466-5.869 4.959-7.997.553-.469 1.397-.797 2.128-.825 1.716-.056 2.513 1.078 1.894 2.691-.984 2.578-2.128 5.1-3.103 7.688-.328.844-.384 1.8-.544 2.719-.431 2.466-.872 4.95-1.303 7.416-.122.684-.309 1.359-.366 2.063-.084.928.141 1.95-.169 2.784-.291.778-.984 1.669-1.716 1.95-.975.366-1.575-.591-1.894-1.472-.647-1.809-1.237-3.619-1.819-5.362zM232.369 162.769c-.741 2.953-1.284 5.578-2.081 8.128-1.097 3.478-2.372 6.9-3.609 10.35-.909 2.531-3.131 3.553-5.372 4.387-1.519.563-4.069-1.931-3.666-3.516.122-.459.638-.938 1.097-1.162 1.472-.713 2.409-1.753 2.55-3.431.028-.272.15-.544.262-.797 1.2-2.831 2.316-5.719 3.647-8.503a46 46 0 0 1 3.459-6.075c.375-.553 1.556-.881 2.278-.787.591.094 1.05 1.003 1.444 1.425zM141.366 229.397c.338-1.65.647-4.059 1.35-6.338 1.313-4.303 2.859-8.541 4.331-12.797.384-1.116.75-2.231 2.391-2.016 1.95.272 2.447.891 2.316 2.897-.356 5.634-1.519 11.044-4.022 16.144-.384.778-.459 1.716-.675 2.578-.094.366-.122.741-.234 1.097-.478 1.603-1.8 2.559-3.206 2.391-1.444-.188-2.269-1.359-2.25-3.947zM217.069 176.831c-.188 1.481-.638 2.991-.525 4.444.178 2.353-.356 4.472-1.106 6.656-1.247 3.591-2.184 7.266-3.272 10.912-.169.544-.319 1.097-.572 1.575-1.078 2.072-2.466 2.184-3.853.309-1.144-1.556-1.856-3.009-1.313-5.241.769-3.178 1.762-6.197 3.197-9.113 1.416-2.859 2.691-5.775 4.116-8.634.384-.769.966-1.519 1.65-2.025.834-.6 1.838.094 1.697 1.116zM81.506 198.262c-1.078 4.209-2.203 8.888-3.516 13.509-.45 1.584-1.856 2.541-3.366 3.206-1.05.469-1.903.197-2.634-.647-1.556-1.838-1.378-2.484-.375-4.706 1.463-3.234 2.559-6.619 3.741-9.975.863-2.447 1.425-4.941.525-7.547-.197-.572-.047-1.838.178-1.894.769-.188 1.753-.234 2.409.122.769.413 1.575 1.2 1.838 1.997.544 1.744.75 3.572 1.2 5.925zM207.469 221.681c-.834-.469-1.509-.731-2.006-1.172-.919-.834-.787-1.894.366-2.344 2.541-.975 3.647-2.878 4.059-5.447.15-.956.525-1.903 1.003-2.756 1.856-3.366 2.25-7.125 3.056-10.772a15.8 15.8 0 0 1 1.106-3.3c.497-1.097 1.509-1.378 2.625-1.069.891.244 1.866 1.913 1.697 2.775-.787 4.041-1.519 8.1-2.409 12.122-.778 3.516-2.55 6.581-5.025 9.141-1.191 1.238-2.953 1.903-4.453 2.822zM163.791 190.688c-.225 3.244-.169 6.534-.769 9.713-.656 3.525-1.894 6.938-2.953 10.388-.384 1.247-.881 2.484-1.509 3.619-.291.544-1.022 1.191-1.556 1.172-.506-.009-1.209-.703-1.462-1.266-.684-1.584-1.078-3.225-.572-5.034 1.2-4.341 2.297-8.7 3.366-13.069a5.2 5.2 0 0 0 0-2.316c-.422-1.941.234-3.609 1.434-4.941.506-.553 1.809-.656 2.672-.516 1.097.178 1.35 1.2 1.341 2.25zM214.294 157.162c1.612.038 2.766 2.325 1.809 3.731-3.037 4.453-2.541 9.797-3.872 14.672-.431 1.622-.591 3.319-.872 4.987-.197 1.191-.956 1.519-1.941 1.069-.787-.356-1.884-.834-2.091-1.491-.563-1.772-1.219-3.75-.956-5.503.619-4.022 1.819-7.941 2.719-11.925.572-2.578 2.362-4.078 4.425-5.372.272-.169.647-.141.778-.169zM188.297 220.453c-.553 2.916-1.106 5.494-1.528 8.081s-.816 5.184-1.078 7.8c-.328 3.197-4.031 6.834-7.209 6.816-.694 0-1.481-.338-2.063-.75-1.191-.844-1.013-1.978.375-2.353 2.306-.619 3.403-2.213 3.797-4.397 1.022-5.588 1.988-11.175 3.056-16.744.141-.731.694-1.894 1.153-1.941.713-.075 1.725.459 2.25 1.05.656.713.928 1.772 1.247 2.447zM114.384 208.078c.122-.225.356-.713.619-1.191.647-1.097 1.388-2.119 1.941-3.253 1.266-2.606 2.597-5.194 3.591-7.913.722-1.95.909-4.106 1.369-6.159.15-.684.319-1.378.572-2.025.516-1.256 1.8-1.444 2.494-.319.816 1.313 1.463 2.728 2.138 4.116.094.178.084.45.037.656a193 193 0 0 1-1.069 4.772c-.122.506-.234 1.022-.459 1.472-1.425 2.803-2.644 5.737-4.425 8.306-1.153 1.659-3.047 2.85-4.762 4.031-.975.675-2.063-.525-2.044-2.494zM56.25 201.759c.131-4.997 1.566-8.775 3.872-12.225.459-.684 1.106-1.331 1.819-1.706.675-.338 1.528-.291 2.316-.422.131.862.675 1.978.319 2.512-1.941 2.925-1.613 6.3-2.175 9.497-.619 3.525-.966 7.069-.084 10.603.075.272.056.563.047.844-.075 1.706-.881 2.156-2.353 1.294-1.538-.891-2.672-2.175-2.962-3.928-.412-2.4-.6-4.838-.797-6.478zM96.956 166.388c-.197.675-.431 1.566-.741 2.447-.375 1.059-.741 2.128-1.219 3.131-.45.909-.909 1.866-1.603 2.588-2.222 2.297-4.472 4.575-6.872 6.675-1.613 1.416-3.469 2.55-5.241 3.778-.769.525-1.388.272-1.894-.497-1.397-2.138-.984-3.431 1.434-4.538.713-.328 1.472-.703 2.016-1.256 2.297-2.344 4.575-4.716 6.759-7.162 1.678-1.894 2.072-4.378 2.634-6.75.291-1.238.45-2.456 2.156-2.372 1.509.075 1.847 1.256 2.297 2.316.169.422.15.919.281 1.65zM87.225 233.1c.375-3.516 1.2-6.656 3.637-9.141 1.509-1.538 2.944-3.178 4.613-4.519.975-.778 2.325-1.153 3.563-1.509.45-.131 1.303.197 1.528.572.225.384.075 1.2-.216 1.65-.75 1.238-1.678 2.372-2.503 3.572-1.116 1.622-2.259 3.234-3.319 4.894-1.303 2.025-1.809 4.247-1.894 6.666-.047 1.378-.703 2.775-1.256 4.087-.45 1.069-1.284.872-1.847.075-1.397-1.95-2.166-4.153-2.306-6.366zM175.209 216.131c-2.362.656-2.362 2.456-2.541 4.359-.572 6.131-1.294 12.225-2.034 18.328-.197 1.669-1.162 2.016-2.578 1.05-1.444-.975-2.128-2.344-1.959-4.088.506-5.091 1.003-10.181 1.528-15.272.309-2.944 2.653-5.119 5.578-5.147.638-.009 1.266.262 1.903.412.037.122.075.234.103.366zM151.884 224.081c1.566-.038 2.738 1.2 2.55 2.391-.769 4.744-.713 9.666-3.244 14.025-.834 1.444-1.191 3.159-1.903 4.688-.525 1.125-1.256 2.184-1.997 3.197-.544.731-1.313 1.125-2.203.459-.872-.675-1.444-1.425-.909-2.644.956-2.138 1.997-4.256 2.681-6.488.956-3.178 1.603-6.441 2.4-9.656.366-1.463.684-2.944 1.247-4.313.291-.75 1.05-1.284 1.378-1.659M139.725 222.497c-.262.713-.45 1.434-.769 2.091-1.172 2.4-2.4 4.791-3.619 7.162-1.284 2.484-1.866 5.081-1.603 7.894.131 1.35.075 2.728.019 4.078-.047 1.509-1.416 2.4-2.597 1.519-.938-.703-1.838-1.838-2.138-2.944-.834-2.944-.469-5.887.956-8.616 1.659-3.159 3.394-6.281 5.147-9.384.956-1.669 2.316-2.184 4.594-1.8zM200.531 219.947c-4.444-1.209-6.122-4.116-4.987-8.475.787-2.991 1.462-6.009 2.297-8.981.356-1.256.928-2.447 1.491-3.638.525-1.106 1.762-1.566 2.822-1.106 1.191.516 1.078 1.463.816 2.494-.75 2.813-1.416 5.644-2.184 8.447-.816 2.944-.862 5.831.169 8.709.328.919.478 1.819-.413 2.55zM173.569 195.422c.056-3.984.713-7.819 2.456-11.456.825-1.706 2.316-2.063 3.975-1.631 1.425.366 2.081 1.631 1.238 2.822-2.222 3.113-1.903 6.787-2.597 10.228-.366 1.838-.684 3.694-1.256 5.456-.478 1.481-1.256 1.556-2.372.422-1.425-1.444-1.416-3.291-1.434-5.137v-.703z"/></svg>