<!-- Generated by IcoMoon.io -->
<svg version="1.1" xmlns="http://www.w3.org/2000/svg" width="300" height="300" viewBox="0 0 300 300">
<title>fighters-bulwark</title>
<path d="M142.847 0c2.887 0 5.775 0 8.672 0 1.538 0.103 3.066 0.263 4.603 0.3 4.941 0.131 9.881 0.112 14.588 2.063 1.172 0.488 2.738 0.684 3.938 0.347 2.156-0.609 4.059 0 6.037 0.506 1.444 0.366 2.906 0.712 4.331 1.134 5.897 1.772 12.122 2.475 17.559 5.7 0.384 0.234 0.862 0.309 1.303 0.469 2.709 0.938 5.447 1.791 8.1 2.85 1.519 0.609 2.906 1.537 4.35 2.325 1.031 0.553 2.025 1.228 3.113 1.65 3.338 1.294 6.45 2.944 9.262 5.184 1.678 1.341 3.403 2.709 5.325 3.666 3.638 1.819 6.759 3.956 8.419 7.931 0.797 1.894 1.688 3.3 0.075 5.306-1.584 1.978-0.938 3.328 1.5 4.247 0.281 0.103 0.684 0.178 0.816 0.403 0.319 0.525 0.619 1.125 0.684 1.716 0.009 0.15-0.881 0.581-1.35 0.572-0.816-0.009-1.622-0.262-2.438-0.403-2.269-0.403-4.519-0.337-6.253 1.35-2.813 2.709-5.588 5.466-8.203 8.363-1.997 2.222-3.159 4.941-3.647 7.903-0.309 1.884-0.553 3.769-0.825 5.662-1.397 9.919 3.272 16.631 12.159 21.994 0.938 0.572 2.128 0.825 3.234 0.966 2.7 0.375 5.419 0.712 8.128 0.853 6.825 0.366 12.928-1.434 17.494-6.797 2.222-2.597 4.313-5.353 6.075-8.269 1.378-2.269 2.128-4.903 3.253-7.331 0.441-0.956 1.106-1.791 1.884-3.009 0.797 1.088 1.341 1.688 1.725 2.391 2.859 5.184 5.728 10.369 8.484 15.619 0.712 1.341 1.059 2.878 1.556 4.322 0.441 1.247 0.759 2.541 1.313 3.741 0.816 1.763 2.025 3.384 2.634 5.194 1.163 3.459 1.884 7.069 3.019 10.537 3.159 9.609 4.903 19.481 5.672 29.522 0.797 10.425 0.469 20.822-0.938 31.191-0.422 3.15-0.628 6.375-2.531 9.15-0.319 0.478-0.366 1.303-0.244 1.922 0.553 3.225-1.416 5.841-1.978 8.794-0.028 0.131-0.206 0.216-0.319 0.319-2.606 2.325-3.169 5.512-3.159 8.691 0.009 3.544-0.9 6.628-2.784 9.6-1.509 2.372-3.169 4.828-3.881 7.481-0.881 3.328-2.447 6.178-4.088 9.084-1.294 2.287-2.606 4.566-3.919 6.834-0.234 0.412-0.544 0.787-0.816 1.172-0.169-0.009-0.319-0.028-0.487-0.056-0.272-1.275-0.581-2.541-0.788-3.816-0.234-1.416-0.216-2.888-0.553-4.284-2.119-8.653-7.931-13.997-15.891-17.222-1.753-0.713-3.844-1.041-5.719-0.881-2.597 0.234-5.156 1.003-7.678 1.725-7.678 2.203-13.828 6.319-17.044 13.997-0.319 0.759-0.722 1.481-1.031 2.241-4.331 10.266-1.275 22.228 7.753 28.762 3.9 2.822 8.306 4.931 12.516 7.303 0.956 0.544 2.025 0.862 2.916 1.238-2.541 2.231-4.987 4.491-7.537 6.628-6.731 5.662-14.353 9.994-22.144 13.959-7.744 3.919-15.431 8.166-24.356 8.963-0.572 0.056-1.294 0.375-1.584 0.825-0.862 1.294-2.119 1.753-3.497 2.053-5.278 1.162-10.547 2.4-15.853 3.431-5.344 1.031-10.903 0.206-16.172 1.819-0.281 0.094-0.619 0.056-0.928 0.038-6.9-0.206-13.819-0.272-20.7-0.684-3.797-0.216-7.622-0.712-11.297-1.65-3.066-0.787-5.897-2.475-9.234-1.716-0.234 0.056-0.506-0.066-0.75-0.141-5.288-1.706-10.612-3.262-15.844-5.137-11.194-4.003-21.966-8.897-31.781-15.703-2.025-1.397-4.022-2.822-6.169-4.331 0.412-0.3 0.591-0.469 0.797-0.581 6.337-3.441 10.659-8.878 14.353-14.822 2.841-4.556 3.881-9.6 3.028-14.991-1.341-8.55-6.009-15-12.722-20.109-1.069-0.816-2.644-1.031-4.012-1.378-0.825-0.206-1.744-0.094-2.597-0.234-2.737-0.422-5.428-0.713-8.006 0.684-0.262 0.141-0.591 0.197-0.9 0.206-5.531 0.216-9.328 3.422-12.684 7.378-0.966 1.134-1.828 2.372-2.888 3.431-2.503 2.531-3.094 5.522-2.259 8.831 0.347 1.397 0.028 2.297-1.294 2.963-0.3-0.338-0.647-0.647-0.9-1.022-2.925-4.247-6.113-8.334-8.681-12.788-3.441-5.962-6.553-12.141-9.516-18.356-1.809-3.778-3.919-7.537-3.75-11.972 0.009-0.478-0.319-0.966-0.525-1.434-1.922-4.228-3.647-8.512-4.331-13.153-0.525-3.506-1.247-7.003-1.913-10.491-2.878-15.431-2.841-30.872 0.103-46.284 0.816-4.228 2.081-8.381 3.159-12.563 1.209-4.669 2.438-9.356 3.713-14.006 0.516-1.875 1.603-3.328 3.497-4.059 0.347-0.131 0.731-0.469 0.853-0.797 0.75-2.128 1.444-4.284 2.119-6.45 0.647-2.1 1.097-4.256 1.856-6.309 0.694-1.875 1.978-3.563 2.447-5.466 0.572-2.269 1.538-4.228 2.822-6.112 1.509-2.184 3.159-2.137 4.397 0.206 1.65 3.15 3.272 6.309 4.875 9.478 0.825 1.641 1.725 3.319 3.563 3.881 3.047 0.938 6.112 1.978 9.253 2.325 2.372 0.263 4.847-0.544 7.275-0.816 5.072-0.553 9.291-2.784 12.487-6.684 2.081-2.541 3.947-5.288 5.625-8.109 5.484-9.309 3.984-18.197-2.128-26.559-1.913-2.606-4.266-4.884-6.516-7.247-0.572-0.591-1.406-1.003-2.194-1.275-1.575-0.544-3.188-0.919-5.138-1.453 2.606-1.997 4.884-3.741 7.172-5.484 6.459-4.903 13.134-9.459 20.888-12.178 1.744-0.609 3.441-1.406 5.044-2.306 5.344-3.019 10.903-5.531 16.772-7.341 11.316-3.497 22.819-5.934 34.697-6.338 1.406-0.056 2.747-0.544 4.087-0.825zM151.688 287.316c1.931-2.822 3.769-5.316 5.419-7.931 1.894-2.991 3.609-6.103 5.447-9.131 1.341-2.203 2.859-4.294 4.106-6.553 3.459-6.272 6.703-12.666 10.266-18.872 1.856-3.253 4.228-6.206 6.347-9.3 0.347-0.506 0.581-1.069 0.881-1.603 1.744-3.131 3.506-6.253 5.222-9.403 0.272-0.506 0.619-1.209 0.45-1.641s-0.891-0.797-1.434-0.938c-0.516-0.131-1.106 0.094-1.678 0.103-2.138 0.038-4.294 0.066-6.441 0.066-0.928 0-1.856-0.178-2.756-0.094-2.297 0.206-2.531-0.094-2.438-2.362 0.113-3.131 0.094-6.272 0.028-9.403-0.066-3.459-0.262-6.9-0.319-10.359-0.056-2.887 0.094-5.766-0.009-8.653-0.103-2.616-0.609-5.241-0.591-7.856 0.028-3.741 0.309-7.481 0.609-11.213 0.037-0.516 0.759-1.294 1.294-1.406 1.547-0.347 3.15-0.572 4.734-0.609 5.934-0.131 11.869-0.037 17.784-0.281 5.456-0.234 10.903-0.9 16.359-1.172 4.012-0.197 8.053-0.009 12.066-0.056 5.213-0.056 10.406-0.131 15.619-0.244 1.509-0.028 2.409 0.516 2.409 2.1 0 3.188-0.066 6.384-0.056 9.572 0 0.759 0.094 1.556 0.366 2.259 0.347 0.891 0.862 1.134 1.706 0.244 1.331-1.416 2.719-2.803 4.256-3.984 11.006-8.513 22.059-16.959 33.056-25.472 1.35-1.059 2.512-2.363 3.797-3.563-0.675-0.834-1.172-1.5-1.706-2.119-12.15-14.231-26.287-26.353-40.519-38.372-0.506-0.422-1.172-0.628-1.997-1.069-0.066 0.966-0.141 1.575-0.141 2.184 0 3.666 0.038 7.331 0.028 10.987 0 2.494-0.384 2.813-2.916 2.775-2.681-0.047-5.363-0.159-8.034-0.094-7.172 0.178-14.334 0.516-21.487 0.675-11.184 0.234-22.378 0.384-33.562 0.553-1.997 0.028-2.597-0.478-2.428-2.447 0.45-5.737-0.366-11.391-0.853-17.081-0.506-5.859-0.722-11.728-0.169-17.606 0.656-6.872 1.247-13.781 0.094-20.681-0.234-1.406 0.478-1.809 1.753-1.791 3.713 0.009 7.434 0.037 11.128-0.094 2.128-0.075 2.475-0.759 1.369-2.644-3.216-5.513-5.897-11.288-9.947-16.331-3.872-4.809-7.097-10.125-10.716-15.159-3.909-5.428-7.847-10.866-11.963-16.153-1.959-2.513-4.387-4.669-6.647-7.031-1.509 2.363-2.775 4.359-4.050 6.356-7.8 12.188-15.609 24.375-23.428 36.572-0.244 0.384-0.478 0.797-0.787 1.144-3.534 3.816-6.188 8.241-8.522 12.844-0.478 0.938-0.994 2.681-0.591 3.056 0.778 0.694 2.203 0.675 3.366 0.956 0.047 0.009 0.103-0.009 0.159-0.009 3.544-0.094 7.106-0.178 10.659-0.272 0.984-0.028 1.434 0.516 1.35 1.453-0.103 1.397-0.103 2.813-0.441 4.153-1.744 7.181-1.669 14.522-2.119 21.825-0.112 1.894 0.272 3.872-0.094 5.7-0.656 3.263-0.825 6.525-0.731 9.825 0.047 2.016 0.131 4.041-0.009 6.038-0.047 0.628-0.787 1.706-1.266 1.725-4.256 0.263-8.522 0.422-12.797 0.413-3.169-0.009-6.356-0.422-9.534-0.506-3.703-0.094-7.416-0.037-11.128-0.009-2.775 0.028-5.559 0.169-8.334 0.169-3.028 0-6.047-0.094-9.084-0.141-0.263 0-0.591-0.159-0.75-0.037-1.575 1.144-3.263 0.422-4.931 0.412-1.603-0.009-2.137-0.816-2.128-2.194 0.009-2.269 0.112-4.528 0.131-6.797 0-0.9-0.15-1.791-0.244-2.7-0.169-0.028-0.347-0.047-0.516-0.075-0.553 0.516-1.125 1.022-1.641 1.575-2.719 2.925-5.316 5.981-8.156 8.775-4.969 4.866-9.619 10.087-15.506 13.941-0.469 0.309-0.881 0.722-1.275 1.106-4.012 3.938-7.969 7.922-12.047 11.794-1.369 1.303-3.047 2.269-4.519 3.469-1.022 0.825-1.931 1.772-3.131 2.859 2.053 1.134 3.778 2.053 5.466 3.019 1.2 0.684 2.391 1.416 3.534 2.184 2.128 1.416 4.219 2.916 6.356 4.313 2.756 1.791 5.925 3.122 8.297 5.316 6.338 5.822 13.378 10.884 18.666 17.803 0.712 0.928 1.509 0.787 2.025-0.3 0.197-0.412 0.272-0.881 0.347-1.341 0.544-3.234 1.087-6.488 1.669-10.050 3.9-0.159 7.744-0.403 11.597-0.441 3.506-0.037 7.012 0.272 10.509 0.197 10.116-0.206 20.213-0.525 30.328-0.825 2.184-0.066 2.428 0.141 2.372 2.325-0.094 3.15-0.197 6.291-0.347 9.431-0.309 6.028-0.609 12.047-1.003 18.056-0.131 1.931-0.609 3.853-0.797 5.794-0.169 1.556-0.272 3.15-0.206 4.725 0.066 1.725 0.478 3.441 0.525 5.175 0.047 2.222-0.197 4.434-0.159 6.647 0.028 1.509-0.544 2.128-2.034 2.231-2.306 0.159-4.631 0.403-6.919 0.759-1.875 0.3-2.409 1.472-1.5 3.131 0.516 0.928 1.266 1.744 1.95 2.578 2.203 2.709 4.416 5.419 6.628 8.128 0.487 0.591 0.937 1.247 1.509 1.753 3.909 3.497 6.975 7.688 10.219 11.794 6.544 8.297 13.387 16.341 19.237 25.181 1.791 2.747 3.881 5.316 6.047 8.241zM23.438 75.928c-0.169 0.319-0.75 1.022-0.591 1.266 0.506 0.825 1.275 1.481 1.931 2.203 0.319-0.384 0.891-0.759 0.928-1.191 0.103-0.994-1.134-2.344-2.269-2.287zM82.106 252.384c-0.244-0.319-0.487-0.75-0.834-1.041-0.131-0.103-0.75 0.103-0.778 0.234-0.234 1.106-0.422 2.231-0.516 3.366-0.009 0.197 0.478 0.609 0.731 0.619 0.272 0 0.684-0.319 0.787-0.591 0.244-0.778 0.375-1.584 0.609-2.578zM27.731 228.262c0.009-0.216 0.028-0.441 0.037-0.656-0.712-0.103-1.416-0.216-2.128-0.319-0.038 0.591-0.338 1.509-0.075 1.725 1.031 0.862 1.519-0.272 2.166-0.75z"></path>
<path d="M134.278 150.159c0.544-4.566 1.641-8.166 4.631-10.875 1.875-1.688 3.834-3.3 5.841-4.8 0.619-0.469 1.584-0.488 2.409-0.619 0.9-0.141 1.828-0.094 2.719-0.244 2.634-0.441 5.119-0.113 7.481 1.172 0.272 0.141 0.525 0.375 0.825 0.412 3.366 0.478 5.1 2.616 5.897 5.728 0.056 0.197 0.094 0.413 0.197 0.581 2.325 3.853 1.303 7.725 0.038 11.597-1.228 3.778-3.488 6.731-6.956 8.719-1.519 0.881-2.991 1.819-4.491 2.719-0.347 0.206-0.713 0.422-1.097 0.572-2.156 0.834-9.019-1.031-10.369-2.887-1.912-2.616-3.853-5.222-5.559-7.969-0.853-1.378-1.2-3.084-1.575-4.106zM152.962 136.050c0-0.244-0.009-0.478-0.009-0.722-0.487-0.347-0.956-0.928-1.472-0.994-0.919-0.112-1.716 0.422-1.537 1.434 0.103 0.544 0.816 1.378 1.209 1.35 0.619-0.028 1.209-0.675 1.809-1.069z"></path>
<path d="M150.094 207c3.253 0.684 6.337 1.247 9.366 2.034 0.656 0.169 1.303 1.022 1.622 1.706 0.853 1.809 1.622 3.675 2.231 5.588 0.216 0.694-0.281 1.612-0.159 2.372 1.294 7.341-1.819 13.172-6.394 18.431-0.919 1.059-2.231 1.791-3.403 2.597-0.403 0.272-0.966 0.469-1.453 0.45-5.044-0.159-9.572-1.294-12.225-6.244-0.628-1.191-1.744-2.138-2.719-3.131-3.778-3.844-3.956-6.628-1.894-11.559 1.912-4.537 5.344-7.547 9.047-10.266 1.641-1.228 4.050-1.378 6-1.978z"></path>
<path d="M250.219 133.491c4.003 2.203 6.853 5.25 7.988 9.609 0.731 2.813-1.641 7.8-4.181 9.412-0.731 0.469-1.519 0.891-2.184 1.453-0.984 0.825-0.862 1.5 0.272 2.128 1.519 0.834 1.641 1.228 0.816 2.756-1.744 3.272-3.881 4.416-7.575 4.013-0.713-0.075-1.416-0.216-2.128-0.366-4.369-0.956-12.291-7.481-14.091-11.597-1.434-3.291-1.125-6.488 0.722-9.459 1.331-2.128 2.962-4.078 4.491-6.084 0.581-0.778 1.275-0.787 2.194-0.487 0.834 0.272 1.809 0.384 2.681 0.272 2.034-0.263 4.050-0.722 6.084-1.031 0.628-0.094 1.509-0.197 1.922 0.141 1.331 1.088 2.194 0.609 2.981-0.778zM248.4 136.528c0.928 0.694 1.238 2.203 2.616 1.453 0.3-0.159 0.338-1.481 0.009-1.912-0.853-1.172-1.659-0.244-2.634 0.45z"></path>
<path d="M136.463 66.506c0.178-1.003 0.375-2.016 0.553-3.028 0.319-1.716 0.825-3.431 0.919-5.156 0.234-4.884 6.084-9.816 11.231-8.438 1.266 0.337 2.822-0.234 4.209-0.525 2.184-0.478 2.512-0.216 3.797 1.603 1.453 2.091 3.056 4.125 4.837 5.944 2.025 2.063 2.513 3.947 1.641 6.628-0.891 2.737-1.547 5.55-2.194 8.344-0.441 1.866-0.609 3.769-3.066 4.191-0.759 0.131-1.406 0.834-2.128 1.2-2.803 1.397-5.653 1.669-8.813 1.144-4.003-0.647-11.287-6.853-10.978-11.906zM147.919 55.763c0.553-0.834 1.162-1.378 1.172-1.922 0.009-0.487-0.628-0.994-0.984-1.5-0.478 0.619-1.069 1.2-1.369 1.912-0.094 0.216 0.581 0.759 1.172 1.509z"></path>
<path d="M84.722 144.909c-0.131 0.591-0.234 1.209-0.403 1.791-0.816 2.813-1.678 5.625-2.447 8.447-0.825 2.963-2.616 5.137-5.381 6.394-1.875 0.853-3.816 1.556-5.775 2.128-1.706 0.488-3.534 0.272-4.809-0.984-2.888-2.841-5.944-5.616-8.278-8.888-3.731-5.203-2.231-10.406 3.337-13.65 0.272-0.159 0.619-0.263 0.778-0.506 1.566-2.494 4.153-3.197 6.722-4.022 1.022-0.319 1.978-0.853 2.925-1.35 1.566-0.797 2.756-0.272 3.769 0.956 1.106 1.35 2.194 2.719 3.234 4.125 0.722 0.966 1.481 1.378 2.775 1.069 0.609-0.141 1.669 0.169 2.016 0.647 0.778 1.088 1.228 2.4 1.791 3.628-0.094 0.094-0.169 0.141-0.244 0.206zM76.65 152.7c0.403-0.412 0.731-0.778 1.144-1.228-0.413-0.469-0.759-0.863-1.097-1.247-1.331 0.919-1.266 1.641-0.047 2.475z"></path>
</svg>
