<svg xmlns="http://www.w3.org/2000/svg" xml:space="preserve" fill-rule="evenodd" stroke-linejoin="round" stroke-miterlimit="2" clip-rule="evenodd" viewBox="0 0 300 300"><path fill-rule="nonzero" d="M204.956 0c1.5.178 3.028.309 4.519.581.759.131 1.472.516 2.166.994-2.719 2.531-5.625 3.9-9.291 3.609-1.688-.131-3.478.094-5.109.525-3.581.947-7.097 2.156-10.641 3.244-.459.141-.938.384-1.387.328-3.309-.384-6.338.647-9.234 1.912-4.35 1.884-8.944 2.916-13.481 4.237-4.509 1.313-8.85 3.197-13.247 4.856-2.053.769-4.144 1.528-6.159 2.409-.797.347-1.491.975-2.175 1.538-1.097.919-2.053 2.072-3.262 2.803-6.253 3.806-12.563 7.5-18.844 11.259-.984.591-2.034 1.219-2.728 2.091-1.509 1.856-3.487 2.813-5.653 3.563-1.05.356-2.053.806-3.113 1.181-1.162.422-1.856 1.2-2.381 2.334-.441.975-1.181 1.856-1.922 2.663-.544.591-1.228 1.097-1.941 1.491-6.469 3.581-10.725 9.413-15.272 14.944-.666.816-.863 1.987-1.35 2.972-.609 1.266-1.097 2.681-1.987 3.722-1.556 1.809-1.688 3.722-1.031 5.803.422 1.331 1.669 1.725 3.094.975 2.306-1.219 4.519-2.559 6.844-3.741 4.031-2.053 8.119-3.994 12.141-6.038 6.45-3.263 13.462-4.106 20.513-4.912 6.122-.694 12.244-1.575 18.375-2.166 9.656-.928 19.322-1.434 28.997-.131 8.644 1.163 17.362 1.922 25.903 3.619 10.369 2.072 20.522 5.147 30.591 8.466 9.788 3.234 18.075 8.662 25.425 15.741 4.162 4.003 8.522 7.809 12.769 11.728.497.459.816 1.087 1.219 1.641-.094.159-.197.309-.272.478-.563-.141-1.219-.159-1.706-.441-4.716-2.794-9.441-5.578-14.091-8.466a153 153 0 0 1-9.113-6.084c-3.375-2.428-6.816-4.688-10.922-5.747-.328-.084-.638-.225-.938-.366-2.334-1.031-4.688-1.725-7.294-1.987-2.841-.291-5.756-1.031-8.316-2.25-2.353-1.116-4.65-1.537-7.181-1.866-2.944-.384-5.756-1.556-8.691-2.072-6.159-1.097-12.375-1.875-18.516-3.019-5.194-.966-10.388-1.519-15.656-1.322-1.444.047-2.887.197-4.331.262-4.031.197-8.081.225-12.075.609-2.925.272-5.756 1.313-8.672 1.481-7.322.394-14.053 3.131-21.075 4.716-1.359.309-2.737.6-4.05 1.059-2.175.731-4.294 1.584-6.431 2.409-1.163.441-2.353.853-3.487 1.359-1.828.806-3.731 1.528-5.419 2.55-2.231 1.35-4.303 2.859-7.059 3.094-1.434.122-5.072 4.884-4.941 6.338.047.469.591 1.031 1.05 1.266s1.134.159 1.706.169c6.028.131 12.056.206 18.075.422 2.297.084 4.566.553 6.862.806 1.05.122 2.119.206 3.159.169 2.766-.094 5.456.253 8.091 1.191 1.584.563 3.244.881 4.866 1.322 9.591 2.681 19.153 5.494 28.088 9.984 3.188 1.603 6.403 3.15 9.45 4.978 3.459 2.081 6.778 4.406 10.078 6.722 2.006 1.406 3.834 3.084 5.822 4.509 8.175 5.85 14.719 13.247 20.512 21.366.309.441.431 1.031.647 1.566-.141.122-.291.244-.431.366-.516-.338-1.088-.628-1.566-1.022-6.637-5.362-13.228-10.772-19.875-16.106-4.772-3.834-10.284-6.366-15.872-8.794-3.272-1.416-6.413-3.103-9.666-4.509-2.166-.928-4.416-1.65-6.656-2.362-4.772-1.491-9.581-2.897-14.353-4.378-5.269-1.641-10.519-3.328-15.797-4.997-.412-.131-.862-.281-1.266-.206-3.103.563-6-.581-8.991-.881-2.175-.225-4.416-.159-6.628-.047-3.178.159-6.309.441-9.478.722-.9.075-1.8.244-2.7.431a236 236 0 0 0-6.169 1.416c-.684.169-1.472.366-1.95.816-.412.394-.441 1.181-.647 1.791.553.169 1.134.525 1.659.478 2.447-.263 4.856-.759 7.313-.947 8.484-.675 16.912-.722 25.2 1.772 4.303 1.284 8.588 2.587 12.478 4.875 3.441 2.025 7.406 2.372 11.053 3.684 8.822 3.15 17.944 5.512 26.4 9.684 1.884.937 3.909 1.641 5.841 2.475 4.162 1.809 7.65 4.462 10.088 8.325.431.684.816 1.416 1.097 2.175.6 1.688.047 2.794-1.65 3.384-.675.225-1.434.263-2.091.553-.638.281-1.359.647-1.706 1.191-.553.844-.675 1.959-1.988 2.203-.178.037-.347 1.031-.244 1.519.759 3.619.169 4.875-3.309 6.422-1.191.525-1.753 1.359-1.847 2.662-.328 4.959-3.178 8.616-7.997 9.984-3.666 1.031-5.372 3.722-6.375 7.012-.6 1.997.047 3.891 1.65 5.213 1.922 1.584 3.994 3.009 6 4.491.497.356 1.022.675 1.791 1.191-.778.609-1.331 1.331-2.034 1.556a476 476 0 0 1-12.459 3.666c-.769.216-1.622.206-2.438.225-3.366.113-6.731.328-10.078.244-2.775-.075-5.531-.591-8.316-.778-2.588-.169-5.222-.459-7.762-.169-3.713.422-6.3-1.219-8.606-3.731-.516-.562-.947-1.219-1.35-1.866-.938-1.528-.806-2.194.609-3.309 1.097-.862 2.231-1.688 3.337-2.541 1.416-1.088 2.513-2.362 3.478-3.947 1.313-2.156 2.934-4.219 5.747-4.884 1.134-.262 2.212-1.162 3.122-1.969 2.644-2.325 5.194-4.744 7.781-7.125.422-.394.853-.769 1.237-1.2 2.128-2.391 1.856-4.753-.919-6.337-4.341-2.494-8.55-5.391-13.181-7.144-4.528-1.734-8.625-3.891-12.384-6.853-1.013-.797-2.456-1.031-3.675-1.584-1.603-.722-3.309-1.331-4.763-2.287-6.084-3.984-11.953-8.269-19.266-9.9-1.331-.3-2.672-1.406-3.581-2.503-3.478-4.163-8.719-5.944-13.847-4.05-3.281 1.2-6.347 3-9.525 4.472-.975.459-2.119.591-3.075 1.087-.797.413-1.584 1.013-2.1 1.734-.75 1.022-1.603 1.2-2.372.141-.891-1.247-.919-2.606-.141-3.938 1.416-2.456 2.897-4.884 4.313-7.331.291-.497.609-1.003.759-1.537.309-1.191-.384-2.278-1.584-2.381-1.134-.094-1.594-.713-1.819-1.706-.816-3.534-.637-7.003.928-10.284 4.594-9.675 8.625-19.65 14.916-28.444 1.753-2.466 3.488-4.959 5.306-7.378 2.213-2.944 4.369-5.962 6.806-8.709 6.797-7.631 14.644-14.063 22.969-19.95.806-.581 1.444-1.387 2.175-2.053.919-.844 1.772-1.8 2.822-2.456a2154 2154 0 0 1 21.412-12.862c2.194-1.303 4.519-2.381 6.684-3.722a45 45 0 0 0 5.138-3.656c1.856-1.537 3.956-2.409 6.309-2.625 4.219-.384 8.166-1.744 12.159-3.028 3.506-1.134 7.144-1.884 10.716-2.85 1.884-.516 3.816-1.012 5.644-1.706 3.188-1.2 6.412-2.006 9.834-2.128 1.566-.047 3.122-.497 4.688-.722 2.7-.384 5.409-.75 8.128-1.116.891-.122 1.791-.225 2.681-.337 1.228-.038 2.484-.038 3.741-.038z"/><path fill-rule="nonzero" d="M27.863 236.766c.891-.797 1.791-1.603 2.691-2.381 3.197-2.766 6.347-5.475 8.813-9.047 3.394-4.894 7.322-9.422 11.053-14.063 1.528-1.903 3.169-3.731 4.716-5.616 2.409-2.934 4.894-5.822 7.163-8.869 3.75-5.044 7.819-9.797 12.403-14.053 5.147-4.772 9.159-10.369 12.563-16.444.797-1.416 1.669-2.831 2.756-4.041.553-.638 1.584-.938 2.466-1.191 1.556-.441 3.15-.731 4.753-1.088.553-.122 1.106-.347 1.659-.338a100 100 0 0 1 6.066.338c.591.047 1.275.253 1.716.628 2.081 1.828 3.759 3.9 4.584 6.666 1.556 5.241.731 10.219-1.603 14.953-.713 1.434-2.109 2.597-3.375 3.684-3.028 2.597-6.225 5.006-9.244 7.631-1.8 1.575-3.394 3.403-5.063 5.128-.469.478-.9 1.003-1.416 1.434-11.325 9.394-23.466 17.672-35.531 26.034-2.7 1.875-5.25 3.825-7.65 6.028-.881.806-1.725.966-2.897.591-.712-.244-1.725-.178-2.4.159-3.441 1.734-6.806 3.619-10.2 5.409-2.222 1.181-2.344 1.134-4.003-.675v-.862zM234.675 70.331c-.853-.328-1.603-.609-2.372-.919-.159.3-.272.459-.328.638-.553 2.034-.544 2.006-2.438 1.153-10.238-4.594-21.038-7.359-31.969-9.694-3.394-.722-6.75-1.603-10.163-2.137-6.075-.966-12.188-1.734-18.291-2.522-1.856-.244-3.75-.506-5.606-.412-6.778.309-13.537.797-20.316 1.162-2.25.122-4.528.347-6.759.112-3.094-.337-6.009.328-9.009.862-4.866.881-9.778 1.659-14.691 2.241-4.078.478-7.847 1.875-11.691 3.113-1.275.412-2.569.862-3.881 1.106-.609.112-1.603-.028-1.922-.431s-.253-1.491.094-1.941c1.275-1.669 2.513-3.497 4.172-4.725 6.806-5.025 13.481-10.359 20.756-14.653 9.966-5.869 19.828-12.066 30.638-16.406 4.313-1.734 8.766-3.15 13.144-4.762 6.994-2.587 14.053-4.978 21.338-6.656 3.375-.769 6.731-1.612 10.097-2.391.206-.047.459.047.975.122-.637 1.275-1.144 2.456-1.8 3.525-3.319 5.297-3.647 10.828-.469 16.097 2.672 4.444 5.287 9.122 10.153 11.766 6.675 6.469 15.009 10.547 22.772 15.422 3.094 1.941 5.569 4.388 7.866 7.134 1.012 1.162.891 1.903-.3 3.197zM105.844 90.938c1.613-2.775 3.788-4.172 6.684-4.716 2.681-.506 5.362-1.191 7.903-2.175 5.269-2.072 10.772-2.897 16.341-3.45 5.653-.553 11.325-.947 16.997-1.444 3.787-.328 7.547-.947 11.334-1.003 4.95-.056 9.947.009 14.859.553 9.141 1.013 18.338 1.941 27.328 3.75 9.731 1.959 19.547 4.088 28.463 8.766 3.291 1.734 6.253 4.116 9.234 6.366 1.641 1.237 1.987 3.009 1.331 4.5-.553 1.284-1.406 1.734-2.766 1.313a7.3 7.3 0 0 0-4.809.094c-.356.131-.75.309-1.106.281-3.534-.3-6.3 2.109-9.609 2.597-3.281.497-6.572.984-9.834 1.566-1.659.3-3.272.806-4.894 1.228-.272.075-.628.122-.806.3-1.856 1.913-4.509 2.306-6.694 3.563-2.503 1.434-4.781 3.197-7.116 4.913-.591.431-1.003 1.163-1.406 1.809-1.069 1.641-2.072 3.319-3.197 4.912-.169.244-.966.309-1.275.131-.516-.3-.919-.844-1.303-1.331-3.478-4.5-7.819-8.109-12.206-11.634-1.734-1.397-3.844-2.325-5.747-3.525-5.4-3.403-11.316-5.728-17.137-8.269-.609-.263-1.238-.553-1.791-.928-5.747-3.806-12.356-4.763-18.966-5.231-6.478-.459-12.759-1.922-19.097-3.056-1.491-.263-2.859-.459-4.472-.028-1.959.544-4.125.159-6.206.159zM121.191 202.312c1.603-.497 2.775-.862 3.975-1.219a2.8 2.8 0 0 1 1.003-.113c2.616.253 5.231.516 7.838.806.563.056 1.162.159 1.697.384 3.947 1.744 7.931 1.219 11.888.141 2.972-.806 5.869-1.856 8.813-2.794 2.597-.834 3.9-.028 4.041 2.719.075 1.275-.131 2.578-.281 3.853-.478 4.294-1.097 8.578-1.444 12.881-.3 3.638-.094 7.331-.497 10.95-.422 3.909-1.275 7.772-1.959 11.644-.075.422-.216.853-.206 1.275.244 6.891-2.081 13.294-3.675 19.866-.928 3.787-1.003 7.781-1.453 11.691-.206 1.819-.469 3.619-.6 5.438-.253 3.441-.309 6.909-.684 10.35-.3 2.691-.863 5.381-1.491 8.025-.216.919-.75 1.969-2.119 1.716-2.372-.431-3.731-1.472-3.872-2.897-.384-3.722-.759-7.425-1.144-11.137a10 10 0 0 0-.094-.563c-.947-4.5-2.241-8.963-2.813-13.509-.919-7.35-3.497-14.269-4.95-21.459-.684-3.384-1.416-6.722-2.475-10.05-1.134-3.581-2.194-7.434-2.044-11.119.169-4.078-.197-7.884-1.5-11.672-.431-1.238-.478-2.606-1.622-3.581-.384-.328-.563-1.013-.647-1.566-.581-3.516-.581-7.219-3.666-10.069zM193.153 163.125c1.959.553 4.331.919 6.412 1.884 4.097 1.884 7.706 4.5 10.509 8.156 1.031 1.359 2.541 2.362 3.778 3.562 2.128 2.081 4.2 4.238 6.375 6.272 1.566 1.472 3.234 2.85 4.941 4.162 2.034 1.537 4.209 2.878 6.206 4.462 3.619 2.878 7.2 5.803 10.669 8.859 2.372 2.091 4.472 4.491 6.778 6.666 4.387 4.162 8.006 8.972 11.587 13.8 1.884 2.541 3.534 5.269 5.278 7.912.506.759.731 1.688-.075 2.166-.441.262-1.359-.094-2.006-.328-.844-.3-1.613-.834-2.475-1.134-1.819-.628-3.731-1.022-5.475-1.791-1.603-.713-3.056-1.781-4.537-2.728-.478-.309-.844-.806-1.331-1.097-5.916-3.581-11.822-7.219-17.794-10.706-3.366-1.959-6.872-3.684-10.284-5.55-9.366-5.138-18.722-10.284-28.088-15.431-1.838-1.012-3.75-1.828-5.662-2.681-3.45-1.519-6.75-3.619-7.988-7.613a138 138 0 0 1-1.753-6.234c-.113-.431-.038-.947.075-1.397 1.434-5.737 6.3-9.975 12.516-10.884.675-.122 1.35-.197 2.372-.328z"/></svg>