<svg xmlns="http://www.w3.org/2000/svg" viewBox="0 0 300 300"><path d="M0 192.356v-16.584c.113-.656.216-1.284.319-1.931.872-5.775 1.519-11.606 2.672-17.334 1.566-7.791 3.572-15.487 4.134-23.456.488-6.722 2.016-13.191 4.641-19.416 1.266-2.991 3.347-4.819 6.216-6.028 2.194-.928 2.672-.563 2.738 1.837.056 1.913.131 3.844.45 5.709 1.003 5.606 4.941 9.788 7.453 14.653.403.769 1.275 1.406 2.072 1.828 5.616 2.934 11.419 5.325 17.812 5.888.872.084 1.753-.113 2.625-.141 1.041-.047 2.1-.188 3.103-.019 1.697.319 3.263.234 4.791-.666.741-.441 1.603-.872 2.447-.984 4.341-.525 7.584-2.747 10.444-5.953 1.509-1.697 3.712-2.766 5.541-4.191 4.987-3.863 8.606-8.569 8.747-15.216.047-1.828.028-3.684-.272-5.456-.188-1.163-.722-2.513-1.566-3.281-1.059-.956-2.569-1.453-3.947-2.016-.319-.141-.928.159-1.284.422-1.434.984-2.822 2.072-4.275 3.047-2.063 1.378-4.237 2.616-6.253 4.05-2.128 1.519-3.525 3.6-4.191 6.178-.9 3.487-2.775 4.838-6.328 4.237-4.987-.825-9.516-2.944-14.184-5.428 1.669-1.134 3.112-2.147 4.566-3.103 2.016-1.359 2.128-1.931.825-4.031-.534-.853-1.012-1.744-1.669-2.878 1.387 0 2.381.122 3.337-.028 1.875-.291 3.844-.469 5.569-1.172 2.522-1.022 3.178-3.947 1.744-6.225a5.7 5.7 0 0 1-.628-1.341c-.459-1.519.422-2.475 1.894-1.884 2.7 1.106 5.241.169 7.791-.403 2.006-.45 3.234-2.278 3.338-4.266.112-2.297-.741-3.713-2.934-4.641a43 43 0 0 0-3.741-1.369c-1.716-.525-2.156-.187-2.325 1.603-.347 3.45-2.784 5.128-6.178 4.284-1.172-.291-2.391-.45-3.6-.553-.9-.075-1.641.403-1.341 1.378.534 1.828 1.134 3.647 1.978 5.353.534 1.078.609 1.922.103 2.944-.525 1.031-1.303 1.481-2.419 1.275-2.916-.506-5.859-1.003-8.775-1.603-1.931-.403-2.391-.075-2.175 1.931.234 2.25 1.059 4.237 2.438 6.066 1.219 1.613.947 3.178-.928 3.891-1.35.506-3.075.741-4.444.394-4.509-1.172-7.95-4.078-10.706-7.706-3.178-4.153-4.116-8.269-.581-13.05 2.156-2.916 3.441-6.225 4.697-9.619 1.359-3.647 2.831-7.416 5.053-10.547 6.394-9.009 13.097-17.822 19.856-26.569 4.922-6.356 10.519-12.019 17.859-15.788 6.525-3.328 12.825-7.097 19.275-10.594 2.034-1.088 4.163-2.119 6.366-2.756 2.119-.609 4.388-.684 7.003-1.031-.394.741-.487.984-.637 1.172-1.669 2.128-3.338 4.266-5.034 6.384-1.106 1.378-1.537 2.916-1.35 4.641.187 1.509.487 3.094 2.091 3.684 1.725.656 3.45.291 4.706-1.144 1.163-1.322 2.194-2.756 3.225-4.191.553-.788 1.088-1.219 2.175-1.144.825.075 1.781-.15 2.522-.553 4.659-2.513 9.225-5.213 13.912-7.678 4.537-2.391 9.075-4.875 14.278-5.569 2.916-.394 5.813-.75 8.728-1.022.694-.075 1.425.206 2.147.319-.741.881-1.547 1.341-2.306 1.838-.75.469-1.537.9-2.175 1.491-1.191 1.106-1.453 3.197-.563 4.416 1.022 1.425 2.241.638 3.412.188 4.772-1.781 9.797-2.916 14.794-2.278 6.459.825 12.881 2.269 19.209 3.919 3.497.909 6.741 2.747 10.078 4.219.947.422 1.809.994 2.756 1.509-.272.881-.469 1.641-.75 2.353-1.041 2.653-.384 4.734 1.781 6.619 4.472 3.872 8.859 7.856 13.181 11.887 1.088 1.003 1.8 2.391 3 4.031-2.119.45-3.656.816-5.194 1.116-3.731.741-4.941 3.366-3.178 6.759.741 1.406 1.491 2.888 1.744 4.425.403 2.325 1.284 4.341 2.728 6.122 2.306 2.887 4.772 5.672 7.069 8.569 2.241 2.831 4.913 4.163 8.513 2.831.244-.103.534-.103.816-.112 4.828-.272 7.584-3.328 9.394-7.35 1.809-4.003 3.347-8.138 4.931-12.244 1.022-2.653 3-3.684 5.7-3.628 4.969.131 9.216 2.016 12.45 5.728 5.7 6.534 11.372 13.116 16.772 19.903 7.922 9.956 13.5 21.272 17.466 33.253 2.672 8.072 5.325 16.237 6.45 24.759.047.338.131.666.244.975 2.006 4.8 2.419 9.825 2.334 14.944-.028 1.537.169 3.066.262 4.603v6.966c-.103.591-.234 1.172-.3 1.772-.534 5.278-.853 10.594-1.669 15.816-.928 5.925-2.456 11.756-3.441 17.681-1.387 8.334-4.331 16.069-8.306 23.456-.403.731-1.144 1.275-1.725 1.903-.366-1.078-.441-1.894-.347-2.7.15-1.313.525-2.597.591-3.919.244-4.575.394-9.15.609-13.725.056-1.275.3-2.531.291-3.787-.028-1.547-.666-2.85-2.306-3.234-1.688-.394-2.766.591-3.469 1.959-.525 1.022-.9 2.147-1.219 3.253a98 98 0 0 1-8.259 19.997c-.234.441-.534.844-1.087 1.669-.15-.947-.234-1.359-.272-1.772-.206-2.25-.291-4.519-.637-6.759-.319-2.062-1.425-2.7-3.469-2.222-1.481.347-2.456 1.294-2.672 2.822-1.003 7.472-6.891 11.897-10.838 17.972-.534-1.866-.844-3.366-1.397-4.791-.534-1.359-1.397-2.616-3.084-2.653-1.613-.047-2.381 1.106-3.103 2.372-2.316 4.097-4.566 8.203-7.05 12.178-1.125 1.8-2.503 3.6-4.162 4.875-3.741 2.934-7.537 5.831-11.634 8.231-5.972 3.516-10.059 8.569-13.153 14.541-2.222 4.256-.019 8.981 4.65 10.116 1.697.422 3.497.45 5.259.684.469.075.947.234 1.641.403-1.622.956-2.972 1.688-4.266 2.512-5.859 3.731-12.244 6.094-18.975 7.603-3.45.769-6.891 1.509-10.322 2.269-5.381 1.2-10.734 2.559-16.144 3.6-2.972.563-6.037.431-9.019-.534.206-.563.366-1.003.694-1.894-4.5.403-8.663.759-12.806 1.144-3.684.347-7.369.928-11.044 1.059-4.303.15-8.606-.216-12.909-.131-7.003.15-13.913.628-20.916-.984-6.356-1.453-13.022-1.575-19.566-2.1-6.197-.497-11.85-2.334-17.006-5.831-1.594-1.078-3.366-1.894-5.034-2.878-.469-.272-.872-.666-1.369-1.059 1.378-.609 2.653-.928 3.638-1.641 2.419-1.744 4.744-3.609 7.031-5.541 2.934-2.494 2.494-6.009-.928-7.819-2.297-1.219-4.566-2.484-6.947-3.525-8.803-3.844-15.591-9.741-19.481-18.703-.075-.15-.15-.291-.234-.45-2.194-3.731-3.666-3.919-6.619-.825-2.681-3.497-4.556-7.416-6.122-11.484-.844-2.222-1.575-4.481-2.353-6.722-.637-1.838-2.072-2.784-3.769-2.513-1.538.244-2.222 1.266-2.278 3.338-.019.938-.019 1.875-.019 2.822v1.828c-.188.047-.403.075-.591.113-.244-.497-.525-.984-.75-1.491-2.831-6.722-5.616-13.453-8.503-20.119-.431-1.003-1.2-2.034-2.1-2.625-2.062-1.359-3.787-.525-4.237 1.894a9.3 9.3 0 0 0-.103 2.794c.375 2.963.881 5.906 1.247 8.859.141 1.116.028 2.269.028 3.403a5 5 0 0 1-.638.103c-.909-1.162-2.147-2.175-2.681-3.497-1.247-3.056-2.353-6.197-3.141-9.403-1.519-5.944-2.738-12.056-4.059-18.122zm145.05-99.778c-.553-.028-.984-.066-1.425-.084-2.363-.084-2.438-.084-2.813 2.297-.319 2.016-.469 4.059-.637 6.094-.131 1.594-1.313 1.725-2.475 1.875-1.191.15-1.537-.628-1.641-1.603-.15-1.641-.497-3.309-.366-4.931.3-3.994.338-4.022-3.581-3.422-1.294.197-1.959.722-2.1 2.063-.234 2.034-.609 4.031-1.003 6.047-.422 2.091-1.584 2.803-4.181 2.878-1.978.056-1.753-1.425-1.987-2.616-.028-.169-.047-.366-.141-.469-.384-.431-.797-1.116-1.228-1.144-.422-.028-1.022.563-1.284 1.041-.431.759-.684 1.631-.975 2.456-2.419 7.097-4.762 14.222-7.294 21.272-1.584 4.416-2.325 3.919 2.625 5.503 3.281 1.041 4.003 2.325 3.684 5.775-.403 4.453-.816 8.925-.769 13.369.103 6.647-.122 13.256-.872 19.856-.234 2.034-1.078 2.616-3.113 2.391a15 15 0 0 0-3.769.084c-5.85.9-11.662 1.988-17.644 1.162-1.725-.234-3.516-.103-5.278-.019-1.453.056-1.941.872-1.753 2.353.45 3.731.9 7.463 1.134 11.213a62 62 0 0 1-.066 8.269c-.103 1.434.159 2.391 1.406 3.197 1.809 1.162 3.722 2.278 5.231 3.778 3.741 3.684 6.141 8.025 5.588 13.575-.15 1.519.084 3.075.159 4.613.272 6.066.666 12.131.787 18.197.066 3-1.547 4.397-4.584 4.491-1.275.047-2.541-.084-3.806-.131l-12.881-.45c-1.059-.047-1.641.403-1.725 1.519-.188 1.978-.403 3.966-.741 5.916-.244 1.434.234 1.95 1.659 2.166 1.828.291 3.75.628 5.381 1.434 5.672 2.803 8.953 13.397 6.647 17.953-.984 1.95-.638 3.891.713 5.597.909 1.162 1.2 2.409.872 3.881-.45 1.978-.797 3.966-1.2 5.944.3.113.45.188.628.206 9.141 1.453 18.347 2.063 27.6 2.147 4.125.047 4.425-.178 3.806-4.313-.741-4.837.084-9.45 1.566-14.016.178-.553.563-1.059.947-1.538 1.978-2.494 4.472-1.866 6.975-1.087 1.781.534 3.028 2.044 3.047 3.9.028 3.094-.075 6.197-.084 9.291-.019 2.147.131 4.284-.028 6.412-.103 1.491.244 2.241 1.809 2.231 3.928-.019 7.875.066 11.775-.262 4.125-.347 8.184-1.369 12.328-1.641 10.866-.703 21.412-3.206 31.997-5.456 3.919-.825 6.609-3.319 8.091-7.331-1.978-.534-2.128-2.044-1.8-3.581.928-4.209.178-8.344-.366-12.506-.15-1.172-.722-1.772-1.838-1.988-1.688-.319-3.347-.731-5.016-1.059-2.597-.506-4.059-2.363-4.247-4.697s-1.284-5.184 1.669-6.891c.216-.131.169-.638.366-.881.816-1.059 1.547-2.231 2.578-3.028.872-.684 2.091-1.003 3.197-1.322 1.838-.506 2.419-1.697 2.231-3.497-.131-1.256-.291-2.559-.169-3.806a355 355 0 0 1 1.481-12.656c.15-1.134-.056-1.669-1.228-1.772-1.369-.112-2.738-.366-4.125-.45-3.666-.234-4.209-.722-5.147-4.341a2698 2698 0 0 0-6.384-23.991c-.206-.769-.609-1.462-1.106-2.587-.656.909-1.134 1.425-1.434 2.034-.844 1.744-1.584 3.525-2.391 5.278-3.638 7.734-7.313 15.469-10.903 23.231-.694 1.491-1.912 1.987-3.178 1.772-.656-.131-1.275-1.322-1.622-2.156-1.594-3.919-.872-7.931-.403-11.925.206-1.688.422-3.403.366-5.091-.084-3.047-.403-6.066-.534-9.094-.244-5.409-.375-10.828-.656-16.237-.291-5.794-.741-11.578-1.059-17.372-.366-6.834-.047-13.697-2.034-20.391-.769-2.587 1.388-4.959 4.153-4.819 1.453.066 1.781-.487 1.481-1.744-.722-2.934-1.341-5.878-2.175-8.766-2.475-8.766-5.034-17.503-7.528-26.25-.244-.9-.487-1.519-1.613-1.406-1.162.103-1.266.853-1.266 1.753.019 2.653.075 5.306-.028 7.969-.019.534-.506 1.322-.984 1.547-1.969.909-3.075.131-3.309-2.362-.244-2.644-1.322-5.306.028-7.95.103-.187-.019-.45-.047-.853zM66.206 53.259c-.084-.403-.103-1.256-.422-2.006-.262-.591-.806-1.397-1.322-1.462-.45-.075-1.219.628-1.538 1.162-1.022 1.753-1.95 3.581-2.813 5.428-.384.825-.497 1.781-.741 2.672 1.05.216 2.091.553 3.159.609.506.028 1.144-.366 1.566-.759 1.453-1.406 2.119-3.178 2.1-5.644z"/><path d="M132.797 228.159c0 1.144.056 2.306-.019 3.459-.103 1.575-1.003 2.128-2.447 1.594-2.1-.787-3.103-2.653-2.597-4.856.338-1.434.713-2.878 1.059-4.313.263-1.087 1.003-1.978 2.044-1.641.759.234 1.594 1.2 1.781 2.006.3 1.191.084 2.494.084 3.778.028-.019.056-.019.084-.019zM131.916 143.438c.497-1.491 1.059-3.262 1.725-4.987.337-.872.984-.984 1.875-.525 2.025 1.003 2.119 2.859 2.1 4.669-.019 1.247-.469 2.466-.741 3.713-.291 1.369-1.331 2.063-2.522 1.875-.684-.103-1.397-1.059-1.8-1.8-.403-.759-.403-1.697-.656-2.963zM135.9 194.316c-.188.45-.272 1.369-.787 1.875-1.425 1.425-2.466 1.088-3.553-.609-1.491-2.381-.741-4.791-.216-7.134.131-.609 1.322-1.378 2.006-1.35.637.028 1.584.928 1.753 1.613.45 1.688.534 3.469.806 5.597z"/></svg>