<svg xmlns="http://www.w3.org/2000/svg" viewBox="0 0 300 300"><path d="M179.475 241.097c-5.616-1.219-7.341-.056-7.5 4.941-.112 4.659-2.887 7.716-5.944 10.659-1.162 1.163-2.447 2.166-4.172 3.722-.281-1.387-.834-2.447-.666-3.328 1.059-4.659-.384-9.103-1.106-13.547-.384-2.447-1.941-3.778-4.331-3.938-2.222-.225-3.609 1.059-4.331 3.113-.338 1.003-.891 1.941-1.275 2.662-.947-1.669-1.884-3.216-2.728-4.659-.947 1.725-1.781 2.944-2.222 4.275-.384 1.275-.497 2.662-.553 4.05-.113 2.278 0 4.603-.225 6.881-.056.666-.666 1.669-1.275 1.884s-1.556-.225-2.166-.666c-3.384-2.166-4.341-5.437-4.556-9.328-.225-4.219-2.447-7.716-5.287-11.213-2.278 2.719-2.55 5.944-3 8.991-.281 1.941-1.162 3.216-3.056 3.216-.778 0-2.231-1.003-2.278-1.613-.281-5.166-2.728-9.544-5.063-13.931-2.053-3.938-3.384-7.941-4.05-12.375-1.444-9.103-9.45-8.662-14.672-5.109-1.219.834-2.391 1.725-3.722 2.662-1.059-1.219-2.606-2.944-4.106-4.772-3.563-4.219-7.116-8.437-10.556-12.769-.384-.497-.281-1.613-.225-2.391.225-1.941 1.059-3.938.891-5.831-.609-5.719-1.612-11.438-2.447-17.156-.112-.722-.112-1.5.113-2.109 1.387-3.778 1.941-7.547 1.997-11.606 0-3.778 1.059-7.547 1.556-11.325.666-4.884.722-9.881-3.216-13.378-2.391-2.109-5.784-3.056-8.672-4.659-5.391-3.056-11.334-1.781-17.063-2.278-6.891-.609-13.566-1.781-19.612-5.662-5.391-3.441-9.834-7.716-13.884-12.488-.834-.947-1.444-2.166-1.997-3.272-3.122-6.103-6.891-11.991-9.169-18.431C6.741 84.16 5.523 77.55 4.913 70.997s-.281-13.266.113-19.875c1.059-18.759 9.113-34.528 21.563-48.3 1.003-1.106 2.334-1.884 3.562-2.831.281.169.609.281.891.441-.338 1.5-.497 3.056-.891 4.556-1.828 7.106-4.106 14.156-5.447 21.375-1.219 6.666-1.941 13.547.609 20.156 2.494 6.497 4.716 13.097 7.837 19.322 2.494 5.053 5.944 9.656 9.281 14.269 2.391 3.328 5.841 5.222 9.947 5.887 1.003.169 2.222.113 2.944.666 5.053 3.891 11.447 3.113 17.063 4.941 5.063 1.669 10.172.891 15.338.497 8.119-.609 14.513-4.828 21.112-8.775 3.441-2.109 6.947-4.331 10.669-5.775 3.272-1.275 6.947-1.5 10.444-2.222 5.053-1.05 10.116-1.941 15.122-3.328 6.947-1.941 13.444-.056 19.725 2.166 10.116 3.609 20.119 7.772 29.841 12.328 3.384 1.612 5.953 4.997 8.616 7.884 2.55 2.775 5.287 4.941 9.169 5.662 2.494.441 4.837 1.828 7.284 2.166 6.047.834 12-.553 17.447-3.056 5.503-2.494 10.669-5.775 15.787-9.047 1.613-1.003 2.447-3.169 3.722-4.659 2.887-3.441 6.103-6.609 8.728-10.219 5.278-7.275 7.95-15.6 9.45-24.422 2.278-13.322.337-26.091-3.9-38.747-.441-1.331-.056-2.944-.056-4.444 1.5-.338 2.728-.609 4.219-.947 8.063 11.494 15.675 23.316 16.172 38.194.113 3.834.834 7.659 1.219 11.55.056.553.056 1.106-.056 1.612-3.112 13.434-6.009 26.981-9.45 40.359-2.166 8.55-5.784 16.65-10.387 24.263-2.662 4.388-6.506 7.162-10.997 9.328-2.887 1.387-5.559 3.272-8.503 4.556-3.328 1.5-6.881 2.494-10.331 3.834-2.494 1.003-5.175 1.781-7.228 3.384-2.719 2.053-5.287 4.556-7.397 7.275-2.662 3.553-4.894 7.444-7.116 11.269-.778 1.387-1.162 3.169-1.162 4.716 0 4.275.497 8.606.338 12.881-.112 2.775-.553 5.719-1.612 8.325-1.828 4.556-2.55 9.159-2.606 13.988 0 2.278-.384 4.556-.666 6.825-.056.497-.384 1.059-.778 1.331-3.272 2.662-6.562 5.325-10.003 7.828-.666.497-1.997.497-2.888.338-6.337-1.162-12.609-1.941-17.447 3.497-1.275 1.444-2.231 3.441-2.55 5.278-.947 4.556-1.444 9.103-2.109 13.819zm-48.956-55.125c-3-3.441-6.009-6.666-8.728-10.106-2.887-3.609-6.112-4.659-10.116-2.887-4.566 2.053-5.672 4.05-4.566 9.159.384 1.828-.056 4.331 2.494 5.109 3.778 1.106 7.612 2.278 11.447 3.113 4.116.947 7.781-1.059 9.45-4.387zm23.062 10.828c-1.5.778-2.831 1.444-4.106 2.166-.947.553-1.997 1.003-2.662 1.772-1.219 1.388-2.166 3-3.281 4.444-2.222 2.887-2.775 6.103-2.278 9.6.337 2.222 2.606 3.666 4.509 2.55 1.388-.834 2.55-2.278 3.441-3.666.947-1.5 1.444-3.216 2.166-4.884 1.162 2.662 1.613 5.222 2.494 7.603.384 1.059 1.556 2.166 2.606 2.494.891.281 2.662-.281 3.122-1.003 1.162-1.884 2.053-3.994.834-6.441-1.828-3.609-3.384-7.331-5.053-10.941-.553-1.275-1.162-2.494-1.791-3.722zm14.672-8.269c.891 2.278 3.113 3.834 6.225 4.659 4.162 1.059 8.006-.384 11.831-1.331 6.337-1.556 6.619-8.991 3.384-12.047-3.056-2.887-7.838-2.775-10.894 0-3.169 2.944-6.675 5.55-10.556 8.719z"/><path d="M125.184 253.087c-.834 4.219 1.331 7.331 2.888 10.547.169.281.609.609.891.609 4.894-.337 8.222 4.05 13.059 4.219 3.337.113 4.837-.113 6.112-3.272 1.387-3.441 2.278-7.163 3.328-10.716.338-1.059.497-2.109 1.5-3.609.891 1.106 2.222 2.109 2.494 3.384 1.059 4.388 1.725 8.831 2.494 13.209.169.947 0 1.997 0 3.497 4.05-1.772 7.716-3.216 11.166-5.053 1.106-.609 1.772-2.109 2.55-3.216 1.669-2.391 3.112-4.941 4.997-7.106 3-3.497 5.006-7.884 9.225-10.378.834-.497 1.162-2.109 1.556-3.216.891-2.55 1.556-5.222 2.494-7.716.225-.609 1.388-.891 2.222-1.162 1.613-.553 3.272-.947 4.894-1.5 3.384-1.162 6.778-2.334 10.116-3.609 2.606-1.059 5.334-2.053 7.716-3.553 7.341-4.5 13.838-10.162 18.506-17.325 3.441-5.325 4.331-11.822 5.053-18.15.225-1.884.722-3.722 1.162-6.159 1.162.834 2.053 1.106 2.391 1.725 1.613 3.056 4.003 5.775 3.619 9.6-.553 5.437-.947 10.884-1.612 16.322-.169 1.219-.891 2.447-1.5 3.553-2.662 4.884-4.997 10.106-8.334 14.541-3.113 4.162-7.397 7.444-11.109 11.1-1.387 1.387-2.662 2.944-4.059 4.387-2.278 2.391-4.5 4.828-6.947 7.05-2.334 2.109-4.838 4.162-7.556 5.831-2.55 1.556-5.391 2.662-8.166 3.834-6.225 2.606-9.891 10.163-7.95 16.603.834 2.887.056 5.109-2.278 6.994-4.556 3.778-8.944 7.716-13.5 11.438-2.662 2.222-5.672 3.384-9.394 3.169-5.494-.338-11.109-.056-16.622 0-.834 0-1.725-.056-2.447.225-5.287 1.941-9.778.384-14.231-2.606-1.612-1.106-3.891-1.163-5.606-2.166-2.887-1.669-5.55-3.834-8.447-5.55-1.106-.666-2.606-.834-3.9-1.106-4.659-1.003-8.062-2.719-8.278-7.716-.281-6.938-3.609-12.769-6.112-18.984-1.106-2.719-3.169-3.609-5.391-4.659-7.397-3.553-14.897-6.994-20.888-12.825-2.053-1.997-3.9-4.219-5.391-6.666-5.334-8.934-10.837-17.878-12.497-28.369-.722-4.716-1.331-9.497-1.5-14.269-.337-6.994-.281-14.044-.337-21.037 0-1.275-.056-2.662.384-3.834 2.166-5.437 4.5-10.828 6.947-16.547 2.278 1.725 2.663 3.328 2.55 5.831-.337 5.887-.056 11.822.337 17.709.441 7.331 2.278 14.437 6.225 20.709 3.056 4.884 6.506 9.656 10.331 13.931 4.781 5.222 10.059 9.994 15.281 14.766 2.887 2.662 6.225 4.162 10.388 2.775 1.884-.609 3.497.056 4.5 2.053 1.5 2.944 3.328 5.662 4.838 8.55 2.053 3.994 3.384 8.269 3.056 12.881-.056 1.003-.225 2.109.056 3.056s1.003 1.828 1.5 2.719c.609-.666 1.397-1.275 1.828-1.997 1.331-1.884 2.887-2.888 5.334-2.719z"/></svg>