<!-- Generated by IcoMoon.io -->
<svg version="1.1" xmlns="http://www.w3.org/2000/svg" width="300" height="300" viewBox="0 0 300 300">
<title>fighters-brute</title>
<path d="M0 146.766c0.741-0.563 1.406-1.491 2.212-1.65 2.559-0.497 4.762-1.594 7.003-2.925 4.088-2.438 8.419-4.453 12.6-6.731 1.678-0.909 3.412-1.838 4.828-3.084 3.525-3.122 7.575-5.456 11.466-8.034 2.775-1.847 5.512-3.797 8.1-5.897 1.744-1.416 3.244-3.141 4.8-4.772 1.453-1.528 2.269-1.584 3.619-0.009 0.703 0.806 1.284 1.734 2.006 2.55 1.219 1.406 2.578 1.406 3.459-0.216 1.809-3.347 2.775-6.938 2.269-10.781-0.216-1.659-1.313-2.55-2.981-2.428-1.369 0.094-2.738 0.337-4.059 0.675-2.278 0.563-3.834-0.066-4.8-2.241-2.4-5.391-4.359-10.903-4.978-16.819-0.366-3.572-0.478-7.162-0.787-10.725-0.441-5.025-2.597-9.544-4.397-14.156-0.403-1.003-0.741-2.053-1.275-2.981-0.938-1.65-0.759-3.244-0.188-4.941 0.281-0.816 0.684-1.172 1.472-1.087 0.628 0.075 1.331 0.122 1.837 0.459 2.709 1.8 5.756 2.372 8.906 2.794 1.847 0.244 3.684 0.675 5.447 1.284 3.825 1.369 7.753 2.063 11.803 2.409 3.919 0.347 7.781 1.153 11.662 1.734 0.581 0.084 1.181 0.122 1.753 0.037 5.578-0.834 10.969 0.084 16.294 1.612 3.225 0.919 4.050 3.309 2.213 6.103-0.647 0.984-1.491 1.838-2.184 2.775-1.566 2.147-0.881 4.116 1.622 4.931 3.628 1.181 3.797 1.491 1.622 4.65-2.428 3.516-4.922 7.003-7.519 10.397-1.931 2.531-3.591 5.147-4.481 8.222-1.097 3.853-2.231 7.697-3.338 11.55-0.066 0.234-0.084 0.487-0.084 0.722 0.206 8.831-0.178 17.719 2.006 26.409 0.394 1.556 0.394 3.216 0.431 4.819 0.047 2.306 0.009 4.622-0.112 6.938-0.066 1.050-0.309 2.156-0.759 3.084-0.244 0.497-1.097 0.9-1.706 0.966-0.862 0.084-1.153 0.412-1.397 1.191-0.459 1.491-0.984 2.963-1.594 4.388-2.119 4.856-4.294 9.694-6.412 14.541-0.159 0.366-0.178 0.872-0.084 1.275 0.516 2.494 1.116 4.978 1.631 7.481 0.347 1.613 1.153 2.916 2.484 3.872 1.463 1.050 2.269 2.494 2.813 4.209 0.938 2.991 1.734 6.084 3.141 8.869 1.050 2.091 2.897 3.797 4.491 5.559 0.319 0.356 1.172 0.225 1.781 0.319 1.022 0.178 2.063 0.356 3.084 0.553 0.759 0.15 1.519 0.469 2.269 0.469 1.406 0.009 2.325 0.619 2.841 1.903 0.234 0.591 0.525 1.172 0.834 1.716 0.863 1.491 0.666 2.006-1.022 2.531-2.456 0.778-2.644 0.975-2.513 3.544 0.066 1.369 0.178 2.747 0.497 4.059s0.975 2.55 1.519 3.919c-0.628 0.216-1.256 0.272-1.706 0.6-0.403 0.291-0.778 0.872-0.806 1.341-0.009 0.281 0.637 0.778 1.050 0.862 1.622 0.356 2.625 1.181 2.859 2.559 0.216 1.247-0.478 2.709-2.006 3.262-4.397 1.575-8.813 3.037-13.275 4.397-2.813 0.872-5.681 1.556-8.569 2.203-1.566 0.356-3.188 0.469-4.791 0.666-1.172 0.15-2.344 0.216-3.516 0.431-2.897 0.497-5.756 1.266-8.663 1.556-4.641 0.469-9.3 0.713-13.959 0.909-2.428 0.094-3.619-1.519-3.206-3.928 0.037-0.197 0.066-0.394 0.131-0.581 1.641-4.463 3.272-8.934 4.922-13.388 3.066-8.259 5.672-16.631 6.609-25.463 0.216-1.969 0.975-3.891 1.397-5.841 0.272-1.247 0.684-2.559 0.506-3.75-0.337-2.147 0.684-3.178 3.094-3.553 0.872-0.131 1.772-0.113 2.625-0.253 1.716-0.309 2.747-1.378 3.178-3.066 1.003-3.731 0.984-7.266-1.594-10.463-0.825-1.022-1.387-2.269-2.128-3.356-0.825-1.219-1.472-1.284-2.25-0.122-1.303 1.959-2.559 3.956-3.647 6.037-0.581 1.088-1.172 1.397-2.194 0.787-3.516-2.053-7.247-3.619-10.622-6.009-5.803-4.106-11.925-7.819-18.066-11.4-6.45-3.769-13.378-6.375-20.859-7.313-2.006-0.244-3.581-1.275-4.706-2.953 0-0.094 0-0.188 0-0.281zM80.981 82.894c0.347-2.878-0.525-5.475-1.866-7.922-0.947-1.744-2.906-2.325-4.791-1.838-0.684 0.188-1.594 0.037-2.241-0.272-1.856-0.872-2.325-0.778-3.403 1.031-0.272 0.459-0.563 0.956-0.984 1.275-1.65 1.256-2.409 3.084-3.094 4.913-1.875 4.987-1.088 8.063 2.962 11.522 2.409 2.053 5.175 3.084 8.316 2.363 1.313-0.309 2.531-1.069 3.797-1.613 2.25-0.975 2.756-2.025 2.231-4.425-0.375-1.659-0.628-3.347-0.938-5.025zM68.944 137.128c-0.047 0-0.094-0.009-0.131-0.009 0-0.291 0-0.591 0-0.881-0.028-2.006-2.747-5.691-4.669-6.291-0.309-0.094-0.684-0.084-1.003-0.009-4.031 0.863-7.837 2.269-10.997 5.025-0.553 0.497-1.134 1.209-1.256 1.903-0.337 2.128-0.619 4.275-0.656 6.431-0.028 2.634 1.566 4.537 4.153 4.931 2.325 0.347 4.688 0.563 7.041 0.553 3.525-0.028 6.178-2.334 6.797-5.794 0.347-1.959 0.478-3.928 0.712-5.869zM74.119 220.031c2.934 0.009 4.922-0.816 5.241-2.803 0.478-3.028 0.666-6.131 0.581-9.188-0.066-2.044-1.153-2.428-3.197-1.847-0.947 0.272-1.987 0.291-2.963 0.431-1.219 0.178-2.597 0.028-3.628 0.581-2.756 1.425-3.9 4.387-3.094 7.228 1.059 3.797 3.338 5.588 7.078 5.597zM54.413 236.353c-0.909-0.591-1.472-1.238-1.922-1.172-0.469 0.066-1.134 0.834-1.153 1.303 0 0.403 0.787 1.088 1.284 1.125 0.441 0.037 0.938-0.628 1.781-1.256zM38.166 142.022c-0.403-0.984-0.722-1.744-1.050-2.513-0.347 0.356-0.9 0.666-0.994 1.088-0.253 1.069 0.413 1.463 2.044 1.425z"></path>
<path d="M156.544 8.906c3.047 2.025 5.241 4.819 7.369 7.734 6.975 9.525 14.034 18.975 21.037 28.472 1.387 1.894 2.709 3.834 4.134 5.887-0.759 0.159-1.313 0.291-1.884 0.394-1.866 0.347-3.497 1.003-4.912 2.428-1.031 1.022-2.466 1.819-3.872 2.25-2.691 0.825-4.387 2.484-5.334 5.053-0.225 0.647-0.394 1.406-0.844 1.847-1.538 1.528-1.538 3.328-1.444 5.316 0.347 6.431 0.478 12.872 0.834 19.294 0.178 3.234 0.656 6.45 0.966 9.666 0.188 1.959 0.459 3.928 0.431 5.878-0.103 7.162 1.172 14.194 1.969 21.272 0.113 1.003 0.553 1.997 0.591 2.991 0.028 0.656-0.234 1.453-0.656 1.941-0.638 0.722-1.491 1.284-2.316 1.819-5.156 3.281-9.487 7.453-13.313 12.206-1.716 2.147-3.581 4.181-5.456 6.197-0.347 0.384-1.209 0.778-1.528 0.6-0.694-0.384-1.594-1.069-1.688-1.734-0.131-1.003-0.647-1.35-1.303-1.912-1.116-0.919-2.081-2.025-3.028-3.122-0.806-0.947-1.378-2.156-2.306-2.963-2.766-2.428-5.681-4.688-8.475-7.078-1.069-0.928-2.119-1.931-2.953-3.056-1.472-1.987-3.431-3.159-5.644-4.087-0.619-0.253-1.059-0.909-1.575-1.378 0.431-0.412 0.806-0.994 1.313-1.228 1.819-0.816 2.344-2.428 2.634-4.153 1.125-6.638 2.184-13.256 2.334-20.034 0.216-9.628 0.834-19.247 1.172-28.875 0.112-3.328-0.122-6.675-0.197-10.031-0.037-1.837-0.469-2.4-2.25-2.644-1.8-0.253-3.619-0.403-5.428-0.581-0.253-0.028-0.581-0.103-0.722 0.028-1.556 1.303-2.616 0.159-3.891-0.619-0.872-0.534-2.025-0.647-3.066-0.872-0.656-0.15-1.331-0.187-2.147-0.647 0.431-0.394 0.844-0.806 1.303-1.172 1.612-1.275 3.403-2.372 4.828-3.834 5.306-5.494 11.419-10.247 15.45-16.95 1.781-2.991 3.994-5.719 5.981-8.588 2.775-4.012 5.831-7.781 9.384-11.147 1.5-1.406 2.794-3.028 4.181-4.547 0.122-0.028 0.225-0.028 0.319-0.028zM159.225 117.384c-0.6-1.847-1.069-3.638-1.8-5.325-0.319-0.75-1.059-1.434-1.781-1.875-1.303-0.759-2.719-1.369-4.125-1.931-2.269-0.909-5.137 0.122-6.478 2.147-2.709 4.087-3.047 8.231-0.188 12.328 0.703 1.003 1.866 2.119 2.981 2.344 2.587 0.534 5.269 0.497 7.791-0.581 0.553-0.234 1.284-0.6 1.472-1.088 0.787-1.931 1.406-3.938 2.119-6.028zM154.791 57.009c1.959-0.103 3.544-0.984 4.612-2.55 1.538-2.212 2.897-4.556 4.322-6.853 0.459-0.722 0.431-1.397-0.319-1.922-1.875-1.313-3.741-2.653-5.644-3.938-0.938-0.628-2.044-1.031-2.869-1.753-0.956-0.853-1.987-1.256-3.084-0.684-1.125 0.591-0.459 1.631-0.281 2.494 0.459 2.203 0.131 2.766-1.997 3.506-1.697 0.591-2.316 1.406-2.119 3.197 0.253 2.288 1.003 4.416 2.616 6.141 1.275 1.378 2.813 2.269 4.762 2.344zM181.209 47.447c0.234-0.159 0.469-0.309 0.684-0.469-0.553-0.806-1.097-1.584-1.65-2.391-0.206 0.131-0.413 0.281-0.619 0.412 0.516 0.806 1.050 1.622 1.575 2.437z"></path>
<path d="M170.944 240.628c1.894-2.981 2.831-6.084 2.391-9.497-0.112-0.853-0.684-1.65-1.031-2.456-0.816 0.525-1.922 0.9-2.4 1.65-0.591 0.938-0.806 2.175-0.928 3.328-0.113 1.088-0.441 1.866-1.416 2.4s-1.519-0.103-2.222-0.563c-1.762-1.172-3.581-2.241-5.391-3.347-1.613-0.984-3.234-0.909-4.913-0.084-2.747 1.331-3.338 0.994-3.553-2.016-0.084-1.219 0.037-2.456-0.113-3.684-0.056-0.553-0.534-1.069-0.816-1.594-0.478 0.356-0.984 0.656-1.406 1.059-0.759 0.684-1.519 1.397-2.203 2.156-0.291 0.338-0.525 0.806-0.581 1.238-0.075 0.534 0.084 1.069 0.084 1.613 0.009 2.447-0.9 3.741-3.244 4.5-1.022 0.338-2.091 0.534-3.141 0.816-2.128 0.591-4.275 1.144-6.375 1.809-2.813 0.9-4.584-0.037-5.344-2.897-0.234-0.9-0.384-1.847-0.75-2.681-0.197-0.469-0.778-0.778-1.172-1.153-0.319 0.441-0.825 0.834-0.928 1.313-0.459 2.306-0.422 4.538 0.497 6.787 0.6 1.472 0.825 3.141 0.994 4.734 0.159 1.547-0.984 2.747-2.409 3.056-2.4 0.497-4.772 1.097-7.144 1.659-0.581 0.131-1.125 0.366-1.706 0.441-2.006 0.253-3.112-0.656-2.934-2.634 0.413-4.866-0.872-9.563-1.275-14.334-0.281-3.45 0.037-6.947 0.112-10.416 0.066-3.047 0.159-6.075 0.197-9.122 0.009-0.881-0.113-1.772-0.131-2.653-0.253-8.353-9.197-12.159-14.963-11.034-0.459 0.084-1.003 0.281-1.284 0.619-0.806 0.909-1.631 1.247-2.719 0.581-1.125-0.684-1.537-1.688-1.416-3.019 0.084-0.844 0.066-1.744-0.122-2.559-0.094-0.459-0.656-0.787-0.994-1.191-0.713-0.881-1.659-1.669-2.081-2.681-0.947-2.259-1.528-4.669-2.475-6.937-0.619-1.462-1.5-2.841-2.437-4.144-0.628-0.881-0.816-1.641-0.234-2.559 0.047-0.084 0.084-0.178 0.15-0.253 6.272-8.653 8.063-19.003 10.538-29.006 1.275-5.109 0.956-10.472-0.225-15.787-1.125-5.006-2.325-10.050-1.847-15.291 1.172-12.675 6.206-23.737 14.034-33.619 0.909-1.144 2.025-2.156 3.141-3.113 3.816-3.328 7.678-6.609 11.522-9.9 0.516-0.441 1.003-0.994 1.622-1.275s1.5-0.534 2.025-0.281c0.497 0.244 0.956 1.125 0.984 1.744 0.113 2.109 0.122 4.237 0.009 6.347-0.497 9.469-1.059 18.947-1.537 28.425-0.216 4.509-0.337 9.037-0.431 13.566-0.028 1.247-0.347 2.222-1.144 3.216-1.763 2.147-2.344 4.65-1.416 7.331 0.216 0.591 0.872 1.059 1.416 1.472 0.722 0.563 1.631 0.909 2.287 1.519 6.375 6.009 12.712 12.056 19.050 18.094 1.153 1.088 2.241 2.213 3.375 3.309 0.563 0.553 1.069 1.219 1.744 1.584 1.781 0.994 3.469 2.016 3.422 4.031 1.284 0.122 2.325 0.291 3.366 0.281 0.403 0 0.9-0.319 1.181-0.638 1.378-1.528 2.691-3.103 4.050-4.669 1.641 1.463 1.697 1.453 3.084-0.216 3.206-3.862 6.422-7.716 9.572-11.616 0.516-0.647 0.684-1.566 1.031-2.334s0.581-1.725 1.153-2.278c2.278-2.175 4.65-4.237 7.022-6.309 1.753-1.519 1.866-2.325 0.563-4.266-0.459-0.684-0.778-1.472-1.022-2.25-2.241-7.144-3.15-14.484-3.216-21.938-0.056-4.181-0.384-8.353-0.497-12.534-0.066-1.922-0.056-3.834 0.113-5.747 0.403-5.091-0.15-10.116-0.834-15.141-0.338-2.409-0.338-2.409 1.819-3.459 0.403-0.197 0.806-0.384 1.284-0.619 0.684 1.312 1.434 1.406 2.616 0.403 1.406-1.219 2.475-0.788 3.816 0.497 1.613 1.556 3.394 2.991 5.306 4.134 2.953 1.753 5.213 4.106 7.191 6.862 4.181 5.841 7.266 12.272 9.694 18.975 1.613 4.453 1.847 9.225 1.209 13.978-0.103 0.713 0.028 1.463 0.028 2.203-0.009 1.219-0.009 2.447-0.066 3.666-0.066 1.256-0.291 2.513-0.309 3.769-0.028 6.197-0.037 12.394 0.028 18.591 0.009 0.881 0.459 1.753 0.628 2.644 0.188 0.947 0.553 1.941 0.394 2.841-0.459 2.531-0.309 5.025 0.441 7.444 1.491 4.791 2.859 9.591 5.484 13.95 1.406 2.316 1.866 4.959 1.847 7.65-0.009 2.653 0.066 5.269 1.125 7.819 0.347 0.816-0.131 2.222-0.638 3.15-1.284 2.362-2.962 4.538-4.209 6.919-1.284 2.466-2.456 5.044-3.338 7.669-0.469 1.406-0.366 3.075-0.281 4.613 0.084 1.453 1.125 1.819 2.063 0.684 1.697-2.016 3.45-4.088 4.669-6.384 1.406-2.634 2.616-5.259 5.306-6.881 0.497-0.291 0.75-1.219 0.862-1.875 1.003-6.253 0.216-12.45-0.684-18.637-0.159-1.116-0.216-2.259-0.497-3.356-0.291-1.172-0.741-2.316-1.219-3.422-0.853-1.922-1.884-3.778-2.662-5.737-1.144-2.916-2.156-5.887-3.178-8.869-0.272-0.816-0.431-1.725-0.356-2.578 0.403-4.744 1.088-9.478 1.341-14.231 0.694-13.106 1.462-26.231-1.838-39.159-1.172-4.584-3.525-8.606-6.075-12.525-1.453-2.213-2.878-4.481-4.547-6.534-1.378-1.697-3.075-3.141-4.678-4.669-0.497-0.469-1.284-0.722-1.594-1.275-0.366-0.703-0.619-1.659-0.431-2.4 0.084-0.347 1.341-0.666 1.988-0.553 3.225 0.553 5.522-1.247 5.513-4.584 0-0.759-0.469-1.725-1.031-2.241-1.228-1.125-2.691-1.969-4.022-2.991-1.172-0.9-1.088-1.35 0.216-2.081 0.684-0.384 1.331-0.834 2.025-1.219 0.384-0.206 0.806-0.441 1.219-0.478 4.753-0.497 9.506-0.9 14.241-1.434 1.941-0.216 3.9-0.553 5.775-1.125 8.897-2.672 17.766-5.438 26.644-8.128 2.813-0.844 4.022 0.347 3.15 3.178-0.497 1.612-1.303 3.122-1.969 4.678-0.244 0.591-0.525 1.153-0.75 1.762-2.484 6.506-4.969 13.013-7.444 19.519-2.494 6.516-5.016 13.041-5.494 20.1-0.066 0.975 0.112 1.959 0.159 2.925 0.056 1.050-0.375 1.463-1.434 1.125-1.538-0.497-2.194-1.622-2.588-3.113-0.309-1.144-0.741-2.362-1.453-3.281-0.947-1.219-2.738-1.425-3.891-0.741-1.369 0.806-1.528 2.091-1.125 3.478 0.684 2.344 1.622 4.65 2.1 7.041 0.628 3.122 0.975 6.309 1.303 9.478 0.103 0.881-0.478 1.837-0.431 2.737 0.131 2.241 0.403 4.481 0.741 6.703 0.253 1.706 0.75 3.356 1.125 5.025 0.272 1.219 0.75 1.434 1.688 0.619 1.153-0.994 2.231-2.091 3.272-3.178 0.272-0.291 0.375-0.778 0.478-1.191 0.178-0.666 0.178-1.406 0.469-2.006 0.816-1.659 0.975-3.366 0.816-5.166-0.066-0.656 0.113-1.331 0.225-2.531 1.866 1.537 3.422 2.747 4.903 4.088 2.222 1.997 4.406 4.069 6.6 6.112 0.037 0.037 0.066 0.075 0.122 0.084 2.681 0.478 4.238 3.188 6.984 3.572 0.478 0.066 1.088 0.412 1.331 0.806 0.938 1.491 2.4 2.109 3.928 2.691 4.209 1.631 8.475 3.178 12.563 5.025 3.563 1.613 6.966 3.647 10.444 5.447 2.709 1.397 5.456 2.709 8.184 4.088 0.928 0.469 1.809 0.994 2.681 1.556 1.209 0.759 2.053 1.753 1.594 3.3-0.478 1.556-2.156 2.559-3.684 2.681-1.416 0.113-2.963 0.281-4.2 0.938-7.172 3.787-14.287 7.688-21.366 11.634-2.063 1.144-3.938 2.587-5.906 3.872-0.863 0.563-1.744 1.116-2.644 1.594-3.431 1.894-6.862 3.797-10.341 5.606-0.975 0.516-2.091 0.741-3.122 1.153-1.069 0.441-2.1 0.984-3.188 1.406-0.759 0.309-1.875 0.928-2.306 0.628-0.778-0.534-1.331-1.584-1.659-2.531-0.309-0.9-0.084-1.969-0.338-2.897-0.562-2.25-2.653-3.872-4.959-3.938-0.469-0.009-1.219 0.187-1.397 0.516-1.191 2.306-2.25 4.575-1.556 7.387 0.553 2.213 0.591 4.5 0.047 6.853-0.403 1.809-0.122 3.797-0.009 5.709 0.188 3.084 0.497 6.159 0.684 9.253 0.028 0.581-0.309 1.219-0.581 1.772-1.088 2.128-0.441 3.544 1.875 3.984 0.628 0.122 1.275 0.188 1.894 0.291 1.462 0.253 2.587-0.084 3.272-1.547 0.309-0.647 0.881-1.172 1.387-1.716 0.853-0.909 1.866-1.256 3.066-0.769 1.247 0.487 2.025 1.313 2.147 2.728 0.366 4.406 0.759 8.822 1.172 13.219 0.084 0.919 0.122 1.894 0.431 2.747 1.284 3.544 1.341 7.228 1.406 10.922 0.113 5.728 0.366 11.4 2.578 16.791 0.113 0.272 0.272 0.6 0.216 0.844-0.188 0.619-0.338 1.453-0.778 1.697-0.412 0.225-1.472 0.047-1.772-0.338-1.153-1.434-2.316-1.659-4.116-1.209-1.275 0.338-2.775-0.291-4.181-0.469-2.044-0.253-4.088-0.506-6.131-0.741-0.244-0.028-0.525 0.056-0.722-0.047-3.581-1.838-7.313-0.806-11.006-0.6-0.722 0.038-1.453-0.066-2.175-0.159-1.725-0.216-3.45-0.534-5.175-0.694-1.453-0.15-2.934-0.216-4.397-0.188-1.444 0.038-2.878 0.272-4.331 0.356-0.75 0.037-1.641 0.159-2.25-0.159-1.181-0.591-2.194-0.516-3.375-0.066-0.984 0.384-2.081 0.591-3.141 0.628-0.525 0.028-1.256-0.403-1.5-0.844-0.197-0.356 0.047-1.191 0.384-1.556 1.191-1.284 1.688-2.831 1.969-4.519 0.234-1.453 0.534-2.897 0.928-4.322 0.834-3.103-0.459-5.719-3.469-6.862-2.719-1.050-2.775-1.153-1.931-3.956 0.722-2.391 1.35-4.791 2.1-7.162 0.534-1.716 1.809-2.325 3.581-2.766 2.391-0.591 4.622-1.828 6.862-2.897 0.244-0.113 0.272-1.059 0.122-1.528-0.441-1.397-0.975-2.756-1.575-4.078-0.216-0.469-0.741-0.806-1.153-1.144-0.122-0.094-0.375-0.066-0.581-0.066-8.072-0.366-7.847 0.225-10.537 6.066-2.372 5.156-4.331 10.416-4.622 16.191-0.216 3.994-0.628 7.997-0.947 11.981-0.028 0.291 0.028 0.647-0.113 0.872-1.809 3.084-0.506 6.216-0.15 9.309 0.272 2.372 0.366 2.391-1.762 3.591-0.516 0.281-1.003 0.619-1.5 0.938-1.059 0.713-2.166 0.759-3.15-0.028-3.141-2.513-6.244-5.081-9.356-7.631-0.197-0.131-0.356-0.394-0.628-0.713zM205.294 169.584c0.309-2.203-1.284-3.703-2.878-5.325-1.238-1.275-2.578-0.647-3.853-0.591-1.613 0.066-3.262 0.197-4.809 0.619-1.922 0.506-3.994 0.984-5.578 2.081-2.1 1.472-4.331 2.438-6.731 3.159-1.444 0.431-3.019 0.816-4.2 1.678-1.744 1.284-3.497 1.584-5.541 1.191-0.947-0.188-1.969-0.253-2.906-0.066-0.675 0.122-1.266 0.694-1.903 1.069 0.478 0.516 0.881 1.125 1.463 1.519 1.613 1.097 3.431 1.922 4.922 3.15 4.519 3.75 9.637 4.172 15.066 3.019 3.309-0.694 6.572-1.622 9.872-2.391 4.678-1.059 7.022-3.956 7.078-9.094zM138.272 174.544c-0.066-0.253-0.131-0.497-0.216-0.759-0.947-0.319-1.875-0.656-2.831-0.938-4.641-1.275-9.3-2.466-13.247-5.494-0.581-0.441-1.519-0.459-2.287-0.6-0.431-0.084-0.909 0.038-1.303-0.094-2.709-0.994-5.456-1.922-8.081-3.084-3.15-1.406-5.85-0.216-6.6 3.122-0.281 1.247-0.581 2.494-0.713 3.769-0.066 0.581 0.066 1.303 0.366 1.772 0.816 1.219 1.744 2.372 2.691 3.506 2.709 3.216 6.328 4.359 10.378 4.275 3.084-0.066 6.178-0.309 9.253-0.441 0.347-0.009 0.741-0.028 1.003 0.122 1.687 0.984 3.122 0.272 4.547-0.591 1.809-1.097 3.591-2.203 5.381-3.328 0.572-0.384 1.097-0.816 1.65-1.219zM251.738 145.463c0.084-4.059-3.113-8.559-6.488-9.656-0.338-0.113-0.881-0.131-1.088 0.066-1.031 1.003-2.213 1.087-3.544 0.872-0.497-0.066-1.097 0.103-1.556 0.338-1.941 0.994-3.469 2.428-4.181 4.537-0.881 2.653-1.134 5.381-0.6 8.128 0.253 1.341 0.872 2.456 2.156 3.159 2.062 1.125 4.087 2.344 6.113 3.544 1.003 0.591 1.697 0.347 2.316-0.656 0.412-0.684 0.994-1.313 1.641-1.781 3.15-2.241 4.884-5.278 5.231-8.541zM141.769 204.422c-0.009 0.291-0.037 0.591-0.047 0.881-0.094 1.753 0.113 1.922 1.809 1.406 1.416-0.412 2.831-0.834 4.237-1.284 2.963-0.975 5.897-1.369 8.944-0.272 1.622 0.591 2.738-0.562 2.428-2.372-0.103-0.628-0.403-1.219-0.553-1.838-0.319-1.331-0.581-2.653-0.881-3.984-0.684-3.019-1.275-6.047-2.1-9.009-0.216-0.759-1.059-1.538-1.8-1.903-0.938-0.441-2.081-0.441-3.122-0.684-1.434-0.309-2.559 0.197-3.253 1.444-3 5.494-5.925 11.034-5.644 17.597zM218.241 221.147c0.028 1.584-0.272 3.262 1.116 4.444 2.119 1.809 6.206 2.025 8.794 0.581 2.709-1.528 4.397-4.706 4.003-7.631-0.178-1.313-0.403-2.616-0.656-3.928-0.347-1.772-1.088-2.213-2.934-2.447-1.088-0.131-2.306-0.553-3.159-1.247-1.622-1.313-3.984-1.819-6.009-0.909-1.659 0.75-3.338 3.384-3.178 5.137 0.028 0.459 0.206 1.022 0.525 1.313 1.397 1.313 1.697 2.934 1.491 4.688zM227.869 56.691c-1.425 0.131-2.409 0.253-3.384 0.291-1.875 0.084-3.328 0.937-4.669 2.222-3.562 3.45-2.616 10.378 1.772 12.844 0.713 0.403 1.687 0.581 2.494 0.469 4.003-0.534 6.787-3.497 7.453-7.453 0.506-2.981 0.028-5.578-2.325-7.613-0.469-0.403-1.125-0.628-1.35-0.759zM288.834 146.334c0.478-0.713 1.097-1.237 1.191-1.856 0.103-0.591-0.244-1.331-0.591-1.866-0.15-0.225-1.191-0.188-1.219-0.084-0.225 0.825-0.394 1.688-0.431 2.531-0.009 0.272 0.431 0.553 1.050 1.275zM121.659 243.956c0.938-0.806 1.378-3.047 0.816-3.9-0.441-0.656-0.928-0.656-1.341 0.047-0.581 0.994-0.347 2.794 0.534 3.853zM208.406 153.469c0.694-1.875 0.413-2.606-1.172-3.197 0.403 1.088 0.741 2.044 1.172 3.197z"></path>
<path d="M120.328 259.416c2.775-1.219 5.494-2.578 8.353-3.6 1.819-0.656 3.066-1.641 3.338-3.516 0.309-2.128 0.431-4.294 0.581-6.45 0.122-1.819 0.441-2.222 2.297-2.278 1.603-0.028 2.719-0.909 3.872-1.875 0.759-0.638 1.659-1.219 2.597-1.519 2.334-0.75 4.706-1.537 7.116-1.894 2.897-0.431 5.944-0.909 8.784-0.478 2.522 0.384 4.922 1.875 7.256 3.103 1.622 0.863 2.334 2.588 2.372 4.369 0.066 3.872 1.856 6.937 4.153 9.844 1.444 1.809 3.019 3.309 5.381 3.9 0.656 0.178 1.341 0.975 1.669 1.65 0.253 0.506 0.178 1.5-0.188 1.866-0.338 0.347-1.331 0.403-1.847 0.159-1.856-0.816-3.647-0.684-5.203 0.431-2.025 1.434-4.059 2.963-5.737 4.791-2.494 2.709-4.641 5.737-7.013 8.569-2.55 3.056-3.563 6.759-4.406 10.5-0.591 2.616-2.691 3.3-4.613 4.031-1.209 0.469-2.269-0.713-2.878-1.847-1.050-1.941-2.194-3.863-3.019-5.897-3.206-7.913-9.037-13.462-15.909-18.103-1.463-0.984-3.084-1.744-4.538-2.747-0.966-0.656-1.763-1.575-2.625-2.372 0.047-0.216 0.122-0.412 0.187-0.619zM158.034 254.981c0.028-3.281-2.184-6.637-5.213-7.922-2.963-1.247-6.319 0.216-7.256 3.272-0.516 1.678-0.834 3.45-0.994 5.194-0.253 2.616 3.581 6.787 6.253 6.956 0.347 0.028 0.684 0.009 1.031-0.047 2.963-0.563 6.141-4.406 6.178-7.453zM150.844 282.084c-1.238 0.684-2.334 0.984-2.147 2.391 0.037 0.253 0.244 0.478 0.375 0.713 0.253-0.178 0.6-0.309 0.722-0.534 0.356-0.712 0.619-1.472 1.050-2.559z"></path>
</svg>
