<!-- Generated by IcoMoon.io -->
<svg version="1.1" xmlns="http://www.w3.org/2000/svg" width="300" height="300" viewBox="0 0 300 300">
<title>fighters-sentience</title>
<path d="M14.025 139.838c1.734-0.863 3.253-0.347 4.884 0.497 1.453 0.75 3.122 1.444 4.716 1.519 4.125 0.197 8.269 0.113 12.394-0.037 2.091-0.075 3.928-1.059 5.269-2.672 4.537-5.4 10.444-5.944 16.819-4.8 2.025 0.366 3.984 1.144 6.019 1.453 1.219 0.197 2.672 0.197 3.731-0.309 3.15-1.481 6.178-3.234 9.234-4.922 1.003-0.553 1.987-0.553 2.494 0.469s0.844 2.231 0.891 3.366c0.141 3.197 0.122 6.431 0.131 9.638 0 1.097 0.178 2.297-0.206 3.263-0.881 2.231-0.553 4.416-0.375 6.666 0.206 2.531 0.675 5.081-0.263 7.575-0.778 2.091-2.006 2.513-3.337 0.778-2.119-2.794-4.987-4.088-8.128-5.138-1.313-0.441-2.616-0.984-3.844-1.641-1.978-1.050-3.769-0.9-5.728 0.169-2.006 1.097-4.181 1.922-6.309 2.766-2.756 1.088-5.484 0.225-8.241-0.206-3.084-0.478-6.178-0.834-9.253-1.313-0.984-0.159-2.072-0.309-2.878-0.834-3.103-1.987-6.394-3.816-9.103-6.272-3.253-2.934-5.981-6.45-8.944-9.713 0-0.122 0-0.216 0-0.309zM72.563 150.872c0.497 0.647 0.806 1.031 1.106 1.434 0.469-0.544 1.134-1.022 1.35-1.65 0.094-0.291-0.684-0.863-1.088-1.313-0.412 0.459-0.834 0.928-1.369 1.528zM73.819 145.116c0 0.244-0.009 0.497-0.009 0.731 0.628 0.113 1.266 0.216 1.894 0.328-0.028-0.422-0.056-0.853-0.084-1.275-0.6 0.056-1.191 0.131-1.791 0.216z"></path>
<path d="M141.469 69.497c-0.647 0.581-1.303 1.153-1.95 1.734 0.084 0.169 0.178 0.328 0.263 0.497 0.525-0.056 1.106-0.009 1.584-0.206 1.753-0.684 3.769-0.881 4.969-2.644 0.206-0.3 0.759-0.478 1.153-0.506 2.794-0.159 5.588-0.206 8.109 1.341 0.366 0.216 0.75 0.469 1.153 0.544 3.009 0.516 6.028 0.975 9.037 1.519 0.778 0.141 1.575 0.459 2.288 0.834 2.325 1.228 4.547 2.644 6.928 3.759s4.416 2.503 5.737 4.828c0.422 0.75 0.984 1.434 1.566 2.072 3.947 4.359 6.628 9.403 8.156 15.066 0.684 2.513 1.416 4.959 4.013 6.394 0.675 0.375 1.097 1.613 1.2 2.503 0.384 3.234 0.628 6.497 0.844 9.759 0.516 8.063 0.891 16.144 1.519 24.197 0.169 2.213 1.087 4.369 1.566 6.572 0.206 0.928 0.338 1.912 0.244 2.85-0.759 7.303 0.638 14.259 3.188 21.047 0.047 0.131 0.159 0.262 0.159 0.394 0.197 2.869 1.622 4.209 4.575 4.481 2.297 0.206 2.625 1.584 1.219 3.441-2.466 3.253-4.866 6.544-7.294 9.834-0.169 0.225-0.3 0.525-0.525 0.675-1.959 1.322-3.853 2.794-5.944 3.853-0.759 0.384-2.128 0.056-3-0.384-2.419-1.228-4.5-1.444-6.769 0.506-1.35 1.172-3.178 1.772-4.8 2.588-1.397 0.713-2.241 1.809-2.888 3.234-2.644 5.85-4.622 11.878-5.691 18.244-0.459 2.719-1.444 5.381-2.494 7.941-1.5 3.675-2.55 7.425-3.338 11.306-0.347 1.706-1.416 3.319-2.381 4.847-0.666 1.050-2.109 1.144-3.019 0.112-1.191-1.331-2.213-2.869-3.084-4.444-0.966-1.753-1.669-3.656-2.503-5.503-0.441-1.003-1.256-1.406-2.325-1.388-5.438 0.122-10.866 0.253-16.313 0.375-1.369 0.038-2.231 0.722-2.625 2.044-0.769 2.625-1.584 5.25-2.363 7.875-0.431 1.444-1.069 1.875-2.55 1.669-1.65-0.216-2.869-1.050-3.647-2.513-2.409-4.575-4.378-9.328-5.138-14.466-0.328-2.213-0.441-4.547-0.112-6.75 0.384-2.588 0.141-5.044-0.797-7.35-1.753-4.313-3.469-8.681-5.756-12.713-2.156-3.787-6.056-5.484-10.247-6.319-4.463-0.881-8.916-0.206-13.387 0.094-1.050 0.075-2.119 0.047-3.169-0.056-1.959-0.197-3.178-1.313-3.9-3.169-1.575-4.087-2.006-8.4-2.447-12.713-0.037-0.338 0.056-0.722-0.084-1.003-1.134-2.203-0.037-3.759 1.284-5.456 2.334-3 3.787-6.488 4.509-10.191 0.947-4.903 1.978-9.806 2.475-14.766 0.666-6.441 1.031-12.9 0.384-19.425-0.591-5.925 0.291-11.794 2.541-17.4 0.647-1.622 0.938-3.403 1.397-5.1 0.113-0.422 0.159-0.862 0.347-1.237 3.084-5.606 6.525-10.903 10.444-16.022 3.703-4.838 8.831-7.134 13.622-10.125 4.669-2.897 9.825-4.819 15.272-5.897 2.119-0.422 4.191-1.088 6.291-1.537 0.797-0.178 1.65-0.094 2.475-0.131-0.037 0.159-0.037 0.281-0.037 0.412zM141.488 196.781c0.169 1.725 0.337 3.441 0.478 5.166 0.094 1.069 0.675 1.481 1.706 1.519 1.622 0.047 3.263 0.113 4.875 0.262 1.941 0.178 2.794-0.328 2.719-2.297-0.197-5.231-0.516-10.472-0.9-15.694-0.113-1.556-2.128-2.381-3.141-1.322-3.234 3.478-6.862 6.825-5.737 12.375zM171.947 178.828c0.469-0.028 0.563-0.038 0.666-0.038 5.175-0.441 12.984-7.2 14.119-12.197 0.244-1.069-0.253-1.491-1.238-1.284-1.5 0.309-3 0.684-4.481 1.069-1.35 0.347-2.381 1.069-3.169 2.316-0.347 0.563-1.172 0.9-1.856 1.172-3.928 1.538-7.866 3.019-11.784 4.538-0.131 0.047-0.253 0.131-0.375 0.225-0.834 0.675-0.844 1.556 0.159 1.894 2.747 0.891 5.522 1.622 7.959 2.316zM124.481 178.012c-0.244-1.781-1.5-2.644-2.681-3.516-4.838-3.516-10.388-5.55-15.984-7.462-0.469-0.159-1.069 0.084-1.613 0.141 0.056 0.506 0.056 1.022 0.206 1.5 0.966 3.103 3.291 5.1 5.719 7.031 1.697 1.35 3.516 2.278 5.737 2.4 1.284 0.075 2.588 0.262 3.844 0.581 1.669 0.412 3.197 0.178 4.763-0.675zM130.669 237.281c-1.922 0.253-2.156 0.684-1.613 3.084 0.516-0.038 1.059-0.056 1.669-0.094 0-0.769 0.009-1.387 0-1.997 0-0.328-0.037-0.666-0.056-0.984zM130.819 72.459c-0.731 0.281-1.266 0.459-1.772 0.666-0.347 0.131-0.713 0.262-1.031 0.45-0.178 0.094-0.347 0.281-0.412 0.469-0.037 0.094 0.141 0.347 0.291 0.412 0.525 0.216 2.616-1.050 2.925-1.987zM163.041 237.459c0.206 0 0.394 0 0.6-0.009 0.038-0.628 0.084-1.256 0.122-1.875-0.609 0.178-1.228 0.347-2.091 0.6 0.684 0.638 1.022 0.966 1.369 1.284zM128.241 189.281c0.581 0.431 0.984 0.75 1.406 1.059 1.388-0.9 0.384-1.444-0.225-2.147-0.375 0.338-0.712 0.647-1.181 1.087zM91.191 154.809c-0.197 0.075-0.375 0.141-0.563 0.216 0 0.694 0 1.397 0 2.541 0.516-0.459 1.031-0.713 1.022-0.928-0.037-0.609-0.291-1.219-0.459-1.828z"></path>
<path d="M211.181 147.525c-0.122-1.144-0.159-2.297-0.384-3.431-0.9-4.528 0.394-8.897 0.919-13.313 0.169-1.406 2.091-2.747 3.591-2.559 0.984 0.122 2.034 0.338 2.878 0.834 7.491 4.322 15.019 3.488 22.181-0.366 5.972-3.216 11.991-2.925 18.234-1.866 1.228 0.206 2.419 0.609 3.637 0.928 2.072 0.544 3.938 1.444 5.569 2.888 1.519 1.341 3.197 2.466 4.828 3.656 2.231 1.641 3.806 3.684 4.866 6.281 1.228 3.047 3.891 4.631 6.919 5.634 0.675 0.216 1.416 0.412 1.95 0.844 0.337 0.281 0.591 1.153 0.412 1.444-0.253 0.384-1.069 0.731-1.481 0.6-2.325-0.759-4.631-1.575-6.881-2.531-4.791-2.044-9.675-3.787-14.85-4.444-4.425-0.563-8.091 0.966-10.913 4.547-1.059 1.341-2.541 2.334-3.787 3.534-2.475 2.381-5.119 4.509-8.578 5.316-0.328 0.075-0.638 0.281-0.966 0.3-4.341 0.281-8.691 0.666-13.041 0.722-1.444 0.009-2.925-0.806-4.341-1.322-1.172-0.431-2.259-1.116-3.45-1.434-0.928-0.244-2.025-0.309-2.916-0.028-1.003 0.328-1.641 0.122-2.334-0.506-1.519-1.369-2.175-3.141-2.006-5.756zM240.384 148.791c-0.047-0.122-0.084-0.225-0.131-0.347-0.713 0-1.444-0.122-2.109 0.047-0.394 0.094-0.759 0.609-0.975 1.022-0.113 0.206 0.084 0.834 0.225 0.853 0.422 0.084 0.975 0.112 1.313-0.113 0.609-0.375 1.116-0.966 1.669-1.472z"></path>
<path d="M253.95 45.319c-0.056 0.159-0.141 0.525-0.309 0.862-0.938 1.894-1.791 3.844-2.887 5.644-1.059 1.753-2.25 3.45-3.591 4.997-1.838 2.147-3.806 4.2-5.859 6.15-1.622 1.537-3.6 2.559-5.841 2.962-0.197 0.038-0.356 0.131-0.553 0.178-3.216 0.806-5.513 2.278-5.841 6.066-0.216 2.55-1.069 5.072-1.819 7.556-1.097 3.675-3.469 5.906-7.453 6.15-0.675 0.037-1.331 0.169-2.006 0.225-2.494 0.253-4.819 0.9-6.581 2.869-0.412 0.459-0.919 0.863-1.444 1.191-2.025 1.266-3.3 2.934-3.694 5.381-0.122 0.759-1.059 1.791-1.753 1.922s-1.725-0.581-2.344-1.181c-1.575-1.528-3.056-3.169-4.481-4.838-0.666-0.778-1.228-1.734-1.575-2.7-1.584-4.425-3.872-8.353-7.5-11.456-1.856-1.603-3.6-3.337-5.391-5.016-0.544-0.506-0.984-1.116 0-1.575 3.591-1.65 7.181-3.253 11.288-3.009 2.719 0.159 5.466 0.197 8.194 0.178 1.191 0 2.381-0.281 3.591-0.384 2.166-0.206 3.553-1.425 4.238-3.403 0.806-2.363 1.603-4.734 2.175-7.163 0.675-2.841 2.362-4.5 5.128-5.25 3.984-1.087 7.941-1.388 11.934 0.009 1.313 0.459 2.672 0.778 4.022 1.153 4.95 1.369 9.169-0.262 13.012-3.225 1.687-1.284 2.681-3.131 3.131-5.222 0.225-1.097 0.459-2.147 1.941-1.95 1.153 0.159 2.278 1.444 2.278 2.869zM209.1 85.406c-0.131-0.141-0.262-0.291-0.413-0.431-0.816-0.037-1.828-0.431-2.044 0.834-0.056 0.328 0.506 0.759 0.778 1.144 0.553-0.506 1.116-1.022 1.669-1.537zM220.659 81.028c0.084 0.084 0.169 0.169 0.244 0.253 0.506-0.225 1.088-0.384 1.491-0.731 0.281-0.225 0.412-0.722 0.459-1.106 0.028-0.169-0.394-0.553-0.525-0.525-0.375 0.094-0.816 0.291-1.022 0.591-0.309 0.441-0.431 1.022-0.638 1.528z"></path>
<path d="M133.491 0.881c1.388-1.069 2.456-1.116 3.553-0.394 1.116 0.75 2.381 1.35 3.319 2.278 2.888 2.878 5.709 5.822 8.438 8.85 2.409 2.672 3.994 5.756 4.041 9.469 0 0.431 0.056 0.881 0.206 1.275 1.097 2.878 0.197 5.231-1.744 7.416-2.063 2.325-3.141 4.997-1.453 7.912 0.881 1.519 2.278 2.803 3.638 3.956 0.966 0.816 2.259 1.237 3.422 1.828 4.669 2.372 7.041 6.225 7.35 11.4 0.084 1.397 0.141 2.794 0.197 4.181 0.113 3.272-1.997 4.913-5.034 3.722-4.584-1.809-9.366-2.503-14.231-2.747-1.772-0.084-3.563 0.216-5.334 0.122-1.941-0.112-3.853-0.469-5.794-0.712-0.422-0.047-0.853-0.141-1.266-0.084-3.141 0.412-6.291 0.806-9.422 1.275-1.256 0.197-1.734-0.112-1.987-1.481-0.347-1.913 0.028-3.356 1.444-4.65 1.003-0.9 1.819-1.987 2.813-2.897 1.866-1.706 2.756-3.769 2.634-6.281-0.037-0.919-0.084-1.828-0.075-2.747 0.009-1.087-0.384-1.791-1.434-2.241-0.459-0.197-0.938-0.75-1.059-1.219-1.087-4.294-0.469-8.306 2.334-11.841 0.497-0.628 1.172-1.134 1.819-1.622 1.031-0.769 2.072-1.575 3.197-2.203 3.731-2.081 5.728-5.419 6.919-9.356 0.881-2.916 0.206-5.541-1.706-7.809-0.984-1.172-2.231-2.119-3.272-3.253-0.591-0.628-1.013-1.397-1.528-2.147zM127.106 57.872c0.844-0.647 1.481-1.153 2.119-1.65-0.384-0.337-0.9-1.031-1.116-0.947-0.759 0.291-1.425 0.853-2.119 1.313 0.309 0.347 0.6 0.684 1.116 1.284z"></path>
<path d="M98.897 72.291c-0.516 0.45-0.844 0.712-1.144 0.984-1.866 1.65-3.984 3.094-5.55 4.978-2.681 3.253-5.034 6.778-7.519 10.181-0.141 0.197-0.281 0.394-0.459 0.553-3.272 3.197-4.378 7.247-4.575 11.653-0.037 0.844-0.159 1.688-0.244 2.503-1.369 0.197-2.222-0.3-2.85-1.266-1.106-1.688-2.222-3.356-3.3-5.063-0.797-1.266-1.5-2.578-2.25-3.862-1.237-2.147-3.178-3.234-5.55-2.869-7.172 1.144-13.753-4.706-15.441-12.609-0.356-1.688 0.384-3.591 0.553-5.381 0.253-2.531 0.506-5.044 0.609-7.584 0.028-0.562-0.441-1.284-0.9-1.725-3.122-3.009-6.225-6.056-10.687-7.097-0.628-0.141-1.134-0.778-1.819-1.275 0.478-0.516 0.769-1.116 1.191-1.237 2.663-0.694 5.334-1.425 8.044-1.866 1.444-0.244 2.972 0.141 4.453 0.084 2.803-0.112 5.438 0.497 7.987 1.603 1.453 0.628 2.878 1.35 4.378 1.866 2.166 0.759 3.366 2.278 3.956 4.406 0.609 2.212 1.172 4.462 1.922 6.628 0.675 1.941 1.003 1.959 3.009 1.744 4.734-0.525 9.45-1.097 14.194-1.444 1.087-0.084 2.287 0.506 3.309 1.050 1.013 0.525 1.809 1.453 2.794 2.044 1.453 0.862 3.009 1.584 4.528 2.372 0.328 0.178 0.675 0.328 1.322 0.628z"></path>
<path d="M238.444 227.287c-0.966 0.347-2.813 1.050-4.697 1.734-2.925 1.059-5.794 2.381-8.803 3.056-1.481 0.328-3.356-0.309-4.847-0.975-3.675-1.603-6.15-4.331-6.919-8.428-0.694-3.722-3.647-6.047-7.5-5.878-2.213 0.094-4.416 0.3-6.619 0.516-3.506 0.347-6.366-1.238-8.381-3.722-1.706-2.109-2.634-4.903-1.725-7.819 0.478-1.519 1.566-2.456 3-3.122 1.416-0.666 2.756-1.5 4.144-2.278 0.338-0.197 0.647-0.459 1.003-0.553 3.787-1.069 6.281-4.078 9.281-6.291 1.219-0.891 2.372-1.491 3.844-1.734 0.694-0.122 1.538-0.628 1.894-1.219 0.694-1.172 1.641-1.472 2.662-0.919 1.453 0.797 3 1.65 4.059 2.869 1.444 1.641 2.625 3.572 3.619 5.522 0.459 0.891 0.412 2.166 0.281 3.225-0.581 4.481 1.397 8.044 4.584 10.641 1.613 1.313 4.341 1.228 6.534 1.866 2.662 0.769 5.316 1.566 7.922 2.503 0.966 0.347 1.875 1.050 2.578 1.809 4.041 4.341 7.041 9.216 7.434 15.347 0.009 0.244 0.084 0.525-0.028 0.713-0.384 0.628-0.834 1.2-1.256 1.791-0.478-0.525-1.284-1.003-1.397-1.584-0.3-1.734-0.506-3.441-2.119-4.538-2.203-1.537-4.716-2.409-8.531-2.541z"></path>
<path d="M44.559 228.3c1.697 0.291 3.384 0.6 5.072 0.862 0.712 0.113 1.453 0.291 2.147 0.169 3.506-0.581 7.041-1.031 10.463-1.941 4.228-1.116 6.872-3.9 7.219-8.484 0.037-0.478 0.169-0.966 0.122-1.434-0.356-3.947 1.725-7.031 3.741-10.041 0.778-1.153 2.194-1.959 3.45-2.681 0.975-0.553 2.156-0.797 3.272-1.069 1.95-0.478 3.769-0.938 5.569-2.156 1.828-1.238 4.425-1.406 6.712-1.875 1.256-0.253 2.625-0.384 3.863-0.169 3.347 0.581 5.203 2.925 6.188 5.981 0.516 1.584 0.731 3.272 1.069 4.922 0.037 0.178 0.075 0.394 0.028 0.563-0.713 2.194-1.275 4.425-2.194 6.534-1.097 2.494-3.309 3.9-5.841 4.566-4.013 1.050-6.947 3.347-9.028 6.872-0.834 1.397-1.641 2.831-3.591 3.019-0.469 0.047-0.9 0.778-1.313 1.238-2.372 2.719-5.1 4.913-8.813 5.391-3.394 0.441-6.769 0.478-10.106-0.694-2.709-0.947-5.625-1.284-8.316-2.259-2.728-1.003-5.316-2.419-7.959-3.694-1.397-0.666-1.922-1.725-1.772-3.619z"></path>
<path d="M144.666 239.072c1.828 0.113 3.656 0.113 5.466 0.384 0.862 0.131 1.819 0.609 2.456 1.219 2.166 2.081 3.253 4.866 4.172 7.631 0.291 0.853-0.084 2.081-0.506 2.972-0.628 1.331-1.566 2.531-2.372 3.778-1.669 2.597-1.397 4.931 0.797 7.134 0.881 0.891 1.819 1.744 2.541 2.747 2.662 3.675 2.091 7.622-1.472 10.397-2.644 2.072-5.316 4.116-8.025 6.113-4.744 3.506-3.938 8.831-1.341 12.225 1.069 1.397 1.978 2.934 2.831 4.462 0.262 0.469 0.141 1.172 0.197 1.753-0.638-0.009-1.369 0.197-1.875-0.056-1.181-0.591-2.325-1.322-3.366-2.147-2.081-1.613-4.059-3.347-6.122-4.959-2.55-1.978-4.041-4.622-4.847-7.659-0.459-1.697 0.394-3.15 1.284-4.584 2.213-3.572 3.291-7.462 2.7-11.691-0.366-2.587-1.875-4.575-3.684-6.375-2.091-2.109-4.153-4.256-6.188-6.441-1.153-1.228-0.797-4.537 0.628-5.438 0.881-0.553 1.894-0.938 2.869-1.322 2.681-1.022 4.613-2.803 5.4-5.588 1.472-5.166 2.813-5.006 7.041-4.65 0.478 0.038 0.966 0.056 1.444 0.084-0.009 0.038-0.009 0.009-0.009-0.009z"></path>
</svg>
