<!-- Generated by IcoMoon.io -->
<svg version="1.1" xmlns="http://www.w3.org/2000/svg" width="300" height="300" viewBox="0 0 300 300">
<title>fighters-priest</title>
<path d="M112.144 290.025c2.381-10.022 5.062-19.8 6.956-29.775 0.825-4.528 0.094-9.338-0.094-14.006-0.047-1.847-0.094-3.844-0.825-5.447-1.406-2.972-3.309-5.737-5.156-8.466-0.975-1.463-2.287-2.728-3.553-3.938-3.797-3.694-8.222-3.694-12.938-2.091-4.716 1.65-9.975-0.384-11.625-4.716-0.581-1.509-0.441-3.309-0.441-5.006 0.094-6.619-1.266-12.891-3.891-18.919-0.487-1.172-1.069-2.381-1.894-3.356-4.866-5.644-7.153-12.206-7.444-19.65-0.094-3.262-0.731-6.516-0.928-9.825-0.047-1.069 0.197-2.287 0.628-3.262 1.219-2.531 2.578-5.006 3.984-7.444 0.384-0.684 1.219-1.172 2.241-2.091 0-2.428-0.094-5.4 0-8.419 0.15-3.45 0.581-6.909 0.581-10.359 0-2.287-0.487-4.622-0.778-7.003 1.069 0.825 2.184 1.706 3.403 2.531 1.65 1.172 3.356 1.894 5.597 1.556 1.65-0.291 3.45 0.291 5.156 0.731 8.513 2.044 17.222 1.406 25.828 1.556 2.972 0.047 5.934 0.628 8.906 0.731 1.406 0.047 2.869-0.487 4.331-0.581 1.219-0.094 2.484 0.047 3.694 0.094 0 0.244 0 0.534 0 0.778-0.534 0.197-1.069 0.384-1.997 0.684 0.441 0.244 0.684 0.534 0.975 0.581 2.578 0.488 5.156 1.116 7.781 1.359 1.997 0.197 4.041-0.094 6.028-0.337 3.553-0.441 7.153-0.975 10.706-1.406 1.266-0.15 2.578-0.244 3.844-0.337 5.203-0.384 10.406-0.872 15.619-1.172 2.916-0.197 5.934-0.384 8.85-0.047 6.131 0.731 12.113 0.384 18.141-1.022 10.116-2.334 20.531-3.647 30.112-7.884 1.706 1.603 2.334 6.422 1.359 9.047-0.384 1.022-0.534 2.137-0.778 3.206-0.534 2.287-1.359 4.575-1.462 6.909-0.197 5.738 0.244 11.869 3.984 16.247 5.447 6.469 3.797 12.506 0.825 18.919-3.844 8.419-7.931 16.781-11.531 25.341-1.603 3.844-2.241 8.128-3.403 12.159-0.628 2.138-1.406 4.228-2.241 6.328-0.628 1.603-1.894 1.556-3.403 1.172-2.728-0.684-5.494-1.509-8.222-1.463-4.819 0.094-8.85 2.531-11.578 6.375-1.219 1.65-1.022 4.284-1.8 6.328-1.8 4.913-0.975 9.928-0.684 14.888 0.628 11.428 4.041 22.284 7.641 33.028 0.384 1.219 0.487 2.044-0.628 2.916-4.284 3.309-8.419 6.713-12.694 9.928-1.116 0.825-2.728 0.975-3.984 1.65-5.841 3.263-12.159 2.625-18.441 2.625-6.328 0-12.647 0.337-18.919-0.094-4.866-0.338-9.778-1.219-14.447-2.531-7.050-1.997-13.912-4.575-20.869-6.956-0.338 0.15-0.581-0.094-0.534-0.047zM207.347 177.75c-0.15 0-0.338-0.047-0.488-0.047 0-1.706 0.047-3.403 0-5.109-0.15-5.494-4.087-8.85-9.487-7.931-3.019 0.534-5.981 1.266-8.906 2.138-5.203 1.603-10.162 3.797-13.716 8.222-2.531 3.113-2.138 6.759-1.603 10.406 0.094 0.534 0.684 1.116 1.172 1.463 1.359 0.975 2.822 1.894 4.284 2.728 5.353 3.066 11.381 2.916 17.222 3.206 2.625 0.15 5.447-1.219 7.931-2.381 1.894-0.872 2.625-2.728 2.531-5.109-0.094-2.531 0.684-5.062 1.069-7.584zM115.5 193.322c0.394-0.047 0.825-0.094 1.219-0.047 6.084 0.872 11.184-1.894 16.444-4.134 0.684-0.291 1.509-0.872 1.8-1.509 1.8-3.694 2.287-11.625-3.263-14.447-3.506-1.8-7.003-3.694-10.65-5.156-2.381-0.975-5.063-1.509-7.641-1.706-1.95-0.15-3.984 0.628-5.981 0.684-1.706 0.047-2.531 0.928-3.45 2.241-3.263 4.716-3.45 9.975-2.241 15.131 1.406 5.888 4.425 9.825 10.847 9 0.975-0.15 1.95-0.047 2.916-0.047zM155.241 227.372c0.684 0.872 0.975 1.65 1.556 2.044 5.4 3.506 9.094 3.309 10.997-1.847 0.731-2.044 0.441-4.716-0.094-6.909-1.069-4.622-2.672-9.094-3.891-13.669-1.172-4.528-4.762-6.028-8.606-7.153-1.8-0.534-8.316 3.019-9.384 4.716-4.425 7.35-6.084 15.375-5.644 23.888 0.094 2.484 1.172 3.45 3.694 3.45 4.134 0.047 8.072-0.487 11.381-4.528z"></path>
<path d="M65.588 86.053c2.775 0 5.494-0.047 8.269 0.047 0.581 0 1.172 0.384 1.753 0.581 1.706 0.581 3.356 1.172 5.063 1.8 0.581 0.197 1.116 0.487 1.706 0.731 1.359 0.581 2.775 1.069 4.134 1.706 0.628 0.337 1.172 0.928 2.241 1.219-1.313-2.138-2.288-4.622-3.938-6.422-4.134-4.472-8.175-8.85-10.162-14.691-0.534-1.65-0.825-3.403-0.928-5.156-0.441-8.175-2.334-15.806-8.175-21.891-2.775-2.916-5.888-5.494-8.709-8.663 3.206 1.556 6.619 2.869 9.628 4.669 4.959 3.019 10.116 5.934 13.331 11.044 2.334 3.75 4.622 7.584 6.562 11.531 2.184 4.472 5.25 8.128 9.488 10.753 0.975 0.581 2.241 0.825 3.403 0.928 0.338 0.047 1.172-0.928 1.116-1.359-0.291-4.134-0.534-8.316-1.172-12.45-0.394-2.428-1.509-4.716-2.241-6.863 3.263 0.684 5.353 3.553 7.106 6.806 0.094 0.197 0.197 0.441 0.244 0.684 0.581 1.753 1.359 3.403 3.45 3.356 1.313-0.047 2.972-3.891 2.578-5.494-0.872-3.891-2.822-6.469-6.759-8.222-7.641-3.45-14.934-7.641-22.331-11.578-9.094-4.763-16.491-11.428-21.984-20.044-3.891-6.028-3.694-12.45-1.219-19.069 0.197 0.731 0.487 1.406 0.534 2.138 1.069 8.269 5.494 13.912 12.984 17.362 11.625 5.306 23.156 10.753 34.734 16.106 4.134 1.95 8.316 3.938 13.181 3.6 0.928-4.284-1.894-6.806-4.472-9-1.753-1.509-4.425-1.95-6.666-2.916-3.112-1.313-5.784-3.019-7.491-6.131-1.022-1.894-3.647-2.728-3.891-5.306-0.244-2.334-0.487-4.669-0.684-6.956 0.197-0.047 0.441-0.094 0.628-0.094 0.628 1.116 1.116 2.381 1.95 3.356s2.091 1.556 2.972 2.428c2.194 2.241 4.912 2.869 7.884 3.113 1.95 0.15 4.088 0.244 5.841 1.069 4.669 2.138 10.022 2.916 13.378 7.641 1.219 1.753 3.844 2.428 5.447 3.938 3.694 3.6 7.247 7.397 10.753 11.184 1.556 1.65 3.263 2.531 5.55 2.288 2.822-0.244 3.797-1.509 2.531-4.228-1.069-2.334-2.334-4.622-3.891-6.666-2.531-3.356-5.55-6.328-9.534-8.128 4.134 0.488 8.419 0.581 12.403 1.603 3.844 1.022 7.050 3.647 9.441 6.909 4.762 6.619 9.197 13.472 14.006 19.997 1.359 1.847 3.506 3.45 5.644 4.228 3.75 1.406 7.153-1.894 5.981-5.841-1.116-3.694-2.972-7.2-4.378-10.556 6.516 2.775 10.162 8.466 12.797 15.178 2.822 7.153-0.928 13.575-2.241 20.241 2.625 0.581 6.619-1.172 8.222-2.775 3.75-3.694 3.984-8.372 4.087-13.134 0-0.975 0.384-1.95 0.581-2.869 0.244 0 0.534-0.047 0.778-0.047 0.441 1.172 0.872 2.334 1.359 3.45 3.019 6.422 2.728 13.284 2.241 19.997-0.197 2.484-2.241 4.866-3.45 7.294-0.441 0.825-0.872 1.706-1.509 2.916 3.019 0 5.353-1.069 7.294-2.484 3.019-2.184 4.716-5.353 5.063-9.197 0.094-1.069 1.022-2.044 1.706-3.356 3.553 5.25 3.159 10.313 2.625 15.516-0.534 5.597-4.866 8.606-7.247 12.506 1.022 1.753 1.894 3.553 3.066 5.109 0.581 0.778 1.65 1.116 2.672 1.8-1.022 0.291-1.8 0.684-2.625 0.684-1.603 0.047-3.309 0.15-4.819-0.244-1.847-0.441-3.553-1.359-5.306-2.137-0.628-0.291-1.406-0.684-1.706-1.266-1.069-1.95-2.775-2.381-4.716-2.869-2.334-0.581-4.575-1.753-7.153-2.775 1.603-1.116 2.625-1.8 3.309-2.288-2.044-1.069-4.088-1.894-5.887-3.159-2.578-1.8-0.197-4.087-0.047-6.422-4.181 1.022-5.934-2.484-8.559-4.228-4.041-2.672-8.175-4.716-13.088-4.959-0.975-0.047-1.997-0.581-2.916-1.022-4.716-2.137-5.981-2.381-11.869-1.95 1.359 0.534 2.241 0.872 3.113 1.219-0.047 0.15-0.047 0.291-0.094 0.441-1.509-0.244-3.019-0.487-4.528-0.684-2.091-0.291-4.284-0.928-6.328-0.731-7.2 0.534-14.006 2.775-19.697 7.106-2.531 1.894-4.819 1.847-7.444 2.184-1.313 0.15-2.775 0.441-3.844 1.116-3.891 2.381-7.688 4.959-11.428 7.584-1.509 1.069-2.091 2.484-2.138 4.622-0.047 1.997-1.65 4.041-2.775 5.981-0.975 1.706-2.241 3.309-3.356 4.912-2.044 2.869-3.797 6.028-7.584 7.003-0.441 0.094-0.731 0.684-1.172 0.825-1.603 0.534-3.403 1.65-4.866 1.313-2.184-0.487-3.113-2.672-3.019-4.959 0.15-3.356-1.463-6.084-3.263-8.662-1.556-2.241-3.553-4.228-5.55-6.516 2.428-1.069 4.669-0.928 6.516 0.047 1.894 0.975 3.45 2.625 5.447 3.75-1.8-3.403-3.45-6.909-5.353-10.266-1.894-3.263-4.284-6.028-8.128-7.106-1.509-0.441-2.972-0.975-4.425-1.509-0.094 0-0.047-0.15-0.047-0.291z"></path>
<path d="M105.188 112.275c3.506-0.778 7.003-1.556 10.556-2.334 4.378-0.928 8.559-1.116 12.647 1.65 1.65 1.116 4.088 1.069 6.178 1.556 0.094-0.244 0.15-0.487 0.244-0.778-0.928-0.731-2.044-1.313-2.625-2.241-0.441-0.684-0.628-2.334-0.291-2.578 1.359-0.975 3.019-1.556 4.575-2.241 1.95-0.872 4.528-0.15 5.887-2.428 0.094-0.197 0.338-0.384 0.534-0.441 5.25-1.022 10.65-2.531 15.909-1.116 2.728 0.731 4.913 3.403 7.491 5.25-1.462 2.241-2.625 4.087-3.844 5.934 0.094 0.15 0.15 0.291 0.244 0.441 0.872-0.487 1.753-0.928 2.578-1.463 1.8-1.172 3.45-2.578 5.4-3.553 6.375-3.206 13.134-2.672 19.941-1.95 2.334 0.244 4.762 0.15 7.003 0.731 2.184 0.581 4.181 1.8 6.225 2.775 0.338 0.15 0.684 0.628 1.022 0.628 3.75-0.094 6.422 2.484 9.534 3.797 3.159 1.359 5.55 3.75 7.247 7.2-1.753 0.684-3.262 1.406-4.866 1.847-4.284 1.116-8.559 2.091-12.891 3.066-1.022 0.244-2.091 0.047-3.113 0.197-2.578 0.441-5.203 0.975-7.781 1.463-3.066 0.534-5.981 1.95-9.197-0.094-1.462-0.928-3.75-0.534-5.597-0.975-1.116-0.291-2.241-0.872-3.262-1.463-1.556-0.872-2.972-2.138-4.622-2.775-2.728-1.022-5.644-1.706-8.466-2.531-0.291-0.094-0.628-0.338-0.684-0.581-0.581-2.091-2.241-1.753-3.75-1.8-2.091-0.094-4.284-0.487-4.866 2.484-0.047 0.197-0.581 0.337-1.172 0.244 0.581-0.731 1.116-1.463 2.288-2.916-4.472-0.337-8.269-0.628-12.066-0.928 0 0.15 0 0.291-0.047 0.441 2.869 1.463 5.784 2.916 9 4.575-1.116 1.313-1.997 2.288-3.019 3.45 8.606-2.672 16.106 0.731 23.784 3.309-7.294 1.022-13.528 5.981-21.309 5.109-2.381-0.244-4.866 0.778-7.35 1.219-0.684 0.15-1.406 0.197-2.728 0.384 2.775-2.184 1.069-3.938 0.047-5.4-0.487-0.684-2.184-0.684-3.356-0.628-6.028 0.197-12.113 0.778-18.141 0.581-5.306-0.15-10.65-0.731-15.806-1.753-3.309-0.684-6.422-2.484-9.488-4.041-0.534-0.291-0.928-2.044-0.581-2.625 1.509-2.775 3.647-5.063 6.666-6.272 2.044-0.825 4.088-1.603 6.131-2.428h-0.244z"></path>
<path d="M190.219 102.891c-4.669 0.384-9.928 0.441-14.981 1.359-4.425 0.825-7.828-0.975-11.484-2.625-0.731-0.337-1.509-1.069-1.8-1.847-0.928-2.381-1.894-4.819-2.381-7.294-0.534-2.578 0.825-3.984 3.506-4.472 1.406-0.244 2.916-0.487 4.181-1.069 3.45-1.556 6.956-1.116 10.406-0.384 1.172 0.244 2.334 0.928 3.309 1.706 2.091 1.753 4.087 3.647 6.084 5.55 1.359 1.313 3.159 2.428 1.556 5.006-0.384 0.684 0.975 2.484 1.603 4.087z"></path>
<path d="M162.787 84.544c-1.116 1.022-2.091 1.8-2.916 2.728-1.706 1.847-3.75 3.506-4.284 6.225-0.15 0.731-0.731 1.603-1.359 1.894-3.066 1.359-6.131 2.728-9.338 3.694-1.022 0.291-2.531-0.487-3.6-1.116-2.287-1.313-4.472-2.775-6.619-4.284-2.241-1.603-1.997-4.134-0.581-6.272 2.672-3.938 6.956-3.647 10.65-4.866 1.069-0.338 2.334-0.15 3.309-0.534 5.4-2.137 9.872 0.534 14.737 2.531z"></path>
<path d="M107.034 102.984c0.684-4.088 3.891-5.4 6.666-7.153 1.753-1.116 3.553-2.184 5.353-3.309 2.531-1.556 9.441-1.172 12.066 0.731 0.244 0.197 0.487 0.384 0.778 0.581 3.694 2.728 3.694 3.797-0.047 6.666-3.403 2.625-7.397 3.263-11.484 3.891-1.65 0.244-3.356 0.441-5.006 0.778-3.206 0.684-5.981 0-8.316-2.184z"></path>
<path d="M105.234 112.228c-0.928-0.338-1.847-0.731-2.775-1.069 0.534-0.872 1.022-1.847 1.603-2.672 2.137-2.972 4.622-3.066 7.584-1.022 0.731 0.487 2.091 0.094 3.159 0.094 0.094 0.244 0.244 0.441 0.337 0.684-1.219 0.684-2.381 1.463-3.647 1.95-2.091 0.778-4.228 1.406-6.328 2.091 0 0 0.047-0.047 0.047-0.047z"></path>
<path d="M126.206 89.025c1.022-0.534 2.091-1.069 3.647-1.847 0 1.022 0.15 2.091-0.047 2.138-1.022 0.384-2.137 0.487-3.263 0.731-0.094-0.337-0.244-0.684-0.337-1.022z"></path>
</svg>
