<!-- Generated by IcoMoon.io -->
<svg version="1.1" xmlns="http://www.w3.org/2000/svg" width="300" height="300" viewBox="0 0 300 300">
<title>fighters-mount</title>
<path d="M174.694 20.625c0.628 0 1.266 0 1.903 0 0.497 0.103 1.003 0.272 1.509 0.319 2.362 0.253 4.734 0.431 7.097 0.712 1.969 0.225 2.306 0.778 2.184 2.7-0.084 1.238 0.038 2.503 0.188 3.759 0.159 1.406 0.581 2.794 0.656 4.209 0.403 7.003 0.741 13.997 1.050 21.009 0.159 3.637 1.341 4.622 4.978 4.228 2.456-0.272 4.959-0.413 7.425-0.45 3.262-0.066 6.553 0.169 9.806 0.019 7.762-0.384 15.506-0.938 23.259-1.406 1.153-0.066 2.306-0.019 2.7 1.359 0.413 1.491-0.478 3.262-1.8 3.759-1.875 0.712-3.778 1.331-5.625 2.119-0.609 0.272-1.041 0.9-1.575 1.359 0.497 0.412 0.938 0.956 1.509 1.209 2.513 1.087 5.156 1.922 7.566 3.188 2.559 1.341 5.156 1.987 8.034 1.903 4.134-0.122 8.231 0.131 12.206 1.444 1.050 0.338 2.091 0.544 1.903 2.006s-0.9 2.203-2.428 2.391c-1.716 0.206-3.412 0.628-5.072 1.134-1.734 0.525-2.053 2.203-0.609 3.347 1.097 0.872 2.353 1.65 3.656 2.138 2.869 1.069 5.775 2.053 8.719 2.803 1.406 0.375 3.084 0.497 4.472 0.103 2.578-0.75 4.8-0.216 6.966 1.041 1.875 1.088 2.053 1.669 1.406 3.769-0.703 2.241-0.234 2.766 2.137 2.953 2.728 0.206 5.447 0.553 8.166 0.9 0.441 0.056 1.087 0.459 1.153 0.816 0.591 2.606 1.35 5.213 1.509 7.866 0.188 3.019 0.103 3.206 3.131 3.328 3.066 0.122 5.325 2.616 5.1 5.681-0.141 2.137-0.169 4.294-0.525 6.394-0.319 1.903-0.019 3.647 0.581 5.4 1.256 3.759 1.528 7.622 1.341 11.531-0.15 2.888-0.309 5.756-0.525 8.644-0.272 3.506-0.394 7.031-1.022 10.481-0.459 2.55-1.8 4.931-2.475 7.462-2.119 7.931-6.253 14.578-11.981 20.456-6.581 6.75-14.391 11.438-23.222 14.316-7.059 2.306-14.353 3.891-21.572 5.691-7.256 1.819-14.644 1.866-22.050 1.509-1.387-0.066-2.119-0.713-2.353-2.072-0.309-1.847 0.459-3.047 2.494-3.544 6.375-1.584 12.506-3.788 18.478-6.506 5.091-2.306 10.35-4.247 15.422-6.591 9.9-4.603 18.028-11.137 21.544-21.891 1.406-4.256 2.194-8.775 2.7-13.247 0.384-3.413 0.422-7.050-0.356-10.378-1.388-5.841-2.372-11.944-6.347-16.837-1.087-1.341-2.156-2.691-3.394-3.863-2.269-2.138-5.372-2.306-8.184-3.188-6.188-1.941-12.413-1.463-18.609 0.056-1.266 0.319-2.072 1.2-1.978 2.513 0.216 3.028 0.375 6.094 0.872 9.094 0.525 3.216 1.706 6.328 2.091 9.544 0.609 5.072 2.906 9.291 5.85 13.266 1.659 2.259 4.050 3.853 6.628 4.322 3.169 0.591 6.272 1.219 9.338 2.269 4.303 1.481 6.141 5.363 3.966 9.309-3.881 7.031-10.744 10.669-17.175 14.766-0.037 0.028-0.094 0.038-0.15 0.056-2.006 0.628-3.3 0.206-4.491-1.528-2.616-3.806-6.122-6.506-10.388-8.241-2.447-0.984-4.903-1.941-7.378-2.869-6.441-2.438-12.713-5.137-18.15-9.497-1.762-1.406-3.713-2.597-5.662-3.741-5.222-3.075-9.506-7.181-13.275-11.841-1.031-1.275-1.659-2.916-2.259-4.481-0.384-0.984-0.834-1.509-1.913-1.444-0.684 0.037-1.378-0.028-2.062 0.066-1.575 0.216-1.978 0.947-1.359 2.391 2.203 5.128 5.353 9.581 9.778 13.022 4.050 3.131 8.203 6.141 12.319 9.169 2.147 1.566 2.119 2.709-0.056 4.181-0.675 0.45-1.322 1.088-1.697 1.8-1.031 1.95-0.544 4.753 0.938 6.394 0.572 0.628 1.134 1.256 1.659 1.903 1.781 2.147 1.641 4.556-0.338 6.469-2.803 2.7-5.522 5.503-8.419 8.1-5.063 4.556-9 10.059-13.153 15.366-0.394 0.516-0.806 1.209-0.806 1.819-0.019 2.475-1.406 3.9-3.328 5.184-0.947 0.628-1.762 1.631-2.306 2.653-0.778 1.491-0.272 2.175 1.406 2.203 5.972 0.103 11.953 0.253 17.925 0.234 6.234 0 12.459-0.103 18.694-0.234 5.916-0.122 11.831-0.356 17.747-0.497 1.172-0.028 1.866-0.356 1.894-1.716 0.056-2.391-0.019-2.531-2.494-2.55-0.375 0-0.75 0-1.116-0.084-1.191-0.272-1.809-0.975-1.8-2.241 0.019-1.2 0.291-2.213 1.697-2.466 2.334-0.422 4.659-0.938 7.022-1.2 0.984-0.103 2.194 0.094 3 0.619 2.231 1.481 4.125 1.153 6.056-0.478 2.222-1.866 4.762-3.019 7.641-3.6 2.784-0.572 5.541-1.341 8.231-2.241 3.253-1.069 6.45-2.325 9.647-3.562 2.353-0.9 2.522-0.853 3.384 1.556 0.272 0.741 0.45 1.528 0.769 2.241 0.778 1.697 0.403 2.953-1.134 4.078-1.65 1.209-3.319 2.494-4.697 4.012-1.134 1.256-2.091 2.784-2.728 4.35-0.75 1.838-0.159 2.531 1.8 2.662 0.844 0.056 1.688 0.038 2.541 0.028 6.188-0.084 12.356-0.197 18.544-0.272 1.828-0.019 3.647 0.084 5.475 0.188 0.375 0.028 1.003 0.309 1.031 0.525 0.15 1.275 0.525 2.7 0.103 3.806-0.516 1.378-1.556 2.681-2.672 3.684-3.75 3.384-7.397 6.966-11.522 9.863-12.713 8.972-25.584 17.766-39.694 24.497-4.509 2.147-9.188 3.966-13.884 5.653-3.656 1.322-7.547 2.016-11.222 3.328-13.509 4.791-27.487 7.406-41.681 9.037-2.353 0.272-4.762 0.084-7.125 0.272-4.416 0.338-8.813 0.816-13.219 1.191-1.997 0.169-3.984 0.225-5.981 0.319-2.963 0-5.916 0-8.878 0-0.412-0.084-0.806-0.197-1.237-0.253-4.406-0.591-8.803-1.134-13.191-1.762-11.475-1.65-22.556-4.837-33.675-8.072-15.937-4.622-31.003-11.016-44.803-20.269-4.697-3.15-9.159-6.609-13.809-9.797-6.3-4.322-11.625-9.75-17.241-14.869-0.15-0.131-0.253-0.319-0.412-0.525 4.378-1.65 8.803-2.447 13.387-1.978 1.716 0.169 2.803-0.459 3.619-1.791-0.609-1.444-1.762-1.941-3.187-1.959-1.266-0.028-2.55 0.019-3.797-0.169-0.909-0.131-1.772-0.591-2.953-1.012 0.797-0.731 1.2-1.256 1.716-1.584 2.7-1.659 5.344-3.45 8.184-4.809 1.659-0.806 3.666-1.191 5.494-1.2 1.134 0 2.812 0.778 3.3 1.697 1.341 2.503 3 2.794 5.325 1.734 0.337-0.141 0.731-0.141 1.087-0.197 1.378-0.234 2.334-0.975 2.7-2.344 0.553-2.091 1.163-4.153 1.538-6.262 0.356-1.978 0.966-3.731 2.391-5.213 5.953-6.216 11.419-12.741 15.966-20.137 5.344-8.691 11.578-16.809 17.212-25.322 1.913-2.906 3.225-6.234 4.678-9.431 0.609-1.341-0.019-2.297-1.509-2.494-1.509-0.197-3.056-0.187-4.584-0.169-3.103 0.019-4.125-0.872-4.622-3.938-0.581-3.534 0.544-6.647 2.147-9.684 1.2-2.259 0.881-3.787-0.75-5.775-0.553-0.666-0.9-1.659-0.966-2.531-0.159-2.091-0.797-2.569-2.775-1.697-0.581 0.253-1.097 0.628-1.641 0.956-6.084 3.703-12.103 7.509-18.272 11.1-3.778 2.194-7.734 4.116-11.597 6.113-1.031 0.544-1.491 1.331-1.697 2.475-0.103 0.6-0.666 1.463-1.153 1.566-0.591 0.122-1.612-0.253-1.959-0.75-0.844-1.256-1.65-2.625-2.053-4.059-1.134-4.116-3.291-7.734-5.269-11.447-1.294-2.428-2.484-2.784-5.091-1.744-3.431 1.378-6.262 3.684-8.372 6.731-0.947 1.359-2.091 2.006-3.619 1.491-1.875-0.619-3.694-1.444-5.981-2.372 2.616-1.378 2.728-3.469 2.428-5.794 2.728 0.797 4.913 0.263 6.375-2.053 1.134-1.791 2.428-3.047 4.762-3.131 1.547-0.056 1.941-1.153 1.228-2.475-1.266-2.344-3.581-3.638-6.009-3.244-4.116 0.675-5.559 1.425-5.662 4.65-0.028 0.881-0.553 1.069-1.294 0.769-0.441-0.169-0.863-0.413-1.294-0.581-2.034-0.778-3.45 0.028-3.806 2.147-0.084 0.459 0.019 1.069-0.253 1.378-0.375 0.441-1.153 1.088-1.491 0.947-1.341-0.544-2.897-1.069-3.75-2.109-1.275-1.556-2.175-3.469-3.009-5.334-1.031-2.325-0.666-4.547 0.797-6.722 1.809-2.719 3.356-5.606 5.072-8.372 0.909-1.481 1.781-3.028 2.944-4.284 3.019-3.244 5.625-6.562 7.556-10.706 2.372-5.044 4.969-9.966 6.816-15.253 0.197-0.572 0.553-1.087 0.834-1.594 1.809 0.375 1.341 1.725 1.594 2.794 0.188 0.788 0.478 1.884 1.069 2.194 1.022 0.572 1.678-0.384 2.184-1.256 0.581-1.003 1.528-1.172 2.456-0.694 0.581 0.291 1.041 0.881 1.453 1.406 3.544 4.603 7.069 9.206 10.556 13.847 0.694 0.938 1.453 1.847 2.7 1.594 2.119-0.431 4.2-1.069 6.478-1.659-0.553-0.806-0.844-1.237-1.162-1.659-3.778-5.081-7.584-10.134-11.353-15.225-2.212-2.972-2.25-6.609-0.169-9.656 1.641-2.4 3.328-4.753 4.959-7.144 0.553-0.806 1.162-1.425 2.203-1.022 1.219 0.478 0.712 1.425 0.572 2.297-0.431 2.578-0.881 5.184-1.237 7.781-0.056 0.384 0.216 0.947 0.525 1.191 0.225 0.169 0.947 0.084 1.125-0.131 1.237-1.603 2.728-1.134 4.322-0.741 2.766 0.684 3.863 0.216 5.541-2.119 2.091-2.916 4.125-5.859 6.3-8.728 0.731-0.956 1.781-1.659 2.7-2.475 0.225 0.103 0.45 0.225 0.684 0.328-0.187 1.172-0.272 2.372-0.572 3.516-0.647 2.531-1.509 5.025-2.072 7.575-0.384 1.734 1.003 2.794 2.606 2.025 1.022-0.478 1.913-1.303 2.7-2.119 2.981-3.122 5.934-6.3 8.859-9.497 1.069-1.172 2.241-1.444 3.966-0.712-0.403 0.984-0.797 1.922-1.163 2.869-0.778 1.987-1.697 3.947-2.231 6.009-0.159 0.628 0.553 2.006 1.172 2.241 2.259 0.9 4.622 1.294 7.134 0.816 1.406-0.272 2.916-0.122 4.359-0.084 1.472 0.056 2.916 0.3 4.388 0.291 2.475-0.019 4.941-0.225 7.406-0.253 1.472-0.019 3.019 0.487 4.406 0.197 2.541-0.525 4.444 0.731 6.544 1.509-4.153 11.728-19.491 31.209-28.763 38.653-2.137 1.716-4.050 3.684-6.169 5.456-3.478 2.906-7.031 5.719-10.556 8.569-0.928 0.75-1.781 0.619-2.709-0.122-0.553-0.441-1.284-0.909-1.941-0.919-2.306-0.028-4.641 0.056-6.938 0.291-0.553 0.056-1.087 0.778-1.547 1.266-0.609 0.628-1.125 1.341-1.678 2.025-0.328-0.872-0.675-1.744-1.003-2.606-0.056-0.131 0-0.319 0.019-0.478 0.281-4.622 0.553-9.244 0.844-13.866 0.094-1.584-0.272-1.922-1.809-1.556-1.284 0.3-2.559 0.647-3.834 0.984-1.069 0.272-1.537 0.938-1.491 2.091 0.131 2.794 0.131 5.587 0.281 8.391 0.272 5.456 0.272 5.438-4.538 8.034-1.303 0.713-2.419 0.581-3.422-0.478-1.491-1.566-3.066-3.075-4.444-4.734-1.294-1.566-2.916-2.194-4.866-2.147-1.594 0.056-2.016 0.731-1.069 1.969 2.447 3.159 4.988 6.244 7.538 9.328 0.881 1.069 2.062 1.556 3.516 1.463 1.387-0.084 2.447 0.525 2.981 1.866 0.862 2.156 1.106 2.297 3.216 1.219 5.728-2.944 11.409-5.944 17.1-8.925 0.75-0.394 1.547-0.75 2.316-1.125-0.272 0.675-0.684 1.050-1.153 1.359-1.641 1.069-3.328 2.053-4.931 3.159-0.769 0.525-1.537 1.153-2.062 1.913-0.816 1.191-0.291 3.028 0.881 3.075 1.641 0.066 3.581 0.291 4.903-0.431 4.481-2.447 9.084-4.875 13.031-8.081 14.597-11.803 27.122-25.5 36.516-41.841 1.406-2.447 2.578-5.044 3.872-7.566 0.234-0.459 0.506-0.947 0.881-1.294 1.491-1.359 1.641-2.803 0.3-4.266-0.891-0.975-1.725-2.091-2.813-2.756-1.359-0.816-1.463-1.894-1.444-3.216 0.094-5.644 0.15-11.278 0.234-16.922 0.028-1.481-0.478-2.438-1.894-3.112-0.984-0.478-1.781-1.397-2.719-2.175 0.881-1.069 1.678-1.913 2.363-2.831 2.1-2.85 4.781-4.303 8.438-4.012 1.041 0.094 1.847 0.337 2.063 1.303 0.413 1.884 0.9 3.806 0.872 5.709-0.056 3.309-0.834 6.628-0.647 9.909 0.225 3.928 1.266 7.866 5.119 9.956 4.303 2.306 8.944 3.684 13.828 4.294 7.453 0.937 14.569-0.581 21.394-3.225 6.628-2.569 11.991-6.694 13.884-14.053 0.084-0.309 0.159-0.637 0.328-0.881 2.419-3.572 0.469-10.612-3.459-13.238-2.831-1.969-2.662-4.078 0.338-5.962zM123.816 152.934c0.337-2.372 0.797-4.5 0.909-6.628 0.066-1.134-0.056-2.55-0.694-3.403-1.875-2.541-4.041-4.856-6.084-7.256-0.131-0.169-0.291-0.319-0.469-0.422-1.125-0.694-2.353-0.872-3.394-0.028-1.134 0.919-0.338 1.922 0.263 2.784 1.341 1.903 2.728 3.759 4.106 5.606 1.8 2.428 1.837 5.494 0.478 7.847-2.156 3.731-4.125 7.547-6.084 11.381-1.219 2.381-2.063 4.959-3.384 7.284-3.441 6.066-7.359 11.803-12 17.016-0.553 0.619-1.256 1.088-1.875 1.659-1.359 1.228-3 2.259-3.984 3.722-1.913 2.822-3.478 5.859-5.091 8.869-0.9 1.669-1.763 2.091-3.403 1.069-0.581-0.375-0.966-1.050-1.481-1.547-0.422-0.413-0.9-0.984-1.388-1.041-0.928-0.084-1.913 0.056-2.831 0.253-1.237 0.262-2.156 1.069-2.287 2.325-0.478 4.331-2.709 8.053-4.237 12.009-0.469 1.191-1.744 2.203-2.878 2.934-0.909 0.581-1.256 1.256-0.891 2.006 0.225 0.45 1.134 0.778 1.763 0.797 1.256 0.019 2.513-0.309 3.769-0.319 9.084-0.103 18.169-0.122 27.253-0.253 13.153-0.188 26.306-0.422 39.459-0.628 0.778-0.019 1.706 0.169 1.706-1.041 0-1.125-0.591-1.791-1.734-1.819-0.844-0.019-1.772 0.272-2.512-0.019-0.853-0.319-1.631-1.012-2.297-1.688-0.197-0.197-0.094-1.134 0.141-1.266 1.678-0.966 3.328-2.259 5.156-2.578 4.172-0.75 8.353-1.744 12.694-1.462 1.678 0.103 3.262-0.75 4.106-2.278 1.828-3.319 4.613-4.622 8.269-4.322 1.238 0.103 1.912-0.516 2.381-1.631 0.778-1.903 1.594-3.788 2.522-5.606 3.544-6.984 7.050-14.016 10.809-20.906 1.809-3.319 2.456-6.694 2.447-10.425-0.019-2.972-0.844-5.044-3.338-6.778-3.197-2.231-4.734-5.541-4.219-9.459 0.356-2.7 1.059-5.363 1.594-8.053 0.084-0.366 0.094-0.769 0.131-1.069-1.425 0.253-2.7 0.6-3.994 0.666-3.3 0.141-6.647-0.15-9.909 0.262-5.606 0.713-11.016 2.363-16.275 4.434-1.763 0.694-3.516 1.406-5.222 2.222-5.728 2.7-11.372 5.587-18.028 6.778zM121.641 71.775c-0.169 0.056-0.338 0.122-0.516 0.169-0.084 0.872-0.169 1.734-0.225 2.597-0.103 1.444-0.122 2.925-0.3 4.369-0.225 1.819-0.769 3.619-0.863 5.438-0.187 3.619-0.225 7.266-0.216 10.884 0.019 1.941 0.197 3.872 0.384 5.813 0.272 2.681 0.825 5.325 0.844 7.997 0.131 9.272 2.297 18.263 3.544 27.384 0.169 1.237 0.872 2.006 2.166 2.119 1.266 0.122 2.156-0.366 2.559-1.613 0.066-0.197 0.15-0.394 0.234-0.581 1.481-3.281 4.472-4.088 7.378-1.978 0.806 0.591 1.613 1.2 2.428 1.781 1.997 1.425 4.219 2.091 6.666 2.194 3.984 0.169 7.744-0.591 11.456-1.978 1.866-0.694 3.816-1.228 5.775-1.528 3.966-0.619 7.95-1.022 11.934-1.528 2.306-0.291 2.7-0.684 2.194-2.944s-1.284-4.434-1.941-6.656c-1.387-4.641-3.019-9.272-2.269-14.222 0.684-4.688 1.341-9.394 2.353-14.016 0.881-4.041 2.287-7.988 3.338-12 0.291-1.097 0.581-2.475 0.15-3.394-1.116-2.344-2.616-4.491-3.947-6.675-4.2 1.922-4.491 2.494-4.894 6.656-0.581 5.906-0.516 11.906-2.719 17.569-0.384 0.975-0.478 2.044-0.731 3.075-1.744 7.266-2.878 14.662-5.794 21.628-0.441 1.087-0.938 1.425-2.034 0.713 0.253-0.684 0.488-1.378 0.731-2.044 3.094-8.316 4.847-17.006 6.544-25.659 0.919-4.791 1.191-9.703 1.706-14.559 0.066-0.619-0.169-1.275-0.272-1.913-0.656 0.122-1.35 0.122-1.931 0.356-3.319 1.359-6.534 2.981-9.919 4.144-8.072 2.756-15.9 1.913-23.372-2.194-1.388-0.769-2.287-0.459-2.428 1.153-0.234 2.475-0.169 4.978-0.3 7.472-0.375 6.553-0.263 13.050 1.594 19.397 1.237 4.247 2.522 8.456 3.75 12.703 0.103 0.356-0.084 0.806-0.159 1.209-0.469-0.169-0.984-0.272-1.35-0.563-0.253-0.197-0.291-0.666-0.412-1.022-0.947-2.897-2.156-5.747-2.775-8.709-1.734-8.278-3.356-16.594-4.725-24.938-0.553-3.375-1.153-6.881 0.122-10.313 0.131-0.375-0.047-0.984-0.291-1.341-1.106-1.547-2.306-3.009-3.478-4.481zM51.216 95.625c2.916 0.066 4.969-1.791 4.997-4.491 0.019-2.578-1.406-3.984-4.163-4.059-3.056-0.084-5.372 1.913-5.419 4.734-0.066 2.363 1.612 3.759 4.584 3.825zM27.019 92.484c2.869 0.019 5.559-2.859 5.456-5.269-0.038-1.003-0.019-2.006-0.197-2.981-0.103-0.6-0.422-1.5-0.863-1.631-0.572-0.188-1.584 0.028-1.969 0.459-1.903 2.175-3.694 4.453-5.419 6.778-0.225 0.3-0.038 1.359 0.272 1.547 0.975 0.553 2.1 0.872 2.719 1.106zM185.091 62.766c-0.253-0.609-0.516-1.256-0.778-1.884-0.675 0.403-1.575 0.637-1.978 1.219-1.706 2.4-3.281 4.884-4.838 7.378-0.319 0.497-0.544 1.191-0.497 1.763 0.037 0.544 0.366 1.341 0.778 1.509s1.294-0.15 1.612-0.544c1.678-2.156 3.3-4.35 4.819-6.628 0.478-0.741 0.553-1.744 0.881-2.803zM181.050 128.034c1.266-3.619 0.394-6.891-0.225-10.144-0.084-0.394-1.2-0.684-1.875-0.816-0.159-0.028-0.731 0.806-0.675 1.191 0.478 3.253 0.769 6.572 2.775 9.778z"></path>
<path d="M122.372 156.75c1.678 0.816 3.197 1.425 4.575 2.297 0.703 0.441 1.266 1.256 1.659 2.016 1.875 3.544 2.616 7.416 3.15 11.344 0.272 2.091 0.713 4.153 1.106 6.216 0.384 1.978-0.122 2.634-2.1 2.7-2.306 0.084-3.656 1.753-3.291 4.022 0.169 1.050 0.731 1.744 1.828 1.866 2.1 0.253 4.238 0.834 6.291 0.619 2.231-0.225 4.453-1.088 6.047-2.925 0.862-1.003 1.612-2.109 2.541-3.019 0.384-0.366 1.172-0.6 1.697-0.488 0.319 0.084 0.609 0.9 0.675 1.406 0.225 1.847-0.412 3.403-1.762 4.688-1.097 1.050-1.613 2.325-1.341 3.862 0.291 1.622 1.425 2.447 3.084 2.203 1.575-0.234 2.897-0.909 3.797-2.297 0.806-1.228 1.706-2.4 2.559-3.619 1.491 1.238 1.913 2.766 1.134 4.547-1.8 4.144-4.669 7.275-8.738 9.422-4.387 2.306-9.056 2.466-13.734 1.988-1.838-0.188-3.581-1.444-5.306-2.306-1.388-0.694-2.644-1.341-4.322-0.731-1.425 0.497-2.878-0.9-2.541-2.278 0.984-3.891 0.591-7.763-0.337-11.559-0.647-2.7-1.763-5.259-2.663-7.884-0.188-0.544-0.516-1.088-0.525-1.631-0.019-1.153-0.609-1.734-1.622-2.044-1.153-0.356-1.547-1.087-0.938-2.156 3.019-5.437 6.056-10.847 9.094-16.275z"></path>
</svg>
