<svg xmlns="http://www.w3.org/2000/svg" xml:space="preserve" fill-rule="evenodd" stroke-linejoin="round" stroke-miterlimit="2" clip-rule="evenodd" viewBox="0 0 300 300"><path fill-rule="nonzero" d="M170.053 13.125c1.238.713 1.472 1.969 1.613 3.197 1.041 9.291 1.509 18.591.412 27.928-.225 1.875-.328 3.769-.366 5.644-.112 4.416-.469 8.794-1.481 13.125-.3 1.275-.234 2.644-.234 3.975-.009 1.125.628 1.641 1.716 1.237.891-.338 1.481-.131 2.241.441.769.6 1.762.994 2.719 1.247 2.953.816 5.756 1.875 8.156 3.862.544.45 1.294.713 1.997.872 5.25 1.2 10.481 2.4 15.769 3.497 2.775.572 3.619-.309 3.328-3.178-.356-3.487-.947-6.9-2.269-10.181-1.078-2.681-1.941-5.447-2.953-8.156-.338-.937-.9-1.8-1.322-2.691-.169-.347-.234-.731-.347-1.116 3.816-.534 4.519-.112 5.484 2.194.225.506 1.013.806 1.584 1.116.703.375 1.669.497 2.156 1.041 1.978 2.212 3.919 4.509 5.681 6.9 1.809 2.438 3.244 5.166 5.156 7.491 1.303 1.603 2.981 3.066 4.791 4.022 4.856 2.606 9.337 5.691 13.425 9.394 2.681 2.438 5.559 4.678 8.363 7.003 1.537 1.294 2.775 2.794 3.309 4.809.338 1.303.253 2.381-.806 3.384-1.247 1.172-.975 2.184.619 2.831.638.253 1.313.638 1.959.609.741-.028 1.697-.206 2.156-.703.759-.806 1.538-1.275 2.616-1.275 1.003 0 2.016-.047 3.019.066 1.416.169 2.166 1.181 2.887 2.316.469.731 1.153 1.463 1.922 1.781 2.419 1.013 4.912 1.847 6.609 4.041.197.234.478.431.769.591 4.697 2.775 9.366 5.634 14.128 8.316 1.922 1.078 3.684 2.109 4.762 4.172.975 1.847 2.813 2.55 4.847 2.766 2.316.234 2.7.534 2.719 2.897.009 1.125-.375 2.269-.591 3.403-.956-.356-1.997-.572-2.869-1.078-2.344-1.341-4.856-1.772-7.528-1.997-5.259-.431-10.519-1.125-15.769-1.688-2.55-.263-5.119-.469-7.697-.694-.178-.009-.375-.009-.534-.094-4.959-2.409-10.725-1.716-15.703-4.069-.412-.197-.975-.131-1.472-.112-1.584.028-3.188.253-4.753.075-5.259-.553-10.481-1.341-15.75-1.847-4.313-.412-8.475-1.237-12.356-3.15-3.291-1.622-6.666-2.006-10.322-1.772-2.138.131-4.387-.413-6.469-1.059-2.156-.656-2.438-3.441-1.05-5.184 1.359-1.706 2.419-3.666 3.45-5.606.534-1.003-.094-1.884-1.313-2.034-1.612-.197-3.244-.806-4.875.075-.291.15-.891-.113-1.266-.319-2.7-1.472-5.588-2.363-8.606-2.841a2.4 2.4 0 0 1-.647-.197c-3.019-1.444-6.028-2.916-9.037-4.35a8.7 8.7 0 0 0-1.959-.638c-3.347-.713-4.247-.366-5.541 2.766-2.409 5.794-5.662 10.978-9.984 15.572-2.672 2.841-5.034 5.972-7.528 8.981-.759.928-.563 2.616.628 3.741 2.7 2.578 5.466 5.053 8.203 7.584 1.313 1.209 2.578 2.475 3.928 3.647 1.041.9 2.109 1.781 3.253 2.512 3.056 1.959 3.216 4.369.375 6.609-.15.113-.291.216-.441.338-2.241 1.706-2.803 3.066-1.509 4.35 2.503 2.475 4.594 3.759 6.966 1.528.262-.253.506-.534.778-.778 1.359-1.228 2.906-1.331 4.181-.028 2.803 2.859 5.662 5.681 8.175 8.775 2.203 2.709 4.556 5.213 7.5 7.05 4.481 2.784 8.034 6.394 10.547 11.053.9 1.678 2.372 3.084 4.35 2.934 1.819-.141 2.813-1.969 3.188-3.469.909-3.6 3.319-6.328 4.941-9.488.478-.956 1.172-1.406 2.287-1.369.834.038 1.275.3 1.453 1.116.431 1.959 1.537 3.075 3.656 3.319 1.734.206 2.4 1.809 2.522 3.244.572 6.216 3.141 11.737 5.456 17.4 2.681 6.525 4.791 13.303 7.406 19.856 2.578 6.488 5.391 12.872 8.278 19.219 1.041 2.278 2.672 4.275 3.919 6.478 1.013 1.781 1.913 3.638 2.775 5.494.234.516.234 1.172.206 1.762-.113 2.231-2.016 3.403-4.05 2.513-.497-.225-1.041-.469-1.416-.834-3.394-3.281-7.631-5.269-11.672-7.528-.309-.169-.778-.412-1.013-.291-1.341.656-2.381-.075-3.516-.572-2.747-1.181-5.494-2.334-8.241-3.506-.075-.037-.169-.056-.253-.103-3.188-1.566-6.431-3.066-9.572-4.716-3.647-1.912-7.575-2.775-11.616-3.281s-8.034-.891-12.094-.066c-1.209.244-2.578-.366-3.881-.469a221 221 0 0 0-7.106-.459 94 94 0 0 0-5.625-.066c-1.181.028-2.372.272-3.572.291-1.566.009-2.062-.628-1.762-2.175.441-2.241 1.884-3.6 3.787-4.791 3.928-2.466 7.809-5.025 11.531-7.781 2.344-1.725 2.972-4.331 2.466-7.181-.366-2.025.131-2.578 2.222-2.503.816.028 1.631 0 2.522 0 0-1.819.066-3.478-.028-5.109-.075-1.303-.9-2.025-2.203-2.278-1.969-.394-3.628.066-5.044 1.509-1.519 1.538-2.316 1.303-3.975.009-2.588-2.044-4.247-4.622-5.438-7.622-.347-.863-1.059-1.622-1.734-2.287a40.4 40.4 0 0 0-8.166-6.272c-2.991-1.744-5.691-4.022-8.437-6.178-2.063-1.612-3.938-3.469-6.019-5.072-1.669-1.294-3.431-2.484-5.287-3.469-1.847-.975-3.272-2.278-4.613-3.853-3.169-3.75-6.469-7.388-9.778-11.016-1.237-1.359-2.044-1.106-2.55.703-.478 1.697-1.613 2.588-3.281 2.972-4.838 1.106-9.103 3.384-12.919 6.516-1.275 1.041-1.613 1.097-2.381-.338-.45-.834-.816-1.744-1.134-2.644-.431-1.2-1.247-1.631-2.456-1.519-2.419.234-3.956 2.241-3.647 4.772.103.816.366 1.641.263 2.447-.206 1.912-1.903 3.534-3.853 3.769-1.697.197-3.188.666-4.416 1.997-.478.534-1.341.741-2.044 1.059-2.672 1.2-5.353 2.4-8.034 3.609-1.069.478-2.138 1.031-3.225 1.444-.994.366-1.434 1.069-1.294 2.006.366 2.578.675 5.184 1.275 7.716.834 3.375 1.903 6.713 2.925 10.05a152 152 0 0 0 2.522 7.566c.206.591.741 1.303 1.256 1.444.356.103 1.106-.572 1.434-1.059.694-1.031 1.256-2.128 1.8-3.244 2.1-4.284 4.134-8.597 6.291-12.862.234-.469 1.106-.919 1.631-.872.534.047 1.266.619 1.472 1.144.872 2.175.572 4.406.028 6.637-.675 2.803-1.463 5.606-1.837 8.456-.234 1.875.169 3.834.272 5.747.291 5.044.347 10.116.9 15.131.862 7.95 2.063 15.844 3.122 23.766.047.366.112.722.131 1.097.366 5.25.703 10.519 1.116 15.769.216 2.747.412 5.512.909 8.222.253 1.397 1.041 2.728 1.744 3.984 1.2 2.109 2.625 4.106 3.788 6.234 1.237 2.241.3 4.134-2.081 4.941-.975.338-1.809 1.134-2.709 1.725h-.272c-2.081-1.078-2.569-3.113-3.028-5.156-1.697-7.491-4.978-14.175-10.078-19.941-.338-.366-.731-.712-1.144-.956-4.069-2.4-7.369-5.616-10.219-9.337-2.7-3.534-5.259-7.2-8.175-10.547-2.344-2.7-5.081-5.044-7.697-7.481-1.819-1.697-3.919-3.103-5.55-4.941-3.572-4.013-6.966-8.194-10.359-12.375-1.116-1.378-2.006-2.944-3.084-4.538 2.166-.675 3.816.141 5.4 1.041 2.287 1.303 4.65 2.231 7.331 2.034 1.65-.113 3.291-.356 4.931-.6 2.569-.394 3.225-1.809 1.781-3.938-1.772-2.634-2.841-5.522-3.553-8.597-.347-1.491-1.003-2.934-1.575-4.378-.609-1.528-1.556-2.962-1.884-4.537-.816-3.872-2.288-7.453-4.172-10.875-.356-.656-1.275-1.303-2.006-1.397-3.516-.403-7.041-.759-10.575-.844-4.959-.131-9.947-.009-14.906 0-1.519 0-3.103-.244-4.538.075-3.816.844-7.509.272-11.222-.441-2.841-.534-5.794-.975-6.844-4.35v-.553c.169-.066.337-.169.506-.206 3.047-.619 6.206-.9 8.906-2.738.272-.178.713-.178 1.069-.169 2.156.056 3.581-1.041 4.847-2.7a16.6 16.6 0 0 1 3.422-3.319c1.369-.994 2.044-2.1 2.016-3.797-.047-2.166.028-4.322.113-6.487.047-1.219.572-2.184 1.716-2.794 2.213-1.172 2.203-1.2.291-2.869-.206-.178-.431-.366-.591-.572-.553-.703-.975-1.369-.516-2.381.309-.675.431-1.528.347-2.269-.113-.938-.591-1.828-.816-2.766-.309-1.247-.919-1.838-2.278-1.369-1.078.375-1.5-.328-1.744-1.219-.234-.862.094-1.303.966-1.425 1.144-.141 1.256-.938.731-1.678-.497-.694-1.266-1.172-2.081-1.894.769-.178 1.462-.478 2.166-.497 6.356-.131 12.553-1.144 18.647-2.869.366-.103.797-.066 1.181-.047 1.116.037 2.222.159 3.328.094 1.275-.084 2.541-.516 3.806-.469 2.822.141 5.428-.478 8.053-1.491 3.75-1.444 7.575-2.728 11.409-3.956 6.047-1.941 11.897-4.2 17.363-7.566 5.466-3.375 10.125-7.753 15.206-11.588.225-.159.403-.375.6-.572 1.8-1.772 3.647-3.506 5.4-5.316 2.044-2.091 4.078-4.219 6.019-6.412 1.266-1.425 2.363-3.028 3.553-4.519 1.341-1.678 2.888-3.234 4.031-5.025 1.603-2.513 2.766-5.288 4.359-7.809 3.45-5.409 6.591-10.912 7.725-17.334.15-.834.591-1.331 1.584-1.397.553-.037 1.275-.497 1.575-.975 1.659-2.691 3.431-5.344 4.734-8.194 1.172-2.578 1.669-5.438 2.681-8.091 1.031-2.672 1.575-5.381 1.463-8.212-.159-3.956-.413-7.894-.6-11.841-.094-1.941.234-2.344 2.241-2.916.938 1.641 2.213 3.197 2.747 4.978 1.059 3.544 1.762 7.191 2.503 10.828.244 1.2.6 2.231 1.744 2.775 1.453.703 2.906 1.425 4.416 1.913.928.3 2.016.412 2.972.262 3.122-.506 5.222-2.438 6.403-5.288 1.847-4.481 2.475-9.244 2.962-14.016.178-1.837.234-3.675 1.744-5.025.366.066.741.066 1.106.066zm-9.065 61.678h-.066c0-1.106.075-2.212-.028-3.3-.15-1.584-.862-2.916-2.25-3.769-2.963-1.763-6.056-2.869-9.6-1.884-1.641.45-3.375.638-4.941 1.228-7.575 2.897-10.2 12.037-5.175 18.347 3.309 4.153 8.034 5.241 13.097 5.241 1.556 0 3.056-.309 4.209-1.434 2.503-2.4 4.181-5.231 4.378-8.784.113-1.884.234-3.769.366-5.644zM46.941 152.175c-.253 3.947 1.959 6.713 5.316 7.922.694.262 1.359.572 1.978.956 1.378.862 2.85 1.003 4.388.638 3.047-.731 5.503-2.503 7.772-4.556.534-.478.938-1.331 1.031-2.044.563-5.475.328-10.753-3.769-15.103-1.659-1.772-2.587-1.697-3.384.553-.366 1.003-.937 1.275-2.006 1.078-1.097-.206-2.316-.356-3.384-.094-4.256 1.097-8.034 6.291-7.931 10.65zm71.615-43.912c-1.678.234-3.244.413-4.781.656-1.941.3-3.591 1.106-4.791 2.709-2.241 2.972-1.313 9.619 1.669 11.869.291.225.628.403.966.534 1.509.563 2.981 1.247 4.547 1.603.994.216 2.222.169 3.15-.225 2.944-1.266 5.822-2.737 8.709-4.144 2.147-1.031 2.278-1.425 1.537-3.628-.347-1.041-1.116-2.25-.853-3.131.469-1.547-.262-2.644-.731-3.834-.741-1.931-2.775-2.306-4.416-3.028-.516-.225-1.416.534-2.175.741-.469.141-.975.169-1.472.131-.506-.038-.994-.178-1.369-.263z"/></svg>