<!-- Generated by IcoMoon.io -->
<svg version="1.1" xmlns="http://www.w3.org/2000/svg" width="300" height="300" viewBox="0 0 300 300">
<title>fighters-champion</title>
<path d="M138.159 0c1.519 3.272 3.094 6.525 4.556 9.834 2.719 6.188 5.306 12.431 8.091 18.581 1.95 4.313 4.153 8.512 6.253 12.759 0.403 0.797 0.844 1.566 1.256 2.362 2.419 4.762 4.847 9.534 7.275 14.316 1.2 2.362 0.75 3.75-1.716 4.838-3.037 1.341-4.209 4.153-5.616 6.797-0.103 0.187 0.356 0.937 0.675 1.059 2.559 0.919 5.147 1.809 7.763 2.578 3.178 0.919 5.7 2.822 8.128 4.95 1.022 0.891 2.109 1.716 3.225 2.494 0.844 0.572 1.481 0.413 1.706-0.731 0.319-1.575 0.684-3.113-0.272-4.631-0.563-0.909 0.094-1.444 0.862-1.697 2.531-0.825 5.1-1.575 7.716-2.391 0.459 0.834 0.834 1.528 1.209 2.222 1.153 2.063 3.497 3.206 5.831 2.878 0.984-0.141 1.584-0.619 1.847-1.65 0.469-1.856 0.244-3.525-1.022-5.034-0.356-0.422-0.656-0.891-1.059-1.444 1.097-0.469 2.072-0.966 3.084-1.284 0.291-0.094 0.797 0.225 1.097 0.478 0.938 0.825 1.725 1.894 2.766 2.541 1.491 0.928 2.766 0.45 4.050-0.769 1.388-1.303 2.859-2.559 4.481-3.553 2.391-1.444 2.738-1.941 2.166-4.772-0.047-0.225-0.047-0.459-0.084-0.881 0.647 0.056 1.238 0.084 1.809 0.178 1.584 0.262 2.962-0.141 3.797-1.537 1.294-2.137 3.253-3.347 5.503-4.172 1.284-0.469 2.55-0.938 3.844-1.369 1.172-0.384 2.362-0.741 2.653-2.184 0.037-0.169 0.216-0.309 0.338-0.431 1.209-1.172 5.175-1.144 6.384 0.028 0.787 0.769 0.638 1.612 0.262 2.466-4.303 9.6-8.531 19.228-12.966 28.763-1.387 3-3.469 5.681-4.997 8.616-1.706 3.281-3.159 6.703-2.944 10.547 0.094 1.613-0.422 2.259-2.081 2.269-2.681 0.009-5.362-0.037-8.053-0.047-0.178 0-0.338 0.084-0.722 0.178 0.319 0.516 0.572 0.928 0.834 1.341 1.706 2.756 3.684 5.391 5.006 8.306 0.984 2.166 1.219 4.697 1.631 7.088s1.003 2.878 3.103 1.697c1.444-0.816 2.672-2.034 3.984-3.094 1.050-0.834 2.072-1.706 3.103-2.55 0.141-0.122 0.356-0.234 0.384-0.384 0.459-1.809 1.762-1.341 2.897-1.013 2.728 0.787 5.372 1.697 6.947 4.406 0.319 0.553 1.313 0.881 2.063 1.013 6.572 1.163 13.153 2.184 19.725 3.413 3.366 0.619 6.647 1.725 10.031 2.269 3.563 0.572 6.853 1.884 10.163 3.197 2.869 1.153 5.7 2.466 8.578 3.609 1.256 0.497 2.588 0.844 3.919 1.078 1.462 0.262 2.438 0.966 3.253 2.203 0.769 1.153 0.403 1.838-0.591 2.4-2.278 1.303-4.547 2.634-6.9 3.825-7.913 4.022-15.891 7.912-23.775 12.009-2.906 1.519-5.625 3.403-8.362 5.231-0.919 0.609-1.509 0.591-2.306-0.103-0.919-0.797-1.912-1.519-2.944-2.184-2.128-1.387-3.6-1.397-5.334-0.131-1.978 1.444-2.906 3.647-2.325 5.775 0.309 1.116 0.787 2.184 1.209 3.338-2.419 1.209-4.847 2.438-7.275 3.647-2.484 1.238-4.772 2.541-5.203 5.737-0.234 1.725-0.825 1.903-2.297 1.003-0.778-0.478-1.463-1.153-2.128-1.791-1.022-0.966-1.744-0.834-2.128 0.516-0.562 2.034-0.984 4.116-1.584 6.141-0.572 1.931-1.303 3.797-1.959 5.7-0.122 0.328-0.188 0.656-0.384 1.359 2.081-1.106 3.928-0.778 5.728-0.216 0.731 0.234 1.556 0.703 1.978 1.313 0.872 1.266 1.472 2.719 2.231 4.069 2.344 4.172 4.594 8.4 7.088 12.488 2.775 4.575 5.681 9.094 8.709 13.509 1.819 2.672 4.088 5.044 5.972 7.678 2.55 3.544 5.044 7.134 7.35 10.856 0.694 1.116 0.825 2.662 0.919 4.031 0.084 1.219-0.572 1.528-1.566 0.816-1.331-0.966-2.691-0.722-4.172-0.516-1.031 0.141-2.231 0-3.197-0.403-4.631-1.903-9.075-4.575-13.875-5.784-6.937-1.744-13.153-4.959-19.566-7.8-2.897-1.284-5.784-2.484-8.944-2.869-0.459-0.056-0.891-0.262-1.35-0.384-2.606-0.75-5.203-1.603-7.838-2.231-1.266-0.309-1.884-0.881-1.931-2.166-0.047-1.219-0.188-2.438-0.272-3.656-0.075-1.116-0.694-1.425-1.613-0.966-0.572 0.281-1.116 0.722-1.528 1.2-3.853 4.612-8.887 7.481-14.381 9.619-0.675 0.262-1.481 0.225-2.222 0.216-1.941-0.028-3.722 0.431-5.278 1.659-0.431 0.338-0.956 0.647-1.481 0.778-2.766 0.675-5.55 1.35-8.334 1.894-1.191 0.225-1.416 1.069-0.928 1.669 1.847 2.316 3.319 5.053 6.103 6.469 1.022 0.516 1.2 1.106 0.609 1.997-0.722 1.106-1.434 2.213-2.222 3.272-3.225 4.359-6.103 8.916-7.575 14.231-0.516 1.884-2.222 2.409-3.938 2.719-0.881 0.15-1.772 0.169-2.672 0.272-1.153 0.141-1.725 1.012-1.256 2.091 0.609 1.425 1.537 2.494 3.159 2.972 0.872 0.262 1.678 0.956 2.325 1.622 0.216 0.225 0 1.125-0.291 1.528-1.491 2.044-3.103 4.022-4.613 6.056-0.431 0.591-0.703 1.303-1.022 1.978-0.778 1.584-1.556 3.178-2.278 4.791-0.356 0.797-0.609 1.65-0.881 2.484-0.45 1.359-0.647 2.869-1.369 4.069-1.125 1.884-1.762 3.797-1.772 5.991-0.009 1.069-0.084 2.184-0.375 3.206-0.45 1.537-1.706 1.8-2.531 0.469-0.975-1.566-1.838-3.281-2.353-5.044-1.331-4.5-2.419-9.066-3.666-13.594-0.234-0.844-0.553-1.716-1.022-2.456-4.706-7.406-7.866-15.497-10.303-23.859-1.65-5.653-4.472-10.462-8.438-14.756-2.372-2.559-1.978-2.325 0.413-4.191 2.672-2.072 5.128-4.434 7.594-6.75 0.525-0.497 0.75-1.303 1.237-2.213-1.397-0.15-2.456-0.272-3.516-0.375-7.716-0.741-14.887-3.094-21.412-7.275-1.247-0.797-2.484-1.538-4.088-1.716-1.069-0.122-2.072-1.003-3.056-1.622-0.938-0.591-1.819-1.284-2.878-2.034-0.478 3.103-1.369 5.934 0.609 8.653 0.722 0.984-0.047 1.697-0.975 2.034-2.859 1.078-5.709 2.138-8.578 3.15-1.903 0.675-3.891 1.106-5.775 1.838-13.144 5.1-26.578 9.422-39.366 15.422-1.491 0.703-3.234 1.022-4.894 1.219-0.656 0.084-1.706-0.459-2.034-1.031s-0.309-1.762 0.084-2.297c2.578-3.384 5.372-6.628 7.987-9.994 4.087-5.269 8.316-10.453 12.019-15.994 1.153-1.725 1.95-2.588 4.013-2.756 2.55-0.216 3.9-2.606 3.15-5.1-0.309-1.022-0.141-1.8 0.431-2.634 2.072-2.972 4.116-5.963 6.141-8.963 0.656-0.975 1.462-1.509 2.681-1.538 2.531-0.075 2.728-0.375 2.212-2.878-0.037-0.178 0-0.366 0-0.656 1.116-0.216 2.212-0.45 3.309-0.619 1.116-0.178 1.472-0.694 0.956-1.753-1.997-4.125-1.8-8.588-1.941-12.994-0.056-1.697 0-3.384-0.056-5.081-0.009-0.366-0.319-0.703-0.478-1.069-0.384 0.197-0.975 0.319-1.144 0.638-0.337 0.684-0.45 1.481-0.694 2.222-0.281 0.844-0.609 1.678-0.919 2.513-0.75-0.281-1.575-0.45-2.231-0.862-2.625-1.631-5.081-3.609-7.837-4.941-2.466-1.172-5.288-1.566-7.903-2.447-5.737-1.931-11.466-3.938-17.166-5.962-0.966-0.338-1.866-0.891-2.756-1.416-1.191-0.684-2.297-1.266-3.834-1.022-0.778 0.131-1.8-0.469-2.531-0.984-1.809-1.303-3.703-1.931-6.009-2.044-2.213-0.103-4.406-0.863-6.544-1.575-0.609-0.197-1.163-1.209-1.294-1.931-0.075-0.422 0.647-1.2 1.172-1.472 6.928-3.6 13.903-7.078 20.803-10.716 6.487-3.413 12.909-6.966 19.341-10.481 1.191-0.656 2.259-1.556 3.441-2.222 2.184-1.247 4.35-2.597 6.666-3.572 3.094-1.294 5.184-3.197 5.831-6.628 0.816-4.313 2.128-8.466 4.584-12.188 0.291-0.45 0.169-1.528-0.187-1.95-0.694-0.816-1.35-2.119-2.859-1.416-0.844 0.403-1.706 0.816-2.513 1.266-1.031 0.591-1.866 0.375-2.353-0.647-0.891-1.903-1.903-3.797-2.466-5.813-2.231-8.1-4.397-16.219-6.413-24.375-1.556-6.281-2.859-12.628-4.266-18.956-0.15-0.684-0.319-1.434-0.178-2.091 0.131-0.591 0.553-1.284 1.050-1.575 0.497-0.281 1.481-0.403 1.847-0.094 2.447 2.063 5.484 2.822 8.316 4.097 4.106 1.837 8.091 3.966 12.178 5.841 3.319 1.528 6.694 2.972 10.097 4.294 3.047 1.172 5.944 2.512 8.606 4.453 1.491 1.097 3.328 1.725 4.987 2.606 0.956 0.506 1.931 1.003 2.784 1.65 2.063 1.575 2.119 3.084 0.366 4.978-0.506 0.544-0.966 1.153-1.294 1.8-0.141 0.281-0.047 0.956 0.169 1.097 0.263 0.169 0.778 0 1.153-0.103 0.197-0.056 0.338-0.309 0.497-0.497 2.766-3.347 6.328-5.55 10.322-7.163 2.438-0.984 4.856-2.025 7.275-3.056 1.294-0.563 1.65-1.237 0.797-2.259-1.172-1.434-2.625-2.672-4.031-3.9-0.281-0.244-0.928-0.009-1.341-0.178-0.741-0.291-1.631-0.563-2.081-1.144-0.281-0.356-0.094-1.35 0.216-1.884 1.95-3.328 3.947-6.609 6.009-9.881 5.522-8.794 10.659-17.766 14.869-27.319 3.337-7.613 6.675-15.206 9.666-22.959 0.169-0.028 0.356-0.028 0.544-0.028zM178.003 136.641c0.038 0 0.075 0 0.094 0 0-3.291 0.037-6.581-0.009-9.862-0.075-5.409 0.197-10.941-1.838-16.022-1.884-4.678-4.444-9.094-6.787-13.584-0.375-0.731-1.059-1.313-1.65-1.913-1.528-1.528-3.122-3-4.641-4.528-1.697-1.716-3.338-3.525-5.709-4.256-5.747-1.772-11.513-3.459-17.297-5.081-0.656-0.187-1.491 0.225-2.231 0.403-1.153 0.272-2.344 0.928-3.45 0.816-5.006-0.544-9.778-0.178-14.034 2.784-3.441 2.391-6.806 4.866-10.237 7.266s-5.147 6.056-6.244 9.759c-1.153 3.881-1.622 8.016-1.903 12.094-0.816 11.775-1.369 23.559-2.091 35.344-0.056 0.966-0.422 2.119-1.059 2.813-1.528 1.659-0.834 3.572-1.003 5.4-0.075 0.816 0.084 1.678-0.197 2.409-0.872 2.306-1.903 4.547-2.859 6.825-0.075 0.178-0.103 0.366-0.169 0.525-0.516 1.341-0.928 2.738-1.575 4.022-0.909 1.8-0.975 2.166 0.478 3.553 1.809 1.725 3.094 3.75 3.938 6.094 0.459 1.284 0.975 2.55 1.603 3.75 1.144 2.222 3.497 3.666 5.466 3.225 4.069-0.919 7.134 1.191 9.731 3.619 1.697 1.584 3.141 3.516 4.959 5.053 0.741 0.619 1.106 1.706 1.613 2.597 0.225 0.403 0.291 0.919 0.572 1.284 3.272 4.172 3.459 8.981 2.906 13.959-0.178 1.584-0.337 3.178-0.45 4.772-0.056 0.872 0.084 1.716 1.144 1.997 1.003 0.272 1.753-0.122 2.278-0.956 0.694-1.116 1.369-2.25 2.034-3.375 0.656-1.106 1.519-1.284 2.531-0.459 0.572 0.469 1.050 1.097 1.631 1.556 0.563 0.431 1.237 0.741 1.847 1.106 0.234-0.675 0.572-1.313 0.703-2.016 0.319-1.706 0.544-3.431 0.797-5.137 0.169-1.106 0.544-1.209 1.444-0.478 1.866 1.481 2.419 3.506 2.597 5.719 0.094 1.238 0.544 2.175 1.931 2.391 1.369 0.216 2.4-0.262 3.141-1.387 0.178-0.272 0.262-0.6 0.431-0.881 0.131-0.216 0.319-0.459 0.525-0.525 0.647-0.234 4.603 1.219 4.95 1.8 0.094 0.15 0.122 0.356 0.141 0.544 0.131 1.209 0.909 1.997 1.988 2.044 1.209 0.047 1.116-1.238 1.284-2.034 1.247-6.112 2.362-12.262 3.703-18.356 0.469-2.119 0.966-4.594 2.344-6.056 2.756-2.916 6.075-5.316 9.272-7.772 2.597-2.016 5.4-3.759 8.053-5.719 0.741-0.544 1.256-1.387 1.912-2.034 0.459-0.45 0.938-1.069 1.491-1.162 1.294-0.234 1.313-0.938 1.284-2.025-0.056-1.762-0.328-3.713 0.291-5.269 0.984-2.494 0.722-4.481-0.731-6.609-2.447-3.591-4.162-7.519-4.406-11.878-0.338-5.4-0.422-10.762-0.609-16.125zM206.606 153.656c2.231 0.038 2.972-0.234 4.613-1.556 0.244-0.197 0.563-0.469 0.834-0.469 1.050 0.028 1.444-0.619 1.575-1.462 0.478-3.234 1.022-6.478 1.303-9.741 0.131-1.444-0.478-2.869-1.716-3.844-1.659-1.303-3.3-2.634-5.053-3.834-0.469-0.319-1.313-0.356-1.884-0.188-0.975 0.281-1.847 0.881-2.803 1.266-2.878 1.163-4.866 3.131-5.616 6.206-0.281 1.191-0.572 2.363-0.844 3.553-0.506 2.213-0.459 4.359 1.247 6.056 2.344 2.363 5.147 3.9 8.334 3.994zM139.519 244.209c2.756 0.131 5.241-0.45 7.125-2.662 0.15-0.178 0.356-0.366 0.553-0.412 2.203-0.544 2.456-2.175 2.25-4.022-0.122-1.012-0.366-2.016-0.553-3.019-0.056-0.309-0.272-0.656-0.187-0.919 0.422-1.388-0.272-2.391-1.247-3.131-1.219-0.938-2.55-1.762-3.9-2.513-0.356-0.197-1.256-0.084-1.416 0.178-0.703 1.172-1.772 1.434-2.972 1.566-1.163 0.131-2.325 0.319-3.497 0.478-3.056 0.431-4.997 2.4-5.419 5.438-0.094 0.694-0.225 1.387-0.375 2.072-0.516 2.325 0.056 3.797 2.091 5.006 2.325 1.359 4.847 2.072 7.556 1.941zM64.884 154.331c0.028 0.103 0.037 0.216 0.056 0.319 1.2-0.356 2.419-0.675 3.609-1.078 1.059-0.375 2.044-1.050 3.131-1.247 2.222-0.413 2.916-2.072 3.066-3.844 0.234-2.7-0.281-5.353-1.913-7.641-1.266-1.772-2.906-2.484-5.203-2.663-2.419-0.187-4.688-0.075-6.909 0.731-3.038 1.106-5.194 5.119-4.219 8.184 0.656 2.081 1.697 4.059 2.728 6 0.309 0.563 1.116 1.097 1.763 1.191 1.256 0.188 2.578 0.056 3.872 0.056zM147.984 59.447c-0.281-1.809-2.85-5.578-4.537-6.234-0.366-0.141-0.834-0.094-1.219-0.028-0.956 0.197-1.894 0.497-2.859 0.694-5.522 1.191-8.503 4.622-8.297 9.581 0.131 3.244 2.419 5.916 5.606 6.553 2.672 0.525 5.316 0.572 7.866-0.572 0.497-0.225 1.106-0.694 1.237-1.162 0.816-2.925 1.491-5.878 2.222-8.831zM60.413 136.612c0.637 0.103 1.247 0.291 1.866 0.291 1.622-0.019 3.234-0.094 4.847-0.225 0.188-0.009 0.544-0.731 0.469-0.797-0.366-0.384-0.816-0.928-1.284-0.966-1.378-0.122-2.775-0.019-4.172-0.019-1.012 0-1.538 0.525-1.716 1.716zM160.884 228.066c0.619 0.422 0.881 0.75 1.059 0.722 2.025-0.497 4.059-1.012 6.037-1.65 0.262-0.084 0.309-0.862 0.459-1.303-0.469-0.122-0.984-0.422-1.387-0.309-1.256 0.366-2.466 0.872-3.694 1.359-0.741 0.309-1.462 0.684-2.484 1.172zM159 227.897c-1.528 0-2.925-0.009-4.331 0.009-0.75 0.009-1.388 0.375-1.2 1.191 0.178 0.731 0.675 1.387 1.031 2.081 0.45-0.356 0.872-0.769 1.35-1.059 0.544-0.319 1.162-0.787 1.706-0.741 1.256 0.122 1.669-0.291 1.434-1.481zM166.631 213.928c-0.919 0.862-1.388 2.362-1.341 4.331 0.009 0.375 0.169 0.966 0.422 1.069 0.338 0.15 0.919 0.056 1.266-0.141 1.697-0.956 1.528-3.806-0.356-5.259zM191.475 211.378c-1.8 0.169-5.156 3.328-5.044 4.678 2.494-0.047 5.156-2.466 5.044-4.678zM247.8 142.706c2.119 0.178 3.516-1.706 2.719-3.637-0.094-0.225-0.975-0.422-1.031-0.328-0.816 1.209-1.959 2.297-1.678 3.966zM163.331 60.009c-0.338-0.834-0.591-1.537-0.928-2.184-0.15-0.281-0.506-0.684-0.731-0.656-0.281 0.038-0.619 0.403-0.741 0.703-0.506 1.322 0.244 2.212 1.153 3.131 0.422-0.337 0.816-0.656 1.247-0.984zM126.694 257.991c0.075-0.188 0.141-0.366 0.216-0.553-0.516-0.881-1.022-1.763-1.538-2.644-0.422-0.703-1.256-0.506-1.237-0.028 0.037 0.891 0.431 1.847 0.938 2.606 0.263 0.384 1.069 0.422 1.622 0.609zM140.822 50.991c-0.516-0.384-0.863-0.797-1.013-0.741-0.891 0.328-1.762 0.731-2.587 1.209-0.131 0.075 0.009 0.637 0.037 0.975 0.741-0.094 1.519-0.084 2.231-0.309 0.422-0.15 0.75-0.637 1.341-1.144zM249.769 136.716c0.525 0.563 0.787 1.059 1.172 1.2 0.553 0.197 1.444-1.219 1.256-2.184-0.094-0.459-0.591-0.834-0.909-1.247-0.469 0.703-0.956 1.416-1.528 2.231zM101.119 101.156c-0.722 1.050-1.294 1.697-1.603 2.456-0.084 0.216 0.6 0.741 0.928 1.125 0.525-0.656 1.144-1.266 1.528-1.997 0.103-0.216-0.403-0.769-0.863-1.584zM138.581 285.703c0.019-0.188 0.122-0.384 0.075-0.553-0.103-0.319-0.309-0.609-0.459-0.919-0.291 0.225-0.675 0.403-0.844 0.684-0.216 0.337-0.45 0.872-0.319 1.162 0.234 0.572 0.731 1.050 1.106 1.566 0.15-0.506 0.309-1.022 0.45-1.528 0.019-0.131 0-0.272 0-0.413zM211.041 190.5c0.769-1.012 1.397-1.838 2.062-2.719-0.422-0.366-0.731-0.619-1.172-1.003-0.319 1.256-2.306 1.838-0.881 3.713zM70.95 97.959c-2.269 0.413-2.85 1.331-1.866 3.113 0.647-1.069 1.172-1.95 1.866-3.113zM131.4 271.856c0.797-0.703 0.694-1.144-0.825-2.484-0.281 0.272-0.572 0.553-0.984 0.956 0.694 0.572 1.247 1.050 1.809 1.528zM127.444 260.878c-0.675 0.891-0.984 1.659-0.122 2.222 0.281 0.178 0.938-0.234 1.631-0.45-0.638-0.741-1.022-1.2-1.519-1.772zM70.341 134.803c1.144 0.319 1.612 1.969 3.225 0.497-1.162-0.169-1.669-1.678-3.225-0.497zM240.206 140.063c0.234-0.956 0.375-1.528 0.516-2.091-0.647 0.019-1.294 0.047-1.941 0.075-0.038 0.169-0.075 0.319-0.094 0.478 0.384 0.384 0.769 0.778 1.519 1.537zM91.303 168.938c-0.178-0.056-0.366-0.122-0.544-0.188-0.45 0.375-0.881 0.769-1.35 1.153 0.544 0.656 1.022 1.238 1.65 0.431 0.263-0.328 0.178-0.928 0.244-1.397zM202.444 129.656c-0.309 0.778-0.525 1.378-0.769 1.969 0.694-0.244 1.378-0.478 2.344-0.825-0.656-0.469-0.956-0.684-1.575-1.144zM259.603 126.459c-0.309 0.328-0.563 0.609-0.881 0.966 0.403 0.375 0.722 0.684 1.078 1.031 0.384-0.366 0.694-0.656 1.050-1.003-0.469-0.375-0.825-0.647-1.247-1.003zM112.903 218.306c1.209-1.509 1.097-1.903-0.591-2.362 0.188 0.75 0.366 1.444 0.591 2.362zM111.806 60.684c0.169-0.009 0.319-0.037 0.478-0.047 0.038-0.459 0.075-0.928 0.122-1.388-0.516 0.084-1.031 0.169-1.866 0.309 0.609 0.544 0.938 0.834 1.266 1.125z"></path>
<path d="M126.066 183.103c-6.244-0.234-12.347-1.172-18.188-3.45-0.684-0.262-1.369-0.684-1.866-1.2-1.397-1.397-2.691-2.878-4.013-4.359-0.956-1.078-1.294-2.269-0.891-3.759 0.675-2.503 1.837-4.613 4.097-6.009 0.844-0.525 1.313-1.116 0.703-2.213-0.169-0.291 0.188-1.191 0.553-1.416 1.922-1.2 3.984-1.65 6.169-0.656 2.813 1.284 5.653 2.513 8.466 3.834 3.825 1.8 7.622 3.647 11.419 5.466 0.131 0.056 0.244 0.131 0.375 0.188 2.878 1.387 2.916 1.612 1.35 4.331-0.769 1.341-1.238 2.85-2.034 4.162-0.891 1.463-1.866 2.925-3.066 4.125-0.731 0.722-1.969 0.928-2.962 1.378-0.047-0.131-0.075-0.281-0.094-0.422zM105.544 168.731c1.247-1.144 1.247-1.153 0.281-1.997-0.328 0.366-0.675 0.731-1.050 1.125 0.291 0.338 0.525 0.609 0.769 0.872z"></path>
<path d="M157.425 179.363c-2.691-0.366-4.997-1.050-6.853-3-1.125-1.191-2.372-2.269-3.591-3.384-0.609-0.563-0.787-1.050-0.075-1.753 0.422-0.412 0.609-1.125 0.75-1.744 0.291-1.294 1.022-1.753 2.344-1.65 0.656 0.056 1.416-0.178 2.034-0.459 5.278-2.4 9.825-6.178 15.441-7.95 1.378-0.431 2.531-0.469 3.722 0.375 2.681 1.884 4.631 5.841 3.984 8.316-0.572 2.231-1.913 3.806-4.134 4.622-0.647 0.234-1.247 0.619-1.847 0.984-2.034 1.256-3.975 2.719-6.113 3.759-1.753 0.872-3.759 1.266-5.672 1.866z"></path>
<path d="M133.078 201.394c-0.281-1.144-0.694-2.091-0.731-3.066-0.094-2.344-0.037-4.688 0-7.041 0.037-2.869 1.2-5.344 2.691-7.725 0.469-0.75 0.422-1.809 0.722-2.7 0.178-0.553 0.422-1.341 0.863-1.519 1.153-0.478 2.4-0.844 3.647-0.966 1.8-0.188 3.009 0.703 3.787 2.325 0.506 1.050 1.172 1.997 1.678 3.047 0.609 1.303 1.463 2.606 1.622 4.003 0.469 3.9 0.647 7.847 0.928 11.775 0.084 1.191-0.141 2.184-1.65 2.222-0.047 0-0.103 0.009-0.131 0.037-1.762 1.819-2.991 0.525-4.303-0.694-2.203-2.016-4.641-2.25-7.256-0.741-0.506 0.291-1.003 0.563-1.866 1.059zM139.322 190.491c0.909-0.459 1.763-2.325 1.434-3.066-0.103-0.225-0.375-0.478-0.6-0.506s-0.563 0.188-0.656 0.403c-0.525 1.013-0.797 2.072-0.178 3.178zM135.863 194.822c-0.188 0-0.375 0-0.563-0.009-0.037 0.938-0.084 1.884-0.122 2.822 0.328-0.075 0.834-0.037 0.975-0.244 0.609-0.891 0.591-1.8-0.291-2.559z"></path>
</svg>
