<!-- Generated by IcoMoon.io -->
<svg version="1.1" xmlns="http://www.w3.org/2000/svg" width="300" height="300" viewBox="0 0 300 300">
<title>fighters-ally</title>
<path d="M153.609 43.247c-3.769 5.297-6.675 10.313-10.5 14.531-5.137 5.7-12.159 7.069-19.631 6.834-1.997-0.056-4.059 1.022-5.934 1.819-0.572 0.225-0.909 1.369-1.144 2.166-0.909 3.309-1.65 6.666-2.569 9.975-0.797 2.906-0.403 3.759 2.569 4.613 0.516 0.169 1.078 0.403 1.537 0.741 6.966 5.184 13.125 11.166 19.059 17.55 3.019 3.309 4.453 6.328 4.059 10.716-0.169 1.997 0.853 4.050 1.313 6.094 2.053-0.741 4.172-1.425 6.216-2.278 0.459-0.169 0.797-1.022 0.909-1.594 1.425-5.756 2.109-11.278-2.916-15.9-1.481-1.369-2.334-3.422-3.703-4.959-1.481-1.65-3.084-3.309-4.912-4.613-3.928-2.737-7.931-5.353-10.5-9.628-0.628-1.078-1.941-1.706-3.244-2.85 0.909-1.425 1.706-3.019 2.85-4.275 1.256-1.425 2.859-1.762 4.912-1.2 2.278 0.628 4.8 0.628 7.134 0.966 1.2 0.169 2.569 0.281 3.487 0.909 4.397 3.244 9.253 5.466 14.494 7.012 2.109 0.628 3.872 2.222 5.822 3.366 4.059 2.334 7.931 4.959 12.216 6.891 5.991 2.737 10.613 7.125 15.581 11.109 1.144 0.909 2.391 2.109 3.703 2.391 1.369 0.281 3.375 0.169 4.284-0.628 4.397-3.872 8.616-7.922 12.609-12.141 1.144-1.2 1.819-3.366 1.706-4.959-0.113-1.425-1.65-2.737-2.503-4.106-1.2 0.909-2.447 1.706-3.544 2.794-3.309 3.188-6.45 6.553-9.816 9.741-1.2 1.078-2.625 1.2-3.994-0.225-1.65-1.706-3.431-3.244-5.306-4.725s-2.344-2.569-0.459-4.725c7.472-8.831 14.663-17.888 21.975-26.897 3.375-4.106 7.247-6.272 12.609-3.928 0.684 0.281 1.481 0.403 2.222 0.337 2.738-0.225 4.228 1.369 4.397 3.759 0.169 2.625 1.828 2.334 1.884 4.5s2.166 8.775-0.169 15.609c-2.175 4.444-4.228 8.494-6.103 12.647-1.144 2.447-1.828 5.128-3.084 7.462-1.706 3.131-3.825 6.038-5.766 9.056-1.078 1.65-2.053 3.366-3.075 5.072-2.447 4.106-4.913 8.203-7.416 12.253-3.019 4.959-6.281 9.741-9.019 14.813-1.313 2.447-2.109 5.409-2.447 8.203-1.022 8.775 1.537 17.147 3.375 25.584 1.256 6.037 3.253 11.681 5.991 17.213 1.256 2.503 0.684 4.556-1.481 6.497-5.194 4.669-10.388 9.347-15.356 14.241-6.619 6.553-13.069 13.331-19.463 20.119-4.856 5.128-9.534 10.369-14.203 15.666-0.909 1.022-1.481 2.334-2.447 3.872-0.459-0.169-1.369-0.225-1.819-0.741-2.175-2.334-4.341-4.725-6.281-7.294-6.731-8.775-13.181-17.775-20.203-26.381-2.222-2.738-5.653-4.556-8.672-6.666-4.397-3.131-8.906-6.15-13.35-9.178-1.481-1.022-2.963-1.941-4.566-2.794-1.706-0.909-2.053-2.166-1.022-3.647 3.188-4.5 4.509-9.403 4.912-14.981 0.403-5.644 2.222-11.166 3.431-16.753 0.169-0.909 0.337-1.884 0.337-2.794 0.169-5.072 0.281-10.2 0.572-15.272 0.056-0.853 0.572-1.706 1.022-2.447 2.222-3.309 2.391-5.353-0.112-8.147-2.963-3.309-6.281-6.328-9.478-9.403-2.166-2.109-3.872-4.847-7.528-4.791-0.516 0-1.313-1.078-1.594-1.819-2.634-6.609-6.731-12.253-11.128-17.775-1.706-2.166-2.803-4.725-5.878-5.756-1.537-0.516-1.706-2.569-0.684-4.163 0.337-0.572 0.853-0.966 1.256-1.538 3.084-4.050 3.028-4.275-1.594-6.956-2.634-1.538-2.691-3.703-0.403-5.869 0.797-0.741 1.65-1.884 1.706-2.85 0.337-4.847 3.881-7.922 6.159-11.681 3.309-5.466 6.563-10.997 9.872-16.463 0.853-1.369 1.941-2.569 2.737-3.928 0.797-1.425 1.2-3.019 1.997-4.5 0.459-0.853 1.2-2.166 1.941-2.222 4.566-0.459 9.009-0.966 13.641 0.741 4.453 1.65 9.309 3.019 13.978 2.906 5.138-0.112 9.75 1.538 14.606 2.166 5.194 0.684 10.387 1.706 15.525 2.625 1.256-0.056 2.278 0.281 4.453 0.853zM155.775 220.116c0.281-3.188-2.166-5.588-6.788-6.037-2.906-0.281-6.216 3.188-6.337 6.328-0.113 3.019 3.656 7.753 6.159 7.809 2.738 0.056 6.966-4.847 6.966-8.091z"></path>
<path d="M75.366 223.931c4.341-4.613 8.447-8.888 12.328-13.275 1.022-1.144 1.537-2.738 2.222-4.219 0.853-1.828 1.884-2.053 3.544-0.853 1.078 0.797 2.634 0.909 3.713 1.65 3.084 2.053 6.45 3.984 9.066 6.553 10.556 10.144 20.372 20.85 28.481 33.103 3.6 5.466 7.022 11.053 10.5 16.584 1.144 1.828 2.053 2.053 3.994 0.628 8.212-6.216 13.294-14.981 19.687-22.791 3.6-4.387 7.416-8.55 11.184-12.703 4.397-4.903 8.841-9.741 13.238-14.644 3.131-3.478 6.159-7.125 9.366-10.537 1.997-2.166 2.681-1.941 4.059 0.628 2.681 5.016 5.362 10.031 8.156 15.047 0.628 1.144 1.481 2.222 2.447 3.075 1.941 1.706 1.313 2.85-0.338 4.331-6.337 5.813-12.9 11.4-18.722 17.775-5.475 6.037-9.938 13.050-15.178 19.369-5.822 7.013-11.869 13.847-18.206 20.456-5.081 5.353-10.678 10.2-16.041 15.272-1.078 1.022-5.419 0.797-6.45-0.628-2.334-3.244-4.453-6.722-6.675-10.088-4.678-6.891-9.253-13.847-15.525-19.547-2.503-2.278-4.228-5.466-6.159-8.372-5.419-8.147-13.181-13.959-20.269-20.4-5.475-5.016-11.362-9.572-17.063-14.419-0.572-0.459-0.909-1.313-1.369-1.997zM147.497 288.544c4.509 0.281 6.619-4.444 6.844-8.372 0.225-3.366-2.916-6.15-6.281-6.094-4.172 0.056-8.897 3.759-8.841 6.834 0.056 3.244 4.856 8.372 8.269 7.631zM183.741 248.259c0.056-3.422-2.503-5.756-6.45-5.869-3.375-0.113-7.134 3.703-7.191 7.294-0.056 3.366 3.656 7.519 6.675 7.519 3.431 0 6.9-4.5 6.966-8.944zM195.731 223.078c0 0.572-0.056 1.144 0 1.706 0.225 2.625 2.222 4.903 4.969 5.531 2.447 0.572 4.8 0.112 5.934-2.166 1.481-2.962 2.334-6.216 0.966-9.516-0.338-0.797-1.078-1.538-1.819-1.997-5.653-3.019-10.050-0.169-10.050 6.441zM102.647 224.616c0-4.275-2.569-7.519-5.709-7.809-3.375-0.338-6.844 2.625-6.956 6.609-0.112 3.188 3.713 6.553 7.191 6.553 2.737-0.056 5.475-2.681 5.475-5.353zM119.362 254.419c3.769 0.056 5.653-1.706 5.653-5.409 0.056-3.872-3.075-7.069-6.9-7.125-3.309-0.056-4.856 1.538-4.912 5.072-0.056 4.791 2.053 7.406 6.159 7.463z"></path>
<path d="M209.194 46.613c-1.256 1.594-2.447 3.534-4.172 5.016-4.172 3.759-6.9 8.438-10.050 12.994-3.544 5.128-8.269 9.403-12.722 13.847-0.628 0.628-2.625 0.684-3.6 0.225-4.622-2.222-9.197-4.669-13.753-7.069-2.344-1.256-2.109-1.819-0.403-3.928 4.622-5.756 8.962-11.794 13.463-17.662 3.713-4.847 7.528-9.572 11.475-14.241 0.516-0.628 1.65-0.966 2.503-0.966 3.872 0.056 7.762 0.403 11.588 0.459 1.997 0.056 3.131 0.797 3.6 2.794 0.572 2.681 1.256 5.297 2.053 8.55z"></path>
<path d="M166.341 10.369c3.656 0.572 7.247 0.909 10.678 1.884 1.078 0.281 1.884 2.278 2.334 3.647 1.078 3.075 2.053 6.216 2.625 9.403 0.281 1.481 0.056 3.422-0.741 4.669-3.6 5.7-7.416 11.278-11.241 16.809-2.625 3.759-5.362 7.463-8.156 11.109-1.884 2.503-3.769 5.072-5.878 7.35-1.706 1.884-6.047 0.628-6.9-1.819-0.169-0.459 0.338-1.481 0.797-1.819 5.25-3.703 8.213-9.291 11.531-14.475 1.256-2.053 2.053-4.388 2.803-6.666s-0.797-4.556-3.544-5.128c-4.059-0.853-8.156-1.425-12.216-2.222-1.022-0.169-2.053-0.459-2.963-0.909-1.369-0.684-2.278-1.369-0.909-3.188 3.488-4.613 6.675-9.516 10.050-14.184 1.884-2.625 4.969-3.075 7.875-3.647 1.425-0.281 2.738-0.572 3.881-0.797z"></path>
<path d="M102.356 24.844c0.516-1.144 0.684-1.884 1.144-2.447 3.431-4.556 6.966-9.112 10.444-13.622 0.909-1.2 1.819-2.447 2.794-3.534 1.537-1.706 3.253-2.85 5.709-3.703 4.913-1.65 9.759-1.2 14.662-1.481 2.222-0.113 3.188 0.909 3.994 2.625 1.078 2.503 2.334 4.903 3.375 7.463 0.337 0.797 0.281 2.053-0.113 2.85-2.625 4.669-5.419 9.234-8.044 13.903-0.909 1.65-2.053 2.559-4.059 2.278-6.159-0.853-12.328-1.65-18.431-2.503-3.713-0.572-7.359-1.2-11.475-1.828z"></path>
</svg>
