<!-- Generated by IcoMoon.io -->
<svg version="1.1" xmlns="http://www.w3.org/2000/svg" width="300" height="300" viewBox="0 0 300 300">
<title>fighters-frenzied</title>
<path d="M197.006 32.466c-1.453 2.212-3.103 4.416-4.509 6.816-3.103 5.212-3.525 10.762-1.875 16.491 1.266 4.509 2.353 9.066 3.994 13.434 2.259 5.869 1.922 11.747 0.797 18.141 3.384-0.141 6.534-0.281 9.675-0.469 0.328 0 0.656-0.375 0.984-0.609 2.775-2.259 5.869-4.181 8.175-6.816 1.641-1.875 2.916-4.556 3.197-7.050 0.703-6.347 4.416-10.809 8.691-15.647-0.609 2.822-1.359 5.072-1.453 7.331-0.188 4.041-0.234 8.081 0.047 12.122 0.328 5.025 0.094 10.013-1.547 14.803-1.031 3.009-2.634 5.541-5.072 7.706-3.713 3.384-6.956 7.144-8.222 12.262-0.281 1.078-1.078 2.025-1.781 2.963-3.244 4.181-6.441 8.456-9.862 12.45-1.547 1.828-3.525 3.525-6.909 3.431 2.353-7.425 4.603-14.569 6.862-21.703-0.141-0.187-0.281-0.375-0.375-0.516-5.213 3.619-10.434 7.284-15.741 10.95-0.047-0.328-0.094-0.844-0.188-1.359-0.891-5.587-1.781-11.138-2.634-16.725-0.141-0.75-0.375-1.547-0.375-2.306-0.047-6.769 0-13.528 0-20.016-10.059 4.275-16.162 12.966-21.891 21.422-5.166-5.025-10.481-9.722-15.178-14.991-2.681-3.009-4.416-6.909-6.347-10.528-0.516-0.984-0.281-2.4-0.188-3.619 0.281-4.275 0.656-8.597 0.656-12.919-9.909 11.841-10.106 25.931-9.816 40.5-6.056-4.322-9.628-10.294-13.153-16.444 1.219 13.481 2.166 26.878-3.619 39.844-7.706-5.962-14.756-12.45-21.047-20.109-0.328 0.656-0.563 1.078-0.75 1.547-2.963 9.347-2.259 18.328 3.056 26.738 1.266 1.969 0.938 3.525-0.516 4.978-1.219 1.219-1.359 3.759-3.947 3.384-0.609-0.094-1.266-0.094-1.781-0.422-3.478-2.259-6.956-4.509-8.644-8.503-2.259-5.212-4.509-10.481-6.534-15.787-1.781-4.838-2.212-9.769-1.078-14.944 1.266-5.634 1.922-11.466-0.187-17.1-0.844-2.259-2.213-4.462-3.759-6.347-2.494-3.009-5.306-5.681-8.316-8.831 4.697-0.422 8.878 0.281 13.013 1.313 6.441 1.594 11.184 5.634 15.741 10.153 3.197 3.15 6.628 6.112 10.434 9.534 1.172-4.181 2.213-7.753 3.103-11.372 2.119-8.597 4.041-17.288 3.009-26.128-0.609-5.166-2.822-10.153-4.369-15.225-0.422-1.313-0.938-2.587-1.641-4.462 6.112 3.009 11.7 5.869 15.413 11.278 0.75 1.031 0.984 2.447 1.453 3.666 1.172 3.056 2.213 6.159 3.525 9.159 0.516 1.172 1.734 2.072 3.009 3.525 2.025-3.572 3.759-6.675 5.541-9.722 0.797-1.406 1.594-2.822 2.541-4.134 4.603-6.675 5.775-14.1 5.447-21.984-0.047-1.266 0.422-2.916 1.219-3.853 2.259-2.681 4.65-5.306 7.331-7.519 4.463-3.619 9.206-6.956 14.044-10.003-1.313 2.916-2.775 5.822-3.947 8.784-2.306 5.728-2.447 11.372 0.938 16.866 1.547 2.541 2.822 5.212 4.416 7.753 3.759 5.972 4.838 12.403 3.619 19.313-0.422 2.541-0.375 5.119-0.375 7.706 0.047 2.962 3.056 4.463 5.681 3.15 3.525-1.781 5.869-4.369 7.847-7.894 5.634-10.434 13.106-18.984 24.197-23.447z"></path>
<path d="M206.034 149.831c0.75 1.5 1.172 2.541 1.734 3.478 2.963 5.353 6.581 10.2 11.653 13.716 1.594 1.125 1.781 1.969 0.516 3.291-1.313 1.313-2.681 2.634-3.853 3.759-6.159-1.078-9.019-6.441-13.575-10.388-4.978 5.072-9.816 10.003-14.662 14.944-27.394 28.097-54.834 56.241-82.228 84.338-6.628 6.769-13.153 13.622-19.781 20.344-4.462 4.509-9.862 7.753-15.506 10.434-4.65 2.166-9.488 3.9-14.288 5.822-2.353 0.938-3.009 0.422-2.681-2.016 0.469-3.572 0.937-7.097 1.453-10.669 0.75-5.072 3.478-9.206 6.488-13.059 3.291-4.228 7.097-8.128 10.762-12.075 32.747-34.913 65.494-69.816 98.297-104.681 3.15-3.338 6.487-6.487 9.581-9.862 1.031-1.125 1.5-2.4 0-4.041-2.822-3.009-5.213-6.394-7.8-9.581-1.266-1.5-1.031-2.728 0.422-3.947 0.891-0.75 1.641-1.687 2.166-2.213 2.681 1.969 5.259 3.853 7.847 5.728 2.963 2.166 5.869 4.463 8.925 6.441 0.703 0.469 2.447 0.281 3.056-0.281 3.338-3.009 6.488-6.253 9.675-9.394 3.197-3.197 6.441-6.3 9.488-9.581 2.494-2.634 4.978-5.4 5.822-9.066 0.281-1.172-0.141-2.494-0.328-4.416 2.588-3.994 7.284-5.166 12.45-5.353 0.609-0.047 1.266 0.094 1.828 0.328 6.488 2.728 9.675 13.2 5.869 19.078-0.703 1.078-1.266 1.5-2.775 0.984-2.822-0.937-5.775-0.234-7.941 1.594-3.525 3.056-6.909 6.347-9.862 9.909-4.556 5.4-8.738 11.184-12.778 16.444z"></path>
<path d="M120.281 206.55c-11.559-10.856-22.931-21.469-34.303-32.091-0.375-2.775-2.728-3.666-4.65-5.025-1.5-1.078-2.728-1.031-4.181 0.047-4.041 2.916-8.175 5.681-12.356 8.55-1.734-1.641-3.244-2.962-4.65-4.416-0.984-0.984-0.891-1.828 0.328-2.869 3.291-2.963 6.394-6.113 9.581-9.206 0.516-0.469 0.891-1.078 1.406-1.547 3.009-2.822 3.244-5.447 0.516-8.597-5.916-6.862-11.841-13.716-17.953-20.391-2.119-2.353-4.697-4.462-8.081-4.791-1.922-0.188-3.9-0.047-6.534-0.047-3.619-3.338-3.9-11.934 0.187-16.491 5.353-6.019 11.137-5.588 19.313 1.406-2.016 1.453-1.406 3.431-0.422 4.978 1.734 2.681 3.712 5.306 5.916 7.612 3.009 3.103 6.394 5.869 9.581 8.831 3.009 2.822 5.916 5.775 9.019 8.456 2.587 2.259 3.197 2.119 5.962-0.094 3.806-2.963 7.612-5.916 11.372-8.972 1.031-0.844 1.875-2.025 2.869-3.103-0.047 0 0.141-0.047 0.234 0.047 4.556 4.041 4.603 4.65 1.031 9.628-1.5 2.119-3.009 4.181-4.509 6.3-1.734 2.4-1.734 3.056 0.469 5.166 4.884 4.791 9.862 9.441 14.756 14.241 7.191 6.956 14.334 13.95 21.516 20.953 0.422 0.422 0.844 0.891 1.406 1.5-6.019 6.581-11.841 13.153-17.85 19.922z"></path>
<path d="M252.778 173.794c-9.909 3.384-19.266 5.166-29.175 6.056 2.072-14.044 9.816-24.9 18.188-35.663-6.3 3.338-12.591 6.441-20.297 6.581 2.541-2.869 4.838-5.963 7.613-8.503 4.791-4.369 10.003-8.222 14.803-12.544 3.056-2.728 5.4-6.253 8.55-8.878 2.213-1.828 5.072-2.916 7.8-4.041s5.541-2.166 8.409-2.869c2.541-0.609 5.213-0.656 7.847-0.937 1.219-0.141 2.447-0.188 4.088-0.328-0.844 0.656-1.453 1.219-2.166 1.641-9.863 6.056-14.569 15.787-18.516 26.034-1.922 5.025-3.384 10.247-5.025 15.366-0.188 0.656-0.281 1.313-0.563 2.494 4.697-0.844 9.113-1.266 13.341-2.447 10.622-2.962 20.391-1.406 29.55 4.65 0.234 0.188 0.469 0.375 1.172 0.891-2.775 0.703-5.166 1.594-7.613 1.922-9.769 1.266-15.741 7.425-18.656 16.069-3.619 10.856-11.653 17.194-20.766 22.509-4.228 2.447-9.3 3.478-14.044 4.931-0.938 0.281-2.213-0.328-3.338-0.891 3.806-1.219 5.072-4.65 6.3-7.472 2.4-5.494 6.113-10.106 8.831-15.319 1.359-2.775 2.259-5.728 3.666-9.253z"></path>
<path d="M144.713 229.331c5.962-6.441 11.794-12.731 17.709-19.125 6.862 6.675 13.387 13.153 20.016 19.547 12.216 11.888 24.525 23.681 36.647 35.616 2.681 2.634 4.837 5.681 7.237 8.55 4.181 5.025 4.556 11.325 5.634 17.334 0.984 5.4 0.891 5.4-4.275 3.525-5.025-1.828-10.106-3.619-15.131-5.541-1.547-0.609-2.963-1.641-4.416-2.541-0.516-0.328-0.938-0.938-1.5-1.078-4.65-1.359-7.519-5.166-10.856-8.269-3.478-3.15-6.816-6.441-10.247-9.628-13.388-12.591-26.784-25.134-40.219-37.678-0.188-0.188-0.375-0.422-0.609-0.703z"></path>
<path d="M69.347 155.381c-0.984 0.422-2.016 0.938-3.103 1.266-3.806 1.172-7.659 2.259-11.512 3.338-0.563 0.187-1.219 0.234-1.781 0.281-3.197 0.094-4.322 2.306-2.775 5.119 1.172 2.166 2.016 4.462 3.009 6.675 0.141 0.375 0.281 0.75 0.469 1.078 2.916 4.275 6.009 8.409 8.644 12.825 1.594 2.775 2.447 5.972 3.619 8.972 0.703 1.781 1.359 3.619 2.119 5.4 0.328 0.75 0.75 1.453 1.031 2.016-6.488-0.609-12.825-1.219-19.359-1.875 3.197 8.081 7.941 13.763 15.741 16.866-2.259 1.031-4.65 0.562-6.816-0.281-5.306-1.969-10.528-4.275-15.788-6.441-0.703-0.281-1.406-0.703-1.922-1.266-3.244-3.619-7.519-5.4-12.028-6.3-6.441-1.266-10.762-5.119-14.194-10.294-1.781-2.728-3.244-5.681-4.462-8.737-1.978-4.838-5.306-8.597-8.691-12.403-0.375-0.422-0.75-0.797-1.547-1.641 5.972 2.259 11.512 3.853 14.991 9.066 2.775 4.181 6.909 5.728 11.794 5.775 0.75 0 1.641 0.047 2.306 0.328 3.338 1.594 6.159 0.281 8.925-1.359 1.172-0.703 2.494-1.266 3.853-1.922-0.375-0.656-0.609-1.266-0.984-1.688-5.588-5.728-6.722-13.2-8.175-20.531-0.563-2.916-1.312-5.775-2.119-8.644-2.072-7.659-7.331-12.309-14.475-15.178-0.75-0.281-1.5-0.609-2.822-1.125 8.316-0.797 15.834-0.047 22.884 3.291 4.416 2.072 8.784 4.416 13.012 6.862 4.509 2.541 8.784 5.447 13.341 7.988 2.016 1.125 4.369 1.688 6.816 2.541z"></path>
</svg>
