<svg xmlns="http://www.w3.org/2000/svg" xml:space="preserve" fill-rule="evenodd" stroke-linejoin="round" stroke-miterlimit="2" clip-rule="evenodd" viewBox="0 0 300 300"><path fill-rule="nonzero" d="M300.094 157.237c-.159 2.241-.375 4.472-.459 6.713-.431 10.772-3.769 20.766-7.941 30.572-2.091 4.903-3.684 10.031-5.438 15.084-2.1 6.056-5.737 11.213-9.356 16.397a30 30 0 0 1-2.616 3.253c-3.975 4.331-7.875 8.719-12.019 12.891-3.206 3.216-7.05 5.531-11.372 7.059-1.463.506-2.841 1.247-4.209 1.987-4.678 2.522-9.525 4.284-14.963 4.219-2.063-.028-4.181.347-6.188.844-4.772 1.153-9.488.15-14.212-.15-1.041-.066-2.128.347-3.206.469-1.209.131-2.438.403-3.619.253a87.1 87.1 0 0 1-21.253-5.391c-5.813-2.269-11.897-3.872-17.7-6.159-9.356-3.684-16.819-9.834-22.734-18.009-3.206-4.406-6.806-8.522-10.238-12.769-2.747-3.403-4.303-7.331-5.4-11.522-.431-1.659-1.022-3.431-2.006-4.8-3.159-4.331-6.338-8.653-9.9-12.647-4.753-5.344-7.153-11.709-8.25-18.516-.478-2.972.319-6.309 1.153-9.309 1.809-6.516 4.059-13.022 8.709-18.066 5.906-6.422 12.984-11.334 21.647-13.434 1.791-.441 3.713-.497 5.578-.563.684-.028 1.425.347 2.081.666 1.566.778 3.066 1.228 4.903.591 3.694-1.284 7.378-.881 10.95.713.291.131.619.253.834.469 6.272 6.141 12.291 12.478 14.897 21.178 1.941 6.487 2.644 13.106 1.838 19.856-.066.534-.15 1.069-.094 1.613.459 4.35-.469 8.522-1.678 12.637-.272.938-.938 1.772-1.444 2.625-.994 1.631-1.997 3.253-3 4.875-1.313 2.091-.881 3.994.412 5.963 3.3 5.016 7.359 9.309 11.897 13.209 1.35 1.162 2.344 2.738 3.647 3.966 1.097 1.059 2.269 2.213 3.628 2.784 7.959 3.431 16.209 4.331 24.656 2.1 5.288-1.397 10.031-4.003 14.4-7.237 2.625-1.941 5.119-4.059 7.641-6.141 3.834-3.178 7.031-6.891 9.459-11.25 2.288-4.116 5.016-8.025 6.834-12.337 2.663-6.281 3.684-13.059 4.537-19.819 1.088-8.494 2.175-17.006 2.972-25.528.291-3.159-.028-6.422-.384-9.581-.591-5.156-1.163-10.341-2.25-15.413-1.097-5.175-2.972-10.106-5.747-14.728-2.381-3.975-4.331-8.25-4.819-12.994 0-.056 0-.103-.009-.159-1.969-4.003-3.647-8.222-7.031-11.334-1.331-1.219-3.094-1.987-4.397-3.216-1.491-1.425-2.616-3.188-4.003-4.716-1.059-1.162-2.147-2.362-3.431-3.253-1.809-1.256-3.694-2.334-4.566-4.556-.178-.459-.975-.712-1.528-.947-1.959-.816-4.05-1.378-5.878-2.4-2.428-1.35-4.706-2.972-6.956-4.613-4.209-3.037-8.775-5.306-13.716-6.872-1.416-.459-2.869-.947-4.181-1.65-8.588-4.566-17.775-7.247-27.281-9.122-5.241-1.031-10.406-2.428-15.647-3.525-1.556-.319-3.206-.197-4.8-.281-2.4-.103-4.809-.244-7.209-.272a38 38 0 0 0-4.622.244c-4.144.478-8.278.938-12.394 1.603-6.722 1.087-13.331 2.644-19.256 6.253-1.781 1.087-3.628 2.081-5.559 2.869-3.431 1.434-6.684 3.037-9.216 5.925-.666.759-1.725 1.425-2.709 1.603-1.772.319-2.775 1.425-3.816 2.681-1.153 1.378-2.381 2.719-3.722 3.928-4.987 4.491-9.712 9.188-13.678 14.644-1.247 1.716-2.85 3.15-4.238 4.772-1.181 1.378-2.381 2.747-3.403 4.237-3.534 5.175-6.938 10.425-10.519 15.581-1.125 1.622-2.531 3.037-3.928 4.444-3.178 3.206-5.091 7.059-6.347 11.362-.722 2.494-1.931 4.847-2.869 7.275-1.181 3.028-2.409 6.028-3.413 9.112-.806 2.494-1.397 5.063-1.894 7.622-.525 2.719-.788 5.494-1.228 8.222-.403 2.466-1.209 4.912-1.256 7.378-.103 4.209.056 8.456.403 12.647.872 10.744 2.962 21.3 5.316 31.809.066.309.084.666.225.928 2.737 4.622 2.269 10.341 5.156 14.888 4.209 14.053 12.666 25.472 22.416 36.084 7.284 7.931 14.456 15.975 21.919 23.737 2.438 2.55 5.644 4.369 8.456 6.563 2.775 2.175 5.484 4.434 8.241 6.609.872.684 1.781 1.406 2.784 1.8 6.741 2.559 13.509 5.034 20.259 7.528.591.216 1.247.375 1.875.347 3.244-.131 6.272.712 9.178 1.987 2.897 1.247 5.691 1.556 8.7.272.741-.309 2.091.197 2.869.741 1.209.844 2.409 1.153 3.863 1.256 4.744.347 9.487.947 14.231 1.303 2.222.159 4.491.131 6.703-.103 2.503-.272 4.847.131 6.938 1.406.787.478 1.191 1.622 1.959 2.747-1.256.225-2.081.497-2.906.506-5.287.094-10.584.216-15.891.131-2.709-.038-5.409-.478-8.119-.759-.947-.103-1.913-.478-2.85-.413-2.053.15-3.675-.534-5.316-1.716-.741-.525-2.213-.563-3.094-.216-1.725.712-3.188.666-4.706-.366-.253-.178-.563-.281-.872-.347-2.091-.553-4.181-1.153-6.3-1.612-1.491-.319-3.019-.469-4.528-.666-.216-.028-.469.094-.628.009-2.625-1.191-5.297-.403-7.969-.384-2.175 0-4.378-.75-6.487-1.434-3.909-1.275-7.678-3.525-11.653-3.928-7.088-.722-12.263-5.316-18.422-7.809-5.813-2.362-11.147-5.709-15.703-10.144-.347-.338-.844-.628-.975-1.031-.712-2.241-2.587-3.253-4.303-4.556-2.503-1.884-4.997-3.881-7.153-6.15-3.309-3.497-6.431-7.191-9.459-10.95-1.678-2.081-2.962-4.444-4.5-6.647-2.756-3.938-5.653-7.8-8.344-11.775-1.416-2.119-2.569-4.425-3.787-6.675-2.869-5.316-5.784-10.613-8.522-15.994-.966-1.884-1.509-3.975-2.175-6.019-1.556-4.894-2.756-9.9-4.622-14.662-2.597-6.684-3.647-13.734-5.372-20.634-1.556-6.206-2.85-12.459-2.25-18.891.928-9.684 1.678-19.425 5.1-28.688.413-1.125.347-2.409.619-3.6.478-2.063.937-4.125 1.622-6.122.722-2.1 1.837-4.069 2.503-6.188 2.372-7.519 5.194-14.794 9.216-21.638 4.059-6.909 7.613-14.138 11.522-21.141.881-1.594 2.156-3.056 3.487-4.341 1.931-1.875 3.366-3.975 4.275-6.497.441-1.228 1.097-2.409 1.772-3.553.656-1.097 1.528-2.081 2.175-3.188 4.678-8.175 11.447-14.4 18.891-19.884 4.303-3.159 9-5.766 13.556-8.578.759-.469 1.622-.928 2.494-1.097 3.628-.713 6.75-2.569 10.013-4.144 5.4-2.588 11.25-3.338 17.109-4.022 5.625-.656 11.269-1.059 16.791-2.644 2.559-.722 5.409-.412 8.128-.591 1.059-.066 2.119-.197 3.159-.291h9c2.438.216 4.875.412 7.313.647 7.519.694 15.047 1.256 22.537 2.147 8.803 1.041 17.269 3.563 25.594 6.591 7.622 2.784 15.394 5.184 22.884 8.278 5.991 2.466 11.063 6.938 17.578 8.409 9.834 5.212 19.134 11.175 27.009 19.172 5.147 5.241 9.431 11.081 13.088 17.419.834 1.434 1.659 2.944 2.841 4.059 1.903 1.781 3.216 3.862 4.191 6.188 1.181 2.813 2.456 5.597 3.469 8.456 1.875 5.222 3.741 10.481 5.334 15.797.619 2.063.459 4.35.741 6.516 1.772 13.106 3.6 26.194 5.344 39.3.366 2.691.413 5.428.6 8.147.037 2.091.037 4.125.037 6.159z"/><path fill-rule="nonzero" d="M47.306 171.497c-1.322-1.781-2.475-3.188-3.488-4.706-1.35-2.034-1.378-4.219.131-6.15 3-3.816 6.159-7.519 9.216-11.306 1.031-1.284 1.866-2.738 2.897-4.031 1.153-1.463 2.4-2.831 3.619-4.219.497-.563 1.153-1.031 1.5-1.659 2.944-5.466 7.566-9.45 12.178-13.331 7.247-6.112 14.391-12.459 22.294-17.606 9.281-6.056 19.144-11.391 30.188-13.894 6.675-1.519 13.275-3.337 20.016-4.378 4.331-.666 8.859.028 13.275-.253 6.534-.413 12.591 1.331 18.638 3.413 1.003.347 2.213.197 3.319.15 3.216-.159 5.588 1.209 6.741 4.153.506 1.284.375 2.869.366 4.313-.009.778-.628 1.584-.534 2.316.122.909.506 2.241 1.134 2.494.647.272 1.987-.319 2.559-.966.947-1.041 1.528-2.438 2.269-3.684 1.397-2.344 2.597-2.381 4.022-.103.966 1.556 2.428 2.344 4.153 2.784 2.316.6 4.744 1.022 6.928 1.969 2.063.9 3.9 2.362 5.813 3.591.666.431 1.275.975 1.941 1.406 2.494 1.65 5.016 3.253 7.491 4.912a7 7 0 0 1 1.528 1.406c3.028 3.769 6.159 7.453 9 11.363s5.316 8.034 7.969 12.056c4.341 6.553 6.525 13.931 7.969 21.534.347 1.809-.216 3.778-.375 6.028-2.334-1.313-3.834-2.719-4.987-4.688-.713-1.219-1.903-2.213-2.991-3.178-1.678-1.472-3.563-2.709-5.156-4.256-4.097-4.003-8.091-8.109-12.084-12.206-1.556-1.603-2.784-3.619-4.537-4.931-4.191-3.131-8.522-6.141-12.966-8.897-10.369-6.431-21.853-9.647-33.844-11.334-4.341-.619-8.616-1.725-12.966-2.119-3.441-.309-6.956.103-10.425.309-4.65.253-9.3.6-13.95.928-.469.028-.947.15-1.406.291-6.713 2.184-13.453 4.313-19.753 7.584-1.275.656-2.719.938-4.05 1.519-2.587 1.134-5.212 2.213-7.678 3.581-5.241 2.906-10.303 6.141-15.581 8.953-6.553 3.487-12.084 8.297-17.756 12.947-4.219 3.469-8.25 7.144-12.394 10.706-.722.628-1.491 1.284-2.363 1.659-2.944 1.275-5.775 2.625-7.894 5.55z"/><path fill-rule="nonzero" d="M185.981 184.669c.713-2.925 1.528-6.113 2.222-9.356.197-.938-.028-1.959-.009-2.944 0-2.025-.103-4.05.131-6.047.066-.534 1.162-1.219 1.884-1.341 2.213-.384 4.472-.469 6.684-.806 6.066-.928 12.019-2.241 17.738-4.584 3-1.228 6.188-2.025 9.272-3.066.975-.338 1.697-.056 1.884.844.272 1.369.647 2.869.319 4.162-.778 3.188-2.934 5.616-5.559 7.434-7.088 4.903-14.166 9.825-21.469 14.363-3.375 2.091-7.275 3.338-10.969 4.866-.366.15-1.256-.291-1.462-.684-.384-.741-.431-1.631-.684-2.85zM111.028 192.047c-.375.534-.834 1.303-1.406 1.941-.253.281-.759.366-1.163.478-2.184.666-3.778.619-5.428-1.678-1.331-1.838-3.806-3.15-6.028-3.975-6.375-2.362-12.216-5.653-17.897-9.3-1.697-1.087-2.963-2.466-3.591-4.369a203 203 0 0 1-1.941-6.272c-.375-1.256.178-1.744 1.425-1.463.881.197 1.809.375 2.616.759 4.613 2.278 9.609 2.831 14.588 3.497 1.059.15 2.128.197 3.188.375 1.397.244 2.588.028 3.741-.909 1.275-1.031 2.625-.778 3.094.778 2.034 6.591 5.428 12.553 8.456 18.675.159.347.188.741.366 1.444z"/></svg>