<!-- Generated by IcoMoon.io -->
<svg version="1.1" xmlns="http://www.w3.org/2000/svg" width="300" height="300" viewBox="0 0 300 300">
<title>fighters-thrall</title>
<path d="M150.966 0c0.394 0.759 1.050 1.491 1.144 2.278 1.275 11.109 2.503 22.228 3.694 33.347 0.122 1.144 0.703 1.509 1.753 1.65 9.881 1.359 19.050 4.753 27.703 9.628 5.391 3.037 10.294 6.731 14.831 10.941 1.594 1.491 2.034 1.669 3.825 0.478 4.838-3.187 9.684-6.375 14.372-9.797 7.734-5.634 16.303-9.9 24.375-14.953 0.412-0.263 0.984-0.291 1.903-0.553-0.591 0.806-0.891 1.256-1.238 1.678-4.659 5.7-9.384 11.363-13.988 17.109-3.694 4.603-7.228 9.328-10.847 13.978-1.509 1.95-3.028 3.909-4.584 5.822-0.844 1.050-0.834 2.006-0.253 3.188 2.447 4.912 4.866 9.844 7.144 14.822 2.091 4.528 2.813 9.431 3.553 14.325 0.084 0.591 0.206 1.2 0.216 1.8 0.037 1.2 0.647 1.866 1.791 2.081 3.028 0.553 6.047 1.097 9.084 1.65 7.041 1.313 14.072 2.644 21.112 3.919 1.791 0.319 3.628 0.291 5.391 0.656 1.828 0.375 3.619 1.059 5.409 1.603 0 0.141 0 0.291 0 0.431-2.231 0.516-4.434 1.125-6.675 1.547-4.613 0.872-9.272 1.491-13.856 2.475-6.197 1.341-12.356 2.953-18.534 4.397-2.184 0.516-3.309 1.603-3.778 4.013-1.472 7.603-3.197 15.178-6.788 22.172-2.484 4.828-5.409 9.328-9.075 13.341-1.913 2.091-1.922 2.297-0.488 4.716 5.831 9.947 11.691 19.903 17.522 29.869 0.281 0.478 0.544 0.956 0.956 1.725-0.684 0-1.238 0.159-1.641-0.028-1.453-0.684-2.972-1.313-4.238-2.259-7.959-5.963-15.844-12.019-23.756-18.028-2.766-2.091-2.972-2.053-6.047-0.328-4.753 2.662-9.356 5.662-14.344 7.762-7.575 3.216-15.656 4.631-23.888 4.941-3.141 0.122-6.253 0.291-9.384 0.375-1.35 0.037-1.828 0.591-1.838 1.941s0.45 1.941 1.819 1.978c2.616 0.075 4.875 1.125 6.928 2.681 3.291 2.484 6.216 5.278 8.297 8.897 1.603 2.813 2.756 5.662 2.456 9.019-0.206 2.334 0.253 2.625 2.559 2.634 2.681 0.009 5.353 0.113 8.034-0.028 0.834-0.037 1.894-0.525 2.391-1.172 3.291-4.228 7.519-6.431 12.863-7.097 9.769-1.238 18.806 1.022 27.544 5.081 2.934 1.359 4.912 3.628 5.344 7.031 0.066 0.506 0.656 1.144 1.144 1.35 3.666 1.434 7.331 2.859 11.072 4.088 1.050 0.338 2.456 0.291 3.487-0.122 3.638-1.462 7.209-1.35 10.519 0.516 4.734 2.681 9.497 5.409 13.837 8.644 4.144 3.084 6.637 7.416 6.384 12.9-0.047 1.162-0.075 2.316 0.009 3.478 0.516 6.291-3.056 10.528-7.322 14.362-1.903 1.716-4.35 2.053-6.844 1.903-1.772-0.113-3.516-0.45-5.278-0.469-0.797 0-1.838 0.319-2.334 0.881-2.484 2.85-4.772 5.859-7.228 8.747-1.087 1.284-1.472 2.644-1.472 4.284 0 1.95-0.066 3.947-0.45 5.85-1.059 5.119-4.847 8.559-10.050 9.019-8.606 0.741-17.231 1.341-25.847-0.028-1.65-0.262-3.309-0.328-4.969-0.525-2.897-0.338-5.316-1.678-7.162-3.844-0.806-0.947-1.341-2.241-1.688-3.469-0.553-1.912-1.509-2.925-3.459-2.962-2.569-0.066-5.156-0.038-7.734-0.066-1.613-0.009-2.456 1.097-3.384 2.222-1.903 2.316-3.909 4.584-5.934 6.806-0.909 0.994-2.119 1.341-3.525 1.397-3 0.122-5.756-0.262-8.4-1.894-4.753-2.934-9.816-5.409-14.391-8.606-3.525-2.456-6.572-5.625-9.647-8.644-1.847-1.819-2.053-4.172-1.125-6.619 0.844-2.269 0.769-2.344-1.547-3.262-1.069-0.431-2.137-0.891-3.178-1.434-1.209-0.628-1.931-0.441-2.363 0.956-0.3 0.994-0.816 1.95-1.35 2.85-1.931 3.206-4.594 4.969-8.531 5.016-8.184 0.084-16.359 0.431-24.553 0.609-2.634 0.047-4.913-0.956-6.881-2.709-1.566-1.397-1.903-1.359-3.703-0.281-2.194 1.322-4.406 2.662-6.694 3.834-4.622 2.372-9.281 4.65-13.95 6.938-5.269 2.569-10.884 0.506-13.547-4.744-1.987-3.9 0.188-10.153 5.044-10.603 0.816-0.075 1.65-0.722 2.344-1.275 3.825-3.038 8.025-5.419 12.712-6.863 0.844-0.262 1.791-0.45 2.644-0.356 0.647 0.075 1.65 0.609 1.744 1.069 0.141 0.731-0.159 1.753-0.656 2.334-0.731 0.853-1.791 1.472-2.747 2.128-2.316 1.575-4.659 3.131-6.928 5.072 0.366 0 0.778 0.113 1.097-0.009 1.622-0.666 3.291-1.303 4.837-2.119 3.159-1.678 6.262-3.487 9.394-5.194 0.975-0.525 1.416-1.219 1.284-2.306-0.141-1.144-0.225-2.306-0.403-3.45-0.919-5.859 2.119-10.162 7.959-11.288 4.903-0.928 9.769-2.025 14.691-2.822 5.616-0.909 11.288-1.641 16.941-2.269 3.544-0.394 9.844 3.544 11.063 6.863 0.412 1.134 0.375 2.484 0.319 3.722-0.075 1.566 0.563 2.278 2.016 2.888 3.563 1.491 7.003 3.262 10.547 4.828 0.487 0.216 1.359 0.084 1.828-0.225 1.978-1.313 3.816-2.813 5.775-4.134 1.913-1.303 3.844-1.050 5.616 0.291 1.688 1.275 3.3 2.672 5.025 3.9 2.588 1.828 5.334 3.431 7.856 5.344 3.853 2.916 7.669 5.897 11.334 9.056 1.416 1.219 2.681 2.166 4.622 2.016 1.453-0.113 2.934-0.038 4.397-0.028 0.872 0 1.322-0.394 1.341-1.256 0.084-3.216 1.819-5.409 4.35-7.209 3.45-2.447 7.2-3.741 11.466-3.722 5.859 0.038 11.728 0.066 17.588-0.084 4.284-0.103 7.631 1.509 10.331 4.716 1.547 1.837 1.838 1.828 3.497 0.028 2.259-2.447 4.5-4.913 6.797-7.322 0.928-0.984 0.994-1.725 0.141-2.85-3.159-4.125-6.197-8.325-9.272-12.506-1.219-1.678-1.397-3.534-0.797-5.456 0.338-1.088 0.066-2.044-0.891-2.456-2.813-1.209-5.672-2.297-8.569-3.3-0.403-0.141-1.172 0.3-1.584 0.684-2.709 2.522-5.944 3.516-9.591 3.403-5.287-0.159-10.622-0.103-15.872-0.647-3.478-0.356-6.938-1.359-10.256-2.494-1.678-0.572-3.178-1.931-4.519-3.178s-2.7-2.072-4.594-2.278c-4.059-0.45-8.1-1.106-12.122-1.791-1.416-0.244-2.409 0.188-3.384 1.144-2.822 2.803-5.972 5.109-9.712 6.553-3.253 1.256-6.534 1.603-9.956 0.881-5.447-1.162-10.584-2.991-14.878-6.694-2.841-2.447-4.809-5.409-5.447-9.169-0.066-0.394-0.103-0.844-0.319-1.162-1.575-2.409-0.731-4.65 0.178-7.031 2.156-5.644 5.859-9.937 11.025-13.031 0.263-0.15 0.506-0.366 0.778-0.45 3.628-1.256 4.069-4.35 4.397-7.528 0.113-1.069-0.563-1.359-1.416-1.603-3.384-0.984-6.778-2.006-10.153-2.991-7.144-2.053-13.416-5.766-19.313-10.162-1.603-1.2-3.019-1.378-4.716-0.394-7.434 4.284-14.85 8.55-22.294 12.797-3.769 2.156-7.547 4.275-11.325 6.375-0.516 0.291-1.144 0.394-1.725 0.581-0.075-0.112-0.15-0.225-0.216-0.338 0.319-0.431 0.619-0.872 0.947-1.284 7.594-9.684 15.197-19.369 22.781-29.072 1.622-2.081 1.622-2.672-0.009-4.781-7.284-9.319-11.841-19.866-14.213-31.378-0.694-3.394-0.984-6.881-1.35-10.341-0.159-1.509-0.844-2.353-2.306-2.775-10.144-2.878-20.269-5.85-30.712-7.416-2.784-0.413-5.653-0.366-8.25-1.678 0-0.206 0-0.403 0-0.609 1.35-0.375 2.681-0.994 4.059-1.106 4.809-0.431 9.647-0.731 14.484-1.022 3.984-0.244 7.978-0.291 11.944-0.628 2.813-0.244 5.578-0.919 8.391-1.209 2.588-0.263 3.122-0.553 3.544-3.141 1.65-10.031 5.344-19.284 10.847-27.797 1.247-1.941 1.2-3.469-0.084-5.362-5.616-8.241-11.119-16.575-16.641-24.891-0.375-0.581-0.609-1.247-0.909-1.875 0.15-0.122 0.3-0.262 0.441-0.394 2.044 1.256 4.106 2.456 6.084 3.806 6.609 4.509 12.534 10.022 19.856 13.491 1.163 0.553 2.081 0.947 3.084-0.159 6.103-6.656 13.837-10.856 21.947-14.475 7.397-3.3 15.131-5.297 23.147-6.216 1.8-0.216 2.766-1.106 3.216-2.85 1.463-5.7 3-11.381 4.556-17.053 1.584-5.728 3.225-11.419 4.838-17.137 0.103 0 0.206 0 0.3 0zM138.9 171.834c0.216 0.009 0.431 0.028 0.647 0.038 0.525 0.872 1.209 1.688 1.547 2.625 0.919 2.494 1.763 5.044 2.513 7.594 0.281 0.956 0.741 1.322 1.697 1.256 3.731-0.216 7.481-0.188 11.175-0.656 12.253-1.537 23.222-6.216 32.944-13.828 1.069-0.844 1.5-1.866 1.209-3.169-0.159-0.778-0.412-1.547-0.591-2.344-0.431-1.875 0.488-3.009 2.4-2.775 0.853 0.103 1.725 0.516 2.494 0.975 1.219 0.741 2.166 0.572 3-0.572 1.856-2.522 3.75-5.006 5.597-7.528 6.891-9.394 10.537-19.969 11.681-31.491 0.112-1.162-0.216-1.903-1.238-2.475-1.144-0.647-2.269-1.35-3.3-2.147-1.144-0.872-1.125-1.613 0.113-2.344 0.984-0.581 2.119-0.947 3.197-1.341 1.031-0.375 1.603-0.984 1.434-2.147-0.572-3.834-0.919-7.716-1.725-11.494-1.762-8.325-5.306-15.919-10.050-22.969-0.703-1.059-1.425-1.472-2.606-0.684-0.703 0.469-1.5 0.834-2.316 1.125-0.619 0.225-1.313 0.253-1.978 0.375-0.103-0.666-0.356-1.35-0.262-1.987 0.225-1.538 0.544-3.075 0.947-4.575 0.328-1.237-0.028-2.147-0.928-2.962-1.462-1.322-2.859-2.709-4.331-4.013-11.063-9.694-23.925-15.15-38.559-16.528-1.491-0.141-2.531 0.244-3.234 1.603-0.666 1.294-1.425 2.559-2.231 3.769-0.872 1.341-1.913 1.322-2.606-0.075-0.628-1.294-1.134-2.681-1.491-4.069-0.253-0.956-0.656-1.416-1.659-1.313-1.144 0.112-2.306 0.206-3.459 0.356-15.656 1.95-28.931 8.709-40.097 19.753-1.013 1.013-1.2 1.978-0.581 3.244 0.769 1.584 1.584 3.178 2.081 4.838 0.206 0.694-0.216 1.744-0.684 2.381-0.216 0.291-1.313 0.178-1.875-0.066-1.013-0.431-1.931-1.088-2.897-1.641-1.913-1.087-2.897-0.844-3.966 1.069-1.791 3.15-3.563 6.319-5.25 9.534-3.113 5.916-4.734 12.281-5.672 18.863-0.216 1.537 0.281 2.419 1.866 2.644 0.891 0.122 1.8 0.291 2.644 0.581 0.628 0.206 1.181 0.628 1.791 0.956-0.337 0.619-0.544 1.453-1.069 1.8-1.181 0.806-2.484 1.575-3.844 1.969-1.5 0.431-2.072 1.134-2.034 2.644 0.366 15.787 5.625 29.738 15.534 42.019 0.919 1.144 1.828 1.387 3.131 0.759 2.447-1.2 4.903-2.372 7.388-3.469 1.256-0.553 2.766-1.688 3.872-0.319 0.984 1.238-0.413 2.409-1.106 3.45-1.716 2.55-3.459 5.053-5.278 7.688 9.225 7.819 19.575 12.984 31.622 15.328 0.975-2.475 1.894-4.856 2.887-7.209 0.45-1.059 1.031-2.053 1.547-3.075zM112.659 253.734c-1.134-2.147-2.709-2.166-4.359-1.903-7.012 1.125-14.025 2.241-21.037 3.394-1.181 0.188-2.456 0.328-3.497 0.872-0.722 0.375-1.097 1.397-1.641 2.147 0.628 0.291 1.219 0.703 1.875 0.844 2.091 0.431 3.253 1.931 2.869 4.031-0.206 1.134-0.525 2.241-0.891 3.338-0.516 1.584-0.122 2.222 1.547 2.128 4.969-0.262 9.928-0.572 14.878-0.891 1.8-0.113 3.628-0.291 5.419-0.553 1.069-0.15 2.213-0.609 2.213-1.875 0-1.434-1.275-1.087-2.194-1.162-1.5-0.113-2.006-0.619-1.866-2.109 0.159-1.706 0.487-3.394 0.647-5.091 0.15-1.584 1.022-2.072 2.503-2.194 1.172-0.103 2.306-0.619 3.525-0.975zM194.897 288.712c1.069 0.262 1.678 0.488 2.297 0.553 1.716 0.188 3.45 0.159 5.119 0.488 7.078 1.387 14.203 0.525 21.3 0.375 0.834-0.009 2.044-0.028 1.866-1.387-0.178-1.247-1.209-1.125-2.147-0.975-2.85 0.441-6.281-1.762-7.087-4.547-0.741-2.569 0.112-4.706 2.419-6.009 1.022-0.581 1.106-1.238 0.122-1.903-0.506-0.338-1.181-0.478-1.819-0.572-6.066-0.872-12.169-0.244-18.253-0.291-0.609 0-1.209 0.225-2.203 0.431 0.778 0.844 1.266 1.472 1.847 1.978 1.762 1.547 2.559 3.488 1.706 5.691-0.516 1.35-1.547 2.531-2.494 3.684-0.647 0.778-1.509 1.416-2.672 2.484zM206.297 231.094c-0.262-0.656-0.413-1.134-0.628-1.575-1.35-2.775-0.984-4.378 1.378-6.337 0.338-0.291 0.797-0.872 0.703-1.134-0.122-0.366-0.703-0.722-1.144-0.816-1.969-0.431-3.956-0.778-5.934-1.134-4.969-0.891-9.9-1.791-15-0.741-2.119 0.441-2.297 0.516-1.5 2.588 0.806 2.109 1.594 4.238 2.362 6.356 0.469 1.284 1.247 2.119 2.672 2.353 5.166 0.872 10.359 1.238 15.6 0.834 0.441-0.038 0.872-0.216 1.509-0.375zM146.109 266.456c-0.122 1.716-0.216 2.916-0.319 4.106-0.216 2.719-1.378 3.994-4.069 4.434-0.356 0.066-0.769-0.028-1.031 0.141-0.581 0.356-1.537 0.834-1.537 1.256 0 0.703 0.441 1.706 1.022 2.081 3.122 2.016 6.375 3.862 9.534 5.813 2.578 1.575 5.128 3.216 7.688 4.828 0.741 0.478 1.491 0.741 2.119-0.122 0.609-0.816 0.262-1.509-0.394-2.128-0.113-0.103-0.225-0.206-0.328-0.319-1.172-1.219-1.462-5.044-0.412-6.356 0.253-0.319 0.731-0.488 1.144-0.609 1.678-0.413 2.053-1.509 0.769-2.719-1.059-0.994-2.316-1.753-3.506-2.625-2.184-1.613-4.369-3.225-6.553-4.838-1.247-0.891-2.513-1.791-4.144-2.953zM253.106 258.666c1.256-0.394 2.353-0.684 3.441-1.069 1.566-0.572 2.128-1.538 1.425-3.066-1.050-2.269-2.241-4.491-3.6-6.591-1.181-1.856-2.569-3.628-4.078-5.222-1.575-1.65-3.347-3.178-5.194-4.509-1.275-0.919-2.1-0.45-3.019 0.806-1.238 1.688-2.578 3.328-3.994 4.875-0.666 0.741-0.647 1.256-0.047 1.931 1.922 2.128 3.825 4.284 5.784 6.375 0.338 0.366 1.031 0.769 1.416 0.656 2.419-0.722 4.256 0.928 6.347 1.462 0.572 0.15 0.994 1.256 1.275 2.006 0.244 0.694 0.159 1.472 0.244 2.344zM137.588 228.038c0.047-0.122 0.084-0.262 0.141-0.394 0.253 0 0.506 0.009 0.759 0 1.725-0.066 3.375-1.031 3.637-2.634 0.113-0.666-0.806-1.622-1.434-2.278-1.050-1.097-1.275-2.222-0.291-3.356 0.909-1.050 2.072-1.875 3.019-2.888 0.431-0.45 1.031-1.341 0.853-1.659-0.516-0.975-1.313-1.819-2.147-2.559-0.141-0.122-1.097 0.478-1.509 0.909-0.816 0.881-1.472 1.931-2.306 2.803-1.35 1.453-3.15 1.641-4.912 1.144-1.547-0.431-1.838-1.866-1.903-3.291 0-0.103-0.009-0.206-0.037-0.3-0.244-1.238-1.050-1.603-1.847-0.656-1.181 1.416-2.419 2.916-3.141 4.575-1.209 2.738 0.291 6.178 3.619 7.941 2.306 1.219 4.978 1.791 7.481 2.644z"></path>
</svg>
