<!-- Generated by IcoMoon.io -->
<svg version="1.1" xmlns="http://www.w3.org/2000/svg" width="300" height="300" viewBox="0 0 300 300">
<title>fighters-fly</title>
<path d="M204.956 0c1.5 0.178 3.028 0.309 4.519 0.581 0.759 0.131 1.472 0.516 2.166 0.994-2.719 2.531-5.625 3.9-9.291 3.609-1.688-0.131-3.478 0.094-5.109 0.525-3.581 0.947-7.097 2.156-10.641 3.244-0.459 0.141-0.938 0.384-1.387 0.328-3.309-0.384-6.338 0.647-9.234 1.912-4.35 1.884-8.944 2.916-13.481 4.237-4.509 1.313-8.85 3.197-13.247 4.856-2.053 0.769-4.144 1.528-6.159 2.409-0.797 0.347-1.491 0.975-2.175 1.538-1.097 0.919-2.053 2.072-3.262 2.803-6.253 3.806-12.563 7.5-18.844 11.259-0.984 0.591-2.034 1.219-2.728 2.091-1.509 1.856-3.487 2.813-5.653 3.563-1.050 0.356-2.053 0.806-3.113 1.181-1.162 0.422-1.856 1.2-2.381 2.334-0.441 0.975-1.181 1.856-1.922 2.663-0.544 0.591-1.228 1.097-1.941 1.491-6.469 3.581-10.725 9.413-15.272 14.944-0.666 0.816-0.863 1.987-1.35 2.972-0.609 1.266-1.097 2.681-1.987 3.722-1.556 1.809-1.688 3.722-1.031 5.803 0.422 1.331 1.669 1.725 3.094 0.975 2.306-1.219 4.519-2.559 6.844-3.741 4.031-2.053 8.119-3.994 12.141-6.038 6.45-3.263 13.462-4.106 20.513-4.912 6.122-0.694 12.244-1.575 18.375-2.166 9.656-0.928 19.322-1.434 28.997-0.131 8.644 1.163 17.362 1.922 25.903 3.619 10.369 2.072 20.522 5.147 30.591 8.466 9.788 3.234 18.075 8.662 25.425 15.741 4.162 4.003 8.522 7.809 12.769 11.728 0.497 0.459 0.816 1.087 1.219 1.641-0.094 0.159-0.197 0.309-0.272 0.478-0.563-0.141-1.219-0.159-1.706-0.441-4.716-2.794-9.441-5.578-14.091-8.466-3.103-1.922-6.159-3.947-9.113-6.084-3.375-2.428-6.816-4.688-10.922-5.747-0.328-0.084-0.638-0.225-0.938-0.366-2.334-1.031-4.688-1.725-7.294-1.987-2.841-0.291-5.756-1.031-8.316-2.25-2.353-1.116-4.65-1.537-7.181-1.866-2.944-0.384-5.756-1.556-8.691-2.072-6.159-1.097-12.375-1.875-18.516-3.019-5.194-0.966-10.388-1.519-15.656-1.322-1.444 0.047-2.887 0.197-4.331 0.262-4.031 0.197-8.081 0.225-12.075 0.609-2.925 0.272-5.756 1.313-8.672 1.481-7.322 0.394-14.053 3.131-21.075 4.716-1.359 0.309-2.737 0.6-4.050 1.059-2.175 0.731-4.294 1.584-6.431 2.409-1.163 0.441-2.353 0.853-3.487 1.359-1.828 0.806-3.731 1.528-5.419 2.55-2.231 1.35-4.303 2.859-7.059 3.094-1.434 0.122-5.072 4.884-4.941 6.338 0.047 0.469 0.591 1.031 1.050 1.266s1.134 0.159 1.706 0.169c6.028 0.131 12.056 0.206 18.075 0.422 2.297 0.084 4.566 0.553 6.862 0.806 1.050 0.122 2.119 0.206 3.159 0.169 2.766-0.094 5.456 0.253 8.091 1.191 1.584 0.563 3.244 0.881 4.866 1.322 9.591 2.681 19.153 5.494 28.088 9.984 3.188 1.603 6.403 3.15 9.45 4.978 3.459 2.081 6.778 4.406 10.078 6.722 2.006 1.406 3.834 3.084 5.822 4.509 8.175 5.85 14.719 13.247 20.512 21.366 0.309 0.441 0.431 1.031 0.647 1.566-0.141 0.122-0.291 0.244-0.431 0.366-0.516-0.338-1.088-0.628-1.566-1.022-6.637-5.362-13.228-10.772-19.875-16.106-4.772-3.834-10.284-6.366-15.872-8.794-3.272-1.416-6.413-3.103-9.666-4.509-2.166-0.928-4.416-1.65-6.656-2.362-4.772-1.491-9.581-2.897-14.353-4.378-5.269-1.641-10.519-3.328-15.797-4.997-0.412-0.131-0.862-0.281-1.266-0.206-3.103 0.563-6-0.581-8.991-0.881-2.175-0.225-4.416-0.159-6.628-0.047-3.178 0.159-6.309 0.441-9.478 0.722-0.9 0.075-1.8 0.244-2.7 0.431-2.053 0.441-4.125 0.919-6.169 1.416-0.684 0.169-1.472 0.366-1.95 0.816-0.412 0.394-0.441 1.181-0.647 1.791 0.553 0.169 1.134 0.525 1.659 0.478 2.447-0.263 4.856-0.759 7.313-0.947 8.484-0.675 16.912-0.722 25.2 1.772 4.303 1.284 8.588 2.587 12.478 4.875 3.441 2.025 7.406 2.372 11.053 3.684 8.822 3.15 17.944 5.512 26.4 9.684 1.884 0.937 3.909 1.641 5.841 2.475 4.162 1.809 7.65 4.462 10.088 8.325 0.431 0.684 0.816 1.416 1.097 2.175 0.6 1.688 0.047 2.794-1.65 3.384-0.675 0.225-1.434 0.263-2.091 0.553-0.638 0.281-1.359 0.647-1.706 1.191-0.553 0.844-0.675 1.959-1.988 2.203-0.178 0.037-0.347 1.031-0.244 1.519 0.759 3.619 0.169 4.875-3.309 6.422-1.191 0.525-1.753 1.359-1.847 2.662-0.328 4.959-3.178 8.616-7.997 9.984-3.666 1.031-5.372 3.722-6.375 7.012-0.6 1.997 0.047 3.891 1.65 5.213 1.922 1.584 3.994 3.009 6 4.491 0.497 0.356 1.022 0.675 1.791 1.191-0.778 0.609-1.331 1.331-2.034 1.556-4.134 1.284-8.287 2.494-12.459 3.666-0.769 0.216-1.622 0.206-2.438 0.225-3.366 0.113-6.731 0.328-10.078 0.244-2.775-0.075-5.531-0.591-8.316-0.778-2.588-0.169-5.222-0.459-7.762-0.169-3.713 0.422-6.3-1.219-8.606-3.731-0.516-0.562-0.947-1.219-1.35-1.866-0.938-1.528-0.806-2.194 0.609-3.309 1.097-0.862 2.231-1.688 3.337-2.541 1.416-1.088 2.513-2.362 3.478-3.947 1.313-2.156 2.934-4.219 5.747-4.884 1.134-0.262 2.212-1.162 3.122-1.969 2.644-2.325 5.194-4.744 7.781-7.125 0.422-0.394 0.853-0.769 1.237-1.2 2.128-2.391 1.856-4.753-0.919-6.337-4.341-2.494-8.55-5.391-13.181-7.144-4.528-1.734-8.625-3.891-12.384-6.853-1.013-0.797-2.456-1.031-3.675-1.584-1.603-0.722-3.309-1.331-4.763-2.287-6.084-3.984-11.953-8.269-19.266-9.9-1.331-0.3-2.672-1.406-3.581-2.503-3.478-4.163-8.719-5.944-13.847-4.050-3.281 1.2-6.347 3-9.525 4.472-0.975 0.459-2.119 0.591-3.075 1.087-0.797 0.413-1.584 1.013-2.1 1.734-0.75 1.022-1.603 1.2-2.372 0.141-0.891-1.247-0.919-2.606-0.141-3.938 1.416-2.456 2.897-4.884 4.313-7.331 0.291-0.497 0.609-1.003 0.759-1.537 0.309-1.191-0.384-2.278-1.584-2.381-1.134-0.094-1.594-0.713-1.819-1.706-0.816-3.534-0.637-7.003 0.928-10.284 4.594-9.675 8.625-19.65 14.916-28.444 1.753-2.466 3.488-4.959 5.306-7.378 2.213-2.944 4.369-5.962 6.806-8.709 6.797-7.631 14.644-14.063 22.969-19.95 0.806-0.581 1.444-1.387 2.175-2.053 0.919-0.844 1.772-1.8 2.822-2.456 7.116-4.331 14.25-8.616 21.412-12.862 2.194-1.303 4.519-2.381 6.684-3.722 1.791-1.097 3.525-2.325 5.138-3.656 1.856-1.537 3.956-2.409 6.309-2.625 4.219-0.384 8.166-1.744 12.159-3.028 3.506-1.134 7.144-1.884 10.716-2.85 1.884-0.516 3.816-1.012 5.644-1.706 3.188-1.2 6.412-2.006 9.834-2.128 1.566-0.047 3.122-0.497 4.688-0.722 2.7-0.384 5.409-0.75 8.128-1.116 0.891-0.122 1.791-0.225 2.681-0.337 1.228-0.038 2.484-0.038 3.741-0.038zM151.275 140.287c-0.178-1.406-1.069-1.5-1.856-1.472-0.338 0.009-0.647 0.6-0.975 0.928 0.591 0.441 1.116 1.022 1.791 1.284 0.244 0.094 0.778-0.544 1.050-0.75z"></path>
<path d="M27.863 236.766c0.891-0.797 1.791-1.603 2.691-2.381 3.197-2.766 6.347-5.475 8.813-9.047 3.394-4.894 7.322-9.422 11.053-14.063 1.528-1.903 3.169-3.731 4.716-5.616 2.409-2.934 4.894-5.822 7.163-8.869 3.75-5.044 7.819-9.797 12.403-14.053 5.147-4.772 9.159-10.369 12.563-16.444 0.797-1.416 1.669-2.831 2.756-4.041 0.553-0.638 1.584-0.938 2.466-1.191 1.556-0.441 3.15-0.731 4.753-1.088 0.553-0.122 1.106-0.347 1.659-0.338 2.025 0.056 4.050 0.159 6.066 0.338 0.591 0.047 1.275 0.253 1.716 0.628 2.081 1.828 3.759 3.9 4.584 6.666 1.556 5.241 0.731 10.219-1.603 14.953-0.713 1.434-2.109 2.597-3.375 3.684-3.028 2.597-6.225 5.006-9.244 7.631-1.8 1.575-3.394 3.403-5.063 5.128-0.469 0.478-0.9 1.003-1.416 1.434-11.325 9.394-23.466 17.672-35.531 26.034-2.7 1.875-5.25 3.825-7.65 6.028-0.881 0.806-1.725 0.966-2.897 0.591-0.712-0.244-1.725-0.178-2.4 0.159-3.441 1.734-6.806 3.619-10.2 5.409-2.222 1.181-2.344 1.134-4.003-0.675 0-0.291 0-0.581 0-0.862z"></path>
<path d="M234.675 70.331c-0.853-0.328-1.603-0.609-2.372-0.919-0.159 0.3-0.272 0.459-0.328 0.638-0.553 2.034-0.544 2.006-2.438 1.153-10.238-4.594-21.038-7.359-31.969-9.694-3.394-0.722-6.75-1.603-10.163-2.137-6.075-0.966-12.188-1.734-18.291-2.522-1.856-0.244-3.75-0.506-5.606-0.412-6.778 0.309-13.537 0.797-20.316 1.162-2.25 0.122-4.528 0.347-6.759 0.112-3.094-0.337-6.009 0.328-9.009 0.862-4.866 0.881-9.778 1.659-14.691 2.241-4.078 0.478-7.847 1.875-11.691 3.113-1.275 0.412-2.569 0.862-3.881 1.106-0.609 0.112-1.603-0.028-1.922-0.431s-0.253-1.491 0.094-1.941c1.275-1.669 2.513-3.497 4.172-4.725 6.806-5.025 13.481-10.359 20.756-14.653 9.966-5.869 19.828-12.066 30.638-16.406 4.313-1.734 8.766-3.15 13.144-4.762 6.994-2.587 14.053-4.978 21.338-6.656 3.375-0.769 6.731-1.612 10.097-2.391 0.206-0.047 0.459 0.047 0.975 0.122-0.637 1.275-1.144 2.456-1.8 3.525-3.319 5.297-3.647 10.828-0.469 16.097 2.672 4.444 5.287 9.122 10.153 11.766 6.675 6.469 15.009 10.547 22.772 15.422 3.094 1.941 5.569 4.388 7.866 7.134 1.012 1.162 0.891 1.903-0.3 3.197z"></path>
<path d="M105.844 90.938c1.613-2.775 3.788-4.172 6.684-4.716 2.681-0.506 5.362-1.191 7.903-2.175 5.269-2.072 10.772-2.897 16.341-3.45 5.653-0.553 11.325-0.947 16.997-1.444 3.787-0.328 7.547-0.947 11.334-1.003 4.95-0.056 9.947 0.009 14.859 0.553 9.141 1.013 18.338 1.941 27.328 3.75 9.731 1.959 19.547 4.088 28.463 8.766 3.291 1.734 6.253 4.116 9.234 6.366 1.641 1.237 1.987 3.009 1.331 4.5-0.553 1.284-1.406 1.734-2.766 1.313-1.622-0.516-3.225-0.478-4.809 0.094-0.356 0.131-0.75 0.309-1.106 0.281-3.534-0.3-6.3 2.109-9.609 2.597-3.281 0.497-6.572 0.984-9.834 1.566-1.659 0.3-3.272 0.806-4.894 1.228-0.272 0.075-0.628 0.122-0.806 0.3-1.856 1.913-4.509 2.306-6.694 3.563-2.503 1.434-4.781 3.197-7.116 4.913-0.591 0.431-1.003 1.163-1.406 1.809-1.069 1.641-2.072 3.319-3.197 4.912-0.169 0.244-0.966 0.309-1.275 0.131-0.516-0.3-0.919-0.844-1.303-1.331-3.478-4.5-7.819-8.109-12.206-11.634-1.734-1.397-3.844-2.325-5.747-3.525-5.4-3.403-11.316-5.728-17.137-8.269-0.609-0.263-1.238-0.553-1.791-0.928-5.747-3.806-12.356-4.763-18.966-5.231-6.478-0.459-12.759-1.922-19.097-3.056-1.491-0.263-2.859-0.459-4.472-0.028-1.959 0.544-4.125 0.159-6.206 0.159zM122.531 91.219c0.422-0.853 0.806-1.472 1.013-2.128 0.047-0.159-0.516-0.722-0.75-0.684-0.628 0.075-1.228 0.375-1.959 0.628 0.337 0.497 0.459 0.694 0.6 0.881 0.253 0.337 0.544 0.647 1.097 1.313zM162.103 98.006c-0.047 0.131-0.094 0.263-0.141 0.413 1.228 0.441 2.456 0.891 4.012 1.444-0.609-1.725-1.528-2.053-3.872-1.856zM194.766 116.672c-0.272 0.047-0.544 0.113-0.816 0.159 0.131 0.759 0.272 1.519 0.412 2.278 0.272-0.112 0.806-0.253 0.806-0.328-0.075-0.713-0.244-1.406-0.394-2.109z"></path>
<path d="M121.191 202.312c1.603-0.497 2.775-0.862 3.975-1.219 0.309-0.094 0.675-0.141 1.003-0.113 2.616 0.253 5.231 0.516 7.838 0.806 0.563 0.056 1.162 0.159 1.697 0.384 3.947 1.744 7.931 1.219 11.888 0.141 2.972-0.806 5.869-1.856 8.813-2.794 2.597-0.834 3.9-0.028 4.041 2.719 0.075 1.275-0.131 2.578-0.281 3.853-0.478 4.294-1.097 8.578-1.444 12.881-0.3 3.638-0.094 7.331-0.497 10.95-0.422 3.909-1.275 7.772-1.959 11.644-0.075 0.422-0.216 0.853-0.206 1.275 0.244 6.891-2.081 13.294-3.675 19.866-0.928 3.787-1.003 7.781-1.453 11.691-0.206 1.819-0.469 3.619-0.6 5.438-0.253 3.441-0.309 6.909-0.684 10.35-0.3 2.691-0.863 5.381-1.491 8.025-0.216 0.919-0.75 1.969-2.119 1.716-2.372-0.431-3.731-1.472-3.872-2.897-0.384-3.722-0.759-7.425-1.144-11.137-0.028-0.197-0.056-0.375-0.094-0.563-0.947-4.5-2.241-8.963-2.813-13.509-0.919-7.35-3.497-14.269-4.95-21.459-0.684-3.384-1.416-6.722-2.475-10.050-1.134-3.581-2.194-7.434-2.044-11.119 0.169-4.078-0.197-7.884-1.5-11.672-0.431-1.238-0.478-2.606-1.622-3.581-0.384-0.328-0.563-1.013-0.647-1.566-0.581-3.516-0.581-7.219-3.666-10.069z"></path>
<path d="M193.153 163.125c1.959 0.553 4.331 0.919 6.412 1.884 4.097 1.884 7.706 4.5 10.509 8.156 1.031 1.359 2.541 2.362 3.778 3.562 2.128 2.081 4.2 4.238 6.375 6.272 1.566 1.472 3.234 2.85 4.941 4.162 2.034 1.537 4.209 2.878 6.206 4.462 3.619 2.878 7.2 5.803 10.669 8.859 2.372 2.091 4.472 4.491 6.778 6.666 4.387 4.162 8.006 8.972 11.587 13.8 1.884 2.541 3.534 5.269 5.278 7.912 0.506 0.759 0.731 1.688-0.075 2.166-0.441 0.262-1.359-0.094-2.006-0.328-0.844-0.3-1.613-0.834-2.475-1.134-1.819-0.628-3.731-1.022-5.475-1.791-1.603-0.713-3.056-1.781-4.537-2.728-0.478-0.309-0.844-0.806-1.331-1.097-5.916-3.581-11.822-7.219-17.794-10.706-3.366-1.959-6.872-3.684-10.284-5.55-9.366-5.138-18.722-10.284-28.088-15.431-1.838-1.012-3.75-1.828-5.662-2.681-3.45-1.519-6.75-3.619-7.988-7.613-0.637-2.072-1.219-4.153-1.753-6.234-0.113-0.431-0.038-0.947 0.075-1.397 1.434-5.737 6.3-9.975 12.516-10.884 0.675-0.122 1.35-0.197 2.372-0.328z"></path>
</svg>
