<svg xmlns="http://www.w3.org/2000/svg" xml:space="preserve" fill-rule="evenodd" stroke-linejoin="round" stroke-miterlimit="2" clip-rule="evenodd" viewBox="0 0 300 300"><path fill-rule="nonzero" d="M189.244 0h.975c.206.084.384.206.6.244 5.737 1.125 11.513 2.156 17.222 3.394 10.547 2.269 21.047 4.697 30.919 9.272a6.4 6.4 0 0 0 2.034.544c2.203.15 4.219.544 5.756 2.4.516.628 1.481.881 2.25 1.266 2.728 1.331 5.456 2.662 8.184 3.975 1.172.572 2.362 1.097 3.516 1.678 2.344 1.209 4.856 2.203 6.966 3.75 3.666 2.7 7.125 5.691 10.556 8.672 3.459 3 6.253 6.572 8.728 10.453 5.1 8.063 7.181 17.063 7.969 26.325.45 5.278.975 10.612-.394 16.003-2.269 8.972-5.522 17.381-11.766 24.319-3.366 3.731-7.191 7.059-10.884 10.491-.938.872-2.062 1.631-3.234 2.119-9.647 3.994-19.303 8.044-29.044 11.794-3.872 1.481-7.978 2.419-12.047 3.281-4.969 1.069-9.544 2.906-13.191 6.459-3.572 3.478-6.872 7.237-10.284 10.856-3.206 3.394-3.891 9.675-1.641 13.8 1.509 2.738 2.888 5.55 4.238 8.372 1.059 2.241.628 4.631-1.031 6.337-.572-.666-1.125-1.313-1.697-1.969-.759-.881-1.387-1.022-2.175.094-.572.797-1.416 1.809-2.269 1.941-3.009.506-5.362 2.297-7.856 3.75-3.253 1.903-6.694 3.666-8.606 7.209-1.697 3.131-3.375 6.3-5.147 9.394-1.238 2.184-1.903 4.453-1.706 6.994.113 1.397.066 2.841-.188 4.209-1.341 6.947-2.794 13.884-4.191 20.822a8.5 8.5 0 0 0-.15 1.294c-.113 3.938-.15 7.884-.309 11.822-.272 6.206-.909 12.441-3.45 18.122-3.694 8.25-5.784 17.128-10.153 25.106-1.275 2.306-2.691 4.116-5.156 5.091-1.116.45-2.034.516-3.094-.394 1.481-1.613 1.247-3-.553-4.191-.244-.159-.253-.872-.206-1.303.309-2.25.703-4.509 1.022-6.759.75-5.391 1.697-10.791-2.203-15.563-.703-.853-1.275-1.313-2.363-1.247-2.916.178-5.831.281-8.756.431-2.606.131-3.947 1.856-3.422 4.369.159.797.45 1.556.6 2.363.722 3.628 1.369 7.247-.366 10.791-.178.366-.328.938-.178 1.266 1.153 2.522-.084 4.753-.759 7.059-.338 1.181-.9 1.275-1.912.759-2.663-1.387-4.8-3.244-6.3-5.916-1.547-2.784-2.456-5.709-3.131-8.822-1.331-6.188-3.028-12.309-4.547-18.459-.516-2.1-1.041-4.162-.216-6.375.328-.881.037-2.025-.066-3.038-.112-1.125-.394-2.222-.506-3.356-.544-5.944-1.031-11.878-1.603-17.822-.244-2.513-.666-4.95-.15-7.556.478-2.344.45-4.875.188-7.256-.769-7.012-3.488-13.5-6.028-20.016-.328-.825-1.191-1.481-1.903-2.119-1.669-1.537-3.638-2.822-5.006-4.575-1.359-1.725-2.972-2.766-4.941-3.487-.966-.356-1.969-.638-2.887-1.088-2.147-1.069-4.116-1.144-6.009.572-.366.328-1.313.431-1.706.188-.431-.272-.872-1.191-.722-1.613.553-1.575.113-2.963-.3-4.434-.206-.769.009-1.706.206-2.541.759-3.216.947-6.459.272-9.675-.487-2.325-1.397-4.556-1.856-6.891-.45-2.222-1.575-3.966-3.009-5.644-2.213-2.606-4.191-5.4-6.394-8.006a24.4 24.4 0 0 0-3.853-3.647c-1.725-1.303-3.647-2.334-5.456-3.525-2.85-1.856-5.813-3.328-9.309-3.544-1.331-.084-2.737-.356-3.938-.909-4.828-2.278-9.609-4.725-14.4-7.097-.394-.188-.797-.572-1.163-.525-2.934.356-5.147-1.313-7.528-2.494-.572-.281-1.294-.253-1.875-.525-1.434-.675-3.122-1.144-4.181-2.222-6.994-7.031-13.697-14.316-18.188-23.494C1.409 96.281-.073 91.35.621 85.762c.431-3.516.394-7.012-.6-10.453v-4.884c.328-2.025.797-4.041.966-6.084.431-5.316 2.212-10.256 4.219-15.122.572-1.359 1.547-2.634 2.588-3.694 2.466-2.522 5.194-4.781 7.613-7.359 7.406-7.912 16.912-12.609 26.475-17.109 8.812-4.153 17.766-8.006 26.747-11.794 3.675-1.547 7.509-2.944 11.4-3.675 5.362-1.022 10.856-1.416 16.303-1.941 5.484-.525 11.062.094 16.462-1.519.703-.216 1.584.159 2.391.244 1.537.178 3.056.422 4.584.487 1.022.038 2.053-.281 3.066-.272.675 0 1.341.309 2.025.478.009.178.028.337.056.516-.694.478-1.331 1.209-2.091 1.388a23 23 0 0 1-4.941.581c-1.181.009-1.706.272-1.978 1.509-.188.872-.75 1.969-1.463 2.363-2.25 1.219-4.669 2.175-7.012 3.216-.131-.131-.272-.272-.403-.394.45-.553.881-1.116 1.416-1.791-.609 0-1.191-.094-1.734.009-5.053.994-10.125 1.912-15.131 3.094-2.128.506-4.284 1.313-6.15 2.466C76.157 21.75 66.988 27.61 57.782 33.45c-2.147 1.359-3.731 3.3-4.163 5.794-.647 3.722-1.331 7.491-1.387 11.241-.094 6.891 4.116 11.391 9.422 15.009 1.997 1.369 4.031 2.728 6.187 3.816 2.344 1.181 4.781 2.541 7.313 2.934 6.422 1.003 12.909 1.537 19.369 2.212 5.184.544 10.313 2.203 15.619.844.3-.084.647-.009.975.009 3.797.3 7.069-1.266 10.284-2.972 1.884-1.003 3.647-2.344 5.634-3.112 4.237-1.603 8.1-4.153 12.694-4.903 5.316-.872 10.481-2.906 16.041-1.753 2.334.478 4.753.553 7.069 1.059 3.694.797 7.575 1.313 10.969 2.85 4.209 1.913 7.969 4.781 11.953 7.181 3.797 2.297 7.481 5.278 12.394 2.972.037-.028.112-.009.159-.028 4.95-.919 9.919-1.809 14.859-2.794 4.303-.853 8.578-1.819 12.863-2.766 3.891-.872 7.8-1.697 11.662-2.728 2.241-.6 2.822-2.063 2.203-4.275-.366-1.294-.572-2.634-.825-3.966-.825-4.406-1.238-8.953-2.541-13.219-2.391-7.791-7.219-14.241-13.031-19.772-4.491-4.284-9.497-8.063-14.344-11.981-1.669-1.359-3.394-2.784-5.334-3.628a42.6 42.6 0 0 1-10.069-6.159c-.506-.403-1.003-.947-1.584-1.116-2.119-.609-2.719-2.203-2.887-4.144zm-36.131 201.806c-.216-.113-.431-.234-.656-.338-.675.609-1.491 1.125-2.025 1.847-.994 1.359-1.734 2.887-2.728 4.238-.825 1.125-1.734 2.269-2.841 3.094-3.694 2.756-7.922 1.059-8.794-3.403a25 25 0 0 0-.872-3.3c-.338-.994-1.031-1.238-1.847-.459-1.144 1.069-2.334 2.128-3.356 3.309-.938 1.097-.938 2.222.309 3.244a7.7 7.7 0 0 1 1.669 1.969c1.725 3 3.478 5.981 3.938 9.544.188 1.425.666 2.85 1.209 4.209 1.191 3.009 1.706 6.103 1.763 9.366.084 4.819 3.281 7.828 6.862 10.669.3-2.7 3-5.175.366-7.978-.15-.159-.178-.506-.188-.759-.094-2.981-.122-5.962 1.125-8.794 3.338-7.603 5.344-15.553 6.178-23.822.056-.844-.094-1.734-.131-2.616zm35.559-61.406c-2.859.009-4.734.919-6.347 3.281-.919 1.331-1.659 2.794-2.522 4.181-2.466 3.909-4.95 7.8-9.375 9.881-.478.216-.9.638-1.219 1.059a436 436 0 0 0-6.366 8.456c-1.097 1.519-.853 2.203 1.022 2.55 2.55.488 5.175.694 7.706 1.238 2.587.553 4.762-.178 6.966-1.434 1.041-.6 2.306-.909 3.516-1.125 1.397-.253 2.072-.994 2.306-2.334.188-1.116.394-2.222.703-3.309 1.819-6.516 3.675-13.012 5.494-19.528.384-1.434-.628-2.906-1.875-2.906zm-91.191 8.428c.628 6.675 1.416 13.162 4.762 19.05.909 1.603 2.063 2.728 3.844 3.272 1.031.309 2.278.525 2.963 1.238 2.25 2.344 4.978 2.325 7.847 2.063 1.997-.188 4.003-.253 6-.488.759-.084 1.481-.459 2.222-.694-.244-.628-.431-1.266-.75-1.847-.159-.309-.609-.478-.816-.769-.816-1.238-1.913-2.428-2.278-3.797-.45-1.725-1.266-2.85-2.756-3.769a37 37 0 0 1-4.791-3.544c-1.463-1.275-2.691-2.841-4.125-4.162-2.888-2.691-5.794-5.344-8.813-7.903-.6-.506-1.706-.675-2.513-.544-.356.084-.544 1.247-.797 1.903z"/><path fill-rule="nonzero" d="M14.344 242.063c.094-.159.178-.356.3-.525 8.222-12.563 16.434-25.134 24.703-37.678 1.275-1.941 1.237-3.525-.028-5.513a21.1 21.1 0 0 1-2.644-6.244 1845 1845 0 0 1-7.453-32.644c-.384-1.762-.272-3.675-.15-5.494.122-1.913 1.341-3.009 3.272-3.234 2.391-.253 4.725-1.181 7.209-.244.647.244 1.659-.272 2.428-.6.938-.403 1.509-.206 1.678.759.178.947.272 1.931.3 2.906.309 10.434 1.209 20.822 4.603 30.769 1.116 3.281 2.784 6.488 4.678 9.394 3.525 5.4 7.275 10.65 11.184 15.797 5.859 7.706 13.219 13.725 21.825 18.188 3.122 1.613 6.337 3.066 9.516 4.584 2.906 1.387 4.097 3.628 3.628 6.741-.384 2.484 0 4.856 1.181 7.097.384.722.769 1.434 1.041 2.203 1.087 2.916-.75 5.428-3.844 4.884-1.791-.309-3.647-1.144-5.128-2.213-2.419-1.734-4.884-3.037-7.828-3.75-2.091-.506-4.069-1.706-5.944-2.85-1.809-1.097-3.356-2.588-5.1-3.769-1.603-1.069-3.337-1.95-5.025-2.934-.938-.544-2.006-.975-2.728-1.725a424 424 0 0 1-10.303-11.063c-.647-.722-1.003-1.762-1.331-2.719-.394-1.144-.947-1.453-2.184-1.238-4.669.844-9.009 2.522-13.153 4.819-.797.45-1.669.816-2.391 1.387a1965 1965 0 0 0-15.581 12.309c-1.144.909-2.128 2.025-3.234 2.981-1.481 1.294-2.213 1.191-3.497-.403zM252.066 158.409c.084 1.556.113 2.756.216 3.947.206 2.372-.3 4.556-1.144 6.816-1.781 4.819-3.272 9.741-4.856 14.634-.872 2.672-1.641 5.391-2.513 8.063-.431 1.341-.459 2.522.75 3.525.403.338.656.872.975 1.303 4.978 6.759 9.975 13.519 14.953 20.278.253.356.506.75.853.975 4.153 2.644 6.666 6.769 9.544 10.556.131.178.272.338.394.516 1.219 1.688 1.434 3.309.572 4.153-.994.947-3.544 1.031-4.884.056-2.362-1.725-4.556-3.731-7.059-5.222a51.6 51.6 0 0 0-8.728-4.191c-2.25-.825-3.994-1.997-5.428-3.881-.581-.759-1.613-1.387-2.55-1.659-2.1-.581-3.872-1.613-5.419-3.131-3.403-3.309-6.872-3.6-10.8-.947-.178.122-.366.356-.544.338-2.569-.112-2.934 2.006-3.975 3.628-1.303 2.006-3.028 3.759-4.584 5.588-4.706 5.55-9.731 10.8-15.431 15.366-.797.638-1.688 1.181-2.569 1.688-2.344 1.341-4.734 2.616-7.088 3.966-2.119 1.219-4.069.366-4.547-2.091a339 339 0 0 1-1.688-9.591c-.338-2.119.178-2.906 2.062-3.881a6.1 6.1 0 0 0 1.969-1.613c1.022-1.331 1.856-2.794 2.784-4.191.694-1.041 1.434-1.603 2.85-1.059.638.244 1.697-.094 2.372-.506 7.922-4.753 14.287-11.213 20.109-18.291 7.603-9.244 12.975-19.744 16.8-30.984 1.462-4.303 1.875-8.981 2.578-13.528.338-2.222.309-4.528.3-6.797 0-1.612.694-2.55 2.203-2.972.731-.206 1.509-.328 2.156-.675.694-.384 1.434-.872 1.875-1.509 1.219-1.791 3.459-2.184 5.034-.731 2.278 2.091 2.738 4.828 2.644 7.734-.056 1.575-.15 3.15-.206 4.359z"/></svg>