<svg xmlns="http://www.w3.org/2000/svg" xml:space="preserve" fill-rule="evenodd" stroke-linejoin="round" stroke-miterlimit="2" clip-rule="evenodd" viewBox="0 0 300 300"><path fill-rule="nonzero" d="M0 151.969c1.538-.384 3.038-.769 4.678-.178.684.234 1.65-.506 2.428-.375 3.778.6 7.209-.825 10.781-1.566 5.522-1.162 11.025-2.616 16.613-3.075 5.222-.431 10.341-1.275 15.487-2.137 1.519-.263 3.009-.703 4.509-1.144 2.428-.703 4.856-.909 7.388-.525 2.456.375 4.425-.459 5.869-2.691.6-.919 1.8-1.613 2.869-1.997.572-.216 1.566.309 2.175.769.703.516 1.247 1.284 1.763 2.016 1.331 1.875 3.272 2.409 5.391 2.625 1.144.122 1.978-.422 2.344-1.425.516-1.444 1.013-2.944 1.237-4.463a34.1 34.1 0 0 1 2.803-9.422c1.894-4.097 4.05-8.091 5.597-12.309 2.119-5.756 5.287-10.894 8.428-16.069 3.375-5.578 7.65-10.294 13.388-13.659 3.722-2.175 7.116-4.894 10.734-7.275 4.134-2.719 8.428-5.109 13.369-6.15 2.475-.516 3.375-2.494 2.531-4.875a46 46 0 0 0-.431-1.191c-.591-1.566-1.659-2.138-3.356-2.213-2.475-.094-3.056-.787-2.409-2.916.975-3.225 1.556-6.563 2.381-9.834.478-1.903 1.078-3.787 1.678-5.663.459-1.425.581-2.728-.591-3.928-.356-.366-.422-1.003-.684-1.659.656-.197 1.209-.544 1.697-.469 2.428.328 4.734-2.691 5.091-4.847.319-1.828-.103-2.578-1.894-3.459-2.109-1.031-2.091-1.022-1.003-3.047.328-.609.656-1.275.797-1.95 1.125-5.288 2.269-10.566 3.281-15.863.328-1.697.291-3.459.469-5.184.225-2.156 1.35-3.656 3.356-4.509.778-.328 1.575-.609 2.325-.975 1.162-.563 1.903-.309 2.175.975.525 2.484.966 4.978 1.425 7.472.122.647.188 1.303.319 1.941 1.772 8.822 3.816 17.606 5.25 26.475 1.031 6.375 2.897 12.497 4.537 18.694.197.769.281 1.575.384 2.362.309 2.475.516 4.95.891 7.416.216 1.425-.094 2.362-1.538 2.859-1.322.45-2.156 1.434-2.672 2.906 1.097.431 2.128.844 3.169 1.256 8.475 3.328 16.106 7.894 22.284 14.709 3.787 4.181 7.584 8.344 11.409 12.497.675.731 1.369 1.444 2.156 2.025 3.141 2.297 5.128 5.381 6.694 8.897 3.234 7.275 5.962 14.709 7.744 22.481.169.703.075 1.613-.244 2.259-.881 1.809-.694 2.4 1.444 3.131.366-.525.75-1.097 1.191-1.725 1.153.591 2.203 1.106 2.803 2.409.291.637 1.153 1.256 1.856 1.387 1.416.272 2.906.328 4.35.244.731-.037 1.519-.45 2.138-.891 1.162-.834 2.409-1.05 3.741-.703 5.316 1.35 10.659 2.644 15.947 4.144 7.303 2.063 14.766 2.784 22.322 2.719 6.506-.056 12.544 2.184 18.759 3.609 2.175.497 4.425.638 6.647.956 1.106.15 2.222.281 3.291.553.741.188.956.787.141 1.125-1.584.656-3.197 1.509-4.856 1.678-5.569.572-11.166.778-16.734 1.331-9.028.909-18.038 1.922-27.038 3.028-1.922.234-3.778 1.031-5.644 1.622-1.387.431-2.738.956-4.116 1.416-1.697.563-3.366 1.191-5.081 1.659-2.025.562-4.097.956-6.131 1.491-.891.234-1.8.516-2.597.975-2.278 1.294-4.472 2.738-6.769 4.013-.787.431-1.762.694-2.672.778-1.856.15-2.906.797-3 2.597-.122 2.259-.975 4.181-1.988 6.103-.216.412-.459.834-.562 1.284-.881 3.544-3.047 6.281-5.456 8.906-1.069 1.162-1.903 2.541-2.85 3.825-.281.375-.497.825-.834 1.125-3.338 3-5.953 6.769-9.872 9.188-2.025 1.247-3.694 3.056-5.644 4.463-1.238.881-2.728 1.416-4.059 2.203-1.631.975-3.131 1.153-4.894.103-1.106-.656-3.431.591-4.181 2.222-1.125 2.475-2.138 5.025-2.887 7.622-.234.844.403 2.063.891 2.953.609 1.116 1.603 2.119.562 3.412-.75.928-2.128.769-3.694-.272-1.059-.694-2.128-1.378-3.234-1.997-.928-.525-1.575-.291-1.556.881.009 1.078-.412 1.35-1.481 1.162-1.716-.309-2.362.431-2.091 2.156.234 1.509 1.125 2.447 2.541 2.916.975.328 2.016.497 2.981.862 2.278.862 2.859 3.141 1.294 4.997-.694.825-1.387 1.706-2.25 2.344-2.766 2.062-3.047 5.072-3.422 8.128-.225 1.847-.516 3.769-1.247 5.437-1.387 3.178-2.213 6.45-2.859 9.834a712 712 0 0 1-4.903 23.719c-.787 3.516-.478 7.012-.525 10.528-.028 1.922-.356 2.531-1.669 2.766-1.491.263-2.597-.356-2.963-2.081-.497-2.381-.797-4.809-1.031-7.228-.6-6.413-.816-12.881-1.791-19.238-.656-4.322-2.297-8.503-3.563-12.722-.628-2.081-1.294-4.087-.881-6.328.431-2.344-.525-4.509-1.584-6.459-.516-.956-1.922-1.434-2.916-2.119-.459-.319-.938-.6-1.538-.975 1.153-1.031 2.297-1.884 3.197-2.944.825-.966 1.603-2.081 2.016-3.272.497-1.378.047-1.762-1.416-1.791-.281 0-.563.047-.844.009-1.031-.103-1.425-.872-.919-1.762 1.181-2.109.975-4.088-.469-6.037a63 63 0 0 1-3.384-5.025c-.272-.45-.262-1.275-.037-1.762.863-1.969.506-2.672-1.537-3.281-2.278-.684-4.519-1.519-6.741-2.391-8.203-3.178-15-8.597-21.975-13.734a16.4 16.4 0 0 1-3.787-3.938c-5.109-7.622-9.825-15.469-12.75-24.263-.375-1.144-.197-2.166.019-3.366.291-1.584-.281-3.366-.637-5.025-.019-.131-1.331-.197-1.922.038-1.153.45-2.231 1.106-3.319 1.706-1.097.609-2.259 1.153-3.225 1.941-1.125.928-2.259 1.256-3.647.797-1.425-.469-2.831-1.078-4.303-1.322-2.109-.328-4.275-.366-6.413-.553-1.341-.122-2.728-.056-3.984-.431-4.556-1.35-9.028-2.944-13.837-3.15-.75-.037-1.575-.366-2.222-.787-1.209-.787-2.456-.984-3.881-.938-3.581.131-7.088-.225-10.566-1.331-2.784-.891-5.775-1.172-8.681-1.697-3.881-.684-7.781-1.331-11.672-1.987-.459-.084-.928-.15-1.369-.319-1.603-.609-3.234-1.162-4.763-1.931-.694-.356-1.181-1.125-1.762-1.716-.028-.225-.028-.413-.028-.6zm157.144 61.772c2.456.816 3.075 1.528 3.731 4.416.234 1.031.703 1.444 1.753 1.294 1.013-.141 1.978-.009 2.072-1.613.225-3.703.703-7.387 1.069-11.091.469-4.744 2.034-8.916 5.672-12.234 1.378-1.256 2.409-2.888 3.628-4.322 2.991-3.544 6.178-6.834 10.688-8.522 1.031-.384 1.941-1.144 2.944-1.65 1.622-.834 3.244-1.669 4.903-2.391 1.162-.497 2.109-1.144 2.231-2.456.169-1.716.544-3.506.281-5.175-.694-4.369-1.725-8.672-4.584-12.262-.178-.216-.281-.478-.375-.75-1.697-4.856-3.075-9.834-3.009-14.991.084-7.669-.834-15.188-2.588-22.641-1.125-4.8-1.725-9.741-3.178-14.437-2.184-7.059-5.597-13.237-13.416-15.778-5.709-1.856-11.222-4.284-16.884-6.309-.975-.337-2.25 0-3.356.197-1.022.187-1.997.881-3 .872-3.966-.009-7.781.497-11.353 2.306-.919.469-1.838.956-2.784 1.341-7.2 2.85-12.788 6.956-15.45 14.916-3.422 10.256-5.316 20.428-2.934 31.134.263 1.181.431 2.475.216 3.628-.431 2.25-.984 4.519-1.828 6.638-1.341 3.403-3 6.675-4.472 10.022-1.2 2.756-2.278 5.569-3.506 8.306-.881 1.978-1.153 3.966-.525 6.037.975 3.281 1.837 6.628 3.028 9.825.553 1.472 1.613 2.869 2.766 3.956 1.209 1.144 2.728 2.025 4.247 2.719 3.122 1.425 6.319 2.644 9.497 3.928 2.963 1.2 5.934 2.325 8.072 4.931 3.028 3.675 5.034 7.781 6.037 12.422.459 2.156.872 4.35 1.697 6.366.656 1.603.722 2.934-.084 4.416-.919 1.697-.787 2.081.872 3.028.366.216.975.412 1.256.244.272-.15.431-.816.366-1.209-.216-1.303.366-1.941 1.294-2.166 1.256 1.322 2.306 2.616 3.553 3.675 1.537 1.322 2.297.984 2.691-1.022.084-.431-.009-.919-.056-1.378-.216-2.109-.075-4.106 1.941-5.916.694 1.116 1.434 2.025 1.847 3.047.469 1.162.609 2.456 1.003 3.656.131.403.591.984.919 1.003 1.556.056 2.475-.075 2.531-1.95.075-1.294.384-2.597.6-4.05z"/><path fill-rule="nonzero" d="M35.072 251.606c.825-1.003 1.584-1.931 2.363-2.859 3.413-4.069 6.994-7.941 10.837-11.634 5.344-5.128 9.975-10.988 14.916-16.528 1.472-1.65 2.766-3.516 4.463-4.894 2.634-2.138 3.544-4.987 4.069-8.091.197-1.153.328-2.325.544-3.488.328-1.772 1.331-2.541 3.15-2.503 2.128.038 3.225-1.575 2.203-3.497-1.322-2.484-2.709-4.969-4.284-7.284-2.072-3.056-2.897-6.375-2.756-10.013.094-2.438.516-2.887 2.869-2.897 2.344 0 4.603-.272 6.694-1.838.459 1.303.844 2.438 1.275 3.562 1.078 2.906 2.081 5.85 3.309 8.691a47.6 47.6 0 0 0 3.187 6.094 53.5 53.5 0 0 0 4.069 5.756c1.444 1.772 3.056 3.412 4.697 5.016 3.169 3.084 6.328 6.169 9.609 9.122 3.966 3.581 8.269 6.675 13.434 8.353 1.434.469 2.569 1.387 3.094 2.887.516 1.425.019 2.494-1.378 3.056-.216.084-.45.131-.675.216-2.109.741-2.737 1.884-2.438 4.134.122.891.019 1.809.019 3.197-1.294-.572-2.316-.816-3.075-1.397-2.156-1.669-4.191-3.488-6.272-5.25-.319-.272-.609-.6-.975-.816-3.881-2.297-7.791-4.528-11.634-6.872-.684-.412-1.2-1.153-1.678-1.809-.834-1.153-1.556-1.162-2.391-.009-.319.45-.684.919-1.144 1.209-1.894 1.209-3.778 2.456-5.775 3.497-2.541 1.331-5.166 2.531-7.809 3.647-1.781.75-3.469 1.491-4.987 2.784-3.862 3.272-8.494 5.334-12.9 7.744-1.519.825-2.906 1.875-4.378 2.784-1.2.741-2.494 1.331-3.628 2.156a439 439 0 0 0-10.687 8.063c-2.494 1.903-3.291 1.95-5.963-.281zM185.775 67.181c1.519-.412 2.756-.609 3.628.881.188.319.778.459 1.209.563.825.188 1.669.291 2.503.412 1.05.131 1.828.497 2.25 1.603.216.563.787 1.05 1.294 1.444 3.094 2.447 6.328 4.744 9.309 7.331 2.391 2.072 4.922 2.306 7.734 1.444.366-.103.778-.563.863-.938.225-.909.319-1.847.375-2.775.056-.834.291-1.378 1.275-1.2 1.744.319 3.084-.169 4.144-1.697.45-.638 1.35-.966 2.081-1.378 4.144-2.306 8.475-4.331 12.375-6.984 2.456-1.669 4.781-3.384 7.584-4.462.872-.328 1.425-1.434 2.203-2.091.825-.703 1.659-1.519 2.644-1.884 1.631-.609 2.916-1.425 4.097-2.784 2.231-2.578 4.519-5.184 8.016-6.216.881-.262 1.659-.478 2.259.375.6.872-.038 1.472-.591 2.072-3.422 3.694-7.087 7.191-10.181 11.128-4.059 5.175-7.706 10.669-11.428 16.097-.881 1.294-1.341 2.878-2.044 4.303a42 42 0 0 1-1.725 3.216c-1.228 2.063-2.569 4.05-3.731 6.131-1.209 2.166-3.075 3.534-5.222 4.538-.562.272-1.369-.009-2.034.084-.741.103-1.762.141-2.109.609-.281.384.216 1.388.459 2.081.375 1.022.863 2.016 1.256 3.028.469 1.163.787 2.409 1.35 3.534 2.138 4.237 4.378 8.409 6.516 12.647.412.825.6 1.763.872 2.663.609 2.016 1.162 4.05 1.847 6.038.862 2.531.338 3.609-2.259 4.162-1.791.375-3.6.675-5.409.938-1.397.216-2.362-.412-2.953-2.044-1.378-3.797-2.831-7.575-3.975-11.447-2.503-8.503-7.463-15.656-12.413-22.8-1.162-1.678-3.122-2.822-4.716-4.2a74 74 0 0 0-2.953-2.409c-.834-.647-1.575-1.294-1.612-2.484-.009-.366-.281-.834-.572-1.078a131 131 0 0 0-4.734-3.788c-2.391-1.828-4.838-3.581-7.228-5.4-.844-.647-1.659-1.125-2.813-.984-.478.056-1.35-.328-1.481-.694-.169-.506.028-1.341.384-1.763.816-.966 1.791-1.8 2.766-2.616 1.031-.825 1.566-1.753.891-3.188zM235.519 181.256c-1.997 4.894-3.956 9.656-5.906 14.428-.891 2.175-1.791 4.341-2.681 6.506-.103.262-.234.516-.338.778-.6 1.425-1.209 3.197-.131 4.247.722.694 2.55.45 3.834.281 1.791-.234 2.119-.038 2.494 1.669.319 1.444.675 2.991 1.434 4.228a254 254 0 0 0 7.988 12.094c2.428 3.45 5.137 6.703 7.603 10.134.881 1.238 1.519 2.709 2.063 4.144 1.303 3.516 2.85 6.834 5.719 9.412.872.787 1.491 1.941 1.997 3.038.684 1.444-.009 2.344-1.575 2.259-2.063-.122-3.778-.778-5.091-2.541-2.213-2.953-5.109-5.119-8.531-6.516-2.259-.928-4.144-2.203-5.025-4.613-.056-.178-.15-.366-.281-.478-2.569-2.231-4.922-4.791-7.762-6.581-2.644-1.669-5.316-3.141-7.209-5.709-.553-.75-1.125-1.566-1.875-2.091-.675-.469-1.622-.909-2.391-.816-2.156.262-3.966-.694-5.756-1.519-.525-.244-.647-1.472-.834-2.278-.056-.244.244-.591.375-.891.384-.938.731-1.922-.141-2.756-.891-.844-1.894-.516-2.897-.131-.628.244-1.331.291-1.978.497-.787.244-1.622.45-2.325.844-1.997 1.125-3.928 2.363-5.906 3.534-2.138 1.256-4.369 2.4-6.45 3.75-2.503 1.631-5.269 1.631-8.034 1.397-1.603-.131-2.813-1.275-3.591-2.709-.684-1.238-.431-2.091.787-2.85 6.084-3.741 12.103-7.584 18.281-11.194 8.119-4.734 14.803-10.847 19.838-18.834 2.203-3.497 3.909-7.162 5.269-11.025.281-.797.553-1.613.966-2.344.703-1.284 2.222-1.575 3.197-.516.928 1.013 1.95 1.659 3.281 2.025.609.225 1.162.844 1.575 1.125zM120.122 69.319c-1.622-.272-2.672.216-3.103 1.903-.122.459-.778.872-1.284 1.106-1.013.478-2.175.675-3.131 1.247-4.641 2.775-9.281 5.522-13.097 9.488-2.213 2.297-4.734 4.294-7.088 6.459-.431.403-.75.928-1.106 1.416-.281.375-.469.891-.834 1.106-3.366 1.941-4.566 5.494-6.375 8.569-3.956 6.694-6.834 13.884-9.497 21.159-.469 1.294-.656 2.719-.844 4.106-.141 1.059-.525 1.463-1.566 1.078-.263-.094-.553-.15-.787-.291-1.922-1.144-3.862-.797-5.85-.216-.628.187-1.556.234-2.016-.094-.862-.609-1.284-1.631-.844-2.766.516-1.369.984-2.737 1.603-4.059 1.378-2.981 2.831-5.934 4.247-8.897.675-1.397 1.444-2.756 1.95-4.209.881-2.569 2.138-4.875 3.872-6.975.563-.684.825-1.8.816-2.719-.019-1.303.366-2.063 1.631-2.391.834-.216 1.613-.506 1.753-1.566.216-1.537-.169-1.987-1.697-2.269-.628-.122-1.284-.497-1.753-.928-.787-.731-1.434-1.612-2.166-2.409-2.353-2.55-4.341-5.269-5.016-8.812-.272-1.444-.984-2.831-1.622-4.191-.722-1.509-1.678-2.813-3.281-3.544-.544-.244-1.031-.675-1.444-1.106-2.344-2.569-4.697-5.137-6.956-7.791-.516-.609-.684-1.509-1.059-2.25-.281-.563-.525-1.209-.966-1.631-1.631-1.622-3.328-3.187-4.997-4.781a21 21 0 0 0-.516-.478c-.722-.647-1.341-1.603-.572-2.278.788-.703 1.566-.047 2.278.797 3.15 3.741 6.891 6.497 12.094 6.609.769.009 1.538.637 2.259 1.05.563.319 1.05.778 1.613 1.125 2.297 1.434 4.584 2.887 6.919 4.275 1.247.741 2.522 1.472 3.872 1.978 3.6 1.35 6.891 3.169 9.909 5.569.966.778 2.231 1.153 3.338 1.772 1.144.647 2.259 1.35 3.375 2.034 1.838 1.116 2.784.787 3.844-.984.403-.684 1.247-1.237 2.016-1.566a220 220 0 0 1 8.981-3.647c1.969-.75 4.013-1.303 5.981-2.091 1.697-.684 3.337-1.491 4.941-2.363 1.022-.553 1.884-.741 2.803.122.45.412 1.022.684 1.444 1.116.45.469 1.191 1.434 1.106 1.519-.638.675-1.425 1.228-2.213 1.716-.272.131-.675 0-.966 0zM118.322 161.063c.553-1.697 2.063-2.522 4.059-1.903 4.163 1.294 8.316 2.634 12.422 4.134 2.644.956 5.184 2.203 7.781 3.319 3.403 1.472 3.938 3.722 1.988 6.862a56.7 56.7 0 0 1-5.981 7.941c-1.191 1.322-2.644 1.584-4.237 1.2-3.197-.778-6.366-1.65-9.553-2.447-.591-.15-1.2-.272-1.8-.244-2.325.103-4.162-.863-5.803-2.438-1.463-1.397-2.953-2.766-4.519-4.031-2.503-2.034-3.094-5.569-1.059-8.016 1.725-2.072 3.881-3.628 6.694-4.369zM159.947 167.541c1.209-.338 2.475-.553 3.609-1.05 2.588-1.116 5.063-2.484 7.669-3.553a227 227 0 0 1 11.569-4.378c2.175-.75 4.106.244 5.119 2.325.187.375.338.778.516 1.162 2.475 5.709.628 10.856-4.969 13.65-2.222 1.116-4.481 2.184-6.816 3.047-1.556.572-3.272.722-4.903 1.125-.984.244-2.025.469-2.887.975-2.784 1.65-5.588 1.303-7.762-1.059-.544-.591-1.116-1.172-1.772-1.575-2.541-1.537-3.328-4.012-3.497-6.722-.141-2.353 1.856-4.256 4.116-3.966zM151.725 194.025c-1.05 1.416-2.072 2.756-3.028 4.134-.75 1.078-1.519 1.238-2.541.328-.769-.684-1.669-1.209-2.494-1.838-.834-.647-1.05-1.481-.722-2.503 1.116-3.422 2.222-6.844 3.309-10.284.478-1.519.872-3.075 1.425-4.566.647-1.762 1.856-2.259 3.591-1.528 1.894.797 3.384 2.184 4.134 4.05a237 237 0 0 1 4.528 12.403c.516 1.528-1.059 3.891-3.009 4.997-1.331.75-2.831.497-4.284-.722-.572-.478-.656-.909-.103-1.528 1.078-1.172.891-1.903-.797-2.944z"/></svg>