<!-- Generated by IcoMoon.io -->
<svg version="1.1" xmlns="http://www.w3.org/2000/svg" width="300" height="300" viewBox="0 0 300 300">
<title>fighters-bladeborn</title>
<path d="M250.059 55.594c-0.984 4.856-2.269 9.075-3.881 13.125l0.178-0.506c-0.722 1.219-1.153 2.691-1.153 4.256 0 2.484 1.078 4.725 2.794 6.263l0.009 0.009c5.897 7.247 10.669 15.684 13.894 24.872l0.188 0.591c3.262 7.688 5.738 16.622 6.984 25.941l0.056 0.534c0.075 3.272 2.119 6.037 4.988 7.181l0.056 0.019c8.653 3.047 16.238 8.709 25.509 10.294 0.525 0.225 0.984 0.525 1.369 0.891-0.366 0.366-0.806 0.684-1.275 0.947l-0.028 0.019c-6.244 2.297-12.872 3.769-18.094 8.334-9.75 0-12.844 5.906-13.256 14.784-0.619 5.091-1.819 9.731-3.563 14.1l0.131-0.375c-1.406 5.091-3.113 9.469-5.203 13.641l0.197-0.431c-3.262 7.059-7.050 13.153-11.503 18.703l0.131-0.169c-6.047 6.853-5.222 13.275-2.841 20.578 0.75 2.391 1.725 4.697 2.334 7.134s-0.787 3.431-2.784 2.784c-4.256-1.2-8.522-2.438-12.703-3.881-1.181-0.553-2.578-0.872-4.031-0.872-2.391 0-4.584 0.862-6.281 2.287l0.019-0.009c-6.141 5.016-13.153 9.347-20.7 12.694l-0.591 0.234c-4.078 1.678-8.1 3.431-12.225 5.006s-8.034 2.372-11.775 4.116c-2.034 0.788-3.675 2.231-4.688 4.069l-0.028 0.047c-3.431 6.309-5.353 13.209-8.447 19.622-0.394 0.647-1.050 1.087-1.809 1.2h-0.009c-0.581 0-1.134-0.891-1.612-1.472-0.056-0.122-0.094-0.262-0.094-0.412s0.038-0.291 0.094-0.422v0.009c2.569-11.7-1.2-23.353-0.272-35.119-0.019-0.15-0.019-0.319-0.019-0.497 0-2.897 2.241-5.278 5.081-5.503h0.019c7.519-1.922 14.934-4.153 22.378-6.244 0.891-0.3 1.659-0.638 2.381-1.041l-0.084 0.038c14.972-7.444 27.563-17.55 37.612-29.813l0.15-0.197c3.431-4.359 6.319-8.888 9.338-13.444 3.197-5.044 5.756-10.884 7.331-17.109l0.094-0.422c0.103-0.891 0.319-1.697 0.638-2.456l-0.019 0.056c4.903-7.547 4.838-15.984 4.566-24.497 0-1.444 0-2.841 0-4.284 0-21.066 0.384-21.197-7.069-40.134-3.478-8.55-7.753-15.937-12.872-22.631l0.178 0.234c-6.056-8.287-13.162-15.347-21.244-21.141l-0.281-0.197c-5.119-3.431-10.294-6.853-15.684-10.284-0.787-0.375-1.706-0.591-2.691-0.591-0.262 0-0.516 0.019-0.769 0.047h0.028c-2.316-0.188-4.434-0.909-6.281-2.025l0.066 0.038c-4.481-1.922-9.769-3.591-15.253-4.716l-0.544-0.094c-5.006-1.134-6.628-2.334-6.863-7.416 0-3.703 0-7.416 0-11.119 0-7.997 0-15.984 0-24.019 0-0.656 0.619-1.275 1.003-1.912 0.544 0.216 1.003 0.516 1.406 0.891 1.069 1.416 2.063 3.028 2.916 4.725l0.084 0.178c1.988 4.556 4.013 9.159 5.662 13.894 1.106 3.553 4.069 6.216 7.734 6.844l0.066 0.009c8.175 1.659 15.422 4.238 22.153 7.669l-0.487-0.225c8.756 4.022 16.284 8.606 23.222 13.931l-0.281-0.206c2.156 1.781 4.95 2.85 7.988 2.85 1.622 0 3.178-0.309 4.594-0.862l-0.084 0.028c4.519-0.975 8.278-2.034 11.944-3.309l-0.722 0.216c2.709-1.003 2.541 0.412 2.578 4.116z"></path>
<path d="M137.334 17.316c-0.544 2.878-1.406 6.684-1.959 10.566-0.037 0.431-0.056 0.947-0.056 1.463 0 1.238 0.122 2.447 0.356 3.619l-0.019-0.122c0.469 2.016 0.872 4.538 1.144 7.116l0.028 0.3c0.178 7.688 0 7.238-7.519 8.953-16.791 3.806-32.681 9.6-45.122 22.359-2.559 2.372-5.344 4.622-8.259 6.684l-0.253 0.169c-7.313 5.756-11.128 14.128-15.788 21.741-4.153 6.862-8.653 13.725-8.794 22.2-6.047 12.994-3.441 26.859-3.056 40.238 0.928 10.519 3.816 20.175 8.306 28.875l-0.197-0.441c6.225 13.781 14.972 25.416 25.734 34.781l0.112 0.103c6.403 5.831 13.641 10.913 21.478 15l0.563 0.262c2.025 0.891 4.622 1.838 7.266 2.644l0.525 0.141c6.244 2.634 13.678 4.997 21.366 6.694l0.881 0.169c2.231 0.412 2.953 1.472 2.775 3.431-0.75 8.4 1.275 16.875-1.275 25.313-0.928 3.15 0.853 7.069 1.238 10.631 0.084 0.637 0.131 1.378 0.131 2.128s-0.047 1.491-0.131 2.212l0.009-0.094c-0.206 0.506-0.647 0.891-1.191 0.984h-0.009c-0.722 0-2.025-0.516-2.063-0.891-0.684-8.606-6.178-15.366-9.028-23.119-0.441-1.162-1.819-2.784-2.841-2.813-8.306-0.516-14.691-6.853-23.034-7.162-8.269-5.662-18.197-8.709-25.238-16.219-1.275-1.556-3.197-2.55-5.344-2.55-0.825 0-1.603 0.15-2.325 0.403l0.047-0.019c-5.081 1.406-10.125 2.813-15.169 4.322-2.4 0.722-3.131-0.516-3.019-2.503 0.15-1.519 0.422-2.897 0.825-4.238l-0.037 0.15c1.275-4.8 2.709-9.572 3.816-14.409-0.075-1.313-0.572-2.503-1.388-3.431l0.009 0.009c-8.1-11.306-14.616-24.431-18.844-38.541l-0.244-0.938c-1.209-3.844-2.259-8.475-2.934-13.237l-0.056-0.488c-0.75-6.178-2.775-9.6-8.719-10.566-7.284-1.134-12.844-5.287-18.844-8.784-1.584-0.891-1.106-1.059 0-2.063 5.522-4.697 12.497-6.066 19.022-8.334 4.922-1.256 8.541-5.616 8.616-10.828v-0.009c0.881-8.334 2.822-15.984 5.7-23.156l-0.206 0.581c4.359-11.906 10.566-22.162 18.356-30.966l-0.094 0.103c1.144-1.041 1.866-2.531 1.866-4.2 0-0.975-0.244-1.894-0.684-2.691l0.019 0.028c-1.612-3.272-2.719-7.069-3.113-11.081l-0.009-0.141c-1.369-8.878-1.753-8.841 7.247-6.038 4.228 1.341 8.616 4.322 12.563 3.769s7.65-4.359 11.194-7.069c8.1-6.206 17.719-9.441 26.644-13.997 3.028-1.078 6.581-1.913 10.256-2.381l0.253-0.028c3.019-0.459 5.428-2.606 6.272-5.428l0.019-0.056c2.4-6.853 6.862-12.834 8.203-20.1 0-0.45 0.581-0.853 0.853-1.303 0.684 0.516 1.856 0.928 1.95 1.509 0.45 2.953 0.722 6.309 1.237 10.734z"></path>
</svg>
