<svg xmlns="http://www.w3.org/2000/svg" xml:space="preserve" fill-rule="evenodd" stroke-linejoin="round" stroke-miterlimit="2" clip-rule="evenodd" viewBox="0 0 300 300"><path fill-rule="nonzero" d="M138.159 0c1.519 3.272 3.094 6.525 4.556 9.834 2.719 6.188 5.306 12.431 8.091 18.581 1.95 4.313 4.153 8.512 6.253 12.759.403.797.844 1.566 1.256 2.362 2.419 4.762 4.847 9.534 7.275 14.316 1.2 2.362.75 3.75-1.716 4.838-3.037 1.341-4.209 4.153-5.616 6.797-.103.187.356.937.675 1.059 2.559.919 5.147 1.809 7.763 2.578 3.178.919 5.7 2.822 8.128 4.95a38 38 0 0 0 3.225 2.494c.844.572 1.481.413 1.706-.731.319-1.575.684-3.113-.272-4.631-.563-.909.094-1.444.862-1.697 2.531-.825 5.1-1.575 7.716-2.391.459.834.834 1.528 1.209 2.222 1.153 2.063 3.497 3.206 5.831 2.878.984-.141 1.584-.619 1.847-1.65.469-1.856.244-3.525-1.022-5.034-.356-.422-.656-.891-1.059-1.444 1.097-.469 2.072-.966 3.084-1.284.291-.094.797.225 1.097.478.938.825 1.725 1.894 2.766 2.541 1.491.928 2.766.45 4.05-.769 1.388-1.303 2.859-2.559 4.481-3.553 2.391-1.444 2.738-1.941 2.166-4.772-.047-.225-.047-.459-.084-.881.647.056 1.238.084 1.809.178 1.584.262 2.962-.141 3.797-1.537 1.294-2.137 3.253-3.347 5.503-4.172 1.284-.469 2.55-.938 3.844-1.369 1.172-.384 2.362-.741 2.653-2.184.037-.169.216-.309.338-.431 1.209-1.172 5.175-1.144 6.384.028.787.769.638 1.612.262 2.466-4.303 9.6-8.531 19.228-12.966 28.763-1.387 3-3.469 5.681-4.997 8.616-1.706 3.281-3.159 6.703-2.944 10.547.094 1.613-.422 2.259-2.081 2.269-2.681.009-5.362-.037-8.053-.047-.178 0-.338.084-.722.178.319.516.572.928.834 1.341 1.706 2.756 3.684 5.391 5.006 8.306.984 2.166 1.219 4.697 1.631 7.088s1.003 2.878 3.103 1.697c1.444-.816 2.672-2.034 3.984-3.094 1.05-.834 2.072-1.706 3.103-2.55.141-.122.356-.234.384-.384.459-1.809 1.762-1.341 2.897-1.013 2.728.787 5.372 1.697 6.947 4.406.319.553 1.313.881 2.063 1.013 6.572 1.163 13.153 2.184 19.725 3.413 3.366.619 6.647 1.725 10.031 2.269 3.563.572 6.853 1.884 10.163 3.197 2.869 1.153 5.7 2.466 8.578 3.609 1.256.497 2.588.844 3.919 1.078 1.462.262 2.438.966 3.253 2.203.769 1.153.403 1.838-.591 2.4-2.278 1.303-4.547 2.634-6.9 3.825-7.913 4.022-15.891 7.912-23.775 12.009-2.906 1.519-5.625 3.403-8.362 5.231-.919.609-1.509.591-2.306-.103a26 26 0 0 0-2.944-2.184c-2.128-1.387-3.6-1.397-5.334-.131-1.978 1.444-2.906 3.647-2.325 5.775.309 1.116.787 2.184 1.209 3.338-2.419 1.209-4.847 2.438-7.275 3.647-2.484 1.238-4.772 2.541-5.203 5.737-.234 1.725-.825 1.903-2.297 1.003-.778-.478-1.463-1.153-2.128-1.791-1.022-.966-1.744-.834-2.128.516-.562 2.034-.984 4.116-1.584 6.141-.572 1.931-1.303 3.797-1.959 5.7-.122.328-.188.656-.384 1.359 2.081-1.106 3.928-.778 5.728-.216.731.234 1.556.703 1.978 1.313.872 1.266 1.472 2.719 2.231 4.069 2.344 4.172 4.594 8.4 7.088 12.488a288 288 0 0 0 8.709 13.509c1.819 2.672 4.088 5.044 5.972 7.678 2.55 3.544 5.044 7.134 7.35 10.856.694 1.116.825 2.662.919 4.031.084 1.219-.572 1.528-1.566.816-1.331-.966-2.691-.722-4.172-.516-1.031.141-2.231 0-3.197-.403-4.631-1.903-9.075-4.575-13.875-5.784-6.937-1.744-13.153-4.959-19.566-7.8-2.897-1.284-5.784-2.484-8.944-2.869-.459-.056-.891-.262-1.35-.384-2.606-.75-5.203-1.603-7.838-2.231-1.266-.309-1.884-.881-1.931-2.166-.047-1.219-.188-2.438-.272-3.656-.075-1.116-.694-1.425-1.613-.966a5 5 0 0 0-1.528 1.2c-3.853 4.612-8.887 7.481-14.381 9.619-.675.262-1.481.225-2.222.216-1.941-.028-3.722.431-5.278 1.659-.431.338-.956.647-1.481.778-2.766.675-5.55 1.35-8.334 1.894-1.191.225-1.416 1.069-.928 1.669 1.847 2.316 3.319 5.053 6.103 6.469 1.022.516 1.2 1.106.609 1.997-.722 1.106-1.434 2.213-2.222 3.272-3.225 4.359-6.103 8.916-7.575 14.231-.516 1.884-2.222 2.409-3.938 2.719-.881.15-1.772.169-2.672.272-1.153.141-1.725 1.012-1.256 2.091.609 1.425 1.537 2.494 3.159 2.972.872.262 1.678.956 2.325 1.622.216.225 0 1.125-.291 1.528-1.491 2.044-3.103 4.022-4.613 6.056-.431.591-.703 1.303-1.022 1.978-.778 1.584-1.556 3.178-2.278 4.791-.356.797-.609 1.65-.881 2.484-.45 1.359-.647 2.869-1.369 4.069-1.125 1.884-1.762 3.797-1.772 5.991-.009 1.069-.084 2.184-.375 3.206-.45 1.537-1.706 1.8-2.531.469-.975-1.566-1.838-3.281-2.353-5.044-1.331-4.5-2.419-9.066-3.666-13.594-.234-.844-.553-1.716-1.022-2.456-4.706-7.406-7.866-15.497-10.303-23.859-1.65-5.653-4.472-10.462-8.438-14.756-2.372-2.559-1.978-2.325.413-4.191 2.672-2.072 5.128-4.434 7.594-6.75.525-.497.75-1.303 1.237-2.213-1.397-.15-2.456-.272-3.516-.375-7.716-.741-14.887-3.094-21.412-7.275-1.247-.797-2.484-1.538-4.088-1.716-1.069-.122-2.072-1.003-3.056-1.622-.938-.591-1.819-1.284-2.878-2.034-.478 3.103-1.369 5.934.609 8.653.722.984-.047 1.697-.975 2.034a426 426 0 0 1-8.578 3.15c-1.903.675-3.891 1.106-5.775 1.838-13.144 5.1-26.578 9.422-39.366 15.422-1.491.703-3.234 1.022-4.894 1.219-.656.084-1.706-.459-2.034-1.031s-.309-1.762.084-2.297c2.578-3.384 5.372-6.628 7.987-9.994 4.087-5.269 8.316-10.453 12.019-15.994 1.153-1.725 1.95-2.588 4.013-2.756 2.55-.216 3.9-2.606 3.15-5.1-.309-1.022-.141-1.8.431-2.634a721 721 0 0 0 6.141-8.963c.656-.975 1.462-1.509 2.681-1.538 2.531-.075 2.728-.375 2.212-2.878-.037-.178 0-.366 0-.656 1.116-.216 2.212-.45 3.309-.619 1.116-.178 1.472-.694.956-1.753-1.997-4.125-1.8-8.588-1.941-12.994-.056-1.697 0-3.384-.056-5.081-.009-.366-.319-.703-.478-1.069-.384.197-.975.319-1.144.638-.337.684-.45 1.481-.694 2.222-.281.844-.609 1.678-.919 2.513-.75-.281-1.575-.45-2.231-.862-2.625-1.631-5.081-3.609-7.837-4.941-2.466-1.172-5.288-1.566-7.903-2.447a1101 1101 0 0 1-17.166-5.962c-.966-.338-1.866-.891-2.756-1.416-1.191-.684-2.297-1.266-3.834-1.022-.778.131-1.8-.469-2.531-.984-1.809-1.303-3.703-1.931-6.009-2.044-2.213-.103-4.406-.863-6.544-1.575-.609-.197-1.163-1.209-1.294-1.931-.075-.422.647-1.2 1.172-1.472 6.928-3.6 13.903-7.078 20.803-10.716 6.487-3.413 12.909-6.966 19.341-10.481 1.191-.656 2.259-1.556 3.441-2.222 2.184-1.247 4.35-2.597 6.666-3.572 3.094-1.294 5.184-3.197 5.831-6.628.816-4.313 2.128-8.466 4.584-12.188.291-.45.169-1.528-.187-1.95-.694-.816-1.35-2.119-2.859-1.416-.844.403-1.706.816-2.513 1.266-1.031.591-1.866.375-2.353-.647-.891-1.903-1.903-3.797-2.466-5.813-2.231-8.1-4.397-16.219-6.413-24.375-1.556-6.281-2.859-12.628-4.266-18.956-.15-.684-.319-1.434-.178-2.091.131-.591.553-1.284 1.05-1.575.497-.281 1.481-.403 1.847-.094 2.447 2.063 5.484 2.822 8.316 4.097 4.106 1.837 8.091 3.966 12.178 5.841a180 180 0 0 0 10.097 4.294c3.047 1.172 5.944 2.512 8.606 4.453 1.491 1.097 3.328 1.725 4.987 2.606.956.506 1.931 1.003 2.784 1.65 2.063 1.575 2.119 3.084.366 4.978-.506.544-.966 1.153-1.294 1.8-.141.281-.047.956.169 1.097.263.169.778 0 1.153-.103.197-.056.338-.309.497-.497 2.766-3.347 6.328-5.55 10.322-7.163 2.438-.984 4.856-2.025 7.275-3.056 1.294-.563 1.65-1.237.797-2.259-1.172-1.434-2.625-2.672-4.031-3.9-.281-.244-.928-.009-1.341-.178-.741-.291-1.631-.563-2.081-1.144-.281-.356-.094-1.35.216-1.884a357 357 0 0 1 6.009-9.881c5.522-8.794 10.659-17.766 14.869-27.319 3.337-7.613 6.675-15.206 9.666-22.959.169-.028.356-.028.544-.028zm39.844 136.641h.094c0-3.291.037-6.581-.009-9.862-.075-5.409.197-10.941-1.838-16.022-1.884-4.678-4.444-9.094-6.787-13.584-.375-.731-1.059-1.313-1.65-1.913-1.528-1.528-3.122-3-4.641-4.528-1.697-1.716-3.338-3.525-5.709-4.256a702 702 0 0 0-17.297-5.081c-.656-.187-1.491.225-2.231.403-1.153.272-2.344.928-3.45.816-5.006-.544-9.778-.178-14.034 2.784-3.441 2.391-6.806 4.866-10.237 7.266s-5.147 6.056-6.244 9.759c-1.153 3.881-1.622 8.016-1.903 12.094-.816 11.775-1.369 23.559-2.091 35.344-.056.966-.422 2.119-1.059 2.813-1.528 1.659-.834 3.572-1.003 5.4-.075.816.084 1.678-.197 2.409-.872 2.306-1.903 4.547-2.859 6.825-.075.178-.103.366-.169.525-.516 1.341-.928 2.738-1.575 4.022-.909 1.8-.975 2.166.478 3.553 1.809 1.725 3.094 3.75 3.938 6.094.459 1.284.975 2.55 1.603 3.75 1.144 2.222 3.497 3.666 5.466 3.225 4.069-.919 7.134 1.191 9.731 3.619 1.697 1.584 3.141 3.516 4.959 5.053.741.619 1.106 1.706 1.613 2.597.225.403.291.919.572 1.284 3.272 4.172 3.459 8.981 2.906 13.959a117 117 0 0 0-.45 4.772c-.056.872.084 1.716 1.144 1.997 1.003.272 1.753-.122 2.278-.956.694-1.116 1.369-2.25 2.034-3.375.656-1.106 1.519-1.284 2.531-.459.572.469 1.05 1.097 1.631 1.556.563.431 1.237.741 1.847 1.106.234-.675.572-1.313.703-2.016.319-1.706.544-3.431.797-5.137.169-1.106.544-1.209 1.444-.478 1.866 1.481 2.419 3.506 2.597 5.719.094 1.238.544 2.175 1.931 2.391 1.369.216 2.4-.262 3.141-1.387.178-.272.262-.6.431-.881.131-.216.319-.459.525-.525.647-.234 4.603 1.219 4.95 1.8.094.15.122.356.141.544.131 1.209.909 1.997 1.988 2.044 1.209.047 1.116-1.238 1.284-2.034 1.247-6.112 2.362-12.262 3.703-18.356.469-2.119.966-4.594 2.344-6.056 2.756-2.916 6.075-5.316 9.272-7.772 2.597-2.016 5.4-3.759 8.053-5.719.741-.544 1.256-1.387 1.912-2.034.459-.45.938-1.069 1.491-1.162 1.294-.234 1.313-.938 1.284-2.025-.056-1.762-.328-3.713.291-5.269.984-2.494.722-4.481-.731-6.609-2.447-3.591-4.162-7.519-4.406-11.878-.338-5.4-.422-10.762-.609-16.125zm28.603 17.015c2.231.038 2.972-.234 4.613-1.556.244-.197.563-.469.834-.469 1.05.028 1.444-.619 1.575-1.462.478-3.234 1.022-6.478 1.303-9.741.131-1.444-.478-2.869-1.716-3.844-1.659-1.303-3.3-2.634-5.053-3.834-.469-.319-1.313-.356-1.884-.188-.975.281-1.847.881-2.803 1.266-2.878 1.163-4.866 3.131-5.616 6.206-.281 1.191-.572 2.363-.844 3.553-.506 2.213-.459 4.359 1.247 6.056 2.344 2.363 5.147 3.9 8.334 3.994zm-67.087 90.553c2.756.131 5.241-.45 7.125-2.662.15-.178.356-.366.553-.412 2.203-.544 2.456-2.175 2.25-4.022-.122-1.012-.366-2.016-.553-3.019-.056-.309-.272-.656-.187-.919.422-1.388-.272-2.391-1.247-3.131-1.219-.938-2.55-1.762-3.9-2.513-.356-.197-1.256-.084-1.416.178-.703 1.172-1.772 1.434-2.972 1.566-1.163.131-2.325.319-3.497.478-3.056.431-4.997 2.4-5.419 5.438a26 26 0 0 1-.375 2.072c-.516 2.325.056 3.797 2.091 5.006 2.325 1.359 4.847 2.072 7.556 1.941zm-74.635-89.878c.028.103.037.216.056.319 1.2-.356 2.419-.675 3.609-1.078 1.059-.375 2.044-1.05 3.131-1.247 2.222-.413 2.916-2.072 3.066-3.844.234-2.7-.281-5.353-1.913-7.641-1.266-1.772-2.906-2.484-5.203-2.663-2.419-.187-4.688-.075-6.909.731-3.038 1.106-5.194 5.119-4.219 8.184.656 2.081 1.697 4.059 2.728 6 .309.563 1.116 1.097 1.763 1.191 1.256.188 2.578.056 3.872.056zm83.1-94.884c-.281-1.809-2.85-5.578-4.537-6.234-.366-.141-.834-.094-1.219-.028-.956.197-1.894.497-2.859.694-5.522 1.191-8.503 4.622-8.297 9.581.131 3.244 2.419 5.916 5.606 6.553 2.672.525 5.316.572 7.866-.572.497-.225 1.106-.694 1.237-1.162.816-2.925 1.491-5.878 2.222-8.831z"/><path fill-rule="nonzero" d="M126.066 183.103c-6.244-.234-12.347-1.172-18.188-3.45-.684-.262-1.369-.684-1.866-1.2-1.397-1.397-2.691-2.878-4.013-4.359-.956-1.078-1.294-2.269-.891-3.759.675-2.503 1.837-4.613 4.097-6.009.844-.525 1.313-1.116.703-2.213-.169-.291.188-1.191.553-1.416 1.922-1.2 3.984-1.65 6.169-.656 2.813 1.284 5.653 2.513 8.466 3.834 3.825 1.8 7.622 3.647 11.419 5.466.131.056.244.131.375.188 2.878 1.387 2.916 1.612 1.35 4.331-.769 1.341-1.238 2.85-2.034 4.162-.891 1.463-1.866 2.925-3.066 4.125-.731.722-1.969.928-2.962 1.378a2 2 0 0 1-.094-.422zM157.425 179.363c-2.691-.366-4.997-1.05-6.853-3-1.125-1.191-2.372-2.269-3.591-3.384-.609-.563-.787-1.05-.075-1.753.422-.412.609-1.125.75-1.744.291-1.294 1.022-1.753 2.344-1.65.656.056 1.416-.178 2.034-.459 5.278-2.4 9.825-6.178 15.441-7.95 1.378-.431 2.531-.469 3.722.375 2.681 1.884 4.631 5.841 3.984 8.316-.572 2.231-1.913 3.806-4.134 4.622-.647.234-1.247.619-1.847.984-2.034 1.256-3.975 2.719-6.113 3.759-1.753.872-3.759 1.266-5.672 1.866zM133.078 201.394c-.281-1.144-.694-2.091-.731-3.066-.094-2.344-.037-4.688 0-7.041.037-2.869 1.2-5.344 2.691-7.725.469-.75.422-1.809.722-2.7.178-.553.422-1.341.863-1.519 1.153-.478 2.4-.844 3.647-.966 1.8-.188 3.009.703 3.787 2.325.506 1.05 1.172 1.997 1.678 3.047.609 1.303 1.463 2.606 1.622 4.003.469 3.9.647 7.847.928 11.775.084 1.191-.141 2.184-1.65 2.222-.047 0-.103.009-.131.037-1.762 1.819-2.991.525-4.303-.694-2.203-2.016-4.641-2.25-7.256-.741-.506.291-1.003.563-1.866 1.059z"/></svg>