<!-- Generated by IcoMoon.io -->
<svg version="1.1" xmlns="http://www.w3.org/2000/svg" width="300" height="300" viewBox="0 0 300 300">
<title>fighters-warrior</title>
<path d="M0 151.444c4.031-1.397 8.109-2.7 12.094-4.219 3.759-1.434 7.444-3.066 11.119-4.678 0.938-0.412 1.669-1.284 2.587-1.744 1.753-0.881 3.309-1.697 4.622-3.45 1.088-1.472 3.45-2.016 5.297-2.888 1.884-0.9 3.825-1.659 5.719-2.512 1.172-0.525 2.344-1.088 3.487-1.678 2.203-1.144 4.425-2.241 6.553-3.497 1.050-0.619 1.922-1.547 2.831-2.363 0.834-0.75 1.622-1.556 2.55-2.466 0.525 1.106 0.844 2.006 1.341 2.775 0.6 0.938 1.359 1.772 2.053 2.644 0.337 0.422 0.919 0.787 1.012 1.247 0.684 3.291 3.366 4.059 6 4.547 3.675 0.684 6.891-0.844 9.638-3.103 0.938-0.769 1.659-2.269 1.744-3.488 0.291-4.050-0.638-7.838-4.884-9.516-2.4-0.956-4.481-2.503-7.322-1.941-1.444 0.291-2.006-0.75-1.884-2.147 0.047-0.6-0.15-1.275 0.084-1.772 0.328-0.694 0.844-1.359 1.444-1.828 0.797-0.638 1.941-0.9 2.616-1.603 6.759-7.153 14.362-13.35 21.778-19.763 2.869-2.475 5.109-5.681 7.8-8.391 1.734-1.744 3.713-3.263 5.653-4.781 1.781-1.397 3.572-2.831 5.541-3.909 0.919-0.506 2.287-0.366 3.413-0.197 0.309 0.047 0.6 1.144 0.694 1.791 0.337 2.053 0.544 4.144 0.9 6.206 0.122 0.769 0.366 1.584 0.759 2.241 1.856 2.991 7.894 4.631 11.044 3.075 2.85-1.406 4.031-4.463 2.953-7.744-0.806-2.475-2.428-4.313-4.753-5.503-1.856-0.956-3.741-1.866-5.578-2.841-1.997-1.059-2.456-2.85-1.209-4.744 0.684-1.031 1.603-1.922 2.241-2.991 1.059-1.772 1.969-3.637 2.944-5.456 0.159-0.3 0.263-0.694 0.525-0.881 1.641-1.162 2.203-2.991 3.075-4.659 2.625-5.081 5.503-10.022 8.063-15.141 1.594-3.187 2.766-6.572 4.172-9.862 0.722-1.678 1.453-3.366 2.287-5.006 1.772-3.497 3.713-6.928 5.353-10.472 0.787-1.678 1.022-3.609 1.566-5.419 0.272-0.9 0.638-1.772 1.088-2.588 0.178-0.337 0.694-0.722 1.012-0.675 0.328 0.038 0.722 0.525 0.862 0.881 0.731 1.959 1.247 3.994 2.119 5.888 1.219 2.653 2.438 5.353 4.088 7.744 3.262 4.753 6.787 9.328 10.247 13.95 1.013 1.359 1.481 2.803 1.275 4.462-0.3 2.475 0.375 4.444 2.625 5.85 1.894 1.172 2.541 3.263 3.141 5.278 0.384 1.331 0.9 2.381 2.428 2.691 0.422 0.084 0.797 0.675 1.106 1.106 1.275 1.753 2.625 3.478 3.722 5.353 0.769 1.331 1.2 2.887 1.716 4.359 0.534 1.519 0.844 3.15 1.547 4.594 0.872 1.828 2.053 3.516 3.066 5.297 0.787 1.397 0.347 2.503-1.219 2.972-1.238 0.375-2.503 0.675-3.778 0.872-2.428 0.375-4.2 1.819-5.7 3.553-0.534 0.609-0.75 1.753-0.656 2.616 0.581 5.85 7.631 9.403 13.125 6.675 1.481-0.731 2.653-1.584 2.991-3.534 0.422-2.475 1.369-4.866 2.147-7.284 0.487-1.547 2.878-2.212 3.994-1.162 4.022 3.778 8.119 7.472 12.047 11.344 1.566 1.547 2.85 3.413 4.069 5.269 1.959 2.953 4.716 4.997 7.575 6.891 6.028 4.013 10.603 9.319 14.072 15.572 0.581 1.050 0.347 2.588 0.3 3.881-0.009 0.253-0.9 0.637-1.397 0.656-0.834 0.047-1.678-0.197-2.512-0.225-4.931-0.084-7.819 4.594-5.606 9.028 1.594 3.188 4.556 4.434 7.669 5.466 0.328 0.113 0.787-0.037 1.144-0.178 2.456-0.909 4.537-2.278 5.625-4.791 0.609-1.378 1.716-2.016 3.178-2.081 0.75-0.037 1.491 0.009 2.241 0 1.584-0.028 2.578 0.731 2.841 2.278 0.366 2.109 1.313 3.487 3.534 4.069 2.241 0.6 4.406 1.519 6.563 2.391 1.275 0.506 2.456 1.209 3.675 1.847 0.788 0.412 1.528 0.947 2.353 1.284 3.253 1.341 6.525 2.644 9.788 3.947 0.141 0.047 0.3 0.103 0.403 0.197 4.519 4.172 10.584 5.109 15.919 7.584 2.344 1.097 4.772 1.997 6.647 3.9 1.706 1.734 1.491 3.403-0.609 4.584-8.691 4.903-17.409 9.778-26.053 14.775-2.269 1.313-4.387 2.016-6.863 0.769-0.694-0.347-1.528-0.441-2.269-0.722-1.012-0.384-1.753-0.262-2.456 0.684-0.272 0.375-1.069 0.534-1.622 0.506-1.556-0.047-1.969 0.216-1.641 1.622 0.75 3.197-0.103 5.7-2.644 7.838-1.819 1.519-3.3 3.422-5.081 5.006-1.134 1.013-1.791 0.844-2.419-0.562-0.731-1.659-1.378-3.375-1.781-5.128-0.544-2.419-3.347-4.941-5.841-4.819-1.472 0.075-3.047 0.103-4.387 0.647-4.284 1.772-5.353 7.237-2.231 10.734 2.156 2.391 4.856 3.525 8.044 2.878 1.819-0.375 3.075 0.272 4.397 1.491-2.7 3.703-5.381 7.397-8.119 11.063-0.375 0.497-0.994 0.825-1.491 1.238-1.491 1.219-3.112 2.316-4.444 3.703-6.441 6.713-12.844 13.472-19.181 20.287-2.541 2.728-4.772 5.737-7.397 8.381-1.397 1.397-3.347 2.231-5.034 3.347-0.572 0.384-1.097 0.844-1.641 1.256-1.069 0.787-1.716 0.6-2.119-0.656-0.825-2.606-1.678-5.203-2.419-7.838-0.769-2.738-2.456-4.444-5.316-4.688-2.831-0.234-5.259 0.722-6.722 3.262-0.759 1.313-1.322 2.803-1.641 4.284-0.638 2.963 0.844 5.259 3.797 5.944 1.641 0.384 2.869 1.275 3.994 2.428 0.731 0.75 0.825 1.491 0.159 2.241-3.572 4.069-5.981 8.878-8.756 13.491-4.809 7.959-10.097 15.619-15.197 23.409-0.113 0.159-0.225 0.328-0.328 0.497-3.459 5.841-6.938 11.681-10.397 17.522-0.103 0-0.197 0-0.3 0-0.525-0.525-1.059-1.022-1.547-1.566-3.366-3.778-5.531-8.334-8.119-12.6-2.287-3.778-4.509-7.594-6.862-11.334-1.641-2.606-3.459-5.091-5.184-7.65-0.216-0.328-0.403-0.722-0.412-1.097-0.066-2.316-1.275-4.022-2.85-5.559-2.006-1.941-4.059-3.834-5.944-5.878-2.156-2.344-1.744-4.866 0.834-6.713 1.622-1.162 3.178-2.4 4.725-3.647 3.122-2.531 3.647-5.925 2.531-9.45-0.862-2.681-2.212-5.391-5.241-6.281-2.231-0.656-4.5-0.309-6.647 0.806-2.091 1.087-3.497 2.512-3.684 4.969-0.047 0.581-0.291 1.162-0.412 1.744-0.806 3.872-0.797 3.872-4.65 4.434-0.253 0.038-0.506 0.122-0.731 0.066-0.647-0.188-1.406-0.291-1.903-0.684-2.531-2.081-5.109-4.125-7.462-6.384-5.513-5.316-10.894-10.772-16.388-16.125-2.287-2.231-4.537-4.434-6.056-7.322-0.731-1.397-1.772-2.653-2.803-3.862-2.325-2.719-4.884-5.269-7.088-8.081-1.509-1.931-2.653-4.162-3.863-6.3-0.544-0.975-0.15-1.697 0.956-2.034 0.638-0.197 1.237-0.506 2.044-0.862-0.563-0.759-1.181-1.294-1.359-1.959-0.188-0.684-0.075-1.519 0.141-2.231 0.103-0.309 0.722-0.609 1.144-0.656 2.306-0.253 4.659-0.225 6.909-0.675 4.247-0.834 6.947-7.078 4.828-10.837-1.331-2.362-4.931-4.022-7.697-3.525-4.472 0.797-6.713 3.553-7.275 7.922-0.291 2.316-1.294 4.613-2.344 6.741-0.844 1.744-1.247 1.669-2.888 0.638-7.819-4.941-15.891-9.413-24.6-12.656-0.413-0.15-0.788-0.412-1.172-0.647-2.737-1.659-5.456-3.366-8.222-4.969-2.962-1.716-5.963-3.366-8.972-5.006-1.125-0.619-2.241-1.453-3.459-1.678-4.809-0.881-7.931-4.256-11.334-7.256 0.037-0.141 0.037-0.234 0.037-0.338zM167.1 234.178c0.216-0.291 0.366-0.384 0.384-0.506 0.759-3.638 1.556-7.275 2.203-10.931 0.15-0.872 0.038-1.931-0.338-2.719-0.647-1.341-0.544-2.466 0.291-3.628 4.406-6.169 9.966-10.659 17.588-12.159 1.903-0.375 3.825-0.647 5.719-1.059 4.387-0.956 6.562-3.909 6.028-8.316-0.45-3.684 0.15-7.134 1.903-10.388 0.534-0.984 0.441-1.847-0.141-2.803-0.581-0.975-1.097-2.006-1.472-3.066-0.834-2.391-1.678-4.791-2.306-7.247-0.45-1.753-0.797-3.609-0.759-5.419 0.188-9.3 0.441-18.619 0.834-27.909 0.225-5.203-0.984-10.125-3.037-14.756-2.128-4.791-4.847-9.338-7.388-13.95-0.525-0.947-1.247-1.847-2.072-2.531-4.556-3.834-9.431-7.2-15.272-8.784-5.278-1.434-10.584-2.766-15.891-4.097-0.909-0.225-1.894-0.431-2.794-0.3-3.534 0.534-7.172 0.844-10.547 1.931-7.772 2.513-15.122 6.038-22.106 10.275-2.869 1.734-4.884 4.2-6.188 7.275-0.731 1.744-1.481 3.478-2.241 5.203-3.787 8.616-4.997 17.644-4.294 26.972 0.084 1.181 0.497 2.428 0.253 3.534-0.572 2.55-0.647 5.091 0.103 7.537 1.125 3.638 0.722 7.059-0.75 10.463-0.9 2.072-0.694 3.956 0.694 5.737 0.684 0.881 0.975 1.894 0.3 2.916-1.716 2.606-3.347 5.278-5.259 7.744-1.556 2.016-1.781 4.481-0.225 6.534 3.375 4.434 6.759 8.859 10.078 13.341 0.863 1.162 1.556 1.547 2.925 0.75 2.156-1.238 4.425-1.359 6.684-0.084 1.172 0.656 2.381 1.219 3.572 1.828 6 3.047 10.772 6.778 12.066 14.222 0.834 4.791 3.422 9.281 3.975 14.287 0.047 0.469 0.647 0.881 0.994 1.331 0.403-0.403 0.956-0.731 1.162-1.219 0.413-1.050 1.022-1.209 1.997-0.834 1.106 0.422 2.25 0.797 3.384 1.162 1.894 0.609 2.034 0.422 2.353-1.528 0.234-1.416 0.6-2.916 1.322-4.125 0.656-1.106 1.603-0.938 2.381 0.15 0.872 1.209 1.669 2.475 2.541 3.684 0.834 1.172 3.272 1.088 4.059-0.113 1.050-1.622 2.691-1.903 4.256-0.722 1.012 0.722 2.006 1.519 3.019 2.306zM134.109 51.797c0.9-2.203 1.791-4.406 2.813-6.938-2.766 1.069-4.209 4.509-2.813 6.938zM189.169 107.231c0.769 1.453 1.256 2.925 3.028 3.309 0.15-2.438-0.694-3.403-3.028-3.309zM194.691 114.019c-0.141 0.084-0.272 0.187-0.403 0.272 0.525 1.087 1.022 2.175 1.603 3.225 0.113 0.216 0.534 0.263 0.806 0.384 0.084-0.263 0.309-0.534 0.262-0.759-0.328-1.378-1.022-2.494-2.278-3.122zM143.175 261.103c0.422-0.366 0.834-0.722 1.406-1.219-1.088-0.309-1.284-1.903-2.475-1.059-0.113 0.084 0.694 1.481 1.069 2.278zM183.15 243.019c-0.459 0.366-0.834 0.656-1.322 1.022 0.938 0.731 1.594 1.847 2.541 0.291-0.188-0.234-0.328-0.441-0.497-0.619-0.187-0.216-0.412-0.403-0.722-0.684zM157.406 31.931c-1.472 1.144-1.369 1.856 0.141 2.475-0.038-0.759-0.075-1.472-0.141-2.475z"></path>
<path d="M140.372 196.941c-0.9-1.359-1.847-1.172-2.953-0.572-1.397 0.75-2.841 1.434-4.313 2.016-0.675 0.272-1.491 0.459-2.175 0.338-3.253-0.609-6.628-0.637-9.675-2.166-3.15-1.584-6.319-3.178-9.553-4.556-2.569-1.097-2.944-3.45-3.647-5.625-0.103-0.328 0.178-0.9 0.459-1.2 2.766-2.869 5.794-5.503 9.872-6 2.166-0.262 4.434 0.272 6.647 0.506 5.831 0.638 11.147 2.906 16.378 5.344 3.263 1.519 3.984 4.35 2.109 7.462-0.909 1.481-2.006 2.841-3.15 4.463z"></path>
<path d="M174.881 196.116c-1.434-0.253-2.428-0.197-2.953 1.162-0.103 0.272-1.031 0.534-1.378 0.375-2.794-1.284-5.578-2.55-8.241-4.059-1.331-0.75-2.231-1.978-2.466-3.703-0.3-2.25 0.684-3.459 2.391-4.809 3.787-2.972 8.109-4.463 12.675-5.625 2.681-0.684 5.231-1.866 7.781-2.944 2.991-1.247 5.916-1.219 8.766 0.272 3.384 1.781 3.919 5.756 1.294 8.503-4.444 4.669-9.909 7.762-15.684 10.397-0.731 0.338-1.631 0.328-2.194 0.422z"></path>
<path d="M159.853 207c0 0.647 0 1.294 0 1.941 0 3.3 0.028 3.347-2.869 4.884-0.469 0.253-1.547 0.075-1.922-0.328-0.881-0.947-1.828-1.087-3.047-1.106-2.034-0.037-4.069-0.3-6.056-0.713-1.744-0.366-2.606-1.978-2.438-3.938 0.197-2.381 0.422-4.753 0.572-7.134 0.103-1.603 0.544-2.962 1.828-4.069 1.659-1.416 3.234-2.953 4.819-4.463 0.834-0.797 1.584-0.806 2.494-0.084 4.106 3.272 6.45 7.444 6.6 12.75 0.028 0.75 0 1.491 0 2.241-0.009 0.009 0 0.009 0.009 0.009zM156.337 208.275c-0.262-0.347-0.469-0.759-0.797-0.956-0.113-0.075-0.638 0.309-0.806 0.6-0.366 0.581-0.684 1.209-0.881 1.856-0.103 0.328 0.038 0.994 0.234 1.059 0.328 0.113 0.984 0.009 1.144-0.225 0.441-0.675 0.713-1.481 1.106-2.325z"></path>
</svg>
