<!-- Generated by IcoMoon.io -->
<svg version="1.1" xmlns="http://www.w3.org/2000/svg" width="300" height="300" viewBox="0 0 300 300">
<title>fighters-hero</title>
<path d="M0 151.969c1.538-0.384 3.038-0.769 4.678-0.178 0.684 0.234 1.65-0.506 2.428-0.375 3.778 0.6 7.209-0.825 10.781-1.566 5.522-1.162 11.025-2.616 16.613-3.075 5.222-0.431 10.341-1.275 15.487-2.137 1.519-0.263 3.009-0.703 4.509-1.144 2.428-0.703 4.856-0.909 7.388-0.525 2.456 0.375 4.425-0.459 5.869-2.691 0.6-0.919 1.8-1.613 2.869-1.997 0.572-0.216 1.566 0.309 2.175 0.769 0.703 0.516 1.247 1.284 1.763 2.016 1.331 1.875 3.272 2.409 5.391 2.625 1.144 0.122 1.978-0.422 2.344-1.425 0.516-1.444 1.013-2.944 1.237-4.463 0.478-3.281 1.416-6.412 2.803-9.422 1.894-4.097 4.050-8.091 5.597-12.309 2.119-5.756 5.287-10.894 8.428-16.069 3.375-5.578 7.65-10.294 13.388-13.659 3.722-2.175 7.116-4.894 10.734-7.275 4.134-2.719 8.428-5.109 13.369-6.15 2.475-0.516 3.375-2.494 2.531-4.875-0.141-0.403-0.281-0.797-0.431-1.191-0.591-1.566-1.659-2.138-3.356-2.213-2.475-0.094-3.056-0.787-2.409-2.916 0.975-3.225 1.556-6.563 2.381-9.834 0.478-1.903 1.078-3.787 1.678-5.663 0.459-1.425 0.581-2.728-0.591-3.928-0.356-0.366-0.422-1.003-0.684-1.659 0.656-0.197 1.209-0.544 1.697-0.469 2.428 0.328 4.734-2.691 5.091-4.847 0.319-1.828-0.103-2.578-1.894-3.459-2.109-1.031-2.091-1.022-1.003-3.047 0.328-0.609 0.656-1.275 0.797-1.95 1.125-5.288 2.269-10.566 3.281-15.863 0.328-1.697 0.291-3.459 0.469-5.184 0.225-2.156 1.35-3.656 3.356-4.509 0.778-0.328 1.575-0.609 2.325-0.975 1.162-0.563 1.903-0.309 2.175 0.975 0.525 2.484 0.966 4.978 1.425 7.472 0.122 0.647 0.188 1.303 0.319 1.941 1.772 8.822 3.816 17.606 5.25 26.475 1.031 6.375 2.897 12.497 4.537 18.694 0.197 0.769 0.281 1.575 0.384 2.362 0.309 2.475 0.516 4.95 0.891 7.416 0.216 1.425-0.094 2.362-1.538 2.859-1.322 0.45-2.156 1.434-2.672 2.906 1.097 0.431 2.128 0.844 3.169 1.256 8.475 3.328 16.106 7.894 22.284 14.709 3.787 4.181 7.584 8.344 11.409 12.497 0.675 0.731 1.369 1.444 2.156 2.025 3.141 2.297 5.128 5.381 6.694 8.897 3.234 7.275 5.962 14.709 7.744 22.481 0.169 0.703 0.075 1.613-0.244 2.259-0.881 1.809-0.694 2.4 1.444 3.131 0.366-0.525 0.75-1.097 1.191-1.725 1.153 0.591 2.203 1.106 2.803 2.409 0.291 0.637 1.153 1.256 1.856 1.387 1.416 0.272 2.906 0.328 4.35 0.244 0.731-0.037 1.519-0.45 2.138-0.891 1.162-0.834 2.409-1.050 3.741-0.703 5.316 1.35 10.659 2.644 15.947 4.144 7.303 2.063 14.766 2.784 22.322 2.719 6.506-0.056 12.544 2.184 18.759 3.609 2.175 0.497 4.425 0.638 6.647 0.956 1.106 0.15 2.222 0.281 3.291 0.553 0.741 0.188 0.956 0.787 0.141 1.125-1.584 0.656-3.197 1.509-4.856 1.678-5.569 0.572-11.166 0.778-16.734 1.331-9.028 0.909-18.038 1.922-27.038 3.028-1.922 0.234-3.778 1.031-5.644 1.622-1.387 0.431-2.738 0.956-4.116 1.416-1.697 0.563-3.366 1.191-5.081 1.659-2.025 0.562-4.097 0.956-6.131 1.491-0.891 0.234-1.8 0.516-2.597 0.975-2.278 1.294-4.472 2.738-6.769 4.013-0.787 0.431-1.762 0.694-2.672 0.778-1.856 0.15-2.906 0.797-3 2.597-0.122 2.259-0.975 4.181-1.988 6.103-0.216 0.412-0.459 0.834-0.562 1.284-0.881 3.544-3.047 6.281-5.456 8.906-1.069 1.162-1.903 2.541-2.85 3.825-0.281 0.375-0.497 0.825-0.834 1.125-3.338 3-5.953 6.769-9.872 9.188-2.025 1.247-3.694 3.056-5.644 4.463-1.238 0.881-2.728 1.416-4.059 2.203-1.631 0.975-3.131 1.153-4.894 0.103-1.106-0.656-3.431 0.591-4.181 2.222-1.125 2.475-2.138 5.025-2.887 7.622-0.234 0.844 0.403 2.063 0.891 2.953 0.609 1.116 1.603 2.119 0.562 3.412-0.75 0.928-2.128 0.769-3.694-0.272-1.059-0.694-2.128-1.378-3.234-1.997-0.928-0.525-1.575-0.291-1.556 0.881 0.009 1.078-0.412 1.35-1.481 1.162-1.716-0.309-2.362 0.431-2.091 2.156 0.234 1.509 1.125 2.447 2.541 2.916 0.975 0.328 2.016 0.497 2.981 0.862 2.278 0.862 2.859 3.141 1.294 4.997-0.694 0.825-1.387 1.706-2.25 2.344-2.766 2.062-3.047 5.072-3.422 8.128-0.225 1.847-0.516 3.769-1.247 5.437-1.387 3.178-2.213 6.45-2.859 9.834-1.491 7.931-3.141 15.834-4.903 23.719-0.787 3.516-0.478 7.012-0.525 10.528-0.028 1.922-0.356 2.531-1.669 2.766-1.491 0.263-2.597-0.356-2.963-2.081-0.497-2.381-0.797-4.809-1.031-7.228-0.6-6.413-0.816-12.881-1.791-19.238-0.656-4.322-2.297-8.503-3.563-12.722-0.628-2.081-1.294-4.087-0.881-6.328 0.431-2.344-0.525-4.509-1.584-6.459-0.516-0.956-1.922-1.434-2.916-2.119-0.459-0.319-0.938-0.6-1.538-0.975 1.153-1.031 2.297-1.884 3.197-2.944 0.825-0.966 1.603-2.081 2.016-3.272 0.497-1.378 0.047-1.762-1.416-1.791-0.281 0-0.563 0.047-0.844 0.009-1.031-0.103-1.425-0.872-0.919-1.762 1.181-2.109 0.975-4.088-0.469-6.037-1.2-1.622-2.344-3.291-3.384-5.025-0.272-0.45-0.262-1.275-0.037-1.762 0.863-1.969 0.506-2.672-1.537-3.281-2.278-0.684-4.519-1.519-6.741-2.391-8.203-3.178-15-8.597-21.975-13.734-1.444-1.069-2.784-2.447-3.787-3.938-5.109-7.622-9.825-15.469-12.75-24.263-0.375-1.144-0.197-2.166 0.019-3.366 0.291-1.584-0.281-3.366-0.637-5.025-0.019-0.131-1.331-0.197-1.922 0.038-1.153 0.45-2.231 1.106-3.319 1.706-1.097 0.609-2.259 1.153-3.225 1.941-1.125 0.928-2.259 1.256-3.647 0.797-1.425-0.469-2.831-1.078-4.303-1.322-2.109-0.328-4.275-0.366-6.413-0.553-1.341-0.122-2.728-0.056-3.984-0.431-4.556-1.35-9.028-2.944-13.837-3.15-0.75-0.037-1.575-0.366-2.222-0.787-1.209-0.787-2.456-0.984-3.881-0.938-3.581 0.131-7.088-0.225-10.566-1.331-2.784-0.891-5.775-1.172-8.681-1.697-3.881-0.684-7.781-1.331-11.672-1.987-0.459-0.084-0.928-0.15-1.369-0.319-1.603-0.609-3.234-1.162-4.763-1.931-0.694-0.356-1.181-1.125-1.762-1.716-0.028-0.225-0.028-0.413-0.028-0.6zM157.144 213.741c2.456 0.816 3.075 1.528 3.731 4.416 0.234 1.031 0.703 1.444 1.753 1.294 1.013-0.141 1.978-0.009 2.072-1.613 0.225-3.703 0.703-7.387 1.069-11.091 0.469-4.744 2.034-8.916 5.672-12.234 1.378-1.256 2.409-2.888 3.628-4.322 2.991-3.544 6.178-6.834 10.688-8.522 1.031-0.384 1.941-1.144 2.944-1.65 1.622-0.834 3.244-1.669 4.903-2.391 1.162-0.497 2.109-1.144 2.231-2.456 0.169-1.716 0.544-3.506 0.281-5.175-0.694-4.369-1.725-8.672-4.584-12.262-0.178-0.216-0.281-0.478-0.375-0.75-1.697-4.856-3.075-9.834-3.009-14.991 0.084-7.669-0.834-15.188-2.588-22.641-1.125-4.8-1.725-9.741-3.178-14.437-2.184-7.059-5.597-13.237-13.416-15.778-5.709-1.856-11.222-4.284-16.884-6.309-0.975-0.337-2.25 0-3.356 0.197-1.022 0.187-1.997 0.881-3 0.872-3.966-0.009-7.781 0.497-11.353 2.306-0.919 0.469-1.838 0.956-2.784 1.341-7.2 2.85-12.788 6.956-15.45 14.916-3.422 10.256-5.316 20.428-2.934 31.134 0.263 1.181 0.431 2.475 0.216 3.628-0.431 2.25-0.984 4.519-1.828 6.638-1.341 3.403-3 6.675-4.472 10.022-1.2 2.756-2.278 5.569-3.506 8.306-0.881 1.978-1.153 3.966-0.525 6.037 0.975 3.281 1.837 6.628 3.028 9.825 0.553 1.472 1.613 2.869 2.766 3.956 1.209 1.144 2.728 2.025 4.247 2.719 3.122 1.425 6.319 2.644 9.497 3.928 2.963 1.2 5.934 2.325 8.072 4.931 3.028 3.675 5.034 7.781 6.037 12.422 0.459 2.156 0.872 4.35 1.697 6.366 0.656 1.603 0.722 2.934-0.084 4.416-0.919 1.697-0.787 2.081 0.872 3.028 0.366 0.216 0.975 0.412 1.256 0.244 0.272-0.15 0.431-0.816 0.366-1.209-0.216-1.303 0.366-1.941 1.294-2.166 1.256 1.322 2.306 2.616 3.553 3.675 1.537 1.322 2.297 0.984 2.691-1.022 0.084-0.431-0.009-0.919-0.056-1.378-0.216-2.109-0.075-4.106 1.941-5.916 0.694 1.116 1.434 2.025 1.847 3.047 0.469 1.162 0.609 2.456 1.003 3.656 0.131 0.403 0.591 0.984 0.919 1.003 1.556 0.056 2.475-0.075 2.531-1.95 0.075-1.294 0.384-2.597 0.6-4.050zM141.309 229.134c-0.338 0.422-0.909 0.816-0.966 1.275-0.103 0.919 0.422 1.772 1.388 1.678 0.516-0.047 1.284-0.834 1.378-1.378 0.169-0.909-0.525-1.416-1.8-1.575zM160.791 223.641c-0.469-0.131-0.872-0.291-1.275-0.309-0.094 0-0.319 0.516-0.272 0.769 0.047 0.272 0.338 0.497 0.553 0.787 0.366-0.281 0.656-0.506 1.031-0.797 0.909 1.35 1.575 0.431 2.316-0.216-1.172-1.050-1.172-1.050-2.362-0.234z"></path>
<path d="M35.072 251.606c0.825-1.003 1.584-1.931 2.363-2.859 3.413-4.069 6.994-7.941 10.837-11.634 5.344-5.128 9.975-10.988 14.916-16.528 1.472-1.65 2.766-3.516 4.463-4.894 2.634-2.138 3.544-4.987 4.069-8.091 0.197-1.153 0.328-2.325 0.544-3.488 0.328-1.772 1.331-2.541 3.15-2.503 2.128 0.038 3.225-1.575 2.203-3.497-1.322-2.484-2.709-4.969-4.284-7.284-2.072-3.056-2.897-6.375-2.756-10.013 0.094-2.438 0.516-2.887 2.869-2.897 2.344 0 4.603-0.272 6.694-1.838 0.459 1.303 0.844 2.438 1.275 3.562 1.078 2.906 2.081 5.85 3.309 8.691 0.909 2.109 1.987 4.144 3.187 6.094 1.228 1.997 2.588 3.938 4.069 5.756 1.444 1.772 3.056 3.412 4.697 5.016 3.169 3.084 6.328 6.169 9.609 9.122 3.966 3.581 8.269 6.675 13.434 8.353 1.434 0.469 2.569 1.387 3.094 2.887 0.516 1.425 0.019 2.494-1.378 3.056-0.216 0.084-0.45 0.131-0.675 0.216-2.109 0.741-2.737 1.884-2.438 4.134 0.122 0.891 0.019 1.809 0.019 3.197-1.294-0.572-2.316-0.816-3.075-1.397-2.156-1.669-4.191-3.488-6.272-5.25-0.319-0.272-0.609-0.6-0.975-0.816-3.881-2.297-7.791-4.528-11.634-6.872-0.684-0.412-1.2-1.153-1.678-1.809-0.834-1.153-1.556-1.162-2.391-0.009-0.319 0.45-0.684 0.919-1.144 1.209-1.894 1.209-3.778 2.456-5.775 3.497-2.541 1.331-5.166 2.531-7.809 3.647-1.781 0.75-3.469 1.491-4.987 2.784-3.862 3.272-8.494 5.334-12.9 7.744-1.519 0.825-2.906 1.875-4.378 2.784-1.2 0.741-2.494 1.331-3.628 2.156-3.6 2.634-7.163 5.316-10.687 8.063-2.494 1.903-3.291 1.95-5.963-0.281z"></path>
<path d="M185.775 67.181c1.519-0.412 2.756-0.609 3.628 0.881 0.188 0.319 0.778 0.459 1.209 0.563 0.825 0.188 1.669 0.291 2.503 0.412 1.050 0.131 1.828 0.497 2.25 1.603 0.216 0.563 0.787 1.050 1.294 1.444 3.094 2.447 6.328 4.744 9.309 7.331 2.391 2.072 4.922 2.306 7.734 1.444 0.366-0.103 0.778-0.563 0.863-0.938 0.225-0.909 0.319-1.847 0.375-2.775 0.056-0.834 0.291-1.378 1.275-1.2 1.744 0.319 3.084-0.169 4.144-1.697 0.45-0.638 1.35-0.966 2.081-1.378 4.144-2.306 8.475-4.331 12.375-6.984 2.456-1.669 4.781-3.384 7.584-4.462 0.872-0.328 1.425-1.434 2.203-2.091 0.825-0.703 1.659-1.519 2.644-1.884 1.631-0.609 2.916-1.425 4.097-2.784 2.231-2.578 4.519-5.184 8.016-6.216 0.881-0.262 1.659-0.478 2.259 0.375 0.6 0.872-0.038 1.472-0.591 2.072-3.422 3.694-7.087 7.191-10.181 11.128-4.059 5.175-7.706 10.669-11.428 16.097-0.881 1.294-1.341 2.878-2.044 4.303-0.525 1.097-1.106 2.166-1.725 3.216-1.228 2.063-2.569 4.050-3.731 6.131-1.209 2.166-3.075 3.534-5.222 4.538-0.562 0.272-1.369-0.009-2.034 0.084-0.741 0.103-1.762 0.141-2.109 0.609-0.281 0.384 0.216 1.388 0.459 2.081 0.375 1.022 0.863 2.016 1.256 3.028 0.469 1.163 0.787 2.409 1.35 3.534 2.138 4.237 4.378 8.409 6.516 12.647 0.412 0.825 0.6 1.763 0.872 2.663 0.609 2.016 1.162 4.050 1.847 6.038 0.862 2.531 0.338 3.609-2.259 4.162-1.791 0.375-3.6 0.675-5.409 0.938-1.397 0.216-2.362-0.412-2.953-2.044-1.378-3.797-2.831-7.575-3.975-11.447-2.503-8.503-7.463-15.656-12.413-22.8-1.162-1.678-3.122-2.822-4.716-4.2-0.966-0.825-1.941-1.631-2.953-2.409-0.834-0.647-1.575-1.294-1.612-2.484-0.009-0.366-0.281-0.834-0.572-1.078-1.556-1.294-3.122-2.569-4.734-3.788-2.391-1.828-4.838-3.581-7.228-5.4-0.844-0.647-1.659-1.125-2.813-0.984-0.478 0.056-1.35-0.328-1.481-0.694-0.169-0.506 0.028-1.341 0.384-1.763 0.816-0.966 1.791-1.8 2.766-2.616 1.031-0.825 1.566-1.753 0.891-3.188z"></path>
<path d="M235.519 181.256c-1.997 4.894-3.956 9.656-5.906 14.428-0.891 2.175-1.791 4.341-2.681 6.506-0.103 0.262-0.234 0.516-0.338 0.778-0.6 1.425-1.209 3.197-0.131 4.247 0.722 0.694 2.55 0.45 3.834 0.281 1.791-0.234 2.119-0.038 2.494 1.669 0.319 1.444 0.675 2.991 1.434 4.228 2.55 4.106 5.213 8.147 7.988 12.094 2.428 3.45 5.137 6.703 7.603 10.134 0.881 1.238 1.519 2.709 2.063 4.144 1.303 3.516 2.85 6.834 5.719 9.412 0.872 0.787 1.491 1.941 1.997 3.038 0.684 1.444-0.009 2.344-1.575 2.259-2.063-0.122-3.778-0.778-5.091-2.541-2.213-2.953-5.109-5.119-8.531-6.516-2.259-0.928-4.144-2.203-5.025-4.613-0.056-0.178-0.15-0.366-0.281-0.478-2.569-2.231-4.922-4.791-7.762-6.581-2.644-1.669-5.316-3.141-7.209-5.709-0.553-0.75-1.125-1.566-1.875-2.091-0.675-0.469-1.622-0.909-2.391-0.816-2.156 0.262-3.966-0.694-5.756-1.519-0.525-0.244-0.647-1.472-0.834-2.278-0.056-0.244 0.244-0.591 0.375-0.891 0.384-0.938 0.731-1.922-0.141-2.756-0.891-0.844-1.894-0.516-2.897-0.131-0.628 0.244-1.331 0.291-1.978 0.497-0.787 0.244-1.622 0.45-2.325 0.844-1.997 1.125-3.928 2.363-5.906 3.534-2.138 1.256-4.369 2.4-6.45 3.75-2.503 1.631-5.269 1.631-8.034 1.397-1.603-0.131-2.813-1.275-3.591-2.709-0.684-1.238-0.431-2.091 0.787-2.85 6.084-3.741 12.103-7.584 18.281-11.194 8.119-4.734 14.803-10.847 19.838-18.834 2.203-3.497 3.909-7.162 5.269-11.025 0.281-0.797 0.553-1.613 0.966-2.344 0.703-1.284 2.222-1.575 3.197-0.516 0.928 1.013 1.95 1.659 3.281 2.025 0.609 0.225 1.162 0.844 1.575 1.125zM187.8 225.131c1.987 1.397 4.556 1.059 5.944-0.825 0.234-0.319 0.281-0.909 0.15-1.275-0.075-0.197-0.741-0.281-1.106-0.234-0.975 0.131-1.941 0.544-2.897 0.497-1.444-0.075-1.922 0.647-2.091 1.838zM222.066 206.981c0.525-0.862 0.938-1.369 1.144-1.95 0.075-0.188-0.384-0.562-0.609-0.862-0.459 0.506-0.975 0.975-1.341 1.556-0.084 0.122 0.356 0.591 0.816 1.256zM218.447 220.087c-0.141-0.009-0.281-0.028-0.431-0.028-0.103 0.553-0.413 1.2-0.234 1.631 0.15 0.375 0.872 0.525 1.341 0.778 0.084-0.103 0.15-0.197 0.234-0.309-0.309-0.694-0.6-1.387-0.909-2.081z"></path>
<path d="M120.122 69.319c-1.622-0.272-2.672 0.216-3.103 1.903-0.122 0.459-0.778 0.872-1.284 1.106-1.013 0.478-2.175 0.675-3.131 1.247-4.641 2.775-9.281 5.522-13.097 9.488-2.213 2.297-4.734 4.294-7.088 6.459-0.431 0.403-0.75 0.928-1.106 1.416-0.281 0.375-0.469 0.891-0.834 1.106-3.366 1.941-4.566 5.494-6.375 8.569-3.956 6.694-6.834 13.884-9.497 21.159-0.469 1.294-0.656 2.719-0.844 4.106-0.141 1.059-0.525 1.463-1.566 1.078-0.263-0.094-0.553-0.15-0.787-0.291-1.922-1.144-3.862-0.797-5.85-0.216-0.628 0.187-1.556 0.234-2.016-0.094-0.862-0.609-1.284-1.631-0.844-2.766 0.516-1.369 0.984-2.737 1.603-4.059 1.378-2.981 2.831-5.934 4.247-8.897 0.675-1.397 1.444-2.756 1.95-4.209 0.881-2.569 2.138-4.875 3.872-6.975 0.563-0.684 0.825-1.8 0.816-2.719-0.019-1.303 0.366-2.063 1.631-2.391 0.834-0.216 1.613-0.506 1.753-1.566 0.216-1.537-0.169-1.987-1.697-2.269-0.628-0.122-1.284-0.497-1.753-0.928-0.787-0.731-1.434-1.612-2.166-2.409-2.353-2.55-4.341-5.269-5.016-8.812-0.272-1.444-0.984-2.831-1.622-4.191-0.722-1.509-1.678-2.813-3.281-3.544-0.544-0.244-1.031-0.675-1.444-1.106-2.344-2.569-4.697-5.137-6.956-7.791-0.516-0.609-0.684-1.509-1.059-2.25-0.281-0.563-0.525-1.209-0.966-1.631-1.631-1.622-3.328-3.187-4.997-4.781-0.178-0.169-0.337-0.319-0.516-0.478-0.722-0.647-1.341-1.603-0.572-2.278 0.788-0.703 1.566-0.047 2.278 0.797 3.15 3.741 6.891 6.497 12.094 6.609 0.769 0.009 1.538 0.637 2.259 1.050 0.563 0.319 1.050 0.778 1.613 1.125 2.297 1.434 4.584 2.887 6.919 4.275 1.247 0.741 2.522 1.472 3.872 1.978 3.6 1.35 6.891 3.169 9.909 5.569 0.966 0.778 2.231 1.153 3.338 1.772 1.144 0.647 2.259 1.35 3.375 2.034 1.838 1.116 2.784 0.787 3.844-0.984 0.403-0.684 1.247-1.237 2.016-1.566 2.963-1.284 5.962-2.494 8.981-3.647 1.969-0.75 4.013-1.303 5.981-2.091 1.697-0.684 3.337-1.491 4.941-2.363 1.022-0.553 1.884-0.741 2.803 0.122 0.45 0.412 1.022 0.684 1.444 1.116 0.45 0.469 1.191 1.434 1.106 1.519-0.638 0.675-1.425 1.228-2.213 1.716-0.272 0.131-0.675 0-0.966 0zM69.188 120.881c-0.291 0.338-0.656 0.656-0.862 1.059-0.178 0.337-0.15 0.778-0.225 1.181 0.459 0.075 1.003 0.328 1.378 0.188 1.012-0.403 0.919-1.416-0.291-2.428zM77.466 86.559c-0.197 0.244-0.403 0.478-0.6 0.731 0.469 0.422 0.928 0.862 1.444 1.237 0.037 0.019 0.469-0.506 0.722-0.788-0.516-0.403-1.031-0.787-1.566-1.181z"></path>
<path d="M118.322 161.063c0.553-1.697 2.063-2.522 4.059-1.903 4.163 1.294 8.316 2.634 12.422 4.134 2.644 0.956 5.184 2.203 7.781 3.319 3.403 1.472 3.938 3.722 1.988 6.862-1.763 2.831-3.75 5.456-5.981 7.941-1.191 1.322-2.644 1.584-4.237 1.2-3.197-0.778-6.366-1.65-9.553-2.447-0.591-0.15-1.2-0.272-1.8-0.244-2.325 0.103-4.162-0.863-5.803-2.438-1.463-1.397-2.953-2.766-4.519-4.031-2.503-2.034-3.094-5.569-1.059-8.016 1.725-2.072 3.881-3.628 6.694-4.369z"></path>
<path d="M159.947 167.541c1.209-0.338 2.475-0.553 3.609-1.050 2.588-1.116 5.063-2.484 7.669-3.553 3.816-1.566 7.688-3.028 11.569-4.378 2.175-0.75 4.106 0.244 5.119 2.325 0.187 0.375 0.338 0.778 0.516 1.162 2.475 5.709 0.628 10.856-4.969 13.65-2.222 1.116-4.481 2.184-6.816 3.047-1.556 0.572-3.272 0.722-4.903 1.125-0.984 0.244-2.025 0.469-2.887 0.975-2.784 1.65-5.588 1.303-7.762-1.059-0.544-0.591-1.116-1.172-1.772-1.575-2.541-1.537-3.328-4.012-3.497-6.722-0.141-2.353 1.856-4.256 4.116-3.966z"></path>
<path d="M151.725 194.025c-1.050 1.416-2.072 2.756-3.028 4.134-0.75 1.078-1.519 1.238-2.541 0.328-0.769-0.684-1.669-1.209-2.494-1.838-0.834-0.647-1.050-1.481-0.722-2.503 1.116-3.422 2.222-6.844 3.309-10.284 0.478-1.519 0.872-3.075 1.425-4.566 0.647-1.762 1.856-2.259 3.591-1.528 1.894 0.797 3.384 2.184 4.134 4.050 1.631 4.087 3.131 8.241 4.528 12.403 0.516 1.528-1.059 3.891-3.009 4.997-1.331 0.75-2.831 0.497-4.284-0.722-0.572-0.478-0.656-0.909-0.103-1.528 1.078-1.172 0.891-1.903-0.797-2.944z"></path>
</svg>
