<svg xmlns="http://www.w3.org/2000/svg" xml:space="preserve" fill-rule="evenodd" stroke-linejoin="round" stroke-miterlimit="2" clip-rule="evenodd" viewBox="0 0 300 300"><path fill-rule="nonzero" d="M300 215.6c-1.6 2.5-2 2.5-4.7 1.1a42 42 0 0 1-14.3-11.5c-2.5-3.2-5.8-5.8-8.5-9q-4.7-5.4-9-11.1l-7.8-9.5q-1.4-1.7-2.4.3l-7.6 13.1-1.4 2.5q-1.6 2-3.6.4-.8-.4-1.3-1.2-3.7-5.4-7.1-10.9a120 120 0 0 1-4.8-8.9q-1.4-2.8-2.5-5.8-.6-1.7 1-2.4c2.3-.9 3.4-2.7 4.4-4.8a114 114 0 0 0 8.6-23.1q.7-4.5.8-9c2.5.7 3.8 2.6 4.9 5q2.9 6.6 6.4 13c1.2 2.4 3 4.4 4.6 6.6l1 .8c1.4 1 2.7.5 3-1.3q.4-2.8 2.4-4.6.7-.7.9-1.6.7-1.8 2.6-1.8 2 .3 2.2 2.1c.7 7 4.4 12.8 8 18.6 4 6.5 6.6 13.7 9.8 20.7l14 30.5.4.6zm-155.6 78c-2.6-1.5-3-2.2-2.6-5.2l2.6-22.2 2.6-19.5.7-7.6c.1-1.5-.9-2.3-2.2-2.2-4.5.4-9-1.1-13.7 0q-2.4.8-4-1.5c-1-1.4-.7-3 0-4.3l8-14q2-3 3.3-6.4c1.5-3.9 4.4-5.6 8.2-6q3.6-.2 6.7-2a5 5 0 0 1 4.7 0q2.4 1.1 4.9 0 1-.4 1.9-.3h2c3.2-.8 6 .5 8.7 1.6l1.8.7q3.3 1.1 3.2 4.6-.2 2.5-2.6 2.2h-.6c-3.9-1-4.2-.8-6 2.8l-2.3 5c-1.8 4-1.8 8.2-1 12.5q.2 1.9 2 1.4l5-1.8c2.5-1 4.5-.2 5 2.5.2.6 0 1.6-.5 2a34 34 0 0 0-5.4 8.8c-.8 1.8-2.4 3.3-3.7 5q-1.2 1-2 2.3-4.4 8-8.5 16l-8.9 17.2-2 4.8q-1 2.6-3.2 3.6z"/><path fill-rule="nonzero" d="M110.4 162.2q1.3-1.6 2.6-.2 1.4 1.3 3.1.7c.3-2.2-1.1-4.5-3.2-5-2-.6-4-1.3-6.3-.7-.5.2-1.4-.5-2-1l-1.8-2.1q-1-.8-2.2-1.4l-.5-.2c-3.5-2.7-7-5.2-7.8-10q0-1-.3-1.9c-1.5-2.7-1.1-5.4-.4-8.3q.7-2.6 1-5.2c.5-2.4 1-4.7 2.5-6.6a20 20 0 0 0 4.5-11.6c.1-2 .9-4.2 1-6.3q.2-4.2 0-8.5l-.2-24q0-2-.3-4-.7-9.6 4.2-17.8l5.8-9.8 1.5-1.7 15.6-11 1-.6c6.1-2.3 11-6.4 16.3-10 3.3-2.3 6.3-5.1 10.2-6.8 2.7-1.1 5.4-2 8.4-1.8 11.5.2 22 3.3 30.6 11.6l5 4.6 4.1 3.3q2.8 2.5 5 5.3c2.9 3.8 5.3 7.9 8.2 11.6 3 4 4.1 8.4 4.3 13q.2 5.5-.1 11.1l-.1 3.5q.1 6.4-.1 13-.5 9.8 1.8 19.2c.8 4 2.7 7.8 4.6 11.5 2.6 4.9 3.3 10.3 4.3 15.6q.1.8-.2 1.7c-2.7 9-6.8 17.5-10.6 26q-.8 2-2.7 1.8c-3.7-.5-7.3.7-10.9 1.2l-5.2.4q-2.8 0-4 2.7l-2.5 4c-1 1.2-.9 4 .6 5.2s1.4 2.5 1.2 4.2c-.9 6-3.2 11.5-4.8 17.2a12 12 0 0 1-4.7 6.9q-1.4.9-2.4 0a7 7 0 0 1-2.4-5q0-2.2-.3-4.3-.4-2.4-2.5-1l-3.2 2.7q-2.4 2.3-5.4.8-1.9-1.3-3.2.7c-.6 1.1-1.8 1-3 .8q-1.5-.3-1.6-2.2c-.2-2.7-.5-5.5.5-8.3.6-1.5-1.3-5.8-2.8-6.7q-1.5-.8-2.3.6c-2 3.8-3.3 7.7-2 12.1q1 3.5-2.6 3.6h-1.2q-4.5-1-8.6.8c-1.7.8-2.5.3-3.5-1.3l-3.7-6.7q-.3-.8-1-1.4t-1.4-.4c-.3 0-.6.7-.7 1.1q-.3 3 .8 6 .9 2.3 1.3 5 .4 1.2.6 2.7a3 3 0 0 1-.5 1.9l-2.8 2.8q-2.3 2.6-4.8.3a9 9 0 0 1-2.8-6.2c-.2-5.2-1.9-10.1-2.6-15.2q-1.4-8.9-7.1-15.5zm93-45.9c-3.6 1.3-7.8 2.3-11.5 4.8q-1.6.9-3.5 1.5-1.1.3-2 1-3.5 4.2-8.6 6.3c-.4.2-1 1-1 1.3 1 2.4 1.5 5 3.6 6.8 3 2.7 6.6 4.3 10.8 4h2c2-.4 4.2-.5 6-1.3q5-2.3 9.6-5.2 4-2.6 5.4-7.1.7-1.7-.5-3.2l-4.5-6.2q-1.8-2.4-5.8-2.7m-73.2 24.4q3.6-.3 7-.8 3.4-.9 6.5-2l.2-.2 4.1-3.8q1.4-1.2-.2-2.2l-3.5-2.4-11-6.8q-3.2-1.9-6.1-4c-2.6-2.1-6.8-2.2-9.2.2q-3.6 3.6-4.9 8.6-.1 1.1.5 2.2l4 5.1c3.2 4 8 4.6 12.4 6.1zm40.7 23.3-.7-3-.7-2.7-1-11.8c-.1-4.3-1.6-7.4-6.3-8l-.7-.2c-.5.1-1.3.2-1.4.5q-1 1.8-1.3 3.8-.7 4.5-1.1 9.2c-.2 1.3-.8 2.7-.7 4q0 3.5-1 6.6c-.5 1.4.3 2.3 1.7 1.8q.8-.4 1.6-1.3l2.8-2c.2-.2.9-.2 1 0 2.1 2 4.9 2.2 7.9 3z"/><path fill-rule="nonzero" d="m56.7 154.3 2.3-1.7q6.2-8.3 12.3-16.9 2.6-3.9 6.2-7.2 2.3-2.4 4.4-5l1.7-2.1.4 1.2v9.3q-.1.7-.5 1.3t-.7 1.3l-2.2 11.2q0 .9.6 1.8l7 9.4a8 8 0 0 0 7.1 3q1.8-.2 3 1 1.5 1.8 2.8 3.7.4.9 0 1.9-.3 1-1.2 1.6-4.8 4.2-9.5 8.6c-7.3 7.2-16 12.3-24.1 18.3q-1.1.8-2.4 1.3l-4.4 2.7c-1.5 1-2.4 1.3-3.5 0q-1.6-2.3-2.6-4.9-1.4-3.8-2.5-8-.7-2.6-1.2-5.4c-.4-2.2-.9-2.6-2.9-1.8a63 63 0 0 0-8.1 4 185 185 0 0 0-12 8.1q-4.5 3-8.2 6.8A61 61 0 0 1 4.8 209L3 210.3q-1.2.6-2.6 1L0 211q.1-1.3.7-2.3 9.5-13 19.3-26l11.4-14.2q4.7-5.9 8.8-12.1c1.7-2.3 3.8-4.3 5.4-6.6q2.2-3.5 4-7.1 1.6-3.2 5.1-2.9c1.1 0 1.2.8 1.2 1.6q0 4.8.2 9.5zm28.7-87.1q1.5.7 2 2.7c1.2 3.3 1.2 6.6 1.3 10 .2 4.2 1 8.4 1.3 12.6q.3 5.4.2 11 0 .4-.4.7-.3.1-.8-.3c-3-4.4-8-4.7-12.4-6.3-3.5-1.3-7.3-1.6-11-2.4q-1.2-.2-2.3 0a18 18 0 0 1-8-.8l-7.6-2.3q-2.2-.5-4.6-.3-5.3 0-10.5.6-9.6 1-18.7 4.3c-1.5.6-2-.2-2.6-1.4l1.2-1a123 123 0 0 1 31.9-16.8q1.3-.6 2.4-1.6l3.1-1.7 4.4-1.7 4.8-2.7q1.8-1 2.3.8c.5 1.8.1 2.5.2 3.7v3.1l3-.8q8.4-3.2 16.7-6.8 2-1 4.1-2.5m144-6.2 1.6 2.7a7 7 0 0 0 12.1.3q.9-1.6.8-3.4.2-1.8 1.8-1.3a5 5 0 0 1 1.9.8q3 2 6.6 2.2 4.2.4 8.2 1.5t8 2.7l2.8 1.4 5 1.4q5.2.8 9.3 3.9l5.2 3.8 1.6 1.5q-1.5.8-2.7 1-4.5.2-9 .1l-2.3-.2c-3.4-1.2-6.8-.7-10.2-.6l-9.3.2q-1.5 0-3 .5l-8 2.6q-3.5 1.4-7 3.2l-8.2 5.2a9 9 0 0 0-4.2 4.8l-1.2 2c-1.7-1.2-2.1-2.8-2.2-4.6v-7.5l-.5-20.1c0-3-.2-3 2.8-4.2zM114 195c.6 2.6-.6 4.6-2.2 6.5q-.3.5-.9.7c-4.8 1.7-9 4.6-13.3 7.2l-7.4 4.8-13.5 9.3q-3.4 2-6.8 3.7l-5.3 3.7q-1 1-2.2.5-1.2-.7-.5-2v-.2c-.7-3.7 2-5.9 4-8.3l23-27.4c1.1-1.3 2.6-2.4 3.1-4.3.2-.6 1.3-1.3 2-1.5 2.7-.6 4.7-2 6.9-3.5 1.8-1.2 4.2-1.6 6.3-2.2.3 0 1 .6 1 1 .4 2.3 1.7 4.2 3 6.2q1.4 2.2 2.5 4.5zm127.5 38.7q-6.7-6.4-13.1-13.2c-5.5-6-11-11.8-17.6-16.6a25 25 0 0 0-4.7-2.6q-4.5-2-3.8-6.9.2-1 0-2c-.6-4.2 1.2-8 2.4-12 .7-2.4 5.3-3.5 7.3-2a7 7 0 0 0 5.3 1.4c2.6-.3 4.3 1.2 4.2 4q0 2.9 1.6 5.2c1 1.4 1.4 3 2.2 4.4l11 20q1 1.8 1.6 3.5 1.8 5.2 5 9.7c2.2 3.4 2 4.4-1.4 7.1"/></svg>