<!-- Generated by IcoMoon.io -->
<svg version="1.1" xmlns="http://www.w3.org/2000/svg" width="300" height="300" viewBox="0 0 300 300">
<title>fighters-minion</title>
<path d="M297.169 138.628c-0.806 0.825-1.762 0.975-2.934 1.106-2.194 0.234-4.369 0.919-6.516 1.556-2.053 0.619-4.041 1.425-6.075 2.119-1.378 0.478-2.775 0.975-4.191 1.313-1.462 0.356-2.944 0.544-4.444 0.787-1.181 0.197-2.409 0.206-3.553 0.553-7.744 2.344-15.497 4.688-23.203 7.181-2.175 0.713-4.303 1.706-6.272 2.878-3.384 2.025-6.591 4.341-9.947 6.403-1.228 0.75-2.634 1.359-4.041 1.631-2.053 0.412-2.962-0.197-3.956-2.044-1.294-2.344-2.081-2.681-4.369-1.341-3.562 2.091-6.15 4.95-6.994 9.206-0.628 3.169-1.819 6.169-4.631 8.156-1.275 0.909-2.728 1.594-3.9 2.616-3.759 3.291-7.472 6.656-11.128 10.050-1.697 1.575-3.619 2.484-5.813 3.272-5.503 1.987-10.369 4.903-12.403 10.959-0.553 1.641-0.253 2.859 1.050 3.909 1.847 1.472 3.684 2.972 5.55 4.425 0.394 0.3 0.947 0.394 1.397 0.656 0.525 0.3 1.303 0.581 1.462 1.041 0.647 1.884 2.213 2.55 3.825 3.234 0.272 0.122 0.516 0.3 0.881 0.947-0.75 0.291-1.491 0.759-2.25 0.825-3.403 0.272-6.825 0.478-10.247 0.591-1.631 0.066-2.606 0.806-2.878 2.344-0.3 1.697-0.656 3.431-0.619 5.147 0.056 2.109 1.509 3.384 3.384 4.162 2.625 1.078 2.803 1.753 0.713 3.694-1.491 1.397-2.194 3.131-2.766 5.044-1.359 4.659-2.672 9.356-5.072 13.631-0.253 0.45-0.328 0.984-0.488 1.491-1.95 6.478-4.013 12.909-5.831 19.425-1.772 6.356-3.694 12.722-3.806 19.425 0 0.366-0.131 0.844 0.038 1.088 1.369 1.931 0.094 2.925-1.303 3.881-0.103 0-0.206 0-0.319 0-1.978-1.425-2.662-3.356-2.55-5.747 0.131-3.094 0.525-6.272 0.037-9.291-0.919-5.794-2.287-11.513-3.647-17.222-0.909-3.825-2.222-7.556-3.131-11.381-0.581-2.447-0.741-4.988-1.097-7.472-0.066-0.422-0.103-0.853-0.263-1.228-2.606-6.253-3.319-13.078-6.122-19.313-1.687-3.741-2.316-7.95-3.441-11.925-0.347-1.209-0.656-2.447-1.228-3.553-0.741-1.444-0.403-2.316 0.947-3.094 2.053-1.181 3.291-2.906 3.131-5.409-0.066-1.078-0.525-1.706-1.669-1.95-2.419-0.497-3.066-1.303-3.037-3.816 0.037-2.766-1.444-4.922-2.831-7.041-1.106-1.697-4.463-1.087-5.316 0.75-0.225 0.459-0.478 0.909-0.75 1.434-3.544-1.706-6.806-3.581-9.628-6.141-2.409-2.194-4.838-4.397-7.284-6.544-0.947-0.825-2.091-1.425-2.991-2.287-1.041-1.003-2.156-2.044-2.803-3.291-1.294-2.512-2.972-4.528-5.372-6.028-1.331-0.825-2.475-1.95-3.675-2.972-0.984-0.853-1.997-1.341-3.413-1.275-0.881 0.038-1.922-0.459-2.662-1.022-1.237-0.947-1.303-1.997-0.234-3.122 2.053-2.147 1.209-4.622 1.003-7.022-0.009-0.141-0.131-0.291-0.253-0.394-1.369-1.406-2.841-0.497-4.275-0.169-1.134 0.262-1.688 1.013-1.434 2.222 0.037 0.206 0.131 0.488 0.037 0.619-1.078 1.472-0.394 3.009-0.253 4.556 0.197 2.053-0.816 2.831-2.662 1.847-4.303-2.306-8.719-4.472-12.656-7.303-4.088-2.944-8.513-3.516-13.209-3.525-0.787 0-1.575 0.169-2.353 0.169-2.053-0.009-2.672-1.172-1.725-2.991 0.853-1.622 1.697-3.263 2.447-4.931 0.591-1.313-0.45-3.675-1.847-4.444-1.078-0.609-3.647-0.075-4.275 1.078-0.291 0.525-0.159 1.472 0.131 2.081 0.319 0.684 1.106 1.134 1.528 1.772 0.3 0.478 0.356 1.116 0.516 1.669-0.581 0.066-1.2 0.319-1.725 0.188-1.847-0.431-3.619-1.153-5.475-1.463-4.238-0.684-8.531-1.078-12.769-1.763-6.075-0.984-12.103-2.184-18.178-3.169-1.753-0.272-3.488-0.3-4.509-2.447 0.825-0.263 1.659-0.713 2.503-0.759 1.303-0.066 2.625 0.197 3.928 0.234 0.525 0.009 1.116-0.141 1.594-0.384 0.938-0.478 1.734-1.331 2.709-1.575 5.259-1.397 10.153-3.675 15.047-6.028 2.672-1.294 5.55-2.259 8.4-3.122 6.206-1.856 11.944-4.631 17.194-8.438 1.294-0.938 2.466-1.181 3.928-0.459 1.884 0.938 3.825 1.378 5.934 0.497 0.497-0.206 1.2 0.028 1.931 0.066 1.913-2.541 2.869-5.597 3.638-8.794 0.056 0.619 0.103 1.237 0.197 2.259 0.647-1.153 1.097-1.95 1.594-2.841 0.291 0.253 0.544 0.459 0.816 0.694 0.356-0.347 0.694-0.656 1.022-0.975 2.409 1.753 3.141 4.266 2.344 7.575-0.544 2.241-1.069 4.491-1.425 6.759-0.253 1.622 0.328 2.194 1.978 2.325 2.109 0.169 3.984-0.516 5.512-1.922 1.697-1.566 3.328-3.225 4.838-4.978 1.931-2.222 3.6-4.697 5.625-6.816 7.322-7.659 14.541-15.487 23.662-21.131 5.456-3.384 11.006-6.581 16.547-9.825 1.894-1.116 2.513-2.934 1.791-5.606-0.516-1.884-1.734-2.766-3.881-2.775-0.581 0-1.172 0.169-1.725 0.094-0.975-0.141-2.456-0.159-2.775-0.741-0.403-0.741-0.094-2.109 0.328-3.009 1.209-2.616 2.644-5.128 3.956-7.706 0.919-1.828 1.912-3.647 2.634-5.55 0.581-1.538 0.984-3.188 1.181-4.819 0.272-2.447 1.294-3.356 3.75-2.934 1.913 0.328 3.769 0.356 5.531-0.619 1.819-1.003 2.738-2.55 2.841-4.603 0.075-1.462-0.694-2.409-2.184-2.512-1.144-0.075-2.316 0-3.487 0.009-2.147 0.037-3.009-1.153-2.25-3.122 0.122-0.291 0.234-0.581 0.384-0.872 3.497-7.041 7.050-14.053 10.519-21.103 1.097-2.212 2.044-4.5 2.972-6.778 0.553-1.359 1.181-2.522 2.653-3.141 0.422-0.188 0.675-0.938 0.872-1.472 0.347-0.881 0.591-1.8 0.891-2.709 0.103 0 0.206 0 0.319 0 0.422 0.759 0.956 1.472 1.228 2.278 0.619 1.866 1.041 3.806 1.669 5.681 1.472 4.425 3.056 8.812 4.528 13.238 0.713 2.128 1.275 4.331 1.903 6.488 1.378 4.725 3.094 9.394 4.069 14.213 1.172 5.775 2.278 11.522 4.641 16.978 0.816 1.884 1.575 3.778 2.288 5.7 1.181 3.206 2.672 6.066 5.813 7.95 2.156 1.294 1.978 3.206-0.066 4.706-0.975 0.713-2.025 1.331-2.991 2.053-0.806 0.619-0.984 1.491-0.159 2.147 1.753 1.397 3.488 2.906 5.466 3.919 1.069 0.553 2.672 0.478 3.938 0.188 2.184-0.497 4.266-1.472 6.459-2.044 0.891-0.234 2.016-0.141 2.897 0.159 1.5 0.497 1.753 1.509 0.909 2.841-0.787 1.237-1.641 2.438-2.484 3.656-1.359 1.987-1.406 2.606 0.45 4.134 2.419 2.016 4.069 4.425 5.034 7.444 0.656 2.091 1.472 4.294 2.831 5.944 1.313 1.622 2.119 3.009 1.566 5.081-0.066 0.263 0.45 0.806 0.806 1.041 0.787 0.525 1.753 0.816 2.475 1.406 1.275 1.078 2.372 2.391 3.647 3.478 1.753 1.5 3.75 1.828 5.878 0.759 1.134-0.563 2.213-1.378 3.403-1.631 2.569-0.525 3.159-2.316 3.694-4.5 0.347-1.434 1.116-2.813 1.931-4.078 0.806-1.237 1.903-1.144 2.859-0.066 4.106 4.697 9.075 8.025 15.188 9.619 1.144 0.3 2.409 1.041 3.103 1.978 1.847 2.456 4.275 3.778 7.125 4.631 5.025 1.528 10.050 3.056 15.028 4.753 4.069 1.378 8.063 3 12.084 4.509 0.291 0.103 0.609 0.234 0.816 0.45 1.603 1.528 3.563 1.819 5.587 1.313 1.988-0.488 3.619 0.037 5.128 1.266 0.028 0.263 0.028 0.581 0.028 0.891zM156.628 210.609c0.45-0.675 0.909-1.088 1.022-1.594 0.591-2.484 1.050-5.016 1.622-7.509 0.525-2.353 1.088-2.7 3.403-1.931 1.050 0.347 1.659 0.141 2.081-0.919 1.078-2.672 2.091-5.391 3.431-7.95 0.853-1.622 2.044-3.225 3.459-4.359 2.156-1.725 4.631-3.094 7.012-4.509 1.153-0.694 1.884-1.566 2.175-2.906 0.562-2.541 0.553-4.931-0.787-7.313-1.106-1.978-0.581-3.206 1.5-4.209 2.381-1.144 4.8-1.425 7.256-0.056 0.488 0.272 1.303 0.459 1.762 0.234 3.647-1.762 6.563-4.331 6.666-8.634 0.066-2.738-0.394-5.55-1.106-8.213-1.762-6.553-3.909-13.003-3.647-19.903 0.075-2.213 0.384-4.425 0.253-6.619-0.272-4.884-0.628-9.759-1.238-14.606-0.234-1.866-1.153-3.684-1.95-5.447-0.75-1.669-1.903-3.159-2.616-4.847-1.050-2.484-2.841-4.106-5.222-5.213-1.472-0.684-3.141-1.153-4.369-2.184-2.925-2.475-6.431-3.525-9.956-4.537-5.813-1.688-11.784-3.009-17.728-1.359-5.953 1.669-11.691 4.069-17.494 6.253-0.938 0.356-1.753 1.153-2.484 1.894-2.25 2.278-4.556 4.537-6.619 6.984-1.266 1.5-2.569 3.234-3.056 5.081-1.153 4.341-2.475 8.803-2.578 13.238-0.197 7.425-0.45 14.813-1.434 22.172-0.675 4.959-0.713 10.069-3.291 14.653-0.553 0.984-0.291 2.681 0.094 3.891 0.628 1.988 1.734 3.825 2.503 5.775 0.713 1.819 1.866 3.075 3.656 3.881 0.938 0.422 1.866 1.050 2.55 1.819 2.597 2.859 5.653 2.709 8.972 1.706 2.709-0.816 5.128-0.881 7.5 1.434 4.603 4.5 6.806 10.162 8.597 16.069 0.272 0.909 0.131 1.997-0.009 2.972-0.291 2.016 0.366 2.728 2.409 2.391 2.419-0.394 3.188 0.422 3.75 2.794 0.844 3.553 2.025 7.022 3.094 10.537 0.094 0.291 0.366 0.497 0.787 1.022zM74.681 126.825c-0.675-0.853-1.097-1.5-1.622-2.044-0.169-0.169-0.712-0.206-0.881-0.075-0.206 0.169-0.356 0.675-0.262 0.909 0.431 1.041 1.275 1.406 2.766 1.209zM91.641 164.606c0.141 0.122 0.291 0.253 0.431 0.366 0.366-0.563 0.956-1.088 1.022-1.697 0.037-0.366-0.713-0.816-1.106-1.238-0.122 0.094-0.234 0.169-0.356 0.262 0 0.778 0 1.537 0 2.306zM184.172 174.722c-1.209 0.816-0.806 1.462 0.188 2.259 0.366-0.366 0.722-0.722 1.134-1.134-0.544-0.459-0.881-0.759-1.313-1.134z"></path>
<path d="M139.969 165.319c-3.684-1.087-7.809-0.759-11.222-3.122-0.45-0.319-1.050-0.459-1.603-0.581-4.303-0.938-6.441-5.437-4.434-9.347 0.384-0.75 0.759-1.5 1.041-2.287 1.078-3.141 3.141-4.425 6.487-3.853 0.806 0.131 1.622 0.459 2.344 0.853 3.591 1.978 7.144 4.012 10.744 5.972 1.331 0.722 2.738 1.275 4.144 1.866 1.209 0.516 2.25 1.153 2.456 2.606 0.206 1.378-0.759 2.025-1.659 2.803-0.975 0.844-1.95 1.753-2.672 2.813-1.397 2.025-3.619 1.622-5.606 2.259z"></path>
<path d="M175.772 161.409c-4.65 0.066-7.547-1.2-9.947-3.675-0.909-0.947-1.144-1.95-0.159-2.897 1.012-0.956 2.109-1.866 3.272-2.634 2.541-1.659 5.184-3.188 7.744-4.828 0.356-0.234 0.713-0.816 0.694-1.228-0.009-1.041 0.525-1.406 1.425-1.509 1.134-0.141 2.55-0.787 3.328-0.347 1.622 0.975 3.122 2.353 4.266 3.872 1.594 2.109 2.053 4.706 2.025 7.313-0.009 0.694-0.553 1.753-1.134 2.025-4.022 1.931-8.166 3.619-11.513 3.891z"></path>
<path d="M149.016 179.353c0.262-0.844 0.609-1.669 0.75-2.522 0.272-1.509 0.394-3.066 0.656-4.575 0.141-0.816 0.234-1.819 0.741-2.381 1.238-1.341 2.662-2.541 4.088-3.684 1.509-1.2 2.503-1.041 3.825 0.394 1.491 1.603 2.119 3.525 2.475 5.672 0.262 1.556 0.844 3.122 1.622 4.5 1.275 2.25 1.762 4.528-1.603 6.103-3.272 1.528-6.366 2.306-9.769 0.628-1.734-0.881-2.634-2.119-2.794-4.134z"></path>
</svg>
