<!-- Generated by IcoMoon.io -->
<svg version="1.1" xmlns="http://www.w3.org/2000/svg" width="300" height="300" viewBox="0 0 300 300">
<title>fighters-elite</title>
<path d="M155.822 0c1.388 0.797 1.631 2.128 1.828 3.572 0.431 3.281 0.909 6.572 1.472 9.844 0.178 1.003 0.797 1.941 1.078 2.944 0.412 1.434 0.694 2.916 1.078 4.35 0.281 0.994 0.441 2.138 1.041 2.906 1.106 1.397 1.575 2.906 1.556 4.603-0.009 1.538 0.694 2.719 1.397 4.031 0.909 1.678 1.284 3.637 1.959 5.447 0.431 1.144 0.947 2.278 1.509 3.375 1.331 2.597 3.15 5.034 4.012 7.781 3.009 9.497 7.613 18.112 13.463 26.109 0.197 0.291 0.403 0.581 0.591 0.872 0.047 0.075 0.028 0.188 0.084 0.675-3.9 0.319-7.791 0.769-11.691 0.928-3.928 0.159-7.866 0.037-11.841 0.037 0 2.025 1.106 2.578 2.475 2.859 2.991 0.619 6.075 0.966 8.972 1.903 4.2 1.35 8.503 2.672 12.319 4.809 4.519 2.541 8.7 5.747 12.759 9.009 3.084 2.475 5.737 5.475 8.578 8.241 0.216 0.216 0.441 0.431 0.591 0.675 2.466 4.369 6.244 7.744 9 11.944 3.272 5.006 5.869 10.144 7.266 15.928 0.713 2.991 0.778 2.981 3.741 2.063 3.197-0.984 3.431-1.237 3.516-4.641 0.113-4.884 0.113-9.769 0.281-14.644 0.028-0.872 0.581-1.725 0.891-2.578 0.891 0.469 1.884 0.806 2.672 1.425 2.016 1.547 3.741 3.609 5.944 4.772 7.284 3.825 14.7 7.397 22.134 10.931 2.137 1.022 4.491 1.659 6.787 2.306 2.016 0.563 3.909 1.209 5.372 2.831 0.45 0.506 1.097 0.919 1.725 1.181 2.906 1.2 5.869 2.306 8.784 3.487 4.003 1.622 8.006 3.263 11.981 4.931 1.144 0.478 0.956 1.359 0.103 1.8-2.794 1.434-5.653 2.747-8.522 4.031-1.359 0.6-3.009 0.769-4.162 1.622-3.741 2.747-7.95 4.481-12.169 6.253-2.869 1.209-5.7 2.419-7.978 4.744-1.031 1.059-2.756 1.397-4.069 2.231-3.741 2.353-7.416 4.781-11.128 7.181-0.338 0.216-0.666 0.487-1.031 0.619-5.1 1.697-9.188 5.137-13.669 7.903-0.525 0.328-1.153 0.487-1.734 0.713-0.15-0.6-0.441-1.219-0.441-1.828 0.047-5.269 0.122-10.547 0.244-15.816 0.047-2.231-0.141-2.503-2.381-2.672-1.209-0.084-2.419-0.122-3.628-0.188-1.172-0.066-1.884 0.431-1.8 1.659 0.516 7.022-1.838 13.519-3.9 19.997-1.2 3.778-2.831 7.463-5.784 10.509-3.281 3.384-6.075 7.237-9.075 10.894-0.412 0.506-0.853 1.022-1.134 1.594-2.1 4.35-5.597 7.416-9.309 10.322-1.884 1.481-3.609 3.197-5.409 4.791-0.563 0.506-1.097 1.059-1.734 1.444-4.716 2.841-9.45 5.672-14.194 8.456-0.591 0.338-1.294 0.591-1.959 0.666-0.984 0.103-1.294 0.6-1.294 1.481-0.009 0.909 0.244 1.65 1.284 1.697 4.35 0.159 8.709 0.713 13.050-0.441 2.972-0.797 5.916-0.141 9.3 0.844-0.853 0.741-1.369 1.144-1.847 1.594-0.966 0.909-1.913 1.828-2.878 2.728-0.356 0.328-0.684 0.806-1.097 0.909-1.575 0.375-2.466 1.462-3.244 2.747-1.988 3.272-3.834 6.628-6 9.769-4.219 6.112-8.616 12.103-12.9 18.169-1.247 1.762-2.119 3.825-3.562 5.363-3.262 3.459-4.781 7.856-6.9 11.934-1.359 2.616-2.728 5.231-4.078 7.866-0.516 1.003-0.947 2.062-1.613 3.497-0.525-1.031-1.041-1.753-1.294-2.559-1.134-3.628-2.437-7.106-4.997-10.041-0.637-0.741-0.891-1.903-1.134-2.906-0.262-1.069-0.797-1.622-1.912-1.772-2.034-0.281-2.569-1.322-1.613-3.159 1.153-2.231 2.128-4.472 1.294-7.050-0.112-0.337-0.234-0.666-0.375-0.984-0.066-0.122-0.159-0.244-0.328-0.469-0.591 1.134-1.106 2.128-1.791 3.431-0.628-0.684-1.238-1.134-1.575-1.725-2.306-4.013-4.519-8.063-6.844-12.066-0.675-1.172-1.547-2.231-2.391-3.281-2.616-3.262-5.372-6.403-7.866-9.741-2.175-2.916-4.481-5.634-7.5-7.725-0.394-0.281-0.666-0.731-1.275-1.444 1.069-0.3 1.866-0.703 2.681-0.731 5.991-0.197 11.972-0.319 17.963-0.469 0.6-0.009 1.209-0.066 1.809-0.103 0.947-0.047 1.753-0.328 1.678-1.472-0.075-1.041-0.694-1.509-1.762-1.688-3.263-0.525-6.506-1.116-9.741-1.828-1.059-0.225-2.091-0.759-3.019-1.313-3.553-2.1-7.181-4.087-10.547-6.459-8.709-6.131-16.753-13.041-23.597-21.234-3.591-4.294-6.281-9.197-7.462-14.662-1.041-4.828-1.509-9.816-2.016-14.747-0.403-3.9-0.487-7.828-0.656-11.737-0.047-1.181-0.478-1.622-1.688-1.444-0.797 0.122-1.612 0.028-2.419 0.038-1.772 0.009-2.269 0.45-2.25 2.213 0 2.419 0.037 4.828 0.084 7.237 0.066 2.944 0.112 5.878 0.225 8.822 0.047 1.181-0.656 1.725-1.837 1.153-1.078-0.516-2.119-1.153-3.159-1.762-3.319-1.959-6.647-3.928-9.966-5.906-0.084-0.047-0.159-0.122-0.253-0.15-4.406-1.172-7.763-4.35-11.813-6.178-1.059-0.478-2.278-0.694-3.45-0.834-5.925-0.703-11.222-2.916-15.984-6.506-0.778-0.591-1.688-1.041-2.597-1.406-2.709-1.078-5.4-2.203-8.184-3.084-2.278-0.713-4.678-1.003-6.975-1.678-2.391-0.694-4.716-1.575-7.069-2.419-0.281-0.103-0.441-0.488-0.909-1.041 2.137-0.6 4.031-1.425 5.963-1.622 2.653-0.281 5.138-0.891 7.491-2.119 3.6-1.866 7.162-3.675 11.034-5.072 5.963-2.137 11.55-5.287 17.325-7.95 7.059-3.263 14.156-6.459 21.234-9.731 2.681-1.247 5.325-2.578 7.969-3.928 1.434-0.731 2.1-0.366 2.034 1.247-0.075 1.763-0.178 3.525-0.403 5.269-0.478 3.741-0.225 7.425 0.525 11.1 0.216 1.031 0.553 1.847 1.753 1.912 1.284 0.066 2.597 0.037 3.206-1.387 0.319-0.731 0.525-1.519 0.703-2.306 1.481-7.050 4.931-13.097 9.122-18.853 1.763-2.419 3.637-4.631 6-6.497 1.237-0.966 2.138-2.391 3.056-3.703 4.809-6.872 11.372-11.728 18.413-16.031 2.784-1.697 5.672-3.244 8.503-4.884 3.487-2.016 7.275-3.15 11.175-3.938 1.5-0.3 2.784-0.909 3.113-3.009-0.994-0.15-1.997-0.506-2.972-0.413-5.709 0.487-11.409 1.097-17.128 1.65-0.675 0.066-1.369 0.009-2.466 0.009 0.516-0.966 0.816-1.678 1.219-2.316 3.075-4.781 6.225-9.497 9.197-14.334 1.237-1.997 2.119-4.219 3.075-6.366 0.712-1.584 1.359-1.791 3.056-1.538 1.322 0.197 2.831 0.178 4.050-0.291 2.869-1.097 3.169-3.741 0.844-5.784-3.703-3.244-3.759-3.816-0.966-7.819 2.175-3.113 4.012-6.384 4.641-10.209 0.047-0.338 0.159-0.769 0.394-0.956 2.456-2.034 2.681-5.212 4.041-7.8 1.397-2.653 2.803-5.306 4.378-7.866 1.116-1.8 1.397-3.684 1.556-5.728 0.225-2.916 0.891-5.728 3.122-7.894 0.525-0.038 1.031-0.038 1.538-0.038zM157.8 90.131c-10.331 0.872-20.766 3.019-29.494 10.209-1.078 0.891-2.278 1.678-3.488 2.391-3.019 1.8-5.072 4.303-6.225 7.65-0.966 2.794-2.306 5.4-3.947 7.912-2.756 4.191-3.872 8.906-3.263 13.959 0.337 2.747 0.984 5.503 0.853 8.222-0.281 5.578-0.928 11.128-1.519 16.678-0.15 1.434-0.591 2.859-1.059 4.228-1.5 4.434-3.113 8.813-4.594 13.237-0.253 0.769-0.403 1.762-0.122 2.466 1.406 3.713 2.953 7.359 4.472 11.034 0.356 0.844 0.872 1.275 1.884 0.872 0.506-0.197 1.247-0.216 1.725 0.028 4.753 2.344 9.938 3.666 14.203 7.162 5.353 4.387 8.756 9.553 9.047 16.622 0.122 3.262 0.591 6.506 0.919 9.769 0.084 0.816 0.375 1.678 1.397 1.144 2.203-1.116 4.228-0.928 6.281 0.356 0.45 0.281 1.059 0.3 1.584 0.478 1.237 0.441 1.987 0 2.822-0.994 1.256-1.509 2.503-3.319 5.025-2.606 0.319 0.084 0.731-0.244 1.116-0.356 0.3-0.084 0.759-0.281 0.909-0.15 1.078 0.928 2.175 1.847 3.094 2.916 0.506 0.581 0.638 1.463 1.022 2.175 0.478 0.891 1.209 1.078 1.988 0.403 2.072-1.847 3.628-4.031 4.031-6.872 0.291-2.025 0.638-4.050 0.919-6.094 0.797-5.803 2.897-10.978 7.209-15.047 1.031-0.966 2.231-1.997 3.534-2.419 4.697-1.472 9.441-2.784 14.222-3.975 2.869-0.713 5.006-2.269 6.028-4.969 1.406-3.741 1.922-7.584 0.441-11.494-1.2-3.15-2.1-6.422-3.469-9.478-3.338-7.416-3.384-15.112-2.4-22.95 0.478-3.816 0.713-7.603-0.075-11.4-1.594-7.659-4.35-14.934-7.5-22.059-0.581-1.313-1.462-2.569-2.456-3.591-3.469-3.572-6.984-7.106-10.622-10.509-3.909-3.628-8.709-4.931-14.475-4.95zM194.081 204.984c-2.391-1.172-4.434-0.928-5.944 0.488-0.834 0.778-1.725 1.509-2.597 2.269-1.734 1.509-3.338 3.056-2.831 5.728 0.084 0.487-0.394 1.069-0.544 1.622-0.15 0.562-0.216 1.172-0.3 1.753 0.487-0.122 1.041-0.141 1.472-0.394 4.069-2.306 6.881-5.925 9.853-9.384 0.441-0.544 0.563-1.35 0.881-2.072zM203.109 204.797c-2.203 1.809-2.644 4.313-3.938 6.516 2.653-0.488 4.809-3.909 3.938-6.516zM253.125 168.441c-0.15-0.197-0.319-0.412-0.469-0.619-1.809 0.628-3.347 1.772-4.884 2.906-0.15 0.113-0.122 0.759 0.037 0.919 0.188 0.178 0.703 0.225 0.956 0.103 0.759-0.375 1.481-0.834 2.156-1.35 0.778-0.6 1.472-1.313 2.203-1.959zM152.269 260.156c0.159 1.078 0.159 1.791 0.403 2.391 0.159 0.431 0.6 0.834 1.022 1.059 0.159 0.084 0.834-0.328 0.872-0.581 0.075-0.478 0.009-1.134-0.281-1.472-0.403-0.488-1.078-0.778-2.016-1.397zM194.353 216.122c-0.15-0.159-0.291-0.319-0.441-0.478-1.181 1.078-2.363 2.166-3.553 3.244 0.178 0.178 0.338 0.366 0.516 0.544 1.153-1.097 2.316-2.203 3.469-3.309zM166.706 225.731c0.075 0.141 0.15 0.281 0.244 0.413 0.544-0.253 1.388-0.375 1.538-0.778 0.225-0.591-0.047-1.359-0.113-2.063-0.112-0.009-0.244-0.009-0.356-0.028-0.441 0.834-0.881 1.631-1.313 2.456zM156.6 281.916c-0.187-0.122-0.375-0.244-0.562-0.366-0.891 0.047-1.481 0.478-1.359 1.472 0.028 0.262 0.581 0.469 0.891 0.703 0.338-0.619 0.694-1.219 1.031-1.809zM183.731 241.838c0.159 0.047 0.319 0.084 0.478 0.141 0.356-0.947 0.731-1.884 1.031-2.841 0.066-0.188-0.178-0.478-0.281-0.713-0.225 0.15-0.619 0.262-0.666 0.469-0.244 0.984-0.375 1.978-0.562 2.953z"></path>
<path d="M107.334 77.081c-0.891 0.563-1.763 1.2-2.709 1.688-1.716 0.891-3.572 1.509-4.641 3.375-0.394 0.675-1.313 1.069-2.016 1.538-7.716 5.137-15.3 10.378-20.259 18.534-1.612 2.644-3.15 2.681-5.306 0.413-1.406-1.472-1.941-3.309-1.95-5.25-0.028-8.972-1.547-17.756-3.272-26.512-0.412-2.119-0.694-4.266-0.984-6.403-0.244-1.753 0.984-2.709 2.616-2.053 1.069 0.431 2.053 1.097 3.15 1.444 1.753 0.553 3.563 0.947 5.353 1.388 0.628 0.15 1.35 0.084 1.913 0.356 4.378 2.091 9.497 2.034 13.566 5.297 2.128 1.697 5.25 2.156 7.912 3.159 2.194 0.834 4.378 1.65 6.553 2.466 0.028 0.187 0.047 0.375 0.075 0.563z"></path>
<path d="M200.747 77.428c0.853-1.884 2.344-2.756 4.153-3.084 6.225-1.116 12.459-2.212 18.703-3.244 4.35-0.722 8.737-1.313 13.097-1.941 1.912-0.281 3.834-0.487 5.766-0.769 0.891-0.141 1.762-0.394 2.644-0.553 0.994-0.178 1.369 0.291 1.003 1.2-0.703 1.753-1.256 3.469-0.656 5.4 0.103 0.319-0.562 0.947-0.956 1.331-0.741 0.731-1.697 1.294-2.287 2.128-2.203 3.084-3.956 6.394-5.109 10.031-0.881 2.766-2.194 5.409-3.009 8.194-0.731 2.475-1.041 5.081-1.537 7.641-0.066 0.337-0.047 0.703-0.103 1.059-0.291 2.025-0.806 2.25-2.503 1.097-0.084-0.047-0.159-0.122-0.253-0.178-4.069-2.288-7.050-5.541-9.037-9.788-1.753-3.722-4.303-6.75-7.8-9.141-4.191-2.831-8.044-6.178-12.122-9.375z"></path>
<path d="M91.097 227.981c-2.944 0.122-5.766 0.741-8.409 2.128-0.666 0.356-1.35 0.741-2.063 0.909-4.969 1.097-9.966 2.062-14.925 3.225-2.578 0.6-5.1 1.463-7.612 2.278-1.041 0.338-2.016 0.928-3.075 1.247-0.694 0.197-1.725 0.403-2.166 0.047-0.984-0.769-1.8-1.913-1.116-3.3 1.003-2.062 1.987-4.191 3.272-6.094 2.016-2.972 3.647-6.037 4.959-9.413 2.991-7.716 6.347-15.291 9.544-22.912 0.441-1.041 1.2-1.181 1.828-0.394 0.806 0.994 1.678 2.1 1.978 3.3 0.928 3.75 2.569 7.031 5.194 9.881 1.219 1.322 2.194 2.878 3.234 4.35 1.275 1.791 2.766 3.262 4.753 4.294 0.853 0.441 1.584 1.397 2.063 2.278 1.219 2.25 2.719 4.2 4.791 5.728 0.469 0.338 0.675 1.003 1.003 1.519-0.591 0.319-1.144 0.713-1.772 0.919-0.441 0.141-0.984 0.009-1.481 0.009z"></path>
<path d="M249.45 229.678c-2.278 0.262-3.938 0.694-5.447-0.638-0.881-0.778-1.434 0.159-1.866 0.806-0.525 0.797-1.022 0.778-1.875 0.403-4.922-2.166-9.928-3.928-15.366-1.791-2.344 0.928-4.678 1.003-7.209 0.563-1.922-0.338-3.994 0.197-5.991 0.197-0.694 0-1.762-0.281-1.997-0.769-0.3-0.619-0.216-1.734 0.178-2.316 0.731-1.106 1.791-2.016 2.747-2.953 1.959-1.941 4.181-3.666 5.878-5.803 6.131-7.716 12.084-15.553 18.122-23.334 0.45-0.591 1.097-1.041 1.725-1.631 2.916 12.797 6.028 25.219 11.109 37.266z"></path>
<path d="M132.891 190.856c-2.053 0.487-3.787-0.122-5.578-1.35-1.5-1.022-3.375-1.509-5.081-2.203-0.553-0.225-1.153-0.356-1.725-0.525-5.672-1.762-6.516-2.606-8.344-8.278-0.487-1.509-0.3-2.897 0.919-4.003 3.319-3.028 7.031-5.325 11.625-5.803 0.45-0.047 0.994 0.141 1.397 0.375 4.294 2.456 9.159 3.862 12.966 7.209 0.591 0.525 1.537 0.703 2.353 0.909 4.041 1.031 5.597 5.269 3.113 8.616-2.316 3.122-5.353 4.959-9.328 5.044-0.759 0.009-1.509 0-2.316 0zM121.003 183.956c-0.066-2.381-1.256-4.2-2.709-4.491-0.516-0.103-1.116 0.187-1.678 0.3 0.141 0.506 0.122 1.209 0.469 1.472 1.134 0.919 2.391 1.688 3.909 2.719z"></path>
<path d="M191.166 176.841c-0.009 3.516-2.981 8.016-5.831 9.216-3.338 1.406-6.619 2.934-10.003 4.153-3.225 1.153-6.281 0.375-9.047-1.575-0.197-0.141-0.366-0.403-0.581-0.469-2.822-0.759-3.338-3.272-4.125-5.512-0.197-0.591 0.009-1.547 0.394-2.091 1.153-1.65 2.709-2.784 4.791-3.113 0.919-0.15 1.828-0.516 2.691-0.891 4.856-2.138 9.713-4.313 14.55-6.497 1.275-0.581 2.353-0.244 3.338 0.591 2.072 1.753 3.553 3.825 3.825 6.178z"></path>
<path d="M160.472 200.625c0.684 3.056-1.762 4.566-3.244 6.478-0.197 0.262-1.031 0.216-1.509 0.084-1.463-0.375-2.859-0.956-4.331-1.275-1.097-0.244-2.269-0.3-3.394-0.225-2.119 0.141-2.953-0.581-2.728-2.672 0.366-3.338 0.656-6.694 1.247-10.003 0.431-2.381 1.913-4.275 4.238-5.081 2.353-0.816 4.744-0.3 6.347 1.584 1.144 1.359 1.978 3.131 2.466 4.856 0.591 2.016 0.638 4.162 0.919 6.244z"></path>
<path d="M184.491 212.559c0.759-0.919 1.35-1.631 1.959-2.381 0.619 1.369 0.103 2.072-1.959 2.381z"></path>
</svg>
