<svg xmlns="http://www.w3.org/2000/svg" xml:space="preserve" fill-rule="evenodd" stroke-linejoin="round" stroke-miterlimit="2" clip-rule="evenodd" viewBox="0 0 300 300"><path fill-rule="nonzero" d="M297.169 138.628c-.806.825-1.762.975-2.934 1.106-2.194.234-4.369.919-6.516 1.556-2.053.619-4.041 1.425-6.075 2.119-1.378.478-2.775.975-4.191 1.313-1.462.356-2.944.544-4.444.787-1.181.197-2.409.206-3.553.553-7.744 2.344-15.497 4.688-23.203 7.181a31.7 31.7 0 0 0-6.272 2.878c-3.384 2.025-6.591 4.341-9.947 6.403-1.228.75-2.634 1.359-4.041 1.631-2.053.412-2.962-.197-3.956-2.044-1.294-2.344-2.081-2.681-4.369-1.341-3.562 2.091-6.15 4.95-6.994 9.206-.628 3.169-1.819 6.169-4.631 8.156-1.275.909-2.728 1.594-3.9 2.616a515 515 0 0 0-11.128 10.05c-1.697 1.575-3.619 2.484-5.813 3.272-5.503 1.987-10.369 4.903-12.403 10.959-.553 1.641-.253 2.859 1.05 3.909 1.847 1.472 3.684 2.972 5.55 4.425.394.3.947.394 1.397.656.525.3 1.303.581 1.462 1.041.647 1.884 2.213 2.55 3.825 3.234.272.122.516.3.881.947-.75.291-1.491.759-2.25.825-3.403.272-6.825.478-10.247.591-1.631.066-2.606.806-2.878 2.344-.3 1.697-.656 3.431-.619 5.147.056 2.109 1.509 3.384 3.384 4.162 2.625 1.078 2.803 1.753.713 3.694-1.491 1.397-2.194 3.131-2.766 5.044-1.359 4.659-2.672 9.356-5.072 13.631-.253.45-.328.984-.488 1.491-1.95 6.478-4.013 12.909-5.831 19.425-1.772 6.356-3.694 12.722-3.806 19.425 0 .366-.131.844.038 1.088 1.369 1.931.094 2.925-1.303 3.881h-.319c-1.978-1.425-2.662-3.356-2.55-5.747.131-3.094.525-6.272.037-9.291-.919-5.794-2.287-11.513-3.647-17.222-.909-3.825-2.222-7.556-3.131-11.381-.581-2.447-.741-4.988-1.097-7.472-.066-.422-.103-.853-.263-1.228-2.606-6.253-3.319-13.078-6.122-19.313-1.687-3.741-2.316-7.95-3.441-11.925-.347-1.209-.656-2.447-1.228-3.553-.741-1.444-.403-2.316.947-3.094 2.053-1.181 3.291-2.906 3.131-5.409-.066-1.078-.525-1.706-1.669-1.95-2.419-.497-3.066-1.303-3.037-3.816.037-2.766-1.444-4.922-2.831-7.041-1.106-1.697-4.463-1.087-5.316.75-.225.459-.478.909-.75 1.434-3.544-1.706-6.806-3.581-9.628-6.141a536 536 0 0 0-7.284-6.544c-.947-.825-2.091-1.425-2.991-2.287-1.041-1.003-2.156-2.044-2.803-3.291-1.294-2.512-2.972-4.528-5.372-6.028-1.331-.825-2.475-1.95-3.675-2.972-.984-.853-1.997-1.341-3.413-1.275-.881.038-1.922-.459-2.662-1.022-1.237-.947-1.303-1.997-.234-3.122 2.053-2.147 1.209-4.622 1.003-7.022-.009-.141-.131-.291-.253-.394-1.369-1.406-2.841-.497-4.275-.169-1.134.262-1.688 1.013-1.434 2.222.037.206.131.488.037.619-1.078 1.472-.394 3.009-.253 4.556.197 2.053-.816 2.831-2.662 1.847-4.303-2.306-8.719-4.472-12.656-7.303-4.088-2.944-8.513-3.516-13.209-3.525-.787 0-1.575.169-2.353.169-2.053-.009-2.672-1.172-1.725-2.991.853-1.622 1.697-3.263 2.447-4.931.591-1.313-.45-3.675-1.847-4.444-1.078-.609-3.647-.075-4.275 1.078-.291.525-.159 1.472.131 2.081.319.684 1.106 1.134 1.528 1.772.3.478.356 1.116.516 1.669-.581.066-1.2.319-1.725.188-1.847-.431-3.619-1.153-5.475-1.463-4.238-.684-8.531-1.078-12.769-1.763-6.075-.984-12.103-2.184-18.178-3.169-1.753-.272-3.488-.3-4.509-2.447.825-.263 1.659-.713 2.503-.759 1.303-.066 2.625.197 3.928.234a3.55 3.55 0 0 0 1.594-.384c.938-.478 1.734-1.331 2.709-1.575 5.259-1.397 10.153-3.675 15.047-6.028 2.672-1.294 5.55-2.259 8.4-3.122 6.206-1.856 11.944-4.631 17.194-8.438 1.294-.938 2.466-1.181 3.928-.459 1.884.938 3.825 1.378 5.934.497.497-.206 1.2.028 1.931.066 1.913-2.541 2.869-5.597 3.638-8.794.056.619.103 1.237.197 2.259.647-1.153 1.097-1.95 1.594-2.841.291.253.544.459.816.694.356-.347.694-.656 1.022-.975 2.409 1.753 3.141 4.266 2.344 7.575-.544 2.241-1.069 4.491-1.425 6.759-.253 1.622.328 2.194 1.978 2.325 2.109.169 3.984-.516 5.512-1.922a61 61 0 0 0 4.838-4.978c1.931-2.222 3.6-4.697 5.625-6.816 7.322-7.659 14.541-15.487 23.662-21.131 5.456-3.384 11.006-6.581 16.547-9.825 1.894-1.116 2.513-2.934 1.791-5.606-.516-1.884-1.734-2.766-3.881-2.775-.581 0-1.172.169-1.725.094-.975-.141-2.456-.159-2.775-.741-.403-.741-.094-2.109.328-3.009 1.209-2.616 2.644-5.128 3.956-7.706.919-1.828 1.912-3.647 2.634-5.55a20.8 20.8 0 0 0 1.181-4.819c.272-2.447 1.294-3.356 3.75-2.934 1.913.328 3.769.356 5.531-.619 1.819-1.003 2.738-2.55 2.841-4.603.075-1.462-.694-2.409-2.184-2.512-1.144-.075-2.316 0-3.487.009-2.147.037-3.009-1.153-2.25-3.122.122-.291.234-.581.384-.872 3.497-7.041 7.05-14.053 10.519-21.103 1.097-2.212 2.044-4.5 2.972-6.778.553-1.359 1.181-2.522 2.653-3.141.422-.188.675-.938.872-1.472.347-.881.591-1.8.891-2.709h.319c.422.759.956 1.472 1.228 2.278.619 1.866 1.041 3.806 1.669 5.681 1.472 4.425 3.056 8.812 4.528 13.238.713 2.128 1.275 4.331 1.903 6.488 1.378 4.725 3.094 9.394 4.069 14.213 1.172 5.775 2.278 11.522 4.641 16.978a115 115 0 0 1 2.288 5.7c1.181 3.206 2.672 6.066 5.813 7.95 2.156 1.294 1.978 3.206-.066 4.706-.975.713-2.025 1.331-2.991 2.053-.806.619-.984 1.491-.159 2.147 1.753 1.397 3.488 2.906 5.466 3.919 1.069.553 2.672.478 3.938.188 2.184-.497 4.266-1.472 6.459-2.044.891-.234 2.016-.141 2.897.159 1.5.497 1.753 1.509.909 2.841-.787 1.237-1.641 2.438-2.484 3.656-1.359 1.987-1.406 2.606.45 4.134 2.419 2.016 4.069 4.425 5.034 7.444.656 2.091 1.472 4.294 2.831 5.944 1.313 1.622 2.119 3.009 1.566 5.081-.066.263.45.806.806 1.041.787.525 1.753.816 2.475 1.406 1.275 1.078 2.372 2.391 3.647 3.478 1.753 1.5 3.75 1.828 5.878.759 1.134-.563 2.213-1.378 3.403-1.631 2.569-.525 3.159-2.316 3.694-4.5.347-1.434 1.116-2.813 1.931-4.078.806-1.237 1.903-1.144 2.859-.066 4.106 4.697 9.075 8.025 15.188 9.619 1.144.3 2.409 1.041 3.103 1.978 1.847 2.456 4.275 3.778 7.125 4.631 5.025 1.528 10.05 3.056 15.028 4.753 4.069 1.378 8.063 3 12.084 4.509.291.103.609.234.816.45 1.603 1.528 3.563 1.819 5.587 1.313 1.988-.488 3.619.037 5.128 1.266.028.263.028.581.028.891zm-140.541 71.981c.45-.675.909-1.088 1.022-1.594.591-2.484 1.05-5.016 1.622-7.509.525-2.353 1.088-2.7 3.403-1.931 1.05.347 1.659.141 2.081-.919 1.078-2.672 2.091-5.391 3.431-7.95.853-1.622 2.044-3.225 3.459-4.359 2.156-1.725 4.631-3.094 7.012-4.509 1.153-.694 1.884-1.566 2.175-2.906.562-2.541.553-4.931-.787-7.313-1.106-1.978-.581-3.206 1.5-4.209 2.381-1.144 4.8-1.425 7.256-.056.488.272 1.303.459 1.762.234 3.647-1.762 6.563-4.331 6.666-8.634.066-2.738-.394-5.55-1.106-8.213-1.762-6.553-3.909-13.003-3.647-19.903.075-2.213.384-4.425.253-6.619-.272-4.884-.628-9.759-1.238-14.606-.234-1.866-1.153-3.684-1.95-5.447-.75-1.669-1.903-3.159-2.616-4.847-1.05-2.484-2.841-4.106-5.222-5.213-1.472-.684-3.141-1.153-4.369-2.184-2.925-2.475-6.431-3.525-9.956-4.537-5.813-1.688-11.784-3.009-17.728-1.359-5.953 1.669-11.691 4.069-17.494 6.253-.938.356-1.753 1.153-2.484 1.894-2.25 2.278-4.556 4.537-6.619 6.984-1.266 1.5-2.569 3.234-3.056 5.081-1.153 4.341-2.475 8.803-2.578 13.238-.197 7.425-.45 14.813-1.434 22.172-.675 4.959-.713 10.069-3.291 14.653-.553.984-.291 2.681.094 3.891.628 1.988 1.734 3.825 2.503 5.775.713 1.819 1.866 3.075 3.656 3.881.938.422 1.866 1.05 2.55 1.819 2.597 2.859 5.653 2.709 8.972 1.706 2.709-.816 5.128-.881 7.5 1.434 4.603 4.5 6.806 10.162 8.597 16.069.272.909.131 1.997-.009 2.972-.291 2.016.366 2.728 2.409 2.391 2.419-.394 3.188.422 3.75 2.794.844 3.553 2.025 7.022 3.094 10.537.094.291.366.497.787 1.022z"/><path fill-rule="nonzero" d="M139.969 165.319c-3.684-1.087-7.809-.759-11.222-3.122-.45-.319-1.05-.459-1.603-.581-4.303-.938-6.441-5.437-4.434-9.347.384-.75.759-1.5 1.041-2.287 1.078-3.141 3.141-4.425 6.487-3.853.806.131 1.622.459 2.344.853 3.591 1.978 7.144 4.012 10.744 5.972 1.331.722 2.738 1.275 4.144 1.866 1.209.516 2.25 1.153 2.456 2.606.206 1.378-.759 2.025-1.659 2.803-.975.844-1.95 1.753-2.672 2.813-1.397 2.025-3.619 1.622-5.606 2.259zM175.772 161.409c-4.65.066-7.547-1.2-9.947-3.675-.909-.947-1.144-1.95-.159-2.897 1.012-.956 2.109-1.866 3.272-2.634 2.541-1.659 5.184-3.188 7.744-4.828.356-.234.713-.816.694-1.228-.009-1.041.525-1.406 1.425-1.509 1.134-.141 2.55-.787 3.328-.347 1.622.975 3.122 2.353 4.266 3.872 1.594 2.109 2.053 4.706 2.025 7.313-.009.694-.553 1.753-1.134 2.025-4.022 1.931-8.166 3.619-11.513 3.891zM149.016 179.353c.262-.844.609-1.669.75-2.522.272-1.509.394-3.066.656-4.575.141-.816.234-1.819.741-2.381 1.238-1.341 2.662-2.541 4.088-3.684 1.509-1.2 2.503-1.041 3.825.394 1.491 1.603 2.119 3.525 2.475 5.672.262 1.556.844 3.122 1.622 4.5 1.275 2.25 1.762 4.528-1.603 6.103-3.272 1.528-6.366 2.306-9.769.628-1.734-.881-2.634-2.119-2.794-4.134z"/></svg>