<svg xmlns="http://www.w3.org/2000/svg" xml:space="preserve" fill-rule="evenodd" stroke-linejoin="round" stroke-miterlimit="2" clip-rule="evenodd" viewBox="0 0 300 300"><path fill-rule="nonzero" d="M14.025 139.838c1.734-.863 3.253-.347 4.884.497 1.453.75 3.122 1.444 4.716 1.519 4.125.197 8.269.113 12.394-.037 2.091-.075 3.928-1.059 5.269-2.672 4.537-5.4 10.444-5.944 16.819-4.8 2.025.366 3.984 1.144 6.019 1.453 1.219.197 2.672.197 3.731-.309 3.15-1.481 6.178-3.234 9.234-4.922 1.003-.553 1.987-.553 2.494.469s.844 2.231.891 3.366c.141 3.197.122 6.431.131 9.638 0 1.097.178 2.297-.206 3.263-.881 2.231-.553 4.416-.375 6.666.206 2.531.675 5.081-.263 7.575-.778 2.091-2.006 2.513-3.337.778-2.119-2.794-4.987-4.088-8.128-5.138a25 25 0 0 1-3.844-1.641c-1.978-1.05-3.769-.9-5.728.169-2.006 1.097-4.181 1.922-6.309 2.766-2.756 1.088-5.484.225-8.241-.206-3.084-.478-6.178-.834-9.253-1.313-.984-.159-2.072-.309-2.878-.834-3.103-1.987-6.394-3.816-9.103-6.272-3.253-2.934-5.981-6.45-8.944-9.713v-.309zM138.965 69.243c.797-.178 8.129-.843 8.523-.871 2.794-.159 5.588-.206 8.109 1.341.366.216.75.469 1.153.544 3.009.516 6.028.975 9.037 1.519.778.141 1.575.459 2.288.834 2.325 1.228 4.547 2.644 6.928 3.759s4.416 2.503 5.737 4.828c.422.75.984 1.434 1.566 2.072 3.947 4.359 6.628 9.403 8.156 15.066.684 2.513 1.416 4.959 4.013 6.394.675.375 1.097 1.613 1.2 2.503.384 3.234.628 6.497.844 9.759.516 8.063.891 16.144 1.519 24.197.169 2.213 1.087 4.369 1.566 6.572.206.928.338 1.912.244 2.85-.759 7.303.638 14.259 3.188 21.047.047.131.159.262.159.394.197 2.869 1.622 4.209 4.575 4.481 2.297.206 2.625 1.584 1.219 3.441-2.466 3.253-4.866 6.544-7.294 9.834-.169.225-.3.525-.525.675-1.959 1.322-3.853 2.794-5.944 3.853-.759.384-2.128.056-3-.384-2.419-1.228-4.5-1.444-6.769.506-1.35 1.172-3.178 1.772-4.8 2.588-1.397.713-2.241 1.809-2.888 3.234-2.644 5.85-4.622 11.878-5.691 18.244-.459 2.719-1.444 5.381-2.494 7.941-1.5 3.675-2.55 7.425-3.338 11.306-.347 1.706-1.416 3.319-2.381 4.847-.666 1.05-2.109 1.144-3.019.112-1.191-1.331-2.213-2.869-3.084-4.444-.966-1.753-1.669-3.656-2.503-5.503-.441-1.003-1.256-1.406-2.325-1.388-5.438.122-10.866.253-16.313.375-1.369.038-2.231.722-2.625 2.044-.769 2.625-1.584 5.25-2.363 7.875-.431 1.444-1.069 1.875-2.55 1.669-1.65-.216-2.869-1.05-3.647-2.513-2.409-4.575-4.378-9.328-5.138-14.466-.328-2.213-.441-4.547-.112-6.75.384-2.588.141-5.044-.797-7.35-1.753-4.313-3.469-8.681-5.756-12.713-2.156-3.787-6.056-5.484-10.247-6.319-4.463-.881-8.916-.206-13.387.094-1.05.075-2.119.047-3.169-.056-1.959-.197-3.178-1.313-3.9-3.169-1.575-4.087-2.006-8.4-2.447-12.713-.037-.338.056-.722-.084-1.003-1.134-2.203-.037-3.759 1.284-5.456 2.334-3 3.787-6.488 4.509-10.191.947-4.903 1.978-9.806 2.475-14.766.666-6.441 1.031-12.9.384-19.425-.591-5.925.291-11.794 2.541-17.4.647-1.622.938-3.403 1.397-5.1.113-.422.159-.862.347-1.237a126.5 126.5 0 0 1 10.444-16.022c3.703-4.838 8.831-7.134 13.622-10.125 4.669-2.897 9.825-4.819 15.272-5.897 2.119-.422 4.191-1.088 6.291-1.537m2.523 127.538c.169 1.725.337 3.441.478 5.166.094 1.069.675 1.481 1.706 1.519 1.622.047 3.263.113 4.875.262 1.941.178 2.794-.328 2.719-2.297-.197-5.231-.516-10.472-.9-15.694-.113-1.556-2.128-2.381-3.141-1.322-3.234 3.478-6.862 6.825-5.737 12.375zm30.459-17.953c.469-.028.563-.038.666-.038 5.175-.441 12.984-7.2 14.119-12.197.244-1.069-.253-1.491-1.238-1.284-1.5.309-3 .684-4.481 1.069-1.35.347-2.381 1.069-3.169 2.316-.347.563-1.172.9-1.856 1.172-3.928 1.538-7.866 3.019-11.784 4.538a1.4 1.4 0 0 0-.375.225c-.834.675-.844 1.556.159 1.894 2.747.891 5.522 1.622 7.959 2.316zm-47.466-.816c-.244-1.781-1.5-2.644-2.681-3.516-4.838-3.516-10.388-5.55-15.984-7.462-.469-.159-1.069.084-1.613.141.056.506.056 1.022.206 1.5.966 3.103 3.291 5.1 5.719 7.031 1.697 1.35 3.516 2.278 5.737 2.4 1.284.075 2.588.262 3.844.581 1.669.412 3.197.178 4.763-.675zM211.181 147.525c-.122-1.144-.159-2.297-.384-3.431-.9-4.528.394-8.897.919-13.313.169-1.406 2.091-2.747 3.591-2.559.984.122 2.034.338 2.878.834 7.491 4.322 15.019 3.488 22.181-.366 5.972-3.216 11.991-2.925 18.234-1.866 1.228.206 2.419.609 3.637.928 2.072.544 3.938 1.444 5.569 2.888 1.519 1.341 3.197 2.466 4.828 3.656 2.231 1.641 3.806 3.684 4.866 6.281 1.228 3.047 3.891 4.631 6.919 5.634.675.216 1.416.412 1.95.844.337.281.591 1.153.412 1.444-.253.384-1.069.731-1.481.6-2.325-.759-4.631-1.575-6.881-2.531-4.791-2.044-9.675-3.787-14.85-4.444-4.425-.563-8.091.966-10.913 4.547-1.059 1.341-2.541 2.334-3.787 3.534-2.475 2.381-5.119 4.509-8.578 5.316-.328.075-.638.281-.966.3-4.341.281-8.691.666-13.041.722-1.444.009-2.925-.806-4.341-1.322-1.172-.431-2.259-1.116-3.45-1.434-.928-.244-2.025-.309-2.916-.028-1.003.328-1.641.122-2.334-.506-1.519-1.369-2.175-3.141-2.006-5.756zM253.95 45.319c-.056.159-.141.525-.309.862-.938 1.894-1.791 3.844-2.887 5.644-1.059 1.753-2.25 3.45-3.591 4.997a83 83 0 0 1-5.859 6.15 11.3 11.3 0 0 1-5.841 2.962c-.197.038-.356.131-.553.178-3.216.806-5.513 2.278-5.841 6.066-.216 2.55-1.069 5.072-1.819 7.556-1.097 3.675-3.469 5.906-7.453 6.15-.675.037-1.331.169-2.006.225-2.494.253-4.819.9-6.581 2.869a6.8 6.8 0 0 1-1.444 1.191c-2.025 1.266-3.3 2.934-3.694 5.381-.122.759-1.059 1.791-1.753 1.922s-1.725-.581-2.344-1.181c-1.575-1.528-3.056-3.169-4.481-4.838a8.9 8.9 0 0 1-1.575-2.7c-1.584-4.425-3.872-8.353-7.5-11.456-1.856-1.603-3.6-3.337-5.391-5.016-.544-.506-.984-1.116 0-1.575 3.591-1.65 7.181-3.253 11.288-3.009 2.719.159 5.466.197 8.194.178 1.191 0 2.381-.281 3.591-.384 2.166-.206 3.553-1.425 4.238-3.403.806-2.363 1.603-4.734 2.175-7.163.675-2.841 2.362-4.5 5.128-5.25 3.984-1.087 7.941-1.388 11.934.009 1.313.459 2.672.778 4.022 1.153 4.95 1.369 9.169-.262 13.012-3.225 1.687-1.284 2.681-3.131 3.131-5.222.225-1.097.459-2.147 1.941-1.95 1.153.159 2.278 1.444 2.278 2.869zM133.491.881c1.388-1.069 2.456-1.116 3.553-.394 1.116.75 2.381 1.35 3.319 2.278a228 228 0 0 1 8.438 8.85c2.409 2.672 3.994 5.756 4.041 9.469 0 .431.056.881.206 1.275 1.097 2.878.197 5.231-1.744 7.416-2.063 2.325-3.141 4.997-1.453 7.912.881 1.519 2.278 2.803 3.638 3.956.966.816 2.259 1.237 3.422 1.828 4.669 2.372 7.041 6.225 7.35 11.4.084 1.397.141 2.794.197 4.181.113 3.272-1.997 4.913-5.034 3.722-4.584-1.809-9.366-2.503-14.231-2.747-1.772-.084-3.563.216-5.334.122-1.941-.112-3.853-.469-5.794-.712-.422-.047-.853-.141-1.266-.084-3.141.412-6.291.806-9.422 1.275-1.256.197-1.734-.112-1.987-1.481-.347-1.913.028-3.356 1.444-4.65 1.003-.9 1.819-1.987 2.813-2.897 1.866-1.706 2.756-3.769 2.634-6.281-.037-.919-.084-1.828-.075-2.747.009-1.087-.384-1.791-1.434-2.241-.459-.197-.938-.75-1.059-1.219-1.087-4.294-.469-8.306 2.334-11.841.497-.628 1.172-1.134 1.819-1.622 1.031-.769 2.072-1.575 3.197-2.203 3.731-2.081 5.728-5.419 6.919-9.356.881-2.916.206-5.541-1.706-7.809-.984-1.172-2.231-2.119-3.272-3.253-.591-.628-1.013-1.397-1.528-2.147zM98.897 72.291c-.516.45-.844.712-1.144.984-1.866 1.65-3.984 3.094-5.55 4.978-2.681 3.253-5.034 6.778-7.519 10.181-.141.197-.281.394-.459.553-3.272 3.197-4.378 7.247-4.575 11.653-.037.844-.159 1.688-.244 2.503-1.369.197-2.222-.3-2.85-1.266-1.106-1.688-2.222-3.356-3.3-5.063-.797-1.266-1.5-2.578-2.25-3.862-1.237-2.147-3.178-3.234-5.55-2.869-7.172 1.144-13.753-4.706-15.441-12.609-.356-1.688.384-3.591.553-5.381.253-2.531.506-5.044.609-7.584.028-.562-.441-1.284-.9-1.725-3.122-3.009-6.225-6.056-10.687-7.097-.628-.141-1.134-.778-1.819-1.275.478-.516.769-1.116 1.191-1.237 2.663-.694 5.334-1.425 8.044-1.866 1.444-.244 2.972.141 4.453.084 2.803-.112 5.438.497 7.987 1.603 1.453.628 2.878 1.35 4.378 1.866 2.166.759 3.366 2.278 3.956 4.406.609 2.212 1.172 4.462 1.922 6.628.675 1.941 1.003 1.959 3.009 1.744 4.734-.525 9.45-1.097 14.194-1.444 1.087-.084 2.287.506 3.309 1.05 1.013.525 1.809 1.453 2.794 2.044 1.453.862 3.009 1.584 4.528 2.372.328.178.675.328 1.322.628z"/><path fill-rule="nonzero" d="M238.444 227.287c-.966.347-2.813 1.05-4.697 1.734-2.925 1.059-5.794 2.381-8.803 3.056-1.481.328-3.356-.309-4.847-.975-3.675-1.603-6.15-4.331-6.919-8.428-.694-3.722-3.647-6.047-7.5-5.878-2.213.094-4.416.3-6.619.516-3.506.347-6.366-1.238-8.381-3.722-1.706-2.109-2.634-4.903-1.725-7.819.478-1.519 1.566-2.456 3-3.122 1.416-.666 2.756-1.5 4.144-2.278.338-.197.647-.459 1.003-.553 3.787-1.069 6.281-4.078 9.281-6.291 1.219-.891 2.372-1.491 3.844-1.734.694-.122 1.538-.628 1.894-1.219.694-1.172 1.641-1.472 2.662-.919 1.453.797 3 1.65 4.059 2.869 1.444 1.641 2.625 3.572 3.619 5.522.459.891.412 2.166.281 3.225-.581 4.481 1.397 8.044 4.584 10.641 1.613 1.313 4.341 1.228 6.534 1.866 2.662.769 5.316 1.566 7.922 2.503.966.347 1.875 1.05 2.578 1.809 4.041 4.341 7.041 9.216 7.434 15.347.009.244.084.525-.028.713-.384.628-.834 1.2-1.256 1.791-.478-.525-1.284-1.003-1.397-1.584-.3-1.734-.506-3.441-2.119-4.538-2.203-1.537-4.716-2.409-8.531-2.541zM44.559 228.3c1.697.291 3.384.6 5.072.862.712.113 1.453.291 2.147.169 3.506-.581 7.041-1.031 10.463-1.941 4.228-1.116 6.872-3.9 7.219-8.484.037-.478.169-.966.122-1.434-.356-3.947 1.725-7.031 3.741-10.041.778-1.153 2.194-1.959 3.45-2.681.975-.553 2.156-.797 3.272-1.069 1.95-.478 3.769-.938 5.569-2.156 1.828-1.238 4.425-1.406 6.712-1.875 1.256-.253 2.625-.384 3.863-.169 3.347.581 5.203 2.925 6.188 5.981.516 1.584.731 3.272 1.069 4.922.037.178.075.394.028.563-.713 2.194-1.275 4.425-2.194 6.534-1.097 2.494-3.309 3.9-5.841 4.566-4.013 1.05-6.947 3.347-9.028 6.872-.834 1.397-1.641 2.831-3.591 3.019-.469.047-.9.778-1.313 1.238-2.372 2.719-5.1 4.913-8.813 5.391-3.394.441-6.769.478-10.106-.694-2.709-.947-5.625-1.284-8.316-2.259-2.728-1.003-5.316-2.419-7.959-3.694-1.397-.666-1.922-1.725-1.772-3.619zM144.666 239.072c1.828.113 3.656.113 5.466.384.862.131 1.819.609 2.456 1.219 2.166 2.081 3.253 4.866 4.172 7.631.291.853-.084 2.081-.506 2.972-.628 1.331-1.566 2.531-2.372 3.778-1.669 2.597-1.397 4.931.797 7.134.881.891 1.819 1.744 2.541 2.747 2.662 3.675 2.091 7.622-1.472 10.397a343 343 0 0 1-8.025 6.113c-4.744 3.506-3.938 8.831-1.341 12.225 1.069 1.397 1.978 2.934 2.831 4.462.262.469.141 1.172.197 1.753-.638-.009-1.369.197-1.875-.056a19.5 19.5 0 0 1-3.366-2.147c-2.081-1.613-4.059-3.347-6.122-4.959-2.55-1.978-4.041-4.622-4.847-7.659-.459-1.697.394-3.15 1.284-4.584 2.213-3.572 3.291-7.462 2.7-11.691-.366-2.587-1.875-4.575-3.684-6.375a286 286 0 0 1-6.188-6.441c-1.153-1.228-.797-4.537.628-5.438.881-.553 1.894-.938 2.869-1.322 2.681-1.022 4.613-2.803 5.4-5.588 1.472-5.166 2.813-5.006 7.041-4.65.478.038.966.056 1.444.084-.009.038-.009.009-.009-.009z"/></svg>