<svg xmlns="http://www.w3.org/2000/svg" xml:space="preserve" fill-rule="evenodd" stroke-linejoin="round" stroke-miterlimit="2" clip-rule="evenodd" viewBox="0 0 300 300"><path fill-rule="nonzero" d="M142.847 0h8.672c1.538.103 3.066.263 4.603.3 4.941.131 9.881.112 14.588 2.063 1.172.488 2.738.684 3.938.347 2.156-.609 4.059 0 6.037.506 1.444.366 2.906.712 4.331 1.134 5.897 1.772 12.122 2.475 17.559 5.7.384.234.862.309 1.303.469 2.709.938 5.447 1.791 8.1 2.85 1.519.609 2.906 1.537 4.35 2.325 1.031.553 2.025 1.228 3.113 1.65 3.338 1.294 6.45 2.944 9.262 5.184 1.678 1.341 3.403 2.709 5.325 3.666 3.638 1.819 6.759 3.956 8.419 7.931.797 1.894 1.688 3.3.075 5.306-1.584 1.978-.938 3.328 1.5 4.247.281.103.684.178.816.403.319.525.619 1.125.684 1.716.009.15-.881.581-1.35.572-.816-.009-1.622-.262-2.438-.403-2.269-.403-4.519-.337-6.253 1.35-2.813 2.709-5.588 5.466-8.203 8.363-1.997 2.222-3.159 4.941-3.647 7.903-.309 1.884-.553 3.769-.825 5.662-1.397 9.919 3.272 16.631 12.159 21.994.938.572 2.128.825 3.234.966 2.7.375 5.419.712 8.128.853 6.825.366 12.928-1.434 17.494-6.797 2.222-2.597 4.313-5.353 6.075-8.269 1.378-2.269 2.128-4.903 3.253-7.331.441-.956 1.106-1.791 1.884-3.009.797 1.088 1.341 1.688 1.725 2.391 2.859 5.184 5.728 10.369 8.484 15.619.712 1.341 1.059 2.878 1.556 4.322.441 1.247.759 2.541 1.313 3.741.816 1.763 2.025 3.384 2.634 5.194 1.163 3.459 1.884 7.069 3.019 10.537 3.159 9.609 4.903 19.481 5.672 29.522.797 10.425.469 20.822-.938 31.191-.422 3.15-.628 6.375-2.531 9.15-.319.478-.366 1.303-.244 1.922.553 3.225-1.416 5.841-1.978 8.794-.028.131-.206.216-.319.319-2.606 2.325-3.169 5.512-3.159 8.691.009 3.544-.9 6.628-2.784 9.6-1.509 2.372-3.169 4.828-3.881 7.481-.881 3.328-2.447 6.178-4.088 9.084a798 798 0 0 1-3.919 6.834c-.234.412-.544.787-.816 1.172a4 4 0 0 1-.487-.056c-.272-1.275-.581-2.541-.788-3.816-.234-1.416-.216-2.888-.553-4.284-2.119-8.653-7.931-13.997-15.891-17.222-1.753-.713-3.844-1.041-5.719-.881-2.597.234-5.156 1.003-7.678 1.725-7.678 2.203-13.828 6.319-17.044 13.997-.319.759-.722 1.481-1.031 2.241-4.331 10.266-1.275 22.228 7.753 28.762 3.9 2.822 8.306 4.931 12.516 7.303.956.544 2.025.862 2.916 1.238-2.541 2.231-4.987 4.491-7.537 6.628-6.731 5.662-14.353 9.994-22.144 13.959-7.744 3.919-15.431 8.166-24.356 8.963-.572.056-1.294.375-1.584.825-.862 1.294-2.119 1.753-3.497 2.053-5.278 1.162-10.547 2.4-15.853 3.431-5.344 1.031-10.903.206-16.172 1.819-.281.094-.619.056-.928.038-6.9-.206-13.819-.272-20.7-.684-3.797-.216-7.622-.712-11.297-1.65-3.066-.787-5.897-2.475-9.234-1.716-.234.056-.506-.066-.75-.141-5.288-1.706-10.612-3.262-15.844-5.137-11.194-4.003-21.966-8.897-31.781-15.703-2.025-1.397-4.022-2.822-6.169-4.331.412-.3.591-.469.797-.581 6.337-3.441 10.659-8.878 14.353-14.822 2.841-4.556 3.881-9.6 3.028-14.991-1.341-8.55-6.009-15-12.722-20.109-1.069-.816-2.644-1.031-4.012-1.378-.825-.206-1.744-.094-2.597-.234-2.737-.422-5.428-.713-8.006.684-.262.141-.591.197-.9.206-5.531.216-9.328 3.422-12.684 7.378-.966 1.134-1.828 2.372-2.888 3.431-2.503 2.531-3.094 5.522-2.259 8.831.347 1.397.028 2.297-1.294 2.963-.3-.338-.647-.647-.9-1.022-2.925-4.247-6.113-8.334-8.681-12.788-3.441-5.962-6.553-12.141-9.516-18.356-1.809-3.778-3.919-7.537-3.75-11.972.009-.478-.319-.966-.525-1.434-1.922-4.228-3.647-8.512-4.331-13.153-.525-3.506-1.247-7.003-1.913-10.491-2.878-15.431-2.841-30.872.103-46.284.816-4.228 2.081-8.381 3.159-12.563 1.209-4.669 2.438-9.356 3.713-14.006.516-1.875 1.603-3.328 3.497-4.059.347-.131.731-.469.853-.797.75-2.128 1.444-4.284 2.119-6.45.647-2.1 1.097-4.256 1.856-6.309.694-1.875 1.978-3.563 2.447-5.466.572-2.269 1.538-4.228 2.822-6.112 1.509-2.184 3.159-2.137 4.397.206 1.65 3.15 3.272 6.309 4.875 9.478.825 1.641 1.725 3.319 3.563 3.881 3.047.938 6.112 1.978 9.253 2.325 2.372.263 4.847-.544 7.275-.816 5.072-.553 9.291-2.784 12.487-6.684 2.081-2.541 3.947-5.288 5.625-8.109 5.484-9.309 3.984-18.197-2.128-26.559-1.913-2.606-4.266-4.884-6.516-7.247-.572-.591-1.406-1.003-2.194-1.275-1.575-.544-3.188-.919-5.138-1.453 2.606-1.997 4.884-3.741 7.172-5.484 6.459-4.903 13.134-9.459 20.888-12.178 1.744-.609 3.441-1.406 5.044-2.306 5.344-3.019 10.903-5.531 16.772-7.341 11.316-3.497 22.819-5.934 34.697-6.338 1.406-.056 2.747-.544 4.087-.825zm8.841 287.316c1.931-2.822 3.769-5.316 5.419-7.931 1.894-2.991 3.609-6.103 5.447-9.131 1.341-2.203 2.859-4.294 4.106-6.553 3.459-6.272 6.703-12.666 10.266-18.872 1.856-3.253 4.228-6.206 6.347-9.3.347-.506.581-1.069.881-1.603 1.744-3.131 3.506-6.253 5.222-9.403.272-.506.619-1.209.45-1.641s-.891-.797-1.434-.938c-.516-.131-1.106.094-1.678.103a363 363 0 0 1-6.441.066c-.928 0-1.856-.178-2.756-.094-2.297.206-2.531-.094-2.438-2.362.113-3.131.094-6.272.028-9.403-.066-3.459-.262-6.9-.319-10.359-.056-2.887.094-5.766-.009-8.653-.103-2.616-.609-5.241-.591-7.856.028-3.741.309-7.481.609-11.213.037-.516.759-1.294 1.294-1.406 1.547-.347 3.15-.572 4.734-.609 5.934-.131 11.869-.037 17.784-.281 5.456-.234 10.903-.9 16.359-1.172 4.012-.197 8.053-.009 12.066-.056a1427 1427 0 0 0 15.619-.244c1.509-.028 2.409.516 2.409 2.1 0 3.188-.066 6.384-.056 9.572 0 .759.094 1.556.366 2.259.347.891.862 1.134 1.706.244 1.331-1.416 2.719-2.803 4.256-3.984 11.006-8.513 22.059-16.959 33.056-25.472 1.35-1.059 2.512-2.363 3.797-3.563-.675-.834-1.172-1.5-1.706-2.119-12.15-14.231-26.287-26.353-40.519-38.372-.506-.422-1.172-.628-1.997-1.069-.066.966-.141 1.575-.141 2.184 0 3.666.038 7.331.028 10.987 0 2.494-.384 2.813-2.916 2.775-2.681-.047-5.363-.159-8.034-.094-7.172.178-14.334.516-21.487.675-11.184.234-22.378.384-33.562.553-1.997.028-2.597-.478-2.428-2.447.45-5.737-.366-11.391-.853-17.081-.506-5.859-.722-11.728-.169-17.606.656-6.872 1.247-13.781.094-20.681-.234-1.406.478-1.809 1.753-1.791 3.713.009 7.434.037 11.128-.094 2.128-.075 2.475-.759 1.369-2.644-3.216-5.513-5.897-11.288-9.947-16.331-3.872-4.809-7.097-10.125-10.716-15.159-3.909-5.428-7.847-10.866-11.963-16.153-1.959-2.513-4.387-4.669-6.647-7.031-1.509 2.363-2.775 4.359-4.05 6.356-7.8 12.188-15.609 24.375-23.428 36.572-.244.384-.478.797-.787 1.144-3.534 3.816-6.188 8.241-8.522 12.844-.478.938-.994 2.681-.591 3.056.778.694 2.203.675 3.366.956.047.009.103-.009.159-.009 3.544-.094 7.106-.178 10.659-.272.984-.028 1.434.516 1.35 1.453-.103 1.397-.103 2.813-.441 4.153-1.744 7.181-1.669 14.522-2.119 21.825-.112 1.894.272 3.872-.094 5.7-.656 3.263-.825 6.525-.731 9.825.047 2.016.131 4.041-.009 6.038-.047.628-.787 1.706-1.266 1.725-4.256.263-8.522.422-12.797.413-3.169-.009-6.356-.422-9.534-.506-3.703-.094-7.416-.037-11.128-.009-2.775.028-5.559.169-8.334.169-3.028 0-6.047-.094-9.084-.141-.263 0-.591-.159-.75-.037-1.575 1.144-3.263.422-4.931.412-1.603-.009-2.137-.816-2.128-2.194.009-2.269.112-4.528.131-6.797 0-.9-.15-1.791-.244-2.7-.169-.028-.347-.047-.516-.075-.553.516-1.125 1.022-1.641 1.575-2.719 2.925-5.316 5.981-8.156 8.775-4.969 4.866-9.619 10.087-15.506 13.941-.469.309-.881.722-1.275 1.106-4.012 3.938-7.969 7.922-12.047 11.794-1.369 1.303-3.047 2.269-4.519 3.469-1.022.825-1.931 1.772-3.131 2.859 2.053 1.134 3.778 2.053 5.466 3.019 1.2.684 2.391 1.416 3.534 2.184 2.128 1.416 4.219 2.916 6.356 4.313 2.756 1.791 5.925 3.122 8.297 5.316 6.338 5.822 13.378 10.884 18.666 17.803.712.928 1.509.787 2.025-.3.197-.412.272-.881.347-1.341.544-3.234 1.087-6.488 1.669-10.05 3.9-.159 7.744-.403 11.597-.441 3.506-.037 7.012.272 10.509.197 10.116-.206 20.213-.525 30.328-.825 2.184-.066 2.428.141 2.372 2.325a527 527 0 0 1-.347 9.431c-.309 6.028-.609 12.047-1.003 18.056-.131 1.931-.609 3.853-.797 5.794-.169 1.556-.272 3.15-.206 4.725.066 1.725.478 3.441.525 5.175.047 2.222-.197 4.434-.159 6.647.028 1.509-.544 2.128-2.034 2.231a82 82 0 0 0-6.919.759c-1.875.3-2.409 1.472-1.5 3.131.516.928 1.266 1.744 1.95 2.578 2.203 2.709 4.416 5.419 6.628 8.128.487.591.937 1.247 1.509 1.753 3.909 3.497 6.975 7.688 10.219 11.794 6.544 8.297 13.387 16.341 19.237 25.181 1.791 2.747 3.881 5.316 6.047 8.241z"/><path fill-rule="nonzero" d="M134.278 150.159c.544-4.566 1.641-8.166 4.631-10.875a83 83 0 0 1 5.841-4.8c.619-.469 1.584-.488 2.409-.619.9-.141 1.828-.094 2.719-.244 2.634-.441 5.119-.113 7.481 1.172.272.141.525.375.825.412 3.366.478 5.1 2.616 5.897 5.728.056.197.094.413.197.581 2.325 3.853 1.303 7.725.038 11.597-1.228 3.778-3.488 6.731-6.956 8.719-1.519.881-2.991 1.819-4.491 2.719-.347.206-.713.422-1.097.572-2.156.834-9.019-1.031-10.369-2.887-1.912-2.616-3.853-5.222-5.559-7.969-.853-1.378-1.2-3.084-1.575-4.106zM150.094 207c3.253.684 6.337 1.247 9.366 2.034.656.169 1.303 1.022 1.622 1.706.853 1.809 1.622 3.675 2.231 5.588.216.694-.281 1.612-.159 2.372 1.294 7.341-1.819 13.172-6.394 18.431-.919 1.059-2.231 1.791-3.403 2.597-.403.272-.966.469-1.453.45-5.044-.159-9.572-1.294-12.225-6.244-.628-1.191-1.744-2.138-2.719-3.131-3.778-3.844-3.956-6.628-1.894-11.559 1.912-4.537 5.344-7.547 9.047-10.266 1.641-1.228 4.05-1.378 6-1.978zM250.219 133.491c4.003 2.203 6.853 5.25 7.988 9.609.731 2.813-1.641 7.8-4.181 9.412-.731.469-1.519.891-2.184 1.453-.984.825-.862 1.5.272 2.128 1.519.834 1.641 1.228.816 2.756-1.744 3.272-3.881 4.416-7.575 4.013-.713-.075-1.416-.216-2.128-.366-4.369-.956-12.291-7.481-14.091-11.597-1.434-3.291-1.125-6.488.722-9.459 1.331-2.128 2.962-4.078 4.491-6.084.581-.778 1.275-.787 2.194-.487.834.272 1.809.384 2.681.272 2.034-.263 4.05-.722 6.084-1.031.628-.094 1.509-.197 1.922.141 1.331 1.088 2.194.609 2.981-.778zM136.463 66.506c.178-1.003.375-2.016.553-3.028.319-1.716.825-3.431.919-5.156.234-4.884 6.084-9.816 11.231-8.438 1.266.337 2.822-.234 4.209-.525 2.184-.478 2.512-.216 3.797 1.603 1.453 2.091 3.056 4.125 4.837 5.944 2.025 2.063 2.513 3.947 1.641 6.628-.891 2.737-1.547 5.55-2.194 8.344-.441 1.866-.609 3.769-3.066 4.191-.759.131-1.406.834-2.128 1.2-2.803 1.397-5.653 1.669-8.813 1.144-4.003-.647-11.287-6.853-10.978-11.906zM84.722 144.909c-.131.591-.234 1.209-.403 1.791-.816 2.813-1.678 5.625-2.447 8.447-.825 2.963-2.616 5.137-5.381 6.394a43 43 0 0 1-5.775 2.128c-1.706.488-3.534.272-4.809-.984-2.888-2.841-5.944-5.616-8.278-8.888-3.731-5.203-2.231-10.406 3.337-13.65.272-.159.619-.263.778-.506 1.566-2.494 4.153-3.197 6.722-4.022 1.022-.319 1.978-.853 2.925-1.35 1.566-.797 2.756-.272 3.769.956a106 106 0 0 1 3.234 4.125c.722.966 1.481 1.378 2.775 1.069.609-.141 1.669.169 2.016.647.778 1.088 1.228 2.4 1.791 3.628-.094.094-.169.141-.244.206z"/></svg>