<svg xmlns="http://www.w3.org/2000/svg" xml:space="preserve" fill-rule="evenodd" stroke-linejoin="round" stroke-miterlimit="2" clip-rule="evenodd" viewBox="0 0 300 300"><path fill-rule="nonzero" d="M0 146.766c.741-.563 1.406-1.491 2.212-1.65 2.559-.497 4.762-1.594 7.003-2.925 4.088-2.438 8.419-4.453 12.6-6.731 1.678-.909 3.412-1.838 4.828-3.084 3.525-3.122 7.575-5.456 11.466-8.034 2.775-1.847 5.512-3.797 8.1-5.897 1.744-1.416 3.244-3.141 4.8-4.772 1.453-1.528 2.269-1.584 3.619-.009.703.806 1.284 1.734 2.006 2.55 1.219 1.406 2.578 1.406 3.459-.216 1.809-3.347 2.775-6.938 2.269-10.781-.216-1.659-1.313-2.55-2.981-2.428a22.8 22.8 0 0 0-4.059.675c-2.278.563-3.834-.066-4.8-2.241-2.4-5.391-4.359-10.903-4.978-16.819-.366-3.572-.478-7.162-.787-10.725-.441-5.025-2.597-9.544-4.397-14.156-.403-1.003-.741-2.053-1.275-2.981-.938-1.65-.759-3.244-.188-4.941.281-.816.684-1.172 1.472-1.087.628.075 1.331.122 1.837.459 2.709 1.8 5.756 2.372 8.906 2.794 1.847.244 3.684.675 5.447 1.284 3.825 1.369 7.753 2.063 11.803 2.409 3.919.347 7.781 1.153 11.662 1.734.581.084 1.181.122 1.753.037 5.578-.834 10.969.084 16.294 1.612 3.225.919 4.05 3.309 2.213 6.103-.647.984-1.491 1.838-2.184 2.775-1.566 2.147-.881 4.116 1.622 4.931 3.628 1.181 3.797 1.491 1.622 4.65-2.428 3.516-4.922 7.003-7.519 10.397-1.931 2.531-3.591 5.147-4.481 8.222-1.097 3.853-2.231 7.697-3.338 11.55a2.7 2.7 0 0 0-.084.722c.206 8.831-.178 17.719 2.006 26.409.394 1.556.394 3.216.431 4.819a96 96 0 0 1-.112 6.938c-.066 1.05-.309 2.156-.759 3.084-.244.497-1.097.9-1.706.966-.862.084-1.153.412-1.397 1.191a44 44 0 0 1-1.594 4.388c-2.119 4.856-4.294 9.694-6.412 14.541-.159.366-.178.872-.084 1.275.516 2.494 1.116 4.978 1.631 7.481.347 1.613 1.153 2.916 2.484 3.872 1.463 1.05 2.269 2.494 2.813 4.209.938 2.991 1.734 6.084 3.141 8.869 1.05 2.091 2.897 3.797 4.491 5.559.319.356 1.172.225 1.781.319 1.022.178 2.063.356 3.084.553.759.15 1.519.469 2.269.469 1.406.009 2.325.619 2.841 1.903.234.591.525 1.172.834 1.716.863 1.491.666 2.006-1.022 2.531-2.456.778-2.644.975-2.513 3.544.066 1.369.178 2.747.497 4.059s.975 2.55 1.519 3.919c-.628.216-1.256.272-1.706.6-.403.291-.778.872-.806 1.341-.009.281.637.778 1.05.862 1.622.356 2.625 1.181 2.859 2.559.216 1.247-.478 2.709-2.006 3.262a290 290 0 0 1-13.275 4.397c-2.813.872-5.681 1.556-8.569 2.203-1.566.356-3.188.469-4.791.666-1.172.15-2.344.216-3.516.431-2.897.497-5.756 1.266-8.663 1.556-4.641.469-9.3.713-13.959.909-2.428.094-3.619-1.519-3.206-3.928.037-.197.066-.394.131-.581 1.641-4.463 3.272-8.934 4.922-13.388 3.066-8.259 5.672-16.631 6.609-25.463.216-1.969.975-3.891 1.397-5.841.272-1.247.684-2.559.506-3.75-.337-2.147.684-3.178 3.094-3.553.872-.131 1.772-.113 2.625-.253 1.716-.309 2.747-1.378 3.178-3.066 1.003-3.731.984-7.266-1.594-10.463-.825-1.022-1.387-2.269-2.128-3.356-.825-1.219-1.472-1.284-2.25-.122-1.303 1.959-2.559 3.956-3.647 6.037-.581 1.088-1.172 1.397-2.194.787-3.516-2.053-7.247-3.619-10.622-6.009-5.803-4.106-11.925-7.819-18.066-11.4-6.45-3.769-13.378-6.375-20.859-7.313-2.006-.244-3.581-1.275-4.706-2.953v-.281zm80.981-63.872c.347-2.878-.525-5.475-1.866-7.922-.947-1.744-2.906-2.325-4.791-1.838-.684.188-1.594.037-2.241-.272-1.856-.872-2.325-.778-3.403 1.031-.272.459-.563.956-.984 1.275-1.65 1.256-2.409 3.084-3.094 4.913-1.875 4.987-1.088 8.063 2.962 11.522 2.409 2.053 5.175 3.084 8.316 2.363 1.313-.309 2.531-1.069 3.797-1.613 2.25-.975 2.756-2.025 2.231-4.425-.375-1.659-.628-3.347-.938-5.025zm-12.037 54.234c-.047 0-.094-.009-.131-.009v-.881c-.028-2.006-2.747-5.691-4.669-6.291-.309-.094-.684-.084-1.003-.009-4.031.863-7.837 2.269-10.997 5.025-.553.497-1.134 1.209-1.256 1.903-.337 2.128-.619 4.275-.656 6.431-.028 2.634 1.566 4.537 4.153 4.931 2.325.347 4.688.563 7.041.553 3.525-.028 6.178-2.334 6.797-5.794.347-1.959.478-3.928.712-5.869zm5.175 82.903c2.934.009 4.922-.816 5.241-2.803.478-3.028.666-6.131.581-9.188-.066-2.044-1.153-2.428-3.197-1.847-.947.272-1.987.291-2.963.431-1.219.178-2.597.028-3.628.581-2.756 1.425-3.9 4.387-3.094 7.228 1.059 3.797 3.338 5.588 7.078 5.597zM156.544 8.906c3.047 2.025 5.241 4.819 7.369 7.734 6.975 9.525 14.034 18.975 21.037 28.472 1.387 1.894 2.709 3.834 4.134 5.887-.759.159-1.313.291-1.884.394-1.866.347-3.497 1.003-4.912 2.428-1.031 1.022-2.466 1.819-3.872 2.25-2.691.825-4.387 2.484-5.334 5.053-.225.647-.394 1.406-.844 1.847-1.538 1.528-1.538 3.328-1.444 5.316.347 6.431.478 12.872.834 19.294.178 3.234.656 6.45.966 9.666.188 1.959.459 3.928.431 5.878-.103 7.162 1.172 14.194 1.969 21.272.113 1.003.553 1.997.591 2.991.028.656-.234 1.453-.656 1.941-.638.722-1.491 1.284-2.316 1.819-5.156 3.281-9.487 7.453-13.313 12.206-1.716 2.147-3.581 4.181-5.456 6.197-.347.384-1.209.778-1.528.6-.694-.384-1.594-1.069-1.688-1.734-.131-1.003-.647-1.35-1.303-1.912-1.116-.919-2.081-2.025-3.028-3.122-.806-.947-1.378-2.156-2.306-2.963-2.766-2.428-5.681-4.688-8.475-7.078-1.069-.928-2.119-1.931-2.953-3.056-1.472-1.987-3.431-3.159-5.644-4.087-.619-.253-1.059-.909-1.575-1.378.431-.412.806-.994 1.313-1.228 1.819-.816 2.344-2.428 2.634-4.153 1.125-6.638 2.184-13.256 2.334-20.034.216-9.628.834-19.247 1.172-28.875.112-3.328-.122-6.675-.197-10.031-.037-1.837-.469-2.4-2.25-2.644-1.8-.253-3.619-.403-5.428-.581-.253-.028-.581-.103-.722.028-1.556 1.303-2.616.159-3.891-.619-.872-.534-2.025-.647-3.066-.872-.656-.15-1.331-.187-2.147-.647.431-.394.844-.806 1.303-1.172 1.612-1.275 3.403-2.372 4.828-3.834 5.306-5.494 11.419-10.247 15.45-16.95 1.781-2.991 3.994-5.719 5.981-8.588 2.775-4.012 5.831-7.781 9.384-11.147 1.5-1.406 2.794-3.028 4.181-4.547.122-.028.225-.028.319-.028zm2.681 108.478c-.6-1.847-1.069-3.638-1.8-5.325-.319-.75-1.059-1.434-1.781-1.875-1.303-.759-2.719-1.369-4.125-1.931-2.269-.909-5.137.122-6.478 2.147-2.709 4.087-3.047 8.231-.188 12.328.703 1.003 1.866 2.119 2.981 2.344 2.587.534 5.269.497 7.791-.581.553-.234 1.284-.6 1.472-1.088.787-1.931 1.406-3.938 2.119-6.028zm-4.434-60.375c1.959-.103 3.544-.984 4.612-2.55 1.538-2.212 2.897-4.556 4.322-6.853.459-.722.431-1.397-.319-1.922-1.875-1.313-3.741-2.653-5.644-3.938-.938-.628-2.044-1.031-2.869-1.753-.956-.853-1.987-1.256-3.084-.684-1.125.591-.459 1.631-.281 2.494.459 2.203.131 2.766-1.997 3.506-1.697.591-2.316 1.406-2.119 3.197.253 2.288 1.003 4.416 2.616 6.141 1.275 1.378 2.813 2.269 4.762 2.344z"/><path fill-rule="nonzero" d="M170.944 240.628c1.894-2.981 2.831-6.084 2.391-9.497-.112-.853-.684-1.65-1.031-2.456-.816.525-1.922.9-2.4 1.65-.591.938-.806 2.175-.928 3.328-.113 1.088-.441 1.866-1.416 2.4s-1.519-.103-2.222-.563c-1.762-1.172-3.581-2.241-5.391-3.347-1.613-.984-3.234-.909-4.913-.084-2.747 1.331-3.338.994-3.553-2.016-.084-1.219.037-2.456-.113-3.684-.056-.553-.534-1.069-.816-1.594-.478.356-.984.656-1.406 1.059-.759.684-1.519 1.397-2.203 2.156-.291.338-.525.806-.581 1.238-.075.534.084 1.069.084 1.613.009 2.447-.9 3.741-3.244 4.5-1.022.338-2.091.534-3.141.816-2.128.591-4.275 1.144-6.375 1.809-2.813.9-4.584-.037-5.344-2.897-.234-.9-.384-1.847-.75-2.681-.197-.469-.778-.778-1.172-1.153-.319.441-.825.834-.928 1.313-.459 2.306-.422 4.538.497 6.787.6 1.472.825 3.141.994 4.734.159 1.547-.984 2.747-2.409 3.056-2.4.497-4.772 1.097-7.144 1.659-.581.131-1.125.366-1.706.441-2.006.253-3.112-.656-2.934-2.634.413-4.866-.872-9.563-1.275-14.334-.281-3.45.037-6.947.112-10.416.066-3.047.159-6.075.197-9.122.009-.881-.113-1.772-.131-2.653-.253-8.353-9.197-12.159-14.963-11.034-.459.084-1.003.281-1.284.619-.806.909-1.631 1.247-2.719.581-1.125-.684-1.537-1.688-1.416-3.019.084-.844.066-1.744-.122-2.559-.094-.459-.656-.787-.994-1.191-.713-.881-1.659-1.669-2.081-2.681-.947-2.259-1.528-4.669-2.475-6.937-.619-1.462-1.5-2.841-2.437-4.144-.628-.881-.816-1.641-.234-2.559.047-.084.084-.178.15-.253 6.272-8.653 8.063-19.003 10.538-29.006 1.275-5.109.956-10.472-.225-15.787-1.125-5.006-2.325-10.05-1.847-15.291 1.172-12.675 6.206-23.737 14.034-33.619.909-1.144 2.025-2.156 3.141-3.113 3.816-3.328 7.678-6.609 11.522-9.9.516-.441 1.003-.994 1.622-1.275s1.5-.534 2.025-.281c.497.244.956 1.125.984 1.744.113 2.109.122 4.237.009 6.347-.497 9.469-1.059 18.947-1.537 28.425-.216 4.509-.337 9.037-.431 13.566-.028 1.247-.347 2.222-1.144 3.216-1.763 2.147-2.344 4.65-1.416 7.331.216.591.872 1.059 1.416 1.472.722.563 1.631.909 2.287 1.519 6.375 6.009 12.712 12.056 19.05 18.094 1.153 1.088 2.241 2.213 3.375 3.309.563.553 1.069 1.219 1.744 1.584 1.781.994 3.469 2.016 3.422 4.031 1.284.122 2.325.291 3.366.281.403 0 .9-.319 1.181-.638 1.378-1.528 2.691-3.103 4.05-4.669 1.641 1.463 1.697 1.453 3.084-.216 3.206-3.862 6.422-7.716 9.572-11.616.516-.647.684-1.566 1.031-2.334s.581-1.725 1.153-2.278c2.278-2.175 4.65-4.237 7.022-6.309 1.753-1.519 1.866-2.325.563-4.266-.459-.684-.778-1.472-1.022-2.25-2.241-7.144-3.15-14.484-3.216-21.938-.056-4.181-.384-8.353-.497-12.534-.066-1.922-.056-3.834.113-5.747.403-5.091-.15-10.116-.834-15.141-.338-2.409-.338-2.409 1.819-3.459.403-.197.806-.384 1.284-.619.684 1.312 1.434 1.406 2.616.403 1.406-1.219 2.475-.788 3.816.497 1.613 1.556 3.394 2.991 5.306 4.134 2.953 1.753 5.213 4.106 7.191 6.862 4.181 5.841 7.266 12.272 9.694 18.975 1.613 4.453 1.847 9.225 1.209 13.978-.103.713.028 1.463.028 2.203-.009 1.219-.009 2.447-.066 3.666-.066 1.256-.291 2.513-.309 3.769-.028 6.197-.037 12.394.028 18.591.009.881.459 1.753.628 2.644.188.947.553 1.941.394 2.841a15.5 15.5 0 0 0 .441 7.444c1.491 4.791 2.859 9.591 5.484 13.95 1.406 2.316 1.866 4.959 1.847 7.65-.009 2.653.066 5.269 1.125 7.819.347.816-.131 2.222-.638 3.15-1.284 2.362-2.962 4.538-4.209 6.919-1.284 2.466-2.456 5.044-3.338 7.669-.469 1.406-.366 3.075-.281 4.613.084 1.453 1.125 1.819 2.063.684 1.697-2.016 3.45-4.088 4.669-6.384 1.406-2.634 2.616-5.259 5.306-6.881.497-.291.75-1.219.862-1.875 1.003-6.253.216-12.45-.684-18.637-.159-1.116-.216-2.259-.497-3.356-.291-1.172-.741-2.316-1.219-3.422-.853-1.922-1.884-3.778-2.662-5.737-1.144-2.916-2.156-5.887-3.178-8.869-.272-.816-.431-1.725-.356-2.578.403-4.744 1.088-9.478 1.341-14.231.694-13.106 1.462-26.231-1.838-39.159-1.172-4.584-3.525-8.606-6.075-12.525-1.453-2.213-2.878-4.481-4.547-6.534-1.378-1.697-3.075-3.141-4.678-4.669-.497-.469-1.284-.722-1.594-1.275-.366-.703-.619-1.659-.431-2.4.084-.347 1.341-.666 1.988-.553 3.225.553 5.522-1.247 5.513-4.584 0-.759-.469-1.725-1.031-2.241-1.228-1.125-2.691-1.969-4.022-2.991-1.172-.9-1.088-1.35.216-2.081.684-.384 1.331-.834 2.025-1.219.384-.206.806-.441 1.219-.478 4.753-.497 9.506-.9 14.241-1.434 1.941-.216 3.9-.553 5.775-1.125 8.897-2.672 17.766-5.438 26.644-8.128 2.813-.844 4.022.347 3.15 3.178-.497 1.612-1.303 3.122-1.969 4.678-.244.591-.525 1.153-.75 1.762-2.484 6.506-4.969 13.013-7.444 19.519-2.494 6.516-5.016 13.041-5.494 20.1-.066.975.112 1.959.159 2.925.056 1.05-.375 1.463-1.434 1.125-1.538-.497-2.194-1.622-2.588-3.113-.309-1.144-.741-2.362-1.453-3.281-.947-1.219-2.738-1.425-3.891-.741-1.369.806-1.528 2.091-1.125 3.478.684 2.344 1.622 4.65 2.1 7.041.628 3.122.975 6.309 1.303 9.478.103.881-.478 1.837-.431 2.737.131 2.241.403 4.481.741 6.703.253 1.706.75 3.356 1.125 5.025.272 1.219.75 1.434 1.688.619 1.153-.994 2.231-2.091 3.272-3.178.272-.291.375-.778.478-1.191.178-.666.178-1.406.469-2.006.816-1.659.975-3.366.816-5.166-.066-.656.113-1.331.225-2.531 1.866 1.537 3.422 2.747 4.903 4.088 2.222 1.997 4.406 4.069 6.6 6.112.037.037.066.075.122.084 2.681.478 4.238 3.188 6.984 3.572.478.066 1.088.412 1.331.806.938 1.491 2.4 2.109 3.928 2.691 4.209 1.631 8.475 3.178 12.563 5.025 3.563 1.613 6.966 3.647 10.444 5.447 2.709 1.397 5.456 2.709 8.184 4.088.928.469 1.809.994 2.681 1.556 1.209.759 2.053 1.753 1.594 3.3-.478 1.556-2.156 2.559-3.684 2.681-1.416.113-2.963.281-4.2.938-7.172 3.787-14.287 7.688-21.366 11.634-2.063 1.144-3.938 2.587-5.906 3.872-.863.563-1.744 1.116-2.644 1.594-3.431 1.894-6.862 3.797-10.341 5.606-.975.516-2.091.741-3.122 1.153-1.069.441-2.1.984-3.188 1.406-.759.309-1.875.928-2.306.628-.778-.534-1.331-1.584-1.659-2.531-.309-.9-.084-1.969-.338-2.897-.562-2.25-2.653-3.872-4.959-3.938-.469-.009-1.219.187-1.397.516-1.191 2.306-2.25 4.575-1.556 7.387.553 2.213.591 4.5.047 6.853-.403 1.809-.122 3.797-.009 5.709.188 3.084.497 6.159.684 9.253.028.581-.309 1.219-.581 1.772-1.088 2.128-.441 3.544 1.875 3.984.628.122 1.275.188 1.894.291 1.462.253 2.587-.084 3.272-1.547.309-.647.881-1.172 1.387-1.716.853-.909 1.866-1.256 3.066-.769 1.247.487 2.025 1.313 2.147 2.728.366 4.406.759 8.822 1.172 13.219.084.919.122 1.894.431 2.747 1.284 3.544 1.341 7.228 1.406 10.922.113 5.728.366 11.4 2.578 16.791.113.272.272.6.216.844-.188.619-.338 1.453-.778 1.697-.412.225-1.472.047-1.772-.338-1.153-1.434-2.316-1.659-4.116-1.209-1.275.338-2.775-.291-4.181-.469a716 716 0 0 0-6.131-.741c-.244-.028-.525.056-.722-.047-3.581-1.838-7.313-.806-11.006-.6-.722.038-1.453-.066-2.175-.159-1.725-.216-3.45-.534-5.175-.694a36 36 0 0 0-4.397-.188c-1.444.038-2.878.272-4.331.356-.75.037-1.641.159-2.25-.159-1.181-.591-2.194-.516-3.375-.066a9.7 9.7 0 0 1-3.141.628c-.525.028-1.256-.403-1.5-.844-.197-.356.047-1.191.384-1.556 1.191-1.284 1.688-2.831 1.969-4.519a40 40 0 0 1 .928-4.322c.834-3.103-.459-5.719-3.469-6.862-2.719-1.05-2.775-1.153-1.931-3.956.722-2.391 1.35-4.791 2.1-7.162.534-1.716 1.809-2.325 3.581-2.766 2.391-.591 4.622-1.828 6.862-2.897.244-.113.272-1.059.122-1.528a36 36 0 0 0-1.575-4.078c-.216-.469-.741-.806-1.153-1.144-.122-.094-.375-.066-.581-.066-8.072-.366-7.847.225-10.537 6.066-2.372 5.156-4.331 10.416-4.622 16.191-.216 3.994-.628 7.997-.947 11.981-.028.291.028.647-.113.872-1.809 3.084-.506 6.216-.15 9.309.272 2.372.366 2.391-1.762 3.591-.516.281-1.003.619-1.5.938-1.059.713-2.166.759-3.15-.028-3.141-2.513-6.244-5.081-9.356-7.631-.197-.131-.356-.394-.628-.713zm34.35-71.044c.309-2.203-1.284-3.703-2.878-5.325-1.238-1.275-2.578-.647-3.853-.591-1.613.066-3.262.197-4.809.619-1.922.506-3.994.984-5.578 2.081-2.1 1.472-4.331 2.438-6.731 3.159-1.444.431-3.019.816-4.2 1.678-1.744 1.284-3.497 1.584-5.541 1.191-.947-.188-1.969-.253-2.906-.066-.675.122-1.266.694-1.903 1.069.478.516.881 1.125 1.463 1.519 1.613 1.097 3.431 1.922 4.922 3.15 4.519 3.75 9.637 4.172 15.066 3.019 3.309-.694 6.572-1.622 9.872-2.391 4.678-1.059 7.022-3.956 7.078-9.094zm-67.022 4.96a13 13 0 0 0-.216-.759c-.947-.319-1.875-.656-2.831-.938-4.641-1.275-9.3-2.466-13.247-5.494-.581-.441-1.519-.459-2.287-.6-.431-.084-.909.038-1.303-.094-2.709-.994-5.456-1.922-8.081-3.084-3.15-1.406-5.85-.216-6.6 3.122-.281 1.247-.581 2.494-.713 3.769-.066.581.066 1.303.366 1.772.816 1.219 1.744 2.372 2.691 3.506 2.709 3.216 6.328 4.359 10.378 4.275 3.084-.066 6.178-.309 9.253-.441.347-.009.741-.028 1.003.122 1.687.984 3.122.272 4.547-.591a395 395 0 0 0 5.381-3.328c.572-.384 1.097-.816 1.65-1.219zm113.466-29.081c.084-4.059-3.113-8.559-6.488-9.656-.338-.113-.881-.131-1.088.066-1.031 1.003-2.213 1.087-3.544.872-.497-.066-1.097.103-1.556.338-1.941.994-3.469 2.428-4.181 4.537-.881 2.653-1.134 5.381-.6 8.128.253 1.341.872 2.456 2.156 3.159 2.062 1.125 4.087 2.344 6.113 3.544 1.003.591 1.697.347 2.316-.656a6.2 6.2 0 0 1 1.641-1.781c3.15-2.241 4.884-5.278 5.231-8.541zm-109.969 58.959c-.009.291-.037.591-.047.881-.094 1.753.113 1.922 1.809 1.406 1.416-.412 2.831-.834 4.237-1.284 2.963-.975 5.897-1.369 8.944-.272 1.622.591 2.738-.562 2.428-2.372-.103-.628-.403-1.219-.553-1.838-.319-1.331-.581-2.653-.881-3.984-.684-3.019-1.275-6.047-2.1-9.009-.216-.759-1.059-1.538-1.8-1.903-.938-.441-2.081-.441-3.122-.684-1.434-.309-2.559.197-3.253 1.444-3 5.494-5.925 11.034-5.644 17.597zm76.472 16.725c.028 1.584-.272 3.262 1.116 4.444 2.119 1.809 6.206 2.025 8.794.581 2.709-1.528 4.397-4.706 4.003-7.631a71 71 0 0 0-.656-3.928c-.347-1.772-1.088-2.213-2.934-2.447-1.088-.131-2.306-.553-3.159-1.247-1.622-1.313-3.984-1.819-6.009-.909-1.659.75-3.338 3.384-3.178 5.137.028.459.206 1.022.525 1.313 1.397 1.313 1.697 2.934 1.491 4.688zm9.628-164.456c-1.425.131-2.409.253-3.384.291-1.875.084-3.328.937-4.669 2.222-3.562 3.45-2.616 10.378 1.772 12.844.713.403 1.687.581 2.494.469 4.003-.534 6.787-3.497 7.453-7.453.506-2.981.028-5.578-2.325-7.613-.469-.403-1.125-.628-1.35-.759z"/><path fill-rule="nonzero" d="M120.328 259.416c2.775-1.219 5.494-2.578 8.353-3.6 1.819-.656 3.066-1.641 3.338-3.516.309-2.128.431-4.294.581-6.45.122-1.819.441-2.222 2.297-2.278 1.603-.028 2.719-.909 3.872-1.875.759-.638 1.659-1.219 2.597-1.519 2.334-.75 4.706-1.537 7.116-1.894 2.897-.431 5.944-.909 8.784-.478 2.522.384 4.922 1.875 7.256 3.103 1.622.863 2.334 2.588 2.372 4.369.066 3.872 1.856 6.937 4.153 9.844 1.444 1.809 3.019 3.309 5.381 3.9.656.178 1.341.975 1.669 1.65.253.506.178 1.5-.188 1.866-.338.347-1.331.403-1.847.159-1.856-.816-3.647-.684-5.203.431-2.025 1.434-4.059 2.963-5.737 4.791-2.494 2.709-4.641 5.737-7.013 8.569-2.55 3.056-3.563 6.759-4.406 10.5-.591 2.616-2.691 3.3-4.613 4.031-1.209.469-2.269-.713-2.878-1.847-1.05-1.941-2.194-3.863-3.019-5.897-3.206-7.913-9.037-13.462-15.909-18.103-1.463-.984-3.084-1.744-4.538-2.747-.966-.656-1.763-1.575-2.625-2.372.047-.216.122-.412.187-.619zm37.706-4.435c.028-3.281-2.184-6.637-5.213-7.922-2.963-1.247-6.319.216-7.256 3.272-.516 1.678-.834 3.45-.994 5.194-.253 2.616 3.581 6.787 6.253 6.956.347.028.684.009 1.031-.047 2.963-.563 6.141-4.406 6.178-7.453z"/></svg>