<!-- Generated by IcoMoon.io -->
<svg version="1.1" xmlns="http://www.w3.org/2000/svg" width="300" height="300" viewBox="0 0 300 300">
<title>fighters-beast</title>
<path d="M189.244 0c0.328 0 0.656 0 0.975 0 0.206 0.084 0.384 0.206 0.6 0.244 5.737 1.125 11.513 2.156 17.222 3.394 10.547 2.269 21.047 4.697 30.919 9.272 0.628 0.281 1.341 0.487 2.034 0.544 2.203 0.15 4.219 0.544 5.756 2.4 0.516 0.628 1.481 0.881 2.25 1.266 2.728 1.331 5.456 2.662 8.184 3.975 1.172 0.572 2.362 1.097 3.516 1.678 2.344 1.209 4.856 2.203 6.966 3.75 3.666 2.7 7.125 5.691 10.556 8.672 3.459 3 6.253 6.572 8.728 10.453 5.1 8.063 7.181 17.063 7.969 26.325 0.45 5.278 0.975 10.612-0.394 16.003-2.269 8.972-5.522 17.381-11.766 24.319-3.366 3.731-7.191 7.059-10.884 10.491-0.938 0.872-2.062 1.631-3.234 2.119-9.647 3.994-19.303 8.044-29.044 11.794-3.872 1.481-7.978 2.419-12.047 3.281-4.969 1.069-9.544 2.906-13.191 6.459-3.572 3.478-6.872 7.237-10.284 10.856-3.206 3.394-3.891 9.675-1.641 13.8 1.509 2.738 2.888 5.55 4.238 8.372 1.059 2.241 0.628 4.631-1.031 6.337-0.572-0.666-1.125-1.313-1.697-1.969-0.759-0.881-1.387-1.022-2.175 0.094-0.572 0.797-1.416 1.809-2.269 1.941-3.009 0.506-5.362 2.297-7.856 3.75-3.253 1.903-6.694 3.666-8.606 7.209-1.697 3.131-3.375 6.3-5.147 9.394-1.238 2.184-1.903 4.453-1.706 6.994 0.113 1.397 0.066 2.841-0.188 4.209-1.341 6.947-2.794 13.884-4.191 20.822-0.084 0.422-0.131 0.853-0.15 1.294-0.113 3.938-0.15 7.884-0.309 11.822-0.272 6.206-0.909 12.441-3.45 18.122-3.694 8.25-5.784 17.128-10.153 25.106-1.275 2.306-2.691 4.116-5.156 5.091-1.116 0.45-2.034 0.516-3.094-0.394 1.481-1.613 1.247-3-0.553-4.191-0.244-0.159-0.253-0.872-0.206-1.303 0.309-2.25 0.703-4.509 1.022-6.759 0.75-5.391 1.697-10.791-2.203-15.563-0.703-0.853-1.275-1.313-2.363-1.247-2.916 0.178-5.831 0.281-8.756 0.431-2.606 0.131-3.947 1.856-3.422 4.369 0.159 0.797 0.45 1.556 0.6 2.363 0.722 3.628 1.369 7.247-0.366 10.791-0.178 0.366-0.328 0.938-0.178 1.266 1.153 2.522-0.084 4.753-0.759 7.059-0.338 1.181-0.9 1.275-1.912 0.759-2.663-1.387-4.8-3.244-6.3-5.916-1.547-2.784-2.456-5.709-3.131-8.822-1.331-6.188-3.028-12.309-4.547-18.459-0.516-2.1-1.041-4.162-0.216-6.375 0.328-0.881 0.037-2.025-0.066-3.038-0.112-1.125-0.394-2.222-0.506-3.356-0.544-5.944-1.031-11.878-1.603-17.822-0.244-2.513-0.666-4.95-0.15-7.556 0.478-2.344 0.45-4.875 0.188-7.256-0.769-7.012-3.488-13.5-6.028-20.016-0.328-0.825-1.191-1.481-1.903-2.119-1.669-1.537-3.638-2.822-5.006-4.575-1.359-1.725-2.972-2.766-4.941-3.487-0.966-0.356-1.969-0.638-2.887-1.088-2.147-1.069-4.116-1.144-6.009 0.572-0.366 0.328-1.313 0.431-1.706 0.188-0.431-0.272-0.872-1.191-0.722-1.613 0.553-1.575 0.113-2.963-0.3-4.434-0.206-0.769 0.009-1.706 0.206-2.541 0.759-3.216 0.947-6.459 0.272-9.675-0.487-2.325-1.397-4.556-1.856-6.891-0.45-2.222-1.575-3.966-3.009-5.644-2.213-2.606-4.191-5.4-6.394-8.006-1.144-1.341-2.456-2.597-3.853-3.647-1.725-1.303-3.647-2.334-5.456-3.525-2.85-1.856-5.813-3.328-9.309-3.544-1.331-0.084-2.737-0.356-3.938-0.909-4.828-2.278-9.609-4.725-14.4-7.097-0.394-0.188-0.797-0.572-1.163-0.525-2.934 0.356-5.147-1.313-7.528-2.494-0.572-0.281-1.294-0.253-1.875-0.525-1.434-0.675-3.122-1.144-4.181-2.222-6.994-7.031-13.697-14.316-18.188-23.494-2.484-5.072-3.966-10.003-3.272-15.591 0.431-3.516 0.394-7.012-0.6-10.453 0-1.631 0-3.253 0-4.884 0.328-2.025 0.797-4.041 0.966-6.084 0.431-5.316 2.212-10.256 4.219-15.122 0.572-1.359 1.547-2.634 2.588-3.694 2.466-2.522 5.194-4.781 7.613-7.359 7.406-7.912 16.912-12.609 26.475-17.109 8.812-4.153 17.766-8.006 26.747-11.794 3.675-1.547 7.509-2.944 11.4-3.675 5.362-1.022 10.856-1.416 16.303-1.941 5.484-0.525 11.062 0.094 16.462-1.519 0.703-0.216 1.584 0.159 2.391 0.244 1.537 0.178 3.056 0.422 4.584 0.487 1.022 0.038 2.053-0.281 3.066-0.272 0.675 0 1.341 0.309 2.025 0.478 0.009 0.178 0.028 0.337 0.056 0.516-0.694 0.478-1.331 1.209-2.091 1.388-1.613 0.366-3.281 0.572-4.941 0.581-1.181 0.009-1.706 0.272-1.978 1.509-0.188 0.872-0.75 1.969-1.463 2.363-2.25 1.219-4.669 2.175-7.012 3.216-0.131-0.131-0.272-0.272-0.403-0.394 0.45-0.553 0.881-1.116 1.416-1.791-0.609 0-1.191-0.094-1.734 0.009-5.053 0.994-10.125 1.912-15.131 3.094-2.128 0.506-4.284 1.313-6.15 2.466-9.272 5.728-18.441 11.588-27.647 17.428-2.147 1.359-3.731 3.3-4.163 5.794-0.647 3.722-1.331 7.491-1.387 11.241-0.094 6.891 4.116 11.391 9.422 15.009 1.997 1.369 4.031 2.728 6.187 3.816 2.344 1.181 4.781 2.541 7.313 2.934 6.422 1.003 12.909 1.537 19.369 2.212 5.184 0.544 10.313 2.203 15.619 0.844 0.3-0.084 0.647-0.009 0.975 0.009 3.797 0.3 7.069-1.266 10.284-2.972 1.884-1.003 3.647-2.344 5.634-3.112 4.237-1.603 8.1-4.153 12.694-4.903 5.316-0.872 10.481-2.906 16.041-1.753 2.334 0.478 4.753 0.553 7.069 1.059 3.694 0.797 7.575 1.313 10.969 2.85 4.209 1.913 7.969 4.781 11.953 7.181 3.797 2.297 7.481 5.278 12.394 2.972 0.037-0.028 0.112-0.009 0.159-0.028 4.95-0.919 9.919-1.809 14.859-2.794 4.303-0.853 8.578-1.819 12.863-2.766 3.891-0.872 7.8-1.697 11.662-2.728 2.241-0.6 2.822-2.063 2.203-4.275-0.366-1.294-0.572-2.634-0.825-3.966-0.825-4.406-1.238-8.953-2.541-13.219-2.391-7.791-7.219-14.241-13.031-19.772-4.491-4.284-9.497-8.063-14.344-11.981-1.669-1.359-3.394-2.784-5.334-3.628-3.666-1.603-7.003-3.638-10.069-6.159-0.506-0.403-1.003-0.947-1.584-1.116-2.119-0.609-2.719-2.203-2.887-4.144zM153.113 201.806c-0.216-0.113-0.431-0.234-0.656-0.338-0.675 0.609-1.491 1.125-2.025 1.847-0.994 1.359-1.734 2.887-2.728 4.238-0.825 1.125-1.734 2.269-2.841 3.094-3.694 2.756-7.922 1.059-8.794-3.403-0.216-1.116-0.506-2.222-0.872-3.3-0.338-0.994-1.031-1.238-1.847-0.459-1.144 1.069-2.334 2.128-3.356 3.309-0.938 1.097-0.938 2.222 0.309 3.244 0.647 0.544 1.247 1.238 1.669 1.969 1.725 3 3.478 5.981 3.938 9.544 0.188 1.425 0.666 2.85 1.209 4.209 1.191 3.009 1.706 6.103 1.763 9.366 0.084 4.819 3.281 7.828 6.862 10.669 0.3-2.7 3-5.175 0.366-7.978-0.15-0.159-0.178-0.506-0.188-0.759-0.094-2.981-0.122-5.962 1.125-8.794 3.338-7.603 5.344-15.553 6.178-23.822 0.056-0.844-0.094-1.734-0.131-2.616zM188.672 140.4c-2.859 0.009-4.734 0.919-6.347 3.281-0.919 1.331-1.659 2.794-2.522 4.181-2.466 3.909-4.95 7.8-9.375 9.881-0.478 0.216-0.9 0.638-1.219 1.059-2.147 2.794-4.284 5.606-6.366 8.456-1.097 1.519-0.853 2.203 1.022 2.55 2.55 0.488 5.175 0.694 7.706 1.238 2.587 0.553 4.762-0.178 6.966-1.434 1.041-0.6 2.306-0.909 3.516-1.125 1.397-0.253 2.072-0.994 2.306-2.334 0.188-1.116 0.394-2.222 0.703-3.309 1.819-6.516 3.675-13.012 5.494-19.528 0.384-1.434-0.628-2.906-1.875-2.906zM97.481 148.828c0.628 6.675 1.416 13.162 4.762 19.050 0.909 1.603 2.063 2.728 3.844 3.272 1.031 0.309 2.278 0.525 2.963 1.238 2.25 2.344 4.978 2.325 7.847 2.063 1.997-0.188 4.003-0.253 6-0.488 0.759-0.084 1.481-0.459 2.222-0.694-0.244-0.628-0.431-1.266-0.75-1.847-0.159-0.309-0.609-0.478-0.816-0.769-0.816-1.238-1.913-2.428-2.278-3.797-0.45-1.725-1.266-2.85-2.756-3.769-1.678-1.041-3.3-2.241-4.791-3.544-1.463-1.275-2.691-2.841-4.125-4.162-2.888-2.691-5.794-5.344-8.813-7.903-0.6-0.506-1.706-0.675-2.513-0.544-0.356 0.084-0.544 1.247-0.797 1.903zM129.919 201.159c-0.75-0.825-1.275-1.425-1.809-2.006-0.506 0.488-1.519 1.181-1.416 1.416 0.366 0.872 1.097 1.584 1.697 2.372 0.422-0.487 0.844-0.975 1.519-1.781zM196.65 139.472c0.788-1.144 1.369-1.997 2.025-2.916-2.072-0.028-2.513 0.516-2.025 2.916z"></path>
<path d="M14.344 242.063c0.094-0.159 0.178-0.356 0.3-0.525 8.222-12.563 16.434-25.134 24.703-37.678 1.275-1.941 1.237-3.525-0.028-5.513-1.191-1.884-2.119-4.059-2.644-6.244-2.587-10.856-5.063-21.741-7.453-32.644-0.384-1.762-0.272-3.675-0.15-5.494 0.122-1.913 1.341-3.009 3.272-3.234 2.391-0.253 4.725-1.181 7.209-0.244 0.647 0.244 1.659-0.272 2.428-0.6 0.938-0.403 1.509-0.206 1.678 0.759 0.178 0.947 0.272 1.931 0.3 2.906 0.309 10.434 1.209 20.822 4.603 30.769 1.116 3.281 2.784 6.488 4.678 9.394 3.525 5.4 7.275 10.65 11.184 15.797 5.859 7.706 13.219 13.725 21.825 18.188 3.122 1.613 6.337 3.066 9.516 4.584 2.906 1.387 4.097 3.628 3.628 6.741-0.384 2.484 0 4.856 1.181 7.097 0.384 0.722 0.769 1.434 1.041 2.203 1.087 2.916-0.75 5.428-3.844 4.884-1.791-0.309-3.647-1.144-5.128-2.213-2.419-1.734-4.884-3.037-7.828-3.75-2.091-0.506-4.069-1.706-5.944-2.85-1.809-1.097-3.356-2.588-5.1-3.769-1.603-1.069-3.337-1.95-5.025-2.934-0.938-0.544-2.006-0.975-2.728-1.725-3.497-3.628-6.938-7.313-10.303-11.063-0.647-0.722-1.003-1.762-1.331-2.719-0.394-1.144-0.947-1.453-2.184-1.238-4.669 0.844-9.009 2.522-13.153 4.819-0.797 0.45-1.669 0.816-2.391 1.387-5.212 4.069-10.406 8.184-15.581 12.309-1.144 0.909-2.128 2.025-3.234 2.981-1.481 1.294-2.213 1.191-3.497-0.403z"></path>
<path d="M252.066 158.409c0.084 1.556 0.113 2.756 0.216 3.947 0.206 2.372-0.3 4.556-1.144 6.816-1.781 4.819-3.272 9.741-4.856 14.634-0.872 2.672-1.641 5.391-2.513 8.063-0.431 1.341-0.459 2.522 0.75 3.525 0.403 0.338 0.656 0.872 0.975 1.303 4.978 6.759 9.975 13.519 14.953 20.278 0.253 0.356 0.506 0.75 0.853 0.975 4.153 2.644 6.666 6.769 9.544 10.556 0.131 0.178 0.272 0.338 0.394 0.516 1.219 1.688 1.434 3.309 0.572 4.153-0.994 0.947-3.544 1.031-4.884 0.056-2.362-1.725-4.556-3.731-7.059-5.222-2.766-1.659-5.709-3.084-8.728-4.191-2.25-0.825-3.994-1.997-5.428-3.881-0.581-0.759-1.613-1.387-2.55-1.659-2.1-0.581-3.872-1.613-5.419-3.131-3.403-3.309-6.872-3.6-10.8-0.947-0.178 0.122-0.366 0.356-0.544 0.338-2.569-0.112-2.934 2.006-3.975 3.628-1.303 2.006-3.028 3.759-4.584 5.588-4.706 5.55-9.731 10.8-15.431 15.366-0.797 0.638-1.688 1.181-2.569 1.688-2.344 1.341-4.734 2.616-7.088 3.966-2.119 1.219-4.069 0.366-4.547-2.091-0.609-3.188-1.172-6.394-1.688-9.591-0.338-2.119 0.178-2.906 2.062-3.881 0.75-0.384 1.463-0.966 1.969-1.613 1.022-1.331 1.856-2.794 2.784-4.191 0.694-1.041 1.434-1.603 2.85-1.059 0.638 0.244 1.697-0.094 2.372-0.506 7.922-4.753 14.287-11.213 20.109-18.291 7.603-9.244 12.975-19.744 16.8-30.984 1.462-4.303 1.875-8.981 2.578-13.528 0.338-2.222 0.309-4.528 0.3-6.797 0-1.612 0.694-2.55 2.203-2.972 0.731-0.206 1.509-0.328 2.156-0.675 0.694-0.384 1.434-0.872 1.875-1.509 1.219-1.791 3.459-2.184 5.034-0.731 2.278 2.091 2.738 4.828 2.644 7.734-0.056 1.575-0.15 3.15-0.206 4.359z"></path>
</svg>
