<svg xmlns="http://www.w3.org/2000/svg" xml:space="preserve" fill-rule="evenodd" stroke-linejoin="round" stroke-miterlimit="2" clip-rule="evenodd" viewBox="0 0 300 300"><path fill-rule="nonzero" d="M285.422 3.103c-1.406 1.237-2.681 2.653-4.238 3.684-2.194 1.463-4.097 3.019-5.625 5.269-3.975 5.878-8.297 11.503-12.366 17.325-1.547 2.212-2.775 4.65-4.153 6.984-.225.375-.459.769-.722 1.116a9811 9811 0 0 1-16.547 22.538c-.291.403-.6 1.003-.984 1.087-2.128.431-2.531 2.166-3.319 3.778-.9 1.819-1.931 3.75-3.403 5.072-2.616 2.344-4.013 5.391-5.737 8.297-1.941 3.281-4.003 6.506-6.103 9.694-.891 1.35-2.934 1.584-3.919.337-1.003-1.275-1.781-2.803-2.306-4.331-.262-.769-.009-1.987.469-2.653 1.378-1.819 1.969-3.853 2.072-6.047.197-5.1.412-10.209.431-15.328 0-1.866-.431-3.75-.9-5.559-.459-1.734-1.519-2.222-3.019-1.322-2.831 1.725-5.559 3.609-8.269 5.513-3.891 2.747-7.669 5.672-11.606 8.381-5.213 3.6-10.528 7.013-13.931 12.628-1.219 2.016-3.6 1.987-4.903-.009-2.916-4.444-6.319-8.616-7.847-13.837-.234-.816-.487-1.931-.141-2.569.572-1.041 3.197-1.406 4.228-1.069.553.197 1.275.225 1.838.037 2.194-.694 4.294-1.781 6.534-2.212 4.097-.787 7.847-2.137 11.269-4.641 4.472-3.281 9.159-6.263 13.697-9.459 1.819-1.275 2.044-2.419 1.003-4.444a149 149 0 0 0-3.872-6.984c-.347-.581-.928-1.088-1.5-1.491-1.041-.722-2.241-1.247-3.253-2.025-1.416-1.087-2.766-1.266-4.491-.666-3.666 1.266-9.797-2.212-10.716-5.887-.056-.206-.038-.431-.084-.834.928-.122 1.847-.375 2.766-.366 3.206.038 6.431.169 9.647.263.441.009.9.056 1.331-.009 3.956-.638 7.903-1.294 11.869-1.959 5.888-.984 11.784-1.997 17.681-2.944 3.234-.525 6.478-.947 9.713-1.416a3.3 3.3 0 0 0 .806-.197c6.319-2.156 12.628-4.359 18.956-6.459 5.362-1.781 10.809-3.347 16.153-5.184 3.169-1.088 6.45-2.016 9.056-4.378 1.594-1.462 2.747-1.041 4.434 1.247.028.375.028.712.028 1.041zM66.572 87.628c-1.819-2.672-1.678-2.428-4.059-.769-10.725 7.519-15.356 19.003-20.1 30.431-.122.309-.253.638-.262.956-.262 8.213-1.153 16.491 1.275 24.506 1.359 4.491 3.394 8.794 5.241 13.134.309.722 1.125 1.378 1.875 1.734 1.584.778 2.081 1.706 1.734 3.403-.816 3.9-1.556 7.809-2.334 11.709-.122.6-.15 1.266-.459 1.762-1.406 2.269-1.378 4.734-1.266 7.256.056 1.209.056 2.475-.262 3.609-.487 1.753-1.725 2.278-3.366 1.528-5.297-2.447-10.556-4.922-15.019-8.794-2.531-2.194-4.519-4.706-5.653-7.875-.9-2.503-1.866-4.988-2.916-7.434-2.4-5.625-3.516-11.606-4.978-17.494-.441-1.791-1.219-3.497-1.809-5.25-.141-.403-.169-.863-.169-1.294.056-2.531.141-5.053.206-7.584 0-.169-.056-.337-.028-.497.581-3.581.891-7.256 1.847-10.744 1.181-4.378 2.719-8.672 4.416-12.881 2.213-5.484 4.584-10.931 7.172-16.256 1.678-3.487 3.956-6.666 5.784-10.097 2.944-5.569 7.781-9.253 12.741-12.703 4.406-3.075 9.169-5.616 13.781-8.363 1.528-.9 3.056-1.791 4.631-2.625a9.6 9.6 0 0 1 2.156-.844c3.262-.834 6.544-1.622 9.834-2.428a.4.4 0 0 0 .15-.056c5.325-3.806 11.897-3.15 17.794-4.894 1.491-.441 3.169-.178 4.753-.403 1.566-.225 3.197-.431 4.65-1.012 1.434-.581 2.709-.872 4.144-.197.347.169.75.337 1.116.309 3.028-.234 5.381.919 7.256 3.262.366.441.984.712 1.528.975 3.572 1.781 7.172 3.497 10.744 5.306 1.088.544 1.969.459 3.141.066 1.35-.459 2.888-.431 4.35-.431.684 0 1.406.366 2.016.741 5.756 3.422 10.688 7.641 15.056 12.853 3.291 3.919 4.931 8.419 7.059 12.778 2.831 5.831 5.709 11.653 8.091 17.691 1.116 2.822 1.331 6.056 1.547 9.141.375 5.381.684 10.772.572 16.144-.094 5.138-.469 10.313-2.766 15.094-.141.291-.309.609-.338.928-.628 7.228-4.013 13.313-8.072 19.059-2.906 4.116-5.728 8.325-9.572 11.709-1.472 1.294-2.419 3.178-3.769 4.65-3.881 4.238-7.5 8.784-13.144 10.959-1.003.384-1.706 1.519-2.616 2.213-1.162.891-2.306 1.903-3.628 2.484-2.887 1.266-5.906 2.194-8.812 3.403-2.456 1.013-4.116.722-5.447-1.613-.628-1.097-1.013-2.512-.984-3.778.066-4.041-.666-7.922-1.519-11.85-.656-3-.713-6.159-.844-9.253-.028-.628.713-1.472 1.322-1.866.366-.225 1.237.122 1.753.431.497.291.834.872 1.247 1.303 1.275 1.331 2.334 1.181 3.019-.544.628-1.584 1.162-3.084 3.056-3.656.6-.178.984-1.013 1.5-1.528 4.875-4.781 9.778-9.534 14.663-14.325 3.084-3.028 4.434-6.956 5.972-10.894 1.866-4.753 1.444-9.863 2.963-14.616.094-.319.206-.656.178-.975-.384-5.109-.609-10.238-1.275-15.309-.262-2.053-1.294-4.116-2.372-5.916-2.166-3.609-4.613-7.041-6.956-10.547a4.8 4.8 0 0 0-.741-.9 348 348 0 0 0-4.734-4.35c-6.516-5.888-14.016-9.647-22.866-10.519-1.65-.169-3.309-.403-4.959-.553-1.809-.169-3.459-.178-5.269.722-1.753.872-3.984.741-5.991 1.163-4.125.872-8.25 1.753-12.328 2.794-3.094.787-5.513 2.775-7.716 5.044-.919.891-1.894 1.706-2.906 2.644z"/><path fill-rule="nonzero" d="M134.559 272.297c.094-1.219.234-2.428.263-3.656.037-1.556-.844-2.503-2.269-2.512-1.303-.009-2.025.872-1.969 2.503.028.666.347 1.35.253 1.969-.15.947-.384 1.941-.9 2.719-.684 1.003-1.566 1.125-2.644.169-2.428-2.184-5.006-4.238-7.5-6.347-2.569-2.156-5.475-3.028-8.841-2.503-2.128.338-3.928-1.116-4.65-3.422-3.197-10.088-6.375-20.175-9.619-30.244-.206-.638-.666-1.322-1.209-1.697-2.363-1.641-4.809-3.169-7.228-4.734-.497-.338-1.172-.544-1.491-1.003-3.516-4.903-7.228-9.694-10.378-14.85-1.734-2.85-3.469-5.794-4.922-8.794-2.297-4.753-4.388-9.675-4.809-15.103-.319-4.088-1.172-8.156-1.247-12.244-.112-5.241.15-10.491.572-15.731.225-2.794 1.116-5.541 1.706-8.306.816-3.825 2.1-7.462 4.125-10.838 2.053-3.431 3.891-6.975 5.991-10.397.769-1.247 1.903-2.306 2.991-3.319 1.669-1.556 3.6-2.85 5.109-4.519 4.875-5.391 11.466-8.531 16.959-13.116 2.541-2.128 5.484-3.797 8.091-5.859.956-.769 1.725-2.016 2.137-3.197.891-2.559 3.741-3.891 6.131-2.597 1.556.844 3.122 1.697 4.603 2.681 2.297 1.547 4.069 3.525 5.081 6.206.816 2.184 1.959 4.228 2.906 6.347.947 2.1.487 3.825-1.444 5.044-3.047 1.922-6.141 3.75-9.216 5.625-.413.263-.806.6-1.181.919-3.234 2.878-6.487 5.756-9.684 8.672-.769.694-1.266 1.669-1.987 2.419-.684.694-1.406 1.547-2.25 1.809-1.237.375-1.941 1.041-2.616 2.072a173 173 0 0 1-5.859 8.494c-3.197 4.303-5.194 9.028-5.381 14.438-.197 5.766-.497 11.531-.459 17.297.009 1.922.891 3.862 1.5 5.756.806 2.475 1.734 4.903 2.597 7.35.656 1.819 1.237 3.684 1.959 5.475.872 2.213 1.725 4.462 2.85 6.544 1.013 1.875 2.166 3.75 3.609 5.306 2.447 2.644 5.166 5.044 7.781 7.547 1.463 1.388 2.213 1.491 3.797.347 1.837-1.303 3.469-2.794 5.887-3.262 1.322-.262 2.344-1.791 3.656-2.513 3.15-1.734 6.375-3.375 9.591-4.988 1.612-.806 3.028-.581 4.144.956 1.753 2.447 3.919 4.031 6.956 4.35.319.028.638.206.919.375 3.469 2.072 7.256 3.309 11.184 4.181.431.094.862.225 1.294.347 1.809.516 2.672 1.5 2.616 2.963-.066 1.5-1.387 3.253-2.878 3.487-2.072.338-3.347 1.678-4.462 3.225-1.153 1.584-.366 3.178 1.622 3.431 1.847.234 3.197-.628 4.35-1.959.9-1.041 1.781-2.137 2.775-3.103 1.35-1.294 2.934-1.622 4.762-1.069 5.541 1.706 10.931 3.741 15.994 6.666 3 1.734 6.347 2.887 9.487 4.416 2.184 1.069 4.247 2.334 6.375 3.497.234.141.469.403.713.413 2.475.122 3.684 2.072 5.128 3.609.384.412.694 1.359.487 1.809-.338.694-1.116 1.622-1.734 1.65-1.781.084-3.15.638-4.491 1.819-.553.488-1.819.525-2.616.291-2.672-.759-5.156-.309-7.838.169-4.838.862-8.475 4.031-12.834 5.728-1.116.431-1.416 1.378-1.059 2.475.628 1.931.291 3.609-1.144 5.053-.15.15-.319.338-.375.544-1.434 4.35-5.081 6.712-8.381 9.394-2.372 1.931-2.803 4.209-1.247 6.881.956 1.622 2.072 3.178 2.887 4.866 1.041 2.128 1.781 4.387 2.794 6.534.759 1.622 1.697 3.169 2.681 4.669.694 1.059 1.622 1.959 2.4 2.972.666.872 1.528 1.791.609 2.962-.975 1.238-2.072 2.587-3.863 1.997-3.084-1.012-6.366-1.641-8.822-4.041-.787-.778-1.678-1.462-2.484-2.213-2.428-2.241-5.184-3.9-8.119-5.428-4.931-2.588-10.238-4.669-14.063-9.028-.291-.337-.666-.581-1.041-.816-3.338-2.137-3.347-2.166-3.141-6.019z"/></svg>