<!-- Generated by IcoMoon.io -->
<svg version="1.1" xmlns="http://www.w3.org/2000/svg" width="300" height="300" viewBox="0 0 300 300">
<title>fighters-destroyer</title>
<path d="M303.534 216.356c-1.556 2.494-2.016 2.531-4.725 1.172-5.691-2.831-10.444-6.694-14.437-11.7-2.597-3.253-5.953-5.887-8.691-9.028-3.178-3.638-6.047-7.547-9.075-11.316-2.597-3.216-5.222-6.403-7.884-9.563-1.003-1.172-1.631-1.144-2.447 0.234-2.606 4.416-5.147 8.869-7.706 13.322-0.487 0.834-0.844 1.725-1.397 2.494-1.022 1.406-2.278 1.556-3.647 0.459-0.459-0.384-0.956-0.778-1.284-1.275-2.419-3.647-4.922-7.247-7.191-10.978-1.781-2.925-3.347-5.972-4.875-9.037-0.947-1.875-1.678-3.872-2.475-5.822-0.45-1.125-0.122-2.081 1.003-2.475 2.344-0.872 3.441-2.7 4.416-4.838 3.487-7.613 6.919-15.234 8.691-23.438 0.628-2.925 0.581-6 0.853-9.131 2.513 0.778 3.834 2.728 4.913 5.034 2.091 4.453 4.134 8.962 6.469 13.294 1.275 2.372 3.122 4.425 4.716 6.619 0.234 0.319 0.544 0.609 0.881 0.816 1.556 0.984 2.794 0.516 3.122-1.294 0.338-1.856 1.041-3.422 2.484-4.688 0.422-0.366 0.609-1.022 0.844-1.566 0.525-1.163 1.341-1.913 2.672-1.828 1.284 0.094 2.119 1.003 2.241 2.147 0.684 7.097 4.425 12.9 7.988 18.731 4.059 6.666 6.769 13.931 9.947 20.991 4.65 10.331 9.469 20.578 14.222 30.863 0.103 0.225 0.253 0.431 0.384 0.628 0 0.394 0 0.787 0 1.2zM270.206 172.8c0.216-0.037 0.431-0.094 0.656-0.131-0.066-0.741-0.113-1.491-0.169-2.231-0.722 0.131-1.444 0.281-2.147 0.422 0.009 0.169 0.028 0.319 0.038 0.488 0.525 0.487 1.069 0.975 1.622 1.462z"></path>
<path d="M146.081 295.313c-2.597-1.491-2.991-2.297-2.644-5.241 0.881-7.5 1.697-15.009 2.644-22.519 0.834-6.591 1.819-13.162 2.672-19.753 0.328-2.522 0.487-5.072 0.713-7.613 0.122-1.566-0.909-2.381-2.213-2.269-4.622 0.441-9.225-1.144-13.847 0.075-1.631 0.441-3.159-0.15-4.134-1.556-1.022-1.453-0.675-2.991 0.131-4.425 2.634-4.706 5.334-9.366 7.969-14.072 1.2-2.147 2.531-4.275 3.394-6.553 1.491-3.9 4.444-5.691 8.269-6.047 2.419-0.225 4.622-0.853 6.759-1.941 1.594-0.806 3.094-0.919 4.772-0.103 1.603 0.778 3.291 0.769 4.969 0 0.562-0.253 1.266-0.262 1.912-0.3 0.713-0.038 1.453 0.159 2.109 0 3.178-0.787 5.925 0.487 8.728 1.622 0.609 0.234 1.209 0.497 1.828 0.703 2.259 0.75 3.328 2.316 3.197 4.678-0.113 1.762-0.909 2.447-2.634 2.269-0.197-0.028-0.394-0.066-0.591-0.103-3.9-0.9-4.2-0.75-5.991 2.934-0.806 1.678-1.566 3.375-2.344 5.063-1.903 4.059-1.847 8.287-1.134 12.572 0.197 1.247 0.881 1.856 2.081 1.491 1.716-0.525 3.422-1.162 5.072-1.866 2.559-1.106 4.594-0.234 5.119 2.475 0.131 0.666-0.103 1.631-0.544 2.147-2.316 2.634-4.050 5.588-5.494 8.803-0.834 1.856-2.447 3.384-3.741 5.016-0.647 0.816-1.566 1.472-2.044 2.372-2.916 5.344-5.766 10.725-8.588 16.125-3.028 5.794-6.009 11.606-8.953 17.447-0.787 1.566-1.425 3.225-2.072 4.875s-1.566 3.019-3.263 3.712c-0.713 0.009-1.406 0.009-2.119 0.009zM134.897 230.541c-0.647 0.844-0.975 1.275-1.453 1.884 0.769 0.619 1.463 1.209 2.213 1.716 0.075 0.056 0.806-0.609 0.75-0.722-0.384-0.909-0.909-1.753-1.528-2.887z"></path>
<path d="M111.675 162.309c0.919-1.162 1.791-1.003 2.663-0.216 0.919 0.844 1.922 1.275 3.15 0.769 0.319-2.231-1.162-4.584-3.206-5.138-2.081-0.553-4.106-1.303-6.375-0.647-0.544 0.169-1.472-0.516-2.044-1.003-0.703-0.619-1.163-1.537-1.856-2.175-0.628-0.581-1.463-0.947-2.213-1.397-0.169-0.103-0.403-0.103-0.553-0.225-3.469-2.672-7.125-5.222-7.8-10.059-0.084-0.647-0.103-1.359-0.384-1.922-1.463-2.766-1.106-5.531-0.356-8.381 0.459-1.753 0.787-3.544 1.069-5.325 0.384-2.372 0.9-4.688 2.419-6.6 2.775-3.441 4.341-7.303 4.613-11.747 0.122-2.147 0.872-4.256 1.003-6.403 0.187-2.85 0.103-5.719 0.075-8.606-0.075-8.119-0.169-16.219-0.3-24.338-0.028-1.359-0.169-2.709-0.281-4.069-0.553-6.441 1.003-12.403 4.191-17.944 1.922-3.347 3.938-6.638 5.953-9.938 0.384-0.619 0.9-1.237 1.491-1.65 5.259-3.741 10.547-7.453 15.816-11.147 0.328-0.225 0.675-0.469 1.041-0.619 6.122-2.344 11.091-6.525 16.397-10.172 3.394-2.334 6.412-5.166 10.313-6.797 2.756-1.162 5.531-1.978 8.484-1.912 11.719 0.253 22.369 3.384 31.003 11.784 1.622 1.594 3.281 3.15 4.978 4.641 1.359 1.181 2.916 2.156 4.228 3.384 1.791 1.678 3.647 3.375 5.109 5.325 2.859 3.834 5.344 7.969 8.25 11.747 3.038 3.956 4.172 8.456 4.387 13.228 0.169 3.703-0.112 7.434-0.187 11.175-0.028 1.162-0.038 2.316-0.056 3.478-0.038 4.388 0.112 8.775-0.131 13.153-0.366 6.619 0.45 13.134 1.819 19.509 0.853 4.003 2.794 7.894 4.725 11.559 2.644 4.997 3.309 10.425 4.331 15.787 0.103 0.553-0.094 1.2-0.253 1.781-2.662 9.131-6.806 17.644-10.659 26.287-0.516 1.172-1.528 1.959-2.738 1.8-3.806-0.525-7.369 0.712-11.034 1.2-1.744 0.234-3.516 0.45-5.269 0.403-2.109-0.028-3.178 1.106-4.069 2.775-0.75 1.387-1.603 2.728-2.55 3.994-0.956 1.284-0.834 4.059 0.628 5.269 1.5 1.238 1.463 2.559 1.209 4.303-0.872 6.019-3.225 11.625-4.809 17.428-0.787 2.869-2.381 5.156-4.838 6.919-0.938 0.675-1.659 0.647-2.419-0.028-1.519-1.303-2.372-2.953-2.419-5.006-0.038-1.463-0.103-2.925-0.262-4.359-0.188-1.594-1.209-2.016-2.531-1.022-1.125 0.844-2.194 1.781-3.225 2.738-1.688 1.556-3.497 1.922-5.531 0.769-1.303-0.75-2.316-0.656-3.15 0.769-0.675 1.125-1.884 1.088-2.991 0.834-1.134-0.253-1.641-1.125-1.697-2.241-0.169-2.803-0.516-5.588 0.544-8.372 0.609-1.594-1.406-5.916-2.878-6.844-0.975-0.619-1.847-0.319-2.316 0.581-2.081 3.863-3.394 7.866-2.044 12.291 0.722 2.362-0.216 3.628-2.662 3.628-0.403 0-0.816 0.009-1.209-0.056-2.991-0.525-5.85-0.338-8.691 0.919-1.697 0.75-2.541 0.253-3.469-1.369-1.266-2.241-2.484-4.491-3.75-6.731-0.291-0.516-0.609-1.088-1.059-1.453-0.384-0.3-1.022-0.544-1.463-0.45-0.3 0.066-0.591 0.75-0.647 1.2-0.197 2.072-0.037 4.059 0.834 6.047 0.684 1.537 0.872 3.291 1.275 4.95 0.225 0.938 0.591 1.847 0.647 2.784 0.037 0.647-0.169 1.453-0.563 1.941-0.844 1.041-1.922 1.903-2.841 2.897-1.556 1.716-3.113 1.828-4.838 0.262-1.884-1.688-2.766-3.938-2.831-6.328-0.15-5.241-1.894-10.181-2.597-15.3-0.834-6.066-3.506-11.072-7.256-15.684-1.716-2.175-3.469-4.397-5.297-6.694zM205.838 115.922c-3.638 1.284-7.931 2.316-11.672 4.847-1.041 0.713-2.334 1.022-3.516 1.528-0.684 0.291-1.575 0.403-1.978 0.919-2.344 2.963-5.391 4.913-8.784 6.441-0.422 0.197-1.022 1.022-0.909 1.303 0.956 2.409 1.453 5.072 3.544 6.891 3.131 2.737 6.637 4.331 10.894 4.003 0.713-0.056 1.425 0.113 2.119 0 2.044-0.337 4.228-0.422 6.075-1.247 3.328-1.519 6.506-3.403 9.656-5.306 2.728-1.659 4.481-4.134 5.456-7.181 0.384-1.2 0.262-2.241-0.516-3.263-1.556-2.053-3.019-4.163-4.566-6.206-1.303-1.687-3.038-2.597-5.794-2.737zM131.709 140.625c0-0.037-0.009-0.094-0.009-0.131 2.4-0.225 4.847-0.281 7.2-0.75 2.222-0.441 4.35-1.331 6.506-2.044 0.094-0.028 0.159-0.131 0.225-0.188 1.369-1.266 2.766-2.494 4.134-3.769 0.947-0.872 0.769-1.641-0.262-2.316-1.181-0.769-2.316-1.594-3.516-2.344-3.713-2.306-7.472-4.556-11.166-6.881-2.081-1.303-4.238-2.559-6.141-4.106-2.606-2.147-6.9-2.231-9.272 0.197-2.4 2.456-4.050 5.409-4.95 8.709-0.169 0.656 0.094 1.631 0.487 2.212 1.275 1.8 2.728 3.488 4.106 5.222 3.188 4.022 8.063 4.65 12.488 6.169 0.066 0.037 0.103 0.028 0.159 0.028zM172.969 164.147c-0.291-1.2-0.488-2.081-0.722-2.953-0.234-0.919-0.619-1.819-0.703-2.756-0.366-4.003-0.75-8.016-0.956-12.019-0.225-4.294-1.744-7.416-6.478-7.997-0.234-0.028-0.488-0.263-0.703-0.225-0.488 0.075-1.275 0.112-1.406 0.422-0.581 1.237-1.162 2.559-1.369 3.891-0.487 3.066-0.722 6.178-1.106 9.253-0.169 1.387-0.731 2.766-0.684 4.153 0.103 2.306-0.253 4.481-1.022 6.628-0.516 1.453 0.328 2.306 1.791 1.819 0.609-0.197 1.041-0.853 1.575-1.284 0.938-0.741 1.856-1.472 2.841-2.138 0.234-0.159 0.872-0.122 1.069 0.075 2.081 2.081 4.884 2.213 7.903 3.122zM107.597 98.438c-1.125 1.556-2.606 8.747-2.222 10.472 1.978-0.544 3.825-8.831 2.222-10.472zM169.313 25.987c-1.106 1.275-0.544 5.381 0.778 6.375 1.331-1.369 0.881-5.334-0.778-6.375zM129.244 49.116c-1.491 1.097-1.659 5.409-0.291 6.337 1.069-1.303 1.294-5.006 0.291-6.337z"></path>
<path d="M57.319 154.359c1.041-0.769 1.856-1.134 2.334-1.762 4.228-5.644 8.484-11.25 12.497-17.053 1.856-2.672 3.769-5.166 6.234-7.322 1.678-1.472 3.019-3.328 4.481-5.034 0.544-0.628 1.022-1.303 1.687-2.175 0.216 0.609 0.422 0.909 0.422 1.209 0.028 3.159 0.056 6.328 0.009 9.497 0 0.422-0.319 0.834-0.506 1.238-0.216 0.45-0.581 0.872-0.684 1.331-0.787 3.769-1.575 7.537-2.241 11.316-0.103 0.581 0.234 1.369 0.619 1.894 2.306 3.178 4.65 6.337 7.050 9.441 1.819 2.334 4.331 3.281 7.228 3.084 1.2-0.094 2.241 0.103 3 1.041 1.003 1.2 2.016 2.409 2.859 3.713 0.3 0.459 0.263 1.322 0.066 1.875-0.225 0.628-0.741 1.2-1.266 1.659-3.206 2.916-6.581 5.653-9.666 8.681-7.312 7.256-16.191 12.45-24.366 18.581-0.722 0.525-1.603 0.834-2.381 1.284-1.519 0.872-3.084 1.659-4.491 2.691-1.491 1.069-2.4 1.341-3.516-0.066s-1.959-3.131-2.616-4.837c-1.003-2.625-1.8-5.334-2.559-8.034-0.516-1.828-0.853-3.713-1.228-5.587-0.422-2.203-0.881-2.606-2.916-1.744-2.813 1.209-5.625 2.475-8.222 4.069-4.162 2.541-8.231 5.269-12.206 8.147-2.869 2.091-5.681 4.359-8.203 6.863-4.266 4.256-8.503 8.456-13.856 11.353-0.656 0.356-1.172 1.003-1.828 1.331-0.844 0.422-1.763 0.675-2.662 0.994-0.131-0.131-0.281-0.281-0.422-0.422 0.225-0.769 0.253-1.688 0.713-2.297 6.478-8.813 12.891-17.672 19.584-26.297 3.769-4.856 7.697-9.581 11.55-14.363 3.206-3.984 5.962-8.213 8.906-12.319 1.659-2.334 3.797-4.322 5.409-6.666 1.566-2.269 2.794-4.772 4.097-7.209 1.2-2.194 2.728-3.047 5.166-2.897 1.106 0.075 1.144 0.853 1.172 1.594 0.084 3.225 0.084 6.459 0.187 9.684 0.066 1.022 0.319 2.044 0.544 3.488zM10.275 202.8c3.834-1.603 5.738-3.684 5.466-5.878-2.662 0.544-4.997 3-5.466 5.878z"></path>
<path d="M86.409 66.178c1.050 0.45 1.631 1.491 2.091 2.794 1.172 3.309 1.134 6.694 1.294 10.116 0.197 4.256 0.984 8.484 1.275 12.759 0.253 3.647 0.178 7.341 0.216 11.006 0 0.291-0.225 0.647-0.45 0.834-0.103 0.075-0.591-0.131-0.741-0.319-2.981-4.509-8.213-4.734-12.6-6.394-3.488-1.303-7.35-1.659-11.053-2.381-0.787-0.15-1.641-0.253-2.409-0.103-2.775 0.544-5.428-0.066-8.063-0.769-2.578-0.694-5.072-1.659-7.669-2.278-1.519-0.366-3.159-0.422-4.725-0.366-3.516 0.131-7.059 0.225-10.547 0.656-6.45 0.787-12.872 1.913-18.956 4.331-1.566 0.628-2.091-0.197-2.644-1.425 0.403-0.319 0.788-0.619 1.181-0.919 9.797-7.528 20.784-12.834 32.297-17.166 0.9-0.337 1.622-1.106 2.466-1.622 1.022-0.609 2.053-1.209 3.15-1.688 1.453-0.647 3-1.059 4.416-1.762 1.659-0.816 3.253-1.819 4.856-2.766 1.172-0.694 2.072-0.319 2.334 0.872s0.141 2.447 0.178 3.675c0.028 1.069 0.028 2.137 0.037 3.188 1.022-0.253 2.091-0.394 3.066-0.778 5.653-2.25 11.306-4.538 16.903-6.919 1.369-0.562 2.578-1.594 4.106-2.578z"></path>
<path d="M232.031 59.906c0.581 0.947 1.144 1.828 1.678 2.737 2.672 4.622 9.375 4.866 12.272 0.328 0.609-0.947 0.769-2.278 0.834-3.45 0.075-1.322 0.731-1.566 1.753-1.322 0.675 0.15 1.341 0.422 1.912 0.834 2.025 1.491 4.284 1.987 6.759 2.194 2.775 0.225 5.559 0.853 8.269 1.575 2.766 0.722 5.466 1.753 8.166 2.737 0.975 0.347 1.828 1.031 2.794 1.369 1.659 0.563 3.319 1.162 5.044 1.434 3.469 0.544 6.572 1.828 9.394 3.9 1.744 1.294 3.487 2.541 5.222 3.844 0.488 0.356 0.881 0.816 1.688 1.566-1.087 0.422-1.913 0.984-2.738 1.022-3.019 0.15-6.047 0.131-9.075 0.131-0.788 0-1.659 0-2.4-0.263-3.394-1.247-6.872-0.675-10.341-0.591-3.113 0.075-6.216 0.103-9.337 0.225-1.041 0.037-2.109 0.15-3.094 0.441-2.7 0.806-5.4 1.622-8.025 2.644-2.419 0.947-4.819 2.006-7.078 3.291-2.859 1.613-5.522 3.544-8.316 5.241-1.969 1.181-3.516 2.663-4.331 4.847-0.253 0.684-0.75 1.284-1.2 2.016-1.687-1.2-2.137-2.859-2.184-4.65-0.066-2.531 0-5.044-0.038-7.566-0.131-6.797-0.253-13.603-0.459-20.4-0.103-3.066-0.216-3.066 2.831-4.163z"></path>
<path d="M115.388 195.647c0.544 2.644-0.666 4.65-2.241 6.525-0.253 0.3-0.553 0.628-0.909 0.75-4.903 1.688-9.112 4.669-13.491 7.322-2.541 1.538-5.034 3.15-7.491 4.809-4.584 3.113-9.056 6.347-13.678 9.394-2.175 1.425-4.631 2.409-6.862 3.769-1.884 1.134-3.656 2.447-5.4 3.769-0.703 0.525-1.275 0.919-2.156 0.441-0.853-0.459-0.938-1.097-0.563-1.903 0.037-0.094 0.122-0.197 0.103-0.281-0.769-3.759 1.884-5.944 3.928-8.372 7.772-9.262 15.572-18.497 23.344-27.759 1.134-1.359 2.578-2.475 3.113-4.35 0.187-0.656 1.303-1.284 2.091-1.472 2.625-0.628 4.678-2.109 6.872-3.581 1.828-1.238 4.266-1.594 6.469-2.213 0.253-0.066 0.975 0.591 1.041 0.984 0.356 2.381 1.688 4.256 2.934 6.234 0.947 1.472 1.744 3.047 2.541 4.613 0.197 0.366 0.234 0.872 0.356 1.322zM71.269 223.716c-0.591-0.919-1.275-1.434-2.091-0.544-0.731 0.787-1.106 1.716 0.169 2.569 0.628-0.675 1.247-1.322 1.922-2.025z"></path>
<path d="M244.35 234.806c-4.425-4.453-9-8.775-13.266-13.388-5.559-6.009-11.203-11.897-17.775-16.8-1.444-1.069-3.094-1.894-4.725-2.625-3.159-1.406-4.388-3.516-3.881-6.966 0.103-0.647 0.169-1.322 0.075-1.95-0.694-4.35 1.125-8.222 2.334-12.178 0.741-2.438 5.344-3.609 7.369-2.053 1.622 1.247 3.356 1.688 5.372 1.425 2.662-0.338 4.397 1.238 4.303 3.938-0.075 2.016 0.487 3.703 1.594 5.391 0.909 1.369 1.434 2.991 2.231 4.444 3.684 6.759 7.406 13.491 11.091 20.25 0.628 1.144 1.303 2.306 1.688 3.534 1.097 3.544 2.991 6.694 4.978 9.778 2.259 3.478 2.044 4.416-1.387 7.209z"></path>
</svg>
