<svg xmlns="http://www.w3.org/2000/svg" xml:space="preserve" fill-rule="evenodd" stroke-linejoin="round" stroke-miterlimit="2" clip-rule="evenodd" viewBox="0 0 300 300"><path fill-rule="nonzero" d="M0 151.444c4.031-1.397 8.109-2.7 12.094-4.219 3.759-1.434 7.444-3.066 11.119-4.678.938-.412 1.669-1.284 2.587-1.744 1.753-.881 3.309-1.697 4.622-3.45 1.088-1.472 3.45-2.016 5.297-2.888 1.884-.9 3.825-1.659 5.719-2.512a70 70 0 0 0 3.487-1.678c2.203-1.144 4.425-2.241 6.553-3.497 1.05-.619 1.922-1.547 2.831-2.363.834-.75 1.622-1.556 2.55-2.466.525 1.106.844 2.006 1.341 2.775.6.938 1.359 1.772 2.053 2.644.337.422.919.787 1.012 1.247.684 3.291 3.366 4.059 6 4.547 3.675.684 6.891-.844 9.638-3.103.938-.769 1.659-2.269 1.744-3.488.291-4.05-.638-7.838-4.884-9.516-2.4-.956-4.481-2.503-7.322-1.941-1.444.291-2.006-.75-1.884-2.147.047-.6-.15-1.275.084-1.772a5.2 5.2 0 0 1 1.444-1.828c.797-.638 1.941-.9 2.616-1.603 6.759-7.153 14.362-13.35 21.778-19.763 2.869-2.475 5.109-5.681 7.8-8.391 1.734-1.744 3.713-3.263 5.653-4.781 1.781-1.397 3.572-2.831 5.541-3.909.919-.506 2.287-.366 3.413-.197.309.047.6 1.144.694 1.791.337 2.053.544 4.144.9 6.206.122.769.366 1.584.759 2.241 1.856 2.991 7.894 4.631 11.044 3.075 2.85-1.406 4.031-4.463 2.953-7.744-.806-2.475-2.428-4.313-4.753-5.503-1.856-.956-3.741-1.866-5.578-2.841-1.997-1.059-2.456-2.85-1.209-4.744.684-1.031 1.603-1.922 2.241-2.991 1.059-1.772 1.969-3.637 2.944-5.456.159-.3.263-.694.525-.881 1.641-1.162 2.203-2.991 3.075-4.659 2.625-5.081 5.503-10.022 8.063-15.141 1.594-3.187 2.766-6.572 4.172-9.862.722-1.678 1.453-3.366 2.287-5.006 1.772-3.497 3.713-6.928 5.353-10.472.787-1.678 1.022-3.609 1.566-5.419.272-.9.638-1.772 1.088-2.588.178-.337.694-.722 1.012-.675.328.038.722.525.862.881.731 1.959 1.247 3.994 2.119 5.888 1.219 2.653 2.438 5.353 4.088 7.744 3.262 4.753 6.787 9.328 10.247 13.95 1.013 1.359 1.481 2.803 1.275 4.462-.3 2.475.375 4.444 2.625 5.85 1.894 1.172 2.541 3.263 3.141 5.278.384 1.331.9 2.381 2.428 2.691.422.084.797.675 1.106 1.106 1.275 1.753 2.625 3.478 3.722 5.353.769 1.331 1.2 2.887 1.716 4.359.534 1.519.844 3.15 1.547 4.594.872 1.828 2.053 3.516 3.066 5.297.787 1.397.347 2.503-1.219 2.972a28 28 0 0 1-3.778.872c-2.428.375-4.2 1.819-5.7 3.553-.534.609-.75 1.753-.656 2.616.581 5.85 7.631 9.403 13.125 6.675 1.481-.731 2.653-1.584 2.991-3.534.422-2.475 1.369-4.866 2.147-7.284.487-1.547 2.878-2.212 3.994-1.162 4.022 3.778 8.119 7.472 12.047 11.344 1.566 1.547 2.85 3.413 4.069 5.269 1.959 2.953 4.716 4.997 7.575 6.891 6.028 4.013 10.603 9.319 14.072 15.572.581 1.05.347 2.588.3 3.881-.009.253-.9.637-1.397.656-.834.047-1.678-.197-2.512-.225-4.931-.084-7.819 4.594-5.606 9.028 1.594 3.188 4.556 4.434 7.669 5.466.328.113.787-.037 1.144-.178 2.456-.909 4.537-2.278 5.625-4.791.609-1.378 1.716-2.016 3.178-2.081.75-.037 1.491.009 2.241 0 1.584-.028 2.578.731 2.841 2.278.366 2.109 1.313 3.487 3.534 4.069 2.241.6 4.406 1.519 6.563 2.391 1.275.506 2.456 1.209 3.675 1.847.788.412 1.528.947 2.353 1.284 3.253 1.341 6.525 2.644 9.788 3.947.141.047.3.103.403.197 4.519 4.172 10.584 5.109 15.919 7.584 2.344 1.097 4.772 1.997 6.647 3.9 1.706 1.734 1.491 3.403-.609 4.584-8.691 4.903-17.409 9.778-26.053 14.775-2.269 1.313-4.387 2.016-6.863.769-.694-.347-1.528-.441-2.269-.722-1.012-.384-1.753-.262-2.456.684-.272.375-1.069.534-1.622.506-1.556-.047-1.969.216-1.641 1.622.75 3.197-.103 5.7-2.644 7.838-1.819 1.519-3.3 3.422-5.081 5.006-1.134 1.013-1.791.844-2.419-.562-.731-1.659-1.378-3.375-1.781-5.128-.544-2.419-3.347-4.941-5.841-4.819-1.472.075-3.047.103-4.387.647-4.284 1.772-5.353 7.237-2.231 10.734 2.156 2.391 4.856 3.525 8.044 2.878 1.819-.375 3.075.272 4.397 1.491-2.7 3.703-5.381 7.397-8.119 11.063-.375.497-.994.825-1.491 1.238-1.491 1.219-3.112 2.316-4.444 3.703a1784 1784 0 0 0-19.181 20.287c-2.541 2.728-4.772 5.737-7.397 8.381-1.397 1.397-3.347 2.231-5.034 3.347-.572.384-1.097.844-1.641 1.256-1.069.787-1.716.6-2.119-.656-.825-2.606-1.678-5.203-2.419-7.838-.769-2.738-2.456-4.444-5.316-4.688-2.831-.234-5.259.722-6.722 3.262a15 15 0 0 0-1.641 4.284c-.638 2.963.844 5.259 3.797 5.944 1.641.384 2.869 1.275 3.994 2.428.731.75.825 1.491.159 2.241-3.572 4.069-5.981 8.878-8.756 13.491-4.809 7.959-10.097 15.619-15.197 23.409a9 9 0 0 0-.328.497c-3.459 5.841-6.938 11.681-10.397 17.522h-.3c-.525-.525-1.059-1.022-1.547-1.566-3.366-3.778-5.531-8.334-8.119-12.6-2.287-3.778-4.509-7.594-6.862-11.334-1.641-2.606-3.459-5.091-5.184-7.65-.216-.328-.403-.722-.412-1.097-.066-2.316-1.275-4.022-2.85-5.559-2.006-1.941-4.059-3.834-5.944-5.878-2.156-2.344-1.744-4.866.834-6.713 1.622-1.162 3.178-2.4 4.725-3.647 3.122-2.531 3.647-5.925 2.531-9.45-.862-2.681-2.212-5.391-5.241-6.281-2.231-.656-4.5-.309-6.647.806-2.091 1.087-3.497 2.512-3.684 4.969-.047.581-.291 1.162-.412 1.744-.806 3.872-.797 3.872-4.65 4.434-.253.038-.506.122-.731.066-.647-.188-1.406-.291-1.903-.684-2.531-2.081-5.109-4.125-7.462-6.384-5.513-5.316-10.894-10.772-16.388-16.125-2.287-2.231-4.537-4.434-6.056-7.322-.731-1.397-1.772-2.653-2.803-3.862-2.325-2.719-4.884-5.269-7.088-8.081-1.509-1.931-2.653-4.162-3.863-6.3-.544-.975-.15-1.697.956-2.034.638-.197 1.237-.506 2.044-.862-.563-.759-1.181-1.294-1.359-1.959-.188-.684-.075-1.519.141-2.231.103-.309.722-.609 1.144-.656 2.306-.253 4.659-.225 6.909-.675 4.247-.834 6.947-7.078 4.828-10.837-1.331-2.362-4.931-4.022-7.697-3.525-4.472.797-6.713 3.553-7.275 7.922-.291 2.316-1.294 4.613-2.344 6.741-.844 1.744-1.247 1.669-2.888.638-7.819-4.941-15.891-9.413-24.6-12.656-.413-.15-.788-.412-1.172-.647-2.737-1.659-5.456-3.366-8.222-4.969-2.962-1.716-5.963-3.366-8.972-5.006-1.125-.619-2.241-1.453-3.459-1.678-4.809-.881-7.931-4.256-11.334-7.256.037-.141.037-.234.037-.338zm167.1 82.734c.216-.291.366-.384.384-.506.759-3.638 1.556-7.275 2.203-10.931.15-.872.038-1.931-.338-2.719-.647-1.341-.544-2.466.291-3.628 4.406-6.169 9.966-10.659 17.588-12.159 1.903-.375 3.825-.647 5.719-1.059 4.387-.956 6.562-3.909 6.028-8.316-.45-3.684.15-7.134 1.903-10.388.534-.984.441-1.847-.141-2.803-.581-.975-1.097-2.006-1.472-3.066-.834-2.391-1.678-4.791-2.306-7.247-.45-1.753-.797-3.609-.759-5.419.188-9.3.441-18.619.834-27.909.225-5.203-.984-10.125-3.037-14.756-2.128-4.791-4.847-9.338-7.388-13.95-.525-.947-1.247-1.847-2.072-2.531-4.556-3.834-9.431-7.2-15.272-8.784-5.278-1.434-10.584-2.766-15.891-4.097-.909-.225-1.894-.431-2.794-.3-3.534.534-7.172.844-10.547 1.931-7.772 2.513-15.122 6.038-22.106 10.275-2.869 1.734-4.884 4.2-6.188 7.275a313 313 0 0 1-2.241 5.203c-3.787 8.616-4.997 17.644-4.294 26.972.084 1.181.497 2.428.253 3.534-.572 2.55-.647 5.091.103 7.537 1.125 3.638.722 7.059-.75 10.463-.9 2.072-.694 3.956.694 5.737.684.881.975 1.894.3 2.916-1.716 2.606-3.347 5.278-5.259 7.744-1.556 2.016-1.781 4.481-.225 6.534 3.375 4.434 6.759 8.859 10.078 13.341.863 1.162 1.556 1.547 2.925.75 2.156-1.238 4.425-1.359 6.684-.084 1.172.656 2.381 1.219 3.572 1.828 6 3.047 10.772 6.778 12.066 14.222.834 4.791 3.422 9.281 3.975 14.287.047.469.647.881.994 1.331.403-.403.956-.731 1.162-1.219.413-1.05 1.022-1.209 1.997-.834 1.106.422 2.25.797 3.384 1.162 1.894.609 2.034.422 2.353-1.528.234-1.416.6-2.916 1.322-4.125.656-1.106 1.603-.938 2.381.15.872 1.209 1.669 2.475 2.541 3.684.834 1.172 3.272 1.088 4.059-.113 1.05-1.622 2.691-1.903 4.256-.722 1.012.722 2.006 1.519 3.019 2.306z"/><path fill-rule="nonzero" d="M140.372 196.941c-.9-1.359-1.847-1.172-2.953-.572a41 41 0 0 1-4.313 2.016c-.675.272-1.491.459-2.175.338-3.253-.609-6.628-.637-9.675-2.166-3.15-1.584-6.319-3.178-9.553-4.556-2.569-1.097-2.944-3.45-3.647-5.625-.103-.328.178-.9.459-1.2 2.766-2.869 5.794-5.503 9.872-6 2.166-.262 4.434.272 6.647.506 5.831.638 11.147 2.906 16.378 5.344 3.263 1.519 3.984 4.35 2.109 7.462-.909 1.481-2.006 2.841-3.15 4.463zM174.881 196.116c-1.434-.253-2.428-.197-2.953 1.162-.103.272-1.031.534-1.378.375-2.794-1.284-5.578-2.55-8.241-4.059-1.331-.75-2.231-1.978-2.466-3.703-.3-2.25.684-3.459 2.391-4.809 3.787-2.972 8.109-4.463 12.675-5.625 2.681-.684 5.231-1.866 7.781-2.944 2.991-1.247 5.916-1.219 8.766.272 3.384 1.781 3.919 5.756 1.294 8.503-4.444 4.669-9.909 7.762-15.684 10.397-.731.338-1.631.328-2.194.422zM159.853 207v1.941c0 3.3.028 3.347-2.869 4.884-.469.253-1.547.075-1.922-.328-.881-.947-1.828-1.087-3.047-1.106-2.034-.037-4.069-.3-6.056-.713-1.744-.366-2.606-1.978-2.438-3.938.197-2.381.422-4.753.572-7.134.103-1.603.544-2.962 1.828-4.069 1.659-1.416 3.234-2.953 4.819-4.463.834-.797 1.584-.806 2.494-.084 4.106 3.272 6.45 7.444 6.6 12.75.028.75 0 1.491 0 2.241-.009.009 0 .009.009.009zm-3.516 1.275c-.262-.347-.393.853 0 .009z"/></svg>