<svg xmlns="http://www.w3.org/2000/svg" width="291" height="300" viewBox="0 0 291 300"><title>grand-alliances-destruction</title><path d="m138.291 288.984-1.003-.094-.047-.553c-.028-.431-.122-.572-.459-.713-.422-.178-1.144-.909-1.434-1.462-.094-.159-.366-.356-.619-.403s-.534-.159-.619-.225c-.075-.056-.319-.15-.534-.206s-.591-.3-.834-.534c-.244-.253-.487-.45-.563-.45-.047 0-.188-.159-.272-.375a1.02 1.02 0 0 0-.516-.459c-.263-.056-.366-.178-.338-.403.028-.281-.075-.328-.722-.422-.909-.122-1.519-.534-1.388-.956.169-.572.113-.713-.319-.863-.581-.197-1.659-1.284-1.659-1.669 0-.178-.169-.478-.366-.684-.216-.197-.506-.638-.656-1.003-.338-.778-.656-.938-.984-.497-.122.178-.291.281-.347.225-.169-.178-.113-.881.112-1.191.413-.534.272-1.041-.431-1.631-.609-.525-.638-.6-.609-1.238.019-.375-.047-.703-.112-.731-.853-.309-1.172-.834-.722-1.191.244-.178.244-.225 0-1.116-.3-1.116-.3-2.7.019-3.478.178-.431.225-1.284.272-3.722.019-1.734.094-3.431.15-3.759.066-.422.028-.9-.131-1.462-.131-.459-.197-.909-.169-.984.113-.197.609-.197.713-.019.047.075.216.103.366.056.216-.056.291-.272.366-1.003.056-.506.047-1.228-.047-1.584-.122-.525-.103-.759.066-1.106.103-.244.197-.759.197-1.153s.094-1.078.188-1.509c.197-.806.216-2.672.047-3.478-.15-.656.216-1.594.684-1.838.366-.197.384-.244.384-1.387 0-1.078.028-1.209.366-1.509.291-.253.366-.45.338-.863-.019-.3.047-.75.131-.984.225-.6.487-2.316.384-2.475-.047-.094.047-.347.216-.581.244-.347.3-.628.3-1.566 0-1.003.047-1.191.366-1.584.394-.478.394-.628-.028-1.659-.225-.553-.225-.572.141-.975.347-.375.394-.534.394-1.509 0-.75.075-1.228.244-1.509.216-.384.216-.45-.075-1.031-.422-.806-.412-1.134.056-1.556.319-.281.366-.403.272-.956-.047-.356-.047-.713.019-.825.056-.094.122-.909.122-1.819l.019-1.659.694-1.087c.581-.9.684-1.191.666-1.716-.019-.347.056-1.359.169-2.269.084-.9.122-1.884.084-2.194-.113-.759.075-1.078.806-1.378.487-.206.684-.225 1.097-.075.487.159 1.509.131 1.95-.075.169-.094.263 0 .338.356.056.281.225.534.441.628.188.094.347.206.347.272s.225.459.516.9c.291.431.534.975.563 1.181.028.431 1.153 2.944 1.369 3.075.244.15.722 1.238.722 1.613 0 .628 1.069 3.028 1.463 3.281.159.103.272.347.272.6s.225.909.506 1.509c.394.853.506 1.284.506 1.941 0 .956.263 1.481.9 1.819.412.225.422.244.319 1.088-.094.9.056 1.416.684 2.241.375.478.366 1.059-.028 1.162-.216.056-.272.159-.216.403.047.159.094.431.094.581s.113.253.338.253c.441 0 .591.131.9.806.216.45.225.628.103.853-.188.3-.225 1.584-.094 1.987.047.131.216.244.366.244.263 0 .272.075.188.731-.056.45-.019.938.094 1.284.103.328.188 1.444.197 2.672.019 1.997.028 2.109.3 2.109.412 0 .469.6.094.853-.338.206-.375.656-.169 1.387.056.253.075.825.019 1.266-.103.675-.056.938.169 1.462.169.384.291.928.272 1.416 0 .422-.019 1.181-.019 1.669a17 17 0 0 1-.244 2.063c-.197.928-.197 1.266-.056 1.734.122.45.113 1.003-.019 2.362-.197 1.959-.169 4.969.056 6.019.338 1.519.319 1.988-.094 2.372-.412.403-.487.759-.197 1.191.131.225.113.384-.094.825-.262.553-.291 1.538-.225 6.394.028 1.359-.019 1.781-.169 1.838-.141.056-.169.506-.103 2.287.075 1.659.047 2.363-.103 2.897-.113.375-.263.984-.347 1.341-.272 1.341-.45 1.941-.731 2.475-.169.3-.291.656-.291.806 0 .3-.225.478-.347.281-.056-.075-.394.028-.787.244-.563.328-.9.403-1.913.422-.684.028-1.678 0-2.241-.056zm51.815-1.837c-.3-.253-.563-.984-.459-1.313.056-.178-.169-.534-.731-1.134-.919-1.013-.9-.938-1.069-2.597-.075-.684-.188-1.284-.262-1.303-.056-.028-.075-.6-.028-1.266.094-1.341 0-1.688-.441-1.838-.394-.122-.516-.731-.469-2.034.028-.553.422-.881 1.05-.881.441 0 .403-1.256-.075-2.119l-.366-.656.291-.553c.15-.3.291-.638.291-.759 0-.103.103-.534.216-.928s.244-.984.291-1.284c.056-.422.15-.572.347-.572.441 0 .506-.853.216-2.344-.075-.431-.056-.497.197-.497.338 0 .384-.197.516-1.856.047-.638.019-.975-.15-1.228-.197-.328-.197-.384 0-.684.928-1.359 1.462-2.194 1.613-2.512.244-.497.422-2.663.262-3.122-.103-.272-.075-.525.15-.975.234-.506.262-.787.188-1.734-.075-.881-.047-1.256.131-1.612.15-.3.234-.9.244-1.669v-1.228l.684-.506c.666-.497.694-.553.75-1.331.028-.6-.019-.9-.197-1.134-.366-.45-.319-.703.188-1.191.375-.375.441-.497.338-.853-.075-.225-.131-.928-.131-1.556 0-.713-.066-1.228-.169-1.331-.319-.328-.197-.553.366-.731.731-.253.797-.347.459-.75-.413-.497-.366-.928.15-1.434.713-.684.9-1.191.778-2.062-.272-2.119-.291-1.941.272-2.522.553-.572.619-.881.384-1.716-.122-.45-.103-.497.272-.703.487-.272.722-.638.722-1.181 0-.206.075-.422.15-.478.094-.047.131-.281.094-.506-.047-.206.019-.581.113-.806.338-.656.656-1.884.656-2.494 0-.656.056-.713.666-.628.422.075.469.122.553.806.094.628.15.731.422.731.178 0 .553.122.806.272.581.328.947 1.162.797 1.912-.084.525.056.9.609 1.509.262.3.347.525.291.787-.262 1.238-.262 1.313.056 1.959.3.609.319.713.141 1.594-.169.9-.15.956.131 1.284.169.197.412.684.506 1.106.188.684.169.787-.075 1.209-.272.459-.272.459.094.703.478.309.562.703.319 1.284-.113.272-.216.9-.234 1.387 0 .703.056.956.3 1.228.3.328.3.347.047.853-.262.497-.262.506.047 1.162.375.787.394 1.059.094 1.331-.169.15-.197.347-.131.862.103.675.15 3.206.075 4.162-.028.281.056.581.187.75.3.347.3.609 0 .956-.375.431-.375 4.125 0 5.034.197.478.244.825.188 1.266-.262 1.594-.262 1.781.028 2.166.244.356.272.553.169 2.109-.075 1.163-.047 1.884.066 2.241.094.281.122.731.075.975s-.056.863-.028 1.359c.056.825.028.984-.319 1.434-.459.638-.478.825 0 1.331l.375.403-.3.628c-.216.45-.262.703-.15.834.094.094.188.525.244.938.094.853-.047 1.116-.713 1.406-.403.159-.9 1.106-1.256 2.344-.056.206-.338.525-.609.703s-.581.422-.684.525-.488.534-.872.938c-.366.422-.853.863-1.069 1.003s-.422.459-.488.75c-.15.703-.619 1.266-1.125 1.378-.619.131-.825.356-.825.9 0 .497-.506 1.153-1.781 2.259-.375.328-.778.787-.909 1.012-.216.422-.234.422-1.191.328-.9-.094-1.003-.075-1.463.281-.581.45-.609.45-.928.206zm-30.637-1.659-.488-.347v-1.884c0-1.884 0-1.884-.384-2.213-.487-.384-.516-.928-.103-1.359.666-.684.694-2.344.047-2.991-.291-.281-.347-.478-.347-1.191 0-.834-.169-1.209-.591-1.359-.15-.056-.169-.309-.113-2.419 0-.356-.075-1.162-.15-1.809-.366-2.466-.459-6.375-.169-6.675.216-.225.234-.675.019-.75-.094-.028-.15-.281-.169-.572-.028-.431.028-.525.262-.525.403 0 .459-.9.141-2.072-.216-.759-.216-1.012-.066-1.669.122-.534.141-.853.028-1.041-.112-.206-.094-.384.103-.731.15-.244.375-.759.516-1.153.169-.506.403-.787.75-1.013l.506-.3-.103-.938c-.056-.628-.028-1.116.112-1.519.122-.356.15-.75.094-.975-.056-.206-.103-.713-.113-1.116-.019-.656.056-.853.563-1.556.478-.656.581-.909.581-1.491 0-.834.469-2.287.872-2.7.366-.375.366-.506-.019-.881-.516-.506-.384-1.631.216-1.856.15-.047.15-2.241.019-2.822-.103-.403-.094-.422.394-.422.563 0 1.125-.497 1.125-1.013 0-.159.075-.356.15-.422.169-.103.047-1.078-.188-1.359-.103-.122-.019-.244.3-.422.459-.244.581-.628.291-.928-.084-.094-.188-.778-.216-1.509-.047-1.041 0-1.378.15-1.519s.216-.131.216-.019c0 .094.122.159.291.159.234 0 .291-.103.291-.525 0-.281.075-.525.15-.525.094 0 .15-.3.15-.675s.084-.862.197-1.088c.112-.225.262-.975.319-1.659.094-1.088.15-1.303.506-1.669.506-.534.534-1.031.103-1.884l-.319-.609.347-.534c.262-.375.478-.534.797-.572.422-.047.441-.075.553-1.013.056-.534.272-1.284.469-1.669.291-.572.338-.778.216-1.087-.094-.225-.15-.656-.15-1.003 0-.506.103-.713.666-1.359.834-.975.984-1.341.769-1.997-.197-.638-.094-1.303.366-1.988 1.341-2.091 1.444-2.325 1.547-3.178.066-.581.197-.984.403-1.209.319-.347.422-1.191.15-1.359-.188-.122-.019-.497.291-.6.366-.122.909-1.041.9-1.538 0-.431.216-.938.469-1.106.084-.056.15-.572.169-1.116.019-1.931.319-2.119 1.491-.938.441.431.881.75 1.069.75.45.019 1.191.713 1.472 1.416.806 1.931.638 4.059-.347 4.012-.15 0-.3.075-.3.197 0 .103.103.197.216.197.244 0 .947.422 1.116.675.056.075.122.609.122 1.181v1.031l.422-.094c.3-.056.441-.028.506.131.169.459.066.675-.422.9l-.506.206.084 1.238c.056.675.159 1.341.216 1.481.075.131.131.525.131.853 0 .609.188.853.609.787.366-.056.591.459.375.928-.094.206-.244.384-.347.384-.141 0-.141.103.028.525.103.281.197.853.197 1.266s.103.956.216 1.209c.244.478.262 1.613.028 2.569-.112.478-.103.638.15.975.291.403.562 1.819.366 1.819-.056 0-.197-.094-.3-.178-.15-.159-.169-.056-.103.553.056.422.113 1.031.15 1.359.019.356.169.787.347 1.031.394.506.412.759.047.862s-.553 1.491-.234 1.987c.234.356.234 1.162.019 4.2-.094 1.181-.094 1.228.291 1.519.262.206.394.45.375.731-.056 4.453-.047 4.791.15 5.137.122.244.197 1.153.234 3.103.056 3.553.103 4.153.338 4.734.15.422.15.553-.056 1.031-.216.459-.234.656-.094 1.416.094.497.234.928.291.975.075.047.131.197.131.347 0 .159.244.638.534 1.078.347.525.516.956.516 1.256-.019.244-.047 1.462-.094 2.691-.094 3.019-.338 4.603-.853 5.287-.15.197-.262.506-.262.703 0 .422-.778 1.988-1.125 2.269-.122.103-.347.253-.459.328-.131.075-.188.309-.169.628.028.422-.056.609-.488 1.031-.291.281-.703.853-.938 1.266-.375.656-.928 1.266-1.838 2.016-.103.075-.197.309-.197.506 0 .272-.272.637-.938 1.303-.534.525-1.069 1.191-1.228 1.566-.15.356-.488.938-.769 1.284s-.562.834-.656 1.106c-.15.525-1.059 1.416-1.922 1.959-.319.197-.563.431-.563.553s-.366.525-.797.909-.797.825-.797.975c0 .225-.778.731-1.125.731-.197 0-1.144 1.106-1.238 1.462-.122.356-1.434 1.313-1.997 1.444-.244.075-.412.225-.441.422-.047.3-.131.328-1.341.375-.806.019-1.359-.028-1.491-.15-.15-.122-.244-.122-.366 0-.262.272-.75.206-1.284-.159zm-94.885-5.016c-.366-.056-.797-.178-.975-.281s-.609-.178-.975-.178-.825-.075-1.031-.178c-.337-.15-.366-.225-.272-.787.094-.6.056-.638-1.05-1.959-.619-.731-1.369-1.444-1.65-1.584s-.637-.431-.759-.637c-.197-.309-.291-.356-.469-.206-.291.253-.684-.15-.909-.909-.094-.309-.394-.806-.656-1.078-1.641-1.669-2.072-2.063-2.287-2.063-.347 0-1.031-.328-1.228-.6-.094-.122-.122-.328-.056-.45.169-.347-.103-1.162-.431-1.341-.169-.094-.487-.122-.712-.075-.591.131-.9-.094-1.331-1.003-.45-.938-.9-1.462-1.266-1.462-.131 0-.459-.3-.741-.675-.534-.731-.581-.759-.834-.497-.272.281-.581-.094-.319-.384.15-.206.094-.281-.487-.534-.534-.244-.722-.422-.947-.928-.141-.356-.403-.731-.581-.834s-.3-.309-.3-.478c0-.206-.262-.478-.797-.825-.806-.534-1.078-.9-1.078-1.388 0-.159-.103-.375-.216-.478s-.187-.244-.15-.3c.075-.122-.684-1.781-.9-1.931-.244-.197-.909-1.838-.909-2.269 0-.384-.047-.45-.291-.384-.197.056-.403-.075-.722-.459-.759-.956-.909-1.078-1.275-1.078-.291 0-.319-.047-.187-.206.103-.122.159-.459.122-.778-.047-.478-.141-.628-.759-1.059-.422-.3-.778-.684-.853-.909s-.216-.656-.347-.975c-.169-.431-.188-.628-.056-.938.272-.609.216-.787-.581-1.519a29 29 0 0 1-1.519-1.519c-.638-.684-.759-.909-.759-1.378 0-.3-.056-.6-.15-.638-.075-.047-.337-.506-.563-1.031-.366-.787-.544-1.003-1.172-1.341-.384-.225-.778-.534-.872-.684-.075-.15-.366-.347-.638-.45-.347-.122-.506-.272-.581-.572-.047-.225-.338-.6-.656-.853-.366-.281-.581-.572-.591-.787 0-.281.056-.328.291-.253.263.094.291.028.291-.459 0-1.003-.909-1.997-1.603-1.781-.506.159-.853-.178-.853-.834 0-.384-.103-.75-.291-.984a1.77 1.77 0 0 1-.291-.956c0-.497-.075-.609-.656-1.041-.375-.281-.694-.656-.75-.862a6 6 0 0 0-.347-.938 3 3 0 0 1-.272-1.134c0-.834-.262-1.519-.581-1.519-.141 0-.403-.225-.563-.478-.563-.909-1.031-1.509-1.322-1.716-.337-.244-.366-.6-.131-1.153.244-.534-.028-1.106-.825-1.791-.506-.45-.638-.638-.638-1.031 0-.281-.169-.731-.394-1.078a2.8 2.8 0 0 1-.422-1.256c-.019-.375-.197-1.031-.403-1.444-.244-.506-.366-.975-.337-1.331.028-.525-.019-.6-.506-.862-.3-.159-.544-.384-.544-.478 0-.244-.431-1.134-.703-1.462-.188-.225-.188-.3-.019-.403s.103-.3-.263-1.003a36 36 0 0 1-.694-1.416c-.159-.356-.384-.609-.656-.703-.45-.159-.638-.506-.778-1.378-.103-.684-.516-1.078-1.097-1.059l-.45.019.094-.713c.075-.6.047-.759-.206-.984-.141-.131-.366-.225-.506-.178-.262.103-.272-.028-.066-.572.169-.478-.122-1.153-.656-1.509-.394-.272-.478-.778-.188-1.256.15-.244.131-.356-.15-.731-.169-.253-.319-.553-.319-.656 0-.122-.159-.328-.366-.459-.488-.328-.741-.9-.853-1.941-.113-1.012-.272-1.284-.75-1.284-.384 0-.534-.197-.422-.581.056-.197.169-.253.394-.197.272.075.291.028.197-.6-.066-.534-.056-.703.131-.759.431-.178.094-1.359-.394-1.284-.403.047-.544-.028-.759-.459s-.197-.45.216-.853c.3-.272.403-.478.347-.628-.056-.131-.113-.609-.131-1.078-.019-.656-.103-.984-.441-1.566-.347-.553-.534-1.162-.787-2.569-.263-1.434-.403-1.884-.637-2.063-.272-.197-.272-.253-.112-.9.141-.525.141-.909.019-1.669s-.122-1.088.019-1.491c.159-.45.15-.553-.122-.928-.431-.628-.487-1.031-.3-2.616.15-1.331.15-1.463-.103-1.744-.197-.244-.244-.497-.216-1.238.047-.638-.019-1.078-.169-1.387-.263-.525-.3-1.313-.094-1.444.094-.047.15-.206.15-.356 0-.225-.113-.272-.534-.253-.469.019-.544-.028-.591-.328-.028-.206.075-.431.272-.609.263-.206.3-.356.216-.778a4.3 4.3 0 0 0-.3-.938c-.319-.628-.263-1.031.216-1.509.516-.506.516-.553.122-.75-.347-.159-.619-1.087-.384-1.331.066-.094.122-.375.122-.638 0-.384-.056-.497-.272-.497-.291 0-.45-.656-.516-2.091-.019-.375-.066-.778-.122-.9a16 16 0 0 1-.188-.975c-.122-.628-.188-.759-.459-.787-.45-.075-.544-.384-.263-.806.291-.431.291-1.191 0-1.781-.244-.525-.169-1.659.169-1.941.375-.328.244-.609-.272-.553-.337.028-.459-.019-.459-.178 0-.131.15-.244.375-.272.337-.047.366-.103.366-.628 0-.328.094-.787.188-1.031.244-.609.122-.853-.506-.975-.412-.094-.563-.225-.75-.628-.225-.497-.225-.534.075-1.181.384-.834.384-1.116.028-1.744-.216-.384-.291-.825-.319-1.866-.019-.759.019-1.416.075-1.481s0-.225-.131-.375c-.244-.281-.262-.45-.112-1.584.094-.703.056-.825-.291-1.256-.347-.422-.375-.553-.291-1.237.047-.422.188-.834.291-.928.159-.131.169-.272.028-.675-.094-.281-.244-.637-.366-.825-.131-.206-.188-1.078-.216-3.066-.047-5.438-.047-5.972.3-7.838.3-1.594.319-1.959.188-3.206-.112-1.106-.112-1.434.028-1.556.337-.272.384-.759.188-1.406-.216-.638-.094-.975.347-.881.169.028.197-.356.197-1.987 0-1.791.028-2.072.272-2.363.412-.459.487-1.406.441-5.091-.047-2.972-.019-3.469.225-4.284.15-.506.394-1.106.506-1.303.169-.253.216-.525.15-.825-.056-.309.028-.75.3-1.463.478-1.209.806-4.228.591-5.166a2 2 0 0 1 .028-1.153c.122-.422.131-1.031.019-2.297-.094-1.116-.103-2.072 0-2.728.103-.825.169-3.375.15-5.034-.019-.169.122-.478.272-.703.412-.563.853-1.763.853-2.269 0-.225.094-.525.216-.675.216-.253.375-1.341.441-2.944.028-.938.469-2.063.872-2.213.178-.075.178-.244-.066-1.209l-.272-1.116.347-.572c.197-.309.488-.731.638-.938.263-.347.263-.431.094-1.116-.291-1.116-.263-1.378.188-1.594.347-.169.422-.309.506-1.003.075-.6.225-1.012.684-1.659.544-.806.638-1.134.581-2.091-.028-.534.216-1.884.366-2.091.103-.122.216-.553.272-.938.047-.553.197-.834.516-1.153.234-.225.431-.525.431-.656 0-.122.113-.3.272-.375.216-.131.291-.403.375-1.612.113-1.659.234-2.044.75-2.616.216-.225.459-.656.581-.937.103-.281.272-.778.384-1.078s.319-.6.45-.609c.338-.075.488-.609.403-1.406-.066-.609-.047-.703.263-.881.488-.253.581-.45.488-.909-.056-.3 0-.431.216-.572.169-.094.3-.244.3-.347s.131-.272.291-.375c.216-.131.272-.281.206-.525-.094-.384.319-1.209.984-2.016.272-.328.403-.656.403-1.003s.075-.525.206-.525c.347 0 .394-.253.131-.731l-.262-.45.619-.534c.787-.703 1.069-1.266 1.012-2.062-.047-.572-.019-.637.431-.853.563-.281.75-.534.75-1.041 0-.206.159-.609.347-.9s.394-.684.441-.9c.056-.206.206-.506.3-.675.122-.169.197-.478.197-.684 0-.356.591-1.313.909-1.444.056-.028.3-.225.534-.431.347-.3.412-.422.291-.638a1.006 1.006 0 0 1 .881-1.491c.516 0 .609-.328.347-1.238l-.197-.703.478-.206c.337-.131.516-.347.581-.628a7 7 0 0 1 .291-.881c.338-.825.544-1.491.619-1.931.056-.3.216-.478.563-.628.488-.206.684-.553.638-1.228s0-.928.15-.928c.234 0 .684-.478.778-.853.056-.178.488-.712.928-1.191s.928-1.134 1.041-1.462c.169-.431.366-.675.741-.863.413-.197.609-.45.853-1.041.206-.459.637-1.088 1.097-1.556.825-.834 1.031-.928 1.153-.563.056.122.234.225.422.225s.412-.103.506-.225c.244-.3.394-.281.506.075.056.169.262.478.469.684.3.309.347.45.263.966-.075.431-.028.684.122.956.347.553.272 1.266-.197 1.941-.234.328-.516.731-.637.9-.159.244-.169.506-.056 1.387l.15 1.078-.45.534c-.506.6-.581 1.153-.234 2.147.122.347.169.684.131.778-.047.075-.347.122-.684.094-.619-.047-.834.178-.534.553.094.122.178.534.178.928s.066.806.159.909c.131.178-.019.253-.431.197-.403-.056-.75.3-.834.853-.234 1.491-.394 1.959-.75 2.194-.291.206-.347.347-.319.825.028.328 0 .628-.056.684-.159.169-.122 1.228.056 1.866.188.628.047 1.191-.459 1.809-.234.272-.272.459-.188 1.153.056.562.019 1.041-.131 1.481-.169.525-.188 1.012-.094 2.747.131 2.222.094 2.719-.272 3.15-.169.178-.216.497-.188.928.019.356-.028.788-.122.956-.103.197-.122.328-.019.384.244.169.159.909-.169 1.209-.262.244-.291.431-.262 1.519.028 1.059-.019 1.303-.291 1.669-.188.281-.3.656-.3 1.041 0 .328-.056.712-.131.862-.703 1.444-.9 2.297-.591 2.494.234.15.169.553-.122.881-.422.478-.637 2.259-.619 4.988 0 1.378-.056 2.737-.131 3.047-.094.3-.159 1.041-.159 1.641-.019.703-.103 1.228-.244 1.444-.15.244-.206.684-.188 1.284.019.506-.094 1.378-.216 1.959s-.234 1.416-.216 1.894c0 .478-.056 1.003-.131 1.163-.169.328.075 1.566.375 1.941.262.309.262 1.256-.019 2.166-.272.938-.272 1.388 0 1.706.159.197.188.356.103.609-.234.628-.337 2.344-.347 5.888 0 2.316.047 3.581.159 3.872.122.309.15 1.388.094 3.759-.075 3-.056 3.375.169 3.731.169.272.244.75.272 1.463.019.6.103 1.341.197 1.659.413 1.406.431 1.641.262 2.409-.122.563-.122.9 0 1.237s.122.6.019.881c-.094.225-.15.956-.15 1.631.019 1.013.075 1.313.347 1.734.169.272.441.881.609 1.378.216.628.403.938.684 1.106.347.206.394.3.319.684-.272 1.388-.272 1.388.188 1.631.234.122.609.534.806.909.347.6.403.9.459 2.287l.075 1.584.778 1.209c.684 1.031.806 1.303.806 1.913s.047.703.366.787a.7.7 0 0 1 .441.403c.094.272.169 2.316.206 4.275 0 .206.103.525.216.703.122.197.216.534.216.759s.131.628.291.862c.169.253.291.703.291 1.013s.103.731.234.938c.188.3.216.581.169 1.378-.103 1.003-.094 1.012.337 1.266.234.15.534.497.656.759.131.281.366.628.516.778.15.131.272.375.272.525 0 .375.703 2.869.834 2.972.413.3.872 1.809.759 2.55-.019.131.197.563.469.975s.553.956.591 1.209c.075.309.291.6.684.863.637.459.609.375.563 1.809l-.028 1.059.534.309c.291.178.637.525.759.778.131.234.337.45.431.45s.169.131.169.309c0 .309 0 .309-.262-.019-.234-.3-.272-.3-.441-.103-.234.3-.094.787.272.9.169.047.337.3.422.675.094.309.272.75.431.938.15.197.375.572.506.834s.412.572.619.675c.366.178.403.272.478 1.341.075 1.209.122 1.284 1.275 2.466.347.356.412.572.178.713-.487.309.216 1.894.937 2.072.291.075.366.197.366.581 0 .656.656 1.659 1.022 1.556.422-.122.337.225-.244.909l-.516.628.516.225c.431.197.516.3.516.656 0 .3.122.525.394.731.375.281.375.309.197.862-.187.6-.047 1.406.262 1.406.075 0 .244.103.375.244.197.225.197.281-.075.731l-.291.478.459.656c.244.356.609.806.806.984.197.197.337.506.337.759 0 .225.103.553.216.713s.216.45.216.656c0 .497.375 1.041.712 1.041.478 0 .591.356.581 1.734-.028 1.641.047 1.894.619 2.166.534.244 1.172 1.266 1.341 2.119.056.3.262.712.441.928.262.253.366.525.366.956 0 .506.056.628.487.881.45.272.506.384.553 1.031.028.581.103.713.337.759.469.075.947.356.947.572 0 .103.197.403.431.656.347.375.413.525.291.75-.094.15-.216.328-.291.375-.347.225-.122.684.563 1.153.947.628 1.125.984.825 1.566-.197.431-.197.459.103.628.412.244 1.116 1.378 1.116 1.791 0 .206.15.384.413.506.487.225.741.534.75.975 0 .225.084.328.291.328.244 0 .291.103.291.581 0 .534.122 1.041.469 1.988.103.272.319.459.638.572.619.206.853.628.609 1.031-.15.253-.131.356.122.638.581.703.881 1.256.984 1.819.066.347.272.75.506.975.563.553 1.172 1.734 1.172 2.297 0 .703.272 1.594.516 1.706.122.047.431.422.684.853.412.628.487.938.553 1.819s.141 1.162.478 1.612c.234.309.619.638.881.759.403.159.516.328.666.909.141.534.347.834.825 1.238 1.116.938 1.566 1.416 1.659 1.781.094.272.169.309.3.178.15-.122.272-.122.506 0 .337.178.263.45-.131.45-.431 0-.441.178-.094.628.197.244.366.6.366.806s.047.356.122.356c.216 0 1.463 1.228 1.678 1.659.113.225.375.6.581.825s.403.675.459 1.003c.047.309.169.656.3.75.694.572 2.053 2.044 2.25 2.466.131.272.347.478.506.478.347 0 1.341.806 1.584 1.303.112.206.403.572.666.787q.448.422.656 1.181c.113.497.272.778.469.834.197.075.272.244.272.6 0 .422.056.534.347.609.197.047.431.047.506-.019.197-.122.197.309 0 .703-.291.534-.3 1.491-.028 1.791.244.272.263.834.169 3.403-.028.45 0 2.062.056 3.581.075 2.475.056 2.869-.197 3.806-.487 1.781-.534 1.988-.441 2.419.028.225.159.534.272.675.188.225.188.347 0 1.041-.347 1.181-.431 2.297-.216 2.644.15.253.131.375-.113.713-.272.375-.272.497-.122 1.106.159.609.141.731-.094 1.041-.15.197-.272.431-.272.506 0 .094-.197.309-.441.525-.338.3-.469.534-.506 1.041-.103.881-.431 1.744-.872 2.287-.187.244-.347.497-.347.572 0 .094-.169.403-.366.703s-.366.712-.366.928c0 .206-.131.581-.291.825-.169.253-.291.703-.291 1.003 0 .347-.112.703-.337.975-.188.225-.516.759-.75 1.162-.216.422-.638 1.106-.909 1.538-.347.553-.487.9-.422 1.163.075.431-.656 1.716-1.191 2.109-.169.122-.3.281-.3.375s-.216.384-.487.637c-.272.253-.544.675-.609.909-.112.506-.459.956-.722.956-.103 0-.262.131-.347.281-.066.159-.272.328-.431.384-.216.075-.262.178-.197.497.103.534-.412 1.153-1.153 1.416-.619.225-.741.375-.881 1.078-.056.3-.516.863-1.359 1.716-.703.703-1.388 1.491-1.519 1.762-.197.384-.319.478-.722.478-.394 0-.506.075-.581.356-.047.197-.3.525-.581.731-.337.272-.516.572-.581.928-.056.281-.197.525-.291.525s-.3.131-.441.3c-.15.159-.338.281-.422.281-.094-.019-.45-.075-.806-.122zm34.838-5.766c-.375-.103-.825-.3-1.013-.431-.422-.3-1.331-.309-1.556-.019-.263.328-.487.056-.3-.384.113-.328.056-.45-.431-.956-.337-.347-.563-.713-.563-.928 0-.244-.131-.403-.394-.525-1.125-.506-2.362-2.062-2.362-2.972 0-.422-.075-.581-.366-.731-.197-.103-.403-.159-.441-.122-.112.122-.975-.9-1.284-1.509-.216-.431-.216-.581-.056-1.162.15-.572.15-.75-.047-1.153-.731-1.566-.806-1.894-.487-2.166.291-.253.403-1.378.159-1.659-.347-.422-.403-1.134-.103-1.444.516-.506.619-.881.516-1.941-.056-.572-.159-1.163-.216-1.359-.103-.253-.056-.45.169-.759l.3-.422-.45-.806c-.487-.928-.544-1.266-.384-2.241.066-.478.047-.806-.075-1.041-.197-.384-.188-1.894.019-2.466.084-.197.084-.637.019-1.012-.103-.581-.075-.703.188-.938.291-.253.3-.403.272-2.391-.019-1.941-.047-2.147-.347-2.569-.45-.628-.45-1.894 0-2.241.272-.225.291-.272.103-.534-.384-.581-.422-1.566-.094-2.569.169-.525.3-1.303.319-1.856 0-.525.019-1.153.019-1.406.047-1.238-.028-5.334-.103-6.122-.216-2.109-.244-3.197-.103-3.497.113-.206.113-.713.019-1.762-.197-1.941-.122-2.522.422-2.625.422-.094.806-.403.928-.731.047-.131.216-.028.516.3.244.253.534.478.656.478.103 0 .366.272.581.6.431.684.516.713.881.3.366-.431.534-.375 1.219.375.581.638.759 1.284.45 1.491-.075.047-.15.244-.15.431 0 .328.478.684.909.684.103 0 .366.159.591.347.337.281.431.525.534 1.191.056.459.263 1.191.469 1.631s.478 1.078.609 1.416c.131.347.347.675.487.713.197.056.244.281.244 1.134s.047 1.087.272 1.256c.15.122.478.422.75.675.478.45.487.459.403 1.416-.075.787-.047.984.15 1.059.375.15.778.984.9 1.809.084.684.122.787.506.862.656.15.787.422.591 1.284a7 7 0 0 0-.178 1.359v.6l.544-.056.534-.047-.047.975c-.047.9-.028 1.003.337 1.313.319.281.375.431.291.75-.244 1.059-.244 1.378.075 2.034.225.506.338 1.059.394 2.138.056 1.378.103 1.556.741 2.85.722 1.509.741 1.641.478 3.797-.094.806-.103 1.444-.028 1.659.084.206.084.431 0 .572-.216.356-.15.684.159.778.394.103.619.778.422 1.181-.169.347-.113 1.012.178 1.734.159.384.159.572 0 .975a10 10 0 0 0-.319 1.031c-.187.806-.263 4.012-.094 4.453.075.206.169 1.941.187 3.834.056 3.328.056 3.478-.225 3.778-.3.309-.666.375-1.003.159-.263-.178-1.144.272-1.247.609-.047.15-.187.375-.319.497-.197.225-.197.253 0 .422.197.15.197.225.047.45-.169.206-.422.253-1.341.272-.638.019-1.275 0-1.434-.019s-.516 0-.806.047c-.272.047-.806-.019-1.191-.122zm126.056-1.509c-.169-.122-.319-.328-.319-.459 0-.384-.703-1.238-.947-1.153-.216.094-.272-.094-.422-1.153-.028-.3-.234-.825-.441-1.153s-.403-.778-.459-.984c-.056-.244-.216-.422-.422-.478-.441-.103-.713-.806-.591-1.434.056-.272.122-.938.15-1.491s.131-1.106.216-1.228c.141-.178.047-.328-.619-.862-.778-.628-.806-.675-.806-1.359 0-.863-.197-1.303-.609-1.303-.244 0-.272-.056-.197-.403.216-1.012.375-2.391.3-2.691-.047-.178-.366-.534-.722-.788s-.656-.478-.656-.497c-.019-.019-.103-.628-.216-1.378-.15-1.012-.272-1.406-.487-1.584-.366-.3-.375-.422-.094-.975.113-.244.216-.553.216-.713 0-.328-.534-1.378-.909-1.781a.72.72 0 0 1-.188-.675c.047-.225.112-.787.169-1.266.103-.928-.094-1.491-.769-2.372-.338-.431-.581-1.781-.384-2.091s.056-1.041-.244-1.556a2.3 2.3 0 0 1-.272-1.003c0-.375-.066-.572-.244-.628-.319-.103-1.2-1.462-1.2-1.819 0-.15.056-.356.131-.478.103-.15 0-.403-.3-.853-.441-.628-.441-.675-.338-1.781.15-1.669-.019-2.569-.553-3.075-.394-.375-.422-.459-.262-.759.75-1.462.722-1.378.441-1.584-.15-.103-.272-.328-.272-.478s-.15-.384-.3-.506c-.272-.197-.319-.356-.291-1.266.019-.881-.047-1.256-.441-2.213-.384-1.003-.459-1.341-.459-2.522-.019-1.116.047-1.444.272-1.781.506-.75.769-1.341.787-1.744 0-.253.197-.628.553-.984.291-.328.619-.703.722-.834s.3-.244.45-.244c.347 0 .947-.675.834-.956-.056-.15-.019-.197.113-.131.113.047.413-.094.656-.3s.684-.422 1.003-.478c.666-.122.872-.347.534-.6s-.3-.628.094-.834c.169-.094.488-.328.684-.506.197-.197.487-.375.656-.403s.347-.197.441-.384c.075-.178.234-.328.338-.328.338 0 1.303-.759 1.387-1.087.047-.159 0-.403-.094-.506-.234-.281.197-.9.638-.881.216.019.366-.103.478-.328.075-.178.244-.356.366-.403.131-.047.347-.272.487-.525.141-.244.441-.572.684-.75a1.6 1.6 0 0 0 .506-.581c.047-.15.272-.356.506-.459.3-.131.441-.281.441-.525 0-.431.141-.572.384-.347.291.244.412.019.197-.384-.244-.459 0-.938.534-1.088.487-.122 1.856-1.134 2.053-1.519.066-.159.141-.506.141-.759 0-.356.103-.525.487-.75.272-.159.563-.459.666-.656s.731-.862 1.397-1.509c1.219-1.134 1.397-1.416.994-1.416-.112 0-.216-.103-.216-.244 0-.431.3-.806.656-.806.506 0 .778-.15.684-.375-.028-.122 0-.3.103-.403s.291-.422.441-.675c.216-.384.375-.497.731-.497.806 0 1.397-.553 1.838-1.716.216-.572.366-1.153.366-1.284-.028-.15.131-.309.375-.422.478-.206.591-.422 1.022-1.866s.975-2.297 1.594-2.597c.656-.309.731-.431.731-1.013 0-.356.169-.628.797-1.266.656-.656.797-.9.778-1.256-.056-.881.019-1.266.291-1.519.169-.178.291-.572.347-1.106.047-.459.234-1.134.422-1.481.169-.347.403-.778.487-.956.131-.225.131-.581.019-1.313-.131-.909-.112-1.012.15-1.387.169-.225.319-.506.319-.609s.094-.253.197-.309c.234-.15.609-.984.741-1.641.075-.403.15-.478.553-.525.412-.047.487-.131.75-.863.3-.806.3-.825.028-1.313-.347-.6-.15-.928.553-.928.441 0 .478-.047.563-.6.047-.328.15-.6.234-.6.197 0 .581-.825.581-1.238 0-.272.113-.422.422-.553.553-.225.619-.459.422-1.284-.197-.778-.075-1.116.488-1.256.319-.075.347-.159.422-1.284.066-1.153.084-1.191.619-1.706.487-.459.562-.628.684-1.519.075-.684.234-1.153.488-1.491.188-.272.487-.825.666-1.238.169-.403.422-.853.553-1.003.15-.178.187-.375.112-.675-.15-.553-.112-.731.319-1.641.338-.703.431-.787.975-.9.553-.122.591-.159.638-.675.028-.281-.094-.928-.244-1.406-.338-.938-.394-1.556-.15-1.556.094 0 .15-.094.15-.206s.066-.234.15-.272c.094-.028.188-.422.216-.863.075-.938.262-1.303 1.069-1.959.581-.478.684-.825.441-1.303-.216-.459-.291-1.519-.103-1.519.103 0 .3-.131.45-.3s.403-.3.562-.3c.319 0 .872-.3.581-.3-.103 0-.216-.234-.262-.525-.094-.431 0-.759.506-1.809.581-1.237.591-1.313.422-1.866-.169-.534-.169-.628.15-1.059.291-.403.338-.684.394-2.044.047-1.331.103-1.631.347-1.894.337-.375.291-1.088-.103-1.416-.234-.197-.272-1.566-.066-1.912.084-.15.272-.178.656-.103l.516.103-.094-1.388c-.056-.759-.15-1.509-.234-1.641-.075-.178-.075-.272.028-.272.075 0 .141.075.141.15 0 .234.272.178.731-.178.338-.253.384-.375.291-.581-.103-.169-.103-.3 0-.356.244-.169.15-.628-.15-.853-.413-.272-.272-.731.262-.984a4 4 0 0 0 .75-.459c.347-.272.347-.272.141-1.509-.15-1.031-.244-1.256-.516-1.388-.413-.197-.431-.703-.047-.806.366-.103.384-.863.075-1.763-.122-.328-.197-.956-.216-1.406 0-.628.075-.881.366-1.237.337-.403.366-.563.366-1.913 0-.956.075-1.641.216-1.997.15-.375.197-.956.188-1.987-.028-.806.019-1.884.094-2.409.113-.806.094-.975-.131-1.228-.216-.234-.244-.45-.15-1.256.056-.6.047-1.003-.056-1.059-.216-.131-.169-.675.056-.759.272-.103.516-.853.516-1.556 0-.309.094-.638.197-.731s.272-.459.375-.825c.15-.6.141-.703-.197-1.378s-.366-.75-.131-.909c.131-.103.272-.197.319-.197s.094-.675.094-1.509c0-1.303-.047-1.519-.272-1.706-.197-.169-.244-.309-.169-.628.056-.225.15-.609.188-.863.047-.234.244-.628.45-.853.319-.356.338-.45.188-.825-.094-.225-.366-.534-.609-.684l-.45-.253.103-1.237c.047-.675.197-1.416.319-1.641.234-.478.178-.628-.384-.928-.394-.206-.412-.253-.262-.778.103-.403.103-.703-.019-1.031-.197-.563-.113-.834.319-1.031.403-.178.366-.881-.075-1.378-.234-.253-.272-.431-.188-.75.056-.225.122-.881.169-1.434.056-.928.028-1.078-.319-1.631-.347-.534-.366-.609-.15-.853.3-.347.3-1.416.019-2.475-.15-.553-.216-1.134-.15-1.509.047-.328.019-.675-.075-.759s-.056-.3.094-.581c.234-.478.15-.928-.197-1.209-.188-.131-.234-.45-.197-1.734.028-1.313-.019-1.706-.3-2.522-.3-.853-.319-.984-.122-1.106.262-.178.272-.581.103-2.616-.075-.956-.056-1.594.047-1.894.131-.384.103-.525-.103-.806-.394-.506-.563-2.953-.244-3.431s.291-.703-.131-.862c-.234-.094-.337-.225-.272-.356.047-.131-.047-.3-.216-.422-.366-.244-.366-.497 0-1.444.3-.731.3-.778.056-1.059-.131-.15-.441-.3-.684-.328-.3-.028-.488-.131-.506-.309-.094-.431.103-1.003.319-1.003.347 0 .581-.422.422-.788-.103-.225-.094-.459.047-.787.169-.431.169-.478-.15-.628-.413-.197-.825-1.116-.759-1.669.028-.244.187-.45.441-.572.469-.225.506-.478.103-.581-.15-.047-.291-.178-.291-.3s-.131-.422-.3-.656c-.244-.375-.291-.6-.234-1.519.028-.581.141-1.359.244-1.706.169-.609.15-.656-.272-1.228-.506-.656-.553-.862-.234-1.303.3-.422.262-.778-.131-1.153-.187-.178-.478-.628-.656-.984l-.337-.637.3-.713c.366-.862.366-1.237.066-1.491-.666-.581-.703-1.763-.103-2.813.338-.553.291-1.012-.103-1.153-.413-.131-.591-.825-.694-2.55-.103-1.538-.113-1.631-.422-1.669-.244-.047-.338-.15-.338-.422 0-.206.103-.403.216-.45s.216-.225.216-.375c0-.206-.103-.281-.366-.281-.3 0-.366-.075-.366-.459 0-.253-.103-.928-.234-1.481-.234-1.003-.234-1.031.075-1.538.262-.431.272-.581.141-.984a1.45 1.45 0 0 0-.591-.703c-.413-.225-.422-.244-.319-1.087.075-.713.047-.966-.169-1.341-.15-.253-.3-.459-.347-.459-.169 0-.075-1.041.103-1.106.291-.122 1.022.075 1.219.3.094.122.291.206.441.206s.347.15.422.347c.122.347.666.928 1.659 1.791.881.759 1.266 1.003 1.622 1.003.188 0 .337.075.337.15 0 .094-.103.15-.216.15s-.216.047-.216.122c.019.178.488.712.759.825s.319.328.103.478c-.459.3.197 1.116.909 1.116.188 0 .488.169.656.375.216.253.459.375.759.375.45 0 .45.019.375.525a3 3 0 0 1-.375.956c-.169.244-.3.459-.3.506 0 .103.619.281.834.253.375-.047.75.478.75 1.031 0 .3.103.703.216.909.103.206.441.881.722 1.491.3.609.797 1.416 1.116 1.781.534.581.581.703.506 1.256-.075.563-.047.638.712 1.434.441.459.825 1.003.872 1.209.103.478.244.806.75 1.641.234.375.488.9.581 1.163s.291.675.469.881c.15.206.291.506.291.675 0 .15.15.328.338.403.3.122.366.272.441 1.312.122 1.444.216 1.837.45 1.837.384 0 .656.459.656 1.116 0 .506.075.703.291.825a.66.66 0 0 1 .291.506c0 .384.506 1.669.713 1.809.066.047.103.206.047.356-.047.197.028.347.234.45.169.103.3.281.3.431 0 .131.094.384.188.572.703 1.256.975 1.912.975 2.4 0 .403.094.628.291.759.15.103.291.272.291.375 0 .122.15.356.366.553.291.281.366.497.366 1.078 0 .628.047.712.3.712.731 0 .853.225.853 1.641v1.331l.506.422c.441.356.506.506.506 1.059 0 .431.131.881.375 1.312.337.581.366.788.3 1.519-.047.459-.131 1.003-.197 1.181-.047.244-.028.347.103.347.347.019 1.003 1.284 1.172 2.241.066.497.244 1.003.347 1.116.15.15.197.628.197 1.716 0 1.303.028 1.509.262 1.594.581.206.75.525.75 1.378.019.497.103.956.216 1.116s.216.45.216.628.113.478.272.675c.216.281.234.422.103.853-.131.459-.113.553.197.834.75.684 1.266 1.659 1.031 1.941-.103.122-.075.403.075.834.122.375.291 1.303.366 2.072.169 1.641.291 1.959.722 1.856.291-.094.291-.056.094.431s-.188.581.075 1.153c.3.684.347 1.463.216 4.003-.056 1.209-.028 1.566.131 1.706s.188.403.113 1.087c-.047.506 0 1.406.103 2.034.103.609.15 1.509.15 1.997-.047 1.031.188 2.016.487 2.138.291.103.262 1.078-.047 1.416-.216.253-.216.3.075.609.656.713.759 1.388.741 4.209-.019 1.613.028 1.856.413 2.316.319.403.366.6.366 1.444 0 .534-.047 1.003-.094 1.041-.047.056.047.3.188.553.441.75.834 2.072.656 2.137-.094.028-.291.15-.441.272-.262.197-.244.225.272.731.459.431.534.581.441.863-.122.384-.122.45.103 2.953.188 2.194.188 2.766-.028 3.328-.234.581-.056 1.819.375 2.691.197.403.319.788.272.881-.047.075-.113.684-.141 1.341-.047.656-.15 1.416-.272 1.716-.234.553-.291 1.706-.103 1.894.056.056.169-.131.262-.459.262-.853.272.422.094 6.375-.056 1.931-.056 3.675 0 3.872.075.206.056 1.116-.047 2.137-.15 1.556-.15 1.819.047 2.259.197.422.197.553.028.862-.103.197-.188.656-.197 1.013 0 .375-.122.853-.272 1.116-.169.3-.347 1.041-.459 2.063-.169 1.584-.169 1.631.122 2.063.375.525.413 1.041.094 1.734-.15.347-.197.684-.141 1.059.169 1.003.122 1.303-.244 1.631-.347.3-.366.403-.291 1.162.094.909 0 1.134-.928 2.194-.347.403-.637.581-.9.581-.619 0-.731.225-.638 1.378.094.975.056 1.041-.3 1.444-.216.244-.656.534-.956.684-.488.225-.609.375-.872 1.162-.347 1.088-.375 1.791-.056 2.063.262.225.928 1.519.928 1.819 0 .122-.131.384-.291.6-.375.497-.366.928.019 1.209.272.197.3.328.262 1.416-.047 1.078-.103 1.238-.478 1.631-.375.422-.394.478-.234.956.244.684.066 1.744-.394 2.447-.319.497-.347.628-.216 1.088.103.328.122.6.019.778-.084.178-.084.525.019.975l.15.713-.778.825-.778.834.188.75c.113.422.197 1.191.197 1.744 0 .909-.028 1.031-.366 1.256-.272.178-.338.328-.272.638.047.225 0 .806-.094 1.303-.103.478-.188 1.134-.216 1.444s-.159.703-.3.881c-.197.225-.272.534-.272 1.228 0 .834-.047 1.003-.441 1.463-.441.506-.45.572-.469 1.997 0 .825-.066 1.669-.15 1.884a1.42 1.42 0 0 0-.019.862c.169.628-.056 1.238-.684 1.734-.459.356-.488.45-.403.938.15.928.113 1.331-.15 1.762-.15.225-.337.628-.422.862a1.1 1.1 0 0 1-.459.6c-.188.075-.394.328-.469.572-.084.225-.272.6-.441.806-.15.206-.291.572-.291.806 0 .656-.422 1.594-.853 1.931-.216.15-.506.572-.656.928s-.45 1.059-.684 1.566c-.244.534-.422 1.162-.422 1.519 0 .478-.075.638-.319.778-.394.225-.619.497-.928 1.134-.131.272-.347.525-.506.572-.338.103-.347.356-.075.75.244.347.169.6-.366 1.238-.216.272-.413.553-.413.638s-.169.384-.375.675c-.422.572-.909 2.213-.928 3.066 0 .6-.347 1.031-.834 1.031-.272 0-.319.094-.319.637s-.047.684-.366.834c-.347.159-.375.225-.319 1.078.047.938 0 1.031-.638 1.238-.197.056-.262.253-.262.9 0 .628-.047.862-.272 1.012-.394.281-.9 1.331-.797 1.659.056.197-.075.459-.469.881-.487.506-.562.675-.562 1.284 0 .684 0 .703-.656.938l-.656.253-.047.806c-.047.731-.075.825-.459.975a.76.76 0 0 0-.516.581c-.103.459-.581 1.556-.956 2.147-.131.206-.272.609-.319.909-.075.431-.244.675-.853 1.134-.778.6-.806.703-.609 1.659.103.431.075.497-.15.45-.197-.028-.291.056-.319.328-.028.206-.131.581-.234.825s-.234.553-.262.675c-.047.122-.478.525-.975.9l-.928.675-.028 1.003c-.028 1.106-.197 1.556-.656 1.688-.234.075-.272.178-.197.478.103.431-.131.787-.506.787-.291 0-.459.347-.347.675.131.347-.075.975-.3.975-.113 0-.319.244-.441.525-.131.3-.375.6-.516.684-.216.122-.244.206-.131.328.291.3.197.975-.197 1.238-.262.178-.366.356-.338.638.047.553-.15.806-.553.713-.534-.103-1.65 1.078-1.65 1.734 0 .403-.122.6-.581.984-.441.356-.581.581-.581.909 0 .403-.047.45-.441.45-.553 0-1.078.553-1.228 1.238-.056.347-.338.703-.956 1.228-.469.403-.853.825-.853.928s-.094.244-.188.3c-.122.056-.319.328-.487.572-.141.253-.609.787-1.022 1.228-.516.534-.778.928-.853 1.313-.075.459-.15.534-.394.459-.244-.056-.553.178-1.434 1.116-.619.656-1.125 1.284-1.125 1.387 0 .272-.394.581-.562.478-.131-.094-.9.675-1.369 1.331-.094.131-.394.3-.666.356-.412.075-.516.197-.581.506-.047.225-.272.553-.516.731-.262.197-.872.834-1.341 1.434-.488.581-.975 1.078-1.097 1.078s-.319.159-.441.375c-.131.206-.656.581-1.172.853-.506.253-.984.581-1.069.731-.075.15-.3.281-.516.309-.338.028-.422.131-.45.497-.047.506-.366.825-.825.825-.169 0-.638.159-1.031.375s-.919.375-1.2.375c-.563 0-2.194.422-2.391.609-.216.206-.713.159-1.069-.103zM256.547 15.45c0-.028-.169-.056-.375-.056s-.338.056-.291.131c.094.122.666.056.666-.075"/><path d="M155.822 205.388c-.487-.15-.759-.159-.956-.047-.478.253-.553.178-.666-.684-.094-.778-.075-.863.291-1.256s.375-.459.216-.975c-.244-.75-.056-3.131.291-3.731.366-.638.488-1.209.488-2.4 0-.75-.075-1.181-.244-1.416-.244-.375-.3-1.387-.103-1.959.075-.225.047-.525-.084-.834-.178-.45-.244-.497-.619-.403-.272.056-.431.047-.431-.056s.075-.159.15-.159c.103 0 .122-.206.066-.553-.15-.938-.366-1.359-.872-1.659-.3-.197-.487-.45-.553-.75-.131-.684-1.463-1.266-2.194-.984-.244.103-.656.975-.656 1.387 0 .15-.234.534-.506.862-.478.572-.506.675-.478 1.566.019.909-.188 1.613-.459 1.613-.094 0-.15.244-.15.525 0 .356-.075.525-.216.525-.113 0-.216-.131-.216-.3 0-.225-.103-.3-.422-.3-.234 0-.487.103-.609.244-.103.122-.431.356-.741.525-.319.159-.591.384-.656.506-.047.122-.15.225-.272.225-.225 0-.263-.422-.056-.75.103-.178.056-.244-.263-.3-.3-.056-.487-.272-.759-.9-.272-.609-.516-.9-.947-1.116-.544-.3-.563-.328-.516-1.013.047-.637-.3-1.631-.544-1.584-.047 0-.347.197-.666.403-2.025 1.359-2.081 1.416-1.734 1.809.169.206.197.403.103 1.041-.169 1.078-.272 1.153-1.097.778-.375-.178-.909-.309-1.172-.309-.375 0-.656-.15-1.125-.6-.347-.328-.684-.6-.75-.6-.272-.019-1.219-1.556-1.219-1.997 0-.244-.169-.656-.366-.938-.366-.497-.375-.581-.338-2.034l.056-1.519-.469-.225c-.263-.122-.478-.309-.478-.431-.019-.975-1.003-1.856-2.269-2.034-.656-.094-.75-.056-.797.178-.047.15.019.375.112.497.216.272.113.9-.15.909-.094 0-.366.019-.656.028-.291.019-.516.122-.563.244s-.216.375-.412.572c-.3.3-.422.328-1.2.253-.478-.056-.975-.056-1.097 0-.216.075-.216.122-.019.422.291.431.291.572-.019.572-.225 0-1.781-1.566-1.781-1.809 0-.056.075-.159.15-.206.244-.15.159-.759-.15-1.041-.169-.15-.291-.347-.291-.45s-.169-.356-.366-.581-.366-.534-.366-.703-.131-.347-.3-.403c-.487-.197-.703-1.088-.544-2.166.197-1.228.103-1.519-.656-1.969-1.003-.6-1.125-.825-1.172-1.987-.019-.6-.169-1.406-.347-1.884-.169-.459-.3-1.088-.3-1.378 0-.403-.103-.628-.431-.928-.487-.45-.516-.6-.225-1.444.487-1.434.459-1.631-.244-2.372-.609-.638-.872-.759-1.369-.703-.112.019-.347-.131-.534-.356-.197-.206-.75-.713-1.228-1.134-.956-.825-1.125-.853-2.606-.6-.516.094-1.359.159-1.884.159-.722 0-1.125.094-1.763.403-.459.244-.834.497-.834.572 0 .094-.244.272-.534.403-.469.225-.563.225-.825.028-.169-.103-.422-.206-.563-.206s-.403-.094-.581-.178c-.169-.103-.759-.197-1.313-.197-.975 0-1.003-.019-1.116-.403-.056-.244-.469-.759-.909-1.181-.534-.506-.806-.881-.806-1.106 0-.197-.103-.375-.216-.431s-.216-.225-.216-.384-.103-.3-.216-.3-.216-.056-.216-.15c0-.075-.187-.328-.431-.553-.225-.206-.431-.478-.431-.572s-.188-.225-.422-.272c-.347-.075-.506-.253-.853-1.041-.469-1.003-.656-1.238-1.116-1.331-.263-.047-.291-.15-.244-.975s.028-.928-.263-1.012c-.169-.056-.394-.028-.487.056s-.272.159-.422.159c-.366 0-.516-.45-.216-.628.319-.178.337-1.313.019-2.241-.131-.403-.197-1.041-.169-1.556.047-.787.066-.881.403-.975.3-.075.319-.103.113-.206-.141-.056-.263-.225-.263-.356s-.103-.403-.225-.581c-.169-.234-.197-.506-.131-.984.094-.534.216-.759.666-1.134l.581-.459-.375-.45c-.422-.525-.469-1.003-.103-1.134.825-.281 1.444-.684 1.687-1.116.15-.272.441-.675.684-.9.272-.272.403-.534.403-.863 0-.272.15-.675.3-.928.225-.328.291-.581.225-1.013-.056-.459-.019-.628.263-.863.3-.272.319-.347.188-1.162-.169-1.013-.169-.909.028-2.044.094-.478.103-.956.047-1.041-.159-.253-.347-1.931-.366-3.347-.028-.984.019-1.284.225-1.519.169-.197.225-.431.169-.713-.169-.928-.225-4.969-.094-6.244.197-1.734.188-1.987-.122-3.206-.169-.563-.263-1.041-.216-1.078.028-.028.094-.45.131-.909.075-.806.056-.862-.291-1.003-.225-.094-.366-.253-.366-.478 0-.459-.131-.609-.637-.787-.366-.122-.469-.281-.656-1.013-.169-.628-.394-1.013-.806-1.434-.834-.834-1.219-1.434-1.219-1.866 0-.225-.197-.563-.45-.853-.413-.422-.422-.478-.216-.713.3-.356.3-.375-.263-1.013-.263-.309-.516-.75-.563-.956-.131-.506-.638-1.059-1.228-1.313-.263-.122-.45-.281-.422-.375.075-.197-.347-.984-.506-.984-.075 0-.169.094-.197.206-.047.169-.291.131-1.256-.169-.638-.206-1.388-.375-1.659-.375-.338 0-.638-.131-.956-.431-.581-.506-1.266-.6-1.659-.225-.347.328-.684.225-.909-.281-.131-.309-.263-.375-.75-.356-.347 0-.825-.122-1.172-.3-.431-.234-.825-.309-1.659-.309-.637 0-1.172-.075-1.275-.178-.112-.122-.216-.122-.347 0a1.1 1.1 0 0 1-.544.169c-.806.028-2.559.281-3.084.45-.394.131-.684.131-1.003.028-.263-.075-1.041-.197-1.734-.234-1.2-.103-1.294-.131-1.763-.609-.272-.281-.656-.525-.872-.525-.197-.019-.581-.047-.825-.094a28 28 0 0 0-1.575-.094c-1.003-.028-1.153-.094-1.837-.6-.797-.581-1.537-.713-1.903-.356-.159.15-.188.075-.122-.384.094-.553.094-.553-.562-.731-.619-.178-.872-.422-.422-.422.122 0 .216-.056.216-.15 0-.075-.122-.15-.272-.15s-.347-.103-.45-.225-.366-.225-.562-.225c-.216 0-.516-.103-.684-.225-.141-.122-.366-.225-.506-.225s-.272-.094-.319-.206c-.122-.3-.684-.356-1.153-.122-.516.253-.881.131-.787-.272.075-.309-.806-1.491-1.125-1.491-.122 0-.291-.122-.394-.272-.103-.169-.347-.356-.516-.459-.366-.197-.778-1.031-.853-1.641-.075-.731-.131-.778-.909-.675-.666.094-.731.075-.853-.253-.075-.197-.319-.534-.534-.75-2.006-1.913-2.372-2.297-2.372-2.597 0-.169.075-.384.169-.478.169-.178-.103-.834-.684-1.641-.187-.253-.347-.563-.347-.703 0-.281-.553-.684-.975-.684s-.666-.497-.553-1.031c.056-.309 0-.478-.291-.759-.197-.197-.366-.459-.366-.6s-.131-.375-.291-.525c-.169-.15-.291-.45-.291-.675 0-.581-.684-2.091-1.191-2.569-.234-.206-.412-.553-.412-.75s-.188-.553-.431-.788c-.291-.281-.431-.581-.431-.853 0-.45-.366-1.313-.619-1.491-.094-.047-.262-.309-.366-.6-.131-.272-.375-.553-.562-.638-.375-.178-.563-.628-.337-.862.197-.206.216-.9.019-.778-.075.047-.15.225-.15.384 0 .422-.347.272-.403-.169-.028-.197.047-.431.169-.525.337-.253.319-1.087-.019-1.941a17 17 0 0 1-.394-1.013c-.047-.131-.3-.384-.581-.572-.469-.281-.487-.328-.366-.834.15-.712.028-2.362-.234-3.028-.122-.281-.272-1.491-.366-2.691s-.216-2.737-.272-3.431c-.075-.731-.075-1.378 0-1.519s.131-.637.131-1.134c0-.675-.075-.984-.3-1.266a2.3 2.3 0 0 1-.375-.9c-.047-.431 0-.553.375-.9.45-.384.563-.806.319-1.266-.075-.15-.075-.675.019-1.303.075-.572.131-1.631.122-2.325s.094-1.791.197-2.419c.197-.975.197-1.434.075-2.944-.122-1.303-.122-1.931 0-2.269.084-.253.159-.806.159-1.237 0-.628.075-.834.366-1.116.262-.253.366-.506.366-.928 0-.328.103-.788.234-1.031.131-.272.244-.938.262-1.631.047-.928.122-1.256.366-1.584.234-.309.3-.628.319-1.462.019-.581.056-.881.094-.637.141.928.984.15.928-.853-.019-.506.075-.788.403-1.313.244-.375.506-.984.591-1.378.216-1.031.516-1.584 1.191-2.184l.581-.534-.272-.478-.262-.497.506-.45c1.331-1.191 1.313-1.181 1.275-1.791a1.58 1.58 0 0 1 .291-1.031c.187-.253.319-.656.319-.956 0-.422.103-.6.581-.984.319-.253.619-.628.666-.825.056-.244.262-.422.562-.525.506-.169.684-.45.563-.806-.047-.122.047-.347.187-.497s.45-.525.684-.825c.216-.309.516-.6.666-.638s.506-.45.806-.9c.487-.759.562-.825 1.097-.825.516 0 .563-.028.478-.356-.056-.244-.019-.375.169-.431.131-.056.216-.244.197-.431s-.019-.478 0-.638c.019-.272.047-.253.197.075.169.347.262.375 1.153.356.591 0 .975.056.984.15s0 .881 0 1.744c.019 1.641-.15 2.222-.684 2.691-.394.328-.637 1.106-.637 1.987 0 .656-.056.853-.272.966-.234.131-.272.384-.337 1.538-.056.909-.169 1.556-.337 1.884-.159.328-.244.806-.234 1.378 0 .628-.056.966-.262 1.209-.216.281-.244.534-.188 1.856.056 1.191.019 1.613-.169 1.969-.375.759-.469 2.259-.319 5.494.056 1.153.122 2.569.131 3.141.019.581.103 1.153.169 1.266.272.45.637 1.734.656 2.288 0 .356.075.6.216.656.366.131.656.862.656 1.612s.187 1.209 1.116 2.597c.591.909.619.984.591 1.941-.047.834 0 1.059.272 1.416.244.309.337.628.337 1.134 0 .431.094.778.197.9.122.094.291.403.375.684.094.272.366.637.609.825.394.3.422.375.347.938-.084.581-.056.637.731 1.462.637.675.806.975.834 1.406.047.422.188.656.637 1.087.684.628 1.472 1.884 1.472 2.344 0 .206.122.356.3.403.216.056.272.169.197.384-.094.3.666 1.284 2.053 2.644.347.347.619.684.619.778s.169.3.384.431c.487.328 1.05.956 1.05 1.191 0 .094.262.403.563.675.319.272.656.684.75.909.103.244.337.45.553.497.778.169 1.65.553 1.875.834.131.15.487.553.806.881l.563.6 2.784-.094.797.628c.694.553.806.6 1.031.403.272-.253.703-.272.703-.019.019.403.909 1.191 1.509 1.331 1.369.309 1.359.309 1.837-.094.609-.534.797-.497 1.097.244.169.384.188.384 1.266.309l1.078-.094.638 1.106 1.341-.075c1.303-.075 1.341-.056 1.659.309.319.384.337.384 1.875.281a50 50 0 0 0 2.269-.178c.656-.094.797-.047 1.069.244.3.309.366.328 1.622.169.9-.103 1.397-.103 1.594 0 .384.225 1.781.019 2.194-.328.188-.169.506-.281.703-.281s.544-.094.787-.206c.216-.122 1.125-.3 1.997-.384.881-.103 1.688-.272 1.809-.375.112-.122.759-.422 1.444-.675.975-.375 1.359-.45 1.856-.375.422.056.609.047.609-.094 0-.272 1.2-1.312 1.537-1.331.169 0 .469-.122.656-.272s.459-.309.591-.375c.131-.047.263-.244.291-.431a.41.41 0 0 1 .375-.384c.187-.028.394-.206.459-.403s.291-.459.487-.6c.197-.131.412-.375.45-.534.169-.553.487-.731 1.078-.637.478.075.581.047.741-.253.103-.197.272-.431.413-.534.319-.253 1.631-.638 2.166-.638a1 1 0 0 0 .713-.309c.609-.75 1.144-.928 2.587-.9.881.019 1.444-.028 1.584-.15.15-.122.591-.15 1.519-.075 1.284.103 1.322.094 1.8-.309 1.341-1.116 1.359-1.134 2.494-.6.225.103.431.103.684-.019.216-.103.394-.122.431-.028.169.3 1.012.15 1.416-.225.216-.206.394-.45.394-.506 0-.075.403-.272.9-.459.75-.281.975-.309 1.416-.169.3.094.666.169.825.169.338 0 .703-.384.797-.825.028-.197.15-.281.338-.253 1.2.225 1.313.206 1.781-.197.244-.206.487-.525.534-.675.094-.3.169-.309 1.809-.328.272 0 .956.094 1.491.178.741.131 1.088.15 1.35.019.488-.225 1.603-.206 2.391.028.487.169.909.178 1.725.056l1.078-.131.431.525c.441.525.469.525 1.341.45.975-.094.881-.169 1.266.956.047.131.169.122.516-.056.694-.356 1.725-.178 2.456.431.553.45.666.497 1.519.459.909-.047.928-.028 1.247.459.375.581 1.116.928 1.903.853.441-.028.619.028.881.347.188.197.338.497.319.637-.019.197.15.281.684.356.45.075.834.253 1.088.497.216.206.459.384.562.384s.291.15.469.328l.291.328.441-.347c.319-.244.609-.309.984-.281l.534.047.019.75c0 .422.019.787.028.853s.366-.019.75-.178c.403-.169.909-.3 1.116-.3.506 0 1.613.675 2.147 1.313l.45.534.516-.422c.3-.244.619-.384.75-.328.244.094.291.328.075.459-.272.178.15.525.656.525.516 0 1.444.356 1.594.609.075.103.338.131.731.056.638-.094.656-.094.853.431.159.375.338.534.637.609.234.047.506.197.609.309s.347.206.562.206c.319 0 .441.094.563.459.262.788 2.391 3.272 2.822 3.272.216 0 .581.403.703.787.056.15.291.347.534.422.319.122.441.281.516.675.075.375.15.506.375.506.188 0 .347.169.441.45.169.478.75.75 1.622.75.244 0 .609.122.797.253.412.3 2.119.938 2.494.938.141 0 .347.197.478.431.244.525.516.628 1.678.684.975.047 1.219.197 1.331.806l.094.431 1.275-.281c.694-.15 1.659-.272 2.128-.281s1.369-.103 2.006-.234c.806-.178 1.613-.225 2.728-.178 1.434.056 2.241-.047 3.009-.375.113-.047.422-.103.656-.131.366-.047.441-.122.478-.497.056-.534.234-.675.872-.675.347 0 .469.056.469.272 0 .169.084.103.234-.197.394-.778.637-.975 1.266-.975s1.284-.459 1.725-1.209c.216-.375.3-.403.619-.281.563.225 1.078.178 1.191-.075.122-.384 1.341-.928 2.269-1.013.975-.103 1.397-.403 1.116-.759-.15-.178-.103-.3.3-.675.262-.253.75-.6 1.106-.759.384-.197.609-.403.609-.572s.244-.534.553-.862c.3-.309.619-.684.684-.806s.262-.3.422-.384c.15-.094.319-.375.366-.637.047-.281.216-.572.441-.731.469-.309 1.369-1.416 1.509-1.809.047-.15.272-.356.516-.459.366-.169.469-.15.694.056.131.131.338.244.422.244.216 0 .216-.497 0-.713-.188-.197.094-.628.403-.628.122 0 .197-.131.197-.3 0-.178.169-.384.441-.525.244-.131.441-.3.441-.384 0-.422.619-.984 2.25-2.072.338-.225.488-.459.553-.881.075-.525.375-.881 1.219-1.434.019-.019.056-.3.094-.628s.169-.778.3-1.003c.178-.272.216-.534.159-.9-.075-.375-.019-.675.197-1.087.15-.309.291-.637.291-.731s.131-.347.291-.553c.169-.206.375-.609.459-.881s.319-.675.506-.9c.375-.403.394-.787.112-1.941-.084-.347-.047-.431.234-.553.262-.094.422-.356.609-.975.131-.459.244-.928.244-1.031s.197-.478.45-.825l.441-.628-.159-1.116c-.084-.628-.262-1.313-.366-1.537-.216-.431-.197-.45.441-.853.338-.206.516-1.191.422-2.316-.084-.909-.056-1.003.291-1.331.366-.375.478-.825.244-1.191-.131-.206.15-1.612.441-2.212.113-.253.094-.422-.141-.825-.159-.272-.347-.853-.413-1.284-.075-.638-.047-.834.15-1.078.234-.272.244-.356.019-1.491-.3-1.556-.3-3.178-.019-3.431.272-.244.15-.45-.3-.45-.347 0-.347-.019-.262-1.012.075-.825.056-1.041-.141-1.209-.131-.103-.234-.422-.234-.675 0-.309-.131-.6-.422-.881-.366-.347-.422-.497-.347-.966.047-.3.197-.806.347-1.116.338-.675.262-1.041-.234-1.266-.441-.206-.469-.628-.075-1.003.366-.356.366-.459-.103-.703-.591-.3-1.069-1.359-.975-2.119.056-.328.15-.731.234-.863.084-.197.019-.356-.338-.675-.394-.375-.431-.497-.375-1.003.047-.309.131-.628.197-.684.056-.056.553-.047 1.078.028.956.15.984.169 1.359.825.244.45.431.637.591.581.684-.272.9-.244 1.584.225.384.272.731.506.778.534.047.047-.047.131-.188.206-.291.178-.338.806-.056.984.094.056.375.197.609.272.272.094.45.253.45.45.019.169.028.422.047.563s.103.253.216.253c.338 0 .806.778.713 1.209-.056.3.047.478.441.853.291.253.609.431.731.384.131-.056.216.122.272.6.15 1.087.834 2.325 1.613 2.897.422.309.694.637.731.9l.234 1.116c.113.506.113.759 0 .909-.197.225.3.759.778.863.169.047.262.15.216.281-.197.609-.047 1.941.347 2.737.291.581.366.956.319 1.209-.103.403.319 1.584.619 1.781.262.178.187.928-.131 1.209-.262.234-.291.403-.197 1.481.047.675.169 1.537.3 1.941.122.497.169.975.113 1.406-.075.553-.047.712.216 1.003.366.403.609 2.016.3 2.016-.131 0-.15.169-.103.572.103.675.272 2.7.244 3.019-.15 1.987-.15 3.141 0 3.628.15.525.15.581-.131.787-.262.178-.319.375-.319.975 0 .853-.141 1.209-.759 1.884-.413.45-.422.525-.319 1.266.15 1.237.094 2.325-.234 3.122-.15.422-.272.909-.272 1.116s-.141.572-.319.825c-.375.525-.441 1.387-.131 1.969.216.422.244.347-.516 1.416-.244.356-.347 1.162-.347 2.747 0 .684-.056.862-.262.938-.216.056-.272.3-.347 1.191-.056.609-.188 1.341-.3 1.612-.15.422-.15.581 0 .984.197.497.094 1.134-.272 1.434-.553.45-.825 1.303-.825 2.466 0 1.059-.047 1.228-.384 1.669a6 6 0 0 1-.562.6c-.113.094-.131.3-.056.675.075.309.094.938.028 1.388-.103.787-.112.825-.684.984-.619.178-.656.253-.338 1.284.122.45.112.609-.056.9-.122.197-.262.581-.319.9-.047.3-.188.563-.291.609-.122.047-.244.309-.3.581s-.291.759-.516 1.078c-.234.328-.422.713-.422.862 0 .431-.366 1.087-1.069 1.894-.638.731-1.059 1.669-.881 1.941.113.197-.262 1.087-.562 1.341a2.5 2.5 0 0 0-.459.75c-.113.281-.3.628-.422.75-.834.928-.956 1.153-.881 1.519.056.3-.028.497-.366.825-.553.534-1.2 1.613-1.416 2.316-.197.656-.459.909-1.331 1.237-.731.272-1.191.703-1.397 1.303-.103.272-.487.553-1.359 1.003-.656.347-1.322.628-1.462.628-.338 0-1.05.403-1.575.863-.234.225-.638.384-1.041.431-.366.047-.666.15-.666.206 0 .075-.103.131-.216.131s-.534.3-.947.675c-.403.375-.806.684-.909.684a7 7 0 0 1-.731.056c-.534.028-.909.309-1.341 1.003-.216.347-1.463.713-1.875.563-.581-.225-.9-.178-.994.169-.094.253-.178.3-.488.225-1.509-.356-1.912-.253-1.912.525 0 .3-.113.506-.366.684-.366.234-.394.234-.562 0-.188-.272-.506-.347-.506-.103 0 .3-1.341 1.191-1.809 1.191-.262 0-.619.122-.806.272s-1.116.628-2.044 1.078c-.947.45-1.706.881-1.706.975 0 .075-.422.609-.938 1.163-.506.563-1.05 1.284-1.191 1.594-.272.609-.581.787-.975.563-.169-.103-.262-.075-.319.103-.056.131-.272.328-.506.459-.338.178-.422.309-.422.731 0 .272-.094.6-.197.713-.15.15-.15.272-.056.375.197.206-.272.928-.637.928-.159 0-.375.197-.516.459-.131.253-.516.806-.853 1.228-.394.459-.619.909-.619 1.153s-.15.553-.403.787c-.975.975-1.266 2.287-.656 2.972.262.3.262.272-.441 1.613-.516.975-.666 2.372-.694 7.078-.047 4.134-.075 4.659-.291 4.959-.3.384-.319.853-.094 2.034.169.863.169.881-.234 1.266-.422.403-.422.356-.15 1.706.075.328 0 .459-.422.787-.591.459-.825 1.041-.825 1.997 0 .403-.094.778-.234.938-.262.3-.338 1.856-.103 2.297.094.159.197.684.244 1.153.103.806.094.853-.234.9-.469.056-.581.881-.375 2.616.15 1.378.15 1.388-.216 1.894-.197.272-.422.675-.487.9-.047.225-.216.497-.366.581-.15.103-.272.281-.272.403s-.234.525-.506.881c-.319.403-.506.825-.506 1.078 0 .347-.103.478-.488.637-.262.122-.666.45-.9.75s-.619.675-.881.834c-.262.15-.506.45-.563.656-.075.328-.169.384-.656.384-.834 0-1.547.356-1.762.881-.15.384-.197.422-.459.225-.15-.122-.366-.206-.469-.206-.113 0-.384-.15-.619-.328s-.45-.3-.487-.253c-.806 1.181-.806 1.181-1.603 1.181a3.9 3.9 0 0 1-1.434-.3c-.591-.272-.769-.281-1.659-.15-.534.103-1.275.197-1.631.225-.656.047-1.059.178-2.606.825-.431.178-.984.375-1.228.431a.88.88 0 0 0-.609.497c-.234.497-1.275 1.462-1.575 1.462-.562 0-2.222 2.194-2.231 2.953 0 .103-.131.375-.272.6-.272.375-.272.459-.075 1.434.169.825.169 1.059.028 1.256-.3.356-.506 1.434-.366 1.912.066.244.122 1.106.122 1.913l.019 1.481-.441.356c-.244.206-.45.497-.45.638s-.056.328-.15.375c-.066.047-.141.656-.141 1.341 0 1.331-.291 2.316-.694 2.316-.15 0-.188.178-.113.862.291 2.991.3 2.775-.188 3.347-.244.281-.412.572-.366.609s.103.272.113.506c.028.225.075.506.103.628.094.309-.403.375-.684.094-.122-.131-.347-.225-.478-.197-.188.047-.234.244-.216 1.162.019.609.028 1.341.056 1.613.028.328-.056.581-.262.825-.169.197-.319.497-.319.675s-.197.553-.441.834c-.384.459-.441.581-.347 1.153.103.581.075.656-.384 1.041-.422.356-.487.497-.469 1.059.019.347.056.881.113 1.191.094.459.056.553-.197.638a1.3 1.3 0 0 1-.609 0c-.197-.075-.272-.047-.262.103.094.459-.188.834-.825 1.087-.872.347-1.509.909-1.509 1.341 0 .478-.113.525-.909.272zm-6.253-38.588c.319-.094.684-.253.797-.356s.412-.253.619-.3c.272-.075.375-.178.338-.356-.216-.825-.216-1.106-.019-1.594.113-.3.216-.759.216-1.041 0-.384-.056-.497-.319-.534-.244-.028-.319-.122-.272-.347.028-.159.056-.938.075-1.716 0-.778.047-1.444.094-1.491s.169-.506.272-1.041c.094-.534.197-1.134.244-1.341.056-.253-.019-.506-.197-.75-.234-.3-.262-.431-.131-.713.131-.272.103-.459-.103-.853-.262-.497-.262-.909-.019-1.809.066-.244-.047-.459-.487-.909-.403-.403-.619-.778-.684-1.181-.056-.309-.188-.731-.3-.909s-.197-.609-.197-.956c0-.45-.103-.75-.394-1.088-.197-.253-.431-.45-.516-.422-.291.094-.694-.169-.9-.581-.122-.253-.441-.534-.759-.656a1.77 1.77 0 0 1-.853-.806c-.375-.684-.741-.684-1.219 0-.188.281-.422.431-.656.431-.684 0-1.509.628-1.509 1.134 0 .178-.347.863-.759 1.519-.487.713-.825 1.434-.9 1.838-.159.863-.122 2.297.056 2.644s-.047.628-.487.628c-.684 0-.806.506-.347 1.556.319.759.338 1.537 0 1.462-.103-.028-.347.094-.516.272-.291.281-.319.431-.291 1.716.028 1.191 0 1.406-.197 1.406-1.387.047-1.387.047-1.369.684.047 1.106.216 2.044.422 2.362.122.178.216.431.216.572s.263.609.581 1.041c.319.45.581.881.581.984 0 .581 2.025.497 3.328-.15 1.003-.497 1.2-.506 1.519-.019.197.328.319.375.731.3.422-.094.516-.047.666.244.244.497.403.572 1.153.572.431 0 .741.094.872.244.187.244.637.478.928.497.084.019.403-.056.722-.15zm-9.788-1.003c.047-.131-.028-.197-.197-.15a.45.45 0 0 0-.319.244c-.047.131.028.197.197.15a.45.45 0 0 0 .319-.244m-14.653-11.766c.394-.431.9-.497 1.706-.225.769.272 1.387.094 1.491-.403.225-1.116.319-1.228.956-1.228.656 0 .834-.15 1.228-1.003.216-.506.534-.928.778-1.078.366-.206.422-.328.422-.909-.019-.375-.103-.806-.216-.956-.112-.169-.216-.45-.216-.637s-.103-.553-.216-.787c-.169-.3-.216-.825-.197-1.594.019-.825-.047-1.303-.216-1.613-.131-.234-.225-.525-.225-.628s-.225-.356-.506-.581c-.319-.234-.563-.609-.684-.975-.103-.384-.244-.581-.422-.581-.131 0-.619-.15-1.069-.328-.9-.347-1.219-.713-.872-1.013.337-.281.263-.675-.15-.863-.197-.094-.366-.272-.366-.384s-.141-.234-.338-.3c-.197-.047-.422-.281-.544-.563-.131-.309-.319-.506-.534-.534-.187-.028-.403-.225-.487-.422-.112-.253-.244-.347-.384-.272a4 4 0 0 1-.544.169c-.3.075-.337.019-.337-.459 0-.384.056-.534.216-.534.263 0-.394-.609-1.303-1.238-.684-.478-1.003-.497-2.213-.103-.506.169-1.144.3-1.416.3-.684 0-1.313.309-1.997.956-.3.3-.609.534-.684.534s-.394.234-.694.534c-.319.281-.684.506-.825.478s-.272.056-.291.178c-.3 2.241-.563 3.206-1.022 3.759-.3.384-.487.759-.487 1.041 0 .309-.084.459-.263.525-.225.056-.3.309-.441 1.463-.094.778-.244 1.584-.338 1.809-.169.375-.15.431.366.863.487.422.534.534.534 1.153 0 .713.122.881.722.881.169 0 .272.15.338.422.047.225.197.553.347.731.15.197.375.506.506.703.188.253.394.356.684.356.272-.019.591.122.834.347.216.206.563.459.797.581s.431.375.478.581c.15.713.188.759.619.759.225 0 .478.075.534.159.056.103.366.131.872.056.656-.075.853-.047 1.2.206.563.422 1.65.422 2.297.019.609-.384.9-.375.9 0s.684 1.031 1.05 1.041c.15 0 .422-.178.609-.384zm41.278-.825c.956-.3 2.25-.375 2.606-.15.131.094.441.028.872-.159 1.369-.638 1.678-.853 1.95-1.378.169-.328.394-.534.553-.534.319 0 .872-.272 1.012-.506.056-.094.113-.375.113-.609 0-.253.131-.713.291-1.041.234-.459.375-.581.684-.6.394 0 .412-.019.366-.778-.047-.675 0-.806.338-1.134.338-.309.394-.506.422-1.313.028-.525.094-1.134.15-1.378.075-.281.028-.525-.15-.806-.262-.422-.3-1.359-.122-2.747l.084-.675-1.191-1.116c-.656-.609-1.294-1.228-1.444-1.359-.244-.234-.291-.234-.684.103-.366.309-.516.356-1.144.272-.487-.047-.769-.019-.825.094-.131.206-.806.225-.806.019 0-.281-.684-.609-1.612-.759l-.928-.15-.666.75c-.619.684-.741.759-1.313.759-.347 0-.713-.075-.806-.178-.131-.131-.169-.131-.169.019 0 .103-.131.384-.291.609-.262.384-.272.45-.075.834.197.403.188.45-.056.553-.15.075-.487.497-.75.928-.478.778-.487.787-1.2.787-.516.019-.75.094-.853.272-.066.131-.262.375-.403.525-.15.169-.272.422-.272.581 0 .347-.338.703-1.359 1.491-1.05.806-1.125.909-1.022 1.256.056.178.113.928.15 1.659.075 1.912.169 2.297.581 2.466.3.122.347.206.272.563-.075.375-.019.478.441.75.3.178.553.478.609.713.056.225.347.628.666.928.516.497.619.525 1.463.506.487 0 1.097.075 1.331.178.563.253 2.044.15 3.244-.225zM57.694 13.125c-.084-.15-.553-.169-.684-.019-.047.047-.028.178.056.281.122.15.216.15.422.028.15-.103.234-.244.197-.3z"/><path d="M112.144 142.997c.028-.206.113-.375.188-.375s.131.169.131.375-.094.375-.197.375c-.122 0-.169-.122-.113-.375zM62.325 98.925c.047-.131.094-.272.094-.3 0-.047.066-.028.141.019.234.15.169.525-.094.525-.159 0-.197-.075-.141-.234z"/></svg>