<svg xmlns="http://www.w3.org/2000/svg" xml:space="preserve" fill-rule="evenodd" stroke-linejoin="round" stroke-miterlimit="2" clip-rule="evenodd" viewBox="0 0 291 300"><path d="m138.526 288.86-1.005-.095-.047-.554c-.091-1.4-5.072-3.675-5.345-4.377a1.02 1.02 0 0 0-.517-.46c-4.265-.908-7.368-9.385-7.724-10.355-3.679-10.047 5.529-38.351 5.529-50.974l.019-1.663.695-1.089c.215-.333 1.059-11.882 5.563-6.737 5.659 6.462 7.749 19.882 8.035 21.712 3.306 10.336 3.372 10.311 2.519 21.1-2.252 28.503 2.064 34.473-7.677 33.504zM190.453 287.018c-.016-.013-1.097-2.256-1.193-2.452-3.194-6.62-.989-11.508-1.296-12.064l-.367-.657.291-.554c1.343-2.686 1.99-7.583 2.079-8.258.595-4.51 2.37-7.988 2.443-13.565v-1.23l.686-.508c2.64-1.97-1.29-3.443 4.19-18.535.808-2.222-.264-6.352 2.66-3.382 5.859 5.95 3.858 43.906 4.248 44.32l.376.404-.3.63c-.415.863.428.865.094 1.775-1.41 3.83-11.819 15.688-13.943 14.063zM159.75 285.356l-.49-.348v-1.888c0-1.67-1.02-1.408-1.794-20.81-.028-.715-.303-7.577 1.568-8.796l.508-.3-.104-.94c-.321-3.608 7.057-29.493 6.568-30.46l-.32-.61.348-.536c1.928-2.759 6.301-17.874 7.946-22.478.942 1.253 2.784 1.616 3.727 2.87 3.273 4.356-.886 3.972-.649 4.218.031.032 1.457.367 1.457 2.057v1.034l.423-.095c3.361-.627.16.999.084 1.034l-.507.206.084 1.24c.057.677.16 1.345.217 1.485 1.229 2.146 1.587 11.267 1.456 11.16-1.277-1.353 3.73 32.979 1.993 39.382-.77 2.836-16.4 26.729-22.477 22.576zM64.661 280.329c-4.45-.68-6.061-6.096-11.057-9.881-.606-.46-7.602-5.76-6.933-6.501.18-.249-22.948-30.566-31.013-53.886-.196-.566-.222-.48-1.353-2.123-1.598-2.32-1.52-2.455-1.88-2.443l-.45.02.094-.715c.087-.696-5.355-11.257-3.768-11.732 1.793-.74-4.384-1.08-3.672-23.969.028-.889.218-6.989-1.624-11.001-2.112-9.376-.44-9.396-2.188-18.827-3.022-16.312 3.332-35.656 3.092-56.69-.614-5.451 3.927-4.76 2.593-10.034L6.23 71.43l.347-.573c.752-1.179 3.475-13.133 4.558-13.644.373-.226-.521-.518 1.71-5.176.813-1.696.79-1.687.836-1.69.383-.086-.226-.486 1.965-4.5.706-1.294 2.057-4.586 1.934-4.81l-.263-.451.62-.536c.433-.385.01-.549 3.289-6.444.314-.437 3.485-4.829 3.166-5.94l-.198-.704.48-.206c.883-.344 2.534-4.86 2.697-5.307 1.453-3.977 6.67-8.734 6.755-8.476.364.794 1.715-.546 2.171 1.73.545 2.718-.981 3.544-.77 5.194l.15 1.08-.45.536c-1.267 1.5-5.816 24.138-4.801 24.689 2.608 1.807-3.827 2.52-3.666 39.49.106 24.46 4.375 28.751 4.443 30.436l.075 1.587.78 1.212c.759 1.143-.177 1.475 5.028 16.394 3.403 9.755 3.936 9.512 3.908 10.4l-.028 1.061.535.31c2.117 1.295.62 2.132 2.292 4.772 1.302 2.056 5.106 9.787 4.641 10.336l-.517.629.517.225c.49.225 1.873 4.31 1.673 4.64l-.292.48.46.657c2.733 3.987 3.384 8.836 5.28 11.124 1.637 1.579 17.003 35.327 18.575 33.755.124-.1 9.725 13.578 10.56 14.767 1.298 1.848.802 20.391-.923 23.986-4.302 8.968-4.195 8.788-9.133 17.502-.285.687-8.293 10.575-9.986 10.352zM99.574 274.55c-5.113-1.403-3.526-3.38-7.442-7.083-3.063-2.895-1.1-10.968-1.521-12.42-.104-.253-.056-.45.169-.76l.3-.423-.45-.808c-.64-1.22-.095-34.425.274-35.345.149-.37.322-.801 4.792 1.324.507.832 4.081 9.487 4.424 10.317 2.933 7.1 3.177 7 3.129 8.482v.601l.545-.056.535-.047-.047.977c-.297 5.671 3.55 5.38 2.602 32.948l-2.575 1.267c-.654.748-.35 1.068-1.297 1.147-.274.023-2.35.196-3.438-.094zM225.9 273.038c-3.295-2.379-14.775-49.305-13.566-52.686 1.693-4.736 5.331-5.526 5.664-6.284 2.06-4.704 4.278-2.844 6.68-7.532.2-.639 4.356-5.39 4.752-5.844.345-.394 4.255-4.863 4.19-5.017-.173-.756 3.487-2.89 3.487-4.584-.206-1.108 2.516.06 6.37-12.553 3.773-12.343 5.533-11.44 9.961-23.667 8.862-24.475 5.064-26.982 7.225-26.56l.518.103-.095-1.39c-.056-.762-.15-1.513-.234-1.645-.373-.885 1.64.107 1.193-.883-.103-.17-.103-.301 0-.357.135-.093 2.894-35.327 2.202-35.754l-.45-.253.102-1.24c.196-2.809-.508-10.564-.59-11.48-.16-1.75-1.918-21.129-1.532-21.907.053-.149-.208-.264-.217-.423-.1-1.824-.96-1.41-1.136-3.146-.66-3.025 1.394-2.985.424-6.041-1.411-4.445.18-4.751-1.878-8.868l-.338-.639.3-.714c1.508-3.55-2.793-18.815-3.241-20.406.956.636 6.755 4.5 9.759 10.532 9.441 18.96 10.117 18.945 9.482 20.648-1.24 5.2 4.173 3.658 4.173 8.99v1.334l.507.423c.297.24 1.477 3.757.986 5.082-.054.28 13.194 32.065 9.867 87.367-.432 7.205-6.062 10.162-5.337 13.387 1.453 6.47-1.841 6.507-.367 12.947l.15.714-.78.827-.779.836.189.752c.456 1.702-3.542 20.01-4.53 20.64-1.08.43-12.58 28.293-13.249 28.532l-.657.254-.047.807c-.008.129-4.242 7.766-4.687 9.704-.047.122-.48.526-.977.902l-.93.677-.028 1.005c-.163 6.428-27.102 37.262-32.34 33.406z"/><path d="M257.037 14.737c0-.028-.17-.056-.376-.056-.207 0-.339.056-.292.131.094.123.668.056.668-.075"/><path fill-rule="nonzero" d="M156.095 205.084c-3.58-1.103 2.26-11.956-3.032-16.919-3.674-3.444-2.348 1.167-4.67 5.506-.752 1.407-1.877-.773-2.65.677-.183.478-.242-.387-3.363-5.45-4.66 5.534-8.564 4.653-8.382-2.452l.056-1.523-.47-.225c-2.74-1.27-2.96-5.242-3.552-2.292-1.218 3.888-4.678 3.074-5.797 1.692-2.513-3.105-4.98-16.11-5.253-17.55-4.75-2.312-4.651-4.328-9.405-2.236-1.724.76-1.563 1.461-3.344.62-1.094-.666-9.63-5.868-9.895-12.589-.21-5.301.037-5.506.395-5.804l.582-.46-.376-.451c-.185-.231 10.425-16.666-.527-34.736-1.144-1.887-1.154-5.444-5.112-6.183-.627-.117-10.054-2.79-10.408-2.46-2.552 1.61-2.694.561-9.846-.817-9.8-.863-21.041-13.896-25.628-26.73-7.531-15.637-1.707-46.196 2.35-49.803l.583-.535-.273-.48-.262-.497.507-.451c.516-.462-.094-.682 4.453-7.431.25-.37 2.378-3.528 3.909-3.984 1.255-.536 1.095-.454 2.536-.489-3.226 21.307-5.493 21.415-2.272 30.132 3.274 8.857 2.653 9.001 3.176 9.62 1.473 1.135-.863 2.94 14.186 18.413l.564.601 2.79-.094.799.63c.666.53 6.38 2.253 7.459 2.178l1.08-.094.64 1.108 1.343-.075c5.16-.296 4.914 1.277 10.11.827.611-.053 6.293-.545 7.506-1.577.4-.436.548-.05 6.707-3.13.983-.352 1.265-1.687 2.067-2.356 1.615-1.35 1.776-.994 18.96-5.654 13.477-3.655 13.973-1.924 14.489-2.002l1.08-.13.432.525c.434.517 11.259 3.092 14.281 6.114l.292.329.442-.348c.32-.244.61-.31.986-.281l.535.047.02.751c0 1.294 2.634.001 4.049 1.692l.451.535.517-.423c1.748-1.42 13.994 10.188 14.073 10.22.556.219 6.707 2.649 6.793 3.118l.094.432 1.278-.282c3.46-.747 7.079-.509 10.55-1.201.373-.075 1.681-.822 1.822-.902 4.63-2.643 4.859-2.323 5.046-2.743.347-1.093 12.948-7.107 17.298-19.764.234-.68 2.61-7.596 3.203-8.408l.442-.629-.16-1.118c-.126-.944 2.111-12.948.771-18.038-.835-3.175-2.243-11.795-2.216-11.838.623-1.464-1.034-2.899.563-2.34 1.312.46 5.138 3.204 5.138 4.086.175 1.557 4.68 7.016 4.774 7.676l.235 1.118c4 17.912 3.98 18.073.538 36.077-.465 2.435-4.945 25.868-9.301 29.557-1.577 1.776-2.164 4.247-3.552 6.173-.284.394-3.562 3.248-4.096 3.55-.538.306-6.39 3.627-6.83 3.627-3.139.406-12.422 5.144-13.463 5.675-15.668 7.995-9.078 39.687-16.724 50.028-6.61 8.938-21.982-3.608-21.982 17.219l.019 1.484-.442.357c-.342.289-4.824 21.07-6.136 20.754-.198-.075-.273-.047-.263.104.057.278-2.566 2.923-3.25 2.706zm-6.266-38.671c2.423-.715 1.718-2.34 1.738-2.612.077-1.022.262-1.034-.103-1.578-.91-1.357.662-4.715.217-6.7-.696-3.103-.173-3.124-.254-3.383-.648-2.057-1.063-1.858-1.671-3.964-.401-1.387-.78-1.096-1.814-2.095-.17-.164-.163-.146-2.188-1.98-2.437 1.392-2.684 1.838-2.82 2.083-.274.496-.621.972-.76 1.522-.406 1.62-.452 3.317-.858 4.937l-.577 2.79c-.904 1.031-.939 1.038-1.055 2.411-.04.473.124 1.06-.197 1.41-.276.298-.85-.062-1.214.12-.583.291.757 6.24 2.823 5.921.951-.147 2.982-1.141 3.68-.556.712.597 1.06.226 1.168.279.761.362.566.667 1.387.84 1.258.263 1.47.903 2.528.592zm-9.81-1.006c.03-.08.009-.16-.088-.165a.47.47 0 0 0-.428.26c-.03.08-.008.16.088.165a.47.47 0 0 0 .429-.26m-14.685-11.79c1.248-1.365 2.34.974 3.204-.63.171-.319.048-.802.325-1.034.439-.372 3.866-.726 2.633-4.79-.202-.667-.661-4.309-.855-4.632-.978-1.615-.927-1.71-2.687-2.47-1.539-.664-.533-1.185-.668-1.482-.233-.239-2.889-2.945-3.015-2.878-1.495.584-.655-.806-.667-.826-.36-.587-1.98-1.633-2.216-1.62-.093.005-3.683.788-3.727.812-.299.167-.259.182-3.5 2.45-.41 1.235-.613 2.533-1.024 3.768-.183.55-.207 1.368-.752 1.569-.293.073-.053.23-.854 3.69.057.094.781.409.976 1.61.144.886.618.557 1.062 1.305.628 1.057.398 1.265 1.54 1.794 1.907.883 1.57 1.245 2.318 2.16 3.639.654 3.633 1.087 5.33.554.522-.165.613-.447.902 0 .651 1.006.86 1.542 1.662.658zm41.367-.828c1.258-.394 2.836-.054 3.485-.31.32-.125.924-.364 3.523-2.422l.72-2.12c.208-.142.51-.097.719-.24.131-.439-.09-.935.043-1.374.072-.243.955-1.029.887-3.134 0-.003-.52-1.628-.273-3.56l.085-.677-1.194-1.119c-1.611-1.496-1.592-1.572-1.734-1.525-.697.233-.603.487-1.545.54-.277.014-.703-.155-.827.093-.325.513-1.195-.543-2.423-.741l-.93-.15-.667.751c-1.38 1.524-2.064.243-2.293.601-.846 1.32-.179 1.43-.23 1.836l-1.458 1.781c-.48.223-1.063.152-1.544.375-.2.093-.294.335-.404.526-1.717 2.98-2.706 2.544-2.659 3.335.13 2.207-.755 2.477.733 4.134.518.577.18.77.714 1.316 1.294 1.318.915 1.953 2.744 2.152 2.338.254 2.36.648 4.585-.048zM57.756 12.407c-.094-.168-.76-.185-.706.101.025.137.153.303.307.274.207-.038.446-.3.39-.385z"/><path fill-rule="nonzero" d="M112.323 142.558c.028-.206.113-.375.189-.375.075 0 .13.169.13.375 0 .207-.093.376-.196.376-.123 0-.17-.122-.114-.376zM62.397 98.392c.047-.132.094-.273.094-.301 0-.047.066-.028.142.02.234.15.169.525-.095.525-.159 0-.197-.075-.14-.234z"/></svg>