<svg xmlns="http://www.w3.org/2000/svg" width="291" height="300" viewBox="0 0 291 300"><title>grand-alliances-chaos</title><path d="M137.25 299.681a7 7 0 0 0-.487-.469c-.15-.122-.206-.394-.206-1.031 0-.956-.113-1.256-.619-1.716-.281-.253-.338-.394-.309-.928.009-.347-.037-.9-.113-1.238-.075-.347-.188-1.125-.253-1.734s-.206-1.275-.309-1.462c-.309-.6-.469-1.575-.375-2.456.056-.572.037-.872-.066-.928-.075-.056-.15-.216-.15-.375 0-.15-.206-.478-.45-.731s-.45-.581-.45-.712c0-.15-.15-.319-.319-.413-.178-.084-.319-.225-.319-.319s-.122-.291-.272-.422c-.253-.253-.253-.319-.113-1.894.075-.9.206-1.819.281-2.016.178-.487-.028-1.219-.534-1.884-.3-.384-.384-.638-.384-1.088 0-.506-.066-.666-.488-1.078-.628-.628-.722-.891-.459-1.284.178-.291.188-.45.056-1.219-.075-.506-.188-1.191-.216-1.566-.037-.356-.15-.788-.253-.956a.97.97 0 0 1-.103-.675c.066-.347.037-.394-.253-.478-.188-.056-.384-.056-.45-.009-.169.103-.3-.506-.216-1.031.028-.225-.028-.694-.122-1.022s-.178-.788-.178-1.012c0-.234-.103-.506-.272-.647-.206-.216-.244-.347-.178-.769s.037-.572-.216-.862c-.178-.197-.422-.638-.534-.984-.188-.544-.206-.806-.094-1.978.131-1.434.103-1.65-.272-2.016-.15-.15-.216-.347-.169-.487.094-.309-.272-1.059-.497-1.059-.281 0-.337-.347-.15-.759.15-.309.15-.553.037-1.303-.113-.769-.216-1.013-.563-1.397-.337-.375-.431-.581-.431-.984s-.094-.6-.45-.966c-.431-.45-.45-.487-.45-1.509 0-.694-.066-1.191-.188-1.444-.188-.356-.188-.534.009-1.688.225-1.434.319-1.631.769-1.631.309 0 .309.009.122.394-.103.216-.197.422-.197.469s.375.038.834 0c.703-.056.928-.028 1.509.262.525.262.863.328 1.659.328 1.659 0 2.287-.469 2.287-1.669 0-.356.094-.872.188-1.144.253-.628.253-1.275.009-1.566-.309-.356-.309-3.797 0-5.306.103-.478.244-1.153.309-1.528a7.5 7.5 0 0 0 .113-1.5c-.028-.675 0-.872.188-1.013.188-.159.188-.197.028-.347a.65.65 0 0 1-.188-.412c0-.478-.619-1.65-1.05-1.988-.244-.188-.628-.384-.863-.422-.384-.084-1.134-.534-1.359-.825-.075-.122-.056-1.116.066-2.147.028-.169.122-.309.225-.319s.366-.028.581-.028c.338-.028.384-.084.384-.384-.009-.319.037-.375.319-.375.187 0 .403.066.487.159.103.103.15.103.15.009s.188-.216.384-.291a.96.96 0 0 0 .516-.478c.15-.413.15-1.603.009-1.988-.066-.15-.066-.412 0-.6s.122-.675.159-1.097c.047-.759.047-.769-.581-1.416-.337-.356-.619-.731-.619-.853s-.094-.159-.244-.122c-.122.038-.281 0-.319-.084-.047-.084-.225-.15-.403-.15-.225 0-.338-.094-.403-.328-.056-.216-.216-.375-.516-.469-.347-.122-.431-.225-.431-.488 0-.216-.169-.478-.45-.741-.244-.225-.45-.488-.45-.581s-.056-.169-.131-.169c-.066 0-.15-.216-.206-.469-.169-.947.534-1.884 1.303-1.725.347.066.487 0 .919-.394.272-.253.525-.469.563-.469.159 0 .347-.713.366-1.331.009-.534-.037-.666-.497-1.172-.281-.309-.516-.609-.516-.675s-.15-.216-.309-.328c-.281-.188-.347-.188-.722 0-.253.15-.563.188-.872.131-.966-.159-2.475-.234-3.009-.159-.412.066-.591.169-.684.384-.103.225-.253.309-.675.328-.497.037-.581.094-.872.628-.188.319-.525.694-.759.834-.413.253-.722.516-1.463 1.238-.188.188-.45.375-.563.422-.131.037-.281.328-.375.694-.131.534-.188.6-.516.6-.225 0-.375.066-.375.169 0 .234-1.463 1.688-1.697 1.688-.094 0-.581.422-1.059.947-.497.516-1.116 1.087-1.387 1.256-.272.188-.534.469-.609.638s-.178.356-.244.412c-.075.038-.15.225-.15.394s-.103.394-.216.488c-.431.328-.806 1.022-.806 1.472 0 .394-.056.469-.375.534-.244.056-.413.187-.469.384-.141.45-.459.788-.703.703-.15-.056-.281.103-.487.534-.188.384-.413.647-.628.741-.413.159-1.425 1.247-2.044 2.175-.337.506-.553.694-.984.825-.581.169-.834.066-1.491-.666l-.309-.328.216-1.05c.122-.6.225-1.809.253-2.869.028-1.256.112-2.034.253-2.494.131-.375.197-.862.159-1.097-.075-.487-.009-.638.403-.862a.58.58 0 0 0 .281-.478c0-.169.141-.488.319-.703.3-.375.319-.506.319-1.734 0-1.284.187-2.709.581-4.284.103-.422.187-1.031.187-1.369 0-.413.066-.628.188-.675.103-.037.216-.216.272-.356.047-.159.272-.553.487-.891.338-.516.403-.759.469-1.725.056-.628.15-1.275.216-1.463.3-.713.431-1.894.253-2.391-.244-.703-.319-.797-.797-.797-.337 0-.431-.066-.487-.309-.066-.225-.272-.356-1.022-.6-.516-.159-1.134-.291-1.359-.291-.319 0-.45-.084-.563-.328-.178-.394-.244-.413-.459-.066-.131.216-.3.262-.9.262-.722 0-.741.009-1.181.628-.75 1.031-1.819 2.034-2.175 2.034-.216 0-.563.262-1.172.9-.459.488-.956 1.059-1.087 1.275-.469.713-.938 1.125-1.444 1.256-.338.094-.778.441-1.416 1.078-.516.516-.938.984-.938 1.05 0 .188-.431.516-.797.609-.188.056-.694.478-1.116.947-.563.637-.844.853-1.106.853-.403 0-1.322.703-1.481 1.116-.103.309.375 1.125.984 1.659.309.281.309.291.103.787a4.7 4.7 0 0 0-.281.956c-.094.713-.225.825-.956.731-.619-.094-.769-.037-2.353.956-.45.281-.844.441-1.087.441-.131 0-.834.131-1.575.281s-1.481.309-1.669.319a1.1 1.1 0 0 0-.591.234c-.131.131-.337.225-.459.225s-.244.094-.281.197c-.094.216-.806.469-1.369.469-.497 0-1.603.516-1.659.759-.037.225-.225.253-2.259.356-1.603.094-2.662.319-3.15.694a6 6 0 0 1-.834.516c-.225.122-.469.347-.553.516-.122.253-.272.328-.872.394-.403.038-1.041.122-1.425.159-.806.094-1.05.262-1.359.928-.131.281-.3.45-.45.45s-.347.122-.487.262c-.131.131-.431.347-.684.45s-.525.291-.628.394a.48.48 0 0 1-.741.066c-.253-.262-2.362-.375-3.638-.188-.684.094-.741.122-1.069.741-.188.375-.469.713-.647.769-.15.066-.459.319-.684.553-.216.253-.553.581-.741.741s-.337.422-.337.609c0 .422-.253.638-.891.713-.366.056-.534.159-.647.384-.122.281-.216.319-.825.319-.516 0-.741.066-.919.253-.131.15-.553.394-.956.553-.844.356-1.791.891-1.894 1.059-.056.066-.366.122-.694.122-.403 0-.741.094-.928.234-.159.131-.591.375-.956.544-.347.188-.684.384-.722.45-.056.066-.384.15-.75.159-.534.028-.741.103-.984.384-.178.188-.459.347-.628.347s-.366.103-.422.225c-.159.281-1.144.581-2.1.647-.694.037-.75.028-1.397-.516l-.675-.553.075-.787c.037-.422.075-.956.075-1.153 0-.319.056-.384.319-.384.225 0 .366-.094.45-.328.066-.188.216-.375.319-.412.141-.066.187-.253.159-.694-.009-.534.038-.647.375-.947.225-.197.422-.516.459-.741.056-.375.066-.384.159-.094.047.159.187.291.319.291.319 0 .806-.647.694-.919-.15-.375-.094-.834.187-1.219.15-.197.272-.469.272-.572s.122-.234.253-.281c.459-.15 1.537-1.369 1.537-1.734 0-.328.169-.544 1.069-1.341.403-.356.459-.469.403-.825s-.009-.487.384-.947c.253-.291.459-.647.459-.787 0-.197.103-.281.413-.309.403-.038.422-.084.497-.638.131-.825.337-1.331.553-1.331.122 0 .281-.169.403-.394s.347-.422.591-.488c.347-.103.45-.234.825-1.209.309-.806.609-1.303 1.106-1.875.384-.422.9-1.078 1.144-1.444s.516-.694.591-.694c.3 0 .591-.516.534-.919-.056-.328 0-.422.309-.553q.563-.238.225-.45c-.187-.122-.15-.675.066-.862.159-.15.225-.131.403.103.206.309.497.262.619-.066a.43.43 0 0 0-.066-.384c-.319-.413.075-1.144.928-1.688.206-.131.412-.441.516-.787.15-.469.225-.572.487-.572.272 0 .347-.094.45-.553.094-.356.384-.853.806-1.331a7 7 0 0 0 .956-1.528c.206-.534.375-.769.525-.769.131 0 .337-.159.459-.347s.347-.487.497-.694c.15-.197.309-.628.347-.928.037-.347.188-.713.366-.9.272-.291.309-.309.516-.103.3.281.591.159.75-.281.197-.516.647-.666 1.359-.45.45.131.581.234.534.412-.037.122.075.328.244.488s.309.328.309.412c0 .066.15.131.337.131s.553.131.806.291c.684.422 1.631.516 2.278.225.281-.131.647-.253.806-.253.178 0 .347-.122.431-.328.075-.188.178-.328.225-.328.141 0 .384-.647.384-1.013 0-.188.103-.516.216-.731.216-.375.216-.422 0-1.031s-.225-2.203-.028-2.531c.103-.187.619-.169.806.028.122.122.206.103.384-.066.281-.262 1.134-.291 2.081-.066.628.15.684.131 1.35-.225.431-.234.722-.506.769-.675.056-.197.253-.356.619-.478.431-.159.581-.281.675-.609.066-.253.225-.469.45-.553.534-.225 1.134-.731 1.059-.9-.028-.094.037-.281.15-.394s.253-.394.338-.6c.131-.328.197-.356.553-.291.563.103.862-.131 1.013-.853.15-.647.441-.966.806-.862.366.122.703-.066.984-.572.225-.412.244-.534.112-.862-.112-.309-.112-.422.037-.609.253-.291.45-.947.384-1.313-.056-.384-.741-.966-1.134-.966-.159 0-.534-.094-.825-.216-.384-.159-.722-.197-1.247-.131-.403.056-1.481.038-2.391 0-1.463-.084-1.669-.122-1.734-.347-.066-.291-.253-.309-.938-.028-.45.188-.553.197-.694.038-.216-.225-.244-.394-.216-1.809l.028-1.097h.619c.609 0 .647-.009 1.041-.666.309-.488.497-.666.722-.666.534 0 1.144-.394 1.509-1.013.244-.412.469-.609.713-.666.384-.084.684-.544.684-1.059 0-.169.066-.347.131-.384.066-.056.225-.328.347-.609.15-.375.347-.609.684-.797.319-.159.497-.347.497-.516 0-.131.056-.291.122-.328.075-.056.131-.731.131-1.594 0-1.472-.009-1.528-.319-1.734-.366-.253-.45-1.022-.122-1.209.159-.094.159-.188.028-.572-.216-.647-.563-.994-.806-.787s-.225-.103.009-1.725c.113-.675.159-1.434.113-1.669-.075-.45-1.059-1.528-1.388-1.528-.094 0-.206-.122-.244-.262-.056-.197-.188-.262-.497-.281a22 22 0 0 1-1.059-.094c-.759-.084-1.059-.084-4.191.009-2.362.066-2.391.066-3.066.469-.862.506-1.416 1.397-1.416 2.287 0 .45.066.638.253.769.272.169.337.553.15.928a2.1 2.1 0 0 0-.206.609c-.075.356-.103.375-.647.291-.431-.066-.656-.038-.9.131-.487.328-1.734.234-1.734-.122 0-.094-.253-.412-.563-.713-.412-.422-.684-.572-.966-.572-.403 0-1.041-.553-1.041-.891 0-.225-1.05-.834-1.425-.834-.159 0-.469-.122-.684-.262s-.469-.262-.581-.262c-.375 0-1.247-.984-1.331-1.5-.075-.441-.131-.487-.469-.487-.216 0-.497.056-.628.131-.403.216-1.022-.094-1.116-.553-.037-.216-.178-.441-.309-.506a.83.83 0 0 1-.309-.384c-.037-.15-.225-.281-.516-.319a2.1 2.1 0 0 1-.806-.356c-.347-.262-.431-.281-1.116-.15-.412.084-1.078.15-1.481.15s-.919.066-1.134.15c-.366.131-.45.103-.778-.169-.206-.188-.741-.516-1.2-.741s-.928-.534-1.05-.675a.9.9 0 0 0-.647-.281c-.216 0-.722-.159-1.106-.347-.525-.253-.806-.319-1.172-.253-.347.066-.609.009-.966-.188-.3-.169-.609-.234-.787-.197-.244.066-.422-.037-.872-.506-.778-.825-1.275-.956-3.637-.928-1.444.009-2.128-.037-2.512-.169-.3-.103-.834-.197-1.2-.197s-.806-.056-.966-.122c-.553-.225-1.584-1.397-2.006-2.287-.375-.797-.469-.9-.872-.984-.488-.094-1.416-.544-1.538-.741-.038-.066-.431-.122-.9-.122-.778 0-.863-.028-1.369-.506-.3-.281-.656-.553-.778-.609-.15-.038-.694-.009-1.266.066-.9.15-1.05.15-1.481-.066-.375-.188-.956-.253-2.475-.309-1.856-.084-2.016-.103-2.353-.384a1.26 1.26 0 0 0-.797-.319c-.581 0-.75-.263-.666-.994.047-.384.038-.6-.056-.6s-.122-.075-.084-.159c.028-.094.188-.169.366-.169.253 0 .319-.075.347-.422l.037-.412.956.066c.647.056 1.022.028 1.144-.075.103-.094.319-.122.488-.075.225.056.431-.056.9-.544l.619-.609.122.328c.131.328.15.328.525.15.206-.122.384-.262.384-.328s.103-.225.244-.375c.272-.281.891-.234 1.003.075.037.103.122.131.216.066.084-.066.469-.197.844-.309.384-.094.806-.253.928-.356s.516-.197.872-.197c.534-.009.703.056 1.022.356.347.328.45.375.928.291.656-.103 1.013-.356 1.294-.9.206-.412.216-.412.366-.131.225.441.431.356 1.209-.441.553-.572.778-.731 1.088-.731.272 0 .45.094.534.263.188.375.834.347 1.2-.037.384-.413 1.022-.666 1.547-.6.403.038.45.009.703-.553.187-.384.516-.797.984-1.172.384-.319.712-.666.712-.759 0-.253.403-1.125.525-1.125.319 0 .675-2.006.366-2.194-.066-.037-.122-.197-.122-.356 0-.253.056-.262.806-.169.431.056 1.003.216 1.266.347.412.216.487.347.825 1.406.206.637.45 1.256.534 1.378.103.122.225.394.281.6.075.309.225.441.703.628.694.253 1.341.159 1.894-.291a10 10 0 0 1 .928-.581c.525-.281.694-.319 1.003-.197.206.066.375.188.375.262 0 .159 1.537.075 3.216-.159a26 26 0 0 1 1.537-.188c.591-.037 1.106-.309 1.359-.694s1.2-.713 1.35-.469c.075.15.131.131.216-.056s.178-.197.403-.075c.15.075.431.122.628.066.656-.159 2.231-1.125 2.381-1.463.094-.188.216-.309.309-.262.188.075 2.138-.609 2.597-.928.188-.131.469-.384.591-.553.225-.309.3-.319 1.106-.234.694.075.891.056 1.022-.122.094-.103.253-.197.384-.197s.3-.094.384-.197c.075-.103.281-.225.422-.281.15-.056.431-.197.591-.328.169-.15.469-.253.656-.253s.459-.131.647-.328c.15-.169.516-.478.797-.675.431-.309.516-.328.656-.169.075.103.403.375.703.581.619.422.769.797.553 1.406-.206.628-.169 1.097.122 1.491.15.188.253.384.253.441s.244.469.534.919c.562.853 1.153 1.209 1.753 1.05.309-.094 1.153.159 1.463.441.112.103.319.169.45.159s.469.009.769.066c.591.103 1.059-.075 1.519-.581.15-.159.384-.347.534-.412s.309-.263.366-.516c.066-.291.216-.478.563-.666.272-.131.591-.412.703-.6s.347-.412.516-.478c.309-.15.9-1.331 1.041-2.072.066-.319.009-.572-.187-.947-.272-.487-.272-.544-.075-.919.103-.225.337-.441.516-.487a.53.53 0 0 0 .413-.45c.037-.197.206-.769.384-1.284.403-1.209.403-1.594-.037-1.978-.272-.234-.347-.45-.403-1.078-.038-.506-.15-.853-.3-1.013-.131-.131-.422-.572-.647-.984-.216-.394-.45-.731-.516-.731s-.122-.066-.122-.15c0-.075-.188-.394-.431-.703s-.497-.703-.581-.891c-.075-.234-.253-.384-.553-.45-.225-.066-.563-.15-.741-.188-.253-.066-.309-.169-.319-.581-.009-.356.056-.553.206-.638.112-.066.337-.328.487-.581.159-.281.384-.469.525-.469s.431-.094.628-.197c.347-.188.422-.188.797.009.459.253 1.425.188 2.428-.15.469-.159.656-.319.9-.769.459-.825.591-1.303.525-1.847-.037-.375-.113-.506-.366-.553-.319-.094-.338-.159-.366-1.078-.009-.441-.066-.553-.366-.703-.216-.103-.366-.291-.366-.469 0-.159-.188-.581-.375-.956-.206-.356-.516-.928-.694-1.256s-.581-.862-.9-1.191c-.319-.319-.591-.666-.591-.759 0-.075-.319-.506-.694-.919-.684-.741-.703-.741-1.284-.666-.487.075-.675.037-1.275-.309-.797-.478-1.219-.516-1.659-.15-.309.234-.338.234-.525.028-.281-.319-.469-.872-.403-1.172a.66.66 0 0 0-.112-.506c-.188-.253-.225-.253-.806-.075-.347.094-.984.169-1.388.187-.75.009-.769.028-.956.478-.094.253-.281.534-.422.638s-.244.328-.244.553c0 .309-.103.441-.609.731a7 7 0 0 0-.844.572c-.206.197-.225.188-.309-.075-.037-.159-.187-.319-.309-.356-.141-.056-.337-.253-.431-.469-.103-.197-.403-.506-.656-.666-.375-.253-.45-.356-.403-.637.028-.169-.056-.638-.187-1.031-.15-.384-.244-.797-.244-.919 0-.103-.15-.291-.319-.413-.216-.15-.319-.328-.319-.6s-.141-.544-.45-.863c-.244-.253-.45-.572-.45-.703s-.084-.319-.188-.413c-.103-.094-.225-.45-.272-.806-.075-.6-.131-.675-.516-.853-.3-.122-.412-.253-.366-.375.094-.253-.403-1.463-.722-1.753-.188-.169-.206-.309-.122-.638.206-.769-.253-1.622-1.059-1.941-.216-.094-.384-.263-.431-.506a3.7 3.7 0 0 0-.253-.638c-.103-.15-.188-.45-.188-.694a.92.92 0 0 0-.319-.731c-.188-.169-.319-.422-.319-.628s-.103-.412-.244-.506c-.122-.094-.347-.478-.469-.863-.272-.862-.872-2.016-1.359-2.616-.347-.394-.366-.487-.281-1.153.047-.534.028-.713-.075-.713-.094 0-.319-.15-.534-.328-.206-.188-.516-.328-.684-.328s-.384-.131-.497-.309c-.253-.413-1.069-.759-1.678-.731-.281 0-.647-.056-.806-.15s-.403-.131-.516-.094c-.319.103-.675-.188-.675-.581 0-.187.047-.806.122-1.397s.188-1.472.225-1.987c.075-.834.122-.928.384-.966.281-.037.3-.075.253-1.397l-.037-1.341-.45-.319c-.244-.169-.431-.394-.412-.516.066-.281-.619-.956-.956-.966-.656 0-1.153-.834-1.397-2.287-.056-.356-.15-.506-.3-.506-.122 0-.384-.15-.609-.319-.319-.262-.347-.347-.206-.516.412-.534-.272-1.575-1.134-1.753-.253-.056-.384-.131-.3-.159s.15-.169.15-.309c0-.141.066-.291.131-.328.075-.037.131-.225.131-.384 0-.225-.131-.375-.431-.534-.244-.122-.497-.216-.581-.216s-.169-.15-.216-.328c-.066-.253-.169-.328-.45-.328-.253 0-.375-.066-.375-.216 0-.384-.628-1.622-.862-1.697-.122-.037-.487-.356-.806-.694s-.769-.703-.994-.806c-.366-.15-.422-.234-.422-.647s-.103-.581-.694-1.172c-.872-.872-1.303-1.725-1.247-2.438 0-.094.216-.262.469-.384.431-.216.459-.216.825.066.337.253.487.281 1.134.216.675-.075.797-.056 1.134.234.675.553 1.35.9 1.819.9.272 0 .431.066.431.169 0 .441 1.631.872 1.856.487s1.219.038 1.219.487c0 .169.469.487.9.637.178.056.647.328 1.041.6.628.441.844.506 1.678.553.684.038 1.106.15 1.444.356.272.169.553.262.712.216.309-.094.919.15.919.375 0 .197 1.181 1.013 2.194 1.5.319.159.834.6 1.153.984s.797.834 1.059 1.022c.488.319.581.478.863 1.444.094.291.384.797.684 1.097l.525.581.862-.094c.534-.056 1.116-.216 1.528-.422.459-.234.769-.319.994-.262.187.056.553.131.806.197s.656.225.9.384.628.291.834.291c.487 0 .966.131.966.263 0 .066.553.675 1.237 1.378 1.219 1.256 1.238 1.275 1.856 1.275.787 0 1.031.094 1.031.394 0 .263.337.45.45.263.253-.441 1.106.122 1.275.834.056.234.159.356.347.356.15 0 .563.15.938.328s.872.375 1.125.412c.319.066.675.328 1.294 1.031 1.059 1.153 1.209 1.313 1.369 1.65.066.131.403.356.741.487.581.225.619.225.769.009.225-.328.647-.075.741.45.075.328.15.394.469.394.281 0 .403.075.469.309.15.534.937 1.472 1.509 1.828.3.188.619.506.722.703.131.309.225.356.525.319.225-.037.403.009.487.169.113.188.225.216.609.122.244-.056.553-.188.656-.281.122-.103.225-.122.281-.028.047.066.216.197.384.291.15.075.281.253.281.356 0 .263.497.197 1.594-.197.956-.347 1.153-.347 1.622.009.431.319.469.6.187 1.172-.187.356-.187.413.066.638.225.225.244.263.066.347-.141.056-.206.234-.187.637.009.319-.075.9-.188 1.303-.141.516-.178.984-.131 1.594a5.6 5.6 0 0 1-.066 1.509c-.131.6-.112.712.188 1.341.187.384.319.759.319.834 0 .291.431.581.722.506.169-.056.516 0 .769.122.253.103.609.197.769.197.15 0 .337.066.366.15.056.066.188.103.3.075s.497.094.834.263c.347.169.928.356 1.284.394.722.075 1.247.347 1.247.628 0 .094.112.281.253.413s.253.394.253.581.094.469.188.6c.103.15.188.394.188.572 0 .197.075.309.216.309.347 0 1.144.638 1.509 1.191.309.478.366.506 1.134.572.45.028 1.266.225 1.8.422.994.375.994.375 1.584.131.422-.159.722-.412 1.022-.853l.431-.609.009-1.922v-2.306c0-.206-.122-.534-.253-.713-.141-.169-.253-.422-.253-.544s-.15-.487-.319-.834c-.188-.347-.319-.713-.319-.825s-.112-.281-.244-.375c-.188-.122-.216-.225-.122-.469.178-.487.141-.984-.094-1.247-.131-.15-.253-.628-.309-1.209-.066-.534-.159-1.144-.244-1.369a11 11 0 0 1-.244-1.191l-.084-.797-.534-.037c-.497-.037-.525-.066-.431-.328.187-.534.272-2.259.169-3.703-.094-1.144-.188-1.556-.45-2.109-.337-.647-.347-.713-.188-1.444.15-.713.131-.787-.15-1.181-.216-.309-.338-.741-.422-1.509-.075-.666-.206-1.181-.338-1.331-.187-.197-.206-.544-.187-1.987l.028-1.753.534-.487c.628-.572.722-.6.834-.263.103.281.347.478.984.825.253.15.469.356.469.45s.094.253.188.347.216.375.272.638c.056.262.225.6.403.741.178.169.384.6.516 1.078s.366.956.609 1.237c.347.384.45.422.834.356l.431-.075-.075.469c-.075.413-.037.487.375.806.431.347.45.394.422 1.116-.037.647.009.825.309 1.181.187.234.366.544.422.694.056.187.187.263.45.263.206 0 .591.15.844.328.431.309.581.328 1.875.319 1.556-.009 1.772.075 1.772.731.009.347.103.478.591.787.309.216.675.534.797.713s.413.553.647.834c.216.263.413.581.413.694s.112.309.253.441c.15.131.253.319.253.422s.094.216.188.253c.103.056.188.159.188.253s.206.253.45.347.45.253.45.356c0 .291.769.956 1.106.956.347 0 .581.375.487.741-.056.197.094.413.487.797.3.281.9.891 1.322 1.331.769.787.806.806 1.116.637.487-.263 1.641-.413 2.166-.281 1.022.253 1.153.263 1.153.038 0-.103.113-.263.244-.347.337-.169 1.463-.169 1.641.009.094.094.309-.066.741-.572.994-1.144 1.134-1.528 1.031-2.738-.066-.9-.066-.994.103-.787.103.15.3.234.469.197.225-.028.366-.253.703-1.125.403-1.031.412-1.125.319-2.259a48 48 0 0 0-.225-2.1c-.075-.506-.131-1.022-.15-1.144 0-.122-.159-.394-.366-.628-.403-.422-.581-1.031-.506-1.697.028-.291.15-.441.488-.609.497-.263.769-.741.769-1.406 0-.253.131-.628.272-.853.225-.328.253-.487.187-1.078a9 9 0 0 1-.094-1.088c.075-2.625-.075-5.269-.309-5.662-.056-.075-.094-.347-.075-.581s-.094-.572-.216-.741a1.9 1.9 0 0 1-.319-.703c-.056-.216-.206-.516-.337-.666s-.375-.553-.534-.928c-.366-.806-.891-1.144-1.247-.806-.431.394-.778.197-.778-.441 0-.375-.937-1.078-1.444-1.078-.225 0-.591-.122-.797-.253-.253-.169-.497-.234-.741-.187-.206.037-.516 0-.684-.094-.272-.15-.3-.197-.131-.422.113-.187.15-.384.066-.666-.206-.731.347-1.631 1.116-1.781.375-.066.431-.131.431-.506 0-.225-.112-.666-.244-.966-.281-.637-.253-.694.609-1.031.591-.253.825-.712.553-1.144-.066-.131-.141-.469-.141-.712 0-.375.056-.469.253-.469.309 0 .581-.516.75-1.444.084-.534.066-.872-.075-1.472-.122-.441-.187-.825-.15-.862.056-.037.244.009.45.131.338.169.384.169.656-.094a1 1 0 0 0 .3-.703c0-.253.103-.516.244-.647.253-.234.525-1.144.525-1.781 0-.281-.094-.422-.338-.544-.319-.15-.337-.197-.253-.769.037-.328.15-.694.216-.778.216-.262.497-.225.609.094.103.262.113.262.384.028.188-.159.309-.45.375-.9.047-.413.206-.834.422-1.125.806-1.078 1.134-1.978 1.247-3.478.113-1.378.15-1.434.684-2.259.516-.759.563-.928.619-1.763.037-.647.131-1.013.281-1.191.131-.15.366-.534.516-.863s.347-.637.422-.694c.094-.056.075-.216-.028-.469-.3-.741-.009-3.281.384-3.506.3-.159.891-1.416.891-1.884 0-.891.431-3.234.647-3.544a2.8 2.8 0 0 0 .337-.741c.075-.356.488-1.303.9-2.044.094-.188.188-.666.188-1.078 0-.544.066-.834.253-1.088.206-.263.253-.544.272-1.444 0-1.669.15-2.363.534-2.653.206-.159.375-.441.431-.713s.206-.544.366-.666c.319-.216.412-.666.497-2.372.037-.506.113-1.341.188-1.828.094-.506.15-1.284.112-1.734-.028-.647.028-.9.244-1.219.375-.544.806-1.462.806-1.716 0-.103-.084-.197-.169-.197-.253 0-.516-.581-.403-.919.122-.441.628-.731.956-.544.15.084.272.197.272.263s.169.15.375.197c.403.094 1.003.919 1.134 1.556.037.197.244.544.45.759.366.356.384.469.45 1.725.066 1.125.131 1.406.375 1.763.159.234.309.553.309.712 0 .384.619 2.325.825 2.578.103.122.206.825.272 1.791.056.872.113 1.762.131 1.978s.113.422.225.488c.103.066.403.572.675 1.097.375.797.45 1.078.384 1.406-.056.234-.056.759 0 1.181.084.675.141.797.778 1.434.384.375.684.769.684.872s.3.375.647.6c.834.534.844.863.103 2.016-.469.712-.553.947-.563 1.575-.009.394-.084.759-.15.769-.338.122-.581.422-.778 1.05-.253.703-.187 1.191.15 1.331s.619 1.463.591 2.709c-.038 1.622-.056 1.575.469 1.809.422.188.459.234.384.6-.038.234.028.637.188 1.059.141.356.253.872.253 1.144s.066.862.15 1.331c.131.731.206.891.516 1.05s.366.281.366.731c0 .291.084.741.206 1.022.113.262.225.741.244 1.031.009.394.141.703.422 1.059.347.422.412.628.412 1.191 0 .516.131.956.516 1.809.281.628.591 1.191.684 1.284.103.075.281.534.403.994.131.478.309.891.412.928s.188.187.188.319c0 .15.15.487.347.769.244.384.366.759.403 1.416l.094.891-.422.159c-.225.094-.45.262-.497.394-.084.262-.581.441-.9.319-.122-.037-.469.037-.787.187s-.769.262-.994.262c-.319 0-.694.197-1.444.769-.553.413-1.153.862-1.35.984-.413.281-.684 1.031-.553 1.603.056.234.103 1.669.15 3.197.038 2.288.084 2.831.253 3.103.15.253.178.45.103.872-.272 1.462-.009 4.688.441 5.616.253.516.272.628.15 1.725-.131 1.031-.159 1.463-.122 2.934 0 .197-.028 1.209-.066 2.241-.066 1.397-.038 1.969.094 2.194.103.197.159 1.022.178 2.438.028 1.856.066 2.203.3 2.653.15.281.347.703.469.947.103.234.309.487.45.572.206.122.253.281.253.806 0 .356.094.872.188 1.144.131.291.169.647.113.919-.066.347-.028.469.122.534.113.037.309.328.422.666.281.759.647.872 2.109.731.938-.103 1.106-.094 1.238.103.094.122.3.225.459.234s.469.066.684.103c.553.122 1.856-.394 1.987-.797.066-.169.225-.347.366-.394s.272-.15.272-.216.084-.122.178-.122.244-.094.338-.197.338-.197.534-.197c.497 0 .966-.263 1.528-.891.534-.581.759-.966.759-1.341 0-.319.225-.422.984-.422.619 0 1.078-.328 1.078-.797 0-.375.722-1.491 1.078-1.688.225-.131.338-.319.403-.806.084-.572.159-.694.872-1.284.994-.853 1.322-1.172 1.397-1.406.056-.15.103-.159.244-.009.253.253.619.188.769-.131.347-.825 1.322-1.95 2.081-2.4.553-.347.609-.412.609-.891 0-.413.084-.572.375-.778.206-.159.488-.281.647-.281s.384-.187.553-.412c.366-.506.891-.806 1.134-.647.122.066.244.066.347-.028.113-.094.216-.094.366.028.15.131.178.319.113.778-.056.328-.15.675-.206.769s-.094.328-.038.544c.056.253-.009.675-.188 1.172-.15.422-.272 1.087-.272 1.463 0 .6-.084.825-.581 1.594-.366.6-.525.956-.45 1.031s.131.637.131 1.247c0 .966-.056 1.237-.384 1.969-.225.478-.591 1.013-.862 1.237l-.459.394.084 1.022c.084.891.056 1.078-.178 1.472-.253.441-.272.731-.056 1.434.056.197-.056.441-.375.863-.253.328-.469.694-.469.797s-.141.478-.319.825a5 5 0 0 0-.403 1.172c-.056.347-.188.609-.347.703-.403.253-.994 1.763-1.013 2.531 0 .534.047.703.309.9.178.15.422.225.628.187.281-.056.366.009.563.487.122.309.534.863.9 1.219.375.375.713.787.769.928.122.413.919.863 1.537.891.441.028.675-.056 1.022-.328.272-.216.619-.356.844-.356.309 0 .431-.094.591-.394.113-.225.281-.394.384-.394s.309-.131.45-.291c.225-.263.403-.309 1.106-.291.825.009.844 0 1.491-.628s.656-.628.553-1.256c-.056-.394-.188-.712-.338-.825-.15-.103-.244-.328-.244-.553s-.113-.628-.253-.9c-.141-.291-.225-.609-.188-.713.094-.234 1.238-.506 2.194-.506.488 0 .769.075 1.022.281.281.225.553.281 1.922.319 1.678.037 1.922-.028 1.941-.581 0-.122.131-.225.281-.253.169-.028.319-.188.403-.394.206-.628.778-1.219 1.181-1.219.188 0 .422-.075.497-.187a.4.4 0 0 1 .384-.122c.15.037.412-.15.759-.516.3-.309.534-.609.534-.666s.188-.103.431-.103c.591 0 1.003-.169 1.416-.6.309-.319.422-.347 1.144-.309l.797.037-.028-.487c-.009-.281-.188-1.022-.347-1.659-.253-.928-.413-1.247-.75-1.528-.366-.347-.403-.394-.272-.825.094-.291.094-.506.009-.581-.066-.066-.103-.384-.084-.694.066-.863.431-1.088 1.856-1.125.628-.009 1.359-.075 1.603-.15.272-.075.675-.075 1.05 0 .525.122.713.094 1.341-.169l.722-.319.366.291c.534.413 1.144.356 1.641-.122.225-.225.497-.394.609-.394.094 0 .338-.15.534-.319s.581-.384.834-.469.628-.375.825-.628.441-.45.534-.45c.103 0 .375.216.609.478.403.45.45.469 1.416.487l.994.028.141-.45c.131-.375.253-.478.713-.628.3-.075.628-.234.731-.319.188-.159 2.672-.197 2.916-.056.066.037.281 0 .497-.075.3-.131.375-.234.375-.581 0-.544.459-1.013 1.041-1.059.469-.056 1.088-.291 1.416-.581.131-.094.609-.197 1.116-.225.497-.028.984-.075 1.059-.131.094-.056.122-.291.103-.516-.038-.384 0-.45.375-.572.225-.066.487-.075.581-.028.309.216.553.103.844-.356.15-.263.281-.544.281-.638 0-.328.338-.478 1.116-.478.759 0 .806-.028 1.003-.394.103-.216.188-.516.188-.666 0-.263.066-.291.619-.234.553.037.675 0 1.041-.384.216-.234.609-.478.834-.553.563-.15 1.416.009 1.894.375s.628.356.628-.056c0-.225.272-.628.9-1.275.497-.534.9-1.022.9-1.087s.206-.319.459-.553c.412-.394.487-.422.844-.281.347.131.412.122.656-.197.253-.328.366-.356 1.181-.356.497 0 1.088.066 1.322.15.366.131.45.103.703-.15.619-.637 1.528-1.35 1.706-1.35.253 0 .675-.469.769-.862.084-.347.141-.375.684-.347.188.009.525-.103.769-.281s.722-.478 1.059-.675c.338-.197.609-.422.609-.487 0-.075.056-.131.131-.131.206 0 .534.806.469 1.172-.037.188 0 .441.084.572.216.356-.113 1.603-.591 2.241-.375.478-.45.516-.844.45s-.422-.056-.281.131c.15.169.131.234-.009.394-.103.103-.272.375-.366.6s-.225.412-.319.412c-.188 0-.675.769-.778 1.275a1.3 1.3 0 0 1-.45.609c-.3.234-.375.384-.375.797 0 .534-.131.712-.966 1.434-.216.188-.591.6-.834.919s-.609.647-.797.759c-.497.263-.722.544-.872 1.087-.094.328-.319.638-.713.956-.563.45-.797.862-.806 1.416-.009.394-.591 1.406-1.153 2.006-.609.637-1.153 1.603-1.481 2.578-.056.131-.159.234-.272.234-.094 0-.216.159-.272.356a1.8 1.8 0 0 1-.338.675c-.131.188-.244.413-.244.506s-.056.188-.131.188c-.066 0-.131.066-.131.15 0 .347-.553 1.331-.966 1.725-.253.253-.675.9-.938 1.444a12 12 0 0 1-.844 1.5c-.253.328-.403.713-.469 1.219-.056.394-.206.872-.347 1.059-.15.188-.3.516-.347.713-.084.384-.375.6-.984.731-.253.066-.384.216-.534.638-.103.319-.216.741-.225.966-.028.281-.159.478-.488.675-.244.169-.609.441-.797.609-.45.384-1.481 1.95-1.669 2.522-.084.234-.281.581-.45.759s-.281.422-.272.534-.066.356-.187.544c-.113.169-.216.394-.216.478s-.15.328-.309.544c-.159.197-.319.487-.347.638s-.188.291-.366.328c-.216.037-.412.253-.553.572l-.244.506.338.441c.281.384.3.469.131.534-.366.15-.441.075-.441-.319 0-.469-.225-.516-.581-.131-.131.15-.319.291-.441.328-.225.066-.741.956-.628 1.078.038.038-.272.413-.684.834s-.759.834-.759.9c0 .075-.103.234-.244.356-.131.122-.272.478-.309.787-.103.787-.553 1.087-1.05.703-.244-.187-.244-.216-.037-.834.534-1.688.562-2.709.066-2.906-.15-.056-.15-.15-.028-.516.084-.253.178-.506.225-.544.047-.056.084-.291.084-.544 0-.356-.084-.487-.403-.703-.366-.225-.553-.253-1.2-.188-.422.056-.938.197-1.153.328-.488.309-.553.347-1.022.45-.206.056-.609.347-.9.666-.375.422-.675.628-1.059.713-.309.066-.656.216-.787.328s-.516.309-.872.413a2.8 2.8 0 0 0-1.144.713c-.281.281-.628.572-.787.666a.78.78 0 0 0-.366.478c-.037.188-.188.347-.3.356-.834.094-1.397.253-1.575.45-.084.103-.206.188-.272.188s-.525.412-1.012.928c-.488.506-1.059 1.022-1.275 1.153-.216.122-.384.281-.384.328 0 .234-.534.637-.844.637-.244 0-.609.263-1.322.994-.534.544-1.069.994-1.172.994s-.3.094-.431.188c-.131.103-.338.159-.45.122-.15-.037-.338.131-.609.581-.431.703-1.969 2.278-2.231 2.297-.084 0-.225.15-.309.328s-.281.375-.441.413c-.347.094-.431.347-.3.956s-.206 1.594-.666 2.044c-.347.328-.375.422-.375 1.341 0 1.078.281 1.725.872 2.034.169.075.469.309.656.506.188.188.469.347.647.347s.525.131.806.291c.506.291.516.291.694.056.206-.309.984-.609 1.528-.609.281 0 .553-.159.956-.534.609-.581.825-.638 1.369-.328.206.103.619.197.919.197.45 0 .647-.094 1.022-.45.272-.234.619-.478.759-.534.159-.056.375-.197.506-.347s.347-.263.469-.263c.141 0 .525-.122.844-.263l.619-.281.797.263c.441.15.891.234.984.197.188-.075.722.159.862.384.056.066.009.422-.094.787-.094.356-.131.741-.094.853s-.084.469-.253.806c-.169.356-.366.787-.412.966-.103.347-.591 1.022-1.181 1.631-.188.197-.384.516-.431.713-.038.234-.253.487-.619.741-.3.197-.534.441-.534.506s-.159.516-.384.984c-.3.666-.525.947-.984 1.275-.731.516-.806.609-.806 1.059 0 .234-.188.516-.563.872-.666.637-.806 1.153-.553 2.034.112.412.15.713.056.966-.216.694.487 2.166.966 2.044.338-.094.366.056.178.713-.216.769-.141 1.022.347 1.153.244.066.469.253.609.487.366.694.722.741 4.434.694 1.509-.028 1.706-.056 2.072-.319a4.7 4.7 0 0 1 .75-.441.9.9 0 0 0 .45-.422c.066-.169.272-.534.45-.806.366-.553.403-.928.141-1.416-.244-.441-.244-1.237 0-2.438.159-.769.169-1.219.084-2.203l-.131-1.238.525-.637c.3-.356.591-.647.675-.647.094 0 .375.122.656.263s.684.319.919.394c.272.094.441.253.487.469.066.253.169.328.45.328.384 0 .675.319 1.003 1.097.112.262.225.356.384.309.131-.037.403.009.609.122.197.103.487.197.647.197.319 0 .928.6.994.984.038.281 1.762 1.303 2.588 1.537.253.075.656.319.862.534.3.291.525.394.872.413 1.331.009 1.734.075 1.894.291.178.253.966.628 1.322.628.122 0 .403.197.647.441.422.45.984.544 1.528.253.159-.094.488-.159.75-.159s1.106-.216 1.875-.478c.778-.262 1.453-.45 1.491-.412.028.037.272-.028.525-.131l.459-.197 1.003 1.116-.103.872c-.131 1.088-.103 1.828.084 2.55.112.469.187.534.516.534.225 0 .441.103.563.291.15.225.309.291.656.262.253-.028.591.056.741.169.15.103.469.197.712.197s.45.075.497.197c.038.122.309.328.591.478.441.234.656.262 1.359.188.469-.037.956-.103 1.059-.15.131-.037.384.122.675.412.497.516.684.553 1.059.263.441-.347.684-.253.684.253 0 .253-.084.488-.15.534-.094.037.056.056.309.009s.497-.009.553.066c.037.075.591.131 1.266.131.806.009 1.266.066 1.416.197.15.094.469.216.731.263.338.056.525.169.619.412.084.169.225.319.319.319s.347.131.534.291c.338.263.403.281 1.116.122.731-.159.769-.15 1.144.188.309.253.534.328 1.022.328.684 0 1.022.234 1.022.713 0 .422.112.487.469.253.244-.169.469-.188 1.238-.103.516.066 1.209.103 1.547.094.534-.028.703.038 1.303.506.497.394.797.534 1.116.516.741-.028 2.231.159 2.363.291.066.066.562.122 1.106.122.863 0 1.041.038 1.359.319.206.169.609.328.938.384.487.066.675.169 1.153.741.319.356.741.713.928.797.469.188 1.894.216 2.297.037.3-.122.384-.094.619.159.684.741.047 1.556-1.266 1.594-.525.028-.928.15-1.387.394-.366.216-.722.328-.797.281-.094-.056-.431.094-.769.328-.581.375-.684.394-1.322.319-.366-.056-.806-.15-.984-.197-.225-.094-.347-.056-.581.225-.169.197-.534.394-.928.488-.553.15-.656.225-.769.609-.094.319-.188.412-.347.375-.131-.038-.225-.009-.225.056s-.319.122-.712.122c-.516 0-.731.056-.778.197-.066.15-.131.159-.338.056-.178-.103-.722-.122-1.612-.056-1.444.103-2.381.478-2.541 1.012-.066.216-.206.253-.844.253-.675 0-.797.038-1.088.384-.281.328-.469.394-1.219.478-.928.094-1.275.291-1.275.731 0 .572-.919.872-1.556.534-.188-.103-.347-.084-.656.094-.225.122-.703.262-1.059.319-1.059.159-1.641.356-1.856.628-.319.422-.694.553-1.387.469-.759-.094-2.409.15-3.375.487-.384.131-.619.253-.525.253.084.009.15.131.15.262 0 .169-.159.319-.516.469-.375.15-.525.309-.591.572-.131.534-.825 1.913-1.153 2.297-.15.188-.309.506-.338.731-.056.544-.375.553-.891.038a10 10 0 0 0-.759-.666c-.188-.131-.581-.422-.9-.647-1.022-.741-1.631-.891-3.638-.825-1.031.037-1.922.009-2.147-.066-.309-.122-.422-.094-.675.103-.216.169-.609.253-1.387.309-1.369.094-2.231.262-2.503.487-.112.103-.412.169-.656.159-.366-.028-.459.028-.619.356-.253.488-.338.516-2.325.675-2.156.169-2.494.234-2.934.609-.384.328-.469.356-1.303.375-.469.009-.516.056-.469.319.037.309-.103.347-1.106.291-.225-.009-.656.094-.966.234-1.059.534-1.538.694-2.016.694-.253 0-.516-.037-.563-.094s-.272-.103-.469-.122a1.2 1.2 0 0 1-.553-.169c-.244-.216-.103-.806.244-.947.206-.084.309-.262.366-.694.038-.319.122-.787.15-1.05.066-.441.028-.506-.562-1.022-.534-.478-.731-.553-1.219-.553-.431 0-.684-.084-.966-.328l-.366-.328-2.109.094c-1.153.038-2.166.131-2.259.197s-.487.15-.9.188c-1.012.094-1.537.375-1.659.9a2.7 2.7 0 0 1-.319.731c-.15.188-.244.534-.244.862 0 .309-.066.628-.15.703-.103.103-.084.309.103.713.225.534.319.609 1.022.834.412.15.844.328.956.412.103.094.366.197.553.253.206.056.459.262.619.516.131.234.45.572.694.759s.469.441.516.553c.056.131.206.328.366.469s.384.394.516.609c.131.197.338.356.469.356.15 0 .375.197.562.506.159.262.384.572.497.666.15.131.169.281.084.666-.338 1.369-.384 1.491-.759 1.688-.225.131-.384.309-.384.478 0 .422-.563.919-1.059.919-.225 0-.619.122-.844.262s-.506.262-.609.262-.253.122-.347.262c-.131.197-.309.262-.703.262-.3 0-.581.066-.619.131-.038.084-.281.131-.534.131-.591 0-1.519.637-2.512 1.725-.563.6-.825.787-1.003.731-.403-.131-.703.15-1.078 1.022-.3.666-.375 1.05-.384 1.828 0 .553-.066 1.078-.122 1.172s-.066.319-.028.488c.066.253.216.356.656.478.347.094.647.262.769.469.169.281.3.319.956.319.684 0 .797.038 1.078.394.178.216.487.422.684.478.206.038.591.225.844.413.459.328.469.328 1.181.122.384-.122.741-.281.778-.347.038-.084.281-.131.525-.131.563 0 .684.291.534 1.378-.066.441-.084.919-.056 1.031.028.131 0 .281-.084.319-.216.15-.366.713-.225.956.066.122.15.384.188.572s.216.506.403.703c.178.197.319.413.319.488s.178.122.403.122c.469 0 .984.487 1.2 1.181.15.45.272.534 1.144.731.319.084.347.131.347.675 0 .478.038.6.225.6.131 0 .562.356.984.797.825.862 1.153.966 1.838.609.188-.094.656-.225 1.022-.281.375-.056.834-.216 1.022-.375.319-.253.338-.319.281-1.256-.066-1.031.009-1.444.459-2.372.188-.413.347-.572.553-.572.281 0 .684.441.684.759 0 .328.675 1.238.919 1.238.178 0 .281.159.384.6.084.319.216.666.319.741s.178.253.178.375c0 .253.403 1.444.581 1.734.253.422.581 1.125.581 1.284 0 .094.178.253.384.375.216.122.384.309.384.441 0 .394.225.534.731.422.253-.066.609-.056.825.028.309.103.366.216.366.572 0 .281.084.469.206.516.244.094.441 0 .441-.225s1.106-.919 1.519-.928c1.144-.038 1.697.056 2.016.347.338.291.347.309.188 1.144-.084.45-.272 1.078-.403 1.369-.244.478-.281.806-.319 3.075-.084 4.05-.028 4.753.403 5.653.225.469.497 1.491.469 1.753-.056.422.619 1.509 1.078 1.734.319.159.525.413.769.947.253.553.459.806.872 1.031.441.253.581.422.759.966.225.731.872 1.397 1.341 1.397.15 0 .525.094.825.197s.994.197 1.547.197h1.003l.366.488c.441.6.581 1.444.366 2.119-.403 1.219-.469 1.828-.272 2.513.244.806.375 1.959.347 3.197-.009.825.028 1.031.375 1.659.216.394.403.853.403 1.013 0 .188.188.394.516.628.403.262.516.412.516.713 0 .769.15 1.238.469 1.378.272.122.309.216.253.581-.056.309 0 .516.187.759.122.169.244.413.244.534s.141.516.319.891c.253.516.412.675.722.741.216.038.431.159.469.253s-.028.6-.15 1.088c-.122.506-.188 1.209-.169 1.566l.037.647-.647.253c-.347.131-.891.281-1.172.309-.956.103-2.016-.675-2.512-1.847-.15-.319-.225-.356-.862-.394-.684-.037-.741-.066-.975-.544-.338-.675-1.069-.984-1.641-.675-.319.169-.375.169-.441-.009-.056-.122-.056-.375-.009-.581.103-.534-.225-.806-.966-.806-.487 0-.628-.056-.806-.328-.113-.188-.309-.328-.441-.328s-.338-.216-.469-.487c-.188-.347-.441-.553-.919-.797-.375-.159-.684-.356-.684-.422s-.159-.188-.347-.262a3.7 3.7 0 0 1-.722-.441 1.18 1.18 0 0 0-.797-.281c-.338.009-.516-.066-.684-.309-.131-.169-.3-.319-.375-.319s-.216-.15-.319-.319c-.15-.234-.375-.347-.844-.412-.591-.084-.656-.131-.787-.544-.094-.262-.225-.45-.366-.45-.113 0-.525-.356-.938-.787-.806-.872-1.341-1.209-1.894-1.209-.206 0-.45-.094-.534-.216-.338-.413-.609-.45-1.838-.319l-1.219.131-.384-.375c-.487-.478-1.2-.45-1.425.056-.187.45-.619.394-1.116-.159-.469-.506-.562-.994-.225-1.275.628-.534 1.359-1.463 1.491-1.875.037-.159.084-.553.094-.891.009-.534-.038-.638-.441-.966a3.3 3.3 0 0 1-.647-.741c-.112-.253-.384-.469-.769-.609-.319-.131-.581-.281-.581-.347s-.178-.131-.384-.187a1.15 1.15 0 0 1-.581-.384c-.272-.413-.731-.609-1.463-.609-.403 0-.684-.066-.778-.197-.094-.103-.244-.197-.347-.197s-.384-.159-.628-.347c-.366-.291-.469-.319-.628-.188-.169.15-.253.122-.497-.122-.272-.262-.384-.291-1.059-.216-.469.066-.975.028-1.331-.084-.759-.216-3.009-.216-3.272 0-.15.131-.272.122-.581-.037-.206-.122-.591-.216-.844-.216-.431 0-.45-.028-.45-.45 0-.328-.094-.516-.281-.666-.225-.169-.281-.328-.272-.872.028-.806.094-.928.497-.928.459 0 1.519-1.116 1.416-1.5a4.3 4.3 0 0 1-.084-.797c0-.45-.066-.534-.609-.891-.338-.225-.703-.394-.834-.394-.15 0-.384-.234-.591-.6-.188-.319-.441-.6-.563-.6-.113 0-.628.084-1.153.188a9 9 0 0 1-1.762.15c-.769-.056-.834-.084-1.134-.534-.591-.9-.703-1.313-.487-1.847.272-.647.253-.675-.384-1.397-.319-.347-.581-.703-.581-.769 0-.197-.431-.572-.684-.572-.103 0-.366-.159-.591-.347-.272-.234-.487-.319-.684-.281-.244.066-.319-.009-.534-.534-.141-.328-.366-.647-.516-.731a4 4 0 0 1-.563-.309c-.216-.122-.384-.15-.553-.056s-.375.056-.731-.15c-.281-.15-.534-.319-.591-.394-.037-.066-.169-.131-.281-.131s-.563-.169-.984-.384c-.713-.347-.919-.384-2.203-.384-1.2 0-1.519.037-2.128.309-.384.169-.834.356-1.003.394-.188.056-.319.225-.366.478-.066.328-.131.384-.516.384-.441 0-.459.038-.609.694-.056.216-.188.394-.375.45-.15.056-.459.253-.684.45s-.469.394-.581.422c-.113.038-.159.319-.178.853a17 17 0 0 1-.253 2.531c-.028.159-.188.45-.366.666-.272.347-.309.534-.384 2.362-.056 1.097-.094 2.353-.084 2.784.009.45-.038.966-.122 1.153-.084.225-.084.506 0 .806.103.375.066.609-.141 1.172-.159.384-.384.787-.534.891-.206.15-.225.281-.178.628.178.966-.825 1.125-1.641.262-.244-.234-.534-.741-.656-1.116-.15-.506-.281-.675-.459-.675-.131 0-.244-.056-.244-.131s-.188-.169-.412-.234a.87.87 0 0 1-.591-.45c-.094-.197-.272-.394-.413-.441s-.3-.225-.338-.384c-.038-.169-.206-.375-.384-.469-.159-.084-.309-.253-.309-.384 0-.281-1.397-1.688-1.8-1.819-.15-.038-.497-.375-.797-.713-.309-.356-.797-.769-1.059-.919-.281-.159-.806-.628-1.153-1.031-1.134-1.341-1.059-1.284-1.659-1.181a10 10 0 0 1-1.106.122c-.684.009-.9.131-.9.516 0 .169-.037.225-.103.15-.244-.384-1.678-.291-1.978.131-.047.066-.253.084-.459.038-.272-.056-.534.028-.966.281-.487.291-.684.544-1.106 1.378-.45.9-.516 1.153-.553 2.109l-.056 1.078.45.159c.431.15.45.169.469.806.009.375.066.919.113 1.219.131.712-.131 1.153-.797 1.369-.272.094-.581.253-.694.356s-.403.234-.647.319c-.244.066-.647.319-.9.553-.441.384-.487.534-.694 1.688-.422 2.419-.459 2.878-.525 6.441-.084 4.303-.084 5.081.094 5.391.206.412.131.928-.206 1.341-.309.375-.338.506-.319 1.556.009.628-.009 1.762-.056 2.531-.047 1.331-.066 1.397-.422 1.687-.366.309-.366.309-.319 1.659.028.741.103 1.444.187 1.538.113.131.469.159 1.519.122 1.219-.056 1.425-.094 1.875-.413.722-.506 1.509-.441 2.109.188.206.216.253.441.253 1.05 0 1.013-.319 2.588-.628 3.122-.131.225-.272.572-.319.769s-.15.441-.253.534c-.431.441-.609 1.05-.581 1.95.009.506-.028.984-.084 1.078-.066.094-.094.441-.084.741.009.45-.056.647-.272.872-.675.675-1.022 1.219-.956 1.5.028.15-.038.45-.169.675-.131.216-.272.628-.319.919-.084.375-.253.666-.684 1.087-.338.309-.684.572-.769.572s-.225.188-.3.394c-.169.469-.628.572-.628.131 0-.15-.056-.262-.113-.262-.159 0-.272 1.022-.15 1.434.056.197.15 1.191.188 2.194.084 1.631.066 1.856-.131 2.081-.122.15-.188.347-.15.45.056.122-.066.384-.272.628-.225.309-.319.544-.309.853.037.347-.028.441-.309.581-.338.15-.347.188-.281 1.013.066.797.056.862-.244 1.059s-.309.281-.3 1.434c.009.675.009 1.303.009 1.378-.009.094-.188.253-.403.375-.272.15-.412.356-.516.731-.066.291-.188.769-.253 1.059-.103.384-.206.534-.384.534-.253 0-.309.131-.431 1.125-.056.356-.188.637-.412.834-.309.281-.347.413-.347 1.153-.009.769-.037.853-.309.928-.206.056-.3.169-.3.384 0 .169-.15.637-.319 1.031s-.319.834-.319.994a.59.59 0 0 1-.272.469c-.469.309-.834 1.631-.769 2.831 0 .225.028.572.028.769.009.216-.103.534-.253.731-.703.919-1.059 1.556-.984 1.875.056.197 0 .394-.15.572s-.225.478-.225.9c0 .544-.056.694-.347.928-.338.262-.366.356-.366 1.247 0 .534-.037 1.509-.094 2.194-.075 1.209-.075 1.219-.469 1.397a2.2 2.2 0 0 0-.581.394c-.225.291-.834.609-1.134.609-.131 0-.366-.131-.497-.309zm17.822-98.437c0-.066.244-.291.534-.478.3-.197.656-.469.806-.6.141-.15.338-.253.441-.253s.366-.15.581-.319c.488-.375.75-.441 1.425-.291.403.084.534.056.797-.197s1.041-.609 1.913-.872c.15-.038.441-.234.647-.441.562-.516 1.041-.797 1.753-1.012.516-.159.666-.281.806-.628.084-.234.366-.609.581-.834s.647-.609.919-.872c.281-.281.628-.506.778-.506s.525-.225.825-.487c.3-.281.628-.553.741-.638.3-.169.497-1.284.534-2.916.028-1.125 0-1.369-.188-1.594-.122-.15-.253-.478-.281-.731-.038-.412-.094-.478-.516-.581-.403-.103-.487-.188-.534-.534-.3-2.119-.384-2.709-.488-3-.066-.188-.112-.572-.131-.862s-.084-.703-.159-.928c-.094-.216-.206-.628-.244-.919s-.169-.628-.281-.759c-.122-.131-.188-.356-.15-.506.028-.15.009-.516-.056-.834-.094-.422-.216-.628-.497-.797-.431-.253-.581-.713-.694-2.194-.066-.862-.056-.984.216-1.303.281-.347.3-.347 1.153-.197.591.103.9.234.984.394.066.131.281.281.469.328.403.094 1.584.834 1.584.984 0 .103 1.35.741 1.838.862.188.056.422.225.497.412.188.441.441.506 1.134.319.534-.15.647-.131 1.219.197.366.188.825.347 1.059.347.309 0 .469.094.628.328.225.375.553.413 1.209.169.319-.103.562-.103 1.022.009.487.131.759.122 1.397-.028 1.172-.281 1.753-.759 2.081-1.697.319-.891.928-1.669 1.753-2.259 1.088-.787 1.912-1.753 2.156-2.559.15-.441.188-.9.15-1.144-.037-.262 0-.553.113-.806.159-.309.281-.384.647-.384.403 0 .45-.038.591-.553.094-.319.225-.666.338-.787.094-.103.159-.45.159-.741 0-.328.15-.834.384-1.313.459-.947.469-1.444.084-2.147l-.3-.534.178-1.978c.15-1.462.15-2.072.038-2.353-.103-.291-.103-.441.009-.572.178-.225-.366-1.059-1.181-1.819-.319-.309-.834-.797-1.153-1.116-.938-.928-.984-.956-1.294-.956-.169 0-.506-.131-.75-.309-.244-.159-.591-.394-.769-.516s-.563-.291-.844-.375c-.741-.216-1.322-.544-1.388-.797-.056-.188-.994-.553-1.987-.741-.244-.056-.563-.262-.797-.544-.497-.581-1.322-.966-1.875-.872-.225.037-.75.028-1.134-.009-.628-.094-.713-.131-.834-.506-.084-.225-.253-.488-.403-.6-.253-.188-.253-.197.122-.581.206-.216.403-.506.459-.637.037-.131.244-.328.469-.412s.469-.309.581-.469c.244-.384.534-.469 1.022-.253.441.188 1.2.103 1.491-.169.178-.159.225-.15.366.028.216.281.319.253.488-.131.084-.188.225-.328.338-.328s.609-.384 1.106-.853c.516-.478 1.078-.872 1.294-.928a.73.73 0 0 0 .534-.441c.084-.216.459-.675.825-1.05.412-.413.722-.853.769-1.088.084-.45.628-.806.872-.553.225.234.806.15 1.575-.281.403-.225.806-.45.891-.516.066-.056.3-.103.497-.103.619.009 1.022-.544 1.078-1.491.056-.694.009-.872-.216-1.191a1.6 1.6 0 0 1-.272-.9c0-.309-.103-.647-.244-.834-.122-.169-.272-.534-.319-.797s-.253-.731-.469-1.031c-.216-.291-.384-.572-.384-.609 0-.056-.112-.356-.272-.694a5 5 0 0 1-.338-1.05c-.066-.422-.103-.45-.469-.375-.488.094-.713-.131-.919-.853-.122-.45-.45-.741-1.172-1.078-.15-.066-.309-.225-.347-.328-.056-.122-.225-.216-.431-.216s-.488-.094-.647-.197c-.244-.188-.412-.188-1.481 0-.656.122-1.481.281-1.819.384a3.5 3.5 0 0 1-1.238.075c-.375-.056-.769-.009-.994.094-.206.075-.497.159-.656.169-.15 0-.694.234-1.2.544-.984.572-1.828.769-3.281.787-.647 0-.956.094-1.706.478s-1.041.469-1.463.422c-.3-.037-.722.028-.956.122-.403.159-.431.159-.591-.169l-.159-.347-.366.488c-.188.262-.488.534-.647.6s-.45.422-.656.853l-.366.741.338.506c.206.281.347.694.347.928 0 .281.122.572.384.862.441.516.459.759.272 1.884-.178 1.05-.206.984.3 1.191.619.263.966 1.059.928 2.194-.009.478-.066.928-.112 1.013-.084.15-.113 1.734-.094 4.219 0 .506.084 1.012.15 1.097.084.103.15.441.188.741s.084 1.022.131 1.594c.084.947.066 1.059-.197 1.303-.188.188-.272.422-.272.806s-.103.713-.338 1.059c-.3.441-.319.544-.188.919.084.234.15.544.15.703s.113.422.253.609c.159.216.253.544.253.891 0 .469.066.609.403.891.375.291.403.375.281.703-.094.262-.084.572.038 1.097.225.984.431 1.331.713 1.331.141 0 .216.056.178.122s-.141.609-.216 1.219c-.084.609-.187 1.416-.244 1.781l-.206 1.303c-.084.6-.103.628-.488.628-.338 0-.516.122-.9.6-.281.328-.562.6-.656.6s-.225.084-.309.188c-.084.103-.309.225-.487.281-.769.197-1.706.787-1.969 1.219-.122.234-.338.441-.45.441-.103 0-.188.056-.188.131s-.178.328-.403.6c-.309.356-.45.441-.619.328-.225-.122-.797-.028-1.462.253-.206.084-.797.15-1.322.15-1.369 0-1.894.197-2.625 1.022-.722.806-.956 1.556-.684 2.109.244.478.225.581-.103.581-.487 0-.647.188-.609.694.028.281-.047.609-.178.825-.169.253-.206.478-.15.834.066.384.038.516-.15.666-.206.15-.244.384-.272 1.472-.009.703.028 1.566.112 1.894.131.553.113.647-.216 1.238-.188.347-.422.647-.497.675s-.3.084-.487.122c-.188.056-.384.197-.431.356-.084.234-.159.281-.581.216-.347-.038-.516-.009-.562.122-.038.094-.216.216-.403.262-.244.066-.319.169-.319.45q0 .576-.563.675c-.272.066-.628.713-.863 1.575-.094.328-.366.806-.619 1.097l-.459.506-1.153-.028c-.628-.009-1.275.009-1.425.066-.206.066-.3.009-.403-.234-.094-.197-.3-.356-.534-.412s-.525-.216-.666-.356c-.188-.197-.3-.225-.403-.122-.309.319-.675.159-1.003-.487-.319-.6-.338-.647-.188-1.284.188-.741.066-1.097-.459-1.406-.225-.122-.309-.103-.403.066-.066.122-.206.216-.309.216s-.281.225-.403.487c-.103.281-.422.759-.684 1.088-.403.469-.497.694-.497 1.116s-.084.609-.497 1.031c-.366.375-.609.516-.891.516-.216 0-.431.066-.469.131-.244.412-1.087-.281-1.087-.891 0-.506-.206-.703-.722-.703-.581 0-.825-.122-.825-.394 0-.131-.103-.281-.216-.319-.122-.056-.403-.328-.619-.628s-.581-.694-.806-.862c-.225-.188-.497-.534-.591-.787-.225-.553-.563-.741-1.059-.609-.338.094-.431.028-1.022-.628-.553-.628-.675-.862-.806-1.594-.094-.478-.281-1.097-.431-1.397-.225-.469-.253-.675-.188-2.053.037-.853.103-1.669.15-1.819.094-.384-.188-1.538-.412-1.716-.206-.159-.319-1.847-.141-2.213.075-.169-.009-.291-.45-.544-.469-.262-.563-.384-.619-.834-.066-.516-.094-.534-.581-.572-.281-.028-.563-.122-.647-.216-.281-.384-.703-.487-1.519-.394-.431.056-.863.15-.956.216-.075.066-.253.103-.384.084s-.469.084-.75.216c-.684.347-1.275.291-2.147-.15-.619-.319-.759-.469-.937-.947-.122-.319-.384-.703-.591-.853s-.366-.394-.366-.516c0-.131-.187-.487-.431-.806s-.469-.741-.516-.947c-.056-.188-.281-.534-.497-.741-.403-.384-.403-.412-.384-1.5a28 28 0 0 0-.075-2.175c-.056-.581-.056-1.275 0-1.528.066-.347.037-.534-.15-.806-.216-.309-.253-.581-.253-1.669 0-1.35-.188-2.241-.591-2.691-.244-.281-.15-.487.281-.647.169-.066.337-.281.384-.478.103-.394.778-1.509.928-1.509s.675-.863.675-1.116c0-.131.15-.412.319-.637.403-.506.403-.675-.066-1.631-.216-.441-.384-.956-.384-1.153 0-.281-.066-.375-.244-.375-.141 0-.3-.075-.347-.159-.225-.384-.216-6.609.009-7.341s.281-1.331.103-1.537a1.4 1.4 0 0 1-.216-.478c-.066-.253-.009-.328.366-.487s.469-.291.591-.769c.3-1.181.534-1.828.741-1.988.112-.094.3-.328.403-.534s.281-.394.403-.441c.319-.103.647-.919.722-1.828.103-1.256.15-1.416.431-1.416.15 0 .525-.253.834-.544.534-.516.581-.6.581-1.238 0-.947.103-1.059.797-.956.525.075.563.066.722-.281.094-.216.337-.703.534-1.097.216-.394.384-.797.384-.872 0-.094.469-.647 1.059-1.247.938-.947 1.087-1.059 1.416-.984.216.037.431.009.563-.103.112-.094.591-.197 1.05-.234.722-.056.844-.103.9-.328.056-.319.244-.469.619-.469.15 0 .384-.159.525-.356.244-.347.319-.375 1.181-.356.759.028.984-.028 1.172-.225.122-.131.347-.253.459-.253.3 0 .684-.384.684-.675s.722-1.181.956-1.181c.066 0 .366.15.619.328.563.394.825.412.994.075.066-.131.3-.319.488-.394.563-.234.984-.506 1.088-.713.066-.122.422-.225.872-.281.422-.056.806-.15.844-.216.122-.188.928-.159 1.219.028.206.131.309.131.516 0 .403-.253.609-.188.759.234.066.225.206.394.309.394s.338.15.525.328c.431.394.919.544 1.153.328.103-.075.497-.188.872-.225.534-.056.741-.028.863.15.094.122.272.216.384.216s.412.15.656.319c.675.469.891.487 2.137.347 1.106-.131 1.153-.122 1.359.159.441.581.675.787.844.703.103-.038.272.037.366.187.216.309.891.675 1.238.675.366 0 .741.253.741.487 0 .169.113.188.713.103.684-.075.731-.066 1.219.384.281.263.609.478.722.478.103 0 .281.216.384.469.131.319.3.487.534.544.188.056.675.253 1.059.469s.797.394.919.441c.131.037.244.263.3.6.038.309.131.544.188.544s.375.263.703.572c.412.394.591.647.534.797-.066.15 0 .216.216.253.206.028.309.15.338.375a.82.82 0 0 0 .384.544c.216.131.431.413.534.769s.338.675.563.853c.516.375.713.628.722.956 0 .197.169.328.628.506 1.059.384 1.041.394 2.606-1.209.338-.347.619-.694.619-.769s.244-.319.553-.534c.825-.572.891-.675.778-1.509-.056-.394-.169-.853-.253-.994-.384-.553-.131-1.659.384-1.659.319 0 .347-.056.516-.825.113-.516 1.209-1.566 1.641-1.566.3 0 .366-.066.422-.469.066-.356.216-.544.609-.806.628-.394 1.359-1.144 1.838-1.884.3-.441.347-.638.281-1.013-.094-.487-.225-.666-.722-.806-.384-.122-.516-.291-.516-.694 0-.159-.188-.441-.412-.638s-.525-.441-.675-.553c-.188-.159-.216-.309-.15-.713s.009-.694-.244-1.237c-.188-.384-.319-.787-.319-.891s-.188-.544-.384-.984c-.206-.441-.384-.947-.384-1.116 0-.412-1.247-1.659-1.622-1.622-.188.009-.375-.103-.534-.356-.188-.281-.469-.441-1.059-.6-.431-.131-.834-.197-.9-.159s-.206-.094-.309-.309c-.216-.441-.441-.553-.984-.553-.244 0-.516-.15-.778-.413-.3-.291-.487-.384-.694-.328s-.347 0-.469-.188c-.113-.169-.487-.328-1.059-.478-1.359-.328-1.762-.469-2.016-.694-.178-.169-.553-.216-1.772-.225-.834 0-1.528-.038-1.528-.075 0-.263-.956-.384-2.034-.263-.084 0-.281.159-.441.347s-.338.328-.412.328c-.366 0-1.303.647-1.359.947-.113.487-.891.713-1.875.534-.966-.169-1.725-.188-1.725-.028 0 .066-.281.263-.628.45-.741.384-3.225 2.934-3.225 3.319 0 .066-.253.384-.581.712s-.581.703-.581.834c0 .422-.347.6-.825.422-.225-.094-.516-.159-.628-.159-.281 0-.994-1.125-.994-1.603 0-.422-.347-.862-.844-1.05-.3-.122-.319-.188-.225-.572a2.4 2.4 0 0 0-.131-1.575c-.225-.553-1.725-1.509-2.278-1.463-.206.028-.516-.066-.722-.225-.403-.309-.675-.347-2.053-.309-.778.028-.984.075-1.219.319-.244.253-.431.291-1.134.291a14 14 0 0 1-1.509-.122c-.647-.094-.684-.075-.684.187 0 .309-.338.375-.741.159-.375-.197-1.481-.394-2.1-.384-.553.009-.609.056-.741.469-.169.45-.281.487-1.069.441-.309-.009-.591.094-1.753.731-.225.122-.487.375-.563.544-.103.234-.244.319-.553.319-.216 0-.45.056-.516.122s-.703.375-1.416.675c-.712.319-1.369.647-1.491.741-.103.103-.338.187-.516.187-.159 0-.563.131-.891.291s-.778.328-1.022.375c-.309.037-.459.15-.497.328-.028.15-.216.478-.45.741-.834 1.022-1.022 1.463-1.041 2.737-.009.741-.103 1.35-.244 1.688-.159.384-.187.731-.131 1.331.037.45.009.966-.056 1.153-.113.281-.075.506.15 1.116.169.413.375.825.45.9s.15.253.15.375c0 .131.066.281.131.319s.122.281.122.534.103.544.225.675c.253.263.534 1.144.534 1.697 0 .263.141.516.497.863.272.263.563.609.647.769.188.375.188 2.391 0 2.494a1.1 1.1 0 0 0-.244.412c-.15.375-.206.375-1.172.15-.384-.103-.825-.131-.966-.075-.647.263-1.284.103-2.775-.694-.253-.131-.731-.253-1.05-.253s-.609-.056-.647-.122c-.037-.066-.45-.159-.9-.216a9.6 9.6 0 0 1-1.453-.253c-.403-.103-.741-.131-.994-.056-.206.066-.694.075-1.069.037-.469-.056-.778-.009-1.059.131-.206.122-.609.197-.862.188-.366-.028-.563.037-.769.253-.319.328-.366.347-.9.15-.516-.187-.984.038-.891.422.056.169-.028.319-.188.422-.225.15-.741 1.05-.741 1.331 0 .066-.225.384-.516.703s-.516.694-.516.825c0 .15-.113.384-.253.553s-.253.412-.253.544-.056.281-.122.319c-.075.037-.131.225-.131.384s-.113.469-.253.647c-.131.178-.253.422-.253.534 0 .103-.094.262-.187.356s-.188.281-.188.422c0 .253-.337.806-.825 1.406-.216.234-.272.516-.281 1.463-.028.638-.066 1.894-.094 2.813-.066 1.884.131 2.944.619 3.347.169.131.319.375.375.553.094.394.516.487 2.081.487.984-.009 1.237.038 1.509.253.188.159.516.262.825.262.347 0 .591.094.844.328.188.188.347.394.347.469s.534.131 1.266.131c.825 0 1.481.075 1.875.216.347.122.797.188 1.022.15.384-.066.469-.009.862.516.225.319.487.581.591.581.309 0 .45.488.244.9-.272.534-.525.731-.844.628-.347-.103-.647.15-.647.544 0 .347-.337.581-.806.581-.188 0-.347.084-.384.188-.056.122-.366.225-.872.281-.928.103-1.275.291-1.275.638 0 .15-.112.281-.272.319-.15.056-.553.225-.872.412l-.919.488c-.178.094-.656.309-1.059.469s-.741.347-.741.394c0 .131-1.106.534-1.481.534-.15 0-.506.188-.769.394-.272.225-.581.394-.684.394-.412 0-.525.291-.525 1.275 0 .553-.066 1.013-.15 1.059-.15.094-.056 1.088.169 1.594.15.356.028.956-.469 2.1-.216.544-.272.872-.225 1.856.028 1.078.075 1.256.403 1.734.188.291.469.713.581.956.188.384.225.412.619.309.422-.131.741.009.741.347 0 .234.413.45.9.45.366 0 .384.009.225.309-.094.169-.15.741-.131 1.491.009.666-.028 1.397-.094 1.631-.112.384-.094.469.338.891.253.262.591.469.759.469.216 0 .403.159.628.534.413.675.684.806 1.397.713.534-.084.619-.056.984.356.338.375.431.412.628.281.159-.103.45-.103.994-.028a11 11 0 0 0 1.603.159c.703.038.9-.009 1.303-.291.253-.188.516-.45.581-.581.094-.216.253-.262.872-.291a9 9 0 0 0 1.341-.131c.891-.187 1.275-.094 1.528.356.206.347.253.375.403.188.084-.103.206-.159.272-.122.253.159.009 1.912-.272 1.912-.056 0-.272.319-.487.703-.272.488-.366.806-.319 1.097.056.356-.028.506-.525 1.012-.319.328-.591.703-.591.834s-.15.441-.319.675c-.188.234-.319.581-.319.787 0 .188-.094.647-.206 1.012-.244.759-.206 2.1.075 2.438.216.281.309 2.334.15 3.131-.15.675.056 1.125.525 1.209.216.028.309.15.366.441.056.319.141.413.403.441.3.038.384.131.487.553.187.675.534.928 1.359.928s.938.094 1.059.731c.094.506.131.534.609.572.281.028.581.103.675.188.384.328 2.184 1.172 2.503 1.172s.366.056.366.394c0 .291.075.441.272.516.15.056.431.328.619.628.225.328.469.544.713.581.253.056.422.197.581.534.206.45.244.469 1.106.553.497.056 1.022.159 1.2.234s.487.131.741.131.787.122 1.181.253c1.2.412 2.166.675 2.503.675a.78.78 0 0 1 .534.253c.178.197.338.234.741.169.469-.066.553-.028.891.384l.347.441.872-.15c.806-.15.919-.131 1.275.094.741.469 2.981.197 3.338-.384.056-.084.225-.15.403-.15a.55.55 0 0 0 .459-.291c.075-.159.253-.412.384-.553.15-.15.244-.347.244-.45 0-.169 2.259-2.55 2.447-2.55.056 0 .159-.131.216-.309.131-.291.188-.309.966-.225.966.103 1.172.216 1.8.891.45.478 1.631 2.672 1.8 3.3.037.159.384.534.778.825.656.506 1.172 1.059 1.275 1.369.028.066.347.159.713.216.375.037.741.159.825.253s.225.188.338.188c.112 0 .347.122.525.281.309.234.469.262 1.894.197.844-.038 1.734-.028 1.978.028.741.159 1.678.169 1.678.028zM144.591 175.5c.188 0 .516-.188.769-.413.403-.356.45-.487.45-1.022 0-.703-.309-1.687-.675-2.1-.122-.15-.225-.441-.225-.647s-.122-.516-.281-.703c-.244-.253-.309-.534-.366-1.463-.15-2.1-.309-2.681-.863-3.253-.497-.506-.516-.516-1.556-.516-.563-.009-1.078.009-1.116.066-.037.038-.103.319-.131.628-.056.647-.431 1.575-.741 1.847-.122.094-.216.281-.216.394 0 .262-.431 1.031-.863 1.491-.216.253-.319.534-.366.966-.028.394-.131.731-.3.919-.366.413-.459.862-.272 1.097.131.159.131.262.009.45-.122.225-.084.291.412.6.3.188.703.328.891.328s.45.131.591.291c.281.309.984.478 2.316.572 1.087.084 1.509.169 1.697.413.094.103.244.159.338.122s.319-.066.487-.066zm9.647-11.175c.281 0 .684.038.9.084.225.056.497.009.675-.084.15-.094.844-.516 1.556-.928.797-.488 1.416-.769 1.659-.769.422 0 .741-.234.872-.647.038-.15.15-.291.272-.328.103-.038.3-.328.431-.647.178-.412.347-.609.581-.675.178-.038.403-.253.525-.488.122-.216.319-.516.45-.647.15-.15.281-.422.319-.628.037-.216.131-.647.206-.994.169-.741-.084-1.725-.609-2.428l-.338-.469h-1.238c-1.2 0-1.247.009-1.519.375-.272.328-.375.356-1.678.469-.759.056-1.594.103-1.838.103-.525 0-1.247.516-1.359.966-.038.169-.188.384-.347.478s-.534.478-.863.891c-.834 1.031-1.669 1.894-1.856 1.894-.094 0-.188.084-.225.169-.112.309-.928.628-1.359.544a.92.92 0 0 0-.722.131c-.188.122-.384.188-.45.15s-.272.084-.45.253c-.272.262-.347.469-.347.947-.009.544.037.675.497 1.153.487.487.581.544 1.303.572.581.028.928.131 1.322.384.525.347.609.347 1.838.262.713-.037 1.519-.084 1.8-.084zm-20.663-.262c.075-.084.403-.131.741-.131.656.028.647.038 1.828-1.219.366-.394.825-.759.994-.797.188-.056.281-.15.244-.216-.047-.084-.103-.384-.141-.703-.056-.534-.3-.891-.628-.891-.094 0-.216-.15-.3-.319-.188-.422-1.509-1.05-1.988-.956-.253.056-.469 0-.694-.188-.244-.197-.384-.225-.553-.131-.487.262-.722.159-.891-.394-.103-.347-.272-.6-.506-.713a2.7 2.7 0 0 1-.591-.469c-.188-.216-.347-.262-.609-.216-.422.103-1.209-.225-1.387-.572-.206-.413-1.031-.834-1.547-.825-.797.037-.891.009-1.116-.394-.131-.216-.45-.478-.703-.581-.272-.103-.516-.262-.563-.347-.037-.066-.469-.131-.956-.131-.759 0-.9.038-1.172.347-.253.262-.403.319-.769.262-.384-.066-.525-.009-.928.356-.525.478-.497.356-.431 2.747.028.956.094 1.247.431 1.922.497 1.022 1.256 1.828 1.912 2.034.525.159 1.322.928 1.322 1.275 0 .225.825.544 1.087.422.113-.038.272.056.403.234.253.422.628.506 2.231.487.741 0 1.556.038 1.8.103.684.188 3.272.169 3.441-.009zm68.559-140.241c0-.159.084-.281.206-.281s.188.094.15.225c-.066.328-.366.375-.366.056z"/></svg>