<svg xmlns="http://www.w3.org/2000/svg" width="291" height="300" viewBox="0 0 291 300"><title>grand-alliances-order</title><path d="M124.622 298.162c-.45-.197-.787-1.706-.366-1.706.141 0 .197-.141.197-.413a.72.72 0 0 1 .347-.647c.188-.122.497-.459.675-.75s.422-.553.572-.609c.169-.056.338-.291.422-.666.084-.319.366-.9.619-1.303.375-.6.572-.759 1.022-.891.656-.197 1.041-.572 1.041-1.041 0-.197.084-.487.188-.647s.188-.497.188-.731c-.009-.666.113-.788.75-.694.553.084.572.066.928-.488.197-.3.366-.647.366-.75 0-.262.366-.525.6-.441.281.122.591-.262.506-.6-.056-.197.037-.413.272-.666.347-.403.563-.928.525-1.284-.028-.113.131-.441.347-.722s.469-.703.572-.956c.094-.253.272-.525.375-.609.141-.122.197-.384.169-1.012-.028-.788-.009-.844.309-.928.403-.094.741-.553.741-.984 0-.225.084-.319.253-.319s.431-.3.769-.863c.422-.722.506-.984.478-1.509-.009-.431.037-.703.169-.816.253-.225 1.144-2.119 1.144-2.447 0-.141.094-.403.188-.6s.338-.637.497-.994c.169-.375.338-.666.403-.666s.225-.122.366-.281c.197-.234.244-.487.225-1.678-.028-1.219-.066-1.425-.319-1.688a9 9 0 0 1-.534-.647c-.225-.3-.375-.347-1.547-.431-1.444-.094-1.706-.262-1.969-1.313-.131-.544-.431-.872-1.491-1.716-.422-.328-.478-.703-.169-.966.113-.094.197-.253.197-.347 0-.113.15-.356.319-.581.188-.225.375-.572.422-.778.056-.206.169-.384.253-.403.084 0 .216-.028.291-.028s.319-.225.525-.469c.309-.384.403-.647.478-1.519.056-.581.15-1.303.197-1.575.056-.356.037-.525-.066-.525-.253 0-.169-.262.216-.6 1.369-1.162 1.556-1.425 1.547-2.025-.028-.666.534-1.95 1.097-2.494.281-.281.347-.469.347-1.022 0-.487.112-.872.375-1.359.384-.731.497-.787.844-.459.197.197.253.178.6-.197.366-.375.375-.431.347-1.706-.056-1.594-.084-1.706-.647-2.438-.45-.572-.478-.581-1.238-.572-.422.009-1.059-.084-1.434-.206s-1.266-.262-1.988-.291c-1.219-.056-1.369-.094-1.809-.459-.731-.6-.759-.609-1.35-.469-.422.094-.572.066-.703-.066-.084-.113-.319-.197-.534-.197-.197 0-.422-.066-.45-.15-.094-.15-.619-.084-1.359.178-.319.113-.497.094-.844-.084-.309-.178-.591-.225-.966-.15-.45.084-.703.009-1.5-.384a15 15 0 0 0-1.537-.694c-.553-.197-.563-.197-.506.056.066.225.009.262-.309.262-.291 0-.422-.084-.469-.291-.066-.234-.159-.281-.422-.234s-.366-.009-.469-.262c-.169-.356-.553-.412-.984-.122-.337.225-.994.253-1.341.056-.131-.066-.487-.347-.769-.619-.384-.347-.619-.469-.9-.431-.225.028-.759-.15-1.378-.459-1.359-.675-1.913-.844-2.456-.75-.384.084-.525.028-.778-.262-.319-.347-.337-.347-1.575-.225-1.106.113-1.303.084-1.575-.113-.337-.262-.506-.75-.394-1.134s-.291-.544-1.359-.525c-.816.009-1.059-.038-2.109-.553-.656-.319-1.275-.581-1.369-.581s-.366-.178-.591-.412c-.225-.225-.525-.412-.656-.412s-.525-.15-.872-.347-.778-.347-.956-.347c-.244 0-.319-.084-.366-.375-.037-.328-.122-.403-.647-.525-.347-.084-.928-.384-1.35-.722-.403-.3-.956-.638-1.237-.703-.281-.084-.675-.281-.863-.431-.197-.169-.497-.291-.675-.291-.188 0-.506-.225-.816-.553-.656-.75-1.247-1.106-1.8-1.106-.366 0-.572-.122-1.041-.619-.319-.347-.703-.619-.844-.619-.272 0-2.25-1.884-2.25-2.128 0-.225-.684-.731-1.125-.862a1 1 0 0 1-.497-.281c-.084-.113-.281-.197-.45-.197s-.403-.122-.553-.291c-.131-.169-.487-.487-.769-.722l-.525-.412-.309.403c-.309.412-.309.412-1.631.375-1.172-.028-1.378.009-1.941.3-.778.413-1.294.441-1.753.066l-.337-.281-.572.572c-.469.469-.647.553-.984.497-.469-.066-1.641.262-1.997.572-.216.197-1.303.253-1.838.094-.112-.028-.394.197-.647.525-.431.544-.441.609-.366 1.341.056.413.169.919.272 1.106s.197.516.253.722c.084.431.6 1.247 1.041 1.706.169.169.469.525.675.787.197.281.591.609.872.759.506.281.506.281.6 1.341.056.581.037 1.219-.028 1.387s-.094.356-.056.403.094.328.113.647c.066.675-.169 1.106-.806 1.509a1.4 1.4 0 0 0-.6.759c-.169.525-.525.731-.909.516-.525-.291-5.138.028-5.728.384-.066.038-.469.084-.891.084-.591 0-.862.084-1.303.384-.684.459-1.294.609-1.575.375-.15-.122-.394-.113-1.153.066-.534.122-1.134.178-1.369.122-.216-.038-.731-.038-1.125.009-.6.066-.75.15-.844.413l-.122.328-.563-.253c-.478-.234-.787-.253-2.109-.197-.862.037-1.622.141-1.706.206-.188.15-1.997.066-3.488-.169-.956-.141-1.153-.141-1.5.056-.525.281-.684.281-.984-.009-.216-.197-.366-.206-1.087-.084-.45.084-1.247.141-1.772.094-2.25-.122-2.813-.113-3.262.141-.403.206-.506.225-1.406.009-1.453-.319-4.538-.525-5.513-.375-1.012.15-3.637.094-4.172-.094-1.041-.356-1.988-.6-2.194-.525-.131.028-.731-.028-1.303-.122-.591-.113-1.163-.169-1.313-.141-.141.037-.488-.028-.769-.15s-.619-.178-.722-.122c-.131.056-.337-.113-.572-.469-.206-.3-.506-.572-.713-.619-.216-.056-.422-.253-.553-.525-.15-.328-.281-.431-.591-.441-.347 0-.394-.038-.394-.487 0-.431.038-.488.338-.488.384 0 .441-.084.319-.572-.066-.291.009-.459.422-.9.506-.544 1.434-1.097 1.809-1.097.103 0 .422-.122.722-.281.431-.225.675-.262 1.425-.197.816.084.909.066 1.069-.206.131-.206.319-.291.656-.291.253 0 .806-.094 1.2-.206.9-.253 1.547-.262 2.344-.038.525.141.675.141 1.05-.056.337-.178.862-.225 2.409-.234 1.753 0 2.034-.038 2.428-.291.253-.15.591-.281.788-.281.169 0 .384-.066.478-.169.122-.122.244-.113.506.028.309.178.366.178.525-.056.141-.197.291-.234.656-.169.272.056.497.028.553-.056.037-.066.384-.141.759-.141.562 0 .75-.066 1.153-.431.422-.384.525-.412 1.153-.347 2.062.262 2.194.262 2.494-.056.169-.169.619-.375 1.041-.459.525-.113.778-.234.816-.403.056-.225.225-.253 1.312-.253h1.247l.319-.487c.309-.459.337-.469.403-.206.094.375.525.281 1.041-.225.188-.178.403-.328.497-.328.084 0 .225-.169.337-.356.094-.197.319-.431.506-.516.291-.15.319-.281.366-1.153.028-.844 0-1.041-.291-1.481-.187-.291-.384-.694-.422-.9-.056-.206-.272-.581-.487-.834-.384-.469-.422-.703-.281-1.941.066-.666.122-.759.591-1.041.431-.253.563-.431.731-1.013.253-.928.563-1.2 1.181-1.097.272.056.562.038.656-.009.094-.066.553-.141 1.003-.141.703-.028.956-.113 1.472-.459.347-.253.778-.469.937-.516.169-.056.309-.169.309-.262 0-.291.441-.6 1.031-.694.309-.038.628-.178.731-.291.169-.225.872-.262.984-.056.037.084.319.141.6.141.422 0 .581-.084.834-.431.469-.647 1.219-.938 2.147-.834.431.056.834.037.9-.028s.347-.122.628-.122c.309 0 .647-.112.844-.262.197-.169.534-.262.9-.262.309 0 .619-.056.656-.141.037-.066.319-.141.619-.141.9 0 1.519-.919 1.209-1.809-.084-.234-.113-.675-.066-.966.084-.487.037-.6-.403-1.097-.272-.3-.487-.638-.487-.75s-.113-.253-.272-.291c-.525-.169-.834-.647-.741-1.134.056-.347.028-.459-.112-.459-.112 0-.272-.094-.375-.225a.45.45 0 0 0-.403-.15c-.366.094-.563-.234-.675-1.106-.066-.516-.216-.891-.422-1.134-.422-.469-.844-1.162-.806-1.303.009-.056-.188-.291-.45-.525-.366-.347-.469-.525-.469-.956 0-.459-.037-.525-.366-.6-.562-.113-1.462-1.153-1.716-1.969-.122-.375-.347-.834-.497-1.013q-.282-.31-.253-.787c.028-.384-.056-.553-.497-.966-.431-.412-.525-.609-.581-1.153-.037-.412-.225-.928-.506-1.397-.244-.403-.45-.891-.478-1.05-.009-.178-.122-.459-.225-.619s-.169-.403-.131-.544c.037-.178-.112-.328-.534-.572-.581-.319-.591-.347-.534-.862.084-.609-.122-1.219-.675-1.95-.347-.459-.366-.572-.244-.956.084-.234.15-.441.15-.459 0-.028-.169-.113-.403-.206-.281-.122-.403-.262-.403-.497 0-.178-.084-.375-.188-.431-.225-.141-.731-1.566-.647-1.884.028-.141-.037-.403-.169-.581s-.216-.403-.216-.497c0-.084-.122-.3-.253-.488-.197-.253-.244-.469-.187-.834.122-.731-.337-2.691-.722-3.112-.225-.262-.366-.638-.45-1.247-.169-1.341-.319-1.941-.619-2.616-.187-.403-.319-1.097-.394-1.941-.047-.806-.216-1.659-.403-2.213a5.3 5.3 0 0 1-.319-1.894c0-.544-.047-1.022-.122-1.069-.066-.056-.384-.619-.703-1.284-.506-1.041-1.678-2.634-2.053-2.794-.066-.028-.375-.291-.684-.581s-.656-.544-.778-.544c-.112 0-.534-.319-.938-.694-.422-.384-1.134-.891-1.622-1.106-.469-.225-1.022-.572-1.209-.759s-.441-.347-.591-.347c-.281 0-1.266-.459-1.781-.844-.225-.169-.553-.234-.984-.225-.534.028-.684-.028-.928-.319s-.422-.347-1.031-.347c-.469 0-.862.084-1.069.234a3.3 3.3 0 0 1-.684.319c-.337.084-.347.122-.347 1.191-.009.778-.084 1.2-.244 1.453-.272.431-.291.834-.15 2.475l.094 1.247-.806.966c-.441.544-.806 1.041-.816 1.134 0 .234-1.406 1.284-1.716 1.284-.131 0-.384-.15-.563-.347s-.366-.347-.45-.347-.628-.253-1.219-.553-1.163-.553-1.303-.553a.6.6 0 0 1-.403-.197 4.5 4.5 0 0 0-.628-.441c-.253-.15-.563-.328-.703-.412s-.366-.375-.488-.619c-.169-.375-.347-.497-.759-.6-1.041-.234-1.631-.525-1.8-.862-.084-.178-.216-.328-.291-.328-.094 0-.291-.141-.45-.3a10 10 0 0 0-1.116-.928c-.591-.431-.834-.694-.834-.919 0-.234-.131-.356-.6-.544-.338-.141-.647-.319-.703-.431-.206-.328-2.137-1.828-2.512-1.922-.272-.066-.422-.234-.572-.638-.169-.459-.319-.581-.834-.778-.647-.253-1.144-.647-.984-.806.122-.141-.253-.356-.591-.356-.431 0-2.803-2.184-2.925-2.709-.056-.178-.159-.328-.244-.328-.197 0-2.728-2.691-3.122-3.319-.169-.263-.525-.694-.788-.956s-.553-.694-.628-.956c-.113-.384-.197-.459-.45-.384-.244.066-.384-.009-.591-.291-.703-.966-2.156-2.531-3.619-3.919-.497-.469-.806-.872-.806-1.069a.41.41 0 0 0-.281-.384c-.15-.037-.272-.141-.272-.206s-.187-.15-.422-.206c-.291-.066-.45-.206-.553-.488-.066-.225-.45-.647-.862-.966-.403-.3-.731-.666-.731-.778s-.188-.413-.422-.647a2.4 2.4 0 0 1-.553-.891c-.066-.263-.281-.572-.487-.694-.591-.375-1.237-1.05-1.237-1.284 0-.281-.553-1.078-1.238-1.809-.309-.319-.506-.666-.506-.863s-.131-.431-.338-.572c-.422-.291-.872-1.022-.872-1.444 0-.319.028-.319 1.022-.253.759.056 1.003.028.956-.094-.103-.291.15-.787.403-.787.141 0 .347.094.497.206s.441.169.872.112c.506-.056.675-.009.937.225.188.169.422.263.525.225.244-.094 1.688.834 2.119 1.359.225.281.581.487 1.003.591.741.197 1.547.778 1.678 1.191.066.234.169.281.6.206.281-.037.525-.028.525.028 0 .225 1.444 1.631 1.912 1.884.281.141.6.431.703.638.094.206.319.431.469.469.169.056.506.319.741.591.366.413.506.488.966.469.488-.028.619.056 1.359.778.45.441.816.919.816 1.041 0 .263.384.516.788.516.159 0 .422.15.572.347s.525.412.788.487c.281.084.684.3.9.488.225.197.506.347.647.347.525 0 1.275.3 1.622.647.647.609.9.731 1.8.834.788.084.909.141 1.547.759.591.572.759.666 1.238.666.572 0 2.053.722 2.681 1.284.244.234.45.281 1.275.262 1.059-.028 1.434-.113 1.434-.319 0-.066.159-.375.347-.675.281-.431.375-.787.422-1.547.094-1.331.563-2.241 1.378-2.7.319-.178.75-.319.956-.319s.403-.056.441-.141c.038-.066.216-.141.375-.141s.534-.122.834-.262c.675-.3 1.087-.197 1.959.572.347.291.759.525.928.525.563 0 1.406.319 1.744.647.188.197.581.487.872.647.337.178.553.412.581.609.028.169.141.319.272.319.122.009.291.028.366.056.084.009.225.037.337.037s.403.206.628.431c.422.384 1.125.666 1.359.516.056-.037.281.056.506.206.216.141.534.263.703.263.197 0 .534.234.909.619.591.637 1.041.9 1.537.9.15 0 .525.262.834.581.712.75 1.603 1.209 2.334 1.219.309 0 .591.056.628.122s.272.15.506.197c.244.037.703.141 1.031.206.563.122.591.122 1.116-.403l.534-.525-.028-1.631c-.028-2.841.319-7.209.647-8.072.066-.197.084-.516.028-.703-.094-.328-.028-.441.469-.919l.591-.544v-1.275c0-.703.038-1.509.084-1.8.187-1.247.394-2.119.487-2.184.066-.037.122-.206.122-.384s.094-.431.197-.581c.103-.141.197-.403.197-.572s.15-.459.319-.647c.244-.281.319-.572.394-1.313.037-.525.169-1.153.281-1.387.122-.225.216-.638.216-.919 0-.694.337-1.369 1.041-2.119.619-.647.675-.956.366-1.922-.084-.253-.009-.356.337-.581.553-.347 1.322-1.922 1.341-2.709 0-.487.403-1.744.713-2.241a.47.47 0 0 1 .347-.178c.169 0 .281-.141.319-.375.056-.234.244-.487.497-.619.403-.234.403-.263.319-.919-.056-.497-.028-.787.131-1.106.122-.234.216-.759.216-1.181 0-.778.159-.984.872-1.097.216-.037.281-.197.347-.806.15-1.388.347-1.866 1.041-2.522s.844-.891 1.162-1.603c.216-.497.703-.984.984-.994.122 0 .15-.141.094-.459-.066-.328-.028-.516.122-.638.253-.225.281-.787.056-.9-.094-.037.009-.056.225-.009.619.094 1.397-.666 1.453-1.444.028-.469.141-.675.675-1.228.347-.356.628-.722.628-.778 0-.375.6-1.284.984-1.472.338-.169.487-.375.703-.984.15-.431.469-1.013.722-1.303.431-.516.45-.572.366-1.341-.037-.459-.141-.928-.197-1.069-.084-.15-.084-.591.009-1.209l.131-.956-.628-1.069-.647-1.069-.009-1.387c-.009-1.163-.056-1.416-.281-1.678-.216-.253-.272-.525-.291-1.481-.028-1.069-.066-1.191-.375-1.453-.188-.141-.338-.356-.338-.487 0-.112-.169-.431-.403-.694-.216-.253-.403-.544-.403-.638s-.131-.516-.309-.928l-.291-.759-.572.037c-.497.037-.591.094-.75.516-.197.487-.563.759-.975.759-.15 0-.403.141-.563.291-.169.169-.45.3-.6.319-.197.009-.291.112-.319.412-.056.516-.675 1.209-1.575 1.763-.403.253-.75.572-.778.703-.084.319-.291.319-.6 0-.187-.178-.506-.253-1.519-.281-.787-.028-1.322.009-1.378.112-.037.066-.188.141-.309.141-.272 0-.956-.675-.956-.937 0-.094-.094-.291-.216-.403a.54.54 0 0 1-.122-.516c.159-.572.131-.675-.272-.919-.225-.122-.403-.347-.403-.497s-.056-.403-.122-.581c-.066-.234-.037-.403.112-.572.225-.253.197-.516-.169-2.025-.112-.431-.094-.638.084-1.013.169-.356.169-.525.056-.806-.188-.431-.188-1.2-.009-1.856.084-.291.084-.778.009-1.219s-.056-.994.028-1.387c.112-.544.084-.787-.244-1.791-.347-1.05-.366-1.247-.253-2.053s.112-.938-.169-1.481c-.319-.609-.403-1.219-.169-1.219.197 0 .159-.384-.084-.778-.188-.281-.197-.572-.131-1.837.094-1.369.084-1.519-.15-1.688-.272-.206-.6-1.566-.422-1.744.122-.141.337-4.669.403-8.484.028-1.416.394-4.819.581-5.4.384-1.247.619-2.587.619-3.609 0-.572.094-1.359.197-1.734.131-.487.188-1.341.169-3.028-.009-3.797.028-4.669.244-4.969.112-.169.187-.609.187-1.069 0-.778.244-1.228.647-1.228.094 0 .169-.113.169-.253 0-.319.253-.581.553-.581a.58.58 0 0 0 .403-.225c.244-.3 1.322-.178 1.528.15.066.141.272.431.422.675.178.234.591 1.022.928 1.744.347.722.656 1.369.703 1.444.028.056-.066.066-.225.009-.225-.066-.272-.038-.188.169.056.141.197.403.337.591.216.3.225.459.122 1.05-.131.694-.084 1.228.131 1.519.122.15.056 1.95-.084 2.409-.037.141-.028.291.037.328.084.038.066.328-.009.703-.122.553-.112.666.141.938.169.178.272.469.272.75-.009.253.066.544.141.647.169.197.291 2.034.291 3.6-.009.319.094.666.253.872.197.262.272.572.272 1.172 0 .9.159 1.359.478 1.359.169 0 .197.141.169.666-.037.459.028.759.197 1.041.197.3.244.544.169 1.162-.094.872.131 1.453.891 2.381.309.375.375.553.309.9-.038.234-.112.816-.131 1.275-.066.787-.037.862.272.994.169.094.319.234.338.328s.028.459.056.806c.038.872.366 1.866.703 2.259.197.206.291.497.291.834 0 .375.066.553.244.609.366.15.441.347.347 1.134-.112.872-.009.984.928.984.506 0 .778-.094 1.275-.441a6.6 6.6 0 0 0 .909-.75c.197-.206.394-.281.619-.234.197.037.497-.028.703-.169.272-.197.478-.225.928-.141.309.056.9.141 1.294.178.712.094.741.112.787.544.037.487.319.722 1.013.862.309.066.431.206.572.619.084.291.253.609.366.694s.216.356.244.619c.028.291.131.525.309.619.15.084.291.169.337.197s-.037.122-.169.225c-.272.206-.478 1.191-.253 1.191.084 0 .216.15.281.347.131.347.45.459.6.206.169-.281.337.028.337.609 0 .375.084.666.197.778.113.094.197.403.197.703s.112.778.272 1.05c.141.291.272.759.272 1.05 0 .328.066.553.197.6.225.094.253.609.066 1.284-.112.403-.094.525.113.731.337.3.487 1.472.366 2.878-.084 1.097-.009 1.575.197 1.444.253-.169.647.553.656 1.209 0 .553.084.731.563 1.303l.563.647.844-.056c.591-.037.956-.141 1.237-.356.225-.169.525-.3.656-.3.197 0 1.594-1.284 1.875-1.744.112-.206 1.622-1.022 1.856-1.022.112 0 .366-.094.572-.206.281-.15.403-.319.422-.647.028-.375.113-.469.375-.497 1.35-.141 1.491-.178 1.322-.384-.244-.3.066-.581.759-.694.422-.056.675-.197.806-.412.291-.459 1.575-1.444 1.875-1.444.15 0 .403-.112.572-.234.197-.122.628-.281.994-.328.422-.066.741-.206.862-.403.113-.15.272-.281.375-.281s.272-.084.366-.197c.113-.112.534-.384.938-.619.422-.253.834-.544.909-.638.094-.112.384-.206.675-.206.319 0 .572-.094.741-.281.131-.15.422-.281.647-.281.253 0 .506-.141.75-.403.272-.3.525-.413 1.088-.497.534-.066.806-.178 1.003-.431a1.4 1.4 0 0 1 .703-.384c.244-.028.619-.206.844-.412s.553-.356.703-.356.525-.15.787-.347c.272-.197.647-.347.834-.347.497 0 1.022-.253 1.022-.469 0-.122.225-.281.553-.384.478-.141.619-.141.956.066.487.281.647.291.647.056 0-.094.122-.319.281-.497.253-.291.347-.3 1.322-.206.844.066 1.191.038 1.734-.169.375-.141.684-.3.684-.356s.169-.112.347-.112c.188 0 .45-.066.6-.15.197-.112.337-.084.6.141.337.281.337.281.6 0 .15-.15.225-.328.188-.384s.037-.094.178-.056c.141.028.506-.122.862-.356.338-.234.713-.431.816-.431s.244-.056.281-.122c.037-.056.272-.15.506-.206.225-.037.525-.178.647-.291.131-.122.534-.206 1.069-.225.553-.009 1.322-.178 2.081-.431 1.125-.384 1.256-.403 1.912-.253.366.094.834.141 1.003.084s1.125-.122 2.119-.169c2.241-.084 2.241-.084 2.888-.675.291-.263.731-.553.938-.619.281-.094.506-.356.759-.816.253-.497.553-.787 1.022-1.069.75-.431.966-.862.966-1.95 0-.816.75-2.634 1.191-2.906.337-.225.816-1.163.816-1.603 0-.178.197-.516.469-.787.384-.384.45-.553.441-1.041 0-.3.037-.759.094-1.012.113-.6-.009-.966-.375-1.022-.225-.028-.309-.15-.337-.487-.037-.469-.291-.647-.291-.206 0 .141-.037.291-.084.328-.131.15-.591-.066-.591-.291-.009-.459-.647-.984-1.181-.984-.141 0-.403.112-.572.262-.422.319-2.213.516-2.709.281-.291-.141-.422-.122-.722.094-.591.403-1.266.084-1.153-.553.056-.234-.113-.6-.488-1.172-.309-.459-.553-.891-.553-.956s-.113-.234-.272-.375c-.197-.197-.272-.431-.272-.966 0-.787.253-1.172.778-1.172.178 0 .309-.112.366-.3s.197-.441.338-.6c.122-.15.272-.441.319-.647s.375-.638.75-.956c.384-.319.675-.666.675-.778 0-.459.816-1.828 1.256-2.1.244-.169.497-.459.534-.638.047-.234.169-.347.366-.347.281 0 1.172-.497 1.341-.75.056-.084.066-.375.028-.666-.066-.413-.028-.544.225-.759.338-.281 1.172-1.125 1.425-1.472.113-.15.309-.197.713-.141.75.113 1.209-.15 1.209-.675 0-.75.366-1.2 1.247-1.622.863-.403.966-.553 1.266-1.791.094-.384-.188-1.106-.506-1.284-.253-.141-.347-.75-.15-1.041.225-.356.656-.469 1.059-.262.506.281.581.262.581-.141 0-.197.113-.459.244-.591.169-.178.225-.403.187-.834-.056-.572-.037-.591.45-.806.891-.356 1.125-.516 1.125-.703 0-.403.422-1.013.666-1.013.169 0 .844-.581 1.678-1.425 2.016-2.034 2.194-2.184 2.587-2.297a.58.58 0 0 0 .422-.441c.038-.197.281-.441.562-.609.319-.178.506-.384.563-.637.038-.225.188-.413.347-.469s.272-.206.272-.413c0-.581.422-.938 1.116-.938.525.009.684-.056 1.087-.459.272-.263.488-.572.488-.666 0-.112.188-.262.403-.356.225-.094.403-.281.403-.413 0-.122.291-.497.675-.816.366-.319.731-.731.834-.938s.338-.413.525-.469c.525-.141 1.575-.984 1.622-1.303.028-.225.169-.291.647-.347.534-.056.6-.112.647-.459.047-.431.553-.844.872-.722.103.056.272.253.347.459.197.488 1.209 1.659 1.612 1.866.534.281.422 1.622-.112 1.622-.066 0-.216.169-.319.375-.113.225-.403.516-.675.647-.553.3-.525.234-.534 1.537l-.009.966-.75.403c-.675.356-.787.469-.872.956-.066.3-.216.6-.319.647s-.553.281-.966.487c-.684.328-.788.441-.928.928-.084.3-.094.806-.056 1.097.084.441.028.609-.253.994-.216.291-.525.516-.769.572-.216.038-.422.15-.441.253s-.122.488-.197.863c-.084.375-.309.863-.478 1.078-.188.225-.338.488-.338.591s-.084.253-.188.328c-.112.094-.225.384-.281.647-.038.262-.169.525-.281.572-.094.037-.188.15-.188.253s-.113.291-.225.431a2.8 2.8 0 0 0-.375.516c-.066.15-.309.347-.534.413-.525.178-.6.319-.45.834.112.459.131.441-.469 1.369-.441.694-.591.778-1.022.497-.45-.3-.563.028-.244.703s.309.722-.478 1.744c-.216.281-.431.731-.469 1.013-.084.488-.112.516-.525.469-.525-.056-.684.234-.45.844.131.375.113.497-.169 1.012-.394.675-.431 1.341-.113 1.969.113.253.169.553.113.703a.57.57 0 0 0 .131.488c.113.112.309.441.422.722l.197.497 1.059-.094c.844-.084 1.191-.056 1.706.15.909.328 1.519.956 1.519 1.538 0 .291.066.459.178.459s.319.15.497.347c.244.262.338.525.347 1.078.009.403.066.984.112 1.303.094.544.084.6-.159.6-.169 0-.403.206-.619.544-.253.403-.422.525-.6.469-.141-.037-.403.066-.628.262-.347.319-.366.347-.159.75.159.319.169.469.038.75-.338.778-.703 1.256-.984 1.331-.422.112-.422.609 0 .609.619 0 .844.619.347.937-.244.169-.319.15-.581-.094-.159-.169-.338-.291-.366-.291-.056 0-.122.412-.178.937-.197 2.297-.197 2.353-.478 2.419-.169.037-.253.197-.253.431 0 .281-.066.356-.291.356a.96.96 0 0 0-.45.112c-.197.141-.591.994-.591 1.313 0 .15-.113.469-.244.703s-.338.703-.422 1.05c-.094.347-.291.75-.431.919-.131.15-.244.497-.244.778 0 .375-.113.609-.478.994-.525.572-.534.787-.066 1.744.319.666 1.322 1.303 1.772 1.134.169-.066.806-.112 1.397-.084a32 32 0 0 0 1.65.056c.469-.009.591.037.684.319.169.459.45.647.966.647 2.034.009 2.316.056 2.475.384.253.544.375.609.787.441.291-.112.422-.094.6.066.122.112.338.206.487.206s.394.094.534.206c.131.112.506.206.806.206.291 0 .656.094.806.206.131.112.478.206.75.206s.656.066.872.15c.197.084.6.15.891.15.291-.009.666.056.872.122s.966.141 1.716.141c1.153.009 1.453.056 1.716.281.253.206.45.253.956.169.6-.084.656-.056 1.059.403.553.638 1.659 1.125 2.306.994.422-.084.525-.037.787.3.253.328.403.384.994.403.628.009.75.066 1.162.525.525.572.525.572 1.116.356.347-.122.534-.112 1.134.15.45.197.759.412.872.638.084.178.244.375.347.412.113.056.197.169.197.253s.188.178.45.197c.628.028 1.425.403 1.969.919.6.581 1.219.834 1.8.731.366-.056.534 0 .816.263.188.178.45.328.581.328.319 0 1.097.516 1.097.722 0 .094.131.197.309.206.675.056 1.575.281 1.753.459.113.094.216.281.216.412 0 .178.084.234.253.178.159-.037.478.15.938.572.375.347.787.638.9.638s.403.084.628.197c.244.112.581.225.759.253.244.028.403.197.581.572.113.281.281.516.347.516s.309.169.534.356c.225.197.703.431 1.05.516.534.141.656.225.684.516.028.197.113.431.197.544.225.281 1.162.703 1.575.703.347 0 1.191.703 1.463 1.219.084.169.244.3.347.3s.534.356.956.816c.909 1.013 1.997 1.491 2.831 1.275.281-.066.863-.169 1.275-.225.431-.038.806-.15.862-.225.038-.066.384-.122.759-.122 1.781 0 2.494-.084 2.728-.319.141-.122.591-.413 1.012-.637.684-.375.862-.413 1.538-.347.872.094 1.772-.225 2.241-.759.15-.15.366-.291.506-.291.188 0 .244-.113.244-.544 0-.291-.094-.722-.197-.928-.113-.225-.197-.497-.197-.619s-.581-.806-1.275-1.519c-.703-.722-1.275-1.397-1.275-1.519s-.094-.3-.216-.412c-.534-.459-1.191-2.325-1.322-3.825l-.094-.994.525.028c.553.009 1.219-.384 1.575-.966.113-.178.338-.319.487-.319s.497-.122.759-.263c1.209-.666 1.453-.722 1.856-.497.497.263 1.181.263 1.397 0 .094-.112.319-.206.525-.206s.497-.094.656-.225c.338-.234 2.475-.3 3.769-.122.806.112 2.138-.122 3.094-.553.656-.291 2.747-.637 3.881-.637.197 0 .591-.094.909-.206.338-.112 1.134-.197 2.016-.197.787-.009 1.556-.009 1.706-.009s1.5.028 3.019.066c3.45.084 4.959.253 5.175.553.131.206.169.197.225-.056s.131-.291.731-.197c.347.056.778.15.956.206s1.191.122 2.269.122c1.838 0 2.653.112 3.347.441.169.094.675.112 1.266.056.928-.094.984-.084 1.341.281s.403.375 1.556.281c1.041-.084 1.238-.056 1.556.178.216.141.497.225.628.197.131-.037.563.028.966.141.525.169 1.209.206 2.616.178 1.716-.037 1.941-.028 2.194.225.15.141.272.347.272.459 0 .141.15.206.45.206.563 0 1.462.544 1.678 1.013.159.328.141.412-.084.722-.309.403-.253.984.094 1.078.131.028.281.253.319.469s.197.469.366.544c.253.122.272.141.056.459s-.281.319-1.284.234c-.863-.066-1.153-.038-1.622.169-.478.225-.834.253-2.372.206a65 65 0 0 1-3.019-.169c-.656-.066-1.294-.066-1.425 0s-.337.084-.478.037c-.281-.084-.712.253-.712.544 0 .234-.469.516-.656.384-.094-.066-.394 0-.656.141-.6.319-1.003.328-1.453.037-.319-.225-.366-.225-.722.066-.281.206-.591.291-1.059.291-.366 0-.75.084-.844.178-.45.469-1.397.787-2.316.778-3.244-.028-3.778.037-3.919.553-.084.347-.9.703-1.659.722-.891.009-2.709.263-2.981.413-.131.066-.534.122-.9.122-.703 0-1.734.403-2.034.778-.319.403-1.041.637-1.641.544-1.256-.197-2.391.9-2.109 2.034.347 1.331.628 2.156.9 2.55.197.291.253.487.159.619-.066.094-.113.572-.113 1.013 0 .666-.056.891-.291 1.153-.281.319-.291.328-.066.984.122.356.225.722.225.816 0 .347-.422.591-.984.581-.384-.009-.75.094-1.162.347-.441.263-.703.328-1.041.281s-.534 0-.928.281c-.403.281-.619.328-1.003.281-.281-.056-.647-.009-.872.113-.403.178-1.828.225-2.213.056-.15-.066-.253.028-.403.347-.272.619-.806 1.013-1.359.956-1.575-.122-3.272.178-3.797.694-.169.169-.525.347-.788.431-.272.066-.487.197-.487.263 0 .084-.169.141-.366.141-.581 0-1.688.872-1.734 1.359-.028.206-.066.609-.113.9-.084.469-.028.609.525 1.331.338.441.647 1.013.703 1.256s.188.544.291.675c.422.487.834 1.275.928 1.744.037.263.169.487.272.487.216 0 .45.431.45.806 0 .15.244.609.534 1.013s.534.816.534.919.272.487.6.872c.338.384.6.787.6.9s.197.441.45.722c.647.759.787 1.106.703 1.716-.084.516-.066.544.394.731.45.206.469.234.394.759s-.056.581.338.806c.225.141.422.347.422.469s.216.722.487 1.313c.422.956.45 1.125.309 1.416-.15.263-.15.347.009.459.103.066.319.094.45.066.619-.15 1.041.647.722 1.369-.112.281-.094.403.113.703.384.572.844 1.481.844 1.734.009.122.141.328.281.469.534.497.994 1.509 1.097 2.419.056.497.15 1.219.188 1.603.066.581.15.75.422.872.169.084.309.234.291.319-.056.431.038.675.478 1.275.347.487.469.778.469 1.181 0 .3-.056.591-.131.638-.216.141-.169.319.112.412.15.038.309.263.366.516.038.253.188.638.319.891.169.291.272.891.338 1.866.056.787.169 1.744.281 2.119s.187 1.162.187 1.744c0 .956.038 1.134.403 1.678.422.637.487 1.134.272 1.922-.15.516-.009.834.628 1.537.169.206.319.459.309.553-.066.469.009.834.244 1.05.131.141.375.469.534.75.347.591.994 1.134 1.8 1.491.319.141.713.459.891.694.253.356.394.431.834.431.366 0 .534.056.534.178 0 .253 1.556 1.763 1.8 1.763.094 0 .253.094.347.206s.394.206.656.206c.422 0 .525.056.628.375.113.3.244.384.928.544.45.084 1.219.347 1.706.581.759.356.891.459.816.703-.066.281-.028.291.928.291.984 0 .994 0 1.519-.553l.534-.572.037-3.291c.038-2.738.009-3.394-.169-3.825-.253-.637-.113-.956.525-1.247.253-.094.469-.253.469-.319s.253-.3.553-.516c.506-.347.6-.356 1.041-.225.422.141.966.197 2.672.281.187.009.291.094.291.263 0 .356.506 1.134.731 1.134.103 0 .197.084.197.197 0 .234.75.919 1.003.919.113 0 .253.122.337.281a.55.55 0 0 0 .488.281c.225 0 .366.094.422.263.038.15.225.3.422.356s.778.291 1.275.525c.722.356.9.497.844.703-.038.178.038.291.319.403.375.15.806.731.806 1.097 0 .319.741.956 1.153 1.013.272.028.591.281 1.059.816.375.431.731.778.816.778s.281.15.45.347c.225.253.45.347.834.347.534 0 .553.028.506.787-.009.375.038.487.309.581.188.084.375.206.422.281.038.084.319.15.619.15.403 0 .591.084.834.375l.525.609c.122.14.319.403.45.6a1.2 1.2 0 0 0 .6.431c.225.056.563.319.806.609.244.319.553.572.788.609.244.056.422.197.478.375.094.319 1.322 1.388 1.613 1.388.094 0 .431.384.75.862.319.459.816 1.078 1.097 1.369s.497.619.497.731c0 .281.938 1.275 1.322 1.397.272.084.309.169.272.497-.047.328.066.553.656 1.256.403.469.75.994.788 1.172.094.356.553.553.759.328.244-.253.45-.178.6.197.094.206.272.347.422.347.45 0 .806.487.806 1.097s.15.778.703.731c.197-.009.375.038.375.122s.272.431.6.778c.337.328.6.694.6.778.009.225.9 1.2 1.097 1.2.094 0 .534.403 1.003.9.712.759.844.984.844 1.387 0 .375.113.609.534 1.041.291.3.591.553.647.553.141 0 .525.862.6 1.313.028.15-.037.459-.131.666-.113.225-.169.488-.113.6s-.094.469-.291.787a3.5 3.5 0 0 0-.422 1.2c-.084.731-.366.872-.788.403-.45-.487-.984-.816-1.369-.816-.272 0-.403-.094-.525-.403a2.1 2.1 0 0 0-.488-.722c-.169-.169-.319-.384-.319-.487s-.113-.206-.253-.262c-.15-.038-.375-.281-.525-.525-.169-.319-.403-.488-.778-.581-.337-.094-.581-.262-.684-.469-.084-.197-.497-.581-.928-.872s-1.003-.787-1.284-1.097c-.366-.384-.6-.525-.769-.469s-.441-.094-.816-.412c-.309-.262-.619-.488-.703-.488-.281 0-1.181-.862-1.181-1.125 0-.15-.337-.609-.741-1.022s-.731-.816-.731-.872-.216-.197-.45-.281c-.253-.094-.497-.291-.534-.412-.113-.384-1.556-1.828-1.828-1.828-.131 0-.272-.122-.309-.281s-.225-.291-.45-.347a9 9 0 0 1-.806-.206c-.581-.197-.956-.169-1.322.066-.244.169-.591.206-1.369.178-.956-.038-1.059-.066-1.059-.319 0-.206.084-.262.309-.234.422.066.384-.384-.113-.872-.366-.356-.478-.403-1.462-.403-1.116-.009-1.303-.113-1.969-.9-.216-.262-.394-.319-.928-.319-.581.009-.703-.028-1.134-.516l-.506-.544-1.209.028c-1.425.037-1.716.197-2.25 1.125-.291.544-.347.731-.272 1.303.066.516.037.703-.122.844-.131.113-.197.412-.197.862 0 .75-.244.994-.647.619-.244-.225-.703-.094-.703.197 0 .319-.628.984-1.153 1.228-1.116.497-1.275.488-2.166-.206-.45-.347-.938-.619-1.097-.619s-.506-.094-.759-.206c-.253-.113-.506-.197-.563-.178-.169.056-.703-.178-.703-.319 0-.066-.197-.206-.441-.3-.506-.225-1.162-1.05-1.162-1.472 0-.169-.084-.291-.188-.291-.366 0-.619.169-.619.412 0 .225-.038.234-.338.094-.188-.094-.338-.225-.338-.281s-.244-.356-.534-.666c-.45-.459-.619-.544-1.088-.544-.422 0-.656-.094-1.022-.412-.244-.225-.581-.412-.722-.412-.309 0-.966-.328-1.453-.703-.169-.15-.703-.384-1.181-.544-.488-.15-1.041-.403-1.266-.572s-.647-.319-.928-.356c-.291-.037-.497-.141-.45-.206.131-.225-.366-.666-.75-.666-.281 0-.403.094-.534.403a.97.97 0 0 1-.553.553c-.6.206-1.322.872-1.322 1.2 0 .206.084.291.244.281.309-.028.384.816.103 1.153-.384.441-.619 1.547-.619 3.047 0 1.313-.038 1.509-.422 2.353-.309.666-.403 1.022-.347 1.369.038.253-.028.919-.169 1.481-.197.806-.225 1.125-.112 1.453.187.544.066.872-.272.759-.141-.038-.309 0-.375.094-.272.347-.469 1.622-.375 2.344.084.6.056.75-.188 1.012-.197.225-.291.544-.338 1.162-.047.731-.113.919-.441 1.191l-.375.347.253.469c.281.553.197.787-.272.787-.244 0-.319.066-.319.319 0 .375-.225.647-.553.647-.309 0-.441.469-.253.834.113.197.113.647.066 1.303-.094.984-.113 1.022-.553 1.228-.366.197-.487.356-.656.994-.113.412-.319.834-.45.928s-.281.431-.338.731c-.197 1.069-.319 1.659-.506 2.353-.169.666-.197.694-.628.666l-.45-.009.094.787c.066.553.028.966-.131 1.444-.122.356-.169.787-.141.928.066.206 0 .3-.225.403-.441.178-1.003.844-1.125 1.331-.056.234-.291.666-.553.984-.244.3-.488.759-.525.984-.056.253-.216.497-.403.609-.244.122-.319.291-.319.619 0 .262-.113.609-.309.844-.178.206-.506.788-.75 1.284s-.581 1.191-.769 1.538c-.169.356-.347.891-.384 1.172-.038.412-.188.647-.6 1.022-.291.262-.684.806-.872 1.172-.394.816-1.191 1.734-1.528 1.734s-.553.281-.553.722c0 .206-.169.609-.347.9s-.375.703-.422.919a.78.78 0 0 1-.431.553c-.497.234-.506.281-.441 1.416.056 1.012.056 1.022-.375 1.425l-.431.412.084 1.219c.131 1.828.131 1.828-.113 2.081-.487.497.169 2.55.684 2.119.084-.084.281-.122.422-.094.216.037.216.066-.037.319-.45.441-.469.863-.113 1.922.272.787.291 1.05.188 1.397-.113.328-.084.525.112.938s.225.619.113 1.097c-.103.525-.084.619.309 1.191.403.581.422.647.366 1.65l-.066 1.05.553.6c.506.544.619.6 1.153.581.338-.009.75.009.938.066.281.094.431.009.909-.459.319-.3.703-.553.844-.553s.45-.3.759-.722c.75-1.041 1.603-1.913 1.866-1.913.131 0 .497-.122.816-.281.469-.225.563-.328.563-.666 0-.816.872-1.172 1.716-.731.469.253.534.328.525.731-.028.469.253.703 1.022.872.272.056.431.225.563.544.131.3.338.516.6.609.647.234 1.041 1.622.619 2.269-.197.3-.187.375.056.844.15.281.272.6.272.703s.122.253.272.291c.244.084.272.206.272 1.284 0 1.303-.169 2.287-.394 2.353-.084.028-.141.234-.141.459 0 .3.066.403.253.403.169 0 .309.15.403.431.187.572.187 2.231 0 2.906-.113.384-.113.787 0 1.566.15 1.022.112 1.444-.244 2.709-.084.347.366 1.538.656 1.734.188.112.169 1.537-.028 1.856-.122.197-.112.319.066.581.15.225.225.609.225 1.172 0 .459.038.891.113.938.159.169.225 2.325.169 5.728-.009 1.162-.037 1.303-.272 1.369-.141.037-.384.347-.534.666-.253.553-.253.647-.084 1.078.131.328.188 1.069.188 2.606 0 1.172.037 2.522.094 2.991.047.544.038.928-.037 1.041-.094.122-.113.497-.009 1.106.094.75.084 1.012-.084 1.331-.131.281-.216 1.05-.272 2.55-.028 1.191-.131 2.325-.216 2.522-.066.206-.131.572-.131.806s-.169.75-.375 1.134c-.216.384-.422.966-.478 1.303-.225 1.575-1.556 3.019-1.556 1.706 0-.206-.113-.488-.244-.609-.225-.225-.272-.225-.525.028-.15.15-.309.488-.366.75-.113.581-.366.834-.787.759-.225-.028-.319-.15-.347-.413-.038-.3 0-.375.169-.3.131.056.253-.038.366-.262.197-.441.084-.788-.272-.788-.309 0-.403-.253-.384-1.069 0-.328-.094-.75-.225-.956-.187-.291-.197-.431-.084-.703.478-1.106-.272-4.387-1.134-4.988-.422-.281-.488-.544-.272-.984.112-.262.169-.731.112-1.547-.169-3.309-.141-4.434.084-4.566.197-.122.197-.122 0-.141-.244 0-.394-.281-.394-.703 0-.141-.113-.384-.272-.544s-.272-.459-.272-.703c0-.253-.113-.637-.253-.872-.281-.487-.684-1.978-.684-2.578 0-.225-.066-.441-.15-.497-.113-.066-.131-.459-.084-1.247.066-.9.038-1.172-.113-1.303-.094-.094-.197-.375-.197-.638 0-.3-.084-.525-.281-.666-.45-.319-.675-.872-.581-1.481.084-.459.038-.581-.319-.956-.394-.384-.422-.487-.375-1.303.028-.469.084-.938.141-1.022.037-.066-.066-.328-.253-.553s-.338-.487-.338-.553c0-.084-.169-.253-.384-.384-.197-.122-.488-.413-.6-.619-.131-.225-.291-.403-.394-.403-.084 0-.338-.197-.581-.431l-.431-.431-.684.328c-.581.262-.703.403-.816.834-.113.441-.197.516-.778.647-.431.112-.787.112-1.088.009-.253-.066-.591-.094-.759-.056s-.338.009-.375-.066c-.056-.094-.216-.084-.497.009-.309.113-.45.094-.628-.066-.122-.113-.291-.178-.375-.141-.188.066-.366-.15-.844-1.078-.366-.731-.366-.759-.197-1.481.159-.637.159-.787-.009-1.134-.112-.225-.216-.638-.244-.928s-.197-.778-.384-1.078-.375-.694-.431-.862c-.056-.178-.15-.319-.216-.319-.272 0-.422-.553-.281-1.012.197-.609-.112-1.575-.656-2.147-.272-.291-.394-.525-.347-.675s.028-.759-.038-1.397c-.084-.862-.187-1.228-.394-1.453-.141-.169-.384-.638-.534-1.041l-.281-.731.281-.112c.253-.094.253-.113-.094-.347-.197-.141-.422-.206-.525-.178-.131.056-.141-.197-.103-1.05.084-1.331-.15-1.894-.9-2.259a3.4 3.4 0 0 1-.778-.497c-.197-.206-.525-.291-1.069-.319-.422-.028-.834-.056-.909-.084-.066-.028-.441.113-.816.291-.497.234-.722.441-.844.75-.253.703-.872 1.331-1.575 1.575-.45.169-.75.403-.966.722-.169.262-.45.572-.647.666s-.291.234-.253.319c.131.225-.066.666-.338.75-.15.056-.469.009-.722-.084-.6-.225-.984.028-1.434.928-.45.872-.891 1.153-1.491.919-.441-.169-.45-.169-1.116.572-.375.412-.806.787-.966.844-.141.056-.347.281-.441.487-.169.441-.506.6-1.069.469-.478-.094-1.153.281-1.406.787-.122.253-.347.441-.581.497-.197.038-.534.141-.75.206s-.525.122-.684.122c-.169 0-.441.113-.619.262s-.506.3-.75.347a1.6 1.6 0 0 0-.741.441c-.225.253-.45.328-.872.328-.45 0-.553.038-.497.206.113.291-.188.619-.562.619-.197 0-.441.178-.675.487-.281.384-.45.488-.806.488-.244 0-.478.066-.525.141-.038.084-.281.141-.534.141-.366 0-.525.094-.806.469-.469.638-.675.694-1.341.356-.722-.356-1.059-.347-1.322.066-.291.459-.938.609-2.222.525l-1.069-.066.084.412c.084.403.066.403-.703.525-.431.056-1.491.113-2.344.122-1.547 0-1.575.009-1.913.384-.188.206-.431.375-.525.375s-.281.122-.422.281a.97.97 0 0 1-.628.281c-.281 0-.422.084-.469.262-.084.328-.787.609-1.097.441-.291-.169-2.344.066-2.831.328-.216.112-.722.206-1.125.206-1.313 0-2.766.356-3.216.816-.225.206-.619.459-.862.544s-.591.281-.778.431-.619.319-.956.375c-.525.084-.628.15-.787.572-.103.262-.281.497-.384.553-.113.038-.197.141-.197.234s-.169.319-.403.525c-.338.3-.394.431-.319.787s.009.516-.384.966a2.9 2.9 0 0 0-.647 1.313c-.141.619-.253.844-.675 1.191-.347.291-.525.544-.525.778 0 .384-.497.891-1.116 1.097-.291.094-.469.262-.562.553a3.4 3.4 0 0 1-.366.759c-.253.347-.347 1.941-.131 1.941.225 0 1.378 1.013 1.837 1.631.338.441.45.731.422.938-.131.544.169.609 1.162.262.956-.328 1.809-.328 2.278 0 .253.178.722.113 1.472-.197q1.027-.422 1.294.253c.15.375.309.544 1.406 1.453.347.291.384.403.347.966-.028.413.038.778.169.984.15.225.169.431.094.722-.216.75-.562 1.303-.928 1.453-.347.15-.347.169-.056.206.45.094.403.675-.113.938-.216.122-.403.291-.403.375 0 .262-.422.647-.619.572-.122-.038-.169 0-.122.122s-.141.459-.469.816c-.291.328-.534.675-.534.778 0 .178-.525 1.303-.675 1.425-.197.169-.534.844-.534 1.022 0 .262-.75.844-1.247.966a.69.69 0 0 0-.506.469c-.084.206-.45.722-.844 1.134s-.844.966-1.003 1.2c-.169.253-.45.497-.656.544-.9.206-.863.15-1.575 1.706-.187.403-.675 1.069-1.069 1.472-.703.694-.731.759-.731 1.444 0 .403-.056.834-.141.966-.066.141-.478.384-.909.553-.553.206-.844.413-.956.647-.084.178-.253.328-.403.328s-.366.178-.497.403-.366.487-.553.581-.441.375-.591.619c-.272.469-.816.984-1.659 1.575-.253.197-.6.581-.75.872-.188.356-.553.722-1.144 1.097-.469.3-.863.637-.863.731 0 .113-.113.225-.253.281-.394.122-2.034 1.884-2.25 2.391-.094.253-.366.759-.591 1.134-.347.581-.487.694-.825.694-.572 0-1.237.703-1.125 1.2.084.281.056.328-.094.281-.225-.084-.759.6-.759.966 0 .525-.309.703-1.659.966-.216.037-.759.347-1.237.675s-.9.609-.938.609c-.056 0-.225.15-.403.347-.253.281-.45.347-.966.347s-.703.056-.862.291c-.15.234-.366.3-1.144.356-.787.066-1.022.141-1.266.403-.309.347-.347.356-.628.234zm2.794-1.443c.084-.15.131-.413.113-.581-.037-.291-.066-.291-.487.141-.244.253-.422.516-.366.6.15.234.591.15.741-.15zm24.609-72.403c.675-.066 1.434-.197 1.706-.291.403-.122.75-.113 1.678.066 2.241.412 2.644.412 3.628-.066 1.134-.553 1.659-.675 3.375-.75 1.181-.038 1.528-.113 2.119-.431.403-.206.759-.497.834-.666.141-.375.9-.759 1.519-.759.253 0 .6-.122.806-.281.45-.356.656-.347 1.134.066.225.197.45.347.534.347.066 0 .403-.253.731-.553s.656-.553.731-.553c.066 0 .281-.197.469-.431.338-.384.422-.412.966-.328.534.084.628.056.909-.281.441-.544 1.294-.956 1.875-.919.281.009.703-.094 1.003-.262.281-.15.581-.281.656-.281s.253-.122.384-.281c.141-.15.319-.281.403-.281.141 0 1.997-.891 2.747-1.313.188-.113.619-.234.966-.281.534-.066.647-.141.759-.497.066-.225.244-.441.375-.497s.347-.234.469-.403c.225-.291.675-.516 1.341-.666.253-.056.347-.15.291-.291s-.028-.178.113-.141c.094.037.497-.225.9-.609s.891-.731 1.088-.778c.469-.113 1.303-.816 1.575-1.359.253-.544.403-.647.872-.647.403 0 .6-.206.366-.356-.113-.066-.103-.141.038-.253.112-.084.272-.291.366-.459s.366-.375.703-.459c.291-.084.628-.262.731-.384.553-.637.994-1.341.994-1.575s.066-.262.422-.178c.338.084.478.028.787-.281.216-.206.45-.347.563-.3.244.084.647-.15.647-.375 0-.113.094-.225.197-.281.113-.038.272-.234.338-.431s.338-.488.6-.638c.291-.178.563-.516.731-.891.131-.328.375-.637.506-.675.141-.056.469-.375.703-.722.244-.347.75-.872 1.125-1.172 1.378-1.134 2.016-1.791 2.053-2.147.009-.206.225-.553.478-.806.244-.234.731-.778 1.059-1.191s.909-.919 1.275-1.106c.553-.3.656-.431.675-.759 0-.234.084-.553.169-.731s.159-.384.141-.488c-.056-.441.038-.638.394-.759.216-.066.469-.084.581-.028s.291.028.45-.084c.225-.178.281-.413.338-1.538l.066-1.331.469-.169c.647-.225 1.069-.9 1.069-1.716 0-.544.066-.703.497-1.153.272-.291.581-.525.675-.525.309 0 .628-.666.487-.994-.187-.441.619-2.1 1.162-2.391.216-.113.563-.469.769-.778.338-.525.366-.675.319-1.65-.028-.994-.009-1.097.244-1.172.197-.066.281-.206.281-.525 0-.469.488-1.622.684-1.622.066 0 .244-.197.375-.441.197-.328.244-.581.188-1.097-.066-.619-.037-.703.422-1.247l.497-.572-.094-.938c-.084-.778-.056-1.022.169-1.472.15-.3.394-.666.553-.806.178-.169.281-.431.281-.722 0-.253.066-.619.15-.844.084-.206.131-.891.131-1.481-.009-.844.028-1.153.197-1.341s.197-.403.131-.938c-.056-.384-.028-.844.066-1.069s.169-.722.188-1.097a6.7 6.7 0 0 1 .338-1.5c.253-.675.272-.9.169-1.387-.084-.319-.188-.994-.244-1.509l-.094-.919.45-.234c.366-.197.422-.281.338-.6-.112-.516-.084-2.063.084-2.475.084-.262.141-1.809.131-3.853 0-.731-.216-1.706-.45-2.025-.197-.281-.244-.469-.169-.872.066-.356.169-.497.281-.441.244.094.244-.197-.009-1.153-.112-.441-.169-.994-.112-1.359.066-.525.037-.637-.216-.816-.338-.253-.366-.844-.084-2.034l.188-.806-.469-.572c-.422-.525-.431-.581-.244-.806.253-.3.159-1.097-.197-1.734-.281-.488-.366-.984-.216-1.425.066-.197.009-.609-.113-1.041-.113-.403-.272-1.153-.366-1.688s-.197-1.022-.253-1.106c-.066-.066-.169-.403-.272-.731-.084-.328-.244-.637-.347-.675s-.188-.253-.188-.516c0-.234-.15-.928-.338-1.537s-.375-1.416-.422-1.8c-.038-.375-.244-.966-.431-1.313-.684-1.256-.834-1.659-.759-1.978.066-.234-.056-.459-.45-.9-.534-.581-.684-1.022-.422-1.209.244-.15.141-.572-.272-1.153-.253-.375-.506-.581-.703-.591-.253 0-.272-.028-.084-.15.169-.122.141-.281-.309-1.209-.281-.572-.506-1.181-.506-1.341 0-.3-1.059-1.444-1.341-1.444-.159 0-.938-1.622-.938-1.969 0-.122-.169-.375-.366-.553-.488-.431-.844-1.134-.844-1.622 0-.413-.506-1.181-1.162-1.744-.272-.225-.469-.544-.525-.834-.056-.319-.244-.591-.534-.834-.253-.206-.422-.413-.384-.487.113-.206-.769-1.425-1.162-1.575-.197-.084-.366-.225-.366-.328 0-.263-.469-1.153-.787-1.509-.169-.169-.281-.356-.281-.412s-.375-.516-.844-1.013c-.45-.497-1.116-1.228-1.462-1.631-.347-.384-.722-.722-.844-.722-.103 0-.197-.056-.197-.141 0-.066-.403-.525-.891-.994-.487-.487-.966-1.05-1.069-1.256-.141-.291-.281-.384-.469-.328-.216.056-.281-.009-.347-.347-.056-.281-.197-.459-.431-.553-.75-.3-.956-.441-.956-.619 0-.281-2.644-3.141-3.028-3.263-.291-.113-.675-.413-1.5-1.247a3.8 3.8 0 0 0-.703-.516c-.403-.225-1.322-1.247-1.584-1.763-.113-.206-.375-.347-.862-.459-.816-.178-1.847-.759-1.847-1.041 0-.234-.309-.413-.938-.544-.722-.141-2.644-1.472-2.813-1.969-.141-.384-.675-.459-.938-.122-.244.291-.45.263-.778-.141-.169-.197-.431-.347-.6-.347a.57.57 0 0 1-.497-.328c-.169-.328-.844-.666-1.706-.844-.225-.037-.497-.178-.591-.291-.225-.291-.862-.609-1.162-.609-.15 0-.422-.206-.6-.459-.272-.356-.497-.497-1.069-.637-.403-.084-.862-.291-1.003-.441-.216-.197-.441-.263-.863-.234-.478.037-.591-.009-.703-.263-.169-.403-.628-.591-1.191-.497-.309.037-.6-.009-.909-.178-.272-.15-.731-.263-1.134-.263-.534 0-.769-.084-1.116-.375-.45-.403-.806-.469-1.219-.253-.169.094-.281.084-.403-.066-.094-.113-.225-.206-.309-.206-.066 0-.431-.178-.787-.412-.759-.487-1.041-.516-1.378-.141-.497.572-1.556.169-1.856-.731-.113-.347-.45-.441-.844-.234-.281.169-.366.15-.628-.113-.281-.281-.422-.291-1.706-.234-.778.028-1.575.094-1.772.15-.253.056-.506 0-.863-.234-.469-.291-.619-.3-3.403-.319-1.931 0-3.084.056-3.469.169-.403.122-.759.141-1.275.037-.45-.084-1.209-.084-2.109.009-2.344.225-3.206.263-5.175.263-2.109-.009-3.281.15-3.9.553-.309.197-.619.253-1.209.225-.675-.028-.863.028-1.238.319-.45.347-1.275.431-2.119.225-.291-.084-.338-.056-.272.169.056.169-.056.384-.319.647-.394.384-.431.403-1.003.234-.834-.234-.891-.225-1.556.253-.469.328-.731.413-1.294.413-.506 0-.816.084-1.059.281a.84.84 0 0 1-.684.197 1.3 1.3 0 0 0-.769.141c-.216.122-.45.225-.534.225-.066 0-.431.15-.788.347s-.891.347-1.153.347c-.45 0-.984.169-2.409.787-.497.206-1.097.872-1.266 1.369-.094.3-.956.919-1.931 1.369-.487.206-.656.234-.984.113-.366-.141-.403-.122-.591.225-.094.206-.563.609-1.05.9-.469.291-1.313.984-1.856 1.538-.938.937-1.059 1.022-1.734 1.106-.703.094-.75.122-1.8 1.331-.863.984-1.172 1.247-1.538 1.303-.966.169-1.069.225-1.303.591-.347.544-1.35 1.575-2.053 2.081-1.069.778-1.716 1.472-1.997 2.1-.291.703-1.237 1.659-1.631 1.659-.169 0-.337.141-.422.384-.272.619-1.247 1.547-1.659 1.547-.347 0-.366.028-.281.497.084.441.037.544-.441 1.041-.431.459-.591.544-.872.459-.394-.094-.403-.066-.225.384.103.291.056.375-.337.647-.309.225-.487.469-.534.788-.056.3-.225.591-.487.787-.216.169-.759.647-1.191 1.05-.647.609-.787.834-.759 1.106.037.375-.094.413-.628.225q-.281-.1-.084.037c.225.169-.056.778-.319.666-.225-.084-.337.206-.337.9 0 .487-.056.553-.534.816-.291.15-.534.328-.534.384s-.159.3-.366.544c-.563.666-.984 1.416-.834 1.491.244.169.094.572-.422 1.163-.45.497-.563.572-.741.431-.131-.122-.197-.122-.197-.009 0 .084-.066.15-.131.15-.253 0-.806.722-.806 1.05 0 .375-.272 1.022-.422 1.022-.047 0-.141.206-.188.459-.056.234-.131.469-.187.516-.188.15-.422.703-.422.994 0 .178-.056.384-.113.459-.131.206-.656.487-.9.487-.281 0-.253.234.066.413.347.197.347.722 0 1.041-.141.141-.272.347-.272.459 0 .094-.112.356-.253.553-.131.206-.291.581-.347.834s-.253.581-.469.75c-.563.431-.75.984-.478 1.388.112.169.216.497.216.731 0 .441-.441 1.313-.675 1.313-.084 0-.244.225-.366.487-.141.291-.309.469-.431.459-.169-.028-.225.122-.281.694-.037.413-.028.778.037.816s.056.141-.009.225c-.066.094-.178.412-.216.722-.056.3-.188.694-.291.872-.15.225-.169.497-.113.928.066.497.038.637-.112.703-.169.056-.197.197-.131.469.047.328.009.431-.347.609-.225.122-.441.356-.469.544-.028.169-.131.703-.225 1.209s-.141 1.219-.141 1.603c.028.544-.038.806-.253 1.078-.281.375-.281.403-.066.863.281.619.272.844-.056.956-.525.169-.675.469-.675 1.359 0 .469.066 1.078.15 1.341s.169 1.453.188 2.634c.028 1.181.112 2.372.188 2.634.15.497-.009 1.828-.291 2.466-.113.263-.113.412.084.75.169.281.197.572.15.919-.037.281 0 .984.084 1.547.403 2.588.366 3.459-.159 3.459-.141 0-.244.066-.244.141s.084.141.169.141c.113 0 .291.122.422.281.225.262.225.3-.187 1.106-.441.844-.45 1.284-.084 1.444.112.038.253-.038.337-.197.159-.3.534-.375.534-.094 0 .094-.094.3-.197.459-.272.375-.244.787.066 1.2.291.375.347.722.131.862-.169.094-.169.759-.028.994.047.084.272.206.469.253.244.066.366.197.366.375 0 .234-.066.281-.403.225-.403-.066-.45 0-.403.516.037.356.769 1.762 1.041 1.969.15.113.169.281.112.525s-.009.487.169.731c.272.384.469 1.809.487 3.516.009.731.066.984.291 1.247.169.169.375.516.497.731.112.234.366.6.563.816.319.356.347.487.319 1.341-.037.844-.009.984.281 1.303.187.206.319.487.291.638s.037.384.15.553c.141.206.159.375.056.666-.122.319-.084.459.216.928.197.291.366.609.366.703s.084.178.169.178c.197 0 .703.834 1.172 1.884.188.412.506.816.769.994.422.3.441.328.441 1.275 0 .919.028.984.347 1.134.197.094.366.319.422.553.037.234.272.553.553.778s.6.694.844 1.228c.197.469.506.938.647 1.041.159.094.281.291.281.412 0 .141.084.253.178.253.281 0 .938 1.125.759 1.303-.188.197-.169.675.028.891.094.094.347.169.572.169.591 0 .759.169.703.703-.028.375.009.497.244.6.15.066.431.488.619.919.253.619.506.919 1.087 1.369.422.319.834.703.909.891.169.291 1.116 1.509 1.659 2.119.15.169.45.572.675.891s.844.956 1.378 1.416c.572.487 1.041 1.012 1.172 1.284.197.488.938 1.284 2.222 2.419.384.347.928.816 1.181 1.069s.497.459.553.487c.037.028.169.234.281.459.169.319.319.431.684.487.394.056.628.253 1.322 1.078.469.572 1.041 1.134 1.275 1.275s.6.459.844.703c.347.375.45.431.628.281s.244-.122.469.113c.159.169.281.375.281.469 0 .197.244.347 1.041.666.272.094.591.384.778.703.347.572 1.406 1.359 1.837 1.359.422 0 .703.234 1.237.966.553.759 1.144 1.106 1.894 1.078.375-.009.553.066.863.413.253.3.506.441.759.441.272 0 .422.094.506.3a.73.73 0 0 0 .534.384c.225.056.534.169.703.253s.45.169.619.169c.188 0 .403.084.478.178.084.113.309.169.553.122.366-.056.403-.028.338.262s.009.375.703.722c.525.253.984.375 1.378.356.806-.009 1.247.178 2.053.928.469.431.75.609.928.553.131-.038.366-.122.506-.169.187-.066.403.066.787.469.291.3.656.6.816.647.15.038.272.141.272.197s.497.113 1.116.094c.6-.009 1.322.056 1.622.15.281.094.656.178.816.178s.375.094.469.206c.113.122.394.206.75.206.497 0 .619.066.928.487l.366.469h1.594c.891 0 1.659.037 1.716.084.066.028.272-.056.45-.206.431-.347.487-.347.628.056.113.3.197.347 1.097.384.534.028 1.491 0 2.119-.066 2.391-.234 2.859-.234 3.403.056.469.253.6.262 1.809.113 1.931-.234 3.3-.206 3.581.084.169.15.338.206.581.141.188-.038.9-.15 1.556-.225zm-88.472-41.119c-.028-.084-.112-.141-.178-.141s-.141.056-.169.141.056.15.169.15.197-.066.178-.15m171.694-24.431c0-.113-.056-.197-.131-.197-.066 0-.131.122-.131.291 0 .15.066.234.131.197s.131-.178.131-.291M67.2 111.844c0-.178-.056-.197-.272-.066-.15.084-.272.178-.272.206s.122.066.272.066.272-.094.272-.206"/><path d="M151.153 206.953c-.309-.328-.375-.347-1.294-.262-.956.084-.975.084-.9-.206.094-.375-.131-.375-1.041-.009-.9.347-2.513.262-3.609-.197-.572-.253-.834-.291-1.191-.178-.291.066-.572.066-.778-.028-.45-.225-5.259-.169-5.991.056-.319.094-.619.15-.656.113-.056-.056-.291-.084-1.322-.169-.037-.009-.15-.169-.225-.356s-.244-.347-.347-.347c-.113 0-.534-.178-.956-.413s-.928-.412-1.116-.412c-.216 0-.45-.141-.628-.347s-.525-.403-.938-.497c-.703-.169-.816-.206-1.828-.666-.703-.319-.75-.375-1.256-1.341l-.366-.722.291-.413c.403-.553.337-1.191-.131-1.247-.928-.112-.872.028-.9-1.978-.028-1.369-.084-1.894-.244-2.147-.112-.178-.197-.497-.197-.722s-.141-.553-.337-.778c-.188-.206-.337-.469-.337-.581s-.15-.431-.319-.722a3.4 3.4 0 0 1-.422-.9c-.056-.206-.15-.412-.216-.459s-.122-.178-.122-.319-.084-.328-.197-.431-.197-.281-.197-.413c0-.141-.159-.347-.347-.487-.197-.122-.534-.441-.75-.703s-.469-.469-.563-.469c-.187 0-.619-.497-.619-.731-.009-.328-.366-.638-1.087-.919-.403-.169-.891-.291-1.069-.291-.197 0-.431-.094-.525-.206s-.394-.206-.656-.206c-.281 0-.75-.122-1.041-.281s-.806-.319-1.125-.356c-.619-.094-1.322-.431-2.128-.984-.253-.178-.6-.319-.769-.319s-.45-.197-.675-.459c-.197-.253-.591-.6-.844-.778s-.628-.581-.816-.919c-.291-.469-.45-.609-.966-.75-.45-.113-.666-.262-.816-.544-.113-.206-.319-.497-.487-.647-.169-.169-.272-.403-.244-.619.028-.328-.281-1.247-.422-1.247-.037 0-.244-.141-.45-.319-.384-.3-.553-.787-.703-2.081-.037-.291-.112-.638-.197-.787-.066-.141-.131-.488-.131-.778 0-.647-.366-2.616-.6-3.244a11 11 0 0 1-.337-1.247c-.216-.984-.422-1.341-1.022-1.594-.422-.178-.469-.253-.422-.694.028-.413-.056-.609-.497-1.125-.281-.347-.741-.75-1.022-.891-.506-.281-.563-.403-.741-1.594-.094-.666-.628-1.734-.872-1.734-.188 0-.15-.666.037-.722.112-.038.112-.15-.037-.403-.291-.459-.563-1.716-.487-2.184.056-.234 0-.497-.103-.647s-.197-.384-.197-.544a.7.7 0 0 0-.169-.459c-.216-.225-.422-2.231-.441-4.528-.028-1.069-.084-2.119-.131-2.344-.066-.263-.028-.666.112-1.153.131-.413.197-.787.169-.834s.009-.253.113-.469c.112-.206.197-.591.197-.834 0-.328.15-.637.534-1.106.291-.356.534-.806.534-.984s.112-.497.272-.731c.45-.694.497-.806.928-1.688l.422-.872v-2.447c-.009-2.55.028-2.953.347-2.953.281 0 .225-.253-.066-.347-.366-.112-.403-.3-.253-1.387.066-.544.15-1.341.169-1.8s.084-.984.159-1.181c.084-.225.112-1.078.037-2.353-.094-2.147-.084-2.156.628-3.169.291-.441.319-.553.244-1.537-.066-.834-.037-1.153.131-1.491.169-.356.216-.731.169-1.969-.066-1.509-.056-1.538.253-1.659.291-.113.291-.169.197-.703-.094-.384-.084-.722 0-.938.169-.459.244-1.359.103-1.481-.216-.234-.066-.872.394-1.575.647-.994 1.022-1.772 1.125-2.288.056-.3.225-.497.6-.703.366-.178.572-.413.656-.694.169-.638 1.313-2.963 1.434-2.963.066 0 .113-.094.113-.206s.112-.206.272-.206c.281 0 .534-.375.534-.816 0-.197.084-.291.272-.291.131 0 .366-.169.497-.375.319-.487 1.359-1.519 1.828-1.809.197-.122.384-.328.422-.459.037-.113.225-.3.403-.403.197-.094.337-.234.337-.3 0-.225.506-.694.656-.591.169.112.909-.675 1.144-1.219.15-.347.188-.356.347-.178.225.3.628.281.741-.037.037-.141.169-.356.309-.469.216-.206.281-.206.628-.009.347.178.403.178.703-.112.169-.178.591-.703.928-1.181l.6-.872h.909c.909 0 .928 0 1.35-.544.469-.609.956-.787 1.528-.572.309.122.431.094.656-.112.159-.141.422-.328.619-.413s.431-.225.534-.3.422-.234.703-.356.619-.384.741-.609c.272-.487.478-.553 1.734-.553h.956l.422-.619c.441-.666.45-.675 1.275-.637.384.028.656-.056.909-.281.319-.253.478-.281 1.069-.206 1.688.234 1.866.253 2.269.066.244-.094.647-.169.909-.141.253.009.9-.122 1.406-.3 1.406-.516 2.334-.703 3.15-.666.45.009.834-.037.994-.169.169-.122.422-.15.863-.094.741.122 2.081-.028 2.334-.253.131-.112.572-.122 1.406-.084q1.224.084 1.519-.084c.375-.206 2.831-.206 2.953 0 .056.084.422.15.816.15 1.528-.009 4.116.234 4.922.469.694.197.909.206 1.238.066.291-.122.497-.141.778-.028.197.084.722.225 1.153.3.45.066.9.234 1.022.347.291.281 1.594.619 2.316.619.319 0 .684.084.834.197.15.094.6.225 1.013.263 1.519.178 2.184.328 2.334.544.169.253 1.659.891 2.4 1.022.319.056.553.197.647.384.272.544 1.406 1.537 1.716 1.491.159-.028.422.066.619.225s.553.319.806.356c.272.056.506.178.553.291.038.094.309.347.6.553s.6.516.684.694.281.356.45.403c.169.056.319.15.319.253 0 .084.112.037.272-.094.244-.234.281-.234.6-.009.188.122.338.3.338.403 0 .084.309.384.684.647s.816.609.966.778c.45.459 1.997 2.156 2.494 2.756.403.497.45.525.619.3.187-.281.338-.3.338-.056 0 .084.159.263.366.384.403.234.656.872.816 1.997.169 1.275.862 2.147 1.678 2.147.366 0 .469.084.675.497.113.291.375.637.563.778.253.225.319.384.319.937 0 .581.066.75.478 1.209.581.619 1.041 1.603.928 1.969-.038.169.038.403.244.647.422.516.759 1.219.759 1.537 0 .15.244.516.553.806.525.544 1.088 1.575 1.069 2.006 0 .112-.037.572-.084.994-.066.731-.038.806.319 1.106l.384.319-.113 3.047c-.066 1.678-.084 3.141-.038 3.253.056.112.113 1.162.131 2.344.028 1.978.056 2.156.347 2.559.244.347.319.647.347 1.509.038.694 0 1.069-.094 1.069-.187 0-.084 1.097.169 1.716.113.263.169.516.113.544-.028.037-.084.778-.113 1.631-.056 1.397-.028 1.622.244 2.184.169.356.319.994.347 1.472.028.459.113.9.169.984s.084.263.037.403c-.066.169.056.375.422.722.75.703 1.134 1.369 1.238 2.081.084.591.188.759.759 1.256.15.122.216.412.216.928 0 .403.066.909.141 1.134.188.516.244 2.794.084 3.197-.084.169-.244.3-.394.3s-.244.038-.253.113c0 .056-.028.544-.037 1.069-.009.544-.178 1.575-.338 2.325-.253 1.097-.366 1.341-.563 1.341-.131 0-.281-.066-.338-.15s-.216.038-.403.356c-.244.431-.272.581-.169.844.309.694-.291 2.297-.872 2.353-.084 0-.253.028-.366.028-.113.009-.309.197-.422.384-.188.319-.197.441-.037.994.291.994.15 1.425-.75 2.184-.469.403-.806.806-.844 1.022-.037.197-.131.581-.216.872-.347 1.228-.403 1.547-.281 1.678.197.206.169.281-.309.544-.253.141-.628.525-.834.872-.197.328-.45.675-.553.759-.112.084-.197.356-.197.609s-.084.675-.197.956c-.15.356-.188.722-.112 1.2.066.516.037.731-.084.816-.103.066-.188.403-.197.787-.009.525-.113.834-.506 1.425a6.5 6.5 0 0 0-.591 1.078c-.056.225-.272.413-.656.6-.553.234-.591.291-.591.806 0 .3-.066.703-.15.9-.141.319-.216.347-.703.281-.469-.066-.591-.028-.872.281-.188.197-.403.356-.487.356s-.291.122-.469.281c-.188.169-.497.281-.816.281-.563 0-1.5.441-1.772.834-.319.459-.731.581-1.153.347-.497-.253-1.744-.281-1.809-.028a3 3 0 0 0-.131.553c-.084.347-.131.375-.759.375-.403 0-.872.113-1.191.281-.291.15-.6.281-.713.281-.197 0-1.294 1.022-1.294 1.228 0 .066-.169.15-.366.178-.319.037-.422.169-.722 1.078-.197.572-.375 1.153-.375 1.303s-.366.675-.816 1.219c-.441.525-.806 1.078-.806 1.219s-.113.525-.281.834c-.253.488-.272.647-.15 1.341.084.516.084.9 0 1.05-.066.141-.113.759-.094 1.397s-.009 1.228-.066 1.313c-.056.084-.028.15.037.15.197 0 .188 1.331-.009 1.706-.15.291-.338 1.416-.422 2.634a1.33 1.33 0 0 1-.422.9c-.197.206-.497.6-.656.862s-.525.6-.787.731c-.272.141-.731.497-1.041.787-.431.431-.656.553-1.022.553-.319 0-.469.066-.469.197 0 .572-.806.806-1.575.469-.441-.197-.422-.197-3.066-.328-1.987-.094-2.025-.094-2.306.225-.197.225-.375.291-.628.253-.188-.038-.75-.009-1.247.056s-1.181.113-1.519.113c-.403-.009-.703.084-.938.253-.562.459-.844.488-1.191.094zm-6.215-20.25c.347-.234.731-.553.825-.722.253-.431.891-.375 1.238.122.253.375.338.413 1.022.384.563-.028.787.028.909.206.131.197.403.225 1.744.197 1.425-.009 1.594-.038 1.716-.291.084-.15.272-.412.431-.6.244-.281.291-.572.375-2.081.038-.966.113-2.503.169-3.422l.094-1.659-.403-.403c-.225-.206-.366-.488-.338-.581.094-.281-.291-.844-.75-1.097-.375-.197-.534-.619-.628-1.594 0-.112-.028-.281-.038-.375s-.15-.178-.309-.206c-.272-.038-.319-.141-.375-.872-.056-.516-.197-1.022-.394-1.341-.159-.291-.281-.6-.244-.694s-.028-.384-.113-.647a2.4 2.4 0 0 1-.188-.778c0-.253-.113-.356-.487-.487-.272-.094-.534-.3-.619-.488-.187-.441-.487-.544-.862-.281-.225.15-.684.225-1.603.225-1.088 0-1.369.056-1.894.347-.338.178-.759.328-.956.328-.169 0-.619.225-.956.487-.75.553-1.05 1.275-.891 2.1.141.806.113 1.191-.141 1.369-.141.113-.216.328-.197.638.009.253.028.75.009 1.125-.009.544-.056.647-.272.647-.347 0-.431.319-.394 1.603.037.966 0 1.153-.281 1.538-.291.403-.309.525-.253 1.659.037.731 0 1.734-.112 2.494-.113.694-.169 1.566-.15 1.922.037.619.066.666.506.787.253.066.534.178.619.253.338.291 1.744.609 2.616.6.778-.009 1.003-.084 1.556-.441zm-15.432-17.944c.628-.094 1.209-.253 1.284-.328.197-.206.984-.225 1.322-.028.216.112.366.009.956-.553.394-.375.75-.694.816-.694.225 0 .647-.572.647-.9 0-.253.113-.403.506-.609a3.8 3.8 0 0 0 .863-.666c.469-.516.956-1.791.872-2.325-.028-.225-.009-.553.056-.731s.103-.816.103-1.453c0-.619.009-1.481.009-1.913.009-.778 0-.787-.553-1.172a13 13 0 0 1-1.097-.919c-.309-.291-.591-.525-.628-.525-.047 0-.187-.225-.309-.487-.15-.319-.347-.516-.591-.572-.197-.056-.431-.141-.506-.197-.066-.056-.347-.141-.6-.178-.703-.113-1.434-.431-1.856-.816-.197-.197-.563-.412-.806-.497s-.628-.319-.863-.516c-.338-.291-.534-.347-1.247-.347-.497 0-.928-.066-1.031-.169-.872-.862-1.584-1.069-4.116-1.153l-1.406-.056-.6.572c-.338.319-.722.75-.863.966s-.375.384-.534.384c-.422 0-1.172.647-1.153 1.013 0 .169-.056.703-.141 1.191-.141.834-.281 3.141-.253 4.097.009.787.009 1.106-.066 2.869l-.066 1.762.394.441c.225.234.403.572.403.731 0 .384.534.928.984.966.188.028.534.206.759.412s.469.356.534.356.169.178.244.403c.216.638 1.809 1.341 2.672 1.172.244-.038.684 0 1.003.122.872.319 2.156.525 2.616.431.244-.056.45-.009.506.066.056.094.216.122.366.066.15-.038.787-.15 1.397-.253zm37.341-.318c1.238.056 3.366 0 4.088-.122.45-.066 1.069-.094 1.397-.037.956.122 1.838-.413 3.431-2.119l1.341-1.425.009-2.081c.009-1.162.084-2.241.169-2.466.084-.206.197-.966.244-1.688.084-1.369-.141-2.616-.553-2.972-.103-.084-.225-.459-.281-.806s-.159-.787-.244-.938c-.197-.403-.975-1.303-1.125-1.303-.066 0-.253-.169-.45-.356-.169-.197-.703-.553-1.191-.787-.872-.441-.872-.441-2.419-.347-.844.038-1.641.028-1.753-.028-.113-.066-.591-.122-1.041-.113-.647.009-.862.066-.928.234-.113.319-.309.431-.778.431-.225 0-.647.094-.928.206s-.591.178-.713.15c-.131-.037-.497-.028-.834.028-.581.094-.6.122-.6.581 0 .384-.066.516-.375.666a1.7 1.7 0 0 0-.591.544c-.197.319-.272.328-.928.253-.75-.094-.862-.028-1.434.816-.131.197-.403.403-.6.441-.197.056-.656.403-1.003.759-.553.581-.647.759-.713 1.369a5.7 5.7 0 0 1-.169 1.022c-.066.169-.103 1.05-.084 1.95.038 1.275.009 1.706-.15 1.941-.253.403-.141.9.366 1.744.216.347.384.778.384.938 0 .356 1.209 1.65 1.884 2.025.694.375.731.384 1.125.675.197.141.834.403 1.397.581.844.262 1.266.3 2.306.262a33 33 0 0 1 1.744-.028"/><path d="M151.988 178.059c-.188-.197-.216-.666-.038-.666.084 0 .225.141.338.3.291.431.056.722-.291.356zm-73.791-12.806c0-.066.066-.206.131-.319.113-.169.131-.15.131.113 0 .169-.056.3-.131.3-.066 0-.131-.038-.131-.094m57.131 93.685c0-.3.009-.319.319-.197.169.066.187.122.066.281-.216.281-.394.234-.394-.084zm154.997-82.735c-.056-.056-.094-.281-.094-.497 0-.488.309-.469.375.009.056.347-.131.638-.281.488m-17.278-12.956c.113-.122.197-.122.319 0s.084.169-.169.169-.281-.038-.169-.169zm-16.069-23.841c0-.113.066-.253.131-.291s.131.037.131.197c0 .159-.056.291-.131.291-.066 0-.131-.084-.131-.197M84.3 63.6c-.037-.066.037-.141.188-.141s.281.066.281.141c0 .084-.084.141-.188.141s-.244-.056-.281-.141m86.475-57.947c-.113-.263-.319-.516-.45-.553-.347-.112-.778-1.069-.656-1.425s.309-.384.553-.084c.6.759.647.787.909.544.169-.15.272-.178.338-.084.038.084.197.225.347.291.225.141.281.094.403-.263.15-.431.469-.553.731-.3.066.066.347.197.628.291.403.122.497.225.497.497 0 .347-.028.347-.9.319l-.9-.028-.094.431c-.113.609-.347.862-.806.862-.319 0-.441-.094-.619-.488zm-.028-2.878c-.131-.178-.131-.263.084-.469.6-.637.703-.666 1.041-.319.394.375.431.806.113.928-.15.056-.281-.009-.422-.206l-.188-.3-.225.291c-.197.263-.244.263-.403.084z"/></svg>