<svg width="300" height="300" xmlns="http://www.w3.org/2000/svg" xml:space="preserve" fill-rule="evenodd" stroke-linejoin="round" stroke-miterlimit="2" clip-rule="evenodd" viewBox="0 0 291 300"><path fill-rule="nonzero" d="M124.866 297.022c-2.786-1.22 9.028-12.752 8.86-14.34-.551-2.22 11.39-14.8 4.608-18.165-2.997-1.486-5.153-2.765.75-12.855 8.27-14.133-3.899-10.072-5.563-11.748-.566-.763-.868.38-11.7-2.018-.038-.008-23.314-8.137-31.274-16.399-.102-.138-.162.131-1.773-1.21l-.526-.413-.31.403c-.125.168-5.172.87-5.329.742l-.337-.281-.572.572c-.903.903-9.087.516-4.27 6.569 9.167 11.518-13.505 8.18-14.139 9.953l-.122.328-.563-.253c-1.647-.806-2.932.637-22.847-.328-5.967-.29-5.89-.795-6.371-.62-2.537.543-13.373-4.058-.827-6.822 1.772-.39 17.758-3.913 22.34-3.913h1.248l.32-.487c.144-.214.853 1.033 2.786-1.633 1.684-2.322-4.898-8.071 3.05-9.618 1.121-.218.447-1.595 13.603-4.361.106-.557 1.399-7.322-1.652-6.887-.364.094-.06-.36-2.355-4.071-3.072-4.974-4.37-4.24-5.367-9.9-.107-2.128-2.138-1.441-7.695-25.493-.89-3.85-16.886-16.713-15.809-4.176l.094 1.248-.806.967c-.328.404-3.248 4.007-6.476.422-8.415-7.053-19.044-12.14-35.842-36.078 6.046-.424 6.455-.521 18.118 8.887 13.274 10.708 15.557 5.321 16.075 4.1 4.384-10.345 19.517 8.345 23.153 4.71l.535-.526-.028-1.633c-.008-.781-.085-8.52 1.145-9.702l.591-.544v-1.276c0-9.595 5.24-17.996 6.1-19.376 3.148-3.98 2.04-6.525 5.256-10.414 7.994-9.674 7.244-11.563 6.82-12.63-.084-.15-.084-.591.01-1.21l.13-.957-.628-1.07-.648-1.07-.009-1.388c-.03-4.034-.791-3.637-2.402-7.365l-.291-.76-.572.037c-1.245.094-8.722 10.242-11.467.883-.872-2.973-2.018-61.83 4.192-51.942 3.301 7.052 4.35 27.758 5.903 28.421 1.383.77-.68 8.134 5.096 5.768 8.967-3.673 9.091 17.046 11.073 19.413l.563.647.845-.056c.863-.054.875-.055 9.082-5.855 10.883-7.691 11.91-5.76 12.611-6.66 1.294-1.307 18.176-6.478 22.78-6.603 6.604-.18 15.613-9.027 8.85-15.322-19.267.314 7.112-14.721 5.595-20.1-.45-1.591 19.316-19.818 19.928-19.584 3.58 1.947.323 6.072.32 6.511l-.01.967-.75.404c-2.206 1.162-10.326 16.883-11.356 18.27-.19.256-.39.531-.45.845-.67 3.504-.066 3.41-.17 3.687l.554 1.21.198.498 1.06-.094c8.736-.87-.907 14.959-1.003 15.01-7.289 5.216-2.218 7.767 6.473 9.965 11.021 2.787 10.811 2.865 21.588 6.737 19.758 9.79 18.534 15.425 28.88 12.78 9.923-2.536 1.384-7.694 1.06-11.41l-.095-.994.526.028c5.528.09 17.012-10.214 52.92.15l.75 3.275c-14.779.691-32.709 6.144-33.41 6.551-.926.537 1.761 8.406-.649 9.24-4.745 1.642-18.252 2.854-15.754 7.788 6.424 12.684 12.522 20.058 15.258 37.29 1.484 9.352 4.094 8.562 6.454 10.293.659.482 7.81 5.727 9.336 4.119l.534-.572.037-3.294c.125-8.944 5.258-7.478 11.11-.93 5.652 6.323 6.595 5.138 8.135 6.98l.525.61c.195.225 20.658 19.345 19.48 23.354-1.544 5.245-4.12-.164-4.46-.3-.933-.236-12.81-11.305-13.528-11.297-.771.008-6.063.066-9.054-3.322l-.507-.544-1.21.028c-2.085.054-3.423 5.59-5.348 6.183-2.01.619-17.552-8.563-17.783-8.454-3.306 1.56-4.15 18.566-5.725 19.872l-.375.347.253.47c.068.134-1.217 3.584-1.332 3.893-.212.568-2.585 6.942-3.134 6.906l-.45-.01.094.788-.272 2.374c.299.935-8.157 13.31-8.923 14.43-3.018 4.417-1.69 4.912-2.018 5.218l-.43.412.083 1.22c.487 6.783 1.965 12.05 1.933 12.63l-.066 1.052.553.6c.58.625 1.386 1.49 9.572-4.682 5.532 8.35 3.158 9.025 4.082 18.99.262 2.824 3.048 32.876-4.491 35.176-1.186.362-1.972-28.033-8.378-34.202l-.432-.432-.684.329c-8.641 3.896-5.976-2.907-9.9-13.447l-.28-.731.28-.112c.097-.036-.324-.606-.619-.526-.692.296 1.075-1.38-1.782-3.809-1.689-1.765-22.2 15.84-30.375 15.306l-1.07-.066.084.412c.188.901-11.085 3.023-12.067 3.208-5.207.98-6.804 3.193-6.989 3.294-.673.226.633 1.01-4.832 7.45-1.742 2.054 1.815 4.898 1.764 5.273-.078.326 13.593-1.32 5.986 8.116-5.003 6.205-9.249 12.8-9.993 13.954-.543 1.16-1.861-.18-11.428 11.221-4.552 5.425-11.449 7.579-11.916 7.376zm2.796-1.445c.15-.268.145-.818.013-.782-.134.037-.857.796-.753.943.169.24.602.128.741-.15zm24.63-72.463c32.163-3.145 31.908-13.41 42.806-19.335 2.418-.812 8.878-9.629 9.55-10.546.199-.27 2.032-2.772 2.076-3.631l.066-1.333.469-.169c.591-.205.25-.51 3.893-6.784 1.697-2.92 3.1-8.32 3.285-8.54l.497-.572-.094-.939c-.012-.11 2.655-9.364 2.131-14.178l-.094-.92.45-.234c1.227-.66-.298-15.253-.206-15.64l.188-.808-.469-.572c-1.356-1.687-3.874-47.813-55.37-61.779-44.386-12.038-75.392 32.919-74.046 33.592.772.535-13.505 14.022-10.153 45.151 2.967 27.562 15.013 36.45 16.197 39.418 2.416 4.16 15.59 16.77 24.094 20.878 14.115 6.82 15.045 4.92 15.848 6.013l.366.47h1.596c1.956 0 14.12.745 16.954.42zM63.746 181.96c-.03-.089-.134-.168-.229-.131-.085.033-.176.163-.087.238.056.048.147.053.215.031.06-.019.116-.07.1-.138m171.839-24.451c0-.07-.025-.172-.104-.194-.092-.027-.134.107-.147.17-.018.088-.03.243.05.308.044.037.089-.001.118-.038a.42.42 0 0 0 .083-.246M67.396 110.547c0-.06-.003-.163-.092-.15-.074.012-.368.192-.432.258-.023.024-.033.036 0 .054a.54.54 0 0 0 .306.04c.1-.016.218-.088.218-.202"/><path fill-rule="nonzero" d="M151.42 205.736c-.748-.793-21.234.203-24.097-5.263l-.366-.723.29-.413c.02-.027-2.135-11.3-6.99-14.018-.4-.223-11.486-1.635-13.945-11.803-4.026-16.646-11.91-17.018-4.316-32.558l.422-.873v-2.45c-.028-7.817 2.303-22.828 2.12-22.986-2.32-2.513 9.633-13.898 10.696-14.91.72-.686 2.172.121 3.659-1.989l.6-.872h.91c1.009 0 7.355-3.462 7.872-3.462h.956l.423-.62c.002-.003 26.672-8.257 44.26 3.85 15.179 10.45 16.544 23.228 17.061 23.662l.385.32-.113 3.05c-.635 16.126 7.6 32.62 2.598 34.012-1.643.456-.063 1.479-7.947 19.777-1.849 7.427-16.486-.413-17.256 18.605-.036.88-.349 8.598-6.372 8.997-.872.058-10.859.718-10.904.666zm-6.221-20.267c1.044-.704 1.073-1.344 2.065-.6 1.015.761 4.896 1.018 5.395.496 1.067-1.116.954-5.748.976-6.108l.094-1.66-.403-.404c-.118-.108.21-.326-1.09-1.68-.151-.157-.339-.302-.419-.505-.136-.344-.058-.752-.209-1.09-.133-.297-.483-.46-.616-.757-.822-3.016-.21-3.374-2.513-5.54-4.515.57-6.775 1.06-6.808 3.613-.03 2.204-.577 3.762-.602 3.782-.122.097-.316.166-.34.32-.121.748.055 1.526-.075 2.272-.07.402-.425.711-.517 1.107-.167.717-.25 5.083-.259 5.525-.022 1.143 3.737 2.21 5.302 1.2zm-15.445-17.959c.2-.03.95-.535 2.608-.356.336.036 4.353-3.06 4.664-5.752.213-1.847.176-4.75.102-4.834-2.166-2.488-3.823-3.159-4.221-3.32-2.634-1.066-2.982-1.771-4.776-2.178-.34-.077-.711-.034-1.032-.169-1.265-.531-1.125-1.055-4.12-1.154l-1.407-.056-.6.573c-2.353 2.22-2.473 2.098-2.553 2.365-.262.87-.15.885-.46 8.163l-.066 1.764.394.441c.354.368.364.988.727 1.345.153.15.39-.222 2.2 1.526 1.099 1.06 1.184.938 2.674 1.173.36.056 4.457.7 4.495.685.15-.038.787-.15 1.398-.253zm37.372-.318c.44.02 3.326.15 5.49-.16 2.097-.3 2.004-.588 3.434-2.12l1.342-1.426.009-2.083c.025-3.174 1.688-6.807-2.242-10.538-1.293-1.507-5.327-1.16-5.367-1.163-1.165-.059-1.097.225-2.226.456-.284.045-3.431.55-3.52.635-.133.13-.098.141-1.34 1.913-.443.17-.98-.135-1.422.035-.022.009-2.074 1.804-2.255 1.961-.781.684-.842 2.238-.882 2.393-.113.29.106.315-.234 3.895-.041.43-.249 2.604 2.636 4.71 2.665 1.947 6.507 1.49 6.577 1.492"/><path fill-rule="nonzero" d="M152.255 176.818c-.188-.197-.216-.667-.038-.667.084 0 .225.141.338.3.291.432.056.723-.291.357zM78.402 164c0-.066.066-.206.13-.32.114-.168.132-.15.132.114 0 .169-.056.3-.131.3-.066 0-.131-.038-.131-.094m57.179 93.764c0-.3.009-.32.32-.197.168.066.186.122.065.28-.216.282-.394.235-.394-.083zm155.127-82.805c-.056-.056-.094-.281-.094-.497 0-.489.31-.47.375.009.056.347-.13.638-.281.488m-17.293-12.967c.114-.122.198-.122.32 0s.084.17-.17.17c-.253 0-.28-.039-.169-.17zm-16.082-23.86c0-.114.066-.254.131-.292s.131.037.131.197-.056.292-.13.292c-.067 0-.132-.085-.132-.198M84.51 62.262c-.037-.065.037-.14.188-.14s.281.066.281.14c0 .085-.084.142-.188.142s-.244-.056-.281-.141"/></svg>