<svg width="300" height="300" xmlns="http://www.w3.org/2000/svg" xml:space="preserve" fill-rule="evenodd" stroke-linejoin="round" stroke-miterlimit="2" clip-rule="evenodd" viewBox="0 0 291 300"><path fill-rule="nonzero" d="M236.448 288.364c-.52-1.613-1.364.014-20.821-3.953-.91-.186-16.267-2-19.494.14-.113.095-.847.151-1.6.151h-1.384l.028.508c.005.136-21.068 6.5-14.316.575 7.256-6.368 12.392-7.528 14.628-27.195.6-5.284 2.79-.316 7.397.613 2.598.524 7.99-5.986 6.685-8.576l-.273-.593.433-.396c.584-.52-.815-1.313.621-2.654l.753-.725-.028-.895c-.346-8.24 3.248-7.63 3.248-15.758 0-3.416 1.11.245 3.106 2.842 1.291 1.68 4.528-3.313 4.64-5.715l.076-2.108.46-.396c.81-.709-1.323-2.172-.329-2.485l.508-.179v-1.478c0-.828.057-1.6.151-1.723l.669-8.519.17-1.082-.405-.546c-.175-.2-2.339-9.326-2.531-10.14-2.01-8.48-1.076-10.299-.67-11.089l.31-.678-.443-.404c-3.195-3.28 1.898-9.893 2.428-10.58 2.5-3.248.76-26.275 32.563-44.47 8.261-4.726 7.674-17.889 10.92-8.82.637 1.78-.042 6.895 2.399 6.778 6.206-.295 6.24-8.288 5.986-8.566l-.349-.396.32-.094c.917-.224 1.187-9.53-.094-11.079l-.725-.82.273-.451c1.205-2.083-6.921-10.465-7.955-11.87-.094-.179-.273-.424-.442-.527-2.718-2.058-9.96-34.246 7.682-43.15 6.83-3.448-.24 2.773-1.074 10.194-.307 2.737-1.364 21.858 2.918 21.858h.508l.075.857c.137 1.46 3.73 3.15 6.147 7.625.88 1.628 8.252 15.272 7.84 21.764-.074.447 1.746 20.421-3.043 28.505-6.95 11.732-5.558 12.664-4.554 13.143.216.133.248.46.452.611.13.097 1.405 1.033 1.723 1.073.141 0 .611.057 1.035.123l.753.103v-.451c.041-.78.735-.32 5.555-8.03.427-.685 3.347-.065.123 10.072-3.589 11.283-4.342 10.942-4.527 11.947-.099 1.973-5.695 9.143-6.073 9.396-1.308 1.097.764 2.678-14.138 15.994-8.469 7.566-8.31 8.47-8.35 31.94-.02 12.697 8.243-22.922 9.93-13.274 2.665 15.244-3.312 25.895-4.416 27.863-7.483 13.335-15.005 22.054-15.04 22.085-2.715 1.983 1.106 3.213 5.047-.282 5.28-4.683 4.733-5.07 10.684-8.81.851 9.224-.673 8.907-3.616 17.547-2.917 8.564-4.838 7.109-12.219 12.21l-.489.32-.452-.395c-.514-.446-5.306 1.892-5.318 2.353v.5l-.951-.048c-.245-.013-3.042-.162-3.06-.207zm2.759-.273c0-.125-.374-.232-.562-.055-.06.056.004.142.062.165.233.093.5.01.5-.11m-8.858-24.134c1.235-1.392 1.832-.692 4.33-3.643.186-.22 1.938-2.291 2.691-2.42 2.971-.506 6.773 2.516 12.377-14.338 3.41-10.255-1.816-15.924-8.576-23.121l-.79-.848-.828.302c-.866.316-7.385.237-9.358 2.381-2.237 2.43-6.186 8.171-6.1 8.435l.264.744-.687.781c-4.949 5.683-.562 19.514-.81 21.22-.182 1.26-.752 2.441-.95 3.7-.719 4.56 7.442 7.976 8.481 6.796zm9.32-50.294c1.247-2.295 1.282-2.207 1.374-2.41l.273-.649 1.61-.15c4.016-.399 3.597-1.295 6.465-4.142.928-.922.093-2.508.434-2.645 2.112-.587.824-4.975 3.107-7.286.11-.113 2.08-3.748 3.896-3.615 6.956.512 7.834-4.34 9.32-9.3 4.074-13.599 3.09-19.586-4.688-27.762-8.818-9.269-12.926-.933-15.108-3.68l-.235-.32-.292.329c-1.893 2.248-4.989.201-3.916 2.946.146.372-1.47-1.534-4.17 2.73-4.838 7.636-3.704 8.029-5.864 16.708-2.44 9.805 3.05 9.292 3.454 19.352l.084 2.053-.48.697c-.456.655-1 5.815-1.054 6.325-.5 4.75 3.272 3.663 3.483 8.482.011.261.258 5.919 2.324 2.296z"/><path d="M229.05 255.438c-.442-.178-1.487-1.38-1.517-1.602-.025-.174.398-1.021.397-1.1-.007-.495-.2-.975-.207-1.47 1.389-.46 1.521-.346 1.609-.696.028-.11-.127-.584.265-1.035l.348-.424.433.33c.235.178.895.507 1.45.752l1.026.424.075 1.158c.031.426.157.883 0 1.28-.039.1-.934.636-1.723 1.76-.29.414-.258.477-.744.602-.11.029-.864.223-1.411 0zM237.005 249.658c-.64-.111-1.767-1.366-1.978-1.935-.463-1.248 1.043-1.3.35-2.451-.362-.6.261-.32 2.108-.471 1.967-.162 2.181-1.367 3.012-1.45.539-.054 1.746 1.005 1.977 1.45.035.068-.34.072.019.96.75 1.85-.267 1.695-1.177 3.012-.495.717-.437.78-.65.828-.412.091-3.045.142-3.661.047zM227.053 244.727c.263-.075-.91.066-1.513.066h-1.111l-.292-.527c-.123-.194-.297-.35-.443-.527-.199-.244-.111-.28-.301-1.676-.07-.51-.174-.531.075-.98.494-.888-.04-2.548.773-2.454.664.077.61.272 1.28.332.126.012 1.349-.138 1.584.001.215.128.195.955.533 1.34.198.227.194.218.292.509.27.802 1.395 1.181.668 2.607-.653 1.28-1.261.685-1.344.675-.137.217-.019.311-.258.409-.08.032-.224.03-.216.17.008.15.228.074.273.055M242.229 196.768c-.28-.15-.933-1.888-.997-2.06-.115-.305.52-3.247.422-3.993-.088-.678-.423-1.307-.513-1.985.025-.01.75.097 1.305-.603.874-1.105 2.814-1.024 2.915-.954.192.132.619 1.177.747 1.312.15.16.477.189.517.403.023.123-.385 6.511-.48 6.755-.06.157-.735.855-.836.885-.4.116-.832.042-1.245.1-1.55.219-1.57.321-1.845.15zM253.873 186.95c-1.37-.553-2.375-3.531-2.382-3.737-.01-.247.634-1.062.555-2.278l-.047-.923.583-.226c.687-.258.697-.464 1.375-.15.573.265.593-.082 3.323-.8 1.915-.505 1.998-.559 2.028-.397.108.586-.013.667.589 1.206l.706.63-.198.594c-.28.813-.345.797-.292 1.101.395 2.323.655 2.468.226 2.683-1.019.509-1.082.204-1.16.259-.055.039.132.027.189.83.01.15-.17-.031-1.549 1.08-1.04.84-3.549.27-3.927.118zM238.275 180.106c-.366-.279-.806-.446-1.186-.705-.334-.228-.689-.445-.95-.753l-.49-.575.32-.348c.446-.49.171-.577-.273-2.73-.21-1.017 1.104.6 1.564-.33.272-.55.18-2.294 3.416-1.794 1.67.258 3.17 2.456 3.53 2.852.018.216-.223.401-.205.617.02.231.23.405.31.622.384 1.034-.883 3.381-1.732 3.577-.145.033-.117-.182-1.853-.122-1.329.045-1.45.455-2.466-.32zM158.51 282.359c-1.79-1.903 3.152-9.049-1.816-16.023-3.13-4.392-6.904 29.69-9.102 9.48-.126-1.157-1.842-4.57-1.685-4.623.209-.095-2.188-4.233-2.889-4.19-3.28.202-3.141 13.11-3.718 9.536l-.114-.65-.189.83c-2.603 11.374-5.929-8.751-5.924-8.945l.048-1.157-.603-.18c-.273-.088-.198-.177-2.664-2.4l-1.222 5.49.084.856-.63.282c-1.239.545-.18 1.674-1.62 1.76-1.4.083-3.68-6.723-4.057-6.863l-.452-.15.103-1.13c.83-9.832-3.968-9.32-2.693-19.1l.17-1.28-.508-1.13c-.33-.705-1.02-19.415-8.038-24.606-3.991-2.952-4.283-1.708-4.594-1.96l-.385-.32-.49.452c-8.675 8.347-9.803 6.56-10.307 5.761-.626-.993-8.02-10.867-9.573-13.932-1.789-3.528-2.043-7.46-3.06-6.438l-.385.358.103-.828c.707-5.682.271-5.505.169-11.427l-.028-1.996.8-.753c.433-.424.923-.753 1.045-.773 5.317 0 1.797-26.379 1.254-37.532 8.632.411 8.624.083 9.686.887 4.838 3.663 5.122 3.155 5.394 3.596.205.45.873.474 1.26.782.618.49 1.72.812 1.742 1.6v.593h2.042l.047.678c.07 1.372 2.367-1.612 15.06 8.247 9.956 7.733 11.643 5.005 11.975 6.026 3.415 7.439 4.221-23.103 4.275-25.143.01-.395 1.007.069 2.109-4.47.26-.648 9.663-4.815 13.93.103 4.736 5.455 1.899 25.154 2.44 29.19.407 1.632 3.95.028 6.042 1.055 1.469.72 6.298-3.881 7.982-3.427l.876.226.339-.443c2.103-2.73 22.009-9.62 22.009-11.603v-.005c0-.125 2.092-1.082 2.278-1.168 22.944-10.493-4.221 26.771 6.583 37.765 10.344 10.526-11.768 35.942-12.781 34.343-.221-.349-.17-.36-1.562-5.602-.035-.128-.147-.02-1.064-1.271-.374-.843-5.977-8.34-9.177-2.608-7.843 14.05-2.591 15.641-3.744 16.324-.131.056-.49.424-.772.8l-.527.678.17 1.073c.083.525-1.162 5.258-.81 6.383.057.123-.809 7.05-.885 7.663-3.48 27.863-10.99 27.45-8.8 28.374l.452.198-.385.32c-1.961 1.616-1.39 4.146-3.173 2.364zm-9.865-61.07c.27-.407 3.013.473 3.68-3.249.22-1.226-1.136-1.269-1.025-2.278.115-1.05.288-1.021-.056-2.758-.247-1.244.148-1.237-.085-2.485-.23-1.232-.11-1.209-.047-3.935l.056-2.222-.772-.452c-1.36-.784-.529-3.156-1.713-3.2-1.557-.059-1.097-1.186-2.653-1.375-.408-.05-.815.108-1.224.131-1.81.102-2.912-1.494-2.59-.217.328 1.296.774 1.612-.395 2.231l-.584.32.095.895c.2 1.613-.813 1.435-.725 3.078.009.166.141.336.083.493-.177.48-.672.832-.758 1.338-.098.578.252 1.159.233 1.746-.007.196-.41.031-1.008 2.24-.518 1.913-1.078 1.58-1.3 2.233-.084.245-.542 3.226-.225 4.64.673 2.994 1.764 2.19 1.807 2.429.102.326 1.11.673 1.892-.18l.48-.526 1.525.094c1.929.064 1.908.189 3.097-.009l.848-.122.084.48c.17.78.942 1.176 1.308.668zm23.1-22.234c.704-.382 3.97.269 5.31-1.732.91-1.36 1.512-.4 2.72-1.45 3.19-2.77 2.11-3.649 3.436-4.613.26-.188.633-.143.923-.282.044-.02.026-.012.555-1.572l.31-.97-.32-1.648c-.082-.433-.865-4.565-1.647-5.262-.118-.105-.961-.858-1.42-1.374l-.405-.452-.47.33c-.26.189-2.204.041-2.204.875v.546l-1.195-.123c-5.487-.519-5.259.78-9.62 4.162-1.035.803-.453 1.243-1.43 2.08-.71.456-2.328.526-4.113 2.947-1.516 2.056-.915 2.284-1.273 3.177 1.842 2.298 2.294 2.406 2.572 2.471 1.825.432 1.458 1.352 1.71 1.434.652.212 1.391-.453 2.044-.24l3.625 1.407.875.289zm-51.206-2.636c.494-.118 1.031.117 1.525-.002.207-.05.31-.296.433-.469l.414-.555 1.788.094c2.784.112 3.232 1.196 5.101-.912.488-.55.318-.816 1.62-1.12.2-.048.578.104.61-.1.055-.372-.494-.669-.438-1.041.126-.649.682-1.162.809-1.81.12-.623-6.886-3.613-7.862-5.467-.377-.717-.435-.774-1.233-.546-.168.048-.39.231-.512.106-.37-.384-.378-1.03-.749-1.414-4.252-1.842-4.16-1.925-7.943-4.613a.54.54 0 0 0-.32-.103c-1.15.038-1.123-.052-2.005-.753-.235-.187-2.792.078-2.772-.105.049-.456.671-.556.211-.667-.317-.078-.77-.309-.978-.056-.251.305.302.878.052 1.183-.389.415-1.21.179-1.598.594-.343.366-.21.984-.337 1.47-.036.137-.09.093-1.234 1.266.333 4.163-.287 4.39 1.216 6.068.467.521-.172 1.125.415 1.846 1.398 1.72.414 2.377 2.183 3.708.162.122.319.253.452.405 1.01 1.147 1.212.827 2.21 1.508l.162.93v.82l.611-.104c1.934-.352 1.915.362 3.812.019.293-.053 3.625-.655 3.625.781.13.9-.13-.801.744-.95zM59.167 281.464c-.988-.988-1.168.777-17.46-.17-2.183-.126-4.26-2.513-5.084-2.447l-1.007.056-.602-.622c-.456-.486-1.044.443-7.06-4.443-3.401-2.764-2.447-3.695-3.548-3.888l-.433-.075-.019-1.799v-1.779l-.705-.697c-.141-.136.365-.253-.97-2.25-.65-.744-5.26-18.288-1.695-16.728l.82.33.093-.424c.213-.93 29.435 28.56 9.705 4.21-5.917-7.303-9.127-19.68-10.1-20.634l-.583-.594.028-1.224c.012-.517-1.523-.01-1.79-6.213-.02-.48.037-1.27-.432-1.374l-.452-.095.32-.527c.988-1.622.28-3.794.603-5.666.24-1.398 2.004-1.957.508-1.957h-.006c-.382 0 .528-.298.787-4.707 1.08-18.364 5.502 11.521 6.665 10.834 1.548-.913 2.05-1.972 2.155-2.194l.31-.677-.385-.282c-.433-.339 1.183-5.442.263-6.45l-.405-.442.405-.857c1.068-2.4-3.501-18.025-7.21-22.433-19.485-23.156-16.45-25.228-18.214-27.16l-.527-.554.264-.471c.016-.028-3.129-14.048-3.322-14.564L0 137.141l2.758 1.854h.678l-.047.678c-.028.376 0 .903.047 1.196l.094.499.697-.095c.428-.06.782.463.979.848 1.383 2.7 1.54 2.594 1.572 2.852l.104.781 1.233-.075c9.555-.6 1.096-9.884.235-12.246-4.593-12.597-1.422-12.872-2.184-26.255 4.788-15.16 5.752-14.75 5.61-16.108l-.048-.998 1.196-.367-.103-.781c-.107-.838 3.715-4.732 3.99-5.894.207-.878.155-.728.856-1.261.962-.908.729-.968 10.232-12.991l.386-.509-.217-1.525-.235-1.534.34-.301c3.226-2.896-1.764-22.793-1.338-22.668 11.619 3.402 11.512 13.978 10.91 26.79-.552 11.798-6.322 17.185-7.475 18.262-10.273 9.593-6.767 15.176-8.388 16.052l-.574.3.122 1.677c.414 6.062-.52 6.044 1.808 11.503 2.793 6.548 14.047 14.588 10.458 4.395-1.674-4.754-.66-6.414-.913-6.552-.231-.16 1.244-.115.405-3.492l-.17-.678.536-.47c.285-.235 1.01-3.421 1.336-3.522 3.226-.99 1.81 8.567 9.62 16.05 7.159 6.863 12.813 9.178 12.639 10.187l-.084.499.725-.02c1.975-.052 7.288 10.195 7.096 11.882l-.103.677.555.048c1.207.097-.563 1.403 6.975 13.433.627 1.4.42 1.478.528 1.553l.583.395-.216.556c-1.912 4.7 1.247 4.9-.142 9.95-.296 1.075-2.827 10.28-1.638 13.848 2.122 4.634-7.017 4.314-4.838 37.964.485 7.49 2.616-.95 2.674-1.177.656-2.602 5.248 3.734 4.027 6.59-.104.179.047.424.536.97l.687.706-.085 1.082c-.425 4.207.486 8.537.64 9.264 1.48 7.024 1.003 7.104 5.252 12.849.428.033 4.215.33 5.347-.366 5.509-4.624 5.213 11.395 6.092 17.142.26 1.7 8.726 10.418.623 9.358-27.23-3.562-31.138 3.716-33.124 1.375zm-9.777-80.886c4.632-11.813 3.551-12.038 3.78-18.036.146-3.781 4.463-5.79 4.698-6.25 1.88-3.675-1.907-20.868-1.875-21.123l.095-.744-.895-1.054c-.568-.662-1.992-8.446-18.437-11.786-1.629-.33-7.973 4.427-7.888 5.309l.095.678h-.48c-3.651 0-10.378 14.356-4.171 29.538.763 1.866.238 3.99 1.817 4.641 3.119 1.284 3.176.693 6.947.791 2.54.067 4.842 11.131 5.056 12.162 4.314 3.2 4.02 4.678 5.93 3.774 1.488-.703.504.681 1.11 2.166 1.115-.017 2.228.149 3.342.132.3-.005.786.087.876-.198m3.979 56.065c.363-.194 9.685-1.334 7.409-9.255-1.118-3.888.122-3.803 1.04-7.743.111-.255 1.621-.014.824-1.907-.25-.592-.002-6.062-.292-8.924-1.314-4.03-1.696-3.74-4.647-8.366-.306-.517.115-1.274-.192-1.791-.256-.433-1.056.365-4.227-4.66-.056-.123-.273-.273-.508-.33a3 3 0 0 1-.725-.404c-.443-.433-1.243-.14-1.826-.349-.102-.036-1.034-.898-2.796-.922l-1.666-.028-.424.602c-.256.363-8.134 3.854-10.233 13.51-2.26 10.402 1.846 13.898 2.255 14.76 1.453 3.06-1.387 7.4 7.13 8.472 2.298.29 4.72 3.652 4.235 4.425l-.273.48.32.329c.28.291 2.858 2.987 4.594 2.08z"/><path d="M51.213 247.907c-.04-.048-.72-.54-.365-2.459.03-.167.343-.624.833-.61.169.005 2.746.5 2.84.666.09.155.036 1.39-.023 1.603-.027.1-.656.556-1.285.755-.024.007-.785.11-1.133.375l-.368.282-.489-.622zM45.424 244.34c-.344-.327-2.38-.1-2.456-.149-.204-.133-.15-.162-.245-.378-.385-.872-2.643-1.098-2.581-1.968.135-1.913.733-2.676.798-2.909.48.03.465.146 1.405.085 1.612-.106 1.718-.565 3.107.282 1.522.928 1.518-.045 1.85-.338.068.155.375.093.443.248.053.122.29 2.187.13 2.91-.183.828-2.202 2.43-2.451 2.207zM55.411 237.582c-.08-.067.09-.148-.536-1.177-.517-.85-.307-.922-.5-1.587-.03-.107-.095-.2-.15-.296-.284-.49-.114-.666-.132-.768.274-.091.592.064.866-.028.126-.042.18-.206.216-.333.105-.379.095-.783.2-1.162.14-.07.325.004.465-.066.256-.13.445-.368.69-.52.325-.202.377-.106.556.223.26.482 1.108.252 1.716 1.163.552.832.053 1.358.06 1.381.12.371.486-.004.594.376.433 1.513-.576 1.087-.982 1.328-.184.108-.136.293-.55.515-.478.256-1.077.896-1.204.957-.216.104-1.22.064-1.28-.006zM43.165 192.466c-.12-.02-.25-.07-.328-.163-.233-.29-.342-.667-.576-.957l-1.183-.326c-.08-.692.116-1.4.034-2.094-.01-.093-.488-.617-.385-1.78.036-.407.209-.797.218-1.206.009-.413-.679-2.53-.496-2.573.272-.064.533.294.805.23-.008-.384.111-.764.103-1.148-.002-.119-.146-.213-.134-.33.044-.416.254-.804.297-1.22l2.182-.72.469 1.416c.596.236.776-.188 1.94.769 1.456 1.196.892 1.579 1.158 1.845.528.407.605 1.217.689 1.878.11.871-.226 1.76-.115 2.631-.22.237-.562.337-.782.574-.117.126-1.048 1.126-1.292 1.72-.108.265.031.592-.078.858-2.112.686-2.267.602-2.526.566zM32.19 178.968c-.706-.649-1.664-.468-1.806-.6-.38-.358-.128-1.344-1.621-2.902-.162-.169-.389-.274-.522-.466-.28-.4.582-3.406 1.247-4.043.022-.021.004-.007 1.694-.98 1.695-.973 2.512-.024 2.812.075.196.064.19.011 2.567.158.184.604.86.467.88 2.902.019 2.155-.003 2.198-1.205 3.968-.118.173-.889.281-.96.312-.457.193-1.7 1.73-1.777 1.778-.255.158-.994.08-1.3-.212zM48.022 176.285c-.187-.101-.19-.38-.31-.555-.833-1.226-1.815-1.052-2.158-1.73-.244-.48-.565-5.335-.082-6.3.26-.52-.082-.827-.085-.856l1.703.188c.575-.052.036-.693 1.26-1.43.32-.194 1.184.144 2.913-.113l2.001 1.224.12.374c-.018.343-.403.6-.42.944-.022.4 1.031 2.188 1.012 2.261-.091.36-.448.613-.547.972-.183.663-.114 1.375-.284 2.04-.047.186-.346-.08-1.64 1.74-.537.754-.478 1.023-1.381.89-.411-.062-.775-.322-1.187-.383-.277.226-.389.617-.666.843-.069.056-.175-.047-.248-.098zM164.798 164.067c-4.08-2.022-4.343-4.552-3.88-23.458.198-8.141-25.709-6.378-27.08-4.765l-.452.547.198.724c.556 1.84-.288 1.698-.913 24.006-.016.58-4.464 4.842-7.221-.82l-.292-.668-1.027.103c-3.458.356-36.017-17.282-40.192-20.68-2.983-2.427-22.954-11.324-23.13-11.947-.142-.857-2.352-.625-2.352-14.317 0-4.6.498-4.914.876-6.75.591-2.88.023-13.11.227-13.245l.338-.226-.263-1.873c-.251-1.805.108-1.658.706-22.762.02-.738.176-6.195 4.084-8.275 3.41-1.814 6.357-7.598 6.6-7.598h.489l-.104-.677c-.081-.673 4.282-3.342 5.817-5.705 6.521-10.043 2.524 21.814 3 39.31.541 19.818 12.214 18.848 22.096 28.045l.677.621.584-.245c.942-.376 1.581.02 1.74 1.082l.095.556 1.092.028c5.777.27 17.649 13.434 19.983 9.659 2.808-4.542.766-5 2.138-12.624.131-.731 1.522-8.462.932-9.235-.246-.54 1.697-37.25.771-38.782l-.489-.772.32-.923c1.82-5.348-.852-7.951 5.056-23.214.461-1.19 5.074-13.106 7.06-14.298 1.865-1.554 6.05-12.612 6.495-12.69.717-.124 7.249-1.257 9.055-.79l.659.18.019.743c.018.576.132 4.172 2.87 6.6.78.693.954 3.55 1.42 3.634l.443.103v2.448l.508-.056c.271-.02.147-.04 2.919 6.89 3.86 9.651 3.264 9.931 3.982 10.467 5.167 5.193 2.354 25.834 1.722 33.853-.317 4.003-3.888 49.259-1.98 50.153 8.955 5.97 8.927-1.63 34.93-10.008 1.648-.53 13.677-10.846 15.278-11.814l.489-.302.094-1.43c1.203-19.904-.306-20.31.263-21.01 1.17-1.17-.386-2.57.103-8.699.046-.565.53-6.643.197-7.08l-.292-.404.32-.254c.142-.132.428-7.92.293-8.218-.434-.745 1.107-.572.565-10.76-.09-1.703.651-1.085 4.82-1.827 2.666 4.242 8.137 14.544 14.495 21.661 5.205 5.828-2.824 8.588 2.58 14.166l.385.396-.367.405c-2.315 2.586 1.157 3.352-2.71 43.312-.325 3.361-13.416 9.643-14.939 9.848-1.912 0-3.3 1.935-5.008 2.795-2.889 1.453-2.889 1.42-2.88 1.496l.055.546-.574-.094c-1.494-.313-12.806 4.43-13.893 4.885-5.073 2.127-13.538 7.966-14.052 7.88-.298-.008-.124-.03-4.735 2.231-20.102 9.852-20.154 10.203-20.84 9.829z"/><path d="M139.223 133.795c0-.122-.056-.226-.15-.226-.076 0-.151.104-.151.226s.075.226.15.226c.095 0 .151-.103.151-.226"/></svg>