<svg xmlns="http://www.w3.org/2000/svg" width="291" height="300" viewBox="0 0 291 300"><title>grand-alliances-death</title><path d="M235.884 287.831c-.103-.319-.216-.347-1.116-.356-1.125-.019-2.372-.272-3.019-.619-.234-.122-.572-.178-.741-.131-.187.047-.487-.047-.75-.206-.525-.356-1.078-.375-2.053-.075-.394.122-1.022.206-1.369.197s-1.087.028-1.631.094c-.938.122-1.022.103-1.547-.253-.384-.281-.788-.422-1.378-.469-.862-.056-1.275-.272-1.275-.647 0-.169-.075-.197-.244-.122-1.153.497-2.709.122-4.556-1.097-.384-.272-.647-.328-1.059-.253a2.1 2.1 0 0 1-1.088-.169c-.309-.15-.891-.244-1.378-.225-.469 0-.975-.056-1.116-.131s-1.256-.15-2.447-.169c-1.791 0-2.259.028-2.531.225-.441.319-.872.3-1.322-.056-.394-.328-.975-.394-1.406-.15-.291.15-.9.094-3.647-.394-1.659-.281-2.006-.272-2.109.056-.262.825-.272.844-.534.572-.272-.3-.572-.197-.506.178.028.206-.075.253-.534.253-.319 0-.684.075-.797.15-.113.094-.844.15-1.594.15h-1.378l.028.506c.019.478 0 .497-.441.394-1.519-.319-2.147-.206-2.147.375 0 .272-.131.3-1.406.328-1.35.047-1.406.056-1.5.403-.15.628-.506.741-.984.272-.441-.441-1.078-.544-1.322-.206-.872 1.125-.994 1.219-1.781 1.322a11 11 0 0 0-1.369.272c-.722.178-4.266.047-4.397-.197-.15-.244-.047-1.491.15-1.725.084-.103.525-.403.938-.666.609-.356.844-.591 1.069-1.116.234-.572.309-.647.628-.553.403.103.966-.356.966-.825 0-.347.722-.844 1.453-.994.581-.131 1.406-.741 1.528-1.116.047-.15.216-.347.412-.45 1.041-.572 2.25-1.613 2.428-2.062.094-.206.309-.356.656-.422.647-.131.75-.394.422-.919-.272-.441-.291-.403.319-.722.506-.272 1.228-1.425 1.228-1.969 0-.178-.103-.469-.216-.628-.319-.45-.262-.769.197-.928.553-.197.872-1.266.628-1.997-.131-.403-.122-.544.103-.797.441-.544.75-1.247.75-1.697 0-.497.534-1.65.919-1.997.234-.197.272-.553.338-2.784.075-2.569.347-4.509.741-5.109.216-.347.244-1.528.056-2.091-.197-.544.15-.825.525-.403.188.206.338.253.487.169.384-.244.872-.169 1.2.197.45.478 1.069.853 1.406.853.216 0 .291.103.291.441 0 .506.272.816.581.619.384-.253.938-.169 1.481.225.291.206.647.375.769.375s.384.103.572.225c.319.225.384.206.891-.15.309-.206.647-.375.75-.375.113 0 .309-.169.422-.356.319-.497.684-.619.9-.3.169.253.234.225.722-.253.272-.281.609-.741.713-1.003.216-.506.844-1.153 1.284-1.313.169-.056.244-.253.244-.6 0-.328.131-.647.366-.919.684-.769.862-2.288.366-3.272l-.272-.591.431-.394c.506-.45.534-.666.141-1.172-.159-.206-.291-.469-.291-.572s.347-.506.769-.9l.75-.722-.028-.891c-.028-.666.019-.9.169-.966.262-.103.291-1.125.047-1.387-.131-.131-.103-.3.103-.694.272-.525.272-.544-.047-1.491-.178-.544-.319-1.041-.319-1.125s.234-.197.506-.244c.647-.131.797-.497.703-1.5-.094-.675-.056-.741.441-1.153.666-.572.769-1.003.891-3.497.094-1.912.094-1.95.525-2.419.487-.525.534-.778.216-1.219-.112-.15-.216-.506-.216-.769 0-.469.028-.497.487-.497.488 0 .506.028.891 1.097.309.872.488 1.153.956 1.5.319.225.609.525.656.675.047.131.188.506.319.825.197.525.262.553.675.469.244-.047.684-.319.966-.591s.684-.572.919-.666c.347-.131.384-.244.384-.816 0-.694.262-1.078.787-1.172.628-.122.787-.694.891-2.916l.075-2.1.459-.394c.45-.394.469-.422.291-1.022-.169-.572-.216-.619-.703-.619-.45 0-.506-.047-.469-.328.028-.244.197-.394.553-.506l.506-.178v-1.472c0-.825.056-1.594.15-1.716.075-.122.131-1.453.15-2.963 0-2.512.028-2.747.272-2.944.234-.178.262-.319.169-.853-.056-.356-.019-1.144.075-1.725l.169-1.078-.403-.544a1.82 1.82 0 0 1-.45-1.191c-.056-1.313-.291-2.325-.609-2.747-.291-.375-.319-.544-.234-1.275.056-.544.028-.975-.075-1.191-.103-.178-.188-.647-.216-1.022-.028-.525-.131-.816-.412-1.097-.291-.3-.394-.628-.525-1.575-.094-.666-.141-1.5-.141-1.875.028-1.041-.178-1.847-.553-2.222-.291-.281-.347-.478-.338-1.2 0-.591-.094-1.05-.291-1.491-.403-.825-.384-1.266.056-1.697.45-.441.431-.9-.047-1.144-.431-.206-.431-.356 0-.572.188-.094.459-.478.647-.844l.309-.675-.441-.403c-.338-.347-.412-.506-.338-.844.262-1.247.262-2.259.019-2.709-.244-.441-.244-.478 0-1.022.169-.403.234-.75.169-1.275-.113-1.003.103-1.725.553-1.847.262-.075.366-.197.366-.478 0-.197-.103-.403-.216-.45s-.216-.225-.216-.394c0-.281.056-.3.703-.206.872.122 1.041-.056 1.378-1.313.122-.497.384-1.041.572-1.219.431-.422.984-1.125.984-1.219 0-.047-.103-.075-.216-.075s-.272-.122-.347-.272c-.216-.422-.178-1.866.066-2.259.272-.45.647-1.847.647-2.494 0-.347.131-.619.441-.919.572-.553.6-1.219.075-1.425-.581-.225-.488-.422.506-1.097.488-.328.506-.375.628-1.613.094-.928.169-1.322.347-1.425.122-.075.506-.403.825-.703.647-.591.628-.506.169-1.641-.066-.169.15-.441.787-.947.609-.497.919-.853.975-1.153.047-.244.169-.441.244-.45.319-.019 1.013-1.05.994-1.491 0-.319.112-.553.422-.825.244-.206.488-.375.572-.375.047 0 .159-.244.197-.525.056-.281.216-.6.366-.703s.309-.394.366-.647c.047-.244.384-.722.722-1.05.666-.675.966-1.228.966-1.875 0-.469.319-.75.844-.75.197 0 .272-.075.234-.253s.188-.619.553-1.116c.506-.694.731-.872 1.134-.928.272-.028.6 0 .703.094.131.103.169.028.169-.328 0-.375.103-.544.441-.741.262-.15.506-.469.6-.778.103-.281.272-.675.394-.872.244-.394 1.303-.994 2.025-1.153.572-.122.722-.319.478-.6-.244-.319.412-1.191 1.041-1.425.366-.122.572-.347.816-.872.169-.394.319-.853.319-1.041 0-.366.262-.441 1.191-.366.309.028.534-.122.994-.619.319-.366.581-.797.581-.994 0-.469.919-1.387 1.369-1.387.197 0 .609-.169.9-.375s.628-.375.75-.375c.103 0 .319-.206.459-.45s.534-.703.872-1.003c.6-.506.647-.525 1.472-.45.722.094.947.047 1.547-.281.384-.206.938-.591 1.238-.825.319-.253.722-.441.975-.441.469 0 1.191-.497 1.191-.825 0-.244 1.106-1.275 1.369-1.275s1.059-1.041 1.181-1.547c.075-.244.197-.403.366-.403.319 0 .731-.469.731-.853 0-.178.272-.553.628-.891.722-.675.966-1.05.975-1.594 0-.225.075-.75.169-1.172.113-.6.234-.797.506-.9.459-.197.441-.591-.094-1.097-.291-.281-.441-.572-.441-.853 0-.572.188-.666.722-.375.244.122.675.225.947.225.581 0 .741.319.403.853-.309.506-.169.975.431 1.294.403.206.6.469.816 1.069.628 1.622.75 2.288.6 2.888-.075.3-.103.769-.075 1.022.047.253 0 .853-.094 1.322-.197 1.116-.056 1.322.703 1.041.534-.197.534-.197 1.256.478.366.328.394.328 1.041-.122.347-.244.816-.403 1.369-.45.469-.047.863-.103.872-.122.441-.544 1.228-1.875 1.228-2.072 0-.131.234-.45.506-.694.431-.366.506-.506.534-1.097 0-.375.075-.75.131-.844.075-.094.169-.497.216-.9s.141-.994.234-1.303c.15-.506.131-.6-.169-.928l-.347-.394.319-.094c.422-.103.75-.853.741-1.697 0-.375-.019-1.791-.019-3.159-.019-1.369-.028-2.747-.047-3.084s-.028-.975-.047-1.444c-.028-.769-.094-.891-.722-1.65l-.722-.816.272-.45c.347-.6.337-.722-.169-1.303-.403-.441-.45-.591-.403-1.322.028-.844-.216-1.5-.572-1.5-.094 0-.188-.15-.216-.328-.028-.253-.188-.375-.581-.469s-.553-.206-.553-.403c0-.469-.169-.75-.431-.75-.15 0-.45-.225-.684-.506-.216-.272-.553-.591-.75-.675-.188-.103-.366-.375-.422-.628-.047-.253-.188-.497-.319-.553-.319-.131-.872-.816-.891-1.116 0-.131-.188-.394-.441-.572-.262-.197-.441-.45-.441-.647 0-.225-.15-.394-.441-.525a1.8 1.8 0 0 1-.609-.525c-.094-.178-.272-.422-.441-.525-.272-.206-.347-.703-.131-.853.094-.047.094-.272-.019-.572-.216-.647-.394-.853-.722-.853-.216 0-.272-.103-.272-.506 0-.347-.103-.572-.309-.703-.188-.131-.319-.441-.384-.891-.056-.375-.216-.853-.384-1.078-.216-.3-.262-.525-.188-.928.103-.525-.234-1.444-.525-1.444-.188 0-.131-.722.075-.797.131-.047.131-.103 0-.281-.197-.244-.488-2.016-.553-3.281-.131-3.234-.244-4.069-.628-4.528-.319-.403-.347-.544-.272-1.294.047-.478.028-1.153-.056-1.547-.197-.994.094-1.837.731-2.025.609-.197.75-.703.309-1.2-.338-.375-.319-.506.188-1.078.262-.319.272-.356.047-1.519-.122-.647-.234-1.716-.234-2.344 0-.994.056-1.228.384-1.744.244-.375.506-.6.741-.628.525-.056.891-.75.684-1.294-.122-.356-.113-.45.178-.675.188-.15.309-.356.262-.478-.047-.103.141-.647.431-1.172.6-1.097.656-1.453.244-1.453-.394 0-.553-.3-.262-.525.122-.094.272-.356.338-.619.122-.506.291-.666.75-.666.169 0 .441-.122.581-.272.131-.131.422-.328.628-.441.216-.094.525-.45.703-.844.347-.741.656-1.069 1.116-1.219.169-.056.487-.3.722-.553s.553-.619.731-.797c.169-.169.384-.469.459-.628.122-.225.431-.394.938-.506.984-.244 1.238-.375 1.35-.741.075-.244.188-.281.628-.225 1.706.244 1.688.206 1.856 1.603.094.703.075.853-.103.853-.131 0-.413.15-.628.328-.366.281-.394.394-.319 1.05.094.675.075.722-.234.722-.553 0-1.275 1.041-1.275 1.819 0 .319-.103.628-.216.741s-.216.403-.197.666c.028.75-.309 2.222-.581 2.597-.413.506-.413 3.309-.019 4.106.272.572.291.6.019.741-.291.169-.488 1.078-.488 2.344 0 .422-.056 1.772-.131 3.038-.131 1.997-.113 2.325.094 2.634.141.197.234.647.234 1.125 0 .6.103.966.45 1.566.488.872.628 1.8.319 2.419-.244.506-.234.525.075.6.216.056 1.191 2.194 1.191 2.644 0 .272.6.553 1.162.553h.506l.075.853c.094 1.003.488 1.669 1.059 1.744.216.028.394.103.394.178 0 .122.478.628 1.444 1.547.234.225.6.469.816.553.384.15.656.675.656 1.228 0 .319.966 1.294 1.481 1.5.244.103.338.375.272.844-.019.103.309.591.703 1.069.488.591.75 1.022.75 1.275 0 .572.366 1.228.722 1.341.262.075.309.178.272.891-.047 1.003.169 1.453.647 1.369.534-.103.722.272.656 1.35-.094 1.116.047 1.453.862 2.316.572.6.609.694.703 1.772.094.919.159 1.172.384 1.294s.262.253.197.525c-.113.469.103.891.797 1.537.525.497.553.544.469 1.247-.075.628-.028.816.319 1.322.366.553.384.647.234 1.35-.103.525-.103 1.003 0 1.622.094.469.113 1.097.094 1.397-.047.281 0 .769.103 1.05.103.319.131.741.056 1.05-.056.281-.028 1.172.075 1.95s.159 1.8.131 2.269c-.019.6.028.9.188 1.041.319.281.272.853-.094.947-.244.075-.291.197-.291.891-.019 1.453-.047 2.025-.216 2.241-.15.206-.169 2.494-.047 6.309.047 1.819.047 1.912-.319 2.475-.506.797-.6 1.228-.366 1.941.188.553.188.619-.056.703-.347.131-.488.375-.469.9 0 .253-.131.722-.291 1.041a3.55 3.55 0 0 0-.309 1.388c-.019.553-.113.928-.347 1.294-.188.281-.338.553-.338.619s-.188.197-.441.281c-.45.15-.488.272-.431 1.191.019.422-.084.591-.647 1.097-.534.478-.675.703-.675 1.097 0 .253-.094.6-.197.769s-.234.478-.272.694c-.056.225-.216.441-.384.478s-.319.253-.384.525c-.047.253-.197.544-.309.647-.113.094-.197.281-.197.422s-.291.553-.656.919c-.384.375-.656.797-.656.994 0 .178-.103.403-.216.506s-.216.253-.216.347-.122.319-.309.497c-.366.403-.272.591.413.891.487.206.506.244.272.497-.244.281-.309.891-.113 1.172.056.094.244.253.441.347.197.122.309.272.262.403s.019.206.188.206c.534 0 1.209.347 1.322.694.075.197.244.356.394.375.141 0 .609.056 1.031.122l.75.103v-.45c.019-.356.131-.572.534-.872.291-.244.684-.422.872-.422.234 0 .337-.094.337-.281 0-.15.103-.356.216-.469s.216-.319.216-.478c0-.169.197-.394.441-.544.234-.131.441-.356.441-.478s.159-.591.366-1.022c.197-.45.366-.947.366-1.116 0-.197.169-.356.553-.525.431-.169.647-.394.872-.891.169-.375.319-.769.319-.9s.234-.328.525-.45c.441-.197.553-.197.656-.028a.8.8 0 0 1 .131.281c0 .056.169.15.366.197.413.103.506.675.169.975-.15.131-.169.666-.15 2.447.047 1.875.019 2.325-.159 2.522s-.188.347-.075.666c.216.6.169 1.247-.075 1.35-.113.047-.216.244-.216.45 0 .328-.384.919-1.05 1.622-.319.328-.319.328-.338 1.997 0 1.266-.019 1.35-.309 1.397-.403.056-.525.525-.244.919.319.478.188 1.078-.309 1.369-.534.3-1.209 1.453-.975 1.697.084.094.159.356.159.591 0 .328-.113.497-.506.741s-.506.403-.506.75c0 .3-.113.506-.384.675-.272.197-.366.356-.337.722.047.591-.094.844-.469.844-.15 0-.272.094-.291.197-.047.947-.122 1.35-.319 1.575a.9.9 0 0 0-.244.544c0 .253-.6.947-1.369 1.566-.694.553-1.134 1.247-.938 1.491.244.319-.291.975-.975 1.219-.731.253-.947.572-.919 1.369.019.45-.047.703-.197.825-.131.094-.384.272-.553.394s-.422.3-.534.375c-.112.094-.234.469-.272.825-.056.741-.506 1.228-1.622 1.838-.534.272-.628.394-.628.797 0 .422-.094.525-.656.844-.656.356-1.191 1.069-1.716 2.297-.244.544-.291.572-.75.497-.741-.122-.9.056-.684.769.178.544.178.619-.103.9-.169.178-.572.394-.9.497-.412.122-.609.281-.675.506-.047.178-.628.825-1.303 1.444-.666.6-1.369 1.369-1.538 1.716-.384.703-.525.825-.984.825-.347 0-.938.572-2.25 2.175-.347.422-.75.741-.994.778-.272.056-.478.244-.647.591-.169.375-.337.506-.581.506-.216 0-.572.206-.872.525-.272.281-.572.525-.656.525-.234 0-.488.741-.319.919.272.281.047.722-.45.816-.9.206-1.903 1.594-2.072 2.897a2.5 2.5 0 0 1-.272.825c-.15.244-.169.478-.094.778.131.525-.309 1.35-.769 1.491-.234.056-.244.169-.169.975s.075.9-.197 1.069c-.272.15-.291.253-.216 1.022.056.469.141.928.188 1.003.056.094.094 1.041.094 2.1-.019 1.575-.056 2.025-.262 2.344-.131.206-.244.544-.244.75.019.197-.056.928-.131 1.641-.15 1.228-.131 1.294.197 1.838.384.591.478 1.228.216 1.397-.244.169-.159.9.15 1.172.319.281.384.853.131 1.35-.103.178-.197 1.144-.197 2.213-.019 1.041-.075 2.063-.15 2.287-.084.347-.028.497.338.872.609.628 1.228.6 1.959-.075.553-.497.553-.506.309-.9-.347-.553-.103-1.097.553-1.153.506-.047.506-.047.309-1.05-.047-.272.028-.544.262-.853.291-.403.347-.441.572-.244.384.375.722-.197.722-1.266 0-.497.075-1.078.169-1.322.113-.328.262-1.912.272-3.094 0-.056.169-.197.384-.281.366-.178.384-.225.291-1.069-.075-.778-.047-.947.366-1.697.384-.675.45-.928.384-1.444-.075-.619-.056-.666.787-1.491.459-.469.863-.928.863-1.022s.113-.169.262-.169.197.047.094.122c-.094.056-.244.272-.347.478-.169.347-.15.403.534 1.05.628.591.75.778.806 1.387.047.45.019.769-.103.9-.347.375-.384.844-.103 1.144.169.169.366.319.459.356.15.047.15.272 0 1.097-.103.591-.169 1.266-.159 1.528 0 .272-.047.506-.113.553-.056.047-.094.422-.047.825.028.403 0 .947-.094 1.172-.103.328-.084.544.056.816.131.253.169.75.131 1.725-.056 1.2-.047 1.416.216 1.762.366.478.366.778 0 1.05-.272.197-.272.206.019.778.291.553.291.6.047 1.491-.131.506-.262 1.078-.272 1.294-.047.506-.366 1.669-.553 2.025-.103.169-.169.628-.188 1.022-.019.553-.103.816-.403 1.125-.272.319-.384.572-.384 1.022 0 .347-.141.853-.366 1.266-.975 1.8-1.209 2.372-1.191 2.887.019.591-.384 1.078-1.013 1.266-.272.075-.337.197-.337.647 0 .3-.056.619-.113.694-.197.319-.9.675-1.275.675-.338 0-.366.047-.262.347.122.356.122 1.153-.019 1.697-.047.197-.272.394-.525.497-.244.075-.487.319-.581.525-.075.206-.262.441-.412.525-.272.15-.506.628-.684 1.425-.047.225-.384.703-.722 1.069-.581.572-.656.703-.656 1.322 0 .506-.084.797-.384 1.153-.216.253-.347.506-.291.553.159.169-.234.497-.581.497-.262 0-.347.094-.347.319 0 .197-.169.375-.487.506-.469.197-.488.253-.581 1.219s-.131 1.041-.787 1.622c-.384.328-.938.9-1.275 1.247s-.722.647-.872.675c-.234.047-.272.15-.244.572.028.478-.028.572-.769 1.125-.45.328-1.013.675-1.275.769-.394.131-.469.244-.506.722-.047.45-.15.619-.553.872-.384.225-.487.403-.487.722a.88.88 0 0 1-.291.647c-.141.103-.338.478-.403.825-.094.347-.291.75-.487.9-.525.45-.272.778.6.816 1.594.056 1.519.094 1.669-.478.131-.469.197-.525.656-.544 1.041-.047 1.528-.272 1.575-.703.047-.328.113-.403.441-.403.478 0 .628-.103.975-.694.553-.919 1.341-1.669 1.819-1.772.262-.047.581-.225.703-.403.103-.169.309-.281.431-.253.384.056.609-.169.609-.591 0-.281.216-.6.731-1.097.403-.394.722-.778.722-.891s.431-.394.947-.628c.741-.356.966-.553 1.041-.853.131-.694.291-.853.75-.825.366.028.488-.047.703-.403.234-.403.319-.441.797-.356.647.103.825-.122.441-.497-.272-.272-.272-.272.244-.253.291.019.609.028.703.047.216.019.338.816.459 3.122.075 1.425.169 1.894.347 2.091.234.244.234.272.019.441-.178.131-.234.403-.216.947.019.647-.047.797-.347 1.003-.319.206-.347.328-.338 1.172.028 1.144-.131 1.922-.431 2.147-.141.122-.216.394-.197.853.028.666.019.694-.488.853s-.506.197-.422.769c.056.375.047.591-.056.591-.366 0-.647.497-.553.975.103.553-.169.9-.609.769-.234-.075-.338.028-.553.619-.141.403-.244.9-.216 1.125a.9.9 0 0 1-.244.675c-.169.15-.366.544-.45.872s-.197.675-.262.769c-.15.225-1.059 1.369-1.369 1.716-.159.178-.187.347-.103.6.103.3.028.45-.459.975-.319.328-.581.675-.581.769s-.169.319-.366.506c-.197.197-.366.45-.366.553 0 .122-.103.403-.216.647-.187.375-.338.441-1.041.544-.675.075-.825.169-.938.45-.216.572-1.519 1.228-2.653 1.35-.844.094-.994.131-.994.394 0 .15-.103.45-.234.647-.188.3-.366.375-.816.375-.347 0-.806.131-1.078.319l-.487.319-.45-.394c-.628-.544-.994-.497-1.659.225-.825.872-1.547 1.219-2.297 1.116-.797-.103-1.322.281-1.341 1.003v.497l-.947-.047c-.525-.028-1.003-.122-1.078-.197-.216-.206-1.013-.169-1.341.094-.384.3-.478.281-.628-.103zm2.747-.272c0-.075-.131-.15-.291-.15s-.291.075-.291.15c0 .094.131.15.291.15s.291-.056.291-.15m-8.822-24.037c.15-.169.609-.478 1.059-.703.441-.244.966-.619 1.153-.853a5.9 5.9 0 0 1 1.631-1.322c.197-.103.384-.422.469-.75.113-.45.272-.619.797-.891.487-.244.722-.478.9-.919.244-.591.262-.6.984-.6 1.856 0 3.684-.122 4.134-.272.487-.15 1.041-.572 1.041-.778 0-.056.169-.394.394-.722.347-.553.403-.6.628-.394.45.422.938.075 1.162-.816.15-.544.45-1.078 1.059-1.819.966-1.191 1.256-1.95.862-2.363-.234-.225-.216-.244.075-.169.478.131.787-.197.862-.928.113-1.041.197-1.35.366-1.35.075 0 .309-.103.487-.244.338-.225.347-.272.141-.666-.338-.666-.262-1.041.272-1.566.675-.628 1.041-1.594.844-2.194-.122-.375-.113-.506.169-.853.197-.244.384-.572.441-.75s.188-.403.309-.497c.309-.272.291-2.419-.019-3.094-.188-.403-.197-.591-.056-1.041.188-.591.056-3.469-.169-3.619-.066-.047-.122-.347-.122-.666 0-.469-.075-.647-.366-.844-.188-.131-.384-.375-.441-.525-.047-.169-.262-.45-.459-.647-.338-.328-.347-.403-.197-.891.169-.525-.019-1.313-.309-1.313-.056 0-.216-.225-.347-.478-.169-.347-.431-.6-.919-.816-.656-.3-.722-.394-1.003-1.247-.366-1.116-1.059-2.063-1.594-2.194-.488-.103-1.566-1.097-2.203-2.025a15 15 0 0 0-1.256-1.528l-.787-.844-.825.3c-.769.281-.862.3-1.238.056-.581-.347-.938-.3-1.519.225-.403.375-.6.45-.947.394-.234-.056-1.041 0-1.838.122-.769.122-1.594.225-1.819.225-.506 0-1.238.441-1.406.825-.075.169-.319.403-.553.525-.609.319-1.95 1.819-1.95 2.194 0 .169-.197.45-.431.628s-.469.525-.525.778c-.056.244-.272.572-.487.741-.338.244-.384.375-.338.825.047.403 0 .544-.141.544-.113 0-.366.169-.553.375s-.422.375-.534.375c-.103 0-.187.075-.187.178 0 .272-.45.722-.741.722-.412 0-.45.244-.188 1.041l.262.741-.684.778c-.384.441-.731.928-.769 1.116-.047.169-.291.45-.534.628-.262.169-.45.375-.431.45s.075.328.122.544c.084.347.047.441-.272.591-.384.197-.506.694-.216.994.141.15.122.75-.103 2.916-.047.647-.028.872.15 1.022.319.281.291 1.022-.047 1.2-.506.281-.338 3.938.197 4.444.347.328.469 1.172.244 1.772-.169.478-.187.6 0 .825.506.647.703 1.397.703 2.813 0 .769.075 1.594.15 1.819.131.347.103.497-.216.966-.262.394-.384.825-.459 1.547-.047.553-.169 1.078-.272 1.172-.272.225-.262 1.791 0 2.325.122.225.431.497.656.6.244.103.45.3.45.441 0 .441.534.825 1.022.741.525-.122.872.131.872.619 0 .328.525.975 1.425 1.762.441.375.553.403 1.378.328.487-.047 1.106-.019 1.341.075.684.225 1.022.197 1.303-.122zm9.282-50.091c.056-.103.122-.469.122-.778 0-.6.291-.975.741-.994.131 0 .347-.281.506-.628l.272-.647 1.603-.15c1.228-.122 1.716-.225 2.128-.497.291-.178.675-.328.825-.328.197 0 .319-.103.347-.328.028-.206.234-.45.534-.6.647-.328 1.322-1.003 1.322-1.322 0-.206.216-.394 1.284-1.05.703-.441.75-.919.244-2.287-.056-.169 0-.272.188-.347.169-.047.366-.281.45-.525a1.13 1.13 0 0 1 .525-.628c.366-.169.6-.722.703-1.725.028-.253.188-.703.366-1.003.366-.647.431-1.547.103-1.988-.488-.675-.047-1.575.656-1.341.169.056.291.028.291-.047 0-.253 1.162-1.969 1.566-2.287.197-.169.572-.3.797-.3.262 0 .394-.056.319-.169-.047-.094-.216-.131-.366-.094-.413.103-.338-.15.159-.647.534-.544.862-.572 1.406-.103.534.478 1.294.628 1.528.319.609-.769.722-.825 1.181-.741.262.056.553.206.656.347.169.225.197.225.319.028.075-.122.506-.619.966-1.078.572-.6.938-.872 1.181-.872.262 0 .553-.206.938-.675.366-.441.703-.675.919-.675.309 0 .319-.056.319-.928 0-.994.075-1.5.319-2.372.272-.994.75-2.287.956-2.616.169-.244.178-.45.075-.825-.122-.497-.113-.506.722-.797.45-.15.787-2.344.441-2.991-.113-.253-.103-.347.113-.506.178-.131.291-.497.366-1.228.169-1.688.291-2.297.422-2.391.169-.103.169-1.294-.019-1.772-.103-.281-.075-.572.113-1.069.216-.619.216-.741.019-1.313-.159-.441-.197-.947-.159-1.575.047-.694 0-1.078-.169-1.472-.188-.403-.216-.741-.15-1.397.131-1.266-.366-2.147-1.041-1.875-.188.075-.197-.028-.113-.694.141-1.125-.234-2.269-.863-2.569-.291-.131-.478-.356-.506-.553s-.131-.347-.216-.347c-.413-.019-.75-.469-.731-.947.019-.45-.047-.525-.488-.694-.384-.15-.459-.244-.338-.394s.047-.272-.366-.525c-.272-.178-.506-.375-.506-.422 0-.206-.975-1.2-1.275-1.294-.403-.131-.741-.544-.797-.994-.028-.281-.169-.394-.609-.497-.347-.094-.581-.244-.628-.422-.056-.197-.197-.281-.506-.281-.291 0-.581-.15-.891-.478-.647-.647-1.275-1.022-1.744-1.022s-1.116-.394-1.116-.675c0-.394-.394-.553-.975-.394-.309.094-.984.197-1.528.244-.703.075-.994.169-.994.3 0 .272-.488.553-.787.441-.113-.047-.384.047-.6.206-.319.253-.553.281-1.997.253s-1.659-.075-1.875-.347l-.234-.319-.291.328c-.15.178-.347.506-.45.741-.309.769-.797.947-2.362.9-1.106-.028-1.444 0-1.669.197-.216.178-.244.272-.103.328.262.103.769.675.684.769-.047.047-.234-.019-.431-.122-.319-.169-.413-.15-.816.206-.244.206-.553.394-.656.394-.403 0-.947.356-.947.628 0 .15-.113.319-.244.356-.525.169-.684.319-.816.75-.094.244-.188.469-.244.506-1.228.853-2.053 2.1-2.25 3.431-.159.994-.384 1.519-.722 1.791-.169.15-.422.478-.534.722-.197.422-.197.497.047.9.366.619.338 1.003-.112 1.5-.403.469-.459.741-.291 1.594.094.45.056.6-.272 1.003-.216.272-.525.478-.703.478s-.403.131-.487.281c-.141.225-.122.328.094.525.15.131.309.553.366.947.075.6.047.741-.272 1.069-.309.319-.366.506-.366 1.228 0 .694-.056.9-.338 1.172-.319.319-.338.403-.216 1.322.103.891.066 1.041-.197 1.425s-.291.478-.113 1.022c.103.328.141.825.094 1.153s-.131.975-.178 1.453c-.159 1.5.45 3.009 1.378 3.412.6.253 1.313 1.228 1.528 2.119.103.403.338.9.506 1.097.338.356.431 1.2.15 1.388-.234.131-.047 2.287.216 2.597.131.169.216.891.272 2.287l.084 2.044-.478.694c-.45.647-.488.778-.488 1.875 0 .872-.066 1.294-.262 1.575-.197.328-.234.591-.169 1.35.075.694.047 1.078-.131 1.5-.197.506-.197.6 0 .9.112.178.216.441.216.591s.234.525.506.853c.431.497.478.6.291.769-.113.103-.216.403-.216.675 0 .45.094.553.844.994.891.525 1.228.891 1.659 1.772.234.469.244.741.169 1.894-.056.741-.075 1.425-.047 1.5.028.094.047.3.047.478-.019.225.113.375.384.478.478.197 1.781.094 1.931-.169z"/><path d="M228.516 255.037c-.234-.094-.487-.272-.572-.394s-.319-.422-.553-.647c-.488-.497-.488-.591-.169-1.172.216-.375.234-.525.075-1.125-.103-.375-.15-.741-.103-.816.047-.056.347-.169.703-.225.769-.131.984-.319.891-.75-.056-.225.028-.469.272-.75l.347-.422.431.328c.234.178.891.506 1.444.75l1.022.422.075 1.153c.047.647.047 1.219 0 1.275-.047.047-.394.347-.769.675-.394.319-.816.816-.947 1.078-.169.394-.338.525-.741.6-.291.047-.628.103-.75.131-.113.019-.403-.028-.656-.131zm7.922-5.756c-.431-.075-1.594-1.022-1.594-1.322 0-.103-.103-.272-.216-.375-.291-.253-.272-.722.075-1.425.338-.675.366-.994.113-1.247-.338-.347-.047-.422 2.1-.469.938-.019 1.012-.047 1.884-.769.506-.422 1.003-.722 1.116-.675.103.047.309.075.45.075.272 0 1.378 1.003 1.519 1.369.047.131.019.319-.075.403-.113.122-.094.281.094.553.141.225.216.441.169.478s-.019.206.056.356c.216.394-.056.975-.572 1.266-.244.122-.609.525-.825.9-.197.375-.488.75-.647.825-.262.15-2.85.169-3.647.047zm-2.682-2.287c-.094-.169.131-.347.272-.206.122.131.103.347-.047.347-.094 0-.169-.056-.234-.131zm-7.387-2.222c-.15-.028-.262-.131-.262-.206s-.487-.131-1.088-.131h-1.106l-.291-.525c-.178-.281-.366-.525-.441-.525s-.131-.197-.131-.45c0-.244-.075-.797-.169-1.219-.15-.694-.131-.816.075-.975.197-.15.244-.422.244-1.266 0-1.266.112-1.369 1.134-1.003a2.47 2.47 0 0 0 1.35.122c.872-.15 1.134.019 1.134.666 0 .356.094.591.291.703.159.103.291.328.291.506s.188.497.431.722c.609.619.675 1.003.234 1.875-.384.75-.844 1.041-1.191.741-.141-.122-.188-.094-.188.094 0 .131-.103.244-.216.244s-.216.075-.216.169.113.122.272.056c.262-.075.525.244.347.441-.103.094-.113.094-.506-.019zm15.272-48.169c-.141-.075-.244-.281-.244-.469s-.197-.628-.45-1.003c-.272-.422-.403-.797-.366-.975.45-1.866.534-2.512.488-3.581-.047-.703-.169-1.313-.309-1.528-.319-.497-.309-.525.272-.525.422 0 .572-.094.825-.525.338-.544.534-.628 2.081-.966.816-.169.938-.094 1.322.919.131.3.347.572.525.619.272.075.291.15.188.816-.056.394-.103.853-.084 1.022.066 1.453-.028 3.141-.216 3.619-.131.328-.187.722-.131.994.094.375.028.544-.366.947-.394.422-.553.497-.891.422-.234-.047-.6-.019-.816.075-.6.225-1.566.319-1.838.15zm11.597-9.778c-.488-.197-.797-.422-.862-.628-.047-.169-.234-.478-.422-.694-.431-.478-1.088-1.95-1.088-2.4 0-.178.131-.572.309-.853.244-.403.291-.694.244-1.416l-.047-.919.581-.225c.947-.356 1.162-.394 1.369-.15s.525.197 1.688-.356a5.6 5.6 0 0 1 1.622-.441c.488-.056 1.106-.206 1.369-.347.553-.281.731-.225.628.206-.066.253.075.469.609.947l.703.628-.197.591c-.113.328-.262.647-.319.694-.075.056-.056.244.028.403s.159.478.159.694c0 .206.094.694.169 1.078.178.628.169.703-.103.9-.15.122-.487.206-.769.206-.422 0-.478.047-.384.272.234.572.244.778.056.797-.122.019-.272.028-.384.047-.084 0-.291.131-.431.272-.956.966-1.106 1.022-2.456 1.003-.919-.019-1.519-.103-2.053-.319zm-3.394-5.372c0-.497.047-.525.45-.3.338.197.366.544.047.666-.403.169-.487.103-.487-.356zm-12.141-1.444c-.394-.3-.919-.619-1.181-.703-.244-.103-.684-.441-.947-.75l-.487-.572.319-.347c.384-.422.384-.628.019-1.594-.169-.422-.291-.928-.291-1.125 0-.272.075-.375.291-.375.169 0 .291.075.291.15 0 .272.872.169.975-.103.525-1.641.844-1.894 2.344-1.866 1.594.028 2.409.347 3.038 1.2.291.375.787.928 1.088 1.228.525.497.553.553.347.778-.122.131-.169.272-.103.328.075.047.216.319.309.619.15.441.15.619-.019.9-.103.197-.141.403-.084.45.159.178-.6 1.491-1.106 1.894-.469.375-.553.394-1.059.244-.309-.075-.891-.103-1.303-.047-1.791.244-1.706.253-2.456-.319zM158.259 281.85c-.159-.169-.291-.469-.291-.666s-.056-.403-.131-.469c-.084-.047-.019-.319.169-.619.262-.469.309-.816.338-2.888.028-1.294.113-2.691.197-3.112.169-.722.103-2.119-.234-5.4-.103-1.069-.656-2.222-.872-1.819-.131.225-.187.206-.553-.169-.234-.244-.431-.6-.431-.816-.019-.319-.075-.375-.384-.328-.197.019-.553.028-.797.028-.609.019-1.453.966-1.397 1.547.019.225-.047.525-.15.647-.131.169-.15.694-.075 2.016.094 1.772.094 1.791-.234 1.838-.291.047-.338.131-.319.647 0 .328.056.778.113.994.075.281.047.45-.131.6-.609.544-.628.591-.553 1.2.056.45 0 .778-.244 1.313-.403.853-.534.966-1.078.844-.394-.094-.412-.056-.319.253.197.741.338 2.166.197 2.325-.131.178-.647.122-.938-.122-.197-.15-.403.094-.722.825-.197.506-.197.572 0 .647.319.131.272.356-.066.356-.169 0-.291-.103-.291-.225q0-.225-.422-.225c-.263 0-.45-.094-.506-.253-.075-.253-.169-.441-.703-1.266-.169-.272-.234-.553-.169-.844.047-.253.019-.703-.075-1.022-.113-.441-.103-.666.047-.966.272-.544.338-1.125.15-1.388-.094-.122-.244-.647-.347-1.191s-.262-1.078-.366-1.2-.272-.422-.384-.675-.347-.675-.487-.966c-.216-.394-.234-.525-.094-.572.103-.047.319-.206.469-.394.272-.281.272-.328.047-.591-.319-.375-.6-.347-.656.075-.047.356-.609.525-.975.272-.169-.122-.169-.206-.019-.6.169-.422.15-.544-.197-1.266-.197-.45-.384-.947-.384-1.125 0-.441-.216-.544-1.162-.544-.787-.019-.816 0-1.425.703-.572.675-.609.769-.609 1.613 0 .816-.047 1.003-.581 1.791-.684 1.022-.731 1.322-.216 1.453.263.056.338.15.234.272-.094.103-.197.544-.291.994-.075.45-.197 1.097-.291 1.425s-.169.891-.169 1.247c0 .347-.056.628-.122.628s-.178-.281-.234-.628l-.113-.647-.188.825c-.103.45-.15 1.116-.103 1.453.066.525.019.741-.244 1.153-.431.628-.825.9-1.069.722-.103-.075-.525-.253-.938-.394-.609-.206-.769-.328-.769-.591 0-.178-.15-.572-.319-.853-.9-1.528-1.013-1.922-1.088-3.694-.028-1.078-.131-1.847-.263-2.119-.112-.225-.216-.553-.216-.741 0-.356-.459-1.819-.741-2.344-.131-.225-.169-.741-.15-1.5l.047-1.153-.6-.178c-.319-.103-.628-.3-.675-.441s-.244-.328-.431-.422c-.197-.094-.366-.272-.366-.375 0-.272-.9-1.153-1.181-1.153-.113 0-.366.272-.534.591-.262.478-.291.666-.178.994.234.619.178.853-.309 1.416-.366.441-.422.619-.366 1.05.047.3.113.928.169 1.416l.084.853-.628.281c-.384.169-.722.225-.862.15-.234-.122-.572.094-.572.347 0 .075.15.328.309.553.384.553.291.722-.487.703-.581-.019-.656-.056-.919-.619-.169-.328-.572-.9-.919-1.275-.431-.497-.609-.797-.609-1.144 0-.244-.131-.741-.291-1.078s-.291-.778-.291-.975c0-.647-.534-1.566-1.013-1.744l-.45-.15.103-1.125c.103-1.219-.075-1.772-.656-1.969-.384-.122-.459-.619-.216-1.341.291-.778.272-1.116-.028-1.453-.197-.225-.234-.45-.141-1.125.094-.75.056-.872-.197-1.069-.169-.131-.272-.319-.234-.45.113-.319-.187-1.472-.487-1.8-.384-.441-.459-.778-.244-1.219.15-.3.169-.6.075-1.153-.272-1.622-.309-2.325-.15-3.009.169-.628.15-.75-.141-1.247-.169-.3-.431-.647-.553-.75-.169-.15-.188-.272-.047-.675.094-.253.244-1.05.337-1.763l.169-1.275-.506-1.125c-.581-1.247-.609-1.519-.769-6.15-.047-1.444-.113-2.662-.141-2.719-.047-.056-.244-.169-.469-.225-.478-.122-.628-.319-.628-.853 0-.572.15-.872.366-.778.169.075.169-.028 0-.647-.103-.394-.291-1.022-.422-1.387s-.234-.825-.234-1.041c0-.206-.234-.797-.506-1.322-.459-.853-.506-1.041-.506-2.138 0-1.425-.066-1.65-.534-1.847-.216-.075-.384-.3-.422-.591-.056-.244-.197-.525-.291-.619-.112-.094-.197-.347-.197-.553 0-.244-.197-.572-.581-.928-.319-.3-.581-.628-.581-.741 0-.272-.722-.919-1.041-.919-.169 0-.347-.197-.478-.525-.169-.394-.309-.525-.572-.525-.169 0-.675-.169-1.078-.375-.684-.356-.75-.441-.75-.919 0-.281-.112-.666-.244-.816-.216-.253-.309-.272-.647-.094a7.5 7.5 0 0 1-.919.375c-.487.169-.6.15-.937-.122l-.384-.319-.487.45c-.263.253-.553.45-.647.45s-.319.131-.525.3c-.197.169-.525.3-.703.3-.431 0-.675.319-.628.853.047.703-.113.844-.891.741s-.938-.019-1.603.853c-.384.497-.403.619-.263.994.131.394.094.497-.506 1.313-.975 1.313-1.078 1.369-2.25 1.444-.572.047-1.088.028-1.163-.019s-.291-.356-.478-.694c-.197-.328-.469-.694-.609-.797-.159-.122-.263-.394-.263-.722 0-.441-.047-.506-.366-.506-.431 0-.872-.469-1.256-1.369-.244-.544-.469-.778-.975-1.05-.844-.45-.863-.478-.788-1.228.075-.6.028-.675-.787-1.575-.553-.6-.975-.928-1.181-.928-.291 0-.319-.075-.319-.816 0-.816-.019-.825-.609-1.172-.506-.281-.675-.497-.919-1.172-.487-1.388-.919-2.072-2.072-3.338-.122-.15-.291-.666-.347-1.125-.075-.6-.197-.947-.413-1.125-.169-.131-.309-.375-.309-.544 0-.328-.431-.778-.75-.778-.15 0-.272-.169-.319-.403-.103-.497-.028-2.194.131-2.784.094-.375.075-.422-.272-.422-.216 0-.384.094-.384.197 0 .122-.169.356-.384.572l-.384.356.103-.825c.056-.45.112-2.147.15-3.759s.103-3.216.187-3.563a3.3 3.3 0 0 0 0-1.35c-.075-.394-.15-1.613-.169-2.709l-.028-1.988.797-.75c.431-.422.919-.75 1.041-.769.169 0 .263-.15.291-.553.047-.525.084-.572.628-.675.684-.15.947-.45.947-1.116 0-.272.056-.525.122-.572.056-.047.169-.347.216-.675s.244-.769.431-.966c.384-.394.628-1.875.572-3.488-.019-.497.047-1.425.122-2.062.169-1.172.094-2.222-.159-2.222-.094 0-.15.103-.15.225s-.113.225-.244.225c-.197 0-.188-.056.094-.356.291-.319.309-.422.188-1.453-.094-.628-.094-1.219-.019-1.369.075-.131.131-.797.131-1.453 0-.919-.056-1.247-.234-1.397-.816-.675-.947-.872-.787-1.153.197-.403.187-1.294-.047-1.491-.131-.122-.169-.928-.159-3.319.019-1.725.066-3.309.122-3.487.075-.225.028-.375-.122-.469-.309-.178-.309-1.069-.019-1.388.291-.3.272-.394-.169-.853-.356-.375-.366-.45-.197-.966.122-.356.15-.853.075-1.416a23 23 0 0 1-.122-1.894c0-.572-.075-1.144-.15-1.266-.309-.478-.356-1.247-.112-1.772.197-.45.291-.506.609-.403.197.056.684.094 1.088.094.534-.019.769-.094.947-.328.394-.544 2.475-.45 3.131.169.169.131.459.319.703.366.216.056.506.253.656.441.337.45.703.572.9.3a.556.556 0 0 1 .872.019c.103.131.431.225.741.225.534 0 .572.028.722.647.309 1.228.431 1.35 1.209 1.266.825-.075 1.237.178 1.5.966.169.497.169.506.994.506.506 0 .872.075.947.197.047.103.628.45 1.256.778 1.603.797 1.716.919 1.734 1.594v.591h2.034l.047.675c.019.375.056.825.103.994.094.422.787.703 1.397.591.384-.075.581-.028.816.178.272.253.534.281 2.147.272 1.837-.028 1.837-.028 1.837.319 0 .928.816 1.566 2.025 1.566.431 0 .581.075.713.375.197.422.994.9 1.125.675.047-.094.272-.15.506-.15.309 0 .487.122.684.422.338.572.628.778 1.05.778.197.019.647.169.956.356.487.281.581.441.581.797 0 .628.291.919 1.059 1.041.572.075.806.225 1.369.825.459.506.891.816 1.341.947.384.122.9.422 1.191.694.459.422.581.45 1.153.356.525-.075.684-.028.938.225.169.178.309.469.309.666 0 .6.525.975 1.013.722.45-.253 1.369.319 1.875 1.172.506.844.863.966 1.341.469.356-.356 1.284-.422 1.397-.075.056.122.197.225.338.225s.337.094.422.178c.15.15.216.15.291.019.056-.103.366-.272.666-.375.469-.169.609-.3.75-.778.113-.319.366-.741.572-.919.188-.197.384-.506.431-.703.112-.591.244-1.669.291-2.447.028-.403.122-1.172.197-1.688s.112-1.2.075-1.528c-.056-.394 0-.853.141-1.266.291-.769.319-1.725.131-3.412-.338-2.784-.366-3.966-.103-4.828.366-1.247.45-5.213.131-6.253-.197-.619-.197-.872-.075-1.266.084-.272.159-.816.159-1.2 0-.506.094-.797.272-.994.487-.497 1.594-1.95 1.669-2.259a.84.84 0 0 1 .431-.45c.197-.103.403-.375.478-.666.169-.628.656-.75 1.238-.3.525.403.769.394 1.041-.019.169-.272.412-.347 1.359-.441.722-.075 1.256-.056 1.425.047.15.075.581.103.966.056 2.222-.3 2.456-.281 2.662.047.234.403.825.403 1.453.019.581-.366 1.012-.375 1.659-.056.431.206.488.319.488.769 0 .722.234 1.097.675 1.097.656 0 1.2.403 1.303.975.047.281.169.591.291.694s.197.244.197.319.169.375.384.647c.384.506.384.525.141 1.228-.309.919-.309 2.597.019 3.487.291.872.169 1.472-.309 1.613-.75.197-.487 1.716.319 1.838.487.075.534.769.103 1.612-.422.844-.441.994-.131 1.941.197.6.197.816.056 1.369-.159.572-.141.844.075 1.819.262 1.078.262 1.153.019 1.575-.234.422-.244.478-.028.722.122.15.272.675.319 1.2.056.506.169.966.216 1.003.075.047.131.178.131.3 0 .253-.675.281-.769.028-.028-.103-.113-.15-.169-.094s0 .206.122.347c.131.131.234.394.234.553s.113.328.291.375c.291.075.412.553.169.703-.216.15-.469 2.016-.366 2.794.056.478.028.919-.094 1.2a1.7 1.7 0 0 0-.094.825c.075.3.169.375.572.375.262 0 .731.131 1.05.3s.844.3 1.181.3c.366 0 .684.094.787.225.272.347.684.272 1.116-.225.197-.244.506-.45.656-.45s.309-.103.347-.225c.047-.122.188-.225.309-.225.169 0 .197.103.113.403-.047.225-.103.478-.113.572-.028.15 1.041.225 1.528.122.122-.028.272-.225.319-.422.056-.206.15-.375.216-.375.169 0 1.022-.403 1.537-.741.244-.15.938-.572 1.528-.919s1.303-.778 1.528-.975c.422-.319.459-.328 1.294-.103l.872.225.338-.441c.188-.244.488-.6.628-.778.169-.197.291-.403.291-.478 0-.253.45-.281.966-.056.816.347 1.378.178 1.819-.544.188-.328.431-.6.534-.6s.525-.328.938-.75c.609-.591.787-.694.891-.525.15.272.441.281 1.369.056.534-.131.769-.281.966-.6.216-.422.216-.441-.047-.441-.384 0-.384-.544 0-.75.309-.169.309-.169.469.45.047.169.234.206.722.169.75-.047 1.369-.553 1.5-1.247.075-.356.131-.441.338-.328.262.122.647.122 1.669.028.431-.028.525-.103.506-.347-.019-.206.103-.347.459-.469.272-.094.572-.272.656-.375.094-.122.384-.319.656-.441.272-.103.656-.356.844-.544.319-.3.487-.328 1.575-.3 1.116.028 1.228 0 1.275-.272.028-.206.188-.328.506-.403.244-.047.703-.3 1.013-.572.384-.3.713-.469 1.031-.469s.525-.094.628-.281c.188-.394.188-.469-.066-.469a.22.22 0 0 1-.216-.225c0-.281.075-.281.366.028.188.197.347.206.769.103.478-.122.534-.197.581-.666.056-.647.197-.825.553-.628.169.075.684.178 1.162.244.966.103 1.087.047 1.978-1.097a.93.93 0 0 1 .684-.319c.656 0 .863-.131 1.209-.769.244-.478.45-.619 1.041-.797.656-.206.75-.206.984.019.15.131.262.356.262.506 0 .178.244.403.722.666.656.328.75.45.947 1.153.113.441.338 1.191.469 1.688.234.797.234.919.028 1.35-.113.253-.234.891-.244 1.416-.019.506-.113 1.097-.216 1.313-.188.394-.197 1.35-.019 2.484.094.506.047.694-.188.947-.366.422-.609 1.2-.469 1.453.075.131-.047.403-.319.769-.338.422-.422.666-.347.928.056.244 0 .441-.131.553-.113.103-.216.3-.216.45s-.103.3-.216.356c-.234.094-.319.994-.084.994.066 0 .159.169.188.347.047.272-.056.469-.431.797-.262.244-.478.544-.478.675s-.131.422-.291.628-.291.506-.291.694c0 .169-.131.525-.291.825-.244.422-.291.666-.197 1.275.094.722.075.769-.394 1.2-.403.394-.488.591-.534 1.247-.169 2.963-.197 4.031-.188 4.556.075 1.669.028 3.441-.131 4.584-.094.722-.141 1.594-.113 1.95.028.572.113.703.45.872s.394.281.394.825c.019.544.066.694.487 1.003.272.206.581.6.684.872.103.253.262.478.347.478.103 0 .234.206.309.478.103.375.216.478.525.478.366.028.947.441 1.378.994.094.122.131.375.103.553-.113.45.169.9.609 1.003.338.094.384.169.291.572-.047.253-.188.544-.319.647-.188.131-.197.244-.075.497.103.197.169 1.003.15 2.1-.019 1.744-.028 1.791-.506 2.522-.262.403-.431.75-.347.778s.216.328.309.666c.169.666.188.6-.825 1.669-.291.281-.309.347-.103.666.131.197.244.722.272 1.172.028.722.019.825-.234.825-.431 0-.844.741-.769 1.369.075.506.028.572-.609.947-.675.403-.675.422-.647 1.125.047.853-.244 1.669-.581 1.669-.422 0-.938.675-.825 1.116.122.469-.112 1.097-.581 1.594-.197.244-.441.797-.6 1.416-.216.919-.291 1.05-.722 1.228-.384.169-.488.347-.722 1.116-.216.769-.309.9-.534.844-.347-.094-1.256.3-1.575.703-.159.178-.366.628-.459 1.003-.112.403-.338.741-.506.844-.581.3-.919.722-1.059 1.341-.169.675-.216.703-2.1 1.05-.412.094-.844 1.069-.647 1.453.413.797-.394.966-1.022.244-.319-.375-.45-.694-.506-1.35-.122-1.144-.347-1.744-.684-1.941-.216-.103-.272-.319-.272-.872 0-.394-.047-1.041-.094-1.416-.094-.591-.169-.703-.506-.844a1.23 1.23 0 0 1-.553-.422c-.075-.169-.384-.422-.656-.572-.459-.253-.525-.356-.525-.872 0-.778-.216-1.153-.675-1.153-.684 0-1.659-.75-2.081-1.613-.169-.319-.272-.347-1.594-.356-.769-.019-1.575-.056-1.781-.122-.309-.094-.413-.028-.647.347-.169.253-.272.525-.262.6.028.075-.394.591-.919 1.144-.994 1.069-1.05 1.219-.787 1.912.113.347.103.45-.103.6a1.1 1.1 0 0 1-.553.197c-.272 0-.309.075-.262.919.047.647 0 .975-.159 1.153-.394.469-.703 1.247-.609 1.547.122.347-.113 1.172-.534 1.988-.197.394-.262.722-.197 1.041.047.272 0 .619-.15.919-.197.375-.234.769-.169 2.016.075 1.228.047 1.547-.103 1.547-.441 0-.487.928-.131 1.744.234.478.234.553.028.675-.131.056-.488.422-.769.797l-.525.675.169 1.069c.169 1.069.169 1.078-.197 1.444-.45.422-.478.628-.169 1.05.366.497.262 1.144-.262 1.669-.459.45-.478.525-.394 1.2.056.394.169.844.216.994.094.206.028.3-.197.356-.441.122-.938 1.022-.825 1.491.056.206.122 1.003.159 1.772.075 1.294.047 1.416-.291 1.894-.45.628-.45.816-.019 1.116.319.206.347.319.291 1.003-.028.441-.122.872-.234.994s-.188.506-.197.844c-.066 1.491-.234 2.241-.525 2.484-.572.497-.75 1.172-.938 3.488-.103 1.444-.169 1.622-.525 1.688-.403.056-.581.703-.459 1.669.075.619.047.778-.234 1.078-.244.281-.347.628-.45 1.594-.075.75-.197 1.322-.347 1.491-.112.131-.262.619-.309 1.069-.056.45-.244 1.144-.431 1.547-.188.422-.347 1.022-.347 1.35 0 .75-.684 2.766-1.275 3.788-.234.403-.487.994-.525 1.313-.056.347-.234.647-.45.797-.169.122-.384.394-.431.591-.066.319-.703 1.05-1.303 1.547-.384.3-.272.722.216.928l.45.197-.384.319c-.216.178-.488.553-.647.844-.15.328-.366.544-.572.572s-.338.15-.338.347c0 .403-.506.891-.947.891-.197 0-.487-.131-.656-.3zm-9.825-60.825c.131-.197.347-.253.731-.225.291.028.609-.028.722-.122s.262-.131.347-.094c.197.131 1.322-.675 1.397-1.022.028-.178.103-.591.15-.919s.188-.722.319-.853c.188-.225.188-.3-.028-.769-.131-.3-.422-.6-.656-.703-.384-.169-.394-.225-.338-.797.047-.347.131-.853.188-1.125.103-.375.028-.769-.244-1.622-.347-1.097-.366-1.144-.103-1.425s.262-.328.019-1.05c-.169-.441-.234-.928-.178-1.228.047-.253.103-1.472.131-2.691l.056-2.213-.769-.45c-.862-.497-1.012-.797-.872-1.669.094-.572.019-.825-.431-1.416-.159-.225-.244-.244-.403-.103-.272.225-.684.056-.684-.272 0-.272-1.659-1.191-1.959-1.097-.084.028-.647.094-1.219.131-.975.056-1.087.028-1.5-.319-.244-.206-.609-.394-.816-.394-.338 0-.356.047-.263.497.056.253.169.544.234.628.141.169.169.694.047 1.05-.056.131-.356.375-.675.544l-.581.319.094.891c.103.825.075.9-.216 1.003-.45.178-.75 1.416-.506 2.062.169.422.15.506-.291 1.144s-.469.75-.319 1.275c.262 1.05.234 1.491-.131 1.528-.384.056-.422.169-.703 1.847-.159.928-.291 1.322-.506 1.491-.919.694-.872.619-.938 1.922-.019.694-.113 1.322-.197 1.416-.216.225-.234.975-.028 1.097.094.047.15.469.15.919 0 .647.056.844.263.919.459.178 1.472 1.144 1.537 1.5.094.3.188.347.75.347s.722-.075 1.134-.525l.478-.525 1.519.094c.844.028 1.688.075 1.894.094s.741-.028 1.191-.103l.844-.122.084.478c.169.778.938 1.172 1.303.666zm23.007-22.144c.45-.244.825-.3 1.669-.281 1.547.028 2.438-.131 2.738-.525.141-.169.384-.394.534-.478.169-.094.319-.281.347-.441s.197-.45.394-.666c.319-.356.366-.375.891-.178.488.178.553.178.769-.094.113-.169.422-.394.656-.506s.572-.422.731-.675.459-.553.684-.647c.431-.197 1.022-1.322 1.238-2.325.103-.497.216-.647.769-.947.366-.197.769-.328.919-.281.169.047.244-.028.244-.272 0-.197.131-.769.309-1.294l.309-.966-.319-1.641c-.169-.891-.272-1.772-.234-1.969.056-.253-.028-.469-.309-.778s-.384-.628-.441-1.153c-.056-.9-.244-1.275-.656-1.341-.197-.028-.347-.178-.412-.422-.047-.206-.197-.394-.347-.422s-.431-.272-.656-.525l-.403-.45-.469.328c-.384.281-.581.328-1.088.253-.872-.131-1.106-.019-1.106.619v.544l-1.191-.122c-2.578-.244-4.2-.094-4.753.441-.131.131-.366.244-.487.244s-.572.272-.975.6-.816.6-.919.6c-.197 0-.984.947-.984 1.172 0 .075-.188.225-.441.328s-.441.244-.441.319-.262.272-.581.441-.581.394-.581.497c0 .281-.581 1.35-.844 1.575a1.13 1.13 0 0 1-.553.178c-.187 0-.525.178-.75.394s-.722.544-1.134.741c-.797.375-1.425.975-1.659 1.622-.084.225-.244.403-.347.403-.272 0-.787 1.144-.9 2.044-.094.769-.094.778.403 1.097.609.394 1.303 1.294 1.322 1.725.019.272.122.319.816.356.891.056 1.453.45 1.453 1.022 0 .441.291.525 1.134.347 1.181-.272 1.406-.253 1.453.131.028.178.188.403.366.506s.366.225.412.319c.15.225 1.303.394 2.006.3.6-.094.628-.075.525.225-.113.422.113.422.872.028zm-51-2.625c.234-.056.675-.056.975 0 .525.094.6.056.975-.469l.412-.553 1.781.094c1.397.056 1.819.028 1.978-.131.188-.197 1.556-.3 2.447-.178.309.028.412-.056.656-.6.394-.816.722-1.05 1.613-1.116.656-.047.722-.075.722-.422a.58.58 0 0 0-.309-.525c-.309-.15-.309-.178-.075-.525.131-.206.356-.619.488-.919.234-.544.234-.553-.197-1.097-.384-.478-.506-.544-1.088-.544s-.713-.075-1.256-.666c-.319-.356-.75-.703-.966-.769-.384-.103-1.209-.469-1.603-.703-.112-.056-.403-.225-.656-.347s-.6-.45-.797-.75c-.197-.281-.506-.572-.703-.619-.188-.056-.356-.244-.413-.497-.047-.206-.103-.478-.15-.572-.066-.272-.788-.244-1.078.028-.366.328-.703.122-.872-.506-.075-.319-.263-.675-.384-.797-.356-.3-1.313-.619-1.575-.506-.122.047-.431-.103-.694-.347s-.75-.506-1.087-.6c-.319-.094-.675-.272-.769-.394s-.319-.225-.487-.225c-.394 0-.581-.131-.806-.553-.084-.197-.263-.347-.384-.347-.384 0-2.109-1.322-2.109-1.622 0-.15-.094-.178-.319-.103-1.059.347-1.163.3-1.997-.75-.103-.131-.309-.225-.441-.178-1.341.403-1.556.441-1.978.253-.431-.169-.431-.178-.15-.394s.291-.225.019-.45c-.337-.253-.581-.272-.975-.056-.272.169-.272.178-.028.619.309.544.169.675-.797.825-.703.103-.9.375-.9 1.172 0 .281-.056.572-.15.619-.075.047-.15.225-.15.394 0 .206-.169.394-.581.553-.553.244-.581.281-.581.928 0 .375.056.9.122 1.172.197.647.234 2.241.094 2.841-.094.403-.047.544.309.891.234.206.581.45.769.525.291.122.338.206.263.628-.047.253-.112.6-.169.741-.075.178.019.319.319.469.553.319 1.022 1.219.769 1.528-.15.178-.131.244.094.328.366.131.487.347.487.797.019.506.319.9.825 1.041.234.056.431.225.45.403.028.15.337.544.656.853.459.441.703.553.984.497.534-.103.722.15.722 1.078v.816l.609-.103a7 7 0 0 0 1.116-.3c.469-.15.6-.131 1.303.197.741.347.797.356 1.378.122.338-.122 1.116-.253 1.744-.272 1.087-.047 1.163-.028 1.5.375.188.225.366.544.366.675.019.131.094 0 .169-.3.122-.441.244-.591.572-.647zm-61.125 84.703c-.047-.047-.384-.094-.75-.103s-1.322-.103-2.109-.197c-1.5-.197-3.094-.15-4.837.131-.75.122-1.191.122-1.688-.019-.431-.122-.797-.131-1.078-.028-.216.075-.797.094-1.303.028-1.631-.206-5.222-.197-5.625.019-.319.178-.384.15-.769-.3-.384-.469-.487-.497-1.294-.497-.722.019-.937-.047-1.322-.375-.6-.506-.684-.628-.684-1.022 0-.3-.056-.319-.994-.244l-1.003.056-.6-.619c-.553-.591-.609-.619-1.256-.525-.6.094-.666.075-.666-.197 0-.478-.525-.872-1.106-.816-.628.047-1.266-.469-1.716-1.388-.272-.553-.384-.647-1.209-.9-.628-.178-.956-.375-1.078-.6-.244-.497-1.716-1.941-1.856-1.837-.244.15-.6-.103-.609-.441 0-.169-.15-.591-.319-.919-.234-.441-.431-.619-.75-.675l-.431-.075-.019-1.791v-1.772l-.703-.694c-.609-.591-.722-.769-.722-1.322-.019-.347-.131-.75-.244-.919-.131-.15-.272-.506-.319-.797-.272-1.744-.45-2.344-.769-2.466-.122-.047-.197-.244-.197-.441s-.056-.403-.131-.478c-.319-.356-.722-2.222-.722-3.309 0-.619-.056-1.219-.131-1.313-.384-.544-.506-1.35-.338-2.025.169-.6.159-.703-.103-1.069s-.272-.469-.103-1.078c.291-1.003.262-1.453-.169-1.838-.459-.403-.488-1.266-.066-1.819.159-.206.291-.469.291-.591 0-.169.028-.169.131.019.066.103.488.347.938.544l.816.328.094-.422c.056-.244.169-.478.234-.525.216-.131.712.394.712.75 0 .497.178.647 1.341 1.266.216.103.459.3.534.441.094.169.244.206.534.169.431-.094.506-.028 2.025 1.791.525.619.525.628.291 1.172-.291.75-.291.741.337 1.153.534.375.534.375.769.075.197-.281.234-.281.478-.028.188.206.234.403.169.844-.094.478-.056.6.169.694.384.15 1.5 1.144 1.5 1.341 0 .281 1.453 1.566 1.781 1.566.487 0 .797.272.891.741.094.441.103.45 1.003.45 1.181-.019 1.716-.281 1.716-.891 0-.722-.319-1.594-.647-1.744-.169-.075-.347-.347-.431-.619s-.891-1.219-1.95-2.287c-1.163-1.2-1.781-1.941-1.791-2.166-.019-.572-.478-1.228-.9-1.275-.216-.028-.647-.319-.994-.675-.506-.544-.581-.703-.525-1.097.066-.403-.019-.572-.572-1.125-.347-.356-.647-.741-.647-.853s-.122-.403-.244-.628c-.197-.356-.216-.525-.094-.975.169-.497.15-.544-.234-.741-.45-.253-1.041-1.369-1.041-1.997 0-.272-.122-.572-.309-.741-.244-.225-.291-.394-.206-.891.094-.553.047-.628-.506-1.2-.75-.75-1.472-1.875-1.819-2.859-.15-.403-.394-.872-.534-1.022-.188-.197-.262-.497-.262-1.144 0-.553-.075-.947-.197-1.05-.103-.094-.234-.506-.291-.928-.084-.619-.197-.872-.684-1.35l-.581-.591.028-1.219c.028-1.247-.028-1.397-.628-1.697-.262-.131-.338-.3-.338-.741 0-.478-.094-.647-.572-1.05-.506-.45-.553-.553-.553-1.228-.019-.45.122-1.05.309-1.472.366-.853.244-1.219-.431-1.369l-.45-.094.319-.525c.291-.478.366-1.172.309-2.709-.028-.816.169-2.934.291-2.934.056 0 .244-.15.431-.328.366-.403.431-1.622.075-1.622a.21.21 0 0 1-.216-.206c0-.15.131-.206.384-.197.319.028.412-.094.731-.844.338-.797.347-.928.188-1.875-.094-.553-.216-1.266-.309-1.566-.131-.469-.122-.675.159-1.313.169-.403.309-1.05.309-1.416s.066-.872.159-1.116c.131-.403.244-.478.797-.572a5.7 5.7 0 0 0 1.134-.3c.262-.122.525-.169.581-.122.169.178.094.966-.159 1.444-.319.647-.469 1.387-.319 1.622.094.169.197.169.572.028.412-.169.488-.131.891.225.413.394.431.422.197.844-.244.478-.291 1.228-.075 1.369.075.047.141.225.141.375s.131.319.272.375c.384.122.478.469.272 1.153-.141.497-.122.703.094 1.322.216.628.244 1.05.169 2.813-.056 1.144-.047 2.513.019 3.047.103.872.169.975.506 1.116.309.103.534.094.919-.103.45-.225.487-.3.431-.694-.122-.572.272-.825.947-.619.309.094.45.075.45-.047 0-.094.15-.469.319-.825l.309-.675-.384-.281c-.216-.169-.394-.356-.394-.441 0-.094.234-.525.506-.975.506-.825.506-.825.534-2.691s.019-1.875-.384-2.316l-.403-.441.403-.853c.309-.694.366-.919.216-1.116-.488-.675-.628-1.294-.525-2.119.056-.45.103-1.022.094-1.275-.094-1.697-.15-2.484-.234-3.019-.084-.553-.122-.6-.488-.544-.216.028-.459-.028-.553-.15-.197-.253-.506-2.587-.394-3.037.047-.206-.019-.422-.141-.525-.131-.122-.234-.281-.234-.375s-.234-.394-.506-.647c-.319-.3-.506-.6-.506-.844 0-.206-.094-.403-.197-.45-.347-.131-.712-1.697-.609-2.588.094-.703.075-.825-.122-.825-.131 0-.319-.225-.431-.506s-.347-.6-.525-.694c-.262-.131-.309-.281-.272-.947.028-.844-.384-1.819-.863-1.988-.131-.047-.534-.347-.891-.694-.525-.506-.609-.675-.553-1.022.075-.375.047-.422-.338-.422-.534 0-.872-.281-.872-.769 0-.647-.45-1.528-.787-1.528-.169 0-.525-.244-.797-.525s-.553-.525-.628-.525c-.066 0-.103-.281-.047-.628.103-.797-.047-1.041-.666-1.078-.272-.028-.581-.056-.675-.075-.103 0-.272-.197-.394-.441-.113-.225-.553-.778-.984-1.228-.703-.741-.769-.872-.769-1.491 0-.628-.047-.703-.525-.947-.572-.272-.872-.666-1.134-1.491-.141-.469-.216-.525-.525-.469-.469.094-1.238-.694-1.238-1.228 0-.206-.103-.75-.197-1.219-.272-1.041-.684-1.453-2.025-2.016-.319-.131-.394-.225-.309-.441.188-.403.131-1.247-.103-1.397-.113-.075-.384-.131-.581-.131-.656 0-1.031-.45-1.153-1.369-.047-.45-.291-1.2-.487-1.669s-.384-.966-.384-1.097c0-.403-.422-1.125-.666-1.125-.169 0-.197-.169-.188-.722.047-.891-.056-1.078-.572-1.078-.291 0-.338-.047-.197-.178s.056-.3-.347-.741l-.525-.553.263-.469c.244-.422.244-.525.047-1.313-.131-.544-.319-.919-.487-1.022-.159-.094-.319-.178-.347-.197s.028-.244.122-.506c.15-.422.122-.506-.169-.816-1.078-1.116-1.191-1.425-.825-2.259.384-.853.366-.9-.122-1.566-.234-.3-.431-.647-.45-.769-.094-.553.019-1.2.216-1.416.337-.347.272-1.05-.103-1.275-.628-.328-1.041-1.2-1.059-2.194 0-.497-.075-1.022-.131-1.172-.075-.15-.094-.703-.056-1.228.056-.694.028-1.05-.131-1.266-.291-.441-.197-2.784.103-2.841.122-.019.647.394 1.153.9.872.891.966.947 1.594.947h.675l-.047.675c-.028.375 0 .9.047 1.191l.094.497.694-.094c.862-.122 1.125.103.975.844-.234 1.116-.188 1.397.197 1.444.197.028.469.131.581.244s.319.244.45.281c.169.047.272.347.338.872l.103.778 1.228-.075c.891-.056 1.322-.028 1.612.122.553.3.722.272 1.191-.244.263-.253.6-.45.806-.45.478 0 .525-.206.431-2.587-.056-1.547-.15-2.119-.347-2.559-.319-.647-.347-1.294-.103-1.847.15-.347.112-.441-.291-.844-.431-.45-.45-.45-.487-.103-.047.375-.469.544-.75.281-.103-.094-.244-.572-.291-1.069-.094-.825-.131-.9-.45-.9-.553 0-1.087-.994-1.087-1.997 0-.591-.094-.919-.291-1.2-.234-.3-.291-.6-.291-1.425 0-.947-.028-1.069-.366-1.294-.188-.131-.45-.244-.553-.244-.113 0-.291-.094-.384-.197-.122-.15-.056-.3.272-.628.488-.497.572-.919.169-1.05-.394-.122-.431-.272-.609-2.944-.112-1.744-.112-2.466 0-2.588.197-.197.216-.703.028-.703s-.45-.872-.45-1.519c0-.441.131-.769.506-1.275.534-.722.6-.891.366-1.041-.216-.131-.169-1.622.075-2.138s.272-.694.244-2.1c-.028-.741-.103-1.144-.244-1.303-.169-.178-.216-.553-.197-1.725.028-1.172-.028-1.594-.216-1.875-.131-.206-.234-.619-.234-.9 0-.422.103-.6.488-.919.263-.206.581-.347.722-.3.366.15.45-.225.131-.572-.431-.497-.731-1.341-.6-1.716.056-.197.291-.375.506-.441.366-.094.384-.131.272-.797-.272-1.941-.272-1.819.122-1.819.197 0 .459-.047.6-.094.244-.103.319-.666.103-.9-.056-.075-.216-.45-.347-.844-.262-.797-.169-.947.506-.9.609.047.75-.394.684-2.194-.019-.225.169-.497.45-.75.262-.225.628-.666.825-.975.206-.347.45-.553.647-.553.469 0 .75-.394.647-.872-.056-.225-.112-.853-.169-1.397l-.047-.994 1.191-.366-.103-.778c-.056-.441-.159-.853-.244-.966-.188-.244.103-.394.581-.281.291.056.581-.028 1.078-.366.609-.394.703-.525.703-.947 0-.272-.075-.572-.169-.666-.309-.319-.028-.694.45-.619.506.075.703-.103 1.087-1.078a6 6 0 0 1 .488-.947c.197-.253.197-.3-.047-.497-.263-.178-.263-.206-.028-.3.15-.056.412-.019.6.094.459.253.919.094.656-.244-.103-.122-.291-.178-.422-.131-.15.047-.103-.028.094-.178.159-.15.347-.497.403-.769.094-.45.131-.478.722-.478.722 0 1.003-.253 1.238-1.116.169-.647.816-1.444 1.181-1.444.347 0 .581-.3.581-.75 0-.422.272-.741.872-1.003s2.034-1.697 2.241-2.222c.122-.272.384-.619.6-.769 1.191-.872 1.528-1.453 1.528-2.747 0-.375.094-.769.216-.9s.394-.469.609-.741l.384-.506-.216-1.519-.234-1.528.338-.3c.272-.244.337-.45.347-1.191 0-.694.103-1.05.45-1.697.431-.769.431-.872.309-1.594-.206-.994-.234-2.512-.15-6.188.056-2.063.056-2.1-.262-2.147-.431-.056-.581-.6-.703-2.212-.122-1.819-.347-3.656-.525-4.219-.075-.253-.309-.628-.488-.816-.197-.197-.366-.441-.366-.544s-.188-.422-.422-.694c-.469-.553-.572-1.341-.206-1.65.188-.169.291-.103.684.375.506.628 1.003.722 1.556.281a4.6 4.6 0 0 1 .741-.45c.366-.15.431-.131.806.281 1.256 1.425 1.481 1.641 1.838 1.641.722 0 1.116.253 1.116.741 0 .741.122.919.666.919.609 0 .787.319.9 1.566.047.553.159.975.291 1.078s.188.3.15.478c-.056.197 0 .347.122.394s.206.244.206.45c0 .469.797 2.025 1.181 2.297.234.178.272.356.234 1.2-.028.844 0 1.003.244 1.191.169.122.431.206.572.206.216 0 .262.122.244.778-.019.441.047 1.219.122 1.725.216 1.322.122 11.456-.122 11.906-.103.178-.188.75-.216 1.275-.028.694-.131 1.078-.347 1.416-.384.544-.422 1.744-.103 2.194.431.572.169 1.388-.291.994-.169-.15-.216-.15-.234.019-.103 1.622-.15 1.866-.525 2.372-.366.497-.403.666-.403 1.8-.019 1.05-.056 1.275-.291 1.453-.141.122-.347.206-.45.206-.084 0-.197.253-.262.591-.103.675-.788 1.519-1.238 1.519-.422 0-.534.375-.244.825.131.197.234.45.234.553s-.431.441-.919.722c-.647.375-.919.628-.966.9-.131.666-.75 1.35-1.191 1.35-.291 0-.412.075-.412.272 0 .394-.291.628-.75.628-.319 0-.431.075-.488.403-.169.853-.422 1.172-1.106 1.388-.534.169-.703.3-.844.703-.094.272-.131.647-.094.844.075.281-.103.525-1.022 1.388-1.078 1.041-1.088 1.05-1.088 1.8 0 .9-.169 1.2-.609 1.219-.272 0-.347.094-.384.506-.028.272.019.572.103.666.262.272.169.506-.206.619-.319.094-.366.178-.366.816 0 1.303-.169 1.847-.572 2.025-.197.094-.394.178-.431.197s.094.319.262.666c.45.919.347 1.472-.347 1.847l-.572.3.122 1.669c.169 2.475.159 2.747-.122 3.066-.338.375-.309.741.047.947.262.131.309.253.234.769-.047.347-.019.778.056 1.003.122.3.103.422-.075.553-.131.094-.234.375-.234.647 0 .394.056.469.366.469.45 0 .6.281.722 1.425.141 1.247.347 1.847.684 1.95.309.103.366.375.122.628-.291.3.122 1.069.572 1.125.534.056 1.022 1.05.75 1.566s-.094.844.459.797c.262-.019.684.047.947.15.431.169.45.225.319.553-.188.544-.169.628.169.741.159.056.534.328.844.6.291.281.75.628 1.012.778.244.131.525.403.609.6s.262.347.384.347c.131 0 .291.169.366.375.103.281.244.375.553.375.488 0 .863.272.938.675.056.394.647.675 1.378.675.506 0 .656-.075.919-.469.188-.253.487-.506.675-.591.272-.122.347-.253.347-.666 0-.281.075-.572.15-.619.234-.15.169-.6-.122-.994-.15-.197-.347-.6-.469-.891-.103-.281-.272-.628-.384-.75s-.15-.403-.103-.628c.056-.347.028-.422-.197-.422-.534 0-.769-.816-.722-2.634.028-.9.103-1.894.169-2.194.056-.347.047-.591-.056-.647-.188-.131-.216-.844-.028-.844.572 0 .769-1.275.431-2.634l-.169-.675.534-.469c.488-.403.534-.525.534-1.191 0-.45.066-.778.216-.9.169-.131.197-.347.131-.694-.094-.469-.056-.506.45-.722.741-.328 1.266-.3 1.659.075.272.272.319.422.244.947-.216 1.387-.188 1.641.197 1.847.206.094.553.225.787.272.431.094.431.019.169 1.725-.075.478-.047.544.384.769.844.403 1.003.816.825 1.997-.122.9-.122 1.05.075 1.172.431.244.731 1.125.647 1.847-.075.525-.047.675.122.675.122 0 .262-.103.337-.244.094-.169.234-.197.525-.122.45.103.684.572.534 1.041-.262.769.131 1.369 1.256 1.875.384.169.919.994.919 1.444s.291.666.9.666c.741 0 1.275.525 1.275 1.266 0 .469.047.525.487.619.244.056.703.347 1.003.647 1.191 1.247 1.237 1.275 1.622 1.172.272-.056.403 0 .6.281.131.197.234.497.234.647 0 .469.366.675.984.553.478-.075.647-.028.984.281.394.347.412.394.169.572-.244.197-.234.225.15.506.609.478 1.594.966 1.922.966.487 0 .75.178.75.544 0 .403.216.544 1.35.816.966.225 1.191.506 1.059 1.275l-.084.497.722-.019c.703-.019 1.181.206 1.181.553.019.094.291.469.656.825.347.366.741.9.891 1.2.122.3.337.722.45.966.122.225.187.553.159.741-.028.244.047.347.244.394.769.122.966.206 1.191.572.131.225.234.619.216.853-.056.647.216 1.266.6 1.369.169.047.45.319.6.619.244.469.262.647.131 1.388s-.122.919.084 1.2c.131.178.347.366.487.403.234.056.244.169.178.75l-.103.675.553.047c.694.056.984.572.975 1.744 0 .769.019.816.628 1.247.722.506.975.919.966 1.547 0 .244.244.994.572 1.669.309.675.572 1.341.572 1.472s.366.6.806 1.05c.431.45.797.928.797 1.078 0 .131.262.525.581.853.675.666.9 1.153.9 1.922 0 .281.056.647.15.797.122.272.159.272.422.019.263-.244.272-.244.272.056 0 .178-.047.328-.103.328-.066 0-.234.178-.384.375-.244.356-.244.375.319.769l.581.394-.216.553c-.122.3-.262.619-.291.703-.047.094.094.375.291.628.487.572.525 1.613.094 2.175-.356.45-.366.628-.075 1.444.188.553.188.703 0 1.266a4.8 4.8 0 0 0-.216 1.341c0 .553-.056.75-.291.872-.422.225-.422 1.35-.019 1.35.169 0 .319.056.366.131.122.206-.178.919-.384.919-.291 0-.684.9-.722 1.641-.028.591.028.703.431 1.069.534.469.581.778.169 1.219-.234.244-.272.422-.197.703.216.919.234 1.369.075 1.697-.103.178-.197.9-.234 1.594-.028.769-.15 1.425-.291 1.716-.131.272-.197.666-.159.872s-.047.769-.197 1.219c-.169.591-.197.919-.122 1.144.103.225.075.525-.094 1.022-.122.394-.234.797-.234.9s-.131.319-.291.469c-.244.225-.291.469-.291 1.388 0 1.172-.159 1.697-.506 1.697-.309 0-.403.6-.337 1.95.047 1.116.047 1.219-.272 1.528-.197.197-.319.469-.309.703.047.544-.487 1.65-.769 1.669-.431 0-.525.347-.628 1.95-.094 1.341-.15 1.612-.394 1.819-.216.169-.291.375-.263.75.028.319-.103.844-.337 1.341-.319.741-.347.928-.244 1.791.056.572.047 1.125-.047 1.35-.075.206-.141 1.172-.141 2.119s-.019 4.162-.028 7.134c-.019 5.213.019 5.962.366 7.153.131.403.122.694 0 1.078-.159.506-.141.6.244 1.191 1.012 1.5 1.284 1.491 2.025-.047.45-.928.469-1.003.394-2.316-.094-1.387.094-2.438.309-1.8.056.169.187.478.309.703.122.206.197.628.197.919 0 1.022.319 1.275.872.703.366-.375.675-.375 1.256-.019.581.375.891 1.116.656 1.575-.131.253-.15 1.416-.028 1.688.019.019.141.056.309.103.244.056.272.197.262 1.247 0 .666-.075 1.313-.131 1.444-.103.178.047.422.534.966l.684.703-.084 1.078c-.094.928-.056 1.125.169 1.341.122.131.366.244.488.244.197 0 .216.056.084.422-.263.666-.159 2.147.178 2.522s.384 1.266.047 1.266c-.113 0-.216.075-.216.15 0 .094-.075.816-.169 1.594-.122 1.2-.122 1.491.056 1.688.366.441.656 1.275.75 2.137.263 2.363.263 2.709.019 2.794-.131.056-.234.253-.234.497 0 .3.122.478.478.675.966.572 1.078.778 1.003 1.622-.056.572-.019.816.15.928.356.253.769 1.172.844 1.819.047.544.112.6.506.647.525.056 1.069.544 1.331 1.2.113.253.291.478.384.478 1.406.056 2.494.047 3.066-.056.609-.103.703-.094.628.122-.075.178 0 .244.272.244s.356-.075.319-.253c-.028-.206.056-.272.384-.272.244 0 .534-.075.656-.15.112-.094.684-.206 1.237-.3.844-.122 1.041-.206 1.163-.478.159-.403.534-.45.797-.122.15.178.15.281.028.403-.234.244.487 1.266 1.022 1.453.431.15.431.197.337.722-.15.703-.103 2.766.075 3.581.075.328.141.994.141 1.472s.056.994.15 1.144c.075.15.169.628.216 1.078.047.441.112.844.141.891s.019.3-.056.544c-.066.3-.028.675.169 1.219.15.441.263 1.125.263 1.528s.075.928.169 1.172c.337.919.422 2.025.216 2.766-.291.975-.169 1.341.413 1.341.431 0 .478.056.769.872.263.769.356.872.825.994.413.103.553.244.609.525.047.206.169.666.291.994.112.347.197.797.197 1.022 0 .3.103.45.337.544.6.244.825.6.825 1.294 0 .356.056.825.141 1.041.216.619-.084.797-1.256.741-1.856-.094-2.025-.094-2.531-.047-.366.028-.675-.075-1.041-.328-.478-.347-.609-.375-1.228-.253-.45.094-.975.075-1.519-.047-.6-.122-.947-.122-1.266 0-.581.197-1.734-.122-2.034-.572-.234-.347-.628-.375-1.181-.094-.403.206-1.931.375-4.125.469-.891.028-1.472.131-1.95.356-.825.375-1.406.403-1.95.075-.384-.244-.431-.225-1.106.15-.628.328-.75.356-1.022.178-.187-.131-.291-.375-.291-.675-.019-.478-.553-1.219-.75-1.003-.056.056-.122.394-.131.741s-.056.741-.122.891c-.131.281-.628.45-.75.244s-.75-.422-1.688-.591c-.656-.103-.938-.094-1.406.103a2.1 2.1 0 0 1-1.153.15c-1.078-.178-1.106-.178-1.406.319-.384.647-.75.722-1.519.375-.787-.375-1.116-.281-1.331.356-.103.281-.244.525-.337.544-.384.056-3.628.047-3.684-.019zm-5.775-24.721c.647-.347 1.856-.694 2.447-.694.403 0 .647-.122 1.078-.591.506-.525 1.294-.919 1.894-.919.197 0 1.575-1.369 2.166-2.166.337-.469.431-1.35.169-1.519-.094-.056-.131-.628-.103-1.491.028-1.219 0-1.425-.272-1.838-.169-.253-.45-.844-.628-1.294-.244-.694-.272-.994-.187-1.866.103-.853.169-1.05.45-1.2.731-.375 1.163-1.228.75-1.491-.094-.056 0-.225.234-.403.309-.253.366-.403.309-.816-.103-.6.159-.872.703-.722.291.075.459.019.741-.253.412-.403.469-.891.094-.891-.15 0-.394-.272-.609-.675-.319-.591-.337-.722-.169-1.172.216-.619.234-1.594.028-2.147-.122-.3-.122-.544 0-.825.103-.225.188-.853.188-1.416.028-.872-.019-1.041-.291-1.275-.412-.347-.431-.769-.047-1.125s.384-.825 0-.928c-.141-.047-.319-.197-.366-.347s-.169-.319-.291-.356c-.291-.103-.272-.778 0-.9.347-.131.262-.675-.15-.872-.197-.094-.366-.281-.366-.441s-.234-.741-.506-1.322c-.272-.572-.506-1.097-.506-1.172-.019-.197-.534-.797-.722-.797-.094 0-.309-.281-.459-.647-.169-.356-.525-.797-.797-.994-.553-.394-.6-.553-.262-1.041.197-.3.197-.375-.047-.778-.122-.244-.291-.45-.347-.45-.122 0-.9-.675-1.781-1.547-.319-.3-.722-.6-.919-.647s-.347-.206-.347-.356-.159-.375-.366-.506c-.197-.131-.366-.347-.366-.469s-.075-.375-.169-.572c-.094-.178-.197-.441-.262-.544-.056-.122-.272-.272-.506-.328a3 3 0 0 1-.722-.403c-.384-.375-1.406-.553-1.819-.347-.309.178-.609-.019-.966-.647-.122-.206-.422-.253-1.819-.272l-1.659-.028-.422.6c-.525.741-.722.853-1.191.666-.487-.197-.394-.225-1.116.394-.337.3-.787.891-.994 1.313-.272.591-.459.797-.797.891-.656.169-1.669 1.116-1.669 1.547s-.506.975-.891.975c-.337 0-.487.281-.431.778.047.469-.394 1.041-1.397 1.866-.506.403-.6.778-.309 1.078.141.15.047.328-.525.853-.703.666-.703.694-.6 1.322.169.975.131 1.266-.272 1.772-.291.356-.366.591-.319.947.262 1.772.244 2.025-.094 2.259s-.337.281-.337 2.447c.019 1.519.094 2.372.216 2.672.103.253.197.853.197 1.35.019.853.028.919.487 1.125.337.15.478.328.478.572 0 .178.131.6.291.928s.291.853.291 1.191c0 .525.056.628.347.703.675.169.862.553.9 1.894.019.694.047 1.322.047 1.416.019.094.197.422.431.722.413.525.431.591.234 1.05-.216.525-.094.844.366.844.459.019 1.369.816 1.5 1.35.131.572.478 1.05.741 1.05.094 0 .234.122.337.272.197.347 2.034.544 3.234.347.703-.103.816-.094 1.087.197.159.169.703.591 1.162.919.891.619.984.741 1.191 1.5.094.3.291.525.609.666.534.253.581.469.169 1.125l-.272.478.319.328c.816.853 1.716 1.397 2.447 1.491.534.056.722.131.656.3-.159.422.825.619 1.472.281zm-3.975-55.81c.094-.244.234-.553.347-.694.122-.169.169-.441.103-.741-.103-.628.075-.975.366-.694.159.169.272.169.534.028.337-.178.347-.178.056-.394-.553-.394-.384-3.431.169-3.234.094.028.169.244.197.469.094.722.394.347.366-.422-.047-.722.234-1.294 1.003-2.091.309-.319.347-1.097.056-1.2-.169-.075-.169-.178-.019-.647.103-.3.291-.619.422-.694.187-.103.197-.197.056-.469-.244-.478-.187-2.766.103-3.497.159-.441.188-.703.084-.975-.103-.319-.066-.422.169-.572.272-.178.272-.197.028-.478-.197-.244-.262-.572-.262-1.688 0-1.266.028-1.425.403-1.987.216-.328.45-.628.525-.675s.262-.403.431-.778c.216-.544.384-.741.694-.816.216-.056.581-.272.825-.497.216-.206.553-.544.741-.722.187-.197.478-.347.647-.347.216 0 .337-.122.412-.403.047-.244.216-.75.384-1.153.216-.572.272-.994.234-1.762-.047-.891-.019-1.022.197-1.078.347-.103.337-.253-.103-.769-.262-.328-.366-.619-.366-1.097 0-.356-.066-.797-.141-.947-.094-.169-.169-.675-.216-1.153s-.122-1.069-.197-1.322c-.075-.244-.169-1.453-.197-2.709-.047-1.772-.019-2.316.15-2.569.262-.422.103-1.116-.244-1.116-.394 0-.9-1.116-.787-1.725.103-.591-.169-2.1-.478-2.569-.15-.244-.169-.544-.103-1.069l.094-.741-.891-1.05c-.797-.928-.891-1.097-.862-1.622.047-.628-.178-.853-.534-.544-.309.253-.572-.319-.309-.675.216-.319.15-.825-.122-.825-.103 0-.337-.169-.525-.375s-.412-.375-.487-.375c-.066 0-.291-.169-.478-.375-.244-.272-.431-.366-.675-.3-.272.075-.403-.028-.722-.553-.234-.347-.412-.741-.412-.853 0-.394-.647-1.2-1.012-1.294-.197-.056-.572-.253-.825-.45-.366-.281-.666-.375-1.378-.394-.75-.028-1.087-.122-1.734-.506-.431-.272-1.228-.647-1.744-.825s-1.041-.422-1.134-.525c-.131-.122-.412-.15-.919-.056-.75.122-1.059.075-1.444-.244-.122-.103-.581-.225-1.022-.281-.919-.103-1.875-.422-2.025-.666-.122-.206-1.059-.169-1.341.056-.122.094-.319.206-.459.253s-.337.3-.412.553c-.122.375-.234.45-.647.45-.263 0-.647.131-.872.328-.216.178-.534.328-.722.347s-.45.253-.656.572c-.188.3-.469.553-.6.553-.122 0-.553.347-.947.75-.384.422-.844.75-.984.75-.244 0-.272.094-.216.675l.094.675h-.478c-.722 0-1.913.666-2.025 1.116-.047.206-.206.403-.347.469-.122.047-.506.328-.816.628-.572.544-.572.544-.403 1.2.234.853.216.947-.075.947-.15 0-.572.3-.947.647-.572.553-.684.769-.769 1.397-.056.403-.234.966-.384 1.228-.188.356-.272.797-.272 1.5s-.066 1.125-.244 1.387c-.338.497-.431 3.994-.131 5.456.141.722.169 1.153.075 1.5-.075.272-.131.966-.122 1.528.019.591.028 1.388.019 1.791-.019.844.338 2.541.525 2.616.075.019.244.131.394.244.234.169.244.347.131 1.866-.075.919-.122 1.744-.094 1.838.028.075.169.15.319.15.478 0 1.012 1.003 1.012 1.912 0 .525.103.966.291 1.275.159.272.291.647.291.816s.103.403.216.506c.309.253.272.6-.094.994s-.272.647.234.553c.272-.056.487.047.872.478.506.544.534.544 1.359.441.45-.047.863-.094.9-.094.45 0 .675.094 1.041.469.234.244.45.394.488.319.075-.122 2.213-.356 3.131-.347.366.019.581.131.825.45.188.225.337.497.337.572 0 .094.122.272.263.403.131.131.394.441.572.675s.506.628.722.891c.431.525.919 1.866.938 2.494 0 .6.141.891.553 1.041.337.131.347.178.244.853-.187 1.153-.047 3.094.291 3.862.103.253.244.647.291.872.122.441 1.106 1.116 1.378.928.075-.047.262.178.431.497.319.628.534.778 1.162.778.647 0 .919.319.919 1.022-.019.6.244 1.078.572 1.078.487 0 1.444-.356 1.444-.544 0-.122.066-.206.141-.206.094 0 .15.056.15.15 0 .075.169.178.366.244.337.094.347.122.262.975-.075.769-.047.9.187.994.431.178 2.081.122 2.269-.075.272-.281.656-.206 1.059.206.45.469.684.403.872-.197z"/><path d="M51.394 247.537c-.459-.572-.487-.666-.459-1.594.028-.816.103-1.041.366-1.266.337-.272.534-.272 1.856.056.366.094.872.197 1.134.244.45.075.459.103.459.797 0 .403-.047.825-.084.966-.103.281-1.266.844-1.734.844-.169 0-.478.131-.675.281l-.366.281-.487-.619zm-5.766-3.553c-.216-.206-1.912-.3-2.081-.122-.169.169-.6-.103-.609-.403 0-.272-.741-.778-1.256-.891-.272-.056-.684-.244-.938-.422-.478-.356-.487-.572-.122-2.391.187-.966.431-1.313.787-1.097.141.075.647.094 1.153.028 2.025-.253 2.484-.225 3.094.281.703.553 1.444.525 1.678-.075.094-.244.216-.347.384-.319.197.047.272.3.366 1.397.159 1.594 0 2.316-.6 2.719-.216.15-.581.45-.797.694-.534.544-.891.741-1.059.591zm9.947-6.731c-.056-.047-.103-.206-.103-.347s-.187-.506-.431-.825c-.309-.403-.431-.741-.431-1.125 0-.319-.103-.647-.216-.75s-.216-.328-.216-.506c0-.281.056-.319.506-.272.431.056.525.019.656-.347.075-.206.15-.591.15-.825 0-.347.056-.422.234-.347.131.047.394-.075.647-.328.431-.422.872-.441.872-.019 0 .206.309.394.675.394.703 0 1.641 1.425 1.237 1.847-.234.244-.188.403.122.403.272 0 .45.375.45.994 0 .347-.244.506-.806.506-.197 0-.422.131-.506.3s-.234.3-.337.3-.412.244-.684.525c-.412.441-.6.525-1.087.525-.337 0-.656-.047-.703-.103zm-12.197-44.934c-.262-.047-.422-.197-.553-.572-.103-.281-.262-.544-.347-.544-.103-.019-.347-.028-.572-.047-.675-.047-.75-.253-.572-1.313.103-.666.122-.975 0-1.05-.309-.197-.534-1.2-.384-1.772.272-1.097.291-1.369.047-2.222-.122-.478-.291-.975-.366-1.116-.187-.394.15-.628.45-.347.15.131.319.197.394.15.244-.15.309-.9.103-1.144-.169-.178-.169-.394-.056-.919.15-.694.15-.703.844-.797.384-.056.787-.197.891-.319s.384-.225.656-.225c.553 0 .722.328.506 1.05-.122.422-.103.422.366.347.431-.075.609.028 1.528.778.872.722 1.041.919.984 1.247-.028.225.056.478.169.591.122.094.216.375.234.628.019.272.131.6.262.75.216.244.234.506.169 1.688-.047.778-.075 1.425-.094 1.425 0 .019-.159.075-.347.122a.63.63 0 0 0-.431.45c-.047.197-.394.675-.75 1.069-.572.572-.656.769-.609 1.125.056.394.019.45-.272.45-.197 0-.487.094-.675.206-.384.244-1.041.356-1.575.281zm-9.019-9.732c0-.028.159-.094.366-.122.206-.047.366-.019.366.047 0 .075-.159.131-.366.131s-.366-.028-.366-.056m-1.912-3.712c-.459-.422-.966-.619-1.322-.497s-.656-.15-.769-.722c-.216-1.003-.684-1.8-1.322-2.269-.525-.375-.647-.553-.647-.928 0-.253.103-.619.234-.797.131-.197.262-.619.291-.947.056-.694.319-1.247.844-1.819.338-.394.338-.422.094-.422-.159 0-.291-.103-.291-.225 0-.253.656-.319.797-.075.169.272.628.169 1.088-.253.403-.347.6-.403 1.406-.394.722.019.984.075 1.116.281.15.197.319.244.816.169a6.6 6.6 0 0 1 1.359 0c.684.094.741.122 1.003.75.15.347.337.647.412.647s.131.75.122 1.669c-.019 1.641-.028 1.697-.609 2.897-.572 1.172-.628 1.219-1.134 1.266-.572.047-1.022.403-1.763 1.425-.319.45-.506.553-.891.553-.272 0-.628-.131-.825-.319zm15.769-2.672c-.103-.056-.234-.319-.309-.553-.131-.506-.919-1.116-1.453-1.116-.525 0-1.041-1.05-.872-1.697.056-.253.047-.6-.047-.825s-.15-1.228-.131-2.287c.028-1.566.075-1.912.272-2.072s.216-.244.056-.497c-.122-.178-.169-.328-.141-.356.122-.131.525-.103.9.056.244.103.6.169.797.131.309-.028.394-.131.431-.525.028-.319.15-.506.337-.572.141-.056.384-.197.487-.328.188-.197.319-.197.947-.028.572.15.769.15.9.019.103-.103.394-.178.656-.178.384 0 .487.075.572.375.122.497.347.666 1.078.75.347.047.684.122.741.169.197.122.15.6-.084.816a.73.73 0 0 0-.216.497c0 .394.572 1.641.825 1.8.291.178.234.703-.103.975-.234.197-.319.506-.403 1.453-.094 1.116-.131 1.2-.431 1.247-.216.028-.394.206-.487.469a1.2 1.2 0 0 1-.487.591c-.197.103-.366.3-.366.45 0 .675-1.303 1.153-1.959.722-.506-.347-.75-.3-1.022.206-.244.506-.234.497-.487.319zm-3.994-6.309c-.094-.356 0-.469.272-.356.262.103.262.647 0 .647-.103 0-.234-.131-.272-.281zm220.762 38.625c0-.225.094-.319.309-.319.366 0 .319.497-.056.572-.169.028-.244-.047-.244-.253zm-236.737-2.438c0-.178.075-.281.169-.253.262.094.291.375.047.469-.141.075-.216 0-.216-.206zm-7.135-4.884c0-.272.084-.356.309-.356.159 0 .459-.131.666-.3.431-.347.769-.394.769-.103 0 .319-.431.666-1.116.9-.628.225-.628.206-.628-.131zm-1.115-1.978c-.216-.15-.366-.628-.197-.628.216 0 .731.497.647.628-.084.15-.234.15-.431 0zm144.525-35.185c-.113-.056-.478-.244-.797-.403-.384-.178-.6-.403-.628-.619-.028-.197-.113-.347-.197-.347s-.487-.103-.938-.244c-.75-.206-.788-.253-.788-.703 0-.272.075-.769.15-1.125.122-.553.103-.694-.169-1.078-.291-.394-.309-.572-.244-2.062.075-1.762.047-1.997-.244-1.997-.216 0-.488-.422-.441-.675.019-.075.113-.441.216-.769.159-.553.141-.694-.094-1.097-.262-.45-.262-.478.019-1.294.262-.797.262-.891.028-1.997-.403-1.922-.319-2.897.319-3.591.262-.281.262-.347.075-.506-.169-.131-.197-.366-.113-.994.075-.675.056-.797-.15-.797-.431 0-.431-.675-.028-1.303.422-.628.478-1.322.159-1.763-.244-.328-.291-1.537-.075-1.669.094-.047.15-.225.15-.375 0-.225-.15-.3-.656-.375-.713-.122-.862-.244-1.003-.872a.82.82 0 0 0-.478-.572c-.216-.075-.609-.375-.872-.666-.806-.844-1.472-.966-5.859-1.069-3.6-.075-3.938-.056-4.631.206-.675.272-.816.272-1.5.094a11 11 0 0 1-1.369-.506c-.525-.253-.938-.3-2.831-.319-1.219-.019-2.25-.094-2.297-.169-.103-.169-2.081.028-2.531.253-.197.103-.703.244-1.088.319-1.003.15-1.397.347-1.931.975l-.45.544.197.722c.309 1.022.272 1.172-.262 1.444-.431.225-.469.281-.506 1.2-.028.525-.103 1.022-.187 1.116-.216.225-.169 1.219.103 1.444.169.131.197.319.131.647-.056.253-.113 1.191-.131 2.072-.019 1.003-.075 1.669-.188 1.791s-.113.225.056.403c.15.169.197.45.169.994-.047.422-.019 1.425.047 2.25.103 1.2.094 1.528-.094 1.791-.272.403-.291 2.362-.028 3.891.187 1.144.187 2.241-.019 3.844-.056.525-.056.994 0 1.022.234.15.113.506-.169.506-.506 0-1.594.872-1.688 1.35-.15.675-.534.825-1.5.591-.947-.225-1.491-.628-1.491-1.116 0-.394-.919-.975-1.547-.975-.216 0-.384-.103-.431-.253s-.197-.572-.366-.919l-.291-.666-1.022.103c-1.003.103-1.041.094-1.669-.375-.366-.253-.872-.544-1.134-.619s-.722-.281-.975-.478c-.769-.525-2.409-1.153-3.028-1.153-.169 0-.722-.225-1.163-.506-1.106-.666-1.369-.75-2.447-.722-.787.028-1.022-.028-1.622-.422-.384-.253-.75-.45-.797-.45-.103 0-1.35-.797-2.316-1.453-.45-.319-.656-.356-1.134-.281-.469.075-.647.028-.872-.206-.169-.169-.291-.403-.291-.525s-.216-.375-.487-.544c-.272-.169-.647-.544-.797-.825-.291-.497-1.078-.975-2.025-1.219-.216-.047-.6-.272-.844-.497-.347-.319-.684-.441-1.378-.506-.75-.094-1.041-.206-1.575-.675a7.8 7.8 0 0 0-1.537-.9c-.975-.394-1.594-.966-1.491-1.387.056-.197-.047-.3-.384-.375-.244-.047-.703-.272-1.003-.478-.469-.319-.675-.366-1.322-.3-.919.094-1.116.028-1.116-.328 0-.169-.197-.525-.45-.816-.384-.45-.487-.506-.806-.394-.609.253-.947.169-1.444-.347-.431-.45-1.425-.853-2.128-.853-.431 0-1.116-.403-1.228-.741-.047-.178-.319-.347-.741-.45-.487-.131-.722-.281-.937-.666a6 6 0 0 0-.431-.628c-.094-.075-.291-.3-.459-.478-.216-.244-.412-.3-.769-.244-.431.075-.487.028-.816-.572-.291-.525-.45-.675-.966-.816-.337-.075-.656-.197-.722-.253-.056-.075-.244-.122-.431-.122s-.384-.131-.478-.375c-.188-.441-1.266-.975-1.95-.975-.506 0-1.528-.478-1.809-.844-.431-.572-1.266-1.116-1.594-1.022-.291.075-.356.019-.394-.347-.047-.441-.319-.525-.872-.281-.188.094-.216.047-.159-.178s-.028-.3-.366-.375c-.262-.056-.487-.206-.534-.403-.122-.394-.534-.619-1.116-.591-.628.028-1.209-.206-1.819-.769-.534-.497-.741-.544-1.472-.272-.478.178-.525.169-.891-.272-.525-.647-.891-.816-1.734-.816-.609 0-.75-.056-.966-.375-.188-.3-.366-.375-.872-.375-.534 0-.75-.103-1.444-.694-.45-.375-.825-.797-.862-.928-.028-.169-.197-.244-.553-.244-.441-.019-.506-.075-.647-.506-.084-.347-.066-.591.056-.853.15-.272.15-.469.028-.778-.094-.225-.262-.872-.394-1.425-.216-.928-.216-1.05 0-1.537.272-.591.197-.844-.187-.75-.487.122-.647-.131-.459-.919.122-.591.122-.769-.056-.966-.272-.3-.309-2.213-.056-3.844.028-.169-.019-1.266-.075-2.438-.122-1.837-.103-2.213.103-2.616.197-.422.197-.553.028-1.191-.216-.741-.122-1.05.291-1.05.319 0 .394-.3.45-1.866.047-1.097.122-1.575.291-1.772s.197-.441.131-.975c-.244-1.819-.459-6.45-.337-7.209.094-.544.094-1.022-.028-1.472-.244-1.022-.197-1.519.169-1.763l.337-.225-.262-1.866c-.384-2.766-.431-4.209-.141-4.528.169-.206.197-.45.141-1.041-.084-.675-.028-.872.337-1.575.487-.891.506-1.116.272-2.044-.15-.572-.131-.722.141-1.247.262-.506.272-.628.103-.769-.169-.122-.197-.469-.15-1.697.075-1.453.056-1.547-.234-1.622-.216-.056-.291-.206-.291-.572 0-.272.075-.525.169-.553.122-.047.159-.375.122-.947-.122-2.222 0-5.259.234-6.075.319-1.172.337-2.4.019-2.869-.131-.197-.244-.469-.244-.572 0-.122.459-.694 1.022-1.275.553-.572 1.012-1.144 1.012-1.266 0-.253.862-.647 1.378-.647.309 0 .366-.056.347-.328-.019-.197.019-.572.084-.844.103-.441.169-.497.45-.441.187.028.431-.028.506-.131.094-.122.319-.206.506-.206.384 0 .45-.272.197-.75-.234-.469.272-.966.966-.947.628.019.938-.169.938-.544 0-.206 1.041-1.369 1.256-1.369.047 0 .309-.178.572-.394.487-.394.506-.403.469-1.416-.028-.9.019-1.069.319-1.416.244-.272.506-.394.844-.394h.487l-.103-.675c-.075-.619-.056-.675.234-.675.188 0 .384-.15.478-.375.131-.281.272-.375.656-.375.431 0 .487-.056.581-.469.103-.553 1.031-1.266 1.472-1.125.309.103.844-.403.938-.891.028-.169.188-.356.356-.45.403-.206 1.078-1.041 1.078-1.322 0-.122.103-.469.216-.769.216-.525.244-.544.947-.544.525 0 .75-.056.816-.225.122-.3.356-.281.356 0 0 .131.169.3.356.394.384.178.675.722.675 1.247 0 .197.131.525.291.722.309.403.572 1.416.581 2.166 0 .319-.103.544-.319.694-.309.206-.309.253-.15 1.294.337 2.063.113 4.388-.413 4.388-.084 0-.141.131-.141.3s.103.3.216.3c.244 0 .244.047.309 2.4.028.947.047 1.866.047 2.025.028.675-.169 4.444-.309 5.559-.309 2.55-.309 2.588-.094 2.944.413.675.413 1.266.019 1.641-.422.422-.478 1.266-.122 1.969.188.356.197.6.084 1.266-.084.45-.234.975-.338 1.172-.103.178-.187.919-.197 1.688-.019.75-.103 1.95-.169 2.672-.131 1.097-.131 1.397.047 1.65.15.253.187.75.15 2.025-.028 1.144.019 1.847.131 2.175.216.572.169 2.963-.075 3.431-.113.244-.103.375.094.591.384.422.647 1.341.656 2.194 0 .441.094.994.188 1.266.15.328.169.694.094 1.2-.131.919.019 1.566.394 1.622.384.075.769.619.787 1.078 0 .272.244.591.872 1.125.647.553.919.9 1.041 1.35.216.778.534 1.172.891 1.069.384-.094.975.544.975 1.041 0 .225.103.422.263.478.394.169 1.706 1.603 1.913 2.138.15.366.291.469.581.469.825 0 1.444.281 1.594.75.234.722.937.891 2.194.506.337-.103.356-.094.263.497-.131.797.113 1.003 1.191 1.022.75 0 .825.028 1.031.45.431.853.731 1.219 1.341 1.622.356.225.825.675 1.069 1.022.459.666.9.853 1.369.591.263-.131.309-.122.309.103 0 .15.263.591.6.994.506.619.675.703 1.134.703.431 0 .703.122 1.237.619l.675.619.581-.244c.938-.375 1.575.019 1.734 1.078l.094.553 1.087.028c.6.028 1.341.047 1.631.047.487 0 .553.047.675.469.113.506.309.666.938.816.234.047.525.281.731.6.309.497.366.525 1.153.525 1.134 0 1.631.206 1.519.647-.15.619.234.853 1.594.994.816.094.9.131 1.228.666.291.45.431.553.797.553.244 0 .553-.056.656-.131.141-.103.347-.047.628.15.319.244.403.422.403.853 0 .3.056.628.122.722.159.253.694.506 1.106.506.487 0 .816.375.816.975 0 .722.131.975.506.975.188 0 .394.075.431.15.056.103.169.103.337.019s.413-.047.769.131c.291.169.984.328 1.519.394.553.047 1.153.178 1.313.3.272.169.319.169.384-.094.028-.15.337-.45.647-.647.572-.375.581-.394.675-1.491.056-.722.197-1.397.459-1.969.337-.722.384-.994.291-1.5-.056-.347-.131-1.472-.15-2.494-.019-1.538.019-1.941.244-2.391.15-.3.263-.778.263-1.078s.056-.6.131-.675c.066-.094.169-.525.216-.975s.113-1.172.169-1.603c.047-.441.019-1.125-.075-1.547-.113-.572-.113-.853.019-1.097.094-.178.244-.928.356-1.688.103-.741.272-1.744.394-2.213.113-.497.159-.928.066-1.05-.047-.103-.066-.628-.028-1.172s.019-1.987-.075-3.234c-.159-2.138-.159-2.316.15-3.309.169-.572.319-1.191.338-1.35s.141-.525.291-.797c.309-.6.197-1.491-.216-2.044-.338-.45-.347-.741-.047-1.003.188-.169.216-.366.131-1.116-.131-1.05-.131-1.341 0-3.159.047-.741.216-1.65.356-2.025.197-.506.272-1.116.272-2.494.019-1.603-.019-1.866-.244-2.072-.234-.225-.262-.403-.197-1.153.056-.6 0-1.303-.169-2.091-.244-1.144-.244-1.266 0-3.112.15-1.05.272-2.175.309-2.494s.141-.947.272-1.416c.15-.478.197-1.003.15-1.228-.056-.206-.094-.891-.075-1.491.019-1.003-.019-1.153-.45-1.866l-.487-.769.319-.919c.169-.497.319-1.097.319-1.322s.094-.675.197-.975c.319-.891.572-2.616.553-3.759-.094-4.331-.056-4.809.337-5.391.403-.628.431-.797.188-1.866-.169-.694-.15-.797.075-.919.309-.178.975-1.622.975-2.091 0-.178.234-.6.525-.928.384-.45.487-.675.422-.928-.272-.919-.263-1.003.216-1.453.459-.45.478-.544.216-1.425-.056-.206.019-.45.272-.769.197-.253.384-.572.384-.703 0-.15.169-.403.356-.591.422-.403.459-.6.309-1.35s.169-1.453 1.134-2.522c.216-.244.394-.553.394-.703 0-.131.244-.394.534-.553.356-.197.656-.544.891-1.05.197-.403.422-.853.488-.975s.197-.403.309-.647c.094-.225.216-.403.272-.403s.338-.478.628-1.069c.366-.778.459-1.125.366-1.322s.028-.506.525-1.303c.347-.572.722-1.294.797-1.594.075-.319.244-.666.384-.75.844-.703 2.081-2.569 2.081-3.159 0-.319.722-1.894.9-2.016.084-.056.309-.45.488-.891s.412-.844.487-.9c.094-.047.169-.253.169-.45 0-.497.141-.825.366-.825.384 0 .647-.544.656-1.275 0-2.344-.047-2.147.581-2.766.469-.469.609-.525.741-.356.178.206.6.253.769.094.056-.075.319-.131.572-.15 2.869-.225 3.741-.347 4.106-.525.581-.3 2.738-.422 3.572-.206l.656.178.019.741c.019.6.066.778.403 1.05.487.403.722 1.219.684 2.466-.047 1.097.047 1.219.975 1.219.609 0 .741.103.478.394-.112.122-.216.769-.169 1.219.019.094.234.197.487.225.422.047.478.094.581.722a20 20 0 0 1 .178 1.622c.066 1.125.084 1.172.656 1.275l.441.103v2.438l.506-.056c.628-.047.788.169.797 1.003 0 .328.103.769.216.975s.197.525.216.722c0 .45.384.591.722.272.244-.244.272-.244.366-.019.15.394.103 1.416-.066 1.744-.122.253-.075.375.309.741.441.422.45.45.347 1.425-.112 1.125.056 1.444.9 1.725.422.15.525.281.722.975.122.45.384 1.05.6 1.35.272.441.338.666.262 1.069-.075.441-.019.619.469 1.275s.572.853.572 1.575c0 .666.056.891.291 1.05.291.225.319.722.056 1.05-.094.103-.056.244.094.356a.75.75 0 0 1 .216.469c0 .169.066.281.141.281.094 0 .15.094.15.197s.169.506.384.9c.197.403.338.816.309.9-.047.103.075.347.244.525.262.3.309.525.272 1.472-.019.928.019 1.116.216 1.116.309 0 1.041.741 1.041 1.041 0 .122.094.497.197.844.113.328.319.994.459 1.491.234.778.234.891.028 1.003-.131.075-.272.422-.319.797-.075.506-.028.797.197 1.247.309.619.291.966-.131 2.691-.075.272-.075.572 0 .675.216.356.15.741-.197.9-.309.131-.319.253-.347 1.519-.019 1.097-.075 1.425-.291 1.641-.234.244-.244.469-.188 1.95.047 1.116.019 1.837-.103 2.1-.113.3-.122.891-.047 2.044.066 1.022.047 2.044-.047 2.747a13 13 0 0 0-.113 2.025c.019.544-.056 1.153-.197 1.566-.169.469-.216.919-.159 1.575.047.497.019 1.266-.056 1.669-.075.422-.169 1.453-.197 2.325s-.103 2.044-.159 2.597c-.047.591-.019 1.425.084 1.969.131.75.131 1.041 0 1.294-.188.375-.422 2.513-.525 4.959-.262 5.831-.262 6.422-.056 7.209.113.469.113.75-.019 1.172-.113.328-.169 1.153-.169 1.997.019 1.172-.019 1.472-.188 1.547-.244.094-.272.675-.075 1.472.113.394.103.975-.019 1.95a21 21 0 0 0-.122 2.616c.019.9-.056 1.425-.291 2.1-.234.694-.309 1.219-.291 2.372 0 .816.056 1.575.131 1.716s.028.469-.169.891c-.15.366-.244.778-.187.928.047.15-.056.591-.216.966-.234.544-.262.769-.141 1.003.103.197.141 1.397.122 3.309-.019 2.616-.047 3.037-.262 3.169-.188.122-.159.131.178.094.309-.047.384 0 .384.206 0 .15.112.347.272.422.141.094.403.394.572.675.187.328.581.675 1.059.928.431.206.938.506 1.153.666.319.244.506.253 1.453.131.6-.075 1.191-.094 1.322-.056.403.131.947-.178 1.275-.722.262-.441.487-.591 1.331-.844.553-.178 1.059-.3 1.134-.281s.309-.178.534-.45c.394-.478.441-.497 1.106-.403.647.094.75.056 1.256-.366.628-.506 1.734-.919 2.531-.919.291 0 .609-.103.722-.225s.319-.225.487-.225c.169 0 .441-.103.6-.244.197-.15.469-.197.891-.122.534.075.628.047.722-.225.075-.253.216-.319.675-.319.656 0 1.425-.281 1.716-.647.103-.15.319-.253.488-.253s.384-.197.525-.45c.169-.3.366-.45.609-.45.234 0 .553-.225.947-.666s.787-.722 1.181-.825c.338-.094.684-.272.787-.394.197-.253.666-.3.797-.075.047.094.309.15.572.15.384 0 .6-.131 1.013-.6.422-.478.609-.6 1.031-.6.506 0 .966-.319.966-.666 0-.375.431-.6.787-.422.45.206 1.481 0 1.894-.403.262-.253.506-.319 1.275-.319.806 0 1.05-.056 1.378-.347.506-.441 1.575-1.003 1.884-1.003.113 0 .319-.244.441-.553.272-.675.984-1.425 1.162-1.247.094.094.338.075.647-.019.487-.169.891-.666 1.453-1.772.169-.328.244-.347.947-.272.844.094.975.047.844-.281-.047-.131-.187-.178-.347-.131-.216.075-.272.019-.272-.253s.131-.394.553-.553c.553-.206 1.472-.281 1.997-.169.244.056.338-.056.534-.675.216-.675.272-.769.75-.844.291-.047.647-.197.787-.328.15-.15.347-.253.441-.253.291 0 .609-.469.609-.891 0-.225.131-.544.291-.694s.291-.422.291-.591c.019-.394.431-.928.966-1.219.347-.178.422-.178.572.028.169.225.216.225.666-.047l.487-.3.094-1.425c.047-.778.113-1.491.169-1.575.094-.122.347-10.612.309-11.484-.028-.3-.169-3.469-.188-4.134 0-.075.047-.403.094-.741.056-.319.019-1.069-.094-1.688-.131-.816-.15-1.153-.028-1.303.103-.103.188-.525.216-.919.047-.394.15-.797.234-.891s.159-.441.159-.75c0-.45-.094-.694-.384-.966-.384-.366-.384-.394-.291-1.669.056-.722.122-2.288.169-3.469.056-1.594.15-2.269.309-2.522.244-.375.234-.441-.272-2.119-.113-.441-.103-.553.159-.844.394-.422.394-1.05 0-1.566l-.291-.403.319-.253c.262-.244.291-.356.197-.844-.047-.3-.103-.722-.084-.928s.047-.816.047-1.35c.028-.544.103-1.837.178-2.869.066-1.294.047-1.987-.047-2.194-.131-.225-.103-.375.075-.666.131-.197.309-.403.384-.45.262-.197.291-2.119.047-2.747-.319-.778-.291-1.2.113-1.866.291-.478.347-.75.366-2.119 0-1.322-.047-1.65-.272-2.091-.216-.375-.262-.572-.15-.778.094-.15.169-.6.216-1.003.094-.872.384-1.2 1.238-1.322.553-.075.722-.047 1.022.225.234.206.45.281.656.206.169-.047.6-.131.984-.169.628-.075.684-.047.684.244 0 .178.094.356.197.403s.272.272.384.506c.094.225.319.553.525.741.244.225.347.469.347.872 0 .675.384 1.322.975 1.697.291.178.488.478.647.947.141.478.366.797.722 1.041.403.281.525.469.553.9.047.478.103.553.441.6s.403.131.478.675c.047.375.272.919.553 1.322.244.356.628 1.022.816 1.453s.506.947.703 1.125c.197.197.403.572.45.844.056.319.234.591.487.741.722.469 1.631 1.491 1.631 1.866a.51.51 0 0 0 .309.497c.319.122.966.928 1.378 1.744.122.253.413.572.647.703.319.197.488.469.75 1.378.319 1.116.338 1.125.844 1.172.366.028.534.131.6.347.047.169.188.478.338.703.197.319.234.469.113.703-.188.356 0 .975.347 1.125.131.047.394.047.6 0 .431-.103.628.281.366.722-.216.375-.094.816.45 1.453.394.45.431.591.338 1.125-.056.347-.131 2.044-.169 3.769-.028 1.744-.084 3.366-.122 3.637-.056.375 0 .553.309.872l.384.394-.366.403c-.487.544-.572 1.416-.234 2.241.262.628.262.647-.084 1.472-.431 1.003-.488 2.794-.15 3.844.131.366.197.778.169.928s.028.816.141 1.472c.188 1.172.188 1.228-.141 2.063-.188.469-.469.891-.609.947-.262.103-.262.122.028.206.347.103.319-.197.347 4.013 0 2.137-.047 2.784-.234 3.309-.338.872-.431 2.419-.188 3.394.141.628.141.891-.019 1.397-.169.478-.169.919-.047 2.138.103 1.041.103 2.016.019 2.963-.169 1.838-.234 2.4-.384 4.509-.075.947-.178 1.875-.234 2.044s-.028.553.047.844c.103.366.094.628-.047.891a3.3 3.3 0 0 0-.272.947c-.103.525-.45 1.191-.919 1.716-.262.281-.234.919.028 1.022.244.103.272.394.084.778-.066.131-.234.506-.366.825-.159.394-.384.619-.656.722-.338.122-.469.3-.609.825-.103.366-.234.666-.291.666s-.15.178-.188.394c-.103.375-.15.394-.787.319-.478-.075-.769-.028-.966.122a1.3 1.3 0 0 1-.703.225c-.347 0-.403.056-.403.45 0 .253-.075.45-.169.45-.412 0-1.425.506-1.5.75-.056.178-.197.225-.506.178-.628-.094-.863.169-.731.797.103.478.094.525-.338.666-.234.094-.684.169-.984.169s-.6.075-.647.15c-.047.094-.412.15-.797.15-.553 0-.787.094-1.153.403-.244.225-.45.497-.45.6 0 .272-.487.497-1.116.497-.309.019-.722.103-.919.225s-.459.206-.6.225c-.131 0-.647.272-1.116.6s-1.153.703-1.481.825c-.338.122-.816.394-1.041.6-.244.225-.628.441-.862.478-.216.047-.431.169-.488.281s-.244.206-.45.206c-.197 0-.553.131-.769.281-.216.169-.684.328-1.041.375-.666.103-.666.103-.609.628l.056.544-.572-.094c-.45-.094-.647-.047-.947.197-.309.253-.6.319-1.547.319-.656 0-1.209.056-1.256.131s-.319.178-.6.225c-.366.075-.572.225-.722.544-.197.394-.309.45-.862.45-.384 0-.891.131-1.303.375-.384.206-.769.375-.891.375s-.319.122-.459.281c-.169.169-.572.319-1.069.375-.431.047-1.116.131-1.528.178-.938.103-1.566.441-1.866.975-.188.366-.338.441-.787.441-.319 0-.816.131-1.134.3s-.769.3-1.022.3c-.534 0-.9.469-.581.75.291.244.15.45-.319.45-.188 0-.534.094-.741.206-.947.525-1.997.994-2.231.994-.272 0-.422.3-.422.825 0 .469-.412.694-1.041.591-.347-.056-.553-.019-.684.15-.103.131-.291.244-.412.244s-.413.169-.628.366c-.234.197-.675.403-.975.469-.319.056-.787.319-1.106.628-.487.45-.647.506-1.078.422-.647-.122-1.162.206-1.238.778-.028.347-.103.422-.384.375a1.4 1.4 0 0 0-.722.178c-.216.122-.628.253-.9.319-.319.047-.891.394-1.5.9-.844.703-1.088.825-1.594.825-.366.019-.816.131-1.134.347-.534.347-.572.553-.169 1.041.309.356.019.469-.975.347-1.181-.131-1.959.028-2.531.525-.441.403-.506.422-1.397.3-.525-.056-.975-.094-1.003-.056s-.056.281-.056.544c0 .544-.159.722-.656.722-.338 0-.487.131-1.528 1.322-.506.591-.6.628-1.059.544-.431-.075-.581-.028-.9.281-.216.206-.628.422-.9.478s-.656.225-.844.347c-.188.131-.609.281-.947.347-2.128.403-3 .844-3.216 1.594-.159.619-.441.703-1.5.506-1.134-.225-1.162-.225-1.256.281-.103.45-.272.544-.684.319zm-25.472-30.15c0-.122-.056-.225-.15-.225-.075 0-.15.103-.15.225s.075.225.15.225c.094 0 .15-.103.15-.225"/><path d="M137.297 142.313c0-.272.384-.6.487-.403.131.206-.056.619-.291.619-.122 0-.197-.094-.197-.206zm8.006-3.319c-.234-.281-.075-.703.234-.647.394.075.609.553.347.722-.291.197-.384.178-.581-.075m-109.997-33.16a1.9 1.9 0 0 0-.469-.853c-.272-.253-.337-.441-.272-.722a1.08 1.08 0 0 0-.056-.666c-.103-.197-.103-.394-.028-.544.122-.206.169-.178.384.206.272.469.75.778 1.238.778.384 0 .469.197.291.666-.094.244-.244.394-.431.394-.216 0-.291.103-.291.422 0 .694-.244.9-.366.319m185.119-38.747c0-.253.075-.469.15-.469.094 0 .141.169.141.356 0 .206-.047.422-.141.469s-.15-.103-.15-.356m4.088-22.659c-.197-.047-.431-.122-.488-.197-.169-.178.459-1.05.75-1.05.338.019.75.356.75.628 0 .206-.45.75-.6.703-.028-.019-.216-.056-.431-.094zm-53.775-1.434c-.056-.178-.019-.422.075-.544.15-.169.197-.131.384.206.169.328.169.422 0 .525-.291.197-.366.169-.45-.197zm-95.391-8.1c-.15-.225.019-.347.291-.225.131.047.197.15.15.244-.112.197-.319.197-.431-.019zm69.665-16.81c0-.169.075-.3.15-.3.094 0 .15.131.15.3s-.056.3-.15.3c-.075 0-.15-.131-.15-.3"/></svg>