<svg xmlns="http://www.w3.org/2000/svg" xml:space="preserve" fill-rule="evenodd" stroke-linejoin="round" stroke-miterlimit="2" clip-rule="evenodd" viewBox="0 0 291 300"><path fill-rule="nonzero" d="M135.237 299.682c-1.23-1.303-7.669-32.264-8.428-32.899-1.415-1.483.332-3.71-3.529-13.607-1.543-3.956-.153-5.884.14-6.293.197-.272.185.413 3.94 1.458.311-1.214 2.172-1.608 2.483-2.822 1.225-4.777.729-10.394.65-11.296-.036-.403-.576.085-3.472-3.66-1.266-2.059 3-3.612 3.122-3.866 1.653-4.55-4.513-8.593-4.6-9.585-.02-.236 6.991-5.942.236-5.983-4.632-.028-3.745 1.896-8.05 3.687-2.093.591-12.124 16.862-14.663 14.033l-.31-.329.217-1.053c4.798-23.6 4.213-24.41 2.341-25.178-2.533-1.039-3.018-.612-17.25 11.36-.041 1.168.852 2.244.81 3.412-.016.403-.597.558-.96.734-3.535 1.711-6.938 1.952-7.298 2.238-.713.713-13.462 3.731-16.522 6.79-.281.416-.534-.362-6.115 1.393-.694.305.3 1.584-7.92 5.201-8.342 3.672-9.001 3.117-9.611 2.604l-.678-.554.076-.79c.266-3.039.767-2.874 20.84-31.93.11-.16.33-.207.46-.349 1.788-1.946 1.777-1.715 3.848-3.367 4.314 1.875 4.32 2.34 5.33 1.712 1.15-.714.677-.824 1.233-5.981 1.663-.72 3.078 1.774 8.22-3.556 4.838-5.016 4.584-5.789 4.39-6.376-.843-2.564-9.285.389-9.208-3.47l.028-1.101h.62c3.394 0 7.888-7.855 5.502-16.046-.841-2.89-10.845-3.542-11.899.602-2.127 8.366-4.624-.078-12.236-3.855a.84.84 0 0 1-.31-.385c-.404-1.638-16.83-1.262-24.904-8.597-.6-.546-.615-.36-2.446-.866-1.481-.41-2.02-1.057-2.154-1.119-2.913-.737-8.924 1.977-8.493-3.366l.038-.414.959.066c1.727.15 2.393-.544 2.54-.696l.62-.61.123.328c.017.043 12.736-2.439 14.25-3.214 3.264-1.672 3.467-9.991 6.085-4.59.695 1.435 2.67 5.511 19.777-2.437 1.437-.667 1.748.42 2.728-.912.314-.344 4.712-5.162 5.812-.442 2.186 9.381 10.078 1.976 10.62-.76 2.03-10.26-1.534-10.626-1.992-11.653-.09-.277-2.215-.75-1.412-1.863.281-.39 10.037-3.811 5.943-4.572-5.122-1.51-.56-6.082-5.654-8.023-8.574-3.266-8.155.497-9.273.979-.364.156-.562-.012-8.032-14.703-.405-.59-.27-.606-3.64-8.186l-5.032-2.272c-.126-1.53 1.002-5.369.988-5.766l-.038-1.345-.451-.32c-.179-.124-11.405-15.67-12.019-17.175-.344-.843.678-.741 10.863 3.423 6.244 2.554 6.002 2.833 10.74 7.572l.528.583.864-.095c12.067-1.265 18.192 13.877 27.275 13.346 5.645-.33-2.985 8.26 4.15 10.242 5.79 1.61 9.322 9.722 12.217 5.466l.432-.611.01-1.928V93.73c0-1.88-1.941-7.017-2.165-7.61a11 11 0 0 1-.244-1.194l-.085-.8-.535-.037c-.755-.056.24-2.468-1.054-8.793-.929-4.547-.954-4.534-.95-4.843l.028-1.758.536-.489c1.443-1.314 4.463 5.54 5.125 5.427l.433-.076-.075.47c-.698 3.842 5.556 3.87 8.531 7.798 1.288 1.7 6.026 9.405 10.31 6.66.824-.414 5.834-2.927 4.646-10.554 0-6.619 1.008-6.486.443-13.063-.428-4.966-7.51-6.677-7.327-6.922.418-.693 14.795-38.88 16.552-54.328 1.613-14.175 9.954 17.691 8.839 20.23-2.246 5.115 6.493 23.749 6.547 24.716l.094.894-.423.16c-13.166 5.5-5.756 10.06-5.634 24.283.01 1.336.182 21.357 12.321 11.267 7.71-6.409 6.261-7.658 14.13-13.75-.195.755-2.125 11.421-3.135 12.256l-.46.395.083 1.026c.133 1.406-7.509 18.827 4.853 12.686.954-.473 3.827.095 2.576-3.564-1.34-3.92 6.127.167 9.03-4.167.28-.31 2.219-2.452 4.683-2.323l.8.037-.029-.488c-.031-.964-1.772-4.87-1.449-5.305.288-.388.5.8 5.87-1.448l.724-.32.367.292c.35.27.356-.17 4.993-2.39l2.031.968.998.028.141-.451c.152-.434 5.58-1.424 7.714-3.31.634-.454 18.635-9.111 22.648-11.482 6.297-3.72-.833 5.943-.839 5.973-.756 2.132-4.074.024-15.313 23.776-2.367 5.002-3.62 4.047-5.898 9.199l-.245.507.34.443c.337.461-.863-.189-5.023 5.086.002-.026 3.176-10.797-8.257-2.633-14.264 10.186-16.936 14.026-14.295 17.533 2.082 2.763 11.04-1.862 11.211-1.937l.621-.282.8.264c5.755 1.957-4.193 8.51-5.078 13.852-.897 5.415 11.77 11.893 10.57-1.994l-.13-1.242.526-.64c2.256-2.677 10.563 10.804 21.246 6.455l.46-.198 1.007 1.12-.103.874c-.394 3.267.633 2.924 3.78 4.214 1.555.637 1.506 1.208 3.02.518.709-.201 2.252.816 2.425.93 1.892 1.247 2.3-.024 3.405.94 1.434.898 1.765-.015 20.092 6.578 17.183 6.182-3.26 3.02-3.62 2.924-1.805-.754-1.283 2.226-23.276 7.5-.685.827-.338 5.383-5.486 3.305-7.968-3.216-21.644 5.002-24.408 3.346-.105-.094.87-2.163.763-2.7-.052-.263-.38.147-2.756-1.91l-.367-.328-2.116.094c-1.658.054-3.962.122-5.154 2.023-2.77 3.473 14.201 8.631 1.864 13.052-12.107 4.338-3.012 10.348-.112 9.933 1.948-.28 2.715 7.116 6.707 9.104 4.677 2.33 4.76-4.605 5.191-4.26 4.772 3.803 1.811 8.13 8.53 7.957.143.229 2.258.088 1.806 2.87-1.95 12.007 4.979 17.004 7.77 17.004h1.006l.367.49c.84 1.142-2.735 2.247 4.93 17.033l-.32 2.663.037.649-.65.254c-2.922 1.103-19.074-13.175-22.413-12.819l-1.223.132-.386-.376c-1.074-1.055-1.491 1.027-2.549-.104-2.04-2.182 2.143-2.837.273-5.766-1.156-2.612-2.938-.066-4.57-2.34-1.359-1.49-12.901-.307-9.725-4.338 2.783-3.532-.51-3.868-1.269-4.797-1.11-.777-2.951.58-4.062-.197-.43-.3.605-4.553-6.328-7.015-17.27-6.132-8.42 19.682-14.248 16.449-.863-.479.407-1.474-8.643-8.795-2.738-2.214-8.708-.335-8.859 3.556l-.056 1.081.452.16c3.342 1.162.256 1.934-2.464 4.637-.251.248-3.762 24.29-.744 24.031 11.124-.954-1.975 12.181-1.89 18.595.04 3.008-3.25 11.605-5.058 16.268-5.248 13.53-3.002 14.473-5.438 16.77-.952 1.231-1.557.409-1.636.301zm17.88-98.755c0-1.28 1.585.575 13.59-8.455 3.558-2.004-10.038-23.017.723-17.004 3.706 2.071 8.915 3.051 10.036 2.624 3.103-1.183 9.637-12.33 8.483-14.437l-.3-.535.178-1.985c1.044-10.175-15.811-8.702-13.826-13.346.242-.857 2.058 1.804 9.313-6.113 1.572-1.716 6.375.252 4.195-5.888-5.36-15.093-19.806-1.436-21.22-4.336l-.16-.348-.367.49-1.308 1.457-.367.743.34.508c1.62 2.211 2.816 14.975 2.304 17.08-1.507 6.19 1.974 6.02 1.014 12.171l-.207 1.307c-.434 3.105-8.45 5.217-9.283 5.437-5.242 1.381-4.708 10.257-4.856 11.756-3.235 2.081-2.83 2.255-5.377 5.183l-.46.508-1.157-.028c-2.873-.041-4.267-1.487-4.448-1.55-1.214-1.324-.582-3.45-1.768-1.927-.72.924-1.214 3.115-2.577 3.763-.288.136.418-.922-3.33-2.183-9.569-4.392-.278-17.404-11.869-16.403-2.637.228-2.555-.063-4.054-2.474-5.347-8.604.203-17.75-.762-20.099-5.873-14.29 14.705-29.357 18.075-28.516 1.598.4 2.382-1.89 6.04-1.505.601.063 2.476 1.545 2.755 1.288.32-.234.32-.105 2.784.461 4.095.94 4.03 1.374 4.354 1.213 3.05-1.125 12.18 9.985 13.047 11.042 3.56-2.367 3.22-2.604 4.702-6.696.259-.713 5.71-5.694 5.324-6.584-6.392-14.714-20.45-17.865-29.323-8.024-4.483 4.971-3.21-5.103-9.894-5.004-1.294.02-9.88.147-15.539 4.507-.06.06-4.77-.271-4.864 8.86-.018 1.8 3.962 9.2 2.916 9.773-4.132 4.398-11.558-9.316-19.039 6.356-3.726 7.807-3.423 10.385 5.042 12.198.45.097 13 2.785.762 5.692-.15.056-.555.225-.875.413l-.922.49c-4.515 2.384-4.848 1.994-5.276 3.47-2.13 7.367 2.436 8.871 2.578 13.881.119 4.228 9.914 2.511 13.675 2.511-6.025 14.943-1.825 15.593 1.39 17.962 8.455 6.231 15.283 7.26 15.284 7.26l.348.443.875-.15c5.467-1.018 7.083.737 8.795-4.608.998-2.217 5.792 5.55 6.64 6.18 1.108.821 7.977 1.597 7.977 1.195zM142.6 175.1c.138 0 1.288-.551 1.223-1.44-.02-.291-.073-1.002-1.184-3.46-.92-2.034.19-2.334-.885-4.276-.16-.291-.839-.89-.924-.905-.692-.117-1.414.114-2.105-.002-.07.198-.052 1.57-1.957 4.374-.092.133-.2.263-.247.417-.11.354-.09.743-.218 1.09-.13.358-.432.639-.548 1.001-.106.33.223.316.08.935-.164.712.274.478 1.308.931 1.415.621 1.39.67 2.916.866.881.113.893.044 1.703.414.217.1.211.056.827.056zm9.679-11.21c2.608 0 2.41-.684 4.805-1.703 1.436-.611 1-1.082 2.163-2.305.291-.306 2.677-2.815.894-5.201l-.34-.471h-1.241c-1.676 0-1.503.704-3.207.847-1.8.15-2.095-.37-3.208 1.072-2.169 2.811-1.914 3.405-5.39 4.12-1.13.233-2.563 2.332.556 3.085q.671.162 1.326.386c.945.324.964.178 3.65.178zm-20.73-.264c.33-.369 1.024-.029 1.463-.26.461-.241.726-.747 1.114-1.094 1.29-1.156 1.811-1.559.47-2.615-1.774-1.399-1.905-1.116-4.113-1.49-1.193-1.414-1.024-1.665-2.038-1.907-1.628-.39-1.311-1.121-2.944-1.402-.466-.08-.543.124-1.12-.395-2.328-2.099-3.416-.578-3.747-.463-.28.098-.601-.05-.887.027-1.247.34-1.115 3.886-.473 5.026 1.129 2.003 1.673 1.505 3.245 3.32.061.07.575.662 1.09.423.148-.05.273.151.405.234 1.427.907 7.433.65 7.496.583zm68.78-140.694c0-.14.084-.312.25-.278.21.045.104.437-.101.494-.12.032-.159-.134-.159-.216z"/></svg>