<svg xmlns="http://www.w3.org/2000/svg" data-name="Layer_1" viewBox="0 0 400 400"><path d="M313.76 234.96c-1.54 6.77-3.03 13.55-4.67 20.3-.4 1.65-1.02 3.41-2.03 4.73-5.89 7.64-11.87 15.2-17.95 22.68-1.07 1.32-2.58 2.45-4.11 3.17-2.94 1.38-6.03.12-6.63-3-.71-3.71-2.13-6.14-5.47-8.4-2.79-1.89-5.41-3.21-8.62-3.96-3.1-.71-5.76-.2-8.37 1.4-2.83 1.74-6.04 3.06-8.4 5.29-1.48 1.4-2.29 4.11-2.35 6.26-.08 2.81-1.41 3.53-3.63 3.5-1.56-.02-3.11-.44-4.97-.72-.07.2-.66.98-.52 1.62.88 4.04-1.1 7.29-2.75 10.62-3.24 6.55-3.21 13.08-.54 19.86.71 1.81.51 4.2.09 6.2-1.21 5.83-2.58 11.64-4.25 17.35-.39 1.34-2.22 2.25-3.38 3.36-.42-1.41-1.29-2.86-1.19-4.24.52-7.13 1.35-14.25-1.29-21.16-.43-1.12-1.34-2.05-2.06-3.12-.81 2.3-1.41 4.01-2.01 5.72-1.13-.6-2.25-1.2-3.87-2.06-.23 2.4-.71 4.87-.66 7.33.19 9.18-.73 18.12-3.2 27.05-.93 3.34.88 7.43 1.36 11.18.21 1.61.22 3.24.32 4.86-1.48-.35-2.95-.7-4.43-1.06-.33-.08-.65-.19-1.69-.51-.44 2.67-.61 5.3-1.35 7.76-.61 2.05-2.12 5.65-2.82 5.56-3.07-.41-2.12-3.43-2.44-5.64-.46-3.19-.69-6.52-1.8-9.5-3.3-8.83-3.1-17.75-2.3-26.98.74-8.56.11-17.24.02-25.87 0-.77-.42-1.59-.82-2.28-5.36-9.38-6.26-19.67-5.89-30.13.07-2.1 1.18-4.21 2.01-6.23 1.9-4.63 3.93-9.2 6.25-14.59 1.03 1.14 2.11 1.9 2.58 2.94 1.24 2.76 2.5 5.57 3.23 8.49.87 3.49 3.38 4.75 6.36 5.31.79.15 2.52-.97 2.65-1.71.55-3.17.69-6.41.92-9.63.16-2.23.4-4.47.28-6.69-.23-4.26-.17-8.64-1.17-12.73-1.45-5.95-3.78-11.68-5.66-17.52-.84-2.61-1.67-5.25-2.23-7.93-.64-3.09-1.94-4-4.45-2.25-2.11 1.48-3.64 1.36-5.6-.15-2.1-1.61-4.39-.8-4.87 1.48-.85 4.09-1.24 8.34-2.6 12.25-3.59 10.31-2.76 21.39-5.92 31.77-.36 1.17.74 3.68 1.83 4.22 2.84 1.41 2.81 3.78 1.81 5.58-4.25 7.67-3.63 16.34-5.49 24.48-.44 1.92-.71 4.11-1.84 5.59-2.45 3.21-1.8 6.37-1.28 9.93.72 4.9.74 9.91.87 14.88.03 1.08-.76 2.18-1.18 3.27-.44.05-.88.09-1.32.14-1.01-2.72-2.33-5.37-2.95-8.18-.57-2.56-.97-4.96-4.23-6.8-.74 2.31-2.07 4.36-1.91 6.3.56 7.18 1.7 14.32 2.4 21.5.13 1.36-.77 2.83-1.19 4.24-1.26-.76-3.07-1.21-3.71-2.32-4.92-8.65-7.5-18.14-8.92-27.9-1.06-7.27-1.69-14.61-2.13-21.94-.25-4.24.71-8.57.33-12.79-.45-5.03-2.41-9.47-8.01-11.06-.88-.25-1.78-.7-2.48-1.28-5-4.13-10.85-3.26-15.54-.75-3.61 1.94-8.67 3.72-8.97 9.81-.21 4.3-4.43 5.73-8.15 3.38-.78-.5-1.59-1.08-2.14-1.8-4.36-5.76-8.74-11.5-12.94-17.36-2.85-3.97-5.65-8.01-8.04-12.26-1.98-3.52-3.54-7.32-4.91-11.13-1.44-4-.08-7.67 2.59-10.71 2.31-2.62 4.81-5.11 7.48-7.36 3.88-3.27 6.3-7.12 6.3-12.32 0-.92 0-2.12.53-2.7 4.58-4.94 3.68-11.49 2.16-16.3-1.76-5.54-1.42-10.52-1.29-15.89.06-2.42-1.47-4.87-2.29-7.31-2.9-8.67-5.43-17.43-5.06-26.7.11-2.76.75-5.51 1.24-8.26 1.13-6.42 2.26-12.84 3.49-19.23.64-3.32 1.79-6.57 2.17-9.91.29-2.52.24-5.31-.55-7.67-2.16-6.43-3.3-12.74.4-18.9.88-1.47 2.61-2.43 3.94-3.63.38.26.76.52 1.13.78-.12 1.18-.25 2.35-.35 3.53-.11 1.15-.56 2.45-.19 3.42.39 1.01 1.47 2.09 2.48 2.39.51.15 1.92-1.22 2.22-2.13.93-2.87 1.17-6.01 2.36-8.75 1.41-3.23 3.44-6.2 5.43-9.14.36-.53 1.81-.32 2.75-.45.05.95.49 2.13.1 2.83-4.27 7.56-4.93 15.9-5.68 24.27-.24 2.63-.91 5.36-2.03 7.74-2.37 5.05-2.21 10.22-1.15 15.39.25 1.23 2.72 3.22 3.07 3.01 1.65-.99 3.16-2.45 4.24-4.07.63-.95.08-2.61.57-3.74.37-.86 1.52-1.38 2.33-2.05.49.79 1.05 1.55 1.47 2.38.57 1.14 1.02 2.35 1.53 3.52 1.1-1.05 2.81-1.92 3.18-3.18 1.07-3.66 1.59-7.48 2.35-11.24.17-.86.42-1.71.91-3.68 1.23 1.73 2.33 2.59 2.46 3.57 1.25 10.11 2.14 20.26-.91 30.22-.62 2.03-2.15 3.77-3.15 5.71-.55 1.07-1.43 2.41-1.18 3.37 1.04 4.01 2.4 7.94 3.77 11.85.85 2.43 3.68 4.99-.87 6.72-.35.13-.78.75-.75 1.11.31 4.54-1.43 9.24 1.16 13.65.34.58-.39 2.53-1.08 2.83-3.2 1.4-6.05 2.95-7.3 6.57-.19.55-1.8 1.12-2.47.88-2.28-.8-2.28.42-2.38 2.06-.49 7.67-.94 15.35-1.65 23.01-.58 6.33 3.47 12.35 8.72 16.08 7.22 5.13 15.3 6.03 23.06 4.74 9.43-1.57 19.63-3.2 25.5-12.56 1.15-1.84 2.32-4 2.44-6.08.17-2.96 1.83-4.54 3.59-6.46.9-.99 1.65-2.95 1.29-4.12-1.33-4.31-1.76-7.96 2.22-11.41 1.76-1.52 1.54-4.17-.67-6.16-.98-.88-1.72-2.38-1.93-3.69-.51-3.22-.65-6.49-.94-9.75-.23-2.5-1.77-3.29-3.5-1.73-1.7 1.53-3.13 3.63-3.98 5.75-.96 2.41-1.15 5.13-1.76 8.08-3.8-1.76-3.51-4.86-3.84-7.62-.07-.55.24-1.13.34-1.71.72-4.22-.01-4.95-5.1-4.15-1.3-5.55-3.15-11.12-3.82-16.83-.95-8.19-1.85-16.41.27-24.73.94-3.69-.15-7.89-.28-11.86-.04-1.28-.32-2.71.15-3.8.43-1 1.63-2.09 2.64-2.27.72-.13 1.93 1.02 2.52 1.88 1.44 2.09 2.47 4.49 4 6.51 3.24 4.29 7.9 4.15 10.53-.47 4.62-8.1 6.95-16.78 5.85-26.24-.88-7.59-2.87-14.78-5.74-21.91-3.85-9.56-5.09-19.56-1.11-29.62 2.31-5.84 4.32-11.82 6.79-17.59.52-1.21 2.46-1.8 3.74-2.68.26 1.57 1.18 3.41.66 4.66-3.6 8.69-3.22 17.11-.03 25.91 4.49 12.38 8.73 24.88 12.26 37.56 3.06 10.97 1.43 21.58-4.39 31.72-5.02 8.75-6.09 18.57-4.71 28.49.34 2.46 1.94 5.07 3.68 6.94 2.75 2.97 7.21 1.94 8.4-1.93 1.74-5.68 2.74-11.58 4.46-17.26.99-3.27 2.89-6.26 4.15-9.47 1.46-3.74 2.56-7.63 4.05-11.36.52-1.3 1.75-2.32 2.65-3.47.62 1.37 1.68 2.72 1.77 4.12.14 2.29-.37 4.61-.58 6.7 1.47.12 2.82.22 4.18.33-.33 1.38-.58 2.79-.99 4.15-1.31 4.32-2.62 8.65-4.06 12.93-.71 2.1-.04 3.56 1.48 4.95 1.97 1.79 3.62 4.77 5.8 5.2 1.56.3 3.79-2.74 5.69-4.32 7.69-6.43 9.4-12.02 5.66-21.5-3.72-9.44-2.82-18.79-.57-28.24.23-.97.82-2.03 1.56-2.66 1.46-1.23 2.93-1.26 3.09 1.12.09 1.36-.18 2.78-.48 4.13-1.34 6.15.5 13.48 4.82 17.31 1.08-3.85 2.64-7.36 2.96-10.98.75-8.36 1.34-16.76-3.44-24.51-1.3-2.11-3.35-4.57-1.51-8.8 2.53 3.43 5.32 5.95 6.51 9.08 1.99 5.29 3.34 10.89 4.29 16.48 2.07 12.18 4.09 24.39 5.44 36.67 1.2 10.92.03 21.77-4.51 31.94-2.11 4.73-5.68 8.12-10.97 9.59-1.67.47-3.16 2.08-4.4 3.47-1.25 1.41-6.94 4.04-8.59 3.34-.72-.31-1.08-1.36-1.74-1.92-1.08-.92-2.44-2.55-3.38-2.36-1.25.25-2.93 1.82-3.16 3.05-.55 2.94-.74 6.07-.36 9.03.39 3.05-.29 5.14-3.19 6.12-2.18.74-2.73 1.81-1.73 3.9 3.86 8.09 6.95 16.65 11.67 24.2 4.17 6.66 11.47 9.12 19.45 9.13 3.29 0 6.66.32 9.86 1.08 3.93.93 8.08-.46 10.54-3.74 1.3-1.73 3.27-2.95 4.85-4.48 2.17-2.1 4.45-4.14 6.3-6.5.79-1 .78-2.75.85-4.17.15-3.43.3-6.87.15-10.3-.25-6.06-.35-12.17-1.32-18.13-.3-1.86-3.78-3.01-4.82-5-1.78-3.44-3.51-7.2-3.91-10.97-.37-3.46 1.24-7.09 1.62-10.68.28-2.63-.1-5.33-.04-8 .07-2.89-.38-6.03.6-8.6 2.67-6.98 1.47-13.45-1.2-19.99-2.78-6.81-5.52-13.64-8.17-20.49-.33-.84-.38-2.55.01-2.75.91-.47 2.3-.61 3.26-.26 1.26.46 2.29 1.53 3.42 2.34.3-.18.61-.36.91-.54-2.06-3.9-4.11-7.81-6.19-11.75 2.35-1.71 3.6-.75 4.8.77 2.67 3.38 5.39 6.72 8.09 10.08.36-.06.73-.12 1.09-.17-.31-3.22-.24-6.53-1.02-9.64-.82-3.25-2.49-6.27-3.71-9.43-2.47-6.38-2.64-12.74.62-18.88.45-.85 1.97-1.62 2.93-1.55.73.05 1.82 1.44 1.94 2.34.26 1.94-.15 3.97-.02 5.94.21 3.2.48 6.42 1.02 9.58.42 2.52 2.63 4.24 4.72 3.73 1.47-.36 3.28-2.93 3.39-4.61.32-4.71-.11-9.47-.36-14.21-.15-2.78-.66-5.54-.69-8.31 0-.73 1.02-1.79 1.8-2.09.44-.17 1.57.79 2 1.49.67 1.07 1.27 2.31 1.45 3.55 1.54 10.39 3.12 20.77 4.39 31.19.93 7.64 1.52 15.33 2.05 23.02.53 7.6 2.59 14.78 4.44 22.13 2.6 10.31 4.04 21.06.31 31.73-1.77 5.05-2.96 10.33-3.97 15.59-.58 3.02-.12 6.22-.38 9.32-.32 3.81-.4 7.75-1.46 11.37-1.74 5.93-.16 11.03 2.7 16 3.53 6.13 8.29 11.2 13.83 15.57v2.11Z"/><path d="M139.63 153.03c-1.01-5.14 3.51-7.23 5.67-10.62.79.51 2.15.93 2.24 1.53.15 1.05-.4 2.24-.82 3.31-2.04 5.24-2.03 10.39.54 15.46.21.41.52.88.49 1.29-.11 1.53-.35 3.04-.55 4.56-1.18-.75-2.94-1.24-3.43-2.31-1.95-4.23-3.5-8.64-5.2-12.98.35-.08.71-.17 1.06-.25Z"/></svg>