<svg xmlns="http://www.w3.org/2000/svg" viewBox="0 0 32 32"><path d="M7.543 26.17c0-.38-.114-.745.018-.907.863-1.055.516-2.065.232-3.245-.288-1.198-1.198-2.146-1.191-3.444.004-.273-.487-.642-.826-.811-.915-.468-1.881-.841-2.81-1.28-.332-.155-.623-.398-1.309-.844 1.221 0 1.995-.077 2.747.018.874.111 1.243-.52 1.752-.973.553-.49.656-1.003.277-1.681-.114-.203.044-.623.184-.892.509-.977 1.121-1.906 1.586-2.906.498-1.073.254-1.516-.922-2.028-.557-.243-.796-.918-.605-1.711.144-.601.634-.435 1.018-.439.992-.015.992.004 1.091 1.04.107 1.106.107 1.117 1.202 1.121 1.114.004 2.22.1 3.024-1.014.277-.383.959-.49 1.468-.693 1.232-.483 1.519-.87 1.527-2.139 0-.354-.041-.704-.03-1.058.037-1.154.815-2.53.926-2.249.339.848.778 1.807.667 2.659-.273 2.135-.336 2.017 1.67 2.965 1.106.524 2.319.708 3.407 1.394.745.468 2.08.431 2.817-.66.35-.516.844-.981 1.029-1.549.254-.785.785-.667 1.328-.631.111.007.313.288.295.317-.384.557-.122 1.53-.955 1.748-.745.195-.826.881-1.25 1.291-.535.516-.553.855.011 1.331.173.144.265.509.24.756-.162 1.479.177 2.895.413 4.333.17 1.014.712 1.541 1.781 1.648.667.066 1.328.199 1.988.302-.1 1.117-1.139 1.029-1.807 1.431-.752.454-1.659.741-1.689 1.925-.007.291-.24.815-.8 1.095-.819.413-1.088 1.648-.531 2.334.542.667.671 1.737 1.755 1.958.214.044.387.38.531.612.052.081-.007.288-.081.376-.074.085-.243.136-.361.122a.53.53 0 0 1-.343-.195c-.538-.822-1.427-1.077-2.275-1.328-.745-.221-1.674-.933-2.102.505-.07.24-.549.413-.874.509-1.176.347-2.378.612-3.547.985-.354.114-.889.476-.892.734-.011.944-.483 2.006.343 2.817.553.542.461.929-.055 1.394-.192.173-.229.527-.424.69-.151.122-.634.114-.642.088-.151-.627-.922-1.099-.395-1.921.236-.369.184-.929.251-1.405.144-1.003-.454-1.571-1.246-1.965-.424-.21-.926-.461-1.357-.409-1.224.148-1.988-.479-2.692-1.316-.38-.457-.726-.468-1.246-.088-.671.49-1.468.826-2.319 1.287zm18.212-9.916c.114-2.607-.896-4.65-2.312-6.472-1.667-2.142-4.196-2.895-6.685-2.928-1.884-.026-3.89.435-5.513 1.844-2.279 1.976-3.695 4.348-3.695 7.371.004 2.596 1.128 4.764 2.965 6.619 1.718 1.733 3.975 2.08 6.154 2.67 5.151-.686 9.097-4.171 9.086-9.104"/></svg>