<svg xmlns="http://www.w3.org/2000/svg" xml:space="preserve" fill-rule="evenodd" stroke-linejoin="round" stroke-miterlimit="2" clip-rule="evenodd" viewBox="0 0 348 347"><path d="M.037 156.419c1.335.01 5.843.044 8 .04 1.647-.005 3.293-.068 4.94-.07 4.338-.009 15.575.017 21.09.02 4 0 8-.008 12-.01 4.043-.002 8.173 0 12.26 0 12.407 0 51.768.141 62.18 0 .3-.005-.007-.814.29-.85 1.143-.143 5.512-.6 6.57 0 1.046.592-.192 2.596-.22 3.6-.023.806.025 1.91.05 2.42q.018.324.1.64c.237.921 1.215 3.441 1.32 4.89.093 1.284-.42 3.012-.69 3.8-.142.411-.825.496-.93.92-.39 1.578-1.465 6.227-1.41 8.55.045 1.886 1.285 3.73 1.74 5.39.412 1.502 1.082 3.792.99 4.57-.06.51-1.026.094-1.54.1-1.837.016-7.617-.099-9.48 0-.599.031-1.24.456-1.7.59-.346.1-.7.206-1.06.21-3.692.034-17.42.021-21.09 0-.313-.003-.635-.026-.93-.13-.768-.274-2.757-1.393-3.68-1.51-.67-.085-1.234.552-1.86.81-.67.274-1.388.815-2.16.84-4.338.136-19.682-.003-23.87-.02-.42-.002-.862.046-1.26-.09-.552-.189-1.284-1.052-2.05-1.04-1.013.014-2.636 1.061-4.03 1.13-3.887.188-15.715.131-19.29 0-.766-.029-1.562-.576-2.16-.79-.475-.172-.959-.319-1.43-.5-.627-.243-1.793-1.066-2.33-.95-.537.114-.293 1.464-.89 1.64-1.277.374-5.343.686-6.77.61-.694-.038-1.424-.48-1.79-1.07-1.763-2.849-7.072-12.679-8.79-16.02-.657-1.278-1.185-3.259-1.52-4.03-.103-.238-.324-.403-.49-.6-.405-.486-1.414-1.453-1.94-2.31-1.185-1.93-4.14-7.526-5.17-9.27-.266-.45-.842-.946-1.01-1.2-.06-.093-.002-.279 0-.33 0-.008.003.02.01.02M173.417 346.159c-.188-.48-.697-1.932-1.13-2.86-1.883-4.042-7.88-15.94-10.17-21.39-1.53-3.646-2.907-8.558-3.57-11.31-.408-1.695-.335-3.47-.41-5.21-.155-3.593-.338-12.04-.52-16.34-.133-3.156-.465-6.303-.57-9.46-.153-4.6-.3-12.093-.35-18.14-.063-7.739-.025-23.314-.03-28.29 0-.524-.394-1.226 0-1.57.535-.469 2.08-1.439 3.21-1.24 1.655.29 4.75 2.337 6.72 2.98 1.64.534 3.463.714 5.1.87 1.566.147 3.152.19 4.72.06 1.88-.157 4.543-.348 6.56-1 1.985-.641 4.185-2.609 5.54-2.91.916-.204 2.142.712 2.59 1.1.311.268.101.818.1 1.23-.008 6.364-.013 28.023-.15 36.96-.085 5.556-.468 11.106-.67 16.66-.213 5.853.133 12.596-.61 18.46-.719 5.673-1.875 11.352-3.85 16.72-2.365 6.428-8.418 17.733-10.34 21.85-.435.933-.828 2.374-1.19 2.85-.198.26-.817.002-.98 0-.007 0 .002-.014 0-.02M207.917 200.049c-.59-.094-2.39-.86-3.57-.6-1.883.412-6.165 1.892-7.73 3.08-1.16.88-1.275 3.12-1.66 4.04-.208.496-.48.969-.65 1.48-.355 1.066-1.248 3.746-1.48 4.92-.137.694.193 1.42.09 2.12-.252 1.701-1.097 6.653-1.6 8.09-.167.476-.947.707-1.42.53-.508-.193-1.225-1.074-1.63-1.68-.392-.588-.512-1.562-.8-1.96-.2-.278-.675-.469-.93-.43-.255.037-.506.377-.6.66-.108.324.092.883-.05 1.29-.268.77-.815 2.644-1.56 3.33-.739.68-2.488 1.244-2.91.78-.422-.466.317-2.894.38-3.57.015-.163.056-.338 0-.49-.127-.348-.433-1.443-.76-1.59-.327-.149-1.05.261-1.2.7-.158.463.232 1.571.25 2.08.012.325.067.716-.14.97-.485.591-1.908 2.102-2.77 2.58-.705.39-1.977.657-2.4.28-.423-.379-.07-1.724-.14-2.55-.068-.807-.125-2.419-.28-2.41-.155.007-.513 1.641-.65 2.46-.135.806.567 2.101-.17 2.45-.737.347-3.458-.206-4.25-.36-.248-.05-.456-.322-.5-.57-.143-.804-.133-3.308-.36-4.25-.135-.56-.687-1.334-1-1.41-.313-.078-.826.521-.88.95-.117.92.688 3.998.18 4.57s-2.498-.395-3.23-1.14c-.732-.746-.957-2.643-1.16-3.33-.076-.256.053-.56-.06-.8s-.382-.593-.62-.64-.626.12-.81.35c-.245.304-.465 1.034-.66 1.48-.173.394-.195.894-.51 1.19-.42.392-1.515 1.194-2.01 1.17s-.83-.792-.96-1.32c-.382-1.549-.987-5.763-1.33-7.97-.273-1.752-.237-3.567-.73-5.27-.55-1.9-2.073-4.993-2.57-6.13-.107-.245-.166-.582-.41-.69-1.368-.613-5.923-2.578-7.8-2.98-1.143-.246-2.568 1.325-3.46.57-1.468-1.244-4.305-6.244-5.35-8.03-.478-.819-.709-1.767-.92-2.69-.368-1.618-1.018-5.633-1.29-7.01-.084-.425-.21-.839-.34-1.25-.193-.613-.82-1.569-.82-2.42.002-1.347.351-3.815.83-5.66.508-1.96 2.008-4.719 2.22-6.1.12-.788-.712-1.472-.95-2.19-.228-.689-.412-1.687-.48-2.12-.025-.16.062-.319.07-.48.093-1.973.197-8.226.49-11.35.234-2.493.888-5.739 1.27-7.4a9.1 9.1 0 0 1 1.02-2.57c1.172-1.986 3.527-6.645 6.01-9.34s7.182-5.599 8.89-6.83c.398-.288.89-.422 1.36-.56 2.442-.716 9.207-2.968 13.29-3.73 3.684-.688 9.07-.716 11.21-.84a6.8 6.8 0 0 1 1.63.09c2.43.451 10.388 2.021 12.95 2.62.846.198 1.617.637 2.42.97 1.03.427 2.615.855 3.76 1.59 1.913 1.227 5.573 3.386 7.72 5.78 2.418 2.695 5.382 7.697 6.79 10.39.927 1.773 1.345 3.793 1.66 5.77.503 3.154 1.168 10.351 1.36 13.16.084 1.228-.033 2.814-.21 3.69-.117.58-.674.994-.85 1.56-.233.747-.508 2.172-.55 2.93-.03.544.096 1.102.3 1.61.307.762 1.256 1.89 1.54 2.97.407 1.546.812 5.137.9 6.31.02.268-.315.456-.37.72-.382 1.821-1.478 8.19-1.92 10.21-.146.665-.369 1.331-.73 1.91-.478.766-1.51 1.731-2.14 2.69-.905 1.377-2.747 4.642-3.29 5.58-.008.013.046.042.03.04m-12.63-9.92c1.263-.499 5.675-1.538 7.6-3 1.856-1.41 3.308-4.08 3.95-5.77.517-1.363.072-3.42-.1-4.37-.096-.533-.518-.98-.93-1.33-.475-.405-1.183-1.129-1.92-1.1-1.625.061-6.235 1.082-7.83 1.47-.627.151-1.143.603-1.74.85-1.952.804-7.932 2.695-9.97 3.98-1.23.774-1.952 2.912-2.26 3.73-.146.386.073.93.41 1.17 1.16.827 4.415 3.063 6.55 3.79 1.984.674 5.22.472 6.26.57.007 0-.027.012-.02.01m-48.45-15.67c-1 .691-4.997 3.224-5.99 4.15-.342.317-.186.985.03 1.4.722 1.382 2.238 5.208 4.3 6.89s6.29 2.694 8.07 3.2c.84.238 1.78.094 2.61-.17 2.017-.643 7.768-2.687 9.49-3.68.702-.406 1.037-1.495.84-2.28-.225-.895-1.099-2.456-2.19-3.09-2.027-1.179-8.062-3.208-9.97-3.98-.5-.204-.969-.487-1.48-.66-1.197-.408-4.748-1.484-5.7-1.78q-.005-.004-.01 0m27.39 28.42c.477.56 2.04 2.817 2.85 3.36.558.372 1.555.382 2.01-.11.52-.564 1.117-2.162 1.11-3.27s-.749-2.26-1.15-3.38c-.8-2.239-2.628-8.37-3.65-10.05-.43-.707-1.82-.53-2.48-.03-.665.502-1.13 1.98-1.51 3.05-.832 2.341-3 8.804-3.48 11-.16.732.032 1.71.6 2.17s1.948 1.004 2.81.59c.948-.458 2.398-2.776 2.88-3.33q.005-.006.01 0M332.177 185.039c-.43.172-2.302.512-2.6 1.01-.298.497.68 1.611.81 1.98.026.072.035.188-.03.23-.82.532-3.693 2.475-4.89 2.97-.705.291-1.533.097-2.29 0-.925-.12-2.357-.598-3.26-.72-.713-.097-1.698.142-2.16-.02-.355-.125-.238-1.006-.61-.95-.465.067-1.56 1.082-2.18 1.36-.478.213-1.016.303-1.54.31-4.317.052-20.168.014-24.36.01-.264 0-.593.135-.79-.04-.475-.423-1.415-2.278-2.06-2.49-.645-.214-1.337 1.151-1.81 1.21-.444.054-.603-.994-1.03-.86-.585.181-1.917 1.588-2.48 1.95-.26.166-.59.216-.9.22-2.683.03-12.277.131-15.2-.04-.845-.05-1.775-.909-2.34-.99-.384-.056-.712.556-1.05.5-.338-.058-.585-.8-.98-.84s-.914.431-1.39.6c-.655.232-1.657.714-2.54.79-1.54.132-5.248.204-6.7.01-.77-.104-1.585-.873-2.01-1.18-.232-.168-.287-.806-.54-.67-.357.191-1.033 1.514-1.6 1.82-.528.283-1.207.1-1.8.01-.637-.097-1.395-.585-2.02-.59-.606-.006-1.125.518-1.73.56-1.405.096-5.368.095-6.7.02-.457-.027-.853-.339-1.29-.47-.437-.133-.874-.306-1.33-.32-1.72-.056-7.205-.009-8.99-.01-.573-.001-1.448.202-1.72 0-.272-.203.004-.822.09-1.22.3-1.388 1.352-5.78 1.71-7.11.085-.315.468-.547.44-.87-.155-1.776-1.035-7.253-1.37-9.78-.238-1.794-.655-3.95-.64-5.39.012-1.11.615-2.576.73-3.25.045-.263-.039-.534-.04-.8-.002-.809.052-2.979.03-4.05-.016-.796-.907-2.108-.16-2.38 1.087-.398 5.542-.136 6.68 0 .273.031-.106.71.15.81.343.135 1.273 0 1.91 0 9.282-.002 44.19-.186 53.78-.01 1.302.023 2.99.82 3.76 1.06.3.092.728.552.86.38.132-.174-.34-1.184-.07-1.42.27-.238 1.127 0 1.69 0 5.458.002 25.378-.062 31.06.02 1.022.014 2.268.464 3.03.47.534.004 1.01-.385 1.54-.44.773-.083 2.067-.049 3.1-.05 3.757-.008 16.26-.194 19.44 0 .404.024-.174.8-.36 1.16-.692 1.338-2.935 5.553-3.79 6.87-.307.471-.854.744-1.34 1.03-.493.29-1.272.373-1.62.71-.334.321-.379.855-.47 1.31-.178.89-.034 2.794-.6 4.03-1.342 2.926-6.212 11.271-7.45 13.53-.005.007.03.016.02.02"/><path d="M99.517 225.799c.12-.323.357-1.355.72-1.94 3.175-5.128 15.203-23.92 18.33-28.82.13-.203.19-.566.43-.58 1.69-.098 7.342-.943 9.71 0 2.237.89 3.477 4.212 4.5 5.65.656.92.792 2.221 1.64 2.97 1.063.937 3.415 2.311 4.74 2.66 1.051.275 2.167-.877 3.21-.57 1.39.407 3.86 1.574 5.13 3.02s2 4.397 2.49 5.65c.233.596.395 1.23.45 1.87.072.827-.135 2.072-.02 3.1.198 1.767.84 5.776 1.21 7.51.213.998 1.032 2.272 1.01 2.89-.016.467-.746.567-1.14.82-2.948 1.887-13.358 8.56-16.55 10.51-.813.497-1.902.827-2.6 1.19-.554.287-1.092 1-1.59.99s-1.098-1.17-1.4-1.05-.185 1.214-.41 1.77c-.225.554-.437 1.22-.94 1.56-4.155 2.802-19.713 12.645-23.99 15.25-.488.296-1.13.304-1.67.38-.519.071-1.28-.206-1.57.07-.29.274.193 1.201-.17 1.58-.363.377-1.422.293-2.01.69-.698.47-1.33 1.572-2.18 2.13-6.453 4.228-30.187 19.245-36.54 23.24-.49.308-1.418.8-1.58.73s.377-.785.61-1.15c3.598-5.649 16.197-25.248 20.98-32.74 2.591-4.06 5.14-8.145 7.72-12.21 2.59-4.079 6.152-9.65 7.82-12.26.726-1.137 1.58-2.58 2.19-3.4.421-.567 1.225-1.269 1.47-1.52.002-.002 0 .012 0 .01M253.807 235.209c.515.414 2.36 1.387 3.11 2.48 3.53 5.146 14.902 23.408 18.07 28.4.324.51.935 1.147.94 1.55.005.402-.888.621-.91.87-.022.248.523.41.78.62.532.434 1.814 1.134 2.41 1.99 2.155 3.09 8.67 13.527 10.52 16.55.293.478 1.06 1.87.58 1.58-5.635-3.406-28.91-18.204-34.39-22.01-.472-.328 1.625-.627 1.51-.83-.115-.204-1.474-.226-2.2-.39-.747-.17-1.605-.224-2.28-.63-4.125-2.49-18.512-11.668-22.47-14.31-.555-.372-.918-1.178-1.28-1.54a3.2 3.2 0 0 0-.89-.64c-.697-.327-2.275-.716-3.29-1.32-3.332-1.983-13.733-8.567-16.7-10.58-.513-.349-.897-1.172-1.1-1.5-.085-.138.014-.38-.12-.47-.417-.28-1.577-.853-2.38-1.21-.796-.354-1.933-.75-2.44-.93-.194-.07-.423-.046-.6-.15-1.007-.599-4.733-2.29-5.44-3.44-.639-1.04.946-2.267 1.2-3.46.367-1.726.842-5.252 1-6.89.094-.977-.132-2.088-.05-2.94.071-.745.272-1.481.54-2.18.502-1.308 1.173-4.223 2.47-5.66 1.297-1.439 3.892-2.573 5.31-2.97 1.044-.294 2.151.852 3.2.58 1.282-.334 3.422-1.588 4.49-2.58.95-.883 1.18-2.318 1.92-3.38.943-1.356 2.89-3.844 3.74-4.75.348-.371.853-.654 1.36-.69 1.562-.115 6.432-.136 8.01 0a2.15 2.15 0 0 1 1.46.81c.898 1.17 3.212 5.028 3.93 6.21.166.272.26.583.38.88.263.642.975 2.36 1.2 2.98.086.237.012.529.15.74.228.35.776.944 1.22 1.36.5.467 1.351.815 1.78 1.45 2.462 3.641 10.373 16.286 12.99 20.4.906 1.424 2.328 3.281 2.71 4.28.21.547-.347 1.422-.42 1.71-.002.006-.026.004-.02.01M191.547 115.929c-.41-.082-1.634-.421-2.47-.51-3.677-.39-16.162-1.54-19.59-1.83-.327-.028-.658.03-.98.09-1.95.362-8.708 1.71-10.72 2.09-.447.084-1.107.326-1.35.19-.243-.138-.098-.672-.11-1.01-.055-1.585-.267-6.028-.22-8.5.04-2.12.346-4.226.5-6.34.162-2.223.12-5.24.47-7 .255-1.28.756-2.591 1.63-3.56 1.003-1.112 3.498-2.49 4.39-3.11.311-.216.77-.282.96-.61.245-.423.665-1.473.51-1.93s-.889-.796-1.44-.81c-1.515-.038-5.755.397-7.65.58-1.246.12-2.513.188-3.72.52-1.87.515-5.245 1.737-7.5 2.57-2.033.75-4.892 2-6.03 2.43-.254.096-.584.314-.8.15-.458-.347-1.682-1.293-1.95-2.23s.123-2.275.34-3.39c.24-1.235.692-2.977 1.1-4.02.318-.812.686-1.676 1.35-2.24 1.493-1.269 5.802-4.413 7.61-5.37.961-.508 2.154-.313 3.24-.37 3.153-.167 12.985-.522 15.68-.63.163-.007.36.078.49-.02.337-.254 1.432-.793 1.53-1.5.363-2.61.488-11.177.65-14.16.068-1.25.222-2.493.32-3.74.152-1.925.467-5.202.59-7.81.232-4.898.82-17.63.8-21.57-.004-.756-.686-1.353-.92-2.07-.728-2.23-3.223-8.63-3.45-11.31-.146-1.73.756-3.66 2.09-4.77 1.778-1.482 6.395-3.875 8.58-4.12 1.738-.196 3.58 1.182 4.53 2.65 1.348 2.082 3.575 6.958 3.56 9.84-.014 2.765-2.827 5.732-3.65 7.45-.452.943-1.302 1.813-1.29 2.86.065 5.482 1.397 24.43 1.68 30.03.06 1.188-.027 2.38.02 3.57.097 2.465.42 9.027.56 11.22.042.652-.03 1.367.28 1.94s.89 1.274 1.58 1.5c.862.282 2.393.143 3.59.19 2.695.106 9.068-.115 12.58.45 2.957.476 6.84 2.19 8.49 2.94.638.29 1.012.983 1.41 1.56.66.958 2.018 3.023 2.55 4.19.398.873.5 1.86.64 2.81.173 1.165.602 3.157.4 4.18-.163.83-.766 2.014-1.61 1.96-1.438-.092-4.664-1.72-7.02-2.51-2.605-.876-5.963-2.144-8.61-2.74-2.38-.536-5.515-.67-7.27-.84-1.083-.106-2.497-.278-3.26-.18-.504.064-1.158.333-1.32.76s.067 1.352.35 1.8.917.57 1.35.89c1.023.757 3.838 2.68 4.79 3.65.55.56.802 1.393.92 2.17.308 2.038.758 8.112.93 10.06.048.542.1 1.085.1 1.63a928 928 0 0 1-.09 10.46c-.009.469-.11 1.162-.13 1.4 0 .006.017.02.01.02M269.357 88.709c-.062.371-.019 1.573-.38 2.24-.973 1.797-4.298 6.895-5.46 8.54-.387.547-1.118.876-1.51 1.33-.354.41-.559.927-.84 1.39-.553.91-1.695 2.802-2.48 4.07-.733 1.183-1.793 2.713-2.23 3.53-.224.419-.154.957-.39 1.37-.728 1.272-3.01 5.353-3.98 6.27-.483.457-1.515-.677-1.84-.77-.076-.022-.166.153-.11.21.232.233 1.547.56 1.5 1.19s-1.24 2.172-1.78 2.59c-.385.298-1.054-.35-1.46-.08-.47.313-1.297 1.43-1.36 1.96-.062.517.937.814.98 1.22.043.404-.469.813-.72 1.21-1.672 2.637-7.257 11.668-9.31 14.61-.816 1.168-2.22 2.284-3.01 3.04-.55.525-1.422 1.09-1.73 1.49-.187.242-.16.606-.12.91.055.404.637 1.025.45 1.52-.343.904-1.927 3.144-2.51 3.91-.243.317-.59.652-.99.68-1.753.117-7.78 1.122-9.53.03-1.75-1.094-.396-4.446-.97-6.59-.66-2.468-1.644-5.628-2.99-8.21-1.518-2.913-3.559-6.597-6.12-9.27-2.723-2.844-7.91-6.238-10.22-7.79-1.092-.734-4.727-.788-3.64-1.53 14.902-10.163 77.647-49.75 93.05-59.45.395-.25-.38.855-.63 1.25-2.615 4.132-12.21 19.41-15.06 23.54-.452.654-1.75.794-2.04 1.24-.266.408.5 1.068.3 1.43s-1.109.341-1.5.74c-.48.488-1.152 1.827-1.38 2.19-.003.004.011-.015.01-.01M122.437 99.889c.425.12 1.927.507 2.54.73.405.147.77.389 1.14.61.623.371 1.738 1.072 2.6 1.62 4.133 2.623 18.355 11.65 22.2 14.12.313.2 1.115.42.87.7-.267.305-1.712.633-2.47 1.13-2.248 1.472-8.83 6.483-11.02 7.7-.629.349-1.637-.462-2.12-.4-.362.046-.63.442-.78.77-.15.326-.05.807-.12 1.19-.069.373-.057 1.001-.3 1.1-.243.097-.772-.648-1.16-.51-.388.136-1.217.74-1.17 1.33.048.61 1.3 1.781 1.46 2.33.101.345-.315.65-.5.96-.512.856-1.877 2.698-2.57 4.18-.778 1.662-1.51 4.451-2.1 5.8-.36.826-1.12 1.792-1.44 2.29-.152.236-.599.435-.48.69.122.26 1.172.417 1.21.87.038.452-.888 1.177-.98 1.84-.092.662 1.14 1.982.43 2.14-1.598.356-8.195.227-10.02 0-.548-.07-.632-.906-.93-1.37-2.205-3.443-10.152-15.623-12.3-19.29-.469-.802-.343-2.013-.59-2.72-.194-.558-.487-1.1-.89-1.53-.477-.51-1.39-.95-1.97-1.53s-1.043-1.274-1.51-1.95c-.48-.695-.904-1.486-1.37-2.22-2.803-4.413-12.633-19.44-15.45-24.26-.82-1.406-.817-3.252-1.45-4.66-.61-1.356-1.74-3.204-2.35-3.79-.32-.31-1.025.306-1.31.27-.209-.027-.286-.313-.4-.49-1.592-2.468-7.603-11.56-9.15-14.32-.366-.652.067-1.867-.13-2.24-.163-.31-.876.303-1.05 0-.248-.433-.343-2.137-.44-2.6-.016-.075-.084-.13-.14-.18-.58-.532-2.442-1.81-3.34-3.01-1.223-1.633-3.508-5.755-4-6.79-.172-.361.713.365 1.05.58 7.818 4.98 35.647 22.783 45.86 29.3 5.134 3.276 12.648 7.863 15.42 9.8.597.417 1.007 1.518 1.21 1.82.003.004.005-.011.01-.01"/></svg>