<svg xmlns="http://www.w3.org/2000/svg" xml:space="preserve" fill-rule="evenodd" stroke-linejoin="round" stroke-miterlimit="2" clip-rule="evenodd" viewBox="0 0 300 300"><path d="M96.508 108.334c.262.206.15.215-.653-.13.242.074.457.112.653.13M94.744 105.814c.159.075.252.121.29.121.14 0-.01-.056-.29-.121M121.143 135.77c0 .01.01.019.01.028.018 0 .009-.01-.01-.028"/><path d="M214.615 228.42c.401-.924 2.94-3.202 2.39-4.948-.86-2.716-5.032-7.56-7.543-11.342-3.594-5.414-9.998-15.822-14.021-21.134-2.969-3.92-7.646-7.328-10.091-10.745-2.091-2.93-2.736-6.693-4.593-9.773-3.38-5.592-13.77-18.484-15.692-23.805-1.037-2.856 2.66-6.086 4.144-8.112 1.233-1.68 3.202-2.67 4.79-4.023 3.154-2.68 9.456-7.982 14.114-12.052 5.526-4.826 13.629-11.902 19.052-16.878 4.603-4.219 11.193-8.354 13.49-12.985 2.193-4.424 4.844-13.2.28-14.814-4.556-1.606-19.828 1.307-27.641 5.153-7.814 3.846-12.565 12.275-19.258 17.942-8.28 7.02-23.123 24.737-30.451 24.159-7.328-.57-10.091-20.463-13.527-27.604-2.427-5.05-5.937-12.173-7.066-15.244-.364-.999.952-2.315.317-3.165-.812-1.101-3.127-3.323-5.2-3.426-4.004-.205-12.845.15-18.828 2.185-7.646 2.604-23.86 10.446-27.035 13.452-2.23 2.119 5.508 2.903 8.02 4.611 2.482 1.699 4.639 3.837 7.029 5.666 2.707 2.082 7.318 5.601 9.213 6.796.616.392 1.69-.177 2.166.374 2.315 2.679 7.99 11.202 11.734 15.71 3.323 4.005 8.943 9.457 10.735 11.352.01.01.01.028.01.028s-.019-.028-.01-.028c1.382 1.643 8.448 5.582 8.318 9.886s-5.396 11.062-9.12 15.916c-3.781 4.929-9.373 8.822-13.592 13.666-5.405 6.218-13.835 16.215-18.848 23.627-4.425 6.544-10.418 16.047-11.24 20.864-.578 3.36 3.259 9.615 6.293 8.056 5.535-2.847 19.715-17.615 26.913-25.12 5.937-6.19 10.679-13.424 16.27-19.921 5.788-6.721 11.996-20.948 18.447-20.407s15.505 17.448 20.257 23.665c3.22 4.22 5.657 9.83 8.242 13.62 2.194 3.21 5.107 5.9 7.291 9.11 2.39 3.51 4.724 8.44 7.03 11.93 2.072 3.137 5.106 8.355 6.814 9s2.166-4.042 3.426-5.107c1.101-.924 2.875-1.988 4.126-1.27 3.342 1.924 13.778 11.95 15.916 12.808 2.138.86-2.558-6.487-3.071-7.673-.084-.177-.056.607-.056.607s-.028-.42.056-.607"/><path d="M214.615 228.42c-.056.084-.075.27-.056.607-.01-.196.01-.402.056-.607M95.855 108.204c-.262-.122-.607-.271-1.046-.476.41.233.747.382 1.046.476"/><path d="M15.275 205.036c-1.923-14.096-10.8-18.95-4.472-23.487.756-.542-7.86-.103-.98-11.548 1.214-2.025-6.469-1.185-3.977-29.246.056-.616-9.447-35.912 33.495-88.235 11.612-14.152 12.116-13.788 60.126-38.992 58.979-30.964 104.03.215 111.367 5.293 23.972 16.588 24.738 15.141 45.872 35.324 15.151 14.469 12.435 25.886 23.077 25.904 3.855.01 21.2 59.726 13.097 86.358-11.342 37.257-24.635 46.545-10.054 44.295 2.744-.42-27.912 50.344-66.381 70.022C133.69 323.05 83 283.217 71.369 278.194l8.868 2.418c-4.257-1.923-48.635-21.947-44.696-37.592.999-3.949-16.457-1.036-14.628-19.36.99-9.905-5.283-16.038-5.638-18.624M224.697 49.122c-15.767-12.443-17.774-8.7-25.28-16.093-21.377-21.07-28.994.093-55.944-13.685C90.739 34.429 90.59 32.842 86.52 35.26c-47.478 28.248-48.038 30.973-63.161 84.052-10.829 38.013-7.99 38.442 2.212 77.098 1.317 1.597 8-1.82 8.225 9.97.28 15.057 58.231 107.39 156.016 67.072 58.25-24.019 66.68-48.663 76.612-72.682-.812-2.1-5.937 2.203-6.749.102-.532-1.372 8.261-13.106 14.339-36.145 16.747-63.46-41.43-109.378-49.317-115.605"/></svg>