<svg xmlns="http://www.w3.org/2000/svg" xml:space="preserve" fill-rule="evenodd" stroke-linejoin="round" stroke-miterlimit="2" clip-rule="evenodd" viewBox="0 0 300 300"><path fill-rule="nonzero" d="M63.288 137.844c0-.01.01.038 0 0M168.928 63.739c.009-.01.009-.02.018-.028-.122-.066-.103-.038-.018.028M227.764 138.672c.02-.01.029-.029.038-.029-.01.01-.019.02-.038.029M63.25 137.731v-.009zM227.793 138.643q.042-.027 0 0M63.241 137.722q0-.015 0 0M63.26 137.76c0-.01-.01-.02-.01-.029 0 .01.01.01.01.029M63.288 137.844v-.01zM215.796 158.265c-.01.01 0 .01 0 0M196.785 239.826v.029c.047-.02.038-.029 0-.029M63.26 137.77v-.01zM63.279 137.835c0-.01-.01-.028-.01-.038 0 .01.01.028.01.038M63.27 137.797c0-.01-.01-.019-.01-.028 0 .01.01.019.01.028M105.503 159.168c-1.448-1.674.63.724 0 0M107.844 94.708c-.038.01-.104.038-.188.066zM119.267 213.614q-.028-.057 0 0M107.646 94.774a.14.14 0 0 1-.066.02c.02-.01.047-.01.066-.02M119.267 213.614c.028.066.01.019 0 0"/><path fill-rule="nonzero" d="M246.474 148.27c-11.903-7.85-14.29-7.868-13.087-8.15-2.069-.301-4.137-.612-6.205-.912.968-.884-7.099-4.795-8.406-5.548 1.505.358-2.83-1.372-4.362-1.598 1.175 12.035 1.636 11.969 1.344 12.975-.235.799-3.112.075-2.435.554-10.69.865-15.146 3.526-15.315-7.164-.15-9.89 6.506-79.361-6.76-79.004 5.312 7.456-73.11 4.89-88.886 4.89-2.52 0-5.218-7.334-5.772-4.88-1.25 5.51-1.41 2.914-1.75 37.936-.037 3.827-.413 42.215 2.097 47.762-15.513.348-23.09 7.766-23.56-7.926-.085-3.037-3.254-5.36-35.483 13.51 2.012 2.332 2.548 1.072 35.473 14.893 3.385-1.27.329-8.932 3.714-10.201 16.791-6.29 17.487 8.565 17.562 10.192.31 6.637-.122 6.148-1.607 82.99 49.886-10.953 97.46.526 96.002-4.25-.15 2.445 7.202 2.905 7.747-8.63 1.768-37.542 1.09-77.04 3.028-76.899-2.323-1.88 9.552-6.27 16.105 1.947 6.111 7.662 7.484 2.67 15.805-2.257 7.925-4.682 11.235-6.91 12.11-7.87.573 1.035 3.262-1.334 2.66-2.35zm-116.696-6.044c.743 1.306.46.45 6.243 6.101-1.288 3.799-.893 8.03-2.181 11.819-.423 1.222-13.859 9.129-16.124 11.31-6.497 6.243-13.605 25.582-14.47 27.942-.8-2.143-2.877-.977-2.567-3.225 1.796-12.984 1.608-12.852 1.984-25.836.498-17.252 11.602-16.218 10.728-20.863-.132-.705-6.243-2.162-7.447-3.3-2.595-2.444-1.626-32.972-1.09-33.63.846-1.034 1.598.329 1.598.329 12.646 13.886 12.081 14.216 25.131 27.594 1.505 1.542-2.219 1.025-1.805 1.759M143.364 189c-2.181 11.705-19.227 21.54-28.798 27.782 1.354.583-7.531 6.798-9.938 4.184-1.373-1.495.555-33.63 19.142-49.34 27.106-22.904 19.98 15.305 19.594 17.364zm-4.964-60.398c-20.948-6.684-23.806-6.355-29.738-27.538-.424-1.532-4.89-25.479 14.281-25.413 4.015.01 40.043.132 50.159.902 4.682.358 9.186 2.116 13.858 2.473.094 2.548 6.102 26.429-6.647 41.754-6.497 7.803-38.491 7.803-41.904 7.803zm46.924 87.362c-.489 1.646-.3 3.432-.601 5.124-1.072 6.187-3.94 3.3-8.763-.601-27.81-22.47-28.234-28.958-28.45-32.4-.132-2.04-1.974-30.659 7.465-24.453 21.878 14.394 24.915 20.364 26.175 22.837 1.081 2.125 8.16 16.04 4.174 29.493m3.554-81.598c-.507 4.362-.695 9.684.405 10.746-2.454 3.356-8.951 1.232-9.11 4.278-.16 3.046 7.709 6.252 8.141 14.018.122 2.115-.32 2.078-.32 26.429-18.286-29.71-26.973-24.408-30.245-40.175 2.82 1.674 25.845-25.385 24.99-26.833 1.194-1.024 4.88-5.293 6.703-4.663-.45 1.805-.836 16.171-.573 16.2zM107.853 94.7q.029-.015 0 0"/><path fill-rule="nonzero" d="M157.636 297.338c-11.593-2.473-21.286 5.688-24.031-3.46-.273-.903-2.699 7.559-11.424-2.887-1.532-1.842-3.271 5.82-29.39-5.838-.61-.273-37.654-2.811-73.701-61.329-9.675-15.7-9.205-16.058-17.572-70.636C-8.74 86.275 36.108 53.321 43.413 47.953c23.805-17.487 22.649-18.729 49.068-32.37 18.85-9.732 28.986-3.385 32.521-13.586 1.034-2.99 84.626-7.277 121.5 46.85 3.77 5.527 3.075-8.735 6.337-6.563 9.609 6.384 54.258 74.237 46.098 128.664-10.512 70.082-49.04 92.769-51.983 95.993 17.365-31.167-4.89 21.756-40.306 23.702-16.294.894-14.724 14.188-29.372 7.466-9.223-4.231-19.443-1.824-19.668-.79zM77.166 44.709c-3.132-.01-19.387 16.754-23.797 18.936-27.623 13.698-9.74 28.102-31.59 49.153-2.952 55.584-4.513 55.207-3.535 59.908 11.451 54.907 13.868 56.346 59.805 88.387 33.31 23.232 34.73 20.402 74.717 23.336 1.965-.734.893-8.293 12.288-4.598 14.526 4.71 122.3-20.392 115.897-127.592-4.983-83.348-45.336-97.14-45.76-96.106-4.042 9.928-4.822-3.282-30.753-20.637-27.51-18.41-95.043-23.007-127.273 9.223z"/></svg>