<svg xmlns="http://www.w3.org/2000/svg" xml:space="preserve" fill-rule="evenodd" stroke-linejoin="round" stroke-miterlimit="2" clip-rule="evenodd" viewBox="0 0 300 300"><path fill-rule="nonzero" d="M20.325 198.384c.525-2.344 2.044-4.041 3.647-5.737 1.838-1.941 3.478-4.078 5.194-6.131.178-.216.309-.497.525-.684 5.128-4.772 8.597-10.884 13.087-16.162 3.131-3.703 6.516-7.191 9.853-10.706 1.416-1.491 3.281-1.988 5.353-2.119 2.156-.141 4.294-.497 6.403.253.759.262 1.669.469 2.203 1.013 3.3 3.384 7.003 6.487 7.875 11.559.347 2.025.281 3.713-1.275 5.288-2.119 2.156-4.041 4.509-6.094 6.731a17.1 17.1 0 0 1-7.406 4.762c-.131.047-.291.075-.412.141-6.619 4.069-14.4 5.259-21.3 8.625-1.331.647-2.681 1.284-4.087 1.753-.938.309-2.053.122-2.962.478-2.775 1.106-5.822 1.706-7.959 4.134-.6.684-1.538.394-2.053-.441-.244-.394-.384-.862-.563-1.303-.009-.506-.009-.984-.009-1.472z"/><path fill-rule="nonzero" d="m166.95 57.825-1.472-3.938c1.359-.778 3.131-.628 4.453.628.666.609 1.228 1.359 1.706 2.128 3.356 5.306 7.313 10.116 11.503 14.784 1.941 2.166 3.431 4.744 5.194 7.059.947 1.237 2.072 2.344 3.141 3.497.553.591 1.228 1.097 1.734 1.716a75 75 0 0 1 2.897 3.778c1.397 1.95 2.662 3.825 5.484 4.088 2.428.225 4.706.525 7.05-.516 1.603-.722 3.366-1.144 5.1-1.491 2.419-.506 3.938-1.856 4.641-4.2.919-2.972 1.369-5.991.928-9.103-.159-1.144-.094-2.306-.281-3.441-.225-1.453-.347-3.019-.975-4.322-1.903-3.994-4.575-7.359-8.175-10.059-3.919-2.934-7.556-6.253-11.334-9.366-3.262-2.691-6.459-5.4-9.131-8.766-1.481-1.875-3.666-3.197-5.569-4.725-1.191-.947-2.438-1.819-3.797-2.822 1.416-.975 1.584-2.072.675-3.319 1.2-.938 2.334-.647 3.403-.047 2.353 1.303 4.716 2.597 7.022 3.984 8.259 4.931 16.884 8.897 26.381 10.922 1.903.412 3.853 1.359 5.391 2.578 4.941 3.881 9.722 7.997 14.55 12.028.478.394.928.844 1.416 1.228 4.519 3.581 9.066 7.125 13.547 10.753 1.059.862 1.941 1.987 2.794 3.094a38 38 0 0 1 2.756 4.05c.478.806.816 1.734 1.031 2.663a93 93 0 0 1 1.228 5.747c.684 3.834 1.106 7.697.328 11.588-.169.834-.094 1.706-.253 2.55-.338 1.828-.478 3.75-1.181 5.438-.975 2.334-2.381 4.491-3.628 6.703-.731 1.303-1.556 2.541-2.297 3.825a44.6 44.6 0 0 1-10.359 12.075c-1.969 1.612-4.069 3.066-6.037 4.688-6.647 5.456-14.494 8.803-22.116 12.553-.975.478-2.091.722-3.178.938-2.559.525-4.556 2.044-6.412 3.703-.581.516-.862 1.631-.853 2.466.047 2.044.769 3.834 2.156 5.494 3.816 4.575 7.434 9.309 11.175 13.95 1.603 1.969 3.394 3.787 4.959 5.794 1.866 2.381 3.572 4.875 5.344 7.313 3.178 4.388 3.309 9.637 3.956 14.672.469 3.713.356 7.491.609 11.231.384 5.606-1.284 10.725-3.609 15.694-1.247 2.691-2.747 5.288-3.984 7.997-.581 1.238-1.078 2.634-1.144 3.984-.159 3.309-1.566 6.15-3.141 8.887-1.359 2.372-3.047 4.556-4.641 6.787-.966 1.331-2.222 1.313-2.887-.178-.394-.881-.469-2.072-.244-3.019.394-1.669 1.059-3.281 1.716-4.884 2.034-4.941 2.888-10.022 2.156-15.347-.141-1.031-.122-2.119-.038-3.159.159-2.109-.384-4.05-.938-6.066-1.481-5.4-4.556-9.872-7.594-14.456-1.772-2.681-3.178-5.606-5.737-7.678-.553-.441-1.097-1.022-1.744-1.238-2.803-.9-5.644-1.538-8.625-.75-4.284 1.144-8.259 2.925-11.55 5.916-3.347 3.056-5.372 7.003-6.497 11.363-.394 1.566-.497 3.216-.666 4.838a190 190 0 0 0-.609 6.572c-.056.9-.244 1.95.122 2.681 1.106 2.241.375 4.406.131 6.628-.131 1.162.047 2.353.094 3.534.009.244.169.506.113.694-.759 2.213-.009 4.369.159 6.553.122 1.613-.009 3.262-.206 4.875-.441 3.713-.919 7.425-1.519 11.119-.375 2.269-.966 4.509-1.491 6.759-.459 1.959-1.134 3.778-2.269 5.531-1.228 1.884-1.866 4.172-2.719 6.291-.9 2.213-1.753 4.434-2.625 6.675a183 183 0 0 0-1.613 4.256c-.309.863-.197 2.175-1.556 2.025-1.238-.141-1.669-1.191-1.556-2.381.328-3.197.553-6.422 1.05-9.6.816-5.306 1.359-10.575.159-15.9-.206-.881-.262-1.969-1.284-1.922-.675.038-1.481.778-1.912 1.416-.694 1.013-1.219 2.072-2.662 2.128-1.144.038-1.959-.347-2.325-1.5a6 6 0 0 0-.338-.947c-.6-1.359-1.481-1.481-2.344-.3-.478.647-.891 1.369-1.275 2.091-.947 1.819-2.578 2.306-4.266 1.116-.684-.478-1.134-1.284-1.791-1.819-.516-.422-1.181-.731-1.828-.9-.122-.038-.694.797-.694 1.219.037 5.859-1.247 11.691-.412 17.559.009.047 0 .113.009.141 1.941 3.834 1.556 8.231 2.944 12.206.291.834.047 1.828.047 2.756 0 .075-.113.141-.263.328-.394-.384-.806-.694-1.134-1.078-1.05-1.275-2.334-2.072-3.956-2.466-.666-.169-1.444-.713-1.734-1.303-1.106-2.222-2.006-4.547-3.047-6.816-.394-.853-.975-1.622-1.397-2.475-.834-1.706-1.706-3.413-2.391-5.184-.694-1.828-1.219-3.731-1.772-5.616-.244-.834-.497-1.669-.544-2.522-.497-7.744-1.922-15.347-3.834-22.856-.947-3.713-.309-7.256.459-10.828.666-3.094.422-5.953-1.247-8.747-.459-.759-.422-2.128-.075-2.981 1.481-3.6.178-6.919-.816-10.247-.197-.628-1.022-1.106-1.622-1.556-1.181-.853-1.875-1.903-1.8-3.403.112-2.269-1.022-3.853-2.897-4.941-1.453-.844-2.888-1.753-4.434-2.391-4.219-1.753-8.428-1.106-12.197 1.069-2.794 1.613-5.4 3.741-7.612 6.094-4.125 4.387-6.75 9.619-8.297 15.553-1.219 4.603.028 8.728.891 13.022.281 1.406.694 2.794 1.003 4.2.113.516.075 1.069.113 1.875-2.494-.769-2.944-3.244-5.025-4.603-.038 1.144-.263 2.091-.047 2.934.506 1.903 1.284 3.713 1.837 5.606.169.562-.056 1.247-.112 1.875-.563-.122-1.228-.084-1.688-.384-5.409-3.525-9.141-8.381-11.306-14.456-.525-1.491-1.191-2.934-1.622-4.462-.328-1.144-.459-2.344-.525-3.534-.281-5.128-.563-10.256-.694-15.394-.056-2.241.197-4.491.375-6.722.122-1.528.291-3.066.563-4.584.206-1.069.497-2.166.975-3.15 3.328-6.834 7.472-13.059 13.35-18.037 2.972-2.513 5.7-5.306 8.55-7.959 1.744-1.622 2.091-3.619 1.941-5.916-.159-2.081 0-4.181.131-6.281.094-1.434.394-2.85.6-4.284.131-.891-.206-1.444-1.097-1.744-1.444-.497-2.831-1.228-4.303-1.575-1.237-.291-2.578-.131-3.862-.225-6.366-.441-12.253-2.672-18.188-4.809-2.025-.731-4.2-1.05-6.178-1.856-3.994-1.603-7.997-3.244-11.85-5.175-4.369-2.175-7.894-5.409-10.669-9.488-1.266-1.856-2.85-3.488-4.2-5.306-2.072-2.803-3.075-6.075-3.619-9.469-.591-3.713-.684-7.425-.159-11.194.516-3.694.609-7.453.731-11.184.169-5.353 2.391-9.722 5.644-13.866 5.381-6.891 10.397-14.063 15.656-21.038 2.934-3.872 6.469-7.087 11.128-8.85 1.069-.412 2.053-1.022 3.056-1.603 7.528-4.331 15.797-6.413 24.225-8.044 1.613-.309 3.197-.937 4.716-1.603 7.284-3.178 13.847-7.688 20.747-11.569.966-.544 1.987-.984 3.009-1.369.497-.197 1.059-.159 1.603-.216.084.131.178.253.263.384-1.997 2.803-3.919 5.653-6.019 8.372-1.828 2.353-3.75 4.641-5.822 6.788-3.497 3.628-7.566 6.563-12.356 8.25-4.256 1.491-7.734 3.9-10.669 7.313-2.719 3.159-5.737 6.084-8.625 9.103-1.322 1.397-2.672 2.766-3.994 4.172-.291.309-.6.666-.75 1.05-2.428 6.469-4.106 12.975-.581 19.631.225.422.412.9.75 1.219 5.278 4.819 11.297 7.912 18.619 7.997 2.344.028 3.966-.684 4.875-3.113 1.013-2.719 2.438-5.222 4.284-7.575 2.709-3.469 5.072-7.228 6.553-11.466.609-1.753 1.575-3.394 2.287-5.128.759-1.866 1.228-3.853 2.109-5.644 2.269-4.678 5.447-8.681 9.403-12.056 1.059-.9 2.25-.937 3.384.112 1.406 1.303 1.903 2.803 1.266 4.209-2.475 5.475-1.303 11.981 2.934 16.191.75.75 1.5 1.491 2.203 2.287 2.522 2.859 5.794 4.406 9.506 4.547 6.291.263 12.488-.375 18.141-3.572.253-.141.525-.281.806-.309 3.009-.469 4.744-2.391 5.709-5.1 1.238-3.478 2.831-6.881 2.756-10.678-.038-1.528-.291-3.056-.478-4.584-.225-1.837.225-2.25 1.922-1.706.356.122.75.178 1.134.244.328.028.666.009 1.444.056zm-11.306 151.444c-2.119.778-2.691 1.528-3.075 3.853-.516 3.197-1.519 6.15-3.938 8.456a4.5 4.5 0 0 0-.853 1.153c-.637 1.275-1.35 1.059-2.213.244-1.641-1.528-2.222-3.478-2.606-5.616-.281-1.519-.966-2.972-1.566-4.416-.122-.3-.675-.581-1.022-.581-.225 0-.628.497-.666.806-.169 1.406-.394 2.841-.309 4.238.141 2.334.497 4.659.778 6.975.075.609.263 1.2.413 1.8.384 1.566.9 3.103 1.144 4.688.75 4.884 1.369 9.778 2.109 14.672.216 1.434 1.2 1.772 2.213.834 3.103-2.906 5.616-6.216 6.45-10.5 1.219-6.3 2.597-12.581 2.634-19.069.009-1.622.356-3.234.506-4.856.056-.816.009-1.65.009-2.681zm8.344-18.788c.938-.309 1.584-.459 2.175-.731 2.634-1.247 5.287-2.456 7.856-3.834.966-.516 1.866-1.35 2.475-2.25 2.466-3.619 3.797-7.725 4.622-11.991.141-.769-.094-1.613-.169-2.419-.797.206-1.688.225-2.353.638-7.022 4.209-11.184 10.753-14.409 18.009-.291.666-.131 1.528-.197 2.588zM110.419 172.2c-1.069.206-1.444.722-1.022 1.584.506 1.031 1.078 2.044 1.744 2.972 1.622 2.259 3.403 4.416 4.969 6.713 3.319 4.884 7.359 6.328 12.844 4.434 1.481-.506 1.8-1.284.769-2.428-1.538-1.697-3.066-3.478-4.884-4.819-3.234-2.409-6.628-4.594-10.059-6.713-1.313-.806-2.897-1.181-4.369-1.744z"/><path fill-rule="nonzero" d="M279.637 178.172c0 .356.028.469 0 .553-.3.759-.6 1.519-.9 2.259-.666-.478-1.331-.928-1.969-1.444-.356-.3-.6-.769-.975-1.031-.853-.581-1.622-.591-2.053.544-.253.675-.459 1.369-.778 2.006-.469.919-1.247 1.313-2.119.6-1.387-1.134-2.991-1.397-4.678-1.659-2.775-.441-5.531-1.078-8.325-1.5-2.878-.441-5.794-1.097-8.672-1.013-6.619.197-12.778-2.034-19.125-3.141-.375-.056-.778-.206-1.05-.441-2.981-2.625-6.047-5.175-8.878-7.959-1.387-1.359-1.519-3.347-1.359-5.287a26 26 0 0 0 0-4.434c-.244-2.513.431-4.078 2.728-5.175 2.428-1.153 4.903-2.175 7.397-3.188.497-.206 1.144-.225 1.659-.113 5.953 1.359 11.55 3.525 16.453 7.303 8.709 6.684 18.178 12.188 27.928 17.212a18 18 0 0 1 2.672 1.697c1.434 1.106 2.259 2.559 2.044 4.219zM149.878 62.992c-.291.009-.834 1.161-1.087 1.574-1.753 2.972-3.853 5.447-7.641 5.934-3.516.441-7.912-1.566-9.619-4.669-1.997-3.619-2.222-7.491-1.612-11.484.984-6.506 1.959-13.013 2.972-19.509.647-4.172 1.106-8.381 2.053-12.488 1.584-6.891 1.969-14.109 5.259-20.578.553-1.097 1.219-2.006 2.475-1.697 1.266.328 1.669 1.519 1.744 2.719.159 2.672.141 5.353.366 8.025.291 3.441.609 6.881 1.134 10.294a265 265 0 0 0 2.325 13.313c.544 2.672 1.772 5.259 1.997 7.941a41 41 0 0 0 1.95 9.525c.084.262.037.562.047.853.047 1.959.094 3.909.159 5.869.009.525.131 1.05.159 1.575.084 2.391-.225 2.719-2.681 2.803"/></svg>