<svg xmlns="http://www.w3.org/2000/svg" viewBox="0 0 300 300"><path d="M116.166 17.813c.094-1.153.047-1.228-1.303-2.531-1.05-1.003-3.291-1.219-4.322-.272a14.7 14.7 0 0 0-2.363 2.756c-1.5 2.288-3.141 4.434-5.1 6.338-1.097 1.059-1.144 2.259-.272 3.412 1.903 2.522 5.466 3.047 7.894.984 3.253-2.775 5.578-6.131 5.466-10.697zm5.381 233.709c.019-1.003.066-2.016.056-3.009-.047-3.056-.141-6.103-.141-9.159 0-1.228.197-2.456.309-3.694.337-3.759.713-7.5 1.003-11.269.15-1.922.713-3.684 1.603-5.372 1.106-2.091 2.203-2.588 4.509-1.978.675.178 1.359.291 2.044.366.225.028.553-.113.694-.3 1.013-1.256 2.137-2.456 2.963-3.816 1.669-2.784 3.15-5.691 4.781-8.484.525-.891 1.313-1.603 1.959-2.419.516-.638 1.003-1.294 1.753-2.287-2.006.197-3.459.431-4.678 1.566-.516.487-1.125 1.284-1.987.534-.563-.478-.394-1.313.281-2.278 3.066-4.434 6.253-8.803 9.141-13.359 2.128-3.347 3.666-7.022 4.828-10.847.881-2.925 1.753-5.85 2.719-8.747.281-.844.797-1.641 1.369-2.325 1.097-1.341 2.484-1.491 4.116-.431.591-1.894 1.059-3.638 1.659-5.344 1.594-4.481 1.594-9.197 2.203-13.828.178-1.341.619-2.644.844-3.975.197-1.284.272-2.578.366-3.872.103-1.416.591-2.503 2.128-2.897 1.003-.253.984-.3 2.137.637.984-1.772 2.063-3.506 2.344-5.494.638-4.5 1.453-8.991 1.125-13.575-.084-1.219-.178-2.475-.544-3.628-.759-2.447-.553-4.547.788-6.862 2.325-4.013 3.694-8.428 4.406-13.041.347-2.231-.534-4.05-1.631-5.812-.234-.366-.862-.516-1.341-.684-1.313-.487-2.203-1.303-2.466-2.756-.094-.525-.488-1.003-.759-1.491-.197-.337-.591-.628-.628-.966-.272-2.466-1.219-4.734-1.987-7.059-.394-1.219-.591-2.494-1.219-3.666-.366-.675-.506-1.463-.769-2.194-.15-.422-.234-.909-.516-1.228-1.228-1.453-1.416-3.188-1.35-4.959.056-1.866.956-2.841 2.831-3.15.769-.131 1.547-.141 2.484-.234-.553-1.059-.947-2.044-2.091-2.616-.572-.3-.891-1.069-1.35-1.603-.516-.581-1.059-1.134-1.725-1.856-1.059 1.566-2.156 2.972-3.019 4.519-.797 1.425-1.781 2.569-3.272 3.188-1.294.544-1.678 1.425-1.453 2.775.234 1.416.3 2.841.431 4.247 1.341.778 1.612 1.331.9 2.616-.553.984-.553 1.922-.525 2.981.084 2.672.103 5.344.019 8.006-.028.872-.225 1.913-.731 2.578-.806 1.031-.825 2.1-.881 3.281-.047.956-.113 2.025-.591 2.803-.778 1.294-1.003 2.616-1.031 4.069-.047 2.213-1.181 3.853-2.756 5.362-2.578 2.484-4.931 5.184-5.775 8.841-.084.366-.206.741-.338 1.219-1.144-.075-1.847-.684-2.213-1.631-.741-1.913-2.306-2.972-3.947-3.975-.553-.337-1.088-.675-1.641-.984s-1.106-.722-1.716-.853c-2.578-.553-5.166-.431-7.753.009-.366.056-.806.206-1.05.469-1.106 1.172-2.513 1.237-3.975 1.219-.975-.009-1.95.066-2.934.075-1.659.038-3.197.3-4.444 1.584-.994 1.022-2.297 1.463-3.713 1.481-2.1.028-3.928.937-5.625 1.987-2.034 1.256-4.041 2.606-5.484 4.612-.403.553-1.069.938-1.613 1.397-.9.75-1.791 1.5-2.7 2.241-1.434 1.191-2.944 2.297-4.294 3.6-1.575 1.528-3.009 3.216-4.519 4.819-.263.281-.591.666-.909.694-2.231.197-4.519.703-6.609-.703-.572-.394-1.284-.581-1.856-.947-.741-.487-1.519-.975-2.119-1.622-.994-1.059-2.044-1.641-3.563-1.603-3.844.094-7.688-.019-11.522.019-1.491.019-2.709-.244-3.281-1.828-.122-.338-.525-.553-.797-.834-.994-.984-1.003-1.228-.291-2.456.178-.3.206-.694.328-1.05s.141-.872.384-1.031c1.153-.731.9-1.753.675-2.775-.328-1.519-.6-3.056-1.059-4.537-.741-2.372-.394-4.781-.394-7.172-.009-1.031.469-1.987 1.35-2.709.637-.525 1.153-1.209 1.941-2.053.309.825.656 1.425.778 2.072.6 3.319 2.484 5.794 5.025 7.875 1.069.872 2.166 1.003 3.441.487 1.547-.609 3.15-1.097 4.978-1.716 0-1.453.009-3.197 0-4.941-.009-1.228-.009-2.381.712-3.544.591-.956.647-2.231.975-3.347.206-.741.459-1.481.713-2.222.3-.891 1.003-1.153 1.856-1.088.806.075 1.35.6 1.472 1.35.141.9.169 1.819.112 2.728-.122 1.65.15 3.216.628 4.781.206.675.216 1.406.3 2.109.112.966.487 1.716 1.744 2.1.178-.666.394-1.247.487-1.838.206-1.153.291-2.325.534-3.469.431-2.044 1.247-2.353 2.991-1.313.713.431 1.509.713 2.269 1.05.928.412 1.837.666 2.587-.619.366.825.628 1.397.938 2.109l1.35-.487c-1.153-1.031-1.087-2.1-.797-3.281.309-1.256.431-2.569.675-3.844.178-.966.338-1.95 1.341-2.447 1.753.816 3.469 1.631 5.278 2.475.337-.225.684-.459 1.191-.797.272.694.525 1.322.797 2.025.787-.084 1.481-.459.806-1.153-.919-.947-.647-1.875-.516-2.897.188-1.472.366-2.963.525-4.444.113-.994.3-1.931 1.284-2.663.394.225.834.459 1.256.713.281.169.609.563.806.506 1.725-.516 2.625.994 3.928 1.631.984-.984.356-1.997.244-2.963s-.225-1.913-.366-3.037c2.391-.019 2.925-1.753 3.441-3.45 1.078.3 1.697.862 2.119 1.744.844 1.753 1.613 2.231 2.916 1.978 1.388-.263 2.484-1.659 2.55-3.291.019-.459-.075-.919-.028-1.369.141-1.434.778-1.894 2.269-1.894.694 0 1.397-.178 2.081-.272.637-1.05.366-1.791-.281-2.691a60 60 0 0 1-3.759-5.916c-.928-1.678-2.016-3.188-3.45-4.425-1.294-1.116-2.513-2.269-2.991-4.228-.741.178-1.538.141-2.044.516-1.453 1.031-3.056.947-4.884.909-.591-1.603-1.791-2.616-3.647-2.353-.713.103-1.65.422-2.016.956-1.05 1.537-2.147 3.094-2.091 5.138.047 1.35-.122 2.709-.188 3.975-1.05.787-1.978.619-2.428-.328-.394-.844-1.078-1.219-1.631-1.819-.703-.75-1.228-1.659-1.913-2.428-.497-.572-1.069-1.134-1.725-1.509-.844-.478-1.303-.178-1.725.787a143 143 0 0 1-1.931 4.209c-.366.769-.966.919-1.537.3-.656-.703-1.219-1.369-2.25-1.65-.525-.15-.806-1.116-1.256-1.669-.581-.712-.966-1.762-2.344-1.547.159 1.153-.244 1.95-1.406 2.334-.9.309-1.172 1.181-1.247 2.044-.103 1.163-.188 2.325-.188 3.506.009 1.125-.337 2.044-1.209 2.747-1.2.966-2.297.637-2.991-.713-.9-1.762-1.491-3.6-1.444-5.578.037-1.556-.637-2.55-2.231-3.347-.178 2.025-.497 3.956-.459 5.878.037 1.997-.647 3.394-2.7 4.397-.778-.684-1.65-1.416-2.475-2.203-.591-.553-.806-1.247-.872-2.081-.075-1.069-.422-2.119-.647-3.187-1.031.019-1.378.506-1.603 1.153-1.059 3.141-2.128 6.281-3.169 9.431-1.509 4.584-2.681 9.244-2.287 14.137.028.459-.019.909-.056 1.369-.009.122-.094.234-.15.375-1.191.422-1.697-.413-2.034-1.256-.75-1.866-1.416-3.769-2.109-5.662-.159-.422-.272-.853-.487-1.247-1.256-2.269-2.016-4.706-1.828-7.266.169-2.269-1.725-3.647-3.844-2.653-2.466 1.153-4.772 2.456-5.578 5.325-.047.188-.15.366-.272.516-.075.094-.206.141-.394.253-.862-.487-1.369-1.219-.975-2.203.994-2.494 1.509-5.147 2.991-7.519 2.719-4.331 5.156-8.85 7.688-13.303.328-.591.712-1.153.3-1.978-.15-.3.328-1.116.712-1.472a304 304 0 0 1 7.153-6.328c3.975-3.413 8.634-5.747 13.116-8.362 2.513-1.481 5.184-2.7 7.744-4.106 3.122-1.706 5.456-4.378 8.072-6.703 2.709-2.4 5.597-4.612 8.466-6.834a55 55 0 0 1 4.959-3.422c4.772-2.897 9.591-5.616 15.253-6.516 2.606-.412 5.184-1.209 7.688-2.091 4.163-1.472 8.419-2.044 12.806-2.156 3.628-.094 7.256-.338 10.866-.703 5.803-.581 11.409.469 16.912 2.091 4.022 1.181 7.941 2.728 11.906 4.116.122.047.253.075.366.15 1.969 1.303 4.2 1.959 6.366 2.813 2.109.825 3.375 2.616 4.069 4.716.469 1.425.787 2.869 1.903 3.984.3.3.431.797.6 1.219 1.003 2.466 2.006 4.931 3.019 7.397.066.169.244.281.469.525.45-.403.844-.806 1.294-1.153.675-.488 1.322-1.097 2.081-1.35.844-.281 1.238-.769 1.556-1.547.694-1.669 1.472-3.309 2.278-4.941.741-1.538 1.866-2.109 3.281-1.809 1.275.281 1.828 1.303 2.231 2.869.778 2.953.647 6.019 1.425 8.981.488 1.847.375 3.881.319 5.822-.066 2.1.084 4.013 2.334 5.287.375-.337.881-.806 1.387-1.266.872-.806 1.875-1.191 3.038-.778 1.219.431 1.931 1.341 1.987 2.634.047 1.172.253 2.419-.066 3.506-1.069 3.647-.638 7.359-.778 11.044a65 65 0 0 1-.206 3.309c-.122 1.509-.844 2.569-2.391 2.953-.244.066-.619.122-.694.291-.975 2.297-3.647 2.85-4.941 4.8-.234.356-.619.778-.572 1.125.244 2.119.591 4.228.919 6.394.628.112 1.238.122 1.762.337.506.206 1.134.525 1.341.966.825 1.791 2.381 2.456 4.106 2.522 3.769.131 7.547.075 11.325.047.703 0 1.406-.234 2.362-.394.141 1.528.394 3.056.403 4.584.047 3.572.047 7.144-.084 10.706-.066 1.734-.638 3.45-.713 5.184-.178 4.041-.975 7.978-1.866 11.897-.469 2.072-1.313 4.069-2.091 6.066-.975 2.484-3.253 2.728-4.931.6-.516-.656-.984-1.35-1.547-1.969-1.303-1.434-2.653-2.813-3.975-4.228-.844-.9-2.016-1.031-3.6-.3.075.403.094.853.216 1.275.713 2.372 0 4.519-1.153 6.525-.525.928-1.434 1.491-2.625 1.284-.375-.066-.759-.047-1.134-.075-.647.881-.703 1.772-.141 2.587.469.684.412 1.313.178 2.025-.15.487-.178 1.031-.356 1.509-.966 2.569-.047 4.978.684 7.369.506 1.678 2.297 2.494 4.162 1.819 1.697-.628 2.934-.281 4.266.853.741.619 1.847.909 2.841 1.088 1.219.206 1.819.844 2.053 1.978.413 1.959 1.2 3.9.375 5.916-.572 1.378-1.228 2.728-1.791 4.106a8.2 8.2 0 0 0-.506 1.875c-.347 2.559-1.406 4.838-2.644 7.069-1.172 2.128-2.559 4.013-4.434 5.625-1.097.956-2.138 1.622-3.609 1.566-.506-.019-1.022.141-1.744.262-.084-.797-.178-1.538-.262-2.278-.3-2.606-1.397-3.488-4.003-3.225-.947-1.434-1.491-3.188-3.3-4.078-1.256 1.059-2.016 2.897-4.013 2.85-.159 1.912.366 3.581 1.031 5.194.553 1.35.394 2.466-.731 3.497-1.388 1.266-2.213 2.841-2.278 4.781-.038.844-.094 1.706-.328 2.512-.225.787-.619 1.547-1.05 2.25-.403.647-.956 1.2-1.453 1.791-.244.3-.469.675-.797.844-3.694 1.969-4.772 5.625-5.878 9.206-.638 2.044-.984 4.153-2.888 5.559-.759.553-.375 1.688.741 1.809 1.462.15 2.053 1.041 2.803 2.072.647.919.638 1.763.506 2.831-.534.103-1.041.309-1.528.272-2.681-.197-4.678 1.125-6.188 3.094-1.969 2.578-3.806 5.269-5.55 8.006-.778 1.219-1.162 2.672-1.434 4.266.309-.141.628-.244.928-.412.272-.169.506-.431.797-.563 1.069-.506 2.231-.487 3.169.122.909.591.178 1.538.038 2.325-.628 3.534-2.531 6.131-5.578 8.053-2.203 1.388-4.228 3.075-5.344 5.531-1.256 2.747-2.016 5.625-1.95 8.672.009.141.197.291.394.562.272-.366.488-.647.713-.928.947-1.153 1.791-2.4 2.869-3.403 1.8-1.659 3.338-3.675 5.634-4.753 1.172-.553 2.325-1.191 3.544-1.566.675-.206 1.547-.103 2.231.15 1.791.666 2.081 1.191 1.913 3.103-.084.891-.366 1.781.553 2.625.759-.684 1.219-1.472 1.669-2.334 1.444-2.747 3-5.409 4.969-7.866 1.359-1.688 2.138-3.844 3.103-5.822s1.856-3.975 2.775-5.972c.141-.291.272-.609.3-.919.113-1.181.769-1.819 1.819-2.297.6-.272 1.059-.9 1.509-1.444 1.153-1.388 2.475-1.856 3.947-1.322 1.538.553 2.447 1.941 2.287 3.675-.075.834-.15 1.762-.562 2.447-.844 1.378-1.125 2.888-1.584 4.369-.422 1.35-1.012 2.709-1.828 3.834-2.222 3.047-3.6 6.422-4.659 10.003-.872 2.916-1.078 5.972-2.034 8.85-1.219 3.684-2.531 7.341-3.722 11.025a20 20 0 0 0-.853 3.975c-.103 1.022.15 1.988 1.219 2.681.469.3.591 1.209.778 1.866.441 1.472.938 2.878 2.559 3 2.119-2.419 4.228-4.613 6.084-6.984 1.472-1.884 2.747-3.938 3.966-6.009 2.438-4.134 4.978-8.231 7.116-12.534 3.094-6.206 5.906-12.563 8.775-18.881 3.272-7.162 5.531-14.681 7.847-22.181 1.022-3.291 2.063-6.572 2.287-10.031.094-1.341.113-2.691.047-4.031-.056-.966.169-1.772 1.069-2.053.947-.3 1.041-.947 1.275-1.725.506-1.716 1.284-3.309 2.747-5.081.403 1.613.684 2.784 1.003 3.956 1.294 4.837 1.538 9.731.684 14.681-.384 2.194-.3 4.275.338 6.516.516 1.8-.038 3.975-.375 5.934-.394 2.203-1.238 4.331-1.603 6.544-.713 4.331-1.219 8.7-1.819 13.041-.047.384-.141.769-.225 1.144-.459 2.213-.834 4.444-1.406 6.619-.328 1.303-.834 2.616-1.538 3.759-1.003 1.631-1.594 3.375-2.166 5.175-.834 2.588-1.819 5.119-2.728 7.678-.647 1.847-1.031 3.694-.3 5.634.731 1.959 1.369 3.919 3.094 5.316.862.703 1.472.9 2.578.328 1.706-.9 3.6-1.472 5.4-2.175.544-.206 1.144-.338 1.622-.647 2.887-1.866 6.028-3.375 8.316-6.056.928-1.088 2.109-1.969 2.934-3.113s1.35-2.494 1.997-3.759c.291-.581.478-1.219.844-1.734 2.231-3.169 3.591-6.75 4.95-10.322.113-.3.141-.638.141-.956-.047-3.347.703-6.572 1.472-9.806.291-1.238.122-2.588.262-3.872.084-.722.347-1.434.591-2.362 2.213 1.912 4.172 3.6 6.122 5.297.141.122.337.3.328.459-.047 2.109 1.116 3.928 1.359 6.028.366 3.188-.216 6.197-.581 9.272-.019.197-.084.394-.075.591.478 5.813-1.397 11.325-2.325 16.95a59 59 0 0 1-1.341 6.103c-.403 1.481-1.097 2.897-1.594 4.369-1.191 3.497-3.563 6.525-4.144 10.256-.319 2.109-1.594 3.703-2.709 5.344-1.125 1.659-2.409 3.3-3.947 4.556-1.331 1.087-2.822 1.762-3.159 3.75-.103.581-1.209 1.163-1.959 1.416-2.494.806-5.034 1.359-7.659.488-.553-.188-1.153-.216-1.706-.413-.741-.262-1.359-.178-2.016.281-1.566 1.087-3.384 1.35-5.213 1.256-2.175-.122-4.247.309-6.328.806-.066.019-.122.056-.178.066-4.388.234-8.531 1.669-12.741 2.728-1.819.459-3.581 1.144-5.372 1.725-.928.3-1.828.656-2.766.909-1.172.319-2.362.469-3.45 1.181-.75.488-1.875.459-2.841.553-.9.084-1.819-.028-2.728.037-1.903.131-3.759-.009-5.691.713-1.875.712-4.078.534-6.141.712-2.269.197-4.5-.3-6.75-.506-1.538-.141-3.103-.525-4.603.244a1.1 1.1 0 0 1-.384.056c-4.603-.084-9.225.666-13.8-.159-1.65-.3-3.234-.938-4.847-1.434-.431-.131-.872-.422-1.284-.375-2.428.262-4.612-.591-6.806-1.35-1.566-.544-2.353-1.969-3.328-3.159-.159-.197-.263-.431-.366-.628-2.963.328-4.425-.366-5.719-3-.966-1.978-2.344-3.572-3.909-5.063-1.416-1.35-2.766-2.738-3.337-4.716-.169-.581-.684-1.087-1.125-1.556-.956-1.059-2.109-1.969-2.897-3.122-.675-.975-1.003-2.203-1.406-3.347-.263-.712-.234-1.566-.628-2.184-.75-1.191-1.153-2.447-1.294-3.825-.066-.619-.206-1.35-.572-1.8-1.013-1.266-1.219-2.719-1.209-4.228.019-5.4.028-10.8.141-16.209.019-1.078.403-2.156.713-3.206.272-.9.984-1.397 1.903-1.434 1.013-.047 1.809.45 2.1 1.425.337 1.172.637 2.381.741 3.6.075.891.3 1.519.937 2.203.881.928 1.5 2.109 2.241 3.159.553.778 1.144 1.537 1.716 2.306.141-.038.272-.075.403-.103z"/></svg>