<!-- Generated by IcoMoon.io -->
<svg version="1.1" xmlns="http://www.w3.org/2000/svg" width="300" height="300" viewBox="0 0 300 300">
<title>monsters-of-death</title>
<path d="M116.166 17.813c0.094-1.153 0.047-1.228-1.303-2.531-1.050-1.003-3.291-1.219-4.322-0.272-0.891 0.816-1.706 1.753-2.363 2.756-1.5 2.288-3.141 4.434-5.1 6.338-1.097 1.059-1.144 2.259-0.272 3.412 1.903 2.522 5.466 3.047 7.894 0.984 3.253-2.775 5.578-6.131 5.466-10.697zM121.547 251.522c0.019-1.003 0.066-2.016 0.056-3.009-0.047-3.056-0.141-6.103-0.141-9.159 0-1.228 0.197-2.456 0.309-3.694 0.337-3.759 0.713-7.5 1.003-11.269 0.15-1.922 0.713-3.684 1.603-5.372 1.106-2.091 2.203-2.588 4.509-1.978 0.675 0.178 1.359 0.291 2.044 0.366 0.225 0.028 0.553-0.113 0.694-0.3 1.013-1.256 2.137-2.456 2.963-3.816 1.669-2.784 3.15-5.691 4.781-8.484 0.525-0.891 1.313-1.603 1.959-2.419 0.516-0.638 1.003-1.294 1.753-2.287-2.006 0.197-3.459 0.431-4.678 1.566-0.516 0.487-1.125 1.284-1.987 0.534-0.563-0.478-0.394-1.313 0.281-2.278 3.066-4.434 6.253-8.803 9.141-13.359 2.128-3.347 3.666-7.022 4.828-10.847 0.881-2.925 1.753-5.85 2.719-8.747 0.281-0.844 0.797-1.641 1.369-2.325 1.097-1.341 2.484-1.491 4.116-0.431 0.591-1.894 1.059-3.638 1.659-5.344 1.594-4.481 1.594-9.197 2.203-13.828 0.178-1.341 0.619-2.644 0.844-3.975 0.197-1.284 0.272-2.578 0.366-3.872 0.103-1.416 0.591-2.503 2.128-2.897 1.003-0.253 0.984-0.3 2.137 0.637 0.984-1.772 2.063-3.506 2.344-5.494 0.638-4.5 1.453-8.991 1.125-13.575-0.084-1.219-0.178-2.475-0.544-3.628-0.759-2.447-0.553-4.547 0.788-6.862 2.325-4.013 3.694-8.428 4.406-13.041 0.347-2.231-0.534-4.050-1.631-5.812-0.234-0.366-0.862-0.516-1.341-0.684-1.313-0.487-2.203-1.303-2.466-2.756-0.094-0.525-0.488-1.003-0.759-1.491-0.197-0.337-0.591-0.628-0.628-0.966-0.272-2.466-1.219-4.734-1.987-7.059-0.394-1.219-0.591-2.494-1.219-3.666-0.366-0.675-0.506-1.463-0.769-2.194-0.15-0.422-0.234-0.909-0.516-1.228-1.228-1.453-1.416-3.188-1.35-4.959 0.056-1.866 0.956-2.841 2.831-3.15 0.769-0.131 1.547-0.141 2.484-0.234-0.553-1.059-0.947-2.044-2.091-2.616-0.572-0.3-0.891-1.069-1.35-1.603-0.516-0.581-1.059-1.134-1.725-1.856-1.059 1.566-2.156 2.972-3.019 4.519-0.797 1.425-1.781 2.569-3.272 3.188-1.294 0.544-1.678 1.425-1.453 2.775 0.234 1.416 0.3 2.841 0.431 4.247 1.341 0.778 1.612 1.331 0.9 2.616-0.553 0.984-0.553 1.922-0.525 2.981 0.084 2.672 0.103 5.344 0.019 8.006-0.028 0.872-0.225 1.913-0.731 2.578-0.806 1.031-0.825 2.1-0.881 3.281-0.047 0.956-0.113 2.025-0.591 2.803-0.778 1.294-1.003 2.616-1.031 4.069-0.047 2.213-1.181 3.853-2.756 5.362-2.578 2.484-4.931 5.184-5.775 8.841-0.084 0.366-0.206 0.741-0.338 1.219-1.144-0.075-1.847-0.684-2.213-1.631-0.741-1.913-2.306-2.972-3.947-3.975-0.553-0.337-1.088-0.675-1.641-0.984s-1.106-0.722-1.716-0.853c-2.578-0.553-5.166-0.431-7.753 0.009-0.366 0.056-0.806 0.206-1.050 0.469-1.106 1.172-2.513 1.237-3.975 1.219-0.975-0.009-1.95 0.066-2.934 0.075-1.659 0.038-3.197 0.3-4.444 1.584-0.994 1.022-2.297 1.463-3.713 1.481-2.1 0.028-3.928 0.937-5.625 1.987-2.034 1.256-4.041 2.606-5.484 4.612-0.403 0.553-1.069 0.938-1.613 1.397-0.9 0.75-1.791 1.5-2.7 2.241-1.434 1.191-2.944 2.297-4.294 3.6-1.575 1.528-3.009 3.216-4.519 4.819-0.263 0.281-0.591 0.666-0.909 0.694-2.231 0.197-4.519 0.703-6.609-0.703-0.572-0.394-1.284-0.581-1.856-0.947-0.741-0.487-1.519-0.975-2.119-1.622-0.994-1.059-2.044-1.641-3.563-1.603-3.844 0.094-7.688-0.019-11.522 0.019-1.491 0.019-2.709-0.244-3.281-1.828-0.122-0.338-0.525-0.553-0.797-0.834-0.994-0.984-1.003-1.228-0.291-2.456 0.178-0.3 0.206-0.694 0.328-1.050s0.141-0.872 0.384-1.031c1.153-0.731 0.9-1.753 0.675-2.775-0.328-1.519-0.6-3.056-1.059-4.537-0.741-2.372-0.394-4.781-0.394-7.172-0.009-1.031 0.469-1.987 1.35-2.709 0.637-0.525 1.153-1.209 1.941-2.053 0.309 0.825 0.656 1.425 0.778 2.072 0.6 3.319 2.484 5.794 5.025 7.875 1.069 0.872 2.166 1.003 3.441 0.487 1.547-0.609 3.15-1.097 4.978-1.716 0-1.453 0.009-3.197 0-4.941-0.009-1.228-0.009-2.381 0.712-3.544 0.591-0.956 0.647-2.231 0.975-3.347 0.206-0.741 0.459-1.481 0.713-2.222 0.3-0.891 1.003-1.153 1.856-1.088 0.806 0.075 1.35 0.6 1.472 1.35 0.141 0.9 0.169 1.819 0.112 2.728-0.122 1.65 0.15 3.216 0.628 4.781 0.206 0.675 0.216 1.406 0.3 2.109 0.112 0.966 0.487 1.716 1.744 2.1 0.178-0.666 0.394-1.247 0.487-1.838 0.206-1.153 0.291-2.325 0.534-3.469 0.431-2.044 1.247-2.353 2.991-1.313 0.713 0.431 1.509 0.713 2.269 1.050 0.928 0.412 1.837 0.666 2.587-0.619 0.366 0.825 0.628 1.397 0.938 2.109 0.366-0.131 0.731-0.263 1.35-0.487-1.153-1.031-1.087-2.1-0.797-3.281 0.309-1.256 0.431-2.569 0.675-3.844 0.178-0.966 0.338-1.95 1.341-2.447 1.753 0.816 3.469 1.631 5.278 2.475 0.337-0.225 0.684-0.459 1.191-0.797 0.272 0.694 0.525 1.322 0.797 2.025 0.787-0.084 1.481-0.459 0.806-1.153-0.919-0.947-0.647-1.875-0.516-2.897 0.188-1.472 0.366-2.963 0.525-4.444 0.113-0.994 0.3-1.931 1.284-2.663 0.394 0.225 0.834 0.459 1.256 0.713 0.281 0.169 0.609 0.563 0.806 0.506 1.725-0.516 2.625 0.994 3.928 1.631 0.984-0.984 0.356-1.997 0.244-2.963s-0.225-1.913-0.366-3.037c2.391-0.019 2.925-1.753 3.441-3.45 1.078 0.3 1.697 0.862 2.119 1.744 0.844 1.753 1.613 2.231 2.916 1.978 1.388-0.263 2.484-1.659 2.55-3.291 0.019-0.459-0.075-0.919-0.028-1.369 0.141-1.434 0.778-1.894 2.269-1.894 0.694 0 1.397-0.178 2.081-0.272 0.637-1.050 0.366-1.791-0.281-2.691-1.369-1.894-2.625-3.881-3.759-5.916-0.928-1.678-2.016-3.188-3.45-4.425-1.294-1.116-2.513-2.269-2.991-4.228-0.741 0.178-1.538 0.141-2.044 0.516-1.453 1.031-3.056 0.947-4.884 0.909-0.591-1.603-1.791-2.616-3.647-2.353-0.713 0.103-1.65 0.422-2.016 0.956-1.050 1.537-2.147 3.094-2.091 5.138 0.047 1.35-0.122 2.709-0.188 3.975-1.050 0.787-1.978 0.619-2.428-0.328-0.394-0.844-1.078-1.219-1.631-1.819-0.703-0.75-1.228-1.659-1.913-2.428-0.497-0.572-1.069-1.134-1.725-1.509-0.844-0.478-1.303-0.178-1.725 0.787-0.619 1.416-1.266 2.813-1.931 4.209-0.366 0.769-0.966 0.919-1.537 0.3-0.656-0.703-1.219-1.369-2.25-1.65-0.525-0.15-0.806-1.116-1.256-1.669-0.581-0.712-0.966-1.762-2.344-1.547 0.159 1.153-0.244 1.95-1.406 2.334-0.9 0.309-1.172 1.181-1.247 2.044-0.103 1.163-0.188 2.325-0.188 3.506 0.009 1.125-0.337 2.044-1.209 2.747-1.2 0.966-2.297 0.637-2.991-0.713-0.9-1.762-1.491-3.6-1.444-5.578 0.037-1.556-0.637-2.55-2.231-3.347-0.178 2.025-0.497 3.956-0.459 5.878 0.037 1.997-0.647 3.394-2.7 4.397-0.778-0.684-1.65-1.416-2.475-2.203-0.591-0.553-0.806-1.247-0.872-2.081-0.075-1.069-0.422-2.119-0.647-3.187-1.031 0.019-1.378 0.506-1.603 1.153-1.059 3.141-2.128 6.281-3.169 9.431-1.509 4.584-2.681 9.244-2.287 14.137 0.028 0.459-0.019 0.909-0.056 1.369-0.009 0.122-0.094 0.234-0.15 0.375-1.191 0.422-1.697-0.413-2.034-1.256-0.75-1.866-1.416-3.769-2.109-5.662-0.159-0.422-0.272-0.853-0.487-1.247-1.256-2.269-2.016-4.706-1.828-7.266 0.169-2.269-1.725-3.647-3.844-2.653-2.466 1.153-4.772 2.456-5.578 5.325-0.047 0.188-0.15 0.366-0.272 0.516-0.075 0.094-0.206 0.141-0.394 0.253-0.862-0.487-1.369-1.219-0.975-2.203 0.994-2.494 1.509-5.147 2.991-7.519 2.719-4.331 5.156-8.85 7.688-13.303 0.328-0.591 0.712-1.153 0.3-1.978-0.15-0.3 0.328-1.116 0.712-1.472 2.353-2.147 4.734-4.256 7.153-6.328 3.975-3.413 8.634-5.747 13.116-8.362 2.513-1.481 5.184-2.7 7.744-4.106 3.122-1.706 5.456-4.378 8.072-6.703 2.709-2.4 5.597-4.612 8.466-6.834 1.584-1.219 3.244-2.381 4.959-3.422 4.772-2.897 9.591-5.616 15.253-6.516 2.606-0.412 5.184-1.209 7.688-2.091 4.163-1.472 8.419-2.044 12.806-2.156 3.628-0.094 7.256-0.338 10.866-0.703 5.803-0.581 11.409 0.469 16.912 2.091 4.022 1.181 7.941 2.728 11.906 4.116 0.122 0.047 0.253 0.075 0.366 0.15 1.969 1.303 4.2 1.959 6.366 2.813 2.109 0.825 3.375 2.616 4.069 4.716 0.469 1.425 0.787 2.869 1.903 3.984 0.3 0.3 0.431 0.797 0.6 1.219 1.003 2.466 2.006 4.931 3.019 7.397 0.066 0.169 0.244 0.281 0.469 0.525 0.45-0.403 0.844-0.806 1.294-1.153 0.675-0.488 1.322-1.097 2.081-1.35 0.844-0.281 1.238-0.769 1.556-1.547 0.694-1.669 1.472-3.309 2.278-4.941 0.741-1.538 1.866-2.109 3.281-1.809 1.275 0.281 1.828 1.303 2.231 2.869 0.778 2.953 0.647 6.019 1.425 8.981 0.488 1.847 0.375 3.881 0.319 5.822-0.066 2.1 0.084 4.013 2.334 5.287 0.375-0.337 0.881-0.806 1.387-1.266 0.872-0.806 1.875-1.191 3.038-0.778 1.219 0.431 1.931 1.341 1.987 2.634 0.047 1.172 0.253 2.419-0.066 3.506-1.069 3.647-0.638 7.359-0.778 11.044-0.037 1.097-0.112 2.203-0.206 3.309-0.122 1.509-0.844 2.569-2.391 2.953-0.244 0.066-0.619 0.122-0.694 0.291-0.975 2.297-3.647 2.85-4.941 4.8-0.234 0.356-0.619 0.778-0.572 1.125 0.244 2.119 0.591 4.228 0.919 6.394 0.628 0.112 1.238 0.122 1.762 0.337 0.506 0.206 1.134 0.525 1.341 0.966 0.825 1.791 2.381 2.456 4.106 2.522 3.769 0.131 7.547 0.075 11.325 0.047 0.703 0 1.406-0.234 2.362-0.394 0.141 1.528 0.394 3.056 0.403 4.584 0.047 3.572 0.047 7.144-0.084 10.706-0.066 1.734-0.638 3.45-0.713 5.184-0.178 4.041-0.975 7.978-1.866 11.897-0.469 2.072-1.313 4.069-2.091 6.066-0.975 2.484-3.253 2.728-4.931 0.6-0.516-0.656-0.984-1.35-1.547-1.969-1.303-1.434-2.653-2.813-3.975-4.228-0.844-0.9-2.016-1.031-3.6-0.3 0.075 0.403 0.094 0.853 0.216 1.275 0.713 2.372 0 4.519-1.153 6.525-0.525 0.928-1.434 1.491-2.625 1.284-0.375-0.066-0.759-0.047-1.134-0.075-0.647 0.881-0.703 1.772-0.141 2.587 0.469 0.684 0.412 1.313 0.178 2.025-0.15 0.487-0.178 1.031-0.356 1.509-0.966 2.569-0.047 4.978 0.684 7.369 0.506 1.678 2.297 2.494 4.162 1.819 1.697-0.628 2.934-0.281 4.266 0.853 0.741 0.619 1.847 0.909 2.841 1.088 1.219 0.206 1.819 0.844 2.053 1.978 0.413 1.959 1.2 3.9 0.375 5.916-0.572 1.378-1.228 2.728-1.791 4.106-0.234 0.6-0.422 1.237-0.506 1.875-0.347 2.559-1.406 4.838-2.644 7.069-1.172 2.128-2.559 4.013-4.434 5.625-1.097 0.956-2.138 1.622-3.609 1.566-0.506-0.019-1.022 0.141-1.744 0.262-0.084-0.797-0.178-1.538-0.262-2.278-0.3-2.606-1.397-3.488-4.003-3.225-0.947-1.434-1.491-3.188-3.3-4.078-1.256 1.059-2.016 2.897-4.013 2.85-0.159 1.912 0.366 3.581 1.031 5.194 0.553 1.35 0.394 2.466-0.731 3.497-1.388 1.266-2.213 2.841-2.278 4.781-0.038 0.844-0.094 1.706-0.328 2.512-0.225 0.787-0.619 1.547-1.050 2.25-0.403 0.647-0.956 1.2-1.453 1.791-0.244 0.3-0.469 0.675-0.797 0.844-3.694 1.969-4.772 5.625-5.878 9.206-0.638 2.044-0.984 4.153-2.888 5.559-0.759 0.553-0.375 1.688 0.741 1.809 1.462 0.15 2.053 1.041 2.803 2.072 0.647 0.919 0.638 1.763 0.506 2.831-0.534 0.103-1.041 0.309-1.528 0.272-2.681-0.197-4.678 1.125-6.188 3.094-1.969 2.578-3.806 5.269-5.55 8.006-0.778 1.219-1.162 2.672-1.434 4.266 0.309-0.141 0.628-0.244 0.928-0.412 0.272-0.169 0.506-0.431 0.797-0.563 1.069-0.506 2.231-0.487 3.169 0.122 0.909 0.591 0.178 1.538 0.038 2.325-0.628 3.534-2.531 6.131-5.578 8.053-2.203 1.388-4.228 3.075-5.344 5.531-1.256 2.747-2.016 5.625-1.95 8.672 0.009 0.141 0.197 0.291 0.394 0.562 0.272-0.366 0.488-0.647 0.713-0.928 0.947-1.153 1.791-2.4 2.869-3.403 1.8-1.659 3.338-3.675 5.634-4.753 1.172-0.553 2.325-1.191 3.544-1.566 0.675-0.206 1.547-0.103 2.231 0.15 1.791 0.666 2.081 1.191 1.913 3.103-0.084 0.891-0.366 1.781 0.553 2.625 0.759-0.684 1.219-1.472 1.669-2.334 1.444-2.747 3-5.409 4.969-7.866 1.359-1.688 2.138-3.844 3.103-5.822s1.856-3.975 2.775-5.972c0.141-0.291 0.272-0.609 0.3-0.919 0.113-1.181 0.769-1.819 1.819-2.297 0.6-0.272 1.059-0.9 1.509-1.444 1.153-1.388 2.475-1.856 3.947-1.322 1.538 0.553 2.447 1.941 2.287 3.675-0.075 0.834-0.15 1.762-0.562 2.447-0.844 1.378-1.125 2.888-1.584 4.369-0.422 1.35-1.012 2.709-1.828 3.834-2.222 3.047-3.6 6.422-4.659 10.003-0.872 2.916-1.078 5.972-2.034 8.85-1.219 3.684-2.531 7.341-3.722 11.025-0.412 1.284-0.713 2.634-0.853 3.975-0.103 1.022 0.15 1.988 1.219 2.681 0.469 0.3 0.591 1.209 0.778 1.866 0.441 1.472 0.938 2.878 2.559 3 2.119-2.419 4.228-4.613 6.084-6.984 1.472-1.884 2.747-3.938 3.966-6.009 2.438-4.134 4.978-8.231 7.116-12.534 3.094-6.206 5.906-12.563 8.775-18.881 3.272-7.162 5.531-14.681 7.847-22.181 1.022-3.291 2.063-6.572 2.287-10.031 0.094-1.341 0.113-2.691 0.047-4.031-0.056-0.966 0.169-1.772 1.069-2.053 0.947-0.3 1.041-0.947 1.275-1.725 0.506-1.716 1.284-3.309 2.747-5.081 0.403 1.613 0.684 2.784 1.003 3.956 1.294 4.837 1.538 9.731 0.684 14.681-0.384 2.194-0.3 4.275 0.338 6.516 0.516 1.8-0.038 3.975-0.375 5.934-0.394 2.203-1.238 4.331-1.603 6.544-0.713 4.331-1.219 8.7-1.819 13.041-0.047 0.384-0.141 0.769-0.225 1.144-0.459 2.213-0.834 4.444-1.406 6.619-0.328 1.303-0.834 2.616-1.538 3.759-1.003 1.631-1.594 3.375-2.166 5.175-0.834 2.588-1.819 5.119-2.728 7.678-0.647 1.847-1.031 3.694-0.3 5.634 0.731 1.959 1.369 3.919 3.094 5.316 0.862 0.703 1.472 0.9 2.578 0.328 1.706-0.9 3.6-1.472 5.4-2.175 0.544-0.206 1.144-0.338 1.622-0.647 2.887-1.866 6.028-3.375 8.316-6.056 0.928-1.088 2.109-1.969 2.934-3.113s1.35-2.494 1.997-3.759c0.291-0.581 0.478-1.219 0.844-1.734 2.231-3.169 3.591-6.75 4.95-10.322 0.113-0.3 0.141-0.638 0.141-0.956-0.047-3.347 0.703-6.572 1.472-9.806 0.291-1.238 0.122-2.588 0.262-3.872 0.084-0.722 0.347-1.434 0.591-2.362 2.213 1.912 4.172 3.6 6.122 5.297 0.141 0.122 0.337 0.3 0.328 0.459-0.047 2.109 1.116 3.928 1.359 6.028 0.366 3.188-0.216 6.197-0.581 9.272-0.019 0.197-0.084 0.394-0.075 0.591 0.478 5.813-1.397 11.325-2.325 16.95-0.338 2.053-0.787 4.097-1.341 6.103-0.403 1.481-1.097 2.897-1.594 4.369-1.191 3.497-3.563 6.525-4.144 10.256-0.319 2.109-1.594 3.703-2.709 5.344-1.125 1.659-2.409 3.3-3.947 4.556-1.331 1.087-2.822 1.762-3.159 3.75-0.103 0.581-1.209 1.163-1.959 1.416-2.494 0.806-5.034 1.359-7.659 0.488-0.553-0.188-1.153-0.216-1.706-0.413-0.741-0.262-1.359-0.178-2.016 0.281-1.566 1.087-3.384 1.35-5.213 1.256-2.175-0.122-4.247 0.309-6.328 0.806-0.066 0.019-0.122 0.056-0.178 0.066-4.388 0.234-8.531 1.669-12.741 2.728-1.819 0.459-3.581 1.144-5.372 1.725-0.928 0.3-1.828 0.656-2.766 0.909-1.172 0.319-2.362 0.469-3.45 1.181-0.75 0.488-1.875 0.459-2.841 0.553-0.9 0.084-1.819-0.028-2.728 0.037-1.903 0.131-3.759-0.009-5.691 0.713-1.875 0.712-4.078 0.534-6.141 0.712-2.269 0.197-4.5-0.3-6.75-0.506-1.538-0.141-3.103-0.525-4.603 0.244-0.112 0.047-0.262 0.056-0.384 0.056-4.603-0.084-9.225 0.666-13.8-0.159-1.65-0.3-3.234-0.938-4.847-1.434-0.431-0.131-0.872-0.422-1.284-0.375-2.428 0.262-4.612-0.591-6.806-1.35-1.566-0.544-2.353-1.969-3.328-3.159-0.159-0.197-0.263-0.431-0.366-0.628-2.963 0.328-4.425-0.366-5.719-3-0.966-1.978-2.344-3.572-3.909-5.063-1.416-1.35-2.766-2.738-3.337-4.716-0.169-0.581-0.684-1.087-1.125-1.556-0.956-1.059-2.109-1.969-2.897-3.122-0.675-0.975-1.003-2.203-1.406-3.347-0.263-0.712-0.234-1.566-0.628-2.184-0.75-1.191-1.153-2.447-1.294-3.825-0.066-0.619-0.206-1.35-0.572-1.8-1.013-1.266-1.219-2.719-1.209-4.228 0.019-5.4 0.028-10.8 0.141-16.209 0.019-1.078 0.403-2.156 0.713-3.206 0.272-0.9 0.984-1.397 1.903-1.434 1.013-0.047 1.809 0.45 2.1 1.425 0.337 1.172 0.637 2.381 0.741 3.6 0.075 0.891 0.3 1.519 0.937 2.203 0.881 0.928 1.5 2.109 2.241 3.159 0.553 0.778 1.144 1.537 1.716 2.306 0.141-0.038 0.272-0.075 0.403-0.103z"></path>
</svg>
