<!-- Generated by IcoMoon.io -->
<svg version="1.1" xmlns="http://www.w3.org/2000/svg" width="300" height="300" viewBox="0 0 300 300">
<title>monsters-chaotic-beasts</title>
<path d="M20.325 198.384c0.525-2.344 2.044-4.041 3.647-5.737 1.838-1.941 3.478-4.078 5.194-6.131 0.178-0.216 0.309-0.497 0.525-0.684 5.128-4.772 8.597-10.884 13.087-16.162 3.131-3.703 6.516-7.191 9.853-10.706 1.416-1.491 3.281-1.988 5.353-2.119 2.156-0.141 4.294-0.497 6.403 0.253 0.759 0.262 1.669 0.469 2.203 1.013 3.3 3.384 7.003 6.487 7.875 11.559 0.347 2.025 0.281 3.713-1.275 5.288-2.119 2.156-4.041 4.509-6.094 6.731-2.044 2.222-4.519 3.825-7.406 4.762-0.131 0.047-0.291 0.075-0.412 0.141-6.619 4.069-14.4 5.259-21.3 8.625-1.331 0.647-2.681 1.284-4.087 1.753-0.938 0.309-2.053 0.122-2.962 0.478-2.775 1.106-5.822 1.706-7.959 4.134-0.6 0.684-1.538 0.394-2.053-0.441-0.244-0.394-0.384-0.862-0.563-1.303-0.009-0.506-0.009-0.984-0.009-1.472z"></path>
<path d="M166.95 57.825c-0.553-1.481-1.012-2.709-1.472-3.938 1.359-0.778 3.131-0.628 4.453 0.628 0.666 0.609 1.228 1.359 1.706 2.128 3.356 5.306 7.313 10.116 11.503 14.784 1.941 2.166 3.431 4.744 5.194 7.059 0.947 1.237 2.072 2.344 3.141 3.497 0.553 0.591 1.228 1.097 1.734 1.716 1.012 1.228 1.969 2.494 2.897 3.778 1.397 1.95 2.662 3.825 5.484 4.088 2.428 0.225 4.706 0.525 7.050-0.516 1.603-0.722 3.366-1.144 5.1-1.491 2.419-0.506 3.938-1.856 4.641-4.2 0.919-2.972 1.369-5.991 0.928-9.103-0.159-1.144-0.094-2.306-0.281-3.441-0.225-1.453-0.347-3.019-0.975-4.322-1.903-3.994-4.575-7.359-8.175-10.059-3.919-2.934-7.556-6.253-11.334-9.366-3.262-2.691-6.459-5.4-9.131-8.766-1.481-1.875-3.666-3.197-5.569-4.725-1.191-0.947-2.438-1.819-3.797-2.822 1.416-0.975 1.584-2.072 0.675-3.319 1.2-0.938 2.334-0.647 3.403-0.047 2.353 1.303 4.716 2.597 7.022 3.984 8.259 4.931 16.884 8.897 26.381 10.922 1.903 0.412 3.853 1.359 5.391 2.578 4.941 3.881 9.722 7.997 14.55 12.028 0.478 0.394 0.928 0.844 1.416 1.228 4.519 3.581 9.066 7.125 13.547 10.753 1.059 0.862 1.941 1.987 2.794 3.094 1.003 1.284 1.922 2.644 2.756 4.050 0.478 0.806 0.816 1.734 1.031 2.663 0.469 1.903 0.881 3.825 1.228 5.747 0.684 3.834 1.106 7.697 0.328 11.588-0.169 0.834-0.094 1.706-0.253 2.55-0.338 1.828-0.478 3.75-1.181 5.438-0.975 2.334-2.381 4.491-3.628 6.703-0.731 1.303-1.556 2.541-2.297 3.825-2.728 4.641-6.178 8.672-10.359 12.075-1.969 1.612-4.069 3.066-6.037 4.688-6.647 5.456-14.494 8.803-22.116 12.553-0.975 0.478-2.091 0.722-3.178 0.938-2.559 0.525-4.556 2.044-6.412 3.703-0.581 0.516-0.862 1.631-0.853 2.466 0.047 2.044 0.769 3.834 2.156 5.494 3.816 4.575 7.434 9.309 11.175 13.95 1.603 1.969 3.394 3.787 4.959 5.794 1.866 2.381 3.572 4.875 5.344 7.313 3.178 4.388 3.309 9.637 3.956 14.672 0.469 3.713 0.356 7.491 0.609 11.231 0.384 5.606-1.284 10.725-3.609 15.694-1.247 2.691-2.747 5.288-3.984 7.997-0.581 1.238-1.078 2.634-1.144 3.984-0.159 3.309-1.566 6.15-3.141 8.887-1.359 2.372-3.047 4.556-4.641 6.787-0.966 1.331-2.222 1.313-2.887-0.178-0.394-0.881-0.469-2.072-0.244-3.019 0.394-1.669 1.059-3.281 1.716-4.884 2.034-4.941 2.888-10.022 2.156-15.347-0.141-1.031-0.122-2.119-0.038-3.159 0.159-2.109-0.384-4.050-0.938-6.066-1.481-5.4-4.556-9.872-7.594-14.456-1.772-2.681-3.178-5.606-5.737-7.678-0.553-0.441-1.097-1.022-1.744-1.238-2.803-0.9-5.644-1.538-8.625-0.75-4.284 1.144-8.259 2.925-11.55 5.916-3.347 3.056-5.372 7.003-6.497 11.363-0.394 1.566-0.497 3.216-0.666 4.838-0.244 2.184-0.441 4.378-0.609 6.572-0.056 0.9-0.244 1.95 0.122 2.681 1.106 2.241 0.375 4.406 0.131 6.628-0.131 1.162 0.047 2.353 0.094 3.534 0.009 0.244 0.169 0.506 0.113 0.694-0.759 2.213-0.009 4.369 0.159 6.553 0.122 1.613-0.009 3.262-0.206 4.875-0.441 3.713-0.919 7.425-1.519 11.119-0.375 2.269-0.966 4.509-1.491 6.759-0.459 1.959-1.134 3.778-2.269 5.531-1.228 1.884-1.866 4.172-2.719 6.291-0.9 2.213-1.753 4.434-2.625 6.675-0.553 1.416-1.097 2.831-1.613 4.256-0.309 0.863-0.197 2.175-1.556 2.025-1.238-0.141-1.669-1.191-1.556-2.381 0.328-3.197 0.553-6.422 1.050-9.6 0.816-5.306 1.359-10.575 0.159-15.9-0.206-0.881-0.262-1.969-1.284-1.922-0.675 0.038-1.481 0.778-1.912 1.416-0.694 1.013-1.219 2.072-2.662 2.128-1.144 0.038-1.959-0.347-2.325-1.5-0.094-0.328-0.197-0.647-0.338-0.947-0.6-1.359-1.481-1.481-2.344-0.3-0.478 0.647-0.891 1.369-1.275 2.091-0.947 1.819-2.578 2.306-4.266 1.116-0.684-0.478-1.134-1.284-1.791-1.819-0.516-0.422-1.181-0.731-1.828-0.9-0.122-0.038-0.694 0.797-0.694 1.219 0.037 5.859-1.247 11.691-0.412 17.559 0.009 0.047 0 0.113 0.009 0.141 1.941 3.834 1.556 8.231 2.944 12.206 0.291 0.834 0.047 1.828 0.047 2.756 0 0.075-0.113 0.141-0.263 0.328-0.394-0.384-0.806-0.694-1.134-1.078-1.050-1.275-2.334-2.072-3.956-2.466-0.666-0.169-1.444-0.713-1.734-1.303-1.106-2.222-2.006-4.547-3.047-6.816-0.394-0.853-0.975-1.622-1.397-2.475-0.834-1.706-1.706-3.413-2.391-5.184-0.694-1.828-1.219-3.731-1.772-5.616-0.244-0.834-0.497-1.669-0.544-2.522-0.497-7.744-1.922-15.347-3.834-22.856-0.947-3.713-0.309-7.256 0.459-10.828 0.666-3.094 0.422-5.953-1.247-8.747-0.459-0.759-0.422-2.128-0.075-2.981 1.481-3.6 0.178-6.919-0.816-10.247-0.197-0.628-1.022-1.106-1.622-1.556-1.181-0.853-1.875-1.903-1.8-3.403 0.112-2.269-1.022-3.853-2.897-4.941-1.453-0.844-2.888-1.753-4.434-2.391-4.219-1.753-8.428-1.106-12.197 1.069-2.794 1.613-5.4 3.741-7.612 6.094-4.125 4.387-6.75 9.619-8.297 15.553-1.219 4.603 0.028 8.728 0.891 13.022 0.281 1.406 0.694 2.794 1.003 4.2 0.113 0.516 0.075 1.069 0.113 1.875-2.494-0.769-2.944-3.244-5.025-4.603-0.038 1.144-0.263 2.091-0.047 2.934 0.506 1.903 1.284 3.713 1.837 5.606 0.169 0.562-0.056 1.247-0.112 1.875-0.563-0.122-1.228-0.084-1.688-0.384-5.409-3.525-9.141-8.381-11.306-14.456-0.525-1.491-1.191-2.934-1.622-4.462-0.328-1.144-0.459-2.344-0.525-3.534-0.281-5.128-0.563-10.256-0.694-15.394-0.056-2.241 0.197-4.491 0.375-6.722 0.122-1.528 0.291-3.066 0.563-4.584 0.206-1.069 0.497-2.166 0.975-3.15 3.328-6.834 7.472-13.059 13.35-18.037 2.972-2.513 5.7-5.306 8.55-7.959 1.744-1.622 2.091-3.619 1.941-5.916-0.159-2.081 0-4.181 0.131-6.281 0.094-1.434 0.394-2.85 0.6-4.284 0.131-0.891-0.206-1.444-1.097-1.744-1.444-0.497-2.831-1.228-4.303-1.575-1.237-0.291-2.578-0.131-3.862-0.225-6.366-0.441-12.253-2.672-18.188-4.809-2.025-0.731-4.2-1.050-6.178-1.856-3.994-1.603-7.997-3.244-11.85-5.175-4.369-2.175-7.894-5.409-10.669-9.488-1.266-1.856-2.85-3.488-4.2-5.306-2.072-2.803-3.075-6.075-3.619-9.469-0.591-3.713-0.684-7.425-0.159-11.194 0.516-3.694 0.609-7.453 0.731-11.184 0.169-5.353 2.391-9.722 5.644-13.866 5.381-6.891 10.397-14.063 15.656-21.038 2.934-3.872 6.469-7.087 11.128-8.85 1.069-0.412 2.053-1.022 3.056-1.603 7.528-4.331 15.797-6.413 24.225-8.044 1.613-0.309 3.197-0.937 4.716-1.603 7.284-3.178 13.847-7.688 20.747-11.569 0.966-0.544 1.987-0.984 3.009-1.369 0.497-0.197 1.059-0.159 1.603-0.216 0.084 0.131 0.178 0.253 0.263 0.384-1.997 2.803-3.919 5.653-6.019 8.372-1.828 2.353-3.75 4.641-5.822 6.788-3.497 3.628-7.566 6.563-12.356 8.25-4.256 1.491-7.734 3.9-10.669 7.313-2.719 3.159-5.737 6.084-8.625 9.103-1.322 1.397-2.672 2.766-3.994 4.172-0.291 0.309-0.6 0.666-0.75 1.050-2.428 6.469-4.106 12.975-0.581 19.631 0.225 0.422 0.412 0.9 0.75 1.219 5.278 4.819 11.297 7.912 18.619 7.997 2.344 0.028 3.966-0.684 4.875-3.113 1.013-2.719 2.438-5.222 4.284-7.575 2.709-3.469 5.072-7.228 6.553-11.466 0.609-1.753 1.575-3.394 2.287-5.128 0.759-1.866 1.228-3.853 2.109-5.644 2.269-4.678 5.447-8.681 9.403-12.056 1.059-0.9 2.25-0.937 3.384 0.112 1.406 1.303 1.903 2.803 1.266 4.209-2.475 5.475-1.303 11.981 2.934 16.191 0.75 0.75 1.5 1.491 2.203 2.287 2.522 2.859 5.794 4.406 9.506 4.547 6.291 0.263 12.488-0.375 18.141-3.572 0.253-0.141 0.525-0.281 0.806-0.309 3.009-0.469 4.744-2.391 5.709-5.1 1.238-3.478 2.831-6.881 2.756-10.678-0.038-1.528-0.291-3.056-0.478-4.584-0.225-1.837 0.225-2.25 1.922-1.706 0.356 0.122 0.75 0.178 1.134 0.244 0.328 0.028 0.666 0.009 1.444 0.056zM155.644 209.269c-2.119 0.778-2.691 1.528-3.075 3.853-0.516 3.197-1.519 6.15-3.938 8.456-0.338 0.328-0.638 0.731-0.853 1.153-0.637 1.275-1.35 1.059-2.213 0.244-1.641-1.528-2.222-3.478-2.606-5.616-0.281-1.519-0.966-2.972-1.566-4.416-0.122-0.3-0.675-0.581-1.022-0.581-0.225 0-0.628 0.497-0.666 0.806-0.169 1.406-0.394 2.841-0.309 4.238 0.141 2.334 0.497 4.659 0.778 6.975 0.075 0.609 0.263 1.2 0.413 1.8 0.384 1.566 0.9 3.103 1.144 4.688 0.75 4.884 1.369 9.778 2.109 14.672 0.216 1.434 1.2 1.772 2.213 0.834 3.103-2.906 5.616-6.216 6.45-10.5 1.219-6.3 2.597-12.581 2.634-19.069 0.009-1.622 0.356-3.234 0.506-4.856 0.056-0.816 0.009-1.65 0.009-2.681zM163.988 190.481c0.938-0.309 1.584-0.459 2.175-0.731 2.634-1.247 5.287-2.456 7.856-3.834 0.966-0.516 1.866-1.35 2.475-2.25 2.466-3.619 3.797-7.725 4.622-11.991 0.141-0.769-0.094-1.613-0.169-2.419-0.797 0.206-1.688 0.225-2.353 0.638-7.022 4.209-11.184 10.753-14.409 18.009-0.291 0.666-0.131 1.528-0.197 2.588zM110.419 172.2c-1.069 0.206-1.444 0.722-1.022 1.584 0.506 1.031 1.078 2.044 1.744 2.972 1.622 2.259 3.403 4.416 4.969 6.713 3.319 4.884 7.359 6.328 12.844 4.434 1.481-0.506 1.8-1.284 0.769-2.428-1.538-1.697-3.066-3.478-4.884-4.819-3.234-2.409-6.628-4.594-10.059-6.713-1.313-0.806-2.897-1.181-4.369-1.744zM159.563 186.066c-1.575-0.113-2.259 0.328-2.128 1.519 0.047 0.441 0.591 1.134 0.975 1.181 1.106 0.141 1.434-0.647 1.153-2.691z"></path>
<path d="M279.637 178.172c0 0.356 0.028 0.469 0 0.553-0.3 0.759-0.6 1.519-0.9 2.259-0.666-0.478-1.331-0.928-1.969-1.444-0.356-0.3-0.6-0.769-0.975-1.031-0.853-0.581-1.622-0.591-2.053 0.544-0.253 0.675-0.459 1.369-0.778 2.006-0.469 0.919-1.247 1.313-2.119 0.6-1.387-1.134-2.991-1.397-4.678-1.659-2.775-0.441-5.531-1.078-8.325-1.5-2.878-0.441-5.794-1.097-8.672-1.013-6.619 0.197-12.778-2.034-19.125-3.141-0.375-0.056-0.778-0.206-1.050-0.441-2.981-2.625-6.047-5.175-8.878-7.959-1.387-1.359-1.519-3.347-1.359-5.287 0.122-1.472 0.131-2.972 0-4.434-0.244-2.513 0.431-4.078 2.728-5.175 2.428-1.153 4.903-2.175 7.397-3.188 0.497-0.206 1.144-0.225 1.659-0.113 5.953 1.359 11.55 3.525 16.453 7.303 8.709 6.684 18.178 12.188 27.928 17.212 0.938 0.478 1.828 1.059 2.672 1.697 1.434 1.106 2.259 2.559 2.044 4.219z"></path>
<path d="M149.044 63.047c-0.075 0.516 0 1.106-0.253 1.519-1.753 2.972-3.853 5.447-7.641 5.934-3.516 0.441-7.912-1.566-9.619-4.669-1.997-3.619-2.222-7.491-1.612-11.484 0.984-6.506 1.959-13.013 2.972-19.509 0.647-4.172 1.106-8.381 2.053-12.488 1.584-6.891 1.969-14.109 5.259-20.578 0.553-1.097 1.219-2.006 2.475-1.697 1.266 0.328 1.669 1.519 1.744 2.719 0.159 2.672 0.141 5.353 0.366 8.025 0.291 3.441 0.609 6.881 1.134 10.294 0.666 4.462 1.434 8.897 2.325 13.313 0.544 2.672 1.772 5.259 1.997 7.941 0.281 3.281 0.919 6.422 1.95 9.525 0.084 0.262 0.037 0.562 0.047 0.853 0.047 1.959 0.094 3.909 0.159 5.869 0.009 0.525 0.131 1.050 0.159 1.575 0.084 2.391-0.225 2.719-2.681 2.803-0.291 0.009-0.563 0.075-0.853 0.112 0.037-0.375 0.225-0.834 0.084-1.106-0.216-0.412-0.637-0.759-1.031-1.012-0.094-0.056-0.713 0.356-0.684 0.459 0.122 0.478 0.3 0.984 0.609 1.35 0.206 0.216 0.694 0.178 1.059 0.262z"></path>
</svg>
