<svg xmlns="http://www.w3.org/2000/svg" viewBox="0 0 300 300"><path d="M94.594 40.359c-1.191 1.462-2.053 2.681-3.075 3.741-1.434 1.481-2.119 3.234-2.391 5.231-.094.694-.019 1.294.619 1.622.713.366 1.378.131 1.828-.506.441-.609.713-1.359 1.209-1.912 2.081-2.259 2.1-4.969 1.8-8.184zm108.047 232.594c-.216-.506-.544-1.059-.694-1.65-.516-2.081-1.706-3.834-2.963-5.456-2.353-3.028-5.494-4.781-9.487-4.491-1.997.15-2.963 1.256-3.281 3.262-.141.909-.478 1.819-.9 2.634-1.031 2.016-2.344 3.891-3.234 5.963-1.791 4.181-4.547 7.453-8.081 10.284-3.778 3.038-8.128 5.072-12.178 7.631-1.181.75-2.503 1.088-3.947 1.134-1.313.047-2.606.431-3.909.656-.534.103-1.069.206-1.688.337.028-.366-.009-.563.075-.703 1.5-2.822 1.903-5.85 1.725-8.991-.122-2.081-.113-4.181-.422-6.234-.169-1.125-.694-2.288-1.369-3.225-1.284-1.791-3.056-2.175-5.194-1.491-2.278.731-4.284 1.819-6.009 3.45-1.463 1.378-2.803 2.906-4.341 4.2-2.175 1.819-4.444 3.516-6.713 5.222-2.016 1.509-4.163 2.841-6.084 4.453-1.706 1.425-3.478 2.691-5.484 3.666-4.284 2.072-8.831 3.384-13.331 4.819-.366.122-.741.188-1.087.347-3.244 1.444-6.619 1.416-10.041.881-2.859-.45-5.728-.872-8.597-1.313-.431-.075-.872-.188-1.303-.225-.9-.084-1.097-.581-1.069-1.425.103-2.587.141-5.175.188-7.762.047-2.747-1.219-4.884-3.319-6.469-1.997-1.509-2.766-3.234-2.147-5.728.478-1.941.572-3.975.909-5.944.319-1.856.713-3.694 1.078-5.531.272-1.35.534-2.7.816-4.05.694-3.319 1.397-6.647 2.109-9.956.075-.375.15-.741.253-1.106 1.247-4.172 2.503-8.325 3.741-12.497.337-1.144.516-2.344.9-3.469 1.153-3.403 2.391-6.769 3.572-10.162.366-1.069.581-2.194.938-3.272 1.078-3.225 2.213-6.431 3.272-9.656.366-1.125.553-2.306.844-3.459.141-.544.234-1.134.497-1.622 1.491-2.625 2.944-5.25 4.753-7.697 2.7-3.647 5.072-7.528 7.556-11.334.722-1.116 1.266-2.344 2.053-3.403.872-1.144 1.884-2.194 2.916-3.206.675-.647 1.537-1.106 2.241-1.753 3.647-3.384 7.303-6.769 10.903-10.2 3.722-3.553 6.563-7.838 9.469-12.028 1.641-2.362 3.525-4.491 5.306-6.713.778-.984 1.566-1.95 2.419-2.869 2.138-2.306 4.369-4.528 6.45-6.891.816-.919 1.359-2.1 1.95-3.188a135 135 0 0 0 2.803-5.287c.413-.825.703-1.706.956-2.606.234-.834.234-1.753.506-2.569 1.341-4.05 1.069-8.203-.009-12.131-.806-2.944-2.306-5.841-5.016-7.772-1.491-1.059-3.066-2.072-4.313-3.384-2.137-2.25-4.725-2.419-7.5-2.166-1.631.159-3.263.319-4.884.544-4.003.534-7.659 1.894-11.063 4.116-2.541 1.659-3.019 4.106-2.991 6.713.028 1.922.544 3.834.872 5.991-.638 0-1.303 0-1.969.009-.825 0-1.706-.188-2.456.056-2.653.872-5.063-.056-7.5-.825-1.837-.581-2.953-.3-3.938 1.331-1.875 3.094-1.819 6.206.037 9.291.356.591.769 1.153 1.153 1.734.028.037-.009.122-.019.384-.637-.056-1.294-.075-1.931-.178-1.181-.178-2.372-.309-3.506-.637-.675-.188-1.303-.656-1.856-1.116-.478-.394-.769-1.003-1.228-1.425-.75-.694-1.575-1.069-2.709-.891-2.175.347-4.378.497-6.216.694-4.753-1.838-7.209-5.438-9.141-9.516.094-.122.188-.253.281-.384.938.413 1.866.853 2.813 1.228.638.244 1.313.516 1.978.563 1.556.103 2.175-.956 1.397-2.334-.337-.609-.722-1.181-1.05-1.781-.122-.206-.141-.478-.234-.797 1.866-1.078 3.984.778 5.906-.6-.094-1.837-1.537-2.747-2.784-3.675-1.209-.891-2.616-1.519-3.881-2.334-.366-.234-.844-.816-.759-1.078.141-.45.628-.9 1.078-1.106.553-.253 1.219-.3 1.847-.328.938-.056 1.913-.131 2.831-.009 2.325.3 3.694-.797 4.575-2.813.319-.722.778-1.387 1.125-1.997-1.05-2.016-3.666-1.359-4.725-3.216.412-1.237 1.491-1.922 2.569-1.809 1.734.188 3.469-.103 5.222.534 2.259.816 4.772-1.219 4.847-3.628.094-3.141-2.006-5.316-5.175-5.362-.572-.009-1.134 0-1.706-.037-2.747-.15-4.481 1.219-5.672 3.591-.581 1.163-1.331 2.269-2.147 3.281-1.266 1.575-2.484 3.141-3.253 5.063-.525 1.313-1.453 2.475-2.156 3.722-1.05 1.866-1.913 3.853-3.112 5.606s-2.775 3.263-4.144 4.903c-.806.975-2.175 1.575-2.166 3.122 0 .103-.122.225-.225.3-2.616 2.128-5.006 4.528-7.95 6.281-3.225 1.913-6.647 2.194-10.228 1.659-.478-.075-.947-.366-1.359-.647-3.169-2.259-5.297-5.156-5.391-9.225-.009-.225.066-.45.141-.938.441.478.891.75.966 1.097.262 1.237 1.172 2.044 1.809 3.028.956 1.481 2.241 2.137 3.919 2.241 2.184.141 4.247-.075 6.197-1.247 2.494-1.5 4.884-3.075 6.759-5.381 1.106-1.359 2.55-2.419 3.703-3.741.853-.966 1.566-2.091 2.194-3.225 1.556-2.813 3.084-5.634 4.528-8.512 1.219-2.447 2.372-4.931 3.403-7.462.403-1.003.3-2.213.637-3.253.413-1.228.891-2.503 1.641-3.544.797-1.097 1.003-2.278 1.069-3.506.066-1.144-.741-2.156-1.894-2.222-.966-.056-1.987.131-2.934.384-1.2.319-2.344.891-3.534 1.237-2.147.619-2.916 1.537-2.934 3.769-.009 1.191-.009 2.381-.009 3.806-.741 0-1.641-.009-2.55.009-.806.009-1.472-.253-2.006-.872-.741-.863-1.753-.947-2.784-.853-1.116.103-1.753.75-1.706 1.866.047 1.05.291 2.1.478 3.141.206 1.097.45 2.194.778 3.722-1.387-1.031-2.653-1.688-3.544-2.7-.909-1.041-1.425-2.409-2.147-3.694-1.688.994-1.866 3.066-3.563 3.919-1.472.741-2.709 1.931-4.284 3.094-.094-.825-.253-1.491-.225-2.138.141-2.953.328-5.906.544-8.85.141-1.884.319-3.759.544-5.634.075-.619.225-1.275.525-1.8 1.369-2.325 1.837-4.95 2.438-7.5.281-1.181.806-2.1 1.35-3.094.572-1.05 1.078-2.128 1.641-3.188.112-.206.384-.319.478-.394.834.309 1.575.581 2.456.909 1.462-1.706 2.934-3.497 4.481-5.213 1.847-2.062 3.797-4.041 5.634-6.103.703-.778 1.256-1.706 1.866-2.587.806-1.181 1.538-2.362 2.878-3.141 1.725-1.012 2.766-2.653 3.469-4.575 1.556-4.256 4.509-7.659 6.872-11.128 1.247 1.134 2.391 2.194 3.497 3.206 2.878-1.669 4.35-4.181 5.625-6.862.403-.853.937-1.65 1.359-2.494 1.303-2.587 2.578-5.184 3.872-7.772.253-.506.563-.984.853-1.481.497-.863 1.003-1.706 1.481-2.588.572-1.05 1.003-2.194 1.697-3.15.544-.741 1.35-1.313 2.128-1.819.347-.225 1.078-.234 1.369-.009.244.188.234.919.103 1.331-.272.9-.741 1.744-1.059 2.634-.478 1.341-1.209 2.653-.441 4.153.141.272-.075.731-.122 1.097-.103.863-.197 1.725-.319 2.859.637-.3 1.003-.469 1.369-.638.45-.216.919-.647 1.35-.619 2.278.188 3.713-1.369 5.325-2.494 1.2-.825 2.287-1.716 3.853-1.828a3.87 3.87 0 0 0 2.081-.834c1.519-1.266 3.469-1.95 4.734-3.544.159-.188.366-.347.563-.497 1.603-1.219 3.122-2.466 4.35-4.144 1.088-1.491 2.662-2.606 4.191-4.031-.047.581-.075 1.087-.122 1.594-.225 2.128-.366 4.266-.713 6.375a16.2 16.2 0 0 1-1.209 3.928c-1.181 2.634-2.513 5.213-3.853 7.959.497.141.825.272 1.163.309 3.525.3 6.862-.488 10.106-1.8 1.284-.525 2.569-1.078 3.909-1.406 4.678-1.162 8.166-4.153 11.428-7.425 1.753-1.763 3.216-3.825 4.838-5.784 1.359 2.306.759 4.613.45 6.872-.178 1.303-.581 2.569-.806 3.853-.609 3.431-2.325 6.206-4.875 8.503-1.322 1.2-1.753 2.531-.853 4.191.544 1.003.956 2.063 1.5 3.066.787 1.462 1.866 1.856 3.469 1.303a344 344 0 0 0 4.284-1.5c3.188-1.125 6.516-1.444 9.844-1.725.544-.047 1.228-.103 1.641.169 2.128 1.313 4.472 1.134 6.806 1.153.253 0 .497-.028.75-.028.056 0 .113.056.253.131-.169.263-.253.609-.488.759a195 195 0 0 1-4.819 2.962c-.431.253-1.031.319-1.35.666-1.762 1.95-3.469 3.956-5.184 5.962-.066.075-.028.244-.038.516.413-.028.816-.009 1.2-.084 3.497-.694 7.134-.834 10.406-2.522.272-.141.628-.234.909-.169 1.781.412 3.487-.272 5.231-.319 1.05-.028 2.428.637 2.906 1.594.497.984.281 1.978-.628 2.925-.169.178-.347.384-.563.506-3.309 1.903-4.641 5.372-6.562 8.363-1.031 1.594-1.266 3.3.272 5.1 1.05-.534 2.194-1.106 3.338-1.688.338-.169.628-.516.975-.562 3.3-.478 6.497-1.622 9.881-1.462 1.884.084 3.806-.037 5.644.3 3.094.563 6.141 1.35 9.178 2.194 2.016.562 1.978.684 2.25 3.009-.281.066-.563.187-.853.206-2.963.122-5.475 1.387-7.734 3.178-.816.647-1.631.984-2.7 1.144-2.194.347-4.003 1.594-5.062 3.581-1.003 1.884-1.781 3.872-2.578 5.653.769.525 1.603 1.031 2.353 1.622 1.153.909 2.344 1.669 3.816 1.969 1.359.263 2.691.675 4.05.966.909.187 1.838.384 2.766.384 1.716.009 3.159.75 4.65 1.434.628.291 1.266.713 1.912.741 3.234.159 5.288 2.1 7.106 4.463.722.937 1.453 1.866 2.156 2.813.188.253.272.563.384.806-.544.966-1.181.806-1.95.431-1.069-.516-2.259-.816-3.272-1.406-1.603-.938-3.178-.525-4.734-.084-1.772.497-3.403 1.294-4.828 2.513-.966.844-1.463 1.847-1.584 3.103-.375 4.003 1.772 6.928 5.522 8.166 1.247.403 2.578.497 3.853.816.516.122 1.088.366 1.425.741 3.281 3.656 6.122 7.659 8.813 11.775.084.141.103.328.234.825-2.081-1.453-4.191-1.425-6.319-1.153-1.247.159-2.503.234-3.516 1.2-.262.253-.806.291-1.228.319-3.375.216-6.009 3.159-6.131 6.628-.084 2.578 1.069 4.744 1.997 7.003.647 1.566 1.65 2.766 3.075 3.712 1.819 1.219 3.544 2.616 5.297 3.938.206.15.413.3.572.497 2.55 3.028 5.278 5.944 7.584 9.159 1.425 1.997 2.719 4.069 4.528 5.766.422.384.6 1.041.684 1.828-.825-.375-1.659-.722-2.475-1.116-1.959-.947-3.994-1.481-6.206-1.425-.975.028-1.95-.309-2.925-.459-2.006-.3-3.994-.572-5.831.722-1.284.9-2.728 1.575-3.966 2.531-1.125.872-2.222 1.866-3.038 3.009-.853 1.2-1.116 2.747-.572 4.153 1.228 3.206 2.728 6.272 5.784 8.203a6.4 6.4 0 0 0 1.875.778c1.556.384 2.916 1.875 3.028 3.45.066.947-.234 1.8-1.041 2.306-.787.506-1.622.994-2.513 1.266-2.644.806-4.941 2.203-6.956 4.031-3.45 3.141-5.522 7.116-6.806 11.569-.628 2.213-.853 4.444-.769 6.722.056 1.388.169 2.803-.028 4.153-.581 4.022 1.144 7.219 3.356 10.313.319.441.666.966.703 1.472.234 2.831 1.959 4.388 4.378 5.409.234.094.488.141.722.216.178.056.347.141.525.216.787 2.391 2.466 4.041 4.444 5.437.412.3.938.478 1.247.844 1.987 2.391 4.819 3.394 7.537 4.491 2.644 1.059 5.475 1.706 8.325 1.322 1.641-.216 3.244-.919 4.791-1.584 1.013-.431 1.912-1.162 2.803-1.838.319-.244.525-.694.666-1.097.581-1.65 1.706-2.944 2.822-4.219.328-.375.891-.544 1.313-.797.844 2.128 1.641 4.022 2.325 5.953.178.497.075 1.116.019 1.669-.075.684-.347 1.359-.328 2.044.122 4.622-1.875 8.391-4.669 11.831-1.631 1.997-3.272 3.984-4.997 5.916-3.675 4.134-8.1 7.359-12.666 10.444-4.256 2.878-8.85 5.1-13.528 7.134-1.5.647-3.113 1.069-4.594 1.753-2.447 1.134-4.838 2.409-7.341 3.675z"/></svg>