<!-- Generated by IcoMoon.io -->
<svg version="1.1" xmlns="http://www.w3.org/2000/svg" width="300" height="300" viewBox="0 0 300 300">
<title>monsters-of-order</title>
<path d="M94.594 40.359c-1.191 1.462-2.053 2.681-3.075 3.741-1.434 1.481-2.119 3.234-2.391 5.231-0.094 0.694-0.019 1.294 0.619 1.622 0.713 0.366 1.378 0.131 1.828-0.506 0.441-0.609 0.713-1.359 1.209-1.912 2.081-2.259 2.1-4.969 1.8-8.184zM202.641 272.953c-0.216-0.506-0.544-1.059-0.694-1.65-0.516-2.081-1.706-3.834-2.963-5.456-2.353-3.028-5.494-4.781-9.487-4.491-1.997 0.15-2.963 1.256-3.281 3.262-0.141 0.909-0.478 1.819-0.9 2.634-1.031 2.016-2.344 3.891-3.234 5.963-1.791 4.181-4.547 7.453-8.081 10.284-3.778 3.038-8.128 5.072-12.178 7.631-1.181 0.75-2.503 1.088-3.947 1.134-1.313 0.047-2.606 0.431-3.909 0.656-0.534 0.103-1.069 0.206-1.688 0.337 0.028-0.366-0.009-0.563 0.075-0.703 1.5-2.822 1.903-5.85 1.725-8.991-0.122-2.081-0.113-4.181-0.422-6.234-0.169-1.125-0.694-2.288-1.369-3.225-1.284-1.791-3.056-2.175-5.194-1.491-2.278 0.731-4.284 1.819-6.009 3.45-1.463 1.378-2.803 2.906-4.341 4.2-2.175 1.819-4.444 3.516-6.713 5.222-2.016 1.509-4.163 2.841-6.084 4.453-1.706 1.425-3.478 2.691-5.484 3.666-4.284 2.072-8.831 3.384-13.331 4.819-0.366 0.122-0.741 0.188-1.087 0.347-3.244 1.444-6.619 1.416-10.041 0.881-2.859-0.45-5.728-0.872-8.597-1.313-0.431-0.075-0.872-0.188-1.303-0.225-0.9-0.084-1.097-0.581-1.069-1.425 0.103-2.587 0.141-5.175 0.188-7.762 0.047-2.747-1.219-4.884-3.319-6.469-1.997-1.509-2.766-3.234-2.147-5.728 0.478-1.941 0.572-3.975 0.909-5.944 0.319-1.856 0.713-3.694 1.078-5.531 0.272-1.35 0.534-2.7 0.816-4.050 0.694-3.319 1.397-6.647 2.109-9.956 0.075-0.375 0.15-0.741 0.253-1.106 1.247-4.172 2.503-8.325 3.741-12.497 0.337-1.144 0.516-2.344 0.9-3.469 1.153-3.403 2.391-6.769 3.572-10.162 0.366-1.069 0.581-2.194 0.938-3.272 1.078-3.225 2.213-6.431 3.272-9.656 0.366-1.125 0.553-2.306 0.844-3.459 0.141-0.544 0.234-1.134 0.497-1.622 1.491-2.625 2.944-5.25 4.753-7.697 2.7-3.647 5.072-7.528 7.556-11.334 0.722-1.116 1.266-2.344 2.053-3.403 0.872-1.144 1.884-2.194 2.916-3.206 0.675-0.647 1.537-1.106 2.241-1.753 3.647-3.384 7.303-6.769 10.903-10.2 3.722-3.553 6.563-7.838 9.469-12.028 1.641-2.362 3.525-4.491 5.306-6.713 0.778-0.984 1.566-1.95 2.419-2.869 2.138-2.306 4.369-4.528 6.45-6.891 0.816-0.919 1.359-2.1 1.95-3.188 0.966-1.744 1.913-3.497 2.803-5.287 0.413-0.825 0.703-1.706 0.956-2.606 0.234-0.834 0.234-1.753 0.506-2.569 1.341-4.050 1.069-8.203-0.009-12.131-0.806-2.944-2.306-5.841-5.016-7.772-1.491-1.059-3.066-2.072-4.313-3.384-2.137-2.25-4.725-2.419-7.5-2.166-1.631 0.159-3.263 0.319-4.884 0.544-4.003 0.534-7.659 1.894-11.063 4.116-2.541 1.659-3.019 4.106-2.991 6.713 0.028 1.922 0.544 3.834 0.872 5.991-0.638 0-1.303 0-1.969 0.009-0.825 0-1.706-0.188-2.456 0.056-2.653 0.872-5.063-0.056-7.5-0.825-1.837-0.581-2.953-0.3-3.938 1.331-1.875 3.094-1.819 6.206 0.037 9.291 0.356 0.591 0.769 1.153 1.153 1.734 0.028 0.037-0.009 0.122-0.019 0.384-0.637-0.056-1.294-0.075-1.931-0.178-1.181-0.178-2.372-0.309-3.506-0.637-0.675-0.188-1.303-0.656-1.856-1.116-0.478-0.394-0.769-1.003-1.228-1.425-0.75-0.694-1.575-1.069-2.709-0.891-2.175 0.347-4.378 0.497-6.216 0.694-4.753-1.838-7.209-5.438-9.141-9.516 0.094-0.122 0.188-0.253 0.281-0.384 0.938 0.413 1.866 0.853 2.813 1.228 0.638 0.244 1.313 0.516 1.978 0.563 1.556 0.103 2.175-0.956 1.397-2.334-0.337-0.609-0.722-1.181-1.050-1.781-0.122-0.206-0.141-0.478-0.234-0.797 1.866-1.078 3.984 0.778 5.906-0.6-0.094-1.837-1.537-2.747-2.784-3.675-1.209-0.891-2.616-1.519-3.881-2.334-0.366-0.234-0.844-0.816-0.759-1.078 0.141-0.45 0.628-0.9 1.078-1.106 0.553-0.253 1.219-0.3 1.847-0.328 0.938-0.056 1.913-0.131 2.831-0.009 2.325 0.3 3.694-0.797 4.575-2.813 0.319-0.722 0.778-1.387 1.125-1.997-1.050-2.016-3.666-1.359-4.725-3.216 0.412-1.237 1.491-1.922 2.569-1.809 1.734 0.188 3.469-0.103 5.222 0.534 2.259 0.816 4.772-1.219 4.847-3.628 0.094-3.141-2.006-5.316-5.175-5.362-0.572-0.009-1.134 0-1.706-0.037-2.747-0.15-4.481 1.219-5.672 3.591-0.581 1.163-1.331 2.269-2.147 3.281-1.266 1.575-2.484 3.141-3.253 5.063-0.525 1.313-1.453 2.475-2.156 3.722-1.050 1.866-1.913 3.853-3.112 5.606s-2.775 3.263-4.144 4.903c-0.806 0.975-2.175 1.575-2.166 3.122 0 0.103-0.122 0.225-0.225 0.3-2.616 2.128-5.006 4.528-7.95 6.281-3.225 1.913-6.647 2.194-10.228 1.659-0.478-0.075-0.947-0.366-1.359-0.647-3.169-2.259-5.297-5.156-5.391-9.225-0.009-0.225 0.066-0.45 0.141-0.938 0.441 0.478 0.891 0.75 0.966 1.097 0.262 1.237 1.172 2.044 1.809 3.028 0.956 1.481 2.241 2.137 3.919 2.241 2.184 0.141 4.247-0.075 6.197-1.247 2.494-1.5 4.884-3.075 6.759-5.381 1.106-1.359 2.55-2.419 3.703-3.741 0.853-0.966 1.566-2.091 2.194-3.225 1.556-2.813 3.084-5.634 4.528-8.512 1.219-2.447 2.372-4.931 3.403-7.462 0.403-1.003 0.3-2.213 0.637-3.253 0.413-1.228 0.891-2.503 1.641-3.544 0.797-1.097 1.003-2.278 1.069-3.506 0.066-1.144-0.741-2.156-1.894-2.222-0.966-0.056-1.987 0.131-2.934 0.384-1.2 0.319-2.344 0.891-3.534 1.237-2.147 0.619-2.916 1.537-2.934 3.769-0.009 1.191-0.009 2.381-0.009 3.806-0.741 0-1.641-0.009-2.55 0.009-0.806 0.009-1.472-0.253-2.006-0.872-0.741-0.863-1.753-0.947-2.784-0.853-1.116 0.103-1.753 0.75-1.706 1.866 0.047 1.050 0.291 2.1 0.478 3.141 0.206 1.097 0.45 2.194 0.778 3.722-1.387-1.031-2.653-1.688-3.544-2.7-0.909-1.041-1.425-2.409-2.147-3.694-1.688 0.994-1.866 3.066-3.563 3.919-1.472 0.741-2.709 1.931-4.284 3.094-0.094-0.825-0.253-1.491-0.225-2.138 0.141-2.953 0.328-5.906 0.544-8.85 0.141-1.884 0.319-3.759 0.544-5.634 0.075-0.619 0.225-1.275 0.525-1.8 1.369-2.325 1.837-4.95 2.438-7.5 0.281-1.181 0.806-2.1 1.35-3.094 0.572-1.050 1.078-2.128 1.641-3.188 0.112-0.206 0.384-0.319 0.478-0.394 0.834 0.309 1.575 0.581 2.456 0.909 1.462-1.706 2.934-3.497 4.481-5.213 1.847-2.062 3.797-4.041 5.634-6.103 0.703-0.778 1.256-1.706 1.866-2.587 0.806-1.181 1.538-2.362 2.878-3.141 1.725-1.012 2.766-2.653 3.469-4.575 1.556-4.256 4.509-7.659 6.872-11.128 1.247 1.134 2.391 2.194 3.497 3.206 2.878-1.669 4.35-4.181 5.625-6.862 0.403-0.853 0.937-1.65 1.359-2.494 1.303-2.587 2.578-5.184 3.872-7.772 0.253-0.506 0.563-0.984 0.853-1.481 0.497-0.863 1.003-1.706 1.481-2.588 0.572-1.050 1.003-2.194 1.697-3.15 0.544-0.741 1.35-1.313 2.128-1.819 0.347-0.225 1.078-0.234 1.369-0.009 0.244 0.188 0.234 0.919 0.103 1.331-0.272 0.9-0.741 1.744-1.059 2.634-0.478 1.341-1.209 2.653-0.441 4.153 0.141 0.272-0.075 0.731-0.122 1.097-0.103 0.863-0.197 1.725-0.319 2.859 0.637-0.3 1.003-0.469 1.369-0.638 0.45-0.216 0.919-0.647 1.35-0.619 2.278 0.188 3.713-1.369 5.325-2.494 1.2-0.825 2.287-1.716 3.853-1.828 0.713-0.047 1.528-0.375 2.081-0.834 1.519-1.266 3.469-1.95 4.734-3.544 0.159-0.188 0.366-0.347 0.563-0.497 1.603-1.219 3.122-2.466 4.35-4.144 1.088-1.491 2.662-2.606 4.191-4.031-0.047 0.581-0.075 1.087-0.122 1.594-0.225 2.128-0.366 4.266-0.713 6.375-0.225 1.341-0.647 2.681-1.209 3.928-1.181 2.634-2.513 5.213-3.853 7.959 0.497 0.141 0.825 0.272 1.163 0.309 3.525 0.3 6.862-0.488 10.106-1.8 1.284-0.525 2.569-1.078 3.909-1.406 4.678-1.162 8.166-4.153 11.428-7.425 1.753-1.763 3.216-3.825 4.838-5.784 1.359 2.306 0.759 4.613 0.45 6.872-0.178 1.303-0.581 2.569-0.806 3.853-0.609 3.431-2.325 6.206-4.875 8.503-1.322 1.2-1.753 2.531-0.853 4.191 0.544 1.003 0.956 2.063 1.5 3.066 0.787 1.462 1.866 1.856 3.469 1.303 1.434-0.488 2.859-0.994 4.284-1.5 3.188-1.125 6.516-1.444 9.844-1.725 0.544-0.047 1.228-0.103 1.641 0.169 2.128 1.313 4.472 1.134 6.806 1.153 0.253 0 0.497-0.028 0.75-0.028 0.056 0 0.113 0.056 0.253 0.131-0.169 0.263-0.253 0.609-0.488 0.759-1.594 1.012-3.197 1.997-4.819 2.962-0.431 0.253-1.031 0.319-1.35 0.666-1.762 1.95-3.469 3.956-5.184 5.962-0.066 0.075-0.028 0.244-0.038 0.516 0.413-0.028 0.816-0.009 1.2-0.084 3.497-0.694 7.134-0.834 10.406-2.522 0.272-0.141 0.628-0.234 0.909-0.169 1.781 0.412 3.487-0.272 5.231-0.319 1.050-0.028 2.428 0.637 2.906 1.594 0.497 0.984 0.281 1.978-0.628 2.925-0.169 0.178-0.347 0.384-0.563 0.506-3.309 1.903-4.641 5.372-6.562 8.363-1.031 1.594-1.266 3.3 0.272 5.1 1.050-0.534 2.194-1.106 3.338-1.688 0.338-0.169 0.628-0.516 0.975-0.562 3.3-0.478 6.497-1.622 9.881-1.462 1.884 0.084 3.806-0.037 5.644 0.3 3.094 0.563 6.141 1.35 9.178 2.194 2.016 0.562 1.978 0.684 2.25 3.009-0.281 0.066-0.563 0.187-0.853 0.206-2.963 0.122-5.475 1.387-7.734 3.178-0.816 0.647-1.631 0.984-2.7 1.144-2.194 0.347-4.003 1.594-5.062 3.581-1.003 1.884-1.781 3.872-2.578 5.653 0.769 0.525 1.603 1.031 2.353 1.622 1.153 0.909 2.344 1.669 3.816 1.969 1.359 0.263 2.691 0.675 4.050 0.966 0.909 0.187 1.838 0.384 2.766 0.384 1.716 0.009 3.159 0.75 4.65 1.434 0.628 0.291 1.266 0.713 1.912 0.741 3.234 0.159 5.288 2.1 7.106 4.463 0.722 0.937 1.453 1.866 2.156 2.813 0.188 0.253 0.272 0.563 0.384 0.806-0.544 0.966-1.181 0.806-1.95 0.431-1.069-0.516-2.259-0.816-3.272-1.406-1.603-0.938-3.178-0.525-4.734-0.084-1.772 0.497-3.403 1.294-4.828 2.513-0.966 0.844-1.463 1.847-1.584 3.103-0.375 4.003 1.772 6.928 5.522 8.166 1.247 0.403 2.578 0.497 3.853 0.816 0.516 0.122 1.088 0.366 1.425 0.741 3.281 3.656 6.122 7.659 8.813 11.775 0.084 0.141 0.103 0.328 0.234 0.825-2.081-1.453-4.191-1.425-6.319-1.153-1.247 0.159-2.503 0.234-3.516 1.2-0.262 0.253-0.806 0.291-1.228 0.319-3.375 0.216-6.009 3.159-6.131 6.628-0.084 2.578 1.069 4.744 1.997 7.003 0.647 1.566 1.65 2.766 3.075 3.712 1.819 1.219 3.544 2.616 5.297 3.938 0.206 0.15 0.413 0.3 0.572 0.497 2.55 3.028 5.278 5.944 7.584 9.159 1.425 1.997 2.719 4.069 4.528 5.766 0.422 0.384 0.6 1.041 0.684 1.828-0.825-0.375-1.659-0.722-2.475-1.116-1.959-0.947-3.994-1.481-6.206-1.425-0.975 0.028-1.95-0.309-2.925-0.459-2.006-0.3-3.994-0.572-5.831 0.722-1.284 0.9-2.728 1.575-3.966 2.531-1.125 0.872-2.222 1.866-3.038 3.009-0.853 1.2-1.116 2.747-0.572 4.153 1.228 3.206 2.728 6.272 5.784 8.203 0.562 0.356 1.228 0.619 1.875 0.778 1.556 0.384 2.916 1.875 3.028 3.45 0.066 0.947-0.234 1.8-1.041 2.306-0.787 0.506-1.622 0.994-2.513 1.266-2.644 0.806-4.941 2.203-6.956 4.031-3.45 3.141-5.522 7.116-6.806 11.569-0.628 2.213-0.853 4.444-0.769 6.722 0.056 1.388 0.169 2.803-0.028 4.153-0.581 4.022 1.144 7.219 3.356 10.313 0.319 0.441 0.666 0.966 0.703 1.472 0.234 2.831 1.959 4.388 4.378 5.409 0.234 0.094 0.488 0.141 0.722 0.216 0.178 0.056 0.347 0.141 0.525 0.216 0.787 2.391 2.466 4.041 4.444 5.437 0.412 0.3 0.938 0.478 1.247 0.844 1.987 2.391 4.819 3.394 7.537 4.491 2.644 1.059 5.475 1.706 8.325 1.322 1.641-0.216 3.244-0.919 4.791-1.584 1.013-0.431 1.912-1.162 2.803-1.838 0.319-0.244 0.525-0.694 0.666-1.097 0.581-1.65 1.706-2.944 2.822-4.219 0.328-0.375 0.891-0.544 1.313-0.797 0.844 2.128 1.641 4.022 2.325 5.953 0.178 0.497 0.075 1.116 0.019 1.669-0.075 0.684-0.347 1.359-0.328 2.044 0.122 4.622-1.875 8.391-4.669 11.831-1.631 1.997-3.272 3.984-4.997 5.916-3.675 4.134-8.1 7.359-12.666 10.444-4.256 2.878-8.85 5.1-13.528 7.134-1.5 0.647-3.113 1.069-4.594 1.753-2.447 1.134-4.838 2.409-7.341 3.675z"></path>
</svg>
