<!-- Generated by IcoMoon.io -->
<svg version="1.1" xmlns="http://www.w3.org/2000/svg" width="300" height="300" viewBox="0 0 300 300">
<title>monsters-of-destruction</title>
<path d="M50.109 91.341c-1.884 2.006-1.987 4.528-2.888 6.684-0.141 0.328 0.375 0.938 0.581 1.397 2.147-0.703 2.803-2.419 3.103-3.994 0.225-1.2 0.694-2.822-0.797-4.097zM242.175 130.491c-1.266 0.647-2.109 1.172-3.019 1.519-1.688 0.647-2.738 2.006-3.788 3.328-0.347 0.431-0.441 1.247-0.347 1.838 0.525 3.122 1.341 6.15 3.319 8.747 2.391 3.122 4.866 6.197 7.041 9.469 1.65 2.484 2.888 5.259 4.453 8.147-1.463-0.131-2.588-0.244-3.722-0.328-1.397-0.103-2.363 0.441-2.925 1.8-0.713 1.688-1.613 3.291-2.316 4.987-0.619 1.509-0.572 3.066 0.084 4.594 0.206 0.478 0.281 1.003 0.384 1.519 0.609 3.188 1.2 6.375 1.828 9.703 0.469 0.113 1.088 0.262 1.556 0.375 0.684 1.856 1.331 3.553 1.931 5.278 0.159 0.478 0.244 1.003 0.253 1.519 0.038 1.116-0.009 2.231 0.009 3.347 0.019 2.569 1.538 4.116 4.106 4.266 1.416 0.084 2.831 0.225 4.247 0.394 0.347 0.047 0.825 0.188 1.003 0.45 1.359 1.997 3.478 3.375 4.341 5.794 0.609 1.688 1.706 2.091 3.459 1.762s2.606 0.084 3.506 1.678c1.322 2.334 1.856 2.578 4.387 1.8 0.741-0.225 1.313-0.178 1.678 0.516 0.956 1.866 2.831 2.484 4.528 3.281 0.769 0.356 1.772 0.187 2.756 0.272 1.284 2.691 1.191 5.634 1.003 8.559-0.225 3.825-1.8 7.341-2.728 10.997-1.106 4.331-4.134 7.191-6.741 10.406-5.55 6.872-11.925 12.947-18.881 18.356-8.822 6.863-18.178 12.928-28.191 17.962-9.937 4.997-20.25 9-30.975 11.916-7.472 2.025-15.047 3.619-22.753 4.462-7.903 0.863-15.844 0.938-23.775 0.638-3.731-0.141-7.425-0.872-11.147-1.219-2.016-0.178-4.041-0.15-6.066-0.15-1.537 0-2.991-0.197-4.313-1.097-0.403-0.272-0.975-0.319-1.472-0.431-2.175-0.45-3.028-2.222-1.866-4.134 0.853-1.397 1.875-2.691 2.878-4.097-1.2-1.378-1.144-2.859-0.563-4.434 1.106-3.009 2.147-6.028 3.272-9.197-2.391-2.381-3.581-5.503-3.384-9.169 0.047-0.853 0.037-1.716 0.009-2.559-0.047-1.35 0.412-2.381 1.566-3.178 1.172-0.816 1.144-1.603 0.412-2.953-0.281-0.506-0.319-1.247-0.216-1.838 0.187-1.022 0.056-1.809-1.2-2.353 0.778-2.016 1.537-3.966 2.287-5.897 0.347-0.853 0.628-1.744 1.097-2.522 1.359-2.287 0.956-4.631 0.412-7.013-0.281-1.219-0.975-2.128-2.034-2.775-0.441-0.272-0.909-0.497-1.537-0.825 1.472-4.913 2.925-9.797 5.297-14.456-0.459-0.262-0.872-0.431-1.2-0.694-1.134-0.872-1.913-1.931-1.884-3.478 0.047-2.616-0.122-5.259 0.084-7.875 0.216-2.794 0.637-5.606 2.466-8.1-0.778 0.216-1.566 0.412-2.569 0.684 0.112-0.591 0.15-1.078 0.3-1.547 1.388-4.5 3.825-8.484 6.403-12.375 1.256-1.894 2.091-3.778 1.837-6.056-0.309-2.981 0.778-5.353 2.963-7.331 1.594-1.434 3.075-2.981 4.762-4.631-0.544-1.303-0.928-3 0.094-4.406 0.909-1.238 2.222-2.156 3.525-3.384-0.122-0.778-1.116-0.9-2.147-1.331 0.459-0.881 0.834-1.762 1.35-2.559 1.35-2.081 2.709-4.172 4.181-6.178 2.484-3.375 5.147-6.638 7.575-10.059 1.434-2.016 1.988-4.5 2.138-6.9 0.216-3.206-0.047-6.422-1.65-9.384-1.134-2.091-2.644-3.694-4.856-4.688-0.919-0.413-1.828-1.041-2.512-1.791-2.316-2.559-5.241-2.972-8.278-2.128-1.388 0.384-2.691 0.3-4.041 0.384-1.369 0.094-2.756-0.019-4.116 0.122-2.784 0.291-4.378 2.053-4.434 4.828-0.028 1.631-0.028 3.281 0.047 4.922 0.037 0.844-0.216 1.5-0.666 2.194-0.703 1.097-1.284 2.269-1.903 3.422-1.303 2.419-2.616 4.837-3.9 7.266-1.931 3.666-3.909 7.294-5.7 11.025-1.172 2.419-2.109 4.95-2.991 7.481-0.253 0.741-0.028 1.669 0.056 2.513 0.122 1.162 0.441 2.306 0.478 3.469 0.112 3.216 1.453 5.025 4.594 6.019 0.178 0.047 0.347 0.15 0.713 0.309-0.666 1.247-1.237 2.484-1.95 3.638-1.509 2.419-3.638 4.266-5.916 5.944-1.472 1.078-2.916 2.222-4.378 3.309-0.844 0.619-1.697 1.247-2.597 1.753-1.584 0.881-3.122 1.772-4.613 2.869-2.184 1.603-4.809 2.194-7.697 2.297-3.066 0.113-5.522-1.472-8.325-1.922-1.603-0.253-3.131-0.834-4.819-0.262-0.684 0.234-1.547-0.066-2.334-0.094-0.844-0.037-1.697-0.094-2.541-0.047-0.938 0.047-1.697-0.206-2.559-0.647-1.228-0.628-2.719-0.778-4.106-1.078-3.431-0.741-7.041-0.938-9.928-3.309-0.197-0.169-0.478-0.244-0.656-0.431-1.453-1.481-2.784-3.113-4.369-4.425-2.034-1.688-3.112-4.031-4.613-6.084-1.575-2.156-2.972-4.453-4.434-6.703-0.112-0.188-0.084-0.478-0.122-0.806 0.337-0.047 0.619-0.188 0.825-0.113 2.128 0.797 4.191 1.594 5.934 3.253 1.678 1.603 3.684 2.934 5.728 4.078 1.247 0.703 2.719 1.153 4.341 0.722 1.050-0.281 2.222-0.141 3.337-0.084 2.719 0.141 5.288-0.516 7.894-1.238 2.513-0.713 5.119-1.097 7.688-1.603 1.397-0.281 2.813-0.6 4.228-0.741 0.947-0.094 1.931 0.112 2.981 0.187 0.947-1.406 0.938-1.725-0.384-2.7-1.725-1.266-3.019-2.859-4.116-4.697-1.003-1.669-2.316-3.159-3.459-4.762-0.609-0.844-1.247-1.697-1.669-2.625-0.553-1.209-0.263-2.306 0.956-3.094 1.763 1.041 3.591 1.866 5.7 1.894 1.275 0.019 2.409-0.244 3-1.444 0.647-1.322 0.956-2.719-0.094-4.031-1.481-1.838-1.669-4.003-1.744-6.356 1.425 0.169 2.737 0.169 3.956 0.506 1.397 0.375 2.559 0.3 3.638-0.731 0.263-0.244 0.675-0.347 1.069-0.544 0.534-2.381 0.844-4.856 1.678-7.144 0.675-1.866 1.791-3.656 3.047-5.203 1.697-2.091 2.156-4.266 1.481-6.778-0.084-0.319-0.188-0.628-0.309-0.938-0.891-2.344-1.828-4.669-0.947-7.228-2.653-0.628-5.475 1.088-6.075 3.675-0.244 1.013-0.272 2.081-0.375 3.122s-0.131 2.1-0.328 3.122c-0.347 1.809-1.209 3.375-2.887 4.247-2.334 1.237-4.472 2.691-6.309 4.603-0.647-0.328-0.741-0.778-0.478-1.313 0.272-0.6 0.487-1.238 0.872-1.763 1.903-2.531 1.519-5.475 1.481-8.325-0.019-1.706-1.247-2.822-2.709-2.85-1.519-0.028-2.513 1.134-2.831 2.953-0.281 1.603-0.825 3.15-1.247 4.706-0.281 1.069-0.694 2.128-0.797 3.206-0.112 1.191-1.2 1.209-1.828 1.978-0.263-0.825-0.6-1.528-0.703-2.259-0.225-1.725-1.434-2.784-2.569-3.834-1.978-1.828-5.831-0.478-6.497 2.203-0.216 0.891-0.506 1.772-0.609 2.681-0.112 0.891-0.028 1.809-0.028 2.953-2.222-0.197-3.591-2.156-5.878-2.691-0.872 0.572-1.997 1.266-3.075 2.034-0.366 0.253-0.806 0.619-0.9 1.012-0.666 2.7-2.953 4.369-4.181 6.675-1.003 1.866-1.059 4.041 0.084 5.859 2.259 3.6 4.678 7.106 7.125 10.584 0.862 1.228 2.259 1.762 3.694 2.091 0.75 0.178 1.669 0.178 1.669 1.284 0 0.834-0.778 1.406-2.034 1.425-2.888 0.037-5.813 0.281-8.663-0.084-2.222-0.281-4.425-1.162-6.487-2.091-2.428-1.097-4.678-2.597-7.059-3.797-1.144-0.572-2.109-1.266-2.934-2.241-2.494-2.963-4.922-5.972-6.506-9.534-0.609-1.369-2.025-1.275-3.009-1.941-0.413-0.281-0.975-0.347-1.397-0.609-2.325-1.444-4.566-1.369-6.741 0.291-0.244 0.188-0.469 0.413-0.741 0.656-0.975-0.778-1.134-1.781-1.238-2.841-0.15-1.566-0.403-3.113-0.6-4.678-0.047-0.319-0.169-0.675-0.075-0.956 0.553-1.734 1.172-3.45 1.763-5.175 0.131-0.375 0.309-0.722 0.441-1.097 1.481-4.331 3.056-8.653 4.397-13.031 0.909-2.944 1.603-5.953 2.128-8.981 0.244-1.397 0.572-2.672 1.322-3.844 0.431-0.675 0.694-1.294 0.366-2.194-0.347-0.966-0.131-2.063 0.872-2.588 4.078-2.119 6.347-6 9.178-9.328 1.434-1.688 2.925-3.328 4.388-4.997 1.041-1.172 2.184-2.288 3.084-3.572 1.416-2.025 3.075-3.703 5.278-4.894 4.641-2.494 8.775-5.728 12.919-8.962 1.388-1.069 3.056-1.762 4.566-2.681 0.459-0.281 1.022-0.666 1.191-1.134 1.425-3.844 3.591-7.284 5.475-10.894 1.725-3.3 3.038-6.816 4.472-10.256 0.731-1.762 1.237-3.609 2.025-5.334 0.441-0.984 1.116-1.988 1.95-2.644 0.675-0.544 1.041-1.106 1.313-1.847 1.856-5.091 4.791-9.591 7.763-14.072 0.441-0.647 0.787-1.378 1.284-1.969 0.713-0.844 1.491-1.631 2.287-2.363 1.256-1.153 2.559-2.259 3.853-3.375 0.441-0.384 0.844-0.881 1.369-1.106 3.066-1.294 5.981-3.103 9.356-3.403 1.641-0.15 3.347 0.291 5.016 0.469 0.047 0.131 0.094 0.272 0.141 0.413-0.497 0.45-0.928 1.003-1.5 1.331-1.237 0.722-2.559 1.331-3.834 1.988-0.178 0.084-0.441 0.112-0.516 0.244-0.909 1.463-2.559 1.95-3.816 2.934-0.253 0.206-0.525 0.412-0.713 0.675-2.822 3.825-5.766 7.594-7.641 12-0.844 1.969-1.331 4.106-1.828 6.197-0.375 1.641-0.272 3.431-0.816 4.997-0.928 2.644-0.459 5.316-0.684 7.959-0.103 1.087-0.422 2.156-0.647 3.244 1.003 0.675 1.528 0.45 1.819-0.572 0.366-1.266 0.834-2.494 1.134-3.769 0.806-3.309 1.556-6.638 2.325-9.966 0.056-0.234 0.15-0.459 0.375-0.694 1.069 4.116 1.425 8.325 1.781 12.309 1.369 0.778 2.587 1.472 4.069 2.316 1.669-0.769 3.647-1.612 5.578-2.559 1.584-0.778 3.056-1.781 4.659-2.513 1.566-0.722 2.625-1.931 3.638-3.216 1.331-1.706 2.569-3.488 3.938-5.156 4.125-5.063 7.725-10.453 10.566-16.331 0.881-1.838 1.856-3.469 3.253-5.025 1.491-1.65 2.194-4.003 3.263-6.028 0.309-0.581 0.703-1.125 1.050-1.687 0.15 0.066 0.291 0.131 0.441 0.187-0.141 0.75-0.234 1.509-0.412 2.241-1.003 3.947-2.156 7.866-2.981 11.841-0.412 2.025-0.253 4.172-0.309 6.253-0.019 0.853 0.169 1.716 0.094 2.55-0.131 1.397 0.394 2.409 1.725 3.291 0.909-0.703 1.931-1.397 2.841-2.222 1.537-1.416 2.981-2.925 4.509-4.359 2.203-2.063 4.388-4.162 6.675-6.113 1.594-1.359 3.347-2.522 5.044-3.75 1.378-1.003 2.784-1.959 4.172-2.963 2.119-1.528 4.2-3.094 6.328-4.613 0.366-0.253 0.834-0.366 1.247-0.544 1.219-0.497 2.512-0.853 3.628-1.5 2.822-1.631 5.813-1.8 9.131-1.434-0.572 1.2-1.247 2.138-2.241 2.925-2.756 2.175-4.847 4.931-6.769 7.837-0.112 0.159-0.253 0.356-0.244 0.534 0.15 1.847-0.872 3.338-1.369 4.997-0.422 1.425-0.244 3.15 0.066 4.641 0.375 1.8 2.531 3.15 4.566 3.094 1.294-0.047 2.372 0.028 3.338 1.106 0.769 0.863 1.931 0.975 3.113 0.769 1.022-0.178 2.091-0.309 3.113-0.225 2.559 0.197 4.95-0.478 7.266-1.378 4.566-1.781 9.281-2.25 14.1-1.763 1.669 0.169 3.328 0.6 4.772 1.622 0.787 0.563 1.688 0.975 2.775 1.594-0.834 0.647-1.613 1.275-2.428 1.856-0.478 0.337-1.116 0.478-1.537 0.853-1.641 1.481-3.319 2.597-5.737 2.091-0.497-0.103-1.284 0.563-1.744 1.059-0.609 0.666-1.041 1.5-1.556 2.297-0.206 0-0.394 0.028-0.572 0-2.297-0.413-3.713 0.103-4.706 1.894-0.947 1.706-0.759 3.413 0.375 4.997 0.262 0.375 0.647 0.656 0.938 1.003 0.703 0.788 0.928 1.688 0.656 2.728-0.534 2.1 0.113 3.684 2.025 4.472 0.675 0.281 1.041 0.675 1.416 1.237 0.478 0.703 1.050 1.341 1.566 2.016 0.872 1.134 2.091 1.631 3.309 1.050 2.334-1.097 4.378-0.019 6.441 0.628 2.803 0.891 5.522 2.063 8.269 3.094 0.431 0.159 0.947 0.178 1.303 0.45 4.162 3.047 9.206 4.734 12.834 8.653 1.538 1.669 2.916 3.244 3.647 5.391 0.403 1.153 1.125 2.194 1.809 3.478-1.762 0.103-3.347 0.347-4.912-0.319-0.478-0.206-1.041-0.384-1.519-0.3-1.678 0.291-3.206-0.309-4.762-0.684-0.375-0.084-0.741-0.244-1.069-0.45-3.544-2.091-7.078-0.544-8.1 3.572-0.047 0.188-0.028 0.394-0.084 0.581-0.825 3.263 0.094 2.803 2.072 3.806 0.412 2.128 0.178 4.266-0.928 6.188-0.666 1.172-0.694 2.184-0.216 3.356 0.609 1.491 1.5 2.747 2.822 3.713 0.844 0.619 1.603 1.369 2.475 1.931 3.441 2.184 5.522 5.531 7.716 8.803 0.544 0.806 1.106 1.603 1.697 2.466-0.806 0.403-1.556 0.797-2.325 1.153-2.484 1.153-3.741 3.141-4.078 5.813-0.178 1.397 0.281 2.559 0.966 3.713 0.309 0.534 0.572 1.181 0.572 1.772-0.009 1.406 0.441 2.588 1.434 3.544 0.938 0.909 1.931 1.772 2.925 2.625 1.547 1.294 3.122 2.55 4.959 4.041z"></path>
</svg>
