<svg xmlns="http://www.w3.org/2000/svg" xml:space="preserve" fill-rule="evenodd" stroke-linejoin="round" stroke-miterlimit="2" clip-rule="evenodd" viewBox="0 0 300 300"><path fill-rule="nonzero" d="M150.074 297.254c-.6-.197-2.382-.806-3.564-1.228-1.453-.516-3.535-1.229-5.157-1.847-1.529-.582-3.132-1.294-4.548-1.848-1.304-.506-2.757-.703-3.93-1.472-1.556-1.022-3.807-2.907-5.41-4.67-2.373-2.616-7.183-8.73-8.843-11.047-.59-.825-.422-2.072-1.107-2.822-1.866-2.044-7.727-7.68-10.08-9.462-1.126-.853-3.095-.9-4.051-1.228-.591-.197-1.266-.31-1.716-.741-.816-.797-2.936-2.982-3.198-4.051-.225-.91.769-1.876 1.594-2.335 1.538-.863 5.767-2.166 7.614-2.823 1.135-.403 2.373-.544 3.442-1.106 1.388-.741 3.845-1.97 4.914-3.32 1.031-1.313.956-3.207 1.472-4.792.656-2.006.956-5.185 2.457-7.248 3.029-4.173 12.65-14.535 15.726-17.817a7.75 7.75 0 0 1 2.7-1.848c1.52-.619 4.802-.3 6.386-1.847 1.95-1.904 5.186-6.92 5.29-9.584.102-2.635-2.72-5.017-4.67-6.386-1.942-1.369-4.661-1.256-7.006-1.847a410 410 0 0 0-7.614-1.848c-1.754-.403-3.685-.59-5.28-1.106-1.5-.478-2.972-1.313-4.304-1.97a91 91 0 0 1-3.685-1.969c-.628-.347-1.285-.656-1.847-1.106-.62-.488-1.276-1.229-1.848-1.847-.553-.591-1.022-1.276-1.594-1.848-.816-.816-2.316-2.175-3.32-3.076-.881-.797-1.94-1.678-2.7-2.335-.62-.534-1.322-.975-1.848-1.594-.919-1.088-2.597-3.216-3.685-4.913-1.078-1.679-2.044-3.986-2.822-5.28-.526-.881-1.463-1.51-1.848-2.457-.619-1.538-1.538-4.51-1.847-6.76-.31-2.233 1.922-5.637 0-6.762-1.923-1.125-7.718-.3-11.553 0-4.201.328-10.747 1.435-13.635 1.97-1.275.234-2.766.984-3.685 1.228-.6.16-1.229.168-1.847.243-1.023.122-2.88.723-4.305.488-1.64-.262-5.214-.14-5.532-2.082-.92-5.673-.207-25.928 0-31.948.047-1.454.75-2.814 1.228-4.183.825-2.372 2.523-6.695 3.695-10.08 1.228-3.545 2.879-8.956 3.694-11.188.291-.787.826-1.472 1.229-2.213.413-.76.863-1.538 1.228-2.335.516-1.106 1.229-2.991 1.848-4.304q.86-1.817 1.847-3.563c.797-1.416 1.904-3.376 2.945-4.914 1.022-1.5 2.016-3.048 3.32-4.304 4.81-4.652 20.658-19.365 25.553-23.613 1.069-.928 2.578-1.153 3.807-1.847 1.453-.816 3.629-2.354 4.913-3.076.9-.497 1.867-.862 2.823-1.228 1.35-.516 3.639-1.229 5.28-1.848 1.528-.572 3.441-1.378 4.548-1.847.712-.3 1.444-.572 2.09-.984.798-.516 1.839-1.341 2.701-2.092 1.107-.966 2.786-2.39 3.93-3.685 1.106-1.247 1.519-3.179 2.944-4.051 3.545-2.166 13.232-7.493 18.314-8.965 3.892-1.125 8.815-2.166 12.163.122 3.544 2.42 8.027 10.447 9.096 14.376.834 3.094-1.716 7.23-2.701 9.218-.619 1.247-2.335 1.603-3.198 2.7-.9 1.144-1.556 2.935-2.213 4.183-.581 1.106-.497 3.047-1.716 3.32-3.441.759-14.929 1.33-18.923 1.228-1.792-.047-3.686-1.229-5.036-1.848-1.088-.497-2.035-1.266-3.076-1.847-1.106-.619-2.288-2.26-3.563-1.847-2.87.919-10.916 5.982-13.635 7.37-.853.441-1.8.741-2.7.985-.882.244-1.83.225-2.701.488-1.088.328-2.86 1.144-3.808 1.472-.6.206-1.303.15-1.847.487-.694.432-1.585 1.36-2.335 2.092C102.184 66.167 92 76.06 88.745 79.436c-1.134 1.182-2.044 2.664-2.944 3.93a70 70 0 0 0-2.457 3.685c-.919 1.49-2.1 3.498-3.076 5.28-1.885 3.44-6.592 12.04-8.233 15.36-.713 1.444-1.303 2.963-1.594 4.547-.535 2.907-1.35 9.012-1.594 12.904-.216 3.479-3.114 9.17.122 10.446 4.735 1.866 23.312 1.191 28.263.741 1.247-.113 1.04-2.27 1.472-3.442.638-1.716 1.641-5.063 2.335-6.883.535-1.387 1.36-2.86 1.848-4.05.412-1.004.656-2.082 1.106-3.076a24 24 0 0 1 1.716-3.076 28 28 0 0 1 2.335-3.076c.92-1.04 2.232-2.279 3.198-3.198.834-.806 1.866-1.66 2.579-2.335.59-.553 1.06-1.284 1.716-1.716s1.472-.581 2.213-.862c4.285-1.641 19.523-5.758 23.471-8.975 2.673-2.175.45-7.455.244-10.324-.169-2.344-1.453-4.548-1.472-6.883s-.882-6.19 1.35-7.127c4.567-1.922 20.19-2.12 26.05-4.417 4.052-1.584 7.38-7.577 9.097-9.34.403-.412.937-.73 1.228-1.228.535-.919 1.37-2.841 1.97-4.304.637-1.557 1.734-3.254 1.847-5.036.328-5.223.637-21.211.122-26.294-.179-1.744-2.007-2.888-3.198-4.182-1.388-1.52-3.807-3.789-5.158-4.914-.89-.74-1.94-1.266-2.944-1.847-1.107-.638-2.457-1.313-3.685-1.97-1.229-.656-2.298-1.894-3.686-1.969-3.648-.187-13.25.722-18.182.863-3.808.112-10.41.553-11.432 0s3.208-3.113 5.28-3.32c6.245-.637 25.328-.712 32.193-.487 3.057.103 6.517 1.275 8.974 1.847 1.94.45 4.285.366 5.776 1.594 1.5 1.229 2.054 3.957 3.198 5.777 1.125 1.79 2.579 4.135 3.685 5.157.76.703 1.96.666 2.945.985 1.125.365 2.503.937 3.807 1.228 1.82.413 4.98.188 7.127 1.229 2.147 1.04 5.514 3.891 5.776 5.035.263 1.144-2.72 1.407-4.182 1.848-1.641.497-4.257.619-5.655 1.106a6.5 6.5 0 0 0-2.7 1.848c-1.641 1.903-5.73 7.333-7.127 9.583-.722 1.163-.816 2.823-1.229 3.93-.347.928-.684 1.875-1.228 2.7-2.804 4.304-12.228 18.633-15.604 23.097-1.2 1.584-3.132 2.578-4.67 3.685-1.463 1.05-3.32 2.335-4.548 2.944-.872.432-2.7-.225-2.823.741-.365 2.87-1.087 13.185.61 16.457 1.547 2.992 7.333 2.457 9.584 3.198 1.303.432 2.766.816 3.929 1.229 1.04.365 2.044.825 3.076 1.228 1.847.722 5.635 2.054 7.989 3.076 2.1.91 4.36 1.95 6.142 3.076 1.65 1.04 3.31 2.185 4.548 3.694 1.294 1.585 3.095 3.582 3.198 5.786.366 7.868-.516 33.627-.985 41.41-.112 1.857-1.331 3.93-1.847 5.28-.366.957-.816 2.044-1.228 2.823a12 12 0 0 1-1.229 1.847c-2.597 3.282-11.403 14.376-14.375 17.817-.966 1.125-2.326 1.847-3.442 2.823-1.744 1.519-5.167 3.732-7.005 6.264-1.941 2.682-4.135 6.883-4.67 9.827-.478 2.626 1.941 6.02 1.472 7.868-.44 1.735-2.653 2.504-4.304 3.198-4.548 1.922-18.876 6.798-22.974 8.355a5.1 5.1 0 0 0-1.595.985c-1.228 1.106-4.304 4.097-5.776 5.654-1.097 1.163-2.072 2.438-3.076 3.685-1.022 1.266-2.297 2.56-3.076 3.93-.75 1.331-1.322 2.794-1.594 4.304-.59 3.3-1.903 10.83-1.969 15.482-.056 4.173.385 9.105 1.594 12.406 1.07 2.907 3.61 5.13 5.664 7.38 2.026 2.232 5.12 4.792 6.64 6.142.787.694 1.715 1.454 2.456 1.97.62.43 1.313.76 1.97 1.106.646.347 1.303.666 1.969.985 1.247.59 3.816 1.838 5.532 2.579 1.576.675 3.132 2.25 4.792 1.847 5.983-1.454 25.15-9.03 31.086-10.568 1.529-.394 4.651.103 4.548 1.35s-3.497 4.154-5.157 6.142c-1.604 1.922-2.992 4.51-4.792 5.777-1.716 1.21-4.201 1.36-6.02 1.847-1.623.44-3.236.985-4.914 1.106-3.995.291-15.867.507-19.046.62-.028 0 .01.084-.018.074m-39.695-128.536c-.225-.497-.89-1.969-1.35-2.944-.535-1.144-.6-3.216-1.848-3.93-1.247-.712-4.913-.815-5.654-.365s.816 2.354 1.228 3.076c.291.506.826.816 1.229 1.228 1.125 1.144 4.463 5.167 5.532 5.655.854.394.722-2.25.863-2.7zm89.826-36.984c-.262-1.106-1.125-4.53-1.594-6.64-.45-1.997-.816-4.5-1.228-6.02-.291-1.068-.6-2.175-1.229-3.075-.713-1.022-2.054-2.767-3.076-3.076s-2.766.816-3.075 1.228.919.741 1.228 1.229c.413.638.928 1.678 1.228 2.579.488 1.49 1.023 4.295 1.716 6.386.694 2.09 1.576 4.792 2.457 6.142.629.966 2.232 1.763 2.823 1.97.328.112.619-.62.74-.742.01-.01.01.028.01.02M140.246 31.218c-.244-.507-1.106-3.648-1.472-3.076s-.985 6.002-.741 6.508c.244.516 1.847-2.87 2.213-3.442z"/><path fill-rule="nonzero" d="M151.058 268.25c-.675-.619-3.066-2.785-4.05-3.685-.62-.572-1.285-1.097-1.848-1.716-.619-.675-1.341-1.482-1.847-2.335-.516-.863-.91-1.848-1.229-2.823-.553-1.716-2.157-4.904-2.091-7.492.084-3.236-.375-9.134 2.579-11.919 3.6-3.395 13.719-7.718 19.045-8.477 4.454-.638 10.222 2.494 12.903 3.929 1.66.89 1.398 4.117 3.198 4.67 2.541.778 8.871.553 12.04 0 2.542-.44 4.914-2.25 7.006-3.32 1.875-.956 4.041-2.297 5.532-3.076 1.126-.58 2.42-1.003 3.442-1.594.966-.562 1.885-1.35 2.7-1.969.75-.563 1.445-1.19 2.214-1.716 2.025-1.37 7.614-4.951 9.949-6.508 1.37-.91 2.813-1.735 4.051-2.822 2.27-2.007 7.37-6.762 9.584-9.218 1.481-1.65 2.597-3.601 3.685-5.533 1.228-2.166 2.766-5.364 3.685-7.493.741-1.706 1.229-3.563 1.848-5.28.6-1.678 1.331-3.563 1.847-5.035.44-1.256 1.078-2.485 1.228-3.807.45-3.948 7.146-16.551 1.473-19.908-5.674-3.357-28.676 2.354-35.512-.244-5.083-1.932-4.755-11.984-5.533-15.36-.375-1.622.244-3.789.863-4.914.543-.985 2.119-2.007 2.832-1.847s.506 2.382 1.472 2.822c2.663 1.21 9.518 3.592 14.497 4.426 6.518 1.088 18.802 1.641 24.578 2.092 3.357.262 8.403-1.407 10.081.619 1.679 2.025.272 7.708 0 11.552-.31 4.408-1.228 11.019-1.847 14.873-.441 2.776-1.36 6.105-1.848 8.233-.347 1.52-.637 3.057-1.106 4.548-.488 1.576-1.21 3.282-1.847 4.914a354 354 0 0 1-1.97 4.914c-.403.985-.9 1.932-1.228 2.944-.347 1.07-.338 2.382-.863 3.442-.694 1.416-2.213 3.441-3.32 5.036-1.069 1.547-1.997 3.216-3.32 4.548-2.372 2.4-7.238 6.61-10.933 9.827-3.77 3.273-9.321 7.99-11.675 9.828-.722.562-1.66.787-2.457 1.228a364 364 0 0 0-6.883 3.93c-2.025 1.2-4.53 2.906-6.02 3.684-.92.479-1.96.676-2.945.985-1.106.347-2.503.61-3.685 1.107-1.941.815-5.758 1.875-7.99 3.807-2.785 2.42-6.61 7.802-8.72 10.69-1.52 2.072-1.745 5.28-3.93 6.64-2.972 1.847-9.283 3.957-13.888 4.425-4.594.47-11.477-1.322-13.766-1.594-.009 0 .029-.019.02-.028m17.695-7.492c-.14.14-.862.572-.862.862s.722 1.004.862.863c.141-.14 0-1.425 0-1.716zM.035 252.402c-1.406-3.798 39.807-46.54 43.502-50.375 3.91-5.204 5.767-7.999 15.848.253.919.75 4.53-1.903 11.44-7.061-1.519-19.486-5.795-22.103 1.941-25.722 6.865-3.207 7.615-8.121 10.39-3.423 2.298 3.882 7.25 23.444 13.513 29.473 6.218 5.983 6.405 5.674 10.287 13.241-2.747 2.907-2.672 7.793-5.42 10.69-.647.685-9.086.094-10.868-1.256-4.933-3.751-8.524-9.078-13.457-12.829-7.745 4.605-13.062 2.804-10.071 11.385 4.492 12.875-32.446 24.334-35.615 25.675-17.517 7.427-29.774 14.385-31.461 9.95zm15.858-11.675c.196-.731.3-1.575-.104-2.26-.075-.121-.253-.196-.384-.196-1.557 0-1.2 5.87-.394 4.716.385-.543.788-1.931.882-2.26M223.92 119.693c-.328-1.21-1.162-4.876-1.969-7.248-1.144-3.376-3.357-9.584-4.913-13.025-1.21-2.673-3.404-5.974-4.427-7.615-.497-.788-1.153-1.463-1.716-2.213-.61-.816-1.34-1.782-1.969-2.7-.947-1.37-2.579-3.995-3.685-5.533-.92-1.276-2.007-2.701-2.945-3.686-.806-.844-2.081-1.228-2.7-2.213-.816-1.294-2.664-3.807-2.213-5.532.45-1.726 3.357-3.77 4.913-4.792 1.285-.844 2.992-1.923 4.426-1.35 2.786 1.106 8.515 5.513 12.285 7.989 3.45 2.27 7.577 6.395 10.324 6.883 2.392.431 4.098-2.635 6.143-3.93 2.034-1.284 4.791-3.01 6.142-3.806.628-.375 1.997-.254 1.969-.985-.056-1.866-1.491-7.727-2.335-10.203-.572-1.706-3.545-3.704-2.7-4.67.843-.965 5.176-.684 7.745-1.106 2.973-.488 7.361-1.228 10.08-1.847 2.12-.479 4.427-1.229 6.265-1.848 1.622-.544 3.46-1.228 4.792-1.847 1.116-.516 2.063-1.379 3.197-1.847 1.191-.497 2.673-.591 3.93-1.107 3.15-1.294 11.271-5.148 14.994-6.64 2.391-.956 5.626-2.503 7.37-2.334 1.5.14 3.039 2.091 3.076 3.32.047 1.228-1.603 2.953-2.822 4.05-1.66 1.492-5.148 2.814-7.127 4.914-4.342 4.605-14.948 17.958-18.924 22.731-1.64 1.97-3.47 3.789-4.913 5.898-1.641 2.392-3.77 6.452-4.914 8.478-.685 1.21-1.21 3.666-1.97 3.685-.759.019-2.044-2.523-2.578-3.563-.422-.826-.732-1.782-.62-2.701.142-1.191 1.717-3.217 1.473-4.426s-1.716-3.395-2.944-2.823c-3.339 1.557-14.15 8.843-17.077 12.163-1.716 1.94-.665 5.167-.487 7.745.225 3.217 1.481 7.802 1.847 11.553.356 3.63 1.041 8.74.366 10.934-.488 1.576-2.785 2.082-4.426 2.213-2.56.207-9.106-.825-10.934-.984-.01 0-.028.028-.028.018"/></svg>