<svg xmlns="http://www.w3.org/2000/svg" xml:space="preserve" fill-rule="evenodd" stroke-linejoin="round" stroke-miterlimit="2" clip-rule="evenodd" viewBox="0 0 300 300"><path fill-rule="nonzero" d="M49.638 299.53c-4.262-2.603-1.31-3.716 3.065-6.007C96.101 270.824 60.153 246.21 88 209.82c.793-1.038 8.591-11.232 12.382-10.666 2.273.34.68-1.386 2.103-2.895 1.84-1.961 4.63-2.867 6.479-4.828l7.676 8.468c-2.037 2.848-3.065 6.337-5.102 9.185-6.554 9.166-18.738 8.76-19.784 28.989-.142 2.697.5 5.384 1.028 8.025 7.704 38.74-37.297 57.119-43.134 53.441z"/><path fill-rule="nonzero" d="M173.41 288.628c-.141-.914-.51-3.923-.858-5.516-.302-1.377-.82-3.084-1.226-4.046-.273-.65-.849-1.122-1.226-1.716-.453-.717-.943-1.745-1.471-2.575-.792-1.245-2.83-2.99-3.31-4.903-.962-3.8-2.339-11.873-2.452-17.89-.122-6.62 1.632-16.993 1.716-21.812.038-2.405-.622-4.78-1.225-7.11-.717-2.754-1.924-6.677-3.065-9.44-1.028-2.48-2.782-7.44-3.8-7.11-1.02.33-2.141 6.27-2.33 9.072-.17 2.602.82 5.743 1.226 7.723.292 1.415 1.226 2.716 1.226 4.168 0 1.537-.924 3.329-1.226 5.026-.406 2.273-.528 5.781-1.226 8.582-.698 2.8-2.31 9.562-2.942 8.214-.632-1.349-.415-10.873-.858-16.296-.51-6.309-1.085-18.011-2.207-21.567-.453-1.443-3.452-.82-4.536.246-1.16 1.14-1.697 4.658-2.452 6.62-.67 1.725-1.688 3.338-2.084 5.148-.65 3-1.075 8.6-1.839 12.863-.877 4.923-2.367 11.882-3.432 16.664-.896 4.017-2.141 8.78-2.943 12.004-.603 2.452-1.226 7.233-1.839 7.356-.613.122-1.273-4.404-1.838-6.62-.736-2.858-.943-10.11-2.575-10.543-1.631-.425-5.696 5.988-7.233 7.968-.896 1.16-1.15 2.707-1.961 3.923-1.019 1.537-2.858 5.413-4.169 5.272s-2.48-4.065-3.677-6.13c-1.264-2.188-2.452-5.724-3.923-6.988-1.245-1.075-4.414.698-4.904-.613s.51-6.11 1.961-7.233c1.453-1.122 5.8 1.292 6.743.49.943-.791-.717-4.083-1.103-5.27-.227-.699-.774-1.255-1.226-1.84-.472-.613-.953-1.339-1.594-1.839-.943-.735-3.829-.99-4.046-2.574-.226-1.613 1.755-5.696 2.698-7.11.594-.896 1.933-.953 2.942-1.349 1.207-.471 3.187-1.594 4.29-1.471 1.066.123 1.35 1.905 2.33 2.207.98.31 2.8-.038 3.555-.368.575-.245.943-.971.98-1.594.038-.67-.49-1.631-.735-2.452-.245-.82-.188-1.8-.735-2.452-.632-.754-2.528-.97-3.065-2.084-.613-1.263-1.226-4.356-.613-5.516.613-1.17 3.253-.368 4.29-1.471 1.047-1.104 1.35-3.622 1.962-5.15.547-1.357 1.235-2.659 1.716-4.045.651-1.895 2.084-5.168 2.207-7.356.113-1.98-.98-4.554-1.471-5.761-.264-.642-.99-.972-1.471-1.472-.613-.631-1.556-1.65-2.207-2.329-.566-.584-1.037-1.273-1.716-1.716-.717-.472-1.726-.717-2.575-1.103-1.065-.49-2.8-1.226-3.8-1.84-.82-.5-1.5-1.197-2.207-1.838-.896-.82-1.744-2.782-3.187-3.065-2.188-.424-7.62-.057-9.93.49-1.566.378-2.31 2.801-3.923 2.82s-3.876-1.726-5.762-2.697c-3.169-1.632-10.42-7.356-13.24-7.11s-3.187 5.761-3.678 8.581c-.48 2.744.311 6.658.736 8.336.207.811 2.169 1.245 1.839 1.717-.33.471-2.49 1.216-3.8 1.103-1.453-.123-3.716-1.367-4.904-1.839-.745-.292-1.519-.566-2.207-.98-.773-.472-1.537-1.377-2.452-1.84-1.207-.613-3.225-1.999-4.781-1.838-1.556.16-4.008 1.405-4.536 2.82-.528 1.404 1.066 4.101 1.348 5.638.217 1.17.557 2.594.368 3.556-.17.867-.67 2.574-1.47 2.206-3.226-1.49-14.967-6.29-17.89-11.146s-.349-14.4.368-18.012c.349-1.754 2.96-3.187 3.923-3.678.584-.302 1.612 1.358 1.839.736.679-1.84 3.715-10.58 2.206-11.77-1.509-1.187-9.336 3.49-11.278 4.66-.67.405.179 1.763-.368 2.329-.773.792-3.82 4.026-4.29 2.452-.633-2.103-.161-11.656.49-15.07.405-2.093 2.291-3.715 3.432-5.394 1.085-1.594 2.697-3.574 3.433-4.659.386-.575.622-1.244.98-1.839.368-.612.689-1.339 1.226-1.838 1.207-1.123 3.97-3.31 6.007-4.904a308 308 0 0 1 6.498-4.904c.877-.641 1.678-1.452 2.697-1.839 1.594-.613 4.696-1.33 6.865-1.839 2.028-.48 4.847-.82 6.13-1.226.641-.207 1.122-.754 1.594-1.226 1.225-1.225 4.111-5.092 5.761-6.13 1.18-.744 3.593-.386 4.169-.122.565.264-.68 1.311-.736 1.717-.038.273.245.98.368.735.424-.877 1.48-3.998 2.206-6.007.962-2.66 2.103-7.11 3.556-9.93 1.32-2.574 3.29-4.772 5.149-6.988 4.102-4.885 15.437-19.2 19.482-22.302 1.594-1.226 3.81 1.923 4.782 3.677 1.244 2.245 1.508 8.073 2.697 9.808.839 1.226 3.168.82 4.413.613 1.179-.189 2.084-1.16 3.065-1.839 1.188-.82 2.678-2.065 4.045-3.065 1.387-1.018 3.348-2.367 4.291-3.065.472-.349.887-.754 1.349-1.103.698-.528 1.8-1.509 2.82-2.084 1.716-.98 5.016-2.48 7.477-3.8 3.17-1.698 10.072-4.48 11.524-6.375 1.17-1.528-2.461-3.14-2.82-5.027-.367-1.961.104-5.356.614-6.742.34-.915 1.697-.981 2.451-1.594 1.085-.877 2.471-2.763 4.046-3.678 3.574-2.084 13.259-6.846 17.408-8.826 2.433-1.16 4.989-2.047 7.478-3.065 2.49-1.019 5.64-2.245 7.479-3.065 1.216-.538 2.32-1.34 3.555-1.839 1.509-.613 4.008-1.367 5.516-1.839 1.17-.368 2.349-.735 3.556-.98 4.611-.944 18.587-4.065 24.141-4.66 3.065-.33 6.8.736 9.195 1.104 1.735.264 3.536.406 5.148 1.103 2.367 1.019 7.564 4.065 9.072 5.027.208.132 0 .49 0 .735 0 .425.5 1.48 0 1.84-.839.593-3.32 1.253-5.026 1.716-1.754.471-3.668.773-5.517 1.103-2.169.387-5.101.368-7.478 1.226-2.98 1.084-7.346 2.885-10.42 5.271-3.291 2.556-7.252 7.601-9.317 10.053-1.198 1.424-2.047 3.451-3.065 4.658-.858 1.019-4.29 2.056-3.065 2.575 1.896.792 10.515 1.631 14.457 2.207 3.055.443 6.535.67 9.194 1.226 2.301.48 4.762 1.433 6.743 2.084a126 126 0 0 1 5.149 1.839c.839.32 1.782.509 2.451 1.103 4.904 4.366 22.265 20.567 26.962 25.122.603.585.735 1.528 1.225 2.207.736 1.018 2.49 3.15 3.188 3.923.273.301.764.396.98.735.595.915 1.84 3.367 2.575 4.781.632 1.217 1.34 2.405 1.839 3.678.613 1.556 1.32 3.735 1.839 5.64.613 2.244 1.292 5.554 1.839 7.845.471 1.962 1.414 3.867 1.47 5.885.208 7.846 0 33.741-.244 41.172-.038 1.217-.717 2.367-1.226 3.433-.5 1.047-1.245 1.952-1.84 2.942-.612 1.019-1.291 2.094-1.838 3.188-.613 1.226-1.103 2.838-1.839 4.168-2.065 3.696-8.11 14.796-10.543 18.02-.858 1.133-2.942.51-4.045 1.35-1.104.839-1.943 3.12-2.575 3.677-.32.283-.82-.226-1.226-.368-.717-.245-1.98-1.197-3.065-1.103-1.122.104-2.508 1.037-3.677 1.716-1.16.67-2.047 1.849-3.31 2.33-1.82.698-5.31 1.509-7.601 1.839-2.028.292-4.102.367-6.13.122-2.225-.264-4.847-1.056-7.233-1.716-2.433-.68-4.96-1.405-7.356-2.33-2.49-.961-5.148-2.31-7.6-3.432-2.377-1.094-5.357-2.49-7.11-3.31-1.142-.528-2.5-.745-3.433-1.594-2.292-2.084-10.053-9.09-10.298-10.91s5.894-.18 8.827 0c4.347.264 14.05 2.904 17.276 1.593 2.99-1.207 2.386-6.233 2.084-9.44-.35-3.715-1.632-10.373-4.168-12.862-2.528-2.49-8.676-2.047-11.024-2.084-1.188-.02-2.33 1.226-3.065 1.839-.585.49-.943 1.225-1.349 1.838-.396.595-.679 1.264-1.103 1.84-.51.697-1.122 1.763-1.961 2.329-1.085.735-3.103 1.244-4.536 2.084-1.773 1.037-5.489 1.782-6.13 4.168-.877 3.263-.283 12.042.858 15.437.83 2.452 4.272 2.99 6.007 4.904 1.754 1.942 3.216 4.375 4.536 6.742 1.754 3.14 4.8 8.978 6.007 12.128.82 2.131 1.028 4.47 1.226 6.742.208 2.367.01 4.989 0 7.479-.038 8.638-.038 36.25-.245 44.36-.038 1.47-.085 4.007-.98 4.29-.897.283-3.952-.933-4.414-2.574-1.104-3.904-2.084-14.212-2.207-20.832-.113-6.309 1.49-14.211 1.471-18.87-.01-3.074-.82-6.148-1.593-9.071-.774-2.896-2.565-5.498-3.065-8.46-.547-3.253.349-8.58-.245-11.033-.387-1.603-2.188-3.678-3.31-3.678-1.123 0-3.122 2.207-3.433 3.678-.302 1.471 1.348 3.735 1.594 5.15.188 1.084.122 2.234-.123 3.31-.405 1.82-1.471 5.393-2.33 7.6-.763 1.961-1.876 3.96-2.819 5.64-.858 1.517-2.923 2.715-2.82 4.413.104 1.697 2.537 4.554 3.433 5.761.49.651 2.065.66 1.962 1.472-.246 1.838-2.97 6.205-3.433 9.562-.698 5.064.066 15.154-.736 20.831-.64 4.564-3.376 11.024-4.045 13.23 0 .01.028.02.028.01m1.716-34.439c-.405-2.424-3.866-5.696-5.271-5.149-1.415.556-3.055 5.45-3.187 8.459-.142 3.291 1.33 9.902 2.329 11.27.943 1.291 3.055-1.595 3.678-3.066 1.018-2.433 2.923-8.732 2.451-11.514m37.495-56.61c0-1.084-2.386-3.555-3.555-3.678-1.16-.122-3.433 1.858-3.433 2.943s2.273 3.432 3.433 3.555c1.17.123 3.555-1.735 3.555-2.82m14.834-36.4c-.16 4.903-2.688 21.416-1.971 24.763.537 2.547 4.555-2.782 6.252-4.658s3.565-4.083 3.923-6.62c.755-5.357.717-20.634.613-25.49-.028-1.292-.726-2.49-1.226-3.678-.509-1.207-1.226-2.593-1.839-3.555-.518-.811-1.292-1.415-1.839-2.207-.82-1.188-2.046-3.291-3.064-4.904-1.01-1.603-2.415-3.866-3.065-4.78-.217-.312-.538-.538-.858-.736-.51-.311-1.396-.943-2.207-1.104-2.509-.49-11.6-2.433-12.863-1.838-1.264.594 4.13 4.168 5.272 5.394.575.613 1.14 1.348 1.593 1.961.406.547.783 1.113 1.104 1.716 1.508 2.858 6.44 11.92 7.968 15.438.773 1.763.858 3.923 1.226 5.639.33 1.556 1.037 3.074.98 4.659M32.607 177.36c-.207-.49-2.046.122-2.206.735s.858 3.065 1.225 2.943c.368-.123 1.189-3.188.981-3.678m76.838-54.78c3.451-1.047 8.308-1.736 10.41-2.943 1.396-.801 1.68-3.329 2.207-4.29.283-.52 1.51-1.217.981-1.472-.754-.367-3.678-.98-5.516-.735-2.924.387-9.327 1.754-12.005 3.065-1.877.914-3.027 3.47-4.046 4.78-.764.972-1.631 2.226-2.084 3.066-.32.603-1.292 2.065-.613 1.961 1.679-.245 7.158-2.367 10.666-3.432"/><path fill-rule="nonzero" d="M128.315 65.377c-9.723 9.534-16.494 1.867-16.918 1.697-4.31-1.179-5.375-2.603-4.065-55.742.02-.915.265-10.788 1.585-11.326 1.48-.603 24.094 45.133 24.914 51.886l.736 7.6z"/></svg>