<svg xmlns="http://www.w3.org/2000/svg" xml:space="preserve" fill-rule="evenodd" stroke-linejoin="round" stroke-miterlimit="2" clip-rule="evenodd" viewBox="0 0 300 300"><path fill-rule="nonzero" d="M159.89 297.774c-.16-3.344-.328-14.55-.974-20.03-.515-4.366-1.5-9.472-2.914-12.873-1.2-2.886-4.347-5.34-5.584-7.523-.965-1.705-1.311-3.785-1.817-5.584-.487-1.724-.853-3.56-1.218-5.218-.347-1.574-.319-3.26-.975-4.732-.712-1.592-2.004-3.372-3.279-4.853-1.396-1.62-3.785-3.841-5.096-4.853-.806-.618-1.846-.843-2.792-1.218a68 68 0 0 0-3.401-1.218c-1.537-.506-4.17-1.208-5.827-1.817-1.415-.516-2.774-1.171-4.132-1.818-1.462-.684-3.654-1.274-4.61-2.305-.908-.993-1.33-2.557-1.096-3.888.244-1.396 1.78-3.297 2.549-4.497.609-.946 1.536-1.864 2.06-2.67.441-.684.778-1.433 1.097-2.183.403-.946 1.18-2.276 1.34-3.522.487-3.907 1.03-13.417 1.574-19.91.534-6.36 1.17-15.336 1.695-19.065.169-1.18.975-2.183 1.453-3.279.543-1.255 1.208-3.082 1.817-4.253.506-.984 1.03-2.005 1.818-2.792 3.663-3.645 16.507-15.58 20.152-19.066.6-.571 1.152-1.227 1.696-1.817.524-.562.955-1.237 1.574-1.696.993-.73 3.84-1.05 4.375-2.67.628-1.902.496-6.043-.61-8.741-1.151-2.81-4.496-7.083-6.314-8.132-1.433-.825-3.054 1.255-4.61 1.817-1.676.61-3.765 1.35-5.461 1.818-1.555.421-3.251.337-4.731.974-1.602.693-3.195 2.174-4.853 3.157-1.884 1.115-4.413 2.305-6.437 3.523-1.958 1.171-4 2.258-5.705 3.766-2.98 2.633-9.613 9.388-12.142 12.02a27.3 27.3 0 0 0-3.036 3.767c-1.012 1.518-2.23 3.925-3.035 5.34-.6 1.059-1.209 2.108-1.818 3.157-1.096 1.884-3.466 5.266-4.731 8.133-1.48 3.363-3.101 8.3-4.132 12.02-.937 3.382-1.415 7.186-2.061 10.324-.58 2.839-1.274 5.668-1.818 8.498-.543 2.82-.665 5.93-1.452 8.497-.75 2.445-2.06 6.68-3.279 6.924-1.218.243-2.942-3.804-4.01-5.462-.927-1.434-1.536-4.048-2.426-4.497-.89-.45-2.024 1.208-2.914 1.817-.834.572-2.042 2.202-2.426 1.818s-.029-2.764.121-4.132c.281-2.548 1.977-7.748 1.574-11.167-.403-3.364-1.827-7.327-4.01-9.35-2.182-2.024-6.052-1.94-9.106-2.792-4.553-1.275-14.006-3.785-18.213-4.854-2.333-.59-5.49-1.086-7.045-1.573-.853-.263-1.715-.872-2.305-1.34-.497-.394-1.846-1.359-1.218-1.452 1.92-.281 9.575-.281 12.75-.244 2.109.028 4.208.618 6.316.487 3.457-.225 9.678-.918 14.446-1.817 4.938-.928 12.32-2.652 15.178-3.767 1.087-.421 1.414-2.145 1.94-2.913.393-.572.88-1.087 1.217-1.696 1.62-2.876 6.558-12.142 8.498-15.543.955-1.677 2.08-3.25 3.157-4.853 1.237-1.846 2.96-4.413 4.253-6.193 1.115-1.536 4.638-2.951 3.523-4.487-4.731-6.512-25.661-27.826-31.929-34.6-1.883-2.042-5.668-4.918-5.706-6.07-.037-1.153 3.645-.975 5.462-.853 1.818.122 4.245 1.134 5.462 1.574.666.243 1.218.712 1.818 1.096.609.384 1.265.74 1.818 1.218.646.571 1.274 1.565 2.06 2.183 2.23 1.743 8.901 6.511 11.29 8.254 1.012.73 2.024 1.499 3.036 2.183.993.674 2.23 1.414 3.035 1.94.61.393 1.209.852 1.818 1.217.59.356 1.236.609 1.817.974 1.115.694 3.326 1.977 4.853 3.158 1.621 1.255 3.598 3.185 4.853 4.375.937.89 1.387 2.932 2.67 2.792 1.48-.16 4.207-2.473 6.193-3.766 1.949-1.275 4.15-3.158 5.706-4.01 1.115-.61 2.436-.712 3.644-1.096 1.218-.385 2.652-.815 3.645-1.218.806-.328 1.518-.853 2.305-1.218 1.096-.506 2.82-1.237 4.253-1.818 1.499-.609 3.195-1.115 4.731-1.817 2.858-1.312 10.203-3.682 12.386-6.071 1.864-2.033.571-5.5.73-8.254.16-2.755.31-6.4.254-8.264-.029-.993.159-2.632-.61-2.913-.768-.281-2.754.815-4.01 1.218-1.18.384-2.445 1.78-3.522 1.218-1.068-.563-3.213-2.82-2.914-4.61 1.096-6.511 7.701-27.797 9.463-34.477.487-1.836.6-3.757 1.096-5.584 1.218-4.516 4.956-17.304 6.193-21.492.365-1.227.815-2.427 1.218-3.645.403-1.236.75-2.65 1.218-3.766.421-1.021 1.208-3.953 1.574-2.913 1.133 3.26 4.047 17.36 5.218 22.457.618 2.707 1.33 5.846 1.818 8.132.393 1.855.721 3.729 1.096 5.584a1632 1632 0 0 0 1.817 8.74c.6 2.877 1.33 6.596 1.818 8.62.29 1.2.609 2.408 1.096 3.523s1.218 2.098 1.818 3.157c1.414 2.492 6.52 9.481 6.68 11.786.14 2.024-4.357.562-5.715 2.061-2.165 2.39-6.137 8.929-7.29 12.264-.843 2.445-1.62 6.427.366 7.767 1.986 1.33 7.692.103 11.533.243 5.425.206 15.946.853 21.005.975 3.12.074 7.289.543 9.35-.244 1.686-.647 2.099-2.942 3.035-4.488 1.012-1.677 2.043-3.71 3.036-5.584 1.518-2.848 4.76-9.106 6.071-11.533.562-1.04 1.209-2.145 1.818-3.035a25 25 0 0 1 1.817-2.305c2.22-2.548 9.528-11.598 11.533-12.994 1.265-.881.712 3.082.487 4.61-.365 2.491-1.733 6.895-2.67 10.324-1.218 4.45-3.663 12.929-4.61 16.386-.402 1.452-.627 2.941-1.095 4.375-.488 1.499-1.762 3.157-1.818 4.61-.066 1.46.16 3.456 1.452 4.131 3.823 2.005 17.482 6.268 21.492 7.889.965.393 1.724 1.18 2.549 1.817 1.152.89 3.513 1.864 4.375 3.523 1.152 2.23 2.53 7.692 2.548 9.837.01 1.293-1.424 2.211-2.426 3.036-1.237 1.011-3.036 3.035-4.975 3.035-1.986 0-4.863-2.024-6.924-3.035-1.874-.919-3.888-2.23-5.462-3.036a52 52 0 0 0-4.01-1.818 92 92 0 0 0-4.853-1.817c-1.236-.422-2.51-.721-3.766-1.096-1.705-.506-4.272-1.35-6.436-1.94a200 200 0 0 0-7.767-1.939c-1.893-.422-3.926-.609-5.706-1.096-1.705-.469-3.232-1.565-4.975-1.818-3.84-.562-12.385-1.78-18.09-1.574-5.463.197-13.52.3-16.153 2.792s-.805 8.264.366 12.142c1.19 3.963 4.553 9.913 6.802 11.655 1.789 1.387 4.75-2.398 6.68-1.218 3.503 2.146 11.673 11.355 14.324 14.081.647.666 1.153 1.471 1.574 2.305.563 1.115 1.293 2.886 1.818 4.375.525 1.5.956 3.055 1.34 4.61.871 3.504 3.382 11.252 3.888 16.395.468 4.797-1.537 9.669-.853 14.447.825 5.771 4.488 15.683 5.828 20.152.674 2.249 2.53 4.366 2.183 6.68-.366 2.427-3.364 6.39-4.376 7.889-.374.562-1.133.73-1.695 1.096-1.556 1.012-5.106 3.298-7.645 4.975-3.233 2.145-9.5 6.146-11.768 7.888-.824.638-1.424 1.584-1.817 2.549-.562 1.396-.89 3.935-1.574 5.827-.787 2.164-1.78 5.565-3.157 7.167-1.228 1.424-3.458 1.8-5.097 2.427-1.527.59-3.101 1.171-4.731 1.34-2.39.243-7.064-.61-9.594.121-2.249.647-5.912 2.895-5.584 4.254.319 1.358 4.994 3.176 7.523 3.888 2.455.693 6.493-1.836 7.645.365 1.153 2.202-.421 9.931-.721 12.864-.169 1.611-1.368 3.148-1.087 4.74.403 2.305 2.755 7.12 3.523 9.107.365.927 1.274 2.164 1.096 2.792-.187.627-1.415.796-2.192.965-1.94.421-6.278 1.667-9.472 1.574-3.382-.103-9.004-1.809-10.803-2.183-.009 0 .02-.028.02-.038m12.264-60.344c1.171-.272 1.743-1.855 1.94-3.036.205-1.237-.375-3.344-.722-4.375-.234-.712-.946-1.18-1.34-1.818-.487-.787-.909-2.033-1.574-2.913-.702-.928-1.574-3.139-2.67-2.67s-3.55 3.25-3.888 5.462c-.347 2.286.44 6.698 1.818 8.254 1.377 1.555 5.04 1.424 6.436 1.096m24.162-18.822c.75-.384 3.101-1.359 4.497-2.305 1.968-1.33 6.82-3.476 7.29-5.706.468-2.22-3.486-6.164-4.498-7.645-.375-.543-.965-.955-1.574-1.218-.946-.402-2.698-1.217-4.131-1.217-1.518 0-3.617.815-4.975 1.217a21 21 0 0 0-3.158 1.218c-1.03.506-2.042 1.209-3.035 1.818-.974.6-2.192.927-2.914 1.818-1.096 1.34-4.431 3.934-3.644 6.192.993 2.83 7.757 8.741 9.593 10.803.478.534 1.012 1.536 1.453 1.574.45.037.843-.862 1.217-1.34.853-1.096 3.242-4.347 3.889-5.219zm-51.969 4.984c1.237-.019 5.219.609 7.402-.122 2.183-.73 4.76-2.408 5.705-4.253.956-1.846.59-4.9 0-6.802-.571-1.855-2.117-3.598-3.541-4.61-1.405-1.002-3.598-1.002-4.975-1.452-1.105-.356-2.164-.88-3.279-1.218-1.864-.562-5.687-3.794-7.889-2.183-2.351 1.724-5.79 9.51-6.192 12.508-.3 2.192 1.901 4.272 3.766 5.462 2.127 1.358 7.486 2.23 8.985 2.67z"/></svg>