<svg xmlns="http://www.w3.org/2000/svg" xml:space="preserve" fill-rule="evenodd" stroke-linejoin="round" stroke-miterlimit="2" clip-rule="evenodd" viewBox="0 0 300 300"><path fill-rule="nonzero" d="M143.98 295.791c.26-7.814-9.668-8.195-9.855-12.228-.12-2.73 1.854-5.83.466-8.187-5.262-8.95-2.095 3.409-7.6 12.35l-4.386 1.658-.83-2.608c-3.203-8.792 4.657-16.7-4.246-14.091-1.77.521-9.081 17.071-9.416 17.816-25.017-35.522-10.04-46.325-28.49-55.015-6.1-2.868-12.825-4.21-19.112-6.65-3.148-1.22-2.468-1.825-16.895-24.755 18.255-27.876 13.58-29.73 14.641-62.97 1.313-41.174 24.607 11.252 14.846 21.022-10.506 10.515-14.38 11.632-10.096 13.355 31.126 12.546 29.44-48.076 1.686-62.252-6.985-3.567 21.225-31.6 46.66-38.344 19.876-5.271 20.994-14.287 37.637-2.607 3.409 2.393 15.013 6.677 25.044 13.402 38.083 25.528 17.668 123.488 14.958 73.009-.792-14.78.856-29.682-.708-44.398-2.04-19.14-16.495 58.787 2.142 65.782 4.722 1.77 19.14 23.07 13.765 32.877-14.668 26.776-20.108 20.657-25.174 18.05-3.362 6.314-12.974 7.59-16.336 13.904-5.216 9.78 2.133 12.425-12.63 37.86-5.709 9.835-6.826 24.485-6.053 13.067zm-19.587-47.955c3.287-2.189 7.488-.019 10.329-1.667.912-.531.847-.81 1.9-.596 3.52.717-.885-1.174-1.956-4.62-1.09-3.483-.336-3.67-3.502-11.884-3.772-9.798-2.766-11.381-5.942-11.4-1.947-.018-2.3.252-2.971 1.78-1.276 2.933-1.733 2.737-2.17 5.848-2.217 15.554-.932 16.187-4.294 19.857-1.444 1.574 2.515 3.78 2.85 3.967 2.151 1.192 5.355-1.015 5.746-1.285zm-21.608-27.186c.82-3.68 5.886-2.617 6.1-3.921.718-4.499-.288-9.705-.446-10.534-.81-4.172-21.282-8.177-22.4-8.67-9.928-4.388-16.913 4.516-17.481 5.96-.848 2.151-2.151 10.887 2.04 13.476 6.677 4.126 19.195 3.95 22.576 5.486.708.326 8.289 3.772 9.62-1.788zm68.977-1.192c7.99-3.372 8.475-1.789 9.052-2.264.67-.568.596-1.75 1.276-2.319 3.577-1.024 4.294-.056 6.035-3.008.978-1.64.727-2.468-.419-4.089-5.727-8.121-6.78-7.06-9.118-9.48-.596-.215-.381-1.417-.978-1.621-.493-.168-.856.605-1.331.82-4.955 2.272-12.043-1.407-14.24-.83-1.025.28-5.803 4.666-8.308 5.58-9.137 3.324-12.75 3.603-9.37 12.703.224.605 1.975 5.308 5.719 5.811 7.99 1.053 19.064-.214 21.7-1.294zm-34.312-38.465-.475-7.237h8.075c.652 0 15.638 0 5.104-6.408-6.165-3.753-6.445-3.828-8.308-10.915-.167-.652-5.653-12.34 5.58-17.575.623-.289 4.116-1.919-3.67-7.842-.41-.307-6.054 4.359-6.054-3.567 0-1.341-.475-3.064.503-3.977 1.378-1.295 4.06-.307 5.439-1.602-.661-2.217.717-4.722.056-6.939-.261-.875-4.862-4.023-6.827-4.088-1.285-.037-1.136.326-15.433 4.377l3.083 4.983 3.679 3.8v32.048c0 2.552 0 30.558 2.366 31.815 6.352 3.371 7.516.149 6.882-6.892zm-22.203-22.074c-.354-13.02-2.682-12.89-1.602-22.082.708-5.96-1.323-5.272-3.372-7.33-1.22-1.22-.521-3.614-5.28-3.353-4.229.242.763 6.129.652 7.246-.438 4.49-7.982-.12-9.249 2.73-2.393 5.382-1.406 5.494-1.313 5.578.866.838 2.282.996 3.083 1.9 2.142 1.937 7.04.55 7.656 1.9 3.222 7.097-1.872 7.954-2.543 8.065-2.803.475-8.587 11.195-8.29 11.689 1.63 2.645 4.443 4.154 4.91 4.396 4.786 2.561 5.746-.754 10.402 2.189.932.586 3.465 2.99 4.545.95.913-1.714.485-12.788.438-13.896zm57.101-10.692c.242-1.127.466-2.3-.475-2.97-.978-.69.01-.913.028-2.124-.456-.028-.885.233-1.34.205-1.342-.093-8.42-7.488-10.32-2.72-.69 1.723-7.05-.102-7.293 3.474-.298 4.312 2.84 5.626 3.334 5.83 3.465 1.444 12.807 1.481 14.567.801 1.155-.447 1.322-1.425 1.509-2.505z"/><path fill-rule="nonzero" d="M214.492 179.456c-.708-.354 11.363-58.853 2.003-60.66-2.627-.512-1.845-22.277-1.78-24.215.867-24.327 8.43-22.566 8.43-30.623v-4.154h-12.35c-10.059 0-14.744.084-11.4-9.5 6.957-19.94-70.792 10.115-79.054-9.518-5.849-13.905-25.938 14.632-27.419 16.737-1.378 1.955-14.93 21.207-25.277 16.028-20.07-10.04-27.4 39.574-28.006 43.68-.735 4.956-.465 10.06-1.546 14.958-.959 4.35-4.954 8.15-4.507 12.583.903 8.885 9.118 33.548 8.307 31.107-.233-1.127-1.89-1.331-2.729-2.132-21.682-20.742-10.18-25.268-7.013-76.465.084-1.425 33.771-55.043 35.43-43.643 2.29 15.758 9.527-2.328 9.9-2.533 2.412-1.23 26.245-13.337 28.601-18.05l5.942-3.558c.466-1.257 1.23-.26 14.958-7.711 5.56-3.018 10.021-8.392 16.14-9.975 13.7-3.549-2.421 6.258-1.909 20.303.177 4.853 2.999-3.734 60.417-5.448 13.533-.4 37.748-30.092 68.855-26.339 3.083.373-69.907 38.242-51.643 45.59 6.389 2.57 48.989-8.14 54.717-3.912 3.455 2.552-44.91 18.227-44.64 51.057.149 18.627 9.5 10.534 32.523 13.533-23.34 19.167-28.751 17.146-32.532 46.996-4.052 31.992-12.434 27.075-14.483 25.873z"/></svg>