<svg xmlns="http://www.w3.org/2000/svg" xml:space="preserve" fill-rule="evenodd" stroke-linejoin="round" stroke-miterlimit="2" clip-rule="evenodd" viewBox="0 0 300 300"><path fill-rule="nonzero" d="M150.44 299.997c-.441-.572-1.895-2.438-2.664-3.507-.675-.948-1.406-2.13-1.932-2.898-.393-.572-.722-1.2-1.21-1.697-.665-.685-1.772-1.726-2.784-2.42-1.35-.928-3.883-2.213-5.317-3.141-1.135-.741-2.27-1.5-3.264-2.42-1.472-1.35-4.21-4.473-5.56-5.683-.742-.665-1.689-1.05-2.542-1.575-1.247-.769-3.292-2.035-4.96-3.02-1.717-1.003-3.949-1.706-5.318-3.02-1.36-1.303-1.95-3.225-2.898-4.838-.937-1.604-1.613-3.63-2.785-4.839-1.125-1.172-2.907-1.472-4.229-2.42-1.407-1.003-2.804-2.437-4.23-3.628-3.61-3.001-13.062-10.034-17.413-14.386-3.442-3.441-7.137-7.961-8.703-11.731-1.397-3.357-.74-8.355-.722-10.878.01-1.435.394-2.87.844-4.23.46-1.387 1.332-2.719 1.932-4.107.863-1.997 2.138-5.251 3.263-7.858 1.154-2.663 2.701-6.283 3.63-8.102.515-1.004 1.425-1.913 1.931-2.785.44-.77.694-1.632 1.088-2.42 1.35-2.72 5.486-10.84 7.014-13.907.741-1.481 1.51-3.366 2.176-4.473.488-.806 1.322-1.528 1.81-2.175.403-.535.778-1.107 1.088-1.698.44-.844.9-2.335 1.575-3.385 1.21-1.876 4.23-5.852 5.683-7.868 1.013-1.407 2.129-2.738 3.02-4.23 1.05-1.753 2.475-4.782 3.263-6.292.478-.928.984-2.119 1.453-2.785.347-.487.976-.731 1.332-1.21.788-1.05 2.279-3.432 3.385-5.082 1.079-1.613 2.42-3.61 3.264-4.839.59-.853 1.294-1.641 1.81-2.541.6-1.05 1.303-2.738 1.81-3.751.384-.779.768-1.557 1.21-2.298.524-.881 1.303-2.128 1.93-3.02a33 33 0 0 1 1.81-2.297c.338-.394.77-.684 1.089-1.088.478-.6 1.21-1.697 1.81-2.541s1.237-1.67 1.81-2.541c1.068-1.632 3.582-5.467 4.594-7.259.62-1.106.929-2.456 1.454-3.507.488-.975 1.219-1.81 1.697-2.785.647-1.331 1.285-3.563 2.176-5.195.881-1.632 2.175-4.07 3.141-4.595.891-.478 1.895.89 2.664 1.453.731.544 1.444 1.163 1.931 1.932.525.825.844 2.016 1.21 3.02.356.994.535 2.054.966 3.02.581 1.312 1.82 3.169 2.541 4.838a43 43 0 0 1 1.932 5.561c.497 1.866.666 3.798 1.088 5.683.478 2.176 1.21 5.186 1.81 7.38.534 1.95 1.303 4.276 1.81 5.805.375 1.135.778 2.27 1.21 3.385.524 1.37 1.34 3.207 1.931 4.839.628 1.735 1.332 3.864 1.81 5.56.431 1.51.685 3.077 1.088 4.596.487 1.81 1.21 4.332 1.81 6.283.562 1.828 1.247 3.77 1.81 5.439.515 1.538 1.097 3.048 1.575 4.595.506 1.632 1.153 3.46 1.453 5.195.3 1.707.038 3.489.366 5.195.44 2.335 1.576 6.705 2.298 8.825.478 1.378 1.453 2.54 2.053 3.872.629 1.388 1.21 2.954 1.698 4.474.562 1.753 1.735 4.276 1.697 6.048-.037 1.66-1.088 3.226-1.932 4.595-.844 1.36-2.372 2.616-3.141 3.63-.572.75-.929 1.64-1.454 2.419-1.003 1.49-3.526 5.139-4.595 6.526-.516.676-1.219 1.2-1.81 1.81-.6.62-1.322 1.191-1.81 1.932-.543.825-.825 2.091-1.453 3.02-1.003 1.49-3.226 4.191-4.595 5.926-1.191 1.51-2.916 2.692-3.63 4.473-1.406 3.508-4.228 13.448-4.838 16.57-.16.816.703 1.53 1.21 2.176.506.647 1.21 1.172 1.81 1.698.581.506 1.247.919 1.81 1.453 1.997 1.894 7.942 7.211 10.155 9.912 1.491 1.81 1.735 5.064 3.142 6.293 1.36 1.19 3.685 1.406 5.317 1.087s3.376-1.594 4.473-3.02c1.191-1.556 2.804-5.082 2.663-6.292-.14-1.2-2.438-.6-3.507-.965a23.5 23.5 0 0 1-2.898-1.21c-.647-.328-1.228-.779-1.81-1.21-.6-.44-1.247-.919-1.81-1.453-1.106-1.05-3.263-3.226-4.838-4.84-1.557-1.593-3.348-3.713-4.595-4.838-.863-.778-2.073-1.144-2.898-1.932s-2.57-1.753-2.054-2.785c.826-1.65 5.543-5.608 7.015-7.136.628-.657 1.275-1.313 1.81-2.054 1.388-1.913 4.998-7.24 6.527-9.434.881-1.256 1.725-2.541 2.663-3.75 1.247-1.614 3.029-4.136 4.839-5.928 2.24-2.222 7.314-4.942 8.58-7.38 1.125-2.166-.506-4.923-.966-7.258-.45-2.288-1.547-4.914-1.81-6.77-.206-1.435.394-2.908.244-4.352-.16-1.528-.788-3.226-1.21-4.839-.506-1.931-1.21-4.698-1.81-6.77a135 135 0 0 0-1.81-5.683c-.45-1.304-1.106-2.963-1.453-3.873-.197-.525-1.04-1.397-.6-1.575.44-.179 2.316.365 3.263.487.807.103 2.485.507 2.42.244-.056-.263-2.138-.91-2.785-1.81-1.613-2.26-5.44-8.89-6.893-11.731-.853-1.67-1.21-3.63-1.81-5.317-.581-1.623-1.322-3.554-1.81-4.84-.365-.965-.628-1.978-1.087-2.897-.47-.928-1.266-1.706-1.698-2.663-1.172-2.579-4.173-9.94-5.317-12.82-.581-1.471-1.116-3.122-1.575-4.472-.413-1.21-.807-2.438-1.21-3.63a221 221 0 0 0-1.21-3.507c-.506-1.434-1.256-3.366-1.81-5.082-.6-1.876-1.331-4.473-1.81-6.17-.375-1.332-.759-2.655-1.087-3.996-.47-1.875-1.876-5.945-1.698-7.258.132-.938 2.017-1.153 2.786-.6 1.069.769 2.494 3.413 3.629 5.195 1.21 1.895 2.822 4.717 3.629 6.17.46.817.806 1.876 1.21 2.542.328.535.919.89 1.21 1.454 1.668 3.188 7.21 14.17 8.824 17.658.468 1.022.543 2.184.844 3.263.318 1.144.515 2.504 1.087 3.629.844 1.67 2.701 4.332 3.995 6.405 1.257 2.016 2.982 4.492 3.751 6.048.497 1.004.47 2.204.844 3.264.44 1.247 1.21 3 1.81 4.23.535 1.087 1.304 2.334 1.81 3.14.366.591.816 1.126 1.21 1.698.403.581.825 1.19 1.21 1.81.459.74 1.022 1.791 1.575 2.663 1.125 1.772 4.023 6.311 5.195 7.98.525.75 1.322 1.426 1.81 2.054.412.535.74 1.125 1.088 1.697.478.807 1.237 2.073 1.81 3.142.6 1.125 1.21 2.42 1.81 3.63s1.21 2.418 1.81 3.628 1.19 2.541 1.81 3.63c.58 1.003 1.425 2.09 1.93 2.897.395.628.77 1.266 1.089 1.932.44.928 1.069 2.644 1.575 3.629.413.806 1.06 1.482 1.454 2.297.506 1.05.91 2.73 1.575 3.995.891 1.698 2.56 4.398 3.751 6.17 1.041 1.557 2.673 2.748 3.385 4.474.723 1.753.488 4.06.966 6.048.488 2.017 1.426 4.858 1.932 6.049.197.469.788.675 1.088 1.088.422.581 1.36 1.481 1.453 2.42.104.984-.13 2.55-.853 3.506-2.316 3.067-8.562 10.044-13.063 14.873-4.98 5.336-12.669 13.344-16.805 17.17-2.41 2.232-5.645 4.07-7.98 5.805-2.035 1.51-4.314 3.264-6.048 4.595-1.454 1.116-2.964 2.176-4.352 3.386-3.488 3.047-12.575 11.393-16.57 14.882-2.391 2.09-5.964 4.876-7.38 6.048-.375.31-.713.657-1.088.966-1.51 1.266-6.658 5.533-7.98 6.649-.019.01.047.066.037.047m-25.395-35.307c.947-1.228 4.032-5.645 5.683-7.38 1.19-1.257 2.804-2.035 4.23-3.02 1.453-1.003 3.469-2.335 4.472-3.02.525-.355 1.154-.609 1.576-1.087.862-.966 2.747-2.935 3.629-4.717.91-1.838 1.81-5.448 1.81-6.292 0-.722-1.285.806-1.81 1.21-.478.365-.835.872-1.332 1.21-.684.468-1.941.918-2.785 1.575-1.697 1.312-5.298 3.816-7.38 6.292-3.385 4.032-11.59 15.351-12.941 17.892-.863 1.623 4.032-2.222 4.839-2.663zm19.233-29.746c-.243-.703-.965-2.84-1.453-4.229-.478-1.369-1.088-3.216-1.454-4.107-.178-.432-.469-.816-.722-1.21-1.106-1.772-4.698-7.699-5.926-9.434-.338-.478-1.022-.572-1.454-.966-.628-.562-2.016-1.753-2.297-2.419-.216-.516.422-1.21.6-1.575.112-.235.666-.413.487-.6-.318-.338-1.725-.826-2.419-1.454-1.05-.947-2.682-2.823-3.873-4.23-1.144-1.36-2.729-2.531-3.263-4.229-.647-2.035-.891-5.326-.6-7.98.328-2.926 1.772-7.193 2.54-9.556.517-1.594 1.51-3.179 2.055-4.595.487-1.266.853-2.57 1.21-3.873.402-1.472.806-3.45 1.209-4.96.366-1.379.835-2.73 1.21-4.108.403-1.472.834-3.141 1.21-4.717.403-1.716.909-4.313 1.21-5.56.158-.657.44-1.426.6-1.932.112-.366.215-.741.365-1.088.366-.826 1.35-2.523 1.81-3.873 1.088-3.226 3.77-12.144 4.717-15.473.422-1.463.6-2.992.966-4.473a214 214 0 0 1 1.81-6.893c.553-1.95 1.303-4.276 1.81-5.805.374-1.134.806-2.522 1.21-3.385.309-.656.909-1.144 1.209-1.81.628-1.388 2.1-4.23 2.541-6.527.507-2.635 1.313-9.433.488-9.312s-4.23 8.018-5.44 10.035c-.468.778-1.275 1.312-1.81 2.053-.6.844-1.303 1.998-1.809 3.02a19.6 19.6 0 0 0-1.21 3.141c-.403 1.37-.816 3.386-1.21 5.083-.487 2.082-.993 4.96-1.697 7.38-1.21 4.154-4.435 14.273-5.56 17.536-.263.75-.882 1.332-1.21 2.054-.525 1.153-1.304 3.226-1.932 4.839-.619 1.603-1.322 3.263-1.81 4.839-.46 1.5-.703 3.066-1.088 4.595a245 245 0 0 1-1.81 6.77c-.562 1.95-1.322 4.276-1.81 5.805-.356 1.135-.665 2.279-1.087 3.385-.479 1.266-1.191 2.823-1.81 4.23-.62 1.406-1.407 3.038-1.932 4.229-.422.956-.806 1.932-1.21 2.897-.506 1.21-1.294 2.87-1.81 4.352-.562 1.613-1.913 3.497-1.575 5.317.488 2.616 3.348 8.168 4.473 10.4.572 1.125 1.435 2.09 2.298 3.019 1.416 1.51 4.398 3.78 6.17 6.049 2.054 2.644 4.848 7.736 6.161 9.79.544.862.985 1.81 1.697 2.541.732.75 1.867 1.182 2.664 1.932 1.575 1.472 5.345 6.048 6.77 6.892.732.432 1.51-1.51 1.81-1.81 0 0-.019.01-.019 0"/><path fill-rule="nonzero" d="M185.746 290.328c.544-.797 1.482-4.06 3.263-4.838 2.645-1.154 8.403-1.51 12.576-2.054 4.135-.544 8.843-.685 12.453-1.21 3.095-.45 6.386-1.406 9.19-1.932 2.523-.468 5.449.179 7.615-1.21 3.02-1.931 8.608-8.383 10.522-10.399.45-.469.675-1.116.965-1.697 1.013-1.998 3.91-6.874 5.083-10.278 1.116-3.264 1.613-6.724 1.932-10.156.562-6.086 1.013-18.746 1.453-26.36.375-6.452.77-15.68 1.21-19.346.122-1.004.975-1.773 1.454-2.664.75-1.388 1.96-3.816 3.02-5.682 1.124-1.98 2.822-4.68 3.75-6.17.582-.939 1.37-1.773 1.81-2.786.488-1.107 1.482-2.588 1.088-3.873-.628-2.035-3.226-5.964-4.839-8.346-1.435-2.11-3.826-4.736-4.839-5.927-.366-.431-.881-.74-1.21-1.21-.403-.58-.853-1.51-1.21-2.297-.402-.91-.806-2.157-1.209-3.141-.384-.938-1.369-1.782-1.21-2.785.366-2.28 2.58-8.6 3.386-10.878.347-.985.937-1.876 1.453-2.786a61 61 0 0 1 1.81-3.02c.563-.871 1.285-1.96 1.81-2.54.366-.413.9-.629 1.332-.966.543-.422 1.331-1.004 1.931-1.576 1.05-.984 2.889-2.916 4.352-4.351 2.072-2.035 8.505-6.142 8.102-7.858-.403-1.717-6.94-2.795-10.522-2.42-4.773.507-14.244 4.004-18.136 5.44-1.904.693-3.601 1.893-5.195 3.14s-3.02 3.986-4.351 4.352c-1.332.366-2.767-1.06-3.63-2.176-.91-1.172-2.081-3.141-1.81-4.839.563-3.526 3.63-13.1 5.196-16.326.76-1.557 3.263-2.316 4.229-3.02.535-.393 1.05-.806 1.575-1.21.526-.403 1.126-.721 1.576-1.209 2.222-2.42 9.471-10.56 11.731-13.297.77-.929 1.21-2.157 1.81-3.142.581-.947 1.304-1.8 1.81-2.785.581-1.135 1.35-2.588 1.697-3.995.47-1.875.966-5.139 1.088-7.258a22.5 22.5 0 0 0-.366-5.44c-.422-2.26-2.278-5.438-2.175-8.101s1.753-6.208 2.785-7.859c.694-1.116 2.476-1.425 3.385-2.053.732-.507 1.763-2.532 2.054-1.698.366 1.05.29 5.327.122 7.98-.244 3.705-1.013 9.594-1.576 14.273-.553 4.605-1.247 11.066-1.81 13.785-.206.976-1.144 1.641-1.575 2.542-.563 1.172-1.21 3.038-1.81 4.473-.581 1.378-.834 2.972-1.81 4.107-2.663 3.104-10.925 10.494-14.15 14.507-2.27 2.823-4.633 7.54-5.196 9.556-.28 1.003 1.21 2.316 1.81 2.541s1.163-.881 1.81-1.21c.788-.403 1.941-.787 2.898-1.21 1.069-.459 2.25-1.303 3.507-1.575 4.314-.928 17.19-2.822 22.366-3.994 2.991-.676 6.948-2.335 8.702-3.02.656-.253 1.257-.647 1.81-1.088.6-.478 1.06-1.397 1.81-1.81 1.106-.6 3.77-2.475 4.839-1.81 1.069.666 2.588 4.07 1.575 5.805-2.42 4.154-13.241 15.633-16.083 19.102-.412.507-.572 1.182-.965 1.698-.6.787-1.82 2.072-2.664 3.02-.797.89-1.528 1.856-2.42 2.662-1.284 1.173-4.107 2.401-5.316 4.352-1.613 2.597-3.93 8.28-4.351 11.243-.32 2.232 1.331 5.14 1.81 6.527.234.666.75 1.21 1.087 1.81.338.59.479 1.322.966 1.81.947.947 3.292 2.429 4.717 3.873 1.632 1.65 4.614 3.46 5.083 6.048.61 3.33-.788 10.944-1.454 13.907-.337 1.51-1.82 2.926-2.541 3.873-.516.675-1.294 1.135-1.81 1.81-.6.788-1.228 1.913-1.81 2.898-.806 1.369-2.635 3.31-3.02 5.317-1.069 5.598-2.213 18.868-3.385 28.292-1.35 10.84-3.77 30.374-4.717 36.76-.093.61-.6 1.079-.966 1.576-.562.769-1.64 1.988-2.419 3.02-1.088 1.453-2.813 4.032-4.107 5.682-1.144 1.463-2.701 3.32-3.63 4.23-.543.534-1.303.806-1.931 1.209-.61.394-1.21.844-1.81 1.21-.59.356-1.144.825-1.81.966-6.283 1.331-27.655 6.104-35.916 7.014-4.558.497-11.385-1.322-13.663-1.575-.02 0 0 .056.01.046M75.475 263.115c-1.538-.77-6.892-3.526-9.19-4.595-1.49-.694-3.085-1.21-4.595-1.81-1.491-.6-3.263-1.21-4.473-1.81-.994-.497-1.847-1.228-2.785-1.81-.966-.6-2.148-1.022-3.02-1.81-4.313-3.91-18.84-17.817-22.853-21.643-.431-.413-.863-.844-1.21-1.332-.525-.722-1.256-2.035-1.931-3.02-.685-1.003-1.576-1.931-2.176-3.019-1.088-1.95-3.02-6.002-4.351-8.702-1.229-2.485-2.823-5.618-3.63-7.493-.515-1.21-.815-2.495-1.209-3.751-.403-1.294-.788-2.673-1.21-3.995-.506-1.594-1.725-3.61-1.81-5.56-.3-6.978-.3-29.38 0-36.273.075-1.8 1.304-3.648 1.81-5.083.413-1.163.807-2.457 1.21-3.507.366-.947.74-1.885 1.21-2.785.6-1.173 1.613-2.86 2.42-4.23.787-1.34 1.696-3.132 2.419-3.994.487-.582 1.34-.732 1.931-1.21.844-.685 2.138-1.894 3.142-2.898 1.088-1.088 2.335-2.72 3.385-3.629.863-.74 1.922-1.22 2.898-1.81.984-.6 2.016-1.21 3.02-1.81 1.003-.6 2.016-1.21 3.019-1.81s1.997-1.303 3.02-1.81c1.003-.496 2.016-1.19 3.141-1.21 1.228-.018 4.473-.346 4.23 1.089-.385 2.26-4.361 8.299-6.528 12.453-2.616 5.036-7.36 14.104-9.19 17.77-.684 1.37-1.256 2.804-1.81 4.23-.6 1.557-1.21 3.676-1.81 5.082-.506 1.173-1.322 2.204-1.81 3.386-.6 1.472-1.303 3.61-1.809 5.439-.506 1.828-.807 3.985-1.21 5.56-.337 1.314-.89 2.56-1.21 3.874-.44 1.856-1.21 4.98-1.453 7.258a31 31 0 0 0 0 6.405c.244 2.354.928 5.317 1.454 7.736.497 2.27 1.228 5.12 1.697 6.77.3 1.07.703 2.336 1.088 3.142.3.629.984 1.041 1.21 1.698.346.994.506 3.01.853 4.238.3 1.079.825 2.232 1.21 3.142.328.778.637 1.585 1.087 2.297.525.826 1.463 1.716 2.054 2.664.703 1.125 1.332 2.804 2.176 4.107.881 1.37 2.034 2.785 3.141 4.107 1.407 1.67 3.582 4.155 5.317 5.927 1.613 1.65 3.77 3.685 5.083 4.717.825.647 2.1 1.05 2.785 1.453.469.282.853.694 1.332.966a367 367 0 0 0 9.19 5.083c3.122 1.65 6.339 3.292 9.555 4.839 3.367 1.613 7.521 3.61 10.644 4.839 2.635 1.04 9.012 2.175 8.102 2.541s-11.281-.3-13.541-.366c-.01 0-.01-.028-.019-.037"/><path fill-rule="nonzero" d="M58.06 243.412c-.374-.318-1.612-1.115-2.297-1.81-1.153-1.172-3.629-4.191-4.595-5.195-.337-.356-.825-.534-1.21-.844a39 39 0 0 1-2.053-1.81c-.59-.571-1.144-1.2-1.697-1.81-.929-1.03-2.795-2.738-3.873-4.35-1.229-1.83-2.345-4.427-3.507-6.65-1.295-2.456-3.292-5.926-4.24-8.101-.684-1.576-1.434-3.236-1.453-4.961-.084-6.696.282-28.517.966-35.185.197-1.913 2.457-3.648 3.142-4.839.412-.722.44-1.65.966-2.297 2.616-3.226 11.61-13.907 14.75-17.049 1.06-1.06 2.823-1.21 4.108-1.81 1.228-.572 2.541-1.303 3.629-1.81.947-.44 2.035-.806 2.898-1.21.787-.365 1.519-.824 2.297-1.209a193 193 0 0 1 3.751-1.81c1.276-.6 2.551-1.275 3.873-1.81 1.35-.543 3.104-.478 4.23-1.453 2.175-1.894 7.155-7.943 8.824-9.912.487-.582.863-1.257 1.21-1.932a62 62 0 0 0 1.931-4.23c.629-1.528 1.67-3.206 1.81-4.96.281-3.423-.103-11.384-.122-15.595-.019-3.226-.197-7.061 0-9.678.16-2.053.554-4.098 1.21-6.048C93.855 81.358 97.691 72 98.9 68.96c.291-.74.544-1.594.966-2.175.403-.554 1.107-.91 1.576-1.332.422-.384.76-.863 1.21-1.21.74-.562 2.147-1.49 3.263-2.175 1.153-.704 2.504-1.229 3.629-2.054 1.51-1.106 4.107-3.563 5.439-4.595.788-.61 1.622-1.181 2.541-1.575 1.37-.582 3.826-1.37 5.683-1.932 1.791-.544 3.563-1.341 5.439-1.454 3.667-.225 11.047.188 16.57.122 6.752-.084 19.552-.319 23.941-.6.882-.056 1.66-.638 2.42-1.088 1.753-1.05 6.451-4.07 8.102-5.195.656-.45 1.256-1.003 1.81-1.575.6-.629 1.425-1.313 1.81-2.176.647-1.435.665-4.642 2.053-6.405 3.048-3.873 13.044-13.72 16.205-16.804.778-.76 1.706-1.529 2.785-1.698 4.07-.628 16.767-1.913 21.643-2.053 2.57-.075 5.074 1.612 7.615 1.21 3.282-.526 9.406-3.161 12.088-4.352 1.481-.656 3.104-2.12 3.994-2.785.479-.356.873-.825 1.332-1.21 1.37-1.172 5.56-6.386 6.893-5.805 1.331.582 1.228 6.527 1.087 9.312-.13 2.542-1.406 5.543-1.931 7.38-.347 1.229-.685 2.542-1.21 3.63-.507 1.05-1.229 1.978-1.932 2.897-.928 1.21-2.541 3.086-3.629 4.352-.947 1.106-2.11 2.457-2.898 3.263-.553.572-1.228 1.032-1.81 1.575-.6.563-1.21 1.21-1.81 1.81s-1.069 1.379-1.81 1.81c-.862.507-2.372.572-3.385 1.21-1.913 1.21-5.607 3.788-8.102 6.048-2.785 2.523-6.817 6.855-8.59 9.069-.975 1.219-1.613 2.728-2.053 4.229-1.191 4.032-4.173 14.45-5.083 19.955-.713 4.295-1.05 11.047-.366 13.063.488 1.444 2.973-.703 4.473-.966 2.682-.46 7.859-1.303 11.61-1.81 3.62-.487 8.777-.806 10.878-1.21.684-.13 1.172-.75 1.697-1.209 2.12-1.838 9.021-7.858 11-9.79.478-.469.975-2.466.844-1.81-.328 1.65-1.754 8.759-2.785 11.722-.76 2.185-2.56 4.858-3.385 6.049-.366.525-1.004.806-1.576 1.087-.872.422-2.335 1.332-3.629 1.454-2.335.225-6.94-.244-10.4-.122-3.966.14-10.503.506-13.42.966-1.48.234-2.981 1.125-4.106 1.81-1.004.61-1.491 2.297-2.664 2.297-1.556 0-5.739-1.125-6.648-2.297-.91-1.172 1.097-3.095 1.21-4.717.177-2.617 0-8.3-.123-11-.075-1.744-.703-3.451-.6-5.195.14-2.495.188-6.743 1.454-9.79 1.772-4.249 7.492-12.8 9.19-15.717.347-.591.562-1.257.966-1.81.44-.6 1.078-1.266 1.697-1.81.685-.6 1.604-1.22 2.42-1.81.825-.6 1.678-1.238 2.54-1.81 1.21-.806 3.114-2.053 4.718-3.02 1.669-1.003 3.91-2.212 5.317-3.019 1.05-.6 2.194-1.21 3.141-1.81.882-.562 1.763-1.116 2.542-1.81 1.247-1.106 3.432-3.226 4.96-4.839 1.473-1.556 3.348-3.732 4.23-4.838.44-.554.712-1.22 1.087-1.81.385-.6.882-1.163 1.21-1.81.403-.807 1.838-2.438 1.21-3.02s-3.367-.956-4.96-.487c-1.792.525-3.527 3.45-5.806 3.629-4.51.366-16.701-1.397-21.277-1.454-2.092-.028-4.192.441-6.17 1.088-1.98.647-4.07 1.632-5.684 2.785-1.556 1.107-3.235 2.354-3.994 4.108-.929 2.156-1.154 7.127-1.576 8.824-.131.534-.544.975-.966 1.332-1.19 1.003-4.37 2.86-6.17 4.716-1.876 1.932-3.836 5.196-5.083 6.893-.806 1.088-1.81 2.297-2.42 3.263-.496.797-.665 1.782-1.209 2.542-.91 1.266-2.204 4.2-4.23 5.082-3.347 1.454-10.877 3.367-15.838 3.63-4.68.243-9.94-1.473-13.907-2.054-3.3-.488-6.574-1.491-9.912-1.454-3.61.038-8.768 1.135-11.731 1.698-2.054.393-4.183.75-6.049 1.697-2.382 1.21-5.767 3.948-8.224 5.56-2.148 1.407-4.408 2.655-6.527 4.108-2.176 1.491-4.951 2.635-6.527 4.839-2.072 2.898-4.595 8.909-5.926 12.575-1.098 3.03-1.735 7.015-2.054 9.434-.225 1.679.103 3.386.122 5.083.037 3 .3 9.659.122 12.94-.122 2.29-.704 4.53-1.21 6.772-.506 2.231-1.21 5.035-1.81 6.648-.412 1.097-1.303 2.129-1.81 3.02-.431.75-.806 1.688-1.21 2.297-.328.497-.815.882-1.21 1.332-1.49 1.735-4.875 7.07-7.736 9.068-2.7 1.885-7.295 2.241-9.433 2.907-1.135.356-2.27.694-3.386 1.088-1.472.525-3.629 1.425-5.439 2.054-1.79.619-4.182.272-5.439 1.697-2.241 2.541-6.395 10.25-7.99 13.532-.928 1.913-1.087 4.192-1.575 6.17-.46 1.895-.89 3.789-1.331 5.683-.544 2.354-1.538 5.598-1.932 8.468-.544 3.985-1.454 10.756-1.332 15.473.113 4.323 1.51 10.015 2.054 12.82.262 1.368.806 2.86 1.21 3.994.337.957.731 1.894 1.21 2.785.524.966 1.312 2.016 1.931 3.02.619.994 1.332 2.213 1.81 3.02.366.6.656 1.256 1.088 1.81.469.6 1.163 1.18 1.697 1.81.685.806 1.697 2.015 2.42 3.019.693.966 1.406 2.232 1.931 3.02.385.58.844 1.106 1.21 1.697.403.647 1.21 1.49 1.21 2.175s-.497 1.679-1.21 1.932c-.722.263-2.626-.29-3.142-.366-.037-.01.066-.075.038-.094"/></svg>