<svg xmlns="http://www.w3.org/2000/svg" xml:space="preserve" fill-rule="evenodd" stroke-linejoin="round" stroke-miterlimit="2" clip-rule="evenodd" viewBox="0 0 300 300"><path fill-rule="nonzero" d="M151.902 299.38c-1.322-.957-6.403-4.294-7.921-5.757-.779-.75-.797-2.259-1.2-3-.3-.553-.929-.88-1.2-1.443-.703-1.481-2.382-4.838-3-7.444-.722-3.018-1.96-7.153-1.322-10.687.9-4.987 5.447-14.596 6.722-19.218.759-2.756.778-5.671.956-8.521.384-6.047 1.406-20.615 1.322-27.74-.057-5.034-.788-10.068-1.8-15.009-1.097-5.362-3.722-13.452-4.8-17.174-.506-1.734-1.097-3.9-1.678-5.165-.422-.91-1.228-1.575-1.8-2.4-.6-.863-1.06-1.95-1.8-2.766-1.519-1.678-5.26-5.737-7.322-7.321-1.453-1.116-3.665-1.425-5.043-2.166-1.163-.628-3.206-1.36-3.244-2.278-.037-.919 2.09-2.081 3-3.244 1.003-1.284 2.24-3.525 3-4.443.403-.488 1.115-.628 1.556-1.078.778-.797 2.156-2.428 3.122-3.722 1.36-1.819 3.628-5.025 5.043-7.21 1.247-1.912 2.72-4.508 3.478-5.886.422-.77 1.003-1.529 1.078-2.4.422-5.203.882-19.218 1.444-28.818.581-9.843 2.522-22.855 2.044-30.261-.319-4.988-3.76-11.606-4.922-14.165-.328-.722-1.35-.825-2.044-1.2-.74-.403-1.612-.788-2.4-1.2-.796-.422-2.4-.778-2.4-1.322s1.829-1.069 2.4-1.922c.826-1.219 1.079-4.322 2.522-5.4 1.444-1.078 4.05-1.134 6.122-1.078 8.203.225 34.546.984 43.114 2.4 3.384.563 7.809 4.444 8.287 6.122s-4.2 3.88-5.4 3.956c-1.2.084-1.012-2.438-1.8-3.478-.796-1.06-1.996-2.878-3-2.878-1.003 0-2.943 1.837-3 2.878-.056 1.04 1.688 2.465 2.644 3.365.91.853 3.225 1.266 3.122 2.044s-3.281 1.181-3.722 2.634c-.956 3.206-1.884 11.006-2.043 16.575-.16 5.587.618 12.637 1.078 16.92.318 2.963 1.247 5.822 1.678 8.766.525 3.544 1.528 9.703 1.443 12.487-.046 1.538-1.059 2.963-1.921 4.2s-2.353 1.997-3.244 3.244c-1.097 1.537-2.297 3.974-3.365 6-1.641 3.102-5.203 10.19-6.488 12.608-.356.666-1.04 1.181-1.2 1.922-.403 1.903-.778 6.328-1.2 9.487-.496 3.722-1.509 8.54-1.8 12.853-.3 4.509-.3 10.996 0 14.174.16 1.744 1.229 3.272 1.8 4.922 1.144 3.319 4.04 11.943 5.044 15.009.366 1.106.637 2.24.956 3.365.46 1.603 1.2 4.181 1.8 6.244.59 2.043 1.378 4.462 1.8 6.121.319 1.266.328 2.597.722 3.844 1.003 3.16 4.087 11.971 5.287 15.13.506 1.341 1.622 2.447 1.922 3.844.319 1.5.31 3.469 0 5.166-.319 1.762-1.425 4.003-1.922 5.4-.356 1.003-.684 2.015-1.078 3-.46 1.162-1.069 2.662-1.678 3.965-.76 1.622-1.912 3.843-2.878 5.765-1.64 3.263-5.484 10.912-6.965 13.81-.62 1.208-1.425 2.68-1.922 3.599-.347.647-.628 1.34-1.078 1.922-1.8 2.297-8.053 9.73-9.731 11.887-.234.3-.356.703-.356 1.078 0 .46.918 1.556.356 1.678-.797.178-4.303-.506-5.166-.6z"/><path fill-rule="nonzero" d="M76.727 291.814c0-3.581-7.894 5.39-36.252-26.165-3.375-3.028-11.343-31.733-11.53-43.245-.348-20.811 3.777-19.49 12.805-38.651.3-7.997-12.515-12.675-12.206-20.672 1.069-27.805 3.985-31.105 31.574-35.783 11.953-2.024 14.006-2.962 12.965-14.886-2.24-25.687-13.012-33.637-9-38.68 4.707-5.916 64.451-4.35 66.889-2.41 1.828 1.454 3.562 4.613-20.896 20.297-.722 26.595-.207 26.286-1.444 53.07l-.722 19.208 3.6 3.966c1.087 1.153 12.253 13.03 14.052 13.93 9.431 3.516 11.231 36.336 11.41 39.627 1.94 35.37-7.35 32.84-29.409 60.804-30.111 10.556-31.808 12.196-31.808 9.543zm42.392-60.523c.562-.58 5.484-18.936.844-34.826-4.003-13.706-19.218-28.387-22.33-19.715-2.579 7.2 8.52 17.212 15.13 33.167 2.119 5.119 1.406 5.25 3.169 22.209l3.196-.825zm-54.401-60.766c0-1.753 8.85-1.21 9.506-11.38.337-5.288-.122-10.004-.206-10.866-1.022-10.547-26.568-5.962-21.815 13.8.215.871 2.081 8.633 6.056 9.487 1.894.403 6.45-.104 6.45-1.041zm40.836-7.8c0-1.125-.131-2.653-1.519-2.868-1.322-.207-4.05-.525-4.35 1.387-.206 1.322-.525 4.05 1.388 4.35 1.05.169 2.484.328 3.487-.188.966-.487.994-1.753.994-2.68M80.336 87.194c0-2.288-2.775-4.331-4.378-3.778-1.219.422-3.684 3.89-1.256 5.053 1.5.731 5.625.515 5.625-1.275zM216.025 267.918c-12.469-1.603-21-27.993-22.209-28.443-1.003-.506-22.143-51.654-20.165-72.278 3.131-32.577 16.912-31.058 19.8-34.33 4.265-3.769 5.474-1.622 9.477-5.747.881-.909 1.275-5.371 8.662-5.774 60.336-3.29 50.998 21.44 58.836 42.626 6.609 17.859-39.149 99.662-46.799 94.965-14.024-8.606-11.7 1.978-11.024 2.578.29.263.347-.412 4.668 1.5 11.606 5.147-.796 4.96-1.2 4.912zm15.73-89.218c1.107-1.435 1.219-3.46 2.278-4.922.563-.778 1.857-.788 2.419-1.566 1.144-1.65 12.046-17.333 12.553-21.702.58-4.95-12.572-4.931-12.572-19.715v-7.087h-4.687c-2.072 0-4.097.778-6.019 1.547-2.325.928-4.33 2.568-6.665 3.497.244 2.774 1.519 5.39 1.762 8.165.844 9.693-12.543 7.753-12 12.609.273 2.372.854 2.08 11.044 18.618 5.616 9.121 4.847 18.74 11.887 10.565zM247.233 113.752c-1.416 1.022-35.164-1.247-34.283-5.137 3.9-17.23 1.397-17.4-5.325-33.674-1.003-2.437-2.26-1.819-2.4-4.556-.178-3.506 1.744-2.24 11.25-4.64.712-.179 1.218-.985 1.95-1.003.9-.029.74.918 11.146 1.49 20.502 1.125 22.602-2.025 26.455 4.884 2.006 3.6-2.747 5.681-9.506 13.687-1.978 2.344-2.493 2.044-2.765 4.022-.206 1.556-.14 1.453-1.884 19.565-.675.234-4.275-.685-4.247 1.519.028 2.137 2.25 1.237 3.365 1.078 1.322-.188 2.616-.882 3.938-.703 1.49.206 2.653 1.621 4.153 1.828zm-6.712-18.637c.037-1.125-.047-2.971-1.125-3.693-.638-.422-1.266.037-1.632.572-2.1 3.093.535 8.971 1.894 6.918.694-1.05.863-2.578.863-3.797M80.336 61.854c0-2.184-3.281-.769-3.59-6.084-.347-6.15 2.175-7.687 5.146-8.128 16.978-2.522 20.287 1.781 21.75 2.213 2.521.75 5.193.88 7.705 1.63-.075 1.698 2.128 4.838-4.443 9.863-3.384 2.587-5.606-1.378-17.259-.281-2.419.225-1.987 1.378-3.993 2.221-2.129.891-5.316-.365-5.316-1.443zM217.346 55.133c-2.278-1.922-2.4-2.522-1.2-8.166 5.166-2.043 10.331-4.078 15.497-6.121 1.134 0 13.059 0 14.137 1.265 1.35 1.584.328 11.015-5.006 11.943-5.906 1.022-5.644 2.307-12.965 2.644-.844.038-8.072.366-10.444-1.565zM167.389 40.836c-6.243-.356-16.452-2.756-18.852-3.122l-4.566-.843v-7.566c0-.58 0-6.309.863-7.227.515-.554 2.034-.891 5.212-4.875C150.956 16.068 159.589.16 163.18 0c1.837-.084 17.474 19.162 17.905 21.618.235 1.378 2.157 12.393-.843 17.409-1.49 2.503-11.812 1.865-12.853 1.8z"/></svg>