<?xml version="1.0" encoding="UTF-8" standalone="no"?>
<!DOCTYPE svg PUBLIC "-//W3C//DTD SVG 1.1//EN" "http://www.w3.org/Graphics/SVG/1.1/DTD/svg11.dtd">
<svg width="100%" height="100%" viewBox="0 0 300 300" version="1.1" xmlns="http://www.w3.org/2000/svg" xmlns:xlink="http://www.w3.org/1999/xlink" xml:space="preserve" xmlns:serif="http://www.serif.com/" style="fill-rule:evenodd;clip-rule:evenodd;stroke-linejoin:round;stroke-miterlimit:2;">
    <g transform="matrix(9.37916,0,0,9.37916,-0.441088,0.0106147)">
        <path d="M17.599,31.873C16.416,31.282 16.536,31.12 15.333,30.573C14.427,30.161 14.363,30.402 14.329,30.327C14.218,30.082 14.474,29.765 14.363,29.52C14.565,29.151 15.092,29.149 15.552,27.354C15.831,26.264 15.497,26.027 16.479,25.486C16.615,25.411 17.84,24.736 18.217,24.622C21.125,23.318 23.221,18.788 23.405,18.145C23.579,17.537 23.84,15.09 26.341,17.374C27.97,18.862 30.942,19.712 31.027,19.821C31.769,20.771 30.886,20.758 30.19,22.449C29.896,23.164 28.712,22.528 28.245,22.358L27.665,21.969C27.531,22.114 28.005,22.38 27.871,22.525C27.042,23.421 26.685,22.98 25.965,23.967C24.111,26.509 25.451,27.805 24.161,27.677C24.131,27.674 22.617,27.133 22.062,27.304C21.556,27.46 19.523,28.542 19.461,28.695C19.402,28.908 19.005,28.684 18.25,31.18C18.065,31.793 18.141,32.188 17.593,31.875L17.599,31.873ZM25.326,21.056C25.326,20.87 25.469,20.888 25.543,20.759C25.687,20.507 25.619,19.204 25.454,19.272C25.41,19.29 25.339,19.376 25.271,19.36C25.207,19.345 25.128,19.244 25.085,19.294C25.009,19.381 24.96,20.671 25.072,21.147C25.115,21.328 25.327,21.187 25.327,21.055L25.326,21.056ZM25.583,18.648C25.583,18.47 26.045,18.223 25.956,17.542C25.923,17.287 25.175,17.351 24.918,17.501C24.436,17.781 24.533,18.649 24.617,18.729C24.739,18.845 25.583,18.792 25.583,18.648Z" style="fill-rule:nonzero;"/>
    </g>
    <g transform="matrix(9.37916,0,0,9.37916,-0.441088,0.0106147)">
        <path d="M8.328,25.988C3.473,25.675 -0.015,22.611 0.925,22.781C1.622,22.907 5.52,23.614 9.759,22.228C14.35,20.727 15.009,19.232 15.478,18.995C16.054,18.777 17.484,15.148 18.285,15.299C19.197,15.471 19.002,16.778 17.963,16.716L17.409,16.677L17.448,17.437C17.545,20.602 17.43,20.593 17.525,20.849C18.267,22.848 18.565,20.414 21.852,18.403C22.328,18.112 21.592,15.947 22.728,16.33C23.008,16.424 23.749,16.674 22.11,19.974C19.986,24.252 18.953,23.372 18.814,23.748C18.482,24.406 17.909,23.706 17.656,24.392C17.45,24.8 15.486,25.411 15.287,25.473C12.722,26.271 8.891,26.024 8.334,25.988L8.328,25.988Z" style="fill-rule:nonzero;"/>
    </g>
    <g transform="matrix(9.37916,0,0,9.37916,-0.441088,0.0106147)">
        <path d="M18.063,20.889C17.936,20.556 18.248,19.819 18.372,18.455C18.405,18.093 18.138,17.591 19.209,16.73C20.959,15.322 18.238,14.828 17.406,14.335C16.872,14.018 17.015,13.588 17.638,13.678C18.795,13.845 24.316,15.463 24.443,15.588C24.643,15.784 24.36,16.278 23.213,15.989C22.614,15.837 22.347,15.282 21.943,15.491C20.999,15.981 20.834,16.143 21.271,17.114C21.889,18.488 20.595,18.303 20.485,18.595C20.364,18.834 20.118,18.624 18.258,21.098L18.065,20.887L18.063,20.889ZM20.484,17.824C20.88,17.224 20.112,16.264 19.476,17.139C19.379,17.273 19.437,17.432 19.273,17.501C19.134,17.559 19.303,17.754 19.349,17.818C19.719,18.33 20.152,18.328 20.483,17.822L20.484,17.824Z" style="fill-rule:nonzero;"/>
    </g>
    <g transform="matrix(9.37916,0,0,9.37916,-0.441088,0.0106147)">
        <path d="M19.789,17.567C19.789,17.451 19.853,17.374 19.931,17.4C20.009,17.426 20.073,17.503 20.073,17.567C20.073,17.631 20.009,17.709 19.931,17.734C19.853,17.759 19.789,17.682 19.789,17.567Z" style="fill-rule:nonzero;"/>
    </g>
    <g transform="matrix(9.37916,0,0,9.37916,-0.441088,0.0106147)">
        <path d="M13.479,19.151C13.043,18.563 12.819,19.153 12.769,19.173C12.542,19.263 12.113,15.002 11.354,14.619C11.212,14.565 11.369,14.472 10.554,12.902C10.086,12.002 9.722,12.303 9.576,12.171C9.201,11.749 8.986,12.25 8.562,11.881C8.263,11.621 8.171,8.442 9.203,8.088C9.678,7.925 9.477,7.747 12.268,2.614C12.323,2.512 12.249,2.51 12.001,1.19L12.938,1.224C12.856,0.402 12.53,0.018 13.386,-0.001C13.583,-0.005 16.512,2.107 19.271,2.151C19.472,2.154 20.413,2.169 21.691,2.808C22.391,3.273 22.712,3.177 22.489,3.722C21.929,5.09 22.053,5.093 21.665,6.316C21.496,6.353 19.553,6.786 19.553,6.786C18.137,8.354 18.028,8.216 17.957,8.382C17.137,10.288 18.155,10.394 17.776,12.413C17.75,12.551 17.69,12.508 16.604,13.715C16.785,15.541 17.334,15.657 16.308,17.204C16.156,17.433 14.287,20.251 13.475,19.149L13.479,19.151ZM12.191,7.755C12.765,7.27 12.231,6.056 13.517,5.399C14.005,5.149 14.171,5.386 14.895,4.51C15.188,4.155 16.17,4.862 16.749,4.818C17.395,4.769 18.549,3.843 18.559,3.803C18.642,3.468 18.606,3.111 18.689,2.777C18.14,2.631 18.201,2.431 17.122,2.359C14.961,2.215 14.633,1.292 14.278,1.785C14.193,1.903 14.35,2.126 14.238,2.217C14.062,2.359 13.783,2.27 13.574,2.354C12.422,2.817 10.23,7.044 10.233,7.112C10.252,7.434 11.177,8.67 12.19,7.755L12.191,7.755Z" style="fill-rule:nonzero;"/>
    </g>
    <g transform="matrix(9.37916,0,0,9.37916,-0.441088,0.0106147)">
        <path d="M25.197,15.893C25.197,15.612 23.776,14.312 25.415,12.841C25.982,12.332 26.631,12.271 26.613,11.759C26.608,11.604 26.57,10.521 25.301,10.329C24.565,10.218 24.647,10.034 24.453,9.946C24.024,9.905 23.593,10.087 23.164,10.046C22.993,10.03 23.022,9.936 21.078,9.557C20.92,9.526 18.121,8.719 18.116,8.694C18.074,8.465 19.351,8.617 19.481,7.998C19.675,7.07 19.974,7.307 20.865,7.026L21.262,7.64C21.501,7.475 21.831,7.481 22.07,7.316C22.31,7.15 22.433,6.853 22.662,6.672C23.444,6.053 23.69,6.383 23.911,7.341C24.034,7.873 24.22,8.067 24.555,7.65C24.811,7.33 24.865,7.43 25.276,7.457C26.066,7.508 26.109,7.84 26.246,7.903C26.361,8.243 26.233,8.635 26.349,8.976C26.473,9.338 27.49,8.502 27.797,9.341C28.399,10.991 27.342,11.312 27.144,11.602C27.035,11.762 27.106,12.005 26.996,12.166C27.127,12.327 27.471,12.157 27.602,12.318C27.674,12.408 27.652,13.746 27.402,13.997C26.817,14.584 25.7,13.632 25.613,14.384C25.568,14.777 26.28,14.576 26.231,15.118C26.135,16.189 25.201,16.139 25.201,15.89L25.197,15.893Z" style="fill-rule:nonzero;"/>
    </g>
    <g transform="matrix(9.37916,0,0,9.37916,-0.441088,0.0106147)">
        <path d="M23.587,14.798C23.492,14.642 23.435,14.763 21.397,14.154C21.13,14.074 21.126,14.096 18.054,13.195C18.063,13.145 17.92,12.925 18.177,12.571C18.33,12.361 18.504,10.954 18.53,10.934C18.659,10.836 20.202,11.163 20.417,11.193C21.194,11.301 21.148,11.45 21.923,11.579C22.862,11.735 22.975,11.984 24.086,12.223C25.333,12.491 24.738,12.969 24.601,13.421C24.408,13.851 24.36,13.816 24.241,14.284C24.225,14.349 23.935,15.491 23.584,14.799L23.587,14.798Z" style="fill-rule:nonzero;"/>
    </g>
    <g transform="matrix(9.37916,0,0,9.37916,-0.441088,0.0106147)">
        <path d="M24.811,12.107C24.597,11.989 24.555,12.115 21.914,11.142C19.494,10.25 18.082,10.232 18.044,9.869C17.96,9.065 22.119,10.449 25.044,10.937C25.31,10.981 25.585,10.984 25.842,11.066C26.009,11.119 26.125,11.284 26.292,11.337C25.625,12.053 25.672,12.561 24.811,12.11L24.811,12.107Z" style="fill-rule:nonzero;"/>
    </g>
    <g transform="matrix(9.37916,0,0,9.37916,-0.441088,0.0106147)">
        <path d="M5.366,11.077C5.027,10.989 5.039,10.616 5.036,10.588C4.936,9.672 5.06,8.833 5.082,8.682C5.225,7.709 6.002,8.436 6.204,8.459C7.167,8.571 7.479,8.267 7.531,8.254C7.62,8.23 7.819,8.268 7.555,9.403C7.316,10.43 7.445,11.13 7.246,11.065C7.152,11.034 6.209,10.729 6.01,11.065C5.995,11.09 6,11.128 5.976,11.145C5.881,11.217 5.413,11.091 5.366,11.078L5.366,11.077Z" style="fill-rule:nonzero;"/>
    </g>
</svg>
