<svg xmlns="http://www.w3.org/2000/svg" xml:space="preserve" fill-rule="evenodd" stroke-linejoin="round" stroke-miterlimit="2" clip-rule="evenodd" viewBox="0 0 300 300"><path fill-rule="nonzero" d="M86.445 267.068c1.118-1.287 1.569-3.024 2.48-4.461 1.343-2.104 16.08-25.201 17.48-25.906 1.55-.582-1.146-2.527 10.652-17.715 4.095-5.27 6.246-14.53 20.946-.61 3.466 3.278 10.482 4.038 9.91 6.32-.545 2.17-1.287 1.532-19.829 19.688-37.562 36.783-62.942 65.403-49.576 39.91 4.744-9.054 6.575-16.042 7.937-17.226"/><path fill-rule="nonzero" d="M190.02 211.575c-.469.272-1.399.827-2.103 1.24-1.221.723-3.673 2.066-5.204 3.1-1.39.939-3.118 2.273-3.964 3.1-.516.506-.742 1.24-1.117 1.859-.395.639-.62 1.587-1.24 1.982-.62.394-1.71.056-2.48.376-.845.347-1.56 1.643-2.602 1.737-2.602.226-9.102.827-13.009-.375-3.907-1.203-8.454-5.476-10.417-6.82-.507-.347-.855-.901-1.362-1.24-.742-.497-2.104-1.09-3.1-1.737a42 42 0 0 1-3.221-2.358c-1.343-1.07-3.532-3.118-4.828-4.086-.92-.685-1.991-1.155-2.978-1.737-1.014-.602-1.991-1.381-3.1-1.86-1.446-.62-3.888-1.343-5.579-1.86-1.512-.46-3.015-1.024-4.583-1.24-3.617-.498-11.479-1.362-17.096-1.738-5.523-.366-13.76.263-16.606-.497-1.325-.357-.601-2.715-.498-4.086.122-1.588.535-3.917 1.24-5.448.667-1.447 1.766-2.687 2.977-3.72 1.278-1.099 3.466-2.141 4.706-2.846.883-.498 1.935-.723 2.724-1.362.827-.657 1.766-1.56 2.226-2.602.47-1.07 1.09-2.808.62-3.841-.479-1.034-3.052-1.024-3.466-2.358-1.136-3.635-2.376-13.855-3.344-19.453-.817-4.715-2.047-10.764-2.48-14.127-.262-2.01-.864-4.189-.121-6.067.742-1.879 3.146-3.391 4.583-5.204 1.794-2.273 4.462-5.908 6.2-8.426 1.493-2.17 3.174-5.137 4.208-6.687.6-.911 1.606-1.578 1.982-2.602.535-1.447.835-4.04 1.24-6.068.45-2.292 1.493-5.072 1.483-7.683-.018-5.204-1.756-16.42-1.606-23.548.132-6.453.724-15.611 2.48-19.209 1.23-2.508 5.692-1.7 8.05-2.358 2.01-.563 4.414-1.033 6.068-1.606 1.343-.47 2.667-2.357 3.841-1.86s2.93 3.09 3.222 4.828-1.775 3.682-1.484 5.58c.329 2.123 1.87 5.053 3.466 7.185 2.846 3.795 10.53 12.718 13.629 15.611 1.277 1.193 3.316 1.128 4.96 1.738 1.737.639 3.503 2.17 5.447 2.104 3.1-.103 9.684-1.09 13.132-2.724 3.118-1.475 5.579-5.063 7.56-7.063 1.55-1.56 3.448-3.664 4.34-4.96.564-.826.564-1.944.996-2.846.48-.995 1.494-1.954 1.86-3.1.62-1.925 1.324-5.598 1.86-8.425.554-2.93-.273-7.599 1.484-9.167 1.756-1.569 6.34-.432 9.045-.245 2.433.17 5.307.573 7.186 1.362 1.625.677 3.748 1.616 4.095 3.344.658 3.278.122 12.014-.122 16.353-.188 3.25-.827 6.857-1.362 9.666-.46 2.432-1.597 4.724-1.86 7.185-.291 2.724-.084 7.477.122 9.168.057.497 1.062.497 1.118.995.188 1.607-.329 5.946 0 8.67.32 2.63 1.4 6.152 1.982 7.683.244.658.986.987 1.484 1.484.517.517 1.099 1.043 1.606 1.607.554.62 1.221 1.503 1.738 2.104.441.507.826 1.08 1.362 1.484.601.45 1.456.883 2.226 1.24 1.174.535 3.504.854 4.828 1.982 2.142 1.812 7.26 4.997 8.05 8.923.948 4.706-1.494 13.798-2.358 19.33-.733 4.669-1.446 10.257-2.846 13.874-1.155 2.987-5.26 6.161-5.57 7.815-.263 1.4 2.48 1.55 3.72 2.104 1.192.535 2.517.723 3.72 1.24 1.446.62 3.305 1.737 4.959 2.48 1.625.732 4.32 1.173 4.96 1.981.638.799-.301 2.245-1.119 2.856-1.362 1.014-5.147 2.376-7.063 3.221-1.475.648-3.006 1.165-4.462 1.86-2.517 1.193-8.482 4.293-10.651 5.326-.752.357-1.663.394-2.358.864-3.466 2.33-13.46 9.534-18.457 13.131M161.41 160.75c.864-4.48.695-18.776 1.23-26.995.489-7.449 1.466-17.17 1.982-22.308.292-2.856 1.259-6.397 1.118-8.548-.103-1.587-.892-3.447-1.982-4.34s-3.09-1.446-4.583-.995c-1.917.582-5.768 2.498-6.942 4.462s-.263 4.874-.122 7.307c.31 5.448 1.099 16.954 1.982 25.399.892 8.547 2.132 21.556 3.353 25.896.357 1.268 3.71 1.418 3.964.122m-30.611-64.905c-.376-1.447-1.278-6.19-2.227-8.67-.845-2.207-2.395-4.668-3.466-6.199-.807-1.146-2.122-4.095-2.977-2.978-.996 1.297-4.415 7.806-2.968 10.774 1.446 2.978 9.703 5.89 11.647 7.064zm66.407-11.525c-.187-1.09-.413-5.12-1.117-6.566-.545-1.127-1.85-2.066-3.1-2.104-2.048-.066-7.721.695-9.167 1.729-1.222.873-.32 3.202.497 4.461 1.484 2.292 6.275 8.867 8.416 9.28 2.151.414 3.72-5.682 4.462-6.819 0-.01.01.028.01.019M200.175 208.09c5.044-5.044 12.699 6.068 13.384 7.064.64.92 1.748-.188 9.91 9.91 7.383 9.139 8.857 7.758 9.14 7.946 8.303 11.13 8.735 10.632 17.498 21.34 3.42 4.17 4.462 5.43-.62 11.234-6.415 7.317-16.109 7.233-16.109 4.96h.01c0-1.982-35.411-42.87-38.408-46.702-3.175-4.067-3.954-4.32-1.982-9.167"/><path fill-rule="nonzero" d="M50.752 155.19c-1.7-1.24-35.42-10.549-45.969-37.046-6.124-15.386-7.242-16.56 1.85-30.48.743-1.127 1.297-2.771 2.602-3.1 15.442-5.645 9.309-14.352 24.45-20.176.583-.225 1.428 9.28-1.024 13.366h5.326c3.814 0 4.687 6.735 7.186 1.616 1.568-3.203 3.625-1.503 29.005-33.815 3.663 5.232 5.279 10.389 7.561 4.34 7.42-14.84 10.173-12.183 23.539-22.177 12.85-9.609 11.938-27.22 20.833-13.544l-15.254 17.64c-1.672 1.812-13.488 22.082-14.624 24.027-12.54 21.5 9.176 21.275 8.05 44.85-.029.602-.395 8.323-3.964 6.444-1.832-.967-.15-2.583-17.105-19.452-1.24-1.23-1.69-2.208 1.24-2.847.911-.31-.46-1.822-11.892 1.738-8.237 2.564-4.226 7.627-12.022 11.525-1.466.554-7.712 13.15-3.344 25.765.967 2.809 25.82 22.496 25.398 29.992-.122 2.226-29.043 3.437-31.842 1.362zM222.98 114.058c-5.635-1.512-1.953-7.073-7.683-7.308-2.414-.103-1.794-5.354-2.48-5.946-4.057-4.302 6.65-19.368 7.674-20.814.404-.564.602-.207 8.238-2.8-.751-1.737 1.55-3.888.798-5.626-3.09-7.176-7.984-1.681-11.976-8.218-.582-.95.489-.696 7.984-11.357l17.18 11.094c2.546-3.833 4.969-7.759 7.514-11.6 10.915-16.448 23.445-26.63 22.797-30.81-.517-3.343-8.134-8.04 5.467-12.934 1.474-.535 2.799-1.7 4.367-1.747 1.794-.056 2.602-.075 17.142 14.494-12.436 7.777-13.76 6.208-22.75 17.987-18.597 24.393-33.1 30.189-9.035 49.181 15.395 12.155-5.73 12.324-7.543 11.14-11.994-7.796-16.926-20.58-19.819-6.443-3.25 15.864-17.123 21.82-17.827 21.679z"/></svg>