<svg xmlns="http://www.w3.org/2000/svg" xml:space="preserve" fill-rule="evenodd" stroke-linejoin="round" stroke-miterlimit="2" clip-rule="evenodd" viewBox="0 0 242 300"><path fill-rule="nonzero" d="M102.64 297.626s-17.813 7.04-22.66-3.128c-4.612-9.686 19.834-57.056-77.722-74.528-6.908-1.238 3.675-4.422 9.884-87.2.84-11.245 1.71-22.508 3.411-33.65C34.726-26.83 195.603-29.646 225.19 73.07c16.215 56.29-8.57 60.694 15.015 114.565 5.556 12.69-8.221 21.998-8.627 25.769 0 5.3-38.47-2.25-51.009 47.049-6.954 27.337 2.183 42.825-25.551 38.554-3.345-.51-2.74-6.209-52.379-1.38m46.765-37.95c0-1.492-12.596-31.816-8.949-45.678 13.06-49.59-84.46-51.622-91.055-112.118C41.208 26.747 173.444 9.559 179.738 67.9c3.44 31.863-14.713 39.045-18.001 40.349-17.567 6.955-17.586 5.641-35.776 2.665 30.163-40.973-3.874-54.316-23.322-37.902-67.034 56.602 56.934 98.737 86.444 46.84C256.61 1.14 23.453-38.01 34.688 108.656c1.805 23.596 47.304 55.46 52.105 58.19 10.356 5.897 25.967 10.177 14.77 6.445-3.667-.794 25.598 5.509 27.365 38.119.624 11.424-6.104 3.118-6.284 3.194-4.772 2.06-2.778 3.326-5.755 41.304 26.317 2.863 26.506 1.956 30.673 4.583.586.368 1.805 2.022 1.805-.86zM84.25 212.515c.255-.926 13.191-10.403 13.635-10.866 1.39-1.437.53-2.57 2.117-3.723 3.09-2.25 1.446-9.696-1.38-12.994-.538-.623-16.697-5.905-18.161-6.378-1.843.104-3.346 1.852-5.198 1.956-1.01.057-.954-.18-8.674-4.526-20.647-11.642-31.788 21.677-13.04 29.86 3.893 1.701 13.635 4.715 14.835 5.084 7.9 2.438 14.477 5.793 15.866 1.606zm100.618-5.433c1.984-.832 13.239-5.566 24.294-11.453 5.17-2.759 4.13-3.912 8.505-7.814 7.682-6.87-2.74-21.753-6.7-21.082-1.086.189-37.457 11.424-49.203 17.037-11.141 5.32-5.575 17.368.425 23.104 3.534 3.383 19.504 1.54 22.679.208"/></svg>