<?xml version="1.0" encoding="UTF-8" standalone="no"?>
<!DOCTYPE svg PUBLIC "-//W3C//DTD SVG 1.1//EN" "http://www.w3.org/Graphics/SVG/1.1/DTD/svg11.dtd">
<svg width="100%" height="100%" viewBox="0 0 300 300" version="1.1" xmlns="http://www.w3.org/2000/svg" xmlns:xlink="http://www.w3.org/1999/xlink" xml:space="preserve" xmlns:serif="http://www.serif.com/" style="fill-rule:evenodd;clip-rule:evenodd;stroke-linejoin:round;stroke-miterlimit:2;">
    <g transform="matrix(9.375,0,0,9.375,0,0)">
        <path d="M20.443,31.88C20.266,31.614 20.745,31.285 20.729,30.966C20.723,30.848 19.881,31.259 19.881,31.259C18.928,31.263 14.19,32.849 8.099,28.566C7.696,28.283 4.91,26.324 4.91,23.298L4.899,22.235L5.505,22.224C5.763,22.218 11.356,29.341 16.066,28.224C18.806,27.574 16.963,25.022 19.733,24.487C19.867,24.461 23.676,23.726 21.436,24.487C21.355,24.503 23.003,25.266 22.385,24.337C22.091,23.894 22.23,23.871 22.388,20.884C20.648,20.51 19.788,20.057 19.964,21.8C20.244,24.568 18.186,23.347 14.946,27.069C14.683,27.371 13.661,25.891 13.575,25.766C12.984,24.911 12.553,25.594 12.444,25.594L12.158,25.594L12.158,24.405C12.158,22.48 13.571,21.838 13.734,22.028C14.834,23.308 15.395,23.648 16.203,22.11L16.42,21.71L16.009,21.321C13.17,18.754 13.578,17.993 14.042,16.703C14.362,15.415 20.113,15.18 18.558,13.745C17.594,12.855 15.97,13.078 16.899,10.671C16.926,10.6 18.321,6.939 16.404,9.862C16.259,10.083 16.38,10.103 16.075,13.151L15.846,14.26C15.55,14.321 12.575,14.93 12.199,15.241C9.69,17.317 11.213,17.812 11.239,18.441C10.31,17.982 10.319,18.096 9.412,17.538C8.359,16.891 9.134,18.114 8.612,19.195C8.278,18.649 7.495,18.483 7.161,17.937C5.413,15.082 10.886,12.924 11.385,12.727C12.512,8.789 12.377,8.58 12.04,8.567C11.057,8.53 11.268,11.406 10.327,11.8C6.193,13.531 6.901,15.671 2.44,15.308C2.593,14.757 3.202,14.407 3.355,13.856C3.423,13.613 2.914,13.392 3.035,13.17C3.139,12.979 5.489,12.798 6.096,11.662C7.313,9.384 1.946,11.828 2.152,13.65L2.232,14.279L1.878,14.279C0.62,14.279 0.207,12.936 0.153,12.76C-0.208,11.587 2.756,10.464 0.941,10.531C-1.007,10.603 5.323,2.671 6.355,1.97C6.569,1.824 6.666,3.398 9.59,1.822C9.992,1.605 13.599,-0.338 15.008,0.031C15.139,0.065 14.725,1.022 15.466,0.934C15.946,0.877 23.525,-0.021 21.502,0.647C21.415,0.665 22.059,1.116 20.885,1.572C16.747,3.179 23.15,1.197 26.439,4.179C25.586,4.694 24.661,4.083 25.113,4.979C26.102,6.941 30.671,8.25 30.095,8.911C29.791,9.26 29.039,8.848 28.735,9.197C28.771,9.36 29.181,11.232 29.181,11.232C31.383,14.099 33.293,15.181 31.145,15.117C30.246,15.09 30.588,15.599 31.157,18.513C31.258,19.031 31.54,19.847 31.557,19.862C31.594,19.888 31.622,21.092 30.997,21.358C30.15,21.718 30.477,21.929 30.425,22.856C30.295,25.161 29.863,25.429 29.751,25.942C29.431,25.957 29.396,25.241 29.076,25.256C28.655,25.275 27.466,27.079 27.35,27.255C25.822,29.574 24.841,29.576 24.665,30.181C24.402,30.832 20.547,32.065 20.438,31.883L20.443,31.88ZM26.981,27.8C26.957,27.782 26.929,27.782 26.914,27.811C26.894,27.848 26.894,27.912 26.914,27.949C26.921,27.963 26.933,27.974 26.949,27.973C26.986,27.972 27,27.932 27.005,27.901C27.01,27.866 27.002,27.829 26.981,27.8ZM30.73,14.175C30.717,14.059 30.613,13.921 30.481,13.963C30.342,14.007 30.313,14.207 30.418,14.299C30.484,14.356 30.608,14.387 30.682,14.327C30.728,14.291 30.742,14.23 30.73,14.175ZM4.842,7.956C4.871,8.071 4.932,7.705 5.345,7.191C5.427,7.09 5.291,7.367 5.371,7.377C5.511,7.396 5.781,6.324 4.626,6.919C4.234,7.12 4.295,7.236 4.218,7.277C4.181,7.296 4.137,7.292 4.098,7.305C3.92,7.364 4.004,7.44 3.896,7.596C3.853,7.643 3.777,7.651 3.735,7.698C3.673,7.769 3.695,7.887 3.641,7.964C3.553,8.087 3.526,8.052 3.412,8.153C3.358,8.201 3.547,8.22 3.619,8.218C4.031,8.204 4.092,7.964 4.465,7.921C4.618,7.903 4.624,7.92 4.751,7.83C4.839,7.768 4.815,7.85 4.842,7.956Z" style="fill-rule:nonzero;"/>
    </g>
    <g transform="matrix(9.375,0,0,9.375,0,0)">
        <path d="M5.333,20.153C5.059,19.867 4.841,19.559 4.841,19.479C4.841,19.239 4.487,18.85 4.269,18.85C3.926,18.85 3.64,19.33 3.64,19.913C3.64,20.21 3.606,20.462 3.56,20.485C3.526,20.496 3.331,20.394 3.149,20.256C2.795,19.993 2.795,20.005 2.555,17.901C2.406,16.598 2.498,16.495 3.675,16.495C4.167,16.495 4.555,16.438 4.635,16.358C4.715,16.278 4.841,16.221 4.921,16.221C5.172,16.221 5.527,16.598 5.527,16.873C5.527,17.022 5.573,17.227 5.63,17.342C5.699,17.445 5.779,17.776 5.813,18.085C5.859,18.382 5.927,18.599 5.996,18.565C6.053,18.519 6.099,18.702 6.099,18.965C6.099,19.228 6.179,19.582 6.282,19.765C6.408,19.959 6.442,20.188 6.396,20.382C6.282,20.828 5.893,20.748 5.333,20.153ZM5.527,19.422C5.527,19.365 5.504,19.308 5.481,19.308C5.447,19.308 5.39,19.365 5.355,19.422C5.321,19.491 5.344,19.536 5.401,19.536C5.47,19.536 5.527,19.49 5.527,19.422ZM5.447,19.044C5.481,18.953 5.436,18.884 5.356,18.884C5.276,18.884 5.23,18.953 5.265,19.044C5.299,19.124 5.334,19.193 5.356,19.193C5.378,19.193 5.413,19.124 5.447,19.044Z" style="fill-rule:nonzero;"/>
    </g>
</svg>
