<svg xmlns="http://www.w3.org/2000/svg" xml:space="preserve" fill-rule="evenodd" stroke-linejoin="round" stroke-miterlimit="2" clip-rule="evenodd" viewBox="0 0 300 300"><path fill-rule="nonzero" d="M144.416 253.644c-1.22-.984-5.641-4.477-7.307-5.907-.966-.823-2.026-2.044-2.688-2.688-.417-.407-.767-.918-1.288-1.183-1.079-.558-3.483-1.325-5.158-2.149-1.751-.861-3.692-1.836-5.377-3.01-2.13-1.486-5.187-4.098-7.411-5.906-1.988-1.619-4.222-3.578-5.907-4.941a115 115 0 0 0-4.193-3.228c-1.467-1.079-3.692-2.527-4.62-3.228-.359-.274-.595-.7-.965-.965-.605-.426-1.798-1.06-2.688-1.61-.9-.558-1.789-1.258-2.688-1.722-.852-.445-1.79-.71-2.688-1.07-.9-.36-1.808-.71-2.689-1.07-.86-.35-1.798-.567-2.574-1.069-1.022-.662-4.468-2.29-3.55-2.896.909-.606 6.077-.19 9.03-.748 2.954-.55 7.734-1.647 8.7-2.575.965-.927-1.856-2.243-2.897-3.01-.994-.738-2.433-1.183-3.332-1.609l-2.045-.965c-.899-.426-2.186-1.165-3.332-1.61-1.381-.54-3.511-1.164-4.94-1.609-1.212-.378-2.85-.71-3.654-1.07-.483-.217-.72-.804-1.183-1.069-1.97-1.107-8.576-4.515-10.64-5.585a97 97 0 0 0-1.722-.86c-1.023-.503-3.36-1.43-4.402-2.15-.776-.53-1.268-1.429-1.827-2.148-.54-.691-.994-1.44-1.505-2.149-.643-.9-1.524-2.508-2.366-3.228-.738-.624-1.79-1.344-2.688-1.07-.9.266-2.452 1.629-2.689 2.689-.236 1.06.474 2.65 1.288 3.654 1.306 1.609 5.689 4.76 6.55 6.02.388.568-.975.965-1.401 1.505-.502.624-1.07 2.073-1.61 2.252-.539.18-1.078-.785-1.608-1.183-1.202-.899-3.578-3.01-5.585-4.193-2.47-1.448-7.288-3.616-9.238-4.515-.795-.36-1.685-.483-2.47-.861-.862-.417-1.752-1.146-2.69-1.61-1.069-.54-2.489-1.116-3.757-1.609-1.865-.72-5.206-1.789-7.411-2.688-1.979-.804-4.459-2.063-5.803-2.688-.757-.35-1.495-.729-2.253-1.07-2.413-1.079-9.72-4.032-12.248-5.376C1.733 169.259.029 168.5 0 167.186c-.037-1.43 1.78-4.743 2.689-5.907.615-.786 1.855-.729 2.792-1.07.984-.36 2.082-.71 3.114-1.07 1.269-.444 3.048-1.069 4.515-1.608 1.439-.52 3.077-1.07 4.298-1.61 1.04-.454 1.997-1.097 3.01-1.609a75 75 0 0 1 3.332-1.609c.88-.388 1.78-.747 2.688-1.07 1.003-.359 2.234-.69 3.332-1.069 2.896-1.003 9.399-3.247 14.075-4.94 6.825-2.471 21.827-8.823 26.863-9.902 1.562-.331 3.597 1.865 3.332 3.436-.445 2.65-4.78 8.027-6.02 12.466-1.524 5.443-2.811 16.423-3.114 20.2-.076.927.643 1.808 1.287 2.47.663.682 1.79 1.07 2.688 1.61.9.539 2.045 1.183 2.689 1.609.425.284.719.766 1.183.965 1.04.445 3.398 1.07 5.054 1.723 2.102.823 5.434 2.442 7.525 3.228 1.647.615 3.948 1.107 5.055 1.505.577.208 1.013.757 1.61.86 4.637.843 18.684 3.655 26.219 4.194 6.332.454 13.952-.502 19.016-.965 3.824-.35 7.648-1.344 11.387-1.827 3.673-.473 7.383-.615 11.065-1.07 7.005-.861 23.778-3.095 30.943-4.08 4.023-.548 9.343-1.268 12.03-1.826 1.42-.294 2.708-1.051 4.08-1.505 1.401-.464 3.21-.9 4.298-1.288.786-.284 1.486-.747 2.253-1.07 1.486-.624 4.477-1.703 6.663-2.687 2.225-1.004 5.254-2.433 6.664-3.332.776-.493 1.297-1.307 1.827-2.045.559-.767 1.335-1.6 1.505-2.575.54-3.066 1.978-12.74 1.723-15.798-.114-1.372-2.064-1.836-3.228-2.574-1.439-.909-4.155-1.269-5.376-2.897-1.44-1.912-2.689-6.209-3.228-8.594-.417-1.856-.72-4.752 0-5.699.72-.946 2.877-.16 4.297 0 1.43.161 2.935.426 4.298.966 4.837 1.893 19.972 8.434 24.714 10.421 1.24.521 2.48 1.08 3.758 1.505 1.571.521 4.174 1.051 5.698 1.61 1.202.435 2.234 1.277 3.436 1.722 1.221.445 2.594.597 3.872.966 3.19.927 12.23 3.72 15.258 4.619.956.284 1.94.464 2.897.748 1.022.303 2.148.72 3.227 1.07 1.098.36 2.348.71 3.332 1.069.871.312 1.78.587 2.575 1.07.88.54 3.35 1.211 2.688 2.148-1.846 2.594-10.374 10.905-13.753 13.413-1.808 1.335-4.639 1.183-6.55 1.61-1.638.368-3.72.52-4.942.965-.918.34-1.57 1.154-2.366 1.722-1.164.843-3.237 2.348-4.62 3.332-1.21.862-2.47 1.676-3.653 2.575-1.562 1.183-3.833 3.048-5.698 4.515-1.827 1.439-4.155 3.35-5.48 4.297-.767.55-1.638.956-2.471 1.401-.947.502-2.442 1.183-3.228 1.61-.52.283-1.003.643-1.505.965-.644.407-1.43 1.552-2.366 1.505-1.089-.057-3.427-.511-4.194-1.827-.927-1.59.105-6.664-1.4-7.733-1.506-1.08-5.197.643-7.63 1.287-2.394.634-5.395 1.988-6.985 2.575-.862.321-1.714.653-2.575.965-1.25.445-3.398 1.183-4.94 1.723-1.43.501-2.954 1.088-4.298 1.505-1.24.378-2.528.568-3.758.965-2.253.73-6.948 2.329-9.778 3.436-2.452.966-5.736 2.225-7.203 3.228-.89.606-1.307 1.874-1.61 2.792-.283.852-1.088 2.461-.217 2.689 1.59.407 6.522-.332 9.778-.218 3.436.123 9.19.483 10.857.965.681.2-.294 1.505-.862 1.931-2.536 1.893-11.737 7.573-14.387 9.438-.625.435-.89 1.268-1.505 1.722-3.03 2.253-12.883 8.955-16.66 11.823-2.139 1.628-4.316 3.852-6.02 5.376-1.4 1.25-2.944 2.509-4.193 3.758-1.183 1.183-2.565 2.792-3.332 3.758-.502.634-.72 1.476-1.287 2.044-.644.644-1.77 1.155-2.575 1.827-1.164.966-2.915 2.679-4.401 3.976-1.524 1.325-3.114 4.032-4.724 3.975-1.609-.057-4.117-3.578-4.94-4.297-.01 0 .009-.019 0-.019"/><path fill-rule="nonzero" d="M137.97 178.96c-1.987-.122-8.017-.605-11.926-.747-3.834-.142-9.58.502-11.5-.104-1.127-.36.453-2.461 0-3.55-.54-1.287-2.15-3.209-3.229-4.193a7.53 7.53 0 0 0-3.227-1.723c-1.79-.445-5.074-.331-7.526-.965-4.032-1.041-13.573-2.859-16.659-5.263-2.451-1.912-1.827-6.03-1.827-9.134 0-4.24 1.26-13.328 1.827-16.338.152-.776 1.164-1.079 1.61-1.723.738-1.06 2.318-2.887 2.792-4.619 1.06-3.88 2.745-12.769 3.55-18.694.756-5.585.908-13.46 1.287-16.868.132-1.22.473-2.423.965-3.55 1.344-3.047 5.66-11.623 7.09-14.718.577-1.26.918-2.613 1.505-3.872.7-1.505 1.789-3.653 2.688-5.158.804-1.354 2.007-2.85 2.688-3.872.492-.738.824-1.58 1.401-2.253.966-1.126 2.48-3.653 4.402-4.515 7.25-3.256 28.5-14.605 39.12-15.05 9.173-.388 18.865 8.585 24.611 12.362 3.985 2.613 7.156 6.683 9.892 10.318 2.66 3.52 5.187 9.03 6.55 11.5.596 1.08 1.183 2.177 1.609 3.332.54 1.467 1.202 3.796 1.609 5.48.37 1.525.663 3.067.861 4.62.417 3.152 1.042 9.57 1.61 14.293.567 4.695 1.344 11.425 1.826 14.075.123.691.71 1.221 1.07 1.827.445.757 1.325 1.685 1.61 2.688.539 1.903 1.107 6.01 1.608 8.699.464 2.47.918 5.424 1.401 7.411.379 1.543 1.06 2.992 1.505 4.516.464 1.58 1.06 3.37 1.288 4.94.217 1.487.265 3.493.104 4.516-.104.634-.682 1.098-1.07 1.609-.407.54-.9 1.107-1.4 1.609-.72.72-1.657 2.253-2.897 2.688-2.916 1.022-10.11 2.499-14.625 3.446-4.136.87-10.061.861-12.466 2.252-1.846 1.08-1.789 4.856-1.93 6.125-.067.615 1.656 1.325 1.069 1.505-3.133.927-13.394 2.896-19.878 4.08-6.313 1.154-15.855 2.508-19.016 3.01-.01 0 .038.009.028.009m8.813-4.297c.142-.246.331-1.277.861-1.505 1.25-.54 5.727-1.164 6.664-1.722.549-.332-.729-1.06-1.07-1.61a79 79 0 0 1-1.722-2.896c-1.203-2.149-3.616-9.456-5.481-9.996s-4.477 4.904-5.698 6.768c-.852 1.307-1.439 2.85-1.61 4.402-.217 1.969-1.022 6.323.322 7.411 1.345 1.089 6.446-.72 7.734-.861zm23.635-17.189c1.628-.085 3.872-1.183 5.48-1.61 1.383-.368 3.106-.5 4.194-.965.918-.388 1.884-.956 2.366-1.826 1.165-2.092 4.118-8.595 4.62-10.744.198-.87-.748-1.912-1.61-2.149-1.24-.34-4.08-.18-5.802.105-1.58.265-2.991 1.135-4.515 1.609-1.666.52-3.758.899-5.48 1.505-1.666.587-4.004.596-4.837 2.148-.862 1.61-.54 5.718-.322 7.526.142 1.22.624 2.593 1.609 3.331.984.739 2.82 1.155 4.297 1.07m-43.835-1.931c.341-1.089 2.348-4.733 2.045-6.56s-2.461-3.417-3.872-4.401c-1.325-.928-3.37-1.06-4.619-1.505-.984-.35-1.95-.748-2.896-1.183a44 44 0 0 1-3.114-1.61c-.88-.501-1.572-1.609-2.575-1.609s-2.47 1.07-3.436 1.61c-.833.463-1.666.965-2.366 1.609-1.43 1.325-6.153 4.553-6.229 6.342-.066 1.789 4.373 3.398 5.803 4.401.88.615 1.817 1.164 2.792 1.61a37 37 0 0 0 4.193 1.608c1.43.445 2.897 1.108 4.402 1.07 2.385-.057 8.235-1.174 9.882-1.4.01 0-.01.027-.01.018"/></svg>