<svg xmlns="http://www.w3.org/2000/svg" xml:space="preserve" fill-rule="evenodd" stroke-linejoin="round" stroke-miterlimit="2" clip-rule="evenodd" viewBox="0 0 300 300"><path fill-rule="nonzero" d="M141.59 295.905c-1.332-.845-2.32-2.13-3.445-3.23-1.775-1.737-5.278-5.362-7.212-7.212-1.418-1.352-2.864-2.685-4.423-3.869-1.85-1.399-4.723-3.145-6.676-4.526-1.72-1.21-4.038-2.92-5.062-3.765-.432-.357-.648-.93-1.08-1.296-1.69-1.418-6.535-5.09-9.042-7.212-2.076-1.756-4.066-3.606-6.03-5.493-2.976-2.873-9.154-8.949-11.85-11.729-1.521-1.568-2.863-3.305-4.31-4.948-2.15-2.442-6.817-7.7-8.61-9.69a67 67 0 0 0-2.15-2.264c-.517-.516-1.08-1.07-1.616-1.502-.507-.404-1.08-.724-1.615-1.08s-1.1-.686-1.615-1.08c-.535-.413-1.165-.845-1.615-1.4-.986-1.22-2.874-4.009-4.31-5.925-1.41-1.887-4.348-4.488-4.31-5.596.037-1.118 3.023-1.474 4.526-1.08 2.732.714 8.77 4.996 11.84 5.39 2.386.31 5.26-.995 6.564-3.014 1.578-2.442 2.62-8.057 2.91-11.626.264-3.277-.806-6.526-1.182-9.794-.432-3.7-1.145-8.47-1.4-12.385-.234-3.69-1.342-9.193-.102-11.09 1.24-1.906 5.042-.028 7.54-.32 3.09-.356 7.4-1.793 10.987-1.83 3.559-.038 8.348 1.154 10.555 1.605.948.188 2.563.122 2.695 1.08.45 3.23-.123 12.198 0 18.302.122 6.46.61 15.916.75 20.452.076 2.263-.093 4.526.104 6.78.235 2.704-.235 6.676 1.296 9.474 1.746 3.174 6.827 7.982 9.155 9.578 1.334.911 4.038.714 4.846 0 .807-.723-.282-2.9 0-4.31.32-1.596 2.122-3.409 1.934-5.277-.357-3.644-3.193-11.72-4.094-16.583-.77-4.15-1.08-9.813-1.296-12.593-.103-1.36-.15-2.742 0-4.094.216-1.99.62-5.296 1.296-7.86 1.005-3.803 3.22-12.348 4.742-14.968.75-1.286 3.23-.967 4.414-.75 1.108.206 1.568 2 2.695 2.046 4.845.216 20.452-.91 26.377-.75 3.108.083 7.465-.63 9.155 1.717s1.127 8.414.968 12.377c-.16 3.85-1.775 8.02-1.935 11.41-.14 2.994.873 5.943.967 8.94.122 4.196-.16 12.534-.216 16.253-.028 2.01-.394 4.3-.103 6.03.254 1.54.845 3.39 1.83 4.31.987.91 2.77 1.257 4.095 1.182 1.334-.075 2.986-1.202 3.879-1.615.525-.244 1.436-.29 1.502-.864.93-8.17 3.164-38.078 4.094-48.125.376-4.066.91-9.926 1.503-12.17.206-.78 1.24-1.333 2.047-1.296 2.188.085 7.916-.16 11.09 1.831 3.718 2.33 9.446 6.94 11.193 12.17 1.887 5.653-.207 16.677.112 21.738.188 2.93 1.4 7.372 1.832 8.611.15.442.46-.817.75-1.183.376-.488.92-1.22 1.503-1.718.63-.536 1.512-1.09 2.263-1.503q1.086-.589 2.263-.967c1.118-.357 2.93-.826 4.414-1.183 1.85-.45 5.455-1.54 6.676-1.503.61.02.592 1.11.648 1.72.113 1.145.216 4.112 0 5.173-.113.573-.883.77-1.296 1.183-4.31 4.338-20.217 20.565-24.546 24.875-.404.404-.93.648-1.4.967-1.24.845-4.272 2.413-6.028 4.094-6.76 6.46-28.537 28.706-34.565 34.67-.46.45-1.08.713-1.615 1.08q-1.14.795-2.263 1.614c-.723.526-1.522.977-2.15 1.615-2.405 2.423-9.89 10.283-12.274 12.921-.798.883-.948 2.733-2.047 2.911-1.1.18-3.193-.986-4.526-1.83M1.428 157.425c.01-.725-.103-2.878.104-4.299.32-2.182 1.11-5.897 1.824-8.813.753-3.047 2.672-6.18 2.69-9.462.02-3.857-2.163-10.789-2.577-13.657-.17-1.176-.94-3.104.104-3.556s4.072.997 6.132.856c2.098-.14 5.126-1.24 6.453-1.72.602-.218 1.138-.66 1.505-1.186.592-.847 2.878-2.68 2.04-3.876-1.42-2.003-7.44-5.558-10.534-8.173-2.812-2.37-6.556-6.076-8.06-7.525-.368-.357-.875-.686-.97-1.185-.122-.649-.32-1.966.217-2.69.658-.894 2.737-2.06 3.762-2.69.743-.452 1.562-.753 2.37-1.072.913-.358 2.08-.725 3.123-1.073 1.326-.45 3.584-1.072 4.835-1.608.96-.414 2.51-.583 2.69-1.608.357-2.08-.245-7.835-.536-10.864-.235-2.455-1.28-4.948-1.185-7.308.084-2.36 1.232-5.08 1.72-6.885.358-1.336.772-2.662 1.186-3.98.47-1.485 1.072-3.48 1.608-4.947.48-1.316 1.167-2.906 1.609-3.875.31-.668.715-1.42 1.072-1.937.3-.442.743-.762 1.072-1.185 1.486-1.938 6.415-8.39 7.854-10.432.376-.536.3-1.345.753-1.824 2.69-2.907 12.453-12.745 15.378-15.595.63-.61 1.326-1.213 2.154-1.505 2.36-.847 8.954-2.615 12.04-3.546 2.163-.649 4.354-1.449 6.452-2.04 2.022-.575 4.43-.95 6.132-1.506 1.42-.46 2.87-1.467 4.083-1.825 1.034-.3 2.144-.235 3.226-.329 2.737-.235 9.105-.715 13.224-1.072 3.838-.33 8.419-.894 11.504-1.072 2.323-.132 5.163-.18 6.988 0 1.364.131 2.662.677 3.979 1.072 1.542.46 3.48 1.241 5.267 1.721 2.135.574 5.747.931 7.525 1.721 1.326.593 1.928 2.201 3.122 3.02 2.22 1.523 7.92 4.693 10.215 6.132 1.223.762 2.455 1.533 3.546 2.474 1.524 1.307 4.205 3.875 5.587 5.38 1.025 1.12 1.806 2.436 2.69 3.66.894 1.231 2.013 2.933 2.69 3.761.386.47 1.035.696 1.402 1.185.508.66 1.223 1.787 1.618 2.794.507 1.288 1.072 3.264 1.4 4.947.537 2.747.79 7.76 1.826 11.504 1.166 4.232 2.53 10.807 5.164 13.873 2.51 2.925 7.336 4.336 10.647 4.515 3.283.18 7.186-2.154 9.246-3.443 1.505-.94 2.35-3.442 3.123-4.298.385-.433 1.025-.536 1.504-.856.612-.414 1.29-1.373 2.154-1.608 1.938-.536 6.293-2.032 9.463-1.609 3.743.508 10.534 3.556 13.008 4.628.79.34 1.345 1.25 1.825 1.825.413.49.573 1.194 1.072 1.608 1.524 1.251 6.095 5.107 8.06 5.916 1.205.5 2.813-.715 3.763-1.072.687-.263 1.373-.602 1.938-1.072 1.439-1.204 4.28-4.29 6.668-6.133 2.568-1.975 6.556-4.928 8.71-5.7 1.355-.489 3.34.395 4.195 1.073.828.65.912 2.454.969 3.01.019.244-.555.093-.65.32-.874 2.153-3.103 8.803-4.627 12.584-1.382 3.424-2.793 7.75-4.515 10.111-1.392 1.91-4.458 3.151-5.803 4.083a59 59 0 0 1-2.257 1.504c-.875.555-2.126 1.063-3.01 1.825-.913.79-2.991 2.032-2.474 2.907.517.884 3.65 2.135 5.587 2.37 1.938.235 4.609-.536 6.02-.969.94-.282 1.646-1.082 2.474-1.608 1.523-.97 4.354-2.954 6.668-4.195 2.634-1.41 6.763-3.292 9.143-4.299 1.674-.705 3.46-1.42 5.164-1.72 1.655-.293 3.376-.264 5.05-.104 1.74.16 3.593.667 5.38 1.072 1.957.451 4.873 1.072 6.34 1.608.922.34 1.665 1.044 2.474 1.61.846.591 1.768 1.221 2.577 1.936 1.364 1.204 4.073 3.208 5.587 5.267 1.599 2.173 4.515 5.7 3.979 7.741s-4.44 3.913-7.205 4.515c-3.283.715-9.857-.376-12.472-.216-1.148.075-2.342.451-3.226 1.185-1.92 1.6-7.78 5.916-8.278 8.39s2.944 4.93 5.268 6.452c2.868 1.881 8.493 3.565 11.936 4.835 2.859 1.053 6.668 2.06 8.71 2.793 1.222.443 2.793.546 3.545 1.61.866 1.222 1.214 3.761 1.618 5.7.452 2.172 1.11 4.974 1.072 7.307-.037 2.267.612 5.7-1.288 6.67-1.9.968-6.725-.895-10.111-.857-6.18.075-19.32 1.09-26.986 1.288-6.34.16-12.688-.122-19.028-.103-7.74.02-21.896.18-27.418.216q-2.85.015-5.7 0c-3.705-.018-11.343-.357-16.563-.103-4.938.235-9.82 1.12-14.73 1.618-5.163.517-13.083 1.222-16.234 1.505-.894.084-1.787.235-2.69.216-1.486-.038-4.148-.423-6.236-.433-6.274-.019-23.458.235-31.397.32-5.408.056-12.792.18-16.234.216-1.467.02-2.963.245-4.411 0-1.9-.32-4.76-1.015-6.99-1.937-2.294-.95-5.642-2.06-6.771-3.763-1.13-1.703-.34-4.354 0-6.452.338-2.097 2.718-4.082 2.04-6.132-.95-2.888-6.97-8.654-7.74-11.184-.49-1.608 1.787-2.944 3.123-3.979 1.777-1.382 5.568-2.915 7.524-4.298 1.57-1.11 4.91-3.264 4.195-3.979s-5.662-.48-8.493-.32c-3.132.18-8.183.903-10.318 1.402-.96.226-1.731.96-2.474 1.608-1.251 1.091-3.998 3.838-5.051 4.948-.498.517-1.514 1.044-1.29 1.721.575 1.76 3.623 6 4.733 8.813 1.015 2.568 1.72 5.86 1.937 8.061.17 1.73-.056 3.744-.65 5.164-.563 1.354-1.88 2.267-2.905 3.33-1.778 1.843-4.976 8.117-7.741 7.74-2.756-.376-7.205-8.032-8.823-9.998-.423-.517-.442-1.345-.856-1.825s-1.157-.714-1.608-1.072c-.395-.32-.771-1.486-1.072-1.072-.894 1.232-2.098 6.556-4.3 8.493-2.2 1.938-6.49 3.48-8.925 3.123s-4.214-3.687-5.7-5.267c-1.213-1.28-2.24-4.092-3.226-4.195-.988-.113-2.004 2.23-2.69 3.546-.79 1.523-1.232 4.204-2.041 5.587-.65 1.12-1.505 2.586-2.794 2.69-3.884.31-17.11-.706-20.533-.856-.01 0-.028-.019-.028-.028m56.454-63.762c.752-.16 3.028-.555 4.515-.97 1.542-.432 3.564-1.07 4.73-1.607.838-.386 1.703-.875 2.258-1.609 1.364-1.787 5.107-6.81 5.916-9.142.536-1.562-.714-3.669-1.072-4.835-.235-.77-.658-1.467-1.072-2.154-.81-1.345-2.145-4.298-3.763-5.916-1.608-1.608-4.57-2.953-5.916-3.762-.686-.414-1.354-.997-2.154-1.073-1.43-.14-4.656.16-6.452.217-1.43.047-2.944-.367-4.3.103-1.964.677-5.191 2.417-7.523 3.98-2.323 1.56-5.202 4.231-6.453 5.38-.451.413-.583 1.128-1.072 1.504-.752.574-2.728.837-3.442 1.937-1.43 2.201-4.666 9.152-5.164 11.287-.198.856 1.524 1.091 2.154 1.505.527.348 1.09.621 1.608.97.65.432 1.43 1.194 2.258 1.608 1.072.536 2.755 1.194 4.195 1.608 1.88.536 4.674 1.495 7.092 1.608 3.46.16 11.38-.545 13.657-.649z"/><path fill-rule="nonzero" d="M180.675 49.691c-.273-.593-.903-3.095-1.618-3.546-.715-.452-1.778.63-2.69.856-.95.235-2.258 1.072-3.01.536-.753-.536-1.12-2.465-1.505-3.763-.752-2.51-1.787-7.872-3.01-11.296-1.138-3.198-3.405-7.45-4.298-9.246-.273-.555-.668-1.044-1.073-1.505-.48-.555-1.28-1.166-1.824-1.825-.772-.93-2.822-2.2-2.794-3.762.038-1.74 2.06-5.267 3.01-6.669.602-.884 1.655-1.467 2.69-1.72 1.88-.462 5.738-1.092 8.606-1.073 2.87.02 6.472.291 8.607 1.185 1.824.762 3.3 3.226 4.195 4.195.45.49.809 1.072 1.185 1.608.367.527.686 1.091 1.072 1.61.536.714 1.204 2.05 2.154 2.69 1.326.892 3.922 2.416 5.803 2.69 1.844.262 4.12-.716 5.484-1.073.93-.245 1.797-.696 2.69-1.073.93-.395 1.938-.865 2.906-1.288 3.142-1.364 10.808-6.35 15.915-6.885 5.032-.527 11.597 2.803 14.73 3.66 1.4.384 2.972.572 4.082 1.503 1.185.988 2.276 3.01 3.01 4.412.658 1.241 1.006 3.047 1.4 3.978.246.574 1.57 1.43.97 1.61-1.148.337-5.23.366-7.854.431-2.728.076-5.803-.865-8.493 0-2.728.875-5.973 3.49-7.854 5.268-1.552 1.458-2.634 3.978-3.443 5.38-.555.96-.338 2.69-1.401 3.01-2.653.79-9.82.414-14.513 1.721-5.145 1.44-12.491 5.484-16.348 6.885-2.173.79-5.643 1.26-6.772 1.505z"/></svg>