<svg xmlns="http://www.w3.org/2000/svg" xml:space="preserve" fill-rule="evenodd" stroke-linejoin="round" stroke-miterlimit="2" clip-rule="evenodd" viewBox="0 0 300 300"><path fill-rule="nonzero" d="M126.423 299.696c-.32-.801-1.347-3.157-1.913-4.778-.584-1.687-1.065-3.807-1.592-5.315-.453-1.272-1.15-2.77-1.593-3.722-.32-.688-.735-1.33-1.065-2.017a31 31 0 0 1-1.065-2.44c-.443-1.17-1.065-3.101-1.592-4.571-.519-1.423-1.065-2.837-1.593-4.25-.528-1.414-1.102-2.818-1.592-4.25-.528-1.536-1.046-3.336-1.593-4.995-.763-2.299-2.177-6.323-2.978-8.82-.65-2.036-1.244-4.495-1.81-6.163-.442-1.31-1.064-2.658-1.592-3.826-.49-1.084-1.083-2.111-1.592-3.185-.547-1.15-1.254-2.658-1.697-3.723-.358-.867-.518-1.818-.951-2.657-.688-1.329-2.12-3.543-3.186-5.315-1.064-1.772-2.478-4.043-3.185-5.315-.414-.744-.697-1.564-1.065-2.337-.405-.848-.904-1.913-1.385-2.761-.452-.801-1.008-1.696-1.489-2.337-.405-.547-.999-.933-1.385-1.489-.386-.565-.603-1.291-.952-1.913-.424-.763-2.572-2.337-1.592-2.657.99-.32 5.314-.453 7.538.744 2.705 1.451 6.71 6.352 8.708 7.963.961.773 2.318 1.253 3.289 1.696.829.377 1.686 1.206 2.553.952.952-.283 3.035-1.282 3.186-2.657.263-2.413-1.386-7.831-1.593-11.79-.245-4.692-.094-13.117.104-16.359.066-1.083.697-2.054 1.065-3.081.442-1.244 1.064-3.167 1.592-4.354.434-.97 1.15-2.054 1.593-2.761.32-.518.725-.98 1.065-1.489a65 65 0 0 0 1.696-2.657c.518-.867.99-1.913 1.489-2.658.433-.65 1.027-1.178 1.489-1.81 1.29-1.77 4.052-6.266 6.266-8.82a44.4 44.4 0 0 1 7.012-6.483c4.25-3.166 14.568-9.895 18.48-12.533 1.648-1.112 3.721-2.498 4.994-3.29.857-.536 1.79-.97 2.657-1.488.886-.528 2.054-1.235 2.658-1.696.377-.293.593-.754.951-1.065 2.582-2.196 11.346-9.085 14.55-12.11 1.857-1.752 3.713-4.711 4.674-6.059.443-.622.679-1.366 1.065-2.017.462-.782 1.15-1.771 1.697-2.657.546-.876 1.168-1.875 1.592-2.658.358-.65.632-1.347.952-2.016.424-.886 1.216-2.13 1.593-3.289.527-1.63 1.15-4.448 1.592-6.483a92 92 0 0 0 1.065-5.74c.34-2.252 1.093-5.154.952-7.755-.18-3.364-1.414-9.555-2.017-12.42-.349-1.64-1.065-3.327-1.592-4.778-.49-1.329-1.188-2.94-1.593-3.93-.273-.678-.547-1.526-.848-2.016-.236-.387-.745-.556-.952-.952-1.046-1.979-4.203-8.641-5.315-10.94-.462-.953-1.018-2.083-1.385-2.866-.283-.603-.471-1.262-.848-1.809-.688-1.008-2.177-2.874-3.29-4.25-1.102-1.366-2.675-3.1-3.401-4.033-.377-.49-.622-1.075-.952-1.593-.339-.528-.575-1.187-1.065-1.592-.848-.707-2.62-1.885-4.033-2.658-1.63-.886-4.288-2.035-5.739-2.657-.97-.415-1.988-.688-2.978-1.065-1.206-.462-2.817-1.178-4.25-1.696-1.526-.547-3.176-1.518-4.89-1.593-5.88-.245-24.841-.141-30.382.104-1.056.047-1.913.914-2.865 1.385-.99.5-2.271 1.112-3.082 1.592-.64.377-1.253.783-1.809 1.273-4.41 3.892-19.526 16.52-24.643 22.098-2.902 3.166-5.239 7.152-6.05 11.365-.942 4.9.18 13.88.425 18.055.141 2.356.518 4.712 1.064 7.012.707 2.959 2.12 8.01 3.186 10.733.782 2.007 2.214 4.24 3.185 5.626.725 1.027 1.79 1.753 2.657 2.657.886.924 1.546 2.187 2.658 2.865 2.016 1.235 7.058 3.619 9.452 4.561 1.554.613 3.222.97 4.89 1.065 3.563.198 13.137.33 16.463.104 1.263-.085 2.328-1.018 3.506-1.49 2.62-1.045 9.772-3.769 12.213-4.777.848-.349 1.781-.631 2.44-1.272.67-.66 1.065-1.772 1.593-2.658s1.546-1.63 1.593-2.657c.122-2.921-.123-12.307-.848-14.87-.32-1.14-2.743-.707-3.506-.528-.622.141-.839.99-1.065 1.592-.358.952-.028 3.167-1.065 4.147-2.44 2.299-10.639 7.859-13.598 9.668-1.225.745-2.921.97-4.146 1.169-1.046.17-2.13.141-3.185 0-1.612-.217-4.712-.905-6.484-1.272-1.385-.293-3.081-.264-4.146-.952s-1.744-1.989-2.234-3.185c-1.47-3.581-5.757-13.599-6.587-18.273-.575-3.25 1.065-7.51 1.593-9.772.31-1.347.716-2.752 1.593-3.826 1.733-2.13 6.87-7.152 8.82-8.924.82-.744 1.847-1.253 2.865-1.696 1.065-.462 2.327-.745 3.505-1.065 1.367-.377 3.59-.97 4.674-1.169.594-.103 1.207.02 1.81 0 1.394-.056 4.4-.066 6.587-.32 2.78-.32 6.832-1.555 10.092-1.593 3.186-.037 7.68.867 9.452 1.386.66.188.688 1.206 1.169 1.696 1.413 1.451 5.701 5.324 7.331 7.011.914.942 1.923 1.875 2.441 3.082 1.414 3.26 4.89 12.41 6.06 16.463.735 2.534.725 5.72.951 7.859.18 1.658.255 3.336.424 4.994.18 1.697.585 3.93.641 5.202.038.82-.113 1.65-.32 2.44-.34 1.31-1.15 3.883-1.697 5.42-.461 1.3-.65 2.808-1.592 3.816-3.26 3.468-14.418 13.89-17.943 16.99-.895.783-2.299 1.065-3.185 1.593-.754.453-1.32 1.216-2.12 1.593-1.47.688-4.42 1.819-6.69 2.554-3.3 1.064-8.897 2.883-13.071 3.826-3.949.885-9.122 1.592-12.006 1.809-1.772.132-3.562-.236-5.315-.528-2.337-.386-5.852-1.018-8.707-1.81-3.082-.847-7.671-2.317-9.773-3.288-1.159-.537-1.96-1.65-2.864-2.554-2.177-2.177-8.236-8.5-10.197-10.516-.527-.538-1.121-1.009-1.592-1.593-.528-.66-1.084-1.546-1.593-2.337-.707-1.103-1.8-2.818-2.657-4.25A183 183 0 0 1 65 108.548c-.377-.698-.706-1.517-1.065-2.12-.31-.528-.772-.952-1.064-1.49-.406-.744-.962-1.969-1.386-2.977-.603-1.433-1.715-3.676-2.233-5.626-.66-2.44-1.593-5.965-1.696-9.028-.245-7.256-.17-28.327.216-34.528.076-1.13 1.621-1.866 2.12-2.657.406-.65.538-1.423.849-2.12.707-1.593 2.695-5.843 3.402-7.436.31-.697.537-1.423.848-2.12.367-.83.773-1.998 1.385-2.865.81-1.15 2.252-2.77 3.506-4.033 2.865-2.884 11.148-10.903 13.702-13.278.452-.424 1.064-.632 1.592-.952.707-.424 1.781-1.046 2.658-1.593.885-.546 1.771-1.234 2.657-1.696.848-.443 1.772-.707 2.658-1.065s1.771-.706 2.657-1.064c1.15-.462 2.837-1.15 4.25-1.697 1.414-.546 3.12-1.168 4.25-1.592.848-.32 1.706-.613 2.554-.952 1.065-.424 2.657-1.065 3.826-1.593 1.084-.49 2.082-1.159 3.185-1.592 1.348-.528 3.204-1.282 4.89-1.593 2.866-.528 8.623-1.15 12.327-1.592 3.289-.396 6.568-.877 9.876-1.065 3.402-.198 7.51-.34 10.517-.104 2.553.198 5.022.99 7.538 1.489 2.743.547 6.324 1.291 8.925 1.81 2.223.442 4.702.188 6.69 1.271 4.439 2.422 16.378 10.602 19.969 13.278.848.632 1.065 1.838 1.592 2.761.528.933 1.169 2.206 1.593 2.865.254.396.66.688.952 1.065.443.565 1.13 1.555 1.696 2.337.83 1.15 2.318 3.26 3.289 4.57.83 1.113 1.734 2.168 2.554 3.29.867 1.187 1.828 2.515 2.657 3.825.99 1.555 2.478 4.137 3.289 5.523.537.914 1.168 2.101 1.593 2.76.273.425.669.755.951 1.17.424.64 1.15 1.724 1.593 2.657.528 1.112 1.093 2.742 1.592 4.033.472 1.234 1.348 2.403 1.386 3.722.235 8.039.235 35.829 0 44.508-.066 2.554-.453 5.164-1.386 7.539-1.046 2.657-3.816 6.502-4.881 8.396-.547.97-1.065 2.233-1.489 2.978-.301.528-.782.952-1.065 1.489-.358.678-.678 1.715-1.065 2.554-.443.96-1.064 2.28-1.592 3.185-.462.791-1.084 1.47-1.593 2.233-.707 1.065-1.771 2.94-2.657 4.147a26.6 26.6 0 0 1-2.658 3.081c-1.696 1.696-6.125 5.664-7.539 7.115-.433.443-.622 1.074-.951 1.592-.34.528-.585 1.169-1.065 1.593-1.009.886-3.383 2.478-4.995 3.722-1.573 1.216-3.241 2.573-4.674 3.723-1.32 1.055-2.62 2.12-3.93 3.185s-2.732 1.998-3.93 3.185c-1.837 1.828-5.785 6.427-7.114 7.756-.207.207-.603.056-.848.216-.443.283-1.282.914-1.81 1.49-.565.621-.989 1.545-1.592 2.233-.933 1.065-3.147 3.26-4.033 4.146-.405.405-.83.801-1.272 1.169-.83.688-2.601 1.847-3.723 2.977-1.47 1.49-3.59 3.808-5.098 5.947-1.979 2.817-5.305 8.622-6.794 10.94-.66 1.028-1.574 1.951-2.12 2.978-.538 1-.82 2.177-1.17 3.186-.329.951-.64 1.913-.95 2.864-.444 1.348-1.857 3.393-1.697 5.202s.8 4.938 2.657 5.626 6.644-.99 8.5-1.489c.98-.264 1.79-.97 2.658-1.489a65 65 0 0 0 2.657-1.696c.51-.34.98-.726 1.49-1.065.565-.368 1.177-1.018 1.912-1.169 2.28-.48 10.357-2.46 11.79-1.696s-1.782 4.382-3.177 6.267c-1.45 1.97-4.052 3.506-5.522 5.522-1.442 1.989-2.563 4.797-3.289 6.587-.537 1.32-.49 2.846-1.065 4.147-1.422 3.204-6.03 12.08-7.444 15.096-.452.952-.745 1.98-1.065 2.978a4082 4082 0 0 0-6.898 21.655c-.565 1.8-1.093 3.751-1.593 5.419-.452 1.527-.895 3.053-1.385 4.57-.782 2.394-2.28 7.03-3.289 9.773-.829 2.261-1.734 5.56-2.76 6.69-.764.84-2.837.085-3.403.104zM288.424 223.214c-.942-.848-4.297-3.986-5.626-5.098-.726-.603-1.536-1.093-2.337-1.593-1.31-.81-3.91-2.3-5.522-3.289-1.395-.857-2.94-1.771-4.147-2.657-1.093-.801-2.016-1.81-3.081-2.658-1.112-.885-2.761-1.979-3.61-2.657-.527-.424-1.017-.905-1.488-1.385-.688-.707-1.772-1.913-2.658-2.865s-1.95-2.158-2.657-2.865c-.5-.5-1.065-.98-1.593-1.385-.509-.386-1.055-.716-1.592-1.065-.707-.462-1.772-1.15-2.658-1.696-.876-.547-1.79-1.169-2.657-1.593-.82-.396-1.706-.612-2.554-.952-1.065-.424-2.516-1.168-3.826-1.592-1.63-.528-4.175-1.169-5.946-1.593-1.546-.367-3.506-.49-4.674-.952-.914-.358-1.49-1.3-2.337-1.809-.886-.528-1.97-.952-2.978-1.385-2.196-.952-6.832-2.969-10.197-4.354-3.307-1.357-9.527-3.025-9.989-3.93-.461-.904 5.815-1.083 7.228-1.488.51-.151.952-.538 1.273-.952.48-.622 1.083-1.828 1.592-2.761.528-.97 2.347-2.205 1.593-3.082-1.452-1.696-7.869-5.465-10.31-7.115-1.423-.96-3.844-1.8-4.353-2.76-.51-.952.8-2.008 1.272-2.979.49-1.008 1.15-2.054 1.696-3.081.547-1.018 1.065-2.177 1.593-3.082.48-.81 1.083-1.545 1.592-2.337.707-1.093 1.772-2.94 2.658-4.25.838-1.234 1.95-2.827 2.657-3.609.434-.471 1.084-.678 1.593-1.065.527-.405 1.112-.867 1.592-1.385.622-.67 1-2.507 2.12-2.657 1.226-.16 3.77.565 5.202 1.696 1.49 1.168 2.8 4.042 3.723 5.315.575.8 1.347 1.79 1.81 2.337.291.339.64.622.95.951 1.348 1.414 5.702 6.729 7.116 7.54.867.499.735-1.895 1.385-2.658 1.253-1.47 4.212-6.832 6.163-6.163 1.95.669 4.42 8.198 5.522 10.196.34.613.707 1.282 1.065 1.81.32.48.735.904 1.065 1.385.707 1.027 2.243 3.11 3.185 4.778 2.478 4.353 9.556 17.603 11.685 21.353.264.462.801.707 1.065 1.169.358.622.726 1.696 1.065 2.554.443 1.13 1.065 3.166 1.593 4.25.405.82 1.027 1.517 1.592 2.233.688.867 1.838 1.885 2.554 2.978.961 1.451 2.083 3.864 3.185 5.739 1.093 1.866 2.413 4.07 3.402 5.522.773 1.122 1.95 2.46 2.554 3.185.34.406.782.726 1.065 1.169.358.546.537 1.526 1.065 2.12 2.13 2.394 11.638 10.46 11.694 12.213s-9.47-1.413-11.365-1.696z"/><path fill-rule="nonzero" d="M.223 221.829c.8-1.339 3.713-6.427 4.777-8.076.434-.679 1.216-1.103 1.593-1.81 2.78-5.277 12.43-24.379 15.087-29.854.452-.933.566-2.054.848-2.977.264-.858.5-1.725.848-2.554.886-2.12 3.45-7.822 4.458-10.197.565-1.328 1.178-2.648 1.592-4.033.528-1.79.302-5.343 1.593-6.69s4.25-1.687 6.163-1.386 3.505 3.525 5.315 3.185 4.354-3.91 5.522-5.202c.66-.735 1.112-1.64 1.489-2.553 1.065-2.564 2.78-10.96 4.89-12.854 1.96-1.762 5.598.537 7.756 1.489 2.045.904 4.194 3.28 5.202 4.25.434.415.405 1.187.848 1.592.585.528 1.772 1.065 2.658 1.593s1.932 1.065 2.657 1.593c.622.461 1.254 1.168 1.696 1.592.32.311.726.566.952.952.34.584.471 1.847 1.065 2.554 1.084 1.272 5.4 3.505 5.419 5.098s-3.789 3.628-5.315 4.457c-1.131.613-2.592.151-3.826.528-1.79.547-5.06 1.838-6.908 2.761-1.489.745-3.458 1.253-4.146 2.761-.886 1.932-1.376 5.862-1.169 8.82.217 3.063 4.298 6.842 2.441 9.566-1.894 2.78-9.282 4.598-13.805 7.114-10.583 5.9-41.436 23.54-49.72 28.252-.009.01.01.038.02.029"/></svg>