<?xml version="1.0" encoding="UTF-8" standalone="no"?>
<!DOCTYPE svg PUBLIC "-//W3C//DTD SVG 1.1//EN" "http://www.w3.org/Graphics/SVG/1.1/DTD/svg11.dtd">
<svg width="100%" height="100%" viewBox="0 0 242 300" version="1.1" xmlns="http://www.w3.org/2000/svg" xmlns:xlink="http://www.w3.org/1999/xlink" xml:space="preserve" xmlns:serif="http://www.serif.com/" style="fill-rule:evenodd;clip-rule:evenodd;stroke-linejoin:round;stroke-miterlimit:2;">
    <g transform="matrix(1,0,0,1,-29.2385,-4.79616e-14)">
        <g transform="matrix(9.44948,0,0,9.44948,-0.518694,2.76439)">
            <path d="M14.011,31.204C14.011,31.204 12.126,31.949 11.613,30.873C11.125,29.848 13.712,24.835 3.388,22.986C2.657,22.855 3.777,22.518 4.434,13.758C4.523,12.568 4.615,11.376 4.795,10.197C6.824,-3.132 23.849,-3.43 26.98,7.44C28.696,13.397 26.073,13.863 28.569,19.564C29.157,20.907 27.699,21.892 27.656,22.291C27.656,22.852 23.585,22.053 22.258,27.27C21.522,30.163 22.489,31.802 19.554,31.35C19.2,31.296 19.264,30.693 14.011,31.204ZM18.96,27.188C18.96,27.03 17.627,23.821 18.013,22.354C19.395,17.106 9.075,16.891 8.377,10.489C7.51,2.538 21.504,0.719 22.17,6.893C22.534,10.265 20.613,11.025 20.265,11.163C18.406,11.899 18.404,11.76 16.479,11.445C19.671,7.109 16.069,5.697 14.011,7.434C6.917,13.424 20.036,17.883 23.159,12.391C30.305,-0.172 5.631,-4.315 6.82,11.206C7.011,13.703 11.826,17.075 12.334,17.364C13.43,17.988 15.082,18.441 13.897,18.046C13.509,17.962 16.606,18.629 16.793,22.08C16.859,23.289 16.147,22.41 16.128,22.418C15.623,22.636 15.834,22.77 15.519,26.789C18.304,27.092 18.324,26.996 18.765,27.274C18.827,27.313 18.956,27.488 18.956,27.183L18.96,27.188ZM12.065,22.197C12.092,22.099 13.461,21.096 13.508,21.047C13.655,20.895 13.564,20.775 13.732,20.653C14.059,20.415 13.885,19.627 13.586,19.278C13.529,19.212 11.819,18.653 11.664,18.603C11.469,18.614 11.31,18.799 11.114,18.81C11.007,18.816 11.013,18.791 10.196,18.331C8.011,17.099 6.832,20.625 8.816,21.491C9.228,21.671 10.259,21.99 10.386,22.029C11.222,22.287 11.918,22.642 12.065,22.199L12.065,22.197ZM22.713,21.622C22.923,21.534 24.114,21.033 25.284,20.41C25.831,20.118 25.721,19.996 26.184,19.583C26.997,18.856 25.894,17.281 25.475,17.352C25.36,17.372 21.511,18.561 20.268,19.155C19.089,19.718 19.678,20.993 20.313,21.6C20.687,21.958 22.377,21.763 22.713,21.622Z" style="fill-rule:nonzero;"/>
        </g>
    </g>
</svg>
