<svg xmlns="http://www.w3.org/2000/svg" xml:space="preserve" fill-rule="evenodd" stroke-linejoin="round" stroke-miterlimit="2" clip-rule="evenodd" viewBox="0 0 300 300"><path fill-rule="nonzero" d="M191.653 298.875c-1.66-2.494 2.831-5.578 2.681-8.569-.056-1.106-7.95 2.747-7.95 2.747-8.934.038-53.353 14.906-110.456-25.247-3.778-2.653-29.897-21.018-29.897-49.387l-.103-9.966 5.681-.103c2.42-.056 54.854 66.722 99.01 56.25 25.687-6.094 8.41-30.019 34.378-35.034 1.256-.244 36.965-7.135 15.965 0-.759.15 14.691 7.303 8.897-1.407-2.756-4.153-1.453-4.368.029-32.371-16.313-3.507-24.376-7.754-22.726 8.587 2.625 25.95-16.668 14.503-47.043 49.397-2.466 2.831-12.047-11.044-12.853-12.216-5.541-8.015-9.582-1.612-10.603-1.612h-2.682v-11.147c0-18.047 13.247-24.066 14.775-22.285 10.313 12 15.572 15.188 23.147.77l2.035-3.75-3.854-3.648c-26.615-24.065-22.79-31.2-18.44-43.293 3-12.075 56.915-14.279 42.337-27.732-9.037-8.343-24.262-6.253-15.553-28.818.253-.666 13.331-34.988-4.64-7.585-1.36 2.072-.226 2.26-3.085 30.835l-2.147 10.397c-2.775.571-30.665 6.28-34.19 9.196-23.522 19.463-9.244 24.104-9 30-8.71-4.303-8.625-3.234-17.128-8.465-9.872-6.066-2.607 5.4-7.5 15.534-3.132-5.119-10.472-6.675-13.604-11.794-16.387-26.765 34.922-46.996 39.6-48.843 10.566-36.92 9.3-38.878 6.141-39-9.216-.347-7.237 26.615-16.06 30.309-38.756 16.228-32.118 36.29-73.94 32.887 1.434-5.165 7.144-8.446 8.578-13.612.638-2.278-4.134-4.35-3-6.431.975-1.79 23.006-3.488 28.697-14.138 11.41-21.356-38.906 1.556-36.975 18.638l.75 5.897h-3.319c-11.794 0-15.665-12.591-16.172-14.241C-1.95 108.628 25.837 98.1 8.822 98.728c-18.263.675 41.081-73.687 50.756-80.26 2.006-1.368 2.916 13.388 30.328-1.387 3.769-2.034 37.585-20.25 50.794-16.79 1.228.318-2.653 9.29 4.294 8.465 4.5-.534 75.553-8.953 56.587-2.69-.815.168 5.222 4.397-5.784 8.672-38.794 15.065 21.234-3.516 52.069 24.44-7.997 4.828-16.67-.9-12.432 7.5 9.272 18.394 52.107 30.666 46.707 36.863-2.85 3.272-9.9-.591-12.75 2.68.337 1.529 4.18 19.079 4.18 19.079 20.645 26.878 38.55 37.022 18.413 36.422-8.428-.253-5.221 4.519.113 31.837.947 4.857 3.59 12.507 3.75 12.647.347.244.61 11.531-5.25 14.025-7.94 3.375-4.875 5.353-5.363 14.044-1.218 21.61-5.268 24.122-6.318 28.931-3 .14-3.328-6.572-6.329-6.431-3.946.178-15.093 17.09-16.18 18.74-14.326 21.741-23.523 21.76-25.173 27.432-2.465 6.103-38.606 17.662-39.628 15.956zm61.294-38.25c-.225-.169-.488-.169-.628.103-.188.347-.188.947 0 1.294.065.131.178.234.328.225.347-.01.478-.385.525-.675a1.3 1.3 0 0 0-.225-.947m35.147-127.734c-.122-1.088-1.097-2.382-2.335-1.988-1.303.413-1.575 2.288-.59 3.15.619.535 1.781.825 2.475.263.431-.338.562-.91.45-1.425m-242.7-58.303c.272 1.078.844-2.354 4.715-7.172.77-.947-.506 1.65.244 1.743 1.313.178 3.844-9.872-6.984-4.293-3.675 1.884-3.103 2.971-3.825 3.356-.347.178-.76.14-1.125.262-1.669.553-.882 1.266-1.894 2.729-.403.44-1.116.515-1.51.956-.58.665-.374 1.772-.88 2.494-.826 1.153-1.079.825-2.147 1.771-.507.45 1.265.629 1.94.61 3.863-.131 4.435-2.381 7.931-2.785 1.435-.168 1.491-.009 2.682-.853.825-.581.6.188.853 1.181"/><path fill-rule="nonzero" d="M49.997 188.934c-2.569-2.68-4.613-5.568-4.613-6.318 0-2.25-3.318-5.897-5.362-5.897-3.216 0-5.897 4.5-5.897 9.965 0 2.785-.319 5.147-.75 5.363-.319.103-2.147-.853-3.853-2.147-3.319-2.466-3.319-2.353-5.569-22.078-1.397-12.216-.534-13.181 10.5-13.181 4.613 0 8.25-.535 9-1.285s1.931-1.284 2.681-1.284c2.353 0 5.682 3.534 5.682 6.112 0 1.397.43 3.32.965 4.397.647.966 1.397 4.069 1.716 6.966.431 2.784 1.069 4.819 1.716 4.5.534-.431.965 1.284.965 3.75s.75 5.784 1.716 7.5c1.181 1.819 1.5 3.965 1.069 5.784-1.07 4.182-4.716 3.432-9.966-2.147m1.819-6.853c0-.534-.216-1.069-.432-1.069-.318 0-.853.535-1.18 1.07-.32.646-.104 1.068.43 1.068.647 0 1.182-.431 1.182-1.069m-.75-3.543c.318-.854-.104-1.5-.854-1.5s-1.18.646-.853 1.5c.32.75.647 1.396.853 1.396.207 0 .535-.647.854-1.397"/></svg>