<svg xmlns="http://www.w3.org/2000/svg" xml:space="preserve" fill-rule="evenodd" stroke-linejoin="round" stroke-miterlimit="2" clip-rule="evenodd" viewBox="0 0 300 300"><path fill-rule="nonzero" d="M151.32 296.663c-.32-.8-1.346-3.452-1.826-4.834-.395-1.138-.714-2.352-1.072-3.443a122 122 0 0 0-1.072-3.123c-.452-1.27-1.072-3.028-1.609-4.514-.526-1.477-1.467-2.85-1.608-4.412-.197-2.154.085-6.65.442-8.493.198-1.016 1.26-1.947 1.721-2.577.32-.424.753-.762 1.073-1.186.611-.808 1.787-2.549 2.577-3.658.715-1.007 1.524-2.22 2.154-3.01.489-.612 1.326-.988 1.618-1.722.338-.846.903-2.417.432-3.33-.47-.912-2.455-1.636-3.226-2.153-.47-.32-.865-.79-1.401-.969-1.308-.433-4.299-1.082-6.453-1.618-2.238-.555-5.267-1.26-6.988-1.721-1.129-.3-2.342-.62-3.33-1.072-.922-.423-1.881-1.082-2.577-1.618-.602-.46-1.072-1.1-1.609-1.618-.526-.508-1.11-.96-1.608-1.505-.555-.611-1.43-1.279-1.721-2.154-.499-1.486-1.364-4.552-1.289-6.772s1.223-5.164 1.721-6.556c.254-.705.687-1.382 1.29-1.824 1.25-.932 4.73-2.87 6.235-3.763.922-.555 1.862-1.081 2.794-1.618.93-.536 1.965-1.166 2.793-1.617.706-.386 1.6-.715 2.154-1.073.452-.291.753-.761 1.185-1.072.668-.48 2.182-.931 2.794-1.825.611-.893.987-2.633.865-3.546-.113-.827-.95-1.41-1.608-1.937-1.345-1.072-4.628-3.226-6.453-4.515a427 427 0 0 1-4.514-3.226c-1.477-1.063-3.048-2.022-4.412-3.226-1.401-1.233-3.028-3.029-3.978-4.195-.687-.847-1.487-1.722-1.722-2.794-.451-2.079-1.57-6.49-.969-9.678.65-3.405 2.794-9.04 4.835-10.742 1.91-1.59 4.948.414 7.421.536 7.167.358 29.553.969 35.592 1.618.78.085.423 1.505.649 2.257.273.875.592 2.023.969 3.01.432 1.129 1.185 2.756 1.617 3.763.32.752.772 1.467.97 2.257.432 1.74 1.071 5.446 1.617 8.174.611 3.066 1.721 7.58 2.041 10.214.226 1.853.132 3.829-.103 5.587-.226 1.693-.621 3.377-1.289 4.948-.734 1.721-2.173 3.64-3.123 5.38-.903 1.655-1.721 3.885-2.577 5.05-.64.866-2.154.95-2.577 1.939-.837 1.984-2.775 7.383-2.474 9.998.273 2.36 3.311 4.571 4.299 5.7.423.489 1.185.592 1.617 1.072.537.611 1.204 1.655 1.618 2.577.433.97 1.12 2.117.969 3.226-.301 2.277-2.097 8.118-2.793 10.431-.358 1.186-.715 2.455-1.402 3.443-.677.988-1.796 1.787-2.69 2.474-.837.63-1.956.874-2.69 1.618-.931.95-1.853 2.784-2.906 4.082-1.204 1.486-3.829 2.727-4.299 4.834-.771 3.424-.263 11.626-.32 15.699-.037 2.906.95 7.242 0 8.71-.95 1.467-4.74.084-5.7.103-.028 0-.065.037-.075.01M89.166 295.807c-.16-.423-.63-1.88-.97-2.577-.281-.583-.658-1.12-1.072-1.618-.442-.536-1.241-.95-1.608-1.618-.536-.987-1.157-2.868-1.608-4.298-.442-1.41-.753-2.86-1.073-4.298-.357-1.618-1.072-3.584-1.072-5.38 0-1.797.715-3.951 1.072-5.38.273-1.101.659-2.202 1.073-3.227.404-.997.987-1.91 1.401-2.906.499-1.204 1.834-2.784 1.609-4.299-.283-1.919-1.882-5.54-3.33-7.205-1.326-1.523-4.176-2.163-5.38-2.793-.612-.32-1.232-.62-1.825-.969-.734-.433-1.815-.95-2.577-1.618-2.06-1.815-7.986-7.242-9.782-9.246-.659-.733-.894-1.815-.969-2.793-.179-2.333-.357-9.143-.103-11.184.075-.64 1.072-.714 1.608-1.072.536-.357 1.091-.687 1.608-1.072 1.364-1.007 4.816-2.831 6.556-4.948 1.806-2.2 4.731-5.7 4.299-8.277-.433-2.577-4.308-5.107-6.885-7.205-3.706-3.01-12.473-8.173-15.379-10.863-1.383-1.28-1.524-3.857-2.041-5.268-.386-1.062-.715-2.153-1.072-3.226s-1.073-2.154-1.073-3.226.715-2.239 1.073-3.226c.329-.903.64-1.825 1.072-2.69.451-.894 1.072-1.975 1.608-2.69.452-.612.875-1.43 1.609-1.618 2.078-.536 7.261-.978 10.863-1.618 4.054-.715 9.604-2.257 13.441-2.69 3.17-.357 7.6-.113 9.576.104.846.094 1.711.536 2.257 1.185.912 1.09 2.163 3.574 3.226 5.38 1.148 1.956 2.869 5.032 3.659 6.34.32.526.828.94 1.072 1.504.358.837.724 2.361 1.072 3.546.452 1.505 1.487 3.584 1.609 5.484.273 4.176.273 15.557 0 19.573-.104 1.59-.903 3.076-1.609 4.515-.912 1.862-2.407 4.562-3.875 6.669-2.154 3.085-9.227 7.9-9.03 11.823s8.033 8.014 10.215 11.72c1.853 3.141 2.634 7.327 2.907 10.534.244 2.925-.894 6.932-1.289 8.71-.16.724-.63 1.364-1.072 1.937-.452.574-1.072 1.054-1.608 1.505a22 22 0 0 1-1.609 1.186c-.31.206-.668.32-.969.536-.611.432-2.389.959-2.69 2.04-.715 2.616-1.665 9.98-1.608 13.658.047 2.869 2.154 6.198 1.938 8.39-.189 1.9-2.681 3.941-3.227 4.731-.01.01-.018.038-.018.028M215.937 283.335c-.245-.733-1.176-2.897-1.505-4.411-.414-1.9-1.166-4.647-.969-6.989.292-3.348 1.976-10.214 2.69-13.12.367-1.487.988-2.907 1.618-4.3.65-1.429 1.627-3.131 2.258-4.298.489-.903 1.843-1.721 1.504-2.69-.498-1.439-2.774-4.392-4.514-5.916-1.693-1.477-4.694-2.511-5.917-3.226-.507-.301-.893-.78-1.401-1.072-.63-.358-1.637-.612-2.37-1.073-1.026-.649-3.057-1.401-3.763-2.793-1.561-3.067-5.088-12.66-5.596-15.595-.188-1.082 1.881-1.543 2.577-2.041.508-.367 1.11-.602 1.618-.969.63-.451 1.514-1.063 2.154-1.721.828-.847 2.06-2.342 2.793-3.33.612-.809 1.28-1.618 1.618-2.577.433-1.232 1.646-3.34.969-4.835-1.251-2.774-6.217-9.03-8.493-11.823-1.505-1.853-4.073-3.875-5.164-4.947-.49-.48-1.157-.866-1.402-1.505-.47-1.242-1.42-4.571-1.401-5.916.01-.875 1.128-1.364 1.505-2.154.414-.866.555-2.041.969-3.01.63-1.486 1.862-4.43 2.793-5.916.724-1.157 1.44-2.832 2.794-3.01 3.348-.452 11.54.019 17.306.32 6.537.338 17.72 1.222 21.935 1.72 1.185.142 2.38.575 3.33 1.29 1.608 1.203 5.84 3.066 6.339 5.916.574 3.282-2.418 9.264-2.897 13.76-.47 4.383.809 10.177 0 13.225-.593 2.257-3.18 3.414-4.835 5.05-1.702 1.684-3.65 3.302-5.38 5.052-2.06 2.078-6.236 5.624-6.988 7.42-.537 1.28 1.646 2.503 2.473 3.33.696.697 1.637 1.092 2.474 1.618.865.537 1.947.875 2.69 1.618 1.524 1.524 5.662 4.618 6.452 7.525s-.968 7.524-1.72 9.895c-.518 1.627-2.004 2.897-2.794 4.298-.743 1.308-1.308 2.954-1.938 4.082-.527.95-1.044 1.938-1.825 2.69-1.015.988-2.83 2.201-4.298 3.227-1.665 1.166-4.195 2.727-5.7 3.762-1.138.79-2.596 1.298-3.33 2.474-.837 1.345-1.27 3.696-1.72 5.596-.5 2.116-.932 4.712-1.29 7.092-.432 2.831-.677 8.512-1.288 9.895-.386.875-1.975-1.345-2.37-1.618zM1.428 157.956c.01-.725-.103-2.878.104-4.299.32-2.182 1.11-5.897 1.824-8.813.753-3.047 2.672-6.18 2.69-9.462.02-3.857-2.163-10.789-2.577-13.657-.17-1.176-.94-3.104.104-3.556s4.072.997 6.132.856c2.098-.141 5.126-1.241 6.453-1.721.602-.217 1.138-.659 1.505-1.185.592-.847 2.878-2.681 2.04-3.876-1.42-2.003-7.44-5.558-10.534-8.173-2.812-2.37-6.556-6.076-8.06-7.525-.368-.357-.875-.686-.97-1.185-.122-.649-.32-1.966.217-2.69.658-.894 2.737-2.06 3.762-2.69.743-.452 1.562-.753 2.37-1.072.913-.358 2.08-.725 3.123-1.073 1.326-.451 3.584-1.072 4.835-1.608.96-.414 2.511-.583 2.69-1.608.357-2.08-.245-7.835-.536-10.864-.235-2.455-1.28-4.948-1.185-7.308.084-2.361 1.232-5.08 1.72-6.885.358-1.336.772-2.662 1.186-3.98.47-1.485 1.072-3.48 1.608-4.947.48-1.316 1.167-2.906 1.609-3.875.31-.668.715-1.42 1.072-1.937.301-.442.743-.762 1.072-1.185 1.486-1.938 6.415-8.39 7.854-10.432.376-.536.301-1.345.753-1.824 2.69-2.907 12.453-12.745 15.378-15.595.63-.611 1.326-1.213 2.154-1.505 2.36-.847 8.954-2.615 12.04-3.546 2.163-.649 4.354-1.449 6.452-2.041 2.022-.574 4.43-.95 6.132-1.505 1.42-.46 2.87-1.467 4.083-1.825 1.034-.3 2.144-.235 3.226-.329 2.737-.235 9.105-.715 13.224-1.072 3.838-.33 8.419-.894 11.504-1.072 2.323-.132 5.163-.18 6.988 0 1.364.131 2.662.677 3.979 1.072 1.542.46 3.48 1.241 5.267 1.721 2.135.574 5.747.931 7.525 1.721 1.326.593 1.928 2.201 3.122 3.02 2.22 1.523 7.92 4.693 10.215 6.132 1.223.762 2.455 1.533 3.546 2.474 1.524 1.307 4.205 3.875 5.587 5.38 1.025 1.12 1.806 2.436 2.69 3.659.894 1.232 2.013 2.934 2.69 3.762.386.47 1.035.696 1.402 1.185.508.659 1.223 1.787 1.618 2.794.507 1.288 1.072 3.264 1.401 4.947.536 2.747.79 7.76 1.825 11.504 1.166 4.232 2.53 10.807 5.164 13.873 2.51 2.925 7.336 4.336 10.647 4.515 3.283.179 7.186-2.154 9.246-3.443 1.505-.94 2.351-3.442 3.123-4.298.385-.433 1.025-.536 1.504-.856.612-.414 1.29-1.373 2.154-1.608 1.938-.536 6.293-2.032 9.463-1.609 3.743.508 10.534 3.556 13.008 4.628.79.339 1.345 1.25 1.825 1.825.413.489.573 1.194 1.072 1.608 1.524 1.251 6.095 5.107 8.06 5.916 1.205.499 2.813-.715 3.763-1.072.687-.263 1.373-.602 1.938-1.072 1.439-1.204 4.28-4.29 6.668-6.133 2.568-1.975 6.556-4.928 8.71-5.7 1.355-.489 3.34.395 4.195 1.073.828.649.912 2.454.969 3.01.019.244-.555.093-.65.32-.874 2.153-3.103 8.803-4.627 12.584-1.382 3.424-2.793 7.75-4.515 10.111-1.392 1.91-4.458 3.151-5.803 4.083a59 59 0 0 1-2.257 1.504c-.875.555-2.126 1.063-3.01 1.825-.913.79-2.991 2.032-2.474 2.907.517.884 3.65 2.135 5.587 2.37 1.938.235 4.609-.536 6.02-.969.94-.282 1.646-1.082 2.474-1.608 1.523-.97 4.354-2.954 6.668-4.195 2.634-1.411 6.763-3.292 9.143-4.299 1.674-.705 3.461-1.42 5.164-1.721 1.655-.292 3.376-.263 5.05-.103 1.74.16 3.593.667 5.38 1.072 1.957.451 4.873 1.072 6.34 1.608.922.339 1.665 1.044 2.474 1.609.846.592 1.768 1.222 2.577 1.937 1.364 1.204 4.073 3.208 5.587 5.267 1.599 2.173 4.515 5.7 3.979 7.741s-4.44 3.913-7.205 4.515c-3.283.715-9.857-.376-12.472-.216-1.148.075-2.342.451-3.226 1.185-1.92 1.599-7.78 5.916-8.278 8.39s2.944 4.929 5.268 6.452c2.868 1.881 8.493 3.565 11.936 4.835 2.859 1.053 6.668 2.06 8.71 2.793 1.222.443 2.793.546 3.545 1.609.866 1.223 1.214 3.762 1.618 5.7.452 2.173 1.11 4.975 1.072 7.308-.037 2.267.612 5.7-1.288 6.669s-6.725-.894-10.111-.856c-6.18.075-19.32 1.09-26.986 1.288-6.34.16-12.688-.122-19.028-.103-7.74.019-21.896.179-27.418.216q-2.85.015-5.7 0c-3.705-.018-11.343-.357-16.563-.103-4.938.235-9.82 1.12-14.73 1.618-5.163.517-13.083 1.222-16.234 1.505-.894.084-1.787.235-2.69.216-1.486-.038-4.148-.423-6.236-.433-6.274-.019-23.458.235-31.397.32-5.408.056-12.792.179-16.234.216-1.467.02-2.963.245-4.411 0-1.9-.32-4.76-1.015-6.989-1.937-2.295-.95-5.643-2.06-6.772-3.763s-.339-4.354 0-6.452c.338-2.097 2.718-4.082 2.04-6.132-.95-2.888-6.969-8.654-7.74-11.184-.49-1.608 1.787-2.944 3.123-3.979 1.777-1.382 5.568-2.915 7.524-4.298 1.571-1.11 4.91-3.264 4.195-3.979s-5.662-.48-8.493-.32c-3.132.18-8.183.903-10.318 1.402-.96.226-1.731.96-2.474 1.608-1.251 1.091-3.998 3.838-5.051 4.948-.498.517-1.514 1.044-1.289 1.721.574 1.759 3.622 6 4.732 8.813 1.015 2.568 1.72 5.86 1.937 8.061.17 1.73-.056 3.744-.649 5.164-.564 1.354-1.881 2.267-2.906 3.33-1.778 1.843-4.976 8.117-7.741 7.74-2.756-.376-7.205-8.032-8.823-9.998-.423-.517-.442-1.345-.856-1.825s-1.157-.714-1.608-1.072c-.395-.32-.771-1.486-1.072-1.072-.894 1.232-2.098 6.556-4.299 8.493-2.2 1.938-6.49 3.48-8.926 3.123s-4.214-3.687-5.7-5.267c-1.213-1.28-2.239-4.092-3.226-4.195-.988-.113-2.004 2.229-2.69 3.546-.79 1.523-1.232 4.204-2.041 5.587-.65 1.12-1.505 2.586-2.794 2.69-3.884.31-17.109-.706-20.533-.856-.01 0-.028-.019-.028-.028m56.454-63.762c.752-.16 3.028-.555 4.515-.97 1.542-.432 3.564-1.071 4.73-1.607.838-.386 1.703-.875 2.258-1.609 1.364-1.787 5.107-6.81 5.916-9.142.536-1.562-.714-3.669-1.072-4.835-.235-.771-.658-1.467-1.072-2.154-.81-1.345-2.145-4.298-3.763-5.916-1.608-1.608-4.57-2.953-5.916-3.762-.686-.414-1.354-.997-2.154-1.073-1.43-.14-4.656.16-6.452.217-1.43.047-2.944-.367-4.299.103-1.965.677-5.192 2.417-7.524 3.979-2.323 1.561-5.202 4.232-6.453 5.38-.451.414-.583 1.129-1.072 1.505-.752.574-2.728.837-3.442 1.937-1.43 2.201-4.666 9.152-5.164 11.287-.198.856 1.524 1.091 2.154 1.505.527.348 1.09.621 1.608.97.65.432 1.43 1.194 2.258 1.608 1.072.536 2.755 1.194 4.195 1.608 1.88.536 4.674 1.495 7.092 1.608 3.46.16 11.38-.545 13.657-.649z"/><path fill-rule="nonzero" d="M180.675 50.222c-.273-.593-.903-3.095-1.618-3.546-.715-.452-1.778.63-2.69.856-.95.235-2.258 1.072-3.01.536-.753-.536-1.12-2.465-1.505-3.763-.752-2.511-1.787-7.872-3.01-11.296-1.138-3.198-3.405-7.45-4.298-9.246-.273-.555-.668-1.044-1.073-1.505-.48-.555-1.279-1.166-1.824-1.825-.772-.93-2.822-2.2-2.794-3.762.038-1.74 2.06-5.267 3.01-6.669.602-.884 1.655-1.467 2.69-1.72 1.881-.462 5.738-1.092 8.606-1.073 2.87.019 6.472.291 8.607 1.185 1.824.762 3.301 3.226 4.195 4.195.451.489.809 1.072 1.185 1.608.367.527.686 1.091 1.072 1.609.536.715 1.204 2.05 2.154 2.69 1.326.893 3.922 2.417 5.803 2.69 1.844.263 4.12-.715 5.484-1.072.931-.245 1.797-.696 2.69-1.073.931-.395 1.938-.865 2.906-1.288 3.142-1.364 10.808-6.35 15.915-6.885 5.032-.527 11.597 2.803 14.73 3.659 1.401.385 2.972.573 4.082 1.504 1.185.988 2.276 3.01 3.01 4.412.658 1.241 1.006 3.047 1.401 3.978.245.574 1.57 1.43.969 1.609-1.148.338-5.23.367-7.854.432-2.728.076-5.803-.865-8.493 0-2.728.875-5.973 3.49-7.854 5.268-1.552 1.458-2.634 3.978-3.443 5.38-.555.96-.338 2.69-1.401 3.01-2.653.79-9.82.414-14.513 1.721-5.145 1.44-12.491 5.484-16.348 6.885-2.173.79-5.643 1.26-6.772 1.505z"/></svg>