<svg xmlns="http://www.w3.org/2000/svg" xml:space="preserve" fill-rule="evenodd" stroke-linejoin="round" stroke-miterlimit="2" clip-rule="evenodd" viewBox="0 0 300 300"><path fill-rule="nonzero" d="M146.7 298.774c-.256-.456-1.196-1.747-1.623-2.705-.541-1.225-1.111-3.095-1.624-4.652-.721-2.202-1.803-5.962-2.705-8.544-.817-2.335-1.984-5.192-2.706-6.92-.493-1.177-1.11-2.288-1.623-3.456-.541-1.243-1.168-2.952-1.623-3.996a33 33 0 0 0-1.082-2.269c-.418-.788-.997-1.623-1.405-2.487-.921-1.946-3.171-7.139-4.11-9.19a95 95 0 0 0-1.51-3.132c-.627-1.263-1.747-3.294-2.27-4.433-.35-.77-.607-1.652-.863-2.374-.228-.645-.683-1.262-.646-1.946.057-.883.504-2.287.969-3.35.54-1.225 1.424-3.171 2.269-3.997.712-.693 2.183-.2 2.81-.969 1.139-1.405 3.227-5.534 3.996-7.461.513-1.291.541-2.725.646-4.11.123-1.69.265-4.852.104-6.057-.076-.532-.76-.76-1.082-1.187-.484-.645-.836-2.278-1.842-2.705-1.642-.703-5.287-1.557-8.002-1.51-2.953.057-7.585.361-9.73 1.842-2.108 1.452-2.09 4.993-3.133 7.025-.921 1.794-1.966 4.509-3.133 5.193-1.158.683-2.687-.722-3.892-1.083a60 60 0 0 1-3.351-1.082c-1.984-.721-5.858-2.164-8.544-3.247-2.544-1.025-5.316-2.25-7.566-3.246-1.994-.873-3.92-1.89-5.943-2.706-2.23-.901-5.591-1.984-7.461-2.705-1.282-.494-2.8-1.082-3.788-1.623-.788-.428-1.48-1.187-2.164-1.624-.617-.389-1.244-.778-1.946-.968-1.367-.38-4.177-.873-6.266-1.3-2.383-.485-6.075-1.225-8.002-1.624-1.197-.247-2.782-.399-3.57-.76-.56-.256-1.452-.854-1.186-1.404.303-.646 1.984-1.89 3.028-2.487.987-.56 2.174-.693 3.246-1.083 2.507-.92 8.829-3.427 11.781-4.433 1.946-.664 4.101-1.082 5.943-1.623 1.709-.503 3.617-1.168 5.079-1.624 1.215-.38 2.534-.721 3.674-1.082a53 53 0 0 0 3.132-1.082c1.168-.446 2.63-1.082 3.892-1.623 1.234-.532 2.43-1.13 3.674-1.624 1.367-.54 3.028-1.082 4.538-1.623s3.38-1.168 4.538-1.623c.816-.313 1.547-.826 2.382-1.082 1.187-.361 3.19-.665 4.756-1.083 1.69-.446 4.12-1.082 5.402-1.623.854-.36 1.7-2.354 2.269-1.623.645.826.769 4.5 1.623 6.597 1.168 2.886 3.959 9.095 5.401 10.7.76.844 2.25-.722 3.247-1.083.911-.332 1.804-1.082 2.706-1.082s1.889.721 2.705 1.082c.74.332 1.88 1.832 2.165 1.082 1.006-2.648 3.73-11.164 3.892-16.964.18-6.427-2.544-14.98-2.81-21.606-.247-6.057.854-12.104 1.186-18.16.447-8.212 1.434-22.46 1.51-31.128.057-6.968-.636-17.03-1.082-20.866-.105-.892-1.083-1.547-1.624-2.164a12.7 12.7 0 0 0-1.623-1.51c-.503-.38-.997-.94-1.623-.968-.902-.038-2.601.257-3.788.76-1.263.54-2.62 1.528-3.788 2.487-1.784 1.48-5.392 5.117-6.92 6.38-.655.54-1.595.654-2.27 1.186-1.366 1.082-4.034 3.455-5.942 5.297-1.927 1.86-3.873 4.357-5.62 5.838-1.461 1.234-5.543 4.813-4.86 3.028 1.386-3.597 10.452-19.707 13.195-24.643.96-1.728 2.45-3.636 3.247-4.975.579-.968.997-2.022 1.51-3.028.987-1.927 3.512-6.74 4.433-8.544.38-.75.721-1.547 1.082-2.269.342-.693.76-1.348 1.082-2.05.446-.968 1.082-2.725 1.623-3.788.465-.911 1.082-1.766 1.624-2.591.522-.798 1.167-1.529 1.623-2.374.541-.987 1.016-2.41 1.623-3.57a76 76 0 0 1 2.706-4.65c.845-1.34 1.984-2.668 2.705-3.893.646-1.101 1.11-2.288 1.624-3.455.54-1.244 1.186-2.953 1.623-3.997.313-.76.598-1.538.968-2.269 1.443-2.848 6.228-11.856 7.67-14.809.447-.92.665-1.936.969-2.914.399-1.282.883-3.39 1.405-4.756.455-1.206 1.224-2.288 1.728-3.456.503-1.158.094-3.569 1.3-3.569s4.661 2.402 5.943 3.57c.949.873 1.281 2.468 1.727 3.455.37.807.646 1.661.969 2.487.883 2.25 2.886 7.547 4.329 11.021 1.376 3.304 3.332 7.766 4.328 9.835.437.921 1.168 1.68 1.624 2.592.54 1.082 1.186 2.81 1.623 3.892.342.854.617 1.737.968 2.592.427 1.063 1.082 2.525 1.624 3.787.54 1.263 1.1 2.516 1.623 3.788.541 1.32 1.073 2.743 1.623 4.11.703 1.728 1.709 4.282 2.592 6.266.845 1.898 1.86 3.816 2.705 5.62a322 322 0 0 1 2.374 5.192c1.927 4.272 7.385 16.651 9.189 20.439.399.835 1.186 1.452 1.623 2.269.541 1.006 1.187 2.82 1.623 3.787.304.693.608 1.386.969 2.051.427.797 1.072 1.813 1.623 2.705.56.902 1.263 1.804 1.728 2.706.446.864.949 1.747 1.082 2.706.18 1.3.541 4.47 0 5.078-.541.617-2.468-1.006-3.247-1.405-.503-.256-.958-.617-1.405-.968-.807-.646-2.41-1.823-3.455-2.914-1.244-1.291-3.01-3.617-3.997-4.86-.674-.846-1.158-1.861-1.946-2.592-1.708-1.586-6.702-5.582-8.325-6.92-.456-.38-.94-.722-1.405-1.083-.465-.36-.902-.778-1.405-1.082-.92-.56-2.838-1.358-4.11-2.269-1.567-1.12-3.228-3.427-5.298-4.433-2.07-1.007-6.047-1.899-7.129-1.614s.484 2.221.646 3.35c.322 2.25.94 7.073 1.3 10.158.323 2.772.608 5.544.864 8.326.522 5.582 1.747 19.802 2.269 25.185.228 2.383.712 4.746.864 7.139.341 5.496.968 17.438 1.186 25.83.21 8.174-.38 20.087.105 24.54.133 1.177 1.803 1.547 2.81 2.164 1.167.722 3.256 1.623 4.215 2.164.54.304.91.921 1.509 1.083 1.329.36 4.51 2.022 6.484 1.082 2.914-1.386 8.676-7.025 11.021-9.408 1.339-1.357 1.13-5.04 3.028-4.86 3.133.304 12.294 5.221 15.787 6.692 1.728.731 4.272 1.481 5.193 2.165.532.39-.237 1.595.323 1.946.864.541 3.436.92 4.86 1.3 1.225.323 2.468.589 3.674.969 2.895.902 10.66 3.427 13.727 4.433 1.557.513 3.057 1.234 4.652 1.623 2.287.56 6.474 1.026 9.075 1.728 2.24.608 6.218 1.585 6.503 2.468.294.883-3.228 2.174-4.766 2.82-1.405.598-3.047.721-4.433 1.082-1.3.342-2.61.674-3.892 1.082a2148 2148 0 0 0-16.974 5.516c-.873.294-1.747.598-2.591.968-1.367.598-3.845 1.547-5.62 2.591-4.775 2.81-18.844 12.208-23.04 14.259-.873.427-1.775-1.054-2.164-1.946-.76-1.728-1.244-6.484-2.374-8.43-.92-1.585-2.724-2.573-4.433-3.247-2.753-1.082-8.23-3.17-12.103-3.246-3.826-.076-9.674-.124-11.136 2.81-1.462 2.933 1.073 11.876 2.374 14.809.816 1.86 3.958 1.965 5.401 2.81 1.14.664 2.876 1.006 3.247 2.269.38 1.281-.228 3.74-.978 5.41-.798 1.766-2.649 3.551-3.788 5.193-1.054 1.52-2.24 3.532-3.028 4.652-.513.73-1.282 1.31-1.728 2.05-.446.731-.674 1.576-.968 2.374-.959 2.553-3.636 8.496-4.756 12.967-1.206 4.823-1.082 11.382-2.487 15.996-1.272 4.177-4.813 9.227-5.943 11.676-.437.95-.446 2.089-.864 3.029-.408.93-1.082 2.354-1.623 2.591s-1.367-.987-1.623-1.186c-.02-.01.076.01.066-.01m8.43-97.076c-.162-1.386.474-6.825-.968-8.325-1.443-1.49-5.82-.93-7.67-.646-1.377.219-2.83 1.13-3.456 2.374-.978 1.927-3.788 6.825-2.383 9.189s8.401 5.411 10.813 4.974c2.41-.427 3.066-6.303 3.673-7.566z"/></svg>