<svg xmlns="http://www.w3.org/2000/svg" xml:space="preserve" fill-rule="evenodd" stroke-linejoin="round" stroke-miterlimit="2" clip-rule="evenodd" viewBox="0 0 300 300"><path fill-rule="nonzero" d="M181.012 281.794c-1.191-.591-1.894-1.791-2.091-3.581v-.891c-.114-1.152-1.943-8.566-14.015 3.582l-.3.6c-1.987 2.184-3.778 3.478-5.372 3.872-1.988 0-3.281 1.387-3.872 4.172-.403 1.387-1.191 2.981-2.381 4.772l-.6.891c-4.347 7.493-10.657 1.802-11.334 1.191-5.569-5.569-13.322-11.728-23.259-18.488-3.075-1.538-9.56-.396-6.562 4.472 1.944 2.712 1.415 2.965-.6 5.662-3.581-3.581-9.544-8.25-17.897-14.016l-3.872-2.981c-2.578-1.791-4.772-3.675-6.562-5.662-3.384-3.384-8.456-6.356-15.206-8.944-1.067-.267-11.014-2.757-12.525-5.663-2.53-4.864 2.626-.07 7.753-1.782l5.662-2.091c1.191-.403 2.981-.703 5.372-.891 1.791 0 3.084-.103 3.872-.3l1.191-.3c5.1-1.38 5.186-1.179 8.653-5.072.591-.797 1.491-1.388 2.681-1.791.797 0 1.491.797 2.091 2.381.607 1.2 5.439 1.162 5.662.3 2.249-4.942 8.38-10.545 9.244-11.334l5.962-6.262c1.245-1.245 14.317-14.317 14.317-16.708q2.096-.888 4.472-3.872l1.791-2.681c.787-1.191 1.387-1.988 1.791-2.381l1.491-1.791c3.262-4.905 4.468-4.798 3.272-7.163l-.3-.6c-.197-.6-.797-1.294-1.791-2.091l-.891-.891c-2.25-3.299-8.174-8.552-8.943-9.234l-7.453-6.863q-.296-.605-1.491-1.491l-.6-.6c-.366-.537.256-3.489-4.023-7.153-3.677-3.149-9.772-9.842-10.584-10.734l-1.491-1.491c-.418-2.527 17.13-15.524 18.197-16.105.797-.591 1.884-1.584 3.281-2.981 1.791-2.184 3.375-3.478 4.772-3.881 2.713-2.97 26.398-19.349 22.068-24.75l-1.791-1.491-4.472-5.062c-6.025-1.489-10.764-12.131-11.335-13.415l-.6-2.091c-.787-1.987-1.584-3.478-2.381-4.472l-3.281-4.472q-3.868-5.074-5.962-7.153c-2.391-2.578-4.875-4.669-7.453-6.263-.891-.891.181-1.963.3-2.082 6.733-3.096 12.086-11.133 14.015-12.825l2.091-2.091 6.562-5.962 1.491-1.791c7.675-9.364 14.901-13.956 16.397-14.907 3.975-2.391 7.556-5.963 10.734-10.734l1.791-1.791c.994-.994 1.688-1.884 2.091-2.681.591 1.387.797 2.784.6 4.172l-2.982 6.862c-1.397.994-2.981 2.981-4.772 5.962l-2.091 3.281c-2.184 3.778-4.772 7.556-7.753 11.334-2.578 4.172-4.472 8.944-5.662 14.316-1.165 8.615.777 8.213 5.963 15.207 1.704 2.966 27.254 21.314 28.321 22.38l.6.6c.628.628 6.304 6.304 9.544 5.662h5.662c.881 0 1.331 3.941-1.49 5.963l-2.091 2.091c-5.962 6.366-10.134 11.334-12.525 14.906l-8.644 9.544c-1.17 1.442-12.981 15.998-15.496 17.286-1.044.744-3.195 7.957.3 10.444 1.264.647 7.707 7.923 8.344 8.643l10.734 10.734c1.791 1.791 2.981 3.281 3.581 4.472 2.206 3.429 5.994 5.588 8.459 8.836.82 1.08 1.65 6.996-1.896 10.542-.403.6-1.097 1.294-2.091 2.091l-.891.891c-2.054 2.868-2.848 3.843-5.062 1.19l-.6-.6c-.403-.403-.797-.403-1.191 0l-.3.891c-.591.403-.591.797 0 1.191l.3.3c2.375 1.784.67 2.169-.6 4.773-2.784 3.384-6.853 8.456-12.225 15.206l-5.072 6.563c-.591.797-1.191 2.184-1.791 4.172l-.891 2.091-.3.3c-.838.672.959 7.635 9.235 10.435l.6.3c1.988.787 3.375.994 4.172.6 2.981-.994 7.256-1.284 12.825-.891h6.262c1.339 0 1.306-.243 16.697-1.2h3.281c2.391.197 5.963.797 10.734 1.791l3.581.6c1.988.6 2.288 1.594.891 2.981l-7.453 5.062c-2.391 2.775-4.678 4.969-6.862 6.563l-8.344 6.262-6.862 6.863c-1.988 1.584-3.872 2.775-5.662 3.581-1.388.403-3.178 1.791-5.372 4.172zm-76.04-10.735c1.016-1.004 1.983-2.084.029-3.426-.868-.596-2.12.991-2.12 1.335.403.6 1.097 1.294 2.091 2.091M30.712 147.6h6.563v-3.281c0-.874.197-1.8.669-2.536 3.715-5.78 6.613-2.183 10.956-7.598 1.354.451 1.353.123 1.791-1.191l.3-.891c.994-.994 2.091-2.681 3.281-5.072.994-2.184 1.884-3.675 2.681-4.472 1.791-2.784 2.578-5.662 2.381-8.644-.403-2.194-1.387-4.969-2.981-8.353-1.584-2.578-4.069-6.263-7.453-11.034l-2.681-4.172c-1.987-1.584-4.369-4.472-7.153-8.644L28.922 68.887l-2.381-2.981c-.788-.591-1.191-1.387-1.191-2.381v-1.191c0-2.62 1.365-2.217 3.281-.3l1.491 1.491c1.253 1.46 1.826.584 17.596 16.396l3.281 3.281q5.667 5.667 11.925 8.944c.994.403 2.184 1.397 3.581 2.981l1.791 1.791c.873-.354 1.838.47 2.681.891.766.382 1.235 1.491 2.091 1.491 2.698 2.896 6.134 5.005 9.244 7.453 6.653 5.237 4.496 7.608 11.925 11.325l.891.6c3.527 2.012 2.246 7.589-1.5 9.834-1.191.6-1.987 1.191-2.381 1.791-1.584.197-3.572 1.397-5.962 3.581-4.631 4.631-9.064 4.229-5.063 9.543l2.681 3.581 2.091 2.981c.994 1.397 2.681 3.084 5.072 5.072l2.091 1.791c4.172 3.581 6.862 6.666 8.053 9.244 0 .559.837-.256 5.372 4.472.918.957 7.936 8.273 10.134 13.125.403 1.388.797 2.391 1.191 2.981.51.504 7.964 7.864.292 8.954-.797.403-1.791 1.191-2.981 2.381l-2.981 2.681c-.97.81-1.758 1.818-2.681 2.681-2.159 2.018-4.148 4.257-6.562 5.962-2.184 1.791-3.778 3.178-4.772 4.172-.541 0 .249.898-5.072 4.472-1.191.591-2.578 2.381-4.172 5.372l-.3.6c-.396.81-1.67 1.003-1.782.891-.557-.816-1.985 1.634-10.894-5.823-.638-.534-7.777-6.51-8.204-6.404-3.778-3.178-9.647-7.359-17.597-12.525l-.891-.891c-.591-.591-1.087-.994-1.491-1.191-1.594-.994-2.091-2.381-1.491-4.172.925-1.377 9.882.637 10.445.6 3.095-.34 10.186.946 10.434 1.191 2.421.807 7.288-3.024 7.603-4.922.458-2.754-11.18-10.174-13.566-10.884-.197 0-.3-.103-.3-.3l-.3-.3c-.403-1.594-1.791-3.281-4.172-5.072-1.397-1.191-2.391-2.091-2.981-2.681l-.891-1.191c-.193-.325-1.841-3.096-3.882-2.691 0-.49-.466-.147-4.482-4.173l-.891-1.191c-.994-1.987-2.091-3.178-3.281-3.581l-.3-.6-.891-.891c-1.388-.787-3.084-2.784-5.072-5.962zm39.366 29.522c0-1.798-.638-1.516-2.32-2.139-2.148-.796-3.055-2.294-3.799-2.189-.675.096-2.281 2.742-.49 3.979.21.145 2.319.99 2.64 1.705.11.244-.163 2.037 1.279 1.316l.891-.6c.151-.076 1.688-.853 1.819-1.076.041-.069.194-.33-.028-1.006zm-2.381-66.197c-.15.102-1.283.875-1.757 1.441-.722.863-.298.999-.034 3.331.439-.173.955-.07 1.394-.242.398-.157.439-.957.444-1.048zm140.747 118.678c-.591 0-1.491-.197-2.681-.6-9.186-1.516-9.155-.972-18.187 1.491-2.184.403-5.269.6-9.244.6h-5.662c-6.031 0 8.942-16.735 9.234-17.596 0-.591.497-1.294 1.491-2.091l1.191-.891 23.859-23.859c1.163-1.163 2.557-2.687 2.381-4.322-.244-2.262-1.055-1.851-13.125-11.175-5.166-3.581-9.141-6.262-11.925-8.053-1.467-.742-5.984-3.342 8.945-18.498 2.194-1.791 5.072-4.866 8.644-9.244 1.097-1.305 13.519-13.706 13.116-14.916l1.791-1.191c4.917-3.145 4.061-3.745 7.753-8.353l1.191-1.191c1.191-.994 2.184-1.688 2.981-2.091 2.295 0 1.337-2.641 3.572-2.082.197 0 .403-.3.6-.891l.3-.6c.488-.247 11.112-10.841 11.634-11.624l.6-.891q.602-.888 3.581-2.381c1.191-.797 2.784-2.381 4.772-4.772l2.681-2.681c.365-.271 5.425-.012-.3 5.672l-.6.6c-.862 1.104-11.503 18.219-12.234 19.687-.523.979-6.516 12.186-6.554 12.224l-.6.6c-1.988 1.397-3.075 2.888-3.281 4.472-1.387.797-2.588 2.484-3.581 5.072-.2.598-.638.341-3.882 6.862l-1.191 1.791-.6 1.791c-.797 1.791-1.594 3.084-2.381 3.881-.995 1.496-1.618 3.446-1.341 5.222.765 4.902 2.406 3.689 12.375 11.775l7.453 5.662q2.982 2.095 7.453 6.862c4.286 4.281 6.895 3.993 4.772 7.154-.197 0-.497.197-.891.6-1.988 1.594-4.669 4.275-8.053 8.053-2.981 3.178-5.269 5.475-6.862 6.862-1.397.994-2.091 2.194-2.091 3.581.197.797-.197 1.491-1.191 2.091-4.384 6.429-5.416 5.406-10.135 11.625-2.188 2.766-4.752 5.227-6.863 8.053-2.122 2.841-.754 3.375-2.682 6.262-.591 1.791-1.791 2.484-3.581 2.091-.197-.197-.497-.403-.891-.6h-1.791zM1.191 205.453c4.29 4.29 6.35-1.328 11.025 2.382.64-.214.574.239 8.343 1.2h1.491c1.594-.197 3.872.103 6.863.891l1.491.3 2.682 1.5c1.397-.197 3.487 0 6.262.6l2.381.6h1.191c.725 0 1.373-.501 2.091-.6 1.48-.203 3.188-1.064 4.472-.3l1.491 1.491 3.581 2.681 3.281 2.681c5.072 4.572 4.912 4.584 11.034 7.453l2.981 1.191 2.681 2.091c1.424.696.686 2.205.6 2.382l-3.882 5.962c0 .403-.6.497-1.791.3h-.6l-1.491.3c-2.65 0-4.731 3.071-10.734-1.2l-.3-.3c-2.184-1.791-4.275-3.075-6.263-3.872-1.151-.285-1.952-1.352-2.981-1.941-1.061-.607-2.058-1.641-3.281-1.641-.693-.694-1.297.545-11.025-5.362-.538-.327-1.161-.6-1.791-.6h-.6c-1.397.197-2.587-.3-3.581-1.491-1.397-2.194-3.581-3.478-6.562-3.872-1.228-.498-10.984-4.453-15.207-6.563-.471-.296-5.072-3.183-5.072-4.762v-.3c0-.797.403-1.191 1.191-1.191zm227.831 26.841c-1.865-4.652 2.431-10.575 2.981-11.334l1.191-2.091c.934-1.846 10.978-14.801 11.024-14.915 1.191-1.594 2.588-1.594 4.172 0l.3.3c2.524 2.492 3.668-.253 4.773.3h.3c4.172.403 7.753-.394 10.734-2.381h2.091l11.625-1.5c1.424 0 2.558-1.255 3.873-1.8.378-.157.823-.48 1.191-.3 1.987.403 4.772-.197 8.353-1.791l1.491-.6c4.382-1.882 6.473.21 6.862.6-.901.615-1.909 1.058-2.831 1.641-.967.612-2.029 1.125-2.831 1.941l-1.191.6c-.668-.338-1.526-.373-2.241-.15-.88.275-5.401 1.687-10.284 5.213l-1.191.891c-2.775 2.184-7.059 4.575-12.825 7.153l-4.172 1.791c-9.775 4.942-9.489 5.198-19.386 10.145l-2.681 1.491-.891.6-.6.6c-2.568 3.249-3.279 1.948-9.843 3.591z"/></svg>