<svg xmlns="http://www.w3.org/2000/svg" xml:space="preserve" fill-rule="evenodd" stroke-linejoin="round" stroke-miterlimit="2" clip-rule="evenodd" viewBox="0 0 300 300"><path fill-rule="nonzero" d="M157.8.15h5.1c3-.197 5.297-.197 6.9 0 2.4.403 4.603 1.097 6.6 2.1.6.403 1.903.3 3.9-.3q1.8-.9 2.7-.9c9.591-.806 21.197.797 34.791 4.8 5.006 1.603 12.403 3.797 22.191 6.6l11.1 3.3h1.2q2.996.296 3.6 1.8c.797 2.597 2.297 4.903 4.5 6.9 1.406 1.2 3.6 2.803 6.6 4.8 1.997 1.397 3.497 2.503 4.5 3.3 3.403 2.597 5.7 4.65 6.9 6.15q1.8 2.25 1.8 4.95c0 1.8-.6 4.706-1.8 8.7-1.997 6.797-3.6 11.897-4.8 15.291-2.203 5.606-4.697 10.294-7.5 14.091-1.8 2.597-3.497 3.9-5.1 3.9s-2.7-.347-3.3-1.05-1.097-1.847-1.5-3.45c-3.797-10.594-8.503-19.491-14.091-26.691-7.2-9.994-17.194-17.691-29.991-23.091q-4.5-2.109-10.8.9c-6.3 3.009-7.697 5.006-10.5 9-.6.6-1.2 1.697-1.8 3.3s-1.153 2.747-1.65 3.45-1.2 1.153-2.1 1.35-2.447-.703-4.65-2.7c-1.397-1.2-2.503-2.006-3.3-2.4l-1.8-.9c-2.794-1.594-4.903-2.4-6.3-2.4-2.4-.197-4.8.9-7.2 3.3-.806.6-2.4.806-4.8.6-1.397 0-3.6-.403-6.6-1.2l-1.5-.3c-18.994-3.797-38.991-3.797-59.981 0-2.4.403-6.15.9-11.25 1.5s-8.85 1.097-11.25 1.5c-4.2.797-7.95 1.894-11.25 3.3s-8.044 4.003-14.241 7.8c-5.4 3.197-9.497 5.503-12.3 6.9l-1.5.9c-1.2 1.003-2.194 1.547-3 1.65s-1.5-.45-2.1-1.65l-.9-1.5c-1.003-1.8-1.5-3.197-1.5-4.2 0-1.603 1.003-3.197 3-4.8 12.394-9 23.588-16.491 33.591-22.491C68.813 24.656 80.86 18.365 92.56 13.368s26.747-8.691 45.131-11.1l4.8-.6c6.797-1.2 11.897-1.706 15.291-1.5zm92.363 84.572c0 .6-.103 1.303-.3 2.1 0 1.603-.197 2.7-.6 3.3-4.603 8.006-10.894 20.194-18.891 36.591-5.4 11.194-9.497 19.537-12.3 25.041s-6.3 8.25-10.5 8.25c-8.006 0-15.094 2.297-21.291 6.9-4.997 3.797-9.797 9.394-14.391 16.791q-20.687 33.286-15.891 69.581c0 1.603.3 3 .9 4.2q1.504 4.796 0 8.55c-1.504 3.754-3.094 4.35-6.3 5.55-4.003 1.397-8.306 3.497-12.9 6.3-2.597 1.603-6.6 4.2-12 7.8-7.2 5.006-12.797 8.503-16.791 10.5-.6.197-1.453.797-2.55 1.8s-2.053 1.603-2.85 1.8c-1.003.403-1.903.3-2.7-.3-1.406-1.406-.6-4.303 2.4-8.7 4.2-4.997 7.397-11.203 9.6-18.591 1.406-4.397 2.897-11.194 4.5-20.391 1.406-7.603 2.597-13.191 3.6-16.791 3.197-10.594 6.197-19.594 9-26.991 3.6-9.394 7.5-17.794 11.7-25.191 12.394-20.991 27.487-34.791 45.281-41.391 6.394-2.4 11.794-6.197 16.191-11.4 3.6-4.003 6.9-9.591 9.9-16.791 8.006-18.591 13.997-34.884 17.991-48.881.797-2.794 1.847-4.35 3.15-4.65s2.747.45 4.35 2.25c2.597 2.597 4.903 6 6.9 10.2 1.2 2.4 2.597 6.103 4.2 11.1z"/></svg>