<svg xmlns="http://www.w3.org/2000/svg" width="300" height="300" viewBox="0 0 300 300"><title>weapons-dagger</title><path d="M217.313 71.147q5.23-1.167 9.591-5.231c2.128-1.941 4.453-4.65 6.975-8.138l1.453-1.744c3.103-4.266 5.616-7.163 7.556-8.719 2.709-2.325 6.591-5.906 11.625-10.753 6.197-6.009 10.997-10.369 14.391-13.078s5.962-6.103 7.706-10.172c.769-2.709 2.616-4.069 5.522-4.069h.581c1.556 0 2.709-.094 3.488-.291 1.162-.581 1.941-1.547 2.325-2.906.384-.769.966-1.209 1.744-1.303s1.256.253 1.453 1.022q.576 2.039 3.488 5.231c1.162 1.547 2.034 2.813 2.616 3.778 1.163 2.325 1.838 4.941 2.034 7.847.197 1.941.197 4.65 0 8.137q-.002 3.192-4.069 5.231c-3.103 1.163-6.197 3-9.3 5.522-1.744 1.547-4.266 3.966-7.556 7.266-2.709 2.906-4.847 5.034-6.394 6.394-.384.384-.778 1.256-1.162 2.616l-.872 1.744c-1.359 2.325-2.522 3.975-3.487 4.941q-2.32 2.32-5.372 2.616c-3.052.296-4.209 1.941-6.544 5.231-1.744 2.906-5.138 6.881-10.172 11.916l-3.197 3.487q-4.064 4.359-4.219 6.975c-.155 2.616 1.303 4.163 4.219 7.266l2.616 2.906c3.094 3.103 5.569 5.381 7.416 6.834s2.709 2.766 2.616 3.919c-.103 1.153-1.313 2.325-3.628 3.487l-5.231 2.906c-3.3 2.128-6.881 1.65-10.753-1.453l-11.044-10.463c-1.547-1.556-2.906-2.278-4.069-2.175s-2.522.919-4.069 2.475c-.581.966-1.744 2.325-3.487 4.069l-2.616 3.197c-2.709 3.291-3.872 6.581-3.487 9.881s2.325 6.197 5.813 8.719c2.709 1.941 4.116 3.581 4.219 4.941s-.919 3.394-3.056 6.103c-3.684 4.266-9.881 10.078-18.6 17.438l-9.009 7.847-2.906 2.616c-8.916 8.334-15.788 14.241-20.634 17.728-1.941 1.547-3.094 2.813-3.488 3.778-1.162 1.941-2.709 3.881-4.65 5.813-1.162 1.162-3 2.813-5.522 4.941l-1.744 1.744c-15.891 14.334-27.703 26.156-35.456 35.456-2.522 3.094-6.488 6.394-11.916 9.881l-4.65 2.906c-4.847 3.094-8.625 5.138-11.334 6.103s-6.394 2.616-11.044 4.941c-3.872 1.941-6.778 3.3-8.719 4.069l-5.813 2.325c-14.728 6.197-25.969 10.266-33.712 12.206-2.522.581-6.009 1.941-10.463 4.069l-5.231 2.034c-.384.384-.675.581-.872.581-1.556.769-2.709 1.256-3.487 1.453-1.359.188-2.372-.15-3.056-1.012s-.825-1.641-.431-2.325 1.069-1.509 2.034-2.475l9.009-8.719c10.847-11.044 18.797-19.472 23.831-25.284q15.989-17.733 40.978-42.722c5.231-5.231 12.984-13.463 23.25-24.703l5.231-5.813c3.487-3.684 8.916-8.906 16.275-15.694 9.3-8.719 16.087-15.497 20.344-20.344 4.65-5.231 11.822-12.694 21.506-22.378 6.197-6.197 10.753-10.847 13.659-13.95 6.009-6.394 11.241-11.138 15.694-14.241.769-.581 1.941-1.65 3.488-3.197 2.325-2.906 2.419-5.812.291-8.719-1.162-1.941-2.522-3.872-4.069-5.813-.966-1.163-1.547-2.175-1.744-3.047s.291-1.837 1.453-2.906 1.453-2.091.872-3.047-1.847-1.547-3.778-1.744c-1.941-.197-3.094-.684-3.487-1.453s0-1.931 1.162-3.487c.197-.384.684-1.069 1.453-2.034l1.162-1.163c.966-1.359 1.987-2.081 3.056-2.175s2.325.591 3.778 2.034 3.919 3.534 7.416 6.253c2.709 2.128 4.65 3.684 5.813 4.65 2.128 1.941 3.778 3.872 4.941 5.812.384.581.975 1.256 1.744 2.034q2.334 1.165 3.628.431c1.294-.734.919-1.509.141-3.047-.769-.581-1.359-1.162-1.744-1.744s-.488-1.256-.291-2.034zm42.14-9.591c0-.975-.581-2.128-1.744-3.487l-.581-.291q-2.911-2.616-5.963-6.103c-3.052-3.487-4.116-2.709-6.244-1.162-2.128 2.128-2.128 4.266 0 6.394l8.719 7.847c1.359 1.162 2.662 1.359 3.928.581s1.894-2.034 1.884-3.778zm-44.175 43.885c0-.197-.094-.487-.291-.872l-.291-.581c-2.522-5.034-6.3-8.822-11.334-11.334-1.744-1.359-3.197-1.209-4.359.431s-.534 3.197 1.884 4.65 4.303 2.766 5.672 3.919c1.744 1.744 3.103 3.684 4.069 5.812q1.153 1.744 2.616.872c1.547-.384 2.231-1.359 2.034-2.906zM96.122 246.394c-.581.581-1.453 1.256-2.616 2.034-.581.384-1.256 1.022-2.034 1.884s-1.453 1.406-2.034 1.603c-1.162.384-2.034 1.069-2.616 2.034s-.628 1.791-.141 2.475.919 1.022 1.303 1.013.956-.3 1.744-.872 1.359-.872 1.744-.872c2.709-.188 5.034-2.034 6.975-5.522.769-2.325 0-3.581-2.325-3.778zm149.962-134.269c-1.162.581-1.641 1.547-1.453 2.906.197.581.534 1.022 1.013 1.303s1.013.337 1.603.141c1.162-.384 1.547-1.163 1.162-2.325-.384-1.359-1.162-2.034-2.325-2.034z"/></svg>