<svg xmlns="http://www.w3.org/2000/svg" viewBox="0 0 300 300"><path d="M120.628 105.844q1.8-1.8 5.709-3.009l2.409-.9c1.809-.403 2.916-1.359 3.309-2.859s-.403-2.859-2.409-4.059l-3.909-2.709c-10.022-7.013-17.784-11.925-23.297-14.728s-9.975-5.709-13.378-8.719c.6-1.397 1.8-1.903 3.609-1.5 8.222.797 20.344 1.003 36.375.6h13.828c2.813 0 4.509-1.5 5.109-4.509 1.397-4.209 2.503-9.112 3.309-14.728.403-3.206 1.003-8.119 1.8-14.728l.3-3.609c.797-4.406 1.8-11.222 3.009-20.438.403-1.2 1.2-3 2.4-5.409l1.2-1.8.9 1.5c2.409 4.603 3.806 8.109 4.209 10.519 1.2 5.616 4.003 12.722 8.419 21.337q1.8 3.612 4.809 10.219c.797 1.406 1.603 2.259 2.4 2.559s1.903.056 3.309-.75l.3-.3c.403-.197.6-.403.6-.6 2.203-2.212 5.906-5.212 11.119-9.019 3.806-3.009 6.713-5.306 8.719-6.909 3.009-2.803 5.606-5.606 7.819-8.419 1.2-1.809 3.403-4.106 6.609-6.909l1.2-1.2C227.022 8.562 232.038 3.949 235.441.94c1.003-1.003 1.8-1.2 2.4-.6.403.197.6.9.6 2.1-1.003 1.809-2.1 4.612-3.309 8.419-1.603 4.819-3.103 8.222-4.509 10.219-5.213 8.822-9.422 18.534-12.628 29.156l-4.509 14.128c-1.809 5.616.197 8.419 6.009 8.419h27.356c1.603 0 3.9-.403 6.909-1.2l3.909-.9c2.606-.197 4.659 0 6.159.6s3.047 1.8 4.659 3.609c-2.006 1.2-4.913 3-8.719 5.409-4.209 2.813-7.509 4.809-9.919 6.009-10.219 4.603-19.734 9.713-28.556 15.328-2.803 1.603-3.403 4.116-1.8 7.519l7.819 13.228c3.206 6.216 6.516 11.822 9.919 16.837a8.97 8.97 0 0 1 1.2 4.509c0 1.003-.197 2.409-.6 4.209s-.6 3.056-.6 3.759-.356 1.106-1.05 1.2-1.453-.047-2.25-.45l-4.209-2.1c-4.2-1.809-7.116-3.516-8.719-5.109-3.206-3.009-8.513-6.712-15.928-11.119-4.406-2.606-7.716-4.706-9.919-6.309-.806-.797-1.706-1.2-2.709-1.2-1.809-.6-3.159-.553-4.059.15s-1.05 1.95-.45 3.759c.403 1.2.806 3 1.2 5.409l.9 4.209c.6 1.603.497 2.709-.3 3.309l-.9.9c-1.809 2.006-3.262 3.216-4.359 3.609s-1.959 0-2.559-1.2l-.3-.3c-1.2-2.203-3.909-4.809-8.119-7.819l-.9-.6c-1.809-1.003-3.262-1.397-4.359-1.2s-2.353 1.106-3.759 2.709c-3.403 4.603-8.119 11.719-14.128 21.338l-4.209 6.909q-1.209 1.505-.9 3.909c0 1.003.3 2.503.9 4.509.797 3.009.947 4.903.45 5.709s-2.156 1.8-4.959 3.009l-3.909 1.8c-4.003 1.809-6.816 3.309-8.419 4.509-2.803 2.213-4.706 4.912-5.709 8.119-.403 1.603-1.706 3.703-3.909 6.309l-.9.9c-4.809 6.216-10.631 15.131-17.438 26.756-.797 1.406-2.203 3.403-4.209 6.009-2.813 3.609-4.706 6.413-5.709 8.419-1.603 3.403-4.612 8.316-9.019 14.728-3.009 4.2-5.212 7.416-6.609 9.619-3.403 5.616-9.122 13.828-17.137 24.647l-.6 1.2c-.6.806-1.106 1.406-1.5 1.8s-.947.347-1.65-.15-.947-1.003-.75-1.5.703-1.153 1.5-1.95l.9-1.2c1.603-2.409 3.9-5.906 6.909-10.519l4.209-6.009c.403-.403.6-.703.6-.9l.3-.9c.403-.797.647-1.5.75-2.1s-.253-1.2-1.05-1.8-1.453-.75-1.95-.45-1.153.947-1.95 1.95l-.3.3c-1.397 1.397-2.803 2.4-4.209 3.009-2.813.6-5.316 2.1-7.519 4.509-.6 1.397-1.706 1.8-3.309 1.2-.806-.403-1.2-1.303-1.2-2.709v-.6l4.209-14.428c.797-1.809.703-3.009-.3-3.609q-2.404-.9-3.909 1.8c0 .403-.3.9-.9 1.5q-1.195 1.8-3.009 1.35c-1.814-.45-2.409-.15-3.609.45-.797.197-1.8.703-3.009 1.5l-1.8 1.2c-1.397 1.003-2.503 1.097-3.309.3-.6-.403-.853-.9-.75-1.5s.45-1.2 1.05-1.8c1.603-1.809 3.6-4.809 6.009-9.019 1.809-3.412 3.206-5.812 4.209-7.219 2.006-2.606 4.116-4.706 6.309-6.309 1.809-1.2 4.012-3.909 6.609-8.119l1.5-2.4c2.606-4.406 7.013-10.913 13.228-19.538 4.603-6.609 8.016-11.616 10.219-15.028 5.616-8.822 9.928-15.131 12.928-18.938 3.806-5.409 4.106-10.922.9-16.528-.6-1.2-.75-2.156-.45-2.859s.956-1.556 1.95-2.559q2.097-1.8 7.219-1.8c5.016 0 9.422-2.203 13.228-6.609 6.009-8.016 10.725-15.431 14.128-22.247.806-1.603 1.809-4.313 3.009-8.119l.3-.9c.197-1.397-.197-2.597-1.2-3.609-3.009-3.609-6.309-6.112-9.919-7.519-.197 0-.6-.197-1.2-.6zm9.319 42.384c-2.606-.403-4.313.403-5.109 2.409-.197.6-.703 1.097-1.5 1.5l-.9.9c-1.603 1.603-2.513 2.803-2.709 3.609s.3 2.213 1.5 4.209c.197.6.806 1.509 1.8 2.709l1.2 1.2c1.003 1.2 2.297 1.997 3.909 2.4 1.003.197 2.4.403 4.209.6h2.1c1.003 0 1.697-.497 2.1-1.5.403-.6.806-1.809 1.2-3.609l.6-1.8c1.003-1.809 1.003-3.909 0-6.309-.806-4.003-3.609-6.112-8.419-6.309zm6.909-7.209c0-1.406-.806-2.1-2.409-2.1-1.003 0-1.753.103-2.25.3s-.656.797-.45 1.8c.197 1.603 1.2 2.306 3.009 2.1.6 0 1.106-.197 1.5-.6s.6-.9.6-1.5m21.647-81.76c-.197-.806-.403-1.303-.6-1.5s-.6-.197-1.2 0c-1.809.403-2.709 1.509-2.709 3.309 0 1.2.703 1.8 2.1 1.8 1.603-.6 2.4-1.8 2.4-3.609z"/></svg>