<svg xmlns="http://www.w3.org/2000/svg" width="300" height="300" viewBox="0 0 300 300"><title>weapons-spear</title><path d="M46.969 298.012c-.806-1.2-1.003-2.297-.6-3.3 0-.6.403-1.5 1.2-2.7l.3-.3c1.406-2.4 3.806-5.906 7.209-10.509 2.203-2.794 3.806-4.903 4.809-6.309l1.2-1.5c4.406-5.813 7.613-10.209 9.609-13.209 3.403-5.006 5.962-9.666 7.659-13.969s4.856-9.862 9.459-16.669l3.3-4.809c2.194-2.794 4.406-7.603 6.609-14.419l3-9.009c1.2-3.206 1.303-6.309.3-9.309s-2.906-5.409-5.709-7.209a22 22 0 0 0-3-1.5c-1.997-1.2-3.094-2.297-3.3-3.3s.197-2.4 1.2-4.2c1.8-3.806 3.094-6.113 3.9-6.909 1.2-1.2 2.503-1.697 3.9-1.5 1.2.403 3.703 1.5 7.509 3.3 4.809 2.203 8.409 4.406 10.809 6.609l-.9 1.5c-.797.797-1.2 1.603-1.2 2.4s.403 1.453 1.2 1.95c.806.497 1.453.703 1.95.6s1.05-.553 1.65-1.35l.6-.6c2.803-3.403 6-8.916 9.609-16.519 1.8-3.609 3.253-6.356 4.35-8.259s2.653-4.959 4.659-9.159l2.4-5.409q2.095-3.896.9-6.609-.604-.9-.9-3.15c-.296-2.25-.497-2.55-.9-3.15-.403-1.003-1.2-1.706-2.4-2.1-3.609-1.397-7.912-1.603-12.909-.6-3.6 1.2-6.909 1.997-9.909 2.4-1.406.197-2.503.197-3.3 0s-1.453-.703-1.95-1.5-.6-1.697-.3-2.7.853-1.8 1.65-2.4l7.209-7.209c5.606-5.812 9.909-9.909 12.909-12.309 2.203-1.594 5.306-4.2 9.309-7.809l4.2-3.9c2.803-2.4 6.9-5.906 12.309-10.509q9.914-8.409 14.569-12.909c4.655-4.5 7.762-7.106 13.969-12.309s10.716-9.206 13.519-12.009c7.603-7.603 19.116-16.809 34.538-27.628 2.597-1.8 6.403-4.903 11.409-9.309l2.7-2.4c1.003-1.406 2.1-2.4 3.3-3 .197-.6.553-1.003 1.05-1.2s1.05-.103 1.65.3.703 1.097.3 2.1c-.197 4.209-1.303 10.416-3.3 18.619l-9.609 39.337c-3.206 13.613-5.906 23.719-8.109 30.328-.6 1.603-1.35 4.153-2.25 7.659s-1.753 6.159-2.55 7.959c-1.406 4.003-3.206 10.116-5.409 18.319s-4.116 14.316-5.709 18.319c-3.403 8.409-5.906 17.812-7.509 28.228-.197 1.603-.806 4.106-1.8 7.509-.797 2.794-1.303 4.856-1.5 6.159s-.6 2.053-1.2 2.25-1.397-.206-2.4-1.2c-4.809-4.406-7.809-8.606-9.009-12.609-.806-2.597-2.606-6.103-5.409-10.509l-.6-1.2c-1.406-3.206-3.703-3.909-6.909-2.1l-3.9 2.4c-5.606 3.403-9.966 6.112-13.059 8.109s-5.156 4.406-6.159 7.209q-.9 3.6-4.5 10.209c-1.003 1.603-1.35 3-1.05 4.2s1.256 2.4 2.85 3.6c10.416 6.806 18.216 12.009 23.428 15.619 1.603 1.2 2.4 2.147 2.4 2.85s-.703 1.547-2.1 2.55c-1.997 1.2-4.303 3.506-6.909 6.909-1.397 1.8-2.494 3.094-3.3 3.9-1.397.197-2.1-.103-2.1-.9-2.597-7.809-8.006-11.006-16.219-9.609-4.603.797-9.909 2.606-15.919 5.409-4.8 2.4-8.409 5.7-10.809 9.909-1.603 2.4-4.003 5.803-7.209 10.209-3 3.609-5.109 6.412-6.309 8.409l-1.8 3c-5.203 8.203-9.009 14.316-11.409 18.319-4.003 7.003-7.209 13.509-9.609 19.519-.6 1.603-1.397 2.897-2.4 3.9-1.8 1.997-3.45 2.85-4.959 2.55s-3.056-1.65-4.659-4.05l-1.2-1.5c0-.197-.103-.3-.3-.3l-.6-.3c-1.2.6-2.7 1.894-4.509 3.9-1.003 1.2-1.8 2.006-2.4 2.4l-.9.9c-.6.6-1.097.947-1.5 1.05s-.853-.047-1.35-.45c-.506-.403-.703-.9-.6-1.5s.347-1.397.75-2.4v-.3c1.003-2.203 1.35-3.9 1.05-5.109s-1.247-2.409-2.85-3.6c-1.997-1.8-3.703-1.65-5.109.45s-2.353 3.75-2.85 4.959a13.1 13.1 0 0 1-1.95 3.3c-.6.6-1.603 1.397-3 2.4zm118.022-167.868v6.609c0 .797.253 1.35.75 1.65s1.153.347 1.95.15 2.147-.75 4.05-1.65 3.347-1.556 4.35-1.95c3.806-1.2 6.216-3.797 7.209-7.809.6-2.597 2.1-6.403 4.5-11.409l1.2-2.4 1.2-3c1.603-3.806 2.597-6.712 3-8.709 1.2-4.2 2.803-7.809 4.809-10.809l4.5-7.509c4.003-7.003 7.313-12.009 9.909-15.019 1.003-.6 1.706-1.903 2.1-3.9.797-1.603.6-2.803-.6-3.6-.6-.197-1.153-.15-1.65.15s-.853.647-1.05 1.05l-3.3 3.6c-5.409 5.409-9.206 9.712-11.409 12.909-7.003 9.609-16.716 21.628-29.128 36.037-1.397 1.8-2.203 3.094-2.4 3.9q-.9 2.404 0 4.809.295 1.8 0 4.809v2.1zm-44.438 69.665c0 1.997.656 3.75 1.95 5.259s2.644 2.062 4.05 1.65q5.413-1.505 6.609-5.709 1.8-4.809-1.8-8.409-.9-.9-1.8-1.35c-.9-.45-1.397-.356-2.4-.15q-2.404.9-4.5 3.6c-2.096 2.7-2.1 3.506-2.1 5.109zM174 213.628c0-1.2-.356-1.8-1.05-1.8s-1.05.497-1.05 1.5c0 .403.103.797.3 1.2s.497.497.9.3zm-45.047-33.037v-.3h-.6c-.197.197-.3.356-.3.45s.197.15.6.15c-.197-.197-.103-.3.3-.3"/></svg>