<svg xmlns="http://www.w3.org/2000/svg" xml:space="preserve" fill-rule="evenodd" stroke-linejoin="round" stroke-miterlimit="2" clip-rule="evenodd" viewBox="0 0 300 300"><path fill-rule="nonzero" d="M38.681 99.441c4.481 2.241 9.741 4.228 15.778 5.944 3.45 1.209 8.709 2.672 15.778 4.397 13.831 3.549 14.04 4.885 16.285 3.103h2.841c-.347-1.378-1.125-2.419-2.325-3.103-.986-.744-2.254-1.01-3.366-1.547-1.56-.754-3.431-1.093-4.65-2.325-3.966-1.378-8.1-3.366-12.413-5.944-2.587-1.378-6.291-3.797-11.119-7.237l-2.587-1.809c-2.241-1.378-5.775-3.281-10.603-5.691-6.805-2.698-10.617 6.274-8.785 9.562.684 2.072 2.409 3.619 5.175 4.65zm143.785-67.229c.347 1.041.862 2.766 1.556 5.175l.262 1.809q.002 1.293.778 2.841l.516 3.881c.516 3.45.863 6.038 1.031 7.753v1.031c.347 5.344 0 10.425-1.031 15.253l-.262.516c-.178.862-.441 1.462-.778 1.809q.267.506 0 1.547l-.516 2.325q-.776 1.814-.778 4.134v1.547l.262 1.547c.347.684.778 1.031 1.294 1.031h.262l.516 1.031v-1.294l.778-.778c.169-.684.262-1.725.262-3.103v-3.881l1.031-5.175c.307-.598.967-.96 1.294-1.547a.87.87 0 0 0 0-.778v-.263c0-2.756.694-6.722 2.072-11.897.684-2.756 1.116-4.828 1.294-6.206l.778-3.103c.684-2.934.947-5.091.778-6.469l-.262-2.072c.338-.862.6-1.894.778-3.103v-1.809l.516-1.031c1.247-2.9-.535-6.948-.778-7.5 0-1.491-1.556-.766-1.556-2.325v-.778c-.545-2.206-3.852-2.791-6.723.779l-.516.516-1.031 2.072-1.031 1.556c-1.209.863-1.378 2.156-.516 3.881-.347.347-.431.684-.262 1.031zm-31.294 151.013c2.074 6.229 11.126 11.485 14.738 9.056l.516-.262c.268-.107 2.053-.822 2.443-2.657.16-.755-1.017-2.339-1.149-2.517l-.516-.516c-2.409-3.103-6.553-5.606-12.412-7.5-.684-.347-1.547-.169-2.588.516l-.778.516c-.443.216-.66 2.189-.254 3.366zm60.769-16.547q1.294-.773 2.588-2.588l2.072-4.134c.347-.347.778-1.041 1.294-2.072l.778-1.294q1.293-2.067 3.881-6.722c.714-1.011 6.101-8.639 5.428-14.484.071-1.029.53-7.711-8.025-10.088l-.778-.263c-1.2-.178-2.072-.431-2.588-.778-3.572-1.191-2.112-3.033-5.681-4.66l-1.556-.778c-1.398-.86-8.759-5.386-13.706-15.263-.471-1.21-3.457-8.872-13.969-8.269q-8.283 0-16.031 5.175a4.1 4.1 0 0 0-1.031.778l-3.103 1.031-1.809.263c-2.072.516-3.619 1.031-4.659 1.547h-.778c-4.091-.685-11.937 1.76-12.938 2.072l-2.588.778c-6.375 1.725-12.844 4.397-19.397 8.016l-7.762 2.85-5.428 3.366c-7.584 5.006-13.453 8.447-17.587 10.341l-2.587 1.031c-1.547.684-2.588 1.2-3.103 1.547l-19.397 11.381c-8.1 4.65-14.044 8.363-17.841 11.119q-2.186 1.44-4.397 2.841-4.655 2.585-6.722 4.397c-2.934 2.409-6.806 5.175-11.634 8.278l-9.047 8.279c-.162.162-1.557 1.557-.263 2.85l.263.262c1.259 1.292 1.067 1.312 2.587 2.071l.778.262c.57.318 3.807 2.121 8.015-1.547 1.209-.347 2.156-.862 2.841-1.556 0-.169.169-.431.516-.778h3.881c5.733 0 4.772 3.891 4.649 4.387l-2.072 2.587c-2.409 3.103-4.397 5.259-5.944 6.469-.684.862-1.809 1.987-3.366 3.366l-1.809 1.809c-1.041.863-2.156 1.988-3.366 3.366l-.778.778c-1.894 1.547-2.841 3.188-2.841 4.912v1.031l-3.366 10.866-2.588 8.016-1.547 3.103q-1.814 3.364-1.547 4.912c-1.725 5.175-3.188 8.972-4.397 11.381l-2.588 6.722c-.189.504-2.259 6.033-.262 6.722v.262h.516c2.409-.684 3.966-2.588 4.65-5.691.738-4.026 3.923-8.405 4.397-9.056l2.588-4.134 4.912-5.682c1.725-1.556 4.659-3.534 8.794-5.944 1.378-.516 2.588-1.209 3.619-2.072l.516-.516c5.522-3.619 13.359-7.059 23.531-10.341 10.088-3.363 10.088 17.647 10.088 19.396v1.294c-.054.317-.528 3.09 1.031 3.881h.262l1.294.516c.862 0 1.462-.084 1.809-.262.684-.178 1.294-.778 1.809-1.809l.263-.516c.684-1.378 1.125-2.409 1.294-3.103l.263-1.294a369 369 0 0 1 2.325-6.469l3.366-5.691 4.65-7.763 5.944-9.056.778-2.072c3.281-4.828 6.291-8.7 9.047-11.634 1.378-1.378 3.281-3.619 5.691-6.722l2.588-2.325c1.547-1.388 2.672-2.503 3.366-3.366l.516-.262c1.209-.684 2.072-1.725 2.587-3.103l1.031-2.841c1.095-1.628.292-1.718-3.103-11.906l-2.325-6.206c-.178-.684-.263-1.2-.263-1.556l.778-1.294c3.508-2.098 2.963.587 8.015 6.985 3.356 4.025 4.369 9.811 8.138 13.453 4.197 4.055 14.509-.762 15.647-1.294l2.072-1.294c1.631-1.098 7.21-4.851 23.785 6.205 3.996 2.666 10.323 15.639 21.975 7.499l.516-.516c1.378-1.041 2.419-1.903 3.103-2.587l1.031-.778c1.894-1.894 3.272-3.45 4.134-4.659.862-.862 1.378-1.641 1.556-2.325 1.783-3.615.084-3.418-2.072-6.713l-.516-.778a129 129 0 0 0-9.047-10.603c-1.849-2.148-15.305-7.793-10.856-13.444 5.388-5.388 1.041-14.116 1.041-19.397v-1.547c0-2.409.262-3.966.778-4.65 1.209-1.209 3.272-2.156 6.206-2.841l.262 3.103c.338 3.619.338 6.375 0 8.278l-.262.778c-.862 1.378-1.041 2.841-.516 4.397 0 3.619 1.041 6.206 3.103 7.762 1.209 1.547 2.672 2.325 4.397 2.325 1.378.347 2.503.516 3.366.516h6.722c4.797 0 2.772 3.548 2.587 3.872l-2.841 2.841c-1.269 1.269-1.694 6.855-1.04 7.5.442 3 4.407 6.991 4.913 7.5.427.334 4.404 3.444 6.459 2.062zm-48.357 41.119c-2.459-1.484-4.266-3.849-6.469-5.691-2.542-2.125-4.704-4.933-7.762-6.206-1.547-.516-2.156-1.378-1.809-2.588 0-.178.084-.347.262-.516.347-.516.684-1.209 1.031-2.072l.263-.516q.776-.776.778-2.072l-6.469-7.762c-.862-1.209-1.987-1.547-3.366-1.031-.516.347-.778 1.031-.778 2.072v.516c-.347.684-.084 1.894.778 3.619l.778 1.809q.774 2.841 0 3.881c-.549 1.591-3.131-.105-3.356-.253-3.619-1.547-8.269-1.725-13.969-.516-1.264.225-.953 1.036-15 5.691-.178 0-.347.262-.516.778l-1.031 1.294 1.547-.262.263.262c.516.347.947.516 1.294.516h1.031c5.842 0 11.552-5.144 27.412 3.103l1.294.778c4.828 2.588 8.269 4.744 10.341 6.469.684.684 1.809 1.641 3.366 2.841l1.556 1.294c2.934 2.934 4.828 5.344 5.691 7.237 2.756 4.819 3.881 10.162 3.366 16.031l-1.556 7.237c-.862 2.756-2.072 5.775-3.619 9.047l-.778 1.294c-4.134 6.028-7.669 10.341-10.603 12.928-.215 0-.753.808-.516 1.293l.516.262c1.997 0 10.826-5.445 15.262-10.856l1.556-1.556 1.556-1.809q1.814-1.814 2.588-3.881l.262-1.031a35 35 0 0 0 1.809-4.397l1.031-2.072q.776-1.561.778-2.588v-3.881c.67-13.625-1.293-13.254-7.237-25.603zM88.331 85.481q1.026 8.789 10.603 11.897 1.814.774 5.428 1.547l1.031.263 5.175.778c6.375 1.031 12.675 1.031 18.881 0 1.031 0 2.756-.347 5.175-1.031 6.544-2.241 12.412-5.606 17.588-10.088.516-.347 1.125-.947 1.809-1.809l2.325-2.325c.389-.341 3.862-3.389 3.881-5.166v-1.294l.516-1.031c.347-.684.684-1.725 1.031-3.103v-.263h.262c.508-1.094 3.263-7.025 1.556-15-.178-1.556-.694-3.703-1.556-6.469l-1.031-4.134-.262-1.547c0-1.2-.169-2.072-.516-2.587-1.894-3.45-4.734-6.816-8.531-10.087-.684-.347-1.2-.253-1.556.263-.118.124-.758.798.516 2.072 0 .347.084.778.262 1.294l.262.262c2.756 3.272 4.388 7.847 4.913 13.706-.178 1.031-.178 1.809 0 2.325 0 .178.084.347.262.516.347 7.584-1.209 14.569-4.659 20.944-2.588 3.272-4.744 5.775-6.469 7.5-2.756 2.588-5.691 4.566-8.794 5.944q-12.684 5.429-22.5 5.175h-5.944c-2.072.178-4.828-.337-8.278-1.547l-1.809-.516c-5.233-2.075-5.622-6.021-5.691-6.722-.453-1.742-3.288-2.606-3.356-2.325l-.516.263c-.516.516-.609.947-.263 1.294 0 .347.084.684.263 1.031zm133.181 27.413c.347.169.947.6 1.809 1.294.482.302 4.263 2.666 6.722 2.325 2.459 1.052 19.432 8.317 33.104-4.65l.516-.516c1.945-1.943 1.818-2.017 1.818-4.66v-1.547l-8.015 4.135-1.031.516c-.862.516-1.556.694-2.072.516-4.967-.572-10.021.459-15 0-2.583-.238-5.148-.979-7.5-2.072l-1.809-1.031c-2.587-1.387-4.491-2.503-5.691-3.366q-2.59-2.335-3.619-5.428l-.516-1.547q-2.067-5.428-2.841-8.016c-1.894-7.931-2.156-14.569-.778-19.912.347-1.031 1.031-2.756 2.072-5.175.38-.38-.347-.718 3.103-5.953l5.175-8.531.778-.778c1.378-.862 1.641-2.156.778-3.881q-1.026.52-2.841 1.547c-1.894.862-3.188 1.641-3.881 2.325l-3.881 4.913q-3.363 4.135-4.913 6.469l-.516.778c-.399.569-3.356 4.788-3.356 8.015v1.031c-.347 1.378-.516 2.419-.516 3.103-2.592 19.706 6.106 31.173 7.762 33.356q1.561 3.108 5.175 6.722zm37.238 52.237h-12.412l-4.659 1.556c-4.481 1.547-7.753 2.841-9.825 3.881-3.103 1.725-5.175 3.534-6.206 5.428l-1.031 1.809c-1.894 1.894-4.05 4.913-6.469 9.047l-.778 1.031c-.571 1.083-4.922 9.335-4.922 14.484-.862 4.828-1.2 9.309-1.031 13.444 0 16.447 13.484 27.762 15.526 29.475l1.031.778c1.2 1.041 2.147 1.294 2.841.778.231 0 3.242 0 1.294-2.587l-1.032-2.062c-3.223-1.075-6.102-6.308-6.469-6.975l-1.809-3.103c-1.547-2.409-2.494-4.481-2.841-6.206-.684-2.409-.431-4.819.778-7.237.178-.516.178-1.294 0-2.325v-5.175c0-1.378.169-3.45.516-6.206 3.694-14.669 5.391-17.508 6.206-18.872.516-.516 1.125-1.294 1.809-2.325l1.031-1.294c.516-.862 1.472-1.809 2.841-2.841l.262-.262c1.725-1.547 4.313-3.534 7.762-5.944h.262v-.262c.684-.347 1.547-.862 2.588-1.556l2.072-1.294a93 93 0 0 1 8.278-3.366c1.378 0 2.503.084 3.366.262 1.94 0 2.201-2.062 1.041-2.062zm41.119-30c-.072-.492-.643-4.397-4.397-4.397h-1.031c-2.191 0-4.316.756-6.469 1.162-12.466 2.353-12.419 2.075-13.444 2.456h-1.556c-.516 0-.863-.084-1.031-.263-1.547-1.031-3.356-1.378-5.428-1.031q-1.814 0-5.428 1.294l-2.072.516c-1.209.516-2.156.694-2.841.516-3.644-.406-9.081 1.54-9.834 1.81.169.347.516.684 1.031 1.031l.516.516v.263l4.397 1.031c9.994 1.894 17.494 3.441 22.5 4.65h.778c.347.178.862.262 1.556.262l10.603 2.072c3.45.516 6.731-1.294 9.825-5.428 2.827-1.599 2.381-5.914 2.325-6.46M198.497 262.106q-.52-.505 0-2.841c.347-5.006-.6-9.141-2.841-12.413-1.235-2.063-1.118-4.68-1.809-6.984-.345-1.151-1.14-2.174-1.294-3.366-.178-.684-.262-1.809-.262-3.366v-2.072q.267-2.588 0-3.881a30.9 30.9 0 0 0-3.881-11.634l-.516.516v.516l-.262 2.325c-.347.862-.431 1.463-.262 1.809.347 5.522.516 9.572.516 12.15l-.262 11.119c-.178.684-.262 1.631-.262 2.841v1.031l-.516 5.691v1.294c-.347 6.384.431 11.644 2.325 15.778l1.556 6.206c.516 1.041 1.125 1.641 1.809 1.809l.262.262c1.872 1.259 2.286-.33 2.334-.515v-.516q1.294-1.027 2.841-5.428c2.738-5.479.868-9.587.525-10.341zm32.578-218.259c0-.024.005-.164-.053-.174-.049-.009-.032.03-.462.427h.262v.263z"/></svg>