<svg xmlns="http://www.w3.org/2000/svg" xml:space="preserve" fill-rule="evenodd" stroke-linejoin="round" stroke-miterlimit="2" clip-rule="evenodd" viewBox="0 0 300 300"><path fill-rule="nonzero" d="M153.9 218.691q-8.226-.591-14.4-3.234c-1.575-.778-4.219-1.369-7.941-1.762h-.591c-.197-.197-.534-.291-1.031-.291h-1.031l-1.763-.591c-1.959-.778-3.047-1.472-3.234-2.063-.788-1.172-1.566-3.131-2.353-5.878l-.591-1.762c0-.394.291-.881.881-1.472l.291-.291q5.287-8.521 12.938-17.634l17.934-22.05c1.959-2.353 4.219-5.588 6.759-9.703a133 133 0 0 1 4.997-9.113c.984-1.378 1.425-2.747 1.322-4.116s.534-2.063 1.913-2.063h.591c.591 0 1.078.094 1.472.291q.591.295.591 1.322t.591 1.322c.394.197 1.078.291 2.063.291 2.747.197 5.437-.591 8.081-2.353s4.556-4.313 5.728-7.641q2.351-6.469 2.353-12.347c.394-6.666-2.259-11.372-7.941-14.109-1.172-.591-2.541-1.763-4.116-3.525l-2.063-2.063c-.984-.591-2.447-1.369-4.406-2.353l-3.234-1.763c-1.959-.984-4.613-2.841-7.941-5.588l-2.944-2.353c-1.378-1.172-3.431-3.037-6.169-5.588-1.959-1.959-3.478-3.534-4.556-4.706s-2.203-1.856-3.384-2.063c-1.763-.197-3.131 0-4.116.591s-1.669 1.763-2.063 3.525c-.778 2.747-2.353 4.5-4.706 5.287l-1.763-1.763c-2.934-2.747-4.8-5.091-5.588-7.059-.394-1.172-1.669-2.841-3.825-4.997-1.172-1.172-1.959-2.053-2.353-2.644l-1.763-2.353c-5.878-8.428-10.584-14.503-14.109-18.225-2.156-2.353-5.194-6.075-9.112-11.175s-7.05-8.822-9.403-11.175l-3.525-4.406q-3.53-4.12-5.287-5.878c-.591-.591-.684-1.472-.291-2.644q.593-.886 1.763 0l5.588 1.762c4.313 1.172 7.444 2.25 9.403 3.234 0 .197.094.291.291.291 2.156-.394 5.1 0 8.822 1.172 2.934.778 5.091 1.172 6.469 1.172.591 0 1.472.094 2.644.291l.591.291c2.353.984 6.178 1.959 11.466 2.944 4.509.787 7.838 1.566 9.994 2.353.984.394 2.447.684 4.406.881 2.747.591 4.65 1.228 5.728 1.913q1.617 1.03 5.147 1.172c2.353.094 4.022.337 4.997.731 2.747 1.172 6.563 1.566 11.466 1.172h.591q2.055 0 2.944.591l.291.591c.591.394.591.788 0 1.172-1.172.778-1.762 1.566-1.762 2.353s.291 1.866.881 3.234q.886 2.053.731 3.234c-.155 1.181.291 1.575 1.172 2.353.881.787 1.903 1.369 3.084 1.762s2.55 1.369 4.116 2.944l1.762 1.762c5.681 5.288 10.584 9.019 14.7 11.175 1.575.787 3.919 2.156 7.059 4.116 4.313 2.747 7.547 4.603 9.703 5.588 1.566.591 3.722 1.763 6.469 3.525l3.525 2.063c1.762.984 3.281 1.322 4.556 1.031q1.913-.436 3.966-2.503c2.934-2.747 4.603-6.469 4.997-11.166v-5.588c0-.984.347-1.669 1.031-2.062s1.425-.244 2.203.441c.787.684 2.062 1.622 3.825 2.794s3.047 2.156 3.825 2.944c1.575 1.172 3.919 2.747 7.059 4.706 2.55 1.566 4.416 2.747 5.588 3.525 1.959 1.369 4.95 3.131 8.962 5.287s6.9 3.863 8.672 5.147a858 858 0 0 0 7.641 5.438l5.587 3.825 1.762 2.063c.984 1.575 1.856 2.55 2.644 2.944l7.059 5.878c.778.787 1.369 1.275 1.762 1.472-.591 1.763-1.322 3.038-2.203 3.825s-2.203 1.078-3.966.881c-1.762-.197-3.431.291-4.997 1.472q-1.758 1.18-3.825 3.825c-1.762 2.353-4.8 5.484-9.113 9.403-3.141 3.141-7.547 8.034-13.228 14.7l-5.288 6.169c-1.959 1.959-4.322 5.391-7.059 10.284l-3.234 5.878c-2.55 3.919-4.706 6.666-6.469 8.231-.984.778-2.063 2.156-3.234 4.116-.984 1.566-1.856 2.747-2.644 3.525a1369 1369 0 0 1-29.1 29.981c-1.369 1.172-3.534 2.55-6.469 4.116-2.353 1.172-4.069 2.109-5.147 2.794s-2.597 1.425-4.556 2.203q-4.12 1.758-5.878 3.234c-.778.394-1.959.684-3.525.881-1.172 0-2.053.094-2.644.291-5.287 1.369-12.741 1.866-22.341 1.472-.778-.197-1.172-.591-1.172-1.172.394-.197.881-.291 1.472-.291h1.472c.984-.591 1.519-1.125 1.613-1.612s-.253-1.022-1.031-1.613c-.787-.591-1.622-.488-2.503.291s-1.228 1.856-1.031 3.234zm28.219-145.51q.591-2.054 0-3.825c-.394-.778-1.087-1.959-2.062-3.525l-1.172-1.763c-.778-.984-1.472-1.519-2.063-1.612s-1.669.047-3.234.441c-1.959.778-3.487 1.275-4.556 1.472s-1.856.591-2.353 1.172q-.746.872-1.322 2.644l-.591 1.472c-.591 1.762-.684 3.037-.291 3.825l1.172 2.353q1.758 3.825 3.825 5.147c2.067 1.322 2.7 1.425 3.966 1.612s2.4-.103 3.384-.881l.591-.291q2.938-2.067 3.825-3.234 1.474-2.35.881-4.997zm112.593 29.4c0-.787-.291-1.219-.881-1.322s-1.275.244-2.063 1.031l-.291.291c-.197.591.197.881 1.172.881h.591q1.474.002 1.472-.881M10.453 253.087c0-1.378.488-2.55 1.472-3.525.591-.591 1.575-1.275 2.944-2.062q7.355-5.287 11.756-9.703c1.762-1.762 4.022-4.603 6.759-8.522l1.172-1.472c1.959-2.156 3.431-3.722 4.406-4.706l1.762-1.762c2.156-2.353 3.525-4.209 4.116-5.588q1.181-2.94 5.878-7.059c1.369-1.172 3.038-3.234 4.997-6.169 1.762-2.55 3.234-4.416 4.406-5.588 1.575-1.762 3.722-4.5 6.469-8.231 3.328-4.509 5.878-7.744 7.641-9.703l2.053-2.353q12.345-13.824 17.053-21.459v-.591c2.156-2.156 4.856-5.681 8.081-10.584s5.831-8.325 7.791-10.284c1.172-1.378 2.644-3.731 4.406-7.059l1.763-3.234q3.234-5.583 11.166-15.581l3.234-4.116c3.525-4.903 7.153-8.916 10.875-12.056.778-.778 1.763-2.156 2.944-4.116l.881.291c1.172.197 1.959.487 2.353.881 1.566 1.575 4.313 3.628 8.231 6.169 2.747 1.566 4.706 2.794 5.878 3.675s2.597 2.306 4.266 4.266q2.504 2.939 3.825 3.966c1.321 1.027 1.275 1.219 1.172 1.612-.103.394-.638.891-1.613 1.472l-1.472.591c-.787 1.959-2.541 4.509-5.287 7.641s-4.603 5.681-5.588 7.641c-1.566 3.141-4.406 7.35-8.522 12.638l-2.644 3.234c-.591.787-1.566 1.856-2.944 3.234l-1.762 2.063-3.525 4.406c-5.484 6.469-9.403 11.372-11.756 14.7l-.591.591c-3.141 4.509-5.784 7.453-7.941 8.822l-2.944 2.944-4.706 6.469c-4.706 6.853-8.531 11.653-11.466 14.4-1.959 3.525-5.297 8.625-9.994 15.291-3.722 5.091-6.375 9.009-7.941 11.756q-1.474 2.643-4.706 7.791c-3.232 5.148-3.722 6.028-4.706 7.791l-3.234 5.587c-3.919 6.666-6.563 11.756-7.941 15.291q-.886 2.644-3.234 7.059c-2.747 5.681-4.312 10.088-4.706 13.228-.984.984-1.856 2.747-2.644 5.288-.394 1.959-.881 3.328-1.472 4.116-.778 1.566-1.472 2.747-2.062 3.525-2.156 1.762-4.013 1.856-5.587.291-2.156-2.156-5.981-4.8-11.466-7.941-2.944-1.762-5.091-3.131-6.469-4.116l-1.472-.881c-1.566-.984-2.747-1.866-3.525-2.644-1.378-1.378-3.628-3.431-6.759-6.169-3.525-2.747-6.028-4.95-7.5-6.619s-2.166-3.384-2.063-5.147c.103-1.762.938-3.328 2.503-4.706 1.378-1.762 2.456-2.944 3.234-3.525 1.378-1.172 2.944-1.669 4.706-1.472.394.778.684 1.172.881 1.172.787 0 1.172-.094 1.172-.291.197-.591-.103-.881-.881-.881-.197-.197-.488-.197-.881 0h-.291zm33.506 26.166q-3.825 4.4-3.825 5.878c0 1.477.103 1.566.291 1.762.197.197.487.338.881.441s.684.047.881-.15a4.3 4.3 0 0 0 2.063-1.172 4.28 4.28 0 0 0 1.172-2.063c1.172-1.959.684-3.534-1.472-4.706zM212.991 54.666h-1.762c-1.566 0-2.597.197-3.084.591s-.638 1.369-.441 2.944l.291.591c.197.591.047 1.125-.441 1.612s-1.219.441-2.203-.15-2.353-1.275-4.116-2.063q-5.287-2.643-7.059-5.288c-1.575-.394-3.038-1.275-4.406-2.644-.787-.778-1.856-2.053-3.234-3.825q-3.516-4.4-5.878-5.878c-.984-.591-1.078-1.275-.291-2.063l5.287-6.469c1.566-1.566 3.178-2.259 4.847-2.063s3.675-.497 6.028-2.063l.591-.591q9.113-5.879 26.747-18.225l.291-.291c1.172-.778 1.959-1.369 2.353-1.763.778-.778 1.172-1.762 1.172-2.944s.347-1.669 1.031-1.472a4.1 4.1 0 0 1 1.762 1.031c.487.487.638.975.441 1.472s-.384 1.228-.591 2.203-.497 1.763-.881 2.353c-1.566 2.156-3.234 5.681-4.997 10.584a378 378 0 0 1-2.644 6.469 57 57 0 0 0-3.525 7.941l-.591 1.172c-.984 3.141-1.566 5.494-1.762 7.059-.394 2.747 0 5.194 1.172 7.35v.591c0 1.959-.197 3.141-.591 3.525s-1.575.487-3.525.291z"/></svg>