<svg xmlns="http://www.w3.org/2000/svg" width="300" height="300" viewBox="0 0 300 300"><title>weapons-reach-weapon</title><path d="M271.397 183.834c-.403.197-1.097.6-2.1 1.2-1.791 1.003-3.094 1.603-3.891 1.8-1.594.403-3.197.197-4.791-.6-1.2-.403-3.197-.797-5.991-1.2l-2.691-.6c-3.394-.806-6.291.6-8.681 4.191-.797 1.397-1.641 2.55-2.541 3.441s-2.147 1.538-3.741 1.95c-.797.197-1.847.9-3.141 2.1s-2.344 1.894-3.141 2.1l-1.5.9q-2.686 1.504-4.191 1.8c-1.791.6-3.394.403-4.791-.6-1.003-.403-1.997-.197-2.991.6l-.6.3c-1.397.806-2.7 1.2-3.891 1.2s-2.391-.497-3.591-1.5q-3.896-2.981-8.381.9l-2.1 2.391c-2.991 3.591-5.194 6.384-6.591 8.381-.806.797-1.594 1.397-2.391 1.8-1.2 1.003-2.1.806-2.691-.6-.197-.797-.3-2.091-.3-3.891v-14.372c0-1.2-.15-2.194-.45-2.991s-.947-1.491-1.95-2.1l-4.491-4.491c-3.6-2.991-5.691-6.384-6.291-10.181 0-.6-.103-1.003-.3-1.2-1.987-1.987-3.394-4.387-4.191-7.181-.6-1.791-1.106-4.584-1.5-8.381l-.3-3.891c-.6-3.197-2.597-5.288-5.991-6.291-3.994-1.397-6.881-3.394-8.681-5.991-.6-.806-1.303-1.256-2.1-1.35s-1.697-.15-2.691-.15h-1.2c-2.194 0-4.144.6-5.841 1.8s-2.841 2.897-3.441 5.091-1.791 4.284-3.591 6.291c-1.2 1.406-3.094 3-5.691 4.791l-1.8 1.2c-1.594.806-2.691 1.594-3.291 2.391-1.397 1.791-3.094 2.794-5.091 2.991-1.2.197-3.15.103-5.841-.3s-4.791-.197-6.291.6-2.841 2.391-4.041 4.791c-.197.403-.403 1.097-.6 2.1l-.6 1.8q-2.096 5.386-8.381 14.372-4.191 5.991-5.991 9.281c-.6 1.003-1.8 1.5-3.591 1.5-2.194-.403-3.891.3-5.091 2.1-2.991 2.597-4.688 5.034-5.091 7.331s.403 3.834 2.391 4.641c1.2.797 2.194 1.303 2.991 1.5 1.791.6 2.691 1.997 2.691 4.191v16.162c0 1.791-.9 4.088-2.691 6.891l-.9 1.2c-1.397 2.194-2.053 3.994-1.95 5.391s.853 3.3 2.241 5.691c1.003 1.594 2.297 2.297 3.891 2.1 6.984-.403 12.675 1.894 17.063 6.891 1.397 1.2 3.694 2.794 6.891 4.791q1.8 1.209 2.391 1.8c.806 1.003 1.2 1.997 1.2 2.991.197 1.594 1.2 2.587 2.991 2.991 1.397 0 2.541.553 3.441 1.65s1.941 1.153 3.141.15c2.794-3.197 6.084-5.194 9.881-5.991q1.505-.296 2.391.45c.886.746.638 1.153.15 1.95-.497.806-.844 2.044-1.05 3.741s-.759 2.887-1.65 3.591-1.341 1.697-1.35 2.991.497 2.241 1.5 2.841l1.2.9c1.2 1.003 2.1 1.603 2.691 1.8q1.8.9 3.291 0c2.794-1.2 6.094-3.094 9.881-5.691.797-.403 1.303-1.2 1.5-2.391v-.9c.197-2.597.15-4.238-.15-4.941s-1.547-1.847-3.741-3.441c1.997-.806 3.694-.703 5.091.3l1.2 1.2c1.003.806 1.706 1.5 2.1 2.1s.6 1.397.6 2.391c0 2.194-.403 4.491-1.2 6.891-.6 1.594-1.697 3.694-3.291 6.291-1.2 1.2-1.903 2.194-2.1 2.991-.403 2.194-.853 3.488-1.35 3.891s-1.744.6-3.741.6h-8.981c-1.594 0-2.897-.9-3.891-2.691-1.997-3.994-4.191-7.191-6.591-9.581-2.794-2.794-6.141-4.641-10.031-5.541s-6.834-.15-8.831 2.241c-2.391 2.597-4.191 3.938-5.391 4.041s-3-1.144-5.391-3.741c-.806-.806-2.194-1.847-4.191-3.141s-3.384-2.344-4.191-3.141c-2.194-1.791-3.788-3.394-4.791-4.791q-2.096-2.686-2.391-5.991c0-.403-.197-1.003-.6-1.8-2.991-3.394-4.884-8.484-5.691-15.272-.197-1.2-.9-3-2.1-5.391-.6-1.2-2.1-1.603-4.491-1.2-.806.403-1.2 1.294-1.2 2.691v.6c0 1.406.197 2.494.6 3.291.797 1.2 1.2 2.297 1.2 3.291.797 6.384 2.597 11.278 5.391 14.672.403.6.553 1.097.45 1.5s-.403.947-.9 1.65-1.153.75-1.95.15l-.6-.6c-4.584-2.194-6.778-5.691-6.591-10.481.197-2.794-.497-5.588-2.1-8.381-.797-1.594-2.391-3.891-4.791-6.891l-.6-.6c-1.003-1.003-2.494-1.697-4.491-2.1q-4.498-.9-7.181-5.091-5.991-7.484-7.481-13.772c-2.597-6.591-1.988-11.775 1.8-15.572.6-.6 1.05-1.744 1.35-3.441s.356-3.141.15-4.341q-.296-1.8 0-3.291c.403-4.791-1.097-8.278-4.491-10.481q-2.391-1.504-2.391-5.091v-18.863c0-1.791.703-3.394 2.1-4.791 1.988-1.791 3.188-3.188 3.591-4.191.806-1.791.703-3.787-.3-5.991-.403-.6-.3-1.5.3-2.691l.3-.3c1.397-3.6 2.794-7.688 4.191-12.272l.3-.3c.197-.806.3-1.453.3-1.95s-.197-1.153-.6-1.95c-.797-1.2-1.303-2.7-1.5-4.491 0-1.003.103-2.494.3-4.491l.3-2.391q.296-1.8 2.391-4.191c1.003-1.003 1.744-1.894 2.241-2.691s1.444-2.044 2.841-3.741 2.391-2.944 2.991-3.741c2.194-2.991 4.884-4.491 8.081-4.491 2.597 0 4.987-1.5 7.181-4.491.806-1.791 2.194-3.291 4.191-4.491q3.587-1.505 1.8-5.991c-1.791-3.994-.797-7.388 2.991-10.181l2.391-1.8c3.591-2.794 6.431-4.837 8.531-6.141s3.891-1.847 5.391-1.65 3.253 0 5.241-.6c1.003-.403 2.597-1.097 4.791-2.1l2.691-1.2 1.8-.6c2.194-.6 3.534-1.397 4.041-2.391s1.247-2.391 2.241-4.191c1.397-2.391 2.297-4.294 2.691-5.691 1.406-3.797 3.497-5.991 6.291-6.591q1.505-.296 4.191-1.8c2.794-1.397 5.138-2.1 7.031-2.1s3.338-1.097 4.341-3.291c1.791-3 4.491-5.794 8.081-8.381 1.997-1.594 5.287-3.694 9.881-6.291 1.2-.6 3.394-1.097 6.591-1.5 4.791-.6 7.688-2.794 8.681-6.591.6-1.397 1.95-3.047 4.041-4.941s3.347-3.637 3.741-5.241c1.397.6 2.7 1.997 3.891 4.191l.6 1.5c.197 0 .3.197.3.6v.9c1.397 3.591 2.4 5.888 2.991 6.881.797 1.397 1.791 2.494 2.991 3.291 1.003.6 3.197 1.594 6.591 2.991l.6.3c1.988.6 3.291 1.303 3.891 2.1 1.2 1.594 3.094 2.887 5.691 3.891q9.886 5.99 11.081 16.762c.197 1.594.853 3.094 1.95 4.491s2.447 2.147 4.041 2.241 3.984.834 7.181 2.241c1.987 1.003 3.591 1.65 4.791 1.95s1.753 1.35 1.65 3.141-1.05 2.691-2.841 2.691c-2.597 0-5.888.891-9.881 2.691-2.391 1.003-4.294 2.297-5.691 3.891s-2.597 3.684-3.591 6.291c-1.988 4.791-4.191 8.484-6.591 11.081-3 3.394-6.788 5.597-11.372 6.591l-1.2.3c-1.594.197-2.494.497-2.691.9-1.594 1.003-3.394 1.697-5.391 2.1-1.397.197-3.197.3-5.391.3s-3.788.347-4.791 1.05-1.697 1.941-2.1 3.741l-.3 1.5c-1.003 3.994-2.194 6.787-3.591 8.381-.197.197-.3.703-.3 1.5l-.3.9v1.5c0 1.2-.356 1.8-1.05 1.8s-1.097-.15-1.2-.45-.15-.797-.15-1.5-.103-1.153-.3-1.35c-1.2-1.791-2.297-4.688-3.291-8.681-.797-2.991-1.547-5.287-2.241-6.891s-1.444-2.794-2.241-3.591c-1.003-1.2-2.297-1.847-3.891-1.95s-3.694-1.35-6.291-3.741l-3.291-2.391c-1.594-1.594-2.991-2.587-4.191-2.991-1.997-.6-3.684-1.697-5.091-3.291-1.003-1.003-2.147-2.644-3.441-4.941s-2.738-4.088-4.341-5.391-3.703-1.95-6.291-1.95q-.604 0-1.8-.9l-1.2-.6c-1.791-1.003-3.694-1.453-5.691-1.35s-3.797.75-5.391 1.95l-1.2 1.2c-1.594 1.397-2.438 2.447-2.541 3.141s.3 1.688 1.2 2.991 1.303 2.344 1.2 3.141-.656 1.894-1.65 3.291c-1.397 2.194-3.994 4.791-7.781 7.781l-3.591 3.291c-1.791 1.791-5.091 3.591-9.881 5.391l-3.591 1.5c-1.003.197-2.897.3-5.691.3-1.594.197-2.887.797-3.891 1.8s-1.5 2.297-1.5 3.891v1.8c-.197 1.594-.197 2.794 0 3.591.403 2.597.197 5.184-.6 7.781-.797 1.791-1.997 4.088-3.591 6.891l-1.8 2.691c-.797 4.397-3.994 7.884-9.581 10.481-4.191 1.594-6.891 4.387-8.081 8.381q-.9 2.686-.45 5.541c.45 2.855 1.2 3.197 2.691 3.891s2.447 1.538 2.841 2.541c.403 1.003.6 2.297.6 3.891v23.353c0 3.394-1.2 5.888-3.591 7.481-1.594 1.2-2.644 3.094-3.141 5.691s-.347 4.791.45 6.591c.806 1.8 1.406 2.7 1.8 2.691a8.2 8.2 0 0 1 3.591 2.1c.6.6 1.35 1.697 2.241 3.291s1.641 2.691 2.241 3.291l.3.9c.403 1.003 1.003 1.5 1.8 1.5h.6c1.594 0 2.691-.403 3.291-1.2 1.791-1.997 4.284-4.088 7.481-6.291.797-.403 1.5-1.594 2.1-3.591l.3-1.5c.197-.403.3-.9.3-1.5v-.9c1.594-1.594 2.344-3.244 2.241-4.941s-.797-3.544-2.1-5.541c-1.303-1.987-1.35-4.284-.15-6.891l.3-1.2q1.209-3.291 1.8-5.091 1.196-2.687 3.291-4.191c1.003-.806 2.297-2.1 3.891-3.891l2.1-2.1c1.791-2.194 3.497-3.788 5.091-4.791 2.194-1.2 4.688-1.603 7.481-1.2 1.2.197 2.4 0 3.591-.6.797-.403 1.847-1.2 3.141-2.391s2.344-1.988 3.141-2.391c1.397-1.2 2.1-3.094 2.1-5.691 0-1.997.6-3.797 1.8-5.391q1.195-1.8 4.191-4.191c6.394-4.191 12.478-6.788 18.263-7.781 1.594-.403 2.897-.3 3.891.3 1.397.806 2.747 1.106 4.041.9s2.841-.703 4.641-1.5l.6-.3c.6-.403 1.097-.6 1.5-.6 4.388.6 7.481-1.294 9.281-5.691.403-1.397 2.297-2.1 5.691-2.1h2.1c2.597-.197 4.491 0 5.691.6 1.997 1.003 4.088.9 6.291-.3l.6-.3c1.594-1.003 2.887-1.097 3.891-.3.6.197 1.5-.3 2.691-1.5 4.594-4.791 11.184-7.688 19.762-8.681 1.2-.197 2.794-.703 4.791-1.5l1.2-.3c1.406-.403 2.4-.6 2.991-.6 1.2-.197 2.25 0 3.141.6s1.941.797 3.141.6c.806-.197 1.997-.6 3.591-1.2 5.391-1.791 10.275-5.091 14.672-9.881 1.003-1.406 2.1-2.4 3.291-2.991.6-.6 1.303-.703 2.1-.3s1.2 1.003 1.2 1.8v4.791q0 6.286-.9 9.281c-1.003 3.6.197 6.487 3.591 8.681 2.194 1.397 4.491 3.797 6.891 7.181s3.9 6.375 4.491 8.981l.6 2.1c2.194 2.597 3.394 5.588 3.591 8.981 0 2.194-.403 5.494-1.2 9.881s.197 7.988 2.991 10.781c1.791 1.2 3.891 3.497 6.291 6.891q2.996 4.191 5.091 5.991zM91.772 75.15c-.806-1.2-1.453-2.297-1.95-3.291s-1.247-1.688-2.241-2.1c-.994-.403-1.894-.206-2.691.6l-1.2.9c-3.797 2.194-6.338 4.237-7.631 6.141s-1.041 3.347.75 4.341c2.794 1.003 3.994 3.197 3.591 6.591v.6c-.197.806-.103 1.397.3 1.8 1.003.403 1.997.197 2.991-.6l.6-.6c2.194-1.397 5.288-3.6 9.281-6.591l1.5-.9 2.391-2.1q1.195-1.195.9-2.841c-.295-1.646-1.003-1.641-2.391-1.65-1.003-.197-2.4-.3-4.191-.3zm8.381 200.297c.197-1.003-.3-2.494-1.5-4.491l-.6-1.2a6.3 6.3 0 0 0-2.1-2.991c-.6-.6-1.594-1.2-2.991-1.8-1.997-.797-3.394-1.697-4.191-2.691 0-.403-.497-.3-1.5.3-1.397.6-2.541 2.194-3.441 4.791s-.947 4.584-.15 5.991l.3.6c.806.6 1.406 1.003 1.8 1.2 1.791.797 4.584 2.597 8.381 5.391l.3.3c1.2.797 2.297.703 3.291-.3q2.391-2.095 2.391-5.091zM59.737 118.266c0-2.391-.253-4.134-.75-5.241s-1.547-2.241-3.141-3.441c-.403-.403-.947-.656-1.65-.75s-1.247.047-1.65.45c-3.994 2.991-6.291 6.881-6.881 11.672-.197 1.2.347 2.747 1.65 4.641s2.55 2.944 3.741 3.141c2.597.197 4.584-1.097 5.991-3.891.197-.403.647-1.05 1.35-1.95s1.2-1.65 1.5-2.241.253-1.388-.15-2.391zm53.288 30.534c-.197.6-.047 1.303.45 2.1s.75 1.397.75 1.8c1.2 4.397 3.694 5.588 7.481 3.591 1.594-.806 3.891-2.1 6.891-3.891l2.391-1.5c.6-.403.956-.853 1.05-1.35s.15-1.247.15-2.241-.347-1.838-1.05-2.541-1.744-1.453-3.141-2.241c-1.791-1.2-3.591-1.2-5.391 0-2.794 2.194-5.991 4.284-9.581 6.291zm-68.859 20.963v-3.591c0-2.391-.703-3.591-2.1-3.591-1.003 0-2.297-.3-3.891-.9-1.2-.6-2.147-.956-2.841-1.05s-1.444.15-2.25.75c-.403.197-.797.9-1.2 2.1v.3q-1.209 2.096 0 7.031c1.209 4.935 1.894 5.437 3.291 6.441l.3.3c.6.197 1.003.3 1.2.3 2.794.6 4.734.497 5.841-.3s1.65-2.597 1.65-5.391zm29.343 51.187c-.797.403-1.397 1.294-1.8 2.691l-.3 1.2c-1.2 3.197-2.897 3.394-5.091.6-.403-.403-.797-1.2-1.2-2.391v-.9c-.197-1.003-.703-1.406-1.5-1.2s-1.453.553-1.95 1.05-.75 1.05-.75 1.65c0 3.394.103 5.888.3 7.481s1.097 3.394 2.691 5.391q1.8 1.505 4.191 1.8c1.003 0 2.297-.3 3.891-.9 1.003-.403 1.847-1.05 2.541-1.95s.947-1.95.75-3.141-.197-2.794 0-4.791v-2.391c0-1.2-.103-2.1-.3-2.691s-.703-1.088-1.5-1.5zm-28.743 12.581c2.194-1.594 3.694-3.694 4.491-6.291.403-1.791.506-4.284.3-7.481 0-.797-.3-1.453-.9-1.95s-1.303-.75-2.1-.75l-1.5-.3c-1.594-.197-2.794-.403-3.591-.6-2.391-.806-3.891-1.003-4.491-.6s-.9 1.8-.9 4.191c0 1.594.403 3.094 1.2 4.491l1.8 2.691c2.194 3.197 4.087 5.391 5.691 6.591zm46.106-53.297c0-1.397-.553-2.944-1.65-4.641s-2.25-2.644-3.441-2.841c-1.791-.403-3.094-.197-3.891.6l-1.8 1.5c-2.597 2.597-4.191 4.688-4.791 6.291-.197.806-.3 2.1-.3 3.891 1.003 2.194 2.194 2.691 3.591 1.5 1.2-.6 2.794-.703 4.791-.3 2.194 0 3.984-.553 5.391-1.65s2.1-2.55 2.1-4.341zm77.24-51.787h-2.691c-.797 0-1.547.197-2.241.6s-1.041 1.003-1.05 1.8q0 5.091-2.391 8.381c-.403.797-.45 1.641-.15 2.541s.947 1.547 1.95 1.95c2.391.6 4.594.197 6.591-1.2 1.397-1.003 2.7-3 3.891-5.991.6-1.594 1.106-2.691 1.5-3.291q1.195-1.8 0-3.291c-1.195-1.491-1.997-1.594-3.591-1.8-.197.197-.806.3-1.8.3zm-40.115-86.522c-3.197-1.2-6.094-.197-8.681 2.991q-1.196 1.505-1.35 3.291c-.154 1.786.347 1.987 1.35 2.391 1.594.6 2.447 1.397 2.541 2.391s-.253 2.194-1.05 3.591c-.197.403-.197.9 0 1.5v.9c0 .797.347 1.35 1.05 1.65s1.5.253 2.391-.15q1.337-.605 1.35-1.8c0-1.397.45-3.3 1.35-5.691s1.35-4.191 1.35-5.391c.403-1.997.3-3.891-.3-5.691zm-69.76 194.597c-1.594-.6-3.197-.6-4.791 0 1.003 1.406 1.847 2.1 2.541 2.1s1.444-.703 2.241-2.1z"/></svg>