<svg xmlns="http://www.w3.org/2000/svg" width="300" height="300" viewBox="0 0 300 300"><title>weapons-sword</title><path d="M299.137 2.344c0-.403-.15-.797-.45-1.2s-.553-.6-.75-.6c-1.997-.6-5.1-.703-9.291-.3l-1.8.3c-.197 0-.497.197-.9.6-.403 1.603-2.1 3.403-5.1 5.4l-8.991 6.591c-4.397 3.197-7.688 5.691-9.891 7.491-1.003.797-2.7 1.903-5.1 3.3-3.6 2.203-6.094 4.003-7.491 5.391q-3.6 4.204-8.691 5.991c-.6.206-1.397.6-2.4 1.2s-1.753.947-2.25 1.05-.9.3-1.2.6-.347.656-.15 1.05q.295 2.7-.9 4.5c-.6 1.003-1.697 2.1-3.3 3.3l-5.1-3.3c-4.997-3-8.588-5.494-10.791-7.491-1.397-1.397-3.994-3-7.791-4.8l-.9-.3c-2.194-1.406-4.294-1.5-6.291-.3-.6.403-1.65.75-3.15 1.05s-2.55.656-3.15 1.05c-1.003.403-1.8 1.106-2.4 2.1-.197.197-.9.3-2.1.3-.6 0-1.003.3-1.2.9v.3c0 .806.497 1.2 1.5 1.2 3.197.197 6.694 1.603 10.491 4.2 1.8 1.003 4.144 2.747 7.041 5.25s5.137 4.256 6.741 5.25c.6.197 1.303.703 2.1 1.5l.9.6c1.406 1.003 2.203 2.147 2.4 3.45s-.3 2.55-1.5 3.75l-.9.9c-1.397 1.603-2.4 2.4-3 2.4s-1.903-.6-3.9-1.8l-1.2-.6c-.403-.403-.6-.703-.6-.9-1.003-.6-1.997-.9-3-.9s-1.8.403-2.4 1.2L157.62 106.98l-22.481 23.081c-1.603 1.003-3.094 2.4-4.5 4.2-3.994 3.797-9.891 9.591-17.681 17.381-10.594 10.594-18.581 18.338-23.981 23.231s-12.788 12.741-22.181 23.531l-3 3.3-4.5 4.5c-5.794 6.197-9.994 10.894-12.591 14.091l-.3.3c-.797 1.2-1.603 2.1-2.4 2.7l-11.091 11.691c-1.397 1.2-3.3 3.197-5.691 5.991l-12.291 14.391c-1.2 1.2-2.7 3.3-4.5 6.291-2.597 3.6-4.8 6.3-6.591 8.091-2.203 2.203-3.197 5.1-3 8.691.197 1.997.3 4.95.3 8.841v9.741c-.197 1.397.103 2.4.9 3h5.1q7.186-.296 10.491 0c6.994.206 13.491-2.297 19.481-7.491l3.9-3.3c7.191-5.991 12.291-10.744 15.291-14.241s5.794-6.047 8.391-7.641l.9-.6c2.597-1.8 4.303-3.3 5.1-4.5 1.397-1.603 3.694-3.797 6.891-6.591 4.191-3.797 7.088-6.891 8.691-9.291 2.794-1.8 6.497-5.194 11.091-10.191l4.5-4.8 4.5-4.2 24.881-24.881c8.991-9.394 16.884-17.991 23.681-25.781 3.6-4.594 9.694-11.184 18.281-19.781 6.197-6.197 10.791-10.988 13.791-14.391 3.403-3.994 8.991-9.684 16.781-17.081l3-3c5.391-4.997 10.088-8.691 14.091-11.091 3-1.997 5.297-4.097 6.891-6.291.806-1.2 2.4-3.197 4.8-5.991l.6-.6q3.305-3.305 4.5-5.991c1.003-2.4 1.2-4.894.6-7.491l-.9-2.7c-.806-1.397-.403-2.794 1.2-4.2 1.406-1.003 2.803-.497 4.2 1.5l.6.9c1.397 2.203 2.503 3.6 3.3 4.2q7.791 7.79 10.491 17.381l.6 1.8c1.397 3.403 2.7 5.794 3.9 7.191 1.997-1.603 3.703-3.6 5.1-5.991 1.003-1.603 2.1-3.9 3.3-6.891 1.003-2.203 1.106-4.5.3-6.891-.403-1.8-1.397-3.694-3-5.691l-1.8-2.4c-3.994-4.791-7.097-8.288-9.291-10.491-1.003-.797-2.203-2.1-3.6-3.9l-2.7-3c-.403-.6-.647-1.097-.75-1.5s.047-.9.45-1.5c1.997-4.191 5.4-8.288 10.191-12.291l1.2-.9c1.397-1.397 2.297-2.503 2.7-3.3 1.2-1.997 3.403-4.8 6.591-8.391l3.3-4.2 2.4-3.3c3.6-4.997 6.6-8.587 8.991-10.791l.6-.6c1.997-1.997 3.497-3.3 4.5-3.9 1.997-1.003 4.097-1.303 6.291-.9.797.206 1.453.047 1.95-.45s.75-1.153.75-1.95V2.36zM160.05 111.15c.403.6.45 1.106.15 1.5s-.75.9-1.35 1.5l-1.2.9c-.403.6-1.097 1.303-2.1 2.1l-.9.9c-.403.403-.806.45-1.2.15s-.647-.6-.75-.9-.047-.6.15-.9.703-.853 1.5-1.65l4.2-4.8.3.3c.6.197 1.003.497 1.2.9m59.653-31.772c-.806 2.794-2.353 5.391-4.65 7.791s-5.447 6.094-9.441 11.091l-3.3 3.9c-1.397 1.603-3.703 3.9-6.891 6.891l-7.791 7.491c-6.197 5.597-10.594 10.097-13.191 13.491-3.994 4.997-7.791 8.588-11.391 10.791-.806.403-1.5 1.097-2.1 2.1l-1.2 1.5c-3 3.197-7.8 7.847-14.391 13.941s-11.494 10.884-14.691 14.391-8.297 8.344-15.291 14.541l-6.591 5.691c-4.594 3.797-7.988 7.584-10.191 11.391-.403.6-1.106 1.303-2.1 2.1l-.9.9c-1.003 1.2-2.494 2.653-4.5 4.35s-3.403 3.047-4.2 4.05c-1.406 1.603-3.497 3.797-6.291 6.591l-11.091 11.091c-2.597 2.597-6.394 6.797-11.391 12.591l-6.591 7.491-3.6 4.5c-2.794 3.6-5.1 6-6.891 7.191q-4.205 2.7-6.891 5.991c-.797 1.2-2.297 2.494-4.5 3.9l-1.2.9-1.8.9q-1.195 0-2.25-1.8c-1.055-1.8-.853-2.203-.45-3 .6-1.406 1.697-3.197 3.3-5.4l.6-.9c2.203-2.4 4.097-5.1 5.691-8.091 1.397-1.8 2.494-2.897 3.3-3.3 1.603-.6 2.85-1.997 3.75-4.2s2.447-4.5 4.65-6.891q1.8-2.095 5.991-5.991c3.6-3.403 8.588-8.597 14.991-15.591 7.594-8.391 13.491-14.484 17.681-18.281 4.791-4.397 11.784-11.081 20.981-20.081 7.594-7.594 13.387-13.191 17.381-16.781l3.3-3.6q4.5-4.796 7.341-6.891c2.841-2.095 4.537-3.787 7.941-7.191l2.1-2.4c4.397-4.594 7.491-7.987 9.291-10.191 3-3.403 5.991-6.394 8.991-8.991 1.8-1.2 3.9-3.403 6.291-6.591 3.403-4.791 7.097-8.391 11.091-10.791l.9-.6c.403-.6.797-1.003 1.2-1.2l3.3-3.3c5.194-5.391 9.188-9.094 11.991-11.091.797-.6 1.697-1.706 2.7-3.3l1.5-2.1 2.1-2.1c1.603-1.603 2.897-2.7 3.9-3.3 1.397-1.003 3.3-2.897 5.691-5.691.806-1.2 1.753-1.8 2.85-1.8s2.25.506 3.45 1.5c.6.197 1.003.45 1.2.75s.3.853.3 1.65z"/></svg>