<svg xmlns="http://www.w3.org/2000/svg" viewBox="0 0 300 300"><path d="M201.759 238.706h-4.969q-6.72-.296-10.078 0c-3.358.296-4.425-.197-6.572-1.172-1.556-.788-3.6-1.95-6.141-3.506l-1.753-1.172-4.388-3.216c-5.072-4.097-9.159-6.825-12.272-8.184-1.556-.591-3.703-2.044-6.431-4.388l-2.925-2.334c-1.95-1.359-3.656-1.95-5.119-1.753s-2.578 1.069-3.356 2.634c-.591 1.172-1.219 1.903-1.903 2.194s-1.603.441-2.775.441h-1.463q-4.683-.002-6.722.881c-3.703 1.95-6.084 3.459-7.162 4.528s-2.391 3.553-3.947 7.453l-.291.881c-.384.591-.581 1.069-.581 1.462.384 1.95.197 3.9-.581 5.841q-.577 2.04-2.334 5.259l-1.753 3.506q-.295.887-1.463 2.334l-.881.881c-.787.975-1.659 1.509-2.634 1.603s-2.044-.047-3.216-.441l-7.894-3.506c-1.763-.787-4.003-.834-6.722-.15s-4.481 1.8-5.259 3.356c-1.556 3.319-4.378 8.091-8.475 14.316l-3.797 6.141c-2.147 3.506-3.122 7.106-2.925 10.809.197 2.334-.581 4.387-2.334 6.141q-1.758 1.757-2.925 1.463c-2.147-.384-4.191.637-6.141 3.066s-3.797 2.681-5.55.731l-2.044-2.634c-1.95-2.147-3.319-3.9-4.087-5.259-.384-.591-1.172-1.266-2.334-2.044-5.653-2.925-12.759-3.9-21.337-2.925-1.359 0-3.309 1.069-5.841 3.216l-.581.581q-1.462 1.463-5.259 3.797l-2.334 1.172c-.778.384-1.509.534-2.194.441s-1.219-.431-1.603-1.022-.487-1.266-.291-2.044q3.22-10.223 4.388-20.166c.197-1.556.778-3.797 1.753-6.722l1.172-4.678c.778-4.284 1.275-7.5 1.463-9.647 0-3.506-.778-7.106-2.334-10.809l-.581-1.753q-1.167-2.63-1.463-3.797c-.197-1.556 0-3.019.581-4.387s.384-2.831-.581-4.388c-.197-.778-.141-1.462.15-2.044s.928-.975 1.903-1.172 1.856-.197 2.634 0c1.95.197 3.9-.291 5.841-1.462 1.556-.787 3.019-1.078 4.387-.881s2.728-.103 4.088-.881c.975-.591 2.137-1.659 3.506-3.216l1.172-1.172c2.344-1.95 3.75-3.797 4.238-5.55s.581-3.019.291-3.797l-1.313-3.506c-.975-2.531-2.091-4.388-3.356-5.55s-1.65-2.391-1.172-3.656c.478-1.275 1.894-1.903 4.238-1.903h.881c1.359-.197 2.241-.094 2.634.291.788.787 1.556 1.125 2.334 1.022s1.753-.441 2.925-1.022l.581-.291c5.653-1.95 9.544-5.166 11.691-9.647l.581-.881q1.758-3.501 2.334-5.259c.591-2.147.778-4.088.581-5.841-.197-2.531 0-6.328.581-11.4.384-3.703.581-6.525.581-8.475 0-7.209-1.359-15.197-4.088-23.962-2.531-7.791-7.406-15.684-14.616-23.672-1.95-2.147-3.309-5.456-4.087-9.938-.197-1.763.488-3.413 2.044-4.969.591-.591 1.472-.684 2.634-.291h.291c7.603 2.147 14.719 2.334 21.337.581.975-.187 2.531-.291 4.678-.291h3.506c4.669 0 8.672-1.659 11.981-4.969 1.556-1.753 1.753-3.459.581-5.119s-2.634-2.194-4.388-1.603l-1.463.581c-1.172.197-1.95.487-2.334.881q-2.63 1.462-8.184 2.334c-2.334.188-4.181.487-5.55.881s-2.438.3-3.216-.291c-1.172-.975-2.438-1.275-3.797-.881s-2.728.384-4.087 0c-.787-.197-1.997-.628-3.656-1.313s-2.878-1.125-3.656-1.313q-2.334-.886-2.334-5.259-.282-2.332 1.462-7.012c.975-2.334 1.509-4.237 1.603-5.7s1.022-3.75 2.775-6.872q1.465-2.925 2.044-4.388c.787-2.147 2.438-4.969 4.969-8.475 1.763-2.334 3.019-4.087 3.797-5.259.975-1.762 2.531-3.412 4.678-4.969 1.172-.975 3.112-2.334 5.841-4.087l2.925-1.753c5.841-3.703 12.863-6.131 21.047-7.303.975-.197 2.344-.591 4.088-1.172l1.463-.581c1.556-.975 4.088-1.903 7.603-2.775s6.047-1.706 7.603-2.484q.577-.296 2.334 0h22.5c.591 0 1.463.197 2.634.581l2.044.291c3.703.975 7.106 1.556 10.228 1.753 5.841.591 11.494 2.531 16.95 5.841.788.384 1.078 1.163.881 2.334v.581c0 1.172-.591 1.753-1.753 1.753-.591 0-1.416.244-2.484.731s-1.894.638-2.484.441c-1.556-.197-3.9.103-7.013.881l-3.506.881c-5.259.778-9.159 1.763-11.691 2.925l-2.634 1.172c-3.122 1.172-5.363 2.044-6.722 2.634-6.816 2.334-13.931 5.944-21.338 10.809-1.359.975-3.019 2.484-4.969 4.528s-3.516 3.459-4.678 4.237q-2.334 1.463-3.797 4.387c-1.753 3.122-2.634 6.431-2.634 9.938v2.044c.197 2.531 0 4.434-.581 5.7s-.187 2.775 1.172 4.528 2.878 2.728 4.528 2.925c1.659.197 3.066.787 4.237 1.753.778.787 1.753 1.95 2.925 3.506 2.334 3.506 3.9 7.012 4.678 10.519q.886 2.925.731 5.119c-.155 2.194-.638 2.972-1.603 4.528l-2.634 4.388c-1.763 3.506-3.216 6.037-4.387 7.603-2.147 2.728-2.531 6.225-1.172 10.519l2.044 6.722c.197 2.728 2.044 3.797 5.55 3.216 1.556-.384 3.403-1.463 5.55-3.216l2.334-1.753c3.319-2.531 6.141-5.944 8.475-10.228 1.763-2.925 3.516-7.012 5.259-12.272.591-2.531.591-4.875 0-7.012-.591-1.359-.637-2.484-.15-3.356s1.313-1.8 2.484-2.775q4.092-2.925 6.722 0c.384.384.975.684 1.753.881s1.275.394 1.463.581c1.359.778 2.287.487 2.775-.881s1.322-2.344 2.484-2.925c2.728-1.172 4.088-3.6 4.088-7.303v-2.925c0-2.728-.291-4.725-.881-5.991s-.778-3.263-.581-5.991l.291-2.634q0-1.462 1.463-2.334c4.284-4.284 7.116-7.791 8.475-10.519a6.8 6.8 0 0 1 2.334-2.334c.591-.591 1.172-.684 1.753-.291l.291.291c.591.591 1.172 1.556 1.753 2.925l.881 1.753c1.172 2.531 2.634 6.328 4.387 11.4l1.172 2.925c.384 1.359.872 2.241 1.462 2.634 1.556.591 3.309 1.95 5.259 4.087 1.172 1.172 2.044 1.95 2.634 2.334q4.978 3.796 8.184 5.259c3.319 1.556 6.525 2.241 9.647 2.044h.881c2.334-.384 3.994-.197 4.969.581.197.188.778.338 1.753.441s1.659.441 2.044 1.022c.384.581.338 1.266-.15 2.044s-.638 1.369-.441 1.753.338 1.069.441 2.044.347 1.753.731 2.334q6.722 7.889 1.462 17.831a42.6 42.6 0 0 1-6.431 9.056l-1.462 1.463c-1.95 2.334-3.506 3.994-4.678 4.969-1.762 1.556-3.609 2.728-5.55 3.506l-2.634 1.172c-1.762.975-3.216 1.556-4.388 1.753-1.95.384-3.366 1.219-4.238 2.484s-1.613 2.878-2.194 4.819c-.787 4.669-2.044 8.672-3.797 11.981-2.147 3.703-5.063 6.619-8.766 8.766-1.556.975-2.241 2.334-2.044 4.088s1.172 3.113 2.925 4.087c.975.591 1.659.881 2.044.881 1.359 0 3.413.103 6.141.291 4.284.197 7.406 0 9.356-.581s3.263-.637 3.947-.15c.684.478 1.125 1.5 1.313 3.066v2.925q0 2.334 2.334 2.925c4.097.975 7.313 1.369 9.647 1.172 3.309 0 6.234-1.069 8.766-3.216l1.462-.881c2.728-1.556 4.669-2.916 5.841-4.087.787-.778 1.706-1.125 2.775-1.022s1.8.534 2.194 1.313l.291.581q1.462 2.334 1.462 3.797v1.463c.197 1.172.197 2.044 0 2.634-.384 2.334-.094 4.678.881 7.013.591 1.359 1.753 3.216 3.506 5.55l2.634 3.506q2.641 3.22 4.088 5.259c2.531 3.891 5.456 6.234 8.766 7.013q1.462-.002 2.194.881c.732.883.975 1.369 1.463 2.334.487.975.881 1.603 1.172 1.903s.441.591.441.881-.103.441-.291.441c-.591.591-1.266 1.659-2.044 3.216-1.753 3.113-3.366 5.016-4.819 5.7s-3.263 1.997-5.409 3.947c-2.531 2.147-4.669 3.506-6.431 4.088l-3.216 1.172c-4.481 1.95-8.081 2.925-10.809 2.925-2.147-.197-5.259-.291-9.356-.291zm-100.537 4.678c.197 0 .384.047.581.15s.384.047.581-.15c2.147-1.172 3.703-3.506 4.678-7.012l-.291-.881c-.384-.384-.872-.488-1.463-.291a59 59 0 0 0-4.969 4.969c-.787.778-1.022 1.509-.731 2.194s.825 1.022 1.603 1.022zm-59.916-49.978c0-.787-.384-1.172-1.172-1.172s-1.369.244-1.753.731-.637 1.069-.731 1.753.431 1.022 1.603 1.022h.291c1.172 0 1.753-.778 1.753-2.334zM148.566 99.3c-.591-.788-1.463-.975-2.634-.581-.591.384-.684.684-.291.881l.581.581c.384.591.778.591 1.172 0 .591 0 .975-.291 1.172-.881m7.303 66.347c-.384-.787-.872-1.172-1.462-1.172s-.881.291-.881.881.15.975.441 1.172.638.197 1.022 0c.975 0 1.266-.291.881-.881zm137.072-33.319c-2.147-2.334-3.413-6.141-3.797-11.4l-.291-1.463q-.577-5.554-1.462-8.184c-.787-3.113-2.044-5.747-3.797-7.894-.384-.384-.731-1.069-1.022-2.044s-.534-1.659-.731-2.044c-2.925-4.875-7.894-8.766-14.906-11.691-6.234-3.112-11.006-5.166-14.316-6.141l-3.797-1.172c-2.925-.975-5.166-1.556-6.722-1.753q-3.501-.296-10.519 0h-5.55c-.787 0-1.762.291-2.925.881l-.881.291c-3.703 1.556-7.209 1.847-10.519.881-.975-.384-2.438-.581-4.388-.581-2.728-.197-4.669-.684-5.841-1.463-.591-.384-1.172-.384-1.753 0-3.506.197-6.722-.881-9.647-3.216-6.628-4.481-11.203-10.425-13.734-17.831-.384-.778-.778-2.147-1.172-4.087-.787-3.319-1.762-5.653-2.925-7.013q-.295-.886 0-1.462c.975-2.531 2.775-4.388 5.409-5.55s6.581-2.625 11.841-4.388l3.797-1.462c1.95-.788 4.969-1.556 9.056-2.334l2.634-.581c1.95-.197 4.922-.337 8.916-.441s6.966-.347 8.916-.731 4.088-.488 6.431-.291c1.556.197 3.703.684 6.431 1.463l4.088.881c3.703.778 8.766 2.831 15.197 6.141 3.506 1.95 6.141 3.309 7.894 4.087l1.462.881c8.184 7.603 14.803 14.906 19.875 21.919l.881 1.172c2.925 4.875 4.875 8.475 5.841 10.809.384.591.637 1.659.731 3.216s.244 2.625.441 3.216c1.359 3.891 2.044 8.859 2.044 14.906l-.291 4.388c-.197 4.875-.047 8.372.441 10.519s.731 5.259.731 9.356c0 3.112.103 5.353.291 6.722-.188 1.359-.975 2.531-2.334 3.506zm-40.922 32.147h8.475c1.359.591 3.553 1.369 6.572 2.334s5.203 1.744 6.572 2.334c2.531 1.172 4.575 2.625 6.141 4.387l1.753 1.753q9.647 10.224 13.444 16.369c3.112 4.875 4.772 9.937 4.969 15.197.197 2.728-.3 6.909-1.462 12.563-.591 3.891-.975 6.816-1.172 8.766 0 .975-.684 2.147-2.044 3.506l-.291.581c-.975 2.334-1.369 4.191-1.172 5.55.197 2.728-.684 5.456-2.634 8.184-2.531 3.9-4.575 7.603-6.141 11.109-.591 1.172-1.762 2.728-3.506 4.678l-3.216 3.797c-1.95 2.344-3.506 3.9-4.678 4.678s-2.925 2.044-5.259 3.797l-1.462.881c-3.309 2.147-6.328 4.284-9.056 6.431-.975.591-1.856.488-2.634-.291l-.291-.291c-.591-.788-.591-1.556 0-2.334 1.556-1.95 3.6-5.072 6.141-9.356l3.797-6.141c1.556-2.531 3.403-6.816 5.55-12.863 1.359-3.703 2.428-6.525 3.216-8.475v-3.506c0-4.481-.103-7.884-.291-10.228-.197-3.891-.872-7.303-2.044-10.228l-.291-.581c-.197-.591-.488-1.078-.881-1.462l-2.634-1.753c-1.95-1.359-3.413-2.241-4.387-2.634-1.95-.975-3.797-1.266-5.55-.881-4.866.197-9.056-1.753-12.563-5.841-4.481-5.456-8.475-11.503-11.981-18.122-2.147-3.891-3.019-8.475-2.634-13.734 0-2.728 1.556-4.575 4.678-5.55 6.431-2.531 12.084-3.412 16.95-2.634z"/></svg>