<svg xmlns="http://www.w3.org/2000/svg" viewBox="0 0 300 300"><path d="M288.656 61.153c-.197-.6-.497-1.397-.9-2.4-2.391-6.591-4.688-11.381-6.891-14.381-11.981-14.184-26.156-24.459-42.534-30.853l-6.891-2.1c-4.191-1.397-7.294-2.494-9.291-3.291-3.394-1.406-6.291-3-8.691-4.791-1.003-.797-2.494-1.5-4.491-2.1l-2.4-.6c-2.597-.797-4.387-.853-5.391-.15s-1.153 2.447-.45 5.241.656 5.044-.15 6.741-2.494 2.85-5.091 3.441q-12.586 2.404-18.872 2.7c-7.191.197-17.869.103-32.053-.3l-12.581-.3c-4.791 0-8.391-.103-10.781-.3-3.797-.403-7.284-1.106-10.481-2.1-2.194-.6-3.844-1.5-4.941-2.7s-1.65-2.897-1.65-5.091-.703-3.694-2.1-4.491c-1.397-.806-3.3-.806-5.691 0q-2.109.295-5.991 1.8l-1.5.6q-4.486 1.504-12.881 5.991c-4.997 2.794-8.794 4.688-11.381 5.691-7.584 2.597-13.181 5.494-16.772 8.691-5.391 4.397-10.584 9.984-15.581 16.772q-4.191 5.993-11.981 19.172c-3.6 5.794-6.291 10.087-8.091 12.881-1.2 1.594-1.5 3.15-.9 4.641s2.194 1.941 4.791 1.35c1.8-.403 3-.3 3.591.3s.891 1.697.9 3.291c0 25.359 3.497 48.525 10.481 69.497 3.197 10.388 6.188 18.872 8.991 25.463 3.797 8.991 8.091 16.875 12.881 23.662 1.997 3.197 3.994 5.391 5.991 6.591.806.6 1.65.956 2.55 1.05s1.8-.103 2.7-.6q1.35-.746 1.35-1.8c0-1.054-.197-1.556-.6-2.55l-.3-.6c-.806-3.394-1.2-7.284-1.2-11.681v-4.491c.403-12.178 1.106-21.469 2.1-27.863l1.2-6.591c3.394-17.775 6.394-31.059 8.991-39.844.806-2.597 2.194-6.487 4.191-11.681 2.194-5.991 3.787-10.491 4.791-13.481 1.603-5.194 2.494-9.984 2.7-14.381.197-2.391.3-5.888.3-10.481 0-2.991 1.294-4.584 3.891-4.791 1.2-.197 2.006 0 2.4.6s.703 1.5.9 2.7l.3.9q2.405 8.086 1.8 17.072c-.197 5.194.703 10.678 2.7 16.472q1.8 5.386 6.891 15.581c1.603 3.394 3.994 4.791 7.191 4.191 1.406-.197 2.4-.806 3-1.8.403-.6.797-1.697 1.2-3.291l1.5-7.191q1.8-7.496 2.7-11.081c1.2-3.994 2.7-7.481 4.491-10.481.403-.797.806-2.241 1.2-4.341s.797-3.544 1.2-4.341c.6-1.406 1.65-2.1 3.15-2.1s2.644.6 3.441 1.8q.9.9 1.8 3.741c.9 2.841 1.097 3.244 1.5 4.041l.6.9c.6 1.397 1.2 2.4 1.8 3 1.003 1.003 2.194 1.453 3.591 1.35s2.747-.6 4.041-1.5c1.303-.9 2.297-1.997 3-3.291s1.453-3.338 2.25-6.141v-.3c.6-1.8 1.2-3.094 1.8-3.891.797-1.2 1.903-1.697 3.3-1.5s2.297.9 2.7 2.1c.403.6.703 1.791.9 3.591v.9c.197 1.003.197 2.597 0 4.791v7.191c0 6.787.103 11.934.3 15.431s1.153 5.897 2.85 7.191 4.444 1.941 8.241 1.95c2.391 0 4.491-.797 6.291-2.4 1.003-1.003 2.194-2.7 3.591-5.091 1.8-3 4.594-7.191 8.391-12.581 6.591-9.788 11.081-17.372 13.481-22.763 1.003-2.006 2.147-3.3 3.441-3.891s2.541.206 3.741 2.4c2.203 3.797 3.797 7.087 4.791 9.881 1.2 3.797 1.903 7.538 2.1 11.231s.403 9.431.6 17.222.403 13.678.6 17.672c.197 6.197.103 13.088-.3 20.672l-1.8 20.672c-1.2 10.181-1.903 17.775-2.1 22.763l-.3 2.4c-.403 1.997-.506 3.394-.3 4.191 0 1.2.6 2.203 1.8 3 1.603 1.003 3.197 1.2 4.791.6 1.003-.197 2.4-1.003 4.191-2.4l.9-.9c1.2-.806 2.597-2.4 4.191-4.791 2.991-3.994 6.534-10.481 10.631-19.472s7.631-15.628 10.631-19.922c2.991-4.294 5.888-9.544 8.691-15.731q2.995-6.286 6.891-17.072l.3-1.2c.6-1.594 1.5-4.894 2.7-9.881l2.1-9.291c1.603-6.197 2.4-14.381 2.4-24.563 0-2.991.6-5.241 1.8-6.741s3.3-2.147 6.291-1.95c1.603 0 2.794-.403 3.591-1.2s.891-2.091.3-3.891zm-36.244 86.878c-.197.197-.6.347-1.2.45l-.9.15c-.403-1.2-.6-2.1-.6-2.7.197-1.8.806-3.703 1.8-5.691.6-1.2 1.547-2.841 2.85-4.941s2.25-3.638 2.85-4.641q.296-.605.9-.9c.604-.295.75-.15 1.05.15s.553.647.75 1.05l.6 1.2c-2.794 5.794-5.494 11.091-8.091 15.881zm17.672-42.243-2.4 7.491c-.197.6-.497 1.603-.9 3-.6 2.194-1.397 3.787-2.4 4.791l-.6.9c-.403.6-.806 1.003-1.2 1.2s-.9.197-1.5 0c-1.2-.6-1.397-1.791-.6-3.591l3.891-11.681c.6-2.597 2.1-3.787 4.491-3.591h.6c.403.403.6.797.6 1.2v.3zm.9 135.112c0-.197-.103-.6-.3-1.2l-.3-.9-.9-1.8q-5.387-11.079-7.791-16.772c-2.391-6.394-3.891-12.384-4.491-17.972 0-.6-.197-1.303-.6-2.1-.6-1.397-1.697-2.1-3.3-2.1q-1.8.296-1.8 2.7c-.403 5.991-1.594 12.281-3.591 18.872q-2.405 7.186-6.891 17.972c-1.997 4.387-3.947 7.434-5.841 9.141s-4.491 2.55-7.791 2.55-5.944-.853-7.941-2.55q-2.981-2.559-5.091-9.141c-2.194-6.984-5.091-17.372-8.691-31.153l-3.3-13.181c-1.997-9.188-3.797-15.975-5.391-20.372-2.391-7.584-5.391-14.081-8.991-19.472-.403-.403-.797-1.153-1.2-2.25s-.797-1.903-1.2-2.4-1.106-.656-2.1-.45-1.65.703-1.95 1.5c-.3.806-.356 1.997-.15 3.591v1.5c0 2.794.15 7.041.45 12.731s.45 10.041.45 13.031c-.197 4.397-.497 10.884-.9 19.472-.6 9.394-1.003 16.378-1.2 20.972-.197 7.791 0 14.784.6 20.972.797 3.394-.197 5.391-3 5.991-1.2.197-2.053 0-2.55-.6s-.853-1.603-1.05-3l-.3-1.5c-.6-2.597-1.2-6.384-1.8-11.381l-.9-6.291c-.197-1.594-.497-2.794-.9-3.591s-1.303-1.294-2.7-1.5c-1.406-.206-2.503.3-3.3 1.5-.403.6-.797 1.8-1.2 3.591-.6 2.597-1.697 4.491-3.3 5.691s-3.797 2.006-6.591 2.4c-2.391.403-4.387 0-5.991-1.2-1.003-1.003-2.091-2.597-3.291-4.791l-.3-.6c-.806-1.603-1.5-2.7-2.1-3.3-1.003-1.003-2.241-1.5-3.741-1.5s-2.747.497-3.741 1.5c-.6.797-1.303 2.1-2.1 3.891l-.3.3c-.797 1.603-1.847 4.153-3.15 7.641s-2.353 6.037-3.15 7.641c-1.406 3.197-3.497 4.688-6.291 4.491-1.397-.197-2.494-.75-3.291-1.65s-1.491-2.147-2.1-3.741q-3.291-11.982-2.7-29.953v-4.491c.197-7.388.3-12.975.3-16.772 0-6.197-.403-11.784-1.2-16.772-1.003-5.587-.806-10.884.6-15.881l.3-.6c.6-2.203.9-3.797.9-4.791 0-2.006-.703-3.197-2.1-3.591s-2.597-.197-3.591.6q-.9.605-2.25 2.7c-1.35 2.095-1.547 2.297-1.95 2.7s-.6.806-.6 1.2c-2.194 5.391-5.794 13.481-10.781 24.263-4.997 10.978-8.588 19.369-10.781 25.163-3.797 9.394-6.394 18.178-7.791 26.363-.6 3.994-2.241 7.987-4.941 11.981s-5.391 5.991-8.091 5.991-5.25-1.997-7.641-5.991c-2.006-3.197-3.9-8.391-5.691-15.581l-1.5-5.391c-.403-1.397-.797-3.497-1.2-6.291-.797-3.994-1.5-6.994-2.1-8.991q-1.8-4.487-5.091-7.341c-3.291-2.854-3.844-2.747-4.941-2.55-1.106.197-2.344 1.594-3.741 4.191-1.8 3.394-3.9 8.784-6.291 16.181-1.603 5.597-3 9.694-4.191 12.281-1.8 4.997-1.997 9.891-.6 14.681.806 2.991 2.897 7.088 6.291 12.281 1.603 2.794 3.703 5.494 6.291 8.091 1.603 1.603 4.2 3.797 7.791 6.591 4.397 3.591 7.594 6.394 9.591 8.391q8.988 9.886 18.272 15.581 3.586 2.405 6.441 2.25c2.855-.155 4.05-1.05 6.441-2.85 4.191-3.994 7.988-7.097 11.381-9.291 4.397-3 8.691-5.091 12.881-6.291 9.394-2.794 17.775-4.791 25.162-5.991 8.991-1.397 17.681-1.8 26.063-1.2s15.375 2.194 20.972 4.791c6.591 2.991 12.075 7.688 16.472 14.081 2.203 3.591 4.05 5.944 5.541 7.041s3.038 1.406 4.641.9 4.2-1.847 7.791-4.041c2.391-1.603 6.188-3.403 11.381-5.391 4.191-1.603 7.294-2.897 9.291-3.891q18.871-11.078 37.744-26.363c3.797-3 6.694-6.891 8.691-11.681q.9-1.8.45-2.7c-.45-.9-1.106-1.35-2.4-2.25s-2.053-1.753-2.25-2.55zm-210.6 15.872c-.6.197-1.097.15-1.5-.15s-.553-.6-.45-.9.347-.6.75-.9.703-.45.9-.45.6.103 1.2.3l1.5.9z"/></svg>