<?xml version="1.0" encoding="UTF-8" standalone="no"?>
<!DOCTYPE svg PUBLIC "-//W3C//DTD SVG 1.1//EN" "http://www.w3.org/Graphics/SVG/1.1/DTD/svg11.dtd">
<svg width="100%" height="100%" viewBox="0 0 300 300" version="1.1" xmlns="http://www.w3.org/2000/svg" xmlns:xlink="http://www.w3.org/1999/xlink" xml:space="preserve" xmlns:serif="http://www.serif.com/" style="fill-rule:evenodd;clip-rule:evenodd;stroke-linejoin:round;stroke-miterlimit:2;">
    <path d="M38.747,297.975C32.781,296.786 32.513,290.037 29.831,291.122C28.462,291.469 23.315,288.038 18.862,283.575C14.062,279.122 12.693,276.722 15.431,278.091C18.515,279.807 19.547,279.807 17.831,277.744C15.852,275.765 -12.143,272.047 5.147,265.06C13.006,261.884 27.54,239.427 29.147,236.944C48.165,207.141 50.819,209.27 52.46,206.692C54.428,203.603 53.219,200.3 68.231,186.554C79.131,176.953 101.166,145.949 103.799,142.243C125.934,111.1 124.397,107.738 129.51,99.173C129.827,98.79 135.319,97.126 137.483,89.532C139.246,81.324 144.25,83.8 144.815,82.717C145.945,80.554 145.377,77.757 146.507,75.594L162.514,80.269C163.629,80.859 173.029,85.83 173.145,91.922C173.2,94.829 155.413,125.593 143.314,140.953C134.876,151.402 105.106,206.043 103.198,207.469C100.798,209.522 97.714,215.7 96.682,221.185C95.313,226.669 90.166,236.269 85.029,242.785C70.976,259.585 60.345,277.754 55.198,294.554C53.482,300.385 50.051,301.07 38.745,297.985L38.747,297.975Z" style="fill-rule:nonzero;"/>
    <path d="M213.253,145.406C194.4,131.353 189.937,124.837 197.137,120.375C198.988,119.445 201.615,108.477 199.909,102.693C198.077,96.477 187.476,88.45 186.168,87.459C183.561,85.606 156.895,66.645 154.834,62.628C153.918,60.844 156.526,58.768 150.862,56.944C146.079,55.404 145.36,56.037 143.315,51.46C141.946,47.344 140.568,47.007 138.862,50.429C137.146,52.482 133.715,53.513 130.293,52.482C127.209,51.113 125.84,48.713 126.862,46.651C127.269,45.973 127.763,44.756 127.122,44.292C126.393,43.765 116.061,39.906 102.525,29.167C85.041,15.798 84.694,14.767 90.178,8.936C94.294,4.483 101.494,2.42 114.862,2.083C153.262,1.052 166.631,2.083 164.231,5.852C163.2,7.905 165.6,13.052 170.4,17.168C174.853,20.937 176.231,22.999 173.147,20.937C168.694,17.853 168.694,18.19 172.8,23.337C183.759,37.521 182.553,10.154 188.915,3.79C194.062,-1.01 195.084,-1.01 201.946,3.79C205.715,6.537 214.63,12.706 221.83,17.506C239.661,29.159 240.683,32.59 229.377,41.844C218.746,50.413 211.208,52.813 217.03,45.96C219.777,42.529 218.061,41.16 209.83,40.813L198.861,40.129L207.43,46.645C219.43,55.898 234.861,56.929 244.114,49.045C253.03,41.161 260.23,43.214 275.314,56.592C288.299,69.577 292.367,64.115 297.976,71.412C305.148,80.743 298.352,80.961 291.938,90.984C277.451,113.623 245.213,154.527 241.367,156.699C233.483,160.815 235.536,161.499 213.251,145.383L213.253,145.406ZM197.137,32.953C197.137,31.043 193.881,29.94 193.518,29.817C192.142,29.35 187.433,29.472 187.19,30.207C186.959,30.908 189.994,32.78 190.275,32.953C196.791,37.069 197.128,37.069 197.128,32.953L197.137,32.953Z" style="fill-rule:nonzero;"/>
</svg>
