<svg xmlns="http://www.w3.org/2000/svg" viewBox="0 0 300 300"><path d="M25.641 274.397c.797-.6 1.894-1.106 3.3-1.5l1.5-.3c4.406-1.397 7.406-3.497 9.009-6.3 2.597-4.8 6.009-8.606 10.209-11.409q8.409-6.005 14.709-15.609c6.403-10.003 12.113-19.416 17.109-28.219l.3-.6c9.009-15.806 16.106-27.309 21.309-34.519 2.597-3.197 6-8.306 10.209-15.309l3.6-6c1.003-1.8 2.7-4.406 5.1-7.8 4.406-6.806 7.303-12.112 8.709-15.909 1.8-4.397 5.306-10.5 10.509-18.309 4.8-7.209 8.1-12.806 9.909-16.809 0-.806.403-1.406 1.2-1.8 3.797-3.6 5.503-7.697 5.1-12.309-.403-3.197-2.006-7.303-4.8-12.309l-2.1-4.2c-.797-1.8-.853-3.403-.15-4.8s1.95-2.297 3.75-2.7l19.509-5.1c3-1.003 5.25-3.047 6.75-6.15s1.95-6.356 1.35-9.759c-1.8-8.203-3.797-15.506-6-21.909-.6-1.997-.497-3.45.3-4.35s2.297-1.153 4.5-.75l17.709 3.9c3.797 1.003 6.656.356 8.559-1.95s4.453-3.947 7.65-4.95c1.8-.797 4.706-1.397 8.709-1.8l1.2-.3c12-2.803 21.309-4.303 27.919-4.5 2.4-.197 5.606.6 9.609 2.4l2.7 1.2c.797.403 1.397 1.397 1.8 3l.9 3.6c1.397 5.409 1.997 9.609 1.8 12.609-.197 2.006-.047 3.647.45 4.95s1.547 2.25 3.15 2.85c2.4 1.406 2.194 2.803-.6 4.2-4.2 2.4-6.797 4.95-7.8 7.65s-.703 6.356.9 10.959c.797 2.203 1.303 4.8 1.5 7.8.197 1.8.3 4.5.3 8.109v2.1c.197 1.397-.197 2.4-1.2 3-.6.403-1.8.797-3.6 1.2l-1.8.3c-1.8.403-4.5.497-8.1.3-4.8-.197-8.4.197-10.809 1.2-3.6 1.2-6.497 3.75-8.709 7.65s-2.756 7.547-1.65 10.959c1.106 3.403 1.453 8.006 1.05 13.809 0 3-1.603 4.5-4.8 4.5h-7.2c-6.806-.197-12.713 2.503-17.709 8.1-2.803 3.197-6.9 7.903-12.309 14.109-8.203 9.609-14.513 16.706-18.909 21.309l-5.4 5.7c-12 12.609-20.813 22.219-26.419 28.819-3.6 4.397-9.103 10.903-16.509 19.509l-9.009 10.509c-3.197 3.6-5.4 6.403-6.6 8.409-1.997 3.6-5.709 8.456-11.109 14.559s-9.112 10.856-11.109 14.259c-6.009 9.806-11.709 18.216-17.109 25.219-.806 1.003-1.753 2.747-2.85 5.25s-2.044 4.35-2.85 5.55c-1.397 1.997-2.4 3.253-3 3.75s-1.247.656-1.95.45c-.703-.197-2.044-.9-4.05-2.1-1.2-.6-2.194-1.003-3-1.2s-1.8-.103-3 .3c-2.597 1.2-5.25 1.2-7.95 0s-4.65-3.197-5.85-6c-2.803-7.603-5.4-13.106-7.8-16.509zM191.944 94.894c1.2-.403 3.103-.6 5.7-.6l2.7-.3c3.403-.403 5.747-1.556 7.05-3.45s1.453-4.453.45-7.65l-.6-2.4c-.797-2.597-1.097-4.5-.9-5.7.197-3.197-1.406-4.603-4.8-4.2-5.4 1.2-10.5 3.3-15.309 6.3-1.603.806-2.147 1.903-1.65 3.3s.947 3.3 1.35 5.7c.197 2.194.403 3.797.6 4.8 1.003 3 2.803 4.406 5.4 4.2zm48.628-53.738c0-1.003-.103-2.4-.3-4.2l-.3-3.9c-1.003-5.203-3.6-7.303-7.8-6.3q-5.696.9-12.909 5.4c-.797.197-1.35.9-1.65 2.1s.3 3.703 1.8 7.5 2.747 6.103 3.75 6.9c.6.6 1.5.806 2.7.6h1.2c1.397-.197 3.6-.797 6.6-1.8 1.8-.806 3.103-1.303 3.9-1.5 2.4-.797 3.403-2.4 3-4.8z"/></svg>