<svg xmlns="http://www.w3.org/2000/svg" xml:space="preserve" fill-rule="evenodd" stroke-linejoin="round" stroke-miterlimit="2" clip-rule="evenodd" viewBox="0 0 300 300"><path fill-rule="nonzero" d="M38.747 297.975c-5.966-1.189-6.234-7.938-8.916-6.853-1.369.347-6.516-3.084-10.969-7.547-4.8-4.453-6.169-6.853-3.431-5.484 3.084 1.716 4.116 1.716 2.4-.347-1.979-1.979-29.974-5.697-12.684-12.684 7.859-3.176 22.393-25.633 24-28.116 19.018-29.803 21.672-27.674 23.313-30.252 1.968-3.089.759-6.392 15.771-20.138 10.9-9.601 32.935-40.605 35.568-44.311 22.135-31.143 20.598-34.505 25.711-43.07.317-.383 5.809-2.047 7.973-9.641 1.763-8.208 6.767-5.732 7.332-6.815 1.13-2.163.562-4.96 1.692-7.123l16.007 4.675c1.115.59 10.515 5.561 10.631 11.653.055 2.907-17.732 33.671-29.831 49.031-8.438 10.449-38.208 65.09-40.116 66.516-2.4 2.053-5.484 8.231-6.516 13.716-1.369 5.484-6.516 15.084-11.653 21.6-14.053 16.8-24.684 34.969-29.831 51.769-1.716 5.831-5.147 6.516-16.453 3.431z"/><path fill-rule="nonzero" d="M213.253 145.406c-18.853-14.053-23.316-20.569-16.116-25.031 1.851-.93 4.478-11.898 2.772-17.682-1.832-6.216-12.433-14.243-13.741-15.234-2.607-1.853-29.273-20.814-31.334-24.831-.916-1.784 1.692-3.86-3.972-5.684-4.783-1.54-5.502-.907-7.547-5.484-1.369-4.116-2.747-4.453-4.453-1.031-1.716 2.053-5.147 3.084-8.569 2.053-3.084-1.369-4.453-3.769-3.431-5.831.407-.678.901-1.895.26-2.359-.729-.527-11.061-4.386-24.597-15.125-17.484-13.369-17.831-14.4-12.347-20.231 4.116-4.453 11.316-6.516 24.684-6.853 38.4-1.031 51.769 0 49.369 3.769-1.031 2.053 1.369 7.2 6.169 11.316 4.453 3.769 5.831 5.831 2.747 3.769-4.453-3.084-4.453-2.747-.347 2.4 10.959 14.184 9.753-13.183 16.115-19.547 5.147-4.8 6.169-4.8 13.031 0 3.769 2.747 12.684 8.916 19.884 13.716 17.831 11.653 18.853 15.084 7.547 24.338-10.631 8.569-18.169 10.969-12.347 4.116 2.747-3.431 1.031-4.8-7.2-5.147l-10.969-.684 8.569 6.516c12 9.253 27.431 10.284 36.684 2.4 8.916-7.884 16.116-5.831 31.2 7.547 12.985 12.985 17.053 7.523 22.662 14.82 7.172 9.331.376 9.549-6.038 19.572-14.487 22.639-46.725 63.543-50.571 65.715-7.884 4.116-5.831 4.8-28.116-11.316zM197.137 32.953c0-1.91-3.256-3.013-3.619-3.136-1.376-.467-6.085-.345-6.328.39-.231.701 2.804 2.573 3.085 2.746 6.516 4.116 6.853 4.116 6.853 0z"/></svg>