<svg xmlns="http://www.w3.org/2000/svg" width="300" height="300" viewBox="0 0 300 300"><title>weapons-blast</title><path d="M181.012 281.794c-1.191-.591-1.894-1.791-2.091-3.581v-.891c-.197-1.987-1.397-2.878-3.581-2.681-.797 0-1.688.3-2.681.891-3.581 1.987-6.169 3.778-7.753 5.372l-.3.6c-1.987 2.184-3.778 3.478-5.372 3.872-1.988 0-3.281 1.387-3.872 4.172-.403 1.387-1.191 2.981-2.381 4.772l-.6.891c-1.387 2.391-3.084 3.675-5.072 3.872s-4.069-.703-6.262-2.681c-5.569-5.569-13.322-11.728-23.259-18.488q-2.981-1.491-5.962-.45c-2.981 1.041-2.194 2.334-.6 4.922.994 1.387 1.434 2.287 1.341 2.681s-.75 1.387-1.941 2.981c-3.581-3.581-9.544-8.25-17.897-14.016l-3.872-2.981c-2.578-1.791-4.772-3.675-6.562-5.662-3.384-3.384-8.456-6.356-15.206-8.944-.787-.197-1.987-.694-3.581-1.491-2.981-1.584-5.363-2.381-7.153-2.381-.591 0-1.191-.6-1.791-1.791-.403-.797-.45-1.444-.15-1.941s.844-.797 1.641-.891 1.894.103 3.281.6 2.391.647 2.981.45l5.662-2.091c1.191-.403 2.981-.703 5.372-.891 1.791 0 3.084-.103 3.872-.3l1.191-.3c2.184-.591 3.778-1.144 4.772-1.641s2.287-1.641 3.881-3.431c.591-.797 1.491-1.388 2.681-1.791.797 0 1.491.797 2.091 2.381.403.797 1.387 1.238 2.981 1.341s2.475-.244 2.681-1.041c.994-2.184 2.381-4.275 4.172-6.262.994-1.191 2.681-2.887 5.072-5.072l5.962-6.262c3.975-3.975 6.666-7.256 8.053-9.844.197-.403.703-.947 1.491-1.641s1.294-1.294 1.491-1.791.797-.947 1.791-1.341 1.491-1.088 1.491-2.091q2.096-.888 4.472-3.872l1.791-2.681c.787-1.191 1.387-1.988 1.791-2.381l1.491-1.791c1.191-1.791 2.184-2.981 2.981-3.581s1.134-1.144 1.041-1.641c-.103-.497-.347-1.144-.75-1.941l-.3-.6c-.197-.6-.797-1.294-1.791-2.091l-.891-.891c-.403-.591-1.247-1.388-2.531-2.381s-2.231-1.988-2.831-2.981q-.898-1.493-3.581-3.872l-7.453-6.863q-.296-.604-1.491-1.491l-.6-.6q-.605-.888-1.041-2.831c-.436-1.943-.591-2.241-.891-2.831s-.994-1.087-2.091-1.491c-1.087-.403-2.137-1.397-3.131-2.981s-1.884-2.681-2.681-3.281q-1.788-1.195-4.772-4.472l-1.491-1.491c-.197-1.191.394-2.287 1.791-3.281q2.686-1.786 7.903-6.412c5.217-4.626 6.319-5.222 8.503-6.412.797-.591 1.884-1.584 3.281-2.981 1.791-2.184 3.375-3.478 4.772-3.881 2.184-2.391 5.916-5.625 11.184-9.694s9-7.406 11.184-9.994q1.196-1.491 1.041-2.531c-.155-1.04-.544-1.537-1.341-2.531l-1.791-1.491c-1.387-.994-2.184-1.884-2.381-2.681s-.891-1.594-2.091-2.381c-.797-.197-1.284-.497-1.491-.891-.797-1.594-2.438-3.628-4.922-6.112s-4.125-4.622-4.922-6.412l-.6-2.091c-.787-1.987-1.584-3.478-2.381-4.472l-3.281-4.472q-3.868-5.074-5.962-7.153c-2.391-2.578-4.875-4.669-7.453-6.263-.197-.197-.3-.497-.3-.891s.197-.788.6-1.191c4.772-2.194 8.344-5.269 10.734-9.244.591-.994 1.688-2.184 3.281-3.581l2.091-2.091c1.387-1.594 2.588-2.634 3.581-3.131s1.988-1.444 2.981-2.831l1.491-1.791c3.581-4.369 6.459-7.453 8.644-9.244 2.981-2.391 5.569-4.275 7.753-5.663 3.975-2.391 7.556-5.963 10.734-10.734l1.791-1.791c.994-.994 1.688-1.884 2.091-2.681.591 1.387.797 2.784.6 4.172q-.295 1.196-1.491 3.431c-1.196 2.235-1.284 2.634-1.491 3.431-1.397.994-2.981 2.981-4.772 5.962l-2.091 3.281c-2.184 3.778-4.772 7.556-7.753 11.334-2.578 4.172-4.472 8.944-5.662 14.316-.403 2.981-.253 5.512.45 7.603s2.044 4.022 4.022 5.813c.403.403.9.994 1.491 1.791.797 1.387 1.538 2.241 2.241 2.531s1.594.938 2.681 1.941c1.088 1.003 1.931 1.641 2.531 1.941s1.35.984 2.241 2.091c.891 1.106 1.734 1.744 2.531 1.941s1.688.787 2.681 1.791c.994 1.003 1.894 1.65 2.681 1.941s1.791 1.087 2.981 2.381c1.191 1.294 2.184 2.044 2.981 2.241 1.191.403 2.784 1.594 4.772 3.581l.6.6c.797.797 2.091 1.594 3.872 2.381s2.981 1.688 3.581 2.681c.403.6 1.097.797 2.091.6h5.662c.403 0 .694.3.891.891s.197 1.191 0 1.791-.994 2.287-2.381 3.281l-2.091 2.091c-5.962 6.366-10.134 11.334-12.525 14.906-.197.403-.703.994-1.491 1.791-1.791 1.584-4.172 4.172-7.153 7.753q-3.868 4.767-5.962 6.862c-.403.403-.994 1.191-1.791 2.381-1.191 1.791-2.138 2.878-2.831 3.281s-1.491 1.191-2.381 2.381c-.891 1.191-1.744 1.978-2.531 2.381q-2.095 1.493-1.941 5.222c.154 3.729.844 4.228 2.241 5.222.787.403 1.584 1.247 2.381 2.531s1.491 2.128 2.091 2.531c.994.591 2.287 1.791 3.872 3.581l10.734 10.734c1.791 1.791 2.981 3.281 3.581 4.472 1.791 2.784 3.778 4.866 5.963 6.262s3.328 3.431 3.431 6.113c.103 2.681-.844 5.016-2.831 7.003-.403.6-1.097 1.294-2.091 2.091l-.891.891c-.994 1.388-1.838 2.241-2.531 2.531s-1.537-.15-2.531-1.341l-.6-.6c-.403-.403-.797-.403-1.191 0l-.3.891c-.591.403-.591.797 0 1.191l.3.3c.787.591 1.191 1.238 1.191 1.941s-.253 1.247-.75 1.641-.844.787-1.041 1.191c-2.784 3.384-6.853 8.456-12.225 15.206l-5.072 6.563c-.591.797-1.191 2.184-1.791 4.172l-.891 2.091-.3.3c-.994.797-1.191 1.491-.6 2.091.197.197.403.703.6 1.491s.497 1.294.891 1.491q1.49.602 4.022 2.681c2.532 2.079 3.131 2.278 4.322 2.681l.6.3c1.988.787 3.375.994 4.172.6 2.981-.994 7.256-1.284 12.825-.891h6.262c.797 0 1.988-.197 3.581-.6 2.578-.591 4.622-.788 6.113-.6s3.834.197 7.003 0h3.281c2.391.197 5.963.797 10.734 1.791l3.581.6c1.988.6 2.288 1.594.891 2.981-.797.994-2.081 1.894-3.872 2.681s-2.981 1.584-3.581 2.381c-2.391 2.775-4.678 4.969-6.862 6.563-.797.797-2.138 1.837-4.022 3.131s-3.328 2.334-4.322 3.131l-6.862 6.863c-1.988 1.584-3.872 2.775-5.662 3.581-1.388.403-3.178 1.791-5.372 4.172zm-76.04-10.735c.797-.787 1.191-1.387 1.191-1.791s-.197-.797-.6-1.191-.75-.591-1.041-.6-.638.197-1.041.6-.6.703-.6.891c.403.6 1.097 1.294 2.091 2.091M30.712 147.6h6.563v-3.281c0-1.987.891-3.384 2.681-4.172q6.553-2.981 8.944-5.962c.591.197.984.197 1.191 0s.403-.6.6-1.191l.3-.891c.994-.994 2.091-2.681 3.281-5.072.994-2.184 1.884-3.675 2.681-4.472 1.791-2.784 2.578-5.662 2.381-8.644-.403-2.194-1.387-4.969-2.981-8.353-1.584-2.578-4.069-6.263-7.453-11.034l-2.681-4.172c-1.987-1.584-4.369-4.472-7.153-8.644-2.194-3.178-3.928-5.419-5.222-6.713s-2.934-3.328-4.922-6.112l-2.381-2.981c-.788-.591-1.191-1.387-1.191-2.381v-1.191c0-.994.253-1.594.75-1.791s1.341.3 2.531 1.491l1.491 1.491c1.191 1.387 2.344 2.184 3.431 2.381s1.988 1.134 2.681 2.831c.694 1.688 1.941 3.131 3.731 4.322s4.378 3.478 7.753 6.862l3.281 3.281q5.667 5.667 11.925 8.944c.994.403 2.184 1.397 3.581 2.981l1.791 1.791c.994-.403 1.884-.103 2.681.891s1.491 1.491 2.091 1.491q4.165 4.472 9.244 7.453c5.079 2.981 6.262 4.866 8.644 8.644.591.994 1.688 1.884 3.281 2.681l.891.6c1.397.797 2.194 1.594 2.381 2.381s.094 1.941-.3 3.431c-.394 1.491-1.594 2.831-3.581 4.022-1.191.6-1.987 1.191-2.381 1.791-1.584.197-3.572 1.397-5.962 3.581-1.791 1.791-3.178 2.878-4.172 3.281s-1.537 1.341-1.641 2.831c-.103 1.491.15 2.634.75 3.431l2.681 3.581 2.091 2.981c.994 1.397 2.681 3.084 5.072 5.072l2.091 1.791c4.172 3.581 6.862 6.666 8.053 9.244 0 .591.6 1.191 1.791 1.791s2.391 1.491 3.581 2.681c.787.787 1.791 1.987 2.981 3.581 1.584 2.184 2.925 3.778 4.022 4.772s2.137 2.578 3.131 4.772c.403 1.388.797 2.391 1.191 2.981.797.787 1.237 1.491 1.341 2.091s.553 1.191 1.341 1.791c.797.591 1.087 1.191.891 1.791-.797 1.988-1.894 3.084-3.281 3.281-.797.403-1.791 1.191-2.981 2.381l-2.981 2.681c-1.191.994-2.091 1.884-2.681 2.681-.994 1.594-3.178 3.572-6.562 5.962-2.184 1.791-3.778 3.178-4.772 4.172-1.191 0-2.287.797-3.281 2.381-.591.994-1.191 1.688-1.791 2.091-1.191.591-2.578 2.381-4.172 5.372l-.3.6c-.197.403-.497.703-.891.891s-.694.197-.891 0c-.403-.591-1.144-.891-2.241-.891s-1.744-.197-1.941-.6c-.403-.787-1.491-1.491-3.281-2.091s-2.934-1.35-3.431-2.241-1.2-1.688-2.091-2.381c-.891-.694-1.791-.984-2.681-.891s-1.491-.45-1.791-1.641-.844-1.688-1.641-1.491c-3.778-3.178-9.647-7.359-17.597-12.525l-.891-.891c-.591-.591-1.087-.994-1.491-1.191-1.594-.994-2.091-2.381-1.491-4.172.403-.6.994-.891 1.791-.891s1.491.197 2.091.6c1.397.797 3.581 1.088 6.563.891 1.791-.197 3.028-.197 3.731 0s1.547.3 2.531.3c1.987-.197 3.375.103 4.172.891.591.197 1.341.197 2.241 0s1.744-.6 2.531-1.191c1.584-.994 2.531-2.241 2.831-3.731s-.253-2.644-1.641-3.431c-.994-.6-2.381-1.594-4.172-2.981-3.178-2.381-5.766-3.881-7.753-4.472-.197 0-.3-.103-.3-.3l-.3-.3c-.403-1.594-1.791-3.281-4.172-5.072-1.397-1.191-2.391-2.091-2.981-2.681l-.891-1.191c-.591-.994-1.134-1.744-1.641-2.241s-1.247-.647-2.241-.45c0-.797-.197-1.387-.6-1.791s-1.05-.797-1.941-1.191-1.538-.787-1.941-1.191l-.891-1.191c-.994-1.987-2.091-3.178-3.281-3.581l-.3-.6-.891-.891c-1.388-.787-3.084-2.784-5.072-5.962zm39.366 29.522c0-.591-.047-.984-.15-1.191s-.45-.403-1.041-.6c-1.594-.403-2.831-1.05-3.731-1.941s-1.594-.797-2.091.3-.591 1.894-.3 2.381.938.938 1.941 1.341q1.504.605 1.491 1.491c-.013.886.094.938.3 1.041s.497.047.891-.15l.891-.6c.797-.403 1.341-.694 1.641-.891s.347-.591.15-1.191zm-2.381-66.197c-.591.403-1.088.797-1.491 1.191-.797.591-.891 1.791-.3 3.581h.891c.797-.197 1.087-.9.891-2.091v-2.681zm140.747 118.678c-.591 0-1.491-.197-2.681-.6-3.581-.591-6.263-.797-8.053-.6-2.391.197-5.766.9-10.134 2.091-2.184.403-5.269.6-9.244.6h-5.662c-.994 0-1.594-.497-1.791-1.491s.103-1.884.891-2.681c1.988-2.194 3.684-4.472 5.072-6.862q.605-1.196 2.531-2.981c1.926-1.785 2.128-2.391 2.531-3.581 0-.591.497-1.294 1.491-2.091l1.191-.891 23.859-23.859c1.594-1.594 2.381-3.028 2.381-4.322s-1.088-2.634-3.281-4.022q-3.276-2.079-9.844-7.153c-5.166-3.581-9.141-6.262-11.925-8.053-.797-.403-1.387-1.05-1.791-1.941s-.45-1.641-.15-2.241.6-1.444.891-2.531.694-2.034 1.191-2.831c.497-.806 1.247-1.397 2.241-1.791s2.044-1.088 3.131-2.091c1.097-1.003 1.847-2.091 2.241-3.281.197-.591.6-1.191 1.191-1.791 2.194-1.791 5.072-4.866 8.644-9.244 3.178-3.778 5.709-6.459 7.603-8.053s2.878-2.738 2.981-3.431.647-1.237 1.641-1.641c.591-.197.938-.403 1.041-.6s.047-.6-.15-1.191l1.791-1.191c2.184-1.397 3.628-2.634 4.322-3.731s1.838-2.634 3.431-4.622l1.191-1.191c1.191-.994 2.184-1.688 2.981-2.091.403 0 .797-.3 1.191-.891.797-.994 1.594-1.388 2.381-1.191.197 0 .403-.3.6-.891l.3-.6c.797-.403 1.791-1.341 2.981-2.831s2.287-2.531 3.281-3.131c1.594-.787 3.384-2.681 5.372-5.662l.6-.891q.602-.888 3.581-2.381c1.191-.797 2.784-2.381 4.772-4.772l2.681-2.681c.797-.591 1.341-.694 1.641-.3s.403 1.144.3 2.241c-.103 1.106-.844 2.344-2.241 3.731l-.6.6q-2.096 2.686-5.372 8.353c-1.594 2.775-2.831 4.772-3.731 5.962s-1.941 2.981-3.131 5.372c-1.594 2.981-2.981 5.072-4.172 6.262-.403.403-.703 1.191-.891 2.381-.197 1.594-.694 2.784-1.491 3.581l-.6.6c-1.988 1.397-3.075 2.888-3.281 4.472-1.387.797-2.588 2.484-3.581 5.072-.6 1.791-1.191 2.981-1.791 3.581s-1.303 1.697-2.091 3.281l-1.191 1.791-.6 1.791c-.797 1.791-1.594 3.084-2.381 3.881-1.191 1.791-1.641 3.525-1.341 5.222s1.247 3.131 2.831 4.322c2.184 1.584 5.372 4.069 9.544 7.453l7.453 5.662q2.982 2.095 7.453 6.862 2.984 2.981 4.772 4.472c.403.403.6.797.6 1.191s-.197.891-.6 1.491c-.197 0-.497.197-.891.6-1.988 1.594-4.669 4.275-8.053 8.053-2.981 3.178-5.269 5.475-6.862 6.862-1.397.994-2.091 2.194-2.091 3.581.197.797-.197 1.491-1.191 2.091-.403.591-.694.994-.891 1.191q-3.589 2.981-9.244 10.434c-2.981 3.769-5.269 6.459-6.863 8.053-.6.591-1.087 1.641-1.491 3.131s-.797 2.541-1.191 3.131c-.591 1.791-1.791 2.484-3.581 2.091-.197-.197-.497-.403-.891-.6h-1.791zm1.49-6.262c.197 0 .403-.103.6-.3l-.891-.6-.3.6c.197.197.403.3.6.3zM1.191 205.453c.994.994 2.831 1.444 5.513 1.341s4.519.253 5.512 1.041q.886-.296 2.531.45c1.645.746 1.941.703 2.531.6s1.688-.047 3.281.15h1.491c1.594-.197 3.872.103 6.863.891l1.491.3c.403 0 .844.253 1.341.75s.938.75 1.341.75c1.397-.197 3.487 0 6.262.6l2.381.6h1.191c.403 0 1.097-.197 2.091-.6 1.987-.797 3.478-.891 4.472-.3l1.491 1.491 3.581 2.681 3.281 2.681c1.987 1.791 3.581 3.131 4.772 4.022s3.281 2.034 6.262 3.431l2.981 1.191 2.681 2.091c.403.197.647.544.75 1.041s.047.938-.15 1.341c0 .797-.6 1.734-1.791 2.831s-1.894 2.138-2.091 3.131c0 .403-.6.497-1.791.3h-.6l-1.491.3c-1.584 0-2.878.3-3.872.891s-2.184.591-3.581 0c-.797-.403-1.884-1.097-3.281-2.091l-.3-.3c-2.184-1.791-4.275-3.075-6.263-3.872q-1.196-.296-2.981-1.941c-1.785-1.645-2.287-1.641-3.281-1.641q-1.49-1.491-5.512-2.531c-4.022-1.04-4.519-1.641-5.513-2.831-.403-.403-.994-.6-1.791-.6h-.6c-1.397.197-2.587-.3-3.581-1.491-1.397-2.194-3.581-3.478-6.562-3.872-.994-.403-2.531-1.097-4.622-2.091s-3.778-1.688-5.072-2.091-3.131-1.191-5.513-2.381c-1.584-.994-2.831-1.791-3.731-2.381s-1.341-1.387-1.341-2.381v-.3c0-.797.403-1.191 1.191-1.191zm227.831 26.841c-.797-1.988-.797-4.078 0-6.262.403-1.191 1.397-2.888 2.981-5.072l1.191-2.091c.403-.797 1.191-1.894 2.381-3.281 1.584-1.987 2.681-3.581 3.281-4.772.403-.797 1.294-1.894 2.681-3.281s2.278-2.588 2.681-3.581c1.191-1.594 2.588-1.594 4.172 0l.3.3c.797.787 1.444 1.238 1.941 1.341s1.144-.253 1.941-1.041c.197-.197.497-.197.891 0h.3c4.172.403 7.753-.394 10.734-2.381h2.091c1.397.197 3.384-.047 5.962-.75s4.472-.956 5.663-.75c.403 0 .891-.253 1.491-.75s1.041-.703 1.341-.6.647-.047 1.041-.45.788-.497 1.191-.3c1.987.403 4.772-.197 8.353-1.791l1.491-.6c1.397-.6 2.634-.891 3.731-.891s2.138.497 3.131 1.491c-.591.403-1.538.947-2.831 1.641s-2.241 1.341-2.831 1.941l-1.191.6c-.797-.403-1.538-.45-2.241-.15s-1.547.844-2.531 1.641-1.875 1.191-2.681 1.191c-1.191 0-2.878.797-5.072 2.381l-1.191.891c-2.775 2.184-7.059 4.575-12.825 7.153l-4.172 1.791c-.797.403-1.941 1.097-3.431 2.091s-2.634 1.641-3.431 1.941-1.941.844-3.431 1.641-2.634 1.387-3.431 1.791c-1.387.591-3.281 1.491-5.662 2.681l-2.681 1.491-.891.6-.6.6a6.36 6.36 0 0 1-2.981 2.091c-.6.197-1.688.45-3.281.75s-2.794.553-3.581.75z"/></svg>