<svg xmlns="http://www.w3.org/2000/svg" width="300" height="300" viewBox="0 0 300 300"><title>weapons-ranged-weapon</title><path d="M292.041.084c-1.603 3.394-3.797 8.606-6.6 15.609-3.6 9.206-6.6 15.919-9.009 20.119-6.806 11.203-12.113 22.612-15.909 34.228l-.6 1.5c-.403 1.406-.797 2.447-1.2 3.15s-1.247 1.05-2.55 1.05-2.147-.3-2.55-.9-.6-1.594-.6-3l-.3-1.8c-.6-4.809-3.206-5.709-7.809-2.7q-3.6 2.404-7.509 6.3c-1.603 1.603-3.9 4.097-6.9 7.509l-16.509 18.609c-9.609 10.406-16.912 18.216-21.919 23.419-3.197 3.403-7.603 8.7-13.209 15.909-6.609 8.203-11.813 14.213-15.609 18.009-14.616 14.616-30.722 34.322-48.337 59.137-2.794 3.797-4.2 8.006-4.2 12.609q.296 3.6 0 11.109l-.3 7.509c0 3.403-1.106 5.803-3.3 7.209-3.797 2.597-7.406 5.906-10.809 9.909-2.203 2.597-5.203 6.506-9.009 11.709-2.803 4.003-5.006 6.9-6.6 8.709l-3.9 4.2c-3.6 3.797-6.103 6.806-7.509 9.009-.403.6-.947 1.097-1.65 1.5s-1.35.403-1.95 0c-1.397-.403-1.903-1.903-1.5-4.5.6-5.203 1.5-10.313 2.7-15.309.403-2.194.6-5.606.6-10.209 0-3.403-1.397-5.503-4.2-6.3l-.6-.3c-.6-.197-1.003-.403-1.2-.6-4.406-4.397-9.609-6.6-15.609-6.6-3.6.197-9.009 1.397-16.209 3.6l-3.6.9c-1.397.197-2.494.197-3.3 0q-1.505 0-2.25-1.35c-.745-1.35-.6-1.697-.3-2.4s.853-1.547 1.65-2.55l.3-.3c5.203-5.606 11.212-11.109 18.009-16.509q3.6-2.7 8.409-.9c1.8.6 3.347.9 4.65.9s2.597-.403 3.9-1.2c1.303-.806 2.353-1.603 3.15-2.4s1.2-1.903 1.2-3.3c0-2.194-1.397-3.497-4.2-3.9-1.603-.403-2.447-1.097-2.55-2.1s.347-2.1 1.35-3.3l9.909-11.109c2.597-2.794 6.159-3.544 10.659-2.25s8.662.947 12.459-1.05c2.203-1.397 5.203-4.106 9.009-8.109l.6-.9c21.412-24.816 40.425-45.337 57.037-61.547 5.813-5.606 14.109-14.316 24.919-26.119l9.309-10.209c5.203-6.009 9.403-10.209 12.609-12.609s5.1-4.753 5.7-7.059 1.8-4.556 3.6-6.759c1.2-1.2 3.094-2.803 5.7-4.8 5.006-4.003 8.813-8.1 11.409-12.309 1.397-2.203 1.847-3.9 1.35-5.1s-1.95-2.194-4.35-3l-.9-.3a21 21 0 0 1-2.4-.6c-1.8-.797-2.747-1.847-2.85-3.15s.656-2.447 2.25-3.45c3-1.8 7.603-4.406 13.809-7.809l6.9-3.9c6.609-3.403 13.912-7.706 21.919-12.909 4.8-3.197 11.916-8.1 21.319-14.709.6 0 1.5-.253 2.7-.75s2.297-.647 3.3-.45zm-75.057 77.757v-1.2l-1.2.3v.3c0 .403.103.647.3.75s.403.047.6-.15zm64.847-66.047h-.3l-.3.3.6.6.3-.3c0-.403-.103-.6-.3-.6m-87.665 124.593c1.8-1.997 4.303-5.053 7.509-9.159s5.709-7.059 7.509-8.859c2.803-3.197 5.559-5.859 8.259-7.959s5.053-2.653 7.059-1.65c6.009 2.597 11.813 3.3 17.409 2.1 5.006-1.2 10.012-4.106 15.009-8.709 1.603-1.406 2.794-2.1 3.6-2.1s1.303 1.2 1.5 3.6c0 1.406.6 2.4 1.8 3 10.003 6.806 17.606 16.856 22.819 30.169s6.206 27.563 3 42.778c-3.797 16.416-8.4 30.319-13.809 41.728-3.6 8.006-5.597 15.319-6 21.919-.6 8.006.853 15.563 4.35 22.669s9.356 11.559 17.559 13.359c3 0 4.697 1.003 5.1 3 .197 1.003 0 1.8-.6 2.4s-1.397 1.2-2.4 1.8l-.9.3c-3.797 2.4-7.2 3.797-10.209 4.2-3.797.403-7.603-.403-11.409-2.4l-5.4-2.7c-5.006-1.997-8.606-4.097-10.809-6.3-4.2-4.603-7.2-10.003-9.009-16.209-1.406-4.603-2.4-10.8-3-18.609q-.604-10.507 2.7-22.519c1.397-4.603 4.003-11.606 7.809-21.019l.9-2.1c4.397-9.806 6.103-18.919 5.1-27.319-.197-1.2-.403-3.103-.6-5.7-.197-5.409-.9-9.412-2.1-12.009-1.2-2.203-2.494-3.703-3.9-4.5s-3.244-1.303-5.55-1.5c-2.297-.197-5.756-.197-10.359 0l-6.9.3c-5.203 0-10.509-.9-15.909-2.7-4.397-1.603-9.3-3.9-14.709-6.9-.403-.197-1.303-.6-2.7-1.2zm56.446 6.001c.197-.197.403-.3.6-.3l.3-.3c-.403-.403-.703-.6-.9-.6h-.6c0 .797.197 1.2.6 1.2M3.234 65.831v-5.7q0-1.504.9-2.7c.9-1.196 1.397-1.2 2.4-1.2l1.2-.3c1.003-.197 1.847-.253 2.55-.15s1.35.553 1.95 1.35l.9.9c.797 1.003 1.303 1.8 1.5 2.4 4.809 7.209 10.612 10.209 17.409 9.009 1.397-.197 3-.197 4.8 0 6.806 1.603 13.406.9 19.809-2.1 4.003-1.8 9.403-5.503 16.209-11.109 13.809-12.403 30.225-20.709 49.238-24.919 10.406-2.194 20.916-2.494 31.519-.9 9.609 1.397 19.509 4.406 29.719 9.009 1.406.6 3.15 2.053 5.25 4.35s3.956 3.75 5.55 4.35c.6.197.806.656.6 1.35s-.6 1.35-1.2 1.95c-1.003 1.603-1.997 4.2-3 7.809-.403 1.997-.853 3.544-1.35 4.65s-.656 2.55-.45 4.35c.197 1.003.6 2.597 1.2 4.8l.3 1.2c1.003 2.597 1.35 4.856 1.05 6.759s-1.65 3.656-4.05 5.25-5.203 4.8-8.409 9.609l-3 4.2c-4.406 5.203-7.8 9.009-10.209 11.409-3 3.197-5.4 2.794-7.209-1.2-2.597-5.606-3.9-10.313-3.9-14.109-.403-8.203-.3-14.213.3-18.009q1.504-7.509-5.4-9.309h-.6c-3.6-1.2-6.3-2.006-8.109-2.4-3-.403-5.803-.3-8.409.3q-2.996.9-6.3.9c-6.206-.197-12.412 1.097-18.609 3.9-4.2 1.8-9.6 5.1-16.209 9.909-4.397 3.197-9.506 5.906-15.309 8.109-4.406 1.603-10.012 3.197-16.809 4.8s-13.809 1.5-21.019-.3c-5.606-1.2-12.113-3.806-19.509-7.809-2.597-1.594-5.203-4.106-7.809-7.509l-.6-.9c-1.603-2.597-3.197-4.303-4.8-5.1-1.2-.403-1.903-1.2-2.1-2.4-.206-.6-.206-1.603 0-3v-1.5zm130.294-4.5c-.197-.197-.45-.347-.75-.45s-.553-.103-.75 0-.3.253-.3.45l-.3.6c.403.806.9 1.003 1.5.6z"/></svg>