<svg xmlns="http://www.w3.org/2000/svg" width="300" height="300" viewBox="0 0 300 300"><title>weapons-unarmed</title><path d="M26.531 181.163c-.178-.684-.872-.947-2.072-.778l-.263.262.263.516h.262c.684.178 1.294.178 1.809 0zm196.275-48.882q0-2.079-2.588-3.103c-.862 0-1.462.169-1.809.516 0 .684.3 1.509.909 2.456s1.256 1.594 1.941 1.941c1.041 0 1.556-.6 1.556-1.809zm-27.412 42.16c0-.516-.347-1.125-1.031-1.809-.862 0-1.462.516-1.809 1.556.516.863 1.294 1.294 2.325 1.294.347-.178.516-.516.516-1.031zm-72.15-11.897c.863.862 1.641 1.294 2.325 1.294l.516-.516c-.516-2.072-1.894-3.619-4.134-4.659-.169.178-.3.563-.384 1.162s.216 1.247.909 1.941zM38.681 99.441c4.481 2.241 9.741 4.228 15.778 5.944 3.45 1.209 8.709 2.672 15.778 4.397 6.028 1.547 10.509 2.756 13.444 3.619 1.031.347 1.978.169 2.841-.516h2.841c-.347-1.378-1.125-2.419-2.325-3.103-.684-.516-1.809-1.041-3.366-1.547-2.241-.684-3.797-1.463-4.65-2.325-3.966-1.378-8.1-3.366-12.413-5.944-2.587-1.378-6.291-3.797-11.119-7.237l-2.587-1.809c-2.241-1.378-5.775-3.281-10.603-5.691-1.725-.684-3.319-.731-4.781-.131s-2.625 1.763-3.488 3.487c-1.209 2.588-1.378 4.659-.516 6.206.684 2.072 2.409 3.619 5.175 4.65zm143.785-67.229c.347 1.041.862 2.766 1.556 5.175l.262 1.809q.002 1.293.778 2.841l.516 3.881c.516 3.45.863 6.038 1.031 7.753v1.031c.347 5.344 0 10.425-1.031 15.253l-.262.516c-.178.862-.441 1.462-.778 1.809q.267.506 0 1.547l-.516 2.325q-.776 1.814-.778 4.134v1.547l.262 1.547c.347.684.778 1.031 1.294 1.031h.262l.516 1.031v-1.294l.778-.778c.169-.684.262-1.725.262-3.103v-3.881l1.031-5.175q.267-.52 1.294-1.547c.178-.169.178-.431 0-.778v-.263c0-2.756.694-6.722 2.072-11.897.684-2.756 1.116-4.828 1.294-6.206l.778-3.103c.684-2.934.947-5.091.778-6.469l-.262-2.072c.338-.862.6-1.894.778-3.103v-1.809l.516-1.031c.516-1.2.684-2.494.516-3.881-.178-.863-.609-2.063-1.294-3.619 0-.178-.253-.516-.778-1.031s-.778-.947-.778-1.294v-.778c-.169-.684-.347-1.162-.516-1.425s-.6-.394-1.294-.384c-1.378 0-2.372.216-2.972.647s-1.247 1.078-1.941 1.941l-.516.516-1.031 2.072-1.031 1.556c-1.209.863-1.378 2.156-.516 3.881-.347.347-.431.684-.262 1.031zm-31.294 151.013q1.293 3.884 5.428 6.853c4.135 2.969 5.428 2.887 8.016 2.719.347 0 .778-.169 1.294-.516l.516-.262q1.294-.518 1.941-1.556c.647-1.038.563-1.294.384-1.809-.178-.516-.516-1.116-1.031-1.809l-.516-.516c-2.409-3.103-6.553-5.606-12.412-7.5-.684-.347-1.547-.169-2.588.516l-.778.516c-.347.169-.516.647-.516 1.425s.084 1.425.262 1.941zm60.769-16.547q1.294-.773 2.588-2.588l2.072-4.134c.347-.347.778-1.041 1.294-2.072l.778-1.294q1.293-2.067 3.881-6.722c2.072-2.934 3.534-5.691 4.397-8.278s1.209-4.659 1.031-6.206c.178-2.588-.347-4.697-1.556-6.338s-3.366-2.888-6.469-3.75l-.778-.263c-1.2-.178-2.072-.431-2.588-.778-1.041-.347-1.772-.984-2.194-1.941s-1.594-1.856-3.487-2.719l-1.556-.778c-2.241-1.378-4.481-3.066-6.722-5.044s-4.566-5.391-6.984-10.219c-1.209-3.103-3.103-5.344-5.691-6.722-2.409-1.209-5.175-1.725-8.278-1.547q-8.283 0-16.031 5.175a4.1 4.1 0 0 0-1.031.778l-3.103 1.031-1.809.263c-2.072.516-3.619 1.031-4.659 1.547h-.778c-2.072-.347-4.228-.253-6.469.263-1.547.347-3.703.947-6.469 1.809l-2.588.778c-6.375 1.725-12.844 4.397-19.397 8.016-.863.516-2.156.994-3.881 1.425s-3.019.909-3.881 1.425l-5.428 3.366c-7.584 5.006-13.453 8.447-17.587 10.341l-2.587 1.031c-1.547.684-2.588 1.2-3.103 1.547l-19.397 11.381c-8.1 4.65-14.044 8.363-17.841 11.119a285 285 0 0 1-4.397 2.841q-4.655 2.585-6.722 4.397c-2.934 2.409-6.806 5.175-11.634 8.278-1.378 1.041-3.188 2.672-5.428 4.913-1.556 1.556-2.756 2.672-3.619 3.366-.347.347-.563.816-.647 1.425s.037 1.078.384 1.425l.263.262c.338.347.6.647.778.909s.778.647 1.809 1.162l.778.262c1.547.862 2.925 1.125 4.134.778s2.494-1.116 3.881-2.325c1.209-.347 2.156-.862 2.841-1.556 0-.169.169-.431.516-.778h3.881c1.041 0 1.903.131 2.587.384s1.247.816 1.678 1.678.553 1.641.384 2.325l-2.072 2.587c-2.409 3.103-4.397 5.259-5.944 6.469-.684.862-1.809 1.987-3.366 3.366l-1.809 1.809c-1.041.863-2.156 1.988-3.366 3.366l-.778.778c-1.894 1.547-2.841 3.188-2.841 4.912v1.031l-3.366 10.866c-1.378 3.103-2.156 5.606-2.325 7.5 0 .347-.084.516-.263.516l-1.547 3.103c-1.209 2.241-1.725 3.881-1.547 4.912-1.725 5.175-3.188 8.972-4.397 11.381l-2.588 6.722c-.516 1.378-.825 2.803-.909 4.266s.131 2.278.647 2.456v.262h.516c2.409-.684 3.966-2.588 4.65-5.691.347-1.894.816-3.403 1.425-4.528s1.594-2.634 2.972-4.528l2.588-4.134c.516-.684 1.341-1.631 2.456-2.841s1.941-2.156 2.456-2.841c1.725-1.556 4.659-3.534 8.794-5.944 1.378-.516 2.588-1.209 3.619-2.072l.516-.516c5.522-3.619 13.359-7.059 23.531-10.341 4.134-1.378 6.853.169 8.147 4.659s1.941 9.403 1.941 14.737v1.294c-.178 1.041-.216 1.856-.131 2.456s.478 1.078 1.162 1.425h.262l1.294.516c.862 0 1.462-.084 1.809-.262.684-.178 1.294-.778 1.809-1.809l.263-.516c.684-1.378 1.125-2.409 1.294-3.103l.263-1.294a366 366 0 0 1 2.325-6.469l3.366-5.691 4.65-7.763c.684-1.041 1.678-2.597 2.972-4.659s2.288-3.534 2.972-4.397l.778-2.072c3.281-4.828 6.291-8.7 9.047-11.634 1.378-1.378 3.281-3.619 5.691-6.722l2.588-2.325c1.547-1.388 2.672-2.503 3.366-3.366l.516-.262c1.209-.684 2.072-1.725 2.587-3.103l1.031-2.841c.347-.516.516-1.041.516-1.556s-.169-1.209-.516-2.072c-.862-1.894-1.894-4.65-3.103-8.278l-2.325-6.206c-.178-.684-.263-1.2-.263-1.556l.778-1.294c.863-.516 1.678-.609 2.456-.262s1.341.862 1.678 1.556c.684 1.378 1.978 3.281 3.881 5.691 2.587 3.103 4.134 5.691 4.65 7.762.684 2.756 1.847 4.65 3.488 5.691s3.919 1.378 6.853 1.031c3.272-.347 6.206-1.116 8.794-2.325l2.072-1.294c1.547-1.041 2.756-1.725 3.619-2.072 1.209-.516 2.325-.431 3.366.262 1.725 1.2 4.528 2.588 8.4 4.134s6.675 2.841 8.4 3.881c2.756 1.725 4.997 3.797 6.722 6.206 2.241 3.113 4.491 4.706 6.722 4.781s5.081-1.078 8.531-3.488l.516-.516c1.378-1.041 2.419-1.903 3.103-2.587l1.031-.778c1.894-1.894 3.272-3.45 4.134-4.659.862-.862 1.378-1.641 1.556-2.325.684-1.387.947-2.325.778-2.841s-.853-1.463-2.072-2.841c-.178-.178-.441-.516-.778-1.031l-.516-.778a129 129 0 0 0-9.047-10.603c-1.041-1.209-3.103-2.766-6.206-4.659-1.725-1.041-2.934-1.809-3.619-2.325q-2.32-1.547-2.587-2.841c-.267-1.294.338-2.072 1.556-3.619.516-.516 1.041-1.378 1.556-2.588s.947-2.072 1.294-2.587c1.041-1.894 1.125-3.366.262-4.397a9.04 9.04 0 0 1-1.809-4.65c-.169-1.209-.262-2.934-.262-5.175v-1.547c0-2.409.262-3.966.778-4.65 1.209-1.209 3.272-2.156 6.206-2.841l.262 3.103c.338 3.619.338 6.375 0 8.278l-.262.778c-.862 1.378-1.041 2.841-.516 4.397 0 3.619 1.041 6.206 3.103 7.762 1.209 1.547 2.672 2.325 4.397 2.325 1.378.347 2.503.516 3.366.516h6.722c1.725 0 2.756.347 3.103 1.031s.169 1.641-.516 2.841l-2.841 2.841c-.684.684-1.209 1.941-1.556 3.75s-.178 3.066.516 3.75c.178 1.209.656 2.362 1.425 3.487s1.941 2.456 3.488 4.013q2.32 1.814 3.487 2.194c1.167.38 1.341.384 1.678.384.347 0 .778-.169 1.294-.516zm6.468-36.975c.178-.347.778-.516 1.809-.516q2.587.774 2.587 2.841c0 2.067-.516 2.072-1.556 2.072-.684-.347-1.331-.984-1.941-1.941s-.909-1.772-.909-2.456zm-92.578 33.356c0 .347-.263.516-.778.516s-1.209-.431-2.072-1.294l-.516-.516c-1.031-.863-1.463-1.641-1.294-2.325l.263-1.031c2.756 1.041 4.219 2.597 4.397 4.659zM24.197 180.647l.263-.262q1.296-.265 2.072.778c-.178.178-.516.178-1.031 0H24.47zm168.609-6.731c0-.862.6-1.387 1.809-1.556l.262.516c.347.516.516.994.516 1.425s-.169.731-.516.909-.731.131-1.162-.131-.731-.647-.909-1.162zm-29.222 33.881c-1.725-1.041-3.881-2.934-6.469-5.691-3.103-3.272-5.691-5.344-7.762-6.206-1.547-.516-2.156-1.378-1.809-2.588 0-.178.084-.347.262-.516.347-.516.684-1.209 1.031-2.072l.263-.516q.776-.776.778-2.072l-6.469-7.762c-.862-1.209-1.987-1.547-3.366-1.031-.516.347-.778 1.031-.778 2.072v.516c-.347.684-.084 1.894.778 3.619l.778 1.809q.774 2.841 0 3.881c-.178.516-.516.778-1.031.778s-1.284-.347-2.325-1.031c-3.619-1.547-8.269-1.725-13.969-.516-1.894.338-4.734 1.378-8.531 3.103-2.756 1.2-4.912 2.072-6.469 2.588-.178 0-.347.262-.516.778l-1.031 1.294 1.547-.262.263.262c.516.347.947.516 1.294.516h1.031c1.209 0 2.072-.084 2.587-.262 3.966-1.725 8.184-2.156 12.675-1.294 3.45.684 7.5 2.241 12.15 4.659l1.294.778c4.828 2.588 8.269 4.744 10.341 6.469.684.684 1.809 1.641 3.366 2.841l1.556 1.294c2.934 2.934 4.828 5.344 5.691 7.237 2.756 4.819 3.881 10.162 3.366 16.031l-1.556 7.237c-.862 2.756-2.072 5.775-3.619 9.047l-.778 1.294c-4.134 6.028-7.669 10.341-10.603 12.928-.178 0-.347.131-.516.384s-.169.563 0 .909l.516.262c.862 0 1.556-.169 2.072-.516s1.125-.684 1.809-1.031c4.481-2.409 8.269-5.513 11.381-9.309l1.556-1.556 1.556-1.809q1.814-1.814 2.588-3.881l.262-1.031a35 35 0 0 0 1.809-4.397l1.031-2.072q.776-1.561.778-2.588v-3.881c.178-3.619.178-6.375 0-8.278-.347-2.934-1.125-5.475-2.325-7.631s-2.841-5.391-4.912-9.694zM88.331 85.481q1.026 8.789 10.603 11.897 1.814.774 5.428 1.547l1.031.263 5.175.778c6.375 1.031 12.675 1.031 18.881 0 1.031 0 2.756-.347 5.175-1.031 6.544-2.241 12.412-5.606 17.588-10.088.516-.347 1.125-.947 1.809-1.809l2.325-2.325c1.378-1.209 2.372-2.156 2.972-2.841s.9-1.463.909-2.325v-1.294l.516-1.031c.347-.684.684-1.725 1.031-3.103v-.263h.262c1.041-2.241 1.725-5.006 2.072-8.278.178-2.072 0-4.312-.516-6.722-.178-1.556-.694-3.703-1.556-6.469l-1.031-4.134-.262-1.547c0-1.2-.169-2.072-.516-2.587-1.894-3.45-4.734-6.816-8.531-10.087-.684-.347-1.2-.253-1.556.263-.169.178-.262.431-.262.778s.262.778.778 1.294c0 .347.084.778.262 1.294l.262.262c2.756 3.272 4.388 7.847 4.913 13.706-.178 1.031-.178 1.809 0 2.325 0 .178.084.347.262.516.347 7.584-1.209 14.569-4.659 20.944-2.588 3.272-4.744 5.775-6.469 7.5-2.756 2.588-5.691 4.566-8.794 5.944q-12.684 5.429-22.5 5.175h-5.944c-2.072.178-4.828-.337-8.278-1.547l-1.809-.516c-1.725-.684-3.066-1.556-4.013-2.588s-1.509-2.419-1.678-4.134c-.178-.684-.731-1.416-1.678-2.194s-1.509-.825-1.678-.131l-.516.263c-.516.516-.609.947-.263 1.294 0 .347.084.684.263 1.031zm133.181 27.413c.347.169.947.6 1.809 1.294 1.378.862 2.409 1.463 3.103 1.809 1.209.516 2.409.684 3.619.516 2.409 1.031 5.006 1.809 7.763 2.325 4.659.862 9.178.731 13.575-.384s8.316-3.319 11.766-6.591l.516-.516c.863-.862 1.388-1.556 1.556-2.072s.262-1.378.262-2.588v-1.547c-1.041.516-2.419 1.256-4.134 2.194s-3.009 1.594-3.881 1.941l-1.031.516c-.862.516-1.556.694-2.072.516q-2.32-.267-7.369 0c-5.049.267-5.906.178-7.631 0-2.756-.347-5.259-1.031-7.5-2.072l-1.809-1.031c-2.587-1.387-4.491-2.503-5.691-3.366q-2.59-2.335-3.619-5.428l-.516-1.547q-2.067-5.428-2.841-8.016c-1.894-7.931-2.156-14.569-.778-19.912.347-1.031 1.031-2.756 2.072-5.175q1.293-1.294 1.941-3.234c.648-1.94.816-2.194 1.162-2.719l5.175-8.531.778-.778c1.378-.862 1.641-2.156.778-3.881q-1.026.52-2.841 1.547c-1.894.862-3.188 1.641-3.881 2.325l-3.881 4.913q-3.363 4.135-4.913 6.469l-.516.778c-1.209 1.725-1.978 3.019-2.325 3.881-.684 1.556-1.031 2.934-1.031 4.134v1.031c-.347 1.378-.516 2.419-.516 3.103-.862 6.553-.6 12.675.778 18.356s3.713 10.688 6.984 15q1.561 3.108 5.175 6.722zm37.238 52.237c-.862 0-2.241-.084-4.134-.262-3.797-.347-6.553-.253-8.278.262l-4.659 1.556c-4.481 1.547-7.753 2.841-9.825 3.881-3.103 1.725-5.175 3.534-6.206 5.428l-1.031 1.809c-1.894 1.894-4.05 4.913-6.469 9.047l-.778 1.031c-1.547 2.934-2.672 5.259-3.366 6.984-1.041 2.588-1.556 5.091-1.556 7.5-.862 4.828-1.2 9.309-1.031 13.444 0 3.103.431 6.216 1.294 9.309.178.862.647 2.287 1.425 4.266s1.678 3.75 2.719 5.297c2.409 3.45 5.775 6.984 10.088 10.603l1.031.778c1.2 1.041 2.147 1.294 2.841.778.862 0 1.425-.262 1.678-.778s.131-1.125-.384-1.809c-.169-.178-.347-.516-.516-1.031s-.338-.853-.516-1.031c-1.547-.516-2.85-1.462-3.881-2.841q-1.026-1.295-2.588-4.134l-1.809-3.103c-1.547-2.409-2.494-4.481-2.841-6.206-.684-2.409-.431-4.819.778-7.237.178-.516.178-1.294 0-2.325v-5.175c0-1.378.169-3.45.516-6.206.347-1.378.947-3.366 1.809-5.944 1.378-3.966 2.241-6.975 2.588-9.047.169-.862.778-2.156 1.809-3.881.516-.516 1.125-1.294 1.809-2.325l1.031-1.294c.516-.862 1.472-1.809 2.841-2.841l.262-.262c1.725-1.547 4.313-3.534 7.762-5.944h.262v-.262c.684-.347 1.547-.862 2.588-1.556l2.072-1.294a93 93 0 0 1 8.278-3.366c1.378 0 2.503.084 3.366.262.516 0 .947-.131 1.294-.384s.6-.6.778-1.031-.169-.647-1.031-.647zm41.119-30q-.265-1.812-1.556-3.103c-1.291-1.291-1.809-1.294-2.841-1.294h-1.031c-2.756 0-4.913.384-6.469 1.162s-3.966 1.247-7.238 1.425c-2.756.178-4.819.516-6.206 1.031h-1.556c-.516 0-.863-.084-1.031-.263-1.547-1.031-3.356-1.378-5.428-1.031q-1.814 0-5.428 1.294l-2.072.516c-1.209.516-2.156.694-2.841.516a14 14 0 0 0-4.659.263q-1.561.253-5.175 1.547c.169.347.516.684 1.031 1.031l.516.516v.263l4.397 1.031c9.994 1.894 17.494 3.441 22.5 4.65h.778c.347.178.862.262 1.556.262l10.603 2.072c3.45.516 6.731-1.294 9.825-5.428 1.209-.684 1.978-1.641 2.325-2.841.178-.684.178-1.894 0-3.619M198.497 262.106q-.52-.506 0-2.841c.347-5.006-.6-9.141-2.841-12.413-.516-.862-.778-1.894-.778-3.103 0-1.725-.347-3.019-1.031-3.881s-1.116-1.987-1.294-3.366c-.178-.684-.262-1.809-.262-3.366v-2.072q.267-2.588 0-3.881a30.9 30.9 0 0 0-3.881-11.634l-.516.516v.516l-.262 2.325c-.347.862-.431 1.463-.262 1.809.347 5.522.516 9.572.516 12.15l-.262 11.119c-.178.684-.262 1.631-.262 2.841v1.031l-.516 5.691v1.294c-.347 6.384.431 11.644 2.325 15.778.169.516.431 1.509.778 2.972s.6 2.541.778 3.234c.516 1.041 1.125 1.641 1.809 1.809l.262.262c.516.347.994.516 1.425.516s.731-.347.909-1.031v-.516q1.294-1.027 2.841-5.428c.862-1.725 1.378-3.413 1.556-5.044s-.169-3.403-1.031-5.297zm32.578-218.259c0-.178-.047-.216-.131-.131l-.384.384h.262v.263z"/></svg>