<svg xmlns="http://www.w3.org/2000/svg" width="300" height="300" viewBox="0 0 300 300"><title>weapons-bident</title><path d="M126.103 299.503c-1.791-4.388-.159-26.184 6.666-91.247.816-8.944 1.134-16.753.647-17.728-1.303-2.119-8.784-.159-12.853 3.412-6.347 5.691-13.013 6.825-20.981 3.412-6.019-2.766-7.312-4.228-9.103-10.406-1.134-4.069-1.631-9.103-.975-11.381.487-2.119-.159-6.994-1.631-10.894-3.094-8.944-2.438-13.988 4.556-29.109 11.063-23.747 13.012-31.387 20.981-78.066 1.791-11.222 3.909-28.303 4.388-38.053 1.134-18.872 3.909-24.394 5.859-12.038.647 3.909 1.463 24.394 1.95 45.863.816 42.609-.816 57.244-8.297 78.713-4.875 13.819-5.044 16.912-1.134 20.325 3.741 3.253 6.994 3.9 10.894 1.631 5.044-2.766 43.584-3.413 46.838-.816 3.741 3.084 7.969 1.791 10.734-3.253 2.278-3.909 2.119-5.044-3.412-16.266-10.575-21.628-10.734-22.603-11.222-70.584-.487-58.875-.487-60.994 2.119-62.616 1.631-.975 2.278 0 2.597 3.909 1.134 14.147 16.097 100.022 18.544 106.041.975 2.766 3.412 7.153 5.203 9.759 1.95 2.766 6.347 10.894 9.759 18.375 7.153 15.291 7.481 24.234 1.134 32.203-1.791 2.438-3.412 6.506-3.412 9.103 0 6.825-2.766 11.063-8.944 13.659-8.625 3.581-17.569 2.925-22.444-1.631-4.716-4.388-10.247-4.069-11.709.647-.488 1.791.975 22.931 3.253 47.334 4.069 43.106 4.228 56.109.159 58.716-1.631 1.134-39.684 1.95-40.172.975zm-13.819-111.244c.487-1.463.975-3.084.975-3.9 0-2.278-7.969-6.506-10.416-5.531-3.094 1.134-3.413 9.759-.487 10.894 4.069 1.791 8.944.975 9.919-1.462zm84.732-4.556c0-6.019-2.925-6.994-7.313-2.597-2.766 2.766-3.084 3.9-1.463 5.859 1.134 1.303 3.581 2.278 5.363 1.95 2.597-.328 3.412-1.631 3.412-5.203z"/></svg>