<svg xmlns="http://www.w3.org/2000/svg" width="300" height="300" viewBox="0 0 300 300"><title>weapons-hammer</title><path d="M38.747 297.975c-3.431-.684-6.169-3.084-6.169-4.8s-1.031-2.747-2.747-2.053c-1.369.347-6.516-3.084-10.969-7.547-4.8-4.453-6.169-6.853-3.431-5.484 3.084 1.716 4.116 1.716 2.4-.347-1.716-1.716-6.516-3.084-10.284-3.084-4.453 0-7.547-2.053-7.547-5.147 0-2.747 2.4-4.8 5.147-4.453 3.084.347 12.684-10.631 24-28.116 10.284-16.116 19.884-29.137 21.6-29.137 1.369 0 2.4-1.716 2.4-3.769s6.853-9.947 15.084-17.484c14.4-12.684 60.337-77.137 60.337-85.022 0-1.716 1.369-3.431 3.431-3.431 1.716 0 4.116-3.769 5.484-8.569 1.031-4.8 3.431-7.547 5.147-6.516s3.084-.684 3.084-3.431c0-7.2 3.769-6.853 16.8.684 5.831 3.084 10.631 8.569 10.631 11.653 0 4.8-17.138 32.916-29.831 49.031-7.2 8.916-35.316 56.222-35.316 59.316 0 1.716-2.053 5.147-4.8 7.2-2.4 2.053-5.484 8.231-6.516 13.716-1.369 5.484-6.516 15.084-11.653 21.6-14.053 16.8-24.684 34.969-29.831 51.769-1.716 5.831-5.147 6.516-16.453 3.431z"/><path d="M213.253 145.406c-18.853-14.053-23.316-20.569-16.116-25.031 2.053-1.031 3.431-6.516 3.431-12.347 0-7.884-3.084-12-14.4-20.569-28.453-20.231-33.253-24.684-31.537-27.431 1.031-1.716-.684-3.084-3.769-3.084-2.747 0-6.169-2.4-7.547-5.484-1.369-4.116-2.747-4.453-4.453-1.031-1.716 2.053-5.147 3.084-8.569 2.053-3.084-1.369-4.453-3.769-3.431-5.831 1.031-1.716.347-3.431-2.053-3.431s-12.347-6.169-22.284-14.053c-17.484-13.369-17.831-14.4-12.347-20.231 4.116-4.453 11.316-6.516 24.684-6.853 38.4-1.031 51.769 0 49.369 3.769-1.031 2.053 1.369 7.2 6.169 11.316 4.453 3.769 5.831 5.831 2.747 3.769-4.453-3.084-4.453-2.747-.347 2.4 5.831 7.547 10.631 4.8 10.631-5.831 0-4.453 2.4-10.631 5.484-13.716 5.147-4.8 6.169-4.8 13.031 0 3.769 2.747 12.684 8.916 19.884 13.716 17.831 11.653 18.853 15.084 7.547 24.338-10.631 8.569-18.169 10.969-12.347 4.116 2.747-3.431 1.031-4.8-7.2-5.147l-10.969-.684 8.569 6.516c12 9.253 27.431 10.284 36.684 2.4 8.916-7.884 16.116-5.831 31.2 7.547 5.831 5.831 10.969 9.6 10.969 8.569s3.084 0 6.853 2.053 6.853 6.169 6.853 8.916c0 6.853-50.737 76.116-58.622 80.569-7.884 4.116-5.831 4.8-28.116-11.316zm-28.115-67.875c-1.031-1.716-4.8-3.431-7.884-3.084-4.8 0-4.453.684 1.031 3.084 9.253 3.769 9.253 3.769 6.853 0m11.999-44.578c0-1.716-2.747-3.431-5.831-3.431-5.147 0-5.484.684-1.031 3.431 6.516 4.116 6.853 4.116 6.853 0z"/></svg>