<svg xmlns="http://www.w3.org/2000/svg" width="300" height="300" viewBox="0 0 300 300"><title>weapons-hook</title><path d="M185.184 298.153c-9.722-2.775-22.744-11.981-27.956-19.453-9.553-14.063-10.941-18.403-11.119-33.337-.169-12.15.525-15.628 4.688-24.141 5.906-12.15 11.456-18.75 21.178-25.528 8.334-5.728 9.206-8.859 4.341-15.45-3.816-4.866-2.259-10.416 2.953-10.416s7.294-3.816 7.294-13.369c0-6.778-.694-9.553-2.953-10.762-8.681-4.866-8.681-5.034-2.606-10.416 4.866-4.519 5.559-6.253 5.559-13.716 0-14.756-3.122-14.756-16.847-.694-20.316 21.009-21.881 23.438-17.888 27.431 2.081 2.081-5.213 13.894-11.634 18.759-4.172 3.122-4.341 3.122-8.166-.525l-3.994-3.816-22.05 22.922c-13.2 13.894-21.881 24.141-21.534 25.875.347 1.556-2.081 5.906-5.213 9.375-3.122 3.647-7.809 11.119-10.416 16.847-2.606 5.559-5.381 10.247-6.075 10.247-1.913 0-21.881-19.097-23.962-22.922-1.734-3.3 1.912-13.369 6.253-17.016 1.734-1.387 6.422-6.947 10.594-12.506 4.509-5.728 8.681-9.553 10.069-9.028 2.775 1.041 6.6-3.3 5.906-6.778-.694-2.953 10.247-15.628 12.328-14.241 2.081 1.219 5.381-3.122 6.253-7.987.525-2.081 3.3-6.422 6.253-9.553 7.463-7.641 6.253-11.119-9.722-27.787-7.116-7.641-13.022-14.063-13.022-14.409s3.469 0 7.641.525c9.553 1.556 27.084 8.166 33.863 13.022 4.688 3.469 10.594 3.469 10.594.169 0-2.953 19.453-22.397 32.991-33.169 9.206-7.116 13.716-11.813 13.2-13.538-.863-3.3 7.641-10.762 12.675-11.119 1.913 0 2.953-1.041 2.259-2.081-.525-.862-9.553-14.587-19.969-30.038C156.534 13.902 148.547.711 149.063.186c1.219-1.219 19.791 9.9 32.297 19.622 5.213 3.994 13.716 11.813 18.581 17.363l9.206 10.069 5.034-4.866c2.606-2.606 5.559-4.509 6.422-4.341 3.647.694 5.906-.347 5.906-2.606 0-1.388 3.469-4.866 7.809-7.809 12.15-8.166 14.409-9.206 15.806-6.778.694 1.041.525 1.387-.525.863-.862-.525-3.469.169-5.559 1.734-5.213 3.469-2.428 6.422 3.816 4.172 6.6-2.606 11.119 2.081 13.022 13.2.863 5.034 1.041 9.722.169 10.416-.694.694-1.556 3.3-1.913 5.728-.347 3.469-3.3 5.728-14.063 11.288-11.981 6.075-13.369 7.472-12.506 10.941.694 2.953-.862 5.728-6.6 11.981l-7.641 7.987-4.688-3.122c-4.519-2.953-4.688-2.953-8.681.694-3.647 3.469-3.994 5.034-3.3 15.45 1.041 13.547 3.3 18.056 10.762 21.178 7.294 2.953 6.778 6.6-.862 7.988l-6.253 1.219.694 13.716c.525 12.506 1.041 14.241 5.381 17.887 2.606 2.259 4.688 4.519 4.688 5.034s-2.259 2.081-5.213 3.647c-4.688 2.428-5.034 3.469-5.559 13.547l-.525 10.762-9.028 4.341c-15.628 7.472-28.303 22.744-28.303 34.209 0 13.369 8.681 28.125 19.791 33.516 9.028 4.341 27.263 4.866 31.256.863 1.387-1.388 3.647-2.606 4.866-2.606 2.775-.169 22.922-19.097 25.875-24.656 1.219-2.259 2.081-9.206 2.081-15.628-.169-6.6 0-11.813.347-11.813.169 0 2.259 3.647 4.341 8.334 3.122 6.253 3.994 11.456 4.172 22.922.169 13.2-.347 15.45-3.994 19.969-3.469 4.341-3.816 4.519-2.953 1.387 1.734-5.559.525-5.034-8.859 4.172-12.328 11.981-26.222 17.887-41.325 17.709-6.6 0-14.756-.863-17.888-1.734z"/></svg>