<svg xmlns="http://www.w3.org/2000/svg" version="1.1" xmlns:xlink="http://www.w3.org/1999/xlink" xml:space="preserve" xmlns:serif="http://www.serif.com/" style="fill-rule:evenodd;clip-rule:evenodd;stroke-linejoin:round;stroke-miterlimit:2;" viewBox="-0.02 0 340.03 340.02" width="340.03" height="340.02"><g transform="matrix(1.28323,0,0,1.28053,7.30568,2.84217e-14)">
        <rect x="-5.693" y="0" width="264.957" height="265.515" style="fill:rgb(90,80,72);"></rect>
    </g><g id="Layer_22">
        <path d="M161.956,233.787C161.956,233.787 159.497,240.046 155.156,248.913C153.188,252.821 154.246,257.617 157.676,260.335C160.781,262.71 165.783,264.476 173.731,263.135L188.88,233.791L161.956,233.787Z" style="fill:rgb(130,24,26);fill-rule:nonzero;"></path>
        <path d="M159.838,204.14C157.915,211.77 155.089,219.144 151.419,226.105C150.72,227.368 150.353,228.789 150.353,230.233C150.353,233.714 152.486,236.861 155.719,238.152C161.354,240.28 170.278,240.744 183.438,234.089L188.88,199.3L159.838,204.14Z" style="fill:rgb(130,24,26);fill-rule:nonzero;"></path>
        <path d="M179.5,177.822L158.324,174.494C156.568,183.007 153.68,191.247 149.738,198.994C149.095,200.211 148.758,201.567 148.758,202.944C148.758,206.698 151.26,210.023 154.868,211.063C161.823,213.073 171.72,212.994 181.617,202.932L179.5,177.822Z" style="fill:rgb(130,24,26);fill-rule:nonzero;"></path>
        <g transform="matrix(0.91262,-0.408808,0.408808,0.91262,-36.902,64.264)">
            <path d="M186.232,51.386L186.232,185.528C186.232,190.747 181.995,194.984 176.776,194.984L86.987,194.984C81.768,194.984 77.531,190.747 77.531,185.528L77.531,51.386C77.531,46.167 81.768,41.93 86.987,41.93L176.776,41.93C181.995,41.93 186.232,46.167 186.232,51.386Z" style="fill:rgb(216,208,197);"></path>
        </g>
        <path d="M132.548,186.546C127.475,187.631 122.408,184.351 121.322,179.278L93.245,48.108C93.106,47.457 93.036,46.794 93.036,46.129C93.036,41.685 96.168,37.812 100.513,36.882L188.313,18.088C188.964,17.949 189.627,17.879 190.292,17.879C194.736,17.879 198.609,21.011 199.539,25.356L203.465,43.7L132.548,186.546Z" style="fill:rgb(228,221,211);fill-rule:nonzero;"></path>
        <path d="M132.713,186.511L220.348,167.752C224.693,166.822 227.825,162.949 227.825,158.505C227.825,157.84 227.755,157.177 227.616,156.526L207.282,61.532L179.721,41.018L132.713,186.511Z" style="fill:rgb(216,208,197);fill-rule:nonzero;"></path>
        <path d="M179.479,235.236C209.053,213.92 238.895,197.216 269.353,191.078C270.037,192.478 270.71,193.913 271.371,195.383C274.322,202.048 274.452,209.633 271.731,216.395C263.845,236.272 248.352,283.332 258.589,325.406L177.75,325.406C177.75,325.406 163.15,316.323 166.342,290.277C169.534,264.231 176.153,256.858 179.479,235.236Z" style="fill:rgb(159,7,18);fill-rule:nonzero;"></path>
        <path d="M239.877,165.546L213.453,196.035L227.117,229.869C227.398,230.571 228.082,231.034 228.839,231.034C229.817,231.034 230.636,230.261 230.691,229.284C231.075,222.945 230.83,216.584 229.961,210.293L249.419,214.623C256.446,216.187 263.559,211.919 265.487,204.983L269.352,191.083C263.92,179.943 257.153,169.505 249.2,160L239.877,165.546Z" style="fill:rgb(130,24,26);fill-rule:nonzero;"></path>
        <path d="M244.71,203.025L227.129,199.034C212.851,186.811 196.94,185.151 180.27,188.395L157.15,183.146C152.859,182.172 149.787,178.325 149.787,173.925C149.787,173.22 149.866,172.518 150.022,171.831L179.722,41.018C180.871,35.959 185.979,32.742 191.038,33.89L278.6,53.769C283.659,54.918 286.876,60.026 285.728,65.085L256.026,195.9C254.876,200.958 249.768,204.174 244.71,203.025Z" style="fill:rgb(228,221,211);fill-rule:nonzero;"></path>
        <path d="M200.5,192.988L227.131,199.034C225.017,190.801 222.104,179.834 219.771,172.47C215.6,159.317 200.5,152.391 200.5,152.391L200.5,192.988Z" style="fill:rgb(216,208,197);fill-rule:nonzero;"></path>
        <path d="M179.479,235.236C179.479,235.236 181.455,201.668 173.879,172.489C173.879,172.489 171.71,161.425 184.113,152.757C186.602,151.029 189.561,150.103 192.591,150.103C198.89,150.103 204.536,154.106 206.622,160.049C209.663,168.66 213.538,180.53 217.065,194.035C218.826,200.744 221.033,207.327 223.673,213.741C226.366,220.31 229.537,229.449 229.964,236.91L179.479,235.236Z" style="fill:rgb(159,7,18);fill-rule:nonzero;"></path>
        <path d="M279.372,50.357L204.81,33.428L202.961,24.628C201.465,17.683 194.529,13.193 187.58,14.67L99.78,33.459C96.445,34.235 93.526,36.247 91.615,39.088C88.366,43.662 89.972,49.541 89.972,49.541L58.194,63.775C51.713,66.688 48.769,74.412 51.667,80.9L106.505,203.32C109.411,209.806 117.139,212.753 123.626,209.849L145.64,199.987C144.123,205.86 147.326,212 153.011,214.116C151.674,217.658 150.112,221.11 148.335,224.453C146.663,227.562 146.413,231.247 147.651,234.553C148.83,237.721 151.32,240.23 154.479,241.433C154.579,241.47 154.679,241.494 154.779,241.533C153.884,243.481 152.967,245.433 152.013,247.384C149.317,252.785 150.802,259.396 155.55,263.124C158.988,265.652 163.137,267.035 167.404,267.073C165.288,274.537 163.772,282.157 162.869,289.862C160.869,306.171 165.461,316.441 169.669,322.183C170.48,323.291 171.246,324.447 171.986,325.632L180.08,325.632C178.669,322.997 177.078,320.463 175.317,318.048C171.859,313.325 168.098,304.748 169.817,290.713C171.087,280.285 173.448,270.019 176.859,260.083C179.57,252.17 181.604,244.041 182.939,235.783C182.947,235.727 182.939,235.673 182.947,235.617C182.955,235.561 182.97,235.517 182.973,235.456C183.055,234.066 184.887,201.115 177.304,171.778C177.159,170.778 176.304,162.5 186.115,155.641C189,153.61 192.681,153.058 196.035,154.154C199.44,155.233 202.143,157.859 203.319,161.231C207.277,172.437 210.761,183.777 213.675,194.931C215.477,201.79 217.734,208.521 220.431,215.08C222.963,221.254 226.065,230.09 226.466,237.12C226.571,238.961 228.114,240.419 229.958,240.42C230.025,240.42 230.092,240.42 230.158,240.414C232.002,240.311 233.464,238.766 233.464,236.919C233.464,236.853 233.462,236.787 233.458,236.721C233.001,228.721 229.645,219.093 226.911,212.421C225.454,208.867 224.149,205.279 222.975,201.687L243.939,206.447C244.888,206.663 245.859,206.772 246.832,206.773C252.852,206.757 258.108,202.55 259.442,196.68L262.12,184.88C264.29,188.733 266.297,192.644 268.075,196.58C270.698,202.467 270.836,209.17 268.459,215.16C260.987,234.007 244.792,282.368 255.053,325.622L262.2,325.622L262.025,324.731C262.015,324.68 262.004,324.631 261.991,324.579C251.9,283.122 267.7,236.053 274.963,217.74C278.035,209.988 277.851,201.316 274.453,193.701C271.521,187.228 268.152,180.962 264.371,174.946L289.138,65.86C289.352,64.919 289.459,63.958 289.459,62.993C289.459,56.964 285.251,51.694 279.372,50.36L279.372,50.357ZM97.492,42.892C98.347,41.563 99.699,40.631 101.245,40.305L189.045,21.511C192.235,20.829 195.422,22.886 196.113,26.074L197.299,31.723L191.812,30.477C184.883,28.912 177.892,33.317 176.312,40.243L146.612,171.056C145.94,173.981 146.312,177.052 147.665,179.731L131.819,183.123C128.624,183.805 125.434,181.74 124.748,178.546L96.667,47.375C96.333,45.831 96.63,44.216 97.492,42.892ZM120.764,203.457C117.782,204.79 114.231,203.436 112.893,200.457L58.056,78.035C56.724,75.053 58.077,71.503 61.056,70.164L91.471,56.54L117.9,180.011C119.172,185.964 124.478,190.257 130.565,190.257C131.478,190.257 132.388,190.16 133.281,189.969L153.163,185.713C153.31,185.676 153.454,185.63 153.594,185.574C154.481,186.006 155.414,186.337 156.375,186.559L157.775,186.877L120.764,203.457ZM152.841,200.616C153.475,199.404 154.608,196.967 155.187,195.708L169.141,189.457L173.867,190.53C174.521,195.074 175,199.546 175.347,203.806C169.281,208.376 162.726,209.688 155.847,207.699C153.733,207.091 152.265,205.143 152.265,202.943C152.265,202.132 152.465,201.332 152.847,200.616L152.841,200.616ZM154.205,232.089C153.677,230.671 153.787,229.091 154.505,227.759C156.601,223.807 158.421,219.714 159.953,215.511C160.616,215.559 161.292,215.592 161.986,215.592C166.865,215.578 171.655,214.28 175.873,211.828C176.385,222.176 176.173,230.328 176.054,233.54C168.639,236.34 162.062,236.807 156.954,234.877C155.675,234.395 154.669,233.375 154.205,232.089ZM159.805,257.556C157.693,255.85 157.064,252.87 158.305,250.456C159.522,247.97 160.685,245.471 161.805,242.991C162.488,243.039 163.176,243.077 163.879,243.077C167.59,243.029 171.274,242.444 174.817,241.341C173.57,246.955 172.027,252.5 170.194,257.951C169.97,258.656 169.745,259.365 169.519,260.076C165.48,260.244 162.216,259.4 159.8,257.556L159.805,257.556ZM282.312,64.311L252.612,195.123C251.887,198.308 248.671,200.334 245.485,199.612L220.68,193.981C220.606,193.704 220.52,193.427 220.448,193.15C217.484,181.804 213.948,170.274 209.92,158.884C207.342,151.543 200.367,146.601 192.587,146.601C188.841,146.601 185.183,147.747 182.106,149.884C167.996,159.744 170.335,172.615 170.442,173.158C170.455,173.228 170.471,173.296 170.488,173.364C171.317,176.556 172.024,179.809 172.635,183.069L157.925,179.728C155.222,179.115 153.287,176.692 153.287,173.921C153.287,173.477 153.337,173.035 153.435,172.602L183.135,41.789C183.859,38.603 187.076,36.576 190.263,37.299L277.823,57.179C280.526,57.792 282.461,60.216 282.461,62.987C282.461,63.431 282.411,63.874 282.313,64.307L282.312,64.311Z" style="fill:rgb(24,24,27);fill-rule:nonzero;"></path>
    </g></svg>